<svg width="50" height="50" viewBox="0 0 50 50" fill="none" xmlns="http://www.w3.org/2000/svg">
<path d="M27.4996 36.6671C22.445 36.6671 18.3333 32.555 18.3333 27.501C18.3333 22.4469 22.4454 18.3348 27.4996 18.3348C32.5538 18.3348 36.6659 22.4469 36.6659 27.501C36.6663 32.5551 32.5538 36.6671 27.4996 36.6671ZM27.4996 20.0009C23.364 20.0009 19.9994 23.3653 19.9994 27.5009C19.9994 31.6361 23.3636 35.0009 27.4996 35.0009C31.6352 35.0009 34.9998 31.6364 34.9998 27.5009C34.9998 23.3653 31.6356 20.0009 27.4996 20.0009Z" fill="url(#paint0_linear_5436_13732)"/>
<path d="M27.4996 32.5008C24.7425 32.5008 22.4995 30.2581 22.4995 27.5007C22.4995 24.7436 24.7421 22.5007 27.4996 22.5007C30.2567 22.5007 32.4998 24.7433 32.4998 27.5007C32.4998 30.2581 30.2571 32.5008 27.4996 32.5008ZM27.4996 24.1675C25.6611 24.1675 24.1663 25.6629 24.1663 27.5007C24.1663 29.3385 25.6614 30.834 27.4996 30.834C29.3381 30.834 30.8329 29.3385 30.8329 27.5007C30.8333 25.6629 29.3381 24.1675 27.4996 24.1675Z" fill="url(#paint1_linear_5436_13732)"/>
<path d="M11.6665 19.1674H13.3333V35.8337H11.6665V19.1674Z" fill="url(#paint2_linear_5436_13732)"/>
<path d="M39.1672 18.334H40.834V20.0008H39.1672V18.334Z" fill="url(#paint3_linear_5436_13732)"/>
<path d="M42.5001 40H7.50003C6.12151 40 5 38.8785 5 37.5V17.5C5 16.1215 6.12151 15 7.50003 15H19.7981C20.0578 15 20.2879 14.8344 20.3692 14.5878L21.2586 11.9218C21.642 10.7725 22.7138 10 23.9253 10H31.0748C32.2856 10 33.3574 10.7721 33.7408 11.9218L34.6295 14.5875C34.7118 14.8344 34.9419 15 35.2017 15H42.5C43.8785 15 45 16.1215 45 17.5V37.5C45 38.8785 43.8785 40 42.5 40L42.5001 40ZM7.49917 16.6671C7.03954 16.6671 6.66593 17.041 6.66593 17.5003V37.5003C6.66593 37.9596 7.03955 38.3335 7.49917 38.3335H42.4993C42.9593 38.3335 43.3325 37.9596 43.3325 37.5003L43.3329 17.5003C43.3329 17.041 42.9592 16.6671 42.4996 16.6671H35.2013C34.2222 16.6671 33.3571 16.0432 33.048 15.1149L32.16 12.4496C32.0038 11.9816 31.5677 11.6671 31.0744 11.6671H23.925C23.4318 11.6671 22.9947 11.9816 22.8384 12.4496L21.9497 15.1152C21.6416 16.0432 20.7764 16.6671 19.7975 16.6671H7.49917Z" fill="url(#paint4_linear_5436_13732)"/>
<path d="M9.16609 11.6673H12.4994V13.3341H9.16609V11.6673Z" fill="url(#paint5_linear_5436_13732)"/>
<defs>
<linearGradient id="paint0_linear_5436_13732" x1="0" y1="0" x2="0" y2="1" gradientUnits="objectBoundingBox">
<stop stop-color="#ED3040"/>
<stop offset="1" stop-color="#2D23F4"/>
</linearGradient>
<linearGradient id="paint1_linear_5436_13732" x1="0" y1="0" x2="0" y2="1" gradientUnits="objectBoundingBox">
<stop stop-color="#ED3040"/>
<stop offset="1" stop-color="#2D23F4"/>
</linearGradient>
<linearGradient id="paint2_linear_5436_13732" x1="0" y1="0" x2="0" y2="1" gradientUnits="objectBoundingBox">
<stop stop-color="#ED3040"/>
<stop offset="1" stop-color="#2D23F4"/>
</linearGradient>
<linearGradient id="paint3_linear_5436_13732" x1="0" y1="0" x2="0" y2="1" gradientUnits="objectBoundingBox">
<stop stop-color="#ED3040"/>
<stop offset="1" stop-color="#2D23F4"/>
</linearGradient>
<linearGradient id="paint4_linear_5436_13732" x1="0" y1="0" x2="0" y2="1" gradientUnits="objectBoundingBox">
<stop stop-color="#ED3040"/>
<stop offset="1" stop-color="#2D23F4"/>
</linearGradient>
<linearGradient id="paint5_linear_5436_13732" x1="0" y1="0" x2="0" y2="1" gradientUnits="objectBoundingBox">
<stop stop-color="#ED3040"/>
<stop offset="1" stop-color="#2D23F4"/>
</linearGradient>
</defs>
</svg>
