<svg width="50" height="50" viewBox="0 0 50 50" fill="none" xmlns="http://www.w3.org/2000/svg">
<path d="M44.1667 13.0005H38.6667C38.1667 13.0005 37.8333 13.3398 37.8333 13.8486V15.7991H27.6667V13.8486C27.6667 13.3398 27.3333 13.0005 26.8334 13.0005H21.3334C20.8334 13.0005 20.5 13.3398 20.5 13.8486V15.7991H12.1667V13.8486C12.1667 13.3398 11.8333 13.0005 11.3333 13.0005H5.83334C5.33339 13.0005 5 13.3398 5 13.8486V19.4456C5 19.9544 5.3334 20.2937 5.83334 20.2937H11.3333C11.8333 20.2937 12.1667 19.9544 12.1667 19.4456V17.4951H18.3335C13.8333 19.8698 10.8334 24.5339 10.5834 29.7068H8.58337C8.08342 29.7068 7.75003 30.0461 7.75003 30.5549V36.1519C7.75003 36.6607 8.08343 37 8.58337 37H14.0834C14.5833 37 14.9167 36.6607 14.9167 36.1519V30.5549C14.9167 30.0461 14.5833 29.7068 14.0834 29.7068H12.1667C12.5001 24.5336 15.75 20.1234 20.5 18.2578V19.3603C20.5 19.8691 20.8334 20.2084 21.3334 20.2084H26.8334C27.3333 20.2084 27.6667 19.8691 27.6667 19.3603V17.6642C33.2501 18.8515 37.4999 23.7701 37.8333 29.6214H36.0001C35.5001 29.6214 35.1667 29.9607 35.1667 30.4695V36.0665C35.1667 36.5753 35.5002 36.9146 36.0001 36.9146H41.5001C42 36.9146 42.3334 36.5753 42.3334 36.0665V30.4695C42.3334 29.9607 42 29.6214 41.5001 29.6214H39.5834C39.25 24.3636 36.25 19.7843 31.8333 17.4097H37.9167V19.3602C37.9167 19.869 38.2501 20.2083 38.75 20.2083L44.1667 20.2086C44.6666 20.2086 45 19.8693 45 19.3605V13.7635C45 13.3393 44.6666 13 44.1667 13V13.0005ZM10.4997 18.5131H6.66636V14.6121H10.4997V18.5131ZM13.2497 35.2195H9.41639V31.3186H13.2497V35.2195ZM40.5833 35.2195H36.75V31.3186H40.5833V35.2195ZM22.1666 18.5131V14.6121H26V18.4282H22.1666V18.5131ZM43.3336 18.5131H39.5003V14.6121L43.3336 14.6118V18.5131Z" fill="url(#paint0_linear_5436_13714)"/>
<defs>
<linearGradient id="paint0_linear_5436_13714" x1="37.6624" y1="30.1838" x2="37.6624" y2="34.9903" gradientUnits="userSpaceOnUse">
<stop stop-color="#ED3040"/>
<stop offset="1" stop-color="#2D23F4"/>
</linearGradient>
</defs>
</svg>
