<svg width="50" height="50" viewBox="0 0 50 50" fill="none" xmlns="http://www.w3.org/2000/svg">
<path d="M42.3891 27.8796V23.2615C42.3881 22.5694 42.1126 21.9064 41.6231 21.4172C41.134 20.9284 40.4706 20.6533 39.7785 20.6527H13.3041C13.3162 20.6257 13.3291 20.5994 13.3405 20.5721L21.958 17.9255L21.9665 17.9231L41.9062 11.7996V11.7999C42.3478 11.662 42.7173 11.3553 42.934 10.9467C43.1508 10.5381 43.1976 10.0604 43.0641 9.61751L42.0491 6.24407C41.9159 5.7974 41.6091 5.42288 41.1975 5.20477C40.7916 4.98666 40.3149 4.94048 39.8747 5.07734L35.7684 6.33912L35.7647 6.34013L8.26591 14.7276C7.09343 15.0256 6.09899 15.8007 5.52285 16.8646C4.94706 17.9285 4.84155 19.1846 5.23259 20.3293C5.62364 21.4745 6.47549 22.4039 7.58229 22.893V42.3915C7.58331 43.0832 7.85872 43.7466 8.34787 44.2354C8.83736 44.7246 9.50076 44.9997 10.1929 45H30.2068C31.1194 44.9899 31.9813 44.579 32.5636 43.8758C32.8077 43.4888 33.2331 43.2542 33.6906 43.2542C34.1484 43.2542 34.5738 43.4888 34.8178 43.8758C35.393 44.5871 36.2586 45 37.1732 45C38.0882 45 38.9539 44.587 39.529 43.8758C39.7714 43.4891 40.1954 43.2545 40.6519 43.2542C41.108 43.2542 41.5324 43.4884 41.7752 43.8751C42.0651 44.283 42.5135 44.5497 43.0103 44.6097C43.5076 44.6697 44.0065 44.5173 44.3854 44.19C44.764 43.863 44.9872 43.391 45 42.8907V33.6955C44.9983 31.4733 44.0487 29.3573 42.3894 27.8791L42.3891 27.8796ZM36.7367 7.86504L40.3826 6.74548L41.3949 10.1368L36.0786 11.7694L36.7367 7.86504ZM30.0754 9.91094L34.8751 8.43677L34.2168 12.3411L29.417 13.8153L30.0754 9.91094ZM23.414 11.9568L28.2138 10.4827L27.5558 14.3867L22.756 15.8608L23.414 11.9568ZM39.7783 22.3913C40.2583 22.392 40.6477 22.781 40.6484 23.261V26.6955C39.7341 26.2394 38.739 25.9683 37.7195 25.8975L35.9652 22.3913L39.7783 22.3913ZM34.0191 22.3913L35.7596 25.8696H30.7441L29.0036 22.3913H34.0191ZM27.0578 22.3913L28.7983 25.8696H23.7828L22.0423 22.3913H27.0578ZM20.0965 22.3913L21.837 25.8696H9.32169V23.261C10.2545 23.2583 11.1609 22.9529 11.9054 22.3913H20.0965ZM21.5524 12.5281L20.8944 16.4321L13.6469 18.6577C13.5734 17.4013 12.9555 16.2394 11.955 15.4758L21.5524 12.5281ZM6.71136 18.9132C6.72249 17.9879 7.22242 17.1374 8.02572 16.6779C8.82872 16.2184 9.81507 16.2184 10.6184 16.6779C11.4218 17.1374 11.9217 17.9879 11.9325 18.9132C11.9217 19.8386 11.4218 20.6888 10.6184 21.1482C9.8151 21.6077 8.82874 21.6077 8.02537 21.1482C7.22237 20.6888 6.72241 19.8382 6.71128 18.9132H6.71136ZM29.3359 33.6955V43.2609H10.1919C9.71147 43.2605 9.32212 42.8715 9.32143 42.3915V27.6093H32.2558C30.4104 29.0909 29.3367 31.3296 29.3357 33.6961L29.3359 33.6955ZM43.2587 42.8906L43.2533 42.8863C42.7032 42.0819 41.8081 41.5817 40.8349 41.5345C39.8617 41.4873 38.9222 41.8989 38.2968 42.6463C38.0538 43.0329 37.629 43.2679 37.1722 43.2679C36.7151 43.2679 36.2903 43.0329 36.0473 42.6463C34.5907 40.9813 32.4167 41.2567 31.0762 42.8944V33.6957C31.0762 31.5197 32.2372 29.5088 34.122 28.4207C36.0065 27.3325 38.3285 27.3325 40.2133 28.4207C42.0978 29.5088 43.2588 31.5197 43.2588 33.6957L43.2587 42.8906ZM40.6481 32.8264V34.5655C40.6481 35.0459 40.2588 35.4356 39.778 35.4356C39.2973 35.4356 38.908 35.0459 38.908 34.5655V32.8264C38.908 32.3457 39.2973 31.9563 39.778 31.9563C40.2588 31.9563 40.6481 32.3457 40.6481 32.8264ZM35.427 34.5655H35.4273C35.4273 35.0459 35.0376 35.4356 34.5569 35.4356C34.0765 35.4356 33.6868 35.0459 33.6868 34.5655V32.8264C33.6962 32.3524 34.0829 31.9735 34.5569 31.9735C35.0308 31.9735 35.4175 32.3524 35.4273 32.8264L35.427 34.5655ZM38.0375 39.7829L36.2974 39.7826C36.0651 39.7849 35.8419 39.6946 35.6768 39.5311C35.5119 39.3679 35.4192 39.1454 35.4192 38.9132C35.4192 38.6809 35.5119 38.4584 35.6768 38.2953C35.8419 38.1321 36.0651 38.0414 36.2974 38.0438H38.0379H38.0375C38.5115 38.0525 38.8914 38.4392 38.8914 38.9132C38.8914 39.3871 38.5115 39.7741 38.0375 39.7825L38.0375 39.7829ZM24.1622 32.6979L18.1036 29.6707C17.1547 29.1964 16.0277 29.247 15.1252 29.8042C14.2224 30.3618 13.673 31.3468 13.6723 32.4077V38.4624V38.4621C13.6834 39.5189 14.2352 40.4958 15.1343 41.0511C16.0334 41.6063 17.1542 41.6623 18.1039 41.1991L24.1621 38.1719C24.8356 37.825 25.3578 37.2418 25.6281 36.5342C25.8988 35.8262 25.8988 35.0435 25.6281 34.3359C25.3578 33.6279 24.8356 33.0447 24.1621 32.6979L24.1622 32.6979ZM23.3838 36.6161L17.3259 39.6433C16.916 39.8445 16.4316 39.8213 16.0429 39.5813C15.6545 39.3416 15.4165 38.9188 15.4128 38.462V32.4073L15.4125 32.4076C15.4165 31.9512 15.6545 31.5287 16.0429 31.2888C16.4312 31.0491 16.9156 31.0255 17.3256 31.2264L23.3838 34.2536C23.675 34.4029 23.9012 34.6544 24.0182 34.9602C24.1355 35.2659 24.1355 35.604 24.0182 35.9098C23.9012 36.2156 23.675 36.4671 23.3838 36.6161Z" fill="url(#paint0_linear_5436_13706)"/>
<defs>
<linearGradient id="paint0_linear_5436_13706" x1="0" y1="0" x2="0" y2="1" gradientUnits="objectBoundingBox">
<stop stop-color="#ED3040"/>
<stop offset="1" stop-color="#2D23F4"/>
</linearGradient>
</defs>
</svg>
