<svg width="50" height="50" viewBox="0 0 50 50" fill="none" xmlns="http://www.w3.org/2000/svg">
<path d="M44 41.0305C44 39.0209 43.8683 36.9917 43.6076 35.0007L40.6634 12.4512C40.6612 12.4369 40.6521 12.4248 40.6487 12.4109C40.6411 12.3777 40.6304 12.3467 40.6143 12.316C40.603 12.2943 40.5902 12.2751 40.5746 12.2555C40.5646 12.2425 40.5597 12.2267 40.5481 12.2149C40.5359 12.2025 40.5197 12.1972 40.5066 12.187C40.4957 12.1783 40.4896 12.1656 40.478 12.1581L37.2356 10.0778C37.1947 9.95621 37.0993 9.8579 36.9743 9.8182L30.3287 7.70775L27.7452 5.11816C27.6696 5.0428 27.5681 5 27.4616 5H22.474C22.4651 5 22.4575 5.00465 22.4487 5.00527C22.4398 5.0062 22.4313 5.00248 22.4224 5.00372C22.4041 5.0062 22.3901 5.01613 22.373 5.02109C22.3468 5.02822 22.3212 5.03504 22.2968 5.04745C22.2721 5.05986 22.2517 5.07567 22.23 5.09273C22.2166 5.10296 22.2005 5.10886 22.1889 5.12064L19.6215 7.73198L13.0342 9.81766C12.9119 9.85643 12.8189 9.95164 12.7766 10.0692L9.52167 12.1573C9.51008 12.1648 9.50337 12.1778 9.4927 12.1865C9.47928 12.1967 9.46374 12.202 9.45154 12.2144C9.43995 12.2262 9.43507 12.242 9.42532 12.2547C9.41007 12.2745 9.39696 12.2938 9.38537 12.3158C9.36952 12.3462 9.35915 12.3775 9.35153 12.4104C9.34817 12.4243 9.33903 12.4361 9.33689 12.4507L6.39181 35.0001C6.13172 36.9918 6 39.0207 6 41.0303C6 41.6528 6.30247 42.2014 6.76197 42.5364C6.75343 42.5692 6.74215 42.6012 6.74215 42.6372V43.7673C6.74215 44.4468 7.2858 45 7.95414 45H10.6294C11.2974 45 11.8414 44.447 11.8414 43.7673V42.6372C11.8414 42.5829 11.8298 42.5314 11.8112 42.4843C12.1444 42.2172 12.3884 41.8327 12.4734 41.3811L12.7845 39.7234C12.9226 40.5602 13.5537 41.2285 14.3669 41.3969V42.5171C14.3669 43.1966 14.9106 43.7498 15.5789 43.7498L34.6825 43.7495C35.3506 43.7495 35.8945 43.1965 35.8945 42.5167V41.3175C36.5742 41.0781 37.0897 40.4857 37.2212 39.7519L37.527 41.3808C37.6118 41.8323 37.8557 42.2166 38.1893 42.484C38.1704 42.5311 38.1591 42.5826 38.1591 42.6372V43.7673C38.1591 44.4468 38.7027 45 39.3711 45H42.0458C42.7138 45 43.2578 44.447 43.2578 43.7673V42.6372C43.2578 42.6015 43.2462 42.5699 43.2379 42.537C43.6971 42.2017 43.9996 41.6528 43.9996 41.0303L44 41.0305ZM41.9022 28.1759H37.2585V16.1421L39.9709 13.3838L41.9022 28.1759ZM42.0092 28.9978L42.0653 29.4288H37.2578V28.9978H42.0092ZM37.2585 30.2504H42.1727L42.2288 30.6814H37.2584L37.2585 30.2504ZM37.2585 14.9797V11.0621L39.6203 12.5774L37.2585 14.9797ZM37.2585 31.5032H42.3365L42.3926 31.9343H37.2585L37.2585 31.5032ZM25.0769 12.983H24.8193C23.8899 12.0808 23.3252 8.78409 22.9352 5.82142H26.96C26.5703 8.7844 26.0059 12.0808 25.0769 12.983ZM26.1301 12.9033C26.7594 11.766 27.2515 9.68069 27.7187 6.24476L29.7344 8.26557V8.48856C29.7344 10.6836 28.1784 12.5129 26.1301 12.9033ZM20.2407 8.26343L22.183 6.28787C22.6459 9.68291 23.1344 11.7521 23.757 12.8878C21.7518 12.4629 20.2407 10.6521 20.2407 8.48827V8.26343ZM10.0301 13.3834L12.7506 16.1501V28.1751H8.09853L10.0301 13.3834ZM7.77171 30.6809L7.82781 30.2498H12.7509L12.7506 30.6809H7.77171ZM12.7502 14.9879L10.3805 12.5776L12.7502 11.0574V14.9879ZM12.7502 28.9978V29.4289L7.93508 29.4285L7.99118 28.9975L12.7502 28.9978ZM7.66407 31.5034H12.7506V31.9344H7.60794L7.66407 31.5034ZM11.0333 43.7665C11.0333 43.9929 10.8519 44.1775 10.6293 44.1775H7.95461C7.73202 44.1775 7.5506 43.9929 7.5506 43.7665V42.851C7.63048 42.8625 7.71007 42.8762 7.79331 42.8762H10.7134C10.8226 42.8762 10.9296 42.8656 11.0339 42.8458V43.7666L11.0333 43.7665ZM11.6794 41.2269C11.5895 41.7064 11.183 42.055 10.7131 42.055H7.79335C7.25 42.055 6.80851 41.595 6.80851 41.0306C6.80851 39.0575 6.93779 37.065 7.19361 35.109L7.50065 32.756H12.7503V35.5189L11.6794 41.2269ZM13.5582 39.3841V10.5125L19.4412 8.64984C19.5107 11.0019 21.0858 12.9721 23.2205 13.5958V22.1204C23.2205 22.3471 23.4016 22.5313 23.6245 22.5313C23.8474 22.5313 24.0285 22.3471 24.0285 22.1204V13.7626C24.2191 13.7861 24.4124 13.8007 24.6088 13.8026C24.6075 13.8165 24.6008 13.8283 24.6008 13.8429V40.6169L14.7704 40.6166C14.102 40.6172 13.5584 40.0639 13.5584 39.3844L13.5582 39.3841ZM34.6835 42.928H15.5784C15.3558 42.928 15.1743 42.7435 15.1743 42.5171V41.4384H35.0874V42.5171C35.0874 42.7435 34.9066 42.928 34.6834 42.928H34.6835ZM36.4511 39.3841C36.4511 40.0636 35.9075 40.6168 35.2392 40.6168H25.4087V13.8428C25.4087 13.8279 25.4017 13.8152 25.4001 13.801C25.5776 13.7982 25.7523 13.7867 25.9249 13.7659V22.1197C25.9249 22.3464 26.106 22.5307 26.3289 22.5307C26.5518 22.5307 26.7329 22.3464 26.7329 22.1197L26.7332 13.6008C28.8838 12.9833 30.4726 11.0006 30.5354 8.63374L36.451 10.5116V15.9553C36.4501 15.9692 36.4501 15.9823 36.451 15.9962V28.5444C36.4495 28.5587 36.4424 28.5714 36.4424 28.5863C36.4424 28.6012 36.4495 28.6139 36.451 28.6282V29.7976C36.4495 29.8119 36.4424 29.8246 36.4424 29.8395C36.4424 29.8544 36.4495 29.8671 36.451 29.8814V31.0508C36.4495 31.0651 36.4424 31.0778 36.4424 31.0927C36.4424 31.1076 36.4495 31.1203 36.451 31.1346V35.5208C36.4476 35.5583 36.4424 35.5955 36.4498 35.6343L36.451 35.6405L36.4511 39.3841ZM37.2592 35.5636V32.7563H42.5009L42.8079 35.1093C43.0637 37.0647 43.193 39.0573 43.193 41.0309C43.193 41.596 42.7512 42.0553 42.2082 42.0553H39.2881C38.8182 42.0553 38.4115 41.7067 38.3212 41.2269L37.2592 35.5636ZM42.4506 43.7665C42.4506 43.9929 42.2695 44.1775 42.0466 44.1775H39.3719C39.149 44.1775 38.9679 43.9929 38.9679 43.7665V42.846C39.0722 42.8659 39.1795 42.8764 39.2887 42.8764H42.2088C42.2917 42.8764 42.3713 42.8625 42.4512 42.8513V43.7665L42.4506 43.7665Z" fill="url(#paint0_linear_5436_13708)"/>
<path d="M15.6115 21.4179V26.8176C15.6115 27.0443 15.7926 27.2285 16.0155 27.2285H20.7288C20.9517 27.2285 21.1328 27.0443 21.1328 26.8176V21.5109C21.75 21.1769 22.1762 20.5234 22.1762 19.7636V18.1199C22.1762 17.8932 21.9951 17.709 21.7722 17.709H15.1401C14.9172 17.709 14.7361 17.8932 14.7361 18.1199V19.7636C14.7361 20.454 15.0846 21.0619 15.6115 21.4179ZM20.3245 26.4067H16.4192V21.7224C16.508 21.7351 16.5967 21.75 16.6888 21.75H20.2236C20.2583 21.75 20.2904 21.7413 20.3245 21.7398L20.3245 26.4067ZM15.5441 18.5315H21.3685V19.7643C21.3685 20.4062 20.855 20.9285 20.2239 20.9285H16.6891C16.0579 20.9285 15.5445 20.4062 15.5445 19.7643V18.5315H15.5441Z" fill="url(#paint1_linear_5436_13708)"/>
<path d="M34.801 20.1746H28.1689C27.9454 20.1746 27.7649 20.3588 27.7649 20.5855V22.2292C27.7649 22.9195 28.1134 23.5271 28.6403 23.8834V29.2832C28.6403 29.5099 28.8208 29.6941 29.0443 29.6941H33.7573C33.9808 29.6941 34.1613 29.5099 34.1613 29.2832L34.161 23.9758C34.7788 23.6418 35.205 22.9883 35.205 22.2285V20.5849C35.205 20.3585 35.0245 20.1746 34.801 20.1746ZM33.3533 28.8722H29.4483V24.1879C29.5371 24.2006 29.6252 24.2155 29.7173 24.2155H33.2521C33.2868 24.2155 33.3188 24.2068 33.353 24.2053L33.3533 28.8722ZM34.397 22.2294C34.397 22.8714 33.8835 23.3937 33.252 23.3937H29.7172C29.0861 23.3937 28.5726 22.8714 28.5726 22.2294V20.9967H34.397V22.2294Z" fill="url(#paint2_linear_5436_13708)"/>
<defs>
<linearGradient id="paint0_linear_5436_13708" x1="0" y1="0" x2="0" y2="1" gradientUnits="objectBoundingBox">
<stop stop-color="#ED3040"/>
<stop offset="1" stop-color="#2D23F4"/>
</linearGradient>
<linearGradient id="paint1_linear_5436_13708" x1="0" y1="0" x2="0" y2="1" gradientUnits="objectBoundingBox">
<stop stop-color="#ED3040"/>
<stop offset="1" stop-color="#2D23F4"/>
</linearGradient>
<linearGradient id="paint2_linear_5436_13708" x1="0" y1="0" x2="0" y2="1" gradientUnits="objectBoundingBox">
<stop stop-color="#ED3040"/>
<stop offset="1" stop-color="#2D23F4"/>
</linearGradient>
</defs>
</svg>
