<svg width="50" height="50" viewBox="0 0 50 50" fill="none" xmlns="http://www.w3.org/2000/svg">
<path d="M21.1639 12.2504C12.2338 12.2504 5 19.5884 5 28.6479C5 33.4945 8.97405 33.6304 11.8762 33.6757C13.573 33.7211 15.359 33.7664 16.2522 34.5818C17.0114 35.3067 17.0114 37.028 17.0114 38.6587C17.0114 40.6064 16.9668 42.6448 18.217 43.913C18.9315 44.6379 19.9137 45 21.2085 45C30.1386 45 37.3723 37.6619 37.3723 28.6025C37.3723 19.543 30.0942 12.2499 21.1642 12.2499L21.1639 12.2504ZM21.1639 42.9164C20.4493 42.9164 19.9584 42.7805 19.6904 42.4633C19.0652 41.829 19.0652 40.2436 19.0652 38.7037C19.0652 36.7106 19.1099 34.4004 17.6364 33.0415C16.163 31.6374 14.0196 31.5921 11.8764 31.5468C8.43824 31.4562 7.09881 31.1844 7.09881 28.648C7.09881 20.7662 13.3948 14.3795 21.164 14.3795C28.9334 14.3795 35.2291 20.7665 35.2291 28.648C35.2291 36.5294 28.9331 42.9165 21.164 42.9165L21.1639 42.9164Z" fill="url(#paint0_linear_5436_13696)"/>
<path d="M28.3081 19.7694C26.7454 19.7694 25.4506 21.0829 25.4506 22.6682C25.4506 24.2536 26.7454 25.5671 28.3081 25.5671C29.8709 25.5671 31.1656 24.2536 31.1656 22.6682C31.1656 21.0376 29.8709 19.7694 28.3081 19.7694ZM28.3081 24.1177C27.5042 24.1177 26.8794 23.4381 26.8794 22.6682C26.8794 21.8527 27.5493 21.2188 28.3081 21.2188C29.112 21.2188 29.7369 21.8984 29.7369 22.6682C29.7369 23.4837 29.1116 24.1177 28.3081 24.1177Z" fill="url(#paint1_linear_5436_13696)"/>
<path d="M24.5131 18.9539C24.5131 17.3686 23.2183 16.0551 21.6556 16.0551C20.0928 16.0551 18.798 17.3686 18.798 18.9539C18.798 20.5393 20.0928 21.8528 21.6556 21.8528C23.2183 21.8528 24.5131 20.5846 24.5131 18.9539ZM21.6552 20.4487C20.8513 20.4487 20.2265 19.7691 20.2265 18.9993C20.2265 18.2291 20.8964 17.5498 21.6552 17.5498C22.4591 17.5498 23.084 18.2294 23.084 18.9993C23.0843 19.7694 22.4591 20.4487 21.6552 20.4487Z" fill="url(#paint2_linear_5436_13696)"/>
<path d="M27.6833 30.0064C27.6833 31.5918 28.9781 32.9052 30.5408 32.9052C32.1036 32.9052 33.3983 31.5918 33.3983 30.0064C33.3983 28.421 32.1036 27.1076 30.5408 27.1076C28.9781 27.1076 27.6833 28.421 27.6833 30.0064ZM32.0146 30.0064C32.0146 30.8219 31.3447 31.4558 30.5858 31.4558C29.8266 31.4558 29.1571 30.7762 29.1571 30.0064C29.1571 29.2362 29.827 28.557 30.5858 28.557C31.3447 28.557 32.0146 29.1909 32.0146 30.0064Z" fill="url(#paint3_linear_5436_13696)"/>
<path d="M14.5106 18.7274C12.9478 18.7274 11.6531 20.0408 11.6531 21.6262C11.6531 23.2116 12.9478 24.525 14.5106 24.525C16.0734 24.525 17.3681 23.2116 17.3681 21.6262C17.3685 20.0408 16.0737 18.7274 14.5106 18.7274ZM14.5106 23.076C13.7067 23.076 13.0818 22.3964 13.0818 21.6266C13.0818 20.8111 13.7517 20.1771 14.5106 20.1771C15.3145 20.1771 15.9394 20.8567 15.9394 21.6266C15.9397 22.4417 15.3145 23.076 14.5106 23.076Z" fill="url(#paint4_linear_5436_13696)"/>
<path d="M26.4328 33.6297C24.87 33.6297 23.5752 34.9432 23.5752 36.5286C23.5752 38.1139 24.87 39.4274 26.4328 39.4274C27.9955 39.4274 29.2903 38.1139 29.2903 36.5286C29.2903 34.9432 28.0402 33.6297 26.4328 33.6297ZM26.4328 37.9783C25.6289 37.9783 25.004 37.2987 25.004 36.5289C25.004 35.7587 25.6739 35.0795 26.4328 35.0795C27.192 35.0795 27.8615 35.7591 27.8615 36.5289C27.8615 37.2987 27.2363 37.9783 26.4328 37.9783Z" fill="url(#paint5_linear_5436_13696)"/>
<path d="M44.8744 27.7416L39.5609 12.9292C39.4269 12.6573 39.2483 12.4308 38.9356 12.2949C39.3822 11.57 39.4269 10.6642 39.1143 9.89406C38.623 8.71643 37.8642 8.08222 37.2389 7.62917C36.5244 7.0402 36.1674 6.76837 36.3014 5.81733C36.3461 5.5455 36.2568 5.31897 36.0335 5.13775C35.8548 5.00184 35.5869 4.95653 35.3189 5.04714C34.8723 5.22836 34.5597 5.63611 34.2921 6.3153C33.7115 7.7194 33.5328 10.2562 34.2474 11.9322C34.56 12.7477 35.2296 13.2909 35.9888 13.5175C35.8994 13.8347 35.8548 14.1518 35.9888 14.4686L42.5077 28.6921C42.6417 29.0545 42.8204 29.2811 42.999 29.4623C43.2223 29.6435 43.4456 29.7341 43.7136 29.7341C43.8922 29.7341 44.0262 29.6888 44.2048 29.6435C44.6514 29.4623 44.9194 29.0998 44.9194 28.6472C45.053 28.3307 45.0084 28.0589 44.8744 27.7418L44.8744 27.7416ZM35.5871 11.3441C35.1405 10.2571 35.1851 8.76199 35.3638 7.675C35.6317 8.08275 36.0337 8.39989 36.3906 8.67137C36.9712 9.12442 37.4621 9.53217 37.8194 10.3927C37.9534 10.7551 37.9087 11.2082 37.6854 11.5703C37.5514 11.7968 37.2388 12.114 36.6139 12.114C36.212 12.1143 35.7657 11.8424 35.5871 11.3441ZM37.7751 13.5184C37.9091 13.4731 38.1771 13.4731 38.311 13.5184L38.9809 15.3303L38.2217 15.6474L37.4178 13.8809C37.4178 13.7903 37.6411 13.5637 37.7751 13.5184ZM38.7573 16.9609L39.4272 16.6891L42.1507 24.2991L38.7573 16.9609Z" fill="url(#paint6_linear_5436_13696)"/>
<defs>
<linearGradient id="paint0_linear_5436_13696" x1="37.6624" y1="33.6397" x2="37.6624" y2="41.6506" gradientUnits="userSpaceOnUse">
<stop stop-color="#ED3040"/>
<stop offset="1" stop-color="#2D23F4"/>
</linearGradient>
<linearGradient id="paint1_linear_5436_13696" x1="37.6624" y1="33.6397" x2="37.6624" y2="41.6506" gradientUnits="userSpaceOnUse">
<stop stop-color="#ED3040"/>
<stop offset="1" stop-color="#2D23F4"/>
</linearGradient>
<linearGradient id="paint2_linear_5436_13696" x1="37.6624" y1="33.6397" x2="37.6624" y2="41.6506" gradientUnits="userSpaceOnUse">
<stop stop-color="#ED3040"/>
<stop offset="1" stop-color="#2D23F4"/>
</linearGradient>
<linearGradient id="paint3_linear_5436_13696" x1="37.6624" y1="33.6397" x2="37.6624" y2="41.6506" gradientUnits="userSpaceOnUse">
<stop stop-color="#ED3040"/>
<stop offset="1" stop-color="#2D23F4"/>
</linearGradient>
<linearGradient id="paint4_linear_5436_13696" x1="37.6624" y1="33.6397" x2="37.6624" y2="41.6506" gradientUnits="userSpaceOnUse">
<stop stop-color="#ED3040"/>
<stop offset="1" stop-color="#2D23F4"/>
</linearGradient>
<linearGradient id="paint5_linear_5436_13696" x1="37.6624" y1="33.6397" x2="37.6624" y2="41.6506" gradientUnits="userSpaceOnUse">
<stop stop-color="#ED3040"/>
<stop offset="1" stop-color="#2D23F4"/>
</linearGradient>
<linearGradient id="paint6_linear_5436_13696" x1="37.6624" y1="33.6397" x2="37.6624" y2="41.6506" gradientUnits="userSpaceOnUse">
<stop stop-color="#ED3040"/>
<stop offset="1" stop-color="#2D23F4"/>
</linearGradient>
</defs>
</svg>
