<svg width="50" height="50" viewBox="0 0 50 50" fill="none" xmlns="http://www.w3.org/2000/svg">
<path d="M38.5739 33.9336C38.3952 33.7549 38.1262 33.7016 37.8926 33.7984C37.6594 33.8951 37.5071 34.1228 37.5068 34.3755V36.3656C37.3067 36.2915 37.0951 36.2527 36.8817 36.2506C36.3844 36.2506 35.9073 36.4481 35.5556 36.7998C35.2038 37.1512 35.0062 37.6283 35.0062 38.1257C35.0062 38.6228 35.2038 39.0998 35.5556 39.4515C35.9074 39.8029 36.3845 40.0004 36.8817 40.0004C37.3793 40.0004 37.8561 39.8029 38.2078 39.4515C38.5596 39.0998 38.7572 38.6228 38.7572 38.1257V35.8843L38.9402 36.0673C39.1856 36.3043 39.5755 36.3008 39.8165 36.0599C40.0578 35.8189 40.0612 35.4291 39.8243 35.1837L38.5739 33.9336ZM36.8817 38.7506C36.6288 38.7506 36.4008 38.5984 36.3041 38.3648C36.2073 38.1313 36.2609 37.8624 36.4396 37.6838C36.6186 37.5048 36.8872 37.4515 37.1208 37.5482C37.3544 37.645 37.5067 37.873 37.5067 38.1257C37.5067 38.2913 37.441 38.4504 37.3237 38.5677C37.2064 38.6849 37.0476 38.7506 36.8817 38.7506Z" fill="url(#paint0_linear_5436_13726)"/>
<path d="M42.3245 26.4339L41.0741 25.1837C40.8954 25.0051 40.6264 24.9517 40.3929 25.0482C40.1596 25.145 40.0073 25.3729 40.007 25.6257V27.6158V27.6155C39.8069 27.5417 39.5953 27.5026 39.3819 27.5007C38.8846 27.5007 38.4075 27.6983 38.0558 28.0497C37.704 28.4014 37.5064 28.8784 37.5064 29.3755C37.5064 29.873 37.704 30.3497 38.0558 30.7013C38.4076 31.053 38.8847 31.2506 39.3819 31.2506C39.8795 31.2506 40.3563 31.053 40.708 30.7013C41.0598 30.3496 41.2574 29.8729 41.2574 29.3755V27.1344L41.4404 27.3174C41.6858 27.5543 42.0757 27.5509 42.3167 27.3099C42.5581 27.0687 42.5615 26.6789 42.3245 26.4339ZM39.3819 30.0008C39.1291 30.0008 38.9011 29.8485 38.8043 29.6147C38.7075 29.3811 38.7612 29.1126 38.9398 28.9336C39.1185 28.755 39.3875 28.7016 39.621 28.7981C39.8546 28.8949 40.0069 29.1228 40.0069 29.3756C40.0069 29.5415 39.9412 29.7003 39.8239 29.8175C39.7066 29.9347 39.5478 30.0008 39.3819 30.0008Z" fill="url(#paint1_linear_5436_13726)"/>
<path d="M34.909 28.2997C35.3616 28.0066 35.7065 27.5743 35.8917 27.0678L36.3192 25.8926C36.5462 25.2696 36.5165 24.5817 36.236 23.9806C35.9556 23.3796 35.4481 22.9144 34.8246 22.6877C34.6298 22.6188 34.4273 22.5751 34.2213 22.5577L34.9348 20.6253C35.2893 20.5967 35.6287 20.4677 35.9128 20.2537C36.1969 20.0394 36.4141 19.7488 36.5394 19.4157L37.3947 17.095V17.0953C37.5659 16.6332 37.5445 16.1217 37.3351 15.6758C37.1248 15.2242 36.742 14.8756 36.2723 14.7084L33.9232 13.8639C33.4572 13.6958 32.9442 13.7181 32.4947 13.9259C32.0452 14.1337 31.6957 14.5102 31.5222 14.9739L30.667 17.2946C30.4951 17.7561 30.5165 18.2675 30.7262 18.7131C30.8214 18.9141 30.9523 19.0962 31.1121 19.2506L29.2292 24.3601C28.2321 24.3421 27.2454 24.5614 26.3502 25.0002H21.2528C20.9076 25.0002 20.6278 24.7202 20.6278 24.375V23.4619C21.8959 23.0615 23.0036 22.2679 23.7903 21.1961C24.577 20.1242 25.002 18.8297 25.0038 17.5001C25.6738 17.5001 26.2927 17.1425 26.6277 16.5626C26.9627 15.9823 26.9627 15.2677 26.6277 14.6875C26.2927 14.1075 25.6738 13.7499 25.0038 13.7499V11.2499C25.0038 9.01721 23.8123 6.95388 21.8779 5.83734C19.9438 4.72089 17.5608 4.72089 15.6266 5.83734C13.6925 6.9538 12.5011 9.01721 12.5011 11.2499V13.7499C11.831 13.7499 11.2119 14.1075 10.8768 14.6875C10.5418 15.2677 10.5418 15.9823 10.8768 16.5626C11.2119 17.1425 11.8311 17.5001 12.5011 17.5001C12.5026 18.8297 12.9276 20.1242 13.7142 21.1961C14.5012 22.2679 15.6086 23.0615 16.8771 23.4619V24.375C16.8771 24.5409 16.811 24.6997 16.6937 24.8169C16.5765 24.9342 16.4177 25.0002 16.2517 25.0002H13.1261C11.6344 25.0018 10.2043 25.5951 9.14963 26.6495C8.09496 27.7039 7.50151 29.1337 7.5 30.6251V38.1252C7.50093 38.9536 7.83068 39.7479 8.41665 40.3337C9.00263 40.9195 9.79708 41.2492 10.6256 41.2502H19.8017C20.4822 42.2779 21.392 43.1337 22.4598 43.7502H12.5015V43.1252C12.5015 42.78 12.2217 42.5 11.8765 42.5C11.5312 42.5 11.2511 42.78 11.2511 43.1252V44.3751C11.2511 44.5407 11.3172 44.6998 11.4344 44.817C11.5517 44.9343 11.7105 45 11.8765 45H26.9711C29.7919 45 32.2924 43.5787 33.1687 41.2005V41.2008C33.5785 40.067 33.5962 38.8283 33.2186 37.6832C32.9047 36.5388 33.1895 35.3131 33.9762 34.4243C34.6685 33.5825 35.1205 32.5694 35.2849 31.4916C35.4493 30.4142 35.3196 29.3126 34.9095 28.3024L34.909 28.2997ZM25.0039 15.0001C25.3492 15.0001 25.629 15.2799 25.629 15.6251C25.629 15.9703 25.3492 16.25 25.0039 16.25V15.0001ZM12.5013 16.25C12.156 16.25 11.8762 15.9702 11.8762 15.6251C11.8762 15.2799 12.156 15.0001 12.5013 15.0001V16.25ZM31.8397 17.7244L32.6931 15.4039C32.7858 15.1589 33.0213 14.9976 33.2831 15.0001C33.3569 15.0001 33.4301 15.0131 33.4996 15.0382L35.8494 15.8828V15.8824C36.0048 15.9376 36.1317 16.0527 36.2021 16.2019C36.2697 16.3464 36.2769 16.5117 36.2213 16.6612L35.3661 18.9819C35.2423 19.3026 34.8846 19.4651 34.5617 19.3476L32.2116 18.5031C32.0559 18.4479 31.9287 18.3328 31.8586 18.183C31.7909 18.0388 31.7842 17.8735 31.8397 17.7244ZM32.2265 19.8376L33.6969 20.3658L32.7819 22.85C32.2443 23.1369 31.8307 23.6111 31.6198 24.1826L31.1924 25.3578L31.192 25.3575C30.9895 25.9219 30.9982 26.5403 31.2165 27.0989L29.7161 31.1775C29.2942 30.8516 28.7808 30.6655 28.2479 30.645L32.2265 19.8376ZM29.5383 33.97L29.5386 33.9697C29.3906 34.363 29.0931 34.6821 28.7113 34.8577C28.3294 35.0332 27.8939 35.0509 27.4986 34.9073C27.1013 34.7671 26.7771 34.4728 26.5994 34.091C26.4244 33.7195 26.4064 33.293 26.5497 32.9079C26.6639 32.6039 26.868 32.3422 27.1354 32.1573C27.4025 31.9728 27.7198 31.8745 28.0446 31.8754C28.2304 31.8757 28.4147 31.908 28.5896 31.9712C28.987 32.1114 29.3115 32.4058 29.4892 32.7878C29.6635 33.1594 29.6809 33.5852 29.5379 33.9698L29.5383 33.97ZM13.7511 17.5002V15.0002H19.4843C19.9822 15.0018 20.4599 14.8039 20.8107 14.4507L21.6948 13.5668V13.5671C21.9318 13.3217 21.9284 12.9319 21.6871 12.6909C21.446 12.45 21.0561 12.4465 20.8107 12.6832L19.9266 13.5671H19.927C19.8097 13.6843 19.6502 13.7504 19.4843 13.7501H13.7511V11.2501C13.7511 9.46399 14.7044 7.81312 16.2517 6.91992C17.7989 6.02704 19.7055 6.02704 21.2528 6.91992C22.8001 7.81312 23.7533 9.46399 23.7533 11.2501V13.7501H23.0212C22.9319 13.7504 22.8438 13.7312 22.7625 13.6939C22.4483 13.5507 22.0776 13.6893 21.9343 14.0035C21.791 14.3173 21.9296 14.6882 22.2435 14.8315C22.4877 14.9429 22.7529 15.0006 23.0212 15.0003H23.7533V17.5003C23.7533 19.2867 22.8 20.9372 21.2528 21.8304C19.7055 22.7236 17.799 22.7236 16.2516 21.8304C14.7044 20.9372 13.7511 19.2866 13.7511 17.5002ZM18.1271 24.3754V23.7182C18.5428 23.7607 18.9616 23.7607 19.3772 23.7182V24.3751C19.3785 24.8158 19.5348 25.2419 19.8187 25.5787C20.1025 25.9158 20.4961 26.1419 20.9301 26.2176C20.6413 26.7383 20.1757 27.1381 19.6174 27.3449C19.0593 27.5518 18.4454 27.5518 17.887 27.3449C17.3287 27.1381 16.863 26.7383 16.5743 26.2176C17.0086 26.1419 17.4019 25.9158 17.686 25.5787C17.9699 25.2419 18.1262 24.8158 18.1272 24.3751L18.1271 24.3754ZM21.2527 39.3756V39.3753C21.2527 39.5412 21.187 39.7 21.0697 39.8172C20.9524 39.9344 20.7933 40.0002 20.6277 40.0002H10.6257C10.1284 40.0002 9.65131 39.8026 9.29959 39.4512C8.94782 39.0995 8.75022 38.6225 8.75022 38.1254V35.0002H11.2507V36.8753C11.2507 37.0412 11.3168 37.2 11.4341 37.3172C11.5513 37.4344 11.7102 37.5002 11.8761 37.5002H16.8773C17.0429 37.5002 17.202 37.4344 17.3193 37.3172C17.4362 37.2 17.5023 37.0412 17.5023 36.8753C17.5023 36.5301 17.7821 36.2503 18.1274 36.2503H20.6279C20.7936 36.2503 20.9527 36.3161 21.07 36.4333C21.1872 36.5505 21.253 36.7096 21.253 36.8753L21.2527 39.3756ZM33.8094 32.229C33.6217 32.7373 33.35 33.2109 33.0056 33.6296C31.9503 34.8448 31.5809 36.5105 32.0236 38.0578C32.3164 38.9386 32.3055 39.8922 31.9922 40.7659C31.0502 43.3245 27.6457 44.4577 24.4043 43.2922C23.1818 42.8655 22.0958 42.1202 21.2586 41.1328C21.6215 41.0031 21.9357 40.7649 22.1585 40.4504C22.3812 40.136 22.5015 39.7604 22.5034 39.3752V36.8752C22.5034 36.378 22.3058 35.901 21.954 35.5494C21.6023 35.1977 21.1251 35.0001 20.6279 35.0001H18.1274C17.7396 35.0007 17.3615 35.1211 17.0448 35.345C16.7284 35.5686 16.4886 35.8849 16.3589 36.2503H12.5012V33.1253C12.5012 32.7801 12.2214 32.5001 11.8762 32.5001C11.5309 32.5001 11.2508 32.7801 11.2508 33.1253V33.7503H8.75026V30.6253C8.75182 29.4654 9.21309 28.3533 10.0336 27.5333C10.8537 26.713 11.9661 26.2514 13.1263 26.2502H15.2149C15.5611 27.2324 16.3 28.0264 17.2551 28.4423C18.2102 28.8579 19.295 28.8579 20.2501 28.4423C21.2049 28.0264 21.9441 27.2324 22.29 26.2502H24.6125C23.5228 27.3615 22.8971 28.8458 22.862 30.4014C22.8028 31.5003 22.2941 32.5262 21.4556 33.2389C21.329 33.3499 21.2524 33.5071 21.2431 33.6749C21.2338 33.843 21.2927 34.0077 21.4066 34.1318C21.5201 34.2558 21.6789 34.3287 21.8474 34.334C22.0155 34.3396 22.1787 34.2769 22.3003 34.1603C23.3922 33.2181 24.048 31.8678 24.1131 30.4271C24.1246 29.889 24.2257 29.3569 24.4124 28.8522C24.7499 27.9516 25.34 27.1672 26.112 26.5935C26.8838 26.0198 27.8048 25.6808 28.7645 25.6172L26.8168 30.9072C26.1511 31.2211 25.6349 31.7834 25.379 32.4735C25.12 33.171 25.1523 33.9432 25.4684 34.6165C25.7866 35.3007 26.3667 35.8286 27.0781 36.0809C27.7835 36.3349 28.5602 36.3008 29.2408 35.9867C29.9213 35.6725 30.4505 35.1031 30.7146 34.4015C30.968 33.7168 30.9404 32.9594 30.6383 32.2945L32.1248 28.2583C32.2985 28.3836 32.4874 28.4853 32.6875 28.5613C32.9605 28.6612 33.2489 28.712 33.5396 28.712C33.6022 28.712 33.6646 28.7027 33.7226 28.6984C34.1926 29.823 34.2236 31.0827 33.8095 32.229L33.8094 32.229ZM33.1142 27.3872C32.8021 27.2743 32.5478 27.042 32.4073 26.7418C32.2664 26.4413 32.2509 26.097 32.3641 25.7853L32.7916 24.6102C32.9445 24.1906 33.3096 23.8841 33.7495 23.8066C34.1893 23.7291 34.6373 23.8919 34.9245 24.2343C35.2115 24.5764 35.2943 25.0456 35.1417 25.4652L34.7148 26.6404H34.7145C34.6013 26.9511 34.3689 27.2045 34.069 27.3444C33.769 27.4846 33.4256 27.4998 33.1142 27.3872Z" fill="url(#paint2_linear_5436_13726)"/>
<path d="M28.0398 40.656L23.9653 39.1915L23.965 39.1918C23.8089 39.1357 23.6371 39.1441 23.4869 39.2148C23.3371 39.2855 23.2211 39.413 23.1653 39.569C23.0486 39.894 23.2174 40.2519 23.5425 40.3685L27.6164 41.8329C27.9415 41.9499 28.2998 41.7811 28.4167 41.4561C28.5336 41.1311 28.3646 40.7729 28.0398 40.656Z" fill="url(#paint3_linear_5436_13726)"/>
<path d="M21.2533 17.5011C21.4192 17.5011 21.578 17.435 21.6953 17.3181C21.8126 17.2009 21.8783 17.0418 21.8783 16.8762V16.2509C21.8783 15.9057 21.5985 15.626 21.2533 15.626C20.908 15.626 20.6282 15.9057 20.6282 16.2509V16.8762C20.6282 17.0418 20.694 17.2009 20.8112 17.3181C20.9285 17.435 21.0876 17.5011 21.2533 17.5011Z" fill="url(#paint4_linear_5436_13726)"/>
<path d="M16.2519 15.6258C15.9066 15.6258 15.6268 15.9055 15.6268 16.2507V16.876C15.6268 17.2211 15.9066 17.5009 16.2519 17.5009C16.5971 17.5009 16.8773 17.2211 16.8773 16.876V16.2507C16.8773 16.0851 16.8112 15.926 16.6939 15.8088C16.5767 15.6915 16.4178 15.6258 16.2519 15.6258Z" fill="url(#paint5_linear_5436_13726)"/>
<defs>
<linearGradient id="paint0_linear_5436_13726" x1="0" y1="0" x2="0" y2="1" gradientUnits="objectBoundingBox">
<stop stop-color="#ED3040"/>
<stop offset="1" stop-color="#2D23F4"/>
</linearGradient>
<linearGradient id="paint1_linear_5436_13726" x1="0" y1="0" x2="0" y2="1" gradientUnits="objectBoundingBox">
<stop stop-color="#ED3040"/>
<stop offset="1" stop-color="#2D23F4"/>
</linearGradient>
<linearGradient id="paint2_linear_5436_13726" x1="0" y1="0" x2="0" y2="1" gradientUnits="objectBoundingBox">
<stop stop-color="#ED3040"/>
<stop offset="1" stop-color="#2D23F4"/>
</linearGradient>
<linearGradient id="paint3_linear_5436_13726" x1="0" y1="0" x2="0" y2="1" gradientUnits="objectBoundingBox">
<stop stop-color="#ED3040"/>
<stop offset="1" stop-color="#2D23F4"/>
</linearGradient>
<linearGradient id="paint4_linear_5436_13726" x1="0" y1="0" x2="0" y2="1" gradientUnits="objectBoundingBox">
<stop stop-color="#ED3040"/>
<stop offset="1" stop-color="#2D23F4"/>
</linearGradient>
<linearGradient id="paint5_linear_5436_13726" x1="0" y1="0" x2="0" y2="1" gradientUnits="objectBoundingBox">
<stop stop-color="#ED3040"/>
<stop offset="1" stop-color="#2D23F4"/>
</linearGradient>
</defs>
</svg>
