<svg width="50" height="50" viewBox="0 0 50 50" fill="none" xmlns="http://www.w3.org/2000/svg">
<path d="M39.8403 23.6663H31.9253V12.3334C31.9253 12.1567 31.8559 11.987 31.7322 11.862C31.6085 11.7369 31.4406 11.6668 31.2658 11.6668H27.3082C26.9439 11.6668 26.6487 11.9652 26.6487 12.3334V23.6663H24.2876L24.5514 22.3331H24.6698C24.8449 22.3331 25.0125 22.2627 25.1362 22.1376C25.26 22.0126 25.3297 21.8432 25.3297 21.6662V18.9996C25.3297 18.8229 25.2599 18.6532 25.1362 18.5282C25.0125 18.4034 24.8449 18.333 24.6698 18.333H10.1595C9.79522 18.333 9.5 18.6314 9.5 18.9996V21.6662C9.5 21.8432 9.56939 22.0126 9.6931 22.1376C9.81682 22.2627 9.98473 22.3331 10.1595 22.3331H10.2783L11.4788 28.3996V30.9664L10.1628 44.2666C10.1441 44.4542 10.205 44.6407 10.33 44.7803C10.455 44.9203 10.6328 45 10.819 45H39.8405C40.0153 45 40.1832 44.9295 40.3069 44.8048C40.4306 44.6798 40.5 44.5101 40.5 44.3334V24.3336C40.5 24.1569 40.4306 23.9872 40.3069 23.8621C40.1832 23.7371 40.0153 23.667 39.8405 23.667L39.8403 23.6663ZM30.6061 12.9999V13.6665L27.9678 13.6668V12.9999L30.6061 12.9999ZM27.9678 14.9999H30.6061V23.6669H27.9678V14.9999ZM12.7972 28.9997H22.0314V30.3328L12.7972 30.3332V28.9997ZM10.8184 19.6662H24.0099V20.9994H10.8184V19.6662ZM23.2055 22.3329L22.1503 27.6663H12.679L11.6237 22.3329H23.2055ZM11.5473 43.6657L12.7344 31.6655H22.0977L23.2848 43.6657H11.5473ZM28.6274 43.6657V39.6659H35.2231V43.6657H28.6274ZM39.1805 43.6657H36.5422V38.9993C36.5422 38.8223 36.4725 38.6529 36.3487 38.5279C36.225 38.4028 36.0575 38.3323 35.8824 38.3323H27.9677C27.6034 38.3323 27.3079 38.6311 27.3079 38.9993V43.666L24.6071 43.6657L23.3506 30.965V28.3989L24.0232 24.9991H39.1803L39.1805 43.6657Z" fill="url(#paint0_linear_5436_13716)"/>
<path d="M33.2445 31.0002H35.8829C36.058 31.0002 36.2255 30.9298 36.3492 30.8051C36.473 30.68 36.5427 30.5103 36.5427 30.3337V27.667C36.5427 27.49 36.473 27.3207 36.3492 27.1956C36.2255 27.0706 36.058 27.0001 35.8829 27.0001H33.2445C32.8803 27.0001 32.585 27.2988 32.585 27.667V30.3337C32.585 30.5103 32.6548 30.68 32.7782 30.8051C32.9019 30.9298 33.0698 31.0002 33.2445 31.0002ZM33.904 28.3336H35.223V29.6668H33.9044L33.904 28.3336Z" fill="url(#paint1_linear_5436_13716)"/>
<path d="M30.6069 26.9996H27.9686C27.6043 26.9996 27.3088 27.2983 27.3088 27.6665V30.3332C27.3088 30.5098 27.3785 30.6795 27.5022 30.8046C27.6259 30.9293 27.7935 30.9998 27.9686 30.9998H30.6069C30.7817 30.9998 30.9496 30.9293 31.0733 30.8046C31.1967 30.6795 31.2664 30.5098 31.2664 30.3332V27.6665C31.2664 27.4895 31.1967 27.3202 31.0733 27.1951C30.9496 27.0701 30.7817 26.9996 30.6069 26.9996ZM29.9474 29.6662H28.6281V28.3331H29.9471L29.9474 29.6662Z" fill="url(#paint2_linear_5436_13716)"/>
<path d="M33.2445 36.333H35.8829C36.058 36.333 36.2255 36.2626 36.3492 36.1375C36.473 36.0125 36.5427 35.8431 36.5427 35.6661V32.9995C36.5427 32.8228 36.473 32.6531 36.3492 32.5281C36.2255 32.4033 36.058 32.3329 35.8829 32.3329H33.2445C32.8803 32.3329 32.585 32.6313 32.585 32.9995V35.6661C32.585 35.8431 32.6548 36.0125 32.7782 36.1375C32.9019 36.2626 33.0698 36.333 33.2445 36.333ZM33.904 33.6664H35.223V34.9995H33.9044L33.904 33.6664Z" fill="url(#paint3_linear_5436_13716)"/>
<path d="M30.6069 32.3332H27.9686C27.6043 32.3332 27.3088 32.6316 27.3088 32.9998V35.6665C27.3088 35.8434 27.3785 36.0128 27.5022 36.1379C27.6259 36.2629 27.7935 36.3334 27.9686 36.3334H30.6069C30.7817 36.3334 30.9496 36.2629 31.0733 36.1379C31.1967 36.0128 31.2664 35.8434 31.2664 35.6665V32.9998C31.2664 32.8232 31.1967 32.6535 31.0733 32.5284C30.9496 32.4037 30.7817 32.3332 30.6069 32.3332ZM29.9474 34.9999H28.6281V33.6667H29.9471L29.9474 34.9999Z" fill="url(#paint4_linear_5436_13716)"/>
<path d="M12.9294 16.3332H14.2484C14.2484 16.0606 14.3368 15.9537 14.5921 15.6845H14.5924C15.044 15.2898 15.3036 14.7158 15.3036 14.1125C15.3036 13.5087 15.044 12.9351 14.5924 12.5405C14.3364 12.2739 14.2481 12.1637 14.2481 11.8898C14.2481 11.6159 14.3364 11.509 14.5924 11.2398C15.0421 10.8431 15.3013 10.2698 15.3039 9.66642H13.9849C13.9849 9.94034 13.8966 10.0472 13.6406 10.3171C13.189 10.7125 12.9294 11.2864 12.9294 11.8901C12.9294 12.4938 13.189 13.0678 13.6406 13.4631C13.8966 13.7297 13.9849 13.8399 13.9849 14.1132C13.9849 14.3864 13.8966 14.4926 13.6413 14.7619C13.1912 15.1575 12.932 15.7302 12.9294 16.3333V16.3332Z" fill="url(#paint5_linear_5436_13716)"/>
<path d="M16.2273 16.3332H17.5463C17.5463 16.0606 17.6346 15.9537 17.8899 15.6845H17.8903C18.3419 15.2898 18.6015 14.7158 18.6015 14.1125C18.6015 13.5087 18.3419 12.9351 17.8903 12.5405C17.6343 12.2739 17.5459 12.1637 17.5459 11.8898C17.5459 11.6159 17.6343 11.509 17.8903 11.2398C18.34 10.8431 18.5995 10.2698 18.6018 9.66642H17.2828C17.2828 9.94034 17.1944 10.0472 16.9385 10.3171C16.4868 10.7125 16.2273 11.2864 16.2273 11.8901C16.2273 12.4938 16.4868 13.0678 16.9385 13.4631C17.1944 13.7297 17.2828 13.8399 17.2828 14.1132C17.2828 14.3864 17.1944 14.4926 16.9392 14.7619C16.4891 15.1575 16.2299 15.7302 16.2273 16.3333L16.2273 16.3332Z" fill="url(#paint6_linear_5436_13716)"/>
<path d="M19.526 16.3332H20.845C20.845 16.0606 20.9334 15.9537 21.1887 15.6845C21.6403 15.2898 21.8999 14.7158 21.8999 14.1125C21.8999 13.5087 21.6403 12.9351 21.1887 12.5405C20.9327 12.2739 20.8443 12.1637 20.8443 11.8898C20.8443 11.6159 20.9327 11.509 21.1887 11.2398C21.6387 10.8431 21.8979 10.2698 21.9002 9.66642H20.5812C20.5812 9.94034 20.4928 10.0472 20.2369 10.3171C19.7852 10.7125 19.5257 11.2864 19.5257 11.8901C19.5257 12.4938 19.7852 13.0678 20.2369 13.4631C20.4928 13.7297 20.5812 13.8399 20.5812 14.1132C20.5812 14.3864 20.4928 14.4926 20.2375 14.7619C19.7875 15.1575 19.5283 15.7302 19.526 16.3333V16.3332Z" fill="url(#paint7_linear_5436_13716)"/>
<path d="M28.6278 8.33357C28.6278 7.96538 28.9231 7.66666 29.2874 7.66666C29.812 7.66666 30.3154 7.45593 30.6865 7.08112C31.0577 6.70598 31.2662 6.19715 31.2662 5.66692V5H29.9468V5.66692C29.9468 5.84357 29.8775 6.01327 29.7537 6.13832C29.63 6.26337 29.4624 6.3335 29.2873 6.3335C28.7627 6.3335 28.2593 6.54423 27.8882 6.91937C27.517 7.29418 27.3085 7.803 27.3085 8.33357V9.66673H28.6275L28.6278 8.33357Z" fill="url(#paint8_linear_5436_13716)"/>
<path d="M29.9467 9.00007V10.3332H31.2657L31.266 9.00007C31.266 8.63187 31.5612 8.33348 31.9255 8.33348C32.4501 8.33348 32.9536 8.12275 33.3246 7.74761C33.6958 7.37247 33.9043 6.86364 33.9043 6.33341V5.66682H32.585V6.33341C32.585 6.51006 32.5156 6.67977 32.3919 6.80482C32.2681 6.92987 32.1002 7 31.9255 7C31.4008 7 30.8974 7.21072 30.5263 7.58587C30.1551 7.96101 29.9467 8.4695 29.9467 9.00007Z" fill="url(#paint9_linear_5436_13716)"/>
<defs>
<linearGradient id="paint0_linear_5436_13716" x1="34.8134" y1="33.6397" x2="34.8134" y2="41.6506" gradientUnits="userSpaceOnUse">
<stop stop-color="#ED3040"/>
<stop offset="1" stop-color="#2D23F4"/>
</linearGradient>
<linearGradient id="paint1_linear_5436_13716" x1="34.8134" y1="33.6397" x2="34.8134" y2="41.6506" gradientUnits="userSpaceOnUse">
<stop stop-color="#ED3040"/>
<stop offset="1" stop-color="#2D23F4"/>
</linearGradient>
<linearGradient id="paint2_linear_5436_13716" x1="34.8134" y1="33.6397" x2="34.8134" y2="41.6506" gradientUnits="userSpaceOnUse">
<stop stop-color="#ED3040"/>
<stop offset="1" stop-color="#2D23F4"/>
</linearGradient>
<linearGradient id="paint3_linear_5436_13716" x1="34.8134" y1="33.6397" x2="34.8134" y2="41.6506" gradientUnits="userSpaceOnUse">
<stop stop-color="#ED3040"/>
<stop offset="1" stop-color="#2D23F4"/>
</linearGradient>
<linearGradient id="paint4_linear_5436_13716" x1="34.8134" y1="33.6397" x2="34.8134" y2="41.6506" gradientUnits="userSpaceOnUse">
<stop stop-color="#ED3040"/>
<stop offset="1" stop-color="#2D23F4"/>
</linearGradient>
<linearGradient id="paint5_linear_5436_13716" x1="34.8134" y1="33.6397" x2="34.8134" y2="41.6506" gradientUnits="userSpaceOnUse">
<stop stop-color="#ED3040"/>
<stop offset="1" stop-color="#2D23F4"/>
</linearGradient>
<linearGradient id="paint6_linear_5436_13716" x1="34.8134" y1="33.6397" x2="34.8134" y2="41.6506" gradientUnits="userSpaceOnUse">
<stop stop-color="#ED3040"/>
<stop offset="1" stop-color="#2D23F4"/>
</linearGradient>
<linearGradient id="paint7_linear_5436_13716" x1="34.8134" y1="33.6397" x2="34.8134" y2="41.6506" gradientUnits="userSpaceOnUse">
<stop stop-color="#ED3040"/>
<stop offset="1" stop-color="#2D23F4"/>
</linearGradient>
<linearGradient id="paint8_linear_5436_13716" x1="34.8134" y1="33.6397" x2="34.8134" y2="41.6506" gradientUnits="userSpaceOnUse">
<stop stop-color="#ED3040"/>
<stop offset="1" stop-color="#2D23F4"/>
</linearGradient>
<linearGradient id="paint9_linear_5436_13716" x1="34.8134" y1="33.6397" x2="34.8134" y2="41.6506" gradientUnits="userSpaceOnUse">
<stop stop-color="#ED3040"/>
<stop offset="1" stop-color="#2D23F4"/>
</linearGradient>
</defs>
</svg>
