<svg width="50" height="50" viewBox="0 0 50 50" fill="none" xmlns="http://www.w3.org/2000/svg">
<path d="M15.3357 27.7937L17.3266 23.881C17.5059 23.5283 17.4877 23.1088 17.2785 22.7727C17.0689 22.4369 16.6985 22.2323 16.2996 22.2323H14.1767L15.326 19.9575C15.6098 19.3955 15.3791 18.7123 14.8113 18.4315C14.243 18.1511 13.5529 18.3793 13.2692 18.9412L11.2922 22.8602C11.1143 23.2126 11.1335 23.6313 11.3428 23.9665C11.552 24.3016 11.9221 24.5058 12.3203 24.5058H14.4353L13.2828 26.7715H13.2824C12.9972 27.3328 13.2254 28.0167 13.7925 28.2989C14.3597 28.5815 15.0509 28.3554 15.3364 27.7941L15.3357 27.7937Z" fill="url(#paint0_linear_5436_13734)"/>
<path d="M43.8503 40.7252H43.3623V23.3661C43.3623 23.0645 43.2411 22.7753 43.0254 22.5618C42.8101 22.3484 42.5178 22.2285 42.2127 22.2285H41.0128V16.2106C41.0128 15.7319 40.7098 15.3044 40.2553 15.1414L35.3252 13.372C34.9727 13.2453 34.5802 13.2968 34.2733 13.5095C33.9664 13.7226 33.7835 14.07 33.7835 14.4411V19.7937H30.7751V9.89187C30.7741 9.12464 30.4657 8.38949 29.9175 7.8473C29.3692 7.30513 28.626 7.00035 27.8506 7H22.4047C21.6301 7.00106 20.8872 7.30583 20.3396 7.84801C19.7917 8.39018 19.4837 9.12499 19.483 9.89185V15.7118C17.1178 14.1449 14.1579 13.735 11.4491 14.5997C8.74017 15.4642 6.58027 17.5081 5.58646 20.1474C4.59257 22.7867 4.87422 25.7307 6.3504 28.1385C7.82696 30.5468 10.3358 32.1535 13.1606 32.4999V33.6319L7.2127 36.4028C6.80987 36.5904 6.55285 36.9912 6.55285 37.4318V40.7254H6.14967C5.51479 40.7254 5 41.2344 5 41.8627C5 42.491 5.51475 43 6.14967 43H43.8503C44.4852 43 45 42.491 45 41.8627C45 41.2344 44.4852 40.7254 43.8503 40.7254L43.8503 40.7252ZM36.1222 29.6856H41.0634V32.6765H36.1222V29.6856ZM41.0634 27.4107H36.1222V24.5027H41.0634V27.4107ZM38.7138 17.0059V22.228H36.1223V20.9306C36.1212 20.8354 36.1077 20.7405 36.0824 20.6484V16.0631L38.7138 17.0059ZM33.7816 33.7876H28.8828V22.068H33.7816V33.7876ZM22.8762 33.7876C22.2413 33.7876 21.7269 34.297 21.7269 34.9253V40.7255H15.4593V32.4997C18.4245 32.1325 21.0324 30.3804 22.4716 27.7887H26.5842V33.7876H22.8762ZM22.405 9.27466H27.8509C28.1952 9.27466 28.4744 9.55086 28.4747 9.89162V19.7934H27.7336C27.0987 19.7934 26.5843 20.3024 26.5843 20.9307V25.5136H23.3525C24.0109 22.8694 23.4345 20.0721 21.7818 17.8942V9.8918C21.7822 9.55105 22.0609 9.27519 22.4049 9.27484L22.405 9.27466ZM7.29895 23.3657C7.29895 21.5257 8.03758 19.7613 9.3519 18.46C10.6666 17.1591 12.45 16.4282 14.3091 16.4278C16.1684 16.4278 17.9519 17.1587 19.2666 18.4596C20.5812 19.7606 21.3199 21.525 21.3199 23.3649C21.3202 25.2049 20.5816 26.9693 19.2669 28.2702C17.9519 29.5715 16.1688 30.3024 14.3094 30.3024C12.4511 30.3003 10.669 29.5687 9.35473 28.2685C8.04043 26.968 7.30105 25.2049 7.29895 23.3657ZM8.85144 38.152L13.1602 36.1466V40.7253H8.85181L8.85144 38.152ZM24.0241 36.0591H33.7823V40.7253H24.0259L24.0241 36.0591ZM36.1222 40.7253V34.9532H41.0634V40.7253H36.1222Z" fill="url(#paint1_linear_5436_13734)"/>
<defs>
<linearGradient id="paint0_linear_5436_13734" x1="0" y1="0" x2="0" y2="1" gradientUnits="objectBoundingBox">
<stop stop-color="#ED3040"/>
<stop offset="1" stop-color="#2D23F4"/>
</linearGradient>
<linearGradient id="paint1_linear_5436_13734" x1="0" y1="0" x2="0" y2="1" gradientUnits="objectBoundingBox">
<stop stop-color="#ED3040"/>
<stop offset="1" stop-color="#2D23F4"/>
</linearGradient>
</defs>
</svg>
