<svg width="50" height="50" viewBox="0 0 50 50" fill="none" xmlns="http://www.w3.org/2000/svg">
<path d="M27.0812 32.5888C26.056 31.8004 25.031 31.0728 23.9455 30.4665C26.0562 28.7687 28.83 27.4952 31.5434 26.6463C31.6039 26.6463 31.664 26.5855 31.7245 26.5855C37.5134 24.7665 43.3027 24.4632 43.423 24.4632C43.7848 24.4632 44.026 24.1599 44.026 23.8568C44.026 23.493 43.7243 23.2505 43.423 23.2505C43.0612 23.2505 37.3324 23.5538 31.5433 25.3728C28.9502 24.1601 25.7543 23.4326 22.5585 23.0079V21.0069H24.1264C24.4882 21.0069 24.7294 20.7643 24.7294 20.4005C24.7294 18.5207 23.2217 16.9442 21.2921 16.9442H18.2165C16.3471 16.9442 14.7792 18.4603 14.7792 20.4005C14.7792 20.7643 15.0205 21.0069 15.3823 21.0069H16.9501V22.6442C10.9802 22.5229 5.97497 23.1901 5.6133 23.2505C5.31164 23.3113 5.07044 23.6143 5.07044 23.9177C5.1309 24.221 5.43224 24.4635 5.7339 24.4635C5.91496 24.4635 20.7491 22.4625 29.794 25.9796C27.2614 26.9497 24.7889 28.2232 22.7991 29.921C14.779 26.1009 5.97472 27.3743 5.55291 27.4348C5.25125 27.4956 5.01005 27.7986 5.0705 28.102C5.13096 28.4053 5.43231 28.6478 5.73397 28.587C5.85457 28.587 17.6738 26.8284 25.9954 33.1952C24.7289 33.9836 23.5229 34.893 22.5581 35.924C15.5635 32.5285 6.6391 32.0433 6.09619 31.9825C5.73439 31.9825 5.49319 32.2251 5.49319 32.5889C5.49319 32.9527 5.73439 33.1952 6.09619 33.1952C6.27725 33.1952 26.1764 34.2866 29.2517 44.2916C29.3723 44.5949 29.674 44.7767 30.0358 44.7162C30.3375 44.5949 30.5182 44.2916 30.4581 43.9278C29.9757 42.4117 29.1916 41.1386 28.2268 39.9864C30.1564 36.8333 40.5283 34.3471 44.5082 33.6196C44.8099 33.5588 45.0511 33.2558 44.9907 32.892C44.9302 32.5886 44.6289 32.3461 44.267 32.4069C42.7594 32.6494 30.3376 35.0143 27.3825 39.0767C26.3573 38.1066 25.0911 37.1969 23.7645 36.4693C30.0358 30.1633 44.2665 29.4356 44.3876 29.4356C44.7494 29.4356 44.9906 29.1323 44.9906 28.8293C44.9906 28.4654 44.6889 28.2229 44.3876 28.2229C43.6637 28.284 34.1967 28.8296 27.0813 32.589L27.0812 32.5888ZM18.1566 18.1581H21.2321C22.2574 18.1581 23.1016 18.8253 23.3428 19.7955H16.0463C16.2872 18.8858 17.1313 18.1581 18.1566 18.1581ZM21.2923 21.0082V22.6455H18.0962V21.0082H21.2923Z" fill="url(#paint0_linear_5436_13720)"/>
<path d="M22.92 44.7157C23.1011 45.019 23.4629 45.0795 23.7642 44.8978C24.0659 44.7157 24.126 44.3519 23.9453 44.0489C19.0006 35.8627 6.09606 37.6821 5.55316 37.8034C5.2515 37.8642 5.01029 38.1672 5.07075 38.4705C5.13121 38.7738 5.43255 39.0164 5.73421 38.9556C5.85482 38.9556 18.3974 37.1365 22.9194 44.7158L22.92 44.7157Z" fill="url(#paint1_linear_5436_13720)"/>
<path d="M39.9248 16.6422C39.6836 16.4601 39.2614 16.4601 39.0806 16.7634C38.8996 17.006 38.8996 17.4306 39.2012 17.6123C39.5029 17.8548 39.8042 18.0974 40.0454 18.3399C40.2866 18.5825 40.6484 18.5825 40.8896 18.3399C41.1308 18.0974 41.1308 17.7336 40.8896 17.4911C40.5883 17.1877 40.2265 16.8847 39.9248 16.6422Z" fill="url(#paint2_linear_5436_13720)"/>
<path d="M41.4332 20.0378C41.6143 20.3411 41.9761 20.4016 42.2774 20.2198C42.5791 20.0378 42.6392 19.674 42.4585 19.371C42.3379 19.2497 42.2774 19.0676 42.1568 18.9464C41.9758 18.7038 41.5538 18.6431 41.3126 18.8251C41.0714 19.0072 41.011 19.4315 41.192 19.674C41.2522 19.7952 41.3728 19.9165 41.4332 20.0378Z" fill="url(#paint3_linear_5436_13720)"/>
<path d="M37.151 15.0657C36.8493 14.9445 36.4875 15.0657 36.3669 15.4296C36.2463 15.7329 36.3669 16.0967 36.7287 16.218C37.0905 16.3392 37.4523 16.5213 37.754 16.703C38.0556 16.8851 38.4174 16.7638 38.538 16.4605C38.7191 16.1572 38.5985 15.7934 38.2968 15.6721C37.935 15.4295 37.5128 15.2475 37.151 15.0657Z" fill="url(#paint4_linear_5436_13720)"/>
<path d="M34.0764 14.2771C33.7747 14.2163 33.4129 14.4592 33.4129 14.7622C33.4129 15.0655 33.594 15.4293 33.8953 15.4293C34.2571 15.4901 34.6794 15.5506 35.0412 15.6719C35.3429 15.7327 35.7047 15.5506 35.7648 15.2473C35.8253 14.9439 35.6442 14.5801 35.3426 14.5197C34.9206 14.3984 34.4984 14.3379 34.0764 14.2771Z" fill="url(#paint5_linear_5436_13720)"/>
<path d="M26.1165 14.823C25.3929 15.0051 24.9105 15.1868 24.9105 15.1868C24.6088 15.3081 24.4281 15.6719 24.5487 15.9752C24.6693 16.2786 25.0311 16.4603 25.3327 16.339C25.3327 16.339 25.755 16.2178 26.4181 16.0357C26.7198 15.9749 26.961 15.6111 26.8404 15.3081C26.7195 14.9443 26.4178 14.7622 26.1165 14.823Z" fill="url(#paint6_linear_5436_13720)"/>
<path d="M31.001 14.0957C30.6392 14.0957 30.398 14.399 30.398 14.702C30.398 15.0054 30.6997 15.3084 31.001 15.3084H32.1469C32.4485 15.3084 32.7499 15.0658 32.7499 14.702C32.7499 14.3382 32.5087 14.0957 32.1469 14.0957H31.001Z" fill="url(#paint7_linear_5436_13720)"/>
<path d="M29.1317 14.2771C28.7095 14.3379 28.2875 14.3984 27.9257 14.4592C27.6241 14.52 27.3829 14.823 27.4433 15.1868C27.5038 15.4901 27.8051 15.7327 28.1669 15.6719C28.5287 15.6111 28.8905 15.5506 29.3128 15.4898C29.6144 15.429 29.8557 15.126 29.8557 14.8227C29.8553 14.5197 29.4331 14.2166 29.1317 14.2771Z" fill="url(#paint8_linear_5436_13720)"/>
<path d="M41.4332 10.9428C41.192 10.7003 40.8302 10.7607 40.5891 11.0036C40.3479 11.2461 40.408 11.6099 40.6495 11.8525C40.9512 12.095 41.1924 12.3375 41.4336 12.6409C41.6748 12.8834 42.0366 12.9442 42.2778 12.7017C42.519 12.4591 42.5794 12.0953 42.3382 11.8528C42.0363 11.5492 41.7346 11.2458 41.4332 10.9428Z" fill="url(#paint9_linear_5436_13720)"/>
<path d="M35.4629 8.88094C35.4028 8.88094 35.4028 8.88094 35.4629 8.88094C35.1011 8.88094 34.8599 9.12348 34.8599 9.48729C34.8599 9.85109 35.1616 10.0936 35.4629 10.0936C35.8247 10.0936 36.1865 10.0936 36.5483 10.1544C36.9101 10.2152 37.1513 9.97236 37.2118 9.60856C37.2722 9.30523 37.0307 9.00221 36.6689 8.94142C36.3071 8.88094 35.8852 8.88094 35.4629 8.88094Z" fill="url(#paint10_linear_5436_13720)"/>
<path d="M24.9104 12.2765C24.2469 12.6403 23.8851 12.9437 23.825 12.9437C23.5233 13.1257 23.4632 13.4895 23.6439 13.7925C23.825 14.0959 24.1868 14.1563 24.4881 13.9746C24.4881 13.9746 24.8499 13.7321 25.5134 13.3682C25.815 13.1862 25.8752 12.8224 25.7546 12.5194C25.5735 12.2157 25.2117 12.0945 24.9104 12.2765Z" fill="url(#paint11_linear_5436_13720)"/>
<path d="M26.5383 11.367C26.2366 11.4882 26.1161 11.852 26.2971 12.1554C26.4177 12.4587 26.7795 12.58 27.0812 12.3979C27.443 12.2158 27.7446 12.0341 28.1666 11.9128C28.4682 11.7916 28.5888 11.4277 28.4682 11.1244C28.3476 10.8211 27.9858 10.6998 27.6842 10.8211C27.2619 11.0032 26.9001 11.1852 26.5383 11.367Z" fill="url(#paint12_linear_5436_13720)"/>
<path d="M37.815 9.73004C37.6944 10.0334 37.8754 10.3972 38.1768 10.5184C38.5386 10.6397 38.9004 10.761 39.202 10.943C39.5037 11.0643 39.8655 11.0038 39.9861 10.7005C40.1671 10.3972 40.0465 10.0334 39.7449 9.9121C39.3831 9.73004 38.9608 9.54829 38.5389 9.42703C38.2974 9.24497 37.9356 9.42671 37.815 9.73004Z" fill="url(#paint13_linear_5436_13720)"/>
<path d="M31.8446 9.97276C31.9051 10.2761 32.2669 10.5186 32.5682 10.4578C32.9301 10.397 33.3523 10.2758 33.7141 10.2758C34.0759 10.1545 34.2567 9.85149 34.2567 9.54816C34.1962 9.24483 33.8949 9.00229 33.5932 9.06308C33.1709 9.12387 32.749 9.18435 32.3872 9.30562C31.9652 9.30562 31.7845 9.60895 31.8446 9.97276Z" fill="url(#paint14_linear_5436_13720)"/>
<path d="M29.3723 10.1542C29.0707 10.2755 28.8899 10.6393 29.0105 10.9426C29.1311 11.2459 29.4929 11.4277 29.7946 11.3064C30.1564 11.1851 30.5182 11.0639 30.88 10.9426C31.1816 10.8213 31.3624 10.518 31.3022 10.1542C31.2418 9.79038 30.88 9.66911 30.5182 9.72959C30.0959 9.85117 29.7341 9.97244 29.3723 10.1542Z" fill="url(#paint15_linear_5436_13720)"/>
<path d="M41.0106 5.78854C40.7694 5.72775 40.4678 5.60648 40.2266 5.546C39.9249 5.48521 39.5631 5.66727 39.503 5.9706C39.4425 6.27393 39.6236 6.63774 39.9252 6.69821C40.1664 6.75901 40.4076 6.81948 40.6488 6.88028C40.9505 7.00154 41.3123 6.75901 41.3724 6.45568C41.5535 6.21314 41.3724 5.90981 41.0106 5.78854Z" fill="url(#paint16_linear_5436_13720)"/>
<path d="M38.418 5.18216C37.9957 5.12136 37.5738 5.06089 37.1515 5.06089C36.7897 5.06089 36.5485 5.30342 36.4881 5.60675C36.4276 5.91008 36.7293 6.2131 37.0309 6.27389C37.3927 6.33468 37.815 6.33468 38.1768 6.39516C38.5386 6.45595 38.8403 6.2131 38.8403 5.91008C38.9605 5.54596 38.7194 5.24295 38.418 5.18216Z" fill="url(#paint17_linear_5436_13720)"/>
<path d="M35.2825 5.00072C34.8602 5.00072 34.4383 5.06152 34.016 5.06152C33.7143 5.12231 33.413 5.36485 33.4731 5.72865C33.5336 6.03198 33.7748 6.27452 34.0762 6.27452H34.1366C34.4984 6.21373 34.9207 6.21373 35.2825 6.21373C35.6443 6.21373 35.8855 5.9104 35.8855 5.60738C35.8855 5.24326 35.6443 5.00072 35.2825 5.00072Z" fill="url(#paint18_linear_5436_13720)"/>
<path d="M23.9457 9.60828C23.644 9.91161 23.2822 10.1541 23.041 10.4571C22.7998 10.6997 22.7998 11.0635 23.041 11.306C23.2822 11.5485 23.644 11.5485 23.8852 11.306C24.1264 11.0635 24.4281 10.7601 24.7294 10.5176C24.9706 10.2751 25.0311 9.91125 24.7899 9.66873C24.6088 9.4262 24.247 9.42622 23.9457 9.60828Z" fill="url(#paint19_linear_5436_13720)"/>
<path d="M32.2063 5.36439C31.784 5.42519 31.4222 5.54646 31.0003 5.66772C30.6986 5.78899 30.5179 6.09232 30.578 6.39534C30.6986 6.69867 31.0003 6.88041 31.3016 6.81994C31.6634 6.69867 32.0252 6.63788 32.4475 6.51661C32.7492 6.45581 32.9904 6.1528 32.9299 5.78899C32.8698 5.48566 32.508 5.3036 32.2063 5.36439Z" fill="url(#paint20_linear_5436_13720)"/>
<path d="M29.1919 6.33445C28.8301 6.51651 28.4078 6.69825 28.046 6.88031C27.7443 7.00158 27.6237 7.36539 27.8048 7.66872C27.9254 7.97205 28.2872 8.09332 28.5889 7.91126C28.9507 7.7292 29.3125 7.54745 29.6743 7.42618C29.9759 7.30491 30.1567 6.94111 29.9759 6.63778C29.8553 6.33445 29.5537 6.15239 29.1919 6.33445Z" fill="url(#paint21_linear_5436_13720)"/>
<path d="M26.4782 7.72865C26.1164 7.97119 25.7546 8.21372 25.4529 8.45626C25.2117 8.63832 25.1512 9.00213 25.3323 9.30512C25.5134 9.54766 25.8752 9.60845 26.1765 9.42639C26.4781 9.18385 26.7795 9.00179 27.1413 8.75925C27.4429 8.57719 27.5031 8.21339 27.3223 7.91039C27.1413 7.66817 26.7193 7.5469 26.4782 7.72865Z" fill="url(#paint22_linear_5436_13720)"/>
<path d="M22.0163 13.5498C22.0163 13.5498 22.2575 13.186 22.7399 12.6401C22.9811 12.3976 22.9209 11.973 22.6794 11.7913C22.4382 11.5487 22.016 11.6092 21.8352 11.8521C21.3528 12.4584 21.0512 12.8222 21.0512 12.883C20.8701 13.1863 20.9306 13.5501 21.2322 13.7319C21.4734 13.9136 21.8352 13.7923 22.0163 13.5498Z" fill="url(#paint23_linear_5436_13720)"/>
<path d="M8.56881 14.0957C8.207 14.0957 7.9658 14.399 7.9658 14.702C7.9658 15.0054 8.26746 15.3084 8.56881 15.3084H9.71468C10.0163 15.3084 10.3177 15.0658 10.3177 14.702C10.3177 14.3382 10.0765 14.0957 9.71468 14.0957C9.41302 14.0349 8.99107 14.0349 8.56881 14.0957Z" fill="url(#paint24_linear_5436_13720)"/>
<path d="M11.6442 14.2166C11.3425 14.1558 11.0412 14.3987 10.9807 14.7625C10.9203 15.0658 11.1618 15.3689 11.5236 15.4296C11.8854 15.4904 12.3076 15.5509 12.6695 15.6117C12.9711 15.6725 13.3329 15.4904 13.3931 15.1266C13.4535 14.8233 13.212 14.4595 12.9107 14.399C12.4884 14.3379 12.0662 14.2771 11.6442 14.2166Z" fill="url(#paint25_linear_5436_13720)"/>
<path d="M5.01147 15.2472C5.07193 15.5505 5.43373 15.793 5.73508 15.6718C6.09688 15.611 6.45869 15.4897 6.88095 15.4292C7.18261 15.3684 7.42381 15.0654 7.36335 14.7621C7.3029 14.4588 7.00155 14.2162 6.69989 14.277C6.27763 14.3378 5.85571 14.3983 5.49388 14.5196C5.13207 14.5804 4.95102 14.8834 5.01147 15.2472Z" fill="url(#paint26_linear_5436_13720)"/>
<path d="M15.8655 15.1867C15.5037 15.0654 15.0814 14.9442 14.6595 14.8229C14.3578 14.7621 13.996 14.9442 13.9359 15.2475C13.8754 15.5508 14.0565 15.9146 14.3582 15.9751C14.72 16.0964 15.0818 16.2176 15.504 16.3389C15.8057 16.4602 16.1675 16.2781 16.2881 15.9751C16.3479 15.6718 16.2273 15.308 15.8655 15.1867Z" fill="url(#paint27_linear_5436_13720)"/>
<path d="M9.53352 10.0332C9.41292 10.3366 9.59398 10.7004 9.95578 10.8216C10.3176 10.9429 10.6794 11.0642 11.0412 11.1854C11.3428 11.3067 11.7046 11.1247 11.8252 10.8216C11.9455 10.5183 11.7648 10.1545 11.4631 10.0332C11.1013 9.91197 10.6791 9.7299 10.3173 9.60864C10.0159 9.54816 9.65412 9.73022 9.53352 10.0332Z" fill="url(#paint28_linear_5436_13720)"/>
<path d="M6.57923 9.48733C6.51878 9.79034 6.75998 10.0937 7.12178 10.1541C7.48359 10.2149 7.90585 10.2754 8.26765 10.3362C8.56931 10.397 8.93112 10.2149 8.99126 9.85113C9.0514 9.5478 8.8102 9.24479 8.50885 9.184C8.08659 9.06273 7.66467 9.00225 7.24238 8.94146C6.94103 8.94146 6.63938 9.12352 6.57923 9.48733Z" fill="url(#paint29_linear_5436_13720)"/>
<path d="M12.3675 11.0638C12.2469 11.3671 12.3675 11.7309 12.6692 11.8522C13.031 12.0342 13.3928 12.216 13.7546 12.398C14.0562 12.5801 14.418 12.4588 14.5988 12.1555C14.7798 11.8522 14.6592 11.4884 14.3576 11.3066C13.9958 11.1246 13.634 10.9428 13.2722 10.7608C12.91 10.6392 12.5482 10.7604 12.3675 11.0638Z" fill="url(#paint30_linear_5436_13720)"/>
<path d="M15.0812 12.458C14.9002 12.7613 15.0208 13.1251 15.2623 13.3068C15.6241 13.4889 15.9258 13.7314 16.2875 13.9132C16.5892 14.0952 16.951 14.0344 17.1317 13.7311C17.3128 13.4278 17.2523 13.064 16.9507 12.8823C16.5889 12.6397 16.2872 12.4577 15.9254 12.2151C15.6241 12.0942 15.2623 12.155 15.0812 12.458Z" fill="url(#paint31_linear_5436_13720)"/>
<path d="M12.73 6.81907C12.3682 6.63701 12.0064 6.45526 11.5841 6.334C11.2825 6.21273 10.9207 6.334 10.8001 6.63733C10.6795 6.94066 10.8001 7.30446 11.1017 7.42573C11.4635 7.547 11.8253 7.72906 12.1871 7.91081C12.4888 8.03208 12.8506 7.91081 12.9712 7.60748C13.1519 7.36462 13.0313 7.00082 12.73 6.81907Z" fill="url(#paint32_linear_5436_13720)"/>
<path d="M9.83504 5.66678C9.41278 5.54551 9.05098 5.42424 8.62903 5.36345C8.26723 5.30297 7.96557 5.54551 7.90542 5.84884C7.78482 6.15186 8.02602 6.51566 8.32737 6.57645C8.68917 6.63725 9.11144 6.75851 9.47324 6.87978C9.77459 6.94026 10.1364 6.7582 10.1968 6.45518C10.3174 6.15185 10.1364 5.78805 9.83504 5.66678Z" fill="url(#paint33_linear_5436_13720)"/>
<path d="M14.3579 7.72865C14.0562 7.54659 13.6944 7.66786 13.5137 7.91071C13.3326 8.21404 13.4533 8.57785 13.6948 8.75957C13.9964 8.94163 14.3582 9.18417 14.6596 9.4267C14.9609 9.60845 15.3227 9.54766 15.5037 9.30512C15.6848 9.06258 15.6243 8.63798 15.3831 8.45626C15.0213 8.21372 14.7197 7.97119 14.3579 7.72865Z" fill="url(#paint34_linear_5436_13720)"/>
<path d="M5.55357 6.21269C5.91538 6.21269 6.27718 6.27348 6.57883 6.27348C6.88049 6.33427 7.18184 6.09142 7.2423 5.72761C7.30275 5.42428 7.06124 5.12127 6.69943 5.06048C6.39777 5.06048 5.97583 5 5.61403 5C5.25223 5 5.01102 5.24254 5.01102 5.60634C5.01102 5.90936 5.25223 6.21269 5.55357 6.21269Z" fill="url(#paint35_linear_5436_13720)"/>
<path d="M19.6041 13.732C19.9057 13.55 19.9659 13.1862 19.7247 12.8832C19.4835 12.5194 19.2423 12.216 19.0011 11.8522C18.82 11.6097 18.3981 11.5489 18.1569 11.7914C17.9157 11.9735 17.8552 12.3978 18.0964 12.6403C18.3376 12.9436 18.5788 13.2466 18.82 13.5499C18.9406 13.8533 19.3629 13.9138 19.6041 13.732Z" fill="url(#paint36_linear_5436_13720)"/>
<path d="M16.8904 11.3065C17.1316 11.549 17.4934 11.549 17.7346 11.3065C17.9758 11.0639 17.9758 10.7001 17.7346 10.4576C17.4329 10.1543 17.1315 9.85128 16.8299 9.60876C16.5887 9.36623 16.2269 9.4267 15.9857 9.66956C15.7445 9.91209 15.8047 10.2759 16.0462 10.5184C16.3478 10.7606 16.6492 11.0639 16.8904 11.3065Z" fill="url(#paint37_linear_5436_13720)"/>
<defs>
<linearGradient id="paint0_linear_5436_13720" x1="0" y1="0" x2="0" y2="1" gradientUnits="objectBoundingBox">
<stop stop-color="#ED3040"/>
<stop offset="1" stop-color="#2D23F4"/>
</linearGradient>
<linearGradient id="paint1_linear_5436_13720" x1="0" y1="0" x2="0" y2="1" gradientUnits="objectBoundingBox">
<stop stop-color="#ED3040"/>
<stop offset="1" stop-color="#2D23F4"/>
</linearGradient>
<linearGradient id="paint2_linear_5436_13720" x1="0" y1="0" x2="0" y2="1" gradientUnits="objectBoundingBox">
<stop stop-color="#ED3040"/>
<stop offset="1" stop-color="#2D23F4"/>
</linearGradient>
<linearGradient id="paint3_linear_5436_13720" x1="0" y1="0" x2="0" y2="1" gradientUnits="objectBoundingBox">
<stop stop-color="#ED3040"/>
<stop offset="1" stop-color="#2D23F4"/>
</linearGradient>
<linearGradient id="paint4_linear_5436_13720" x1="0" y1="0" x2="0" y2="1" gradientUnits="objectBoundingBox">
<stop stop-color="#ED3040"/>
<stop offset="1" stop-color="#2D23F4"/>
</linearGradient>
<linearGradient id="paint5_linear_5436_13720" x1="0" y1="0" x2="0" y2="1" gradientUnits="objectBoundingBox">
<stop stop-color="#ED3040"/>
<stop offset="1" stop-color="#2D23F4"/>
</linearGradient>
<linearGradient id="paint6_linear_5436_13720" x1="0" y1="0" x2="0" y2="1" gradientUnits="objectBoundingBox">
<stop stop-color="#ED3040"/>
<stop offset="1" stop-color="#2D23F4"/>
</linearGradient>
<linearGradient id="paint7_linear_5436_13720" x1="0" y1="0" x2="0" y2="1" gradientUnits="objectBoundingBox">
<stop stop-color="#ED3040"/>
<stop offset="1" stop-color="#2D23F4"/>
</linearGradient>
<linearGradient id="paint8_linear_5436_13720" x1="0" y1="0" x2="0" y2="1" gradientUnits="objectBoundingBox">
<stop stop-color="#ED3040"/>
<stop offset="1" stop-color="#2D23F4"/>
</linearGradient>
<linearGradient id="paint9_linear_5436_13720" x1="0" y1="0" x2="0" y2="1" gradientUnits="objectBoundingBox">
<stop stop-color="#ED3040"/>
<stop offset="1" stop-color="#2D23F4"/>
</linearGradient>
<linearGradient id="paint10_linear_5436_13720" x1="0" y1="0" x2="0" y2="1" gradientUnits="objectBoundingBox">
<stop stop-color="#ED3040"/>
<stop offset="1" stop-color="#2D23F4"/>
</linearGradient>
<linearGradient id="paint11_linear_5436_13720" x1="0" y1="0" x2="0" y2="1" gradientUnits="objectBoundingBox">
<stop stop-color="#ED3040"/>
<stop offset="1" stop-color="#2D23F4"/>
</linearGradient>
<linearGradient id="paint12_linear_5436_13720" x1="0" y1="0" x2="0" y2="1" gradientUnits="objectBoundingBox">
<stop stop-color="#ED3040"/>
<stop offset="1" stop-color="#2D23F4"/>
</linearGradient>
<linearGradient id="paint13_linear_5436_13720" x1="0" y1="0" x2="0" y2="1" gradientUnits="objectBoundingBox">
<stop stop-color="#ED3040"/>
<stop offset="1" stop-color="#2D23F4"/>
</linearGradient>
<linearGradient id="paint14_linear_5436_13720" x1="0" y1="0" x2="0" y2="1" gradientUnits="objectBoundingBox">
<stop stop-color="#ED3040"/>
<stop offset="1" stop-color="#2D23F4"/>
</linearGradient>
<linearGradient id="paint15_linear_5436_13720" x1="0" y1="0" x2="0" y2="1" gradientUnits="objectBoundingBox">
<stop stop-color="#ED3040"/>
<stop offset="1" stop-color="#2D23F4"/>
</linearGradient>
<linearGradient id="paint16_linear_5436_13720" x1="0" y1="0" x2="0" y2="1" gradientUnits="objectBoundingBox">
<stop stop-color="#ED3040"/>
<stop offset="1" stop-color="#2D23F4"/>
</linearGradient>
<linearGradient id="paint17_linear_5436_13720" x1="0" y1="0" x2="0" y2="1" gradientUnits="objectBoundingBox">
<stop stop-color="#ED3040"/>
<stop offset="1" stop-color="#2D23F4"/>
</linearGradient>
<linearGradient id="paint18_linear_5436_13720" x1="0" y1="0" x2="0" y2="1" gradientUnits="objectBoundingBox">
<stop stop-color="#ED3040"/>
<stop offset="1" stop-color="#2D23F4"/>
</linearGradient>
<linearGradient id="paint19_linear_5436_13720" x1="0" y1="0" x2="0" y2="1" gradientUnits="objectBoundingBox">
<stop stop-color="#ED3040"/>
<stop offset="1" stop-color="#2D23F4"/>
</linearGradient>
<linearGradient id="paint20_linear_5436_13720" x1="0" y1="0" x2="0" y2="1" gradientUnits="objectBoundingBox">
<stop stop-color="#ED3040"/>
<stop offset="1" stop-color="#2D23F4"/>
</linearGradient>
<linearGradient id="paint21_linear_5436_13720" x1="0" y1="0" x2="0" y2="1" gradientUnits="objectBoundingBox">
<stop stop-color="#ED3040"/>
<stop offset="1" stop-color="#2D23F4"/>
</linearGradient>
<linearGradient id="paint22_linear_5436_13720" x1="0" y1="0" x2="0" y2="1" gradientUnits="objectBoundingBox">
<stop stop-color="#ED3040"/>
<stop offset="1" stop-color="#2D23F4"/>
</linearGradient>
<linearGradient id="paint23_linear_5436_13720" x1="0" y1="0" x2="0" y2="1" gradientUnits="objectBoundingBox">
<stop stop-color="#ED3040"/>
<stop offset="1" stop-color="#2D23F4"/>
</linearGradient>
<linearGradient id="paint24_linear_5436_13720" x1="0" y1="0" x2="0" y2="1" gradientUnits="objectBoundingBox">
<stop stop-color="#ED3040"/>
<stop offset="1" stop-color="#2D23F4"/>
</linearGradient>
<linearGradient id="paint25_linear_5436_13720" x1="0" y1="0" x2="0" y2="1" gradientUnits="objectBoundingBox">
<stop stop-color="#ED3040"/>
<stop offset="1" stop-color="#2D23F4"/>
</linearGradient>
<linearGradient id="paint26_linear_5436_13720" x1="0" y1="0" x2="0" y2="1" gradientUnits="objectBoundingBox">
<stop stop-color="#ED3040"/>
<stop offset="1" stop-color="#2D23F4"/>
</linearGradient>
<linearGradient id="paint27_linear_5436_13720" x1="0" y1="0" x2="0" y2="1" gradientUnits="objectBoundingBox">
<stop stop-color="#ED3040"/>
<stop offset="1" stop-color="#2D23F4"/>
</linearGradient>
<linearGradient id="paint28_linear_5436_13720" x1="0" y1="0" x2="0" y2="1" gradientUnits="objectBoundingBox">
<stop stop-color="#ED3040"/>
<stop offset="1" stop-color="#2D23F4"/>
</linearGradient>
<linearGradient id="paint29_linear_5436_13720" x1="0" y1="0" x2="0" y2="1" gradientUnits="objectBoundingBox">
<stop stop-color="#ED3040"/>
<stop offset="1" stop-color="#2D23F4"/>
</linearGradient>
<linearGradient id="paint30_linear_5436_13720" x1="0" y1="0" x2="0" y2="1" gradientUnits="objectBoundingBox">
<stop stop-color="#ED3040"/>
<stop offset="1" stop-color="#2D23F4"/>
</linearGradient>
<linearGradient id="paint31_linear_5436_13720" x1="0" y1="0" x2="0" y2="1" gradientUnits="objectBoundingBox">
<stop stop-color="#ED3040"/>
<stop offset="1" stop-color="#2D23F4"/>
</linearGradient>
<linearGradient id="paint32_linear_5436_13720" x1="0" y1="0" x2="0" y2="1" gradientUnits="objectBoundingBox">
<stop stop-color="#ED3040"/>
<stop offset="1" stop-color="#2D23F4"/>
</linearGradient>
<linearGradient id="paint33_linear_5436_13720" x1="0" y1="0" x2="0" y2="1" gradientUnits="objectBoundingBox">
<stop stop-color="#ED3040"/>
<stop offset="1" stop-color="#2D23F4"/>
</linearGradient>
<linearGradient id="paint34_linear_5436_13720" x1="0" y1="0" x2="0" y2="1" gradientUnits="objectBoundingBox">
<stop stop-color="#ED3040"/>
<stop offset="1" stop-color="#2D23F4"/>
</linearGradient>
<linearGradient id="paint35_linear_5436_13720" x1="0" y1="0" x2="0" y2="1" gradientUnits="objectBoundingBox">
<stop stop-color="#ED3040"/>
<stop offset="1" stop-color="#2D23F4"/>
</linearGradient>
<linearGradient id="paint36_linear_5436_13720" x1="0" y1="0" x2="0" y2="1" gradientUnits="objectBoundingBox">
<stop stop-color="#ED3040"/>
<stop offset="1" stop-color="#2D23F4"/>
</linearGradient>
<linearGradient id="paint37_linear_5436_13720" x1="0" y1="0" x2="0" y2="1" gradientUnits="objectBoundingBox">
<stop stop-color="#ED3040"/>
<stop offset="1" stop-color="#2D23F4"/>
</linearGradient>
</defs>
</svg>
