<svg width="50" height="50" viewBox="0 0 50 50" fill="none" xmlns="http://www.w3.org/2000/svg">
<path d="M11.4166 19.2975C12.6599 19.0618 13.5384 18.1783 13.4403 17.2931L13.4406 10.812L20.5727 9.46472V14.5912C20.1665 14.4844 19.6996 14.4653 19.2184 14.5563C17.9281 14.8007 17.0277 15.743 17.2066 16.6607C17.3858 17.5785 18.5769 18.1242 19.8669 17.8794C21.1091 17.644 21.9874 16.7615 21.8909 15.877L21.8913 8.68765V8.68698V6.40988C21.8913 6.13754 21.7693 5.88233 21.5563 5.70872C21.3433 5.53511 21.0648 5.46492 20.7946 5.51663L12.8711 7.01297C12.4369 7.09491 12.122 7.47068 12.122 7.90626V16.009C11.7158 15.9022 11.2489 15.8831 10.768 15.9741C9.47766 16.2185 8.57727 17.1608 8.75648 18.0785C8.9354 18.9967 10.1265 19.5423 11.4165 19.2976L11.4166 19.2975ZM13.4406 8.22843L20.5727 6.88116V8.14143L13.4406 9.48871V8.22843ZM30.781 21.1304C32.0243 20.8946 32.9028 20.0111 32.8047 19.126L32.805 12.6445L39.9371 11.2972V16.4237C39.5309 16.3169 39.0639 16.2977 38.5828 16.3887C37.2925 16.6332 36.3921 17.5755 36.5713 18.4932C36.7506 19.411 37.9417 19.9566 39.2316 19.7119C40.4739 19.4765 41.3518 18.5943 41.2557 17.7098V10.5215V10.5181V8.24199C41.2557 7.96965 41.1333 7.7141 40.9203 7.54082C40.707 7.36755 40.4285 7.29804 40.159 7.34941L32.2359 8.8461C31.8013 8.92803 31.4864 9.30347 31.4864 9.73904V17.8421C31.0802 17.7353 30.6133 17.7162 30.1324 17.8072C28.8421 18.0517 27.9417 18.994 28.1205 19.9117C28.2995 20.8291 29.4906 21.3748 30.7809 21.1303L30.781 21.1304ZM32.805 10.0612L39.9371 8.71397V9.97425L32.805 11.3215V10.0612ZM43.4614 28.919H37.9934C37.1452 28.919 36.455 29.599 36.455 30.4348V32.0305L34.5148 31.6047V28.1456C34.5148 27.3098 33.8247 26.6297 32.9764 26.6297H27.5084C26.6602 26.6297 25.97 27.3098 25.97 28.1456V29.73L24.0295 29.3042V25.8558C24.0295 25.0199 23.3393 24.3399 22.491 24.3399H17.0234C16.1752 24.3399 15.485 25.0199 15.485 25.8558V27.4291L13.5445 27.0033V23.5663C13.5445 22.7305 12.8543 22.0504 12.006 22.0504H6.53843C5.69015 22.0504 5 22.7305 5 23.5663V43.8502C5 44.2089 5.29514 44.5 5.65947 44.5C6.02379 44.5 6.31893 44.2089 6.31893 43.8502L6.31859 23.5663C6.31859 23.4468 6.41708 23.3497 6.53841 23.3497H12.006C12.1273 23.3497 12.2258 23.4468 12.2258 23.5663V43.8502C12.2258 44.2089 12.521 44.5 12.8853 44.5C13.2496 44.5 13.5448 44.2089 13.5448 43.8502L13.5444 32.665L15.485 33.0908V43.8496C15.485 44.2083 15.7801 44.4994 16.1444 44.4994C16.5088 44.4994 16.8039 44.2083 16.8039 43.8496L16.8036 25.8559C16.8036 25.7367 16.9021 25.6393 17.0234 25.6393H22.491C22.6123 25.6393 22.7108 25.7367 22.7108 25.8559V43.8496C22.7108 44.2083 23.0059 44.4994 23.3703 44.4994C23.7346 44.4994 24.0297 44.2083 24.0297 43.8496L24.0294 34.9658L25.9699 35.3916V43.8493C25.9699 44.2079 26.2654 44.4991 26.6294 44.4991C26.9934 44.4991 27.2889 44.2079 27.2889 43.8493L27.2885 28.1457C27.2885 28.0265 27.3874 27.9291 27.5083 27.9291H32.9763C33.0973 27.9291 33.1961 28.0265 33.1961 28.1457V43.8501C33.1961 44.2088 33.4916 44.4999 33.8556 44.4999C34.2196 44.4999 34.515 44.2088 34.515 43.8501L34.5147 37.2673L36.4549 37.6931V43.8498C36.4549 44.2085 36.7504 44.4996 37.1144 44.4996C37.4784 44.4996 37.7738 44.2085 37.7738 43.8498V30.4355C37.7738 30.3163 37.8727 30.2189 37.9937 30.2189H43.4612C43.5822 30.2189 43.6811 30.3163 43.6811 30.4355V43.8498C43.6811 44.2085 43.9765 44.4996 44.3405 44.4996C44.7045 44.4996 45 44.2085 45 43.8498L44.9997 30.4355C44.9997 29.5997 44.3095 28.9193 43.4612 28.9193L43.4614 28.919ZM15.4847 31.7596L13.5442 31.3338V28.334L15.4847 28.7598V31.7596ZM25.9701 34.0606L24.0295 33.6348V30.6349L25.9701 31.0608V34.0606ZM36.4554 36.3619L34.5152 35.9361V32.936L36.4554 33.3618V36.3619ZM40.7278 33.4984C39.5436 33.4984 38.5804 34.4481 38.5804 35.615C38.5804 36.7819 39.5436 37.7309 40.7278 37.7309C41.9121 37.7309 42.8753 36.7819 42.8753 35.615C42.8756 34.4481 41.9121 33.4984 40.7278 33.4984ZM40.7278 36.4317C40.2708 36.4317 39.899 36.0653 39.899 35.615C39.899 35.1647 40.2708 34.798 40.7278 34.798C41.1849 34.798 41.5567 35.1647 41.5567 35.615C41.5567 36.0653 41.1852 36.4317 40.7278 36.4317ZM30.2425 31.2089C29.0582 31.2089 28.0944 32.1579 28.0944 33.3248C28.0944 34.4917 29.0582 35.4414 30.2425 35.4414C31.4268 35.4414 32.3903 34.492 32.3903 33.3251C32.3903 32.1582 31.4268 31.2089 30.2425 31.2089ZM30.2425 34.1422C29.7855 34.1422 29.4133 33.7755 29.4133 33.3251C29.4133 32.8748 29.7855 32.5084 30.2425 32.5084C30.6999 32.5084 31.0713 32.8745 31.0713 33.3251C31.0713 33.7755 30.6999 34.1422 30.2425 34.1422ZM19.7571 28.919C18.5732 28.919 17.6097 29.8686 17.6097 31.0356C17.6097 32.2025 18.5732 33.1515 19.7571 33.1515C20.9414 33.1515 21.9049 32.2025 21.9049 31.0356C21.9049 29.8686 20.9414 28.919 19.7571 28.919ZM19.7571 31.8523C19.3001 31.8523 18.9283 31.4859 18.9283 31.0356C18.9283 30.5852 19.3001 30.2185 19.7571 30.2185C20.2142 30.2185 20.5863 30.5852 20.5863 31.0356C20.5863 31.4859 20.2145 31.8523 19.7571 31.8523ZM9.27179 26.6298C8.0875 26.6298 7.12403 27.5787 7.12403 28.7457C7.12403 29.9126 8.0875 30.8623 9.27179 30.8623C10.4561 30.8623 11.4196 29.9126 11.4196 28.7457C11.4196 27.5787 10.4561 26.6298 9.27179 26.6298ZM9.27179 29.5627C8.81476 29.5627 8.4426 29.196 8.4426 28.7457C8.4426 28.2953 8.81442 27.929 9.27179 27.929C9.72882 27.929 10.101 28.2953 10.101 28.7457C10.101 29.196 9.72916 29.5627 9.27179 29.5627Z" fill="url(#paint0_linear_5436_13722)"/>
<defs>
<linearGradient id="paint0_linear_5436_13722" x1="37.6624" y1="33.4237" x2="37.6624" y2="41.2343" gradientUnits="userSpaceOnUse">
<stop stop-color="#ED3040"/>
<stop offset="1" stop-color="#2D23F4"/>
</linearGradient>
</defs>
</svg>
