<svg width="50" height="50" viewBox="0 0 50 50" fill="none" xmlns="http://www.w3.org/2000/svg">
<path d="M44.5495 36.8772L41.8746 36.1212V31.2535H40.6248V35.7588L38.0371 35.0025H38.1248V26.879H36.8747V34.6648L33.9248 33.8026L33.7498 33.7526V22.9549C33.7303 22.1549 33.3941 21.3953 32.8154 20.8424C32.2366 20.2895 31.4626 19.9888 30.6625 20.0055H13.0879C12.2878 19.9888 11.5137 20.2896 10.935 20.8424C10.3563 21.3953 10.0201 22.1549 10.0005 22.9549V24.3793C9.87617 24.4934 9.77072 24.6264 9.68792 24.7731L6.95694 29.697C6.93771 29.7311 6.92096 29.7668 6.9067 29.8033C5.64013 33.593 5.13646 37.5963 5.42553 41.5822L5.62556 44.419L6.87538 44.3316L6.66914 41.4948H6.66945C6.3956 37.6895 6.8732 33.8677 8.07558 30.2469L10.7818 25.3792V25.3795C10.8634 25.2344 11.037 25.1686 11.1943 25.2232C11.2913 25.2536 11.3698 25.3261 11.4073 25.4207C11.4452 25.5153 11.438 25.622 11.3881 25.7106C10.8692 26.6417 10.1069 28.0225 9.55054 29.0349C9.28692 29.5226 9.16753 30.0755 9.20629 30.6286C9.24506 31.1818 9.44013 31.7126 9.76918 32.1591C10.1116 32.64 10.6602 32.9318 11.2503 32.9464C11.8287 32.9579 12.3799 32.7021 12.7442 32.2528L13.5316 31.2531C13.7444 31.0714 14.052 31.0534 14.2846 31.209C14.5172 31.3647 14.618 31.6555 14.5315 31.9216L12.2316 36.0582C12.088 36.318 11.8947 36.5475 11.6628 36.7332L11.0065 37.2582V37.2579C10.3298 37.7999 9.87581 38.5716 9.73036 39.4265C9.58522 40.281 9.7592 41.1594 10.2191 41.8946L11.9692 44.694C12.0805 44.8819 12.2821 44.9978 12.5005 45H44.3746C44.5402 45 44.6993 44.9343 44.8165 44.8171C44.9338 44.6999 44.9995 44.5408 44.9995 44.3752V37.5016C45.011 37.2148 44.8255 36.9571 44.5495 36.8768L44.5495 36.8772ZM32.4999 34.5522C32.4897 34.9174 32.3625 35.2697 32.1377 35.5574C31.9128 35.8452 31.6018 36.0535 31.2501 36.1518V21.355C31.6018 21.4533 31.9128 21.6617 32.1377 21.9494C32.3625 22.2375 32.4897 22.5894 32.4999 22.9547V34.5522ZM11.2502 23.9734V22.9551C11.2608 22.5898 11.3876 22.2379 11.6128 21.9499C11.8376 21.6621 12.1487 21.4537 12.5004 21.3555V24.836C12.3128 24.4614 11.985 24.1762 11.588 24.0422C11.4782 24.0075 11.365 23.9842 11.2502 23.9734ZM11.2502 31.6969C11.0558 31.695 10.8734 31.6026 10.7565 31.447C10.5658 31.1905 10.4523 30.8848 10.429 30.566C10.4057 30.2472 10.474 29.9285 10.6253 29.6473C11.1817 28.6349 11.944 27.2542 12.4629 26.3231L12.5004 26.2542V30.5282L11.7629 31.4404V31.4408C11.6435 31.6038 11.4524 31.6994 11.2502 31.6969ZM15.6252 32.5465C15.6627 32.4714 15.6879 32.3964 15.7189 32.3217C16.2814 33.7526 19.4876 34.3774 22.5002 34.3774C25.8127 34.3774 29.3752 33.5963 29.3752 31.8779C29.3752 31.1031 28.6938 30.4845 27.3565 30.0033L26.9624 31.2532C27.8435 31.5468 28.1061 31.8404 28.1248 31.878C28.0311 32.228 26.156 33.1275 22.4999 33.1275C18.8437 33.1275 16.9687 32.2153 16.875 31.878C16.875 31.7967 17.2 31.4532 18.3001 31.1282L17.9499 29.9286C16.8251 30.2597 16.1123 30.691 15.8063 31.2284V31.2281C15.698 30.7803 15.4282 30.3884 15.0489 30.1267C14.6696 29.865 14.2072 29.7521 13.7501 29.8098V21.2553H30.0004V36.2521H13.5628L15.6252 32.5465ZM43.7496 43.7506H12.8441L11.2816 41.2512C10.9823 40.7765 10.8682 40.2081 10.9615 39.6547C11.0549 39.1015 11.3492 38.602 11.7877 38.2519L12.4439 37.7269C12.5236 37.6587 12.5987 37.5859 12.6691 37.5084H30.6629C31.3771 37.5173 32.0721 37.2761 32.6269 36.8265C33.1817 36.3766 33.5614 35.7468 33.7003 35.0461L43.7499 37.9707L43.7496 43.7506Z" fill="url(#paint0_linear_5436_13718)"/>
<path d="M43.75 5.00859C43.6898 4.99898 43.6287 4.99898 43.5686 5.00859L29.3373 9.3827L5.73752 5.00859C5.55393 4.97789 5.36599 5.0303 5.22488 5.15246C5.08222 5.27122 4.99973 5.44765 5.00004 5.63338V9.38271C4.99663 9.69433 5.22302 9.96067 5.53129 10.0075L12.4999 11.0261V18.7555H13.7497V11.2071L19.9995 12.1255L19.9998 18.7554H21.2496V12.3131L26.2496 13.0442V18.7554H27.4994L27.4997 12.5069C27.5031 12.1952 27.2764 11.9286 26.9685 11.8821L6.24992 8.84523V6.38325L28.7493 10.5261V18.7551H29.9991L29.9994 10.4697L43.8424 6.258H44.9986V5.00843L43.75 5.00859Z" fill="url(#paint1_linear_5436_13718)"/>
<path d="M27.225 24.1426V24.1051C27.2278 24.0654 27.2278 24.0257 27.225 23.9863V23.9299C27.2073 23.8896 27.1841 23.8517 27.1562 23.8176V23.7801C27.1208 23.7361 27.0786 23.6983 27.0312 23.6676H26.9937C26.9536 23.6415 26.909 23.6223 26.8625 23.6114L22.5002 22.5054C22.3997 22.48 22.2943 22.48 22.1938 22.5054L17.9565 23.5677C17.9106 23.5813 17.8665 23.6003 17.8253 23.6238H17.794C17.7453 23.653 17.7031 23.6911 17.669 23.7364C17.6671 23.7488 17.6671 23.7615 17.669 23.7739C17.6389 23.8065 17.6156 23.8446 17.6001 23.8861C17.598 23.9051 17.598 23.9237 17.6001 23.9426C17.5973 23.982 17.5973 24.0216 17.6001 24.0613C17.5973 24.0734 17.5973 24.0864 17.6001 24.0988C17.5973 24.1088 17.5973 24.1196 17.6001 24.1299V29.0727C17.6008 29.308 17.7338 29.5229 17.9441 29.6287L22.1876 31.7471C22.2667 31.7812 22.3516 31.8004 22.4375 31.8032C22.5237 31.801 22.6087 31.7818 22.6875 31.7471H22.7188L26.8749 29.6914C27.0877 29.5872 27.2232 29.372 27.2251 29.1351V24.1613L27.225 24.1426ZM22.3625 23.755L24.6187 24.3175L22.3625 25.261L20.1063 24.3175L22.3625 23.755ZM18.7501 25.1298L21.7376 26.3794V30.2472L18.7501 28.754V25.1298ZM25.9814 28.7539L22.9877 30.2471V26.3731L25.9814 25.1236V28.7539Z" fill="url(#paint2_linear_5436_13718)"/>
<path d="M41.0816 9.3831L32.3316 11.8825H32.3313C32.0531 11.9604 31.8645 12.2187 31.8751 12.5073V18.7559H33.1249L33.1252 12.9759L40.6251 10.8389V24.3799H41.8749V10.6333H44.9998V9.38374H41.25C41.1942 9.37413 41.1371 9.37413 41.0813 9.38374L41.0816 9.3831Z" fill="url(#paint3_linear_5436_13718)"/>
<defs>
<linearGradient id="paint0_linear_5436_13718" x1="37.6624" y1="33.6397" x2="37.6624" y2="41.6506" gradientUnits="userSpaceOnUse">
<stop stop-color="#ED3040"/>
<stop offset="1" stop-color="#2D23F4"/>
</linearGradient>
<linearGradient id="paint1_linear_5436_13718" x1="37.6624" y1="33.6397" x2="37.6624" y2="41.6506" gradientUnits="userSpaceOnUse">
<stop stop-color="#ED3040"/>
<stop offset="1" stop-color="#2D23F4"/>
</linearGradient>
<linearGradient id="paint2_linear_5436_13718" x1="37.6624" y1="33.6397" x2="37.6624" y2="41.6506" gradientUnits="userSpaceOnUse">
<stop stop-color="#ED3040"/>
<stop offset="1" stop-color="#2D23F4"/>
</linearGradient>
<linearGradient id="paint3_linear_5436_13718" x1="37.6624" y1="33.6397" x2="37.6624" y2="41.6506" gradientUnits="userSpaceOnUse">
<stop stop-color="#ED3040"/>
<stop offset="1" stop-color="#2D23F4"/>
</linearGradient>
</defs>
</svg>
