<svg width="50" height="50" viewBox="0 0 50 50" fill="none" xmlns="http://www.w3.org/2000/svg">
<path d="M31.2737 18.7717C33.5116 18.7717 35.4207 17.0189 35.4207 14.8279C35.4207 12.6372 33.5116 10.9469 31.2737 10.9469C29.0358 10.9469 27.1266 12.6997 27.1266 14.8907C27.1266 17.0817 28.9698 18.7717 31.2737 18.7717ZM31.2737 12.199C32.7877 12.199 34.1041 13.3884 34.1041 14.8907C34.1041 16.393 32.8534 17.5823 31.2737 17.5823C29.6939 17.5823 28.4433 16.3929 28.4433 14.8907C28.4433 13.3883 29.694 12.199 31.2737 12.199Z" fill="url(#paint0_linear_5436_13702)"/>
<path d="M25.8759 5.00015C15.3435 5.00015 8.56399 15.6422 13.2374 24.4678C12.5792 25.1565 12.3815 26.1578 12.8423 26.9718L15.5409 32.4179C16.0017 33.2943 16.989 33.7949 17.9766 33.6697L22.1236 33.169L24.8884 35.0471V42.7466C24.8884 43.9984 25.9416 45 27.2579 45C28.5742 45 29.6275 43.9984 29.6275 42.7466V31.9172L31.0755 26.4711L32.3919 27.2223C33.116 27.6605 34.1033 27.6605 34.8932 27.2223L38.8425 24.906C39.9615 24.2173 40.2905 22.8403 39.6324 21.7762C39.6324 21.7762 39.6324 21.7137 39.5667 21.7137C41.8052 13.2628 35.0909 5 25.876 5L25.8759 5.00015ZM25.8759 6.25228C34.104 6.25228 40.0277 13.4512 38.4481 20.8379C37.7239 20.5874 37.0001 20.6502 36.3416 21.0256L33.6429 22.6531L19.4248 14.5779C18.3059 13.952 16.8576 14.2649 16.1337 15.329C15.4755 16.3932 15.8046 17.7705 16.9235 18.4589L23.7036 22.3399L22.0578 28.6624L19.0301 29.0381L17.0552 25.0943C16.6602 24.2804 15.8046 23.7798 14.883 23.7798C14.6857 23.7798 14.488 23.7798 14.2906 23.8422C10.1435 15.7673 16.331 6.25226 25.8751 6.25226L25.8759 6.25228ZM38.1195 23.8422L34.1701 26.1585C33.841 26.3462 33.3803 26.3462 33.0512 26.1585L31.0107 24.9691C30.6156 24.7814 30.1548 24.9691 30.0234 25.3448L28.3777 31.6673V42.6849C28.3777 43.2483 27.9169 43.6865 27.3244 43.6865C26.732 43.6865 26.2712 43.2483 26.2712 42.6849V34.6724C26.2712 34.4219 26.1395 34.2342 25.9421 34.109L22.7167 32.0426C22.585 31.9801 22.3876 31.9174 22.2559 31.9174L17.8458 32.4808C17.385 32.5433 16.9242 32.2931 16.7268 31.9174L14.0281 26.4713C13.7647 25.9706 13.9625 25.3444 14.5546 25.0942C15.0811 24.8437 15.7396 25.0942 15.9369 25.5948L18.1091 29.9768C18.2408 30.2273 18.5042 30.3526 18.7673 30.3526L22.7166 29.8519C22.98 29.7894 23.1774 29.6642 23.2431 29.4137L25.1519 22.2148C25.2176 21.9643 25.0863 21.6514 24.8229 21.5261L17.6481 17.3947C17.1216 17.0817 16.9899 16.5182 17.319 16.0176C17.5824 15.5794 18.3063 15.3917 18.7671 15.7047L33.2484 24.0304C33.4458 24.1557 33.7092 24.1557 33.9066 24.0304L37.0004 22.2151C37.4612 21.9022 38.1853 22.0899 38.4484 22.5281C38.7778 22.9035 38.6461 23.5294 38.1197 23.8426L38.1195 23.8422Z" fill="url(#paint1_linear_5436_13702)"/>
<path d="M37.198 33.1061C36.8689 32.9809 36.4739 33.2314 36.4082 33.5443C35.8817 35.2971 34.9601 36.9246 33.6434 38.3017C33.38 38.5522 33.4461 38.9904 33.7091 39.1781C33.9725 39.4286 34.3673 39.3658 34.6307 39.1157C36.0131 37.5506 37.0664 35.7354 37.6585 33.8573C37.7905 33.5444 37.5928 33.1689 37.198 33.1061Z" fill="url(#paint2_linear_5436_13702)"/>
<path d="M17.3851 41.3067C14.5547 39.8044 12.3825 37.05 11.3292 33.8577C11.1975 33.5447 10.8684 33.357 10.4734 33.4195C10.1443 33.5447 9.94689 33.8577 10.0126 34.2334C11.1975 37.739 13.6328 40.7436 16.6609 42.371C16.99 42.5587 17.3851 42.4335 17.5825 42.1205C17.8459 41.87 17.7145 41.4943 17.3851 41.3066V41.3067Z" fill="url(#paint3_linear_5436_13702)"/>
<defs>
<linearGradient id="paint0_linear_5436_13702" x1="0" y1="0" x2="0" y2="1" gradientUnits="objectBoundingBox">
<stop stop-color="#ED3040"/>
<stop offset="1" stop-color="#2D23F4"/>
</linearGradient>
<linearGradient id="paint1_linear_5436_13702" x1="0" y1="0" x2="0" y2="1" gradientUnits="objectBoundingBox">
<stop stop-color="#ED3040"/>
<stop offset="1" stop-color="#2D23F4"/>
</linearGradient>
<linearGradient id="paint2_linear_5436_13702" x1="0" y1="0" x2="0" y2="1" gradientUnits="objectBoundingBox">
<stop stop-color="#ED3040"/>
<stop offset="1" stop-color="#2D23F4"/>
</linearGradient>
<linearGradient id="paint3_linear_5436_13702" x1="0" y1="0" x2="0" y2="1" gradientUnits="objectBoundingBox">
<stop stop-color="#ED3040"/>
<stop offset="1" stop-color="#2D23F4"/>
</linearGradient>
</defs>
</svg>
