<svg width="50" height="50" viewBox="0 0 50 50" fill="none" xmlns="http://www.w3.org/2000/svg">
<path d="M28.7502 35.6255H27.5004V33.1256C27.5001 33.0835 27.5044 33.0416 27.5128 33.0007C27.6831 32.1555 28.0893 31.3762 28.6845 30.7526C29.2797 30.129 30.0392 29.6867 30.8754 29.4771L25.0004 18.7982L19.1252 29.4795C19.961 29.6888 20.7205 30.1308 21.3154 30.7541C21.9105 31.3772 22.3171 32.1562 22.4877 33.0007C22.4961 33.0416 22.5004 33.0835 22.5004 33.1256V35.6255H21.2503V33.1954C21.0977 32.4766 20.7054 31.8306 20.1375 31.3639C19.5699 30.8968 18.8603 30.6366 18.1253 30.6258C17.9045 30.6258 17.6998 30.5089 17.5875 30.3188C17.4749 30.1287 17.4712 29.893 17.5779 29.6994L24.453 17.2001H24.4527C24.5721 17.0134 24.7787 16.9005 25.0004 16.9005C25.2219 16.9005 25.4284 17.0134 25.5478 17.2001L32.423 29.6994C32.5294 29.893 32.5256 30.1286 32.4134 30.3188C32.3008 30.5089 32.0964 30.6258 31.8753 30.6258C31.1393 30.6317 30.4276 30.8897 29.8588 31.357C29.29 31.8244 28.8989 32.4729 28.7504 33.1936L28.7502 35.6255Z" fill="url(#paint0_linear_5436_13704)"/>
<path d="M25.0004 31.8759C24.3373 31.8759 23.7013 31.6126 23.2326 31.1437C22.7637 30.6751 22.5003 30.039 22.5003 29.3759C22.5003 28.7129 22.7637 28.0772 23.2326 27.6082C23.7012 27.1396 24.3373 26.876 25.0004 26.876C25.6635 26.876 26.2992 27.1396 26.7682 27.6082C27.2368 28.0771 27.5005 28.7129 27.5005 29.3759C27.5005 30.039 27.2368 30.675 26.7682 31.1437C26.2993 31.6126 25.6635 31.8759 25.0004 31.8759ZM25.0004 28.1262C24.6689 28.1262 24.351 28.2577 24.1165 28.4922C23.882 28.7266 23.7502 29.0445 23.7502 29.376C23.7502 29.7076 23.882 30.0254 24.1165 30.2599C24.351 30.4943 24.6688 30.6261 25.0004 30.6261C25.332 30.6261 25.6498 30.4943 25.8843 30.2599C26.1185 30.0254 26.2503 29.7076 26.2503 29.376C26.2503 29.0445 26.1185 28.7266 25.8843 28.4922C25.6498 28.2577 25.332 28.1262 25.0004 28.1262Z" fill="url(#paint1_linear_5436_13704)"/>
<path d="M24.3748 17.5021H25.6246V27.5014H24.3748V17.5021Z" fill="url(#paint2_linear_5436_13704)"/>
<path d="M28.7502 39.3751H21.2502C20.905 39.3751 20.6252 39.0954 20.6252 38.7502V35.6255C20.6252 35.2803 20.905 35.0003 21.2502 35.0003H28.7502C28.9162 35.0003 29.0749 35.0663 29.1922 35.1836C29.3094 35.3008 29.3752 35.4596 29.3752 35.6255V38.7502C29.3752 38.9158 29.3094 39.0749 29.1922 39.1922C29.075 39.3094 28.9162 39.3751 28.7502 39.3751ZM21.8751 38.1254H28.1253V36.2504H21.8751V38.1254Z" fill="url(#paint3_linear_5436_13704)"/>
<path d="M14.3757 19.3765H11.8757C11.5305 19.3765 11.2505 19.0968 11.2505 18.7516V16.2518C11.2505 15.9066 11.5305 15.6269 11.8757 15.6269H14.3757C14.5413 15.6269 14.7004 15.6926 14.8177 15.8099C14.9346 15.9271 15.0006 16.0862 15.0006 16.2518V18.7516C15.0006 18.9176 14.9346 19.0763 14.8177 19.1936C14.7004 19.3108 14.5413 19.3765 14.3757 19.3765ZM12.5006 18.1268H13.7505V16.877H12.5006V18.1268Z" fill="url(#paint4_linear_5436_13704)"/>
<path d="M38.1252 19.3765H35.6252C35.2801 19.3765 35 19.0968 35 18.7516V16.2518C35 15.9066 35.2801 15.6269 35.6252 15.6269H38.1252C38.2909 15.6269 38.45 15.6926 38.5672 15.8099C38.6844 15.9271 38.7502 16.0862 38.7502 16.2518V18.7516C38.7502 18.9176 38.6844 19.0763 38.5672 19.1936C38.45 19.3108 38.2909 19.3765 38.1252 19.3765ZM36.2502 18.1268H37.5V16.877H36.2502V18.1268Z" fill="url(#paint5_linear_5436_13704)"/>
<path d="M38.1252 32.5007H35.6252C35.2801 32.5007 35 32.2209 35 31.8758V29.3759C35 29.0307 35.2801 28.751 35.6252 28.751H38.1252C38.2909 28.751 38.45 28.8168 38.5672 28.934C38.6844 29.0512 38.7502 29.2103 38.7502 29.3759V31.8758C38.7502 32.0417 38.6844 32.2005 38.5672 32.3177C38.45 32.4349 38.2909 32.5007 38.1252 32.5007ZM36.2502 31.2509H37.5V30.0011H36.2502V31.2509Z" fill="url(#paint6_linear_5436_13704)"/>
<path d="M14.3757 32.5007H11.8757C11.5305 32.5007 11.2505 32.2209 11.2505 31.8758V29.3759C11.2505 29.0307 11.5305 28.751 11.8757 28.751H14.3757C14.5413 28.751 14.7004 28.8168 14.8177 28.934C14.9346 29.0512 15.0006 29.2103 15.0006 29.3759V31.8758C15.0006 32.0417 14.9346 32.2005 14.8177 32.3177C14.7004 32.4349 14.5413 32.5007 14.3757 32.5007ZM12.5006 31.2509H13.7505V30.0011H12.5006V31.2509Z" fill="url(#paint7_linear_5436_13704)"/>
<path d="M14.3757 16.8765H35.6259V18.1263H14.3757V16.8765Z" fill="url(#paint8_linear_5436_13704)"/>
<path d="M37.5004 29.3758H36.2506C36.2506 25.357 34.1062 21.6433 30.6256 19.6338C27.1445 17.6242 22.8563 17.6242 19.3752 19.6338C15.8945 21.6433 13.7502 25.3571 13.7502 29.3758H12.5004C12.5004 24.9104 14.8829 20.7841 18.7503 18.5509C22.6181 16.3183 27.383 16.3183 31.2503 18.5509C35.1177 20.7837 37.5002 24.9102 37.5002 29.3758H37.5004Z" fill="url(#paint9_linear_5436_13704)"/>
<path d="M6.2504 12.5021H5.00056V8.12722C5.00149 7.29885 5.33117 6.50463 5.91702 5.91888C6.50287 5.33306 7.29714 5.00342 8.12548 5.00247H20.0006V6.25224H8.12548C7.62833 6.25224 7.1513 6.44979 6.79965 6.80147C6.44796 7.15315 6.2504 7.63015 6.2504 8.12722V12.5021Z" fill="url(#paint10_linear_5436_13704)"/>
<path d="M41.8751 45H8.12492C7.29651 44.9991 6.50224 44.6694 5.91646 44.0836C5.33061 43.4978 5.00095 42.7035 5 41.8752V13.7518H6.24984V41.8752C6.24984 42.3724 6.4474 42.8494 6.7991 43.201C7.1508 43.5527 7.62783 43.7502 8.12492 43.7502H41.8751C42.3722 43.7502 42.8493 43.5527 43.2009 43.201C43.5526 42.8493 43.7502 42.3723 43.7502 41.8752V8.1269C43.7502 7.62978 43.5526 7.15277 43.2009 6.80115C42.8492 6.44947 42.3722 6.25192 41.8751 6.25192H26.8749V5.00215H41.8751C42.7035 5.00308 43.4978 5.33274 44.0835 5.91856C44.6694 6.50438 44.999 7.29862 45 8.1269V41.8752C44.9991 42.7036 44.6694 43.4978 44.0835 44.0836C43.4977 44.6693 42.7034 44.999 41.8751 45Z" fill="url(#paint11_linear_5436_13704)"/>
<path d="M24.3748 5.00199H25.6246V6.25177H24.3748V5.00199Z" fill="url(#paint12_linear_5436_13704)"/>
<path d="M24.3748 11.2517H22.5C22.1548 11.2517 21.8748 10.9719 21.8748 10.6268V8.12689C21.9017 7.62201 21.7129 7.12927 21.3553 6.77169C20.9977 6.41412 20.5049 6.22526 20 6.25192V5.00215C20.838 4.97052 21.6515 5.28932 22.2445 5.8826C22.8378 6.47555 23.1566 7.28901 23.125 8.12698V10.002H24.3748L24.3748 11.2517Z" fill="url(#paint13_linear_5436_13704)"/>
<path d="M25.6252 10.002H44.3752V11.2518H25.6252V10.002Z" fill="url(#paint14_linear_5436_13704)"/>
<path d="M7.50008 7.50202H18.1248V8.75179H7.50008V7.50202Z" fill="url(#paint15_linear_5436_13704)"/>
<path d="M19.3752 7.50202H20.6251V8.75179H19.3752V7.50202Z" fill="url(#paint16_linear_5436_13704)"/>
<path d="M41.2502 7.50202H42.5001V8.75179H41.2502V7.50202Z" fill="url(#paint17_linear_5436_13704)"/>
<path d="M38.7501 7.50202H39.9999V8.75179H38.7501V7.50202Z" fill="url(#paint18_linear_5436_13704)"/>
<path d="M36.2507 7.50202H37.5006V8.75179H36.2507V7.50202Z" fill="url(#paint19_linear_5436_13704)"/>
<path d="M5.62476 10.002H22.4994V11.2518H5.62476V10.002Z" fill="url(#paint20_linear_5436_13704)"/>
<defs>
<linearGradient id="paint0_linear_5436_13704" x1="0" y1="0" x2="0" y2="1" gradientUnits="objectBoundingBox">
<stop stop-color="#ED3040"/>
<stop offset="1" stop-color="#2D23F4"/>
</linearGradient>
<linearGradient id="paint1_linear_5436_13704" x1="0" y1="0" x2="0" y2="1" gradientUnits="objectBoundingBox">
<stop stop-color="#ED3040"/>
<stop offset="1" stop-color="#2D23F4"/>
</linearGradient>
<linearGradient id="paint2_linear_5436_13704" x1="0" y1="0" x2="0" y2="1" gradientUnits="objectBoundingBox">
<stop stop-color="#ED3040"/>
<stop offset="1" stop-color="#2D23F4"/>
</linearGradient>
<linearGradient id="paint3_linear_5436_13704" x1="0" y1="0" x2="0" y2="1" gradientUnits="objectBoundingBox">
<stop stop-color="#ED3040"/>
<stop offset="1" stop-color="#2D23F4"/>
</linearGradient>
<linearGradient id="paint4_linear_5436_13704" x1="0" y1="0" x2="0" y2="1" gradientUnits="objectBoundingBox">
<stop stop-color="#ED3040"/>
<stop offset="1" stop-color="#2D23F4"/>
</linearGradient>
<linearGradient id="paint5_linear_5436_13704" x1="0" y1="0" x2="0" y2="1" gradientUnits="objectBoundingBox">
<stop stop-color="#ED3040"/>
<stop offset="1" stop-color="#2D23F4"/>
</linearGradient>
<linearGradient id="paint6_linear_5436_13704" x1="0" y1="0" x2="0" y2="1" gradientUnits="objectBoundingBox">
<stop stop-color="#ED3040"/>
<stop offset="1" stop-color="#2D23F4"/>
</linearGradient>
<linearGradient id="paint7_linear_5436_13704" x1="0" y1="0" x2="0" y2="1" gradientUnits="objectBoundingBox">
<stop stop-color="#ED3040"/>
<stop offset="1" stop-color="#2D23F4"/>
</linearGradient>
<linearGradient id="paint8_linear_5436_13704" x1="0" y1="0" x2="0" y2="1" gradientUnits="objectBoundingBox">
<stop stop-color="#ED3040"/>
<stop offset="1" stop-color="#2D23F4"/>
</linearGradient>
<linearGradient id="paint9_linear_5436_13704" x1="0" y1="0" x2="0" y2="1" gradientUnits="objectBoundingBox">
<stop stop-color="#ED3040"/>
<stop offset="1" stop-color="#2D23F4"/>
</linearGradient>
<linearGradient id="paint10_linear_5436_13704" x1="0" y1="0" x2="0" y2="1" gradientUnits="objectBoundingBox">
<stop stop-color="#ED3040"/>
<stop offset="1" stop-color="#2D23F4"/>
</linearGradient>
<linearGradient id="paint11_linear_5436_13704" x1="0" y1="0" x2="0" y2="1" gradientUnits="objectBoundingBox">
<stop stop-color="#ED3040"/>
<stop offset="1" stop-color="#2D23F4"/>
</linearGradient>
<linearGradient id="paint12_linear_5436_13704" x1="0" y1="0" x2="0" y2="1" gradientUnits="objectBoundingBox">
<stop stop-color="#ED3040"/>
<stop offset="1" stop-color="#2D23F4"/>
</linearGradient>
<linearGradient id="paint13_linear_5436_13704" x1="0" y1="0" x2="0" y2="1" gradientUnits="objectBoundingBox">
<stop stop-color="#ED3040"/>
<stop offset="1" stop-color="#2D23F4"/>
</linearGradient>
<linearGradient id="paint14_linear_5436_13704" x1="0" y1="0" x2="0" y2="1" gradientUnits="objectBoundingBox">
<stop stop-color="#ED3040"/>
<stop offset="1" stop-color="#2D23F4"/>
</linearGradient>
<linearGradient id="paint15_linear_5436_13704" x1="0" y1="0" x2="0" y2="1" gradientUnits="objectBoundingBox">
<stop stop-color="#ED3040"/>
<stop offset="1" stop-color="#2D23F4"/>
</linearGradient>
<linearGradient id="paint16_linear_5436_13704" x1="0" y1="0" x2="0" y2="1" gradientUnits="objectBoundingBox">
<stop stop-color="#ED3040"/>
<stop offset="1" stop-color="#2D23F4"/>
</linearGradient>
<linearGradient id="paint17_linear_5436_13704" x1="0" y1="0" x2="0" y2="1" gradientUnits="objectBoundingBox">
<stop stop-color="#ED3040"/>
<stop offset="1" stop-color="#2D23F4"/>
</linearGradient>
<linearGradient id="paint18_linear_5436_13704" x1="0" y1="0" x2="0" y2="1" gradientUnits="objectBoundingBox">
<stop stop-color="#ED3040"/>
<stop offset="1" stop-color="#2D23F4"/>
</linearGradient>
<linearGradient id="paint19_linear_5436_13704" x1="0" y1="0" x2="0" y2="1" gradientUnits="objectBoundingBox">
<stop stop-color="#ED3040"/>
<stop offset="1" stop-color="#2D23F4"/>
</linearGradient>
<linearGradient id="paint20_linear_5436_13704" x1="0" y1="0" x2="0" y2="1" gradientUnits="objectBoundingBox">
<stop stop-color="#ED3040"/>
<stop offset="1" stop-color="#2D23F4"/>
</linearGradient>
</defs>
</svg>
