<svg width="50" height="50" viewBox="0 0 50 50" fill="none" xmlns="http://www.w3.org/2000/svg">
<path d="M24.0479 34.4997H19.9306L16.3606 43.4025C16.1649 43.8897 15.6109 44.1266 15.1225 43.9318C14.634 43.737 14.3966 43.1841 14.5919 42.6968L17.879 34.4997H5.95239C5.42639 34.4997 5 34.0743 5 33.55C5 33.0254 5.4264 32.6 5.95239 32.6H6.90478V10.75C6.90478 10.2253 7.33118 9.79998 7.85717 9.79998H24.0476V6.94999C24.0476 6.42532 24.474 6 25 6C25.526 6 25.9524 6.42533 25.9524 6.94999V9.79998H42.1428C42.6688 9.79998 43.0952 10.2253 43.0952 10.75V32.6H44.0476C44.5736 32.6 45 33.0254 45 33.55C45 34.0744 44.5736 34.4997 44.0476 34.4997H32.121L35.4081 42.6968C35.6034 43.184 35.366 43.737 34.8775 43.9318C34.3895 44.1266 33.8351 43.8897 33.6398 43.4025L30.0694 34.4997H25.9525V43.0497C25.9525 43.5744 25.5261 43.9997 25.0001 43.9997C24.4741 43.9997 24.0477 43.5744 24.0477 43.0497L24.0479 34.4997ZM30.6924 32.6001C30.7069 32.5997 30.7214 32.5997 30.7359 32.6001H41.1908V11.7004H8.80994V32.6001H19.2648C19.2793 32.5997 19.2939 32.5997 19.3084 32.6001H30.6924ZM25.7149 30.3811C25.6685 30.4327 25.6167 30.479 25.5607 30.519C25.3888 30.6459 25.1928 30.7032 25.0003 30.7018C24.8075 30.7032 24.6119 30.6459 24.4396 30.519C24.384 30.479 24.3318 30.4327 24.2854 30.3811C23.5872 29.7101 22.4792 29.2646 21.0341 29.0245C19.9402 28.8428 18.9975 28.8 17.3811 28.8C16.8551 28.8 16.4287 28.3747 16.4287 27.85V16.4503C16.4287 15.9256 16.8551 15.5003 17.3811 15.5003C19.0981 15.5003 20.1196 15.5466 21.347 15.7506C22.8084 15.9935 24.0405 16.4252 25.0003 17.1103C25.9598 16.4252 27.1922 15.9934 28.6533 15.7506C29.8811 15.5466 30.9022 15.5003 32.6196 15.5003C33.1452 15.5003 33.5716 15.9256 33.5716 16.4503V27.85C33.5716 28.3747 33.1452 28.8 32.6196 28.8C31.003 28.8 30.0601 28.8428 28.9662 29.0245C27.5211 29.2646 26.4131 29.7101 25.7149 30.3811ZM25.9527 18.7741V27.9527C26.7325 27.5797 27.6374 27.3199 28.6533 27.1509C29.6358 26.9875 30.4865 26.9253 31.6672 26.9069V17.407C30.5928 17.4246 29.8262 17.4819 28.9662 17.6247C27.6757 17.8394 26.6539 18.2176 25.9527 18.7741ZM24.048 18.7741C23.3465 18.2176 22.325 17.8393 21.0341 17.6247C20.1742 17.4819 19.4075 17.4246 18.3335 17.4069V26.9069C19.5142 26.9252 20.3645 26.9875 21.347 27.1508C22.3629 27.3198 23.2682 27.5797 24.048 27.9527V18.7741Z" fill="url(#paint0_linear_5436_13698)"/>
<defs>
<linearGradient id="paint0_linear_5436_13698" x1="0" y1="0" x2="0" y2="1" gradientUnits="objectBoundingBox">
<stop stop-color="#ED3040"/>
<stop offset="1" stop-color="#2D23F4"/>
</linearGradient>
</defs>
</svg>
