<svg width="50" height="50" viewBox="0 0 50 50" fill="none" xmlns="http://www.w3.org/2000/svg">
<path fill-rule="evenodd" clip-rule="evenodd" d="M39.4628 6.90048V6.00069C39.4628 5.44883 39.919 5.00064 40.4814 5.00064C41.0435 5.00064 41.5 5.44883 41.5 6.00069V43.9999C41.5 44.5518 41.0435 45 40.4814 45C39.9193 45 39.4628 44.5518 39.4628 43.9999V43.0995H35.6946V43.9993C35.6946 44.5512 35.2381 44.9994 34.676 44.9994C34.1139 44.9994 33.6574 44.5512 33.6574 43.9993V43.0995H16.3426V43.9999C16.3426 44.5518 15.8861 45 15.324 45C14.7619 45 14.3054 44.5518 14.3054 43.9999V43.0995H10.5372V43.9993C10.5372 44.5512 10.0807 44.9994 9.51858 44.9994C8.95649 44.9994 8.5 44.5512 8.5 43.9993V6.00006C8.5 5.4482 8.95618 5 9.51858 5C10.0807 5 10.5372 5.44819 10.5372 6.00006V6.89984H14.3054V6.00006C14.3054 5.4482 14.7616 5 15.324 5C15.8861 5 16.3426 5.44819 16.3426 6.00006V6.89984H33.6574V6.00006C33.6574 5.4482 34.1136 5 34.676 5C35.2381 5 35.6946 5.44819 35.6946 6.00006V6.89984H39.4628V6.90048ZM10.5378 37.4068V41.0995H14.306V37.4013L10.5378 37.4068ZM16.3432 26.0006V41.1H33.6581V26.0006H16.3432ZM35.6943 41.1H39.4625V37.4068L35.6943 37.4019V41.1004V41.1ZM10.5373 35.4076L14.3056 35.4017V31.7004H10.5373V35.4076ZM35.6943 31.7004V35.4017L39.4625 35.407V31.7007H35.6943V31.7004ZM35.6943 26.0011V29.7006H39.4625V26.0011H35.6943ZM10.5373 26.0011V29.7006H14.3056V26.0011H10.5373ZM35.6943 20.3006V24.001H39.4625V20.3006H35.6943ZM16.3432 8.90076V24.001H33.6581V8.90076H16.3432ZM14.306 20.3006H10.5378V24.001H14.306V20.3006ZM35.6949 18.3005H39.4632V14.5945L35.6949 14.5991V18.3005ZM10.538 14.5948V18.3008H14.3062V14.5998L10.538 14.5952V14.5948ZM35.6949 12.5997L39.4632 12.5951V8.90122H35.6949V12.5997ZM10.538 12.5951L14.3062 12.5997V8.90119H10.538V12.5951Z" fill="url(#paint0_linear_5436_13710)"/>
<path fill-rule="evenodd" clip-rule="evenodd" d="M31.8255 29.7502C31.8255 28.6741 30.9356 27.8004 29.8396 27.8004H20.162C19.066 27.8004 18.1758 28.6741 18.1758 29.7502V37.35C18.1758 38.4261 19.0657 39.3002 20.162 39.3002H29.8396C30.9356 39.3002 31.8255 38.4264 31.8255 37.35V29.7502ZM20.2129 29.8002V37.3H29.7885V29.8002H20.2129Z" fill="url(#paint1_linear_5436_13710)"/>
<path fill-rule="evenodd" clip-rule="evenodd" d="M31.8255 12.6509C31.8255 11.5748 30.9356 10.7007 29.8396 10.7007H20.162C19.066 10.7007 18.1758 11.5744 18.1758 12.6509V20.2506C18.1758 21.3267 19.0657 22.2005 20.162 22.2005H29.8396C30.9356 22.2005 31.8255 21.3267 31.8255 20.2506V12.6509ZM20.2129 12.7008V20.2006H29.7885V12.7008H20.2129Z" fill="url(#paint2_linear_5436_13710)"/>
<defs>
<linearGradient id="paint0_linear_5436_13710" x1="35.4465" y1="33.6397" x2="35.4465" y2="41.6506" gradientUnits="userSpaceOnUse">
<stop stop-color="#ED3040"/>
<stop offset="1" stop-color="#2D23F4"/>
</linearGradient>
<linearGradient id="paint1_linear_5436_13710" x1="35.4465" y1="33.6397" x2="35.4465" y2="41.6506" gradientUnits="userSpaceOnUse">
<stop stop-color="#ED3040"/>
<stop offset="1" stop-color="#2D23F4"/>
</linearGradient>
<linearGradient id="paint2_linear_5436_13710" x1="35.4465" y1="33.6397" x2="35.4465" y2="41.6506" gradientUnits="userSpaceOnUse">
<stop stop-color="#ED3040"/>
<stop offset="1" stop-color="#2D23F4"/>
</linearGradient>
</defs>
</svg>
