<svg width="50" height="50" viewBox="0 0 50 50" fill="none" xmlns="http://www.w3.org/2000/svg">
<path d="M45 45H5V5H45V45ZM6.66606 43.3332H43.3331V6.66614H6.66606V43.3332Z" fill="url(#paint0_linear_5436_13724)"/>
<path d="M8.33297 8.33297H27.4999V9.99981H8.33297V8.33297Z" fill="url(#paint1_linear_5436_13724)"/>
<path d="M5.8326 11.6659H44.1665V13.3328H5.8326V11.6659Z" fill="url(#paint2_linear_5436_13724)"/>
<path d="M30.8329 8.33297H33.3329V9.99981H30.8329V8.33297Z" fill="url(#paint3_linear_5436_13724)"/>
<path d="M34.9994 8.33297H37.4994V9.99981H34.9994V8.33297Z" fill="url(#paint4_linear_5436_13724)"/>
<path d="M39.1666 8.33297H41.6667V9.99981H39.1666V8.33297Z" fill="url(#paint5_linear_5436_13724)"/>
<path d="M13.9461 41.6765C13.4311 41.6765 12.9482 41.5995 12.5219 41.443C11.8146 41.1839 11.2985 40.7216 11.0301 40.1064C10.2959 38.4285 11.6997 36.1445 14.2259 34.9074C15.7664 34.1521 17.2256 33.9596 18.3277 34.3645C19.0154 34.6168 19.5265 35.0885 19.8063 35.7289C20.572 37.4807 19.3114 39.7641 16.9353 40.9279C15.9284 41.4215 14.8835 41.6765 13.946 41.6765L13.9461 41.6765ZM17.0866 35.8243C16.4829 35.8243 15.7333 36.0242 14.9585 36.4039C13.2016 37.265 12.241 38.7165 12.5569 39.4388C12.6405 39.63 12.8223 39.7778 13.0954 39.8783C13.8588 40.1578 15.0778 39.9824 16.2026 39.4311C17.8792 38.6096 18.6302 37.1985 18.2794 36.3962C18.1833 36.1764 18.011 36.0239 17.7536 35.9295C17.5617 35.8589 17.3366 35.8243 17.0866 35.8243Z" fill="url(#paint6_linear_5436_13724)"/>
<path d="M28.9467 38.3435C28.4316 38.3435 27.9488 38.2666 27.5224 38.11C26.8151 37.851 26.299 37.3886 26.0306 36.7735C25.2965 35.0955 26.7002 32.8116 29.2265 31.5744C30.768 30.8195 32.2255 30.6266 33.3282 31.0315C34.016 31.2838 34.5271 31.7555 34.8069 32.3959C35.5726 34.1477 34.312 36.4311 31.9359 37.5949C30.9289 38.0882 29.884 38.3435 28.9466 38.3435L28.9467 38.3435ZM32.0872 32.4913C31.4834 32.4913 30.7338 32.6912 29.959 33.0709C28.2021 33.9321 27.2416 35.3835 27.5574 36.1058C27.6411 36.297 27.8228 36.4448 28.096 36.5453C28.8593 36.8245 30.0776 36.6491 31.2032 36.0981C32.8797 35.2766 33.6307 33.8655 33.2799 33.0632C33.1839 32.8434 33.0115 32.6909 32.7541 32.5965C32.5626 32.5259 32.3371 32.4913 32.0872 32.4913Z" fill="url(#paint7_linear_5436_13724)"/>
<path d="M20.0306 36.6663H18.3638V18.4979L34.9994 14.7934V33.3333H33.3329V16.8723L20.0303 19.8346L20.0306 36.6663Z" fill="url(#paint8_linear_5436_13724)"/>
<path d="M19.0166 23.3559L33.9844 20.0165L34.3473 21.6434L19.3794 24.9827L19.0166 23.3559Z" fill="url(#paint9_linear_5436_13724)"/>
<defs>
<linearGradient id="paint0_linear_5436_13724" x1="37.6624" y1="33.6397" x2="37.6624" y2="41.6506" gradientUnits="userSpaceOnUse">
<stop stop-color="#ED3040"/>
<stop offset="1" stop-color="#2D23F4"/>
</linearGradient>
<linearGradient id="paint1_linear_5436_13724" x1="37.6624" y1="33.6397" x2="37.6624" y2="41.6506" gradientUnits="userSpaceOnUse">
<stop stop-color="#ED3040"/>
<stop offset="1" stop-color="#2D23F4"/>
</linearGradient>
<linearGradient id="paint2_linear_5436_13724" x1="37.6624" y1="33.6397" x2="37.6624" y2="41.6506" gradientUnits="userSpaceOnUse">
<stop stop-color="#ED3040"/>
<stop offset="1" stop-color="#2D23F4"/>
</linearGradient>
<linearGradient id="paint3_linear_5436_13724" x1="37.6624" y1="33.6397" x2="37.6624" y2="41.6506" gradientUnits="userSpaceOnUse">
<stop stop-color="#ED3040"/>
<stop offset="1" stop-color="#2D23F4"/>
</linearGradient>
<linearGradient id="paint4_linear_5436_13724" x1="37.6624" y1="33.6397" x2="37.6624" y2="41.6506" gradientUnits="userSpaceOnUse">
<stop stop-color="#ED3040"/>
<stop offset="1" stop-color="#2D23F4"/>
</linearGradient>
<linearGradient id="paint5_linear_5436_13724" x1="37.6624" y1="33.6397" x2="37.6624" y2="41.6506" gradientUnits="userSpaceOnUse">
<stop stop-color="#ED3040"/>
<stop offset="1" stop-color="#2D23F4"/>
</linearGradient>
<linearGradient id="paint6_linear_5436_13724" x1="37.6624" y1="33.6397" x2="37.6624" y2="41.6506" gradientUnits="userSpaceOnUse">
<stop stop-color="#ED3040"/>
<stop offset="1" stop-color="#2D23F4"/>
</linearGradient>
<linearGradient id="paint7_linear_5436_13724" x1="37.6624" y1="33.6397" x2="37.6624" y2="41.6506" gradientUnits="userSpaceOnUse">
<stop stop-color="#ED3040"/>
<stop offset="1" stop-color="#2D23F4"/>
</linearGradient>
<linearGradient id="paint8_linear_5436_13724" x1="37.6624" y1="33.6397" x2="37.6624" y2="41.6506" gradientUnits="userSpaceOnUse">
<stop stop-color="#ED3040"/>
<stop offset="1" stop-color="#2D23F4"/>
</linearGradient>
<linearGradient id="paint9_linear_5436_13724" x1="37.6624" y1="33.6397" x2="37.6624" y2="41.6506" gradientUnits="userSpaceOnUse">
<stop stop-color="#ED3040"/>
<stop offset="1" stop-color="#2D23F4"/>
</linearGradient>
</defs>
</svg>
