<svg width="50" height="50" viewBox="0 0 50 50" fill="none" xmlns="http://www.w3.org/2000/svg">
<path d="M37.9324 32.5552H30.6682C33.0183 30.3464 34.2983 27.2619 34.1285 24.0485C34.1105 23.6884 34.0704 23.3197 34.0082 22.9461C37.6206 22.3111 41.5 21.0933 41.5 18.7776C41.5 15.5597 33.9059 14.4663 30.4182 14.1332C30.4849 13.8399 30.5831 13.5553 30.7214 13.2885L31.8275 11.1641C33.2679 10.8933 34.3646 9.62651 34.3646 8.11104C34.3646 6.39567 32.9643 5 31.2431 5H18.7566C17.0355 5 15.6351 6.39558 15.6351 8.11104C15.6351 8.86674 15.9117 9.56008 16.3619 10.1021C12.9507 10.6755 8.50021 11.8888 8.50021 14.3334C8.50021 17.0667 14.0343 18.2621 17.602 18.7511C17.593 18.769 17.5798 18.7866 17.5664 18.809C13.9944 19.2931 8.5 20.4844 8.5 23.2222C8.5 25.5954 12.5847 26.8177 16.2549 27.4356C16.7856 29.3912 17.8557 31.1555 19.3497 32.5556L12.0675 32.5552C10.3464 32.5552 8.94602 33.9508 8.94602 35.6663C8.94602 37.3816 10.3463 38.7773 12.0675 38.7773H21.8783V43.2219H19.2025C18.7119 43.2219 18.3105 43.6175 18.3105 44.111C18.3105 44.5999 18.7119 45 19.2025 45H29.9046C30.3997 45 30.7966 44.5999 30.7966 44.111C30.7966 43.6175 30.3997 43.2219 29.9046 43.2219H28.1209V38.7777H37.9316C39.6528 38.7777 41.0531 37.3821 41.0531 35.6666C41.0531 33.9509 39.6529 32.5552 37.9313 32.5552L37.9324 32.5552ZM15.8768 24.0489C15.8502 24.5509 15.8633 25.0579 15.9079 25.5644C11.7386 24.7732 10.285 23.6533 10.285 23.2222C10.285 22.7422 11.917 21.5378 16.5815 20.7556C16.1756 21.8131 15.9349 22.9286 15.8768 24.0489ZM39.7169 18.7776C39.7169 19.2266 38.1472 20.422 33.5808 21.2131C33.1528 19.9199 32.4837 18.7021 31.6141 17.6532L31.146 17.0932C30.8562 16.7465 30.6422 16.3509 30.5084 15.9288C36.9211 16.5553 39.7173 18.0843 39.7173 18.7776L39.7169 18.7776ZM18.7579 6.77749H31.2444C31.9847 6.77749 32.5821 7.37295 32.5821 8.1107C32.5821 8.844 31.9846 9.44392 31.2444 9.44392H18.7579C18.0222 9.44392 17.4202 8.84398 17.4202 8.1107C17.4202 7.37292 18.0222 6.77749 18.7579 6.77749ZM10.2852 14.333C10.2852 13.7062 12.6844 12.302 18.4056 11.6042L19.2796 13.2886C19.5382 13.7776 19.672 14.3241 19.672 14.8751C19.672 15.6752 19.3823 16.4615 18.8606 17.0929L18.8426 17.1108C12.332 16.3817 10.2852 14.8306 10.2852 14.333ZM18.214 27.7155C20.3276 27.9732 22.6466 28.1111 25.0012 28.1111C25.4963 28.1111 25.8932 27.711 25.8932 27.222C25.8932 26.7286 25.4963 26.333 25.0012 26.333C22.455 26.333 19.9577 26.1686 17.7369 25.8619C17.6522 25.2885 17.6256 24.711 17.6567 24.1376C17.7279 22.7285 18.1518 21.3243 18.8696 20.08V20.0755C19.0971 19.6844 19.3557 19.3198 19.6233 18.9776C21.3531 19.1379 23.1548 19.2223 25.0012 19.2223C25.4963 19.2223 25.8932 18.8222 25.8932 18.3332C25.8932 17.8398 25.4963 17.4442 25.0012 17.4442C23.5874 17.4442 22.1961 17.3908 20.8494 17.2929C21.2419 16.5462 21.4559 15.7195 21.4559 14.8753C21.4559 14.0441 21.2508 13.2129 20.8674 12.4707L20.2164 11.2222H29.7908L29.1397 12.471C28.7563 13.2133 28.5513 14.0444 28.5513 14.8756C28.5513 14.9022 28.5513 14.9335 28.5557 14.96C28.5647 15.551 28.6761 16.1379 28.8856 16.6933C29.0906 17.2488 29.3894 17.7644 29.7731 18.2268L30.2413 18.7868C30.9148 19.6 31.432 20.5021 31.793 21.4801C29.6926 21.7468 27.3646 21.8888 25.0014 21.8888C24.5108 21.8888 24.1094 22.2844 24.1094 22.7778C24.1094 23.2668 24.5108 23.6669 25.0014 23.6669C27.5254 23.6669 30.0093 23.5115 32.2435 23.2179C32.2971 23.529 32.3327 23.8402 32.3507 24.138C32.5111 27.2359 31.0666 30.1956 28.48 32.0578L27.7927 32.5554H22.2098L21.5232 32.0574C19.9891 30.9509 18.8474 29.4354 18.2143 27.7155L18.214 27.7155ZM26.3389 43.2222H23.6631V38.7779H26.3389V43.2222ZM37.9331 37.0002H12.0688C11.3331 37.0002 10.7311 36.4002 10.7311 35.667C10.7311 34.9292 11.3331 34.3337 12.0688 34.3337H37.9331C38.6734 34.3337 39.2708 34.9292 39.2708 35.667C39.2708 36.4003 38.673 37.0002 37.9328 37.0002H37.9331Z" fill="url(#paint0_linear_5436_13700)"/>
<defs>
<linearGradient id="paint0_linear_5436_13700" x1="35.4465" y1="33.6397" x2="35.4465" y2="41.6506" gradientUnits="userSpaceOnUse">
<stop stop-color="#ED3040"/>
<stop offset="1" stop-color="#2D23F4"/>
</linearGradient>
</defs>
</svg>
