<svg width="50" height="50" viewBox="0 0 50 50" fill="none" xmlns="http://www.w3.org/2000/svg">
<path d="M7.37375 36.0854H37.3547C37.5749 36.0854 37.7724 35.9527 37.8559 35.7497C37.9408 35.5468 37.8945 35.3131 37.7391 35.1566L7.75812 5.15881C7.60168 5.0037 7.3695 4.95695 7.16528 5.04194C6.96247 5.12552 6.82975 5.32313 6.82975 5.54339V35.5411C6.8301 35.8411 7.07397 36.0854 7.37375 36.0854ZM7.9174 33.5258H8.6826C8.98238 33.5258 9.22624 33.2818 9.22624 32.9819C9.22624 32.6819 8.98238 32.4379 8.6826 32.4379H7.9174V30.6694H8.34035C8.64013 30.6694 8.88399 30.4254 8.88399 30.1254C8.88399 29.8255 8.64013 29.5815 8.34035 29.5815H7.9174V27.8116H8.6826C8.98238 27.8116 9.22624 27.5676 9.22624 27.2676C9.22624 26.9677 8.98238 26.7237 8.6826 26.7237H7.9174V24.9551H8.34035C8.64013 24.9551 8.88399 24.7111 8.88399 24.4112C8.88399 24.1112 8.64013 23.8672 8.34035 23.8672H7.9174V22.0987H8.6826C8.98238 22.0987 9.22624 21.8547 9.22624 21.5547C9.22624 21.2548 8.98238 21.0108 8.6826 21.0108H7.9174V19.2422H8.34035C8.64013 19.2422 8.88399 18.9982 8.88399 18.6983C8.88399 18.3983 8.64013 18.1543 8.34035 18.1543H7.9174V16.3844H8.6826C8.98238 16.3844 9.22624 16.1404 9.22624 15.8405C9.22624 15.5405 8.98238 15.2965 8.6826 15.2965H7.9174V13.528H8.34035C8.64013 13.528 8.88399 13.284 8.88399 12.984C8.88399 12.6841 8.64013 12.4401 8.34035 12.4401H7.9174V10.6702H8.6826C8.98238 10.6702 9.22624 10.4262 9.22624 10.1262C9.22624 9.82628 8.98238 9.58228 8.6826 9.58228H7.9174V6.85548L36.0436 34.9975H33.1661V34.2917C33.1661 33.9917 32.9223 33.7477 32.6225 33.7477C32.3227 33.7477 32.0789 33.9917 32.0789 34.2917V34.9975H30.3113V34.6338C30.3113 34.3338 30.0674 34.0898 29.7677 34.0898C29.4679 34.0898 29.224 34.3338 29.224 34.6338V34.9975H27.4551V34.2917C27.4551 33.9917 27.2112 33.7477 26.9114 33.7477C26.6117 33.7477 26.3678 33.9917 26.3678 34.2917V34.9975H24.6002V34.6338C24.6002 34.3338 24.3564 34.0898 24.0566 34.0898C23.7568 34.0898 23.513 34.3338 23.513 34.6338V34.9975H21.7454V34.2917C21.7454 33.9917 21.5015 33.7477 21.2017 33.7477C20.902 33.7477 20.6581 33.9917 20.6581 34.2917V34.9975H18.8905V34.6338C18.8905 34.3338 18.6467 34.0898 18.3469 34.0898C18.0471 34.0898 17.8033 34.3338 17.8033 34.6338V34.9975H16.0343V34.2917C16.0343 33.9917 15.7905 33.7477 15.4907 33.7477C15.1909 33.7477 14.9471 33.9917 14.9471 34.2917V34.9975H13.1795V34.6338C13.1795 34.3338 12.9356 34.0898 12.6358 34.0898C12.3361 34.0898 12.0922 34.3338 12.0922 34.6338V34.9975H10.3229V34.2917C10.3229 33.9917 10.0791 33.7477 9.77928 33.7477C9.4795 33.7477 9.23564 33.9917 9.23564 34.2917V34.9975H7.91758L7.9174 33.5258Z" fill="url(#paint0_linear_5436_13694)"/>
<path d="M12.4931 30.6949H24.7431C24.9633 30.6949 25.1622 30.5611 25.2457 30.3567C25.3292 30.1524 25.2815 29.9176 25.1236 29.7636L12.8735 17.7333C12.7171 17.5792 12.4877 17.5357 12.2821 17.6193C12.0804 17.7042 11.9494 17.9018 11.9494 18.1207V30.151C11.9494 30.4509 12.1933 30.6949 12.4931 30.6949ZM13.0367 19.4162L23.4148 29.607H13.0367V19.4162Z" fill="url(#paint1_linear_5436_13694)"/>
<path d="M43.9564 37.6946H6.04364C5.74386 37.6946 5.5 37.9386 5.5 38.2386V44.4561C5.5 44.756 5.74386 45 6.04364 45H43.9564C44.2561 45 44.5 44.756 44.5 44.4561V38.2386C44.5 37.939 44.2558 37.6946 43.956 37.6946H43.9564ZM43.4127 43.9121H41.974V43.1068C41.974 42.8069 41.7301 42.5629 41.4303 42.5629C41.1305 42.5629 40.8867 42.8069 40.8867 43.1068V43.9121H37.8528V43.3947C37.8528 43.0948 37.6089 42.8508 37.3091 42.8508C37.0094 42.8508 36.7655 43.0948 36.7655 43.3947V43.9121H33.7326V43.1068C33.7326 42.8069 33.4888 42.5629 33.189 42.5629C32.8892 42.5629 32.6453 42.8069 32.6453 43.1068V43.9121H29.6114V43.3947C29.6114 43.0948 29.3676 42.8508 29.0678 42.8508C28.768 42.8508 28.5242 43.0948 28.5242 43.3947V43.9121H25.4913V43.1068C25.4913 42.8069 25.2474 42.5629 24.9476 42.5629C24.6478 42.5629 24.404 42.8069 24.404 43.1068V43.9121H21.3711V43.3947C21.3711 43.0948 21.1272 42.8508 20.8275 42.8508C20.5277 42.8508 20.2838 43.0948 20.2838 43.3947V43.9121H17.2499V43.1068C17.2499 42.8069 17.0061 42.5629 16.7063 42.5629C16.4065 42.5629 16.1626 42.8069 16.1626 43.1068V43.9121H13.1297V43.3947C13.1297 43.0948 12.8859 42.8508 12.5861 42.8508C12.2863 42.8508 12.0425 43.0948 12.0425 43.3947V43.9121H9.00858V43.1068C9.00858 42.8069 8.76472 42.5629 8.46494 42.5629C8.16515 42.5629 7.92129 42.8069 7.92129 43.1068V43.9121H6.58765V38.7825H7.9202V39.5878C7.9202 39.8878 8.16406 40.1318 8.46385 40.1318C8.76363 40.1318 9.00749 39.8878 9.00749 39.5878V38.7825H12.0414V39.2999C12.0414 39.5998 12.2852 39.8438 12.585 39.8438C12.8848 39.8438 13.1287 39.5998 13.1287 39.2999V38.7825H16.1616V39.5878C16.1616 39.8878 16.4054 40.1318 16.7052 40.1318C17.005 40.1318 17.2488 39.8878 17.2488 39.5878V38.7825H20.2827V39.2999C20.2827 39.5998 20.5266 39.8438 20.8264 39.8438C21.1261 39.8438 21.37 39.5998 21.37 39.2999V38.7825H24.4029V39.5878C24.4029 39.8878 24.6468 40.1318 24.9465 40.1318C25.2463 40.1318 25.4902 39.8878 25.4902 39.5878V38.7825H28.5231V39.2999C28.5231 39.5998 28.7669 39.8438 29.0667 39.8438C29.3665 39.8438 29.6104 39.5998 29.6104 39.2999V38.7825H32.6442V39.5878C32.6442 39.8878 32.8881 40.1318 33.1879 40.1318C33.4877 40.1318 33.7315 39.8878 33.7315 39.5878V38.7825H36.7644V39.2999C36.7644 39.5998 37.0083 39.8438 37.3081 39.8438C37.6078 39.8438 37.8517 39.5998 37.8517 39.2999V38.7825H40.8856V39.5878C40.8856 39.8878 41.1294 40.1318 41.4292 40.1318C41.729 40.1318 41.9729 39.8878 41.9729 39.5878V38.7825H43.4116L43.4123 43.9121H43.4127Z" fill="url(#paint2_linear_5436_13694)"/>
<defs>
<linearGradient id="paint0_linear_5436_13694" x1="37.3459" y1="33.6397" x2="37.3459" y2="41.6506" gradientUnits="userSpaceOnUse">
<stop stop-color="#ED3040"/>
<stop offset="1" stop-color="#2D23F4"/>
</linearGradient>
<linearGradient id="paint1_linear_5436_13694" x1="37.3459" y1="33.6397" x2="37.3459" y2="41.6506" gradientUnits="userSpaceOnUse">
<stop stop-color="#ED3040"/>
<stop offset="1" stop-color="#2D23F4"/>
</linearGradient>
<linearGradient id="paint2_linear_5436_13694" x1="37.3459" y1="33.6397" x2="37.3459" y2="41.6506" gradientUnits="userSpaceOnUse">
<stop stop-color="#ED3040"/>
<stop offset="1" stop-color="#2D23F4"/>
</linearGradient>
</defs>
</svg>
