<svg width="50" height="50" viewBox="0 0 50 50" fill="none" xmlns="http://www.w3.org/2000/svg">
<path d="M15.7499 16.3336V9.66672C15.7499 9.46161 15.6561 9.26776 15.4958 9.14139C15.3355 9.01502 15.1263 8.97036 14.9289 9.01998L9.64319 10.3531V10.3535C9.3491 10.4276 9.14289 10.6942 9.14289 11.0002V15.7815C8.61044 15.5916 8.02291 15.6399 7.52788 15.9141C7.03315 16.1884 6.67741 16.6628 6.5505 17.2179C6.42395 17.7733 6.53772 18.3565 6.86394 18.822C7.18982 19.2871 7.69702 19.5898 8.25828 19.6543C8.81925 19.7185 9.38086 19.5385 9.8022 19.1588C10.2235 18.7793 10.4645 18.2364 10.4641 17.6668V11.5206L14.4282 10.5205V14.448H14.4285C13.8961 14.2581 13.3086 14.3064 12.8135 14.5806C12.3188 14.8549 11.9631 15.3292 11.8362 15.8846C11.7093 16.4398 11.8234 17.0233 12.1496 17.4885C12.4755 17.9539 12.9827 18.2566 13.5439 18.3208C14.1049 18.3853 14.6665 18.205 15.0878 17.8256C15.5091 17.4461 15.7501 16.9032 15.7498 16.3336L15.7499 16.3336ZM8.48227 18.3334C8.21507 18.3334 7.97409 18.171 7.87181 17.9219C7.76951 17.6728 7.82591 17.3859 8.01508 17.1954C8.20392 17.0048 8.48817 16.9476 8.73505 17.0508C8.98192 17.1541 9.1429 17.3972 9.1429 17.6668C9.14257 18.0347 8.84685 18.3331 8.48227 18.3334ZM13.107 16.3336C13.107 16.0637 13.2679 15.8209 13.5148 15.7177C13.7617 15.6145 14.0459 15.6714 14.2351 15.8622C14.424 16.0528 14.4804 16.3396 14.3781 16.5887C14.2758 16.8378 14.0351 17.0002 13.7679 17.0002C13.403 16.9999 13.1076 16.7015 13.107 16.3336Z" fill="url(#paint0_linear_5436_13728)"/>
<path d="M38.2141 27.0002V20.8543L42.9991 19.6472H42.9995C43.3536 19.5578 43.5686 19.1959 43.4801 18.8387C43.3916 18.4814 43.0329 18.2644 42.6788 18.3537L37.3931 19.6868C37.099 19.7609 36.8928 20.0276 36.8928 20.3336V25.1148C36.3603 24.9249 35.7728 24.9732 35.2778 25.2475C34.783 25.5217 34.4273 25.9961 34.3004 26.5513C34.1738 27.1067 34.2876 27.6902 34.6138 28.1554C34.9397 28.6205 35.4469 28.9235 36.0082 28.9877C36.5691 29.0522 37.1308 28.8719 37.5521 28.4924C37.9734 28.113 38.2144 27.5701 38.2141 27.0002ZM35.5712 27.0002C35.5712 26.7305 35.7322 26.4874 35.9791 26.3842C36.2263 26.2813 36.5102 26.3382 36.6994 26.5287C36.8882 26.7196 36.9446 27.0061 36.8426 27.2555C36.7404 27.5046 36.4994 27.6671 36.2322 27.6671C35.8673 27.6664 35.5719 27.3684 35.5712 27.0002Z" fill="url(#paint1_linear_5436_13728)"/>
<path d="M11.7858 31.6673C11.4209 31.6673 11.1252 31.9657 11.1252 32.3339V37.1155C10.5927 36.9253 10.0052 36.9736 9.51017 37.2478C9.01511 37.5221 8.65969 37.9965 8.53279 38.5519C8.40591 39.107 8.52 39.6905 8.84589 40.1557C9.17211 40.6212 9.6793 40.9239 10.2406 40.9884C10.8015 41.0525 11.3632 40.8722 11.7845 40.4928C12.2058 40.1134 12.4464 39.5705 12.4464 39.0008V32.3339C12.4464 32.1573 12.3769 31.9876 12.253 31.8625C12.1291 31.7375 11.9609 31.6673 11.7858 31.6673ZM10.4642 39.6674C10.197 39.6674 9.95604 39.505 9.85408 39.2559C9.75179 39.0068 9.80818 38.72 9.99703 38.5294C10.1862 38.3385 10.4704 38.2816 10.7173 38.3849C10.9642 38.4881 11.1252 38.7312 11.1252 39.0008C11.1245 39.3687 10.8291 39.6671 10.4642 39.6674Z" fill="url(#paint2_linear_5436_13728)"/>
<path d="M32.4925 28.4551C33.2003 26.8066 33.0377 24.9091 32.0607 23.4075C31.0836 21.9056 29.4227 21.0008 27.6425 21.0001H26.9818L26.9815 13.0001C27.232 13.0001 27.4605 12.8575 27.5726 12.6315L28.2333 11.2984C28.2792 11.2057 28.3031 11.1038 28.3031 11.0003V10.3334H30.2853C30.6502 10.3334 30.9459 10.035 30.9459 9.66679C30.9459 9.29859 30.6502 9.0002 30.2853 9.0002H28.3031V7.66669H30.2853C30.6502 7.66669 30.9459 7.3683 30.9459 7.0001C30.9459 6.6319 30.6502 6.33351 30.2853 6.33351H28.3031V5.66692C28.3031 5.48994 28.2333 5.32056 28.1097 5.19551C27.9857 5.07046 27.8175 5 27.6425 5H22.3567C21.9918 5 21.6958 5.29872 21.6958 5.66692V6.33351H19.7139C19.349 6.33351 19.0529 6.6319 19.0529 7.0001C19.0529 7.3683 19.349 7.66669 19.7139 7.66669H21.6961L21.6958 9.0002H19.7139C19.349 9.0002 19.053 9.29859 19.053 9.66679C19.053 10.035 19.349 10.3334 19.7139 10.3334H21.6961V11L21.6958 11.0003C21.6958 11.1039 21.7197 11.2057 21.7656 11.2984L22.4262 12.6315H22.4266C22.5384 12.8575 22.7672 13.0001 23.0174 13.0001V21.0001H22.3567C20.5761 21.0008 18.9156 21.9056 17.9382 23.4075C16.9611 24.909 16.7989 26.8066 17.5064 28.4551C15.84 30.3977 14.9783 32.9128 15.1003 35.4792C15.2222 38.0454 16.3183 40.466 18.1615 42.2384C20.0047 44.0113 22.4531 45 24.9996 45C27.5457 45 29.9945 44.0112 31.8374 42.2384C33.6806 40.4659 34.7767 38.0453 34.8986 35.4792C35.0209 32.9128 34.1593 30.3976 32.4925 28.4551ZM27.6425 38.3332V39.6663L22.3568 39.6667V38.3332L27.6425 38.3332ZM24.3391 37L24.3387 35.6099C24.7761 35.6853 25.2229 35.6853 25.6603 35.6099V37H24.3391ZM24.9997 34.3333C24.2987 34.3333 23.6263 34.0525 23.1309 33.5523C22.6352 33.0521 22.3568 32.3739 22.3568 31.6666C22.3568 30.9593 22.6351 30.2812 23.1309 29.7809C23.6263 29.2807 24.2987 28.9999 24.9997 28.9999C25.7007 28.9999 26.3727 29.2807 26.8685 29.7809C27.3639 30.2811 27.6426 30.9593 27.6426 31.6666C27.6416 32.3736 27.3629 33.0514 26.8675 33.5513C26.3721 34.0514 25.7003 34.3327 24.9997 34.3333ZM24.3391 15.6663H25.6603V16.9995L24.3387 16.9998L24.3391 15.6663ZM24.3391 18.333H25.6603V19.6661L24.3387 19.6665L24.3391 18.333ZM25.6603 20.9996V22.3328L24.3387 22.3331V20.9996L25.6603 20.9996ZM25.6603 24.9995L24.3387 24.9998V23.6663H25.66L25.6603 24.9995ZM24.9997 27.6665C24.778 27.6665 24.5571 27.6857 24.3387 27.723V26.333H25.66V27.723H25.6603C25.4419 27.6857 25.221 27.6665 24.9997 27.6665ZM23.0175 6.33313H26.9815V10.8425L26.5734 11.6665H23.4256L23.0174 10.8425L23.0175 6.33313ZM25.6603 12.9997V14.3329L24.3387 14.3332V12.9997L25.6603 12.9997ZM24.9997 43.6662C22.7466 43.6662 20.5838 42.773 18.9773 41.1792C17.3711 39.5854 16.4495 37.4182 16.4118 35.1455C16.3738 32.8724 17.2226 30.6755 18.775 29.0278C18.973 28.818 19.0137 28.5028 18.876 28.2487C18.2065 27.0091 18.234 25.5052 18.9481 24.2915C19.6625 23.0774 20.9575 22.3334 22.3568 22.333H23.0174V28.2047V28.2043C22.2102 28.6741 21.5932 29.4155 21.2742 30.2987C20.9555 31.182 20.9555 32.1506 21.2742 33.0339C21.5932 33.9172 22.2102 34.6585 23.0174 35.1282V36.9996H21.6958C21.3309 36.9996 21.0352 37.298 21.0352 37.6662V40.3329C21.0352 40.5099 21.105 40.6793 21.2286 40.8043C21.3526 40.9294 21.5208 40.9995 21.6958 40.9995H28.3032C28.4782 40.9995 28.6464 40.9294 28.7703 40.8043C28.8943 40.6793 28.9638 40.5099 28.9638 40.3329V37.6662C28.9638 37.4896 28.8943 37.3199 28.7703 37.1948C28.6464 37.0698 28.4782 36.9996 28.3032 36.9996H26.9816V35.1282C27.7888 34.6584 28.4058 33.9171 28.7248 33.0339C29.0435 32.1506 29.0435 31.182 28.7248 30.2987C28.4058 29.4154 27.7888 28.674 26.9816 28.2043V22.3331H27.6425C29.0415 22.3334 30.3369 23.0774 31.0509 24.2915C31.7653 25.5052 31.7925 27.0091 31.123 28.2487C30.9853 28.5028 31.026 28.818 31.224 29.0278C32.7764 30.6756 33.6252 32.8725 33.5872 35.1455C33.5495 37.4182 32.6278 39.5854 31.0217 41.1792C29.4152 42.773 27.2524 43.6662 24.9997 43.6662Z" fill="url(#paint3_linear_5436_13728)"/>
<defs>
<linearGradient id="paint0_linear_5436_13728" x1="36.7128" y1="33.6397" x2="36.7128" y2="41.6506" gradientUnits="userSpaceOnUse">
<stop stop-color="#ED3040"/>
<stop offset="1" stop-color="#2D23F4"/>
</linearGradient>
<linearGradient id="paint1_linear_5436_13728" x1="36.7128" y1="33.6397" x2="36.7128" y2="41.6506" gradientUnits="userSpaceOnUse">
<stop stop-color="#ED3040"/>
<stop offset="1" stop-color="#2D23F4"/>
</linearGradient>
<linearGradient id="paint2_linear_5436_13728" x1="36.7128" y1="33.6397" x2="36.7128" y2="41.6506" gradientUnits="userSpaceOnUse">
<stop stop-color="#ED3040"/>
<stop offset="1" stop-color="#2D23F4"/>
</linearGradient>
<linearGradient id="paint3_linear_5436_13728" x1="36.7128" y1="33.6397" x2="36.7128" y2="41.6506" gradientUnits="userSpaceOnUse">
<stop stop-color="#ED3040"/>
<stop offset="1" stop-color="#2D23F4"/>
</linearGradient>
</defs>
</svg>
