<svg width="50" height="50" viewBox="0 0 50 50" fill="none" xmlns="http://www.w3.org/2000/svg">
<path d="M43.714 7.77212C42.9442 7.01553 41.9209 6.56507 40.8382 6.50645C39.7559 6.44822 38.689 6.78579 37.841 7.45505L18.5337 24.1849V24.2325C16.5167 24.3788 14.6355 25.294 13.2852 26.7856C12.5367 27.7822 12.1527 29.0015 12.1969 30.2427C12.1544 31.106 12.0313 31.9633 11.8288 32.8037C11.0287 35.7612 8.87635 38.4488 5.35572 40.7799C5.09288 40.9538 4.95827 41.2646 5.01148 41.5731C5.04761 41.8694 5.24852 42.1208 5.53161 42.2231C7.78048 43.0509 10.158 43.4829 12.5569 43.4998C14.8193 43.5104 17.0602 43.0623 19.1419 42.1834C21.6274 41.2714 23.7453 39.5819 25.175 37.3708C25.9417 36.0685 26.4828 34.6482 26.7751 33.1684L44.0586 13.56C44.7236 12.72 45.0555 11.6675 44.9924 10.6013C44.9289 9.53542 44.4743 8.52901 43.7143 7.77199L43.714 7.77212ZM25.0472 26.2777C23.9172 25.1749 22.4521 24.4725 20.8782 24.2794L36.2009 11.0063L40.4735 15.2323L26.9437 30.5268C26.8584 28.9279 26.1834 27.4154 25.0475 26.2773L25.0472 26.2777ZM23.791 36.521C22.5343 38.4442 20.6765 39.9062 18.5019 40.6837C15.0163 42.0804 11.153 42.2511 7.55591 41.1676C10.6446 38.7889 12.5968 36.1489 13.3651 33.1992C13.6021 32.2644 13.7414 31.308 13.7812 30.3448C13.724 29.434 13.9809 28.531 14.5093 27.7838C15.7108 26.5271 17.3712 25.8012 19.1183 25.7698C20.872 25.6077 22.6139 26.1833 23.9189 27.3554C26.5994 30.0434 24.9993 34.4913 23.7911 36.521L23.791 36.521ZM42.8258 12.5443L41.5136 14.0429L37.393 9.95979L38.8652 8.67519V8.67479C39.5763 8.03663 40.5678 7.80371 41.4925 8.05748C42.4172 8.31125 43.1466 9.0163 43.425 9.92637C43.7037 10.8364 43.4925 11.8244 42.8659 12.5443L42.8258 12.5443Z" fill="url(#paint0_linear_5436_13712)"/>
<defs>
<linearGradient id="paint0_linear_5436_13712" x1="37.6624" y1="32.9917" x2="37.6624" y2="40.4018" gradientUnits="userSpaceOnUse">
<stop stop-color="#ED3040"/>
<stop offset="1" stop-color="#2D23F4"/>
</linearGradient>
</defs>
</svg>
