<svg width="50" height="50" viewBox="0 0 50 50" fill="none" xmlns="http://www.w3.org/2000/svg">
<path d="M21.8756 41.2497H28.1255C28.471 41.2497 28.7508 40.9699 28.7508 40.6248C28.7508 40.2797 28.471 39.9999 28.1255 39.9999H21.8756C21.5305 39.9999 21.2507 40.2797 21.2507 40.6248C21.2507 40.9699 21.5305 41.2497 21.8756 41.2497Z" fill="url(#paint0_linear_5436_13736)"/>
<path d="M41.8759 5H8.12511C7.29642 5 6.50131 5.32942 5.91539 5.91537C5.32948 6.50133 5 7.29637 5 8.12504V33.125C5 33.9537 5.32943 34.7485 5.91539 35.3347C6.50133 35.9206 7.29642 36.2501 8.12511 36.2501H19.1L17.6937 40.0001H17.5002C16.6069 40.0001 15.7814 40.4766 15.3349 41.25C14.8884 42.0237 14.8884 42.9764 15.3349 43.7501C15.7814 44.5234 16.6069 45 17.5002 45H32.5002C33.3931 45 34.2186 44.5235 34.6651 43.7501C35.1116 42.9764 35.1116 42.0236 34.6651 41.25C34.2186 40.4767 33.3931 40.0001 32.5002 40.0001H32.3063L30.9 36.2501H41.8749C42.7039 36.2501 43.4987 35.9207 44.0846 35.3347C44.6709 34.7485 45 33.9537 45 33.125V8.12504C45 7.29637 44.6709 6.50128 44.0846 5.91537C43.4987 5.32945 42.7039 5 41.8749 5H41.8759ZM8.12511 6.25025H41.8759C42.3733 6.25025 42.8501 6.44758 43.2019 6.79939C43.5534 7.15088 43.7511 7.62773 43.7511 8.12504V31.2501H6.25027V8.12504C6.25027 7.62771 6.44761 7.15088 6.79943 6.79939C7.15093 6.44758 7.62778 6.25025 8.12511 6.25025ZM31.2883 40.8437C31.3798 41.0886 31.6142 41.2508 31.8755 41.2498H32.5008C32.9473 41.2498 33.3599 41.4881 33.5831 41.8748C33.8067 42.2614 33.8067 42.738 33.5831 43.125C33.3599 43.5117 32.9473 43.75 32.5008 43.75H17.5008C17.054 43.75 16.6414 43.5117 16.4181 43.125C16.1949 42.738 16.1949 42.2615 16.4181 41.8748C16.6414 41.4881 17.054 41.2498 17.5008 41.2498H18.1258C18.3874 41.2508 18.6215 41.0886 18.7133 40.8437L20.4321 36.25H29.5696L31.2883 40.8437ZM41.8759 34.9998H8.12511C7.62777 34.9998 7.15093 34.8024 6.79943 34.4506C6.44761 34.0991 6.25027 33.6223 6.25027 33.125V32.5H43.7511V33.125C43.7511 33.6223 43.5534 34.0991 43.2019 34.4506C42.8501 34.8024 42.3732 34.9998 41.8759 34.9998Z" fill="url(#paint1_linear_5436_13736)"/>
<path d="M20.6254 14.9995C21.2887 14.9995 21.9245 15.2627 22.3934 15.7316C22.8623 16.2005 23.1255 16.8363 23.1255 17.4996V18.7495H21.8756C21.5305 18.7495 21.2506 19.0294 21.2506 19.3745C21.2506 19.7196 21.5305 19.9994 21.8756 19.9994H23.1255V29.3742C23.1255 29.5399 23.1914 29.6988 23.3085 29.8162C23.4259 29.9333 23.5848 29.9992 23.7505 29.9992H26.2506C26.4163 29.9992 26.5753 29.9333 26.6926 29.8162C26.8097 29.6988 26.8756 29.5399 26.8756 29.3742V19.9994H28.1255C28.471 19.9994 28.7508 19.7196 28.7508 19.3745C28.7508 19.0294 28.471 18.7495 28.1255 18.7495H26.8756V17.4996C26.8756 16.8363 27.1391 16.2005 27.608 15.7316C28.0766 15.2627 28.7127 14.9995 29.3758 14.9995C29.6096 14.9998 29.8245 14.8697 29.9319 14.6621C30.0305 14.4609 30.0138 14.2223 29.8881 14.0368L25.5131 7.78675V7.78707C25.3963 7.61947 25.2048 7.51969 25.0007 7.51969C24.7963 7.51969 24.6051 7.61948 24.488 7.78707L20.113 14.0371V14.0368C19.9876 14.2223 19.9706 14.4609 20.0691 14.6621C20.1769 14.8697 20.3916 14.9998 20.6254 14.9995ZM25.6253 28.7498H24.3754V19.9997H25.6253V28.7498ZM24.3754 10.1058V12.4993C24.3754 12.8444 24.6552 13.1243 25.0007 13.1243C25.3457 13.1243 25.6256 12.8444 25.6256 12.4993V10.1058L28.2883 13.912C27.5181 14.1452 26.8439 14.6198 26.3641 15.2659C25.8847 15.9119 25.626 16.6948 25.6256 17.4995V18.7494H24.3754V17.4995C24.3754 16.6948 24.1163 15.9119 23.6369 15.2659C23.1574 14.6198 22.4829 14.1451 21.7131 13.912L24.3754 10.1058Z" fill="url(#paint2_linear_5436_13736)"/>
<path d="M33.1256 30H36.8757C37.0414 30 37.2004 29.9341 37.3177 29.8171C37.4348 29.6997 37.5007 29.5407 37.5007 29.3751V11.8749C37.5 11.777 37.4767 11.6808 37.4319 11.5938L35.5568 7.84377H35.5571C35.4467 7.62756 35.2216 7.49483 34.9795 7.50283C34.737 7.51082 34.5211 7.65826 34.4258 7.88118L32.5507 12.2561C32.5177 12.3332 32.5008 12.4161 32.5008 12.4999V29.3753C32.5008 29.541 32.5667 29.6999 32.6837 29.8173C32.8011 29.9344 32.96 30.0002 33.1257 30.0002L33.1256 30ZM33.7506 28.7501V26.25H36.2507V28.7501H33.7506ZM35.0444 9.6124L36.2507 12.0249V24.9998H33.7506V12.6308L35.0444 9.6124Z" fill="url(#paint3_linear_5436_13736)"/>
<path d="M10.6257 30H16.8755C17.0415 30 17.2005 29.9341 17.3175 29.8171C17.4349 29.6997 17.5008 29.5407 17.5008 29.3751V8.12498C17.5008 7.95931 17.4349 7.80035 17.3175 7.68298C17.2005 7.56592 17.0415 7.50003 16.8755 7.50003H10.6257C10.2802 7.50003 10.0007 7.77989 10.0007 8.12498V29.3751C10.0007 29.5407 10.0663 29.6997 10.1836 29.8171C10.3007 29.9341 10.4597 30 10.6257 30ZM11.2506 8.74992H16.2506V28.7498H11.2506V24.9998H12.5006C12.8457 24.9998 13.1255 24.7199 13.1255 24.3745C13.1255 24.0294 12.8457 23.7495 12.5006 23.7495H11.2506V19.3746H14.3757C14.7208 19.3746 15.0007 19.0947 15.0007 18.7496C15.0007 18.4046 14.7208 18.1247 14.3757 18.1247H11.2506V13.7497H12.5006C12.8457 13.7497 13.1255 13.4699 13.1255 13.1245C13.1255 12.7794 12.8457 12.4995 12.5006 12.4995H11.2506V8.74992Z" fill="url(#paint4_linear_5436_13736)"/>
<defs>
<linearGradient id="paint0_linear_5436_13736" x1="0" y1="0" x2="0" y2="1" gradientUnits="objectBoundingBox">
<stop stop-color="#ED3040"/>
<stop offset="1" stop-color="#2D23F4"/>
</linearGradient>
<linearGradient id="paint1_linear_5436_13736" x1="0" y1="0" x2="0" y2="1" gradientUnits="objectBoundingBox">
<stop stop-color="#ED3040"/>
<stop offset="1" stop-color="#2D23F4"/>
</linearGradient>
<linearGradient id="paint2_linear_5436_13736" x1="0" y1="0" x2="0" y2="1" gradientUnits="objectBoundingBox">
<stop stop-color="#ED3040"/>
<stop offset="1" stop-color="#2D23F4"/>
</linearGradient>
<linearGradient id="paint3_linear_5436_13736" x1="0" y1="0" x2="0" y2="1" gradientUnits="objectBoundingBox">
<stop stop-color="#ED3040"/>
<stop offset="1" stop-color="#2D23F4"/>
</linearGradient>
<linearGradient id="paint4_linear_5436_13736" x1="0" y1="0" x2="0" y2="1" gradientUnits="objectBoundingBox">
<stop stop-color="#ED3040"/>
<stop offset="1" stop-color="#2D23F4"/>
</linearGradient>
</defs>
</svg>
