<svg width="50" height="50" viewBox="0 0 50 50" fill="none" xmlns="http://www.w3.org/2000/svg">
<path d="M43.126 5.00035H6.87511C5.84137 5.00035 5 5.84177 5 6.8754V35C5 36.0337 5.84145 36.875 6.87511 36.875H20.625V41.25H18.125C17.888 41.25 17.6719 41.3837 17.5655 41.5955L16.3156 44.0955C16.2188 44.2893 16.2288 44.5191 16.3432 44.7037C16.4573 44.887 16.658 44.9995 16.8751 44.9995H33.1252C33.1302 45.0002 33.1351 45.0002 33.137 44.9995C33.4825 44.9995 33.7619 44.7195 33.7619 44.3746C33.7619 44.2316 33.7145 44.1002 33.6338 43.9947L32.4339 41.5955C32.3282 41.3834 32.112 41.2497 31.875 41.2497H29.375V36.8747H43.1249C44.1586 36.8747 45 36.0333 45 34.9996V6.87505C45 5.84134 44.1589 5 43.1252 5L43.126 5.00035ZM6.87511 6.25017H43.126C43.4709 6.25017 43.7509 6.53085 43.7509 6.87509V31.8747H6.25034V6.87509C6.25034 6.53054 6.5304 6.24986 6.87559 6.24986L6.87511 6.25017ZM32.1145 43.7496H17.8866L18.5116 42.4998H31.4889L32.1145 43.7496ZM28.1258 41.2496H21.8754V36.8746H28.1254L28.1258 41.2496ZM43.1261 35.6247H6.87527C6.53039 35.6247 6.25033 35.3441 6.25033 34.9998V33.1248H43.7509V34.9998C43.7509 35.3441 43.4709 35.6247 43.126 35.6247H43.1261Z" fill="url(#paint0_linear_5436_13730)"/>
<path d="M15.0006 28.7503H18.7505C21.1624 28.7503 23.1256 26.7878 23.1256 24.3753C23.1256 24.1129 23.098 23.8571 23.0536 23.6071L25.0007 21.6603L26.6432 23.3029L30.7626 28.5152C30.8739 28.6539 31.0389 28.7388 31.2157 28.7491C31.2275 28.7503 31.239 28.7503 31.2507 28.7503C31.4164 28.7503 31.5751 28.6846 31.6927 28.5673L35.4426 24.8176C35.5682 24.692 35.6352 24.5183 35.6243 24.3412C35.6144 24.1638 35.5301 23.9988 35.3911 23.8875L30.1767 19.7671L28.5357 18.1255L32.3933 14.2687C32.8656 13.7954 33.1258 13.1681 33.1258 12.5006C33.1258 11.8331 32.8659 11.2049 32.3933 10.7331C31.9212 10.2611 31.2932 10.0006 30.6257 10.0006C29.9582 10.0006 29.33 10.2611 28.8582 10.7331L25.0006 14.5906L21.1431 10.7331C20.1993 9.78818 18.5518 9.78818 17.6081 10.7331C17.1355 11.2048 16.8755 11.8331 16.8755 12.5006C16.8755 13.1681 17.1354 13.7957 17.6081 14.2687L21.4654 18.1255L19.5185 20.0723C19.268 20.0279 19.013 20.0006 18.7503 20.0006C16.3383 20.0006 14.3752 21.9632 14.3752 24.3756V28.1254C14.3755 28.4703 14.6546 28.7503 15.0004 28.7503L15.0006 28.7503ZM31.3023 27.1897L29.5878 25.0467L31.9216 22.7129L34.0647 24.4274L31.3023 27.1897ZM28.8096 24.0574L27.9434 22.9412L29.816 21.0686L30.9323 21.9342L28.8096 24.0574ZM29.7416 11.6163C30.2142 11.1437 31.0367 11.1437 31.5091 11.6163C31.7454 11.8527 31.8754 12.1665 31.8754 12.5002C31.8754 12.834 31.7454 13.1478 31.5091 13.3848L27.6515 17.2416L25.884 15.4741L29.7416 11.6163ZM18.125 12.5002C18.125 12.1665 18.255 11.8527 18.4913 11.6163C18.7277 11.3803 19.0412 11.2501 19.3749 11.2501C19.7086 11.2501 20.0225 11.38 20.2589 11.6163L28.8797 20.237L27.1122 22.0044L18.4913 13.3846C18.255 13.148 18.125 12.8341 18.125 12.5004V12.5002ZM22.3489 19.009L24.1164 20.7764L22.5976 22.2952C22.1926 21.5484 21.5763 20.9328 20.8301 20.5271L22.3489 19.009ZM15.6249 24.3749C15.6249 22.6518 17.0268 21.25 18.7499 21.25C20.473 21.25 21.8749 22.6518 21.8749 24.3749C21.8749 26.098 20.473 27.4998 18.7499 27.4998H15.6249V24.3749Z" fill="url(#paint1_linear_5436_13730)"/>
<defs>
<linearGradient id="paint0_linear_5436_13730" x1="37.6624" y1="33.6397" x2="37.6624" y2="41.6506" gradientUnits="userSpaceOnUse">
<stop stop-color="#ED3040"/>
<stop offset="1" stop-color="#2D23F4"/>
</linearGradient>
<linearGradient id="paint1_linear_5436_13730" x1="37.6624" y1="33.6397" x2="37.6624" y2="41.6506" gradientUnits="userSpaceOnUse">
<stop stop-color="#ED3040"/>
<stop offset="1" stop-color="#2D23F4"/>
</linearGradient>
</defs>
</svg>
