<svg width="81" height="76" viewBox="0 0 81 76" fill="none" xmlns="http://www.w3.org/2000/svg">
<mask id="mask0_863_5470" style="mask-type:alpha" maskUnits="userSpaceOnUse" x="0" y="0" width="81" height="76">
<rect width="81" height="76" rx="16" fill="white"/>
<rect x="0.33225" y="0.33225" width="80.3355" height="75.3355" rx="15.6678" stroke="white" stroke-opacity="0.2" stroke-width="0.6645"/>
</mask>
<g mask="url(#mask0_863_5470)">
<path d="M-0.247559 -0.201172H80.8139V80.8603H-0.247559V-0.201172Z" fill="#000066"/>
<path fill-rule="evenodd" clip-rule="evenodd" d="M8.44575 58.1577L14.8737 60.5959L16.9952 54.0413L19.1009 60.5959L25.5446 58.1577L21.7291 63.9048L27.6503 67.4196L20.795 68.0054L21.7449 74.8291L16.9952 69.8419L12.2455 74.8291L13.1954 68.0212L6.32422 67.4196L12.2613 63.9048L8.44575 58.1577ZM63.7164 75.2249L60.7082 75.4782L61.1357 78.4547L59.0775 76.2857L57.0193 78.4547L57.3834 75.4782L54.407 75.2249L56.9876 73.705L55.3252 71.2035L58.1276 72.2643L59.0458 69.4145L59.9483 72.2643L62.7664 71.2035L61.1199 73.705L63.7164 75.2249ZM63.6847 30.8944L60.7082 31.1478L61.1199 34.1242L59.0617 31.9552L57.0035 34.1242L57.3834 31.1478L54.407 30.8944L56.9876 29.3745L55.3252 26.873L58.1276 27.9338L59.0458 25.084L59.9483 27.9338L62.7664 26.873L61.1199 29.3745L63.6847 30.8944ZM47.0608 48.9116L44.0843 49.1649L44.4959 52.1256L42.4377 49.9565L40.3795 52.1256L40.7753 49.1649L37.7989 48.9116L40.3795 47.3759L38.7171 44.8902L41.5195 45.951L42.4377 43.1012L43.3402 45.951L46.1425 44.8902L44.4959 47.3759L47.0608 48.9116ZM78.4404 44.4786L75.4639 44.7319L75.8756 47.6925L73.8174 45.5235L71.7592 47.6925L72.155 44.7319L69.1785 44.4786L71.7592 42.9428L70.0968 40.4572L72.8991 41.5179L73.8174 38.6681L74.7357 41.5179L77.5221 40.4572L75.8756 42.9428L78.4404 44.4786ZM65.7112 56.0045L64.0805 57.0178L64.5396 55.1495L63.0672 53.9146L64.9671 53.7721L65.7112 51.9989L66.4079 53.788L68.3236 53.9463L66.867 55.1654L67.3261 57.0336" fill="white"/>
<path d="M-0.247803 -0.202148H40.2829V40.3286H-0.247803V-0.202148Z" fill="#000066"/>
<path d="M40.2829 -0.202148V4.86419L25.2422 20.0632L40.2829 34.8664V40.3286H34.9791L19.8592 25.4462L5.13518 40.3286H-0.247803V34.9456L14.4763 20.1424L-0.247803 5.65581V-0.202148H4.66022L19.8592 14.6802L34.5833 -0.202148H40.2829Z" fill="white"/>
<path d="M14.3179 25.4462L15.1887 28.1377L3.07698 40.3286H-0.247803V40.0911L14.3179 25.4462ZM24.134 24.4963L28.4087 25.1296L40.2829 36.7663V40.3286L24.134 24.4963ZM40.2829 -0.202148L25.0839 15.3135L24.7673 11.8304L36.6415 -0.202148H40.2829ZM-0.247803 -0.122987L15.0304 14.8386L10.3598 14.2053L-0.247803 3.67677V-0.122987Z" fill="#C8102E"/>
<path d="M13.6846 -0.202148V40.3286H26.3505V-0.202148H13.6846ZM-0.247803 13.7303V26.3961H40.2829V13.7303H-0.247803Z" fill="white"/>
<path d="M-0.247803 16.2635V23.863H40.2829V16.2635H-0.247803ZM16.2178 -0.202148V40.3286H23.8173V-0.202148H16.2178Z" fill="#C8102E"/>
</g>
</svg>
