<svg width="102" height="95" viewBox="0 0 102 95" fill="none" xmlns="http://www.w3.org/2000/svg">
<rect x="-0.164062" width="107" height="99" rx="23" fill="white"/>
<mask id="mask0_673_5286" style="mask-type:alpha" maskUnits="userSpaceOnUse" x="3" y="1" width="102" height="96">
<rect x="3.56641" y="1" width="101.154" height="96" rx="21.9285" fill="white"/>
<rect x="3.89866" y="1.33225" width="100.49" height="95.3355" rx="21.5962" stroke="white" stroke-opacity="0.2" stroke-width="0.6645"/>
</mask>
<g mask="url(#mask0_673_5286)">
<path d="M3.19141 1.71094H103.191V68.7109H3.19141V1.71094Z" fill="white"/>
<path d="M44.4861 54.798C44.465 54.7725 44.4605 54.6656 44.4705 54.426C44.4782 54.2411 44.4852 54.0217 44.4861 53.9384C44.489 53.6832 44.4401 53.1011 44.4113 53.047C44.3963 53.0189 44.3841 52.9679 44.3841 52.9335C44.3841 52.8992 44.3626 52.8276 44.3363 52.7742C44.3099 52.7209 44.2583 52.6149 44.2213 52.5386C44.1885 52.4707 44.1546 52.4034 44.1194 52.3367C44.0747 52.2552 43.8046 51.9836 43.7682 51.9836C43.7529 51.9836 43.7138 51.9552 43.6814 51.9206C43.6489 51.8859 43.6092 51.8575 43.593 51.8575C43.5769 51.8575 43.5432 51.8348 43.5182 51.8071C43.4932 51.7793 43.4577 51.7566 43.4393 51.7566C43.4209 51.7566 43.386 51.74 43.3616 51.7197C43.2569 51.6321 43.1285 51.552 42.9358 51.4542L42.7297 51.3497L42.4714 51.361C42.3294 51.3673 42.1115 51.3915 41.9872 51.415C41.863 51.4384 41.6936 51.4629 41.6108 51.4694C41.528 51.4759 41.4376 51.4917 41.41 51.5044C41.3824 51.5172 41.2864 51.5326 41.1966 51.5388C40.9003 51.5591 40.5594 51.6593 40.4566 51.7562C40.427 51.7841 40.3912 51.8071 40.377 51.8071C40.3627 51.8071 40.3313 51.8291 40.307 51.856C40.2474 51.9222 40.075 51.9635 39.8037 51.9763C39.6795 51.9822 39.567 51.9976 39.554 52.0106C39.5409 52.0236 39.5014 52.0342 39.4661 52.0345C39.4309 52.0346 39.3518 52.0524 39.2902 52.074C39.1557 52.1211 38.9278 52.184 38.8271 52.202C38.7299 52.2192 38.5464 52.1665 38.4259 52.0864C38.3777 52.0542 38.3288 52.023 38.2793 51.9928C38.2524 51.9769 38.1873 51.9217 38.1347 51.8702C38.0389 51.7762 37.9758 51.7328 37.8589 51.6804C37.8108 51.6586 37.7628 51.6363 37.715 51.6135C37.6504 51.5827 37.5851 51.5782 37.4009 51.5918C37.0893 51.6146 36.9871 51.614 36.863 51.5888C36.7208 51.5598 36.5284 51.3806 36.5284 51.2772C36.5284 51.1662 36.2039 50.899 36.0689 50.899C36.0406 50.899 35.9828 50.8881 35.9404 50.8748L35.5347 50.7473C35.3539 50.6905 35.1394 50.6106 35.0578 50.5698C34.9763 50.529 34.8958 50.4956 34.8789 50.4956C34.8621 50.4955 34.8081 50.4727 34.7589 50.445C34.7098 50.4173 34.6529 50.3946 34.6324 50.3946C34.612 50.3946 34.5755 50.3841 34.5515 50.3713C34.5275 50.3585 34.395 50.3366 34.257 50.3227C34.1189 50.3087 33.9665 50.2905 33.9182 50.2824C33.8699 50.2742 33.7513 50.2553 33.6547 50.2405C33.4438 50.2079 33.3056 50.1643 33.1748 50.0891C33.1212 50.0583 33.0671 50.0285 33.0124 49.9997C32.9767 49.9813 32.9269 49.9433 32.9019 49.9155C32.8769 49.8876 32.8438 49.8648 32.8284 49.8648C32.813 49.8648 32.6767 49.7401 32.5253 49.5874C32.3739 49.4348 32.2386 49.3098 32.2244 49.3098C32.2104 49.3096 32.1574 49.2699 32.1065 49.2214C32.0557 49.173 32.0044 49.1334 31.9925 49.1334C31.9556 49.1334 31.776 48.9505 31.683 48.8181C31.6341 48.7487 31.5161 48.5331 31.4207 48.3388C31.3253 48.1446 31.219 47.9403 31.1849 47.8848C31.1505 47.8293 31.0625 47.6671 30.9894 47.5242C30.8704 47.292 30.8563 47.2478 30.8563 47.1068C30.8563 47.0142 30.8433 46.9359 30.8249 46.9175C30.7814 46.8737 30.782 46.1963 30.8255 46.1525C30.8683 46.1096 30.8639 45.9522 30.8183 45.8867C30.7823 45.8351 30.6208 45.7149 30.5005 45.6502C30.4197 45.6067 30.1814 45.5536 30.0624 45.5526C29.7684 45.55 29.6205 45.3786 29.5499 44.9589C29.5191 44.7754 29.4893 44.6425 29.403 44.3031C29.3608 44.1366 29.3259 43.9698 29.3257 43.9325C29.3254 43.8951 29.314 43.8576 29.3002 43.849C29.2864 43.8404 29.275 43.8118 29.275 43.7854C29.275 43.714 29.1917 43.4646 29.1215 43.326C29.1081 43.2967 29.1005 43.2651 29.0994 43.2329C29.0994 43.2058 29.0881 43.1766 29.0743 43.168C29.0604 43.1594 29.0492 43.0856 29.0492 43.004C29.0492 42.9225 29.0604 42.8487 29.0743 42.8401C29.0884 42.8314 29.0994 42.7111 29.0994 42.5659C29.0994 42.2992 29.0587 42.152 28.9629 42.072C28.9413 42.0541 28.9237 42.0272 28.9237 42.0123C28.9237 41.9763 28.7962 41.8438 28.7614 41.8438C28.7262 41.8438 28.4217 41.5358 28.4217 41.5001C28.4217 41.4853 28.3998 41.4532 28.3729 41.4289C28.3461 41.4045 28.317 41.3518 28.3083 41.3117C28.2995 41.2718 28.282 41.2325 28.2692 41.2246C28.2565 41.2167 28.246 41.1775 28.246 41.1375C28.246 41.0976 28.2348 41.0578 28.2209 41.0492C28.2071 41.0407 28.1957 41.0145 28.1955 40.9909C28.1952 40.9455 28.0646 40.6735 28.0119 40.6088C27.9945 40.5874 27.9654 40.5359 27.9471 40.4943C27.9304 40.4558 27.9122 40.4179 27.8924 40.3808C27.8699 40.3392 27.8481 40.2972 27.8272 40.2547C27.8032 40.2061 27.7464 40.1 27.701 40.0189C27.6557 39.9379 27.6185 39.8555 27.6185 39.836C27.6185 39.8166 27.6073 39.8007 27.5935 39.8007C27.5797 39.8007 27.5684 39.7673 27.5684 39.7265C27.5684 39.6857 27.5584 39.6461 27.5459 39.6384C27.5336 39.6307 27.5176 39.5818 27.5104 39.5297C27.4812 39.3203 27.3755 38.95 27.3285 38.8926C27.3067 38.866 27.2947 38.6952 27.2882 38.3197C27.2816 37.9396 27.27 37.7755 27.248 37.7533C27.2105 37.7157 27.2049 37.2889 27.2416 37.266C27.2844 37.2395 27.3658 37.3018 27.415 37.399C27.4413 37.4505 27.4864 37.5143 27.5155 37.5408C27.5446 37.5672 27.5684 37.6021 27.5684 37.6183C27.5684 37.6346 27.5967 37.6745 27.6311 37.7071C27.6656 37.7397 27.6939 37.7793 27.6939 37.795C27.6939 37.8278 27.8237 37.9594 27.8559 37.9594C27.8676 37.9594 27.9367 38.0133 28.0093 38.0791C28.177 38.2314 28.4121 38.4133 28.4409 38.4133C28.4532 38.4133 28.4897 38.4418 28.5221 38.4764C28.5546 38.5111 28.5939 38.5395 28.6096 38.5395C28.6253 38.5395 28.6707 38.5735 28.7104 38.6151C28.75 38.6568 28.7924 38.6908 28.8045 38.6908C28.8167 38.6908 28.8637 38.7192 28.909 38.7539C28.9542 38.7886 28.9998 38.817 29.0103 38.817C29.0208 38.817 29.0783 38.8501 29.138 38.8907C29.2864 38.9912 29.3684 39.0267 29.6892 39.1289C30.306 39.3256 30.5259 39.3703 30.9692 39.3894C31.3128 39.4043 31.7584 39.3544 31.903 39.285C31.9595 39.2582 32.0164 39.2321 32.0735 39.2068C32.1734 39.1626 32.5623 38.8037 32.5636 38.7545C32.564 38.7403 32.6149 38.6741 32.6765 38.6073C32.7383 38.5405 32.7888 38.4779 32.7888 38.4682C32.7888 38.4585 32.8281 38.4054 32.8761 38.3501C32.9241 38.2947 32.9637 38.2403 32.964 38.2291C32.9643 38.218 32.9983 38.1726 33.0397 38.1282C33.081 38.0839 33.1149 38.0354 33.1149 38.0205C33.1149 38.0056 33.1433 37.9667 33.1778 37.9342C33.2123 37.9015 33.2405 37.8616 33.2405 37.8454C33.2405 37.8291 33.2631 37.7953 33.2908 37.7702C33.3185 37.7451 33.3409 37.7107 33.3409 37.6937C33.3409 37.6767 33.3568 37.6497 33.3762 37.6334C33.3955 37.6173 33.4414 37.545 33.478 37.4727C33.5147 37.4005 33.5662 37.3073 33.5927 37.2657C33.6192 37.224 33.681 37.1106 33.7303 37.0135C33.7796 36.9163 33.8406 36.8029 33.8659 36.7612C33.9671 36.5951 34.0939 36.3643 34.0939 36.3465C34.0939 36.3361 34.1164 36.3071 34.1441 36.282C34.1718 36.2569 34.1943 36.225 34.1943 36.2111C34.1943 36.1972 34.2225 36.1486 34.257 36.1032C34.2915 36.0577 34.3198 36.0102 34.3198 35.9975C34.3198 35.9849 34.3424 35.954 34.3699 35.9288C34.3976 35.9037 34.4202 35.8702 34.4202 35.8543C34.4202 35.8384 34.5004 35.7465 34.5985 35.6501C34.6965 35.5537 34.8057 35.4436 34.841 35.4055C34.8995 35.3423 34.9214 35.3361 35.0844 35.3361C35.1829 35.3361 35.2742 35.3464 35.2873 35.359C35.3004 35.3716 35.3537 35.3873 35.4057 35.3941C35.4577 35.4009 35.5165 35.4199 35.5363 35.4364C35.5816 35.4742 35.8788 35.4588 36.0013 35.4124C36.0496 35.3941 36.1557 35.3468 36.237 35.3072C36.3184 35.2676 36.3993 35.2351 36.4169 35.2351C36.4345 35.2351 36.4527 35.2259 36.4573 35.2147C36.4723 35.1779 36.8391 35.0106 36.9676 34.9821C37.0588 34.9618 37.1857 34.9617 37.432 34.9816C37.6183 34.9966 37.8611 35.0136 37.9715 35.0192C38.2572 35.0338 38.5194 35.0725 38.737 35.1323C38.8405 35.1607 38.9761 35.197 39.0382 35.213C39.1003 35.2289 39.202 35.2646 39.264 35.2923C39.3262 35.3199 39.3996 35.3513 39.4272 35.3622C39.5085 35.394 39.8732 35.5632 39.9455 35.6026C39.9822 35.6225 40.028 35.6388 40.0472 35.6388C40.0665 35.6388 40.0964 35.653 40.1136 35.6703C40.1309 35.6876 40.1529 35.7028 40.1626 35.704C40.1829 35.7065 40.2493 35.7317 40.3559 35.7773C40.4135 35.8009 40.4721 35.8221 40.5315 35.8407C40.5868 35.8579 40.6515 35.8819 40.6755 35.8941C40.6994 35.9063 40.7468 35.9162 40.7807 35.9162C40.8146 35.9162 40.8493 35.9276 40.8578 35.9415C40.8671 35.9566 41.0333 35.9666 41.2719 35.9666C41.5106 35.9666 41.6768 35.9768 41.6861 35.9919C41.6953 36.007 41.8615 36.0171 42.1002 36.0171C42.3389 36.0171 42.505 36.0071 42.5143 35.9919C42.5228 35.978 42.5801 35.9667 42.6416 35.9667C42.7031 35.9667 42.773 35.9567 42.7969 35.9444C42.8209 35.9322 42.8744 35.907 42.9159 35.8884C42.9573 35.8699 43.0507 35.8175 43.1234 35.772C43.1961 35.7264 43.2645 35.6892 43.2754 35.6892C43.2862 35.6892 43.3334 35.6495 43.3802 35.601C43.427 35.5524 43.4776 35.5127 43.4926 35.5127C43.5272 35.5127 43.7818 35.2552 43.7818 35.2202C43.7818 35.2059 43.8128 35.1643 43.8508 35.1277C43.8888 35.0911 43.938 35.0237 43.9604 34.9779C44.1054 34.6806 44.2335 34.348 44.2335 34.2688C44.2335 34.2371 44.2444 34.2002 44.2577 34.1868C44.271 34.1735 44.2944 34.0776 44.3098 33.9737C44.3251 33.8699 44.349 33.7478 44.3626 33.7027C44.3768 33.6558 44.3802 33.5364 44.3705 33.4252C44.3515 33.206 44.3809 33.0556 44.459 32.9713C44.4868 32.9413 44.5096 32.9094 44.5096 32.9004C44.5096 32.8915 44.5613 32.8264 44.6245 32.7557C44.7056 32.665 44.7358 32.6121 44.727 32.5755C44.7106 32.5117 44.6933 32.4482 44.6751 32.385C44.6535 32.3087 44.6355 32.2122 44.6354 32.1706C44.635 32.087 44.6963 31.7724 44.7206 31.7329C44.729 31.7192 44.7366 31.5792 44.7373 31.4218C44.7388 31.1103 44.7239 31.0592 44.5879 30.909C44.5449 30.8614 44.5096 30.8129 44.5096 30.8013C44.5096 30.7897 44.4898 30.7581 44.4656 30.7312C44.4415 30.7042 44.3792 30.5972 44.3273 30.4931L44.2328 30.304L44.2331 29.7692C44.2334 29.4751 44.2437 29.2083 44.2561 29.1764C44.2924 29.0838 44.3367 28.6144 44.3397 28.2924C44.3422 28.0205 44.3463 27.996 44.3895 27.996C44.4153 27.996 44.467 28.0244 44.5041 28.0591C44.5414 28.0938 44.586 28.1222 44.6035 28.1222C44.6209 28.1222 44.6351 28.1322 44.6351 28.1445C44.6351 28.1568 44.6718 28.1856 44.7166 28.2084C44.7615 28.2314 44.849 28.2894 44.9111 28.3374C44.9733 28.3856 45.041 28.4322 45.0617 28.4413C45.0824 28.4502 45.1333 28.482 45.1747 28.512C45.2282 28.5489 45.2844 28.5816 45.3429 28.6098C45.394 28.6336 45.4505 28.6671 45.4685 28.6843C45.5222 28.7358 46.2118 29.0807 46.261 29.0807C46.286 29.0807 46.3174 29.0907 46.3305 29.1028C46.3612 29.1313 46.6346 29.2335 46.7248 29.2502C46.7629 29.2572 46.8003 29.2731 46.8079 29.2854C46.8155 29.2977 46.8486 29.3077 46.8816 29.3077C46.9218 29.309 46.9615 29.3167 46.9994 29.3304C47.1056 29.3725 47.4827 29.4854 47.5715 29.5018C47.6199 29.5107 47.9474 29.5254 48.2994 29.5344C48.91 29.5499 49.1478 29.5757 49.4904 29.6637C49.6112 29.6947 49.7887 29.7336 49.8931 29.7519C49.9345 29.7592 49.9909 29.7748 50.0186 29.7867C50.0462 29.7986 50.114 29.8145 50.1692 29.8221C50.2244 29.8297 50.3486 29.8541 50.4453 29.8763C50.542 29.8985 50.6661 29.9221 50.7214 29.9289C50.7765 29.9356 50.8443 29.9509 50.8719 29.9629C50.8996 29.9749 50.9786 29.9916 51.0476 29.9998C51.1166 30.0082 51.2296 30.0258 51.2986 30.0392C51.3676 30.0524 51.5201 30.0761 51.6375 30.0917C51.7548 30.1073 51.8733 30.1297 51.901 30.1416C51.9286 30.1534 52.0161 30.1692 52.0954 30.1767L52.3841 30.2042C52.4634 30.2117 52.551 30.2285 52.5786 30.2412C52.6062 30.254 52.7135 30.2695 52.817 30.2757C52.9205 30.2819 53.1182 30.3059 53.2562 30.3291C53.3943 30.3523 53.6032 30.3763 53.7205 30.3825C53.8379 30.3887 53.9564 30.4042 53.9841 30.4168C54.0117 30.4296 54.1472 30.4457 54.2853 30.4526C54.9848 30.488 55.2871 30.5327 55.4795 30.6291C55.524 30.6515 55.5863 30.6698 55.6178 30.6698C55.6495 30.6698 55.6822 30.6811 55.6908 30.6949C55.7109 30.7276 55.8212 30.7276 55.8414 30.6949C55.8499 30.6811 55.9217 30.6698 56.001 30.6698C56.0801 30.6698 56.1558 30.6591 56.1689 30.6462C56.1819 30.6333 56.3 30.6171 56.4311 30.6103C56.7424 30.5936 57.0525 30.5587 57.3598 30.5056C57.4909 30.4829 57.649 30.4587 57.7111 30.4517C57.7732 30.4446 57.8467 30.4291 57.8743 30.4169C57.9019 30.4047 57.981 30.3895 58.05 30.383C58.3171 30.358 58.6291 30.3108 58.6708 30.289C58.6948 30.2764 58.8664 30.2662 59.052 30.2662C59.2501 30.2662 59.3962 30.2557 59.4053 30.241C59.4138 30.2271 59.5264 30.2158 59.6563 30.2158C59.7862 30.2158 59.8987 30.2044 59.9072 30.1905C59.9158 30.1766 59.9805 30.1653 60.0512 30.1653C60.1219 30.1653 60.2145 30.1545 60.2568 30.1411C60.2993 30.1278 60.4299 30.0947 60.5472 30.0674C60.7125 30.0278 60.877 29.9855 61.0409 29.9404C61.3099 29.8659 61.3385 29.8631 61.7561 29.8689C62.0664 29.8731 62.207 29.8658 62.246 29.8435C62.2762 29.8262 62.3852 29.8122 62.4892 29.8122C62.5928 29.8122 62.6846 29.8008 62.6931 29.787C62.7016 29.7731 62.7306 29.7617 62.7573 29.7617C62.7841 29.7617 62.806 29.7504 62.806 29.7365C62.806 29.7226 62.8258 29.7104 62.85 29.7094C62.8741 29.7084 62.9278 29.6859 62.9691 29.6593C63.0127 29.6317 63.0579 29.6068 63.1045 29.5848C63.1374 29.5704 63.1882 29.537 63.2174 29.5107C63.488 29.267 63.7094 29.0807 63.7282 29.0807C63.7407 29.0807 63.7775 29.0522 63.81 29.0176C63.8425 28.983 63.8825 28.9546 63.8991 28.9546C63.9158 28.9546 63.9428 28.9382 63.9591 28.9184C63.9844 28.8879 64.0716 28.8377 64.337 28.7006C64.4449 28.6449 64.713 28.5258 64.7308 28.5257C64.742 28.5256 64.8067 28.4972 64.8746 28.4626C64.9425 28.4279 65.0118 28.3996 65.0285 28.3996C65.0573 28.3996 65.3041 28.2973 65.3971 28.2467C65.421 28.2337 65.4668 28.2231 65.4988 28.2231C65.5307 28.2231 65.5675 28.2134 65.5806 28.2015C65.6318 28.1553 66.2231 27.996 66.3438 27.996C66.3841 27.996 66.4235 27.9859 66.4311 27.9734C66.4387 27.9611 66.4874 27.9453 66.5392 27.9383C66.641 27.9248 67.0369 27.8326 67.1624 27.7932C67.2047 27.7799 67.2803 27.769 67.3303 27.769C67.3803 27.769 67.4281 27.7577 67.4366 27.7439C67.4452 27.73 67.484 27.7186 67.5229 27.7186C67.5618 27.7186 67.6342 27.7016 67.6837 27.6807C67.7333 27.66 67.8244 27.643 67.8861 27.643C67.9479 27.643 68.0053 27.6316 68.0139 27.6177C68.0224 27.6038 68.0684 27.5925 68.1161 27.5925C68.1638 27.5925 68.2225 27.5823 68.2464 27.5698C68.2704 27.5574 68.4255 27.5044 68.5911 27.4519C68.7568 27.3996 68.9375 27.3375 68.9928 27.3141C69.1174 27.2619 69.2429 27.2118 69.3692 27.1638C69.3968 27.1534 69.4759 27.1193 69.5449 27.088C69.6031 27.0615 69.6616 27.0358 69.7205 27.011C69.8793 26.9468 70.1357 26.8192 70.2225 26.761C70.2846 26.7201 70.3492 26.6832 70.416 26.6505C70.4671 26.6268 70.5165 26.5952 70.5257 26.5803C70.5349 26.5653 70.5777 26.537 70.6209 26.5174C70.664 26.4977 70.7502 26.4421 70.8123 26.3939C70.8745 26.3457 70.9496 26.2956 70.9793 26.2825C71.009 26.2695 71.0405 26.247 71.0494 26.2326C71.0582 26.2182 71.1045 26.1879 71.1522 26.1652C71.2 26.1424 71.2389 26.1137 71.2389 26.1015C71.2389 26.0892 71.261 26.0791 71.2877 26.0791C71.3145 26.0791 71.3435 26.0675 71.3523 26.0533C71.361 26.0391 71.4967 25.9642 71.654 25.8868C71.8112 25.8093 71.9529 25.7302 71.9689 25.7108C71.985 25.6913 72.0108 25.6754 72.0265 25.6753C72.042 25.6752 72.0963 25.6354 72.1471 25.587C72.1979 25.5386 72.2493 25.499 72.2611 25.499C72.273 25.499 72.3245 25.4592 72.3758 25.4106C72.427 25.362 72.4781 25.3223 72.4895 25.3223C72.5007 25.3223 72.5544 25.2851 72.6086 25.2394C72.7241 25.1424 72.966 25.012 73.1088 24.9696C73.2023 24.9419 73.312 24.9266 73.7613 24.8788C73.9345 24.8604 74.0935 24.7953 74.1328 24.7268C74.1439 24.7075 74.1634 24.6918 74.1762 24.6918C74.189 24.6918 74.2591 24.6541 74.3319 24.608C74.4046 24.562 74.5375 24.488 74.6272 24.4436C74.7169 24.3992 74.8073 24.3527 74.828 24.3402C74.9236 24.2823 75.4987 24.0107 75.5255 24.0107C75.5422 24.0107 75.5559 23.9994 75.5559 23.9855C75.5559 23.9716 75.573 23.9603 75.5939 23.9603C75.6147 23.9603 75.6514 23.9503 75.6755 23.9381C75.6994 23.9259 75.894 23.8287 76.108 23.7222C76.3219 23.6157 76.5648 23.4904 76.6476 23.4436C76.7305 23.397 76.8798 23.3177 76.9795 23.2674C77.0791 23.2172 77.1671 23.1654 77.175 23.1526C77.1829 23.1398 77.2312 23.1099 77.2825 23.0861C77.3337 23.0623 77.435 23.0053 77.5077 22.9593C77.5805 22.9133 77.6494 22.8757 77.6607 22.8757C77.672 22.8757 77.7019 22.853 77.7269 22.8252C77.7519 22.7974 77.7931 22.7748 77.8185 22.7748C77.844 22.7748 77.8649 22.7639 77.8649 22.7507C77.8649 22.7375 77.9072 22.7073 77.959 22.6836C78.0179 22.6557 78.0745 22.6232 78.1284 22.5864C78.1812 22.5501 78.2367 22.5179 78.2944 22.4901C78.3442 22.4668 78.3993 22.4306 78.4166 22.4095C78.4341 22.3884 78.4625 22.3712 78.4799 22.3712C78.4975 22.3712 78.544 22.3542 78.5835 22.3335C78.681 22.2825 78.9406 22.2825 78.9601 22.3334C78.9765 22.3765 79.0495 22.3828 79.1139 22.3468C79.17 22.3153 79.388 22.2451 79.4297 22.2451C79.5497 22.2451 79.973 21.9403 79.973 21.854C79.973 21.8197 80.1795 21.6145 80.214 21.6145C80.2282 21.6145 80.2723 21.5805 80.312 21.5388C80.3516 21.4972 80.3975 21.4631 80.414 21.4631C80.4304 21.4631 80.4593 21.4444 80.4783 21.4214C80.4972 21.3984 80.5918 21.3169 80.6884 21.2404C80.785 21.1637 80.898 21.0698 80.9394 21.0316C81.0714 20.91 81.3322 20.6948 81.3834 20.6652C81.4106 20.6496 81.4693 20.6013 81.5136 20.558C81.558 20.5148 81.6065 20.4794 81.6215 20.4794C81.6364 20.4794 81.6624 20.4627 81.6794 20.4421C81.6964 20.4216 81.74 20.3891 81.7765 20.3699C81.8903 20.3101 81.9658 20.2659 82.0394 20.2163C82.164 20.1323 82.3595 20.0806 82.4539 20.1067C82.5391 20.1303 82.8497 20.1204 83.0099 20.0889C83.0583 20.0794 83.1543 20.0453 83.2233 20.0131C83.2923 19.9808 83.4018 19.9308 83.4665 19.9017C83.5312 19.8727 83.5909 19.838 83.599 19.8248C83.6072 19.8116 83.6294 19.8066 83.6482 19.8138C83.6671 19.8211 83.6898 19.8153 83.6986 19.8009C83.7075 19.7865 83.7848 19.7395 83.8705 19.6963C84.111 19.575 84.2209 19.5134 84.3067 19.4516C84.35 19.4204 84.3965 19.3948 84.41 19.3948C84.4234 19.3948 84.448 19.3784 84.4645 19.3584C84.481 19.3384 84.5755 19.2802 84.6746 19.2291C84.7737 19.178 84.87 19.1239 84.8888 19.1089C84.9355 19.0712 85.005 19.0328 85.4821 18.7804C85.5511 18.7438 85.6405 18.714 85.6806 18.7139H85.7535L85.7363 19.1363C85.7268 19.3686 85.707 19.6098 85.6923 19.6723C85.6748 19.7514 85.6617 19.8314 85.6531 19.9119C85.6462 19.9813 85.6304 20.0488 85.6179 20.062C85.6054 20.0751 85.595 20.1079 85.595 20.1346C85.595 20.1616 85.5166 20.2608 85.4194 20.3568C85.3227 20.4522 85.2437 20.5472 85.2437 20.5678C85.2437 20.5886 85.2343 20.6055 85.2229 20.6055C85.2114 20.6055 85.1865 20.6368 85.1674 20.675C85.1485 20.7131 85.1197 20.7613 85.1035 20.7822C85.0784 20.8144 84.9131 21.1183 84.7998 21.3408C84.7811 21.3774 84.7491 21.4213 84.7287 21.4383C84.7083 21.4553 84.6912 21.4821 84.6908 21.4978C84.6899 21.5327 84.5666 21.6675 84.5011 21.7052C84.3009 21.8202 84.2064 21.8575 84.0265 21.8923L83.7442 21.947C83.6044 21.9741 83.2884 22.0803 83.1605 22.1432C82.9287 22.2572 82.8899 22.2809 82.8125 22.3554C82.7746 22.3918 82.733 22.4217 82.72 22.4219C82.707 22.422 82.6546 22.4617 82.6038 22.5102C82.553 22.5586 82.5002 22.5982 82.4865 22.5982C82.4729 22.5982 82.4297 22.6244 82.3907 22.6565C82.3517 22.6886 82.2566 22.7453 82.1795 22.7825C81.979 22.8793 81.9056 22.9814 81.9056 23.1639C81.9056 23.2257 81.8944 23.2833 81.8806 23.2919C81.8668 23.3004 81.8554 23.3855 81.8554 23.481C81.8554 23.5765 81.8456 23.6607 81.8336 23.6682C81.8216 23.6757 81.8048 23.7169 81.7962 23.7598C81.7779 23.8518 81.5463 24.1064 81.4615 24.1277C81.4297 24.1358 81.4037 24.1524 81.4037 24.1648C81.4037 24.1772 81.3839 24.1874 81.3598 24.1874C81.3356 24.1875 81.2835 24.2046 81.2439 24.2253C81.2044 24.246 81.1515 24.263 81.1262 24.263C81.101 24.263 81.0734 24.2743 81.0649 24.2882C81.0564 24.3021 81.0274 24.3134 81.0004 24.3134C80.9734 24.3134 80.9035 24.3352 80.845 24.3616C80.7865 24.3882 80.6935 24.4236 80.6383 24.4405C80.583 24.4574 80.52 24.4868 80.4981 24.5058C80.4763 24.5249 80.4525 24.5346 80.4452 24.5273C80.4379 24.52 80.4177 24.5313 80.4003 24.5524C80.3828 24.5736 80.3474 24.5909 80.3214 24.5909C80.2955 24.5909 80.2743 24.6022 80.2743 24.6161C80.2743 24.63 80.2531 24.6414 80.2272 24.6414C80.2013 24.6414 80.166 24.6584 80.1489 24.6791C80.1316 24.7 80.1038 24.717 80.0869 24.717C80.07 24.717 80.0357 24.7397 80.0108 24.7674C79.9858 24.7952 79.9529 24.818 79.9379 24.8181C79.9228 24.8182 79.8595 24.8687 79.7975 24.9305C79.7353 24.9921 79.6711 25.0431 79.6547 25.0438C79.6383 25.0444 79.5105 25.1584 79.3708 25.2971C79.231 25.4359 79.1026 25.5494 79.0854 25.5494C79.0683 25.5494 79.016 25.5891 78.9692 25.6376C78.9224 25.6862 78.8713 25.7259 78.8557 25.7259C78.8401 25.7259 78.8008 25.7543 78.7684 25.789C78.736 25.8237 78.6966 25.852 78.6809 25.852C78.6652 25.852 78.6305 25.8725 78.6037 25.8974C78.577 25.9225 78.5381 25.9506 78.5175 25.96C78.4967 25.9694 78.4346 26.005 78.3794 26.0391C78.1191 26.1998 77.5081 26.5079 77.4498 26.5079C77.433 26.5079 77.4053 26.5247 77.3882 26.5454C77.3711 26.5661 77.3484 26.5775 77.3375 26.5708C77.3179 26.5586 76.8064 26.8132 76.7355 26.8705C76.7148 26.8873 76.6469 26.9268 76.5849 26.9584C76.4474 27.0282 76.327 27.1134 76.2034 27.2283C76.1521 27.276 76.1012 27.3151 76.0903 27.3152C76.0794 27.3153 75.9761 27.4061 75.8611 27.5171C75.7459 27.6279 75.6427 27.7186 75.6315 27.7186C75.6202 27.7186 75.5265 27.7981 75.423 27.8951C75.3195 27.9923 75.2245 28.0718 75.2119 28.0718C75.1834 28.0718 74.734 28.5396 74.6649 28.641C74.6065 28.7268 74.5269 28.8974 74.5269 28.9367C74.5269 28.9867 74.4205 29.1852 74.3624 29.2436C74.3307 29.2754 74.2674 29.3279 74.2214 29.3603C74.0007 29.5159 73.8457 29.6968 73.7344 29.9283C73.6733 30.0553 73.6233 30.1725 73.6233 30.1885C73.6233 30.2731 73.3135 30.5184 73.2069 30.5184C73.1629 30.5184 72.9708 30.6248 72.9708 30.6492C72.9708 30.6605 72.9524 30.6698 72.9301 30.6698C72.9078 30.6698 72.8518 30.7009 72.8056 30.7391C72.6525 30.8656 72.565 30.9342 72.5081 30.9724C72.2885 31.1198 72.2157 31.1655 72.1049 31.2254C72.0199 31.2693 71.9319 31.3068 71.8414 31.3376C71.7654 31.3621 71.6837 31.392 71.6597 31.4043C71.6358 31.4165 71.5618 31.4264 71.4954 31.4264C71.4289 31.4264 71.3638 31.4367 71.3507 31.4491C71.3375 31.4616 71.2816 31.4773 71.2265 31.484C71.1177 31.4974 70.92 31.5529 70.7998 31.604C70.7584 31.6216 70.7078 31.6393 70.6873 31.6434C70.6669 31.6474 70.6461 31.6626 70.6413 31.6773C70.6364 31.6919 70.6169 31.7039 70.5978 31.7039C70.5474 31.7039 70.3966 31.8439 70.3311 31.9516C70.2936 32.0112 70.2513 32.0675 70.2047 32.1201C70.1664 32.1617 70.1349 32.208 70.1348 32.2229C70.1348 32.2378 70.1065 32.2767 70.072 32.3093C70.0375 32.3419 70.0092 32.3821 70.0092 32.3989C70.0092 32.4156 69.992 32.4436 69.9709 32.4612C69.9271 32.4976 69.5574 33.2469 69.5574 33.2991C69.5574 33.3179 69.5478 33.3442 69.536 33.3573C69.5243 33.3705 69.4835 33.4834 69.4457 33.6083C69.4079 33.7332 69.3667 33.8614 69.3542 33.8932C69.3229 33.9731 69.325 34.6229 69.3567 34.6424C69.3704 34.651 69.3819 34.7113 69.382 34.7764C69.3822 34.9238 69.488 35.4417 69.5601 35.6482C69.6368 35.8679 69.7945 36.1672 69.8833 36.2617C69.925 36.3061 69.959 36.3543 69.959 36.369C69.959 36.3837 70.0098 36.4495 70.0718 36.5154C70.1339 36.5813 70.1846 36.6471 70.1847 36.6617C70.1848 36.6763 70.2244 36.7268 70.2727 36.7739C70.321 36.8209 70.3605 36.8719 70.3605 36.887C70.3605 36.9022 70.4114 36.9648 70.4735 37.0261C70.5356 37.0874 70.5865 37.1493 70.5865 37.1638C70.5865 37.1783 70.6485 37.2557 70.7245 37.3358C70.8004 37.4158 70.8625 37.4957 70.8625 37.5133C70.8625 37.5309 70.9134 37.5954 70.9754 37.6567C71.0376 37.7179 71.0884 37.7803 71.0884 37.7952C71.0884 37.8101 71.1505 37.884 71.2265 37.9594C71.3024 38.0347 71.3646 38.1081 71.3647 38.1224C71.3648 38.1367 71.4435 38.228 71.5395 38.3251C71.6356 38.4223 71.7147 38.513 71.7152 38.5269C71.7157 38.5408 71.7909 38.6316 71.8821 38.7287C71.9733 38.8258 72.0777 38.9441 72.114 38.9917C72.1505 39.0392 72.248 39.151 72.3307 39.2402C72.4136 39.3293 72.492 39.421 72.5049 39.4437C72.5178 39.4665 72.5676 39.5278 72.6156 39.5798C72.6635 39.6319 72.722 39.7058 72.7454 39.744C72.7688 39.7822 72.812 39.8349 72.8417 39.8613C72.8714 39.8878 72.8958 39.9218 72.8961 39.937C72.8965 39.9521 72.9669 40.0401 73.0529 40.1321C73.1953 40.2846 73.344 40.4724 73.4109 40.5842C73.4253 40.608 73.4524 40.6464 73.4714 40.6693C73.5147 40.7217 73.6233 40.936 73.6233 40.9691C73.6233 40.9827 73.6498 41.0517 73.6822 41.1224C73.7766 41.3286 73.8565 41.5704 73.8684 41.6862L73.8794 41.7934H73.2258C72.8171 41.7934 72.5664 41.7839 72.5566 41.7681C72.5481 41.7542 72.4688 41.7429 72.3803 41.7429C72.2253 41.7429 72.1415 41.7184 71.9417 41.615C71.6894 41.4842 71.4687 41.3897 71.4155 41.3897C71.389 41.3897 71.3612 41.3796 71.3535 41.3672C71.3218 41.3155 70.7708 41.2715 70.6371 41.3101C70.5885 41.3241 70.4834 41.3496 70.4033 41.367C70.3233 41.3842 70.252 41.4078 70.2449 41.4192C70.2379 41.4308 70.2143 41.4402 70.1925 41.4402C70.1169 41.4402 69.745 41.6417 69.6347 41.7425C69.5737 41.7982 69.515 41.8438 69.5042 41.8438C69.4934 41.8438 69.3925 41.9317 69.28 42.0392C69.1675 42.1468 69.0628 42.2394 69.047 42.2452C69.0311 42.251 68.9786 42.2933 68.9303 42.3395C68.8818 42.3857 68.8298 42.4236 68.8146 42.4237C68.7995 42.4238 68.767 42.4463 68.7423 42.4737C68.7176 42.5012 68.6881 42.5179 68.677 42.5109C68.6657 42.5039 68.5966 42.5273 68.5234 42.563C68.4049 42.6207 68.3354 42.6439 68.1332 42.6934C68.1022 42.701 68.0384 42.6889 67.9914 42.6665C67.9444 42.644 67.8953 42.6257 67.8822 42.6257C67.8692 42.6257 67.838 42.6031 67.813 42.5752C67.788 42.5474 67.7553 42.5247 67.7402 42.5247C67.7251 42.5247 67.6766 42.4906 67.6325 42.449C67.5884 42.4075 67.5413 42.3735 67.5278 42.3735C67.5143 42.3735 67.4713 42.3472 67.4323 42.3151C67.3827 42.2762 67.3295 42.242 67.2735 42.2131C67.2179 42.1849 67.1634 42.1544 67.1104 42.1215C67.0352 42.0736 66.512 41.8114 66.2376 41.684C66.1579 41.647 66.0711 41.6167 66.0446 41.6167C66.0181 41.6167 65.9907 41.6073 65.9835 41.5958C65.9764 41.5842 65.8929 41.5601 65.7977 41.542C65.6226 41.5089 65.4304 41.5164 65.2092 41.5652C65.1436 41.5797 65.042 41.6022 64.9834 41.6154L64.7763 41.6614C64.721 41.6736 64.6512 41.697 64.621 41.7132C64.5909 41.7295 64.5097 41.7429 64.4405 41.7429C64.3714 41.7429 64.308 41.7542 64.2994 41.7681C64.2906 41.7823 64.17 41.7934 64.0233 41.7934C63.8766 41.7934 63.7559 41.8043 63.7472 41.8185C63.7387 41.8324 63.6851 41.8438 63.6282 41.8438C63.5223 41.8438 63.2795 41.9158 63.1449 41.9872C63.0513 42.0369 62.8595 42.2176 62.8285 42.2852C62.8159 42.3129 62.7772 42.381 62.7426 42.4366C62.708 42.492 62.6685 42.5601 62.6548 42.5879C62.6411 42.6157 62.6015 42.6837 62.5668 42.7392C62.5322 42.7947 62.4972 42.8571 62.4891 42.8779C62.481 42.8988 62.4596 42.9499 62.4415 42.9914C62.315 43.2824 62.3063 43.3294 62.3028 43.7433C62.3009 43.9656 62.2901 44.1654 62.2788 44.1874C62.2469 44.2493 62.1535 44.5765 62.1535 44.6265C62.1535 44.6511 62.1854 44.6896 62.2246 44.7121C62.3263 44.7708 62.3608 44.8677 62.3461 45.0536C62.3317 45.2355 62.3093 45.3663 62.2803 45.4382C62.269 45.4658 62.2395 45.5397 62.2145 45.6021C62.1896 45.6644 62.1525 45.7356 62.1322 45.7599C62.1085 45.7891 62.087 45.8199 62.0679 45.8523C62.0529 45.8787 62.0034 45.9537 61.9579 46.019C61.8514 46.1717 61.8029 46.3139 61.8025 46.4746C61.8019 46.6752 61.7635 46.697 61.4451 46.6777C61.3033 46.6691 61.1161 46.6518 61.0291 46.6391C60.7463 46.5981 60.5112 46.6925 60.2605 46.9473C60.1628 47.0467 59.9603 47.2189 59.8105 47.3299C59.6608 47.4409 59.4955 47.5686 59.4435 47.6136C59.3915 47.6587 59.3347 47.6956 59.3173 47.6956C59.2998 47.6956 59.2594 47.724 59.2274 47.7587C59.1954 47.7934 59.1524 47.8218 59.1319 47.8218C59.1113 47.8218 59.0875 47.8331 59.0789 47.8469C59.0704 47.8609 59.0387 47.8723 59.0084 47.8724C58.9783 47.8724 58.9211 47.8894 58.8816 47.9102C58.842 47.9309 58.7721 47.9479 58.7262 47.9479C58.6803 47.9479 58.6358 47.9592 58.6272 47.973C58.6187 47.9869 58.5566 47.9983 58.4892 47.9983C58.4218 47.9983 58.3597 48.0097 58.3511 48.0235C58.3426 48.0374 58.2836 48.0487 58.2201 48.0487C58.1086 48.0487 57.6083 48.2018 57.5418 48.2563C57.5245 48.2704 57.5104 48.2755 57.5104 48.2677C57.5104 48.2598 57.4567 48.2762 57.3912 48.3041C57.3256 48.3319 57.2494 48.3639 57.2217 48.3751C56.91 48.5018 56.5017 48.714 56.4855 48.7577C56.481 48.7701 56.4569 48.7803 56.4322 48.7803C56.4074 48.7803 56.373 48.7973 56.3559 48.8181C56.3387 48.8389 56.3104 48.8559 56.2931 48.8559C56.2758 48.8559 56.2465 48.8741 56.2281 48.8964C56.2097 48.9186 56.1717 48.9471 56.1435 48.9598C56.0963 48.9809 56.0523 49.0067 55.858 49.1271C55.6962 49.2273 55.5876 49.3065 55.5425 49.3571C55.5163 49.3866 55.4809 49.4108 55.464 49.4108C55.4472 49.4108 55.4193 49.4278 55.4021 49.4487C55.3849 49.4695 55.3447 49.4865 55.3127 49.4865C55.2807 49.4865 55.2475 49.4979 55.2389 49.5118C55.2304 49.5257 55.1796 49.5369 55.126 49.5369C55.0725 49.5369 55.0224 49.5471 55.0148 49.5595C55.0071 49.5719 54.9585 49.588 54.9066 49.5952C54.8548 49.6025 54.7615 49.6206 54.6994 49.6357C54.4581 49.6941 54.231 49.7429 54.1408 49.7558C54.0889 49.7633 54.0403 49.7794 54.0326 49.7918C54.025 49.8042 54.0033 49.8144 53.9843 49.8144C53.931 49.8144 53.6312 49.9598 53.5956 50.0029C53.5781 50.0241 53.5505 50.0414 53.5342 50.0414C53.5179 50.0414 53.4662 50.0812 53.4194 50.1297C53.3725 50.1782 53.3201 50.218 53.3028 50.218C53.2855 50.218 53.241 50.2463 53.2036 50.281C53.1433 50.3374 53.1154 50.3438 52.9451 50.342C52.8401 50.3408 52.6865 50.3294 52.6037 50.3165C52.4995 50.3013 52.3949 50.2895 52.2899 50.2811C52.1808 50.2722 52.072 50.2599 51.9637 50.2442C51.7206 50.2071 51.2515 50.1832 50.7715 50.1833C50.3777 50.1833 50.2365 50.1973 49.9307 50.2663C49.5745 50.3467 49.5132 50.3614 49.479 50.3744C49.4583 50.3822 49.3905 50.402 49.3284 50.4185C49.2663 50.4349 49.1816 50.4582 49.1402 50.4703C49.0359 50.5004 48.9313 50.5296 48.8265 50.5579C48.6215 50.6045 48.5215 50.6337 48.45 50.6673C48.4016 50.6901 48.3452 50.7103 48.3244 50.7121C48.2684 50.7173 47.7676 50.9709 47.7096 51.0237C47.6819 51.0487 47.6455 51.0734 47.6286 51.0786C47.5885 51.0911 47.195 51.4808 47.195 51.5081C47.195 51.5197 47.1415 51.591 47.0759 51.6668C46.868 51.907 46.8296 51.971 46.765 52.1854C46.7219 52.3284 46.7211 52.8795 46.764 52.9226C46.7803 52.9389 46.7935 53.0061 46.7935 53.0717C46.7935 53.1375 46.8048 53.1984 46.8185 53.207C46.8324 53.2155 46.8437 53.2703 46.8437 53.3287C46.8437 53.4451 46.9119 53.6546 46.991 53.7815C47.0407 53.8611 47.0585 53.8971 47.1874 54.1781C47.2224 54.2543 47.261 54.3365 47.2732 54.3606C47.3134 54.4399 47.2967 54.4793 47.1955 54.5435C47.1152 54.5945 47.0636 54.6069 46.9317 54.6069C46.8415 54.6069 46.7481 54.5966 46.7242 54.5839C46.5516 54.4929 46.4416 54.4767 46.0972 54.4919C45.7317 54.5079 45.596 54.5321 45.413 54.6135C45.2433 54.689 45.2066 54.7025 45.1245 54.7198L44.9488 54.757C44.8936 54.7687 44.809 54.7908 44.7607 54.8061C44.6399 54.8444 44.5215 54.8409 44.4861 54.7981V54.798Z" fill="#D67900"/>
<path d="M31.1016 55.5C31.1016 55.5 31.3174 56.0004 31.6124 56.6104C31.9072 57.2203 32.2811 57.9397 32.5971 58.3778C32.8066 58.6682 33.0512 58.9441 33.345 59.1477C33.7216 59.4087 34.6035 59.6976 34.6035 59.6976C34.6035 59.6976 34.5705 58.8595 34.3893 58.4386C34.2196 58.0444 33.8481 57.5609 33.531 57.2728C32.7963 56.6057 32.1716 56.152 31.7306 55.8651C31.2896 55.5783 31.1016 55.5 31.1016 55.5ZM34.6816 56.4152C34.6816 56.4152 34.6996 56.7709 34.7416 57.2117C34.7835 57.6523 34.8493 58.178 34.9449 58.5179C35.0495 58.8876 35.2083 59.2396 35.416 59.5624C35.583 59.822 36.0257 60.2587 36.0257 60.2587C36.0257 60.2587 36.1948 59.7165 36.192 59.4371C36.1876 59.0136 36.0845 58.5853 35.9148 58.1976C35.7699 57.8664 35.5448 57.3651 35.2726 57.0023C35.0005 56.6395 34.6816 56.4152 34.6816 56.4152H34.6816ZM31.6082 59.7698C31.6082 59.7698 32.5864 60.7717 33.1801 61.1262C33.4625 61.2947 33.7781 61.4178 34.1011 61.4772C34.4031 61.5328 35.022 61.4772 35.022 61.4772C35.022 61.4772 34.9671 61.0894 34.5775 60.6315C34.2959 60.3007 33.745 60.0969 33.339 59.9453C32.5383 59.6465 31.6082 59.7698 31.6082 59.7698ZM34.8144 60.1064C34.8144 60.1064 35.3862 61.2834 35.7661 61.8114C36.0216 62.1666 36.3038 62.5137 36.6489 62.7817C37.7485 63.6358 38.3591 63.558 38.3591 63.558C38.3591 63.558 38.3147 62.9638 38.1936 62.6986C37.9371 62.1364 37.5253 61.6344 37.0489 61.2431C36.4025 60.7121 34.8144 60.1064 34.8144 60.1064ZM34.6076 63.3223C34.6076 63.3223 35.3191 64.0041 35.7247 64.2788C36.03 64.4855 36.3548 64.6747 36.7041 64.7916C37.0002 64.8908 37.3162 64.9315 37.6282 64.9442C38.392 64.9751 38.7591 64.861 38.7591 64.861C38.7591 64.861 38.7583 64.48 38.0971 63.9738C37.7105 63.6779 37.2334 63.4984 36.7592 63.3917C36.059 63.2341 34.6076 63.3223 34.6076 63.3223ZM37.3523 59.6074C37.3523 59.6074 37.6142 60.5814 37.7936 61.0352C37.9509 61.4327 38.1224 61.8302 38.3591 62.1857C38.5567 62.4822 38.8033 62.822 39.0808 63.0446C39.314 63.2317 39.8488 63.4194 39.8488 63.4194C39.8488 63.4194 39.8178 62.7251 39.7246 62.3936C39.6106 61.9877 39.439 61.5902 39.2005 61.2431C38.8994 60.8048 38.4723 60.4681 38.0833 60.1064C37.545 59.6059 37.3523 59.6074 37.3523 59.6074ZM38.6707 63.7852C38.6707 63.7852 39.2512 64.4498 39.5827 64.7385C39.9844 65.0882 40.418 65.4053 40.8777 65.6733C41.1436 65.8282 41.4215 65.9721 41.7167 66.0582C42.0173 66.1458 42.334 66.1802 42.6469 66.1865C42.8362 66.1904 43.2123 66.1316 43.2123 66.1316C43.2123 66.1316 42.8696 65.4499 42.6104 65.1783C42.3081 64.8615 41.9241 64.6248 41.5343 64.4268C41.0298 64.1706 40.4832 63.99 39.9293 63.8769C39.5171 63.7928 38.6708 63.7852 38.6708 63.7852H38.6707ZM41.5343 63.3454C41.5343 63.3454 42.0371 64.1167 42.3551 64.4452C42.669 64.7693 43.0357 65.0415 43.4129 65.2884C43.7525 65.5106 44.0984 65.7483 44.4891 65.8566C44.8119 65.9461 45.4921 65.9116 45.4921 65.9116C45.4921 65.9116 45.3633 65.3606 45.2186 65.1234C45.0027 64.7697 44.6973 64.4663 44.3614 64.2252C43.9142 63.9043 43.3931 63.6839 42.8657 63.5286C42.4359 63.4021 41.5343 63.3454 41.5343 63.3454ZM39.2907 66.9381C39.2907 66.9381 39.7743 67.3178 40.5494 67.5429C40.9327 67.6543 41.3196 67.7247 41.7167 67.7629C42.0561 67.7956 42.7283 67.7522 43.0664 67.7079C43.4782 67.6541 43.9419 67.3779 43.9419 67.3779C43.9419 67.3779 43.6344 66.9225 43.3036 66.7731C42.7255 66.512 41.8852 66.4226 41.2519 66.4437C39.9809 66.4861 39.2907 66.9381 39.2907 66.9381ZM43.4724 66.3481C43.4724 66.3481 44.5657 67.2301 45.1308 67.5426C45.6316 67.8195 46.1746 68.0357 46.734 68.1537C47.7261 68.3631 48.6687 68.2092 48.6687 68.2092C48.6687 68.2092 48.5165 67.7673 48.3647 67.5981C47.9625 67.1499 47.4088 66.8326 46.8445 66.6259C46.1896 66.3859 45.4676 66.3863 44.7715 66.3481C44.3758 66.3264 43.4724 66.3481 43.4724 66.3481ZM47.0932 65.5703C47.0932 65.5703 47.9876 66.9253 48.5858 67.4592C48.9663 67.7989 49.4088 68.0844 49.885 68.2648C50.2959 68.4206 51.2205 68.487 51.2205 68.487C51.2205 68.487 51.2386 68.1825 51.1555 67.9766C50.9814 67.5458 50.5876 67.098 50.2166 66.8203C49.6416 66.3898 48.9851 66.0615 48.3095 65.8203C47.9195 65.6812 47.0932 65.5703 47.0932 65.5703ZM45.6489 69.2775C45.6489 69.2775 46.8296 69.5906 47.4341 69.662C47.8352 69.7093 48.2428 69.7216 48.6454 69.6894C49.0146 69.6599 49.4021 69.6442 49.7384 69.488C50.2437 69.2533 50.5126 68.9755 50.5126 68.9755C50.2245 68.6277 49.7168 68.5505 49.3376 68.4994C48.8892 68.4399 48.4299 68.4563 47.9806 68.5086C47.464 68.5687 46.9479 68.677 46.4595 68.8564C46.1738 68.9613 45.6489 69.2775 45.6489 69.2775ZM51.0108 68.9386C51.0972 68.9891 51.1467 69.0304 51.1775 69.0669C51.1775 69.0669 52.0118 69.2848 52.4161 69.4331C52.7214 69.545 53.0366 69.6483 53.3087 69.8267C53.6056 70.0214 53.8488 70.2906 54.0921 70.5498C54.3688 70.8449 54.8571 71.4926 54.8571 71.4926L54.9848 71.6873L55.0811 71.6822C55.0811 71.6822 55.1356 71.1179 55.2253 70.8748C55.3146 70.6328 55.5755 70.4688 55.5755 70.4688L55.5807 70.3356C54.7852 69.8524 53.9118 69.3576 53.0628 69.1493C52.6591 69.0513 52.2476 68.9745 51.8332 68.948C51.5665 68.9308 51.0108 68.9386 51.0108 68.9386ZM34.714 62.2418C34.6563 62.4242 34.7065 62.6476 34.811 62.8076C34.9214 62.9764 35.1211 63.0885 35.3157 63.1393C35.4036 63.1622 35.5057 63.1594 35.5875 63.1197C35.6824 63.0737 35.7711 62.9871 35.8011 62.8857C35.8458 62.7339 35.7991 62.5561 35.7234 62.4174C35.6396 62.264 35.4962 62.1327 35.3351 62.0663C35.2033 62.0119 35.041 61.9949 34.9081 62.0467C34.8227 62.08 34.7416 62.1542 34.7139 62.2419L34.714 62.2418ZM36.5541 59.529C36.4213 59.6843 36.3664 59.9369 36.3886 60.1534C36.4119 60.382 36.5405 60.5992 36.6918 60.7515C36.7601 60.8204 36.8526 60.8705 36.9435 60.8726C37.0488 60.8751 37.1667 60.8332 37.2387 60.7458C37.3465 60.6151 37.384 60.4104 37.3782 60.2304C37.3718 60.0314 37.3022 59.8238 37.1878 59.6729C37.0941 59.5495 36.9566 59.4481 36.8147 59.4317C36.7236 59.4213 36.6181 59.4545 36.5541 59.5291V59.529ZM38.7597 65.868C38.8388 66.045 39.0364 66.1837 39.2353 66.2387C39.4453 66.2967 39.6903 66.2535 39.8881 66.1666C39.9776 66.1275 40.061 66.0595 40.1015 65.9762C40.1486 65.8796 40.1624 65.756 40.1166 65.659C40.0483 65.5138 39.8852 65.4077 39.7252 65.3504C39.5484 65.2869 39.3369 65.279 39.1561 65.3322C39.0081 65.3757 38.8606 65.4677 38.7858 65.5931C38.7377 65.6737 38.7216 65.783 38.7597 65.868ZM44.0062 68.5414C44.1132 68.7018 44.3288 68.804 44.5313 68.8235C44.7451 68.8441 44.9756 68.7587 45.153 68.6387C45.2332 68.5844 45.3026 68.5029 45.3278 68.4138C45.3571 68.3105 45.3495 68.1864 45.2884 68.0987C45.1973 67.9677 45.0209 67.8918 44.8557 67.8632C44.6731 67.8315 44.4665 67.8607 44.2999 67.9446C44.1636 68.0133 44.0361 68.1295 43.9847 68.2662C43.9518 68.354 43.9548 68.4643 44.0062 68.5414ZM40.0932 62.827C40.0307 63.025 40.0851 63.2676 40.1986 63.4413C40.3186 63.6246 40.5355 63.7463 40.7468 63.8014C40.8422 63.8263 41.0696 63.8232 41.1585 63.7801C41.2614 63.7301 41.2413 63.6361 41.2738 63.5259C41.3225 63.3613 41.2717 63.1683 41.1895 63.0176C41.0986 62.8511 40.9428 62.7084 40.7678 62.6363C40.6247 62.5774 40.4484 62.5589 40.3041 62.6151C40.2114 62.6512 40.1233 62.7317 40.0932 62.827ZM45.791 65.2114C45.707 65.386 45.7282 65.6274 45.8141 65.8158C45.9049 66.0148 46.0953 66.1756 46.2886 66.2723C46.3761 66.3158 46.4815 66.3362 46.5711 66.314C46.6749 66.2882 46.778 66.2193 46.8226 66.1217C46.8892 65.9757 46.8653 65.7821 46.8062 65.622C46.7408 65.4451 46.6111 65.2772 46.4542 65.1722C46.3259 65.0862 46.1611 65.0318 46.0173 65.0548C45.925 65.0696 45.8314 65.1275 45.791 65.2114Z" fill="#4D5B2D"/>
<path d="M75.2793 55.5C75.2793 55.5 75.0635 56.0004 74.7685 56.6104C74.4736 57.2203 74.0997 57.9397 73.7837 58.3778C73.5742 58.6682 73.3296 58.9441 73.0359 59.1477C72.6593 59.4087 71.7774 59.6976 71.7774 59.6976C71.7774 59.6976 71.8104 58.8595 71.9915 58.4386C72.1612 58.0444 72.5327 57.5609 72.8499 57.2728C73.5845 56.6057 74.2093 56.152 74.6503 55.8651C75.0913 55.5783 75.2793 55.5 75.2793 55.5ZM71.6993 56.4152C71.6993 56.4152 71.6812 56.7709 71.6393 57.2117C71.5974 57.6523 71.5315 58.178 71.436 58.5179C71.3313 58.8876 71.1725 59.2396 70.9649 59.5624C70.7979 59.822 70.3551 60.2587 70.3551 60.2587C70.3551 60.2587 70.186 59.7165 70.1889 59.4371C70.1932 59.0136 70.2964 58.5853 70.466 58.1976C70.611 57.8664 70.836 57.3651 71.1082 57.0023C71.3804 56.6395 71.6992 56.4152 71.6992 56.4152H71.6993ZM74.7726 59.7698C74.7726 59.7698 73.7945 60.7717 73.2007 61.1262C72.9184 61.2947 72.6027 61.4178 72.2797 61.4772C71.9778 61.5328 71.3589 61.4772 71.3589 61.4772C71.3589 61.4772 71.4138 61.0894 71.8034 60.6315C72.085 60.3007 72.6359 60.0969 73.0419 59.9453C73.8425 59.6465 74.7726 59.7698 74.7726 59.7698ZM71.5665 60.1064C71.5665 60.1064 70.9946 61.2834 70.6148 61.8114C70.3592 62.1666 70.077 62.5137 69.732 62.7817C68.6324 63.6358 68.0217 63.558 68.0217 63.558C68.0217 63.558 68.0661 62.9638 68.1872 62.6986C68.4437 62.1364 68.8555 61.6344 69.332 61.2431C69.9784 60.7121 71.5665 60.1064 71.5665 60.1064ZM71.7733 63.3223C71.7733 63.3223 71.0618 64.0041 70.6561 64.2788C70.3509 64.4855 70.026 64.6747 69.6768 64.7916C69.3806 64.8908 69.0646 64.9315 68.7526 64.9442C67.9889 64.9751 67.6217 64.861 67.6217 64.861C67.6217 64.861 67.6225 64.48 68.2837 63.9738C68.6704 63.6779 69.1475 63.4984 69.6216 63.3917C70.3219 63.2341 71.7733 63.3223 71.7733 63.3223ZM69.0285 59.6074C69.0285 59.6074 68.7666 60.5814 68.5872 61.0352C68.43 61.4327 68.2585 61.8302 68.0217 62.1857C67.8241 62.4822 67.5775 62.822 67.3 63.0446C67.0669 63.2317 66.532 63.4194 66.532 63.4194C66.532 63.4194 66.563 62.7251 66.6562 62.3936C66.7702 61.9877 66.9419 61.5902 67.1804 61.2431C67.4815 60.8048 67.9085 60.4681 68.2975 60.1064C68.8359 59.6059 69.0285 59.6074 69.0285 59.6074ZM67.7101 63.7852C67.7101 63.7852 67.1296 64.4498 66.7981 64.7385C66.3965 65.0882 65.9629 65.4053 65.5031 65.6733C65.2373 65.8282 64.9594 65.9721 64.6641 66.0582C64.3635 66.1458 64.0469 66.1802 63.734 66.1865C63.5446 66.1904 63.1685 66.1316 63.1685 66.1316C63.1685 66.1316 63.5113 65.4499 63.7705 65.1783C64.0728 64.8615 64.4567 64.6248 64.8465 64.4268C65.351 64.1706 65.8976 63.99 66.4515 63.8769C66.8638 63.7928 67.71 63.7852 67.71 63.7852H67.7101ZM64.8465 63.3454C64.8465 63.3454 64.3438 64.1167 64.0258 64.4452C63.7119 64.7693 63.3451 65.0415 62.968 65.2884C62.6284 65.5106 62.2825 65.7483 61.8918 65.8566C61.569 65.9461 60.8887 65.9116 60.8887 65.9116C60.8887 65.9116 61.0175 65.3606 61.1623 65.1234C61.3781 64.7697 61.6835 64.4663 62.0195 64.2252C62.4666 63.9043 62.9878 63.6839 63.5151 63.5286C63.945 63.4021 64.8465 63.3454 64.8465 63.3454ZM67.0901 66.9381C67.0901 66.9381 66.6065 67.3178 65.8315 67.5429C65.4481 67.6543 65.0613 67.7247 64.6641 67.7629C64.3248 67.7956 63.6525 67.7522 63.3145 67.7079C62.9026 67.6541 62.439 67.3779 62.439 67.3779C62.439 67.3779 62.7465 66.9225 63.0773 66.7731C63.6554 66.512 64.4956 66.4226 65.129 66.4437C66.4 66.4861 67.0901 66.9381 67.0901 66.9381ZM62.9085 66.3481C62.9085 66.3481 61.8151 67.2301 61.25 67.5426C60.7493 67.8195 60.2062 68.0357 59.6469 68.1537C58.6547 68.3631 57.7121 68.2092 57.7121 68.2092C57.7121 68.2092 57.8644 67.7673 58.0161 67.5981C58.4184 67.1499 58.972 66.8326 59.5364 66.6259C60.1913 66.3859 60.9133 66.3863 61.6094 66.3481C62.005 66.3264 62.9085 66.3481 62.9085 66.3481ZM59.2876 65.5703C59.2876 65.5703 58.3932 66.9253 57.795 67.4592C57.4146 67.7989 56.972 68.0844 56.4959 68.2648C56.085 68.4206 55.1604 68.487 55.1604 68.487C55.1604 68.487 55.1422 68.1825 55.2254 67.9766C55.3995 67.5458 55.7932 67.098 56.1642 66.8203C56.7393 66.3898 57.3957 66.0615 58.0714 65.8203C58.4614 65.6812 59.2876 65.5703 59.2876 65.5703ZM60.732 69.2775C60.732 69.2775 59.5512 69.5906 58.9468 69.662C58.5456 69.7093 58.138 69.7216 57.7355 69.6894C57.3662 69.6599 56.9787 69.6442 56.6425 69.488C56.1371 69.2533 55.8683 68.9755 55.8683 68.9755C56.1564 68.6277 56.6641 68.5505 57.0433 68.4994C57.4916 68.4399 57.951 68.4563 58.4003 68.5086C58.9169 68.5687 59.433 68.677 59.9214 68.8564C60.207 68.9613 60.732 69.2775 60.732 69.2775ZM55.37 68.9386C55.2836 68.9891 55.2341 69.0304 55.2034 69.0669C55.2034 69.0669 54.369 69.2848 53.9647 69.4331C53.6595 69.545 53.3442 69.6483 53.0721 69.8267C52.7752 70.0214 52.532 70.2906 52.2888 70.5498C52.012 70.8449 51.5238 71.4926 51.5238 71.4926L51.396 71.6873L51.2997 71.6822C51.2997 71.6822 51.2452 71.1179 51.1556 70.8748C51.0663 70.6328 50.8054 70.4688 50.8054 70.4688L50.8001 70.3356C51.5956 69.8524 52.4691 69.3576 53.3181 69.1493C53.7217 69.0513 54.1332 68.9745 54.5476 68.948C54.8144 68.9308 55.37 68.9386 55.37 68.9386ZM71.6669 62.2418C71.7245 62.4242 71.6744 62.6476 71.5699 62.8076C71.4595 62.9764 71.2597 63.0885 71.0651 63.1393C70.9772 63.1622 70.8751 63.1594 70.7934 63.1197C70.6985 63.0737 70.6098 62.9871 70.5798 62.8857C70.535 62.7339 70.5818 62.5561 70.6575 62.4174C70.7412 62.264 70.8846 62.1327 71.0457 62.0663C71.1775 62.0119 71.3399 61.9949 71.4728 62.0467C71.5581 62.08 71.6392 62.1542 71.667 62.2419L71.6669 62.2418ZM69.8267 59.529C69.9595 59.6843 70.0145 59.9369 69.9923 60.1534C69.969 60.382 69.8404 60.5992 69.689 60.7515C69.6207 60.8204 69.5282 60.8705 69.4374 60.8726C69.332 60.8751 69.2141 60.8332 69.1421 60.7458C69.0344 60.6151 68.9969 60.4104 69.0026 60.2304C69.009 60.0314 69.0786 59.8238 69.193 59.6729C69.2867 59.5495 69.4242 59.4481 69.5661 59.4317C69.6572 59.4213 69.7628 59.4545 69.8267 59.5291V59.529ZM67.6211 65.868C67.542 66.045 67.3445 66.1837 67.1455 66.2387C66.9355 66.2967 66.6905 66.2535 66.4927 66.1666C66.4033 66.1275 66.3199 66.0595 66.2794 65.9762C66.2322 65.8796 66.2185 65.756 66.2642 65.659C66.3325 65.5138 66.4956 65.4077 66.6556 65.3504C66.8325 65.2869 67.044 65.279 67.2248 65.3322C67.3728 65.3757 67.5202 65.4677 67.595 65.5931C67.6431 65.6737 67.6592 65.783 67.6211 65.868ZM62.3746 68.5414C62.2676 68.7018 62.052 68.804 61.8495 68.8235C61.6358 68.8441 61.4052 68.7587 61.2279 68.6387C61.1476 68.5844 61.0783 68.5029 61.053 68.4138C61.0237 68.3105 61.0314 68.1864 61.0925 68.0987C61.1835 67.9677 61.36 67.8918 61.5251 67.8632C61.7077 67.8315 61.9144 67.8607 62.081 67.9446C62.2173 68.0133 62.3448 68.1295 62.3961 68.2662C62.429 68.354 62.426 68.4643 62.3746 68.5414ZM66.2876 62.827C66.3501 63.025 66.2957 63.2676 66.1822 63.4413C66.0623 63.6246 65.8454 63.7463 65.634 63.8014C65.5386 63.8263 65.3112 63.8232 65.2224 63.7801C65.1195 63.7301 65.1395 63.6361 65.107 63.5259C65.0584 63.3613 65.1091 63.1683 65.1914 63.0176C65.2822 62.8511 65.438 62.7084 65.613 62.6363C65.7561 62.5774 65.9325 62.5589 66.0768 62.6151C66.1695 62.6512 66.2575 62.7317 66.2876 62.827ZM60.5899 65.2114C60.6739 65.386 60.6526 65.6274 60.5667 65.8158C60.476 66.0148 60.2855 66.1756 60.0922 66.2723C60.0048 66.3158 59.8994 66.3362 59.8098 66.314C59.706 66.2882 59.6029 66.2193 59.5583 66.1217C59.4916 65.9757 59.5155 65.7821 59.5746 65.622C59.64 65.4451 59.7698 65.2772 59.9266 65.1722C60.055 65.0862 60.2198 65.0318 60.3635 65.0548C60.4559 65.0696 60.5495 65.1275 60.5899 65.2114Z" fill="#4D5B2D"/>
</g>
</svg>
