<svg width="100" height="90" viewBox="0 0 100 90" fill="none" xmlns="http://www.w3.org/2000/svg">
<g clip-path="url(#clip0_673_5376)">
<path d="M0 0H100V90H0V0Z" fill="white"/>
<path d="M50 0H100V90H50V0Z" fill="#CF142B"/>
<path d="M11.4852 5.37793H15.9297V11.0773C16.0984 11.0612 16.2725 11.0986 16.4385 11.1867C16.6045 11.2749 16.758 11.4113 16.887 11.5855C17.0161 11.7597 17.1171 11.9669 17.1824 12.191C17.2477 12.4152 17.2754 12.6502 17.2635 12.8779H21.4852V18.8779H17.2635C17.2754 19.1056 17.2477 19.3407 17.1824 19.5648C17.1171 19.789 17.0161 19.9962 16.887 20.1704C16.758 20.3445 16.6045 20.481 16.4385 20.5691C16.2725 20.6572 16.0984 20.6947 15.9297 20.6785V26.3779H11.4852V20.6785C11.3166 20.6947 11.1425 20.6572 10.9764 20.5691C10.8104 20.481 10.6569 20.3445 10.5279 20.1704C10.3989 19.9962 10.2978 19.789 10.2325 19.5648C10.1672 19.3407 10.1395 19.1056 10.1515 18.8779H5.92969V12.8779H10.1515C10.1395 12.6502 10.1672 12.4152 10.2325 12.191C10.2978 11.9669 10.3989 11.7597 10.5279 11.5855C10.6569 11.4113 10.8104 11.2749 10.9764 11.1867C11.1425 11.0986 11.3166 11.0612 11.4852 11.0773V5.37793Z" stroke="#CF142B" stroke-width="0.1"/>
<path d="M15.9033 11.0798C16.0755 11.0576 16.2544 11.0918 16.4253 11.1796C16.5962 11.2674 16.7543 11.4063 16.8867 11.5851C17.0191 11.7638 17.122 11.9772 17.1871 12.208C17.2521 12.4387 17.2774 12.6802 17.261 12.9126V18.8423C17.2774 19.0748 17.2521 19.3163 17.1871 19.547C17.122 19.7778 17.0191 19.9912 16.8867 20.1699C16.7543 20.3487 16.5962 20.4876 16.4253 20.5754C16.2544 20.6632 16.0755 20.6974 15.9033 20.6751H11.511C11.3387 20.6974 11.1599 20.6632 10.989 20.5754C10.8181 20.4876 10.66 20.3487 10.5276 20.1699C10.3952 19.9912 10.2923 19.7778 10.2272 19.547C10.1622 19.3163 10.1369 19.0748 10.1533 18.8423V12.9126C10.1369 12.6802 10.1622 12.4387 10.2272 12.208C10.2923 11.9772 10.3952 11.7638 10.5276 11.5851C10.66 11.4063 10.8181 11.2674 10.989 11.1796C11.1599 11.0918 11.3387 11.0576 11.511 11.0798H15.9033Z" fill="white"/>
<path d="M11.5106 5.41309H15.903V26.3428H11.5106V5.41309ZM5.95508 12.9131H21.4586V18.8428H5.95508V12.9131Z" fill="white" stroke="black" stroke-width="0.1"/>
<path d="M11.7626 5.75293H15.6515V26.0029H11.7626V5.75293ZM6.20703 13.2529H21.207V18.5029H6.20703V13.2529Z" fill="white" stroke="black" stroke-width="0.1"/>
<path d="M13.7086 20.5654C15.6262 20.5654 17.1808 18.4668 17.1808 15.8779C17.1808 13.2891 15.6262 11.1904 13.7086 11.1904C11.7909 11.1904 10.2363 13.2891 10.2363 15.8779C10.2363 18.4668 11.7909 20.5654 13.7086 20.5654Z" fill="white" stroke="black" stroke-width="0.1"/>
<path d="M13.7081 19.3467C15.1272 19.3467 16.2776 17.7937 16.2776 15.8779C16.2776 13.9622 15.1272 12.4092 13.7081 12.4092C12.2891 12.4092 11.1387 13.9622 11.1387 15.8779C11.1387 17.7937 12.2891 19.3467 13.7081 19.3467Z" fill="white" stroke="black" stroke-width="0.1"/>
<path d="M17.0551 12.1206C16.9347 12.2451 16.7057 12.563 16.5668 12.7959L16.4377 12.6875C16.6146 12.481 16.8598 12.1748 16.9954 11.9565L17.0551 12.1206ZM16.9455 11.8496C16.7274 11.936 16.3108 12.1016 16.1328 12.2539L16.0938 12.1777C16.1686 12.0327 16.2533 11.4365 16.25 11.2666L16.3856 11.3076C16.3411 11.4541 16.2977 11.7676 16.2858 11.9712C16.4258 11.9375 16.7578 11.791 16.8522 11.6987L16.9455 11.8496Z" fill="white" stroke="black" stroke-width="0.1" stroke-linejoin="round"/>
<path d="M17.2243 12.5201H17.0522C17.0676 12.3975 17.0429 12.2438 16.9822 12.0841C16.9214 11.9244 16.8281 11.7679 16.7174 11.6401C16.6068 11.5123 16.4852 11.4205 16.3723 11.3798C16.2595 11.3391 16.1621 11.3517 16.0959 11.4157C16.0297 11.4796 15.9985 11.5912 16.0074 11.7322C16.0164 11.8732 16.0649 12.0355 16.1451 12.1927C16.2254 12.3499 16.3327 12.4928 16.4496 12.5983C16.5665 12.7038 16.6862 12.7657 16.7893 12.774L16.911 12.5781L17.0608 12.7804L16.8932 13.0066C16.7368 12.9752 16.583 12.8994 16.442 12.7843C16.301 12.6691 16.1762 12.5174 16.076 12.3392C15.9758 12.161 15.9026 11.9607 15.8612 11.7516C15.8198 11.5425 15.8113 11.3296 15.8362 11.1272C15.9841 11.0941 16.1396 11.1048 16.2925 11.1587C16.4454 11.2127 16.5922 11.3086 16.7233 11.4402C16.8544 11.5717 16.9669 11.736 17.0532 11.9221C17.1396 12.1083 17.1979 12.3121 17.2243 12.5201Z" fill="white" stroke="black" stroke-width="0.1" stroke-linejoin="round"/>
<path d="M16.4905 20.3955C16.3982 20.2329 16.1628 19.9238 15.9902 19.7363L16.0705 19.562C16.2235 19.8008 16.4503 20.1318 16.612 20.3149L16.4905 20.3955ZM16.6912 20.2476C16.6272 19.9531 16.5046 19.3906 16.3917 19.1504L16.4481 19.0977C16.5556 19.1987 16.9972 19.313 17.123 19.3086L17.0927 19.4917C16.9842 19.4316 16.752 19.373 16.6011 19.3569C16.6261 19.5459 16.7346 19.9941 16.803 20.1216L16.6912 20.2476Z" fill="white" stroke="black" stroke-width="0.1" stroke-linejoin="round"/>
<path d="M16.1945 20.6252V20.3929C16.2854 20.4137 16.3992 20.3803 16.5175 20.2983C16.6358 20.2163 16.7517 20.0903 16.8464 19.9409C16.9411 19.7915 17.009 19.6273 17.0392 19.475C17.0694 19.3227 17.06 19.1912 17.0126 19.1018C16.9652 19.0124 16.8826 18.9703 16.7782 18.9824C16.6737 18.9945 16.5535 19.06 16.4371 19.1683C16.3206 19.2767 16.2147 19.4215 16.1366 19.5793C16.0584 19.7372 16.0126 19.8988 16.0065 20.038L16.1515 20.2022L16.0017 20.4045L15.8341 20.1781C15.8574 19.9671 15.9136 19.7594 15.9988 19.5691C16.0841 19.3788 16.1966 19.2103 16.3285 19.075C16.4605 18.9398 16.6089 18.8409 16.7638 18.785C16.9187 18.7291 17.0764 18.7176 17.2263 18.7512C17.2509 18.9508 17.2429 19.1608 17.2029 19.3672C17.163 19.5736 17.0919 19.7718 16.9945 19.9488C16.897 20.1259 16.7753 20.2776 16.6375 20.3942C16.4996 20.5108 16.3486 20.5895 16.1945 20.6252Z" fill="white" stroke="black" stroke-width="0.1" stroke-linejoin="round"/>
<path d="M10.3609 19.6343C10.4813 19.5098 10.7103 19.1919 10.8492 18.959L10.9783 19.0674C10.8014 19.2739 10.5562 19.5801 10.4206 19.7983L10.3609 19.6343ZM10.4705 19.9053C10.6886 19.8188 11.1053 19.6533 11.2832 19.501L11.3223 19.5771C11.2474 19.7222 11.1628 20.3184 11.166 20.4883L11.0304 20.4473C11.0749 20.3008 11.1183 19.9873 11.1302 19.7837C10.9902 19.8174 10.6582 19.9639 10.5638 20.0562L10.4705 19.9053Z" fill="white" stroke="black" stroke-width="0.1" stroke-linejoin="round"/>
<path d="M10.1917 19.2347H10.3638C10.3484 19.3574 10.3731 19.5111 10.4338 19.6708C10.4946 19.8305 10.5879 19.987 10.6986 20.1148C10.8093 20.2426 10.9309 20.3343 11.0437 20.3751C11.1565 20.4158 11.2539 20.4032 11.3201 20.3392C11.3864 20.2752 11.4175 20.1637 11.4086 20.0227C11.3997 19.8817 11.3511 19.7194 11.2709 19.5622C11.1906 19.405 11.0833 19.2621 10.9664 19.1566C10.8495 19.0511 10.7298 18.9892 10.6267 18.9809L10.505 19.1767L10.3552 18.9744L10.5228 18.7483C10.6792 18.7796 10.833 18.8555 10.974 18.9706C11.115 19.0857 11.2398 19.2375 11.34 19.4157C11.4402 19.5938 11.5134 19.7942 11.5548 20.0033C11.5962 20.2124 11.6047 20.4253 11.5798 20.6277C11.432 20.6608 11.2765 20.6501 11.1236 20.5961C10.9707 20.5422 10.8238 20.4463 10.6927 20.3147C10.5616 20.1831 10.4491 20.0189 10.3628 19.8327C10.2764 19.6466 10.2181 19.4428 10.1917 19.2347Z" fill="white" stroke="black" stroke-width="0.1" stroke-linejoin="round"/>
<path d="M10.9236 11.3604C11.0158 11.5229 11.2513 11.832 11.4238 12.0195L11.3435 12.1938C11.1905 11.9551 10.9638 11.624 10.8021 11.4409L10.9236 11.3604ZM10.7229 11.5083C10.7869 11.8027 10.9095 12.3652 11.0224 12.6055L10.9659 12.6582C10.8585 12.5571 10.4169 12.4429 10.291 12.4473L10.3214 12.2642C10.4299 12.3242 10.6621 12.3828 10.8129 12.3989C10.788 12.21 10.6795 11.7617 10.6111 11.6343L10.7229 11.5083Z" fill="white" stroke="black" stroke-width="0.1" stroke-linejoin="round"/>
<path d="M11.2196 11.1306V11.363C11.1287 11.3422 11.0149 11.3755 10.8966 11.4576C10.7782 11.5396 10.6623 11.6655 10.5677 11.8149C10.473 11.9644 10.405 12.1285 10.3749 12.2808C10.3447 12.4331 10.3541 12.5646 10.4014 12.654C10.4488 12.7435 10.5314 12.7855 10.6359 12.7735C10.7403 12.7614 10.8605 12.6959 10.977 12.5875C11.0934 12.4792 11.1993 12.3344 11.2775 12.1765C11.3556 12.0187 11.4015 11.8571 11.4076 11.7179L11.2625 11.5537L11.4124 11.3514L11.5799 11.5777C11.5567 11.7888 11.5005 11.9965 11.4152 12.1868C11.3299 12.3771 11.2175 12.5456 11.0855 12.6808C10.9536 12.8161 10.8051 12.915 10.6503 12.9709C10.4954 13.0267 10.3377 13.0382 10.1878 13.0046C10.1632 12.805 10.1712 12.5951 10.2111 12.3887C10.2511 12.1823 10.3221 11.984 10.4196 11.807C10.5171 11.63 10.6387 11.4782 10.7766 11.3616C10.9145 11.2451 11.0654 11.1663 11.2196 11.1306Z" fill="white" stroke="black" stroke-width="0.1" stroke-linejoin="round"/>
<path d="M10.9501 18.4999C10.872 18.3154 10.7689 18.0795 10.7125 18.018C10.7472 17.9858 10.7938 17.9389 10.8177 17.9301C10.8166 18.0473 10.9479 18.2905 10.9479 18.2905L11.1411 18.1191C11.0868 18.0063 11.0391 17.9199 11 17.8862C11.0477 17.8393 11.0987 17.7998 11.1129 17.7954C11.1139 17.8525 11.1389 17.9477 11.2127 18.0649C11.2127 18.0649 11.3928 17.936 11.4514 17.8364L11.5274 18.0034C11.4427 18.0253 11.0629 18.3447 10.9501 18.4999ZM10.6821 16.2778C10.4792 16.3276 10.3761 16.5605 10.4108 16.8227C10.4455 17.0879 10.6213 17.2695 10.8145 17.2255C11.0076 17.1801 11.1172 16.9399 11.0803 16.6616C11.0434 16.3833 10.885 16.228 10.6821 16.2778ZM10.7114 16.436C10.8741 16.3964 11.0109 16.5034 11.0336 16.6733C11.0564 16.8432 10.9555 17.0117 10.7917 17.0512C10.6278 17.0908 10.4976 16.9502 10.4792 16.8081C10.4596 16.663 10.5475 16.4755 10.7114 16.436ZM11.1085 14.8247C11.0412 14.9682 10.8926 15.1001 10.7613 15.2217C10.7428 15.0957 10.6734 15.0151 10.5931 15.0078C10.5074 15.0019 10.4195 15.0942 10.4043 15.1557C10.3826 15.2407 10.3555 15.6054 10.3555 15.6054C10.5247 15.5879 10.8948 15.6274 11.0217 15.6904L11.0369 15.497C10.9533 15.5263 10.7645 15.4736 10.7645 15.4736L10.7689 15.3886L10.9642 15.1806C10.9892 15.1543 11.1356 14.9697 11.14 14.8379C11.1411 14.7969 11.115 14.8071 11.1085 14.8247ZM10.7168 15.4707C10.6398 15.4736 10.4792 15.4619 10.4347 15.4355C10.452 15.226 10.4998 15.1513 10.5822 15.1616C10.6582 15.1718 10.7385 15.2304 10.7168 15.4707ZM11.4568 12.875C11.3093 12.8911 11.1248 13.0786 11.1291 13.2397C11.1302 13.3247 11.1519 13.4419 11.2355 13.5268C11.3179 13.6118 11.4037 13.6367 11.472 13.6191C11.5382 13.603 11.6478 13.4785 11.6467 13.4097C11.6467 13.3423 11.5295 13.1548 11.4557 13.1548L11.5784 12.9775C11.6098 13.0801 11.7357 13.2295 11.7823 13.2485C11.7292 13.4199 11.663 13.5986 11.5241 13.685C11.3852 13.7729 11.2409 13.7685 11.1096 13.6015C10.9859 13.4433 11.0336 13.1387 11.1118 13.02C11.1975 12.8896 11.357 12.834 11.3603 12.7329L11.4568 12.875ZM12.1491 11.8892L12.1751 12.5542C12.1751 12.5542 12.1849 12.79 12.1448 12.9365L12.2978 12.7915C12.2381 12.727 12.25 12.5293 12.25 12.5293L12.4974 12.3506C12.4974 12.3506 12.6146 12.4517 12.6027 12.5747L12.8132 12.459C12.6906 12.396 12.5386 12.251 12.5386 12.251L12.1491 11.8892ZM12.2283 12.0957L12.454 12.2978L12.2337 12.4575L12.2283 12.0957ZM13.3329 11.4014C13.3047 11.564 13.3351 11.8848 13.3796 12.1514C13.5326 12.1323 13.6498 12.1118 13.7018 12.0239L13.716 12.2436C13.5651 12.2436 13.3991 12.2671 13.2472 12.2993C13.2494 11.999 13.2266 11.605 13.1636 11.4351L13.3329 11.4014ZM14.482 11.4995C14.4115 11.6372 14.3529 11.9507 14.3225 12.2202C14.4701 12.2788 14.5851 12.3169 14.6578 12.2598L14.6111 12.4722C14.4712 12.3989 14.3095 12.3374 14.1597 12.292C14.2422 12.0151 14.3279 11.6357 14.316 11.4482L14.482 11.4995ZM15.6441 12.21L15.2144 12.5395C15.2144 12.5395 15.0625 12.6582 14.9475 12.6758L15.1114 12.793C15.1276 12.6934 15.2644 12.6186 15.2644 12.6186L15.4944 12.8369C15.4944 12.8369 15.4792 13.0259 15.3924 13.0654L15.5628 13.2676C15.5508 13.0918 15.5779 12.8413 15.5779 12.8413L15.6441 12.21ZM15.5421 12.3975L15.5085 12.7622L15.3034 12.5674L15.5421 12.3975ZM15.872 13.7627L15.8047 13.5913C15.9154 13.5796 16.2485 13.3159 16.4015 13.1811L16.4254 13.2397L16.2822 14.123C16.4102 14.0542 16.6131 13.9106 16.6684 13.8315L16.7444 14.0263C16.6023 13.9985 16.3386 14.1743 16.1389 14.3384L16.1194 14.2915L16.242 13.4316C16.242 13.4316 15.9111 13.6338 15.872 13.7627ZM16.8811 15.04C16.8681 14.9096 16.8659 14.8203 16.8193 14.791L16.8138 14.7368L16.9321 14.7104C16.981 14.8818 17.0363 15.3593 17.0287 15.4824L16.9072 15.5088L16.9017 15.4633C16.9419 15.4018 16.9017 15.1762 16.9017 15.1762C16.7216 15.2011 16.408 15.27 16.3635 15.3535L16.3353 15.1279C16.3993 15.1572 16.7151 15.1118 16.8811 15.04ZM16.2984 16.9795C16.3657 16.8359 16.5165 16.7055 16.6478 16.5854C16.6663 16.7114 16.7346 16.7934 16.816 16.7993C16.9017 16.8066 16.9896 16.7172 17.0048 16.6543C17.0276 16.5693 17.0558 16.206 17.0558 16.206C16.8865 16.2207 16.5176 16.1782 16.3907 16.1137L16.3744 16.3071C16.4579 16.2793 16.6467 16.332 16.6467 16.332L16.6424 16.417L16.446 16.6235C16.42 16.6499 16.2724 16.833 16.267 16.9648C16.2659 17.0058 16.2919 16.9941 16.2984 16.9795ZM16.6945 16.3364C16.7715 16.3349 16.9321 16.3481 16.9766 16.3745C16.9582 16.5839 16.9093 16.6587 16.8269 16.6469C16.7509 16.6352 16.6717 16.5766 16.6945 16.3364ZM16.0803 17.561L15.9794 17.7954C16.0575 17.7793 16.1661 17.8627 16.2539 17.9404C16.2832 18.0459 16.3983 18.3154 16.3896 18.5791L16.5198 18.2773C16.4623 18.2421 16.395 18.2041 16.3516 17.9213C16.523 17.8349 16.6511 17.8071 16.7053 17.8481L16.8204 17.5844C16.6869 17.6928 16.3733 17.8042 16.3212 17.7807C16.267 17.7382 16.1129 17.6738 16.0803 17.561Z" fill="black"/>
<path d="M15.3075 19.5195C15.3824 19.5195 15.4431 19.4376 15.4431 19.3364C15.4431 19.2353 15.3824 19.1533 15.3075 19.1533C15.2326 19.1533 15.1719 19.2353 15.1719 19.3364C15.1719 19.4376 15.2326 19.5195 15.3075 19.5195Z" fill="black"/>
<path d="M12.1063 19.5195C12.1812 19.5195 12.242 19.4376 12.242 19.3364C12.242 19.2353 12.1812 19.1533 12.1063 19.1533C12.0314 19.1533 11.9707 19.2353 11.9707 19.3364C11.9707 19.4376 12.0314 19.5195 12.1063 19.5195Z" fill="black"/>
<path d="M13.9181 20.3491C13.904 20.3623 13.866 20.3359 13.8573 20.2949C13.8573 20.3081 13.8552 20.3491 13.8367 20.3726C13.7922 20.4297 13.7445 20.4019 13.7065 20.4019C13.6685 20.4019 13.6208 20.4297 13.5763 20.3726C13.5579 20.3491 13.5557 20.3081 13.5557 20.2949C13.547 20.3359 13.509 20.3623 13.4949 20.3491C13.4819 20.3359 13.4884 20.2788 13.5145 20.2554C13.5058 20.2583 13.4754 20.2686 13.4537 20.2524C13.3994 20.2129 13.4049 20.1426 13.3929 20.0942C13.381 20.0459 13.3463 19.9932 13.3734 19.9185C13.3842 19.8877 13.4125 19.8716 13.4211 19.8672C13.3897 19.8687 13.3604 19.8276 13.3647 19.8071C13.3701 19.7852 13.4125 19.7764 13.4374 19.8027C13.4309 19.7925 13.4157 19.7573 13.4201 19.7236C13.4309 19.6416 13.4819 19.627 13.5123 19.5962C13.5437 19.5654 13.5698 19.5054 13.6306 19.5171C13.6555 19.5215 13.675 19.5522 13.6816 19.5625C13.6707 19.5229 13.6902 19.4717 13.7065 19.4717C13.7228 19.4717 13.7423 19.5229 13.7315 19.5625C13.738 19.5522 13.7575 19.5215 13.7825 19.5171C13.8432 19.5054 13.8693 19.5654 13.9007 19.5962C13.9311 19.627 13.9821 19.6416 13.993 19.7236C13.9973 19.7573 13.9821 19.7925 13.9756 19.8027C14.0006 19.7764 14.0429 19.7852 14.0483 19.8071C14.0526 19.8276 14.0234 19.8687 13.9919 19.8672C14.0006 19.8716 14.0288 19.8877 14.0396 19.9185C14.0668 19.9932 14.032 20.0459 14.0201 20.0942C14.0082 20.1426 14.0136 20.2129 13.9593 20.2524C13.9376 20.2686 13.9072 20.2583 13.8986 20.2554C13.9246 20.2788 13.9311 20.3359 13.9181 20.3491ZM13.6056 20.144C13.623 20.1616 13.5763 20.2144 13.5947 20.2803C13.6154 20.3579 13.6729 20.3345 13.7065 20.3345C13.7401 20.3345 13.7977 20.3579 13.8183 20.2803C13.8367 20.2144 13.7901 20.1616 13.8074 20.144C13.8248 20.1265 13.8487 20.2026 13.8997 20.2012C13.9615 20.1968 13.9626 20.1177 13.9724 20.0737C13.9832 20.0298 14.0179 19.9639 13.9691 19.9126C13.9289 19.8687 13.8758 19.9126 13.8693 19.8848C13.8628 19.8569 13.9235 19.8511 13.9387 19.7837C13.955 19.7031 13.8986 19.6782 13.8714 19.6504C13.8432 19.624 13.8074 19.5596 13.7564 19.605C13.7141 19.6445 13.7282 19.7251 13.7065 19.7251C13.6848 19.7251 13.6989 19.6445 13.6566 19.605C13.6056 19.5596 13.5698 19.624 13.5416 19.6504C13.5145 19.6782 13.458 19.7031 13.4743 19.7837C13.4895 19.8511 13.5503 19.8569 13.5437 19.8848C13.5372 19.9126 13.4841 19.8687 13.4439 19.9126C13.3951 19.9639 13.4298 20.0298 13.4407 20.0737C13.4504 20.1177 13.4515 20.1968 13.5134 20.2012C13.5644 20.2026 13.5882 20.1265 13.6056 20.144Z" fill="black"/>
<path d="M13.7077 20.248C13.6979 20.248 13.686 20.2173 13.6925 20.1924C13.6893 20.1997 13.6773 20.2173 13.6621 20.2202C13.6252 20.2275 13.61 20.1909 13.5916 20.1733C13.5732 20.1543 13.5428 20.1455 13.5363 20.0972C13.533 20.0767 13.5428 20.0547 13.546 20.0488C13.5308 20.0649 13.5059 20.0591 13.5026 20.0459C13.4994 20.0342 13.5178 20.0093 13.5363 20.0093C13.5308 20.0078 13.5146 19.9976 13.5081 19.98C13.4918 19.9346 13.5124 19.9038 13.52 19.8745C13.5265 19.8452 13.5232 19.8027 13.5558 19.7793C13.5688 19.769 13.5873 19.7749 13.5927 19.7778C13.5764 19.7632 13.5732 19.7295 13.5808 19.7207C13.5894 19.7134 13.6122 19.7295 13.6176 19.7529C13.6176 19.7456 13.6187 19.7207 13.6296 19.7075C13.6567 19.6724 13.6849 19.6899 13.7077 19.6899C13.7305 19.6899 13.7587 19.6724 13.7858 19.7075C13.7967 19.7207 13.7978 19.7456 13.7978 19.7529C13.8032 19.7295 13.826 19.7134 13.8347 19.7207C13.8423 19.7295 13.839 19.7632 13.8227 19.7778C13.8281 19.7749 13.8466 19.769 13.8596 19.7793C13.8922 19.8027 13.8889 19.8452 13.8954 19.8745C13.903 19.9038 13.9236 19.9346 13.9074 19.98C13.9008 19.9976 13.8846 20.0078 13.8791 20.0093C13.8976 20.0093 13.916 20.0342 13.9128 20.0459C13.9095 20.0591 13.8846 20.0649 13.8694 20.0488C13.8726 20.0547 13.8824 20.0767 13.8791 20.0972C13.8726 20.1455 13.8423 20.1543 13.8238 20.1733C13.8054 20.1909 13.7902 20.2275 13.7533 20.2202C13.7381 20.2173 13.7261 20.1997 13.7229 20.1924C13.7294 20.2173 13.7175 20.248 13.7077 20.248ZM13.7077 20.0811C13.7196 20.0811 13.712 20.125 13.7348 20.1455C13.762 20.1704 13.7815 20.1367 13.7967 20.1221C13.8119 20.1074 13.8423 20.0928 13.8325 20.0503C13.8249 20.0137 13.7923 20.0107 13.7956 19.9946C13.7988 19.98 13.8271 20.0034 13.8498 19.98C13.8759 19.9521 13.8574 19.917 13.852 19.8936C13.8455 19.8701 13.8455 19.8262 13.8119 19.8247C13.7837 19.8232 13.7717 19.8643 13.762 19.8555C13.7522 19.8467 13.7782 19.8174 13.7685 19.7822C13.7565 19.7397 13.7261 19.7529 13.7077 19.7529C13.6893 19.7529 13.6589 19.7397 13.6469 19.7822C13.6372 19.8174 13.6632 19.8467 13.6535 19.8555C13.6437 19.8643 13.6317 19.8232 13.6035 19.8247C13.5699 19.8262 13.5699 19.8701 13.5634 19.8936C13.558 19.917 13.5395 19.9521 13.5656 19.98C13.5883 20.0034 13.6166 19.98 13.6198 19.9946C13.6231 20.0107 13.5905 20.0137 13.5829 20.0503C13.5732 20.0928 13.6035 20.1074 13.6187 20.1221C13.6339 20.1367 13.6535 20.1704 13.6806 20.1455C13.7034 20.125 13.6958 20.0811 13.7077 20.0811Z" fill="black"/>
<path d="M13.7064 20.0273C13.7351 20.0273 13.7585 19.9959 13.7585 19.957C13.7585 19.9182 13.7351 19.8867 13.7064 19.8867C13.6776 19.8867 13.6543 19.9182 13.6543 19.957C13.6543 19.9959 13.6776 20.0273 13.7064 20.0273Z" fill="black"/>
<path d="M11.9375 18.3944C13.1161 18.3295 14.2962 18.3295 15.4748 18.3944" stroke="black" stroke-width="0.1" stroke-linecap="round" stroke-linejoin="round"/>
<path d="M13.5742 14.1582C13.6545 14.2783 13.6632 14.3091 13.6632 14.3091M13.8118 16.2178C13.8064 16.3423 13.8108 16.4712 13.826 16.5371M13.5894 16.2383C13.6241 16.2896 13.6708 16.4668 13.6643 16.5327" stroke="black" stroke-width="0.1" stroke-linecap="round" stroke-linejoin="round"/>
<path d="M14.3226 18.376C14.2803 18.3936 14.2065 18.4507 14.2076 18.502C14.2087 18.5518 14.2955 18.5591 14.3215 18.5694C14.2749 18.5957 14.1262 18.6338 14.06 18.5884C14.0123 18.6265 13.6716 18.521 13.6021 18.5181C13.5587 18.5166 13.4969 18.4668 13.5045 18.354C13.5055 18.3291 13.5175 18.272 13.5587 18.2529C13.5348 18.1973 13.6401 18.1035 13.7443 18.0186C13.588 18.0464 13.3916 17.9644 13.3417 17.8838C13.2223 17.8281 13.1703 17.8823 13.1203 18.023C13.1247 18.2647 13.0249 18.3789 12.9055 18.3599C12.8241 18.3467 12.8068 18.398 12.7851 18.4097L13.0281 18.5108C13.1865 18.7173 13.0932 18.8682 13.0585 18.9063C13.0249 18.9429 12.9348 18.9253 12.8816 18.9253C12.8285 18.9253 12.8274 18.9473 12.8046 18.9634C12.7666 18.9898 12.7286 19.0044 12.7124 18.981C12.7221 18.9473 12.7373 18.8155 12.8024 18.7949C12.8415 18.7906 12.912 18.7656 12.9142 18.7158C12.9153 18.6675 12.784 18.6748 12.6809 18.6221C12.5941 18.5781 12.5648 18.5181 12.5963 18.335C12.6212 18.1314 12.7981 18.1079 12.8838 18.1065C12.8719 18.02 12.8795 17.8706 12.9598 17.7725C13.0769 17.6275 13.2581 17.6802 13.4122 17.6934C13.5001 17.6275 13.6629 17.5293 13.8224 17.5205C13.9656 17.5132 14.6004 17.292 14.889 17.3345C14.8239 17.2041 14.8391 16.8965 14.9574 16.8057C15.1082 16.6914 15.2709 17.0005 15.31 16.9463C15.3491 16.8906 15.2612 16.8101 15.1505 16.6548C15.1234 16.5859 15.1288 16.5947 15.1277 16.5728C15.1255 16.523 15.1342 16.4629 15.1483 16.4497C15.1613 16.438 15.2514 16.4834 15.2731 16.5273C15.3024 16.5874 15.3393 16.6152 15.3686 16.583C15.4066 16.5435 15.3577 16.5581 15.336 16.4717C15.3252 16.4292 15.3002 16.3955 15.3013 16.353C15.323 16.3193 15.4077 16.2256 15.4738 16.1963C15.501 16.2314 15.5183 16.2783 15.54 16.3252C15.5932 16.4336 15.642 16.4043 15.6778 16.4775C15.6909 16.5068 15.6909 16.5845 15.7169 16.6504C15.7636 16.772 15.8558 16.9097 15.9773 17.0078C15.9958 17.0239 16.0218 17.0547 16.024 17.0796C16.0272 17.1177 16.0044 17.1558 15.9936 17.1733C15.9784 17.1997 15.9241 17.2012 15.8721 17.1675C15.7928 17.1162 15.7646 17.0899 15.718 17.0986C15.616 17.1191 15.5487 17.3389 15.4044 17.3418C15.2677 17.3154 15.1755 17.0503 15.0952 17.1279C15.0159 17.2056 15.2818 17.4326 15.2492 17.5278C15.272 17.5513 15.3089 17.6304 15.3002 17.6963C15.4359 17.6568 15.5444 17.5322 15.5845 17.4312C15.654 17.3008 15.7093 17.2275 15.7505 17.2041C15.7907 17.1807 15.8428 17.2144 15.8428 17.2568C15.858 17.2525 15.8807 17.2774 15.909 17.2832C15.9502 17.3096 15.9339 17.3638 15.922 17.3828C15.9209 17.374 15.8992 17.3638 15.8786 17.3506C15.8569 17.3389 15.8232 17.3755 15.7918 17.4107C15.7603 17.4443 15.7375 17.5264 15.706 17.5791C15.6746 17.6304 15.5932 17.7359 15.5585 17.793C15.578 17.8325 15.5682 17.9058 15.5715 17.9409C15.5791 17.9409 15.6051 17.9497 15.6203 17.9644C15.6344 17.979 15.6323 17.9951 15.6258 18.0347C15.616 18.083 15.4814 18.2998 15.4424 18.2984C15.3827 18.2984 15.3447 18.2031 15.3501 18.1636C15.285 18.2046 15.2557 18.1079 15.2536 18.0728C15.2286 18.1182 15.1299 18.1914 15.0941 18.209C15.0593 18.2266 15.0452 18.2324 15.0344 18.1695C15.0235 18.2119 14.9357 18.2559 14.915 18.2617C14.8011 18.2925 14.685 18.3599 14.5722 18.3584L14.2955 18.3511L14.3226 18.376Z" fill="white" stroke="black" stroke-width="0.1" stroke-linecap="round" stroke-linejoin="round"/>
<path d="M14.7122 16.9558C14.7133 17.0144 14.6504 17.1652 14.7426 17.2722C14.799 17.3366 14.8978 17.3908 14.9303 17.4743C14.9575 17.5446 14.9195 17.6076 14.9075 17.6032C14.8468 17.5857 14.7665 17.7278 14.7372 17.8244C14.7036 17.6882 14.6374 17.7219 14.5527 17.7409C14.5755 17.5988 14.4909 17.5095 14.3607 17.4861C14.3824 17.4568 14.3466 17.4113 14.3151 17.3733C14.2826 17.3352 14.1806 17.3659 14.1708 17.3352C14.161 17.3044 14.2196 17.2458 14.1903 17.1828C14.1621 17.1184 14.0395 17.1565 14.0004 17.1345C14.0091 17.0554 14.0156 17.0114 13.9863 16.9411C13.9559 16.8693 13.8181 16.8913 13.7509 16.8708C13.8062 16.8181 13.8312 16.7404 13.8008 16.6555C13.7693 16.5676 13.6239 16.6716 13.625 16.5544C13.6293 16.5134 13.7954 16.4797 13.8626 16.4738C13.9245 16.4694 14.1415 16.5368 14.3433 16.6027C14.3911 16.6569 14.7079 16.7888 14.7122 16.9558Z" fill="white" stroke="black" stroke-width="0.1" stroke-linecap="round" stroke-linejoin="round"/>
<path d="M15.2535 18.0723C15.3544 18.0049 15.4531 17.917 15.5584 17.7925M13.666 17.6885C13.7572 17.6943 13.9536 17.7339 14.01 17.835C14.0664 17.9375 14.1022 18.1001 13.7105 18.2378C13.8277 18.2393 14.0035 18.1997 14.0653 18.2202C14.1207 18.207 14.2465 18.1514 14.2997 18.1748C14.2791 18.188 14.2129 18.2129 14.2107 18.2656C14.2085 18.3184 14.2389 18.3272 14.2954 18.3506M14.673 17.9961C14.8086 18.0313 15.0061 17.9771 15.0343 18.1689" stroke="black" stroke-width="0.1" stroke-linecap="round" stroke-linejoin="round"/>
<path d="M15.1328 16.501C15.1751 16.5566 15.2771 16.6533 15.3325 16.7061C15.4052 16.7749 15.4388 16.6885 15.3824 16.564" stroke="black" stroke-width="0.1" stroke-linecap="round" stroke-linejoin="round"/>
<path d="M14.1719 17.3359C14.3097 17.2978 14.5061 17.2597 14.6222 17.2671M14.0015 17.1352C14.2174 17.0561 14.454 17.0898 14.6026 17.0928M14.5636 17.73C14.6037 17.6611 14.6938 17.563 14.7621 17.4795M14.3628 17.4853C14.429 17.4487 14.5538 17.3857 14.658 17.3608M14.3444 16.6035C14.4605 16.4497 14.5972 16.4717 14.7274 16.3779C14.8055 16.3237 14.8728 16.1728 14.952 16.0688C14.9878 16.0278 15.0139 15.9956 15.1039 16.0058C15.1983 16.0161 15.2103 16.0556 15.0887 16.0747C15.0019 16.0893 14.9987 16.1465 14.964 16.2358C14.9347 16.312 14.9629 16.4013 14.9802 16.4629C14.9585 16.5244 14.9314 16.6123 14.9238 16.6797C14.9195 16.7134 14.9303 16.7397 14.9607 16.7895M13.752 16.8716C14.0569 16.7822 14.4941 16.936 14.5766 16.9433" stroke="black" stroke-width="0.1" stroke-linecap="round" stroke-linejoin="round"/>
<path d="M15.6111 17.523C15.7098 17.4512 15.7109 17.315 15.8422 17.2564M15.3496 18.1631C15.4755 18.0825 15.5026 18.0137 15.571 17.9404M15.661 16.8843C15.6013 16.896 15.5916 16.8301 15.533 16.8169C15.4701 16.8008 15.4277 16.8565 15.4277 16.9077C15.4277 16.9605 15.4668 17.0059 15.5059 17.0088C15.5449 17.0117 15.5775 16.9736 15.6589 16.9854M15.3746 16.2734C15.4223 16.2793 15.4711 16.291 15.5069 16.2471M15.6328 16.5752C15.623 16.5884 15.5916 16.5708 15.5764 16.5459C15.5623 16.5195 15.5547 16.4844 15.5666 16.4683C15.5775 16.4536 15.5948 16.4565 15.6209 16.4858C15.6469 16.5151 15.6426 16.5605 15.6328 16.5752Z" stroke="black" stroke-width="0.1" stroke-linecap="round" stroke-linejoin="round"/>
<path d="M13.7724 14.894C13.7693 14.8963 13.7655 14.895 13.7618 14.8904C13.7581 14.8858 13.7548 14.8783 13.7527 14.8696C13.7505 14.8608 13.7497 14.8515 13.7503 14.8438C13.751 14.836 13.753 14.8304 13.7561 14.8281C13.7528 14.8297 13.7489 14.8276 13.7452 14.8223C13.7416 14.817 13.7384 14.8089 13.7366 14.7998C13.7347 14.7906 13.7342 14.7812 13.7352 14.7736C13.7363 14.766 13.7387 14.7609 13.742 14.7593C13.7387 14.7611 13.7349 14.7592 13.7312 14.754C13.7276 14.7489 13.7245 14.7409 13.7227 14.7318C13.7208 14.7227 13.7203 14.7132 13.7213 14.7055C13.7223 14.6977 13.7247 14.6923 13.7279 14.6904C13.7246 14.6923 13.7207 14.6904 13.7171 14.6851C13.7136 14.6799 13.7106 14.6717 13.7089 14.6624C13.7071 14.6531 13.7068 14.6435 13.7079 14.6355C13.7091 14.6276 13.7116 14.6221 13.7149 14.6201C13.7115 14.6218 13.7075 14.6197 13.704 14.6142C13.7004 14.6087 13.6975 14.6003 13.696 14.5907C13.6944 14.5812 13.6942 14.5714 13.6955 14.5635C13.6969 14.5555 13.6995 14.55 13.703 14.5483C13.6995 14.5497 13.6957 14.5473 13.6923 14.5417C13.689 14.536 13.6864 14.5275 13.6851 14.518C13.6838 14.5085 13.6839 14.4988 13.6854 14.491C13.687 14.4833 13.6897 14.4781 13.6932 14.4765C13.6914 14.4772 13.6896 14.4769 13.6877 14.4756C13.6859 14.4744 13.6841 14.4722 13.6825 14.4693C13.6808 14.4664 13.6794 14.4627 13.6782 14.4585C13.677 14.4543 13.676 14.4497 13.6755 14.4449C13.6749 14.44 13.6747 14.4352 13.6748 14.4305C13.675 14.4258 13.6755 14.4214 13.6763 14.4175C13.6772 14.4137 13.6783 14.4104 13.6797 14.408C13.6811 14.4055 13.6828 14.4039 13.6845 14.4033C13.6809 14.4047 13.677 14.4021 13.6737 14.3961C13.6705 14.3901 13.6681 14.3812 13.6671 14.3713C13.6661 14.3614 13.6665 14.3513 13.6684 14.3433C13.6702 14.3353 13.6733 14.33 13.6769 14.3286C13.6734 14.3297 13.6697 14.327 13.6666 14.3209C13.6636 14.3149 13.6615 14.3061 13.6608 14.2964C13.6601 14.2867 13.6608 14.2769 13.6628 14.2692C13.6648 14.2615 13.6679 14.2566 13.6715 14.2553C13.6678 14.2562 13.6642 14.2531 13.6613 14.2467C13.6584 14.2403 13.6566 14.2312 13.6562 14.2214C13.6557 14.2115 13.6568 14.2017 13.659 14.1941C13.6613 14.1864 13.6646 14.1816 13.6682 14.1806C13.6646 14.1817 13.6609 14.1787 13.6581 14.1725C13.6553 14.1662 13.6536 14.1571 13.6533 14.1472C13.653 14.1373 13.6542 14.1274 13.6566 14.1196C13.659 14.1119 13.6624 14.107 13.6661 14.1059C13.6623 14.1066 13.6587 14.1032 13.6561 14.0966C13.6536 14.0899 13.6522 14.0805 13.6524 14.0704C13.6525 14.0603 13.6541 14.0503 13.6569 14.0427C13.6597 14.0351 13.6634 14.0304 13.6672 14.0298C13.6634 14.0301 13.6601 14.0265 13.6577 14.0198C13.6554 14.0131 13.6544 14.0037 13.6548 13.9939C13.6552 13.984 13.6571 13.9743 13.66 13.9671C13.663 13.9598 13.6667 13.9555 13.6704 13.955C13.6666 13.9554 13.6633 13.9519 13.6611 13.9451C13.659 13.9384 13.6582 13.9291 13.6589 13.9192C13.6596 13.9093 13.6618 13.8996 13.665 13.8923C13.6682 13.885 13.6721 13.8807 13.6758 13.8803C13.672 13.8804 13.6687 13.8764 13.6668 13.8693C13.6649 13.8622 13.6645 13.8526 13.6656 13.8425C13.6668 13.8325 13.6694 13.8228 13.6729 13.8156C13.6765 13.8084 13.6806 13.8043 13.6845 13.8042C13.6807 13.8038 13.6777 13.7995 13.6762 13.7922C13.6746 13.785 13.6746 13.7754 13.6762 13.7655C13.6778 13.7557 13.6808 13.7463 13.6846 13.7396C13.6884 13.7328 13.6926 13.7292 13.6964 13.7295C13.6927 13.7289 13.6898 13.7245 13.6886 13.7173C13.6873 13.7101 13.6877 13.7006 13.6897 13.6909C13.6917 13.6812 13.6952 13.6721 13.6993 13.6656C13.7034 13.6591 13.7078 13.6557 13.7116 13.6562C13.7078 13.6555 13.705 13.6511 13.704 13.6438C13.7029 13.6365 13.7037 13.627 13.7062 13.6173C13.7086 13.6077 13.7125 13.5986 13.717 13.5922C13.7214 13.5857 13.7262 13.5824 13.7301 13.583C13.7261 13.5819 13.7235 13.5771 13.7229 13.5695C13.7222 13.5619 13.7235 13.5523 13.7265 13.5426C13.7295 13.5329 13.734 13.524 13.7389 13.5179C13.7439 13.5117 13.7489 13.5088 13.7529 13.5097C13.749 13.5082 13.7466 13.503 13.7464 13.4952C13.7462 13.4875 13.748 13.4778 13.7516 13.4683C13.7552 13.4588 13.7602 13.4503 13.7655 13.4446C13.7708 13.4389 13.776 13.4365 13.78 13.438C13.7762 13.4359 13.7743 13.4303 13.7745 13.4224C13.7748 13.4145 13.7773 13.4049 13.7815 13.3958C13.7857 13.3867 13.7912 13.3787 13.7968 13.3737C13.8024 13.3687 13.8077 13.3671 13.8115 13.3691C13.8076 13.3669 13.8057 13.3612 13.8063 13.3532C13.8069 13.3453 13.8099 13.3359 13.8146 13.3269C13.8194 13.318 13.8255 13.3103 13.8316 13.3056C13.8377 13.3009 13.8434 13.2995 13.8473 13.3017C13.8455 13.3003 13.8442 13.298 13.8436 13.295C13.843 13.2921 13.843 13.2886 13.8436 13.2846C13.8449 13.2766 13.8487 13.2674 13.8542 13.2591C13.8597 13.2507 13.8663 13.2439 13.8728 13.2401C13.8792 13.2362 13.8849 13.2358 13.8885 13.2387C13.8848 13.2354 13.8837 13.2291 13.8853 13.221C13.887 13.2129 13.8913 13.2037 13.8974 13.1956C13.9034 13.1874 13.9107 13.1809 13.9175 13.1775C13.9244 13.174 13.9304 13.1739 13.9341 13.1772" fill="white"/>
<path d="M13.7724 14.894C13.7693 14.8963 13.7655 14.895 13.7618 14.8904C13.7581 14.8858 13.7548 14.8783 13.7527 14.8696C13.7505 14.8608 13.7497 14.8515 13.7503 14.8438C13.751 14.836 13.753 14.8304 13.7561 14.8281C13.7528 14.8297 13.7489 14.8276 13.7452 14.8223C13.7416 14.817 13.7384 14.8089 13.7366 14.7998C13.7347 14.7906 13.7342 14.7812 13.7352 14.7736C13.7363 14.766 13.7387 14.7609 13.742 14.7593C13.7387 14.7611 13.7349 14.7592 13.7312 14.754C13.7276 14.7489 13.7245 14.7409 13.7227 14.7318C13.7208 14.7227 13.7203 14.7132 13.7213 14.7055C13.7223 14.6977 13.7247 14.6923 13.7279 14.6904C13.7246 14.6923 13.7207 14.6904 13.7171 14.6851C13.7136 14.6799 13.7106 14.6717 13.7089 14.6624C13.7071 14.6531 13.7068 14.6435 13.7079 14.6355C13.7091 14.6276 13.7116 14.6221 13.7149 14.6201C13.7115 14.6218 13.7075 14.6197 13.704 14.6142C13.7004 14.6087 13.6975 14.6003 13.696 14.5907C13.6944 14.5812 13.6942 14.5714 13.6955 14.5635C13.6969 14.5555 13.6995 14.55 13.703 14.5483C13.6995 14.5497 13.6957 14.5473 13.6923 14.5417C13.689 14.536 13.6864 14.5275 13.6851 14.518C13.6838 14.5085 13.6839 14.4988 13.6854 14.491C13.687 14.4833 13.6897 14.4781 13.6932 14.4765C13.6914 14.4772 13.6896 14.4769 13.6877 14.4756C13.6859 14.4744 13.6841 14.4722 13.6825 14.4693C13.6808 14.4664 13.6794 14.4627 13.6782 14.4585C13.677 14.4543 13.676 14.4497 13.6755 14.4449C13.6749 14.44 13.6747 14.4352 13.6748 14.4305C13.675 14.4258 13.6755 14.4214 13.6763 14.4175C13.6772 14.4137 13.6783 14.4104 13.6797 14.408C13.6811 14.4055 13.6828 14.4039 13.6845 14.4033C13.6809 14.4047 13.677 14.4021 13.6737 14.3961C13.6705 14.3901 13.6681 14.3812 13.6671 14.3713C13.6661 14.3614 13.6665 14.3513 13.6684 14.3433C13.6702 14.3353 13.6733 14.33 13.6769 14.3286C13.6734 14.3297 13.6697 14.327 13.6666 14.3209C13.6636 14.3149 13.6615 14.3061 13.6608 14.2964C13.6601 14.2867 13.6608 14.2769 13.6628 14.2692C13.6648 14.2615 13.6679 14.2566 13.6715 14.2553C13.6678 14.2562 13.6642 14.2531 13.6613 14.2467C13.6584 14.2403 13.6566 14.2312 13.6562 14.2214C13.6557 14.2115 13.6568 14.2017 13.659 14.1941C13.6613 14.1864 13.6646 14.1816 13.6682 14.1806C13.6646 14.1817 13.6609 14.1787 13.6581 14.1725C13.6553 14.1662 13.6536 14.1571 13.6533 14.1472C13.653 14.1373 13.6542 14.1274 13.6566 14.1196C13.659 14.1119 13.6624 14.107 13.6661 14.1059C13.6623 14.1066 13.6587 14.1032 13.6561 14.0966C13.6536 14.0899 13.6522 14.0805 13.6524 14.0704C13.6525 14.0603 13.6541 14.0503 13.6569 14.0427C13.6597 14.0351 13.6634 14.0304 13.6672 14.0298C13.6634 14.0301 13.6601 14.0265 13.6577 14.0198C13.6554 14.0131 13.6544 14.0037 13.6548 13.9939C13.6552 13.984 13.6571 13.9743 13.66 13.9671C13.663 13.9598 13.6667 13.9555 13.6704 13.955C13.6666 13.9554 13.6633 13.9519 13.6611 13.9451C13.659 13.9384 13.6582 13.9291 13.6589 13.9192C13.6596 13.9093 13.6618 13.8996 13.665 13.8923C13.6682 13.885 13.6721 13.8807 13.6758 13.8803C13.672 13.8804 13.6687 13.8764 13.6668 13.8693C13.6649 13.8622 13.6645 13.8526 13.6656 13.8425C13.6668 13.8325 13.6694 13.8228 13.6729 13.8156C13.6765 13.8084 13.6806 13.8043 13.6845 13.8042C13.6807 13.8038 13.6777 13.7995 13.6762 13.7922C13.6746 13.785 13.6746 13.7754 13.6762 13.7655C13.6778 13.7557 13.6808 13.7463 13.6846 13.7396C13.6884 13.7328 13.6926 13.7292 13.6964 13.7295C13.6927 13.7289 13.6898 13.7245 13.6886 13.7173C13.6873 13.7101 13.6877 13.7006 13.6897 13.6909C13.6917 13.6812 13.6952 13.6721 13.6993 13.6656C13.7034 13.6591 13.7078 13.6557 13.7116 13.6562C13.7078 13.6555 13.705 13.6511 13.704 13.6438C13.7029 13.6365 13.7037 13.627 13.7062 13.6173C13.7086 13.6077 13.7125 13.5986 13.717 13.5922C13.7214 13.5857 13.7262 13.5824 13.7301 13.583C13.7261 13.5819 13.7235 13.5771 13.7229 13.5695C13.7222 13.5619 13.7235 13.5523 13.7265 13.5426C13.7295 13.5329 13.734 13.524 13.7389 13.5179C13.7439 13.5117 13.7489 13.5088 13.7529 13.5097C13.749 13.5082 13.7466 13.503 13.7464 13.4952C13.7462 13.4875 13.748 13.4778 13.7516 13.4683C13.7552 13.4588 13.7602 13.4503 13.7655 13.4446C13.7708 13.4389 13.776 13.4365 13.78 13.438C13.7762 13.4359 13.7743 13.4303 13.7745 13.4224C13.7748 13.4145 13.7773 13.4049 13.7815 13.3958C13.7857 13.3867 13.7912 13.3787 13.7968 13.3737C13.8024 13.3687 13.8077 13.3671 13.8115 13.3691C13.8076 13.3669 13.8057 13.3612 13.8063 13.3532C13.8069 13.3453 13.8099 13.3359 13.8146 13.3269C13.8194 13.318 13.8255 13.3103 13.8316 13.3056C13.8377 13.3009 13.8434 13.2995 13.8473 13.3017C13.8455 13.3003 13.8442 13.298 13.8436 13.295C13.843 13.2921 13.843 13.2886 13.8436 13.2846C13.8449 13.2766 13.8487 13.2674 13.8542 13.2591C13.8597 13.2507 13.8663 13.2439 13.8728 13.2401C13.8792 13.2362 13.8849 13.2358 13.8885 13.2387C13.8848 13.2354 13.8837 13.2291 13.8853 13.221C13.887 13.2129 13.8913 13.2037 13.8974 13.1956C13.9034 13.1874 13.9107 13.1809 13.9175 13.1775C13.9244 13.174 13.9304 13.1739 13.9341 13.1772" stroke="black" stroke-width="0.1" stroke-linecap="round" stroke-linejoin="round"/>
<path d="M13.8342 14.8687L13.7724 14.8936M13.8233 14.8027L13.7561 14.8277M13.8136 14.7354L13.742 14.7588M13.8038 14.6665L13.7279 14.69M13.7962 14.5977L13.7148 14.6196M13.7886 14.5274L13.7029 14.5479M13.7832 14.457L13.6931 14.4761M13.7789 14.3867L13.6845 14.4028M13.7767 14.3164L13.6769 14.3281M13.7756 14.2476L13.6714 14.2549M13.7767 14.1773L13.6682 14.1802M13.7789 14.1084L13.666 14.1055M13.7832 14.0396L13.6671 14.0293M13.7908 13.9722L13.6704 13.9546M13.7995 13.9063L13.6758 13.8799M13.8114 13.8418L13.6845 13.8037M13.8255 13.7773L13.6964 13.729M13.8429 13.7158L13.7116 13.6558M13.8624 13.6572L13.73 13.5825M13.8841 13.5986L13.7528 13.5093M13.9102 13.5444L13.7799 13.4375M13.9384 13.4917L13.8114 13.3687M13.9709 13.4404L13.8472 13.3013M14.0056 13.3936L13.8885 13.2383M14.0447 13.3496L13.934 13.1768" stroke="black" stroke-width="0.1" stroke-linecap="round" stroke-linejoin="round"/>
<path d="M14.5229 13.9038C14.4588 13.9229 14.4263 13.9258 14.3438 13.9302C14.3275 13.9815 14.3265 14.1206 14.3275 14.1704C14.5022 14.3945 14.6715 14.6831 14.6824 14.9556C14.7366 15.0142 14.7713 15.0742 14.8017 15.1826C14.9265 15.0991 15.0524 14.9556 15.1587 14.919C15.2281 14.8955 15.3508 14.8882 15.4115 14.9365C15.4452 14.9629 15.7425 15.2075 15.8293 15.2793C15.915 15.3526 15.9747 15.4478 16.017 15.5313C16.0593 15.6148 16.0636 15.7656 16.0495 15.8037L15.8 15.7071C15.7826 15.6514 15.7967 15.5869 15.8162 15.5313C15.8347 15.4785 15.8347 15.4756 15.7989 15.4375C15.775 15.4112 15.7414 15.4185 15.7175 15.4258C15.6936 15.4317 15.6557 15.4185 15.634 15.3716C15.6101 15.3233 15.3486 15.168 15.3041 15.1592C15.2607 15.1504 15.1945 15.1489 15.1403 15.2178C15.1142 15.2749 15.0263 15.4595 14.9569 15.543C14.9384 15.5679 14.9352 15.5957 14.946 15.625C14.946 15.625 15.112 15.6162 15.213 15.6353C15.315 15.6558 15.4419 15.7979 15.4972 15.8872C15.7511 16.2022 15.8477 16.3736 15.9302 16.482C15.9671 16.5303 16.0072 16.5845 15.9985 16.6592L15.7511 16.6534C15.7544 16.5332 15.737 16.4468 15.7218 16.3809C15.6926 16.3267 15.6405 16.3531 15.6199 16.3545C15.5992 16.3575 15.5678 16.2974 15.5428 16.2432C15.5113 16.148 15.3768 16.0205 15.3171 15.9707C15.2574 15.9209 15.2368 15.9429 15.1739 15.9356C15.1359 15.9195 15.0491 15.899 14.9862 15.9326C14.9232 15.9663 14.7388 16.0454 14.5684 16.0718C14.5055 16.1099 14.32 16.1568 14.1236 16.2139C13.976 16.2564 13.645 16.3282 13.5745 16.3296C13.5528 16.545 13.3857 16.8467 13.338 16.8804C13.2891 16.9683 13.2913 17.0459 13.325 17.0855C13.3597 17.1265 13.6125 17.1265 13.6754 17.1294C13.7394 17.1309 13.8653 17.1368 13.8838 17.1411C13.9272 17.1499 13.9814 17.2203 14.0465 17.2686C14.0932 17.3023 14.1029 17.3374 14.1322 17.4004C14.1507 17.4414 14.1789 17.481 14.1887 17.5162L13.8903 17.5074C13.8935 17.4224 13.8566 17.3506 13.8143 17.3506C13.7731 17.3902 13.7221 17.4371 13.6657 17.4063C13.4345 17.3872 13.287 17.4004 13.0721 17.3814C13.0114 17.377 12.9571 17.2583 12.9799 17.1499C13.0027 17.0401 12.9929 16.9654 12.9777 16.8863C12.956 16.9185 12.8714 17.0313 12.8237 17.106C12.7499 17.2188 12.7922 17.3404 12.8193 17.4019C12.8638 17.4532 13.109 17.7725 13.1416 17.8692C13.1665 17.9205 13.2642 18.0245 13.3618 18.1343C13.3933 18.2325 13.4519 18.2808 13.4986 18.3453L13.1199 18.3467C13.1318 18.3145 13.1372 18.2837 13.1427 18.212C13.1448 18.1856 13.1199 18.127 13.071 18.1343C13.0211 18.1431 12.9777 18.0655 12.9625 18.0025C12.9474 17.938 12.7803 17.6495 12.7303 17.585C12.6804 17.522 12.5296 17.314 12.5036 17.3008C12.4764 17.2876 12.4699 17.2129 12.5014 17.169C12.5339 17.125 12.6273 16.9244 12.6566 16.794C12.6761 16.7046 12.6522 16.6973 12.637 16.6695C12.4721 16.5039 12.3278 16.2842 12.2421 16.0747C12.2106 16.1011 12.0305 16.0996 11.9404 16.0396C11.8721 15.9956 11.7809 15.9824 11.7321 16.0865C11.7039 16.148 11.705 16.2637 11.7549 16.315C11.8265 16.3882 11.9122 16.5083 11.9947 16.646C12.0771 16.7837 12.0055 16.8745 11.9014 16.9947C11.9165 17.0474 11.8992 17.0386 11.9187 17.1265C11.9534 17.1939 11.9534 17.3638 11.9089 17.399C11.8655 17.4371 11.8091 17.4751 11.757 17.5572C11.705 17.6421 11.6822 17.5601 11.705 17.4195C11.718 17.3316 11.6648 17.2583 11.6192 17.191C11.5748 17.1236 11.5975 16.9273 11.6268 16.8687C11.655 16.813 11.6843 16.6988 11.6214 16.6138C11.5585 16.5288 11.4337 16.3501 11.4532 16.1128C11.4771 15.7993 11.7017 15.6997 11.8352 15.7818C12.0522 15.9136 12.1813 15.8843 12.2464 15.8653C12.3115 15.7232 12.3929 15.5884 12.5263 15.4859C12.6511 15.3892 12.8974 15.2559 13.1394 15.2046L13.7405 14.9146C13.8219 14.8823 13.8187 14.7857 13.8111 14.73C13.7329 14.1821 13.7568 13.6035 14.0867 13.3091C14.1214 13.2666 14.1105 13.1465 14.1626 13.0527C14.1724 13.0938 14.2397 13.2051 14.2548 13.2769C14.397 13.3398 14.6542 13.4614 14.7551 13.5303C14.8039 13.5625 14.8549 13.5669 14.8853 13.583C14.9124 13.5977 14.9374 13.6343 14.9547 13.6797C14.9818 13.7456 14.9515 13.8101 14.9254 13.8291C14.9059 13.8423 14.7865 13.7881 14.7572 13.8247C14.7627 13.8613 14.793 13.9009 14.8571 13.936C14.8864 13.9536 14.8419 14.0269 14.8071 14.0313C14.7876 14.0342 14.7605 14.0225 14.7431 14.0049C14.6726 13.9771 14.5966 13.9375 14.5229 13.9038Z" fill="white" stroke="black" stroke-width="0.1" stroke-linecap="round" stroke-linejoin="round"/>
<path d="M14.1113 13.5459C14.1081 13.8828 14.1927 14.0527 14.3283 14.1699M14.8025 15.1821C14.8264 15.3242 14.8231 15.4649 14.8036 15.5879M12.9785 16.8858C13.1673 16.7657 13.3312 16.4771 13.3257 16.3042M13.3257 16.3042C13.3225 16.2031 13.2639 16.0479 13.0957 16.0405M13.3257 16.3042C13.3778 16.3321 13.4928 16.3145 13.5753 16.3291M14.5074 15.5088C14.6538 15.5176 14.8502 15.6304 14.9468 15.6245M14.439 15.9029C14.5627 15.9395 14.5649 16.02 14.822 16.0025M14.3772 14.7852C14.5215 14.791 14.6039 14.8862 14.6831 14.9551" stroke="black" stroke-width="0.1" stroke-linecap="round" stroke-linejoin="round"/>
<path d="M13.2988 16.4624C13.3997 16.461 13.4757 16.4434 13.5169 16.3233M14.1115 13.5459C14.1061 13.8213 14.1886 13.8901 14.3448 13.9297" stroke="black" stroke-width="0.1" stroke-linecap="round" stroke-linejoin="round"/>
<path d="M14.8984 13.5933C14.8887 13.6636 14.8876 13.7192 14.9722 13.709M14.5219 13.4014C14.4568 13.627 14.7856 13.6563 14.7986 13.7983M12.9551 15.2632C13.1157 15.3584 13.0972 15.7891 13.0961 16.041" stroke="black" stroke-width="0.1" stroke-linecap="round" stroke-linejoin="round"/>
<path d="M14.7217 13.7983C14.6696 13.936 14.5557 14.1499 14.4385 14.2641C14.2649 14.4311 14.0771 14.5556 13.8417 14.6303C13.8102 14.6406 13.7701 14.6538 13.7245 14.6406C13.68 14.6289 13.6312 14.5893 13.5997 14.5029C13.5824 14.4575 13.591 14.2407 13.6507 14.2099C13.7137 14.1792 13.7712 14.1689 13.8308 14.1733C13.8634 14.1762 13.909 14.1894 13.9057 14.2495C13.9035 14.3007 13.8677 14.3315 13.8298 14.3169C13.7842 14.2993 13.7147 14.2641 13.6757 14.2993C13.6486 14.3227 13.6323 14.4209 13.6507 14.4648C13.6789 14.5351 13.7071 14.5571 13.7364 14.5644C13.7657 14.5732 13.7972 14.5644 13.8287 14.5542C14.0544 14.4824 14.2334 14.3637 14.4038 14.1997C14.5155 14.0913 14.6316 13.8657 14.6707 13.7617L14.7217 13.7983ZM13.8374 14.2275C13.7701 14.2085 13.6616 14.2304 13.6518 14.2685C13.7017 14.226 13.7636 14.2392 13.8341 14.2685C13.8558 14.2773 13.8688 14.2348 13.8374 14.2275ZM14.2768 13.4848L14.3028 13.4174C14.3083 13.4028 14.2833 13.2417 14.407 13.3281C14.5307 13.4145 14.4309 13.4892 14.4255 13.5053C14.42 13.52 14.3994 13.5712 14.3994 13.5712" fill="white"/>
<path d="M14.2768 13.4848L14.3028 13.4174C14.3083 13.4028 14.2833 13.2417 14.407 13.3281C14.5307 13.4145 14.4309 13.4892 14.4255 13.5053C14.42 13.52 14.3994 13.5712 14.3994 13.5712M14.7217 13.7983C14.6696 13.936 14.5557 14.1499 14.4385 14.2641C14.2649 14.4311 14.0771 14.5556 13.8417 14.6303C13.8102 14.6406 13.7701 14.6538 13.7245 14.6406C13.68 14.6289 13.6312 14.5893 13.5997 14.5029C13.5824 14.4575 13.591 14.2407 13.6507 14.2099C13.7137 14.1792 13.7712 14.1689 13.8308 14.1733C13.8634 14.1762 13.909 14.1894 13.9057 14.2495C13.9035 14.3007 13.8677 14.3315 13.8298 14.3169C13.7842 14.2993 13.7147 14.2641 13.6757 14.2993C13.6486 14.3227 13.6323 14.4209 13.6507 14.4648C13.6789 14.5351 13.7071 14.5571 13.7364 14.5644C13.7657 14.5732 13.7972 14.5644 13.8287 14.5542C14.0544 14.4824 14.2334 14.3637 14.4038 14.1997C14.5155 14.0913 14.6316 13.8657 14.6707 13.7617L14.7217 13.7983ZM13.8374 14.2275C13.7701 14.2085 13.6616 14.2304 13.6518 14.2685C13.7017 14.226 13.7636 14.2392 13.8341 14.2685C13.8558 14.2773 13.8688 14.2348 13.8374 14.2275Z" stroke="black" stroke-width="0.1" stroke-linecap="round" stroke-linejoin="round"/>
<path d="M14.0684 13.3359L14.7671 13.8296" stroke="black" stroke-width="0.1" stroke-linecap="round" stroke-linejoin="round"/>
<path d="M13.1812 13.3725C13.0575 13.3887 12.8296 13.355 12.7059 13.3257C12.6463 13.311 12.4781 13.6406 12.3891 13.6641C12.3001 13.6875 12.2155 13.4223 12.0842 13.4853C12.0234 13.5483 12.0875 13.8735 12.0506 13.9145C12.0126 13.9556 11.8965 13.7505 11.8249 13.8193C11.7533 13.8882 11.8856 14.3203 11.8509 14.3701C11.8184 14.417 11.6556 14.1811 11.6068 14.2251C11.558 14.269 11.6599 14.9414 11.6122 14.9766C11.5634 15.0117 11.3377 14.7993 11.3084 14.8901C11.2791 14.981 11.6263 15.1948 11.724 15.2007L11.8216 15.1509C11.8542 15.1743 12.1319 15.2051 12.1591 15.208L12.3186 14.9897C12.5627 14.5605 12.8307 14.1577 13.1812 14.1826V13.3725Z" fill="white" stroke="black" stroke-width="0.1" stroke-linecap="round" stroke-linejoin="round"/>
<path d="M12.1081 13.4775L12.5736 13.4541M11.8292 13.8145L12.0571 13.709M11.6133 14.2158L11.8205 14.0928M11.3105 14.8823L11.6003 14.5278M11.8238 15.1416C11.9464 14.8501 12.197 14.5278 12.4021 14.3579M11.6144 14.9746C11.7891 14.6904 12.2893 14.2144 12.4488 14.188M12.0495 13.9141C12.2567 13.7852 12.5529 13.7705 12.7884 13.7441M12.3837 13.665C12.413 13.6606 12.7689 13.6006 12.9208 13.6108M11.8477 14.3755C12.1243 14.1572 12.3945 13.98 12.6994 13.8511" stroke="black" stroke-width="0.1" stroke-linecap="round" stroke-linejoin="round"/>
<path d="M14.1774 18.9347C14.1991 18.9435 14.2219 19.0065 14.2219 19.0065C14.2219 19.0065 14.1752 19.0372 14.1557 19.0314L11.9856 18.1554C11.9215 18.129 11.9487 17.9957 12.0159 18.0236L14.1774 18.9347ZM12.1038 14.8404C12.0908 14.7804 12.0517 14.7262 12.0225 14.7188C12.004 14.7159 11.9563 14.7818 11.9584 14.8023C11.9639 14.8448 12.0268 14.899 12.0517 14.9107L12.1038 14.8404ZM12.3089 14.9488L12.1266 15.1949C12.1038 15.2271 12.1461 15.2784 12.1679 15.2491L12.3501 15.003C12.3729 14.9723 12.3295 14.921 12.3089 14.9488ZM12.2188 15.1803L12.7842 15.9713L12.9014 15.9947L12.884 15.8365L12.2981 15.0733L12.2188 15.1803Z" fill="white" stroke="black" stroke-width="0.1" stroke-linecap="round" stroke-linejoin="round"/>
<path d="M12.8197 15.8843L12.2598 15.127" stroke="black" stroke-width="0.1" stroke-linecap="round" stroke-linejoin="round"/>
<path d="M13.5696 13.6866C13.5653 13.6456 13.5815 13.6207 13.6043 13.5987C13.6434 13.5621 13.6325 13.5797 13.6542 13.5943C13.6749 13.609 13.6966 13.6324 13.7085 13.6456C13.7237 13.6602 13.7324 13.6529 13.7378 13.6412C13.7476 13.6207 13.7508 13.5797 13.7606 13.5665C13.7682 13.5679 13.7801 13.5606 13.779 13.5416C13.791 13.5386 13.7942 13.5284 13.7931 13.5123C13.791 13.5006 13.7986 13.4683 13.8127 13.4742C13.8278 13.4801 13.8593 13.4991 13.8604 13.4713C13.8626 13.4508 13.8723 13.3746 13.8778 13.316C13.9223 13.3262 13.9071 13.2574 13.9233 13.2486C13.9711 13.272 13.9884 13.1695 13.9613 13.1329C13.9657 13.0509 14.0101 13.0362 14.0839 13.0377C14.0785 12.982 14.0221 12.9659 13.983 12.8956C13.9472 12.8238 13.8289 12.7315 13.702 12.7344C13.575 12.7388 13.4709 12.8985 13.4242 12.9688C13.3776 13.0391 13.281 13.0699 13.2517 13.0626C13.2235 13.0538 13.2105 13.0259 13.1779 13.0216C13.1779 13.0216 13.0954 13.0245 13.052 13.0259C13.0086 13.0259 12.9924 13.067 12.9435 13.0582C12.9142 13.0552 12.7949 13.0567 12.7602 13.0728C12.7254 13.0889 12.7591 13.1944 12.796 13.1988C12.8133 13.2017 12.9045 13.2091 12.9381 13.2354C12.9761 13.2633 13.0878 13.2706 13.1378 13.2457C13.2311 13.2003 13.2929 13.2852 13.396 13.3189L13.4285 13.335C13.4264 13.4083 13.4296 13.4464 13.4025 13.4464C13.3776 13.4464 13.3363 13.4434 13.3135 13.4405C13.3005 13.4405 13.2473 13.3922 13.217 13.3834C13.1703 13.3702 13.1421 13.3966 13.1236 13.4068C13.0032 13.4742 12.5572 13.9429 12.5138 14.0499C12.465 14.1685 12.3923 14.2389 12.3229 14.4161C12.2838 14.5142 12.21 14.6344 12.1655 14.7999C12.0907 14.8453 12.0136 14.9405 12.0017 14.9625C11.9887 14.9859 12.0136 15.024 12.0277 15.0225C12.0223 15.0372 12.0484 15.0767 12.069 15.0738C12.057 15.0914 12.0896 15.1236 12.1048 15.1178C12.0961 15.1353 12.1189 15.1837 12.1373 15.1822L12.3174 14.9391C12.3174 14.835 12.363 14.7193 12.3869 14.6622C12.4835 14.504 12.6093 14.2418 12.644 14.1715C12.6625 14.1319 12.8741 14.0191 12.9294 13.9459C12.9153 14.151 12.9197 14.2916 12.9392 14.4132C12.9696 14.6124 13.0184 14.7398 13.0477 14.9083C13.0781 15.0753 13.0477 15.1778 13.0531 15.2569C13.0553 15.3185 13.0716 15.3243 13.115 15.358C13.1595 15.3946 13.3309 15.3639 13.3851 15.3858C13.4861 15.4283 13.5783 15.4312 13.6152 15.44C13.741 15.4166 13.8354 15.4635 13.8756 15.506C13.9168 15.5499 13.9971 15.8019 14.0275 15.8956C14.0568 15.9879 14.2196 16.1168 14.2532 16.1695C14.2879 16.2208 14.3129 16.3702 14.3064 16.4361C14.3009 16.5006 14.3074 16.5299 14.3574 16.5226C14.3964 16.5152 14.5407 16.5519 14.5679 16.5709C14.5939 16.5885 14.6568 16.6559 14.6785 16.6588C14.7002 16.6617 14.8033 16.6764 14.8511 16.6705C14.8988 16.6647 14.8966 16.5592 14.876 16.5548C14.8565 16.5519 14.774 16.5284 14.7252 16.5123C14.6775 16.4977 14.57 16.3688 14.5277 16.2984C14.4843 16.2267 14.4626 16.1271 14.4355 16.0553C14.4073 15.9835 14.2456 15.6773 14.2033 15.6085C14.1903 15.5748 14.1045 15.2979 14.085 15.2291C14.0666 15.1602 14.0242 15.1529 13.9917 15.1397C13.8571 15.087 13.8051 15.0636 13.6673 15.0284C13.5674 15.0035 13.5446 14.9962 13.536 14.8966C13.5295 14.8219 13.4871 14.6798 13.5088 14.5816C13.5164 14.5494 13.5305 14.4454 13.5371 14.3985C13.5446 14.3516 13.5664 14.274 13.5718 14.2271C13.5783 14.1641 13.587 13.9722 13.587 13.9224C13.587 13.8316 13.5772 13.7613 13.5696 13.6866ZM13.6738 14.5113C13.6608 14.5157 13.5978 14.5274 13.5653 14.5098C13.5544 14.5025 13.5566 14.4732 13.5674 14.4732C13.5609 14.4674 13.5501 14.4366 13.5653 14.4322C13.5566 14.4293 13.5457 14.3853 13.5609 14.3839C13.5457 14.3707 13.5457 14.3458 13.5609 14.337C13.5718 14.3253 13.639 14.3223 13.6673 14.3282C13.6846 14.3751 13.6803 14.4615 13.6738 14.5113Z" fill="white" stroke="black" stroke-width="0.1" stroke-linecap="round" stroke-linejoin="round"/>
<path d="M13.4299 13.3442C13.4614 13.3706 13.457 13.3413 13.5134 13.3193C13.5688 13.2974 13.6057 13.3633 13.5883 13.4248C13.572 13.4863 13.5699 13.5376 13.6296 13.542C13.6892 13.5464 13.7033 13.4775 13.7164 13.4439C13.7305 13.4116 13.7565 13.4131 13.7717 13.3735C13.7836 13.2915 13.8455 13.3106 13.8835 13.3193M13.9605 13.1362C13.9301 13.1582 13.865 13.0879 13.8542 13.0205C13.8357 12.9414 13.7934 12.8843 13.7185 12.8828C13.6437 12.8828 13.5015 12.9399 13.4711 13.0586C13.4614 13.148 13.4559 13.2065 13.4549 13.2227C13.4277 13.2358 13.4017 13.2241 13.3995 13.2402C13.4017 13.2754 13.4071 13.3062 13.3919 13.3208M12.9297 13.9463L13.0805 13.8584" stroke="black" stroke-width="0.1" stroke-linecap="round" stroke-linejoin="round"/>
<path d="M13.0812 13.8584C13.1235 13.9873 13.1528 14.1191 13.2114 14.1646M13.2938 14.2144C13.3568 14.2568 13.3991 14.2422 13.474 14.2261M13.0974 15.1724C13.2537 15.1826 13.3177 15.2778 13.4468 15.332C13.5749 15.3848 13.7572 15.3555 13.9232 15.461M13.0508 14.4971C13.0898 14.5366 13.1463 14.563 13.1929 14.563M13.2613 14.5674C13.3437 14.585 13.4197 14.6289 13.4316 14.6934M13.2276 14.8106C13.3025 14.9087 13.4392 14.9834 13.5369 14.9907" stroke="black" stroke-width="0.1" stroke-linecap="round" stroke-linejoin="round"/>
<path d="M13.3416 13.4424C13.4121 13.75 13.4219 13.876 13.5868 13.9229M13.5868 13.9229C13.4295 13.898 13.3524 13.7324 13.2819 13.4233M13.5868 13.9229C13.3947 13.9097 13.2873 13.6929 13.2168 13.3838M14.4397 16.3882C14.4049 16.3531 14.3963 16.3311 14.3713 16.2637L14.3127 16.107L14.2758 16.1333C14.2595 16.1436 14.2422 16.104 14.2606 16.0923L14.2921 16.0718L14.2498 15.9575C14.2259 15.9517 14.2487 15.9326 14.265 15.9224C14.2823 15.9107 14.3073 15.896 14.2964 15.9253L14.3387 16.0396L14.3691 16.0191C14.3876 16.0059 14.4017 16.0484 14.3843 16.0586L14.3474 16.0835L14.406 16.2403C14.431 16.3076 14.4397 16.3296 14.4397 16.3882Z" stroke="black" stroke-width="0.1" stroke-linecap="round" stroke-linejoin="round"/>
<path d="M14.4353 16.0557L14.2574 16.1772M14.0935 16L14.3279 15.8403M14.0566 15.9502L14.3008 15.7832" stroke="black" stroke-width="0.1" stroke-linecap="round" stroke-linejoin="round"/>
<path d="M12.1044 15.1182L12.1836 15.0215M12.0686 15.0742L12.1445 14.9819M12.0273 15.023L12.1098 14.9292M13.567 14.4736L13.6441 14.4692M13.5605 14.3843L13.6332 14.3814M13.5649 14.4326L13.6365 14.4238M13.7298 13.5156C13.7461 13.5288 13.7613 13.5391 13.7765 13.542" stroke="black" stroke-width="0.1" stroke-linecap="round" stroke-linejoin="round"/>
</g>
<defs>
<clipPath id="clip0_673_5376">
<rect width="100" height="90" rx="19" fill="white"/>
</clipPath>
</defs>
</svg>
