<svg width="80" height="76" viewBox="0 0 80 76" fill="none" xmlns="http://www.w3.org/2000/svg">
<mask id="mask0_863_1662" style="mask-type:alpha" maskUnits="userSpaceOnUse" x="0" y="0" width="80" height="76">
<rect width="80" height="75.9236" rx="16" fill="white"/>
<rect x="0.33225" y="0.33225" width="79.3355" height="75.2591" rx="15.6678" stroke="#1E417C" stroke-opacity="0.2" stroke-width="0.6645"/>
</mask>
<g mask="url(#mask0_863_1662)">
<path fill-rule="evenodd" clip-rule="evenodd" d="M0 0H80.2096V75.9236H0V0Z" fill="#00247D"/>
<path d="M-7.64459 0H43.3108V37.9618H-7.64459V0Z" fill="#012169"/>
<path d="M-1.67325 0L17.7535 14.3148L37.1006 0H43.3108V4.9034L24.2025 19.06L43.3108 33.1375V37.9618H36.9414L17.8331 23.8052L-1.19555 37.9618H-7.64459V33.2166L11.3841 19.1391L-7.64459 5.06157V0H-1.67325Z" fill="white"/>
<path d="M26.1134 22.2235L43.3108 34.7983V37.9618L21.7344 22.2235H26.1134ZM11.4637 23.8052L11.9414 26.5732L-3.34523 37.9618H-7.64459L11.4637 23.8052ZM43.3108 0V0.237261L23.486 15.1056L23.6452 11.6258L39.3299 0H43.3108ZM-7.64459 0L11.3841 13.9193H6.607L-7.64459 3.32166V0Z" fill="#C8102E"/>
<path d="M11.5433 0V37.9618H24.2822V0H11.5433ZM-7.64459 12.6539V25.3079H43.3108V12.6539H-7.64459Z" fill="white"/>
<path d="M-7.64459 15.2638V22.8562H43.3108V15.2638H-7.64459ZM14.0911 0V37.9618H21.7344V0H14.0911Z" fill="#C8102E"/>
<path d="M68.2233 62.2575L72.0165 64.6934L70.7521 60.6916L74.3646 58.0817H69.849L68.2233 54.2539L66.959 58.0817H62.2627L65.8752 60.6916L64.6108 64.6934L68.2233 62.2575Z" fill="#ED4C5C"/>
<path fill-rule="evenodd" clip-rule="evenodd" d="M68.223 62.2563L64.6105 64.6922L65.8749 60.6904L62.2624 58.0805H66.9586L68.223 54.2527L69.8486 58.0805H74.3643L70.7518 60.6904L72.0161 64.6922L68.223 62.2563ZM71.4965 60.9347L73.1523 66.1752L68.2316 63.0152L63.4552 66.2359L65.1301 60.9347L60.3037 57.4478H66.4973L68.1484 52.4492L70.2712 57.4478H76.3229L71.4965 60.9347Z" fill="white"/>
<path d="M68.2232 17.4081L71.0207 19.2993L69.9716 16.2046L72.7692 14.3134H69.4471L68.2232 11.3906L67.3489 14.3134H63.852L66.6495 16.2046L65.6005 19.2993L68.2232 17.4081Z" fill="#ED4C5C"/>
<path fill-rule="evenodd" clip-rule="evenodd" d="M68.2258 17.408L65.6031 19.2992L66.6522 16.2045L63.8546 14.3133H67.3516L68.2258 11.3905L69.4497 14.3133H72.7718L69.9743 16.2045L71.0234 19.2992L68.2258 17.408ZM70.7321 16.4575L72.2318 20.8815L68.2376 18.1813L64.3628 20.9754L65.8943 16.4575L61.7866 13.6806H66.8763L68.1256 9.50391L69.8746 13.6806H74.8398L70.7321 16.4575Z" fill="white"/>
<path d="M53.2648 34.9269L56.0575 36.8559L55.0102 33.6993L57.803 31.7703H54.3121L53.2648 28.7891L52.2175 31.7703H48.7266L51.5193 33.6993L50.472 36.8559L53.2648 34.9269Z" fill="#ED4C5C"/>
<path fill-rule="evenodd" clip-rule="evenodd" d="M53.2637 34.9254L50.471 36.8544L51.5182 33.6978L48.7255 31.7688H52.2164L53.2637 28.7876L54.311 31.7688H57.8019L55.0092 33.6978L56.0565 36.8544L53.2637 34.9254ZM55.7628 33.9479L57.2582 38.4551L53.2637 35.696L49.2693 38.4551L50.7646 33.9479L46.6938 31.1361H51.7641L53.2637 26.8672L54.7633 31.1361H59.8336L55.7628 33.9479Z" fill="white"/>
</g>
</svg>
