<svg width="101" height="93" viewBox="0 0 101 93" fill="none" xmlns="http://www.w3.org/2000/svg">
<g clip-path="url(#clip0_673_5473)">
<path d="M0 19C0 8.50659 8.50659 0 19 0H82C92.4934 0 101 8.50659 101 19V74C101 84.4934 92.4934 93 82 93H19C8.50659 93 0 84.4934 0 74V19Z" fill="white"/>
<path d="M0 19C0 8.50659 8.50659 0 19 0H82C92.4934 0 101 8.50659 101 19V46.5H0V19Z" fill="#ED2939"/>
<path d="M19.5 33C27.5081 33 34 26.5081 34 18.5C34 10.4919 27.5081 4 19.5 4C11.4919 4 5 10.4919 5 18.5C5 26.5081 11.4919 33 19.5 33Z" fill="white"/>
<path d="M26.5 33C34.5081 33 41 26.5081 41 18.5C41 10.4919 34.5081 4 26.5 4C18.4919 4 12 10.4919 12 18.5C12 26.5081 18.4919 33 26.5 33Z" fill="#ED2939"/>
<path d="M27 7L24.5283 13.9978L31 9.6735H23L29.4717 14L27 7Z" fill="white"/>
<path d="M38.9691 15.2844L31.8026 15.2839L37.6004 19.472L35.3849 12.6961L33.1695 19.4715L38.9691 15.2844Z" fill="white"/>
<path d="M20.3968 28.6942L26.1949 24.5086L19.0272 24.5069L24.8274 28.6947L22.6121 21.9192L20.3968 28.6942Z" fill="white"/>
<path d="M34.3019 28.6201L32.8269 21.9492L29.8046 28.7513L36.1695 24.4153L28.8928 24.6268L34.3019 28.6201Z" fill="white"/>
<path d="M16.2272 15.4829L21.4615 19.3951L19.8622 12.5445L17.2164 19.7173L23.0984 14.9635L16.2272 15.4829Z" fill="white"/>
</g>
<defs>
<clipPath id="clip0_673_5473">
<rect width="101" height="93" fill="white"/>
</clipPath>
</defs>
</svg>
