<svg width="101" height="96" viewBox="0 0 101 96" fill="none" xmlns="http://www.w3.org/2000/svg">
<mask id="mask0_673_5154" style="mask-type:alpha" maskUnits="userSpaceOnUse" x="-1" y="0" width="102" height="96">
<rect x="-0.164062" width="101.154" height="96" rx="29.6463" fill="white"/>
<rect x="0.285124" y="0.449186" width="100.256" height="95.1016" rx="29.1971" stroke="#1E417C" stroke-opacity="0.2" stroke-width="0.898372"/>
</mask>
<g mask="url(#mask0_673_5154)">
<path d="M-5.31641 -7.73145H106.147V103.732H-5.31641V-7.73145Z" fill="#012169"/>
<path d="M106.147 -7.73145V6.20144L64.7834 48.0001L106.147 88.7103V103.732H91.5607L49.9797 62.8038L9.48729 103.732H-5.31641V88.928L35.176 48.2178L-5.31641 8.37846V-7.73145H8.18108L49.9797 33.1964L90.4722 -7.73145H106.147Z" fill="white"/>
<path d="M34.7406 62.8038L37.1354 70.2056L3.82705 103.732H-5.31641V103.079L34.7406 62.8038ZM61.7356 60.1914L73.4915 61.933L106.147 93.9351V103.732L61.7356 60.1914ZM106.147 -7.73145L64.348 34.938L63.4772 25.3592L96.1324 -7.73145H106.147ZM-5.31641 -7.51374L36.7 33.6318L23.8556 31.8902L-5.31641 2.93592V-7.51374Z" fill="#C8102E"/>
<path d="M32.999 -7.73145V103.732H67.8313V-7.73145H32.999ZM-5.31641 30.584V65.4162H106.147V30.584H-5.31641Z" fill="white"/>
<path d="M-5.31641 37.5504V58.4498H106.147V37.5504H-5.31641ZM39.9655 -7.73145V103.732H60.8648V-7.73145H39.9655Z" fill="#C8102E"/>
</g>
</svg>
