<svg width="50" height="50" viewBox="0 0 50 50" fill="none" xmlns="http://www.w3.org/2000/svg">
<path d="M16.676 34.3982H39.063V36.5566H16.676V34.3982Z" fill="url(#paint0_linear_6180_40151)"/>
<path d="M29.6582 11.2104H39.0622V13.3678H29.6582V11.2104Z" fill="url(#paint1_linear_6180_40151)"/>
<path d="M29.6582 17.0076H39.0622V19.1659H29.6582V17.0076Z" fill="url(#paint2_linear_6180_40151)"/>
<path d="M18.1669 19.9593H24.2509C25.2909 19.9593 26.1376 19.1027 26.1376 18.0491V11.8857C26.1376 10.8318 25.2912 9.97474 24.2509 9.97474H18.1669C17.1266 9.97474 16.2806 10.8314 16.2806 11.8857V18.0484C16.2806 19.102 17.1262 19.9593 18.1669 19.9593ZM18.3241 12.0445H24.094V17.8896H18.3241V12.0445Z" fill="url(#paint3_linear_6180_40151)"/>
<path d="M40.5689 5.00035H15.1684C12.7249 5.00035 10.7369 7.01386 10.7369 9.48921V15.0034L8.93327 15.003C6.76435 15.003 5 17.0169 5 19.4922V40.5111C5 42.9865 6.98798 45 9.43117 45H40.5685C43.012 45 45 42.9865 45 40.5111L44.9997 9.48859C44.9997 7.01324 43.0117 5 40.5681 5L40.5689 5.00035ZM42.8709 40.5109C42.8709 41.7962 41.8385 42.8421 40.5689 42.8421H9.43161C8.16313 42.8421 7.13037 41.7966 7.13037 40.5109L7.13002 19.492C7.13002 18.207 7.93949 17.1608 8.93399 17.1608H10.7376V35.4692C10.7376 36.0644 11.2152 36.5478 11.8024 36.5478C12.3899 36.5478 12.8672 36.0647 12.8672 35.4692L12.8675 9.48867C12.8675 8.20368 13.8999 7.15747 15.1688 7.15747H40.5693C41.8378 7.15747 42.8712 8.20332 42.8712 9.48867L42.8709 40.5109Z" fill="url(#paint4_linear_6180_40151)"/>
<path d="M16.676 22.8048H39.063V24.9631H16.676V22.8048Z" fill="url(#paint5_linear_6180_40151)"/>
<path d="M16.676 28.601H39.063V30.7591H16.676V28.601Z" fill="url(#paint6_linear_6180_40151)"/>
<defs>
<linearGradient id="paint0_linear_6180_40151" x1="0" y1="0" x2="0" y2="1" gradientUnits="objectBoundingBox">
<stop stop-color="#ED3040"/>
<stop offset="1" stop-color="#2D23F4"/>
</linearGradient>
<linearGradient id="paint1_linear_6180_40151" x1="0" y1="0" x2="0" y2="1" gradientUnits="objectBoundingBox">
<stop stop-color="#ED3040"/>
<stop offset="1" stop-color="#2D23F4"/>
</linearGradient>
<linearGradient id="paint2_linear_6180_40151" x1="0" y1="0" x2="0" y2="1" gradientUnits="objectBoundingBox">
<stop stop-color="#ED3040"/>
<stop offset="1" stop-color="#2D23F4"/>
</linearGradient>
<linearGradient id="paint3_linear_6180_40151" x1="0" y1="0" x2="0" y2="1" gradientUnits="objectBoundingBox">
<stop stop-color="#ED3040"/>
<stop offset="1" stop-color="#2D23F4"/>
</linearGradient>
<linearGradient id="paint4_linear_6180_40151" x1="0" y1="0" x2="0" y2="1" gradientUnits="objectBoundingBox">
<stop stop-color="#ED3040"/>
<stop offset="1" stop-color="#2D23F4"/>
</linearGradient>
<linearGradient id="paint5_linear_6180_40151" x1="0" y1="0" x2="0" y2="1" gradientUnits="objectBoundingBox">
<stop stop-color="#ED3040"/>
<stop offset="1" stop-color="#2D23F4"/>
</linearGradient>
<linearGradient id="paint6_linear_6180_40151" x1="0" y1="0" x2="0" y2="1" gradientUnits="objectBoundingBox">
<stop stop-color="#ED3040"/>
<stop offset="1" stop-color="#2D23F4"/>
</linearGradient>
</defs>
</svg>
