<svg width="50" height="50" viewBox="0 0 50 50" fill="none" xmlns="http://www.w3.org/2000/svg">
<path d="M44.4526 7.05214C43.615 6.89864 42.6785 6.88045 41.6663 6.98565V5.9148C41.6663 5.5744 41.4099 5.28925 41.0718 5.2522C31.4753 4.20921 26.3772 6.6971 25.0002 7.51356C23.6237 6.69714 18.5277 4.20684 8.92777 5.2522C8.59002 5.28925 8.33365 5.5744 8.33365 5.9148V6.98565C7.32141 6.88045 6.38453 6.89865 5.54733 7.05214C5.23009 7.11003 5.00019 7.38625 5.00019 7.70779V31.0209C4.99026 31.4132 5.37499 31.7464 5.76005 31.6812C5.88509 31.663 18.2207 29.9931 24.5814 35.1266C24.8262 35.3237 25.1748 35.3237 25.4193 35.1259C26.5669 34.197 28.0029 33.4431 29.6664 32.8553V33.6674C29.6664 34.0359 29.9645 34.334 30.333 34.334H32.511L33.0003 44.3658C33.0182 44.7208 33.3109 45 33.6665 45H37.6662C38.0218 45 38.3146 44.7208 38.3321 44.3658L38.8214 34.334C42.1793 34.3128 41.6226 34.7696 41.6663 31.4576C43.226 31.5403 44.2284 31.6796 44.24 31.6813C44.6267 31.7451 45.0091 31.4146 44.9998 31.021C44.9995 31.021 44.9995 7.70785 44.9995 7.70785C44.9995 7.38631 44.7696 7.11009 44.4527 7.0522L44.4526 7.05214ZM9.6672 6.5169C18.4711 5.68294 23.1898 8.00584 24.333 8.67046V30.1374C20.0977 27.2518 14.6188 27.0924 9.6672 27.3107V6.5169ZM25.0003 33.7645C19.551 29.8733 11.9342 29.7793 6.33398 30.2699V8.28632C6.94464 8.22645 7.61383 8.2367 8.334 8.32072V28.033C8.32705 28.4184 8.68664 28.7409 9.06904 28.6963C9.18085 28.6847 20.3762 27.5881 24.5097 32.0712C24.6444 32.1906 24.8124 32.2941 25 32.2859C25.1879 32.2918 25.3559 32.1919 25.4909 32.0705C26.61 30.8766 28.1241 30.1458 29.6663 29.6437V31.4304C27.8612 32.0209 26.2954 32.8033 25 33.7643L25.0003 33.7645ZM37.0316 43.6668H34.3012L33.846 34.3336H37.4865L37.0316 43.6668ZM40.333 33.0006H30.9998V24.3339H40.333V33.0006ZM38.333 23.001H32.9997V21.6678C32.9997 20.1971 34.1956 19.0013 35.6663 19.0013C37.1037 18.9698 38.3637 20.2355 38.3329 21.6678V23.001H38.333ZM43.6662 30.2723C43.0165 30.2065 42.3298 30.1582 41.6662 30.1225V23.6675C41.6662 23.299 41.3681 23.0009 40.9996 23.0009H39.6665V21.6678C39.7155 19.5245 37.815 17.6181 35.6665 17.6681C33.461 17.6678 31.6668 19.4621 31.6668 21.6678V23.0009H30.3337C29.9651 23.0009 29.6671 23.299 29.6671 23.6675V28.2488C28.2397 28.6759 26.8678 29.2677 25.6674 30.1374L25.6671 8.67041C26.8143 8.00384 31.5276 5.68296 40.3329 6.51686V17.0009C40.3329 17.3695 40.6309 17.6675 40.9995 17.6675C41.368 17.6675 41.666 17.3695 41.666 17.0009L41.6664 8.32405C42.3376 8.24499 43.0114 8.22977 43.6664 8.28667L43.6662 30.2723Z" fill="url(#paint0_linear_6180_40147)"/>
<path d="M12.3339 21.668H21.6671C22.0356 21.668 22.3337 21.37 22.3337 21.0015V11.6683C22.3337 11.2997 22.0356 11.0017 21.6671 11.0017L12.3339 11.0014C11.9654 11.0014 11.6674 11.2994 11.6674 11.6679V21.0011C11.6674 21.3697 11.9654 21.668 12.3339 21.668ZM13.0005 12.3348H21.0003V20.3347H13.0005V12.3348Z" fill="url(#paint1_linear_6180_40147)"/>
<path d="M19.2985 15.7384L15.2988 13.7383C14.8754 13.5121 14.3197 13.8541 14.3338 14.3348V18.3348C14.3196 18.8145 14.8756 19.1588 15.2988 18.9313L19.2985 16.9312C19.7818 16.7079 19.7828 15.9613 19.2985 15.7384ZM15.6669 17.2561V15.4138L17.5092 16.3351L15.6669 17.2561Z" fill="url(#paint2_linear_6180_40147)"/>
<path d="M28.3336 11.0019H33.0002C33.8751 10.988 33.8774 9.68298 33.0002 9.66876C32.9998 9.66843 28.3336 9.66843 28.3336 9.66843C27.4586 9.68265 27.4563 10.9873 28.3336 11.0019Z" fill="url(#paint3_linear_6180_40147)"/>
<path d="M37.6667 13.0013H28.3336C27.4603 13.0149 27.455 14.3199 28.3336 14.3344H37.6667C38.5404 14.3209 38.5454 13.0159 37.6667 13.0013Z" fill="url(#paint4_linear_6180_40147)"/>
<path d="M30.3338 16.3345H28.3338C27.4582 16.3488 27.4572 17.6534 28.3338 17.6677H30.3338C31.2095 17.6534 31.2105 16.3488 30.3338 16.3345Z" fill="url(#paint5_linear_6180_40147)"/>
<defs>
<linearGradient id="paint0_linear_6180_40147" x1="37.6624" y1="33.6397" x2="37.6624" y2="41.6506" gradientUnits="userSpaceOnUse">
<stop stop-color="#ED3040"/>
<stop offset="1" stop-color="#2D23F4"/>
</linearGradient>
<linearGradient id="paint1_linear_6180_40147" x1="37.6624" y1="33.6397" x2="37.6624" y2="41.6506" gradientUnits="userSpaceOnUse">
<stop stop-color="#ED3040"/>
<stop offset="1" stop-color="#2D23F4"/>
</linearGradient>
<linearGradient id="paint2_linear_6180_40147" x1="37.6624" y1="33.6397" x2="37.6624" y2="41.6506" gradientUnits="userSpaceOnUse">
<stop stop-color="#ED3040"/>
<stop offset="1" stop-color="#2D23F4"/>
</linearGradient>
<linearGradient id="paint3_linear_6180_40147" x1="37.6624" y1="33.6397" x2="37.6624" y2="41.6506" gradientUnits="userSpaceOnUse">
<stop stop-color="#ED3040"/>
<stop offset="1" stop-color="#2D23F4"/>
</linearGradient>
<linearGradient id="paint4_linear_6180_40147" x1="37.6624" y1="33.6397" x2="37.6624" y2="41.6506" gradientUnits="userSpaceOnUse">
<stop stop-color="#ED3040"/>
<stop offset="1" stop-color="#2D23F4"/>
</linearGradient>
<linearGradient id="paint5_linear_6180_40147" x1="37.6624" y1="33.6397" x2="37.6624" y2="41.6506" gradientUnits="userSpaceOnUse">
<stop stop-color="#ED3040"/>
<stop offset="1" stop-color="#2D23F4"/>
</linearGradient>
</defs>
</svg>
