<svg width="50" height="50" viewBox="0 0 50 50" fill="none" xmlns="http://www.w3.org/2000/svg">
<path d="M42.239 9.88519L41.2677 8.95463L39.3666 10.8733L40.3372 11.8039L42.239 9.88519Z" fill="url(#paint0_linear_6180_40153)"/>
<path d="M42.3101 14.9046H45V16.2378H42.3101V14.9046Z" fill="url(#paint1_linear_6180_40153)"/>
<path d="M34.5011 5.66603H35.8571V8.37867H34.5011V5.66603Z" fill="url(#paint2_linear_6180_40153)"/>
<path d="M10.4243 22.7527V33.2286L9.43088 34.2051L7.99313 32.7913C7.80358 32.6054 7.52371 32.5455 7.27494 32.6378C7.02716 32.7278 6.85547 32.955 6.83694 33.2177L6.35759 40.2892C6.34568 40.482 6.41879 40.6702 6.55773 40.8046C6.68476 40.9296 6.85612 40.9997 7.03443 40.9997H7.07909L14.2703 40.5283V40.5287C14.5339 40.5121 14.7639 40.3441 14.8598 40.0979C14.9534 39.8525 14.8922 39.5753 14.7043 39.392L13.2669 37.9764L14.2597 36.9999H19.2377V40.0573L15.3712 43.862H15.3709C15.1774 44.0509 15.1191 44.3394 15.2243 44.5885C15.3312 44.8392 15.578 45.0013 15.8502 45H34.8305C35.1028 45.0013 35.3496 44.8392 35.4564 44.5885C35.5616 44.3394 35.5034 44.0509 35.3099 43.862L31.4433 40.0573V36.9999H39.5767C39.755 37.0015 39.9267 36.9321 40.0537 36.807C40.1808 36.682 40.2532 36.5116 40.2545 36.3333V21.0369L41.9212 20.6168C42.1544 20.5589 42.3387 20.3809 42.4052 20.1504C42.4703 19.9205 42.4065 19.6737 42.2378 19.5043L39.7905 17.0378C40.6145 15.685 40.285 13.7005 38.9092 12.3131C38.109 11.4758 37.0096 10.9892 35.8518 10.9598C35.2742 10.9565 34.7065 11.1126 34.2113 11.4103L31.7779 8.95574C31.6035 8.7814 31.3495 8.71326 31.1113 8.77776C30.8751 8.84062 30.6912 9.02653 30.6313 9.26373L28.7768 16.759L28.5369 17.0005H23.5834C23.8474 16.136 23.9823 15.2376 23.9833 14.3338C23.9595 11.8381 22.9466 9.45433 21.1671 7.70433C19.3876 5.95468 16.987 4.98237 14.4913 5.00024C11.996 4.98238 9.59534 5.95493 7.81588 7.70467C6.03675 9.45433 5.02414 11.8385 5 14.3338C5.00959 16.1076 5.525 17.8424 6.48568 19.3337C7.44672 20.825 8.81265 22.0116 10.424 22.7537L10.4243 22.7527ZM35.8535 12.2912C36.6472 12.3209 37.3968 12.6623 37.9397 13.242C38.3207 13.585 38.6009 14.025 38.7505 14.5153C38.9003 15.0055 38.9136 15.5272 38.7892 16.0244L35.1962 12.3993C35.4076 12.3255 35.6299 12.2889 35.8535 12.2912ZM12.6168 11.4774C13.2341 11.6021 13.862 11.6653 14.4916 11.6659C15.1214 11.6649 15.7496 11.6021 16.367 11.478C16.4437 12.1512 16.4957 12.8813 16.5149 13.666H12.467C12.4882 12.8813 12.5398 12.1512 12.6168 11.4774ZM16.5148 14.9992C16.4956 15.7846 16.4433 16.5147 16.3669 17.1886C15.129 16.9441 13.8551 16.9441 12.6168 17.1886C12.5401 16.5154 12.4882 15.7846 12.469 14.9999L16.5148 14.9992ZM12.5249 22.0866C11.2721 21.7796 10.1099 21.1802 9.13371 20.3373C9.83537 19.7253 10.6386 19.2406 11.5076 18.9059C11.6909 20.0098 12.0336 21.0813 12.5249 22.0866ZM12.8084 18.5078C13.9186 18.2766 15.0646 18.2766 16.1751 18.5078C15.7338 20.9407 14.9762 22.3327 14.4916 22.3327C14.0069 22.3327 13.2497 20.9406 12.8084 18.5078ZM17.4748 18.9078C18.3439 19.2432 19.147 19.7279 19.849 20.3399C18.8721 21.1828 17.71 21.7822 16.4568 22.0892C16.9494 21.0828 17.2928 20.0103 17.4761 18.9051L17.4748 18.9078ZM20.8028 19.3746C19.8924 18.5704 18.8338 17.951 17.6862 17.5511C17.7874 16.7278 17.8489 15.8699 17.8694 15.0039H22.5915C22.4555 16.6077 21.8316 18.1311 20.8041 19.37L20.8028 19.3746ZM17.8708 13.6661C17.8503 12.7994 17.7887 11.9423 17.6875 11.1188V11.1185C18.8348 10.7189 19.8934 10.0996 20.8041 9.29543C21.8329 10.5353 22.4572 12.0607 22.5928 13.6661L17.8708 13.6661ZM17.4761 9.75951V9.75918C17.2928 8.65527 16.9498 7.58371 16.4582 6.57872C17.7113 6.88571 18.8735 7.48513 19.8503 8.32803C19.1484 8.94004 18.3452 9.42432 17.4761 9.75909V9.75951ZM16.1747 10.1595L16.1751 10.1591C15.0649 10.3907 13.9189 10.3907 12.809 10.1591C13.2497 7.72469 14.007 6.33259 14.4915 6.33259C14.9762 6.33259 15.7337 7.72469 16.1751 10.1571L16.1747 10.1595ZM11.5083 9.75918C10.6393 9.4244 9.83573 8.94008 9.13375 8.32812C10.11 7.48488 11.2721 6.88546 12.5249 6.5788C12.0337 7.58413 11.6909 8.65595 11.5076 9.75985L11.5083 9.75918ZM11.2959 11.1182C11.195 11.9419 11.1335 12.7994 11.1123 13.6661H6.3903C6.52627 12.0607 7.15051 10.5353 8.179 9.29542C9.08973 10.0996 10.1483 10.7189 11.2956 11.1185L11.2959 11.1182ZM11.1123 14.9992C11.1328 15.8659 11.1944 16.7231 11.2956 17.5465C10.1483 17.9464 9.08974 18.5657 8.17901 19.3699C7.15047 18.1297 6.52624 16.6047 6.39031 14.9992H11.1123ZM11.8282 38.4477L12.689 39.2936L7.76217 39.6168L8.09001 34.772L8.95145 35.6186L8.95178 35.6189C9.21842 35.8789 9.64352 35.8789 9.91011 35.6189L15.1842 30.4328L17.1016 32.3188L11.8281 37.5049C11.7011 37.629 11.6296 37.799 11.6296 37.9763C11.6296 38.154 11.7011 38.3237 11.8281 38.4477L11.8282 38.4477ZM30.2834 40.8044L33.1942 43.6662H17.4846L20.3954 40.8044H20.3951C20.5228 40.6807 20.5949 40.5106 20.5952 40.333V36.9997H30.0854V40.333C30.0854 40.5106 30.1568 40.6803 30.2839 40.8044H30.2834ZM38.8979 28.6093C38.8264 28.5382 38.7397 28.4839 38.6445 28.4508L35.9444 27.5427L32.7153 24.2859L34.4987 22.4859L38.8989 21.3767L38.8979 28.6093ZM29.3815 25.7382L28.44 26.6873L24.6321 22.8469L29.3915 18.0467L33.2002 21.8881L30.3333 24.7821L29.3815 25.7382ZM22.8876 25.5662L24.1609 24.2823L27.0181 27.1631L25.7207 28.4717V28.4714C25.3816 28.8009 24.8424 28.8009 24.5033 28.4714L22.8873 26.8422C22.5393 26.4879 22.5393 25.9202 22.8873 25.5663L22.8876 25.5662ZM31.7688 25.241L35.0876 28.5885L35.0873 28.5881C35.162 28.6632 35.2533 28.7198 35.3539 28.7532L37.1919 29.3712L36.3367 30.2326L34.0428 29.4605L30.8131 26.204L31.7688 25.241ZM31.6623 10.7475L40.4517 19.6099L34.3591 21.1432L30.1406 16.888L31.6623 10.7475ZM27.2145 18.333L23.1998 22.3818C23.0761 22.5056 23.0063 22.6733 23.0063 22.8483C23.0063 23.0236 23.0761 23.1913 23.1998 23.3151L23.2137 23.329L21.9169 24.637H21.9173C21.5051 25.0554 21.2742 25.6188 21.2742 26.206C21.2742 26.7932 21.5051 27.3569 21.9173 27.775L23.5333 29.3996C23.9511 29.8211 24.5197 30.0583 25.1132 30.0583C25.7067 30.0583 26.2754 29.8211 26.6932 29.3996L27.9678 28.1137C28.2354 28.3748 28.6635 28.3711 28.9265 28.1058L29.8667 27.159L33.1848 30.5065L33.1844 30.5061C33.2595 30.5812 33.3508 30.6378 33.4514 30.6715L36.304 31.6302C36.5511 31.7136 36.8244 31.6494 37.0087 31.4648L38.8979 29.5586V35.6661H15.6155L18.5396 32.7907V32.791C18.6666 32.667 18.738 32.4969 18.738 32.3193C18.738 32.1416 18.6666 31.9716 18.5396 31.8475L15.6668 29.0188C15.3962 28.769 14.9787 28.769 14.7081 29.0188L11.7827 31.8949V23.2728C13.9423 23.9122 16.2587 23.767 18.3212 22.8629C20.3841 21.9588 22.0607 20.354 23.0542 18.3328L27.2145 18.333Z" fill="url(#paint3_linear_6180_40153)"/>
<defs>
<linearGradient id="paint0_linear_6180_40153" x1="0" y1="0" x2="0" y2="1" gradientUnits="objectBoundingBox">
<stop stop-color="#ED3040"/>
<stop offset="1" stop-color="#2D23F4"/>
</linearGradient>
<linearGradient id="paint1_linear_6180_40153" x1="0" y1="0" x2="0" y2="1" gradientUnits="objectBoundingBox">
<stop stop-color="#ED3040"/>
<stop offset="1" stop-color="#2D23F4"/>
</linearGradient>
<linearGradient id="paint2_linear_6180_40153" x1="0" y1="0" x2="0" y2="1" gradientUnits="objectBoundingBox">
<stop stop-color="#ED3040"/>
<stop offset="1" stop-color="#2D23F4"/>
</linearGradient>
<linearGradient id="paint3_linear_6180_40153" x1="0" y1="0" x2="0" y2="1" gradientUnits="objectBoundingBox">
<stop stop-color="#ED3040"/>
<stop offset="1" stop-color="#2D23F4"/>
</linearGradient>
</defs>
</svg>
