<svg width="50" height="50" viewBox="0 0 50 50" fill="none" xmlns="http://www.w3.org/2000/svg">
<path d="M44.9362 16.191C44.9348 15.9141 44.7056 15.6906 44.4224 15.6906H39.6251L38.3145 11.3595C38.2758 11.2308 38.1855 11.1224 38.0651 11.0593C37.9423 10.9969 37.8018 10.9826 37.6704 11.0218L22.178 15.6902H10.6182C10.4799 15.6902 10.3469 15.7449 10.2497 15.8423C10.1531 15.9396 10.1012 16.0713 10.1048 16.2068L10.1974 19.3004L5.36197 20.7575C5.23031 20.7973 5.12082 20.8869 5.05764 21.0063C4.99446 21.1256 4.98255 21.2654 5.02522 21.3935L10.7981 38.6532C10.8001 38.6597 10.807 38.6623 10.8094 38.6684C10.8424 38.7567 10.899 38.8298 10.9731 38.8868C10.988 38.8981 11.0019 38.9059 11.0177 38.9156C11.0971 38.9644 11.1855 39 11.286 39H11.2916C14.7351 38.9644 44.1894 38.9987 44.485 39H44.4863C44.6229 39 44.7532 38.946 44.8498 38.8518C44.9464 38.7574 45 38.6299 45 38.4963L44.9362 16.191ZM6.16319 21.5663L10.2286 20.3415L10.6685 35.0381L6.16319 21.5663ZM37.4774 12.131L38.5545 15.6905H25.6643L37.4774 12.131ZM21.4397 37.9796C17.0756 37.9796 13.3734 37.9832 11.7843 37.9919L11.1472 16.6941H43.9112L43.9714 37.9952C41.4393 37.9916 30.1252 37.9794 21.4395 37.9794L21.4397 37.9796Z" fill="url(#paint0_linear_6180_40155)"/>
<path d="M13.8886 22.9256H13.8906L41.2172 22.8399C41.5017 22.8392 41.7296 22.6138 41.7296 22.3362C41.7283 22.0599 41.4991 21.8364 41.2159 21.8364H41.2146L13.8871 21.9221C13.604 21.9228 13.3748 22.1483 13.3761 22.4258C13.3764 22.7018 13.6063 22.9256 13.8891 22.9256H13.8886Z" fill="url(#paint1_linear_6180_40155)"/>
<path d="M31.8216 24.6565L24.9664 24.6448H24.9657C24.6826 24.6448 24.4533 24.869 24.4527 25.1459C24.452 25.4229 24.6812 25.6477 24.9651 25.6483L31.8192 25.66H31.8206C32.1037 25.66 32.333 25.4358 32.3343 25.1589C32.3339 24.882 32.1047 24.6571 31.8216 24.6565Z" fill="url(#paint2_linear_6180_40155)"/>
<path d="M31.8173 26.9844L24.9622 26.9734H24.9615C24.6783 26.9734 24.4491 27.1976 24.4484 27.4745C24.4478 27.7528 24.677 27.9769 24.9608 27.9782L31.815 27.9892H31.8163C32.0995 27.9892 32.3287 27.765 32.33 27.4881C32.33 27.2099 32.1005 26.9854 31.8173 26.9844Z" fill="url(#paint3_linear_6180_40155)"/>
<path d="M31.8123 30.3186C32.0954 30.3186 32.3247 30.0944 32.326 29.8175C32.326 29.5406 32.0967 29.3151 31.8136 29.3138L24.9577 29.3015H24.9571C24.6739 29.3015 24.4447 29.5257 24.444 29.8026C24.4433 30.0796 24.6726 30.305 24.9557 30.3063L31.8109 30.3186H31.8123Z" fill="url(#paint4_linear_6180_40155)"/>
<path d="M24.9548 31.6313H24.9535C24.6703 31.6313 24.4411 31.8554 24.4404 32.1324C24.4397 32.4093 24.669 32.6348 24.9521 32.636L29.0198 32.6435H29.0211C29.3043 32.6435 29.5335 32.4193 29.5348 32.1424C29.5348 31.8655 29.3056 31.64 29.0224 31.6387L24.9548 31.6313Z" fill="url(#paint5_linear_6180_40155)"/>
<path d="M34.5161 24.6606H34.5148C34.2317 24.6606 34.0024 24.8848 34.0011 25.1617C34.0011 25.4386 34.2303 25.6635 34.5135 25.6641L41.368 25.6758H41.3693C41.6525 25.6758 41.8817 25.4516 41.883 25.1747C41.883 24.8977 41.6538 24.6729 41.3707 24.6723L34.5161 24.6606Z" fill="url(#paint6_linear_6180_40155)"/>
<path d="M41.3677 27.001L34.5132 26.99H34.5118C34.2287 26.99 33.9995 27.2142 33.9981 27.4911C33.9981 27.7693 34.2274 27.9935 34.5105 27.9948L41.365 28.0058H41.3664C41.6495 28.0058 41.8788 27.7816 41.8801 27.5047C41.8801 27.2265 41.6508 27.002 41.3677 27.001Z" fill="url(#paint7_linear_6180_40155)"/>
<path d="M41.3626 30.3344C41.6458 30.3344 41.875 30.1102 41.8763 29.8332C41.8763 29.5563 41.6471 29.3309 41.3639 29.3296L34.5094 29.3173H34.5081C34.2249 29.3173 33.9957 29.5415 33.9944 29.8184C33.9944 30.0953 34.2236 30.3208 34.5068 30.3221L41.3613 30.3344H41.3626Z" fill="url(#paint8_linear_6180_40155)"/>
<path d="M34.5034 31.647H34.5021C34.219 31.647 33.9897 31.8712 33.9884 32.1481C33.9884 32.425 34.2176 32.6505 34.5008 32.6518L38.5691 32.6592H38.5704C38.8536 32.6592 39.0828 32.435 39.0842 32.1581C39.0842 31.8812 38.8549 31.6557 38.5718 31.6544L34.5034 31.647Z" fill="url(#paint9_linear_6180_40155)"/>
<path d="M42.7954 33.9012H24.235C23.9518 33.9012 23.7219 34.1267 23.7219 34.4036C23.7219 34.6805 23.9518 34.906 24.235 34.906H42.7954C43.0786 34.906 43.3091 34.6805 43.3091 34.4036C43.3091 34.1267 43.0786 33.9012 42.7954 33.9012Z" fill="url(#paint10_linear_6180_40155)"/>
<path d="M24.235 35.9145C23.9518 35.9145 23.7219 36.14 23.7219 36.4169C23.7219 36.6938 23.9518 36.9193 24.235 36.9193H33.671C33.9542 36.9193 34.1847 36.6938 34.1847 36.4169C34.1851 36.14 33.9545 35.9145 33.6713 35.9145H24.235Z" fill="url(#paint11_linear_6180_40155)"/>
<path d="M16.369 20.5223H40.0788C40.362 20.5223 40.5926 20.2975 40.5926 20.0205V18.2517C40.5926 17.9748 40.362 17.7499 40.0788 17.7499L16.369 17.7503C16.0858 17.7503 15.8559 17.9751 15.8559 18.252V20.0209C15.8559 20.2975 16.0858 20.5223 16.369 20.5223ZM16.882 18.7538H39.5656V19.5188H16.882V18.7538Z" fill="url(#paint12_linear_6180_40155)"/>
<path d="M21.6234 24.0966H13.4249C13.1418 24.0966 12.9119 24.3215 12.9119 24.5984V35.1384C12.9119 35.4153 13.1418 35.6408 13.4249 35.6408H21.6234C21.9066 35.6408 22.1365 35.4153 22.1365 35.1384V24.5984C22.1365 24.3215 21.9066 24.0966 21.6234 24.0966ZM14.3084 34.6358L15.5346 31.7476L17.1429 33.1752C17.26 33.2794 17.4197 33.3259 17.5752 33.2991C17.7307 33.2722 17.8653 33.1778 17.9404 33.0416L18.9758 31.1582L20.6774 34.6358L14.3084 34.6358ZM21.1103 33.1947L19.4653 29.8325C19.382 29.6623 19.208 29.552 19.0141 29.5481C18.8236 29.4928 18.642 29.6462 18.55 29.8115L17.3473 32.0012L15.6861 30.5261C15.5614 30.4158 15.3924 30.374 15.229 30.407C15.0662 30.4426 14.9313 30.5539 14.8668 30.7047L13.9382 32.8906V25.1004H21.1107L21.1103 33.1947Z" fill="url(#paint13_linear_6180_40155)"/>
<path d="M16.8508 29.6544C17.8349 29.6544 18.635 28.8716 18.635 27.9095C18.635 26.9478 17.8349 26.1652 16.8508 26.1652C15.8674 26.1652 15.0672 26.9478 15.0672 27.9095C15.0672 28.8712 15.8671 29.6544 16.8508 29.6544ZM16.8508 27.1693C17.2686 27.1693 17.609 27.5015 17.609 27.9095C17.609 28.3174 17.2689 28.6496 16.8508 28.6496C16.433 28.6496 16.0933 28.3174 16.0933 27.9095C16.0933 27.5015 16.433 27.1693 16.8508 27.1693Z" fill="url(#paint14_linear_6180_40155)"/>
<defs>
<linearGradient id="paint0_linear_6180_40155" x1="0" y1="0" x2="0" y2="1" gradientUnits="objectBoundingBox">
<stop stop-color="#ED3040"/>
<stop offset="1" stop-color="#2D23F4"/>
</linearGradient>
<linearGradient id="paint1_linear_6180_40155" x1="0" y1="0" x2="0" y2="1" gradientUnits="objectBoundingBox">
<stop stop-color="#ED3040"/>
<stop offset="1" stop-color="#2D23F4"/>
</linearGradient>
<linearGradient id="paint2_linear_6180_40155" x1="0" y1="0" x2="0" y2="1" gradientUnits="objectBoundingBox">
<stop stop-color="#ED3040"/>
<stop offset="1" stop-color="#2D23F4"/>
</linearGradient>
<linearGradient id="paint3_linear_6180_40155" x1="0" y1="0" x2="0" y2="1" gradientUnits="objectBoundingBox">
<stop stop-color="#ED3040"/>
<stop offset="1" stop-color="#2D23F4"/>
</linearGradient>
<linearGradient id="paint4_linear_6180_40155" x1="0" y1="0" x2="0" y2="1" gradientUnits="objectBoundingBox">
<stop stop-color="#ED3040"/>
<stop offset="1" stop-color="#2D23F4"/>
</linearGradient>
<linearGradient id="paint5_linear_6180_40155" x1="0" y1="0" x2="0" y2="1" gradientUnits="objectBoundingBox">
<stop stop-color="#ED3040"/>
<stop offset="1" stop-color="#2D23F4"/>
</linearGradient>
<linearGradient id="paint6_linear_6180_40155" x1="0" y1="0" x2="0" y2="1" gradientUnits="objectBoundingBox">
<stop stop-color="#ED3040"/>
<stop offset="1" stop-color="#2D23F4"/>
</linearGradient>
<linearGradient id="paint7_linear_6180_40155" x1="0" y1="0" x2="0" y2="1" gradientUnits="objectBoundingBox">
<stop stop-color="#ED3040"/>
<stop offset="1" stop-color="#2D23F4"/>
</linearGradient>
<linearGradient id="paint8_linear_6180_40155" x1="0" y1="0" x2="0" y2="1" gradientUnits="objectBoundingBox">
<stop stop-color="#ED3040"/>
<stop offset="1" stop-color="#2D23F4"/>
</linearGradient>
<linearGradient id="paint9_linear_6180_40155" x1="0" y1="0" x2="0" y2="1" gradientUnits="objectBoundingBox">
<stop stop-color="#ED3040"/>
<stop offset="1" stop-color="#2D23F4"/>
</linearGradient>
<linearGradient id="paint10_linear_6180_40155" x1="0" y1="0" x2="0" y2="1" gradientUnits="objectBoundingBox">
<stop stop-color="#ED3040"/>
<stop offset="1" stop-color="#2D23F4"/>
</linearGradient>
<linearGradient id="paint11_linear_6180_40155" x1="0" y1="0" x2="0" y2="1" gradientUnits="objectBoundingBox">
<stop stop-color="#ED3040"/>
<stop offset="1" stop-color="#2D23F4"/>
</linearGradient>
<linearGradient id="paint12_linear_6180_40155" x1="0" y1="0" x2="0" y2="1" gradientUnits="objectBoundingBox">
<stop stop-color="#ED3040"/>
<stop offset="1" stop-color="#2D23F4"/>
</linearGradient>
<linearGradient id="paint13_linear_6180_40155" x1="0" y1="0" x2="0" y2="1" gradientUnits="objectBoundingBox">
<stop stop-color="#ED3040"/>
<stop offset="1" stop-color="#2D23F4"/>
</linearGradient>
<linearGradient id="paint14_linear_6180_40155" x1="0" y1="0" x2="0" y2="1" gradientUnits="objectBoundingBox">
<stop stop-color="#ED3040"/>
<stop offset="1" stop-color="#2D23F4"/>
</linearGradient>
</defs>
</svg>
