<svg width="50" height="50" viewBox="0 0 50 50" fill="none" xmlns="http://www.w3.org/2000/svg">
<path d="M33.9654 5H9.13785C8.77201 5 8.42124 5.1451 8.1625 5.40382C7.90378 5.66254 7.75867 6.01331 7.75867 6.37917V7.75865H6.37918C6.01334 7.75865 5.66256 7.90375 5.40383 8.16247C5.14511 8.42119 5 8.77196 5 9.13782V43.6205C5 43.9863 5.1451 44.3371 5.40383 44.5958C5.66254 44.8546 6.01332 45 6.37918 45H31.2067C31.5726 45 31.9234 44.8546 32.1821 44.5958C32.4408 44.3371 32.5859 43.9863 32.5859 43.6205V42.2414H33.9654C34.3313 42.2414 34.682 42.0959 34.9408 41.8372C35.1995 41.5785 35.3446 41.2277 35.3446 40.8619V6.37918C35.3446 6.01334 35.1995 5.66256 34.9408 5.40383C34.6821 5.14511 34.3313 5 33.9654 5ZM31.2068 43.6204H6.37922V9.13775H31.2068V43.6204ZM33.9654 40.8618H32.5859V9.13792C32.5859 8.77209 32.4408 8.42131 32.1821 8.16258C31.9234 7.90384 31.5726 7.75875 31.2067 7.75875H9.13712V6.37927H33.9647L33.9654 40.8618Z" fill="url(#paint0_linear_6180_40157)"/>
<path d="M44.7238 14.4477L42.2413 12.5857V10.8615C42.2413 9.87594 41.7153 8.96525 40.8618 8.47245C40.0083 7.97965 38.9567 7.97965 38.1032 8.47245C37.2497 8.96525 36.7241 9.87594 36.7241 10.8615V37.7582C36.7241 37.8831 36.7579 38.006 36.8226 38.1131L38.8917 41.5613V41.5616C39.0163 41.769 39.2404 41.8956 39.4827 41.8956C39.7247 41.8956 39.9488 41.769 40.0737 41.5616L42.1428 38.1134L42.1425 38.1131C42.2071 38.006 42.241 37.8831 42.2414 37.7582V14.3098L43.6205 15.344V22.5854C43.6205 22.9663 43.9292 23.2753 44.3101 23.2753C44.691 23.2753 45 22.9663 45 22.5854V14.999V14.9994C45 14.782 44.8977 14.5777 44.7238 14.4474V14.4477ZM40.8618 34.3094H38.1032V13.6198H40.8618V34.3094ZM38.1032 10.861C38.1032 10.3682 38.366 9.91308 38.7928 9.66664C39.2195 9.4202 39.7455 9.42024 40.1723 9.66664C40.599 9.91304 40.8619 10.3682 40.8619 10.861V12.2401L38.1032 12.2405L38.1032 10.861ZM40.8618 37.5667L39.4827 39.8661L38.1036 37.5667L38.1032 35.6889H40.8619L40.8618 37.5667Z" fill="url(#paint1_linear_6180_40157)"/>
<path d="M27.7583 15.3448H20.1719C19.791 15.3448 19.4823 15.6538 19.4823 16.0347C19.4823 16.4156 19.791 16.7243 20.1719 16.7243H27.7583C28.1392 16.7243 28.4479 16.4156 28.4479 16.0347C28.4479 15.6538 28.1392 15.3448 27.7583 15.3448Z" fill="url(#paint2_linear_6180_40157)"/>
<path d="M27.7583 25.6896H20.1719C19.791 25.6896 19.4823 25.9983 19.4823 26.3792C19.4823 26.7601 19.791 27.0688 20.1719 27.0688H27.7583C28.1392 27.0688 28.4479 26.7601 28.4479 26.3792C28.4479 25.9983 28.1392 25.6896 27.7583 25.6896Z" fill="url(#paint3_linear_6180_40157)"/>
<path d="M27.7583 36.0344H20.1719C19.791 36.0344 19.4823 36.3434 19.4823 36.7243C19.4823 37.1052 19.791 37.4139 20.1719 37.4139H27.7583C28.1392 37.4139 28.4479 37.1052 28.4479 36.7243C28.4479 36.3434 28.1392 36.0344 27.7583 36.0344Z" fill="url(#paint4_linear_6180_40157)"/>
<path d="M16.7239 13.2764H13.9653V12.5865C13.9653 12.2056 13.6566 11.8969 13.2757 11.8969C12.8948 11.8969 12.5858 12.2056 12.5858 12.5865V13.276L9.82715 13.2764C9.44625 13.2764 9.13757 13.5851 9.13757 13.9659C9.13757 14.3468 9.44625 14.6555 9.82715 14.6555H14.4403C14.1867 15.3844 13.8164 16.0672 13.3445 16.6777C13.0255 16.3591 12.7322 16.0162 12.4673 15.6514C12.2548 15.3369 11.8281 15.2534 11.5126 15.4642C11.197 15.675 11.1112 16.101 11.3202 16.4176C11.6378 16.8652 11.9934 17.2845 12.3832 17.6709C11.7669 18.1849 11.0592 18.578 10.2971 18.8293C9.93499 18.9498 9.73924 19.3406 9.8597 19.7027C9.98016 20.0644 10.371 20.2601 10.7327 20.1397C11.7214 19.8163 12.6341 19.2968 13.4171 18.612C14.13 19.192 14.9045 19.692 15.7261 20.1037C16.0669 20.2741 16.4814 20.1358 16.6514 19.795C16.8218 19.4538 16.6832 19.0397 16.3424 18.8693C15.6456 18.5179 14.9875 18.0938 14.3791 17.6044C15.0669 16.728 15.5789 15.7263 15.8866 14.6555H16.724C17.1049 14.6555 17.4136 14.3468 17.4136 13.9659C17.4136 13.5851 17.1048 13.2764 16.7239 13.2764Z" fill="url(#paint5_linear_6180_40157)"/>
<path d="M13.8959 22.6224C13.7662 22.4051 13.5318 22.272 13.2789 22.272C13.0256 22.272 12.7912 22.4051 12.6615 22.6224L9.21329 29.5189C9.1315 29.6828 9.11816 29.8721 9.17599 30.0459C9.23382 30.2194 9.35839 30.3628 9.52232 30.4446C9.86317 30.6147 10.2776 30.4764 10.4476 30.1356L13.2754 24.4728L14.5731 27.0686H13.2754C12.8945 27.0686 12.5855 27.3776 12.5855 27.7585C12.5855 28.1394 12.8945 28.4481 13.2754 28.4481H15.2631L16.1067 30.1356H16.1063C16.2767 30.4764 16.6908 30.6147 17.032 30.4446C17.3729 30.2742 17.5111 29.8601 17.3407 29.5189L13.8959 22.6224Z" fill="url(#paint6_linear_6180_40157)"/>
<path d="M16.0336 39.4827H12.585C12.0922 39.4827 11.6371 39.2195 11.3906 38.7928C11.1442 38.366 11.1442 37.8404 11.3906 37.4136C11.637 36.9869 12.0922 36.7241 12.585 36.7241H15.3436C15.7245 36.7241 16.0336 36.415 16.0336 36.0341C16.0336 35.6532 15.7245 35.3446 15.3436 35.3446H13.9645C13.7143 35.3446 13.484 35.209 13.3622 34.9907C13.2407 34.772 13.2465 34.5048 13.3783 34.2922C13.5097 34.0794 13.7462 33.9548 13.996 33.9661C14.2458 33.9774 14.47 34.1228 14.5815 34.3466C14.7523 34.6875 15.1664 34.8254 15.5072 34.655C15.8477 34.4846 15.986 34.0701 15.8156 33.7297C15.4874 33.1037 14.8628 32.6886 14.1585 32.6288C13.4546 32.5685 12.7688 32.8721 12.3396 33.4333C11.9101 33.9946 11.7971 34.7362 12.0394 35.3997C11.1384 35.5828 10.3876 36.2029 10.0374 37.0533C9.68722 37.9037 9.78415 38.8726 10.2954 39.6371C10.8067 40.4016 11.6654 40.8609 12.5849 40.8618H16.0335C16.4144 40.8618 16.7231 40.5532 16.7231 40.1723C16.7231 39.7914 16.4144 39.4827 16.0335 39.4827H16.0336Z" fill="url(#paint7_linear_6180_40157)"/>
<defs>
<linearGradient id="paint0_linear_6180_40157" x1="0" y1="0" x2="0" y2="1" gradientUnits="objectBoundingBox">
<stop stop-color="#ED3040"/>
<stop offset="1" stop-color="#2D23F4"/>
</linearGradient>
<linearGradient id="paint1_linear_6180_40157" x1="0" y1="0" x2="0" y2="1" gradientUnits="objectBoundingBox">
<stop stop-color="#ED3040"/>
<stop offset="1" stop-color="#2D23F4"/>
</linearGradient>
<linearGradient id="paint2_linear_6180_40157" x1="0" y1="0" x2="0" y2="1" gradientUnits="objectBoundingBox">
<stop stop-color="#ED3040"/>
<stop offset="1" stop-color="#2D23F4"/>
</linearGradient>
<linearGradient id="paint3_linear_6180_40157" x1="0" y1="0" x2="0" y2="1" gradientUnits="objectBoundingBox">
<stop stop-color="#ED3040"/>
<stop offset="1" stop-color="#2D23F4"/>
</linearGradient>
<linearGradient id="paint4_linear_6180_40157" x1="0" y1="0" x2="0" y2="1" gradientUnits="objectBoundingBox">
<stop stop-color="#ED3040"/>
<stop offset="1" stop-color="#2D23F4"/>
</linearGradient>
<linearGradient id="paint5_linear_6180_40157" x1="0" y1="0" x2="0" y2="1" gradientUnits="objectBoundingBox">
<stop stop-color="#ED3040"/>
<stop offset="1" stop-color="#2D23F4"/>
</linearGradient>
<linearGradient id="paint6_linear_6180_40157" x1="0" y1="0" x2="0" y2="1" gradientUnits="objectBoundingBox">
<stop stop-color="#ED3040"/>
<stop offset="1" stop-color="#2D23F4"/>
</linearGradient>
<linearGradient id="paint7_linear_6180_40157" x1="0" y1="0" x2="0" y2="1" gradientUnits="objectBoundingBox">
<stop stop-color="#ED3040"/>
<stop offset="1" stop-color="#2D23F4"/>
</linearGradient>
</defs>
</svg>
