<svg width="50" height="50" viewBox="0 0 50 50" fill="none" xmlns="http://www.w3.org/2000/svg">
<path d="M13.2609 18.3335H25.0005C25.1733 18.3335 25.3393 18.2634 25.4616 18.1384C25.584 18.0133 25.6526 17.8436 25.6526 17.667V10.3335C25.6526 10.1568 25.584 9.98714 25.4616 9.86209C25.3393 9.73704 25.1733 9.66691 25.0005 9.66691H22.3917V8.33375C22.3917 8.15677 22.3228 7.9874 22.2005 7.86235C22.0781 7.7373 21.9124 7.66684 21.7393 7.66684H16.5221C16.1619 7.66684 15.8697 7.96556 15.8697 8.33375V9.66691H13.261C12.9008 9.66691 12.6089 9.9653 12.6089 10.3335V17.667C12.6089 17.8436 12.6775 18.0133 12.7998 18.1384C12.9221 18.2634 13.0882 18.3335 13.261 18.3335H13.2609ZM13.913 11.0001H16.5217L16.522 11.0004C16.6949 11.0004 16.8609 10.93 16.9832 10.8049C17.1052 10.6799 17.1742 10.5105 17.1742 10.3335V9.00034H21.0871V10.3335C21.0871 10.5105 21.156 10.6799 21.278 10.8049C21.4003 10.93 21.5664 11.0004 21.7392 11.0004H24.3479V17.0004H13.9132L13.913 11.0001Z" fill="url(#paint0_linear_6180_40149)"/>
<path d="M13.2609 32.9998H22.3916C22.5644 32.9998 22.7304 32.9296 22.8527 32.8046C22.9751 32.6796 23.0437 32.5102 23.0437 32.3332V31.6666L24.6091 32.8665H24.6088C24.8075 33.018 25.0729 33.0411 25.2936 32.9267C25.513 32.8135 25.6518 32.5843 25.6525 32.3332V25.6667C25.6525 25.4142 25.513 25.1833 25.2919 25.0702C25.0709 24.9574 24.8065 24.9819 24.6088 25.1334L23.0437 26.3332V25.6667C23.0437 25.4897 22.9751 25.3203 22.8527 25.1952C22.7304 25.0702 22.5644 25.0001 22.3916 25.0001H20.9696C21.1812 24.3887 21.0896 23.7105 20.7243 23.181C20.3589 22.651 19.7647 22.3351 19.1304 22.3334C18.6479 22.3364 18.1835 22.5213 17.8262 22.8535C17.469 22.5213 17.0046 22.3364 16.5221 22.3334C15.8878 22.3351 15.2936 22.651 14.9282 23.181C14.5628 23.7106 14.4713 24.3888 14.6829 25.0001H13.2609C12.9007 25.0001 12.6088 25.2985 12.6088 25.6667V32.3332C12.6088 32.5102 12.6774 32.6796 12.7997 32.8046C12.9221 32.9297 13.0881 32.9998 13.2609 32.9998ZM23.0436 27.9999L24.3478 26.9998V30.9996L23.0436 29.9995V27.9999ZM19.1303 23.6666C19.3944 23.6666 19.632 23.829 19.7329 24.0781C19.8339 24.3272 19.7782 24.614 19.5915 24.8046C19.4051 24.9955 19.1245 25.0524 18.8808 24.9491C18.6371 24.8459 18.4782 24.6028 18.4782 24.3332C18.4782 23.965 18.7701 23.6666 19.1303 23.6666ZM16.522 23.6666C16.7857 23.6666 17.0232 23.829 17.1242 24.0781C17.2252 24.3272 17.1695 24.614 16.9831 24.8046C16.7964 24.9955 16.5158 25.0524 16.2721 24.9491C16.0284 24.8459 15.8695 24.6028 15.8695 24.3332C15.8695 23.965 16.1618 23.6666 16.522 23.6666ZM13.9129 26.3332H21.7392V31.6666H13.9132L13.9129 26.3332Z" fill="url(#paint1_linear_6180_40149)"/>
<path d="M31.5223 25.0002V26.3333H30.2181V27.6665H34.131V26.3333H32.8264V25.0002H36.7397C36.9125 25.0002 37.0785 24.9297 37.2009 24.8047C37.3232 24.6796 37.3918 24.5102 37.3918 24.3333V17.6667C37.3918 17.4901 37.3232 17.3204 37.2009 17.1953C37.0785 17.0703 36.9125 17.0001 36.7397 17.0001H27.609C27.2488 17.0001 26.9566 17.2985 26.9566 17.6667V24.3333C26.9566 24.5102 27.0255 24.6796 27.1478 24.8047C27.2702 24.9297 27.4359 25.0002 27.609 25.0002H31.5223ZM28.2614 18.3336L36.0877 18.3333V23.6667H28.2614V18.3336Z" fill="url(#paint2_linear_6180_40149)"/>
<path d="M19.1307 11.6669C18.6119 11.6669 18.1141 11.8776 17.7475 12.2528C17.3805 12.6276 17.1744 13.1364 17.1744 13.667C17.1744 14.1973 17.3805 14.7061 17.7475 15.0812C18.1142 15.456 18.612 15.6667 19.1307 15.6667C19.6498 15.6667 20.1475 15.456 20.5142 15.0812C20.8811 14.706 21.0873 14.1972 21.0873 13.667C21.0873 13.1364 20.8811 12.6276 20.5142 12.2528C20.1475 11.8776 19.6497 11.6669 19.1307 11.6669ZM19.1307 14.3336C18.8669 14.3336 18.6294 14.1711 18.5284 13.922C18.4274 13.6729 18.4831 13.3861 18.6695 13.1956C18.8562 13.0047 19.1368 12.9478 19.3805 13.051C19.6242 13.1542 19.7831 13.397 19.7831 13.667C19.7831 13.8436 19.7142 14.0133 19.5918 14.1384C19.4698 14.2631 19.3038 14.3336 19.1307 14.3336Z" fill="url(#paint3_linear_6180_40149)"/>
<path d="M10 7.50027V42.5001C10 43.163 10.2576 43.7988 10.7165 44.2676C11.1751 44.7367 11.7971 45 12.4456 45H37.5544C38.2029 45 38.8249 44.7367 39.2838 44.2676C39.7424 43.7988 40 43.163 40 42.5001V7.50027C40 6.837 39.7424 6.20116 39.2838 5.73241C38.8249 5.26365 38.2029 5 37.5544 5H12.4456C11.7971 5 11.1751 5.26366 10.7165 5.73241C10.2576 6.20118 10 6.837 10 7.50027ZM38.6961 42.5001H38.6964C38.6928 43.1428 38.1838 43.6628 37.555 43.6665H12.4462C11.8174 43.6628 11.3087 43.1428 11.3052 42.5001V35.6665H38.6964L38.6961 42.5001ZM38.6961 7.50027L38.6964 34.3336H11.3052V7.50027C11.3087 6.85717 11.8175 6.33717 12.4462 6.33353H37.555C38.1838 6.33717 38.6928 6.85721 38.6964 7.50027H38.6961Z" fill="url(#paint4_linear_6180_40149)"/>
<path d="M25.0005 42.3332C25.6924 42.3332 26.3558 42.0524 26.8452 41.5522C27.3341 41.052 27.6092 40.3738 27.6092 39.6665C27.6092 38.9592 27.3342 38.2811 26.8452 37.7809C26.3558 37.2807 25.6924 36.9998 25.0005 36.9998C24.3085 36.9998 23.6448 37.2807 23.1558 37.7809C22.6664 38.281 22.3917 38.9592 22.3917 39.6665C22.3917 40.3738 22.6664 41.0519 23.1558 41.5522C23.6448 42.0524 24.3085 42.3332 25.0005 42.3332ZM25.0005 38.3331C25.3464 38.3331 25.6781 38.4737 25.9228 38.7238C26.1671 38.9739 26.3047 39.313 26.3047 39.6666C26.3047 40.0202 26.1671 40.3593 25.9228 40.6094C25.6781 40.8595 25.3464 40.9998 25.0005 40.9998C24.6545 40.9998 24.3228 40.8595 24.0781 40.6094C23.8335 40.3593 23.6959 40.0203 23.6959 39.6666C23.6959 39.313 23.8335 38.9739 24.0781 38.7238C24.3228 38.4737 24.6545 38.3331 25.0005 38.3331Z" fill="url(#paint5_linear_6180_40149)"/>
<path d="M33.4791 7.66626H34.7833V8.99942H33.4791V7.66626Z" fill="url(#paint6_linear_6180_40149)"/>
<path d="M36.0872 7.66626H37.3914V8.99942H36.0872V7.66626Z" fill="url(#paint7_linear_6180_40149)"/>
<defs>
<linearGradient id="paint0_linear_6180_40149" x1="34.4968" y1="33.6397" x2="34.4968" y2="41.6506" gradientUnits="userSpaceOnUse">
<stop stop-color="#ED3040"/>
<stop offset="1" stop-color="#2D23F4"/>
</linearGradient>
<linearGradient id="paint1_linear_6180_40149" x1="34.4968" y1="33.6397" x2="34.4968" y2="41.6506" gradientUnits="userSpaceOnUse">
<stop stop-color="#ED3040"/>
<stop offset="1" stop-color="#2D23F4"/>
</linearGradient>
<linearGradient id="paint2_linear_6180_40149" x1="34.4968" y1="33.6397" x2="34.4968" y2="41.6506" gradientUnits="userSpaceOnUse">
<stop stop-color="#ED3040"/>
<stop offset="1" stop-color="#2D23F4"/>
</linearGradient>
<linearGradient id="paint3_linear_6180_40149" x1="34.4968" y1="33.6397" x2="34.4968" y2="41.6506" gradientUnits="userSpaceOnUse">
<stop stop-color="#ED3040"/>
<stop offset="1" stop-color="#2D23F4"/>
</linearGradient>
<linearGradient id="paint4_linear_6180_40149" x1="34.4968" y1="33.6397" x2="34.4968" y2="41.6506" gradientUnits="userSpaceOnUse">
<stop stop-color="#ED3040"/>
<stop offset="1" stop-color="#2D23F4"/>
</linearGradient>
<linearGradient id="paint5_linear_6180_40149" x1="34.4968" y1="33.6397" x2="34.4968" y2="41.6506" gradientUnits="userSpaceOnUse">
<stop stop-color="#ED3040"/>
<stop offset="1" stop-color="#2D23F4"/>
</linearGradient>
<linearGradient id="paint6_linear_6180_40149" x1="34.4968" y1="33.6397" x2="34.4968" y2="41.6506" gradientUnits="userSpaceOnUse">
<stop stop-color="#ED3040"/>
<stop offset="1" stop-color="#2D23F4"/>
</linearGradient>
<linearGradient id="paint7_linear_6180_40149" x1="34.4968" y1="33.6397" x2="34.4968" y2="41.6506" gradientUnits="userSpaceOnUse">
<stop stop-color="#ED3040"/>
<stop offset="1" stop-color="#2D23F4"/>
</linearGradient>
</defs>
</svg>
