<svg width="50" height="50" viewBox="0 0 50 50" fill="none" xmlns="http://www.w3.org/2000/svg">
<path d="M27.5035 24.0636C27.5035 24.4304 27.3532 24.7821 27.0859 25.0415C26.819 25.3009 26.4562 25.4467 26.0782 25.4467H23.9407H23.941C23.4319 25.4467 22.9613 25.1829 22.7067 24.755C22.4521 24.3272 22.4522 23.8002 22.7067 23.3723C22.9613 22.9444 23.4319 22.6809 23.941 22.6809H26.0786H26.0782C26.4562 22.6809 26.819 22.8264 27.0859 23.0858C27.3532 23.3452 27.5035 23.6968 27.5035 24.0636ZM43.3492 35.8179C41.9579 37.3349 39.8882 38.0921 37.8114 37.8434C35.735 37.595 33.9162 36.3728 32.9464 34.5735L30.7094 30.3419C30.5899 30.1181 30.4103 29.9308 30.1894 29.799C29.9684 29.6676 29.7145 29.597 29.4554 29.5949H20.6203C20.3587 29.5946 20.1017 29.6639 19.8782 29.7956C19.6544 29.9274 19.4723 30.1161 19.3521 30.3419L17.0721 34.5735C16.167 36.3374 14.4497 37.5771 12.4486 37.9106C10.4475 38.2444 8.40215 37.6323 6.9423 36.2626C5.48245 34.8929 4.78317 32.93 5.05922 30.978L6.71213 19.0849C6.92214 17.3985 7.76468 15.8459 9.07881 14.724C10.393 13.6017 12.0868 12.9881 13.8373 13.0002H36.2242C37.9793 12.9889 39.6768 13.6061 40.9916 14.7342C42.3061 15.8621 43.1459 17.4212 43.3495 19.1127L44.9596 30.9786C45.1654 32.7415 44.5785 34.5051 43.3495 35.8186L43.3492 35.8179ZM42.1093 31.3098L40.5133 19.4448V19.4445C40.3938 18.4279 39.8914 17.4894 39.1022 16.8104C38.3131 16.1314 37.2931 15.7595 36.2384 15.766H13.7944C12.7419 15.7591 11.7236 16.129 10.9348 16.8053C10.1461 17.4815 9.64225 18.4165 9.51916 19.4308L7.90906 31.337C7.78391 32.2964 8.09609 33.2608 8.76396 33.9786C9.43502 34.7232 10.4098 35.1428 11.4287 35.1263C12.0708 35.1256 12.7005 34.9555 13.2502 34.634C13.8 34.3125 14.2494 33.8517 14.5495 33.3009L16.8296 29.0553C17.1912 28.3835 17.7361 27.8207 18.4043 27.4283C19.0725 27.0357 19.8387 26.8285 20.62 26.8289H29.4123C30.1933 26.8285 30.9598 27.0358 31.628 27.4283C32.2962 27.8208 32.8406 28.3835 33.2027 29.0553L35.4827 33.2869C35.9713 34.2736 36.9196 34.972 38.0304 35.1626C39.1413 35.3538 40.2791 35.0141 41.0872 34.2506C41.8955 33.4869 42.2759 32.3924 42.1087 31.3095L42.1093 31.3098ZM34.3003 19.9148C34.8094 19.9148 35.28 19.6512 35.5346 19.223C35.7891 18.7952 35.7891 18.2682 35.5346 17.8403C35.28 17.4125 34.8094 17.1489 34.3003 17.1489C33.7911 17.1489 33.3209 17.4125 33.0663 17.8403C32.8117 18.2682 32.8118 18.7952 33.0663 19.223C33.3209 19.6512 33.7911 19.9148 34.3003 19.9148ZM31.4503 19.9148C31.0723 19.9148 30.7099 20.0602 30.4426 20.3196C30.1757 20.579 30.0254 20.9307 30.0254 21.2975C30.0254 21.6643 30.1757 22.016 30.4426 22.2754C30.7099 22.5348 31.0723 22.6806 31.4503 22.6806C31.8282 22.6806 32.1906 22.5348 32.4579 22.2754C32.7252 22.016 32.8755 21.6643 32.8755 21.2975C32.8755 20.9283 32.7234 20.5746 32.453 20.3148C32.1829 20.0551 31.8166 19.911 31.4362 19.9147L31.4503 19.9148ZM34.3003 22.6806C33.9223 22.6806 33.5599 22.826 33.2926 23.0854C33.0253 23.3448 32.8754 23.6965 32.8754 24.0633C32.8754 24.4301 33.0253 24.7818 33.2926 25.0412C33.5599 25.3006 33.9223 25.4464 34.3003 25.4464C34.6782 25.4464 35.0406 25.3006 35.3079 25.0412C35.5752 24.7818 35.7255 24.4301 35.7255 24.0633C35.7255 23.6941 35.5734 23.3404 35.303 23.0806C35.0325 22.8209 34.6666 22.6768 34.2862 22.6805L34.3003 22.6806ZM37.1503 19.9148C36.7723 19.9148 36.4099 20.0602 36.1426 20.3196C35.8753 20.579 35.7254 20.9307 35.7254 21.2975C35.7254 21.6643 35.8753 22.016 36.1426 22.2754C36.4099 22.5348 36.7723 22.6806 37.1503 22.6806C37.5282 22.6806 37.8906 22.5348 38.1579 22.2754C38.4252 22.016 38.5755 21.6643 38.5755 21.2975C38.5755 20.9283 38.4235 20.5746 38.153 20.3148C37.8825 20.0551 37.5166 19.911 37.1362 19.9147L37.1503 19.9148ZM18.6254 19.9148H17.2006V18.5317C17.2006 18.0376 16.9287 17.5813 16.4878 17.3342C16.047 17.0871 15.5039 17.0872 15.063 17.3342C14.6221 17.5812 14.3506 18.0376 14.3506 18.5317V19.9144H12.9258L12.9254 19.9147C12.4163 19.9147 11.9461 20.1783 11.6915 20.6061C11.4369 21.034 11.4369 21.561 11.6915 21.9888C11.9461 22.4167 12.4163 22.6806 12.9254 22.6806H14.3503V24.0633H14.3506C14.3506 24.5574 14.6221 25.014 15.063 25.2611C15.5039 25.5082 16.047 25.5082 16.4878 25.2611C16.9287 25.0141 17.2006 24.5574 17.2006 24.0633V22.6806H18.6254C19.1346 22.6806 19.6051 22.4167 19.8597 21.9888C20.1143 21.561 20.1143 21.034 19.8597 20.6061C19.6052 20.1783 19.1346 19.9148 18.6254 19.9148Z" fill="url(#paint0_linear_4908_12117)"/>
<defs>
<linearGradient id="paint0_linear_4908_12117" x1="37.6624" y1="30.8998" x2="37.6624" y2="35.9066" gradientUnits="userSpaceOnUse">
<stop stop-color="#ED3040"/>
<stop offset="1" stop-color="#2D23F4"/>
</linearGradient>
</defs>
</svg>
