<svg width="50" height="50" viewBox="0 0 50 50" fill="none" xmlns="http://www.w3.org/2000/svg">
<path d="M41.7736 15.3228H34.0317V11.5956L32.1654 11.1195C32.1526 11.0879 32.1395 11.0565 32.126 11.0254L33.1078 9.36933L29.6629 5.92361L28.0068 6.90611C27.9751 6.89266 27.9438 6.87954 27.9127 6.86673L27.4357 5H22.5629L22.0863 6.86641C22.0546 6.87921 22.0232 6.89234 21.9922 6.90578L20.3358 5.92263L16.8908 9.36834L17.8726 11.0244C17.8592 11.0561 17.8461 11.0875 17.8333 11.1186L15.9675 11.5956V15.3227H8.22565C6.44699 15.3227 5 16.7698 5 18.5485V37.9034C5 39.6821 6.44699 41.1292 8.22565 41.1292H16.6129V43.7098H14.0323V45H35.9674V43.7098H33.3868V41.1292H41.774C43.5527 41.1292 44.9997 39.6821 44.9997 37.9034L45 18.5485C45 16.7698 43.553 15.3227 41.7744 15.3227L41.7736 15.3228ZM17.2577 12.5983L18.8113 12.2023L18.9263 11.8771C18.9999 11.6667 19.0857 11.4622 19.1811 11.2627L19.3296 10.9518L18.511 9.57234L20.5401 7.54391L21.9189 8.36188L22.2291 8.21333C22.4298 8.11793 22.6344 8.03277 22.8447 7.95786L23.1693 7.84293L23.5647 6.29058H26.4337L26.8297 7.84293L27.1544 7.95786C27.3647 8.03277 27.5699 8.11793 27.77 8.21333L28.0802 8.36188L29.459 7.54391L31.488 9.57234L30.6694 10.9518L30.818 11.2627C30.9127 11.4622 30.9985 11.6667 31.0728 11.8771L31.1877 12.2023L32.741 12.5983V15.4668L31.1874 15.8629L31.0725 16.1881C30.9988 16.3985 30.9131 16.603 30.8177 16.8025L30.6691 17.1133L31.4877 18.4928L29.4587 20.5213L28.0799 19.7033L27.7697 19.8519C27.5689 19.9473 27.3644 20.0324 27.154 20.1073L26.8294 20.2223L26.4344 21.7744H23.5653L23.1693 20.222L22.8447 20.1071C22.6344 20.0322 22.4292 19.947 22.2291 19.8516L21.9189 19.7031L20.5401 20.521L18.511 18.4926L19.3296 17.1131L19.1811 16.8022C19.0863 16.6028 19.0005 16.3982 18.9262 16.1879L18.8113 15.8626L17.2577 15.4666L17.2577 12.5983ZM29.5157 30.8067V33.3874H27.3717L26.3511 30.8358L27.0628 29.4125L28.4842 30.5493L30.3176 26.2712L32.1123 26.924C32.8745 27.2016 33.3867 27.9325 33.3867 28.7434V33.3874H30.8062V30.8067L29.5157 30.8067ZM19.1935 30.8067V33.3874H16.6129V28.7434C16.6129 27.9324 17.1251 27.2016 17.887 26.9247L19.6817 26.2719L21.5151 30.55L22.9365 29.4131L23.6482 30.8365L22.6279 33.3874H20.484V30.8067L19.1935 30.8067ZM26.2902 24.14L25.0001 25.8601L23.71 24.14L23.7097 23.0647H26.2903L26.2902 24.14ZM25.2463 30.1616H24.7539L23.9674 28.5888L25.0002 27.7622L26.033 28.5888L25.2463 30.1616ZM22.8354 25.1248L24.1082 26.8229L22.0328 28.4828L20.896 25.8298L22.8354 25.1248ZM24.7917 31.4518H25.2079L25.982 33.3874H24.0176L24.7917 31.4518ZM27.9671 28.4827L25.8917 26.8228L27.1645 25.1247L29.1039 25.83L27.9671 28.4827ZM8.22593 16.6129H16.5312L17.8332 16.9452C17.846 16.9769 17.8591 17.0083 17.8726 17.0394L16.8908 18.6955L20.3357 22.1412L21.9918 21.1587C22.0235 21.1721 22.0548 21.1852 22.0859 21.1981L22.4304 22.5458H22.4192V23.9032L17.4458 25.7117C16.1752 26.1733 15.3224 27.3915 15.3224 28.7431V34.6773H34.6768V28.7431C34.6768 27.3915 33.8239 26.1733 32.5536 25.7113L27.5803 23.9032V22.5458H27.5688L27.9133 21.1981C27.9449 21.1852 27.9763 21.1721 28.0074 21.1587L29.6634 22.1412L33.1084 18.6955L32.1266 17.0394C32.14 17.0077 32.1531 16.9763 32.1659 16.9452L33.468 16.6129H41.7732C42.8403 16.6129 43.7087 17.4815 43.7087 18.5485V35.9676H6.28997V18.5477C6.28997 17.4806 7.15819 16.6124 8.22516 16.6124L8.22593 16.6129ZM32.0968 43.7095H17.9039V41.1289H32.0968V43.7095ZM41.774 39.8384H8.22593C7.15888 39.8384 6.29041 38.9698 6.29041 37.9028V37.2577H43.7092V37.9028C43.7095 38.9701 42.841 39.8384 41.774 39.8384Z" fill="url(#paint0_linear_4908_12165)"/>
<path d="M25 19.1936C27.8457 19.1936 30.1612 16.878 30.1612 14.0322C30.1612 11.1864 27.8457 8.87078 25 8.87078C22.1543 8.87078 19.8387 11.1864 19.8387 14.0322C19.8387 16.8783 22.1539 19.1936 25 19.1936ZM25 10.1611C27.1346 10.1611 28.8707 11.8973 28.8707 14.0319C28.8707 16.1666 27.1345 17.9028 25 17.9028C22.8654 17.9028 21.1292 16.1666 21.1292 14.0319C21.1289 11.8972 22.865 10.1611 25 10.1611Z" fill="url(#paint1_linear_4908_12165)"/>
<path d="M25 16.6128C26.4233 16.6128 27.5805 15.4554 27.5805 14.0321C27.5805 12.6088 26.4233 11.4514 25 11.4514C23.5767 11.4514 22.4194 12.6088 22.4194 14.0321C22.4194 15.4551 23.5767 16.6128 25 16.6128ZM25 12.7416C25.7116 12.7416 26.2901 13.3204 26.2901 14.0318C26.2901 14.7435 25.7113 15.3219 25 15.3219C24.2883 15.3219 23.7098 14.7431 23.7098 14.0318C23.7095 13.3204 24.2883 12.7416 25 12.7416Z" fill="url(#paint2_linear_4908_12165)"/>
<path d="M7.58054 33.3877H14.0319V34.6779H7.58054V33.3877Z" fill="url(#paint3_linear_4908_12165)"/>
<path d="M7.58054 30.8069H14.0319V32.0971H7.58054V30.8069Z" fill="url(#paint4_linear_4908_12165)"/>
<path d="M7.58054 28.2261H14.0319V29.5162H7.58054V28.2261Z" fill="url(#paint5_linear_4908_12165)"/>
<path d="M35.9671 17.9036H42.4185V19.1938H35.9671V17.9036Z" fill="url(#paint6_linear_4908_12165)"/>
<path d="M35.9671 20.4836H42.4185V21.7738H35.9671V20.4836Z" fill="url(#paint7_linear_4908_12165)"/>
<path d="M35.9671 23.0644H42.4185V24.3546H35.9671V23.0644Z" fill="url(#paint8_linear_4908_12165)"/>
<path d="M35.9671 25.6452H42.4185V26.9354H35.9671V25.6452Z" fill="url(#paint9_linear_4908_12165)"/>
<path d="M7.58054 25.6452H14.0319V26.9354H7.58054V25.6452Z" fill="url(#paint10_linear_4908_12165)"/>
<defs>
<linearGradient id="paint0_linear_4908_12165" x1="37.6624" y1="33.6397" x2="37.6624" y2="41.6506" gradientUnits="userSpaceOnUse">
<stop stop-color="#ED3040"/>
<stop offset="1" stop-color="#2D23F4"/>
</linearGradient>
<linearGradient id="paint1_linear_4908_12165" x1="37.6624" y1="33.6397" x2="37.6624" y2="41.6506" gradientUnits="userSpaceOnUse">
<stop stop-color="#ED3040"/>
<stop offset="1" stop-color="#2D23F4"/>
</linearGradient>
<linearGradient id="paint2_linear_4908_12165" x1="37.6624" y1="33.6397" x2="37.6624" y2="41.6506" gradientUnits="userSpaceOnUse">
<stop stop-color="#ED3040"/>
<stop offset="1" stop-color="#2D23F4"/>
</linearGradient>
<linearGradient id="paint3_linear_4908_12165" x1="37.6624" y1="33.6397" x2="37.6624" y2="41.6506" gradientUnits="userSpaceOnUse">
<stop stop-color="#ED3040"/>
<stop offset="1" stop-color="#2D23F4"/>
</linearGradient>
<linearGradient id="paint4_linear_4908_12165" x1="37.6624" y1="33.6397" x2="37.6624" y2="41.6506" gradientUnits="userSpaceOnUse">
<stop stop-color="#ED3040"/>
<stop offset="1" stop-color="#2D23F4"/>
</linearGradient>
<linearGradient id="paint5_linear_4908_12165" x1="37.6624" y1="33.6397" x2="37.6624" y2="41.6506" gradientUnits="userSpaceOnUse">
<stop stop-color="#ED3040"/>
<stop offset="1" stop-color="#2D23F4"/>
</linearGradient>
<linearGradient id="paint6_linear_4908_12165" x1="37.6624" y1="33.6397" x2="37.6624" y2="41.6506" gradientUnits="userSpaceOnUse">
<stop stop-color="#ED3040"/>
<stop offset="1" stop-color="#2D23F4"/>
</linearGradient>
<linearGradient id="paint7_linear_4908_12165" x1="37.6624" y1="33.6397" x2="37.6624" y2="41.6506" gradientUnits="userSpaceOnUse">
<stop stop-color="#ED3040"/>
<stop offset="1" stop-color="#2D23F4"/>
</linearGradient>
<linearGradient id="paint8_linear_4908_12165" x1="37.6624" y1="33.6397" x2="37.6624" y2="41.6506" gradientUnits="userSpaceOnUse">
<stop stop-color="#ED3040"/>
<stop offset="1" stop-color="#2D23F4"/>
</linearGradient>
<linearGradient id="paint9_linear_4908_12165" x1="37.6624" y1="33.6397" x2="37.6624" y2="41.6506" gradientUnits="userSpaceOnUse">
<stop stop-color="#ED3040"/>
<stop offset="1" stop-color="#2D23F4"/>
</linearGradient>
<linearGradient id="paint10_linear_4908_12165" x1="37.6624" y1="33.6397" x2="37.6624" y2="41.6506" gradientUnits="userSpaceOnUse">
<stop stop-color="#ED3040"/>
<stop offset="1" stop-color="#2D23F4"/>
</linearGradient>
</defs>
</svg>
