<svg width="50" height="50" viewBox="0 0 50 50" fill="none" xmlns="http://www.w3.org/2000/svg">
<path d="M35.5618 40.5429H35.7259C36.8312 40.5429 37.8848 40.0776 38.6261 39.2626C39.3358 38.4825 39.6337 37.4145 39.4291 36.3823L39.2923 35.6906C39.2322 35.388 39.3255 35.0752 39.5419 34.8542C40.4758 33.8993 40.909 33.1586 40.909 32.7137C40.909 32.0424 40.7767 31.39 40.508 30.7504C40.0489 31.1098 39.5034 31.4421 38.8728 31.7495C38.4044 31.9783 37.8384 31.786 37.6084 31.3202C37.3783 30.8544 37.5717 30.2914 38.0401 30.0627C38.9256 29.6304 39.5577 29.169 39.9425 28.6939C40.006 28.6162 40.0788 28.5506 40.1589 28.4987C40.6717 27.7706 40.9819 26.9186 41.0547 26.0307L41.0957 25.5329C41.1919 24.3676 40.8007 23.215 40.0148 22.3456L39.5166 21.7948C39.1874 21.4305 39.1948 20.8763 39.5327 20.5208C40.1975 19.8218 40.4944 18.8533 40.3352 17.9047L40.2532 17.4156C40.0646 16.2941 39.2246 15.3907 38.1148 15.1172L37.6538 15.0036C37.6406 15.0002 37.6279 14.9968 37.6152 14.9934C37.5942 14.9895 37.5732 14.9846 37.5522 14.9793C36.9915 14.8375 36.3868 14.8375 35.7274 14.9856C35.2185 15.0997 34.7125 14.7821 34.5977 14.276C34.4829 13.7699 34.8023 13.2667 35.3112 13.152C35.8304 13.0355 36.3384 12.9835 36.8337 12.9961C36.7106 12.3399 36.4771 11.7949 36.1391 11.3534C35.4158 10.4082 34.7247 9.80734 34.0814 9.52521C34.0697 9.52618 34.0585 9.52715 34.0473 9.52764C33.4699 9.56552 32.8946 9.75155 32.3134 10.095C31.865 10.3606 31.2853 10.214 31.0187 9.76807C30.7515 9.3217 30.899 8.74515 31.3474 8.48C31.6795 8.28329 32.017 8.12106 32.3584 7.99282C31.6873 7.29097 30.748 6.87957 29.7488 6.87957C28.3836 6.87957 27.1015 7.52946 26.299 8.6277L25.394 9.86676V11.8276C25.394 12.3469 24.971 12.7675 24.4489 12.7675C23.9273 12.7675 23.5043 12.3469 23.5043 11.8276V9.62006C23.5043 9.38934 23.5878 9.17757 23.727 9.01389C23.7568 8.93229 23.7983 8.8536 23.8521 8.77978L24.7698 7.52329C25.9278 5.93842 27.7789 5 29.7487 5C31.6834 5 33.4714 6.01223 34.4605 7.65783C35.5756 8.02698 36.6296 8.89058 37.643 10.2151C38.2951 11.0675 38.6741 12.119 38.7889 13.3527C40.5209 13.8681 41.8171 15.3203 42.1169 17.1064L42.199 17.5955C42.4071 18.8336 42.133 20.0926 41.4522 21.1252C42.5643 22.3745 43.1163 24.0221 42.9795 25.6861L42.9385 26.184C42.8471 27.2914 42.4886 28.3575 41.8967 29.2931C42.4955 30.3806 42.7993 31.5249 42.7993 32.714C42.7993 33.667 42.263 34.6757 41.2402 35.8012L41.2832 36.0193C41.6031 37.6337 41.1376 39.3032 40.028 40.5238C38.928 41.7328 37.3656 42.4226 35.726 42.4226H35.4784L34.9313 42.967C32.2098 45.6758 27.7961 45.6778 25.0717 42.9719C24.4509 42.355 23.9527 41.6275 23.6035 40.8265C23.5342 40.6681 23.5127 40.501 23.5322 40.3408C23.5137 40.2679 23.5044 40.1921 23.5044 40.1135V37.9059C23.5044 37.3871 23.9274 36.9665 24.449 36.9665C24.9711 36.9665 25.3941 37.3871 25.3941 37.9059V40.1135C25.3941 40.1416 25.3926 40.1688 25.3902 40.1965C25.6412 40.7337 25.9856 41.2228 26.4075 41.642C28.393 43.615 31.6106 43.6131 33.5946 41.6386L33.7206 41.5133C33.7142 41.4628 33.7118 41.4108 33.7137 41.3583C33.7367 40.7818 33.6112 40.1926 33.3284 39.5806C33.1105 39.109 33.3181 38.5509 33.7924 38.3343C34.2666 38.1177 34.8273 38.3241 35.0456 38.7957C35.3133 39.3752 35.4862 39.9586 35.5619 40.5434L35.5618 40.5429Z" fill="url(#paint0_linear_4896_12120)"/>
<path d="M26.4192 33.8172C26.9409 33.8172 27.3643 34.2379 27.3643 34.7571C27.3643 35.2758 26.9409 35.6965 26.4192 35.6965H20.5782C19.3606 35.6965 18.3735 36.6781 18.3735 37.889V38.6234C19.4275 39.0343 20.1737 40.0548 20.1737 41.2486C20.1737 42.8058 18.9044 44.0677 17.3389 44.0677C15.7731 44.0677 14.5041 42.8059 14.5041 41.2486C14.5041 39.9882 15.3359 38.9211 16.4832 38.5602L16.4837 37.889C16.4837 35.6401 18.3167 33.8172 20.5781 33.8172L26.4192 33.8172ZM17.3391 40.3093C16.8169 40.3093 16.394 40.7299 16.394 41.2487C16.394 41.7679 16.8169 42.1885 17.3391 42.1885C17.8607 42.1885 18.2837 41.7679 18.2837 41.2487C18.2837 40.7299 17.8607 40.3093 17.3391 40.3093ZM23.8194 28.8056C24.3415 28.8056 24.7645 29.2262 24.7645 29.7454C24.7645 30.2642 24.3415 30.6848 23.8194 30.6848H16.6109C15.992 30.6848 15.402 30.9432 14.9844 31.3969L13.1836 33.3533C13.4225 33.7666 13.5592 34.246 13.5592 34.757C13.5592 36.3138 12.2904 37.5761 10.7244 37.5761C9.159 37.5761 7.88964 36.3138 7.88964 34.757C7.88964 33.1999 9.159 31.9379 10.7244 31.9379C11.0864 31.9379 11.4317 32.0049 11.7496 32.1278L13.5905 30.1281C14.3661 29.2854 15.4622 28.8055 16.6109 28.8055L23.8194 28.8056ZM10.7245 33.8172C10.2028 33.8172 9.77985 34.2379 9.77985 34.7571C9.77985 35.2758 10.2028 35.6965 10.7245 35.6965C11.2466 35.6965 11.6695 35.2758 11.6695 34.7571C11.6695 34.2379 11.2466 33.8172 10.7245 33.8172ZM8.8348 22.2281C10.069 22.2281 11.1192 23.0125 11.5084 24.1073H27.2078C27.73 24.1073 28.1529 24.5279 28.1529 25.0467C28.1529 25.5474 27.7593 25.9564 27.2635 25.9851L27.2078 25.9865H11.5084C11.1192 27.0818 10.069 27.8657 8.8348 27.8657C7.26936 27.8657 6 26.6039 6 25.0466C6 23.4898 7.26936 22.2281 8.8348 22.2281ZM8.8348 24.1073C8.31316 24.1073 7.88971 24.5279 7.88971 25.0467C7.88971 25.5659 8.31316 25.9865 8.8348 25.9865C9.35692 25.9865 9.77989 25.5659 9.77989 25.0467C9.77989 24.5279 9.35692 24.1073 8.8348 24.1073ZM11.3545 12.5177C12.9199 12.5177 14.1893 13.78 14.1893 15.3368C14.1893 15.8876 14.0306 16.401 13.7561 16.8352L15.6145 18.8533C16.0111 19.2841 16.5635 19.5391 17.1482 19.5634L17.2405 19.5654H24.4495C24.9716 19.5654 25.3946 19.986 25.3946 20.5052C25.3946 21.0055 25.0009 21.4145 24.5052 21.4431L24.4495 21.4446H17.2405C16.1303 21.4446 15.069 20.9963 14.2993 20.2055L14.2206 20.1225L12.2713 18.0053C11.9837 18.1029 11.6755 18.1559 11.3546 18.1559C9.78913 18.1559 8.51978 16.894 8.51978 15.3368C8.51978 13.78 9.78907 12.5177 11.3545 12.5177ZM11.3545 14.3973C10.8329 14.3973 10.4094 14.818 10.4094 15.3367C10.4094 15.856 10.8329 16.2766 11.3545 16.2766C11.8766 16.2766 12.2996 15.856 12.2996 15.3367C12.2996 14.818 11.8766 14.3973 11.3545 14.3973ZM17.3391 5.94004C18.9045 5.94004 20.1739 7.20237 20.1739 8.75914C20.1739 9.95303 19.4276 10.9736 18.3736 11.3844V12.0479C18.3736 13.2588 19.3607 14.2404 20.5783 14.2404H26.4194C26.941 14.2404 27.3645 14.661 27.3645 15.1803C27.3645 15.699 26.941 16.1201 26.4194 16.1201H20.5783C18.317 16.1201 16.4839 14.2968 16.4839 12.0479L16.4835 11.4476C15.3362 11.0867 14.5044 10.0196 14.5044 8.75914C14.5044 7.20237 15.7733 5.94004 17.3392 5.94004H17.3391ZM17.3391 7.81924C16.8169 7.81924 16.394 8.23986 16.394 8.75909C16.394 9.27784 16.8169 9.69895 17.3391 9.69895C17.8607 9.69895 18.2837 9.27784 18.2837 8.75909C18.2837 8.23986 17.8607 7.81924 17.3391 7.81924Z" fill="url(#paint1_linear_4896_12120)"/>
<path d="M29.6001 33.6606C30.1223 33.6606 30.5452 34.0812 30.5452 34.5999C30.5452 35.1192 30.1223 35.5398 29.6001 35.5398H29.3076C28.7859 35.5398 28.3625 35.1192 28.3625 34.5999C28.3625 34.0812 28.7859 33.6606 29.3076 33.6606H29.6001ZM33.0724 28.6489C33.594 28.6489 34.017 29.0695 34.017 29.5883C34.017 30.1075 33.594 30.5281 33.0724 30.5281H32.7798C32.2577 30.5281 31.8347 30.1075 31.8347 29.5883C31.8347 29.0695 32.2577 28.6489 32.7798 28.6489H33.0724ZM29.8176 28.6489C30.3392 28.6489 30.7627 29.0695 30.7627 29.5883C30.7627 30.1075 30.3392 30.5281 29.8176 30.5281H27.477C26.9549 30.5281 26.5319 30.1075 26.5319 29.5883C26.5319 29.0695 26.9549 28.6489 27.477 28.6489H29.8176ZM32.9673 23.9501C33.489 23.9501 33.9119 24.3712 33.9119 24.89C33.9119 25.4092 33.489 25.8298 32.9673 25.8298H30.6263C30.1047 25.8298 29.6817 25.4092 29.6817 24.89C29.6817 24.3712 30.1047 23.9501 30.6263 23.9501H32.9673ZM36.5367 23.9501C37.0588 23.9501 37.4818 24.3712 37.4818 24.89C37.4818 25.4092 37.0588 25.8298 36.5367 25.8298H36.2442C35.7225 25.8298 35.2995 25.4092 35.2995 24.89C35.2995 24.3712 35.7225 23.9501 36.2442 23.9501H36.5367ZM33.3873 19.565C33.909 19.565 34.3319 19.9857 34.3319 20.5049C34.3319 21.0236 33.909 21.4443 33.3873 21.4443H33.0948C32.5726 21.4443 32.1497 21.0236 32.1497 20.5049C32.1497 19.9857 32.5726 19.565 33.0948 19.565H33.3873ZM30.1325 19.565C30.6542 19.565 31.0771 19.9857 31.0771 20.5049C31.0771 21.0236 30.6542 21.4443 30.1325 21.4443H27.792C27.2699 21.4443 26.8469 21.0236 26.8469 20.5049C26.8469 19.9857 27.2699 19.565 27.792 19.565H30.1325ZM29.6075 14.2402C30.1296 14.2402 30.5526 14.6608 30.5526 15.18C30.5526 15.6988 30.1296 16.1199 29.6075 16.1199H29.3149C28.7933 16.1199 28.3703 15.6988 28.3703 15.18C28.3703 14.6608 28.7933 14.2402 29.3149 14.2402H29.6075Z" fill="url(#paint2_linear_4896_12120)"/>
<defs>
<linearGradient id="paint0_linear_4896_12120" x1="36.2128" y1="33.6397" x2="36.2128" y2="41.6506" gradientUnits="userSpaceOnUse">
<stop stop-color="#ED3040"/>
<stop offset="1" stop-color="#2D23F4"/>
</linearGradient>
<linearGradient id="paint1_linear_4896_12120" x1="36.2128" y1="33.6397" x2="36.2128" y2="41.6506" gradientUnits="userSpaceOnUse">
<stop stop-color="#ED3040"/>
<stop offset="1" stop-color="#2D23F4"/>
</linearGradient>
<linearGradient id="paint2_linear_4896_12120" x1="36.2128" y1="33.6397" x2="36.2128" y2="41.6506" gradientUnits="userSpaceOnUse">
<stop stop-color="#ED3040"/>
<stop offset="1" stop-color="#2D23F4"/>
</linearGradient>
</defs>
</svg>
