<svg width="50" height="50" viewBox="0 0 50 50" fill="none" xmlns="http://www.w3.org/2000/svg">
<path d="M37.2762 21.3299H34.1676V18.2207C34.1666 17.6227 33.9286 17.0496 33.5051 16.6273C33.0819 16.2053 32.508 15.9688 31.9101 15.9698H29.0781C28.4815 15.9704 27.9094 16.2079 27.4879 16.6299C27.066 17.0519 26.8285 17.624 26.8279 18.2207V21.3299H23.7193C23.123 21.3315 22.5516 21.5696 22.1303 21.9916C21.709 22.4139 21.4722 22.9857 21.4716 23.5821V26.4188C21.4722 27.0158 21.7097 27.5882 22.1319 28.0103C22.5538 28.4326 23.1264 28.6701 23.7234 28.6707H26.832V31.7799C26.8326 32.3769 27.0697 32.949 27.4917 33.3713C27.9136 33.7934 28.4855 34.0312 29.0822 34.0321H31.9101C32.5083 34.033 33.0819 33.7962 33.505 33.3736C33.9285 32.9512 34.1666 32.3782 34.1676 31.7799V28.6707H37.2761C37.8727 28.6698 38.4448 28.432 38.8667 28.01C39.2883 27.5877 39.5257 27.0156 39.5263 26.4188V23.5821C39.5257 22.9851 39.2883 22.413 38.8667 21.9907C38.4447 21.5687 37.8728 21.3308 37.2762 21.3299ZM37.4931 26.4187H37.4928C37.4928 26.5386 37.396 26.636 37.2762 26.637H33.1507C32.5891 26.637 32.134 27.0921 32.134 27.6538V31.7798C32.1331 31.9003 32.036 31.9975 31.9158 31.9984H29.0782C28.9583 31.9975 28.8615 31.9 28.8615 31.7798V27.6538C28.8615 27.0921 28.4062 26.637 27.8446 26.637H23.7193C23.5989 26.637 23.5011 26.5392 23.5011 26.4187V23.582C23.5011 23.4613 23.5989 23.3638 23.7193 23.3638H27.8433C28.4049 23.3638 28.8599 22.9084 28.8599 22.3466V18.2206C28.8599 18.1629 28.8829 18.1077 28.9236 18.067C28.9643 18.0263 29.0195 18.0036 29.0769 18.0036H31.9102C32.0303 18.0036 32.1277 18.1004 32.1287 18.2206V22.3466C32.1287 22.9083 32.5837 23.3638 33.1453 23.3638H37.2706C37.3907 23.3644 37.4875 23.4619 37.4875 23.5821L37.4931 26.4187Z" fill="url(#paint0_linear_4908_12152)"/>
<path d="M30.4977 10.5025C28.1115 10.5034 25.7626 11.0939 23.6597 12.2207C21.5564 13.348 19.764 14.977 18.4415 16.9633H11.9819V9.23454C11.9812 8.11079 11.5347 7.03338 10.7397 6.23921C9.94509 5.44505 8.86731 4.99944 7.74377 5H6.01665C5.45505 5 5 5.45511 5 6.01685C5 6.57859 5.45502 7.03403 6.01665 7.03403H7.74377C8.32777 7.03277 8.88781 7.26395 9.30153 7.67617C9.71493 8.08839 9.94765 8.64789 9.94828 9.23205V17.9488C9.94765 17.958 9.94765 17.9668 9.94828 17.976V32.0209C9.94765 32.0294 9.94765 32.0379 9.94828 32.0464V43.9831C9.94828 44.5449 10.4033 45 10.9649 45C11.5265 45 11.9819 44.5449 11.9819 43.9831V33.0379H18.4497C20.3102 35.8291 23.081 37.8883 26.2895 38.8645C29.4983 39.841 32.9462 39.6741 36.046 38.392C39.1451 37.1103 41.704 34.7931 43.2863 31.8353C44.8684 28.8772 45.3757 25.4621 44.722 22.1722C44.0683 18.882 42.2939 15.9204 39.7013 13.7921C37.109 11.6642 33.8585 10.5013 30.5043 10.5022L30.4977 10.5025ZM11.9817 31.0042V18.9973H17.3187C16.4506 20.8795 16.0012 22.9277 16.0012 25.0007C16.0012 27.0735 16.4506 29.1217 17.3187 31.004L11.9817 31.0042ZM30.5041 37.4638L30.5038 37.4642C27.1985 37.4657 24.0278 36.154 21.6894 33.8176C19.3512 31.4809 18.0366 28.3108 18.0356 25.0047C18.0344 21.6988 19.3464 18.5277 21.6831 16.1894C24.0197 13.8511 27.1891 12.5372 30.4951 12.5365C33.8004 12.5359 36.9705 13.8486 39.3079 16.1862C41.6451 18.5236 42.9585 21.6943 42.9585 24.9999C42.9557 28.3047 41.6417 31.4731 39.3054 33.8096C36.9691 36.1463 33.8012 37.4606 30.4974 37.4634L30.5041 37.4638Z" fill="url(#paint1_linear_4908_12152)"/>
<defs>
<linearGradient id="paint0_linear_4908_12152" x1="0" y1="0" x2="0" y2="1" gradientUnits="objectBoundingBox">
<stop stop-color="#ED3040"/>
<stop offset="1" stop-color="#2D23F4"/>
</linearGradient>
<linearGradient id="paint1_linear_4908_12152" x1="0" y1="0" x2="0" y2="1" gradientUnits="objectBoundingBox">
<stop stop-color="#ED3040"/>
<stop offset="1" stop-color="#2D23F4"/>
</linearGradient>
</defs>
</svg>
