<svg width="50" height="50" viewBox="0 0 50 50" fill="none" xmlns="http://www.w3.org/2000/svg">
<path d="M4.71875 8.0001V43H45.2831L45.2827 38.2403V8L4.71875 8.0001ZM35.2679 9.757H37.0983C37.8061 9.757 38.3801 10.3307 38.3801 11.0384C38.3801 11.7462 37.806 12.3202 37.0983 12.3202H35.2679C34.5605 12.3202 33.9869 11.7466 33.9869 11.0388C33.9869 10.3306 34.5605 9.757 35.2679 9.757ZM29.683 9.757H31.5134C32.2212 9.757 32.7952 10.3307 32.7952 11.0384C32.7952 11.7462 32.2216 12.3202 31.5134 12.3202H29.683C28.976 12.3202 28.402 11.7466 28.402 11.0388C28.402 10.3306 28.9764 9.757 29.683 9.757ZM24.0986 9.757H25.929C26.6368 9.757 27.2108 10.3307 27.2108 11.0384C27.2108 11.7462 26.6371 12.3202 25.929 12.3202H24.0986C23.3912 12.3202 22.8172 11.7466 22.8172 11.0388C22.8172 10.3306 23.3916 9.757 24.0986 9.757ZM18.5145 9.757H20.3449C21.0527 9.757 21.6263 10.3307 21.6263 11.0384C21.6263 11.7462 21.0523 12.3202 20.3445 12.3202H18.5141C17.8063 12.3202 17.2327 11.7466 17.2327 11.0388C17.2331 10.3306 17.8067 9.757 18.5145 9.757ZM12.9296 9.757H14.76C15.4674 9.757 16.0414 10.3307 16.0414 11.0384C16.0414 11.7462 15.4674 12.3202 14.76 12.3202H12.9296C12.2218 12.3202 11.6482 11.7466 11.6482 11.0388C11.6482 10.3306 12.2219 9.757 12.9296 9.757ZM7.34518 9.757H9.17556C9.88336 9.757 10.457 10.3307 10.457 11.0384C10.457 11.7462 9.88294 12.3202 9.17556 12.3202H7.34518C6.63739 12.3202 6.06376 11.7466 6.06376 11.0388C6.06376 10.3306 6.63742 9.757 7.34518 9.757ZM9.17556 41.2433H7.34518C6.63739 41.2433 6.06376 40.6693 6.06376 39.9619C6.06376 39.2545 6.63742 38.6805 7.34518 38.6805H9.17556C9.88336 38.6805 10.457 39.2545 10.457 39.9619C10.457 40.6693 9.88294 41.2433 9.17556 41.2433ZM14.76 41.2433H12.9296C12.2218 41.2433 11.6482 40.6693 11.6482 39.9619C11.6482 39.2545 12.2219 38.6805 12.9296 38.6805H14.76C15.4674 38.6805 16.0414 39.2545 16.0414 39.9619C16.0414 40.6693 15.4674 41.2433 14.76 41.2433ZM20.3445 41.2433H18.5141C17.8063 41.2433 17.2327 40.6693 17.2327 39.9619C17.2331 39.2545 17.8067 38.6805 18.5145 38.6805H20.3449C21.0527 38.6805 21.6263 39.2545 21.6263 39.9619C21.6263 40.6693 21.0523 41.2433 20.3445 41.2433ZM25.929 41.2433H24.0986C23.3912 41.2433 22.8172 40.6693 22.8172 39.9619C22.8172 39.2545 23.3916 38.6805 24.0986 38.6805H25.929C26.6368 38.6805 27.2108 39.2545 27.2108 39.9619C27.2108 40.6693 26.6371 41.2433 25.929 41.2433ZM31.5134 41.2433H29.683C28.976 41.2433 28.402 40.6693 28.402 39.9619C28.402 39.2545 28.9764 38.6805 29.683 38.6805H31.5134C32.2212 38.6805 32.7952 39.2545 32.7952 39.9619C32.7952 40.6693 32.2216 41.2433 31.5134 41.2433ZM37.0983 41.2433H35.2679C34.5605 41.2433 33.9869 40.6693 33.9869 39.9619C33.9869 39.2545 34.5605 38.6805 35.2679 38.6805H37.0983C37.8061 38.6805 38.3801 39.2545 38.3801 39.9619C38.3801 40.6693 37.806 41.2433 37.0983 41.2433ZM42.6827 41.2433H40.8524C40.1449 41.2433 39.5713 40.6693 39.5713 39.9619C39.5717 39.2545 40.1454 38.6805 40.8527 38.6805H42.6831C43.3909 38.6805 43.9649 39.2545 43.9649 39.9619C43.9649 40.6693 43.3905 41.2433 42.6827 41.2433ZM43.9649 36.9231H6.03652V14.0784H43.9649V36.9231ZM42.6827 12.3211H40.8524C40.1449 12.3211 39.5713 11.7474 39.5713 11.0397C39.5713 10.3319 40.145 9.75824 40.8524 9.75824H42.6827C43.3905 9.75824 43.9645 10.3319 43.9645 11.0397C43.9649 11.7471 43.3905 12.3211 42.6827 12.3211Z" fill="url(#paint0_linear_4854_13011)"/>
<defs>
<linearGradient id="paint0_linear_4854_13011" x1="0" y1="0" x2="0" y2="1" gradientUnits="objectBoundingBox">
<stop stop-color="#ED3040"/>
<stop offset="1" stop-color="#2D23F4"/>
</linearGradient>
</defs>
</svg>
