<svg width="50" height="50" viewBox="0 0 50 50" fill="none" xmlns="http://www.w3.org/2000/svg">
<path d="M14.0942 11.0663C14.0942 11.4764 13.8482 11.8457 13.4706 12.0024C13.093 12.1596 12.6581 12.0728 12.3695 11.7829C12.0804 11.4933 11.9938 11.0573 12.1501 10.6786C12.3068 10.2999 12.675 10.0532 13.084 10.0532C13.3519 10.0532 13.6089 10.1601 13.7985 10.3498C13.9877 10.5399 14.0942 10.7976 14.0942 11.0663ZM29.2506 12.0798H38.3444C38.9026 12.0798 39.355 11.6261 39.355 11.0663C39.355 10.5069 38.9026 10.0532 38.3444 10.0532H29.2506C28.6924 10.0532 28.24 10.5069 28.24 11.0663C28.24 11.6261 28.6924 12.0798 29.2506 12.0798ZM10.0519 10.0532C9.64334 10.0532 9.27472 10.2999 9.11843 10.6786C8.96213 11.0573 9.04831 11.4934 9.3374 11.7828C9.62649 12.0727 10.0609 12.1596 10.4385 12.0024C10.8161 11.8457 11.0625 11.4764 11.0625 11.0663C11.0625 10.7976 10.9559 10.5399 10.7664 10.3497C10.5768 10.16 10.3198 10.0532 10.0519 10.0532ZM16.1146 10.0532C15.706 10.0532 15.3374 10.2999 15.1811 10.6786C15.0248 11.0573 15.111 11.4934 15.4001 11.7828C15.6891 12.0727 16.1236 12.1596 16.5011 12.0024C16.8787 11.8457 17.1251 11.4764 17.1251 11.0663C17.1251 10.7976 17.0186 10.5399 16.829 10.3497C16.6394 10.16 16.3825 10.0532 16.1146 10.0532ZM44.4067 27.7007L43.396 28.7142L43.3964 28.7138C43.3988 28.7425 43.3988 28.7716 43.3964 28.8003V36.4001C43.3964 37.2062 43.0768 37.9797 42.5084 38.5497C41.94 39.1197 41.1692 39.4399 40.3649 39.4399H32.7009L28.4468 43.701C28.258 43.8916 28.0018 43.9988 27.7342 44H24.1977C23.6395 44 23.1875 43.5463 23.1875 42.9869V39.4399H8.03114C7.22733 39.4399 6.45603 39.1197 5.88764 38.5497C5.31925 37.9797 5 37.2062 5 36.4001V9.0398C5 8.2337 5.31925 7.4606 5.88764 6.89018C6.45603 6.32016 7.22729 6 8.03114 6H40.3656C41.1698 6 41.9407 6.32016 42.5091 6.89018C43.0774 7.46059 43.3971 8.23365 43.3971 9.0398V23.7337C43.399 23.7608 43.399 23.7879 43.3971 23.8146L44.4077 24.8281H44.4073C44.7869 25.2084 45 25.7242 45 26.262C45 26.7998 44.7869 27.3156 44.4073 27.6959L44.4067 27.7007ZM40.1929 29.0588L38.0607 26.9661L34.0189 31.0194H34.0193C33.6182 31.3636 33.0208 31.3404 32.6475 30.966C32.2742 30.592 32.2511 29.9925 32.5946 29.5906L39.4403 22.7203C39.9507 22.2206 40.6864 22.0281 41.3755 22.2135V16.1336H29.2505C28.6923 16.1336 28.2399 15.6798 28.2399 15.12C28.2399 14.5606 28.6924 14.1069 29.2505 14.1069H41.3755V9.04005C41.3755 8.77135 41.2689 8.51364 41.0793 8.32351C40.8897 8.13377 40.6328 8.02692 40.3648 8.02692H8.03039C7.47219 8.02692 7.02016 8.48065 7.02016 9.04003V14.1069H23.1874C23.7452 14.1069 24.1976 14.5606 24.1976 15.12C24.1976 15.6798 23.7452 16.1335 23.1874 16.1335H7.02016V36.3998C7.02016 36.6685 7.12632 36.9262 7.31591 37.1164C7.5055 37.3065 7.76247 37.4129 8.03041 37.4129H24.7833L28.5372 33.6483V33.6487C28.9383 33.3042 29.5357 33.3274 29.909 33.7017C30.2823 34.0761 30.3054 34.6752 29.9619 35.0775L25.208 39.8604V41.9731H27.3147L40.1929 29.0588ZM41.3755 30.7406L34.7217 37.4134H40.3648C40.6327 37.4134 40.8897 37.3069 41.0793 37.1168C41.2689 36.9267 41.3754 36.669 41.3754 36.4002L41.3755 30.7406ZM42.9769 26.2669L40.8702 24.1542L39.4909 25.5374L41.6231 27.625L42.9769 26.2669ZM31.2711 31.3334C30.8622 31.3334 30.494 31.5805 30.3373 31.9592C30.181 32.3379 30.2675 32.7736 30.5566 33.0634C30.8453 33.3533 31.2801 33.4398 31.6577 33.283C32.0353 33.1263 32.2813 32.7566 32.2813 32.3469C32.2813 32.0782 32.1748 31.8205 31.9856 31.6303C31.796 31.4402 31.5391 31.3334 31.2711 31.3334ZM26.2187 14.1073C25.8101 14.1073 25.4415 14.354 25.2852 14.7327C25.1289 15.1114 25.2151 15.5474 25.5042 15.8369C25.7933 16.1268 26.2277 16.2136 26.6053 16.0565C26.9829 15.8997 27.2293 15.5305 27.2293 15.1204C27.2293 14.8516 27.1228 14.5939 26.9332 14.4038C26.7436 14.2141 26.4866 14.1073 26.2187 14.1073Z" fill="url(#paint0_linear_4908_12225)"/>
<defs>
<linearGradient id="paint0_linear_4908_12225" x1="37.6624" y1="33.2077" x2="37.6624" y2="40.818" gradientUnits="userSpaceOnUse">
<stop stop-color="#ED3040"/>
<stop offset="1" stop-color="#2D23F4"/>
</linearGradient>
</defs>
</svg>
