<svg width="50" height="50" viewBox="0 0 50 50" fill="none" xmlns="http://www.w3.org/2000/svg">
<path fill-rule="evenodd" clip-rule="evenodd" d="M18.5587 17.9736C18.1745 16.8415 17.946 15.8053 17.946 14.9912C17.946 11.1326 21.1068 8 25.0002 8C28.8936 8 32.0544 11.1326 32.0544 14.9916C32.0544 15.8053 31.8258 16.8415 31.4416 17.9736L41.835 17.9733C42.6747 17.9733 43.4795 18.3037 44.0731 18.892C44.6666 19.4802 45 20.2779 45 21.1101V38.8633C45 39.6955 44.6666 40.4928 44.0731 41.0814C43.4795 41.6696 42.6747 42 41.835 42H8.16498C7.32529 42 6.52047 41.6696 5.92691 41.081C5.33336 40.4934 5 39.6955 5 38.8629V21.1106C5 20.2784 5.33337 19.4807 5.92691 18.8925C6.52046 18.3042 7.32529 17.9738 8.16498 17.9738H18.5584L18.5587 17.9736ZM43.3835 31.4159H25.8084V40.3971H41.8354C42.2461 40.3971 42.6402 40.2355 42.9305 39.9476C43.221 39.6599 43.384 39.2694 43.384 38.8623L43.3835 31.4159ZM6.61641 31.4162V38.8626C6.61641 39.2697 6.77943 39.6599 7.06997 39.9479C7.36019 40.2358 7.75429 40.3974 8.16503 40.3974H24.192V31.4162H6.61641ZM36.8973 19.5748V29.8146H43.3829V21.1099C43.3829 20.7028 43.2199 20.3123 42.9293 20.0246C42.6391 19.7367 42.245 19.5751 41.8343 19.5751L36.8973 19.5748ZM13.1018 19.5748H8.16486C7.75415 19.5748 7.36004 19.7363 7.0698 20.0243C6.77926 20.3119 6.61625 20.7025 6.61625 21.1096V29.8142H13.1018V19.5748ZM19.1763 19.5748H14.7175V29.8146H35.2817V19.5748H30.8229C30.7977 19.6343 30.7718 19.6932 30.7459 19.7528C29.0985 23.5202 26.3549 27.7074 26.3549 27.7074C26.0567 28.1616 25.5469 28.4359 24.9997 28.4359C24.4528 28.4359 23.943 28.1616 23.6445 27.7074C23.6445 27.7074 20.9008 23.5202 19.2535 19.7528C19.2273 19.6932 19.2017 19.6343 19.1764 19.5748H19.1763ZM24.9996 26.8343C24.9996 26.8343 19.5618 18.5441 19.5618 14.9913C19.5618 12.0168 21.9986 9.60201 24.9996 9.60201C28.001 9.60201 30.4375 12.0171 30.4375 14.9913C30.4375 18.5445 24.9996 26.8343 24.9996 26.8343ZM24.9996 12.359C23.5613 12.3593 22.3931 13.5171 22.3931 14.9426C22.3931 16.3681 23.5613 17.5258 24.9996 17.5258C26.438 17.5255 27.6062 16.3677 27.6062 14.9422C27.6062 13.5168 26.438 12.359 24.9996 12.359ZM24.9996 13.9609C25.5462 13.9609 25.9899 14.4006 25.9899 14.9426C25.9899 15.4839 25.5462 15.924 24.9996 15.924C24.4531 15.924 24.0094 15.4843 24.0094 14.9426C24.0094 14.4009 24.453 13.9612 24.9996 13.9612V13.9609Z" fill="url(#paint0_linear_4908_12146)"/>
<defs>
<linearGradient id="paint0_linear_4908_12146" x1="37.6624" y1="32.3437" x2="37.6624" y2="39.153" gradientUnits="userSpaceOnUse">
<stop stop-color="#ED3040"/>
<stop offset="1" stop-color="#2D23F4"/>
</linearGradient>
</defs>
</svg>
