<svg width="50" height="50" viewBox="0 0 50 50" fill="none" xmlns="http://www.w3.org/2000/svg">
<path d="M39.7103 18.3522V17.904C39.7103 12.4365 35.3102 8 29.8883 8C26.3772 8 23.1329 9.92707 21.3995 12.9744C20.9106 12.8848 20.4219 12.8399 19.9329 12.8399C16.5108 12.8399 13.4887 14.9464 12.244 18.0833H12.1107C8.19986 18.0836 5 21.3102 5 25.2989C5 29.2875 8.19986 32.5141 12.1555 32.5141H13.3998C14.0221 32.5141 14.5108 32.021 14.5108 31.3938C14.5108 30.7663 14.0218 30.2735 13.3998 30.2735H12.1555C9.4446 30.2735 7.22225 28.0327 7.22225 25.2991C7.22225 22.5655 9.44451 20.3247 12.1555 20.3247C12.4222 20.3247 12.6445 20.3247 12.8667 20.3695C13.4446 20.4592 13.9777 20.1006 14.111 19.5627C14.8223 16.9184 17.222 15.081 19.9333 15.081C20.5556 15.081 21.1332 15.1706 21.6665 15.3499C22.1999 15.5292 22.7775 15.2603 22.9998 14.7224C24.244 11.9889 26.9554 10.2407 29.8886 10.2407C34.0664 10.2407 37.4886 13.6914 37.4886 17.9041C37.4886 18.3076 37.4441 18.711 37.3997 19.0693C37.3552 19.383 37.4441 19.6968 37.6219 19.9209C37.7997 20.145 38.0664 20.3243 38.3776 20.3691C40.8666 20.6381 42.7777 22.7445 42.7777 25.2987C42.7777 28.0322 40.5555 30.2731 37.8445 30.2731H36.6002C35.9779 30.2731 35.4892 30.7662 35.4892 31.3934C35.4892 32.021 35.9782 32.5137 36.6002 32.5137H37.8445C41.8001 32.5137 45 29.2871 45 25.2985C44.9993 21.9826 42.7774 19.1589 39.7105 18.3525L39.7103 18.3522Z" fill="url(#paint0_linear_4896_12238)"/>
<path d="M32.8656 24.3574H17.1323C16.5099 24.3574 16.0213 24.8505 16.0213 25.4777V41.8797C16.0213 42.5073 16.5102 43 17.1323 43H32.8206C33.443 43 33.9316 42.5069 33.9316 41.8797L33.932 25.4776C33.9764 24.8501 33.443 24.357 32.8651 24.357L32.8656 24.3574ZM18.2438 32.0657H31.71V35.2923H18.2438V32.0657ZM18.2438 26.5983H31.71V29.8248H18.2438V26.5983ZM31.755 40.8049H18.2438V37.5783H31.71L31.7103 40.8049H31.755Z" fill="url(#paint1_linear_4896_12238)"/>
<path d="M23.4882 27.405C23.266 27.6291 23.1771 27.898 23.1771 28.2118C23.1771 28.5256 23.3104 28.7945 23.4882 29.0186C23.7105 29.2427 23.9772 29.3324 24.2884 29.3324C24.5995 29.3324 24.8663 29.1979 25.0885 29.0186C25.3108 28.7945 25.3997 28.5256 25.3997 28.2118C25.3997 27.898 25.2663 27.6291 25.0885 27.405C24.644 27.0016 23.8884 27.0016 23.4882 27.405Z" fill="url(#paint2_linear_4896_12238)"/>
<path d="M23.4882 32.9174C23.266 33.1415 23.1771 33.4104 23.1771 33.7242C23.1771 34.038 23.3104 34.3069 23.4882 34.531C23.7105 34.7551 23.9772 34.8448 24.2884 34.8448C24.5995 34.8448 24.8663 34.7103 25.0885 34.531C25.3108 34.3069 25.3997 34.038 25.3997 33.7242C25.3997 33.4104 25.2663 33.1415 25.0885 32.9174C24.644 32.4691 23.8884 32.4691 23.4882 32.9174Z" fill="url(#paint3_linear_4896_12238)"/>
<path d="M27.9767 27.405C27.7544 27.6291 27.6655 27.898 27.6655 28.2118C27.6655 28.5256 27.7989 28.7945 27.9767 29.0186C28.1989 29.2427 28.4657 29.3324 28.7768 29.3324C29.088 29.3324 29.3547 29.1979 29.577 29.0186C29.7992 28.7945 29.8881 28.5256 29.8881 28.2118C29.8881 27.898 29.7548 27.6291 29.577 27.405C29.1321 27.0016 28.4212 27.0016 27.9767 27.405Z" fill="url(#paint4_linear_4896_12238)"/>
<path d="M27.9767 32.9174C27.7989 33.0963 27.6655 33.4101 27.6655 33.679C27.6655 33.9928 27.7989 34.2617 27.9767 34.4859C28.1989 34.71 28.4657 34.7996 28.7768 34.7996C29.088 34.7996 29.3547 34.6652 29.577 34.4859C29.7992 34.2617 29.8881 33.9928 29.8881 33.679C29.8881 33.3653 29.7548 33.0963 29.577 32.8722C29.1321 32.4691 28.4212 32.4691 27.9767 32.9174Z" fill="url(#paint5_linear_4896_12238)"/>
<defs>
<linearGradient id="paint0_linear_4896_12238" x1="37.6624" y1="33.0597" x2="37.6624" y2="40.0692" gradientUnits="userSpaceOnUse">
<stop stop-color="#ED3040"/>
<stop offset="1" stop-color="#2D23F4"/>
</linearGradient>
<linearGradient id="paint1_linear_4896_12238" x1="37.6624" y1="33.0597" x2="37.6624" y2="40.0692" gradientUnits="userSpaceOnUse">
<stop stop-color="#ED3040"/>
<stop offset="1" stop-color="#2D23F4"/>
</linearGradient>
<linearGradient id="paint2_linear_4896_12238" x1="37.6624" y1="33.0597" x2="37.6624" y2="40.0692" gradientUnits="userSpaceOnUse">
<stop stop-color="#ED3040"/>
<stop offset="1" stop-color="#2D23F4"/>
</linearGradient>
<linearGradient id="paint3_linear_4896_12238" x1="37.6624" y1="33.0597" x2="37.6624" y2="40.0692" gradientUnits="userSpaceOnUse">
<stop stop-color="#ED3040"/>
<stop offset="1" stop-color="#2D23F4"/>
</linearGradient>
<linearGradient id="paint4_linear_4896_12238" x1="37.6624" y1="33.0597" x2="37.6624" y2="40.0692" gradientUnits="userSpaceOnUse">
<stop stop-color="#ED3040"/>
<stop offset="1" stop-color="#2D23F4"/>
</linearGradient>
<linearGradient id="paint5_linear_4896_12238" x1="37.6624" y1="33.0597" x2="37.6624" y2="40.0692" gradientUnits="userSpaceOnUse">
<stop stop-color="#ED3040"/>
<stop offset="1" stop-color="#2D23F4"/>
</linearGradient>
</defs>
</svg>
