<svg width="50" height="50" viewBox="0 0 50 50" fill="none" xmlns="http://www.w3.org/2000/svg">
<path d="M40.868 14.0615C40.529 13.7247 40.3429 13.2605 40.3539 12.7796V12.764C40.3429 12.2832 40.529 11.819 40.868 11.4819L41.8211 10.5674H41.8208C42.0136 10.3829 42.0557 10.0882 41.9233 9.85558L40.8181 7.91613C40.6854 7.68353 40.4127 7.57329 40.1587 7.64976L38.8943 8.03084C38.438 8.16116 37.9491 8.09297 37.5443 7.84285L37.5176 7.82692V7.82723C37.1088 7.59623 36.8123 7.20496 36.6972 6.74515L36.3906 5.44544C36.329 5.18417 36.0985 5 35.8334 5H33.6232C33.3581 5 33.1276 5.18417 33.066 5.44544L32.7594 6.74515C32.6443 7.20493 32.3478 7.59623 31.939 7.82691L31.9123 7.84284C31.5076 8.09296 31.0186 8.16114 30.5623 8.03083L29.2979 7.64975C29.0438 7.57328 28.7712 7.68352 28.6385 7.91612L27.5333 9.85557C27.4009 10.0882 27.443 10.3829 27.6358 10.5674L28.5886 11.4819C28.9275 11.819 29.1137 12.2832 29.1027 12.764V12.7796C29.1137 13.2604 28.9275 13.7247 28.5886 14.0615L27.6355 14.9759H27.6358C27.443 15.1608 27.4009 15.4552 27.5333 15.6881L28.6385 17.6275C28.7712 17.8601 29.0438 17.9704 29.2979 17.8936L30.5623 17.5125L30.5626 17.5128C31.0186 17.3825 31.5078 17.4507 31.9126 17.7005L31.9393 17.7161L31.939 17.7164C32.3478 17.9471 32.6443 18.3384 32.7594 18.7982L33.066 20.0982C33.1276 20.3595 33.3581 20.5437 33.6232 20.5437H35.8334C36.0985 20.5437 36.329 20.3595 36.3906 20.0979L36.6972 18.7979V18.7982C36.8123 18.3384 37.1091 17.9471 37.5176 17.7161L37.5443 17.7005C37.9487 17.4507 38.438 17.3825 38.8939 17.5128L40.1587 17.8939V17.8936C40.4127 17.9704 40.6857 17.8601 40.8181 17.6275L41.9233 15.6881C42.0557 15.4552 42.0136 15.1608 41.8208 14.9759L40.868 14.0615ZM34.7281 15.8847C33.9134 15.8847 33.132 15.5568 32.5559 14.9731C31.9796 14.3891 31.656 13.5973 31.656 12.7717C31.656 11.9462 31.9795 11.1544 32.5559 10.5704C33.132 9.98665 33.9134 9.65876 34.7281 9.65876C35.5432 9.65876 36.3246 9.98662 36.9006 10.5704C37.4767 11.1544 37.8006 11.9462 37.8006 12.7717C37.7997 13.597 37.4758 14.3884 36.8997 14.9722C36.3237 15.5556 35.5429 15.8841 34.7281 15.8847Z" fill="url(#paint0_linear_4896_12150)"/>
<path d="M16.6 13.8706L17.4368 14.0733C17.7327 14.1494 17.9846 14.3454 18.1333 14.6156L18.1434 14.6331C18.3044 14.9007 18.3481 15.2238 18.2644 15.5253L18.0192 16.361L18.0188 16.3614C17.9698 16.5293 18.0405 16.7096 18.1905 16.7972L19.4392 17.5279C19.5889 17.6155 19.7785 17.5874 19.8974 17.4603L20.486 16.8304C20.703 16.6064 21.0017 16.4834 21.3115 16.4904H21.3215C21.631 16.4834 21.93 16.6064 22.147 16.8304L22.7356 17.4603C22.8545 17.5874 23.0441 17.6155 23.1938 17.5279L24.4425 16.7972C24.5925 16.7096 24.6632 16.5293 24.6138 16.3614L24.3689 15.5256C24.2849 15.2242 24.3286 14.9008 24.4896 14.6334L24.5 14.6156C24.6487 14.3454 24.9006 14.1494 25.1962 14.0733L26.033 13.8706C26.2012 13.8298 26.3201 13.6775 26.3201 13.5023V12.0414C26.3201 11.8662 26.2012 11.7135 26.033 11.6731L25.1962 11.4704H25.1965C24.9006 11.3943 24.6487 11.1983 24.5 10.9281L24.4896 10.9103C24.3286 10.643 24.2849 10.3195 24.3689 10.0181L24.6142 9.18234C24.6632 9.01442 24.5925 8.83408 24.4428 8.74645L23.1941 8.01584H23.1938C23.0441 7.92822 22.8545 7.95626 22.7356 8.08339L22.147 8.71332C21.93 8.93731 21.6313 9.0603 21.3215 9.0533H21.3115C21.0017 9.06031 20.703 8.93731 20.486 8.71332L19.8974 8.08339C19.7785 7.95626 19.5889 7.92822 19.4392 8.01584L18.1905 8.74645C18.0405 8.83407 17.9698 9.01442 18.0192 9.18234L18.2644 10.0181C18.3481 10.3198 18.3044 10.6429 18.1434 10.9105L18.1333 10.9281C17.9846 11.1982 17.7327 11.3942 17.4368 11.4703L16.5998 11.673H16.6001C16.4319 11.7135 16.313 11.8661 16.313 12.0413V13.5022C16.313 13.6775 16.4319 13.8298 16.6001 13.8705L16.6 13.8706ZM21.3165 10.7411C21.8482 10.7411 22.358 10.9549 22.7336 11.3356C23.1094 11.7167 23.3207 12.2332 23.3207 12.7717C23.3207 13.3105 23.1094 13.827 22.7336 14.2077C22.3579 14.5887 21.8482 14.8025 21.3165 14.8025C20.785 14.8025 20.2753 14.5887 19.8993 14.2077C19.5235 13.8269 19.3125 13.3104 19.3125 12.7717C19.3131 12.2335 19.5244 11.717 19.9002 11.3365C20.2757 10.9558 20.785 10.7417 21.3165 10.7411Z" fill="url(#paint1_linear_4896_12150)"/>
<path d="M39.6493 19.6334L38.444 19.2705L38.4242 19.2826L38.4122 19.3349V34.1803L10.2794 34.1807V13.8856H14.5559C14.5352 13.7591 14.5245 13.631 14.5242 13.5026V12.0395C14.5232 11.8833 14.5405 11.7278 14.5758 11.5758H9.14176C8.83895 11.5752 8.54808 11.6969 8.33363 11.9142C8.11949 12.1312 7.99937 12.4259 8 12.7328V37.426C7.99937 37.7331 8.1195 38.0275 8.33363 38.2448C8.54809 38.4618 8.83895 38.5835 9.14176 38.5829H19.6356V40.3283L19.6359 40.328C19.6365 41.1086 19.313 41.8532 18.7448 42.3799L17.2333 43.7908V43.7905C17.0245 43.9855 16.9556 44.2904 17.0594 44.5581C17.1635 44.8257 17.4188 45.001 17.7024 45H30.9888C31.2724 45.0006 31.5274 44.8244 31.6306 44.5568C31.7334 44.2891 31.6636 43.9849 31.4545 43.7905L29.9429 42.3796L29.9426 42.3799C29.3769 41.8516 29.0553 41.1076 29.0555 40.328V38.5826H39.5494V38.5829C40.1798 38.5829 40.6908 38.0648 40.6908 37.4259V19.7019C40.3431 19.7593 39.9865 19.736 39.6488 19.6334L39.6493 19.6334ZM26.4466 42.077H22.2456V38.5823H26.4463L26.4466 42.077Z" fill="url(#paint2_linear_4896_12150)"/>
<path d="M26.8516 19.9736C26.7685 19.9267 26.6673 19.9274 26.5849 19.9755C26.5025 20.0236 26.4513 20.1119 26.4497 20.2084V23.2233H29.2502L29.2499 23.2229C28.9279 21.8506 28.0597 20.6746 26.8516 19.9736Z" fill="url(#paint3_linear_4896_12150)"/>
<path d="M26.4491 32.5278V31.5983C26.4425 30.2502 26.966 28.9553 27.9037 27.9991C28.7215 27.1777 29.2354 26.0959 29.3586 24.9358H23.3341C23.0511 24.9361 22.7797 24.8224 22.5797 24.6197C22.3797 24.4171 22.2675 24.1421 22.2681 23.8556V20.208C22.2671 20.1124 22.2165 20.0241 22.1351 19.976C22.0533 19.9279 21.953 19.9269 21.8703 19.9731C20.5066 20.7586 19.5837 22.1449 19.3761 23.7202C19.1686 25.2958 19.7003 26.8788 20.8132 27.9991C21.7512 28.955 22.2747 30.2502 22.2681 31.5983V32.528L26.4491 32.5278Z" fill="url(#paint4_linear_4896_12150)"/>
<defs>
<linearGradient id="paint0_linear_4896_12150" x1="0" y1="0" x2="0" y2="1" gradientUnits="objectBoundingBox">
<stop stop-color="#ED3040"/>
<stop offset="1" stop-color="#2D23F4"/>
</linearGradient>
<linearGradient id="paint1_linear_4896_12150" x1="0" y1="0" x2="0" y2="1" gradientUnits="objectBoundingBox">
<stop stop-color="#ED3040"/>
<stop offset="1" stop-color="#2D23F4"/>
</linearGradient>
<linearGradient id="paint2_linear_4896_12150" x1="0" y1="0" x2="0" y2="1" gradientUnits="objectBoundingBox">
<stop stop-color="#ED3040"/>
<stop offset="1" stop-color="#2D23F4"/>
</linearGradient>
<linearGradient id="paint3_linear_4896_12150" x1="0" y1="0" x2="0" y2="1" gradientUnits="objectBoundingBox">
<stop stop-color="#ED3040"/>
<stop offset="1" stop-color="#2D23F4"/>
</linearGradient>
<linearGradient id="paint4_linear_4896_12150" x1="0" y1="0" x2="0" y2="1" gradientUnits="objectBoundingBox">
<stop stop-color="#ED3040"/>
<stop offset="1" stop-color="#2D23F4"/>
</linearGradient>
</defs>
</svg>
