<svg width="50" height="50" viewBox="0 0 50 50" fill="none" xmlns="http://www.w3.org/2000/svg">
<path d="M42.3333 5.00001H7.66653C6.95943 5.00001 6.28118 5.28099 5.78091 5.78093C5.28098 6.28118 5 6.95946 5 7.66655V35.6667C5 36.3738 5.28098 37.052 5.78091 37.5523C6.28116 38.0522 6.95945 38.3332 7.66653 38.3332H23V39.6665L19.6667 39.6668C19.1925 39.6681 18.7549 39.9221 18.5186 40.3333H8.99996C8.28541 40.3333 7.62517 40.7145 7.26789 41.3335C6.91062 41.9522 6.91062 42.7146 7.26789 43.3333C7.62517 43.9523 8.28541 44.3335 8.99996 44.3335H18.5186C18.7549 44.7444 19.1925 44.9988 19.6667 45H30.3333C30.8075 44.9988 31.2451 44.7444 31.4814 44.3335H41C41.7146 44.3335 42.3748 43.9524 42.7321 43.3333C43.0891 42.7146 43.0891 41.9522 42.7321 41.3335C42.3748 40.7145 41.7146 40.3333 41 40.3333H31.4814C31.2451 39.9221 30.8075 39.6681 30.3333 39.6668H27V38.3332H42.3335C43.0406 38.3332 43.7188 38.0522 44.2191 37.5523C44.719 37.0521 45 36.3738 45 35.6667V7.66654C45 6.95944 44.719 6.28119 44.2191 5.78092C43.7188 5.28098 43.0406 5 42.3335 5L42.3333 5.00001ZM7.66653 6.33328H42.3333C42.6869 6.33328 43.0261 6.47377 43.2761 6.72375C43.5261 6.97402 43.6666 7.31301 43.6666 7.66656V10.3334H6.33374V7.66656C6.33374 7.31301 6.47423 6.97402 6.7242 6.72375C6.97448 6.47378 7.31346 6.33328 7.66701 6.33328H7.66653ZM8.33332 42.3332C8.33332 41.9651 8.63167 41.6664 9.00011 41.6664H18.3329V42.9997H9.00011C8.63167 42.9997 8.33332 42.7014 8.33332 42.3332ZM41.6663 42.3332C41.6663 42.51 41.5962 42.6797 41.4712 42.8046C41.3462 42.9296 41.1766 42.9997 40.9998 42.9997H31.6662V41.6664H40.9998C41.1766 41.6664 41.3462 41.7368 41.4712 41.8618C41.5962 41.9868 41.6663 42.1564 41.6663 42.3332ZM30.3327 43.6665H19.6661V41H30.3327V43.6665ZM24.3329 39.6664V34.966C24.5543 34.9799 24.7742 35.0001 24.9997 35.0001C25.2251 35.0001 25.445 34.9802 25.6665 34.966L25.6661 39.6667L24.3329 39.6664ZM24.3329 15.1112V18.9999H21.1996C21.9331 16.9527 23.057 15.496 24.3329 15.1114V15.1112ZM25.6662 29.6664H28.7995C28.0663 31.7136 26.9423 33.1703 25.6662 33.5549V29.6664ZM25.6662 28.3331V24.9998H29.6489C29.6095 26.1234 29.4569 27.2402 29.193 28.3331H25.6662ZM25.6662 23.6665V20.3332H29.193C29.4569 21.4258 29.6095 22.5426 29.6489 23.6662L25.6662 23.6665ZM25.6662 18.9999V15.1112C26.942 15.4957 28.0662 16.9524 28.7995 18.9999H25.6662ZM24.3329 20.3332V23.6665L20.3501 23.6662C20.3895 22.5426 20.5424 21.4258 20.8063 20.3332L24.3329 20.3332ZM24.3329 24.9998V28.3331H20.8063C20.5424 27.2401 20.3895 26.1234 20.3501 24.9998H24.3329ZM24.3329 29.6664V33.5551C23.057 33.1705 21.9328 31.7139 21.1996 29.6664H24.3329ZM30.2149 29.6664H32.6482C31.6266 31.129 30.2093 32.2703 28.5621 32.9563C29.2987 31.9629 29.8576 30.8502 30.2149 29.6664ZM33.4195 28.3331H30.5734C30.8115 27.2367 30.9477 26.1209 30.9809 24.9998H34.2987C34.2171 26.1559 33.9191 27.2867 33.4195 28.3331ZM30.9809 23.6665V23.6662C30.9477 22.5451 30.8116 21.4292 30.5734 20.3332H33.4195C33.9191 21.3793 34.2172 22.51 34.2987 23.6662L30.9809 23.6665ZM30.2149 18.9999V18.9996C29.8576 17.8161 29.2987 16.703 28.5622 15.7096C30.2093 16.3957 31.6267 17.537 32.6482 18.9996L30.2149 18.9999ZM17.3507 18.9996C18.3723 17.537 19.79 16.3957 21.4368 15.7096C20.7005 16.703 20.1414 17.8161 19.7841 18.9996H17.3507ZM16.5794 20.3332H19.4256C19.1877 21.4292 19.0512 22.5451 19.0184 23.6662H15.7002C15.7818 22.51 16.0801 21.3792 16.5794 20.3332ZM19.0183 24.9998C19.0512 26.1209 19.1877 27.2368 19.4255 28.3331H16.5794C16.0801 27.2867 15.7817 26.1559 15.7002 24.9998H19.0183ZM19.7841 29.6664C20.1413 30.8501 20.7005 31.9629 21.4367 32.9563C19.7899 32.2703 18.3723 31.129 17.3507 29.6664H19.7841ZM42.3329 36.9995H26.9994V34.8049C30.1808 34.1921 32.9127 32.1703 34.428 29.3069C34.4426 29.2811 34.4556 29.2545 34.4668 29.2269C36.0659 26.1602 36.0659 22.5056 34.4668 19.4391C34.4556 19.4115 34.4426 19.3848 34.428 19.3591C33.217 17.0576 31.2061 15.2786 28.774 14.3575C26.3419 13.4361 23.6571 13.4361 21.225 14.3575C18.7932 15.2786 16.782 17.0576 15.5709 19.3591C15.5563 19.3848 15.5433 19.4115 15.5321 19.4391C13.9331 22.5057 13.9331 26.1603 15.5321 29.2269C15.5433 29.2545 15.5563 29.2811 15.5709 29.3069C17.0866 32.1703 19.8182 34.1921 22.9995 34.8049V36.9995H7.66609C7.31254 36.9995 6.97355 36.859 6.72328 36.609C6.47331 36.3591 6.33282 36.0198 6.33282 35.6662V11.666H43.6657V35.6662C43.6657 36.0198 43.5252 36.3591 43.2752 36.609C43.0252 36.859 42.6859 36.9995 42.3324 36.9995H42.3329Z" fill="url(#paint0_linear_4908_12231)"/>
<path d="M8.33347 9.0007H9.00026C9.36839 9.0007 9.66674 8.70204 9.66674 8.33391C9.66674 7.96578 9.36839 7.66712 9.00026 7.66712H8.33347C7.96535 7.66712 7.66669 7.96578 7.66669 8.33391C7.66669 8.70204 7.96535 9.0007 8.33347 9.0007Z" fill="url(#paint1_linear_4908_12231)"/>
<path d="M11.6665 9.0007H12.3332H12.3329C12.7014 9.0007 12.9997 8.70204 12.9997 8.33391C12.9997 7.96578 12.7014 7.66712 12.3329 7.66712H11.6665C11.2983 7.66712 10.9997 7.96578 10.9997 8.33391C10.9997 8.70204 11.2983 9.0007 11.6665 9.0007Z" fill="url(#paint2_linear_4908_12231)"/>
<path d="M15.0002 9.0007H15.667H15.6667C16.0351 9.0007 16.3335 8.70204 16.3335 8.33391C16.3335 7.96578 16.0351 7.66712 15.6667 7.66712H15.0002C14.6321 7.66712 14.3334 7.96578 14.3334 8.33391C14.3334 8.70204 14.6321 9.0007 15.0002 9.0007Z" fill="url(#paint3_linear_4908_12231)"/>
<path d="M37.6665 9.0007H41.6667H41.6663C42.0345 9.0007 42.3331 8.70204 42.3331 8.33391C42.3331 7.96578 42.0345 7.66712 41.6663 7.66712H37.6665C37.2984 7.66712 36.9998 7.96578 36.9998 8.33391C36.9998 8.70204 37.2984 9.0007 37.6665 9.0007Z" fill="url(#paint4_linear_4908_12231)"/>
<defs>
<linearGradient id="paint0_linear_4908_12231" x1="37.6624" y1="33.6397" x2="37.6624" y2="41.6506" gradientUnits="userSpaceOnUse">
<stop stop-color="#ED3040"/>
<stop offset="1" stop-color="#2D23F4"/>
</linearGradient>
<linearGradient id="paint1_linear_4908_12231" x1="37.6624" y1="33.6397" x2="37.6624" y2="41.6506" gradientUnits="userSpaceOnUse">
<stop stop-color="#ED3040"/>
<stop offset="1" stop-color="#2D23F4"/>
</linearGradient>
<linearGradient id="paint2_linear_4908_12231" x1="37.6624" y1="33.6397" x2="37.6624" y2="41.6506" gradientUnits="userSpaceOnUse">
<stop stop-color="#ED3040"/>
<stop offset="1" stop-color="#2D23F4"/>
</linearGradient>
<linearGradient id="paint3_linear_4908_12231" x1="37.6624" y1="33.6397" x2="37.6624" y2="41.6506" gradientUnits="userSpaceOnUse">
<stop stop-color="#ED3040"/>
<stop offset="1" stop-color="#2D23F4"/>
</linearGradient>
<linearGradient id="paint4_linear_4908_12231" x1="37.6624" y1="33.6397" x2="37.6624" y2="41.6506" gradientUnits="userSpaceOnUse">
<stop stop-color="#ED3040"/>
<stop offset="1" stop-color="#2D23F4"/>
</linearGradient>
</defs>
</svg>
