<svg width="50" height="50" viewBox="0 0 50 50" fill="none" xmlns="http://www.w3.org/2000/svg">
<path d="M23.0013 39.8198C22.9917 41.1367 22.3033 42.3599 21.1701 43.074C20.0368 43.7878 18.6114 43.896 17.3789 43.3618C16.1463 42.8276 15.2724 41.7226 15.0544 40.4232C16.2115 40.2888 17.3032 39.8279 18.1963 39.0973L17.3349 38.1015C16.0911 39.125 14.3909 39.4416 12.8485 38.9368C11.306 38.4322 10.1443 37.179 9.78345 35.6303C9.42262 34.0815 9.91411 32.4607 11.0808 31.3541C12.5084 31.334 13.8825 30.8195 14.9572 29.9019L14.0806 28.921C13.2288 29.6503 12.1352 30.0534 11.0023 30.056C10.947 30.057 10.8921 30.0551 10.8375 30.0502C9.23918 29.9963 7.78105 29.1458 6.97429 27.7976C6.16783 26.4491 6.12553 24.7912 6.86248 23.4055C7.59947 22.0195 9.01263 21.0996 10.6063 20.9681C11.6645 21.7947 12.9797 22.2452 14.3353 22.2449V20.9432C13.2334 20.9429 12.1673 20.5618 11.3254 19.8676C10.4836 19.1732 9.92058 18.2106 9.73632 17.1499C9.55174 16.0892 9.75749 14.9987 10.3172 14.072C10.8769 13.1454 11.7545 12.4418 12.7945 12.0862C13.8344 11.7306 14.9697 11.7461 15.9991 12.1292C17.0285 12.5126 17.8859 13.2393 18.4195 14.1808L19.5856 13.55C18.6504 11.9059 16.9648 10.8 15.0525 10.5758C15.2668 9.27314 16.1405 8.16397 17.3753 7.62716C18.6098 7.09066 20.0384 7.19919 21.1734 7.9156C22.308 8.63201 22.9958 9.85975 23.0014 11.1792V16.3866H24.3344V11.1792C24.3248 9.39918 23.3844 7.74733 21.8413 6.79965C20.2982 5.85163 18.3661 5.73926 16.7184 6.50152C15.0711 7.26347 13.9365 8.79445 13.7103 10.561C12.3058 10.7021 10.9972 11.3233 10.0164 12.3149C9.03561 13.3065 8.44513 14.6046 8.34952 15.9803C8.25392 17.3559 8.65913 18.72 9.49374 19.832C7.76734 20.269 6.32945 21.4334 5.57028 23.0097C4.81146 24.5857 4.8098 26.4096 5.56598 27.9868C6.32216 29.564 7.75813 30.731 9.48385 31.1709C8.65357 32.285 8.25233 33.6486 8.35056 35.023C8.44847 36.397 9.03959 37.6936 10.0201 38.6842C11.0005 39.6748 12.3071 40.2959 13.7103 40.4387C13.9366 42.2052 15.0711 43.7362 16.7188 44.4985C18.3664 45.2605 20.2985 45.1481 21.8417 44.2001C23.3848 43.2521 24.3249 41.6 24.3345 39.8199V37.2162H23.0015L23.0013 39.8198Z" fill="url(#paint0_linear_4908_12194)"/>
<path d="M44.9998 25.5C45.0058 24.2015 44.5668 22.9383 43.7531 21.9115C42.9393 20.8843 41.7974 20.1527 40.5088 19.8323C41.3433 18.7202 41.7489 17.3562 41.6533 15.9805C41.5574 14.6049 40.9672 13.3067 39.9861 12.3152C39.0053 11.3236 37.6971 10.7024 36.2925 10.5613C36.0663 8.79481 34.9314 7.26376 33.2841 6.5018C31.6364 5.73951 29.7043 5.85192 28.1612 6.79993C26.618 7.74761 25.678 9.39946 25.6681 11.1795V16.3869H27.0011V11.1795C27.0094 9.86194 27.6978 8.63716 28.8313 7.92233C29.965 7.20754 31.3916 7.09933 32.6248 7.63421C33.858 8.16943 34.732 9.27573 34.9486 10.5761C33.0366 10.8006 31.351 11.9065 30.4155 13.5503L31.5815 14.1817C32.1148 13.2402 32.9722 12.5134 34.0016 12.1298C35.031 11.7464 36.1662 11.7309 37.2063 12.0862C38.2462 12.4418 39.1239 13.145 39.6839 14.0716C40.2439 14.9983 40.4496 16.0885 40.2654 17.1492C40.0811 18.2099 39.5185 19.1728 38.6766 19.8672C37.8351 20.5617 36.769 20.9428 35.6671 20.9435V22.2452C37.0227 22.2455 38.3379 21.7949 39.3964 20.9684C41.0043 21.0902 42.4333 22.0152 43.175 23.4138C43.9163 24.8124 43.8643 26.4858 43.038 27.8383C42.2114 29.1906 40.7275 30.0295 39.1149 30.0563C39.0769 30.0582 39.0385 30.0582 39.0004 30.0563C37.8665 30.0543 36.772 29.6509 35.9191 28.9212L35.0419 29.9021C36.117 30.8195 37.4911 31.3343 38.9191 31.3543C40.0484 32.4687 40.5115 34.072 40.145 35.5988C39.7788 37.1253 38.6339 38.3608 37.115 38.8692C35.596 39.3776 33.916 39.0876 32.6675 38.1018L31.8088 39.0976C32.7019 39.8282 33.7935 40.2891 34.9506 40.4235C34.7376 41.7275 33.864 42.8382 32.6285 43.3753C31.3933 43.9128 29.9637 43.8043 28.8281 43.0869C27.6928 42.3695 27.0055 41.1405 27.0012 39.8201V37.2164H25.6681V39.8201C25.6777 41.6001 26.6178 43.2523 28.161 44.2003C29.7041 45.1483 31.6362 45.2607 33.2838 44.4987C34.9315 43.7365 36.0661 42.2055 36.2927 40.4389C37.6965 40.2962 39.0038 39.6744 39.9843 38.6828C40.9647 37.6912 41.5555 36.394 41.6524 35.019C41.7497 33.644 41.3468 32.2796 40.5148 31.1659C41.8022 30.8445 42.9424 30.1123 43.7549 29.0858C44.5676 28.0593 45.0056 26.797 44.9999 25.4999L44.9998 25.5Z" fill="url(#paint1_linear_4908_12194)"/>
<path d="M32.5423 21.2788L30.6572 19.438C30.4226 19.209 30.0512 19.1831 29.7859 19.3772L28.342 20.4344C27.9907 20.2587 27.6252 20.1111 27.2494 19.9932L26.9941 18.2474C26.9471 17.9267 26.6659 17.6889 26.3341 17.6889H23.6677C23.3362 17.6889 23.0547 17.9267 23.0078 18.2474L22.7524 19.9932C22.3766 20.1111 22.0114 20.2587 21.6598 20.4344L20.2159 19.3772C19.9506 19.1831 19.5792 19.209 19.3446 19.438L17.4595 21.2788C17.2249 21.5078 17.1985 21.8702 17.3976 22.1295L18.4803 23.5394C18.3003 23.8825 18.1491 24.2394 18.0281 24.6063L16.2402 24.8556C15.9121 24.9015 15.6683 25.176 15.6683 25.5V28.1037C15.6683 28.4273 15.9121 28.7019 16.2402 28.7481L18.0281 28.9974V28.9971C18.1491 29.3644 18.3003 29.7209 18.4803 30.0639L17.3976 31.4739C17.1985 31.7332 17.2249 32.0956 17.4595 32.3246L19.3446 34.1654C19.5792 34.3947 19.9506 34.4203 20.2159 34.2261L21.6598 33.169C22.0115 33.3447 22.3766 33.4923 22.7524 33.6102L23.0078 35.356C23.0547 35.6767 23.3362 35.9148 23.6677 35.9144H26.3341C26.6659 35.9148 26.9471 35.6767 26.9941 35.356L27.2494 33.6102C27.6252 33.4923 27.9907 33.3447 28.342 33.169L29.7859 34.2261C30.0512 34.4203 30.4226 34.3948 30.6572 34.1654L32.5423 32.3246C32.7769 32.0956 32.8033 31.7332 32.6042 31.4739L31.5216 30.0639H31.5219C31.7018 29.7209 31.853 29.3643 31.9737 28.9971L33.7616 28.7477V28.7481C34.0898 28.7019 34.3335 28.4273 34.3335 28.1037V25.5C34.3335 25.176 34.0898 24.9015 33.7616 24.8556L31.9737 24.6063C31.853 24.2393 31.7018 23.8824 31.5219 23.5394L32.6045 22.1295H32.6042C32.8033 21.8702 32.7769 21.5078 32.5423 21.2788ZM33.0002 26.0643V27.5395L31.3581 27.7685H31.3584C31.0912 27.8056 30.8732 27.9965 30.8063 28.252C30.6664 28.7911 30.4474 29.3076 30.1563 29.7856C30.0187 30.0124 30.0343 30.2979 30.1964 30.5088L31.191 31.804L30.1246 32.8454L28.8004 31.8751C28.5847 31.7169 28.292 31.7014 28.0601 31.8361C27.5705 32.1203 27.0413 32.3338 26.4895 32.4707C26.2279 32.5357 26.032 32.7485 25.994 33.0095L25.7562 34.6129H24.2454L24.0109 33.0095C23.9729 32.7485 23.7774 32.5357 23.5157 32.4707C22.9636 32.3338 22.4347 32.1203 21.9451 31.8361C21.7129 31.7014 21.4205 31.7169 21.2045 31.8751L19.878 32.8464L18.8116 31.805L19.8062 30.5098L19.8059 30.5095C19.968 30.2986 19.9839 30.013 19.8459 29.7863C19.5548 29.3082 19.3359 28.7918 19.1959 28.2527C19.1291 27.9972 18.9111 27.8063 18.6439 27.7691L17.0015 27.5392V26.0643L18.6435 25.8353L18.6432 25.835C18.9105 25.7979 19.1285 25.607 19.1953 25.3515C19.3352 24.8124 19.5542 24.2959 19.8453 23.8179C19.9832 23.5911 19.9673 23.3056 19.8052 23.0947L18.8106 21.7995L19.877 20.7581L21.2035 21.7293L21.2038 21.729C21.4198 21.8873 21.7122 21.9028 21.9445 21.7681C22.434 21.4842 22.9629 21.2704 23.515 21.1334C23.7767 21.0685 23.9722 20.8556 24.0102 20.5946L24.2454 18.9907H25.7561L25.9907 20.5941C26.0287 20.855 26.2245 21.0679 26.4862 21.1328C27.0379 21.2698 27.5669 21.4836 28.0564 21.7675C28.2887 21.9022 28.5811 21.8867 28.7971 21.7284L30.1235 20.7572L31.19 21.7986L30.1953 23.0938L30.1957 23.0941C30.0336 23.305 30.018 23.5905 30.1556 23.8173C30.4467 24.2953 30.6657 24.8118 30.8056 25.3509C30.8724 25.6064 31.0904 25.7973 31.3577 25.8344L33.0002 26.0643Z" fill="url(#paint2_linear_4908_12194)"/>
<path d="M25.0015 22.8961C23.9407 22.8961 22.9231 23.3076 22.1733 24.0399C21.423 24.7724 21.0016 25.7656 21.0016 26.8015C21.0016 27.8373 21.423 28.8305 22.1733 29.5631C22.9232 30.2956 23.9407 30.7071 25.0015 30.7071C26.0619 30.7071 27.0795 30.2956 27.8297 29.5631C28.5796 28.8305 29.001 27.8373 29.001 26.8015C29 25.766 28.5782 24.7734 27.8283 24.0411C27.0784 23.3089 26.0616 22.897 25.0014 22.896L25.0015 22.8961ZM25.0015 29.4052C24.2942 29.4052 23.6158 29.131 23.1159 28.6426C22.6158 28.1542 22.335 27.4921 22.335 26.8015C22.335 26.1109 22.6158 25.4488 23.1159 24.9604C23.6158 24.472 24.2942 24.1978 25.0015 24.1978C25.7087 24.1978 26.3868 24.472 26.887 24.9604C27.3868 25.4487 27.668 26.1109 27.668 26.8015C27.668 27.4921 27.3868 28.1542 26.887 28.6426C26.3868 29.131 25.7087 29.4052 25.0015 29.4052Z" fill="url(#paint3_linear_4908_12194)"/>
<path d="M24.3342 20.2923H25.6672V21.594H24.3342V20.2923Z" fill="url(#paint4_linear_4908_12194)"/>
<path d="M19.8164 22.6596L20.7592 21.7391L21.7019 22.6596L20.7592 23.5802L19.8164 22.6596Z" fill="url(#paint5_linear_4908_12194)"/>
<path d="M18.3353 26.1507H19.6684V27.4524H18.3353V26.1507Z" fill="url(#paint6_linear_4908_12194)"/>
<path d="M19.8164 30.9441L20.7592 30.0236L21.7019 30.9441L20.7592 31.8647L19.8164 30.9441Z" fill="url(#paint7_linear_4908_12194)"/>
<path d="M24.3342 32.0091H25.6672V33.3108H24.3342V32.0091Z" fill="url(#paint8_linear_4908_12194)"/>
<path d="M28.3007 30.9441L29.2434 30.0236L30.1862 30.9441L29.2434 31.8647L28.3007 30.9441Z" fill="url(#paint9_linear_4908_12194)"/>
<path d="M30.3347 26.1507H31.6678V27.4524H30.3347V26.1507Z" fill="url(#paint10_linear_4908_12194)"/>
<path d="M28.3007 22.6588L29.2434 21.7383L30.1862 22.6588L29.2434 23.5794L28.3007 22.6588Z" fill="url(#paint11_linear_4908_12194)"/>
<defs>
<linearGradient id="paint0_linear_4908_12194" x1="37.6624" y1="33.9237" x2="37.6624" y2="41.7343" gradientUnits="userSpaceOnUse">
<stop stop-color="#ED3040"/>
<stop offset="1" stop-color="#2D23F4"/>
</linearGradient>
<linearGradient id="paint1_linear_4908_12194" x1="37.6624" y1="33.9237" x2="37.6624" y2="41.7343" gradientUnits="userSpaceOnUse">
<stop stop-color="#ED3040"/>
<stop offset="1" stop-color="#2D23F4"/>
</linearGradient>
<linearGradient id="paint2_linear_4908_12194" x1="37.6624" y1="33.9237" x2="37.6624" y2="41.7343" gradientUnits="userSpaceOnUse">
<stop stop-color="#ED3040"/>
<stop offset="1" stop-color="#2D23F4"/>
</linearGradient>
<linearGradient id="paint3_linear_4908_12194" x1="37.6624" y1="33.9237" x2="37.6624" y2="41.7343" gradientUnits="userSpaceOnUse">
<stop stop-color="#ED3040"/>
<stop offset="1" stop-color="#2D23F4"/>
</linearGradient>
<linearGradient id="paint4_linear_4908_12194" x1="37.6624" y1="33.9237" x2="37.6624" y2="41.7343" gradientUnits="userSpaceOnUse">
<stop stop-color="#ED3040"/>
<stop offset="1" stop-color="#2D23F4"/>
</linearGradient>
<linearGradient id="paint5_linear_4908_12194" x1="37.6624" y1="33.9237" x2="37.6624" y2="41.7343" gradientUnits="userSpaceOnUse">
<stop stop-color="#ED3040"/>
<stop offset="1" stop-color="#2D23F4"/>
</linearGradient>
<linearGradient id="paint6_linear_4908_12194" x1="37.6624" y1="33.9237" x2="37.6624" y2="41.7343" gradientUnits="userSpaceOnUse">
<stop stop-color="#ED3040"/>
<stop offset="1" stop-color="#2D23F4"/>
</linearGradient>
<linearGradient id="paint7_linear_4908_12194" x1="37.6624" y1="33.9237" x2="37.6624" y2="41.7343" gradientUnits="userSpaceOnUse">
<stop stop-color="#ED3040"/>
<stop offset="1" stop-color="#2D23F4"/>
</linearGradient>
<linearGradient id="paint8_linear_4908_12194" x1="37.6624" y1="33.9237" x2="37.6624" y2="41.7343" gradientUnits="userSpaceOnUse">
<stop stop-color="#ED3040"/>
<stop offset="1" stop-color="#2D23F4"/>
</linearGradient>
<linearGradient id="paint9_linear_4908_12194" x1="37.6624" y1="33.9237" x2="37.6624" y2="41.7343" gradientUnits="userSpaceOnUse">
<stop stop-color="#ED3040"/>
<stop offset="1" stop-color="#2D23F4"/>
</linearGradient>
<linearGradient id="paint10_linear_4908_12194" x1="37.6624" y1="33.9237" x2="37.6624" y2="41.7343" gradientUnits="userSpaceOnUse">
<stop stop-color="#ED3040"/>
<stop offset="1" stop-color="#2D23F4"/>
</linearGradient>
<linearGradient id="paint11_linear_4908_12194" x1="37.6624" y1="33.9237" x2="37.6624" y2="41.7343" gradientUnits="userSpaceOnUse">
<stop stop-color="#ED3040"/>
<stop offset="1" stop-color="#2D23F4"/>
</linearGradient>
</defs>
</svg>
