<svg width="50" height="50" viewBox="0 0 50 50" fill="none" xmlns="http://www.w3.org/2000/svg">
<g opacity="0.7">
<path d="M41.994 31.5098V14.2907C41.994 12.9748 40.9382 11.9037 39.648 11.9037H38.0228V13.1938H39.648C40.2424 13.1938 40.7292 13.6842 40.7292 14.2904V30.8895L9.26482 30.8898V14.2907C9.26482 13.6843 9.75156 13.1941 10.346 13.1941H11.9712V11.904H10.346C9.04975 11.904 8 12.9751 8 14.2911V34.981C8 36.3035 9.04949 37.3745 10.346 37.3745H39.6477C40.9375 37.3745 41.9937 36.3034 41.9937 34.981V31.5684C41.9937 31.5555 42 31.549 42 31.5361C42 31.5293 41.9937 31.5228 41.9937 31.5099L41.994 31.5098ZM25.5599 34.7676H24.4407C24.093 34.7676 23.8083 34.4772 23.8083 34.1224C23.8083 33.7676 24.0927 33.4772 24.4407 33.4772H25.5599C25.9139 33.4772 26.1923 33.7676 26.1923 34.1224C26.1923 34.4775 25.9139 34.7676 25.5599 34.7676Z" fill="url(#paint0_linear_4896_12172)"/>
<path d="M33.4842 43.7082H31.9493C30.2188 42.3462 29.0343 40.3316 28.4752 38.6646H21.5195C20.9604 40.3316 19.7759 42.3462 18.0453 43.7082H16.5144C16.165 43.7082 15.882 43.9969 15.882 44.3534C15.882 44.7095 16.1647 44.9986 16.5144 44.9986H18.2617C18.2644 44.9986 18.2667 45 18.269 45H31.7246C31.7273 45 31.7296 44.999 31.732 44.9986H33.4835C33.8329 44.9986 34.1159 44.7099 34.1159 44.3534C34.1163 43.9969 33.8332 43.7082 33.4838 43.7082H33.4842Z" fill="url(#paint1_linear_4896_12172)"/>
<path d="M32.0768 21.6703H25.9239L28.5756 27.2751C30.5109 26.12 31.8688 24.0635 32.0768 21.6703H32.0768Z" fill="url(#paint2_linear_4896_12172)"/>
<path d="M17.8958 21.0251C17.8958 22.5292 18.3489 23.9268 19.1223 25.086L24.3681 20.6466V13.8C20.7453 14.1299 17.8958 17.2446 17.8958 21.0252V21.0251Z" fill="url(#paint3_linear_4896_12172)"/>
<path d="M27.4315 27.8248L24.6968 22.0445L19.9254 26.0826C21.2173 27.4285 23.0159 28.2677 25.0055 28.2677C25.8582 28.2673 26.6734 28.1071 27.4315 27.8248Z" fill="url(#paint4_linear_4896_12172)"/>
<path d="M25.6375 13.7247V20.3043H32.0701C31.7681 16.8199 29.0456 14.0363 25.6375 13.7247Z" fill="url(#paint5_linear_4896_12172)"/>
<path d="M36.7606 6.55412C36.7606 5.69731 36.0772 5 35.2374 5H14.7612C13.9215 5 13.2383 5.69728 13.2383 6.55412V9.52825H36.7604L36.7606 6.55412ZM16.8785 7.90918H16.6655C16.3161 7.90918 16.033 7.6204 16.033 7.26393C16.033 6.90781 16.3157 6.61869 16.6655 6.61869H16.8785C17.2279 6.61869 17.5109 6.90747 17.5109 7.26393C17.5109 7.6204 17.2282 7.90918 16.8785 7.90918ZM19.6795 7.90918H19.4665C19.1171 7.90918 18.8341 7.6204 18.8341 7.26393C18.8341 6.90781 19.1168 6.61869 19.4665 6.61869H19.6795C20.0289 6.61869 20.312 6.90747 20.312 7.26393C20.312 7.6204 20.0293 7.90918 19.6795 7.90918ZM33.3331 7.90918H26.9586C26.6092 7.90918 26.3262 7.6204 26.3262 7.26393C26.3262 6.90781 26.6089 6.61869 26.9586 6.61869H33.3331C33.6825 6.61869 33.9656 6.90747 33.9656 7.26393C33.9656 7.6204 33.6825 7.90918 33.3331 7.90918Z" fill="url(#paint6_linear_4896_12172)"/>
<path d="M14.7619 26.065H18.2634C17.2422 24.6507 16.6312 22.9116 16.6312 21.0252C16.6312 16.4208 20.2217 12.6657 24.6944 12.4966C24.7864 12.4436 24.8871 12.4048 25.0001 12.4048C29.6117 12.4048 33.3629 16.2378 33.3629 20.9494C33.3629 20.9572 33.3589 20.9637 33.3586 20.9715C33.3603 20.9902 33.3693 21.0058 33.3693 21.0249C33.3693 22.9113 32.7588 24.6504 31.739 26.0647H35.2378C36.0776 26.0647 36.7611 25.3674 36.7611 24.5106V10.8189H13.239V24.5115C13.239 25.3679 13.9221 26.0652 14.7619 26.0652L14.7619 26.065Z" fill="url(#paint7_linear_4896_12172)"/>
</g>
<defs>
<linearGradient id="paint0_linear_4896_12172" x1="0" y1="0" x2="0" y2="1" gradientUnits="objectBoundingBox">
<stop stop-color="#ED3040"/>
<stop offset="1" stop-color="#2D23F4"/>
</linearGradient>
<linearGradient id="paint1_linear_4896_12172" x1="0" y1="0" x2="0" y2="1" gradientUnits="objectBoundingBox">
<stop stop-color="#ED3040"/>
<stop offset="1" stop-color="#2D23F4"/>
</linearGradient>
<linearGradient id="paint2_linear_4896_12172" x1="0" y1="0" x2="0" y2="1" gradientUnits="objectBoundingBox">
<stop stop-color="#ED3040"/>
<stop offset="1" stop-color="#2D23F4"/>
</linearGradient>
<linearGradient id="paint3_linear_4896_12172" x1="0" y1="0" x2="0" y2="1" gradientUnits="objectBoundingBox">
<stop stop-color="#ED3040"/>
<stop offset="1" stop-color="#2D23F4"/>
</linearGradient>
<linearGradient id="paint4_linear_4896_12172" x1="0" y1="0" x2="0" y2="1" gradientUnits="objectBoundingBox">
<stop stop-color="#ED3040"/>
<stop offset="1" stop-color="#2D23F4"/>
</linearGradient>
<linearGradient id="paint5_linear_4896_12172" x1="0" y1="0" x2="0" y2="1" gradientUnits="objectBoundingBox">
<stop stop-color="#ED3040"/>
<stop offset="1" stop-color="#2D23F4"/>
</linearGradient>
<linearGradient id="paint6_linear_4896_12172" x1="0" y1="0" x2="0" y2="1" gradientUnits="objectBoundingBox">
<stop stop-color="#ED3040"/>
<stop offset="1" stop-color="#2D23F4"/>
</linearGradient>
<linearGradient id="paint7_linear_4896_12172" x1="0" y1="0" x2="0" y2="1" gradientUnits="objectBoundingBox">
<stop stop-color="#ED3040"/>
<stop offset="1" stop-color="#2D23F4"/>
</linearGradient>
</defs>
</svg>
