<svg width="50" height="50" viewBox="0 0 50 50" fill="none" xmlns="http://www.w3.org/2000/svg">
<path d="M28.0318 43.1362V39.8559L21.1434 39.8629V43.1429L15.8037 43.15V45L21.1434 44.9933H28.0318L33.2635 44.9865V43.1362L28.0318 43.1362Z" fill="url(#paint0_linear_4896_12162)"/>
<path d="M41 17.6402C41 16.7416 40.6455 15.8797 40.014 15.244C39.3829 14.6084 38.5264 14.2516 37.6334 14.2516H33.6539V16.3663H37.6538V16.3659C37.9812 16.3659 38.2953 16.4964 38.5276 16.7288C38.7594 16.9612 38.8908 17.2766 38.8928 17.6062V34.7863H10.1344V17.6062C10.1344 17.2766 10.2641 16.9605 10.4949 16.7267C10.7258 16.4933 11.0392 16.3612 11.3666 16.3592H15.4065V14.2445H11.3666V14.2448C10.4736 14.2448 9.6175 14.6017 8.98598 15.2372C8.35448 15.8729 8 16.7345 8 17.6334V35.4713C8 36.37 8.35451 37.2319 8.98598 37.8675C9.61748 38.5028 10.4736 38.8599 11.3666 38.8599H37.6273C38.5204 38.8599 39.3764 38.5028 40.008 37.8675C40.6395 37.2319 40.994 36.3699 40.994 35.4713L41 17.6402ZM24.5239 38.2435C24.147 38.2435 23.7855 38.0928 23.5192 37.8248C23.2525 37.5564 23.1029 37.1929 23.1029 36.8135C23.1029 36.4342 23.2525 36.0706 23.5192 35.8022C23.7855 35.5342 24.147 35.3835 24.5239 35.3835C24.9005 35.3835 25.262 35.5342 25.5283 35.8022C25.7949 36.0706 25.9446 36.4342 25.9446 36.8135C25.9446 37.1929 25.7949 37.5564 25.5283 37.8248C25.262 38.0928 24.9004 38.2435 24.5239 38.2435Z" fill="url(#paint1_linear_4896_12162)"/>
<path d="M32.5498 14.2851C32.5131 13.8109 32.3123 13.3649 31.9828 13.0243C31.653 12.6839 31.2153 12.4704 30.7452 12.4213V7.03329C30.7452 6.49386 30.5323 5.97666 30.1538 5.5956C29.7749 5.21423 29.2609 5 28.7254 5H20.3084C19.7728 5 19.2588 5.21423 18.88 5.5956C18.5011 5.97664 18.2886 6.49391 18.2886 7.03329V12.4213C17.8165 12.471 17.3771 12.6863 17.0469 13.0296C16.7172 13.3727 16.5177 13.822 16.4839 14.2985V24.4645V24.4642C16.4839 25.0036 16.6968 25.5208 17.0753 25.9019C17.4543 26.2833 17.9682 26.4975 18.5037 26.4975H30.5499C31.0855 26.4975 31.5994 26.2833 31.9783 25.9019C32.3572 25.5208 32.57 25.0036 32.57 24.4642C32.57 24.4642 32.5496 14.3326 32.5496 14.2852L32.5498 14.2851ZM20.7055 7.43991H28.3414V12.4008H20.7055V7.43991ZM25.924 22.1268H23.123L23.5336 19.3005C23.2376 19.0307 23.0628 18.6514 23.0498 18.2495C23.0364 17.8473 23.1858 17.4575 23.4638 17.1682C23.7414 16.8793 24.124 16.7162 24.5237 16.7162C24.923 16.7162 25.3055 16.8793 25.5832 17.1682C25.8612 17.4575 26.0106 17.8472 25.9975 18.2495C25.9842 18.6514 25.8094 19.0307 25.5134 19.3005L25.924 22.1268Z" fill="url(#paint2_linear_4896_12162)"/>
<defs>
<linearGradient id="paint0_linear_4896_12162" x1="34.9465" y1="33.6397" x2="34.9465" y2="41.6506" gradientUnits="userSpaceOnUse">
<stop stop-color="#ED3040"/>
<stop offset="1" stop-color="#2D23F4"/>
</linearGradient>
<linearGradient id="paint1_linear_4896_12162" x1="34.9465" y1="33.6397" x2="34.9465" y2="41.6506" gradientUnits="userSpaceOnUse">
<stop stop-color="#ED3040"/>
<stop offset="1" stop-color="#2D23F4"/>
</linearGradient>
<linearGradient id="paint2_linear_4896_12162" x1="34.9465" y1="33.6397" x2="34.9465" y2="41.6506" gradientUnits="userSpaceOnUse">
<stop stop-color="#ED3040"/>
<stop offset="1" stop-color="#2D23F4"/>
</linearGradient>
</defs>
</svg>
