<svg width="50" height="50" viewBox="0 0 50 50" fill="none" xmlns="http://www.w3.org/2000/svg">
<path d="M23.1391 10.3334C23.1391 10.8224 22.7309 11.2224 22.2319 11.2224C21.733 11.2224 21.3248 10.8224 21.3248 10.3334C21.3248 9.84443 21.733 9.44438 22.2319 9.44438C22.7312 9.44438 23.1391 9.84445 23.1391 10.3334ZM26.7669 9.44438C26.268 9.44438 25.8598 9.84445 25.8598 10.3334C25.8598 10.8224 26.268 11.2224 26.7669 11.2224C27.2658 11.2224 27.674 10.8224 27.674 10.3334C27.674 9.84443 27.2658 9.44438 26.7669 9.44438ZM43.9993 26.7778V28.111C43.9993 28.6 43.5911 29 43.0922 29C42.5933 29 42.1851 28.6 42.1851 28.111V26.7778C42.1851 26.0221 41.5954 25.4446 40.8248 25.4446C40.0537 25.4446 39.4644 26.0225 39.4644 26.7778V28.111C39.4644 28.6 39.0562 29 38.5573 29C38.0584 29 37.6502 28.6 37.6502 28.111V26.7778C37.6502 25.3557 38.6023 24.1999 39.9176 23.8002V19.978C38.9201 19.6668 38.1037 18.867 37.7862 17.8891H34.9298V26.3333C34.9298 27.7999 33.7055 29 32.2088 29V36.5555C32.2088 38.0221 30.9845 39.2223 29.4878 39.2223H27.6739V41.889C27.6739 43.6223 26.2683 45 24.4997 45C22.7311 45 21.3254 43.6223 21.3254 41.889V39.2223H19.5115C18.0151 39.2223 16.7905 38.0224 16.7905 36.5555L16.7908 28.9997C15.2944 28.9997 14.0698 27.7998 14.0698 26.3329V17.8891H11.2131C10.8956 18.8667 10.0795 19.6668 9.08168 19.978V23.8002C10.3966 24.2003 11.3491 25.3557 11.3491 26.7778V28.111C11.3491 28.6 10.9409 29 10.442 29C9.94307 29 9.53488 28.6 9.53488 28.111V26.7778C9.53488 26.0221 8.94524 25.4446 8.17456 25.4446C7.4035 25.4446 6.81424 26.0225 6.81424 26.7778V28.111C6.81424 28.6 6.40603 29 5.90712 29C5.4082 29 5 28.6 5 28.111V26.7778C5 25.3557 5.95213 24.1999 7.26744 23.8002V19.978C5.95249 19.5779 5 18.4225 5 17.0004C5 15.2671 6.40568 13.8894 8.17429 13.8894C9.62534 13.8894 10.8046 14.8225 11.2125 16.1116H14.1146C14.3414 14.8673 15.4295 13.8894 16.7903 13.8894L16.791 7.66675C16.791 6.20017 18.0153 5 19.512 5H29.4887C30.9851 5 32.2097 6.1999 32.2097 7.66675V13.889C33.57 13.889 34.6586 14.8666 34.8854 16.1112H37.7875C38.1957 14.8225 39.42 13.889 40.8257 13.889C42.5942 13.889 44 15.2667 44 17C44 18.4221 43.0479 19.5779 41.7326 19.9776V23.7998C43.0472 24.1999 43.9997 25.3553 43.9997 26.7778H43.9993ZM9.53543 17C9.53543 16.2443 8.94579 15.6668 8.17511 15.6668C7.40405 15.6668 6.81479 16.2447 6.81479 17C6.81479 17.7113 7.40442 18.3332 8.17511 18.3332C8.94579 18.3332 9.53543 17.7112 9.53543 17ZM18.6048 13.889H30.3952L30.3949 7.66675C30.3949 7.17777 29.9867 6.77771 29.4877 6.77771L19.511 6.77806C19.0121 6.77806 18.6039 7.17813 18.6039 7.66709L18.6048 13.889ZM25.8604 34.7775C25.8604 34.0218 25.2708 33.4443 24.5001 33.4443C23.729 33.4443 23.1398 34.0222 23.1398 34.7775V41.8885C23.1398 42.5997 23.7294 43.2217 24.5001 43.2217C25.2712 43.2217 25.8604 42.5993 25.8604 41.8885V34.7775ZM30.395 28.9998H18.6046V36.5552C18.6046 37.0442 19.0129 37.4443 19.5118 37.4443H21.3256V34.7775C21.3256 33.0443 22.7313 31.6665 24.4999 31.6665C26.2685 31.6665 27.6742 33.0442 27.6742 34.7775V37.4443H29.4881C29.987 37.4443 30.3952 37.0442 30.3952 36.5552L30.395 28.9998ZM33.116 16.5552C33.116 16.0663 32.7078 15.6662 32.2089 15.6662L16.7911 15.6665C16.2922 15.6665 15.884 16.0666 15.884 16.5556V26.3334C15.884 26.8223 16.2922 27.2224 16.7911 27.2224H32.2098C32.7087 27.2224 33.1169 26.8223 33.1169 26.3334L33.116 16.5552ZM40.8252 18.333C41.5963 18.333 42.1855 17.7106 42.1855 16.9998C42.1855 16.2441 41.5959 15.6666 40.8252 15.6666C40.0541 15.6666 39.4649 16.2444 39.4649 16.9998C39.4645 17.711 40.0542 18.333 40.8252 18.333ZM30.3949 21.4443C30.3949 21.9333 29.9866 22.3333 29.4877 22.3333H27.5378C27.1295 23.6221 25.9053 24.5556 24.4996 24.5556C23.0939 24.5556 21.8692 23.6224 21.4614 22.3333L19.5114 22.333C19.0125 22.333 18.6043 21.9329 18.6043 21.444C18.6043 20.955 19.0125 20.5549 19.5114 20.5549H21.4614C21.8696 19.2662 23.0939 18.3327 24.4996 18.3327C25.9053 18.3327 27.1299 19.2658 27.5378 20.5549L29.4881 20.5553C29.987 20.5553 30.3949 20.9553 30.3949 21.4443ZM25.8602 21.4443C25.8602 20.6886 25.2706 20.1111 24.4999 20.1111C23.7289 20.1111 23.1396 20.689 23.1396 21.4443C23.1396 22.1555 23.7292 22.7775 24.4999 22.7775C25.2706 22.7775 25.8602 22.1552 25.8602 21.4443Z" fill="url(#paint0_linear_4908_12213)"/>
<defs>
<linearGradient id="paint0_linear_4908_12213" x1="36.8459" y1="33.6397" x2="36.8459" y2="41.6506" gradientUnits="userSpaceOnUse">
<stop stop-color="#ED3040"/>
<stop offset="1" stop-color="#2D23F4"/>
</linearGradient>
</defs>
</svg>
