<svg width="50" height="50" viewBox="0 0 50 50" fill="none" xmlns="http://www.w3.org/2000/svg">
<path d="M23.2912 34.8033H26.7088C27.2226 34.8033 27.6397 34.3793 27.6397 33.8571C27.6397 33.3348 27.2226 32.9108 26.7088 32.9108H23.2912C22.7774 32.9108 22.3603 33.3348 22.3603 33.8571C22.3603 34.3797 22.7774 34.8033 23.2912 34.8033Z" fill="url(#paint0_linear_4908_12183)"/>
<path d="M7.42974 6C6.09004 6 5 7.10806 5 8.46992V35.4179C5 36.7797 6.09004 37.8878 7.42974 37.8878H21.0282L19.2393 43.1074H16.5061C15.9923 43.1074 15.5752 43.5314 15.5752 44.0537C15.5752 44.576 15.9923 45 16.5061 45H33.4935C34.0073 45 34.4244 44.576 34.4244 44.0537C34.4244 43.5314 34.0073 43.1074 33.4935 43.1074H30.7604L28.9715 37.8878H42.5699C43.9096 37.8878 44.9996 36.7797 44.9996 35.4179L45 8.46992C45 7.10768 43.9103 6 42.5706 6H7.42974ZM21.2101 43.1074L22.999 37.8878H27.0001L28.7893 43.1074H21.2101ZM43.1383 35.4183C43.1383 35.7366 42.8832 35.9959 42.5701 35.9959L7.43045 35.9956C7.12232 35.9956 6.86218 35.7311 6.86218 35.4179V31.9324H43.1388L43.1383 35.4183ZM43.1383 30.0406H6.86168V8.47001C6.86168 8.15679 7.12182 7.89234 7.42996 7.89234H42.5705C42.8786 7.89234 43.1388 8.15679 43.1388 8.47001L43.1383 30.0406Z" fill="url(#paint1_linear_4908_12183)"/>
<path d="M33.3852 20.6176L31.7597 19.6637C31.7835 19.4271 31.795 19.1898 31.795 18.9528C31.795 18.713 31.7828 18.4742 31.7593 18.2391L33.3848 17.2851C33.8301 17.024 33.9823 16.4455 33.7254 15.9925L31.8838 12.7499C31.76 12.5327 31.5573 12.3743 31.3184 12.309C31.0806 12.2437 30.8255 12.2778 30.6119 12.4036L28.9883 13.3565C28.608 13.0737 28.2014 12.8346 27.772 12.6413V10.7366C27.772 10.2143 27.3549 9.79031 26.8411 9.79031H23.1579C22.6441 9.79031 22.227 10.2143 22.227 10.7366V12.6413C21.7977 12.8349 21.3907 13.0741 21.0107 13.3568L19.3867 12.4036C19.1727 12.2778 18.9177 12.2433 18.6802 12.309C18.4414 12.3739 18.2386 12.5324 18.1152 12.7499L16.2736 15.9925C16.1498 16.2097 16.1166 16.4679 16.1805 16.7107C16.2443 16.9535 16.4006 17.1596 16.6142 17.2851L18.24 18.239C18.2159 18.4745 18.2036 18.7129 18.2036 18.9535C18.2036 19.1905 18.2151 19.4285 18.2393 19.6651L16.6142 20.6187C16.4006 20.7441 16.2447 20.9506 16.1805 21.193C16.1163 21.4351 16.1502 21.6937 16.2736 21.9112L18.1152 25.1539C18.3718 25.6065 18.9418 25.7616 19.3868 25.5001L21.0104 24.5473C21.3911 24.8293 21.7977 25.0685 22.2275 25.2628V27.1675C22.2275 27.6898 22.6446 28.1138 23.1583 28.1138H26.8415C27.3553 28.1138 27.7724 27.6898 27.7724 27.1675V25.2636C28.2025 25.0688 28.6091 24.8297 28.9894 24.5473L30.6127 25.5001C30.8267 25.6259 31.0818 25.6589 31.3192 25.5948C31.558 25.5298 31.7608 25.3714 31.8846 25.1539L33.7262 21.9112C33.9828 21.4579 33.8301 20.8788 33.3852 20.6176ZM29.8311 17.9391C29.899 18.264 29.9336 18.6052 29.9336 18.9532C29.9336 19.2947 29.9001 19.6377 29.8337 19.9718C29.8322 19.9784 29.8308 19.985 29.8293 19.9916C29.7875 20.2278 29.8329 20.478 29.9711 20.6881C30.0599 20.8242 30.1797 20.9302 30.3154 21.0017L31.6479 21.7837L30.7372 23.388L29.3675 22.5844C29.045 22.3951 28.6405 22.4208 28.3418 22.6482C28.3205 22.6647 28.2996 22.6823 28.2794 22.7003C27.7912 23.1445 27.2308 23.479 26.6139 23.695C26.2098 23.7981 25.9106 24.17 25.9106 24.6127V26.221H24.0889V24.6127C24.0889 24.17 23.7898 23.7984 23.3856 23.695C22.7687 23.479 22.2083 23.1445 21.7202 22.6995C21.7003 22.6812 21.6772 22.6625 21.6559 22.646C21.3572 22.4189 20.9545 22.394 20.6323 22.5836L19.2623 23.3872L18.3512 21.783L19.7213 20.9786C20.0969 20.7582 20.2643 20.3114 20.1528 19.9058C20.0947 19.5918 20.0655 19.2709 20.0655 18.9518C20.0655 18.6037 20.0997 18.2626 20.1679 17.9384C20.2268 17.6592 20.1571 17.368 19.9803 17.1461C19.9028 17.0486 19.8079 16.9693 19.7021 16.9107L18.3513 16.1177L19.2623 14.5134L20.6045 15.3009C20.9513 15.5228 21.4095 15.489 21.7234 15.2018C22.2263 14.7404 22.8058 14.3997 23.4456 14.1884C23.8295 14.0622 24.0893 13.6988 24.0893 13.2887V11.6804H25.911V13.2887C25.911 13.6988 26.1712 14.0622 26.5551 14.1884C27.1945 14.3993 27.7739 14.74 28.2769 15.2018C28.5883 15.4875 29.0411 15.5191 29.385 15.3067L30.7373 14.513L31.6484 16.1173L30.317 16.8989C30.203 16.958 30.1012 17.042 30.0182 17.1454C29.8414 17.3688 29.7725 17.66 29.8313 17.9391L29.8311 17.9391Z" fill="url(#paint2_linear_4908_12183)"/>
<path d="M24.9991 15.5792C23.1694 15.5792 21.681 17.0925 21.681 18.9521C21.681 20.8117 23.1694 22.325 24.9991 22.325C26.8288 22.325 28.3171 20.8121 28.3171 18.9521C28.3171 17.0919 26.8292 15.5792 24.9991 15.5792ZM24.9991 20.4327C24.1959 20.4327 23.5424 19.7685 23.5424 18.952C23.5424 18.1356 24.1959 17.4713 24.9991 17.4713C25.8022 17.4713 26.4557 18.1355 26.4557 18.952C26.4557 19.7685 25.8023 20.4327 24.9991 20.4327Z" fill="url(#paint3_linear_4908_12183)"/>
<defs>
<linearGradient id="paint0_linear_4908_12183" x1="0" y1="0" x2="0" y2="1" gradientUnits="objectBoundingBox">
<stop stop-color="#ED3040"/>
<stop offset="1" stop-color="#2D23F4"/>
</linearGradient>
<linearGradient id="paint1_linear_4908_12183" x1="0" y1="0" x2="0" y2="1" gradientUnits="objectBoundingBox">
<stop stop-color="#ED3040"/>
<stop offset="1" stop-color="#2D23F4"/>
</linearGradient>
<linearGradient id="paint2_linear_4908_12183" x1="0" y1="0" x2="0" y2="1" gradientUnits="objectBoundingBox">
<stop stop-color="#ED3040"/>
<stop offset="1" stop-color="#2D23F4"/>
</linearGradient>
<linearGradient id="paint3_linear_4908_12183" x1="0" y1="0" x2="0" y2="1" gradientUnits="objectBoundingBox">
<stop stop-color="#ED3040"/>
<stop offset="1" stop-color="#2D23F4"/>
</linearGradient>
</defs>
</svg>
