<svg width="50" height="50" viewBox="0 0 50 50" fill="none" xmlns="http://www.w3.org/2000/svg">
<path d="M20.1534 5.00001C19.8756 5.00065 19.6506 5.22517 19.6496 5.50274V20.0245C19.649 20.1585 19.7017 20.2871 19.7961 20.3824C19.8905 20.4774 20.019 20.531 20.1534 20.5314H29.8432H29.8428C29.9776 20.532 30.107 20.479 30.2023 20.3837C30.2977 20.2884 30.3508 20.1592 30.3502 20.0245V5.50273C30.3498 5.36903 30.2961 5.24073 30.2008 5.14641C30.1057 5.05209 29.977 4.99937 29.8429 5.00001L20.1534 5.00001ZM20.661 6.00992H29.3393V19.5219H20.661V6.00992ZM23.3234 6.81371C23.044 6.82768 22.8289 7.06491 22.8425 7.34374C22.8562 7.62258 23.0936 7.83757 23.373 7.82391H26.6158H26.6155C26.7497 7.82931 26.8806 7.78104 26.9792 7.6899C27.0777 7.59875 27.1359 7.47204 27.141 7.33802C27.146 7.20401 27.0977 7.07317 27.0062 6.97504C26.9146 6.87659 26.7878 6.81879 26.6537 6.81371C26.641 6.81339 26.6283 6.81339 26.6155 6.81371H23.3727H23.373C23.3565 6.81307 23.34 6.81307 23.3234 6.81371ZM21.7173 8.62831C21.5816 8.63276 21.4532 8.69183 21.3613 8.79186C21.2695 8.8919 21.2218 9.02465 21.2291 9.16025C21.2361 9.29585 21.2974 9.42289 21.3995 9.51275C21.5012 9.60263 21.635 9.64773 21.7704 9.6382H28.2178C28.4934 9.63312 28.714 9.40859 28.714 9.13325C28.714 8.85792 28.4934 8.63339 28.2178 8.62831H21.7704C21.7529 8.62736 21.7351 8.62736 21.7173 8.62831ZM21.7707 10.4464H21.7704C21.5091 10.469 21.3089 10.6875 21.3089 10.9495C21.3089 11.2115 21.5091 11.43 21.7704 11.4525H28.2178C28.4791 11.43 28.6797 11.2115 28.6797 10.9495C28.6797 10.6875 28.4791 10.469 28.2178 10.4464H21.7707ZM21.7707 12.2604H21.7704C21.4913 12.2604 21.265 12.4865 21.265 12.7656C21.265 13.0445 21.4913 13.2706 21.7704 13.2706H28.2178C28.4972 13.2706 28.7235 13.0445 28.7235 12.7656C28.7235 12.4865 28.4972 12.2604 28.2178 12.2604H21.7707ZM21.7173 14.075C21.5816 14.0797 21.4535 14.1388 21.362 14.2388C21.2701 14.3389 21.2224 14.4713 21.2297 14.6069C21.2367 14.7422 21.2981 14.8692 21.3998 14.9591C21.5015 15.049 21.635 15.0941 21.7704 15.0849H24.9979C25.1333 15.0925 25.2662 15.0458 25.367 14.955C25.4674 14.8642 25.5275 14.7365 25.5329 14.6012C25.5386 14.4659 25.4897 14.3338 25.3968 14.2347C25.3044 14.1359 25.1756 14.0781 25.0402 14.075C25.0262 14.0743 25.0119 14.0743 24.9979 14.075H21.7704C21.7529 14.074 21.7351 14.074 21.7173 14.075ZM26.5049 15.8886C26.3705 15.895 26.2443 15.9544 26.154 16.0538C26.0637 16.1535 26.0164 16.2846 26.023 16.4187C26.0297 16.553 26.0895 16.6788 26.1893 16.7689C26.2891 16.8591 26.4204 16.9058 26.5548 16.8988H28.2181H28.2178C28.4972 16.9103 28.7327 16.6937 28.7445 16.4145C28.756 16.1357 28.5389 15.9001 28.2598 15.8886C28.2458 15.888 28.2318 15.888 28.2178 15.8886H26.5545H26.5548C26.538 15.888 26.5214 15.888 26.5049 15.8886ZM28.5307 17.7067C28.4773 17.7077 28.4267 17.7299 28.3895 17.768L27.9277 18.2291V17.909C27.9264 17.8284 27.8775 17.7563 27.8028 17.7255C27.7281 17.695 27.6422 17.7118 27.5847 17.768L27.1194 18.2292V17.909H27.119C27.1178 17.8284 27.0688 17.7563 26.9941 17.7255C26.9194 17.695 26.8336 17.7118 26.7761 17.768L25.9671 18.5721C25.9198 18.6071 25.8902 18.6607 25.8857 18.7192C25.8813 18.7779 25.9029 18.8354 25.9442 18.877C25.9859 18.9183 26.0434 18.9399 26.1022 18.9354C26.1607 18.931 26.2144 18.9015 26.2494 18.8541L26.7144 18.393V18.7128L26.7147 18.7131C26.7157 18.7938 26.7649 18.8662 26.8396 18.897C26.9143 18.9278 27.0005 18.911 27.058 18.8541L27.5234 18.393V18.7131C27.5246 18.7938 27.5736 18.8662 27.6486 18.897C27.7233 18.9278 27.8094 18.911 27.867 18.8541L28.6718 18.0497V18.05C28.7284 17.9922 28.7452 17.9065 28.7144 17.8319C28.6839 17.7572 28.6114 17.708 28.5307 17.7067ZM15.2898 20.5309C15.0839 20.53 14.8982 20.6538 14.8201 20.8441C14.7422 21.0343 14.7873 21.2528 14.9348 21.3963L16.2895 22.7496L10.7273 28.3141L9.36531 26.9647C9.27218 26.8628 9.14122 26.8034 9.00295 26.8008C8.79762 26.8028 8.61357 26.9288 8.53825 27.12C8.46292 27.3109 8.51091 27.5284 8.65967 27.6701L10.01 29.0191L9.80017 29.244C9.60341 29.4409 9.60341 29.7601 9.80017 29.9566L12.6536 32.8037C12.8503 32.9978 13.1666 32.9978 13.363 32.8037L14.1488 32.0149L16.1287 34.0004L16.5216 35.4336H16.5219C16.5454 35.5175 16.5899 35.5934 16.6516 35.6547L17.9942 37.0079C17.4103 37.6824 17.4294 38.7117 18.0667 39.3558C18.4103 39.6914 18.841 39.8629 19.2876 39.8629C19.2876 40.2939 19.4481 40.7394 19.78 41.0713C20.1156 41.4025 20.5584 41.5667 20.9932 41.5667C20.9932 42.0088 21.1645 42.4432 21.4964 42.7751C21.8323 43.1104 22.2634 43.2819 22.7096 43.2819C22.7096 43.7126 22.8698 44.1587 23.2017 44.4903C23.8498 45.1343 24.8879 45.1572 25.5668 44.5627C26.2305 45.1648 27.2795 45.1458 27.9279 44.5017C28.0996 44.3188 28.2292 44.1089 28.3097 43.8843L28.3513 43.9259C29.0153 44.5932 30.1062 44.5932 30.7737 43.9259C31.0557 43.6516 31.1857 43.301 31.2353 42.9389C31.7734 43.0376 32.357 42.897 32.773 42.5044C33.4367 41.8372 33.4367 40.7473 32.773 40.0724L32.7311 40.0346C32.9523 39.9505 33.1659 39.8323 33.3455 39.6494C33.9326 39.066 34.0016 38.1285 33.5397 37.4616L34.589 33.2769L35.8516 32.0151L36.6259 32.804V32.8037C36.7206 32.8993 36.85 32.9532 36.9844 32.9532C37.1192 32.9532 37.2482 32.8993 37.3433 32.8037L40.2008 29.9565H40.2005C40.3972 29.76 40.3972 29.4408 40.2005 29.2439L39.9869 29.0191L41.341 27.67C41.4923 27.5261 41.539 27.3038 41.4589 27.111C41.3785 26.9183 41.1875 26.7947 40.9786 26.8008C40.8432 26.8055 40.7155 26.8646 40.6239 26.9646L39.2733 28.314L33.6997 22.7495L35.0617 21.3962H35.062C35.2104 21.2518 35.2552 21.0314 35.1751 20.8405C35.0953 20.6493 34.9065 20.5267 34.6993 20.5309C34.5661 20.5318 34.4383 20.5852 34.3442 20.6798L32.9943 22.0403L32.773 21.8192C32.5763 21.6249 32.2597 21.6249 32.0633 21.8192L29.2099 24.6742H29.2096C29.1139 24.7689 29.0602 24.8978 29.0602 25.0325C29.0602 25.1671 29.1139 25.296 29.2096 25.3907L29.4921 25.6724H22.717H22.7173C22.7046 25.672 22.6919 25.672 22.6791 25.6724H20.5085L20.7907 25.3907C20.8864 25.296 20.9401 25.1671 20.9401 25.0325C20.9401 24.8978 20.8864 24.7689 20.7907 24.6742L17.9335 21.8192C17.8388 21.7236 17.7094 21.6697 17.5747 21.6697C17.4399 21.6697 17.3108 21.7236 17.2161 21.8192L17.0063 22.0403L15.6447 20.6798C15.5506 20.5852 15.4231 20.5318 15.2899 20.5309L15.2898 20.5309ZM17.5711 22.8902L19.7224 25.0362L13.0086 31.7329L10.8684 29.595L11.0897 29.3736L17.5711 22.8902ZM32.4182 22.8902L32.5898 23.0617H32.5895C32.6162 23.0948 32.6471 23.1243 32.6814 23.1497L38.8688 29.3317V29.332C38.8968 29.3707 38.9302 29.4053 38.968 29.4346L39.132 29.5949L36.9918 31.7329L30.278 25.0361L32.4182 22.8902ZM10.1432 24.5216C9.93783 24.5235 9.75411 24.6499 9.67878 24.8408C9.60313 25.0316 9.65113 25.2492 9.79988 25.3908L10.9404 26.5303H10.9407C11.0358 26.6259 11.1648 26.6792 11.2992 26.6796C11.434 26.6796 11.5631 26.6262 11.6584 26.5309C11.7535 26.436 11.8069 26.3067 11.8069 26.1724C11.8069 26.0377 11.7532 25.9088 11.6578 25.8138L10.5059 24.6743C10.4105 24.5765 10.2798 24.5213 10.1432 24.5216ZM39.8377 24.5216C39.7035 24.5235 39.5758 24.5784 39.4826 24.6744L38.3424 25.8139H38.3421C38.2442 25.9082 38.188 26.0381 38.1867 26.174C38.1854 26.3102 38.2388 26.4411 38.3351 26.5373C38.4314 26.6335 38.5624 26.6869 38.6984 26.6856C38.8348 26.6843 38.9648 26.6284 39.0592 26.5303L40.2 25.3908C40.3513 25.247 40.3984 25.0243 40.318 24.8316C40.2375 24.6388 40.0465 24.5156 39.8377 24.5216ZM7.50704 25.2993C7.30043 25.2984 7.11417 25.4232 7.03661 25.6147C6.95937 25.8062 7.00673 26.0256 7.15613 26.1682L7.48797 26.4998C7.58047 26.6059 7.7127 26.6684 7.85351 26.6729C7.99401 26.677 8.13005 26.6224 8.22859 26.5223C8.32713 26.4223 8.37957 26.2854 8.37289 26.1451C8.36622 26.0047 8.30137 25.8735 8.19394 25.783L7.8621 25.4594H7.86178C7.76992 25.3606 7.64213 25.3032 7.50704 25.2993ZM42.4815 25.2993C42.3476 25.3009 42.2199 25.3559 42.1264 25.4515L41.7949 25.7827V25.783C41.5965 25.9809 41.5965 26.3016 41.7946 26.4995C41.9926 26.6976 42.3136 26.6976 42.5116 26.4998L42.8435 26.1682H42.8438C42.9948 26.0241 43.0415 25.8021 42.9611 25.6093C42.881 25.4168 42.6903 25.2936 42.4815 25.2993ZM19.5086 26.6716H21.4962L20.0731 28.0934C19.268 28.9016 19.2149 30.2125 20.0048 31.009C20.802 31.8058 22.1218 31.7522 22.9307 30.9366L24.342 29.6447L26.3524 31.6648L32.6203 37.9154L32.6199 37.9148C32.6327 37.9154 32.6454 37.9154 32.6581 37.9148C32.9403 38.1971 32.9403 38.6315 32.6581 38.9135C32.3835 39.1841 31.9413 39.1841 31.6698 38.9135L31.0939 38.3378L27.0958 34.3436H27.0961C27.0841 34.3303 27.0714 34.3175 27.058 34.3055C27.0424 34.2918 27.0256 34.2791 27.0084 34.2674C26.9795 34.2477 26.949 34.2312 26.9169 34.2178C26.8721 34.1972 26.8247 34.1829 26.7761 34.1759C26.689 34.1702 26.6022 34.1873 26.524 34.2255C26.5091 34.2375 26.4951 34.2502 26.4817 34.2639C26.3937 34.3153 26.3231 34.3925 26.2796 34.4849C26.2592 34.5332 26.2462 34.5846 26.2414 34.637C26.2351 34.6837 26.2351 34.7314 26.2414 34.778C26.2408 34.7946 26.2408 34.8111 26.2414 34.8276C26.2405 34.8457 26.2405 34.8635 26.2414 34.8813C26.2532 34.8984 26.2659 34.9149 26.2796 34.9305C26.2974 34.9591 26.318 34.9861 26.3412 35.0105C26.353 35.0251 26.3657 35.0391 26.3794 35.0524L30.3771 39.0431L30.9419 39.6189L32.0821 40.7581C32.3647 41.0324 32.3647 41.4748 32.0821 41.7568C31.8002 42.0274 31.3653 42.0274 31.0828 41.7568L30.8005 41.4634L29.084 39.7593L25.5209 36.1919V36.1922C25.3206 36.0147 25.0167 36.0233 24.827 36.2119C24.6369 36.4002 24.6267 36.7038 24.8035 36.9049L28.3778 40.4649L30.0834 42.1798C30.3654 42.4618 30.3654 42.8963 30.0834 43.1786C29.8123 43.4603 29.366 43.4603 29.0838 43.1786L27.9429 42.0388L26.238 40.3238L23.9491 38.0446C23.751 37.8471 23.4303 37.8474 23.2326 38.0449C23.0346 38.2428 23.0343 38.5629 23.2316 38.7611L25.5209 41.0403L27.2377 42.7556C27.5123 43.0261 27.5123 43.4717 27.2377 43.7429C26.9554 44.0246 26.5126 44.0246 26.238 43.7429L25.9557 43.4606L21.0919 38.6128L19.131 36.6536V36.6533C19.1059 36.6193 19.0763 36.5885 19.0433 36.5622L17.4794 34.9993L17.0942 33.5776C17.0725 33.4896 17.0277 33.4092 16.9645 33.3448L14.893 31.2678L19.5086 26.6716ZM22.9192 26.6716H30.4995L35.1341 31.2987L33.78 32.6519V32.6513C33.7111 32.7167 33.6621 32.7999 33.6386 32.8914L32.7114 36.5922L27.0694 30.9475L24.708 28.5885C24.5128 28.4018 24.2051 28.4018 24.0099 28.5885L22.2248 30.2313C21.7785 30.6734 21.1225 30.6845 20.7407 30.292C20.3479 29.9071 20.3555 29.2516 20.8018 28.7981L22.9192 26.6716ZM13.2831 28.497C13.0743 28.4996 12.8747 28.5831 12.7259 28.7295C12.4116 29.0445 12.4116 29.5543 12.7259 29.869C13.0412 30.1834 13.5514 30.1834 13.8668 29.869C14.1811 29.5543 14.1811 29.0445 13.8668 28.7295C13.7116 28.5764 13.5009 28.4926 13.2831 28.497ZM36.7174 28.497C36.4993 28.4926 36.2886 28.5764 36.1335 28.7295C35.9803 28.881 35.8938 29.0874 35.8938 29.3031C35.8938 29.5187 35.9803 29.7251 36.1335 29.8766C36.4488 30.1907 36.959 30.1907 37.2743 29.8766C37.4275 29.7251 37.5137 29.5187 37.5137 29.3031C37.5137 29.0874 37.4275 28.881 37.2743 28.7295C37.1256 28.5831 36.9259 28.4996 36.7174 28.497ZM13.1494 29.0607C13.1786 29.0636 13.2053 29.0792 13.2222 29.1033C13.2603 29.1424 13.2603 29.2049 13.2222 29.244C13.1827 29.2824 13.1201 29.2824 13.0807 29.244C13.0426 29.2049 13.0426 29.1424 13.0807 29.1033C13.0969 29.0801 13.1217 29.0649 13.1494 29.0607ZM36.8391 29.0607C36.8712 29.0614 36.9011 29.0773 36.9199 29.1033C36.958 29.1424 36.958 29.2049 36.9199 29.244C36.8805 29.2824 36.8178 29.2824 36.7784 29.244C36.7403 29.2049 36.7403 29.1424 36.7784 29.1033C36.7927 29.082 36.8143 29.0668 36.8391 29.0607ZM13.432 29.3434C13.461 29.3462 13.4874 29.3612 13.5042 29.385C13.543 29.4244 13.543 29.4869 13.5042 29.5263C13.4651 29.5644 13.4025 29.5644 13.3631 29.5263C13.3246 29.4869 13.3246 29.4244 13.3631 29.385C13.3793 29.3621 13.4041 29.3472 13.432 29.3434ZM36.5571 29.3434C36.5847 29.3472 36.6095 29.3621 36.6258 29.385C36.6642 29.4244 36.6642 29.4869 36.6258 29.5263C36.5867 29.5644 36.524 29.5644 36.4849 29.5263C36.4462 29.4869 36.4462 29.4244 36.4849 29.385C36.5018 29.3612 36.5282 29.3462 36.5571 29.3434ZM18.7114 37.7135L19.7108 38.7009C19.4288 38.9257 19.0436 38.8953 18.7918 38.6402C18.5287 38.3811 18.5096 37.9962 18.7117 37.7138L18.7114 37.7135ZM20.4282 39.4288L21.4276 40.4158C21.1453 40.6293 20.7604 40.6067 20.4966 40.3476C20.2452 40.0919 20.2261 39.6997 20.4282 39.4291L20.4282 39.4288ZM22.1447 41.1326L23.1329 42.12C22.8507 42.3445 22.4654 42.3219 22.2137 42.0587C21.9505 41.7995 21.9314 41.4146 22.145 41.1329L22.1447 41.1326ZM23.8497 42.8475L24.8493 43.8349C24.5674 44.0483 24.1704 44.0255 23.9186 43.7663C23.6668 43.5107 23.636 43.1188 23.8496 42.8479L23.8497 42.8475Z" fill="url(#paint0_linear_4896_12130)"/>
<defs>
<linearGradient id="paint0_linear_4896_12130" x1="36.3962" y1="33.6397" x2="36.3962" y2="41.6506" gradientUnits="userSpaceOnUse">
<stop stop-color="#ED3040"/>
<stop offset="1" stop-color="#2D23F4"/>
</linearGradient>
</defs>
</svg>
