<svg width="50" height="50" viewBox="0 0 50 50" fill="none" xmlns="http://www.w3.org/2000/svg">
<path fill-rule="evenodd" clip-rule="evenodd" d="M9.00775 5C6.81477 5 5 6.80186 5 8.9948V40.9942C5 43.1871 6.81485 44.9992 9.00775 44.9992H11.6744C13.4925 45.0399 13.4925 42.2919 11.6744 42.3326H9.00775C8.24589 42.333 7.66664 41.756 7.66664 40.9942V18.328H42.3436V40.9942C42.3436 41.756 41.7667 42.3326 41.0051 42.3326L22.3434 42.333C20.5252 42.2923 20.5252 45.0403 22.3434 44.9995L41.0051 44.9992C43.1981 44.9992 45 43.1871 45 40.9942V8.9948C45 6.80186 43.1981 5 41.0051 5H9.00775ZM9.00775 7.656L41.0044 7.65633C41.7662 7.65633 42.3428 8.23325 42.3428 8.99479L42.3432 15.6612H7.66621V8.99479C7.66621 8.23295 8.24579 7.65633 9.00732 7.65633L9.00775 7.656ZM27.6661 10.3226C25.8866 10.3226 25.8866 12.9919 27.6661 12.9919H38.335C40.1145 12.9919 40.1145 10.3226 38.335 10.3226H27.6661ZM11.6712 10.3279C10.9348 10.3279 10.3377 10.925 10.3377 11.6613C10.3377 12.3977 10.9348 12.9945 11.6712 12.9945C12.4076 12.9945 13.0043 12.3977 13.0043 11.6613C13.0043 10.925 12.4075 10.3279 11.6712 10.3279ZM17.0045 10.3279C16.2681 10.3279 15.671 10.925 15.671 11.6613C15.671 12.3977 16.2682 12.9945 17.0045 12.9945C17.7409 12.9945 18.3377 12.3977 18.3377 11.6613C18.3377 10.925 17.7409 10.3279 17.0045 10.3279ZM22.3379 10.3279C21.6015 10.3279 21.0047 10.925 21.0047 11.661C21.0047 12.3974 21.6019 12.9941 22.3379 12.9941C23.0743 12.9941 23.671 12.397 23.671 11.661C23.671 10.9246 23.0739 10.3279 22.3379 10.3279ZM27.614 23.6405C27.1241 23.6646 26.6871 23.9557 26.476 24.3984L21.1426 35.0671C20.3771 36.6506 22.7282 37.8237 23.5333 36.2596L28.8693 25.5909C29.3222 24.7258 28.7224 23.6835 27.7469 23.6405C27.7026 23.6382 27.6582 23.6382 27.6142 23.6405L27.614 23.6405ZM33.0019 23.6458C32.9592 23.6455 32.9169 23.6471 32.8742 23.6511C31.7452 23.7632 31.2632 25.1447 32.0773 25.935L36.4651 30.3227L32.0773 34.7132C30.7653 35.9663 32.6972 37.9087 33.9576 36.6037L39.291 31.2678C39.808 30.7478 39.808 29.9078 39.291 29.3875L33.9576 24.0543C33.7075 23.7943 33.3628 23.6467 33.0019 23.6454V23.6458ZM16.9782 23.6511C16.6318 23.6613 16.303 23.8062 16.0615 24.0547L10.7282 29.3879C10.2111 29.9079 10.2111 30.7479 10.7282 31.2682L16.0615 36.6041C17.3219 37.9087 19.2535 35.9663 17.9419 34.7132L13.5537 30.3255L17.9419 25.9347C18.8026 25.0882 18.1853 23.625 16.9782 23.6508V23.6511ZM17.0043 42.3277C16.2679 42.3277 15.6712 42.9248 15.6712 43.6608C15.6712 44.3972 16.2683 44.9939 17.0043 44.9939C17.7407 44.9939 18.3375 44.3968 18.3375 43.6608C18.3375 42.9244 17.7404 42.3277 17.0043 42.3277Z" fill="url(#paint0_linear_4908_12219)"/>
<defs>
<linearGradient id="paint0_linear_4908_12219" x1="37.6624" y1="33.6397" x2="37.6624" y2="41.6506" gradientUnits="userSpaceOnUse">
<stop stop-color="#ED3040"/>
<stop offset="1" stop-color="#2D23F4"/>
</linearGradient>
</defs>
</svg>
