<svg width="50" height="50" viewBox="0 0 50 50" fill="none" xmlns="http://www.w3.org/2000/svg">
<path d="M21.5901 41.5C17.6891 41.4993 13.913 40.1319 10.9254 37.6381C7.93771 35.1442 5.92847 31.6835 5.25181 27.863C4.57483 24.0429 5.27303 20.1077 7.22389 16.7489C9.17442 13.3899 12.2533 10.8215 15.9188 9.49491C19.5847 8.16831 23.6034 8.16831 27.2687 9.49525C30.9346 10.8219 34.0132 13.3902 35.9637 16.7495C36.1546 17.0773 36.042 17.4965 35.7124 17.6864C35.3829 17.8763 34.9609 17.7644 34.7702 17.4367C33.2096 14.7471 30.8545 12.6 28.0244 11.2867C25.1943 9.97379 22.0268 9.55822 18.9517 10.0966C15.8759 10.6354 13.0413 12.1018 10.8327 14.2969C8.62417 16.4923 7.14835 19.3101 6.60556 22.3683C6.06275 25.4264 6.47927 28.5764 7.79864 31.3906C9.11807 34.2051 11.2766 36.5478 13.9808 38.1004C16.6853 39.6533 19.8046 40.3414 22.916 40.0708C26.0271 39.8003 28.979 38.5846 31.3714 36.5887C31.6633 36.3467 32.097 36.3848 32.3413 36.6741C32.586 36.9633 32.549 37.3945 32.2592 37.6389C29.2696 40.132 25.4925 41.4988 21.5909 41.4997L21.5901 41.5Z" fill="url(#paint0_linear_5946_22854)"/>
<path d="M18.4166 36.135C18.3441 36.135 18.2715 36.1313 18.1993 36.1241C17.5476 36.0615 16.959 35.7103 16.5968 35.1678L15.5016 33.5343C15.4431 33.4468 15.3678 33.3716 15.2802 33.3131L12.7845 31.6595C12.1767 31.2572 11.8118 30.579 11.8125 29.8528V26.8722C11.8118 26.6204 11.6927 26.3835 11.4904 26.2321L7.91803 23.5677C7.56243 23.3029 7.29649 22.9361 7.15617 22.5169L6.16812 19.5687L7.47624 19.1347L8.46429 22.0829C8.51632 22.2378 8.61454 22.3729 8.74597 22.4706L12.3178 25.1349C12.8667 25.546 13.1905 26.1889 13.1922 26.8722V29.8528C13.1919 30.1202 13.3264 30.37 13.5506 30.5184L16.0442 32.1714H16.0439C16.2841 32.33 16.4902 32.5345 16.6497 32.7734L17.7449 34.4069C17.878 34.6067 18.0947 34.7364 18.3349 34.7595C18.5752 34.7867 18.8148 34.7017 18.9835 34.5288L20.7642 32.7588C20.8827 32.6407 20.961 32.4893 20.9884 32.3249L21.9409 26.644C21.9765 26.4282 21.9224 26.2077 21.7906 26.0324L19.2151 22.6166C19.0625 22.4158 18.8243 22.2974 18.571 22.2967H15.3931C14.813 22.2984 14.2565 22.069 13.8478 21.6596L13.0706 20.8874C12.6623 20.4797 12.4326 19.9274 12.4326 19.3516C12.4326 18.7761 12.6623 18.2238 13.0706 17.816L13.6884 17.2025C14.2315 16.6647 15.0177 16.4483 15.7617 16.6317L17.6288 17.0946C17.869 17.1545 18.1237 17.101 18.3187 16.9496C18.5142 16.7978 18.6285 16.5654 18.6281 16.319C18.6288 15.7435 18.8592 15.1915 19.2685 14.7845C19.6778 14.3775 20.233 14.1484 20.812 14.1478H21.7888H21.7885C22.0472 14.1481 22.2902 14.0246 22.4418 13.8159C22.5931 13.6073 22.6342 13.3388 22.5524 13.0948L22.4124 12.6776C22.3032 12.3509 21.9955 12.13 21.6491 12.1303H20.2415C19.8356 12.1317 19.4375 12.0201 19.0922 11.8081C18.7472 11.5957 18.4686 11.2918 18.2883 10.9304L17.5647 9.49254L18.7986 8.87894L19.5221 10.3168C19.6576 10.5884 19.9366 10.7599 20.2415 10.7589H21.6492C22.1074 10.7585 22.5544 10.9018 22.9261 11.1683C23.2978 11.4347 23.5757 11.8111 23.7205 12.2437L23.8604 12.6609C24.0826 13.3232 23.971 14.0511 23.5603 14.6178C23.1499 15.1841 22.4904 15.5197 21.7884 15.5197H20.8117H20.812C20.3681 15.5204 20.0084 15.8777 20.0077 16.3191C20.0077 16.9878 19.698 17.6191 19.1682 18.0309C18.638 18.4423 17.9469 18.588 17.2946 18.4256L15.4276 17.9628H15.4273C15.1535 17.8951 14.8639 17.9747 14.6637 18.1724L14.0459 18.786V18.7857C13.7328 19.0988 13.7328 19.6048 14.0459 19.9176L14.8239 20.6904C14.9745 20.8412 15.1795 20.9256 15.393 20.9249H18.5709C19.2582 20.9266 19.9051 21.2486 20.3181 21.7944L22.8938 25.2095C23.2508 25.6843 23.398 26.2832 23.3011 26.8682L22.3486 32.5499H22.349C22.2751 32.9964 22.0622 33.4085 21.7401 33.728L19.9587 35.4987H19.9583C19.55 35.9064 18.9953 36.1351 18.4165 36.1351L18.4166 36.135Z" fill="url(#paint1_linear_5946_22854)"/>
<path d="M27.6681 19.825C27.0904 19.8246 26.537 19.5952 26.1296 19.1879L25.5673 18.6287C25.1583 18.221 24.9286 17.6686 24.9286 17.0929C24.9286 16.5171 25.1583 15.9651 25.5673 15.5573L26.6112 14.5194V14.519C26.7772 14.3536 26.9692 14.2161 27.1796 14.112L27.7197 13.8435H27.7201C27.9261 13.7407 28.0784 13.5549 28.1373 13.3333C28.1965 13.1118 28.1571 12.8753 28.0291 12.6847L26.696 10.6955C26.4893 10.3804 26.5762 9.95874 26.8911 9.75008C27.206 9.54142 27.6307 9.62382 27.844 9.93453L29.177 11.923H29.1767C29.5244 12.4413 29.6316 13.0831 29.4707 13.6852C29.3102 14.2872 28.8971 14.7916 28.3368 15.0703L27.7954 15.3395C27.7181 15.3776 27.6475 15.428 27.5866 15.4889L26.5428 16.5268H26.5424C26.2286 16.8396 26.2286 17.346 26.5424 17.6587L27.1051 18.2182C27.3197 18.4333 27.639 18.5082 27.9282 18.4108L29.8729 17.7666H29.8725C30.0748 17.6992 30.2422 17.5549 30.338 17.3654L30.6176 16.8096C30.8548 16.3437 31.2518 15.9779 31.7367 15.7781C32.2221 15.578 32.7628 15.5576 33.2618 15.7199L35.4402 16.4424C35.8006 16.5629 35.9947 16.9508 35.8742 17.3092C35.7541 17.6679 35.3646 17.8619 35.0035 17.7431L32.8251 17.0213H32.8254C32.4459 16.8981 32.0324 17.0683 31.8514 17.4225L31.5718 17.979H31.5721C31.3113 18.4928 30.8575 18.8839 30.3088 19.0673L28.3642 19.7115H28.3645C28.14 19.7864 27.9049 19.8248 27.668 19.8248L27.6681 19.825Z" fill="url(#paint2_linear_5946_22854)"/>
<path d="M34.56 34.9772C33.1298 34.9734 31.7142 34.692 30.3925 34.1488C30.0454 33.9926 29.891 33.5866 30.0478 33.2412C30.2046 32.8958 30.6132 32.7423 30.9606 32.8982C33.393 33.913 36.1571 33.7745 38.4748 32.5218C41.5872 30.5608 43.3057 26.0694 43.5891 19.1642C41.989 19.6005 40.3469 19.8657 38.6901 19.9555C33.278 20.4605 28.1664 20.9374 28.7999 30.0939V30.0935C28.8255 30.4716 28.5387 30.7987 28.1588 30.8249C27.7817 30.8422 27.4576 30.5615 27.4233 30.1874C26.6984 19.6962 33.2766 19.0829 38.5621 18.5898H38.5617C40.4243 18.5384 42.2649 18.1783 44.0084 17.5249C44.2243 17.4204 44.4793 17.4351 44.6816 17.5637C44.8842 17.6923 45.0047 17.9163 44.9999 18.1552C44.8411 26.1479 42.8895 31.3742 39.2004 33.689C37.8091 34.5497 36.1988 34.9965 34.5605 34.9767L34.56 34.9772Z" fill="url(#paint3_linear_5946_22854)"/>
<path d="M26.3775 37.3173C26.1564 37.3169 25.9486 37.2114 25.8189 37.0331C25.6896 36.8548 25.6536 36.6254 25.7227 36.4165C27.2194 32.7407 29.9698 29.7057 33.4916 27.8444C33.8239 27.6641 34.2397 27.7835 34.4243 28.1119C34.6087 28.4407 34.4924 28.8555 34.1638 29.0417C30.9575 30.7556 28.44 33.5115 27.0316 36.8493C26.9375 37.1287 26.6742 37.3173 26.3775 37.3173Z" fill="url(#paint4_linear_5946_22854)"/>
<defs>
<linearGradient id="paint0_linear_5946_22854" x1="0" y1="0" x2="0" y2="1" gradientUnits="objectBoundingBox">
<stop stop-color="#ED3040"/>
<stop offset="1" stop-color="#2D23F4"/>
</linearGradient>
<linearGradient id="paint1_linear_5946_22854" x1="0" y1="0" x2="0" y2="1" gradientUnits="objectBoundingBox">
<stop stop-color="#ED3040"/>
<stop offset="1" stop-color="#2D23F4"/>
</linearGradient>
<linearGradient id="paint2_linear_5946_22854" x1="0" y1="0" x2="0" y2="1" gradientUnits="objectBoundingBox">
<stop stop-color="#ED3040"/>
<stop offset="1" stop-color="#2D23F4"/>
</linearGradient>
<linearGradient id="paint3_linear_5946_22854" x1="0" y1="0" x2="0" y2="1" gradientUnits="objectBoundingBox">
<stop stop-color="#ED3040"/>
<stop offset="1" stop-color="#2D23F4"/>
</linearGradient>
<linearGradient id="paint4_linear_5946_22854" x1="0" y1="0" x2="0" y2="1" gradientUnits="objectBoundingBox">
<stop stop-color="#ED3040"/>
<stop offset="1" stop-color="#2D23F4"/>
</linearGradient>
</defs>
</svg>
