<svg width="50" height="50" viewBox="0 0 50 50" fill="none" xmlns="http://www.w3.org/2000/svg">
<path d="M44.7105 37.5114C43.7018 36.8561 42.5243 36.5081 41.3218 36.5096C40.9376 36.5096 40.554 36.545 40.1763 36.6151C39.4035 35.7147 38.3929 35.0498 37.2602 34.6969C37.0149 33.2907 36.2052 32.0455 35.0194 31.2509C33.8336 30.4563 32.3747 30.1807 30.9808 30.4886C30.022 29.5492 28.8712 28.8288 27.6076 28.3763L28.9391 24.9142C29.0768 24.5563 29.1475 24.1764 29.1472 23.7931V9.15009C29.1472 7.66761 28.3561 6.2974 27.0723 5.55616C25.7885 4.81461 24.2067 4.81461 22.9229 5.55616C21.6391 6.29739 20.8481 7.66761 20.8481 9.15009V23.7931C20.8481 24.1764 20.9185 24.5566 21.0564 24.9142L22.2801 28.0963C20.1113 28.6254 18.2045 29.9155 16.9071 31.7323C15.9287 31.5221 14.9107 31.5965 13.9736 31.9467C13.0365 32.2971 12.2191 32.9087 11.6188 33.7088C11.5136 33.7045 11.4094 33.7023 11.3062 33.7023V33.7026C8.86577 33.7079 6.57166 34.8688 5.12172 36.8323C4.91706 37.1102 4.97659 37.5016 5.25444 37.7063C5.53259 37.9106 5.92362 37.8514 6.12829 37.5732C7.34231 35.9292 9.263 34.9569 11.3068 34.9525C11.4922 34.9525 11.6839 34.9609 11.8761 34.9779L11.8758 34.9776C12.1069 34.9981 12.3301 34.8886 12.4557 34.6935C12.9274 33.961 13.626 33.4027 14.445 33.105C15.264 32.8073 16.1579 32.7865 16.9899 33.0451C17.2582 33.1289 17.5497 33.0231 17.7016 32.7865C18.8505 30.9985 20.6586 29.7362 22.7332 29.2742L23.3658 30.9195V35.8392C23.3658 36.4223 23.6768 36.961 24.1816 37.2529C24.6867 37.5444 25.3088 37.5444 25.8137 37.2529C26.3188 36.961 26.6298 36.4223 26.6298 35.8392V30.9195L27.1591 29.5428C28.3666 29.9704 29.4547 30.6803 30.3329 31.6129C30.4951 31.7851 30.7404 31.8508 30.9667 31.7829C32.1122 31.4399 33.3513 31.6303 34.3412 32.3014C35.331 32.9726 35.9667 34.0534 36.0721 35.2446C36.0957 35.5135 36.2889 35.7368 36.5515 35.7986C37.7026 36.0715 38.7219 36.7386 39.4326 37.6842C39.5839 37.8861 39.8422 37.9767 40.0866 37.9143C41.4337 37.5713 42.8626 37.8052 44.0297 38.56C44.1687 38.6521 44.3389 38.685 44.502 38.6509C44.6654 38.6171 44.8084 38.5194 44.8992 38.3795C44.9901 38.2397 45.0211 38.0691 44.9857 37.9063C44.9504 37.7431 44.8512 37.6011 44.7104 37.5118L44.7105 37.5114ZM22.098 23.7926V9.14958C22.098 8.11338 22.6506 7.15634 23.5477 6.63805C24.4449 6.12011 25.5504 6.12011 26.4474 6.63805C27.3445 7.15629 27.8971 8.11338 27.8971 9.14958V23.7926C27.8971 24.0224 27.8549 24.2503 27.7721 24.4646L25.421 30.5781C25.3934 30.6498 25.3795 30.7257 25.3795 30.8027V32.1921H24.6151V30.803C24.6151 30.7264 24.6011 30.6501 24.5735 30.5784L22.2224 24.4649H22.2221C22.1399 24.2506 22.0977 24.0227 22.098 23.7926ZM24.9977 36.2212C24.7868 36.2209 24.616 36.05 24.6153 35.8391V33.4426H25.3797V35.8391C25.3794 36.05 25.2086 36.2209 24.9977 36.2212Z" fill="url(#paint0_linear_5946_22868)"/>
<path d="M9.1053 39.3748C8.60791 39.3748 8.13102 39.5724 7.77967 39.9241C7.42803 40.2758 7.23049 40.7525 7.23049 41.2499C7.23049 41.747 7.42803 42.2241 7.77967 42.5757C8.13101 42.9274 8.60796 43.125 9.1053 43.125C9.60238 43.125 10.0793 42.9274 10.4309 42.5757C10.7823 42.224 10.9798 41.747 10.9798 41.2499C10.9795 40.7527 10.7816 40.276 10.4303 39.9247C10.0787 39.573 9.60201 39.3754 9.1053 39.3748ZM9.1053 41.8748C8.85258 41.8748 8.62466 41.7225 8.52791 41.489C8.43117 41.2555 8.4845 40.9866 8.66342 40.8079C8.84203 40.629 9.11088 40.5756 9.34438 40.6724C9.57788 40.7692 9.73014 40.9971 9.73014 41.2499C9.72983 41.5948 9.45013 41.8745 9.1053 41.8748Z" fill="url(#paint1_linear_5946_22868)"/>
<path d="M16.8976 34.5769C16.4005 34.5769 15.9236 34.7745 15.572 35.1262C15.2203 35.4776 15.0228 35.9546 15.0228 36.452C15.0228 36.9492 15.2203 37.4262 15.572 37.7778C15.9236 38.1292 16.4006 38.3268 16.8976 38.3268C17.395 38.3268 17.8716 38.1292 18.2232 37.7778C18.5749 37.4261 18.7724 36.9491 18.7724 36.452C18.7718 35.9548 18.574 35.4781 18.2226 35.1268C17.8713 34.7751 17.3946 34.5775 16.8976 34.5769ZM16.8976 37.0769C16.6449 37.0769 16.417 36.9246 16.3202 36.6911C16.2235 36.4576 16.2771 36.1887 16.4557 36.01C16.6343 35.8311 16.9032 35.7777 17.1367 35.8745C17.3702 35.9713 17.5224 36.1989 17.5224 36.452C17.5221 36.7969 17.2427 37.0766 16.8976 37.0769Z" fill="url(#paint2_linear_5946_22868)"/>
<path d="M29.8713 33.721C29.3742 33.721 28.8973 33.9186 28.5457 34.2703C28.1943 34.622 27.9968 35.0987 27.9968 35.5961C27.9968 36.0933 28.1943 36.5703 28.5457 36.9219C28.8973 37.2733 29.3743 37.4709 29.8713 37.4709C30.3687 37.4709 30.8456 37.2733 31.1969 36.9219C31.5486 36.5702 31.7461 36.0932 31.7461 35.5961C31.7455 35.099 31.5479 34.6222 31.1963 34.2709C30.845 33.9192 30.3683 33.7216 29.8713 33.721ZM29.8713 36.221C29.6186 36.221 29.391 36.0688 29.2942 35.8352C29.1975 35.6017 29.2508 35.3328 29.4294 35.1542C29.6083 34.9752 29.8772 34.9219 30.1107 35.0186C30.3442 35.1154 30.4964 35.3433 30.4964 35.5961C30.4958 35.941 30.2164 36.2207 29.8713 36.221Z" fill="url(#paint3_linear_5946_22868)"/>
<path d="M40.3944 39.5765C39.8973 39.5765 39.4204 39.774 39.0688 40.1257C38.7174 40.4774 38.5199 40.9545 38.5199 41.4516C38.5199 41.9487 38.7174 42.4257 39.0688 42.7774C39.4204 43.1291 39.8974 43.3266 40.3944 43.3266C40.8918 43.3266 41.3684 43.1291 41.72 42.7774C42.0717 42.4257 42.2692 41.9487 42.2692 41.4516C42.2686 40.9544 42.071 40.4777 41.7194 40.1264C41.3681 39.775 40.8914 39.5771 40.3944 39.5765ZM40.3944 42.0765C40.1417 42.0765 39.9137 41.9242 39.817 41.6907C39.7206 41.4571 39.7739 41.1882 39.9525 41.0096C40.1314 40.831 40.4 40.7773 40.6338 40.8741C40.8673 40.9708 41.0195 41.1988 41.0195 41.4516C41.0189 41.7964 40.7395 42.0762 40.3944 42.0765Z" fill="url(#paint4_linear_5946_22868)"/>
<path d="M36.2347 38.9524C36.2347 39.2976 35.955 39.5773 35.6099 39.5773C35.2647 39.5773 34.985 39.2976 34.985 38.9524C34.985 38.6072 35.2647 38.3272 35.6099 38.3272C35.955 38.3272 36.2347 38.6072 36.2347 38.9524Z" fill="url(#paint5_linear_5946_22868)"/>
<path d="M20.731 33.2478C20.731 33.593 20.4513 33.8728 20.1062 33.8728C19.7611 33.8728 19.4814 33.593 19.4814 33.2478C19.4814 32.9026 19.7611 32.6226 20.1062 32.6226C20.4513 32.6226 20.731 32.9026 20.731 33.2478Z" fill="url(#paint6_linear_5946_22868)"/>
<path d="M31.1216 43.1255C31.1216 43.4706 30.8416 43.7504 30.4964 43.7504C30.1513 43.7504 29.8716 43.4706 29.8716 43.1255C29.8716 42.7803 30.1513 42.5002 30.4964 42.5002C30.8416 42.5002 31.1216 42.7803 31.1216 43.1255Z" fill="url(#paint7_linear_5946_22868)"/>
<path d="M15.3091 41.2501C15.3091 41.5953 15.0294 41.8751 14.6843 41.8751C14.3392 41.8751 14.0595 41.5953 14.0595 41.2501C14.0595 40.9049 14.3392 40.6252 14.6843 40.6252C15.0294 40.6252 15.3091 40.9049 15.3091 41.2501Z" fill="url(#paint8_linear_5946_22868)"/>
<path d="M26.6293 23.2503C26.6289 22.9277 26.5331 22.6123 26.3539 22.3441C26.1747 22.0758 25.9201 21.8668 25.6224 21.743V19.8465H26.1632C26.5083 19.8465 26.788 19.5667 26.788 19.2215C26.788 18.8764 26.5083 18.5966 26.1632 18.5966H25.6224V16.8251H26.1632C26.5083 16.8251 26.788 16.5454 26.788 16.2002C26.788 15.855 26.5083 15.5753 26.1632 15.5753H25.6224V13.8038H26.1632C26.5083 13.8038 26.788 13.524 26.788 13.1789C26.788 12.8337 26.5083 12.5536 26.1632 12.5536H25.6224V10.7824H26.1632C26.5083 10.7824 26.788 10.5023 26.788 10.1571C26.788 9.81194 26.5083 9.53219 26.1632 9.53219H25.6224V8.64645C25.6224 8.30126 25.3427 8.02152 24.9975 8.02152C24.6524 8.02152 24.3724 8.30126 24.3724 8.64645V9.53219H23.8316H23.8319C23.4868 9.53219 23.2068 9.81194 23.2068 10.1571C23.2068 10.5023 23.4868 10.7824 23.8319 10.7824H24.3724V12.5536H23.8316H23.8319C23.4868 12.5536 23.2068 12.8337 23.2068 13.1789C23.2068 13.524 23.4868 13.8038 23.8319 13.8038H24.3724V15.5753H23.8316H23.8319C23.4868 15.5753 23.2068 15.855 23.2068 16.2002C23.2068 16.5454 23.4868 16.8251 23.8319 16.8251H24.3724V18.5966H23.8316H23.8319C23.4868 18.5966 23.2068 18.8764 23.2068 19.2215C23.2068 19.5667 23.4868 19.8465 23.8319 19.8465H24.3724V21.743C24.0068 21.8947 23.7088 22.1741 23.534 22.5292C23.3591 22.8843 23.3191 23.2909 23.4217 23.6733C23.5243 24.0557 23.7625 24.3876 24.0915 24.6075C24.4208 24.8274 24.8187 24.9201 25.211 24.8683C25.6035 24.8165 25.9636 24.6239 26.2247 24.3262C26.4858 24.0285 26.6294 23.6461 26.6294 23.2503L26.6293 23.2503ZM24.6152 23.2503C24.6152 23.0955 24.7082 22.9563 24.8512 22.897C24.9938 22.8378 25.1582 22.8704 25.2677 22.9798C25.3768 23.089 25.4097 23.2534 25.3504 23.3964C25.2912 23.539 25.152 23.6324 24.9976 23.6324C24.7867 23.6321 24.6158 23.4612 24.6152 23.2503Z" fill="url(#paint9_linear_5946_22868)"/>
<path d="M23.6698 41.2501C23.1728 41.2501 22.6958 41.4477 22.3442 41.7994C21.9926 42.1508 21.7953 42.6278 21.7953 43.1252C21.7953 43.6224 21.9926 44.0994 22.3442 44.4507C22.6959 44.8024 23.1728 45 23.6698 45C24.1672 45 24.6439 44.8024 24.9955 44.4507C25.3471 44.0993 25.5446 43.6223 25.5446 43.1252C25.544 42.6281 25.3465 42.1514 24.9948 41.8C24.6435 41.4483 24.1669 41.2508 23.6698 41.2501ZM23.6698 43.7501C23.4171 43.7501 23.1892 43.5979 23.0924 43.3643C22.9957 43.1308 23.0493 42.8619 23.228 42.6833C23.4069 42.5043 23.6754 42.451 23.9089 42.5477C24.1424 42.6445 24.2947 42.8721 24.2947 43.1252C24.2944 43.4701 24.015 43.7498 23.6698 43.7501Z" fill="url(#paint10_linear_5946_22868)"/>
<defs>
<linearGradient id="paint0_linear_5946_22868" x1="37.6624" y1="33.6397" x2="37.6624" y2="41.6506" gradientUnits="userSpaceOnUse">
<stop stop-color="#ED3040"/>
<stop offset="1" stop-color="#2D23F4"/>
</linearGradient>
<linearGradient id="paint1_linear_5946_22868" x1="37.6624" y1="33.6397" x2="37.6624" y2="41.6506" gradientUnits="userSpaceOnUse">
<stop stop-color="#ED3040"/>
<stop offset="1" stop-color="#2D23F4"/>
</linearGradient>
<linearGradient id="paint2_linear_5946_22868" x1="37.6624" y1="33.6397" x2="37.6624" y2="41.6506" gradientUnits="userSpaceOnUse">
<stop stop-color="#ED3040"/>
<stop offset="1" stop-color="#2D23F4"/>
</linearGradient>
<linearGradient id="paint3_linear_5946_22868" x1="37.6624" y1="33.6397" x2="37.6624" y2="41.6506" gradientUnits="userSpaceOnUse">
<stop stop-color="#ED3040"/>
<stop offset="1" stop-color="#2D23F4"/>
</linearGradient>
<linearGradient id="paint4_linear_5946_22868" x1="37.6624" y1="33.6397" x2="37.6624" y2="41.6506" gradientUnits="userSpaceOnUse">
<stop stop-color="#ED3040"/>
<stop offset="1" stop-color="#2D23F4"/>
</linearGradient>
<linearGradient id="paint5_linear_5946_22868" x1="37.6624" y1="33.6397" x2="37.6624" y2="41.6506" gradientUnits="userSpaceOnUse">
<stop stop-color="#ED3040"/>
<stop offset="1" stop-color="#2D23F4"/>
</linearGradient>
<linearGradient id="paint6_linear_5946_22868" x1="37.6624" y1="33.6397" x2="37.6624" y2="41.6506" gradientUnits="userSpaceOnUse">
<stop stop-color="#ED3040"/>
<stop offset="1" stop-color="#2D23F4"/>
</linearGradient>
<linearGradient id="paint7_linear_5946_22868" x1="37.6624" y1="33.6397" x2="37.6624" y2="41.6506" gradientUnits="userSpaceOnUse">
<stop stop-color="#ED3040"/>
<stop offset="1" stop-color="#2D23F4"/>
</linearGradient>
<linearGradient id="paint8_linear_5946_22868" x1="37.6624" y1="33.6397" x2="37.6624" y2="41.6506" gradientUnits="userSpaceOnUse">
<stop stop-color="#ED3040"/>
<stop offset="1" stop-color="#2D23F4"/>
</linearGradient>
<linearGradient id="paint9_linear_5946_22868" x1="37.6624" y1="33.6397" x2="37.6624" y2="41.6506" gradientUnits="userSpaceOnUse">
<stop stop-color="#ED3040"/>
<stop offset="1" stop-color="#2D23F4"/>
</linearGradient>
<linearGradient id="paint10_linear_5946_22868" x1="37.6624" y1="33.6397" x2="37.6624" y2="41.6506" gradientUnits="userSpaceOnUse">
<stop stop-color="#ED3040"/>
<stop offset="1" stop-color="#2D23F4"/>
</linearGradient>
</defs>
</svg>
