<svg width="50" height="50" viewBox="0 0 50 50" fill="none" xmlns="http://www.w3.org/2000/svg">
<path d="M40.9828 13.9876C41.9053 13.9614 42.7811 13.5749 43.4202 12.9111C44.6632 11.673 44.8626 9.85483 43.8642 8.86044C42.8657 7.86605 41.0422 8.06082 39.7994 9.30291L39.7997 9.30324C39.3192 9.7305 38.9817 10.2947 38.8334 10.919C38.6851 11.5437 38.7329 12.1988 38.9705 12.7954L37.6222 14.1383V14.138C37.0242 13.5536 36.3857 13.0116 35.7118 12.5159L36.6914 11.0497C36.7209 11.0497 36.7495 11.0569 36.7783 11.0569V11.0573C37.3892 11.008 37.971 10.7765 38.4481 10.3929C38.9253 10.0096 39.2754 9.49171 39.4533 8.9074C40.031 7.32532 39.4619 5.66197 38.1827 5.19932C37.4987 4.97081 36.7468 5.07894 36.1558 5.49132C35.5339 5.91162 35.065 6.52075 34.8181 7.22781C34.5845 7.77809 34.5182 8.38424 34.6273 8.97159C34.7365 9.55895 35.0163 10.1013 35.4321 10.5315L34.6054 11.7677C34.4136 11.647 34.2255 11.5223 34.0284 11.4085C33.8216 11.2895 33.5668 11.2895 33.3597 11.4085C33.153 11.5276 33.0255 11.7475 33.0252 11.9856V41.6048C30.7647 42.8406 28.246 43.5344 25.6693 43.6315V41.6537C25.6693 41.2856 25.3699 40.987 25.0006 40.987C24.6312 40.987 24.3316 41.2856 24.3316 41.6537V43.6315C21.7552 43.5343 19.2365 42.8405 16.9756 41.6048V11.9839C16.9756 11.7458 16.8482 11.5259 16.6412 11.4068C16.4344 11.2878 16.1792 11.2878 15.9725 11.4068C15.7754 11.5209 15.5872 11.6453 15.3954 11.766L14.5675 10.5318C14.9826 10.1023 15.262 9.56055 15.3715 8.97396C15.4807 8.38764 15.4147 7.78181 15.182 7.23256C14.9351 6.5252 14.4662 5.91604 13.8444 5.49572C13.2544 5.08268 12.5027 4.97322 11.8188 5.20041C10.5422 5.66305 9.97306 7.32641 10.5482 8.9085C10.7257 9.4925 11.0755 10.0097 11.552 10.3933C12.0285 10.7766 12.6095 11.0084 13.2198 11.0583C13.2487 11.0583 13.2772 11.0517 13.3068 11.0511L14.2863 12.5173L14.2867 12.517C13.6127 13.013 12.9743 13.5551 12.3759 14.139L11.0303 12.7977C11.2679 12.2011 11.3157 11.5461 11.1674 10.9217C11.019 10.297 10.6819 9.73286 10.201 9.3056C8.95794 8.06612 7.13446 7.86608 6.13662 8.86114C5.13878 9.85621 5.33422 11.6734 6.58062 12.9118V12.9115C7.21975 13.5745 8.09446 13.9611 9.01669 13.9879C9.38803 13.9886 9.75438 13.9036 10.0869 13.7393L11.4571 15.1047V15.105C8.37591 18.5866 6.7642 23.1201 6.959 27.7579C7.15346 32.3959 9.13919 36.7799 12.5011 39.9927C15.8629 43.206 20.3408 45 24.9991 45C29.6572 45 34.1348 43.206 37.4972 39.9927C40.8591 36.7797 42.8448 32.396 43.0396 27.7579C43.2341 23.12 41.6223 18.5861 38.5412 15.105L39.9127 13.7392C40.2455 13.9036 40.6116 13.9886 40.9829 13.9879L40.9828 13.9876ZM36.0742 7.68522C36.2239 7.25069 36.5073 6.87437 36.8839 6.60948C37.0591 6.48878 37.2652 6.41966 37.4779 6.40974C37.5615 6.40941 37.6445 6.42396 37.7235 6.4524C38.2979 6.6604 38.5119 7.57606 38.1917 8.45176C37.8715 9.32746 37.1142 9.89322 36.5425 9.68327C35.9707 9.47328 35.754 8.5616 36.0742 7.68522ZM11.807 8.45408C11.4881 7.57712 11.7021 6.66138 12.2752 6.45473V6.45506C12.3538 6.42662 12.4368 6.41207 12.5204 6.4124C12.7335 6.42232 12.9392 6.49143 13.1144 6.61214C13.4911 6.87603 13.7748 7.25137 13.9255 7.68526C14.2457 8.56163 14.031 9.47729 13.4572 9.68462C12.8838 9.89163 12.1272 9.33206 11.807 8.45408ZM7.52686 11.9687C6.81805 11.2617 6.61398 10.27 7.08286 9.80268V9.80301C7.26769 9.63138 7.51392 9.54044 7.76645 9.55135C8.33357 9.58475 8.86649 9.83343 9.25574 10.2455C9.96522 10.9525 10.1686 11.9442 9.69975 12.4115C9.23086 12.8788 8.23663 12.6748 7.52618 11.9691L7.52686 11.9687ZM10.7282 35.6559C10.2078 34.8087 9.76483 33.9165 9.40412 32.9902H11.6252C12.103 32.9902 12.5444 33.2445 12.7833 33.6569C13.0222 34.0693 13.0222 34.5772 12.7833 34.9896C12.5444 35.402 12.1031 35.6559 11.6252 35.6559L10.7282 35.6559ZM15.6374 40.7876C14.1047 39.7489 12.7541 38.4655 11.6404 36.9889C12.5961 36.9863 13.4778 36.4757 13.9534 35.6493C14.4286 34.8233 14.4259 33.807 13.9454 32.9836C13.4652 32.1602 12.5809 31.6549 11.6252 31.6576H8.9562C8.50987 30.1423 8.28289 28.5715 8.28156 26.9925H10.6221C11.4198 26.9918 12.1847 26.6754 12.7492 26.1132C13.3133 25.551 13.6305 24.7887 13.6316 23.9938C13.6299 23.5457 13.8111 23.1164 14.133 22.8042C14.3971 22.5463 14.4014 22.1243 14.1429 21.8611C13.8844 21.5978 13.4607 21.5935 13.1968 21.8511C12.6164 22.4136 12.2905 23.1868 12.2939 23.9937C12.2939 24.4355 12.1177 24.8592 11.8041 25.1717C11.4908 25.4842 11.0654 25.6598 10.6221 25.6598H8.34229C8.54737 23.17 9.30896 20.7579 10.5712 18.5997C11.8335 16.4413 13.5648 14.5921 15.6375 13.1876L15.6374 40.7876ZM40.744 10.2457C41.1333 9.83332 41.6662 9.58464 42.2333 9.55157C42.4862 9.54066 42.7327 9.63127 42.9176 9.80323C43.3858 10.2698 43.185 11.2619 42.4735 11.9693C41.7621 12.6763 40.7682 12.879 40.3 12.4118C39.8321 11.9445 40.0345 10.9531 40.744 10.2457ZM39.9957 19.6622H39.0437C38.3342 19.6622 37.6536 19.9429 37.1521 20.4429C36.6504 20.9426 36.3686 21.6209 36.3686 22.3279V23.6606C36.3686 24.0141 36.2276 24.3531 35.9767 24.6031C35.7259 24.8531 35.3857 24.9936 35.031 24.9936H34.3623V13.1881C36.7725 14.8221 38.7141 17.0533 39.9956 19.6625L39.9957 19.6622ZM34.3624 34.3232C34.7171 34.3232 35.0573 34.4637 35.3082 34.7134C35.559 34.9634 35.6997 35.3023 35.6997 35.6559V39.6543C35.6997 39.6936 35.7044 39.7316 35.7064 39.771L35.7067 39.7713C35.276 40.1321 34.8273 40.4714 34.3624 40.7876L34.3624 34.3232ZM37.0374 38.5329V35.6559C37.0374 34.9492 36.7556 34.271 36.2539 33.7709C35.7521 33.2713 35.0719 32.9902 34.3623 32.9902V26.326H35.031C35.7405 26.326 36.4207 26.0453 36.9225 25.5452C37.4243 25.0452 37.706 24.3673 37.706 23.6602V22.3276C37.706 21.9741 37.847 21.6351 38.0979 21.3851C38.3488 21.1351 38.6889 20.9945 39.0437 20.9945H40.5904C41.7416 23.9506 42.0186 27.1735 41.3891 30.2815C40.7593 33.3897 39.2491 36.2531 37.0373 38.5326L37.0374 38.5329Z" fill="url(#paint0_linear_5946_22870)"/>
<path d="M24.3306 36.9543V38.9878C24.3306 39.3559 24.6303 39.6541 24.9996 39.6541C25.3689 39.6541 25.6683 39.3559 25.6683 38.9878V36.9543C28.1289 36.7344 30.3141 35.2972 31.4852 33.1295C32.6559 30.9615 32.6559 28.3523 31.4852 26.1846C30.3141 24.0166 28.1289 22.5797 25.6683 22.3594V20.3277C25.6683 19.9596 25.3689 19.6613 24.9996 19.6613C24.6303 19.6613 24.3306 19.9596 24.3306 20.3277V22.3608C21.87 22.581 19.6848 24.0179 18.5137 26.186C17.343 28.3536 17.343 30.9629 18.5137 33.1308C19.6848 35.2988 21.87 36.7357 24.3306 36.9557V36.9543ZM24.9996 23.6597C26.5958 23.6597 28.1266 24.2916 29.2555 25.4163C30.3841 26.5414 31.0182 28.0669 31.0182 29.6575C31.0182 31.2485 30.3841 32.7739 29.2555 33.8987C28.1266 35.0237 26.5958 35.6553 24.9996 35.6553C23.4031 35.6553 21.8724 35.0237 20.7437 33.8987C19.6148 32.774 18.9806 31.2485 18.9806 29.6575C18.9826 28.0676 19.6171 26.5427 20.7457 25.4184C21.8739 24.294 23.4037 23.6614 24.9995 23.6598L24.9996 23.6597Z" fill="url(#paint1_linear_5946_22870)"/>
<path d="M22.3249 30.991H23.6622V33.6567C23.6622 33.9461 23.8497 34.2024 24.1265 34.291C24.1925 34.3122 24.2615 34.3231 24.3309 34.3231C24.5469 34.3228 24.7493 34.2189 24.8748 34.044L28.2184 29.3789C28.3637 29.1759 28.3833 28.9087 28.2688 28.6868C28.1543 28.4652 27.925 28.3253 27.6748 28.3253H26.3372V25.6596C26.3368 25.3703 26.149 25.114 25.8726 25.0257C25.5958 24.9374 25.2938 25.0373 25.1246 25.2724L21.781 29.9375C21.6357 30.1405 21.6161 30.4074 21.7306 30.6293C21.845 30.8512 22.0744 30.9907 22.3249 30.991ZM24.9999 27.739V28.9917C24.9999 29.1686 25.0702 29.3379 25.1956 29.4629C25.3211 29.5879 25.491 29.658 25.6685 29.658H26.3753L24.9999 31.5774V30.3247C24.9999 30.1478 24.9292 29.9781 24.8038 29.8535C24.6783 29.7285 24.5084 29.658 24.3309 29.658H23.6241L24.9999 27.739Z" fill="url(#paint2_linear_5946_22870)"/>
<path d="M18.9812 15.5402V16.3295C18.9812 17.0435 19.3638 17.7035 19.9844 18.0607C20.6053 18.4179 21.3699 18.4179 21.9907 18.0607C22.6116 17.7036 22.9939 17.0435 22.9939 16.3295V15.6629H24.3312V17.6622C24.3312 18.0303 24.6309 18.3286 25.0002 18.3286C25.3695 18.3286 25.6689 18.0303 25.6689 17.6622V15.6629H27.0062V16.3295C27.0062 17.0435 27.3888 17.7035 28.0094 18.0607C28.6302 18.4179 29.3948 18.4179 30.0157 18.0607C30.6362 17.7036 31.0189 17.0435 31.0189 16.3295V15.5402C31.4084 15.4029 31.7463 15.149 31.9859 14.813C32.2251 14.477 32.3545 14.0759 32.3562 13.6638V12.3308C32.3532 11.516 32.0496 10.731 31.503 10.1251L32.1604 9.46997C32.2895 9.34562 32.3628 9.17499 32.3645 8.99641C32.3661 8.8175 32.2955 8.64555 32.1687 8.51922C32.0419 8.39289 31.8694 8.32246 31.6899 8.32411C31.5107 8.32576 31.3394 8.39885 31.2147 8.52748L30.7345 9.00599L30.2294 7.35983H30.2298C30.0233 6.67562 29.6006 6.07574 29.0242 5.6505C28.4478 5.22523 27.7489 4.99705 27.0318 5.00003H22.9684C22.2513 4.99705 21.5525 5.22523 20.9761 5.6505C20.3997 6.07577 19.9769 6.67562 19.7705 7.35983L19.2655 9.00599L18.7853 8.52748H18.7856C18.6608 8.39885 18.4899 8.32576 18.3104 8.32411C18.1309 8.32246 17.9587 8.39289 17.8316 8.51922C17.7048 8.64555 17.6345 8.8175 17.6358 8.99641C17.6374 9.17499 17.7111 9.34562 17.8399 9.46997L18.4972 10.1251C17.9507 10.7309 17.647 11.516 17.6441 12.3308V13.6638C17.6457 14.0759 17.7752 14.477 18.0147 14.813C18.254 15.149 18.5918 15.403 18.9814 15.5402H18.9812ZM19.6502 14.3302C19.2809 14.3302 18.9812 14.0319 18.9812 13.6638V13.1185C19.5497 13.3182 19.9963 13.7637 20.1964 14.3301L19.6502 14.3302ZM21.6565 16.3295H21.6562C21.6562 16.6976 21.3569 16.9959 20.9875 16.9959C20.6182 16.9959 20.3189 16.6976 20.3189 16.3295V15.6629H21.6562L21.6565 16.3295ZM29.0125 16.9959C28.6431 16.9959 28.3438 16.6976 28.3438 16.3295V15.6629H29.6811V16.3295C29.6811 16.5061 29.6108 16.6758 29.4853 16.8008C29.3599 16.9254 29.19 16.9959 29.0125 16.9959ZM30.3501 14.3302H29.8042C30.007 13.766 30.4526 13.3222 31.0188 13.1198V13.6638C31.0188 13.8404 30.9481 14.0101 30.823 14.1351C30.6975 14.2597 30.5273 14.3302 30.3501 14.3302ZM20.2893 10.2295L21.0489 7.74898H21.0492C21.173 7.33826 21.4269 6.97846 21.7726 6.72318C22.1184 6.46822 22.5379 6.33131 22.9682 6.33296H27.0316C27.462 6.33131 27.8815 6.46822 28.2272 6.72318C28.573 6.97848 28.8269 7.33827 28.951 7.74898L29.7106 10.2295C29.7597 10.3902 29.8679 10.5262 30.0135 10.6108C30.4542 10.8638 30.7814 11.2752 30.9285 11.7603C30.3086 11.9068 29.7435 12.2266 29.2994 12.6816C28.8554 13.1367 28.5508 13.7084 28.4214 14.3302H21.5788C21.453 13.7068 21.1501 13.1327 20.7061 12.676C20.2621 12.2194 19.6956 11.8999 19.0744 11.7551C19.2211 11.2722 19.5463 10.8632 19.9843 10.6108C20.1307 10.5265 20.2399 10.3906 20.2893 10.2295Z" fill="url(#paint3_linear_5946_22870)"/>
<path d="M21.6563 11.6646H28.344C28.5447 11.6646 28.7349 11.5746 28.862 11.4195C28.9891 11.2648 29.0395 11.061 28.9994 10.8649L28.5444 8.60695C28.4528 8.15423 28.2069 7.74717 27.8489 7.45451C27.4905 7.16151 27.0418 7.00079 26.5786 6.99947H23.4221C22.9589 7.00079 22.5103 7.16151 22.1519 7.45418C21.7938 7.74684 21.5479 8.15392 21.456 8.60628L21.001 10.8649C20.9609 11.061 21.0113 11.2648 21.1384 11.4195C21.2655 11.5746 21.4556 11.6646 21.6563 11.6646ZM22.7657 8.8656H22.7661C22.8294 8.55508 23.1039 8.33219 23.4221 8.33252H26.5786C26.8965 8.33219 27.1709 8.55508 27.2346 8.8656L27.528 10.3315H22.4723L22.7657 8.8656Z" fill="url(#paint4_linear_5946_22870)"/>
<path d="M27.0057 12.3308H22.9935C22.6241 12.3308 22.3248 12.6291 22.3248 12.9972C22.3248 13.3652 22.6241 13.6638 22.9935 13.6638H27.0057C27.3751 13.6638 27.6747 13.3652 27.6747 12.9972C27.6747 12.6291 27.3751 12.3308 27.0057 12.3308Z" fill="url(#paint5_linear_5946_22870)"/>
<defs>
<linearGradient id="paint0_linear_5946_22870" x1="0" y1="0" x2="0" y2="1" gradientUnits="objectBoundingBox">
<stop stop-color="#ED3040"/>
<stop offset="1" stop-color="#2D23F4"/>
</linearGradient>
<linearGradient id="paint1_linear_5946_22870" x1="0" y1="0" x2="0" y2="1" gradientUnits="objectBoundingBox">
<stop stop-color="#ED3040"/>
<stop offset="1" stop-color="#2D23F4"/>
</linearGradient>
<linearGradient id="paint2_linear_5946_22870" x1="0" y1="0" x2="0" y2="1" gradientUnits="objectBoundingBox">
<stop stop-color="#ED3040"/>
<stop offset="1" stop-color="#2D23F4"/>
</linearGradient>
<linearGradient id="paint3_linear_5946_22870" x1="0" y1="0" x2="0" y2="1" gradientUnits="objectBoundingBox">
<stop stop-color="#ED3040"/>
<stop offset="1" stop-color="#2D23F4"/>
</linearGradient>
<linearGradient id="paint4_linear_5946_22870" x1="0" y1="0" x2="0" y2="1" gradientUnits="objectBoundingBox">
<stop stop-color="#ED3040"/>
<stop offset="1" stop-color="#2D23F4"/>
</linearGradient>
<linearGradient id="paint5_linear_5946_22870" x1="0" y1="0" x2="0" y2="1" gradientUnits="objectBoundingBox">
<stop stop-color="#ED3040"/>
<stop offset="1" stop-color="#2D23F4"/>
</linearGradient>
</defs>
</svg>
