<svg width="50" height="50" viewBox="0 0 50 50" fill="none" xmlns="http://www.w3.org/2000/svg">
<path d="M35.6153 42.5H12.4649C10.0847 42.501 7.8466 41.3806 6.44075 39.4842C5.03491 37.5875 4.62972 35.1425 5.34977 32.9025C6.07014 30.6625 7.82987 28.8963 10.086 28.1478C10.0833 28.0586 10.0813 27.9698 10.0813 27.8806H10.0816C10.0816 25.1543 11.3269 22.5737 13.4712 20.8565C15.6156 19.1393 18.4297 18.4689 21.1312 19.0311C23.8327 19.5934 26.1334 21.3289 27.3928 23.755C28.2168 23.4512 29.0895 23.2961 29.969 23.2975C31.9481 23.2995 33.8457 24.0767 35.245 25.4587C36.6447 26.8404 37.4318 28.7141 37.4338 30.6682C37.4338 30.9058 37.4215 31.1433 37.3969 31.3798C39.1542 31.9431 40.5323 33.3032 41.1037 35.0383C41.6749 36.7735 41.3703 38.6738 40.2845 40.1498C39.1986 41.6261 37.4625 42.4996 35.6149 42.5L35.6153 42.5ZM19.2414 20.1985C17.1788 20.2005 15.2011 21.0108 13.7425 22.451C12.284 23.8911 11.4637 25.8439 11.4613 27.8805C11.4613 28.1187 11.4767 28.3525 11.4983 28.5853C11.5291 28.9195 11.3094 29.2263 10.9798 29.3088C9.04384 29.7889 7.47005 31.1764 6.76813 33.0213C6.06659 34.8663 6.32599 36.9339 7.46318 38.5535C8.60007 40.1735 10.4695 41.1392 12.4654 41.1378H35.6159C37.0806 41.1381 38.4488 40.417 39.2643 39.2158C40.0802 38.0145 40.2356 36.4909 39.6788 35.1531C39.122 33.8154 37.9266 32.8395 36.4913 32.5513C36.1227 32.478 35.8822 32.1265 35.9499 31.7613C36.2863 30.0055 35.8113 28.1933 34.6543 26.8194C33.4976 25.4451 31.7797 24.6531 29.97 24.6591C29.0621 24.6588 28.1658 24.8615 27.3485 25.2522C27.1785 25.3329 26.9824 25.341 26.8058 25.2748C26.6292 25.2089 26.4879 25.0741 26.4146 24.9024C25.8223 23.5072 24.8253 22.3161 23.5489 21.4791C22.2728 20.6421 20.7742 20.1965 19.2417 20.1984L19.2414 20.1985Z" fill="url(#paint0_linear_5946_22850)"/>
<path d="M31.1245 11.466C30.9414 11.466 30.7662 11.3943 30.6369 11.2666C30.5075 11.1389 30.4346 10.9655 30.435 10.7851V8.18088C30.435 7.80479 30.7436 7.5 31.1245 7.5C31.5054 7.5 31.8141 7.80479 31.8141 8.18088V10.7851C31.8141 10.9655 31.7416 11.1389 31.6122 11.2666C31.4828 11.3943 31.3073 11.466 31.1245 11.466Z" fill="url(#paint1_linear_5946_22850)"/>
<path d="M23.6656 14.5169C23.4828 14.5173 23.3073 14.4453 23.1779 14.3176L21.3132 12.4753C21.0486 12.2087 21.0507 11.7812 21.318 11.5174C21.5856 11.2535 22.0181 11.2511 22.2885 11.5126L24.1532 13.3546C24.3503 13.5492 24.4095 13.8421 24.3028 14.0966C24.196 14.351 23.9445 14.5169 23.6656 14.5169Z" fill="url(#paint2_linear_5946_22850)"/>
<path d="M44.3104 21.8827H41.673C41.2921 21.8827 40.9834 21.5776 40.9834 21.2015C40.9834 20.8254 41.2921 20.5206 41.673 20.5206H44.3104C44.691 20.5206 45 20.8254 45 21.2015C45 21.5776 44.691 21.8827 44.3104 21.8827Z" fill="url(#paint3_linear_5946_22850)"/>
<path d="M38.5835 14.5169C38.3046 14.5169 38.0534 14.351 37.9466 14.0966C37.8398 13.8421 37.8987 13.5492 38.0962 13.3545L39.9609 11.5126C40.2309 11.2511 40.6638 11.2534 40.9311 11.5174C41.1983 11.7813 41.2007 12.2087 40.9362 12.4753L39.0715 14.3172H39.0711C38.9421 14.4453 38.7666 14.5173 38.5835 14.5169Z" fill="url(#paint4_linear_5946_22850)"/>
<path d="M27.0875 12.2592C26.8086 12.2589 26.5571 12.0933 26.4503 11.8388L25.7775 10.2348C25.6317 9.88743 25.7987 9.48904 26.1505 9.34511C26.5023 9.20116 26.9058 9.36606 27.0516 9.71342L27.7244 11.3175C27.8702 11.6648 27.7032 12.0629 27.3514 12.2071C27.2679 12.2416 27.1782 12.2595 27.0875 12.2592Z" fill="url(#paint5_linear_5946_22850)"/>
<path d="M42.4952 26.5323C42.4045 26.5326 42.3148 26.5151 42.231 26.4803L40.6065 25.8166C40.2547 25.6727 40.0877 25.2743 40.2335 24.9269C40.3792 24.5796 40.7827 24.4147 41.1345 24.5586L42.759 25.2222C43.0629 25.3466 43.2357 25.6656 43.1714 25.9842C43.1074 26.3029 42.8241 26.5323 42.4952 26.5323Z" fill="url(#paint6_linear_5946_22850)"/>
<path d="M40.8701 17.8966C40.5412 17.8966 40.2578 17.6672 40.1935 17.3486C40.1295 17.0302 40.302 16.7109 40.6059 16.5866L42.2304 15.9216C42.5825 15.7776 42.9857 15.9429 43.1318 16.2902C43.2776 16.6376 43.1102 17.036 42.7584 17.1799L41.1339 17.8449C41.0504 17.8794 40.9607 17.897 40.8701 17.8966Z" fill="url(#paint7_linear_5946_22850)"/>
<path d="M35.1606 12.2592C35.0699 12.2595 34.9803 12.2416 34.8968 12.2072C34.545 12.0629 34.378 11.6648 34.5234 11.3175L35.1962 9.71342C35.3424 9.36606 35.7455 9.20116 36.0976 9.34511C36.4494 9.48906 36.6164 9.88744 36.4706 10.2348L35.7978 11.8388C35.6911 12.0933 35.4395 12.2589 35.1606 12.2592Z" fill="url(#paint8_linear_5946_22850)"/>
<path d="M38.3285 26.848C38.0715 26.848 37.8357 26.7071 37.717 26.4817C37.5982 26.2567 37.6164 25.985 37.7642 25.7772C39.0629 23.9434 39.5239 21.6557 39.0345 19.4706C38.5455 17.2853 37.151 15.4029 35.19 14.2804C33.2291 13.1578 30.8815 12.8986 28.718 13.5654C26.5545 14.232 24.7729 15.7638 23.8068 17.7881C23.7287 17.952 23.5881 18.0787 23.4156 18.1399C23.2431 18.201 23.0532 18.1922 22.8872 18.1145C22.7216 18.0371 22.5939 17.8976 22.5327 17.7269C22.4714 17.5563 22.4813 17.3688 22.5607 17.2056C23.7944 14.6216 26.1564 12.7357 28.9739 12.0856C31.791 11.4355 34.7547 12.092 37.0209 13.868C39.2871 15.644 40.607 18.3453 40.6046 21.2019C40.6067 23.1181 40.0091 24.9881 38.8942 26.5566C38.7655 26.7394 38.5541 26.8482 38.3285 26.8479L38.3285 26.848Z" fill="url(#paint9_linear_5946_22850)"/>
<defs>
<linearGradient id="paint0_linear_5946_22850" x1="37.6624" y1="32.5597" x2="37.6624" y2="39.5692" gradientUnits="userSpaceOnUse">
<stop stop-color="#ED3040"/>
<stop offset="1" stop-color="#2D23F4"/>
</linearGradient>
<linearGradient id="paint1_linear_5946_22850" x1="37.6624" y1="32.5597" x2="37.6624" y2="39.5692" gradientUnits="userSpaceOnUse">
<stop stop-color="#ED3040"/>
<stop offset="1" stop-color="#2D23F4"/>
</linearGradient>
<linearGradient id="paint2_linear_5946_22850" x1="37.6624" y1="32.5597" x2="37.6624" y2="39.5692" gradientUnits="userSpaceOnUse">
<stop stop-color="#ED3040"/>
<stop offset="1" stop-color="#2D23F4"/>
</linearGradient>
<linearGradient id="paint3_linear_5946_22850" x1="37.6624" y1="32.5597" x2="37.6624" y2="39.5692" gradientUnits="userSpaceOnUse">
<stop stop-color="#ED3040"/>
<stop offset="1" stop-color="#2D23F4"/>
</linearGradient>
<linearGradient id="paint4_linear_5946_22850" x1="37.6624" y1="32.5597" x2="37.6624" y2="39.5692" gradientUnits="userSpaceOnUse">
<stop stop-color="#ED3040"/>
<stop offset="1" stop-color="#2D23F4"/>
</linearGradient>
<linearGradient id="paint5_linear_5946_22850" x1="37.6624" y1="32.5597" x2="37.6624" y2="39.5692" gradientUnits="userSpaceOnUse">
<stop stop-color="#ED3040"/>
<stop offset="1" stop-color="#2D23F4"/>
</linearGradient>
<linearGradient id="paint6_linear_5946_22850" x1="37.6624" y1="32.5597" x2="37.6624" y2="39.5692" gradientUnits="userSpaceOnUse">
<stop stop-color="#ED3040"/>
<stop offset="1" stop-color="#2D23F4"/>
</linearGradient>
<linearGradient id="paint7_linear_5946_22850" x1="37.6624" y1="32.5597" x2="37.6624" y2="39.5692" gradientUnits="userSpaceOnUse">
<stop stop-color="#ED3040"/>
<stop offset="1" stop-color="#2D23F4"/>
</linearGradient>
<linearGradient id="paint8_linear_5946_22850" x1="37.6624" y1="32.5597" x2="37.6624" y2="39.5692" gradientUnits="userSpaceOnUse">
<stop stop-color="#ED3040"/>
<stop offset="1" stop-color="#2D23F4"/>
</linearGradient>
<linearGradient id="paint9_linear_5946_22850" x1="37.6624" y1="32.5597" x2="37.6624" y2="39.5692" gradientUnits="userSpaceOnUse">
<stop stop-color="#ED3040"/>
<stop offset="1" stop-color="#2D23F4"/>
</linearGradient>
</defs>
</svg>
