<svg width="50" height="50" viewBox="0 0 50 50" fill="none" xmlns="http://www.w3.org/2000/svg">
<path d="M9 31.9107V44.142H16.0236V41.7279C17.9974 42.6969 22.6699 44.8765 24.9991 44.9958C25.0548 44.9984 25.1105 45 25.1678 45C28.948 45 37.1302 38.9214 38.7535 37.6858C39.8671 36.8357 39.7823 35.1321 38.5712 34.4005C37.967 34.0357 37.2308 34.0082 36.6 34.3309L36.5423 34.3638C35.1283 35.2898 33.5274 36.4769 32.1974 37.3346C32.1163 36.2569 31.2052 35.4047 30.0974 35.4047H26.9372C25.1943 35.4047 23.3732 35.0424 21.3325 34.283C18.475 33.2584 16.2265 33.4186 16.023 33.402V31.9104L9 31.9107ZM14.7841 42.913H10.2398V33.1397H14.7838L14.7841 42.913ZM20.9338 35.4475C23.0798 36.2455 25.0439 36.634 26.9382 36.634H30.0984C30.576 36.634 30.9647 37.0193 30.9647 37.4927C30.9647 37.9661 30.576 38.3507 30.0984 38.3507H23.2141V39.5796H30.1605C31.5752 39.5796 34.3667 37.2626 37.1945 35.4105C37.4325 35.2988 37.6982 35.3122 37.9265 35.4501C38.4053 35.7383 38.4128 36.3962 37.9986 36.7116C34.4685 39.3974 27.7742 43.9249 25.0635 43.7682C22.7399 43.6494 17.4067 41.0461 16.0237 40.3527V34.6316C16.4449 34.6651 18.069 34.419 20.9335 35.4475L20.9338 35.4475Z" fill="url(#paint0_linear_5946_22852)"/>
<path d="M12.3925 37.988H13.6323V39.0049H12.3925V37.988Z" fill="url(#paint1_linear_5946_22852)"/>
<path d="M12.3925 39.6076H13.6323V40.6245H12.3925V39.6076Z" fill="url(#paint2_linear_5946_22852)"/>
<path d="M12.3925 41.2264H13.6323V42.244H12.3925V41.2264Z" fill="url(#paint3_linear_5946_22852)"/>
<path d="M32.6979 23.8151C32.2133 23.435 31.9969 23.9294 31.4532 23.8786C29.7757 19.8149 29.8363 19.6534 29.4147 19.5685C26.8629 18.4289 26.8735 19.4973 25.4578 18.8914C25.4813 18.7372 25.4675 18.5764 25.3998 18.4174C25.043 17.5868 23.7043 17.7784 22.7971 17.938C22.5576 17.9788 22.1511 18.4305 21.6555 18.2236C20.9892 17.9427 20.0205 19.2163 19.9355 19.8037C19.4051 20.3767 18.2471 21.8102 18.7803 22.9169C19.0099 23.3906 17.7263 24.0121 20.8388 26.2701C21.1811 26.5198 21.4185 26.2941 21.9501 26.2864C22.3952 26.5006 22.7514 26.0524 23.3178 26.062C23.4608 26.2781 23.6727 26.4195 23.9226 26.4684C23.797 26.9331 23.5855 27.4397 23.8766 27.8269C24.0679 28.0813 24.4537 28.1391 24.7103 28.0574C24.7857 28.6351 24.5203 31.6194 25.366 32.3905C25.9389 32.9137 27.5575 32.0822 28.0286 31.3333C28.2631 31.1785 28.6559 30.8593 28.8192 30.3744C30.1267 29.6712 30.0935 28.6204 30.4155 27.575C31.4393 26.821 33.6485 24.5627 32.6979 23.8151L32.6979 23.8151ZM28.913 28.4308C28.6696 29.4781 27.6796 29.1981 27.6545 29.9237C27.6438 30.2037 27.1505 30.3451 27.0139 30.6158C26.8542 30.9331 26.4703 31.1252 26.1451 31.2296C25.6714 29.4474 26.4909 27.0768 25.1249 26.7707C25.4527 25.5529 24.941 25.1395 24.2531 25.2388C23.7752 24.6531 22.905 24.7986 22.1953 25.0763C21.9476 25.0339 21.6021 25.0716 21.3509 25.1166C18.9917 23.3555 20.5255 23.6882 19.8992 22.3868C19.7498 22.0778 20.3691 21.1061 21.0015 20.4766C21.1426 20.3362 21.2057 20.1383 21.1748 19.9468C21.2286 19.8398 21.386 19.6541 21.5677 19.4769C22.1322 19.5883 22.7035 19.4383 23.1592 19.1235C23.5128 19.0664 23.8081 19.0354 24.0394 19.0316C23.8494 19.9222 25.971 20.5082 26.9306 20.2689C27.3325 20.1712 27.9798 20.2941 28.7698 20.6296C29.8093 23.1392 30.4148 24.6091 30.4148 24.6097C30.5404 24.9142 30.8933 25.0365 31.2211 25.0879C29.4196 27.5263 29.5919 25.5163 28.9131 28.4309L28.913 28.4308Z" fill="url(#paint4_linear_5946_22852)"/>
<path d="M35.1127 24.1534C34.9648 24.2524 34.8698 24.4078 34.8463 24.5783C34.8222 24.6144 34.7839 24.6606 34.7452 24.7037C34.0438 24.4066 33.5192 25.1896 33.0387 25.7696C32.2916 26.671 31.5857 27.5216 31.8417 28.5288C31.9119 28.8043 32.1615 28.9932 32.4423 28.9932C32.4652 28.9932 32.489 28.992 32.5119 28.9897C34.159 28.6734 35.4421 29.0216 35.4421 28.1135C35.4414 27.3573 35.8839 26.5928 36.5422 26.2119C36.7705 26.0798 36.889 25.819 36.8375 25.562C36.6745 24.7436 35.7574 23.7216 35.1127 24.1534ZM34.2499 27.5597L33.1627 27.6803C33.3965 27.2315 34.4051 26.0521 34.4618 25.9898C34.5767 26.0377 34.7355 26.0661 34.9255 26.0252C34.5816 26.4734 34.3449 27.0034 34.2499 27.5597Z" fill="url(#paint5_linear_5946_22852)"/>
<path d="M26.3639 5C18.2995 5 11.7272 11.4981 11.7272 19.5079C11.7272 25.1051 14.9434 29.9683 19.6381 32.3871C19.6571 32.3964 19.6738 32.4082 19.6935 32.4152C28.6821 36.9977 39.886 31.3258 40.9305 20.9603C41.7713 12.2354 34.8697 5.00112 26.3638 5.00112L26.3639 5ZM39.703 20.7173L39.4167 21.1999C38.5521 18.088 35.9796 18.304 35.8817 17.6092C35.8105 17.0998 35.1726 16.8984 34.8167 17.2731C34.2061 17.9134 34.2911 18.9898 34.9178 19.5755C35.5667 20.1951 36.3876 20.0987 36.3158 20.8009C36.2398 21.544 35.3155 21.5271 34.9671 21.0253C34.837 20.8434 34.753 20.5772 34.6638 20.295C34.1208 18.5723 33.3231 18.6594 32.9857 18.3951C32.985 18.3938 32.9486 18.2492 33.1425 17.7848C33.2423 17.5514 33.547 16.8402 33.2121 16.2702C32.814 15.5925 31.9117 15.6688 31.4563 15.5651C31.5726 15.046 32.5374 13.8909 31.6518 13.0478C31.4392 12.8461 31.1153 12.8186 30.8737 12.9836C30.229 13.4181 29.6738 13.9719 29.2326 14.6148C28.5969 13.819 26.9394 12.6842 26.5046 13.6061C26.4412 13.7424 26.4309 13.8911 26.4682 14.0268C25.3891 13.4656 24.481 14.0057 23.5786 14.6971C23.2218 14.9541 22.4373 15.3473 22.3629 14.9234C22.4524 14.8873 22.6408 14.8586 22.7606 14.8407C24.1924 14.6224 24.2974 13.69 24.0253 13.1522C24.7386 12.7832 25.4158 12.3535 26.0486 11.868C28.3825 12.7933 28.6832 10.4938 32.8192 7.88016C37.3513 10.3482 40.1826 15.2567 39.7031 20.7169L39.703 20.7173ZM20.33 8.70174C18.5153 11.1545 18.6786 9.17065 18.0181 12.0416C17.7691 13.0955 16.7875 12.8262 16.7605 13.5434C16.7502 13.8208 16.261 13.9712 16.1248 14.2355C15.9612 14.5524 15.5744 14.7427 15.2482 14.8451C15.1509 14.4809 15.034 13.7451 15.0708 12.3777C16.2079 10.6144 17.704 9.17959 19.4804 8.12047C19.5774 8.34678 19.6795 8.59959 20.33 8.70174ZM14.4038 25.4797C14.6541 25.6629 14.9104 25.9272 14.9613 26.2681C15.0012 26.5356 15.2144 26.7463 15.4843 26.7865C15.7223 26.8219 16.4778 26.9972 16.8108 27.3272C17.1473 27.6614 17.3193 28.319 17.3569 28.5424C17.3679 28.6091 17.3898 28.6739 17.4217 28.7333C17.5067 28.8926 17.8139 29.4614 18.1008 29.9488C16.5621 28.7496 15.2946 27.2251 14.4038 25.4797ZM20.2711 31.3281C19.2212 30.2556 20.0131 30.4924 19.4998 29.8489C19.3449 29.6545 18.8737 28.8191 18.5607 28.2395C18.4959 27.9209 18.2702 27.0358 17.6869 26.458C17.2232 25.9983 16.5202 25.7631 16.0736 25.6526C15.7592 24.8269 14.9831 24.3493 14.5741 24.1463C14.2807 23.5407 13.8463 23.2305 13.4672 23.0939C13.1436 21.952 12.9668 20.7502 12.9668 19.5073C12.9668 17.7654 13.3104 16.1023 13.9284 14.5768C14.0633 15.4789 14.3 15.8514 14.4694 16.0047C15.0426 16.5221 16.6619 15.7011 17.1363 14.9551C17.3675 14.8003 17.7604 14.4779 17.9246 13.9936C19.2324 13.2853 19.2008 12.2118 19.5155 11.1967C20.5482 10.4351 22.7574 8.18215 21.8075 7.4324C21.3985 7.11192 21.1441 7.45379 20.6771 7.48731C22.4045 6.68132 24.3312 6.22839 26.3637 6.22839C28.1343 6.22839 29.8932 6.58494 31.516 7.25654C28.4144 9.31636 27.7932 11.1965 26.4963 10.7215C25.1966 10.2474 25.8362 11.0426 22.7349 12.4047C22.5256 12.4966 22.3845 12.6951 22.3681 12.9218C22.3372 13.3323 22.6663 13.4807 22.8029 13.5867C22.4042 13.6665 21.8142 13.6738 21.4062 14.1188C20.4784 15.1523 21.8597 17.457 24.3187 15.6826C24.6852 15.4023 25.0678 15.0828 25.4266 15.0355C26.0169 14.9583 26.4397 15.5217 26.2803 16.0222C26.2072 16.252 26.2754 16.5029 26.4564 16.6641C27.059 17.2048 28.0779 16.244 28.255 15.3739C28.7471 15.9839 28.6475 16.4538 29.2272 16.469C29.4755 16.4588 29.7067 16.3318 29.8091 16.1048C29.9296 15.8373 30.0742 15.5797 30.2397 15.3368C29.9344 16.8429 31.6673 16.7723 32.1237 16.9102C32.0564 17.4707 30.994 18.82 32.7207 19.6388C33.6121 20.0656 33.3316 20.8664 33.9523 21.7299C35.1847 23.5062 38.1861 22.3798 37.4731 20.1587C38.2209 20.9909 38.5491 22.2231 38.2064 23.2844C38.1095 23.5831 38.256 23.9065 38.5461 24.0339C38.6273 24.0693 38.7126 24.0862 38.796 24.0862C38.8469 24.0862 38.8968 24.0789 38.9458 24.0667C36.1569 31.6913 27.3009 34.9023 20.271 31.328L20.2711 31.3281Z" fill="url(#paint6_linear_5946_22852)"/>
<defs>
<linearGradient id="paint0_linear_5946_22852" x1="35.13" y1="33.6397" x2="35.13" y2="41.6506" gradientUnits="userSpaceOnUse">
<stop stop-color="#ED3040"/>
<stop offset="1" stop-color="#2D23F4"/>
</linearGradient>
<linearGradient id="paint1_linear_5946_22852" x1="35.13" y1="33.6397" x2="35.13" y2="41.6506" gradientUnits="userSpaceOnUse">
<stop stop-color="#ED3040"/>
<stop offset="1" stop-color="#2D23F4"/>
</linearGradient>
<linearGradient id="paint2_linear_5946_22852" x1="35.13" y1="33.6397" x2="35.13" y2="41.6506" gradientUnits="userSpaceOnUse">
<stop stop-color="#ED3040"/>
<stop offset="1" stop-color="#2D23F4"/>
</linearGradient>
<linearGradient id="paint3_linear_5946_22852" x1="35.13" y1="33.6397" x2="35.13" y2="41.6506" gradientUnits="userSpaceOnUse">
<stop stop-color="#ED3040"/>
<stop offset="1" stop-color="#2D23F4"/>
</linearGradient>
<linearGradient id="paint4_linear_5946_22852" x1="35.13" y1="33.6397" x2="35.13" y2="41.6506" gradientUnits="userSpaceOnUse">
<stop stop-color="#ED3040"/>
<stop offset="1" stop-color="#2D23F4"/>
</linearGradient>
<linearGradient id="paint5_linear_5946_22852" x1="35.13" y1="33.6397" x2="35.13" y2="41.6506" gradientUnits="userSpaceOnUse">
<stop stop-color="#ED3040"/>
<stop offset="1" stop-color="#2D23F4"/>
</linearGradient>
<linearGradient id="paint6_linear_5946_22852" x1="35.13" y1="33.6397" x2="35.13" y2="41.6506" gradientUnits="userSpaceOnUse">
<stop stop-color="#ED3040"/>
<stop offset="1" stop-color="#2D23F4"/>
</linearGradient>
</defs>
</svg>
