<svg width="50" height="50" viewBox="0 0 50 50" fill="none" xmlns="http://www.w3.org/2000/svg">
<path d="M44.3074 22.1452L40.3496 21.4664C39.9612 19.7621 39.2925 18.1475 38.3562 16.6518L40.6726 13.3632C40.906 13.0321 40.8672 12.5805 40.5807 12.294L37.7061 9.41906C37.4204 9.13257 36.9695 9.09263 36.6372 9.32718L33.3482 11.6439C31.8522 10.7073 30.2371 10.0382 28.5337 9.65012L27.8549 5.69277C27.7859 5.29192 27.4389 5 27.033 5H22.966C22.5605 5 22.2131 5.2923 22.1445 5.69238L21.4657 9.64973C19.7623 10.0378 18.1472 10.7069 16.6516 11.6427L13.3625 9.32679C13.0315 9.09225 12.5806 9.13218 12.2937 9.41867L9.41868 12.2937C9.13219 12.5801 9.09304 13.0318 9.3268 13.3628L11.6432 16.6515C10.7069 18.1471 10.0382 19.7618 9.64974 21.466L5.69238 22.1448C5.29231 22.2134 5 22.56 5 22.9662V27.033C5 27.4392 5.2923 27.7858 5.692 27.854L9.64975 28.5336C10.0382 30.2371 10.7069 31.8514 11.6432 33.3482L9.32681 36.6368C9.09343 36.9679 9.1322 37.4195 9.41869 37.7059L12.2937 40.5809C12.5806 40.8682 13.0322 40.9081 13.3628 40.6728L16.6511 38.3561C18.1467 39.2927 19.7618 39.9618 21.4656 40.3499L22.1444 44.3072C22.2134 44.7077 22.5604 45 22.9663 45H27.0333C27.4388 45 27.7862 44.7077 27.8548 44.3076L28.5336 40.3503C30.2374 39.9622 31.8524 39.2931 33.3485 38.3565L36.6368 40.6732C36.9682 40.9085 37.4206 40.8686 37.7059 40.5813L40.5805 37.7063C40.867 37.4198 40.9062 36.9682 40.6724 36.6372L38.356 33.3485C39.2923 31.8521 39.961 30.2374 40.3495 28.534L44.308 27.8544C44.7077 27.7854 45 27.4389 45 27.0326V22.9659C45 22.56 44.7073 22.2134 44.3072 22.1452H44.3074ZM43.3336 26.3305L39.5088 26.9872C39.1661 27.0457 38.8959 27.3121 38.8312 27.6536C38.476 29.5303 37.7453 31.2953 36.6598 32.8991C36.4656 33.1864 36.4694 33.5632 36.6687 33.8462L38.9064 37.0228L37.0234 38.9062L33.8468 36.6681C33.563 36.4681 33.1862 36.4654 32.8997 36.6592C31.2955 37.7447 29.5305 38.4755 27.653 38.8313C27.3111 38.8957 27.0455 39.1659 26.9866 39.5094L26.3306 43.3333H23.6689L23.013 39.5094C22.954 39.1659 22.6881 38.8957 22.3466 38.8313C20.4687 38.4758 18.704 37.7451 17.1002 36.6592C16.8137 36.4654 16.4369 36.4681 16.1531 36.6681L12.9765 38.9069L11.0932 37.0229L13.3308 33.8467C13.5301 33.5633 13.534 33.1869 13.3398 32.8996C12.2546 31.2954 11.5239 29.5304 11.1684 27.6541C11.1037 27.3122 10.8335 27.0462 10.4908 26.9877L6.66679 26.3306V23.6685L10.4908 23.0125C10.8338 22.954 11.1041 22.6888 11.1688 22.3461C11.5243 20.4686 12.2546 18.7036 13.3402 17.1006C13.5344 16.8141 13.5309 16.4365 13.3312 16.1535L11.0936 12.9773L12.9772 11.0933L16.1538 13.3313C16.4365 13.5314 16.8136 13.5333 17.1005 13.3402C18.7047 12.2547 20.4698 11.5248 22.3469 11.1689C22.6888 11.1045 22.9544 10.8343 23.0133 10.4908L23.6688 6.66688H26.3302L26.9861 10.4908C27.045 10.8343 27.311 11.1045 27.6525 11.1689C29.5296 11.5244 31.2947 12.2544 32.8992 13.3402C33.1861 13.5333 33.5633 13.5314 33.8459 13.3313L37.0225 11.0933L38.9062 12.9769L36.6685 16.1531C36.4693 16.4365 36.4654 16.8141 36.6596 17.1002C37.7447 18.7032 38.4751 20.4686 38.831 22.3457C38.8957 22.6884 39.1659 22.9536 39.509 23.0121L43.3334 23.6685L43.3336 26.3305Z" fill="url(#paint0_linear_5946_22858)"/>
<path d="M32.3832 15.9295C30.3088 14.2377 27.687 13.3057 25.0008 13.3057C22.3145 13.3057 19.6924 14.2377 17.6179 15.9295C14.8783 18.1617 13.3066 21.4682 13.3066 25.0002C13.3066 28.5331 14.8783 31.8387 17.6179 34.0702C19.6919 35.762 22.3141 36.6936 25.0008 36.6936C26.0083 36.6936 27.0066 36.5626 27.9703 36.3094C29.5765 35.8876 31.0868 35.1274 32.3832 34.0699C32.3836 34.0695 32.3836 34.0691 32.3844 34.0687C35.1233 31.8373 36.6942 28.5324 36.6942 25.0003C36.6942 21.4682 35.1229 18.1618 32.3832 15.9296L32.3832 15.9295ZM30.9082 24.1668C30.8392 22.1536 30.5244 20.2978 30.0185 18.7088C30.6426 18.4122 31.2393 18.0586 31.8041 17.6535C33.6486 19.3608 34.7752 21.6686 34.9815 24.1668H30.9082ZM30.0433 33.6663C29.9875 33.6988 29.9332 33.7349 29.8766 33.7663C29.6432 33.8969 29.4056 34.0187 29.1636 34.1296C29.1299 34.1451 29.0946 34.1575 29.0605 34.1726C28.9023 34.2428 28.7411 34.3055 28.5794 34.3676C28.8857 33.9156 29.1675 33.4069 29.4226 32.8464C29.77 33.0185 30.1103 33.2061 30.4387 33.4197C30.3084 33.5046 30.177 33.5876 30.0433 33.6663ZM20.8357 34.1288C20.595 34.0183 20.3581 33.8973 20.1259 33.7671C20.0666 33.7341 20.0096 33.6965 19.9511 33.662C19.8196 33.5849 19.6902 33.5031 19.5618 33.4197C19.8902 33.2061 20.231 33.0181 20.5783 32.846C20.8334 33.4065 21.1152 33.9151 21.4215 34.3676C21.2629 34.3071 21.1051 34.2455 20.9497 34.1765C20.9121 34.1598 20.8733 34.1458 20.8357 34.1288ZM20.1224 16.2341C20.3566 16.1027 20.5954 15.9806 20.8384 15.8693C20.8702 15.855 20.9028 15.8434 20.9346 15.829C21.0951 15.7577 21.2583 15.6941 21.4219 15.6317C21.1152 16.0841 20.8334 16.5927 20.5783 17.1533C20.2309 16.9812 19.8902 16.7935 19.5618 16.5795C19.6956 16.4927 19.8301 16.407 19.9673 16.3268C20.0193 16.2969 20.0697 16.2636 20.1224 16.2341ZM29.1633 15.8697C29.406 15.981 29.6448 16.1031 29.879 16.2341C29.9313 16.2636 29.9821 16.2969 30.034 16.3272C30.1713 16.4074 30.3058 16.4927 30.4395 16.5799C30.1112 16.7935 29.7704 16.9816 29.4231 17.1537C29.168 16.5931 28.8861 16.0845 28.5799 15.6321C28.7431 15.6945 28.9059 15.7577 29.0656 15.8286C29.0978 15.843 29.1312 15.855 29.1633 15.8697ZM27.8848 17.7651C27.2222 17.9632 26.536 18.0903 25.834 18.1469V15.2042C26.5713 15.5969 27.2944 16.4834 27.8848 17.7651ZM24.1674 15.2041V18.1469C23.4653 18.0899 22.7792 17.9631 22.1162 17.765C22.707 16.4834 23.43 15.5968 24.1674 15.2041ZM24.1674 19.8143V24.1666H20.7586C20.826 22.3267 21.109 20.6818 21.5327 19.311C22.3868 19.5769 23.2695 19.7495 24.1674 19.8143ZM24.1674 25.8332V30.1848C23.2695 30.2496 22.3868 30.4221 21.5328 30.688C21.109 29.3176 20.826 27.6727 20.7586 25.8332L24.1674 25.8332ZM24.1674 31.8521V34.7949C23.43 34.4022 22.707 33.516 22.1162 32.2343C22.7791 32.0358 23.4653 31.9091 24.1674 31.8521ZM25.834 34.7949V31.8521C26.5357 31.9091 27.2218 32.0359 27.8848 32.2344C27.2943 33.516 26.5714 34.4022 25.834 34.7949ZM25.834 30.1847V25.8331H29.2424C29.175 27.6726 28.892 29.3174 28.4682 30.6883C27.6142 30.4224 26.7319 30.2495 25.834 30.1847ZM25.834 24.1665V19.8142C26.7318 19.7494 27.6142 19.5769 28.4682 19.311C28.8919 20.6817 29.1753 22.3267 29.2424 24.1666L25.834 24.1665ZM18.1973 17.6532C18.7621 18.058 19.3587 18.4119 19.9829 18.7085C19.4766 20.2976 19.1618 22.1533 19.0928 24.1665H15.0195C15.2257 21.6683 16.3523 19.3605 18.1973 17.6532ZM15.0199 25.8331H19.0931C19.1621 27.8463 19.4769 29.7013 19.9832 31.2903C19.3591 31.5869 18.762 31.9404 18.1972 32.3456C16.3523 30.6391 15.2258 28.3313 15.0199 25.8331ZM31.804 32.3456C31.2392 31.9408 30.6422 31.5873 30.018 31.2907C30.5243 29.7016 30.8391 27.8463 30.9081 25.8331H34.9814C34.7751 28.3313 33.6486 30.6387 31.804 32.3456Z" fill="url(#paint1_linear_5946_22858)"/>
<defs>
<linearGradient id="paint0_linear_5946_22858" x1="0" y1="0" x2="0" y2="1" gradientUnits="objectBoundingBox">
<stop stop-color="#ED3040"/>
<stop offset="1" stop-color="#2D23F4"/>
</linearGradient>
<linearGradient id="paint1_linear_5946_22858" x1="0" y1="0" x2="0" y2="1" gradientUnits="objectBoundingBox">
<stop stop-color="#ED3040"/>
<stop offset="1" stop-color="#2D23F4"/>
</linearGradient>
</defs>
</svg>
