<svg width="50" height="50" viewBox="0 0 50 50" fill="none" xmlns="http://www.w3.org/2000/svg">
<path fill-rule="evenodd" clip-rule="evenodd" d="M43.2801 5.00664C42.7805 4.95166 42.3078 5.24286 42.1364 5.7114C41.1412 8.41908 38.5868 9.19088 36.4289 10.0131C34.7104 10.4635 33.1928 11.4698 32.1163 12.8722C31.4972 13.9529 31.2342 15.1982 31.3634 16.4347C31.4926 17.6707 32.0079 18.8363 32.8374 19.7684C32.3865 21.0017 32.0376 22.2697 31.7946 23.5593C31.7398 23.8456 31.8039 24.1414 31.9717 24.3805C32.1399 24.6192 32.3979 24.7809 32.6878 24.8288C32.9777 24.8767 33.2747 24.8068 33.512 24.6351C33.7489 24.4631 33.9063 24.2038 33.9482 23.9155C34.1207 22.9915 34.3558 22.0803 34.6521 21.1879C36.0306 21.9225 37.6424 22.1002 39.1505 21.6845C40.6585 21.2684 41.9457 20.2909 42.7438 18.9562C44.5595 15.8385 44.7833 9.94985 44.2411 5.93447C44.1745 5.44287 43.7775 5.06022 43.2801 5.00664ZM40.8556 17.8731C40.3231 18.7484 39.4624 19.3784 38.4622 19.6256C37.4616 19.8725 36.403 19.7164 35.5188 19.1911C35.4927 19.1784 35.4683 19.1624 35.4437 19.1482C35.5013 19.0194 35.5635 18.8925 35.6269 18.7637C36.2556 17.2038 37.4148 15.9106 38.9041 15.1083C39.1783 15.0011 39.3969 14.7883 39.5103 14.5188C39.6241 14.2496 39.6227 13.9459 39.5071 13.6771C39.3915 13.4086 39.1711 13.1976 38.8963 13.0922C38.6214 12.9872 38.3151 12.9964 38.0471 13.1185C36.2055 14.0403 34.7315 15.5513 33.8644 17.407C33.3358 16.3017 33.3852 15.01 33.9972 13.9476C34.3872 13.3865 34.9355 12.9524 35.5735 12.6995C36.4388 12.2806 37.4488 11.9447 38.4582 11.54C39.8771 11.0306 41.1858 10.2602 42.3167 9.26997C42.5582 12.2174 42.0569 15.1784 40.8569 17.8861L40.8556 17.8731Z" fill="url(#paint0_linear_5946_22866)"/>
<path fill-rule="evenodd" clip-rule="evenodd" d="M40.332 22.0889C39.7476 22.2212 39.3801 22.7955 39.5082 23.3758C39.689 24.1756 39.8074 24.9882 39.8632 25.8058H31.3129C31.1686 19.6356 29.7855 14.3204 27.8513 11.4302C28.3848 11.5671 28.9105 11.7321 29.4262 11.9247C29.9902 12.1343 30.619 11.8512 30.8304 11.2923C31.0419 10.7333 30.7563 10.11 30.1924 9.90047C26.3811 8.4877 22.2035 8.37529 18.3203 9.58089C14.4375 10.7861 11.0711 13.241 8.75413 16.5558C6.43735 19.8711 5.30181 23.8571 5.52837 27.8841C5.75454 31.9106 7.3291 35.7473 10.0031 38.7865C12.6771 41.8263 16.2975 43.8952 20.2912 44.6659C24.2849 45.4366 28.4242 44.8652 32.0533 43.0421C35.6827 41.2186 38.5946 38.2477 40.3285 34.5994C42.0627 30.9511 42.5193 26.8339 41.6264 22.8989C41.4904 22.3236 40.9147 21.9633 40.332 22.0889ZM29.1306 25.816H18.4339C18.4751 23.6787 18.6901 21.5484 19.0773 19.4458H28.4814C28.8704 21.5484 29.0876 23.6787 29.1306 25.816ZM29.1306 27.9804C29.0873 30.1153 28.87 32.243 28.4814 34.3431H19.0774C18.6891 32.243 18.4726 30.1149 18.4297 27.9804H29.1306ZM22.4682 11.5191C22.8168 11.1659 23.2849 10.9534 23.7823 10.9229C24.2798 10.9534 24.7482 11.1659 25.0964 11.5191C25.7288 12.1246 26.2448 12.8393 26.6195 13.6278C27.2021 14.7972 27.6601 16.0237 27.9869 17.2875H19.5764C19.9024 16.0237 20.3605 14.7968 20.9438 13.6278C21.3185 12.8386 21.8348 12.1242 22.4682 11.5191ZM19.7048 11.4404C18.5959 13.2469 17.7953 15.2224 17.3365 17.2875H10.9093C13.0945 14.4135 16.1932 12.3534 19.7048 11.4404ZM9.52029 19.4461H16.8761C16.5057 21.5487 16.2964 23.6765 16.2502 25.8103H7.69986C7.84944 23.586 8.46961 21.4175 9.52029 19.4461ZM9.52029 34.3374C8.47032 32.3685 7.85019 30.2024 7.69986 27.9802H16.2488C16.2953 30.1137 16.5043 32.2408 16.8747 34.343L9.52029 34.3374ZM10.9078 36.5017H17.3349C17.7941 38.5678 18.5942 40.5441 19.7033 42.3516C16.1923 41.4383 13.0943 39.379 10.9092 36.506L10.9078 36.5017ZM25.0949 42.27C24.7467 42.6236 24.2782 42.8361 23.7808 42.8662C23.2833 42.8361 22.8149 42.6236 22.4667 42.27C21.8351 41.6691 21.3187 40.9587 20.9436 40.1745C20.3607 39.004 19.9023 37.7765 19.5762 36.512H27.9881C27.6614 37.7761 27.2029 39.0036 26.6207 40.1745C26.2446 40.9601 25.7274 41.6716 25.0948 42.2743L25.0949 42.27ZM27.8583 42.3516C28.9672 40.5441 29.7675 38.5677 30.2266 36.5017H36.6524C34.4691 39.3782 31.3708 41.4407 27.8584 42.3558L27.8583 42.3516ZM38.0401 34.3388H30.6842C31.055 32.2366 31.2636 30.1095 31.3087 27.976H39.8619C39.7141 30.2017 39.0936 32.3713 38.0415 34.3431L38.0401 34.3388Z" fill="url(#paint1_linear_5946_22866)"/>
<defs>
<linearGradient id="paint0_linear_5946_22866" x1="37.3459" y1="33.6397" x2="37.3459" y2="41.6506" gradientUnits="userSpaceOnUse">
<stop stop-color="#ED3040"/>
<stop offset="1" stop-color="#2D23F4"/>
</linearGradient>
<linearGradient id="paint1_linear_5946_22866" x1="37.3459" y1="33.6397" x2="37.3459" y2="41.6506" gradientUnits="userSpaceOnUse">
<stop stop-color="#ED3040"/>
<stop offset="1" stop-color="#2D23F4"/>
</linearGradient>
</defs>
</svg>
