<svg width="50" height="50" viewBox="0 0 50 50" fill="none" xmlns="http://www.w3.org/2000/svg">
<path fill-rule="evenodd" clip-rule="evenodd" d="M45 25.0003C45 24.5912 44.6681 24.2593 44.2594 24.2593H5.74065C5.33191 24.2593 5 24.5912 5 25.0003C5 36.039 13.9616 45 25.0004 45C36.0391 45 44.9998 36.0386 44.9998 25.0003H45ZM43.5037 25.741C43.1141 35.6194 34.9721 43.519 25.0004 43.519C15.028 43.519 6.88667 35.6195 6.49711 25.741H43.5037Z" fill="url(#paint0_linear_5946_22848)"/>
<path fill-rule="evenodd" clip-rule="evenodd" d="M33.1485 35.3709C33.1485 35.1739 33.2271 34.9857 33.365 34.8464C33.5043 34.7085 33.6921 34.6302 33.8891 34.6302H41.9635C42.3722 34.6302 42.7041 34.2983 42.7041 33.8892C42.7041 33.4805 42.3722 33.1486 41.9635 33.1486H33.8891C33.2995 33.1486 32.7353 33.3827 32.3174 33.7992C31.9013 34.2167 31.6672 34.7814 31.6672 35.3709" fill="url(#paint1_linear_5946_22848)"/>
<path fill-rule="evenodd" clip-rule="evenodd" d="M31.6674 35.3709C31.6674 35.7796 31.3355 36.1116 30.9267 36.1116H29.4451C28.2185 36.1116 27.2228 37.1073 27.2228 38.3339V39.0745C27.2228 39.6641 27.4569 40.2288 27.8734 40.6463C28.2909 41.0627 28.8556 41.2969 29.4451 41.2969H36.3516C36.7607 41.2969 37.0923 40.965 37.0923 40.5562C37.0923 40.1471 36.7607 39.8152 36.3516 39.8152H29.4451C29.2481 39.8152 29.0599 39.7369 28.9206 39.5991C28.7827 39.4597 28.7044 39.2715 28.7044 39.0745V38.3339C28.7044 37.9248 29.0363 37.5932 29.4451 37.5932H30.9267C32.1533 37.5932 33.1486 36.5975 33.1486 35.3709" fill="url(#paint2_linear_5946_22848)"/>
<path fill-rule="evenodd" clip-rule="evenodd" d="M9.82269 37.5926H19.0005C19.59 37.5926 20.1561 37.3584 20.5725 36.942C20.9886 36.5244 21.2228 35.9598 21.2228 35.3702V34.6296C21.2228 33.4026 20.2285 32.4072 19.0005 32.4072H17.5163C17.3207 32.4072 17.134 32.3301 16.9947 32.1911C16.8569 32.0533 16.7782 31.8651 16.7782 31.6695V31.6681C16.7782 31.0785 16.5444 30.5124 16.1265 30.096C15.7086 29.6799 15.1429 29.4472 14.5533 29.4487L6.45397 29.4711C6.04523 29.4711 5.71479 29.8041 5.71479 30.2132C5.71626 30.6219 6.04965 30.9524 6.45838 30.9524L14.5577 30.9303C14.7532 30.9289 14.9414 31.0072 15.0808 31.145C15.2197 31.2843 15.2969 31.471 15.2969 31.6681V31.6695C15.2969 32.2576 15.531 32.8222 15.9471 33.2383C16.3636 33.6548 16.9282 33.8886 17.5163 33.8886H19.0005C19.4096 33.8886 19.7411 34.2205 19.7411 34.6296V35.3703C19.7411 35.5673 19.6643 35.7555 19.525 35.8948C19.3857 36.0326 19.1975 36.1109 19.0005 36.1109H9.8227C9.41396 36.1109 9.08205 36.4428 9.08205 36.8516C9.08205 37.2607 9.41395 37.5926 9.82269 37.5926Z" fill="url(#paint3_linear_5946_22848)"/>
<path fill-rule="evenodd" clip-rule="evenodd" d="M27.3502 24.7942C27.2701 25.0684 27.2226 25.3823 27.2226 25.741C27.2226 25.741 27.2226 28.704 30.1856 28.704H34.1442C34.7323 28.704 35.2981 28.9382 35.7145 29.3543L36.9426 30.5823C37.6377 31.2774 38.5783 31.667 39.5604 31.667H43.3295C43.7382 31.667 44.0701 31.3351 44.0701 30.9264C44.0701 30.5172 43.7382 30.1853 43.3295 30.1853H39.5604C38.9723 30.1853 38.4062 29.9512 37.9901 29.5351L36.762 28.307C36.067 27.6119 35.1263 27.2223 34.1442 27.2223H30.1856C28.7043 27.2223 28.7043 25.741 28.7043 25.741C28.7043 25.5381 28.7278 25.3602 28.7723 25.2062C28.8866 24.8136 28.6598 24.4016 28.2673 24.2891C27.8747 24.1752 27.4627 24.4017 27.3502 24.7942Z" fill="url(#paint4_linear_5946_22848)"/>
<path fill-rule="evenodd" clip-rule="evenodd" d="M36.1116 25.0003V13.9381C36.1116 13.5293 35.7797 13.1974 35.3709 13.1974C34.9622 13.1974 34.6303 13.5293 34.6303 13.9381V25.0003C34.6303 25.409 34.9622 25.741 35.3709 25.741C35.7797 25.741 36.1116 25.409 36.1116 25.0003Z" fill="url(#paint5_linear_5946_22848)"/>
<path fill-rule="evenodd" clip-rule="evenodd" d="M33.2802 10.8178C32.8387 11.1956 32.5914 11.6874 32.5914 12.191C32.5914 12.477 32.6682 12.7571 32.8134 13.0148C32.1558 13.4978 31.7764 14.1616 31.7764 14.8534C31.7764 15.2904 31.9231 15.7127 32.1944 16.0859C31.2162 16.7126 30.6359 17.6208 30.6359 18.581C30.6359 19.3602 31.0002 20.0921 31.6552 20.6758C32.4951 21.4238 33.8433 21.9322 35.3705 21.9322C36.8977 21.9322 38.246 21.4239 39.0858 20.6758C39.7409 20.0921 40.1051 19.3603 40.1051 18.581C40.1051 17.6209 39.5244 16.7127 38.5467 16.0859C38.8179 15.7128 38.9646 15.2904 38.9646 14.8534C38.9646 14.1616 38.5853 13.4978 37.9276 13.0133C38.0728 12.7571 38.1497 12.477 38.1497 12.191C38.1497 11.6874 37.9023 11.1956 37.4608 10.8177C37.5303 10.6486 37.5674 10.4696 37.5674 10.2888C37.5674 9.87711 37.3851 9.48417 37.037 9.17466C36.6592 8.83834 36.0579 8.59831 35.3705 8.59831C34.6831 8.59831 34.0814 8.83834 33.7039 9.17466C33.3558 9.48416 33.1735 9.87709 33.1735 10.2888C33.1735 10.4696 33.2107 10.6487 33.2802 10.8178ZM36.052 10.2903C36.0237 10.3157 35.987 10.348 35.9542 10.366C35.6995 10.5083 35.5529 10.7865 35.5779 11.0784C35.6047 11.3687 35.8002 11.6176 36.0755 11.7124C36.2759 11.7808 36.449 11.8771 36.5677 12.0013C36.621 12.0591 36.6684 12.1201 36.6684 12.191C36.6684 12.3524 36.5082 12.4593 36.3336 12.5571C36.0789 12.6994 35.9303 12.9776 35.9572 13.2695C35.984 13.5598 36.1781 13.8087 36.4549 13.9035C37.0195 14.0976 37.483 14.4075 37.483 14.8534C37.483 15.1765 37.2121 15.4282 36.8625 15.6238C36.6074 15.766 36.4608 16.0458 36.4861 16.3361C36.5126 16.6265 36.7081 16.8754 36.9838 16.9702C37.9127 17.2889 38.6239 17.8491 38.6239 18.5809C38.6239 18.9555 38.4152 19.2888 38.1009 19.5689C37.4859 20.1155 36.4876 20.4504 35.3706 20.4504C34.2535 20.4504 33.2549 20.1155 32.6402 19.5689C32.326 19.2888 32.1172 18.9555 32.1172 18.5809C32.1172 17.8491 32.8284 17.2889 33.7573 16.9702C34.0326 16.8754 34.2282 16.6265 34.255 16.3361C34.2804 16.0458 34.1337 15.766 33.8786 15.6238C33.5291 15.4282 33.2578 15.1765 33.2578 14.8534C33.2578 14.4075 33.7216 14.0976 34.2863 13.9035C34.563 13.8087 34.7571 13.5599 34.784 13.2695C34.8104 12.9776 34.6623 12.6994 34.4076 12.5571C34.233 12.4593 34.0727 12.3524 34.0727 12.191C34.0727 12.1201 34.1201 12.0591 34.1734 12.0013C34.2921 11.8771 34.4653 11.7808 34.6652 11.7124C34.9409 11.6176 35.1364 11.3688 35.1633 11.0784C35.1883 10.7865 35.0416 10.5083 34.7869 10.366C34.7542 10.348 34.7174 10.3157 34.6891 10.2903C34.7262 10.2591 34.7825 10.2131 34.8314 10.1896C34.9824 10.1183 35.1692 10.08 35.3706 10.08C35.572 10.08 35.7587 10.1183 35.9098 10.1896C35.9587 10.2131 36.0149 10.2591 36.052 10.2903Z" fill="url(#paint6_linear_5946_22848)"/>
<path fill-rule="evenodd" clip-rule="evenodd" d="M35.7023 20.5466L37.0031 19.8964C37.3688 19.7141 37.5169 19.2682 37.3346 18.9021C37.1512 18.5364 36.7064 18.3883 36.3407 18.5717L35.0384 19.2223C34.6742 19.4046 34.5246 19.8505 34.708 20.2162C34.8903 20.5808 35.3362 20.7304 35.7023 20.5466Z" fill="url(#paint7_linear_5946_22848)"/>
<path fill-rule="evenodd" clip-rule="evenodd" d="M35.7023 17.9203L34.4 17.2701C34.0339 17.0878 33.5895 17.2359 33.4061 17.6016C33.2238 17.9677 33.3719 18.4121 33.7376 18.5959L35.0384 19.2461C35.4045 19.4284 35.8504 19.2803 36.0327 18.9142C36.2161 18.5485 36.0665 18.1041 35.7023 17.9203Z" fill="url(#paint8_linear_5946_22848)"/>
<path fill-rule="evenodd" clip-rule="evenodd" d="M24.2591 25.0003V10.7011C24.2591 10.2938 23.9275 9.96042 23.5184 9.96042C23.1097 9.96042 22.7778 10.2938 22.7778 10.7011V25.0003C22.7778 25.409 23.1097 25.741 23.5184 25.741C23.9275 25.741 24.2591 25.409 24.2591 25.0003Z" fill="url(#paint9_linear_5946_22848)"/>
<path fill-rule="evenodd" clip-rule="evenodd" d="M21.3797 7.5469C20.8894 7.97034 20.6063 8.53493 20.6063 9.12888C20.6063 9.49058 20.71 9.84014 20.8997 10.1526C20.1708 10.7006 19.7381 11.4681 19.7381 12.2904C19.7381 12.834 19.9249 13.3527 20.2612 13.7985C19.1798 14.5127 18.5219 15.5706 18.5219 16.7171C18.5219 18.763 20.7071 20.5556 23.5189 20.5556C26.3308 20.5556 28.516 18.763 28.516 16.7171C28.516 15.5706 27.858 14.5127 26.7767 13.7985C27.113 13.3527 27.2997 12.834 27.2997 12.2904C27.2997 11.4681 26.8671 10.7006 26.1368 10.1526C26.3279 9.84015 26.4316 9.49058 26.4316 9.12888C26.4316 8.53489 26.1485 7.97034 25.6582 7.5469C25.7574 7.33481 25.8107 7.10508 25.8107 6.86983C25.8107 5.90975 24.8389 5 23.519 5C22.1991 5 21.2272 5.90975 21.2272 6.86983C21.2272 7.10508 21.2805 7.33481 21.3797 7.5469ZM22.7754 8.41951C23.0389 8.3199 23.2212 8.07877 23.2481 7.79868C23.276 7.51858 23.1411 7.24732 22.9025 7.09919C22.8048 7.03854 22.7085 6.972 22.7085 6.86982C22.7085 6.78528 22.7827 6.72611 22.8584 6.67133C23.0272 6.54819 23.2628 6.48167 23.5189 6.48167C23.7751 6.48167 24.0108 6.5482 24.1798 6.67133C24.2552 6.7261 24.3294 6.78527 24.3294 6.86982C24.3294 6.972 24.2331 7.03854 24.1354 7.09919C23.8968 7.24732 23.7619 7.51858 23.7902 7.79868C23.8167 8.07877 23.999 8.3199 24.2625 8.41951C24.6374 8.56286 24.9502 8.79848 24.9502 9.12893C24.9502 9.36601 24.7694 9.55715 24.5382 9.70087C24.2996 9.849 24.1647 10.1203 24.1931 10.4C24.2199 10.6801 24.4018 10.9216 24.6657 11.0208C25.316 11.2712 25.8181 11.7185 25.8181 12.2904C25.8181 12.7201 25.5189 13.0829 25.1028 13.3438C24.8642 13.492 24.7293 13.7629 24.7576 14.043C24.7841 14.3231 24.9664 14.5631 25.2299 14.6638C26.2672 15.0608 27.0343 15.8044 27.0343 16.717C27.0343 17.2059 26.8006 17.6532 26.4315 18.0208C25.7754 18.671 24.7117 19.0742 23.5189 19.0742C22.3265 19.0742 21.2628 18.671 20.6064 18.0208C20.2377 17.6532 20.0036 17.2059 20.0036 16.717C20.0036 15.8043 20.771 15.0607 21.808 14.6638C22.0715 14.5631 22.2538 14.3231 22.2807 14.043C22.3086 13.7629 22.1737 13.492 21.9355 13.3438C21.519 13.0829 21.2198 12.7201 21.2198 12.2904C21.2198 11.7185 21.7219 11.2711 22.3725 11.0208C22.6361 10.9216 22.8184 10.6801 22.8449 10.4C22.8732 10.1203 22.7383 9.849 22.4997 9.70087C22.2685 9.55715 22.088 9.36601 22.088 9.12893C22.088 8.79849 22.4004 8.56287 22.7754 8.41951Z" fill="url(#paint10_linear_5946_22848)"/>
<path fill-rule="evenodd" clip-rule="evenodd" d="M23.846 18.8359L25.5496 17.9942C25.9154 17.8137 26.0668 17.3693 25.8845 17.0017C25.7036 16.636 25.2593 16.4845 24.8932 16.6654L23.191 17.5068C22.8238 17.6876 22.6727 18.132 22.8546 18.4996C23.0355 18.8653 23.4799 19.0167 23.846 18.8359Z" fill="url(#paint11_linear_5946_22848)"/>
<path fill-rule="evenodd" clip-rule="evenodd" d="M23.846 15.8257L22.1438 14.9843C21.7777 14.8035 21.3333 14.9531 21.1525 15.3203C20.9705 15.6864 21.1216 16.1308 21.4873 16.3116L23.191 17.153C23.557 17.3338 24.0014 17.1842 24.1823 16.8166C24.3646 16.4509 24.2132 16.0065 23.846 15.8257Z" fill="url(#paint12_linear_5946_22848)"/>
<path fill-rule="evenodd" clip-rule="evenodd" d="M13.8896 25.0003V20.9335C13.8896 20.5247 13.5577 20.1928 13.1489 20.1928C12.7398 20.1928 12.4083 20.5247 12.4083 20.9335V25.0003C12.4083 25.409 12.7398 25.741 13.1489 25.741C13.5577 25.741 13.8896 25.409 13.8896 25.0003Z" fill="url(#paint13_linear_5946_22848)"/>
<path fill-rule="evenodd" clip-rule="evenodd" d="M13.7814 15.4371C13.6479 15.2147 13.4079 15.0801 13.1488 15.0801C12.8893 15.0801 12.6496 15.2147 12.5162 15.4371C12.5162 15.4371 11.491 17.126 10.8761 18.5365C10.5695 19.24 10.374 19.8907 10.374 20.295C10.374 21.8252 11.6182 23.0684 13.1487 23.0684C14.6789 23.0684 15.9235 21.8252 15.9235 20.295C15.9235 19.8907 15.7279 19.2401 15.4214 18.5365C14.8064 17.1261 13.7812 15.4371 13.7812 15.4371H13.7814ZM13.1488 17.3065C13.448 17.8491 13.7975 18.5169 14.0644 19.1289C14.2702 19.6002 14.4419 20.0236 14.4419 20.2949C14.4419 21.0073 13.8626 21.5866 13.1488 21.5866C12.4346 21.5866 11.8553 21.0073 11.8553 20.2949C11.8553 20.0236 12.0274 19.6002 12.2332 19.1289C12.4997 18.5169 12.8496 17.849 13.1488 17.3065Z" fill="url(#paint14_linear_5946_22848)"/>
<defs>
<linearGradient id="paint0_linear_5946_22848" x1="0" y1="0" x2="0" y2="1" gradientUnits="objectBoundingBox">
<stop stop-color="#ED3040"/>
<stop offset="1" stop-color="#2D23F4"/>
</linearGradient>
<linearGradient id="paint1_linear_5946_22848" x1="0" y1="0" x2="0" y2="1" gradientUnits="objectBoundingBox">
<stop stop-color="#ED3040"/>
<stop offset="1" stop-color="#2D23F4"/>
</linearGradient>
<linearGradient id="paint2_linear_5946_22848" x1="0" y1="0" x2="0" y2="1" gradientUnits="objectBoundingBox">
<stop stop-color="#ED3040"/>
<stop offset="1" stop-color="#2D23F4"/>
</linearGradient>
<linearGradient id="paint3_linear_5946_22848" x1="0" y1="0" x2="0" y2="1" gradientUnits="objectBoundingBox">
<stop stop-color="#ED3040"/>
<stop offset="1" stop-color="#2D23F4"/>
</linearGradient>
<linearGradient id="paint4_linear_5946_22848" x1="0" y1="0" x2="0" y2="1" gradientUnits="objectBoundingBox">
<stop stop-color="#ED3040"/>
<stop offset="1" stop-color="#2D23F4"/>
</linearGradient>
<linearGradient id="paint5_linear_5946_22848" x1="0" y1="0" x2="0" y2="1" gradientUnits="objectBoundingBox">
<stop stop-color="#ED3040"/>
<stop offset="1" stop-color="#2D23F4"/>
</linearGradient>
<linearGradient id="paint6_linear_5946_22848" x1="0" y1="0" x2="0" y2="1" gradientUnits="objectBoundingBox">
<stop stop-color="#ED3040"/>
<stop offset="1" stop-color="#2D23F4"/>
</linearGradient>
<linearGradient id="paint7_linear_5946_22848" x1="0" y1="0" x2="0" y2="1" gradientUnits="objectBoundingBox">
<stop stop-color="#ED3040"/>
<stop offset="1" stop-color="#2D23F4"/>
</linearGradient>
<linearGradient id="paint8_linear_5946_22848" x1="0" y1="0" x2="0" y2="1" gradientUnits="objectBoundingBox">
<stop stop-color="#ED3040"/>
<stop offset="1" stop-color="#2D23F4"/>
</linearGradient>
<linearGradient id="paint9_linear_5946_22848" x1="0" y1="0" x2="0" y2="1" gradientUnits="objectBoundingBox">
<stop stop-color="#ED3040"/>
<stop offset="1" stop-color="#2D23F4"/>
</linearGradient>
<linearGradient id="paint10_linear_5946_22848" x1="0" y1="0" x2="0" y2="1" gradientUnits="objectBoundingBox">
<stop stop-color="#ED3040"/>
<stop offset="1" stop-color="#2D23F4"/>
</linearGradient>
<linearGradient id="paint11_linear_5946_22848" x1="0" y1="0" x2="0" y2="1" gradientUnits="objectBoundingBox">
<stop stop-color="#ED3040"/>
<stop offset="1" stop-color="#2D23F4"/>
</linearGradient>
<linearGradient id="paint12_linear_5946_22848" x1="0" y1="0" x2="0" y2="1" gradientUnits="objectBoundingBox">
<stop stop-color="#ED3040"/>
<stop offset="1" stop-color="#2D23F4"/>
</linearGradient>
<linearGradient id="paint13_linear_5946_22848" x1="0" y1="0" x2="0" y2="1" gradientUnits="objectBoundingBox">
<stop stop-color="#ED3040"/>
<stop offset="1" stop-color="#2D23F4"/>
</linearGradient>
<linearGradient id="paint14_linear_5946_22848" x1="0" y1="0" x2="0" y2="1" gradientUnits="objectBoundingBox">
<stop stop-color="#ED3040"/>
<stop offset="1" stop-color="#2D23F4"/>
</linearGradient>
</defs>
</svg>
