<svg width="50" height="50" viewBox="0 0 50 50" fill="none" xmlns="http://www.w3.org/2000/svg">
<path d="M23.2302 19.2508V11.4019H24.1624C24.7672 11.4019 25.2584 10.9026 25.2584 10.2881L25.2587 7.81688C25.2587 7.20229 24.7675 6.70303 24.1628 6.70303L14.2537 6.7027C13.6489 6.7027 13.1577 7.20198 13.1577 7.81655V10.2877C13.1577 10.9023 13.6489 11.4016 14.2537 11.4016H15.1798V19.2505C9.16417 21.0497 5 26.6902 5 33.0988C5 33.2076 5.00645 33.3101 5.00645 33.4126V33.4254C5.00645 33.432 5.01289 33.4382 5.01289 33.4447C5.10122 37.2794 6.63814 40.8392 9.37809 43.5089C10.0711 44.1874 10.9783 44.559 11.9291 44.559H26.4924C27.4437 44.559 28.3508 44.1878 29.0435 43.5089C31.8656 40.756 33.4152 37.0557 33.4152 33.0925C33.4152 26.69 29.2453 21.0499 23.2296 19.2509L23.2302 19.2508ZM14.1026 10.2878V7.81663C14.1026 7.73342 14.1719 7.66298 14.2537 7.66298H24.162C24.2439 7.66298 24.3132 7.73342 24.3132 7.81663V10.2878C24.3132 10.371 24.2439 10.4415 24.162 10.4415H14.2537C14.1657 10.4415 14.1026 10.371 14.1026 10.2878ZM28.3828 42.8169C27.86 43.3227 27.1859 43.5979 26.4867 43.5979H11.9226C11.217 43.5979 10.5429 43.3228 10.0265 42.8169C7.59504 40.4418 6.19029 37.3111 5.98877 33.9311C6.91491 34.0081 7.45641 34.296 8.01697 34.5968C8.71615 34.9745 9.50978 35.3971 10.9964 35.3971C12.4831 35.3971 13.2641 34.9683 13.9572 34.5968C14.6061 34.2446 15.2234 33.9117 16.4705 33.9117C17.7176 33.9117 18.335 34.2446 18.9838 34.5968C19.6769 34.9745 20.4579 35.3971 21.9446 35.3971C23.4313 35.3971 24.2188 34.9683 24.9054 34.5968C25.5543 34.2446 26.1716 33.9117 27.4187 33.9117C28.6659 33.9117 29.2645 34.2446 29.8944 34.5968C30.4801 34.9234 31.1354 35.2884 32.2691 35.3778C31.7965 38.2015 30.4675 40.7876 28.3825 42.8172L28.3828 42.8169ZM32.4015 34.4242C31.4316 34.3603 30.9023 34.0658 30.3478 33.752C29.6738 33.3742 28.9053 32.9454 27.4186 32.9454C25.9319 32.9454 25.151 33.3742 24.4579 33.7458C23.809 34.0979 23.1917 34.4308 21.9381 34.4308C20.691 34.4308 20.0736 34.0979 19.4248 33.7458C18.7317 33.368 17.9507 32.9454 16.464 32.9454C14.9773 32.9454 14.1963 33.3742 13.5032 33.7458C12.8543 34.0979 12.237 34.4308 10.9899 34.4308C9.7363 34.4308 9.11285 34.0979 8.45136 33.7392C7.82762 33.4063 7.13491 33.0348 5.94413 32.9582C6.00086 26.9147 10.0196 21.6267 15.7649 20.071C15.9729 20.0133 16.1176 19.8276 16.1176 19.61L16.1182 11.4025H22.285V19.6163C22.285 19.8339 22.4298 20.0262 22.6377 20.0773C28.4267 21.6459 32.4643 26.9981 32.4643 33.0928C32.4707 33.5475 32.4456 33.9892 32.4014 34.4245L32.4015 34.4242Z" fill="url(#paint0_linear_5946_22872)"/>
<path d="M23.7022 24.1999H20.9684V21.4214C20.9684 21.159 20.7544 20.9411 20.4958 20.9411H17.9193C17.6611 20.9411 17.4467 21.1586 17.4467 21.4214V24.1999H14.7129C14.4547 24.1999 14.2403 24.4174 14.2403 24.6801V27.2988C14.2403 27.5612 14.4544 27.779 14.7129 27.779H17.4467V30.5575C17.4467 30.8199 17.6608 31.0378 17.9193 31.0378H20.4958C20.754 31.0378 20.9684 30.8202 20.9684 30.5575V27.779H23.7022C23.9604 27.779 24.1748 27.5615 24.1748 27.2988V24.6801C24.1748 24.4174 23.9604 24.1999 23.7022 24.1999ZM23.2297 26.8181H20.4958C20.2376 26.8181 20.0233 27.0357 20.0233 27.2984V30.0769H18.3918V27.2984C18.3918 27.036 18.1778 26.8181 17.9193 26.8181H15.1854V25.1601H17.9193C18.1775 25.1601 18.3918 24.9425 18.3918 24.6798V21.9013H20.0233V24.6798C20.0233 24.9422 20.2373 25.1601 20.4958 25.1601H23.2297V26.8181Z" fill="url(#paint1_linear_5946_22872)"/>
<path d="M43.8662 16.7155H34.8896C34.2659 16.7155 33.7556 17.2341 33.7556 17.868V20.9921C33.7556 21.626 34.2659 22.1446 34.8896 22.1446H35.0218V40.5763C35.0218 43.0154 36.9745 45 39.3744 45C41.7807 45 43.7335 43.0154 43.7335 40.5763L43.7338 22.1446H43.866C44.4897 22.1446 45 21.626 45 20.9921V17.868C45 17.2344 44.4897 16.7158 43.866 16.7158L43.8662 16.7155ZM39.3749 44.0397C37.4979 44.0397 35.9671 42.4839 35.9671 40.5762V31.869H42.7892V40.5695C42.7889 42.4837 41.2584 44.0395 39.3749 44.0395V44.0397ZM42.7889 30.9093H35.9671V22.1451H42.7892L42.7889 30.9093ZM44.0551 20.9927C44.0551 21.0953 43.9732 21.1847 43.8662 21.1847H34.8896C34.7887 21.1847 34.7007 21.1015 34.7007 20.9927V17.8686C34.7007 17.7661 34.7826 17.6767 34.8896 17.6767H43.8662C43.9671 17.6767 44.0551 17.7599 44.0551 17.8686V20.9927Z" fill="url(#paint2_linear_5946_22872)"/>
<path d="M34.5059 12.5548C35.7405 12.5548 36.7485 11.5369 36.7485 10.2821C36.7485 9.02735 35.7469 8.0029 34.5059 8.0029C33.2713 8.0029 32.2759 9.02081 32.2759 10.2821C32.2759 11.5365 33.2775 12.5548 34.5059 12.5548ZM34.5059 8.9694C35.2176 8.9694 35.8037 9.55844 35.8037 10.2884C35.8037 11.0118 35.2241 11.6008 34.5059 11.6008C33.7941 11.6008 33.2207 11.0117 33.2207 10.2884C33.221 9.55848 33.7942 8.9694 34.5059 8.9694Z" fill="url(#paint3_linear_5946_22872)"/>
<path d="M39.7088 14.68C40.9434 14.68 41.945 13.6621 41.945 12.4073C41.945 11.1526 40.9434 10.1281 39.7088 10.1281C38.4742 10.1281 37.4727 11.146 37.4727 12.4073C37.4791 13.6621 38.4807 14.68 39.7088 14.68ZM39.7088 11.095C40.4206 11.095 41.0001 11.684 41.0001 12.4139C41.0001 13.1373 40.4205 13.7263 39.7088 13.7263C38.9971 13.7263 38.4175 13.1373 38.4175 12.4139C38.424 11.684 39.0036 11.095 39.7088 11.095Z" fill="url(#paint4_linear_5946_22872)"/>
<path d="M42.2851 9.54557C43.5197 9.54557 44.5277 8.52766 44.5277 7.2792C44.5277 6.02445 43.5262 5 42.2851 5C41.0505 5 40.049 6.02445 40.049 7.2792C40.0551 8.52775 41.0566 9.54557 42.2851 9.54557ZM42.2851 5.96054C42.9969 5.96054 43.5829 6.54958 43.5829 7.27954C43.5829 8.0029 43.0034 8.59191 42.2851 8.59191C41.5734 8.59191 40.9938 8.00287 40.9938 7.27954C41.0003 6.55585 41.5734 5.96054 42.2851 5.96054Z" fill="url(#paint5_linear_5946_22872)"/>
<path d="M16.2753 35.2428C15.3747 35.2428 14.6439 35.9917 14.6439 36.9074C14.6439 37.8227 15.3747 38.5655 16.2753 38.5655C17.176 38.5655 17.9132 37.8228 17.9132 36.9074C17.9132 35.9855 17.1763 35.2428 16.2753 35.2428ZM16.2753 37.6052C15.8972 37.6052 15.5887 37.2913 15.5887 36.9074C15.5887 36.5169 15.8976 36.203 16.2753 36.203C16.6596 36.203 16.9684 36.5169 16.9684 36.9074C16.9684 37.2917 16.6535 37.6052 16.2753 37.6052Z" fill="url(#paint6_linear_5946_22872)"/>
<path d="M12.2005 38.7896C11.2998 38.7896 10.569 39.5385 10.569 40.4542C10.569 41.3695 11.2998 42.1123 12.2005 42.1123C13.1011 42.1123 13.8383 41.3696 13.8383 40.4542C13.8383 39.5388 13.1011 38.7896 12.2005 38.7896ZM12.2005 41.152C11.8223 41.152 11.5139 40.8381 11.5139 40.4542C11.5139 40.0637 11.8227 39.7498 12.2005 39.7498C12.5847 39.7498 12.8935 40.0637 12.8935 40.4542C12.8932 40.8384 12.5782 41.152 12.2005 41.152Z" fill="url(#paint7_linear_5946_22872)"/>
<path d="M20.8429 38.7007C19.9422 38.7007 19.2114 39.4496 19.2114 40.3653C19.2114 41.2806 19.9422 42.0234 20.8429 42.0234C21.7435 42.0234 22.4808 41.2807 22.4808 40.3653C22.4808 39.4496 21.7439 38.7007 20.8429 38.7007ZM20.8429 41.0631C20.4648 41.0631 20.1563 40.7492 20.1563 40.3653C20.1563 39.9748 20.4651 39.6609 20.8429 39.6609C21.2271 39.6609 21.5359 39.9748 21.5359 40.3653C21.5359 40.7492 21.2271 41.0631 20.8429 41.0631Z" fill="url(#paint8_linear_5946_22872)"/>
<path d="M25.4162 36.1972C24.5156 36.1972 23.7848 36.9461 23.7848 37.8618C23.7848 38.7771 24.5155 39.5199 25.4162 39.5199C26.3168 39.5199 27.0541 38.7772 27.0541 37.8618C27.0479 36.9461 26.3172 36.1972 25.4162 36.1972ZM25.4162 38.5596C25.0381 38.5596 24.7296 38.2458 24.7296 37.8618C24.7296 37.4713 25.0384 37.1574 25.4162 37.1574C25.8004 37.1574 26.1092 37.4713 26.1092 37.8618C26.1028 38.2458 25.7943 38.5596 25.4162 38.5596Z" fill="url(#paint9_linear_5946_22872)"/>
<defs>
<linearGradient id="paint0_linear_5946_22872" x1="0" y1="0" x2="0" y2="1" gradientUnits="objectBoundingBox">
<stop stop-color="#ED3040"/>
<stop offset="1" stop-color="#2D23F4"/>
</linearGradient>
<linearGradient id="paint1_linear_5946_22872" x1="0" y1="0" x2="0" y2="1" gradientUnits="objectBoundingBox">
<stop stop-color="#ED3040"/>
<stop offset="1" stop-color="#2D23F4"/>
</linearGradient>
<linearGradient id="paint2_linear_5946_22872" x1="0" y1="0" x2="0" y2="1" gradientUnits="objectBoundingBox">
<stop stop-color="#ED3040"/>
<stop offset="1" stop-color="#2D23F4"/>
</linearGradient>
<linearGradient id="paint3_linear_5946_22872" x1="0" y1="0" x2="0" y2="1" gradientUnits="objectBoundingBox">
<stop stop-color="#ED3040"/>
<stop offset="1" stop-color="#2D23F4"/>
</linearGradient>
<linearGradient id="paint4_linear_5946_22872" x1="0" y1="0" x2="0" y2="1" gradientUnits="objectBoundingBox">
<stop stop-color="#ED3040"/>
<stop offset="1" stop-color="#2D23F4"/>
</linearGradient>
<linearGradient id="paint5_linear_5946_22872" x1="0" y1="0" x2="0" y2="1" gradientUnits="objectBoundingBox">
<stop stop-color="#ED3040"/>
<stop offset="1" stop-color="#2D23F4"/>
</linearGradient>
<linearGradient id="paint6_linear_5946_22872" x1="0" y1="0" x2="0" y2="1" gradientUnits="objectBoundingBox">
<stop stop-color="#ED3040"/>
<stop offset="1" stop-color="#2D23F4"/>
</linearGradient>
<linearGradient id="paint7_linear_5946_22872" x1="0" y1="0" x2="0" y2="1" gradientUnits="objectBoundingBox">
<stop stop-color="#ED3040"/>
<stop offset="1" stop-color="#2D23F4"/>
</linearGradient>
<linearGradient id="paint8_linear_5946_22872" x1="0" y1="0" x2="0" y2="1" gradientUnits="objectBoundingBox">
<stop stop-color="#ED3040"/>
<stop offset="1" stop-color="#2D23F4"/>
</linearGradient>
<linearGradient id="paint9_linear_5946_22872" x1="0" y1="0" x2="0" y2="1" gradientUnits="objectBoundingBox">
<stop stop-color="#ED3040"/>
<stop offset="1" stop-color="#2D23F4"/>
</linearGradient>
</defs>
</svg>
