<svg width="50" height="50" viewBox="0 0 50 50" fill="none" xmlns="http://www.w3.org/2000/svg">
<path d="M44.9027 26.8658C44.9651 26.2413 45 25.6029 45 24.9577C45.0034 20.7895 43.6977 16.7253 41.2666 13.336C38.8354 9.9466 35.4012 7.40252 31.4458 6.06106C27.4908 4.7196 23.2138 4.64838 19.2168 5.85723C15.219 7.06647 11.7013 9.49456 9.15836 12.8013C9.12627 12.8364 9.09625 12.8736 9.0683 12.9121C7.09027 15.5062 5.78213 18.5457 5.25791 21.7626C4.73408 24.9799 5.01083 28.2763 6.06402 31.3615V31.4654V31.4658C7.53409 35.7855 10.4441 39.472 14.3083 41.9108C18.1728 44.3495 22.7582 45.3928 27.3005 44.867C31.8424 44.3409 36.0663 42.2778 39.268 39.021C42.47 35.7642 44.4566 31.5106 44.8962 26.9691C44.9018 26.9347 44.9042 26.8999 44.9031 26.8652L44.9027 26.8658ZM10.4376 14.5495C11.752 14.6329 13.0664 14.7437 14.3597 14.8825H14.3594C14.5098 14.899 14.6585 14.9269 14.8045 14.9658V15.2364C14.7693 15.6775 14.8335 16.121 14.9922 16.5342C15.1862 16.8657 15.4716 17.135 15.8142 17.3096C16.1569 17.4841 16.5427 17.5571 16.9257 17.5193C18.2311 17.5299 19.5356 17.4394 20.8268 17.2486C22.2868 16.9969 23.7728 16.9294 25.2497 17.0476V17.3946C25.2497 17.4501 24.9853 17.7069 24.4291 17.9982L23.9908 18.2272H23.9912C23.1426 18.5894 22.4177 19.1895 21.9048 19.955C21.6919 20.365 21.5418 20.8047 21.4597 21.2592C21.4176 21.5247 21.3355 21.7819 21.2164 22.0226C20.9245 22.4805 20.0341 22.6402 19.325 22.7649H19.3247C18.6287 22.8437 17.9243 22.811 17.2387 22.6678C16.1466 22.4237 15.0116 22.4426 13.9283 22.7236C12.9555 22.9508 12.0853 23.4921 11.4528 24.2637C11.0469 25.0133 10.8095 25.842 10.7574 26.6925C10.7126 27.2837 10.5911 27.8669 10.3958 28.4272C10.2174 28.5105 10.0276 28.5666 9.83227 28.5935C9.52204 28.641 9.21872 28.7246 8.92819 28.8434C8.6152 28.9874 8.32085 29.1691 8.05203 29.3847C7.98681 29.4412 7.91711 29.4921 7.8436 29.5372L7.72524 29.6137C7.02681 27.0595 6.90775 24.3819 7.37706 21.7761C7.84637 19.1703 8.89165 16.7017 10.4376 14.5497L10.4376 14.5495ZM8.35123 31.5912C8.57623 31.4738 8.79431 31.3443 9.00481 31.2028L9.25499 31.0155H9.25533C9.38991 30.9023 9.53692 30.8048 9.69324 30.7239C9.85266 30.6643 10.0183 30.6223 10.187 30.5993C10.6436 30.5307 11.0829 30.3755 11.4804 30.141C12.4122 29.5374 12.6071 28.2328 12.7949 26.9698V26.9702C12.8539 26.4444 12.9822 25.9287 13.1775 25.4367C13.5516 25.0817 14.0195 24.841 14.5265 24.7429C15.3043 24.5628 16.1132 24.5628 16.891 24.7429C17.8079 24.9185 18.7465 24.9488 19.6727 24.8331C20.7228 24.6389 22.1694 24.382 22.9482 23.1607C23.208 22.7193 23.3871 22.2356 23.4765 21.7315C23.52 21.4781 23.5945 21.2309 23.6991 20.996C24.0327 20.6018 24.4575 20.2943 24.9369 20.1009L25.3889 19.8719C26.126 19.4832 27.2316 18.9005 27.3152 17.5612C27.4166 16.8753 27.3024 16.1747 26.9884 15.5559C26.7679 15.3163 26.4701 15.1617 26.1471 15.119C24.2861 14.8449 22.3923 14.8776 20.542 15.2161C19.3635 15.3934 18.1734 15.484 16.9814 15.4867H16.9048V15.2578C16.9173 14.9475 16.889 14.6377 16.8213 14.3346C16.6474 13.7517 16.126 13.0231 14.589 12.8637C13.7615 12.7735 12.9271 12.6971 12.0854 12.6278H12.0857C14.5558 10.0541 17.7409 8.27681 21.2316 7.52415C24.7225 6.77114 28.3589 7.07724 31.6735 8.40318C34.9883 9.72913 37.83 12.014 39.8332 14.9641C41.836 17.9141 42.9088 21.3944 42.9134 24.9578V25.8461L39.9788 26.0682V26.0678C39.0688 26.0633 38.1816 26.3501 37.4473 26.8866C37.0636 27.2378 36.7478 27.6565 36.5156 28.1217L36.3765 28.3713V28.3716C35.9852 29.0499 35.3599 29.563 34.6169 29.8146C34.3178 29.9069 33.9986 29.9141 33.6952 29.8356C33.3919 29.7575 33.1161 29.5963 32.8994 29.3708C32.8508 29.3154 32.8159 29.2527 32.7742 29.1973C32.5664 28.8619 32.2859 28.5775 31.9536 28.3644C31.5381 28.1571 31.0753 28.0614 30.6116 28.0869H27.2595C25.8689 28.0869 24.9161 28.5169 24.5127 29.3984C24.0606 30.3907 24.5127 31.5909 25.6394 32.3891L26.0704 32.6804C26.3695 32.8315 26.6308 33.0471 26.8354 33.3118C26.9155 33.6868 26.9155 34.0748 26.8354 34.4498C26.7588 35.2754 26.6546 36.4133 27.5307 37.2252C28.0056 37.626 28.6057 37.8491 29.2275 37.8567C30.2938 37.93 31.3594 37.7018 32.3015 37.1973L32.7397 36.9477H32.7394C32.9675 36.7886 33.2183 36.6647 33.4837 36.58H33.5462V36.6354C33.5086 36.8368 33.4899 37.0414 33.4906 37.2459C33.4906 38.2103 34.0955 38.9943 35.2502 39.6051H35.2498C32.2946 41.6686 28.7834 42.7928 25.1764 42.8303C21.5696 42.8675 18.0357 41.8163 15.0376 39.8141C12.0402 37.8123 9.7192 34.9532 8.37855 31.6119L8.35123 31.5912ZM37.0998 38.0788L36.6895 37.919C35.8272 37.5719 35.5977 37.2738 35.5977 37.135V37.1353C35.5874 37.0593 35.5874 36.9825 35.5977 36.9064C35.6712 36.5634 35.6712 36.2088 35.5977 35.8655C35.4249 35.3535 35.0642 34.9255 34.5884 34.668C34.1122 34.4104 33.5558 34.3426 33.0317 34.4779C32.5486 34.6015 32.0904 34.8057 31.6755 35.0815L31.3208 35.2898C30.7221 35.61 30.044 35.7522 29.3666 35.6992C29.026 35.6992 28.9425 35.609 28.9284 35.5952C28.9146 35.5814 28.8586 34.9706 28.9284 34.5891L28.9287 34.5888C29.0622 33.8351 28.9829 33.0591 28.6992 32.3477C28.3448 31.7255 27.8217 31.2155 27.1902 30.8767C27.0718 30.8003 26.9469 30.7242 26.8354 30.6409V30.6405C26.6719 30.5245 26.5345 30.3757 26.4321 30.2036C26.6936 30.1265 26.9666 30.0958 27.2388 30.1134H30.8691H30.8688C30.9316 30.1884 30.9899 30.2669 31.0427 30.3492C31.1051 30.4394 31.1749 30.5365 31.2515 30.6336C31.7221 31.1828 32.3433 31.5836 33.0383 31.7867C33.7337 31.9902 34.4731 31.9871 35.1664 31.7785C36.417 31.3853 37.4729 30.5352 38.122 29.3986L38.296 29.0932C38.4136 28.8405 38.5682 28.6067 38.7549 28.3994C39.1666 28.178 39.6293 28.0678 40.0969 28.0802L42.6422 27.8792C41.9934 31.8026 40.053 35.3989 37.1274 38.0994L37.0998 38.0788Z" fill="url(#paint0_linear_5946_22862)"/>
<defs>
<linearGradient id="paint0_linear_5946_22862" x1="0" y1="0" x2="0" y2="1" gradientUnits="objectBoundingBox">
<stop stop-color="#ED3040"/>
<stop offset="1" stop-color="#2D23F4"/>
</linearGradient>
</defs>
</svg>
