<svg width="50" height="50" viewBox="0 0 50 50" fill="none" xmlns="http://www.w3.org/2000/svg">
<path fill-rule="evenodd" clip-rule="evenodd" d="M40.9983 12.9994C41.0495 12.9994 41.1016 12.9935 41.1528 12.9814C41.6142 12.8713 42.1907 12.3748 42.3167 11.8107C42.3961 11.4515 42.1728 11.0847 41.8136 11.0047C41.4554 10.9274 41.1 11.1408 41.0209 11.5003C40.9967 11.5555 40.8901 11.6594 40.829 11.6882C40.4801 11.7794 40.2661 12.1342 40.3501 12.4874C40.4236 12.7935 40.6969 12.9994 40.9983 12.9994ZM22.3322 12.9994C22.3837 12.9994 22.4355 12.9935 22.487 12.9814C22.9481 12.8713 23.525 12.3748 23.6509 11.8107C23.7303 11.4516 23.507 11.0847 23.1475 11.0047C22.7909 10.9274 22.4342 11.1408 22.3549 11.5003C22.331 11.5555 22.2243 11.6594 22.1629 11.6882C21.8143 11.7794 21.6003 12.1342 21.6844 12.4874C21.7575 12.7935 22.0311 12.9994 22.3322 12.9994ZM34.319 23.6827C34.5202 23.6827 34.719 23.5928 34.8502 23.4201C35.3836 22.7195 35.6656 21.8827 35.6656 20.9995C35.6656 20.6317 35.3676 20.333 34.9988 20.333C34.6304 20.333 34.3323 20.6317 34.3323 20.9995C34.3323 21.5881 34.145 22.146 33.7896 22.6128C33.567 22.9055 33.6231 23.3242 33.9162 23.5469C34.0371 23.6387 34.1788 23.6827 34.319 23.6827ZM26.3329 20.9995C26.3329 23.9402 28.7255 26.3329 31.6659 26.3329C34.6065 26.3329 36.9992 23.9402 36.9992 20.9995C36.9992 17.3976 33.0186 13.2275 31.6659 11.9152C30.314 13.2292 26.3329 17.403 26.3329 20.9995ZM24.9996 20.9995C24.9996 16.0904 30.9687 10.7266 31.2233 10.5011C31.4761 10.2772 31.856 10.2772 32.1087 10.5011C32.3633 10.7272 38.3324 16.0907 38.3324 20.9995C38.3324 24.6755 35.3418 27.6661 31.6659 27.6661C27.9902 27.6661 24.9996 24.6755 24.9996 20.9995ZM19.6663 11.6667C19.6663 13.1373 20.8621 14.3332 22.3328 14.3332C23.8034 14.3332 24.9996 13.1374 24.9996 11.6667C24.9996 9.37382 23.1754 7.36602 22.3328 6.5612C21.4902 7.36602 19.6663 9.37382 19.6663 11.6667ZM18.3331 11.6667C18.3331 8.05453 21.7702 5.26334 21.9163 5.14607C22.1595 4.95131 22.5062 4.95131 22.7496 5.14607C22.8957 5.26331 26.3329 8.05453 26.3329 11.6667C26.3329 13.8726 24.5388 15.6665 22.3328 15.6665C20.1269 15.6665 18.3331 13.8726 18.3331 11.6667ZM38.3322 11.6667C38.3322 13.1373 39.5283 14.3332 40.999 14.3332C42.4696 14.3332 43.6655 13.1374 43.6655 11.6667C43.6655 9.37382 41.8416 7.36602 40.999 6.5612C40.1564 7.36602 38.3322 9.37382 38.3322 11.6667ZM36.9989 11.6667C36.9989 8.05453 40.4361 5.26334 40.5822 5.14607C40.8256 4.95131 41.1723 4.95131 41.4155 5.14607C41.5615 5.26331 44.9987 8.05453 44.9987 11.6667C44.9987 13.8726 43.2049 15.6665 40.999 15.6665C38.793 15.6665 36.9989 13.8726 36.9989 11.6667ZM8.33331 40.6663C8.33331 40.1148 7.88455 39.6664 7.33343 39.6664C6.78202 39.6664 6.33324 40.1148 6.33324 40.6663C6.33324 41.2177 6.78199 41.6661 7.33343 41.6661C7.88453 41.6661 8.33331 41.2177 8.33331 40.6663ZM13.6666 30.3331H18.9996C19.7777 30.3331 21.0998 31.3252 22.2662 32.1998C23.7291 33.297 25.111 34.3332 26.333 34.3332H30.3327C31.3456 34.3332 31.848 34.7925 31.8613 34.8046C31.9913 34.9346 32.1622 34.9997 32.3327 34.9997C32.5033 34.9997 32.6742 34.9346 32.8041 34.8046C33.0646 34.5438 33.0646 34.1226 32.8041 33.8618C32.716 33.7737 31.8973 33 30.3327 33H26.333C25.5548 33 24.2331 32.0079 23.0663 31.1333C21.6038 30.036 20.2218 28.9998 18.9996 28.9998H13.6666C13.2979 28.9998 12.9998 29.2985 12.9998 29.6666C12.9998 30.0344 13.2979 30.3331 13.6666 30.3331ZM41.0405 32.002L33.3679 35.7366C32.1754 36.3333 30.9715 36.3333 28.3329 36.3333C25.7536 36.3333 21.8156 35.6817 21.7756 35.6758C21.4124 35.616 21.0691 35.8607 21.0089 36.2232C20.9485 36.5864 21.1938 36.9306 21.5569 36.9905C21.7222 37.0184 25.6422 37.6666 28.333 37.6666C31.1008 37.6666 32.4899 37.6666 33.9575 36.9325L41.6657 33.1786C41.9737 33.0006 42.3331 32.9532 42.6777 33.0453C43.021 33.138 43.3091 33.3585 43.4865 33.6665C43.6652 33.9754 43.7126 34.3345 43.6205 34.6784C43.5284 35.0227 43.3079 35.3099 42.9804 35.4991L33.9669 41.1091C33.9483 41.1218 32.0249 42.3332 27.6664 42.3332C23.8871 42.3332 18.0487 39.1159 17.9646 39.0699C17.9038 39.0404 16.4579 38.333 13.6668 38.333C13.298 38.333 13 38.6317 13 38.9998C13 39.3679 13.298 39.6666 13.6668 39.6666C16.0914 39.6666 17.3405 40.2497 17.3434 40.2497V40.249C17.5952 40.3892 23.541 43.6664 27.6661 43.6664C32.4793 43.6664 34.6139 42.2798 34.6846 42.2324L43.6655 36.6425C44.282 36.2865 44.7233 35.7113 44.9076 35.0239C45.0927 34.3351 44.9975 33.6165 44.6415 33C43.9062 31.7253 42.2703 31.2899 41.0403 32.002M11.6665 28.3334V43C11.6665 44.1028 10.7693 45 9.66651 45H5.66677C5.29803 45 5 44.7013 5 44.3335C5 43.9654 5.29803 43.6667 5.66677 43.6667H9.66651C10.0346 43.6667 10.3333 43.3675 10.3333 43V28.3334C10.3333 27.9659 10.0346 27.6666 9.66651 27.6666H5.66677C5.29803 27.6666 5 27.368 5 26.9998C5 26.632 5.29803 26.3334 5.66677 26.3334H9.66651C10.7694 26.3334 11.6665 27.2307 11.6665 28.3334Z" fill="url(#paint0_linear_5946_22864)"/>
<defs>
<linearGradient id="paint0_linear_5946_22864" x1="37.6624" y1="33.6397" x2="37.6624" y2="41.6506" gradientUnits="userSpaceOnUse">
<stop stop-color="#ED3040"/>
<stop offset="1" stop-color="#2D23F4"/>
</linearGradient>
</defs>
</svg>
