<svg width="50" height="50" viewBox="0 0 50 50" fill="none" xmlns="http://www.w3.org/2000/svg">
<path d="M28.2502 19.862V10.0012H21.7498V19.8802C21.7498 20.2595 21.5025 20.5796 21.1644 20.6804C18.9437 21.4958 17.042 22.9993 15.7043 24.9401C14.3947 26.84 13.6251 29.161 13.6251 31.6675C13.6251 34.8895 14.8984 37.8063 16.9565 39.9174C19.0148 42.0285 21.8587 43.3341 25.0002 43.3341C28.1414 43.3341 30.9856 42.0282 33.0439 39.9174C35.1019 37.8063 36.3753 34.8895 36.3753 31.6675C36.3753 29.161 35.6057 26.8399 34.2961 24.9401C32.9499 22.9871 31.0325 21.4765 28.7933 20.6648L29.063 19.8802L28.7921 20.6657C28.4528 20.5426 28.243 20.212 28.2505 19.8622L28.2502 19.862ZM29.8752 9.16751V19.3062C32.2015 20.2723 34.1933 21.9092 35.6223 23.9824C37.1198 26.1552 38 28.8063 38 31.6666C38 35.3485 36.5449 38.6822 34.1926 41.0947C31.8401 43.5076 28.5901 45 25.0002 45C21.4102 45 18.1602 43.5076 15.8077 41.0947C13.4551 38.6822 12 35.3485 12 31.6666C12 28.8063 12.8799 26.1549 14.3777 23.9824C15.8067 21.9092 17.7985 20.2723 20.1248 19.3062V9.16751C20.1248 8.70758 20.4885 8.33419 20.9373 8.33419H29.0623C29.5107 8.33419 29.8748 8.70728 29.8748 9.16751H29.8752Z" fill="url(#paint0_linear_6252_23398)"/>
<path d="M29.8759 10.0004H20.126C19.4529 10.0004 18.8433 9.72031 18.4024 9.26782C18.3845 9.24952 18.3676 9.2306 18.3519 9.21107C17.9406 8.76354 17.6885 8.16123 17.6885 7.49971C17.6885 6.80966 17.9615 6.18446 18.4024 5.73223C18.4202 5.71393 18.4387 5.69656 18.4577 5.68044C18.8941 5.25865 19.4813 5 20.126 5H29.8758C31.2196 5 32.3137 6.12177 32.3137 7.49966H32.3103C32.3097 8.87946 31.2226 10.0003 29.8758 10.0003L29.8759 10.0004ZM20.126 8.33371H29.8759C30.3243 8.33371 30.6917 7.95938 30.692 7.49975H30.6887C30.6887 7.03734 30.3252 6.66642 29.8759 6.66642H20.126C19.6761 6.66642 19.3132 7.03704 19.3132 7.49975C19.3132 7.71561 19.3915 7.91223 19.5206 8.05954L19.5512 8.08932C19.6981 8.24004 19.9016 8.33339 20.126 8.33339L20.126 8.33371Z" fill="url(#paint1_linear_6252_23398)"/>
<path d="M12.5971 30.8661C12.1659 30.9883 11.9131 31.446 12.0322 31.8883C12.1514 32.3305 12.5977 32.5898 13.0289 32.4676C13.0636 32.4577 25.1119 28.9792 27.6192 32.1876C30.8988 36.3852 37.5718 32.3975 37.5912 32.3864C37.9786 32.1581 38.1122 31.6507 37.8897 31.2534C37.6671 30.8561 37.1724 30.719 36.785 30.9473C36.7693 30.9563 31.2898 34.2267 28.8822 31.1461C25.7026 27.0774 12.6345 30.8555 12.5966 30.866L12.5971 30.8661Z" fill="url(#paint2_linear_6252_23398)"/>
<path d="M21.7508 36.6667C21.7508 36.4365 21.6598 36.2281 21.5129 36.0774L21.4823 36.0442C21.3402 35.9133 21.1494 35.8333 20.9387 35.8333C20.4875 35.8333 20.1265 36.2039 20.1265 36.6663C20.1265 37.1272 20.4878 37.4993 20.9387 37.4993C21.1627 37.4993 21.3662 37.406 21.5132 37.2553C21.6601 37.1045 21.7512 36.8961 21.7512 36.666L21.7508 36.6667ZM22.662 34.8992C23.1028 35.3513 23.3759 35.9766 23.3759 36.6667C23.3759 37.3568 23.1029 37.9819 22.662 38.4341C22.2211 38.8863 21.6115 39.1664 20.9387 39.1664C20.2659 39.1664 19.6568 38.8863 19.216 38.4344L19.2157 38.4341H19.2154L19.2169 38.4326C18.7748 37.9785 18.5014 37.3536 18.5014 36.6667C18.5014 35.2906 19.5955 34.167 20.9386 34.167C21.5809 34.167 22.1678 34.4251 22.605 34.8462C22.6247 34.863 22.6434 34.8807 22.6619 34.8993L22.662 34.8992Z" fill="url(#paint3_linear_6252_23398)"/>
<path d="M28.2502 37.9179C28.2502 37.8029 28.2046 37.6983 28.1314 37.623C28.0582 37.5479 27.9563 37.5011 27.8441 37.5011C27.7319 37.5011 27.63 37.5479 27.5566 37.623C27.4834 37.698 27.4377 37.8029 27.4377 37.9179C27.4377 38.033 27.4834 38.1375 27.5566 38.2125C27.6297 38.2876 27.7319 38.3344 27.8441 38.3344C27.9563 38.3344 28.0582 38.2876 28.1314 38.2125C28.2046 38.1375 28.2502 38.033 28.2502 37.9179ZM29.2802 36.4447C29.6476 36.8216 29.8753 37.3426 29.8753 37.9179C29.8753 38.4929 29.6479 39.014 29.2802 39.3911C28.9128 39.7679 28.4047 40.0014 27.8438 40.0014C27.2829 40.0014 26.7752 39.7682 26.4075 39.3911C26.0401 39.0143 25.8124 38.4932 25.8124 37.9179C25.8124 37.3426 26.0398 36.8216 26.4075 36.4447C26.7752 36.0679 27.2829 35.8344 27.8438 35.8344C28.4044 35.8344 28.9125 36.0676 29.2802 36.4447Z" fill="url(#paint4_linear_6252_23398)"/>
<path d="M27.4382 25.4172C27.4382 25.3022 27.3925 25.1976 27.3194 25.1226C27.2462 25.0475 27.1443 25.0007 27.0321 25.0007C26.9199 25.0007 26.818 25.0475 26.7448 25.1226C26.6717 25.1976 26.6257 25.3022 26.6257 25.4172C26.6257 25.5323 26.6713 25.6368 26.7448 25.7118C26.818 25.7869 26.9199 25.8337 27.0321 25.8337C27.1443 25.8337 27.2462 25.7869 27.3194 25.7118C27.3925 25.6368 27.4382 25.5323 27.4382 25.4172ZM28.4681 23.9441C28.8355 24.3212 29.0632 24.8422 29.0632 25.4172C29.0632 25.9923 28.8358 26.5133 28.4681 26.8904C28.1007 27.2675 27.5927 27.5007 27.0318 27.5007C26.4709 27.5007 25.9631 27.2675 25.5954 26.8904C25.228 26.5136 25.0003 25.9925 25.0003 25.4172C25.0003 24.8422 25.2277 24.3212 25.5954 23.9441C25.9631 23.5672 26.4709 23.3337 27.0318 23.3337C27.5924 23.3337 28.1004 23.5669 28.4681 23.9441Z" fill="url(#paint5_linear_6252_23398)"/>
<path d="M22.5629 12.5005C23.0113 12.5005 23.3754 12.1274 23.3754 11.6672C23.3754 11.2072 23.0116 10.8338 22.5629 10.8338H20.9382C20.4895 10.8338 20.1257 11.2069 20.1257 11.6672C20.1257 12.1274 20.4895 12.5005 20.9382 12.5005H22.5629Z" fill="url(#paint6_linear_6252_23398)"/>
<path d="M24.1885 15.0006C24.6372 15.0006 25.001 14.6275 25.001 14.1673C25.001 13.7074 24.6372 13.334 24.1885 13.334H20.9385C20.4898 13.334 20.126 13.7071 20.126 14.1673C20.126 14.6275 20.4898 15.0006 20.9385 15.0006H24.1885Z" fill="url(#paint7_linear_6252_23398)"/>
<path d="M22.5629 17.5C23.0113 17.5 23.3754 17.1269 23.3754 16.6667C23.3754 16.2064 23.0116 15.8333 22.5629 15.8333H20.9382C20.4895 15.8333 20.1257 16.2064 20.1257 16.6667C20.1257 17.1266 20.4895 17.5 20.9382 17.5H22.5629Z" fill="url(#paint8_linear_6252_23398)"/>
<defs>
<linearGradient id="paint0_linear_6252_23398" x1="0" y1="0" x2="0" y2="1" gradientUnits="objectBoundingBox">
<stop stop-color="#ED3040"/>
<stop offset="1" stop-color="#2D23F4"/>
</linearGradient>
<linearGradient id="paint1_linear_6252_23398" x1="0" y1="0" x2="0" y2="1" gradientUnits="objectBoundingBox">
<stop stop-color="#ED3040"/>
<stop offset="1" stop-color="#2D23F4"/>
</linearGradient>
<linearGradient id="paint2_linear_6252_23398" x1="0" y1="0" x2="0" y2="1" gradientUnits="objectBoundingBox">
<stop stop-color="#ED3040"/>
<stop offset="1" stop-color="#2D23F4"/>
</linearGradient>
<linearGradient id="paint3_linear_6252_23398" x1="0" y1="0" x2="0" y2="1" gradientUnits="objectBoundingBox">
<stop stop-color="#ED3040"/>
<stop offset="1" stop-color="#2D23F4"/>
</linearGradient>
<linearGradient id="paint4_linear_6252_23398" x1="0" y1="0" x2="0" y2="1" gradientUnits="objectBoundingBox">
<stop stop-color="#ED3040"/>
<stop offset="1" stop-color="#2D23F4"/>
</linearGradient>
<linearGradient id="paint5_linear_6252_23398" x1="0" y1="0" x2="0" y2="1" gradientUnits="objectBoundingBox">
<stop stop-color="#ED3040"/>
<stop offset="1" stop-color="#2D23F4"/>
</linearGradient>
<linearGradient id="paint6_linear_6252_23398" x1="0" y1="0" x2="0" y2="1" gradientUnits="objectBoundingBox">
<stop stop-color="#ED3040"/>
<stop offset="1" stop-color="#2D23F4"/>
</linearGradient>
<linearGradient id="paint7_linear_6252_23398" x1="0" y1="0" x2="0" y2="1" gradientUnits="objectBoundingBox">
<stop stop-color="#ED3040"/>
<stop offset="1" stop-color="#2D23F4"/>
</linearGradient>
<linearGradient id="paint8_linear_6252_23398" x1="0" y1="0" x2="0" y2="1" gradientUnits="objectBoundingBox">
<stop stop-color="#ED3040"/>
<stop offset="1" stop-color="#2D23F4"/>
</linearGradient>
</defs>
</svg>
