<svg width="50" height="50" viewBox="0 0 50 50" fill="none" xmlns="http://www.w3.org/2000/svg">
<path d="M43.3958 5C44.3208 5.03558 45.0057 5.73827 44.9968 6.67223V37.1992C45.0412 37.982 44.6232 38.5246 43.965 38.8982C43.716 39.0405 43.1201 39.334 42.9689 39.0227L42.9155 39.1828H29.9746L29.8234 39.0227L30.0191 39.0938C30.5794 40.2946 31.9224 40.7216 33.132 40.9262C34.2883 41.1841 35.2044 42.4472 35.151 43.6213C35.1243 44.1906 34.7686 44.9555 34.1193 44.9644C28.0179 45.0089 21.9077 45.0178 15.8063 44.9555C15.326 44.9555 14.9792 44.3774 14.8725 43.9593C14.5789 42.7407 15.6107 41.2019 16.8203 40.9351C18.021 40.7216 19.4084 40.3213 19.9599 39.1027L20.1467 39.0227L19.9955 39.1828H7.09011L6.99228 39.0227C6.9656 39.0849 6.93002 39.165 6.87665 39.165C5.96946 39.0583 5.04447 38.4445 5 37.4661V6.48543C5.06226 5.66711 5.66706 5.06226 6.48531 5H43.3958ZM43.6271 34.264V6.91239C43.6271 6.56549 43.0667 6.25417 42.7288 6.32533H7.14348C6.83218 6.27196 6.32522 6.60107 6.32522 6.91239V34.264H43.6271ZM43.6271 35.6693H6.32522V37.0391C6.32522 37.1992 6.61873 37.5461 6.78771 37.5906H43.1646C43.3425 37.5461 43.6271 37.1992 43.6271 37.0391V35.6693ZM20.7248 40.8995C23.4108 40.7216 26.497 40.8995 29.2275 40.8995C29.2631 40.8995 29.4321 41.1219 29.4232 40.8639C28.9073 40.3925 28.4804 39.7343 28.4093 39.0316H21.5875C21.4274 39.7254 21.0805 40.3836 20.5291 40.8639C20.5202 41.1219 20.6803 40.9084 20.7248 40.8995ZM33.639 43.6302C33.559 42.8919 33.0965 42.3938 32.3494 42.3049C27.3509 42.3405 22.3346 42.2337 17.345 42.3582C16.7224 42.5272 16.3933 43.0076 16.3133 43.6302H33.639Z" fill="url(#paint0_linear_6252_23406)"/>
<path d="M17.5407 20.9484C22.717 20.8684 25.5987 26.9613 22.2101 30.9106C19.0438 34.602 12.9691 33.1254 11.8129 28.429C10.8968 24.7109 13.6895 21.0107 17.5407 20.9484ZM17.2383 22.3449C11.1725 22.9142 11.973 32.1203 18.0743 31.6044C24.1134 31.0974 23.3307 21.7667 17.2383 22.3449Z" fill="url(#paint1_linear_6252_23406)"/>
<path d="M32.2071 20.9484C36.1471 20.8861 39.0733 24.6131 38.1394 28.429C36.9832 33.1521 30.8463 34.602 27.7066 30.8661C24.567 27.1303 27.1463 21.0285 32.2071 20.9484ZM31.9047 22.3449C25.8211 22.8786 26.6038 32.1292 32.7407 31.6044C38.7175 31.0974 38.0238 21.8112 31.9047 22.3449Z" fill="url(#paint2_linear_6252_23406)"/>
<path d="M19.026 24.6842C19.7998 24.453 20.2623 25.1468 19.782 25.8317C19.4529 26.3031 16.9892 28.7759 16.509 29.1139C15.7352 29.6653 14.9881 28.9449 15.4239 28.26L19.026 24.6842Z" fill="url(#paint3_linear_6252_23406)"/>
<path d="M15.9042 24.6042C16.8914 24.4619 16.9981 26.0096 15.9575 26.0007C15.1837 26.0007 15.0148 24.7376 15.9042 24.6042Z" fill="url(#paint4_linear_6252_23406)"/>
<path d="M19.1861 27.9575C20.0844 27.7974 20.3334 29.2295 19.3907 29.3451C18.4479 29.4608 18.3589 28.0998 19.1861 27.9575Z" fill="url(#paint5_linear_6252_23406)"/>
<path d="M30.108 27.6462H34.4573C35.1866 27.7529 35.2488 28.8915 34.1371 29.0249C33.3188 29.1227 31.2287 29.1227 30.4104 29.0249C29.5299 28.9182 29.3165 28.0376 30.108 27.6462Z" fill="url(#paint6_linear_6252_23406)"/>
<path d="M30.108 24.9956H34.4573C35.1599 25.0934 35.1599 26.1964 34.4573 26.3031C33.808 26.4009 30.8196 26.4098 30.1703 26.3031C29.4677 26.1964 29.4321 25.1912 30.108 24.9956Z" fill="url(#paint7_linear_6252_23406)"/>
<path d="M16.927 7.67734C22.9216 7.0636 26.079 14.4285 21.4719 18.3066C17.4517 21.6956 11.2881 18.4401 11.635 13.2366C11.8218 10.4614 14.1342 7.96197 16.927 7.67734ZM16.8469 9.08272C15.2104 9.30509 13.6629 10.7638 13.2181 12.3204C12.0708 16.3498 16.3222 19.7832 19.9777 17.6751C24.318 15.1757 22.1478 8.36224 16.8469 9.07383V9.08272Z" fill="url(#paint8_linear_6252_23406)"/>
<path d="M31.5934 7.67734C37.0188 7.12586 40.443 13.4056 36.8765 17.5684C34.4306 20.4236 30.0725 20.3525 27.6622 17.4883C24.6293 13.877 26.9151 8.15766 31.5845 7.67734H31.5934ZM35.6402 10.4081C31.3621 6.04069 24.7182 12.5161 28.9518 16.9013C33.1854 21.2864 39.9182 14.7843 35.6402 10.4081Z" fill="url(#paint9_linear_6252_23406)"/>
<path d="M16.9359 11.5911C17.0248 11.0841 17.6919 10.7816 18.101 11.1285C18.5101 11.4754 18.2789 12.4805 18.3411 12.9609C18.9548 13.0142 20.2267 12.694 20.3334 13.5835C20.369 13.8592 20.0577 14.3662 19.782 14.3662H18.3411V15.8072C18.3411 16.1452 17.8253 16.3498 17.5229 16.3231C17.2828 16.2964 16.9359 15.9495 16.9359 15.736V14.3662H15.5662C15.166 14.3662 14.8547 13.7436 15.0237 13.3522C15.0592 13.2722 15.4328 12.9609 15.4861 12.9609H16.927C16.9804 12.5428 16.8558 11.9824 16.927 11.5911H16.9359Z" fill="url(#paint10_linear_6252_23406)"/>
<path d="M30.1881 12.9787C30.7128 12.8719 33.8169 12.8719 34.3772 12.9609C35.1777 13.0854 35.2044 14.2239 34.2972 14.3574C33.6212 14.4552 30.9085 14.4641 30.2503 14.3574C29.4944 14.2328 29.3698 13.1388 30.1881 12.9787Z" fill="url(#paint11_linear_6252_23406)"/>
<defs>
<linearGradient id="paint0_linear_6252_23406" x1="0" y1="0" x2="0" y2="1" gradientUnits="objectBoundingBox">
<stop stop-color="#ED3040"/>
<stop offset="1" stop-color="#2D23F4"/>
</linearGradient>
<linearGradient id="paint1_linear_6252_23406" x1="0" y1="0" x2="0" y2="1" gradientUnits="objectBoundingBox">
<stop stop-color="#ED3040"/>
<stop offset="1" stop-color="#2D23F4"/>
</linearGradient>
<linearGradient id="paint2_linear_6252_23406" x1="0" y1="0" x2="0" y2="1" gradientUnits="objectBoundingBox">
<stop stop-color="#ED3040"/>
<stop offset="1" stop-color="#2D23F4"/>
</linearGradient>
<linearGradient id="paint3_linear_6252_23406" x1="0" y1="0" x2="0" y2="1" gradientUnits="objectBoundingBox">
<stop stop-color="#ED3040"/>
<stop offset="1" stop-color="#2D23F4"/>
</linearGradient>
<linearGradient id="paint4_linear_6252_23406" x1="0" y1="0" x2="0" y2="1" gradientUnits="objectBoundingBox">
<stop stop-color="#ED3040"/>
<stop offset="1" stop-color="#2D23F4"/>
</linearGradient>
<linearGradient id="paint5_linear_6252_23406" x1="0" y1="0" x2="0" y2="1" gradientUnits="objectBoundingBox">
<stop stop-color="#ED3040"/>
<stop offset="1" stop-color="#2D23F4"/>
</linearGradient>
<linearGradient id="paint6_linear_6252_23406" x1="0" y1="0" x2="0" y2="1" gradientUnits="objectBoundingBox">
<stop stop-color="#ED3040"/>
<stop offset="1" stop-color="#2D23F4"/>
</linearGradient>
<linearGradient id="paint7_linear_6252_23406" x1="0" y1="0" x2="0" y2="1" gradientUnits="objectBoundingBox">
<stop stop-color="#ED3040"/>
<stop offset="1" stop-color="#2D23F4"/>
</linearGradient>
<linearGradient id="paint8_linear_6252_23406" x1="0" y1="0" x2="0" y2="1" gradientUnits="objectBoundingBox">
<stop stop-color="#ED3040"/>
<stop offset="1" stop-color="#2D23F4"/>
</linearGradient>
<linearGradient id="paint9_linear_6252_23406" x1="0" y1="0" x2="0" y2="1" gradientUnits="objectBoundingBox">
<stop stop-color="#ED3040"/>
<stop offset="1" stop-color="#2D23F4"/>
</linearGradient>
<linearGradient id="paint10_linear_6252_23406" x1="0" y1="0" x2="0" y2="1" gradientUnits="objectBoundingBox">
<stop stop-color="#ED3040"/>
<stop offset="1" stop-color="#2D23F4"/>
</linearGradient>
<linearGradient id="paint11_linear_6252_23406" x1="0" y1="0" x2="0" y2="1" gradientUnits="objectBoundingBox">
<stop stop-color="#ED3040"/>
<stop offset="1" stop-color="#2D23F4"/>
</linearGradient>
</defs>
</svg>
