<svg width="50" height="50" viewBox="0 0 50 50" fill="none" xmlns="http://www.w3.org/2000/svg">
<path d="M23.4766 37.6769C23.806 37.6035 26.1931 37.6035 26.5236 37.6769C27.2782 37.846 27.0311 38.6636 26.5392 39.0729C25.6266 39.8316 24.5716 39.8705 23.6068 39.1775C23.057 38.7837 22.6063 37.8715 23.4777 37.6769H23.4766Z" fill="url(#paint0_linear_6252_23434)"/>
<path d="M22.2524 19.3401L22.4616 18.4268C22.6007 18.0208 22.8255 17.6515 23.1728 17.389C23.2852 17.3044 23.639 17.1843 23.6535 17.162C23.8271 16.885 23.3297 15.7103 24.2934 15.6703C24.8465 15.6469 24.782 15.9862 24.9177 16.0919C25.0535 16.1976 25.1826 15.7248 25.5487 15.6781C26.6872 15.5324 26.172 16.8839 26.3467 17.162C26.3611 17.1843 26.715 17.3044 26.8274 17.389C27.1747 17.6515 27.3995 18.0208 27.5386 18.4268L27.7478 19.3401C28.2107 17.9618 28.8217 16.3578 29.751 15.2209C29.9969 14.9205 30.3397 14.6892 30.5678 14.3721C31.7052 12.7936 32.5154 10.5021 33.6238 8.85018C33.7851 7.82789 33.5437 6.6443 33.6616 5.6398C33.7596 4.80105 34.9114 4.74543 35.0004 5.72101C35.1017 6.83118 34.9492 8.13936 34.957 9.26622C33.7796 11.0995 32.8737 13.5312 31.6495 15.2865C31.4303 15.6013 31.0886 15.7548 30.8327 16.0518C29.8244 17.2188 29.6308 18.7961 28.9319 19.9808C28.805 20.1955 28.1484 20.7362 28.1718 20.8674L28.864 21.9954C29.6252 21.5015 30.2707 20.9686 31.0909 20.5559C31.6429 20.2779 32.985 19.9041 33.3344 19.6349C33.5425 19.4747 35.5023 17.0163 35.6258 16.7627C36.0231 15.954 36.0098 13.8549 36.4561 13.262C36.8233 12.7725 37.6123 12.9939 37.6657 13.6346C37.7002 14.0462 37.1627 16.6781 37.0003 17.1364C36.9268 17.3422 36.8144 17.488 36.6964 17.6648C36.367 18.1587 34.4885 20.566 34.1224 20.8374C33.6627 21.1789 32.3673 21.4448 31.7208 21.7674C31.0742 22.0899 30.5968 22.5282 30.0236 22.902C29.8022 23.0466 28.7115 23.456 28.9976 23.7496L37.5278 24.9243L38.023 25.0945C39.4797 26.94 41.0723 28.7499 42.4422 30.6699C42.6748 30.9958 42.9853 31.2828 42.9998 31.7022C43.0131 32.0782 42.4433 34.9003 42.2853 35.2429C42.0394 35.7747 41.2781 35.8225 41.0556 35.3041C40.7707 34.64 41.5831 32.6177 41.563 31.8056L37.3263 26.3749L37.0281 26.2559L28.8317 25.0823L28.6648 25.7486L34.4707 27.6486L34.8702 27.9156C36.1278 32.0003 37.2228 36.1484 38.3357 40.2799C38.3624 40.5213 38.2155 40.7004 38.1131 40.8962C37.6947 41.7026 36.2001 43.9742 35.6147 44.6438C35.0293 45.3135 34.2347 44.9809 34.3471 44.1288L36.8177 40.3455L36.889 40.1286C35.805 36.3687 34.8724 32.5543 33.685 28.8289L31.0809 27.9979C34.4239 32.3796 33.2677 37.8026 28.8573 40.8884C25.788 43.0364 23.1193 42.6738 20.3327 40.2799C16.5233 37.0072 15.8422 32.0504 18.9171 27.9979L16.2718 28.8489L13.109 40.1286C13.8402 41.4913 14.8562 42.7127 15.6297 44.0654C15.8489 44.8774 15.002 45.3235 14.42 44.6917C13.9114 44.1399 12.202 41.5447 11.8537 40.845C11.7624 40.6614 11.64 40.5046 11.6634 40.2799L14.8785 28.5797C15.0154 28.177 15.0577 27.791 15.5284 27.6475L21.3343 25.7475L21.1674 25.0812L12.9688 26.2537L12.6728 26.3738L8.46386 31.7478C8.2769 32.1716 9.15273 34.4487 8.98803 35.1806C8.85782 35.7569 8.03318 35.8403 7.73938 35.2986C7.56577 34.9782 7.05051 32.3952 7.01601 31.9402C7.00266 31.7589 6.97706 31.582 7.04495 31.4052L11.8793 25.1635L12.4858 24.9377L21.0015 23.7485C21.085 23.2346 20.3427 23.1378 19.9743 22.9009C19.1163 22.3502 18.581 21.8675 17.5828 21.4614C17.1065 21.2679 16.4365 21.1533 16.027 20.9342C15.7654 20.794 13.1903 17.5992 13.0456 17.2532C12.8319 16.7449 12.3912 14.5368 12.3467 13.9539C12.2588 12.8014 13.3972 12.5923 13.7289 13.7392C13.9771 14.6002 14.0104 15.9373 14.3443 16.7037C14.4378 16.9184 16.5411 19.5548 16.7092 19.6694C17.122 19.9497 18.3195 20.2567 18.9082 20.5526C19.7217 20.962 20.3828 21.4915 21.1317 21.9954L21.8273 20.8641C21.8507 20.7317 21.1929 20.1922 21.0672 19.9775C20.3683 18.7928 20.1747 17.2154 19.1664 16.0485C18.9104 15.7515 18.5688 15.598 18.3495 15.2832C17.1254 13.5278 16.2206 11.0961 15.0421 9.26288C15.0677 8.13269 14.8729 6.73885 15.0009 5.63646C15.0988 4.78882 16.2384 4.78993 16.3375 5.63646C16.4554 6.64096 16.2139 7.82344 16.3753 8.84685C17.4837 10.4976 18.295 12.7903 19.4313 14.3688C19.6605 14.6858 20.0022 14.9172 20.2481 15.2175C21.1774 16.3544 21.7883 17.9585 22.2513 19.3368L22.2524 19.3401ZM26.3333 19.7561C26.3022 19.458 26.2732 18.6126 25.9995 18.4669C25.6656 18.29 24.3368 18.2911 24.003 18.4669C23.7425 18.6037 23.6669 19.4602 23.668 19.7561C24.5494 19.6349 25.4486 19.636 26.3333 19.7561ZM27.3271 25.3337C27.7801 24.2669 27.8713 22.2145 26.8286 21.4692C25.985 20.8674 24.0141 20.8696 23.1739 21.4692C22.1356 22.2101 22.2101 24.2691 22.6753 25.3337C24.2066 24.8821 25.798 24.8832 27.3282 25.3337H27.3271ZM24.6507 26.3604C19.8987 26.6486 17.0419 32.185 18.9872 36.3843C20.0845 38.7526 23.3931 41.6092 26.1486 40.7638C28.0282 40.1864 30.1983 38.1597 31.0141 36.3843C33.0551 31.9425 29.7398 26.0512 24.6507 26.3604Z" fill="url(#paint1_linear_6252_23434)"/>
<path d="M22.1445 31.0158C23.905 31.1048 25.8949 30.8367 27.6287 30.9936C27.947 31.0225 28.2386 31.1204 28.3165 31.4741C28.4834 32.2372 27.2136 32.6733 27.2459 33.7012C27.2759 34.6489 28.4189 35.095 28.3309 35.778C28.2797 36.1751 27.9804 36.2986 27.6287 36.3309C25.9349 36.4855 24.0108 36.2063 22.2914 36.3286C20.9225 35.8236 22.0209 35.1795 22.4038 34.6055C22.8155 33.9893 22.8534 33.3897 22.4516 32.7534C22.1088 32.2083 20.9726 31.6899 22.1433 31.0147L22.1445 31.0158ZM26.2499 32.3307H23.7503C24.2667 33.2251 24.2667 34.1005 23.7503 34.9949H26.2499C25.729 34.1383 25.729 33.1861 26.2499 32.3307Z" fill="url(#paint2_linear_6252_23434)"/>
<path d="M24.5616 27.6875C25.3162 27.5585 26.4535 27.9223 26.8697 28.5875C27.0845 28.9312 27.0456 29.4329 26.6449 29.6031C26.3845 29.7143 24.0263 29.7143 23.6235 29.6676C23.0793 29.6042 22.8411 29.1236 23.0949 28.6353C23.2785 28.2804 24.171 27.7543 24.5616 27.6875Z" fill="url(#paint3_linear_6252_23434)"/>
<defs>
<linearGradient id="paint0_linear_6252_23434" x1="36.3962" y1="33.6397" x2="36.3962" y2="41.6506" gradientUnits="userSpaceOnUse">
<stop stop-color="#ED3040"/>
<stop offset="1" stop-color="#2D23F4"/>
</linearGradient>
<linearGradient id="paint1_linear_6252_23434" x1="36.3962" y1="33.6397" x2="36.3962" y2="41.6506" gradientUnits="userSpaceOnUse">
<stop stop-color="#ED3040"/>
<stop offset="1" stop-color="#2D23F4"/>
</linearGradient>
<linearGradient id="paint2_linear_6252_23434" x1="36.3962" y1="33.6397" x2="36.3962" y2="41.6506" gradientUnits="userSpaceOnUse">
<stop stop-color="#ED3040"/>
<stop offset="1" stop-color="#2D23F4"/>
</linearGradient>
<linearGradient id="paint3_linear_6252_23434" x1="36.3962" y1="33.6397" x2="36.3962" y2="41.6506" gradientUnits="userSpaceOnUse">
<stop stop-color="#ED3040"/>
<stop offset="1" stop-color="#2D23F4"/>
</linearGradient>
</defs>
</svg>
