<svg width="50" height="50" viewBox="0 0 50 50" fill="none" xmlns="http://www.w3.org/2000/svg">
<path d="M45 5.32369V5.87042L37.3061 13.5277C37.3781 14.184 37.6368 14.5106 37.351 15.2065C37.1789 15.6259 36.0492 16.5869 36.0419 16.686C36.0377 16.7382 36.2964 17.1837 36.3266 17.3965C36.4143 18.0278 36.3277 18.5505 36.0054 19.092C35.8854 19.2934 35.4285 19.7535 35.4077 19.8276C35.3639 19.9872 35.6361 20.8199 35.633 21.1339C35.6267 21.8131 35.294 22.6551 34.8517 23.1706L22.7486 35.2747C23.8178 36.2002 23.7448 37.4418 22.6704 38.3214C20.796 39.8551 19.3836 37.0954 18.0912 36.1C17.4841 36.3828 16.7425 37.9145 15.9925 37.3448C15.1685 36.7198 16.8677 35.6764 17.2025 35.1965L14.8221 32.8155L10.5684 37.0704L12.9487 39.4513C13.0395 39.4513 13.9386 38.3339 14.2328 38.2379C14.8409 38.0407 15.206 38.6333 14.9296 39.1696C14.8055 39.4107 13.8229 40.1702 13.8521 40.3403C14.7074 41.3586 16.295 42.1829 15.6034 43.749C15.3374 44.351 14.771 44.6755 14.237 44.999H13.3003C13.0207 44.8581 12.8006 44.7339 12.5565 44.5326C10.0875 42.497 7.86573 39.5108 5.41654 37.3823C4.68532 36.4621 4.97218 35.3843 5.84629 34.6915C6.72041 33.9987 7.52046 34.1531 8.34555 34.8438C8.66787 35.114 9.36362 36.0009 9.63274 36.1397C9.69324 36.171 9.7287 36.1919 9.78711 36.1397L13.9199 31.985C13.0541 30.6745 10.2273 29.3139 11.6292 27.4338C12.4752 26.2986 13.801 26.1598 14.746 27.2689L26.7687 15.2409C27.2913 14.7673 28.0924 14.4052 28.8038 14.3822C29.1731 14.3708 30.0295 14.6493 30.188 14.6066C30.2631 14.5867 30.7221 14.1287 30.9234 14.0087C31.4648 13.6863 31.9884 13.5997 32.6184 13.6874C32.8312 13.7166 33.2766 13.9764 33.3288 13.9722C33.4279 13.9639 34.3896 12.8339 34.8079 12.6628C35.5047 12.3769 35.8312 12.6356 36.4862 12.7076L44.0977 5.0858C44.4628 4.874 44.7225 5.0931 45 5.32369ZM35.2961 13.774C35.221 13.7969 34.3218 14.6775 34.3093 14.7453L35.2126 15.7052C35.3357 15.7272 36.2526 14.7923 36.2641 14.5784C36.2849 14.208 35.6945 13.6529 35.2961 13.774ZM31.9415 14.8685C31.6588 14.9154 31.3719 15.1543 31.1821 15.3599L34.6556 18.8343C35.2241 18.3356 35.319 17.7555 34.8851 17.1221C34.689 16.8363 33.1796 15.3265 32.8938 15.1303C32.6278 14.9478 32.2679 14.8142 31.9425 14.8685H31.9415ZM24.4207 29.2691C24.2194 29.0635 23.6061 28.5179 23.5445 28.3081C23.3724 27.7207 23.8272 27.3472 24.3853 27.5454C24.6836 27.7791 26.4475 29.7125 26.6008 29.6854L28.0549 28.2466C28.0549 28.184 27.3842 27.6644 27.3091 27.4296C27.1495 26.9288 27.5855 26.5511 28.0778 26.6607C28.4074 26.7337 28.7746 27.4265 28.9926 27.3138C29.3149 27.1479 29.8834 26.2986 30.2412 26.0597C29.9794 25.7498 29.3994 25.3919 29.4912 24.9255C29.5736 24.5061 29.9544 24.359 30.3434 24.4758C30.5802 24.5468 30.9505 25.2448 31.1779 25.1279C31.2572 25.0872 32.4067 23.95 32.4223 23.8634C32.1762 23.4189 31.3427 23.0161 31.8351 22.4225C32.3264 21.8298 32.9866 22.6176 33.3257 22.9744C34.2884 22.2368 34.7818 21.0223 34.0235 19.9351C33.5823 19.3028 30.817 16.5619 30.1651 16.0621C29.4266 15.4955 28.4596 15.4903 27.7034 16.0256L20.3589 23.3678L20.3975 23.565L22.7038 25.8677C22.9343 26.6888 22.2365 26.9977 21.6117 26.4906C20.9816 25.9793 20.2577 25.0831 19.6277 24.4883C19.5755 24.4393 19.5484 24.3778 19.5369 24.3089C19.4003 24.215 18.6221 25.1572 18.4511 25.2803L24.7347 31.5655L25.7121 30.5128C25.2782 30.1048 24.8307 29.6937 24.4166 29.2701L24.4207 29.2691ZM17.5655 26.1828L15.6472 28.1015C15.6212 28.2476 16.5537 29.0322 16.6955 29.2221L18.6847 27.2324C18.4949 27.0905 17.7105 26.1577 17.5644 26.1838L17.5655 26.1828ZM13.1229 27.752C12.7161 27.8365 12.1904 28.5481 12.6327 28.9133L21.1037 37.3865C21.6784 37.9145 22.6329 36.9316 22.1217 36.3682L13.6904 27.9315C13.5297 27.7687 13.3493 27.704 13.1219 27.751L13.1229 27.752ZM19.5182 28.1349L17.5999 30.11L19.9646 32.419L21.8829 30.4439L19.5182 28.1349ZM22.7862 31.3329L20.797 33.3226L21.8599 34.3712L23.8345 32.4524C23.8606 32.3063 22.9281 31.5217 22.7862 31.3318V31.3329ZM6.87687 35.4844C6.51283 35.5606 5.95269 36.2659 6.35219 36.6029L13.3754 43.6353C13.9501 44.1632 14.9045 43.1804 14.3934 42.6169L7.4464 35.6649C7.28577 35.5022 7.10531 35.4375 6.87792 35.4844H6.87687Z" fill="url(#paint0_linear_6252_23428)"/>
<path d="M34.4595 44.999C33.5541 44.6807 32.7519 43.8617 32.7394 42.8475C32.7373 42.667 32.8834 42.3164 32.8083 42.1985C32.7759 42.1485 31.8246 41.6414 31.7662 41.6414C31.6911 41.6414 31.0663 42.0713 30.792 42.1495C28.348 42.8465 26.8501 39.5588 28.9697 38.1398C29.0823 38.0647 29.5121 37.9051 29.5288 37.879C29.5632 37.8237 29.5632 36.6311 29.5288 36.5758C29.51 36.5445 29.0187 36.3546 28.8779 36.2513C26.7541 34.6873 28.6109 31.3256 31.0788 32.4096C31.253 32.4858 31.6473 32.8072 31.7527 32.8009C31.8121 32.7978 32.777 32.3074 32.8093 32.2573C32.874 32.1561 32.7394 31.7408 32.7488 31.5395C32.826 29.8461 34.8548 28.8371 36.2515 29.8137C36.6291 30.0777 37.0975 30.6933 37.1747 31.1555C37.2164 31.4017 37.1455 32.1623 37.206 32.2573C37.2373 32.3074 38.1896 32.8176 38.2491 32.8176C38.3273 32.8176 39.1326 32.2312 39.6646 32.1989C42.3265 32.0382 42.966 35.8455 40.3906 36.6165C40.4323 36.8189 40.3394 37.8112 40.4031 37.8842C40.426 37.9103 40.8839 38.0344 41.0446 38.1398C43.1506 39.5296 41.635 42.8287 39.2212 42.1506C38.9469 42.0733 38.3033 41.6435 38.2491 41.6424C38.1948 41.6414 37.2811 42.138 37.2435 42.1808C37.1277 42.3102 37.2195 43.0364 37.1747 43.3024C37.0412 44.0902 36.215 44.7913 35.4755 45H34.4605L34.4595 44.999ZM34.8308 30.6453C33.5708 30.8279 33.7836 32.7946 35.1146 32.6538C36.4456 32.5129 36.1504 30.4533 34.8308 30.6453ZM39.2118 36.5748C38.2553 36.315 37.642 35.4719 37.5773 34.4953C37.5658 34.319 37.6691 33.9966 37.6263 33.909C37.5742 33.8046 36.6657 33.2881 36.5415 33.2996C36.4247 33.3101 36.045 33.646 35.8093 33.7347C35.2502 33.9455 34.763 33.9403 34.2039 33.7347C33.9891 33.6554 33.5051 33.284 33.406 33.284C33.3465 33.284 32.3952 33.7911 32.3639 33.8411C32.2919 33.9528 32.4307 34.296 32.4244 34.4818C32.391 35.4803 31.6911 36.2722 30.7878 36.6165V37.8404C31.7109 38.1847 32.391 38.9578 32.4244 39.9741C32.4307 40.1598 32.2919 40.502 32.3639 40.6147C32.3973 40.6669 33.4122 41.1719 33.4738 41.1593C33.5301 41.1479 34.0683 40.7399 34.3051 40.6648C34.8788 40.4832 35.3743 40.5271 35.9198 40.766C36.0951 40.8432 36.4873 41.1625 36.5937 41.1573C36.6719 41.1531 37.593 40.6147 37.6263 40.5469C37.6482 40.5031 37.5721 39.8948 37.6044 39.6694C37.6952 39.0257 38.1375 38.4309 38.683 38.0939C38.8374 37.999 39.1952 37.9051 39.2139 37.8832C39.2703 37.8185 39.2004 36.773 39.2129 36.5748H39.2118ZM29.9095 33.4582C28.7318 33.7003 29.0437 35.5637 30.26 35.4542C31.6327 35.3311 31.3959 33.1525 29.9095 33.4582ZM39.5926 33.4593C38.4066 33.6763 38.6559 35.6023 39.9441 35.4563C41.2292 35.3112 41.0665 33.189 39.5926 33.4593ZM29.9898 39.0017C28.7308 39.2103 28.9728 41.2146 30.3549 41.0112C31.6014 40.8276 31.3698 38.7732 29.9898 39.0017ZM39.6729 39.0006C38.4222 39.1728 38.6069 41.1593 39.9556 41.0101C41.2282 40.8693 41.0164 38.8159 39.6729 39.0006ZM34.7505 41.8146C33.3277 42.1067 34.1351 44.4689 35.5016 43.6593C36.4769 43.0812 35.9459 41.5694 34.7505 41.8146Z" fill="url(#paint1_linear_6252_23428)"/>
<defs>
<linearGradient id="paint0_linear_6252_23428" x1="37.6624" y1="33.6397" x2="37.6624" y2="41.6506" gradientUnits="userSpaceOnUse">
<stop stop-color="#ED3040"/>
<stop offset="1" stop-color="#2D23F4"/>
</linearGradient>
<linearGradient id="paint1_linear_6252_23428" x1="37.6624" y1="33.6397" x2="37.6624" y2="41.6506" gradientUnits="userSpaceOnUse">
<stop stop-color="#ED3040"/>
<stop offset="1" stop-color="#2D23F4"/>
</linearGradient>
</defs>
</svg>
