<svg width="50" height="50" viewBox="0 0 50 50" fill="none" xmlns="http://www.w3.org/2000/svg">
<path d="M25.0903 28.3331C25.6877 28.3338 26.2657 28.1187 26.7191 27.7271C27.1726 27.3351 27.4716 26.7925 27.5613 26.1977C27.6514 25.6033 27.5265 24.9956 27.2091 24.4858L25.6519 21.9799C25.5227 21.7957 25.3128 21.6858 25.089 21.6858C24.8649 21.6858 24.6549 21.7957 24.5261 21.9799L22.9713 24.4858C22.6542 24.9955 22.529 25.6032 22.619 26.1977C22.7087 26.7925 23.0077 27.335 23.4612 27.7271C23.9147 28.1187 24.4927 28.3338 25.0903 28.3331ZM24.097 25.1931L25.0903 23.5929L26.0837 25.1931H26.0834C26.3111 25.557 26.3239 26.0168 26.1172 26.3933C25.9109 26.7697 25.5175 27.0033 25.0904 27.0033C24.6632 27.0033 24.2695 26.7697 24.0632 26.3933C23.8565 26.0168 23.8696 25.557 24.097 25.1931Z" fill="url(#paint0_linear_6252_23394)"/>
<path d="M25.0903 16.3331H27.077H27.0766C27.2524 16.3327 27.4207 16.2626 27.5449 16.1375L31.05 12.6088L32.5681 14.1372L33.5046 13.1944L32.6506 12.3329L34.8291 10.1589C35.5497 9.38875 35.8182 8.29509 35.5362 7.27555C35.2546 6.25602 34.4637 5.45912 33.4513 5.17432C32.4389 4.88949 31.3523 5.15844 30.5863 5.88324L28.4011 8.05891L27.5403 7.19223L26.6087 8.13767L28.1272 9.66634L24.6221 13.195C24.4979 13.3201 24.4279 13.4895 24.4279 13.6664V15.6665V15.6661C24.4279 15.8431 24.4979 16.0125 24.6221 16.1375C24.7463 16.2626 24.9145 16.3331 25.0903 16.3331ZM31.5182 6.82787C31.9418 6.40013 32.5602 6.23242 33.1401 6.3879C33.7201 6.54337 34.1735 6.99889 34.33 7.58214C34.4861 8.16568 34.3211 8.78858 33.8972 9.21667L31.7121 11.3927L29.5266 9.19254L29.3393 9.00001L31.5182 6.82787ZM25.7524 13.9425L29.0633 10.6094L30.1134 11.6666L26.8026 14.9997H25.7524V13.9425Z" fill="url(#paint1_linear_6252_23394)"/>
<path d="M44.9517 24.9499C44.9231 24.6915 44.7476 24.4735 44.5025 24.3915C44.2456 24.3048 38.1456 22.315 33.9363 25.8447C32.4363 27.0485 31.4794 28.8084 31.281 30.7294L30.3879 28.8488V21.5529C30.982 21.3418 31.4413 20.8592 31.6261 20.2525C31.8107 19.6461 31.6984 18.9872 31.3234 18.4774C30.9488 17.9673 30.3557 17.6666 29.7255 17.6669H20.4547C19.8245 17.6666 19.2317 17.9673 18.8568 18.4774C18.4819 18.9872 18.3695 19.6462 18.5542 20.2525C18.7388 20.8592 19.1982 21.3418 19.7927 21.5529V28.8488L19.4697 29.5289L19.4693 29.5286C19.5715 27.3042 18.9432 25.108 17.6815 23.2793C14.2348 18.4201 6.9184 17.6983 6.60885 17.6669C6.28847 17.6358 5.99274 17.8426 5.9096 18.1555C5.82614 18.4641 3.88578 25.768 5.94016 30.5934C8.07174 35.6087 14.8686 35.6666 15.1571 35.6666C15.3957 35.6666 15.6158 35.5372 15.7335 35.3282C15.8508 35.1191 15.8475 34.8627 15.7246 34.6566L13.7379 31.3235C13.6617 31.1954 13.5454 31.0965 13.407 31.0423L10.4218 29.9155L11.958 29.6575C12.1601 29.6238 12.3352 29.4977 12.4325 29.3161C12.5298 29.1345 12.538 28.9182 12.4548 28.7296L10.9098 25.231L12.0977 26.1877H12.098C12.3615 26.3998 12.7414 26.3786 12.9799 26.1384L13.833 25.2763V29.0002C13.833 29.1253 13.8678 29.2477 13.9335 29.3535L17.1166 34.4814L14.3863 40.2284V40.2288C13.8957 41.2615 13.966 42.4756 14.5723 43.4439C15.1789 44.4125 16.2363 45 17.3735 45H32.806C33.9433 45 35.0011 44.4125 35.6073 43.4439C36.2135 42.4756 36.2839 41.2615 35.7933 40.2288L33.0963 34.5515L35.4861 32.1634C35.5594 32.09 35.6149 32.0003 35.6477 31.9014L36.347 29.8002L36.3815 29.9034L36.3812 29.9037C36.4403 30.0801 36.5698 30.2236 36.7387 30.2997C36.9076 30.3755 37.1001 30.3771 37.27 30.3037L39.1055 29.5124L34.5325 34.5747C34.3991 34.7222 34.3383 34.922 34.3669 35.1195C34.3952 35.3167 34.5098 35.491 34.6794 35.5942C35.5478 36.0835 36.5281 36.3362 37.523 36.3276C38.9491 36.3227 40.3265 35.8046 41.4066 34.8668C45.6044 31.3471 44.9798 25.2092 44.9515 24.95L44.9517 24.9499ZM14.7487 23.0507C14.501 22.9475 14.2161 23.0047 14.0268 23.1953L12.4594 24.7732L9.61181 22.4794C9.37358 22.2869 9.03546 22.2839 8.79329 22.4718C8.55144 22.6597 8.46864 22.9898 8.59285 23.2707L10.8946 28.4839L7.76511 29.0092C7.46938 29.0585 7.24331 29.3016 7.21407 29.602C7.18482 29.9027 7.35996 30.1852 7.64058 30.2914L12.7222 32.2088L13.9301 34.2353C12.0276 33.9866 8.4551 33.1185 7.15782 30.0708C5.59505 26.3995 6.65048 20.8434 7.05267 19.0709C8.77778 19.3375 14.0254 20.4176 16.6061 24.0535C18.7761 27.1128 18.1682 30.8661 17.6307 32.7914L15.157 28.8086V23.6665C15.157 23.3969 14.996 23.1537 14.7486 23.0505L14.7487 23.0507ZM21.0508 29.288C21.0938 29.198 21.1165 29.0998 21.1168 28.9999V21.6666H23.1034V20.3334H20.4547C20.089 20.3334 19.7926 20.0351 19.7926 19.6669C19.7926 19.2987 20.089 19 20.4547 19H29.7255C30.0912 19 30.3879 19.2987 30.3879 19.6669C30.3879 20.0351 30.0912 20.3334 29.7255 20.3334H27.0767V21.6666H29.0634V28.9999C29.0637 29.0998 29.0864 29.198 29.1297 29.288L34.3753 40.3328H27.582C27.5561 39.914 27.4273 39.5084 27.2071 39.1522L25.7524 36.8091V36.3331H26.4146C27.2923 36.3317 28.134 35.9804 28.7548 35.3555C29.3751 34.7306 29.7244 33.8834 29.7254 32.9995C29.7254 32.8229 29.6557 32.6532 29.5315 32.5282C29.4073 32.4034 29.2391 32.333 29.0633 32.333H27.7391C27.0201 32.3356 26.3222 32.5758 25.7524 33.0171V32.9995H25.4715C25.2142 32.4061 24.7907 31.9006 24.2525 31.5453C23.7142 31.1904 23.085 31.0005 22.4416 30.9998H21.1171C20.7514 30.9998 20.455 31.2982 20.455 31.6664C20.456 32.55 20.8052 33.3972 21.426 34.022C22.0467 34.6468 22.8882 34.9985 23.7658 34.9996H24.4279V36.8087L22.971 39.1521H22.9713C22.7505 39.5081 22.6223 39.914 22.5984 40.3328H15.8051L21.0508 29.288ZM25.8652 34.9997C26.0029 34.61 26.2566 34.2729 26.5921 34.0341C26.9276 33.7952 27.3281 33.6669 27.7389 33.6666H28.2879H28.2876C28.1503 34.0563 27.8963 34.3933 27.5611 34.6322C27.2256 34.8707 26.8251 34.9993 26.4143 34.9997H25.8652ZM23.7655 33.6665C23.3548 33.6659 22.9542 33.5375 22.619 33.2987C22.2835 33.0602 22.0295 32.7228 21.8922 32.3331H22.4413C22.852 32.3338 23.2526 32.4621 23.5877 32.701C23.9232 32.9395 24.1769 33.2769 24.3146 33.6665H23.7655ZM34.4868 42.7331C34.1243 43.3156 33.4889 43.6686 32.8061 43.6663H17.3736C16.8465 43.6699 16.3405 43.4599 15.9685 43.0837C15.5969 42.7076 15.3909 42.1968 15.3971 41.6666H23.3352C23.5461 41.6666 23.7446 41.5657 23.8695 41.3944C23.9947 41.2233 24.0308 41.0023 23.9677 40.7999C23.8714 40.4827 23.9188 40.139 24.0969 39.8597L25.0902 38.2596L26.0836 39.8597H26.0833C26.2006 40.0466 26.263 40.263 26.2637 40.4839C26.2643 40.5911 26.2482 40.698 26.216 40.8005C26.1529 41.0023 26.1891 41.2226 26.3133 41.3933C26.4375 41.564 26.6346 41.6656 26.8449 41.6666H34.7833C34.7876 42.043 34.6848 42.4132 34.4873 42.7331L34.4868 42.7331ZM40.5585 33.8444C39.3532 34.9235 37.6705 35.2788 36.1364 34.7776L42.1345 28.135C42.3441 27.9031 42.3648 27.5551 42.1841 27.2997C42.0034 27.044 41.6698 26.9501 41.3836 27.0738L37.4107 28.7883L36.9756 27.4757H36.9753C36.8859 27.2021 36.6323 27.0172 36.3464 27.0172C36.0602 27.0172 35.8065 27.2021 35.7171 27.4757L34.4426 31.3249L32.6931 33.0702C32.426 31.9429 32.4809 30.7625 32.8509 29.6649C33.2208 28.5673 33.8915 27.5974 34.7849 26.8663C37.8389 24.3023 42.2863 25.1769 43.6629 25.5332C43.7158 26.9252 43.6172 31.2783 40.5587 33.8444L40.5585 33.8444Z" fill="url(#paint2_linear_6252_23394)"/>
<path d="M18.5383 36.7009L19.8625 34.0343L21.0471 34.6305L19.7228 37.2971L18.5383 36.7009Z" fill="url(#paint3_linear_6252_23394)"/>
<path d="M17.2134 39.3677L17.8755 38.0346L19.0601 38.6307L18.398 39.9638L17.2134 39.3677Z" fill="url(#paint4_linear_6252_23394)"/>
<path d="M18.4685 12.9998C19.5222 12.9998 20.533 12.5784 21.2779 11.8284C22.0231 11.0782 22.4417 10.0609 22.4417 9.00007C22.4417 7.93921 22.0231 6.92195 21.2779 6.17172C20.533 5.42145 19.5222 5 18.4685 5C17.4147 5 16.4043 5.42145 15.6591 6.17172C14.9141 6.92199 14.4955 7.93921 14.4955 9.00007C14.4965 10.0606 14.9155 11.0772 15.6604 11.8272C16.4053 12.5771 17.415 12.9989 18.4685 12.9999L18.4685 12.9998ZM18.4685 6.33338C19.171 6.33338 19.8446 6.61424 20.3415 7.11442C20.8384 7.6146 21.1173 8.29275 21.1173 9.00004C21.1173 9.70731 20.8383 10.3854 20.3415 10.8857C19.8446 11.3859 19.171 11.6667 18.4685 11.6667C17.7659 11.6667 17.0924 11.3859 16.5955 10.8857C16.099 10.3855 15.8197 9.70734 15.8197 9.00004C15.8197 8.29278 16.099 7.61466 16.5955 7.11442C17.0923 6.61425 17.7659 6.33338 18.4685 6.33338Z" fill="url(#paint5_linear_6252_23394)"/>
<path d="M37.672 21.0001C38.3746 21.0001 39.0481 20.7193 39.545 20.2191C40.0419 19.7189 40.3208 19.0407 40.3208 18.3335C40.3208 17.6262 40.0419 16.9481 39.545 16.4478C39.0482 15.948 38.3746 15.6668 37.672 15.6668C36.9695 15.6668 36.2959 15.948 35.799 16.4478C35.3022 16.948 35.0232 17.6262 35.0232 18.3335C35.0232 19.0407 35.3022 19.7188 35.799 20.2191C36.2959 20.7193 36.9695 21.0001 37.672 21.0001ZM37.672 17.0004C38.0233 17.0004 38.3601 17.1406 38.6085 17.3907C38.857 17.6408 38.9966 17.9799 38.9966 18.3335C38.9966 18.6872 38.8569 19.0263 38.6085 19.2764C38.3601 19.5265 38.0233 19.667 37.672 19.667C37.3208 19.667 36.984 19.5264 36.7355 19.2764C36.4871 19.0263 36.3478 18.6872 36.3478 18.3335C36.3478 17.9799 36.4871 17.6408 36.7355 17.3907C36.984 17.1406 37.3207 17.0004 37.672 17.0004Z" fill="url(#paint6_linear_6252_23394)"/>
<path d="M42.307 9.00007H43.6312V7.6666H44.9557V6.33347H43.6312V5H42.307V6.33347H40.9825V7.6666H42.307V9.00007Z" fill="url(#paint7_linear_6252_23394)"/>
<path d="M16.4816 8.33359H17.8058V9.66672H16.4816V8.33359Z" fill="url(#paint8_linear_6252_23394)"/>
<path d="M8.53567 12.9998H9.85988V11.6667H11.1844V10.3332H9.85988V9.00007H8.53567V10.3332H7.21113V11.6667H8.53567V12.9998Z" fill="url(#paint9_linear_6252_23394)"/>
<defs>
<linearGradient id="paint0_linear_6252_23394" x1="37.6624" y1="33.6397" x2="37.6624" y2="41.6506" gradientUnits="userSpaceOnUse">
<stop stop-color="#ED3040"/>
<stop offset="1" stop-color="#2D23F4"/>
</linearGradient>
<linearGradient id="paint1_linear_6252_23394" x1="37.6624" y1="33.6397" x2="37.6624" y2="41.6506" gradientUnits="userSpaceOnUse">
<stop stop-color="#ED3040"/>
<stop offset="1" stop-color="#2D23F4"/>
</linearGradient>
<linearGradient id="paint2_linear_6252_23394" x1="37.6624" y1="33.6397" x2="37.6624" y2="41.6506" gradientUnits="userSpaceOnUse">
<stop stop-color="#ED3040"/>
<stop offset="1" stop-color="#2D23F4"/>
</linearGradient>
<linearGradient id="paint3_linear_6252_23394" x1="37.6624" y1="33.6397" x2="37.6624" y2="41.6506" gradientUnits="userSpaceOnUse">
<stop stop-color="#ED3040"/>
<stop offset="1" stop-color="#2D23F4"/>
</linearGradient>
<linearGradient id="paint4_linear_6252_23394" x1="37.6624" y1="33.6397" x2="37.6624" y2="41.6506" gradientUnits="userSpaceOnUse">
<stop stop-color="#ED3040"/>
<stop offset="1" stop-color="#2D23F4"/>
</linearGradient>
<linearGradient id="paint5_linear_6252_23394" x1="37.6624" y1="33.6397" x2="37.6624" y2="41.6506" gradientUnits="userSpaceOnUse">
<stop stop-color="#ED3040"/>
<stop offset="1" stop-color="#2D23F4"/>
</linearGradient>
<linearGradient id="paint6_linear_6252_23394" x1="37.6624" y1="33.6397" x2="37.6624" y2="41.6506" gradientUnits="userSpaceOnUse">
<stop stop-color="#ED3040"/>
<stop offset="1" stop-color="#2D23F4"/>
</linearGradient>
<linearGradient id="paint7_linear_6252_23394" x1="37.6624" y1="33.6397" x2="37.6624" y2="41.6506" gradientUnits="userSpaceOnUse">
<stop stop-color="#ED3040"/>
<stop offset="1" stop-color="#2D23F4"/>
</linearGradient>
<linearGradient id="paint8_linear_6252_23394" x1="37.6624" y1="33.6397" x2="37.6624" y2="41.6506" gradientUnits="userSpaceOnUse">
<stop stop-color="#ED3040"/>
<stop offset="1" stop-color="#2D23F4"/>
</linearGradient>
<linearGradient id="paint9_linear_6252_23394" x1="37.6624" y1="33.6397" x2="37.6624" y2="41.6506" gradientUnits="userSpaceOnUse">
<stop stop-color="#ED3040"/>
<stop offset="1" stop-color="#2D23F4"/>
</linearGradient>
</defs>
</svg>
