<svg width="50" height="50" viewBox="0 0 50 50" fill="none" xmlns="http://www.w3.org/2000/svg">
<path d="M5.00104 24.3841C5.92907 21.2717 9.99156 21.2467 10.906 24.3872L17.3334 24.3841C17.3668 23.203 17.787 22.0261 18.3939 21.0286L18.3553 20.9076L14.9362 17.5208C10.9008 19.208 6.81331 16.1613 7.36283 11.7907C7.43374 11.2293 8.05729 9.10294 8.90712 9.97102C9.32838 10.4009 8.85498 10.9372 8.72568 11.3587C7.6965 14.7152 10.7601 17.6106 14.0551 16.5735C13.1854 14.8415 14.8215 13.2044 16.5524 14.0746C17.566 10.7389 14.7412 7.75595 11.3409 8.74193C10.9676 8.85044 10.0739 9.43369 9.85704 8.70855C9.66935 8.08044 10.2043 7.87385 10.6787 7.68918C15.2083 5.92693 19.4606 10.5637 17.5003 14.9562L20.9621 18.4265C21.9903 17.8328 23.1519 17.3841 24.3594 17.3549L24.3552 14.4679C21.0424 13.8075 21.3792 8.90887 24.7191 8.61673C28.3697 8.29746 29.2216 13.7271 25.6106 14.4679L25.6065 17.3549C26.8139 17.3831 27.9745 17.8318 29.0037 18.4265L33.3759 14.0715C33.4676 13.868 33.2476 13.6301 33.1757 13.412C30.6116 5.54193 40.9909 1.85779 44.3016 8.29329C46.702 12.9603 42.5456 18.2418 37.455 17.0972C36.942 16.9814 36.4696 16.7206 35.965 16.5839C35.4061 16.9292 34.6574 18.3461 33.9139 17.9058C32.9859 17.356 34.6574 16.2511 34.9723 15.8306C34.6449 15.6271 34.3539 15.335 34.1537 15.0115L30.061 19.1224C30.0433 19.2257 30.7669 19.9435 30.8639 19.9258C31.3749 19.5825 31.8441 18.5684 32.5563 18.7948C33.7565 19.1777 31.867 20.5831 31.5594 20.9848C32.1527 22.0136 32.6011 23.1759 32.6303 24.3841C32.9004 24.3319 33.6981 24.4707 33.8826 24.3476C33.9264 24.3184 34.159 23.6381 34.2549 23.4701C35.5468 21.2091 39.0671 21.7308 39.6969 24.3027C40.4153 27.2388 36.77 29.2378 34.6563 27.0812C34.3195 26.7379 33.9504 25.7134 33.8826 25.6685C33.6981 25.5454 32.9004 25.6841 32.6303 25.632C32.6022 26.8402 32.1538 28.0015 31.5594 29.0313L34.6324 32.1029C39.3883 29.7074 44.7875 33.9278 43.4413 39.1446C42.9137 41.1907 41.1546 42.9508 39.1098 43.4788C33.8962 44.8258 29.6794 39.4222 32.0724 34.6644L29.0026 31.5896C27.9745 32.1833 26.8129 32.6319 25.6054 32.6611L25.6096 35.5481C28.0037 35.9728 28.7826 39.1686 26.8922 40.7045C24.4782 42.6649 21.0966 40.1702 22.2353 37.2947C22.5711 36.4465 23.4188 35.6566 24.3531 35.5481L24.3573 32.6611C23.1498 32.633 21.9892 32.1843 20.9601 31.5896L13.7808 38.7502C14.6348 41.1781 13.5327 43.8304 11.1094 44.7486L10.2293 45H8.82474C6.85293 44.9384 5.06152 43.1459 5 41.1729V39.7675C5.16371 36.7532 8.51505 35.0932 11.2189 36.0208L13.7152 33.5188C14.4221 32.8938 15.4346 33.5824 14.9289 34.4276L12.59 36.8085C12.5786 36.9024 13.0812 37.4064 13.1927 37.397L19.6817 30.829C19.6817 30.7893 19.1895 30.2781 19.1092 30.299L16.6713 32.6977C15.8653 33.1306 15.1531 32.3346 15.6494 31.5875L18.2031 28.9843C17.6306 28.0056 17.2761 26.9143 17.1603 25.7864L11.051 25.7833C10.5525 27.1428 9.43057 28.1486 7.91444 28.1267C6.52343 28.1068 5.08655 27.0937 5.00104 25.6309V24.381V24.3841ZM42.3611 14.5942C46.9105 9.99502 39.9336 3.07853 35.3904 7.61927C30.8472 12.16 37.8043 19.1986 42.3611 14.5942ZM24.5721 9.87608C22.6253 10.212 22.8818 13.5237 25.0882 13.3672C27.4709 13.1971 27.1768 9.42743 24.5721 9.87608ZM15.1698 15.1899C14.9706 15.3892 14.9612 15.7701 15.1479 15.9892L19.0508 19.8987C19.1801 19.9654 19.811 19.353 19.8746 19.2299C19.9215 19.1381 19.9121 19.1005 19.836 19.0327L15.9685 15.1691C15.7506 14.9823 15.3689 14.9917 15.1698 15.191V15.1899ZM24.2634 18.5496C21.6691 18.8031 19.3678 20.7897 18.7161 23.3073C17.2709 28.8883 23.0935 33.4353 28.1028 30.6704C26.326 29.1199 28.2414 26.4667 30.2852 27.7855C30.4155 27.8689 30.5897 28.2039 30.7169 28.0515C30.891 27.8439 31.208 26.8871 31.281 26.5856C32.3665 22.1523 28.7785 18.1072 24.2634 18.5485V18.5496ZM7.47753 23.3084C5.89675 23.5995 5.72574 26.1797 7.36387 26.6659C10.2595 27.5246 10.5838 22.7366 7.47753 23.3084ZM36.3581 23.3094C34.6282 23.6057 34.648 26.4719 36.4248 26.7202C39.3048 27.124 39.2464 22.8149 36.3581 23.3094ZM28.9411 28.6953C28.5887 28.7986 28.5647 29.3526 28.7722 29.6124L32.6689 33.5261C32.7356 33.6023 32.7742 33.6127 32.866 33.5647C32.989 33.501 33.6011 32.8698 33.5344 32.7404L29.6272 28.8351C29.4521 28.6744 29.1684 28.6296 28.9411 28.6953ZM36.8294 32.6841C33.1152 33.1035 31.3165 37.7371 33.6845 40.6293C36.0786 43.5539 40.7876 42.8392 42.114 39.3001C43.4424 35.7558 40.5499 32.2636 36.8294 32.6841ZM24.8088 36.6635C22.5012 36.9066 22.8151 40.5041 25.326 40.1525C27.3718 39.8666 27.0903 36.4225 24.8088 36.6635ZM9.27729 37.1372C4.55058 37.4878 5.71219 44.8508 10.3106 43.7156C14.2688 42.739 13.2991 36.8388 9.27729 37.1372Z" fill="url(#paint0_linear_6252_23416)"/>
<defs>
<linearGradient id="paint0_linear_6252_23416" x1="37.6624" y1="33.6397" x2="37.6624" y2="41.6506" gradientUnits="userSpaceOnUse">
<stop stop-color="#ED3040"/>
<stop offset="1" stop-color="#2D23F4"/>
</linearGradient>
</defs>
</svg>
