<svg width="50" height="50" viewBox="0 0 50 50" fill="none" xmlns="http://www.w3.org/2000/svg">
<path d="M27.7588 42H7.06875C6.52016 42 5.99377 41.7851 5.60574 41.4024C5.218 41.0198 5 40.5007 5 39.9599V10.0397C5 9.49885 5.218 8.97984 5.60574 8.59725C5.99383 8.21494 6.52022 8 7.06875 8H27.7588C28.3074 8 28.8337 8.21494 29.2218 8.59725C29.6095 8.9799 29.8275 9.49891 29.8275 10.0397V39.9599C29.8275 40.5008 29.6095 41.0198 29.2218 41.4024C28.8337 41.7851 28.3073 42 27.7588 42ZM7.06875 9.35966C6.68785 9.35966 6.37916 9.66402 6.37916 10.0396V39.9597C6.37916 40.1399 6.45205 40.313 6.58107 40.4406C6.71044 40.5681 6.886 40.6397 7.06875 40.6397H27.7588C27.9415 40.6397 28.1171 40.5681 28.2464 40.4406C28.3755 40.313 28.4484 40.1399 28.4484 39.9597V10.0396C28.4484 9.8594 28.3755 9.6863 28.2464 9.55875C28.1171 9.4312 27.9415 9.35966 27.7588 9.35966H7.06875Z" fill="url(#paint0_linear_6252_23390)"/>
<path d="M26.3789 18.8798H8.44773C8.06683 18.8798 7.75814 18.5755 7.75814 18.1999V11.4C7.75814 11.0244 8.06683 10.7201 8.44773 10.7201H26.3789C26.562 10.7201 26.7372 10.7916 26.8666 10.9192C26.9959 11.0467 27.0685 11.2195 27.0685 11.4V18.1999C27.0685 18.3804 26.9959 18.5532 26.8666 18.6807C26.7372 18.8083 26.562 18.8798 26.3789 18.8798ZM9.13723 17.52H25.6894V12.0799H9.13723V17.52Z" fill="url(#paint1_linear_6252_23390)"/>
<path d="M10.5171 25C9.96816 25 9.44185 24.7851 9.05408 24.4024C8.666 24.0198 8.448 23.5008 8.448 22.9599C8.448 22.4187 8.666 21.9 9.05408 21.5174C9.44183 21.1348 9.96821 20.9198 10.5171 20.9198C11.0657 20.9198 11.5921 21.1348 11.9801 21.5174C12.3678 21.9001 12.5858 22.4187 12.5858 22.9599C12.5858 23.5008 12.3678 24.0198 11.9801 24.4024C11.592 24.7851 11.0656 25 10.5171 25ZM10.5171 22.28C10.2382 22.28 9.98663 22.4457 9.87986 22.6998C9.77309 22.9539 9.83195 23.2464 10.0294 23.4408C10.2265 23.6351 10.5232 23.6935 10.7809 23.5882C11.0386 23.4829 11.2067 23.2349 11.2067 22.9599C11.2067 22.7794 11.1341 22.6066 11.0048 22.4791C10.8754 22.3515 10.6998 22.28 10.5171 22.28Z" fill="url(#paint2_linear_6252_23390)"/>
<path d="M10.5171 30.4404C9.96816 30.4404 9.44185 30.2254 9.05408 29.8428C8.666 29.4601 8.448 28.9411 8.448 28.4003C8.448 27.859 8.666 27.3404 9.05408 26.9578C9.44183 26.5751 9.96821 26.3602 10.5171 26.3602C11.0657 26.3602 11.5921 26.5751 11.9801 26.9578C12.3678 27.3404 12.5858 27.8591 12.5858 28.4003C12.5858 28.9412 12.3678 29.4602 11.9801 29.8428C11.592 30.2254 11.0656 30.4404 10.5171 30.4404ZM10.5171 27.7204C10.2382 27.7204 9.98663 27.886 9.87986 28.1401C9.77309 28.3942 9.83195 28.6864 10.0294 28.8811C10.2265 29.0755 10.5232 29.1338 10.7809 29.0286C11.0386 28.9233 11.2067 28.6753 11.2067 28.4003C11.2067 28.2198 11.1341 28.047 11.0048 27.9194C10.8754 27.7919 10.6998 27.7204 10.5171 27.7204Z" fill="url(#paint3_linear_6252_23390)"/>
<path d="M10.5171 35.8798C9.96816 35.8798 9.44185 35.6649 9.05408 35.2826C8.666 34.8999 8.448 34.3809 8.448 33.8401C8.448 33.2988 8.666 32.7802 9.05408 32.3976C9.44183 32.0149 9.96821 31.8 10.5171 31.8C11.0657 31.8 11.5921 32.0149 11.9801 32.3976C12.3678 32.7802 12.5858 33.2989 12.5858 33.8401C12.5858 34.381 12.3678 34.9 11.9801 35.2826C11.592 35.6649 11.0656 35.8798 10.5171 35.8798ZM10.5171 33.1598C10.2382 33.1598 9.98663 33.3255 9.87986 33.5799C9.77308 33.834 9.83195 34.1262 10.0294 34.3209C10.2265 34.5153 10.5232 34.5733 10.7809 34.4684C11.0386 34.3631 11.2067 34.1151 11.2067 33.8401C11.2067 33.6596 11.1341 33.4868 11.0048 33.3593C10.8754 33.2317 10.6998 33.1598 10.5171 33.1598Z" fill="url(#paint4_linear_6252_23390)"/>
<path d="M17.4138 25C16.8652 25 16.3388 24.7851 15.9508 24.4024C15.5627 24.0198 15.3447 23.5008 15.3447 22.9599C15.3447 22.4187 15.5627 21.9 15.9508 21.5174C16.3388 21.1348 16.8652 20.9198 17.4138 20.9198C17.9623 20.9198 18.4887 21.1348 18.8768 21.5174C19.2648 21.9001 19.4829 22.4187 19.4829 22.9599C19.4829 23.5008 19.2648 24.0198 18.8768 24.4024C18.4887 24.7851 17.9623 25 17.4138 25ZM17.4138 22.28C17.1348 22.28 16.8833 22.4457 16.7765 22.6998C16.6698 22.9539 16.729 23.2464 16.9261 23.4408C17.1232 23.6351 17.4199 23.6935 17.6776 23.5882C17.9353 23.4829 18.1033 23.2349 18.1033 22.9599C18.1033 22.7794 18.0308 22.6066 17.9014 22.4791C17.7721 22.3515 17.5965 22.28 17.4138 22.28Z" fill="url(#paint5_linear_6252_23390)"/>
<path d="M17.4138 30.4404C16.8652 30.4404 16.3388 30.2254 15.9508 29.8428C15.5627 29.4601 15.3447 28.9411 15.3447 28.4003C15.3447 27.859 15.5627 27.3404 15.9508 26.9578C16.3388 26.5751 16.8652 26.3602 17.4138 26.3602C17.9623 26.3602 18.4887 26.5751 18.8768 26.9578C19.2648 27.3404 19.4829 27.8591 19.4829 28.4003C19.4829 28.9412 19.2648 29.4602 18.8768 29.8428C18.4887 30.2254 17.9623 30.4404 17.4138 30.4404ZM17.4138 27.7204C17.1348 27.7204 16.8833 27.886 16.7765 28.1401C16.6698 28.3942 16.729 28.6864 16.9261 28.8811C17.1232 29.0755 17.4199 29.1338 17.6776 29.0286C17.9353 28.9233 18.1033 28.6753 18.1033 28.4003C18.1033 28.2198 18.0308 28.047 17.9014 27.9194C17.7721 27.7919 17.5965 27.7204 17.4138 27.7204Z" fill="url(#paint6_linear_6252_23390)"/>
<path d="M17.4138 35.8798C16.8652 35.8798 16.3388 35.6649 15.9508 35.2826C15.5627 34.8999 15.3447 34.3809 15.3447 33.8401C15.3447 33.2988 15.5627 32.7802 15.9508 32.3976C16.3388 32.0149 16.8652 31.8 17.4138 31.8C17.9623 31.8 18.4887 32.0149 18.8768 32.3976C19.2648 32.7802 19.4829 33.2989 19.4829 33.8401C19.4829 34.381 19.2648 34.9 18.8768 35.2826C18.4887 35.6649 17.9623 35.8798 17.4138 35.8798ZM17.4138 33.1598C17.1348 33.1598 16.8833 33.3255 16.7765 33.5799C16.6698 33.834 16.729 34.1262 16.9261 34.3209C17.1232 34.5153 17.4199 34.5733 17.6776 34.4684C17.9353 34.3631 18.1033 34.1151 18.1033 33.8401C18.1033 33.6596 18.0308 33.4868 17.9014 33.3593C17.7721 33.2317 17.5965 33.1598 17.4138 33.1598Z" fill="url(#paint7_linear_6252_23390)"/>
<path d="M24.3096 25C23.761 25 23.2346 24.7851 22.8466 24.4024C22.4588 24.0198 22.2408 23.5008 22.2408 22.9599C22.2408 22.4187 22.4588 21.9 22.8466 21.5174C23.2346 21.1348 23.761 20.9198 24.3096 20.9198C24.8585 20.9198 25.3848 21.1348 25.7726 21.5174C26.1606 21.9001 26.3786 22.4187 26.3786 22.9599C26.3786 23.5008 26.1606 24.0198 25.7726 24.4024C25.3848 24.7851 24.8584 25 24.3096 25ZM24.3096 22.28C24.0306 22.28 23.7791 22.4457 23.6727 22.6998C23.5659 22.9539 23.6248 23.2464 23.8219 23.4408C24.0193 23.6351 24.3161 23.6935 24.5738 23.5882C24.8315 23.4829 24.9995 23.2349 24.9995 22.9599C24.9995 22.7794 24.9266 22.6066 24.7972 22.4791C24.6679 22.3515 24.4926 22.28 24.3096 22.28Z" fill="url(#paint8_linear_6252_23390)"/>
<path d="M24.3096 30.4404C23.761 30.4404 23.2346 30.2254 22.8466 29.8428C22.4588 29.4601 22.2408 28.9411 22.2408 28.4003C22.2408 27.859 22.4588 27.3404 22.8466 26.9578C23.2346 26.5751 23.761 26.3602 24.3096 26.3602C24.8585 26.3602 25.3848 26.5751 25.7726 26.9578C26.1606 27.3404 26.3786 27.8591 26.3786 28.4003C26.3786 28.9412 26.1606 29.4602 25.7726 29.8428C25.3848 30.2254 24.8584 30.4404 24.3096 30.4404ZM24.3096 27.7204C24.0306 27.7204 23.7791 27.886 23.6727 28.1401C23.5659 28.3942 23.6248 28.6864 23.8219 28.8811C24.0193 29.0755 24.3161 29.1338 24.5738 29.0286C24.8315 28.9233 24.9995 28.6753 24.9995 28.4003C24.9995 28.2198 24.9266 28.047 24.7972 27.9194C24.6679 27.7919 24.4926 27.7204 24.3096 27.7204Z" fill="url(#paint9_linear_6252_23390)"/>
<path d="M24.3096 35.8798C23.761 35.8798 23.2346 35.6649 22.8466 35.2826C22.4588 34.8999 22.2408 34.3809 22.2408 33.8401C22.2408 33.2988 22.4588 32.7802 22.8466 32.3976C23.2346 32.0149 23.761 31.8 24.3096 31.8C24.8585 31.8 25.3848 32.0149 25.7726 32.3976C26.1606 32.7802 26.3786 33.2989 26.3786 33.8401C26.3786 34.381 26.1606 34.9 25.7726 35.2826C25.3848 35.6649 24.8584 35.8798 24.3096 35.8798ZM24.3096 33.1598C24.0306 33.1598 23.7791 33.3255 23.6727 33.5799C23.5659 33.834 23.6248 34.1262 23.8219 34.3209C24.0193 34.5153 24.3161 34.5733 24.5738 34.4684C24.8315 34.3631 24.9995 34.1151 24.9995 33.8401C24.9995 33.6596 24.9266 33.4868 24.7972 33.3593C24.6679 33.2317 24.4926 33.1598 24.3096 33.1598Z" fill="url(#paint10_linear_6252_23390)"/>
<path d="M40.8617 18.8798H37.4135C37.0326 18.8798 36.7239 18.5755 36.7239 18.1999V11.4C36.7239 11.0244 37.0326 10.7201 37.4135 10.7201H40.8617C42.3402 10.7201 43.7064 11.4975 44.4455 12.7598C45.1847 14.0221 45.1847 15.5777 44.4455 16.84C43.7063 18.1023 42.3402 18.8797 40.8617 18.8797V18.8798ZM38.1031 17.52H40.8617C41.8474 17.52 42.7581 17.0017 43.2509 16.1602C43.7437 15.3183 43.7437 14.2817 43.2509 13.4402C42.7581 12.5986 41.8474 12.08 40.8617 12.08H38.1031V17.52Z" fill="url(#paint11_linear_6252_23390)"/>
<path d="M40.8618 39.2798H29.1378C28.7569 39.2798 28.4482 38.9751 28.4482 38.5996V18.1996C28.4482 17.824 28.7569 17.5197 29.1378 17.5197H40.8618C41.5934 17.5197 42.295 17.2332 42.8125 16.723C43.33 16.2128 43.6205 15.5211 43.6205 14.7996C43.6205 14.424 43.9292 14.1197 44.3101 14.1197C44.691 14.1197 45 14.424 45 14.7996V35.1996C45 36.2817 44.564 37.3197 43.7878 38.0846C43.0117 38.8499 41.9593 39.2798 40.8618 39.2798L40.8618 39.2798ZM29.8272 37.9197H40.8618C41.5934 37.9197 42.295 37.6332 42.8125 37.123C43.33 36.6128 43.6205 35.9211 43.6205 35.1996V17.8394C42.8621 18.5092 41.8799 18.8793 40.8618 18.8797H29.8273L29.8272 37.9197Z" fill="url(#paint12_linear_6252_23390)"/>
<path d="M40.8617 18.8798H37.4135C37.0326 18.8798 36.7239 18.5755 36.7239 18.1999V11.4C36.7239 11.0244 37.0326 10.7201 37.4135 10.7201H40.8617C42.3402 10.7201 43.7064 11.4975 44.4455 12.7598C45.1847 14.0221 45.1847 15.5777 44.4455 16.84C43.7063 18.1023 42.3402 18.8797 40.8617 18.8797V18.8798ZM38.1031 17.52H40.8617C41.8474 17.52 42.7581 17.0017 43.2509 16.1602C43.7437 15.3183 43.7437 14.2817 43.2509 13.4402C42.7581 12.5986 41.8474 12.08 40.8617 12.08H38.1031V17.52Z" fill="url(#paint13_linear_6252_23390)"/>
<path d="M38.1038 23.6395H31.8968C31.5159 23.6395 31.2072 23.3351 31.2072 22.9596C31.2072 22.584 31.5159 22.2796 31.8968 22.2796H38.1038C38.4847 22.2796 38.7934 22.584 38.7934 22.9596C38.7934 23.3351 38.4847 23.6395 38.1038 23.6395Z" fill="url(#paint14_linear_6252_23390)"/>
<path d="M38.1038 29.0798H31.8968C31.5159 29.0798 31.2072 28.7755 31.2072 28.3999C31.2072 28.0243 31.5159 27.72 31.8968 27.72H38.1038C38.4847 27.72 38.7934 28.0243 38.7934 28.3999C38.7934 28.7755 38.4847 29.0798 38.1038 29.0798Z" fill="url(#paint15_linear_6252_23390)"/>
<path d="M38.1038 34.5202H31.8968C31.5159 34.5202 31.2072 34.2158 31.2072 33.8403C31.2072 33.4647 31.5159 33.16 31.8968 33.16H38.1038C38.4847 33.16 38.7934 33.4647 38.7934 33.8403C38.7934 34.2158 38.4847 34.5202 38.1038 34.5202Z" fill="url(#paint16_linear_6252_23390)"/>
<defs>
<linearGradient id="paint0_linear_6252_23390" x1="0" y1="0" x2="0" y2="1" gradientUnits="objectBoundingBox">
<stop stop-color="#ED3040"/>
<stop offset="1" stop-color="#2D23F4"/>
</linearGradient>
<linearGradient id="paint1_linear_6252_23390" x1="0" y1="0" x2="0" y2="1" gradientUnits="objectBoundingBox">
<stop stop-color="#ED3040"/>
<stop offset="1" stop-color="#2D23F4"/>
</linearGradient>
<linearGradient id="paint2_linear_6252_23390" x1="0" y1="0" x2="0" y2="1" gradientUnits="objectBoundingBox">
<stop stop-color="#ED3040"/>
<stop offset="1" stop-color="#2D23F4"/>
</linearGradient>
<linearGradient id="paint3_linear_6252_23390" x1="0" y1="0" x2="0" y2="1" gradientUnits="objectBoundingBox">
<stop stop-color="#ED3040"/>
<stop offset="1" stop-color="#2D23F4"/>
</linearGradient>
<linearGradient id="paint4_linear_6252_23390" x1="0" y1="0" x2="0" y2="1" gradientUnits="objectBoundingBox">
<stop stop-color="#ED3040"/>
<stop offset="1" stop-color="#2D23F4"/>
</linearGradient>
<linearGradient id="paint5_linear_6252_23390" x1="0" y1="0" x2="0" y2="1" gradientUnits="objectBoundingBox">
<stop stop-color="#ED3040"/>
<stop offset="1" stop-color="#2D23F4"/>
</linearGradient>
<linearGradient id="paint6_linear_6252_23390" x1="0" y1="0" x2="0" y2="1" gradientUnits="objectBoundingBox">
<stop stop-color="#ED3040"/>
<stop offset="1" stop-color="#2D23F4"/>
</linearGradient>
<linearGradient id="paint7_linear_6252_23390" x1="0" y1="0" x2="0" y2="1" gradientUnits="objectBoundingBox">
<stop stop-color="#ED3040"/>
<stop offset="1" stop-color="#2D23F4"/>
</linearGradient>
<linearGradient id="paint8_linear_6252_23390" x1="0" y1="0" x2="0" y2="1" gradientUnits="objectBoundingBox">
<stop stop-color="#ED3040"/>
<stop offset="1" stop-color="#2D23F4"/>
</linearGradient>
<linearGradient id="paint9_linear_6252_23390" x1="0" y1="0" x2="0" y2="1" gradientUnits="objectBoundingBox">
<stop stop-color="#ED3040"/>
<stop offset="1" stop-color="#2D23F4"/>
</linearGradient>
<linearGradient id="paint10_linear_6252_23390" x1="0" y1="0" x2="0" y2="1" gradientUnits="objectBoundingBox">
<stop stop-color="#ED3040"/>
<stop offset="1" stop-color="#2D23F4"/>
</linearGradient>
<linearGradient id="paint11_linear_6252_23390" x1="0" y1="0" x2="0" y2="1" gradientUnits="objectBoundingBox">
<stop stop-color="#ED3040"/>
<stop offset="1" stop-color="#2D23F4"/>
</linearGradient>
<linearGradient id="paint12_linear_6252_23390" x1="0" y1="0" x2="0" y2="1" gradientUnits="objectBoundingBox">
<stop stop-color="#ED3040"/>
<stop offset="1" stop-color="#2D23F4"/>
</linearGradient>
<linearGradient id="paint13_linear_6252_23390" x1="0" y1="0" x2="0" y2="1" gradientUnits="objectBoundingBox">
<stop stop-color="#ED3040"/>
<stop offset="1" stop-color="#2D23F4"/>
</linearGradient>
<linearGradient id="paint14_linear_6252_23390" x1="0" y1="0" x2="0" y2="1" gradientUnits="objectBoundingBox">
<stop stop-color="#ED3040"/>
<stop offset="1" stop-color="#2D23F4"/>
</linearGradient>
<linearGradient id="paint15_linear_6252_23390" x1="0" y1="0" x2="0" y2="1" gradientUnits="objectBoundingBox">
<stop stop-color="#ED3040"/>
<stop offset="1" stop-color="#2D23F4"/>
</linearGradient>
<linearGradient id="paint16_linear_6252_23390" x1="0" y1="0" x2="0" y2="1" gradientUnits="objectBoundingBox">
<stop stop-color="#ED3040"/>
<stop offset="1" stop-color="#2D23F4"/>
</linearGradient>
</defs>
</svg>
