<svg width="50" height="50" viewBox="0 0 50 50" fill="none" xmlns="http://www.w3.org/2000/svg">
<path d="M21.1525 27.6669C20.4564 27.366 19.7761 27.042 19.1206 26.6783C16.4609 28.4427 14.2834 30.8253 12.7798 33.6154C11.2763 36.4056 10.4932 39.5176 10.5 42.6763V44.0476C10.5 44.5736 10.9328 45 11.4667 45C12.0006 45 12.4334 44.5736 12.4334 44.0476V42.6763C12.4334 42.1755 12.4895 41.6838 12.5319 41.1905H37.4989C37.5428 41.6818 37.5655 42.1773 37.5665 42.6763V44.0476C37.5665 44.5736 37.9993 45 38.5332 45C39.0671 45 39.4999 44.5736 39.4999 44.0476V42.6763C39.4869 38.4776 38.0929 34.3966 35.5266 31.0438C32.9605 27.6919 29.3608 25.2498 25.2669 24.0837C21.8006 23.1001 18.7236 21.0929 16.451 18.3332H33.5647C32.2466 19.9325 30.6488 21.2868 28.8475 22.3331C29.5436 22.634 30.2239 22.958 30.8794 23.3217C33.5391 21.5573 35.7166 19.1751 37.2202 16.3849C38.7239 13.5948 39.5068 10.4828 39.5 7.32368V5.95237C39.5 5.42638 39.0672 5 38.5333 5C37.9994 5 37.5666 5.42639 37.5666 5.95237V7.32368C37.5666 7.8245 37.5105 8.31616 37.4681 8.8095H12.5011C12.4561 8.31789 12.4335 7.82273 12.4335 7.32368V5.95237C12.4335 5.42638 12.0007 5 11.4668 5C10.9329 5 10.5001 5.42639 10.5001 5.95237V7.32368C10.5131 11.5224 11.9071 15.6038 14.4734 18.9562C17.0395 22.3081 20.6392 24.7505 24.7331 25.9163C28.1994 26.8999 31.2764 28.9071 33.549 31.6671H16.4353C17.7534 30.0675 19.3512 28.7132 21.1525 27.6669ZM12.7892 10.7145H37.1934C36.7959 12.7362 36.0339 14.6718 34.9431 16.4289H15.0701C13.9721 14.6723 13.1996 12.7373 12.7888 10.7145H12.7892ZM34.9296 33.5721L34.9292 33.5717C36.0272 35.3286 36.7997 37.2632 37.2108 39.286H12.8066C13.2041 37.2643 13.9665 35.3291 15.0569 33.5717L34.9296 33.5721Z" fill="url(#paint0_linear_6252_23410)"/>
<defs>
<linearGradient id="paint0_linear_6252_23410" x1="34.1803" y1="33.6397" x2="34.1803" y2="41.6506" gradientUnits="userSpaceOnUse">
<stop stop-color="#ED3040"/>
<stop offset="1" stop-color="#2D23F4"/>
</linearGradient>
</defs>
</svg>
