<svg width="50" height="50" viewBox="0 0 50 50" fill="none" xmlns="http://www.w3.org/2000/svg">
<path d="M28.038 8.84058L36.3419 12.7717C36.6723 12.8437 36.8203 12.4804 37.0784 12.3056C40.795 9.78995 44.2639 15.4964 40.3167 17.5905L42.3815 26.7379C44.436 26.7139 45.9673 28.7806 45.372 30.7444C44.8489 32.4752 42.76 33.4897 41.1013 32.674C39.095 35.0217 37.2264 37.5031 35.2683 39.8988C35.1478 40.149 35.4713 40.358 35.578 40.6116C36.7102 43.2267 34.0638 45.8691 31.4415 44.7313C30.502 44.3234 30.0065 43.566 29.6279 42.6612H20.4877C20.1367 42.692 20.0576 43.2849 19.8614 43.5934C17.9102 46.6711 12.7998 44.2446 14.4172 40.5534C14.5308 40.2963 14.8233 40.1215 14.7029 39.8953L9.15545 32.9379C8.73561 32.4924 8.88702 32.7631 8.419 32.8557C3.76288 33.7879 2.97138 26.9676 7.58964 26.7345L9.65444 17.587C7.9441 16.7679 7.43822 14.7424 8.39836 13.1316C9.27934 11.6578 11.32 11.2705 12.7448 12.2028C13.0407 12.3947 13.3126 12.8197 13.6292 12.7648L21.9331 8.83373C21.3722 6.15016 24.1803 4.03208 26.6099 5.45441C27.7283 6.10903 28.3512 7.56906 28.038 8.83373V8.84058ZM24.552 6.56486C22.6455 6.89388 23.0447 10.1909 25.402 9.71112C27.2431 9.33412 27.0538 6.13645 24.552 6.56486ZM35.8602 14.1049L27.5631 10.1704C27.2327 10.0984 27.0848 10.4617 26.8267 10.6365C25.7048 11.3939 24.3076 11.4899 23.1789 10.6845C22.9965 10.5542 22.7487 10.1738 22.5525 10.1532L14.1144 14.1049C14.4792 16.151 13.0682 17.7721 11.0516 18.0086L8.99715 26.9504C9.00403 27.1389 9.37225 27.2623 9.52711 27.396C10.8417 28.5373 11.1445 30.2955 10.0743 31.7178L15.9177 39.0145C16.0243 39.0659 16.4476 38.8569 16.6369 38.826C18.065 38.5964 19.359 39.2236 20.0266 40.4985C20.1505 40.735 20.1436 41.136 20.4052 41.1874H29.6245C30.182 39.5869 31.4208 38.6238 33.1794 38.8055C33.4719 38.8363 33.9193 39.0865 34.0879 38.9768L39.8865 31.7178C38.9161 30.5388 39.064 28.6641 40.1515 27.605C40.3167 27.444 40.9568 27.0909 40.9533 26.9573L38.8954 17.9606C37.2814 17.8612 35.8326 16.6068 35.7707 14.9549C35.7638 14.7698 35.8774 14.1358 35.8498 14.0981L35.8602 14.1049ZM10.6215 13.2138C8.8354 13.5223 9.03156 16.6445 11.1686 16.4698C13.3608 16.2915 13.1199 12.782 10.6215 13.2138ZM38.565 13.2138C36.7584 13.5223 36.896 16.4286 38.8782 16.48C41.2011 16.5383 41.0738 12.7888 38.565 13.2138ZM7.15948 28.2391C5.43537 28.5338 5.57302 31.6458 7.70321 31.4985C9.83339 31.3511 9.70262 27.8073 7.15948 28.2391ZM42.1956 28.2425C40.0104 28.4756 40.4543 31.5533 42.4159 31.5053C44.5495 31.4505 44.4979 27.9958 42.1956 28.2425ZM16.8055 40.3066C15.226 40.5979 15.1606 43.2986 16.9501 43.4906C19.6962 43.7853 19.414 39.8302 16.8055 40.3066ZM33.8608 43.1307C34.3184 42.7057 34.4355 41.9311 34.2599 41.3519C33.7162 39.5457 30.8289 40.1078 31.1077 42.1128C31.2866 43.4015 32.88 44.0424 33.8608 43.1307Z" fill="url(#paint0_linear_6252_23418)"/>
<path d="M34.9689 20.4283L36.194 25.7817C37.5395 26.0696 38.5203 27.252 38.1521 28.6469C37.9559 29.3838 37.1644 30.155 36.397 30.2646C36.0494 30.3126 35.4506 30.1721 35.2614 30.2098C34.9826 30.2612 32.3328 33.9216 31.8717 34.3842C31.7684 34.6344 32.0059 34.8641 32.0575 35.0971C32.6701 37.9075 28.8192 39.0899 27.7799 36.444L22.2428 36.4269C21.176 39.0556 17.3217 37.9589 17.9205 35.0971C17.9687 34.8675 18.2165 34.6344 18.1063 34.3842L14.7098 30.2029C11.4474 30.9021 10.5526 26.498 13.7806 25.7817L15.0057 20.4557C12.5039 18.8243 14.7923 15.1708 17.4009 16.6891C17.5489 16.7748 17.6246 17.0181 17.8379 16.9599L22.6317 14.6636C22.8623 14.523 22.7246 14.2146 22.7728 13.9815C23.2752 11.4762 26.6993 11.5173 27.1949 13.9096C27.2431 14.1495 27.1433 14.4579 27.2947 14.6293L32.0781 16.9324C32.3397 17.0558 32.4326 16.7576 32.6253 16.6514C35.2304 15.2291 37.4638 18.8552 34.9689 20.4249V20.4283ZM24.7171 13.6251C24.0667 13.7725 24.0667 14.9206 24.7171 15.068C26.073 15.3764 26.0765 13.3166 24.7171 13.6251ZM31.5757 18.2965L26.6408 15.9419C25.636 16.7199 24.3524 16.8468 23.3819 15.9282L18.4057 18.2999C18.5227 19.6811 17.6521 20.4626 16.4098 20.8053L15.195 26.1142C16.1138 26.9573 16.482 27.6633 16.0863 28.9177C16.0381 29.0651 15.8385 29.1885 15.9555 29.3632L19.297 33.5171C20.6013 33.2806 21.7266 33.6885 22.2359 34.9532L27.773 34.936C28.1998 33.7365 29.0257 33.4589 30.2164 33.4726C30.4057 33.4726 30.6053 33.6542 30.7532 33.4349L34.0122 29.3667C34.0948 29.185 33.7644 28.7121 33.7265 28.4173C33.5992 27.4405 34.0569 26.7174 34.7727 26.1142L33.5441 20.8841C33.4581 20.7436 32.9144 20.6408 32.6769 20.5174C32.1779 20.2603 31.7547 19.736 31.617 19.1945C31.5619 18.9717 31.5998 18.3342 31.5723 18.2965H31.5757ZM16.0656 17.8064C15.0057 17.9332 15.3464 19.7188 16.4614 19.2733C17.2495 18.958 16.9569 17.6967 16.0656 17.8064ZM33.7059 17.8064C32.7354 17.9229 32.9075 19.4789 33.9227 19.3487C34.8347 19.2322 34.7383 17.6796 33.7059 17.8064ZM14.579 28.6058C15.281 27.9066 14.0456 26.7516 13.402 27.5536C12.7585 28.3556 13.9423 29.2433 14.579 28.6058ZM35.399 28.6024C35.7225 28.9554 36.5863 28.8594 36.6895 28.3385C37.0474 26.5254 34.3529 27.4611 35.399 28.6024ZM20.5944 36.3207C20.7045 36.2281 20.856 35.786 20.8594 35.6352C20.8801 34.7407 19.18 34.5762 19.3865 35.8854C19.4691 36.4201 20.2365 36.612 20.5944 36.3172V36.3207ZM29.301 36.2384C29.9927 36.9924 31.1628 35.7963 30.3885 35.1143C29.6142 34.4322 28.6403 35.5221 29.301 36.2384Z" fill="url(#paint1_linear_6252_23418)"/>
<path d="M31.1387 21.5147C32.2433 22.6183 31.1696 24.565 30.268 25.4767C31.0389 26.5049 32.1779 28.0814 31.2866 29.3598C30.5433 30.4291 28.7469 30.2475 27.6216 30.1412C27.2018 31.0735 26.7647 32.273 25.7461 32.7117C23.9394 33.4863 22.8382 31.5636 22.3495 30.1412C21.207 30.1961 19.8098 30.4771 18.8806 29.5723C17.6762 28.3967 18.7464 26.546 19.6859 25.5487C19.4588 25.1785 19.156 24.8941 18.9288 24.5136C17.1737 21.5799 19.6618 20.3186 22.3426 20.9904C23.3957 17.3094 26.5101 17.2786 27.6182 20.9561C28.7228 20.7813 30.268 20.6408 31.1352 21.5113L31.1387 21.5147ZM26.135 21.3948C25.5431 19.0848 24.4556 19.263 23.7501 21.4016C24.1528 21.4085 24.6414 21.8266 25.02 21.8095C25.3366 21.7958 25.8012 21.4599 26.135 21.3948ZM21.9331 22.3921C21.4548 22.3167 19.8132 22.0665 19.8167 22.824C19.8167 23.1256 20.4465 24.2806 20.7011 24.4039C20.8697 24.4862 21.6337 23.8419 21.7232 23.6945C21.8127 23.5471 21.995 22.4572 21.9331 22.3921ZM28.0415 22.3921C27.9761 22.4607 28.1585 23.5437 28.2514 23.6945C28.3443 23.8453 29.1048 24.4862 29.2735 24.4039C29.4318 24.3285 29.8998 23.5677 29.9755 23.3723C30.5295 21.9123 28.9775 22.3133 28.0449 22.3921H28.0415ZM26.6993 24.4588C26.3862 24.3662 25.137 23.4717 24.9443 23.4854C24.8548 23.4923 23.5368 24.2669 23.3888 24.3731C23.2683 24.4588 23.203 24.4828 23.172 24.6507C23.1376 24.8255 23.1307 26.4843 23.1823 26.5666L24.9546 27.5468C25.0509 27.5536 26.5686 26.6934 26.6305 26.6214C26.8267 26.4021 26.6649 24.8563 26.6959 24.4622L26.6993 24.4588ZM20.2469 28.7121C20.6426 28.7806 21.3722 28.7121 21.8127 28.7121C22.0432 28.7121 21.8436 27.5296 21.7542 27.372C21.7025 27.2829 20.8078 26.5734 20.739 26.5769C20.4258 26.9813 19.1835 28.5338 20.2434 28.7121H20.2469ZM29.2735 26.5769C29.1496 26.5426 29.1358 26.6111 29.067 26.6591C28.9465 26.7414 28.2617 27.2932 28.217 27.372C28.1241 27.5365 27.9623 28.5681 28.1137 28.6744C28.3099 28.8115 29.8998 28.8115 30.0581 28.5476C30.3816 27.9992 29.5212 27.0327 29.2735 26.5769ZM26.1419 29.6134C25.7495 29.6511 25.2815 29.2022 24.9443 29.2124C24.8789 29.2124 24.1115 29.5415 23.9497 29.6032C23.6985 29.7025 23.9084 30.0453 23.9841 30.2441C24.8101 32.3416 25.8115 31.142 26.1419 29.6134Z" fill="url(#paint2_linear_6252_23418)"/>
<defs>
<linearGradient id="paint0_linear_6252_23418" x1="37.9805" y1="33.6411" x2="37.9805" y2="41.653" gradientUnits="userSpaceOnUse">
<stop stop-color="#ED3040"/>
<stop offset="1" stop-color="#2D23F4"/>
</linearGradient>
<linearGradient id="paint1_linear_6252_23418" x1="37.9805" y1="33.6411" x2="37.9805" y2="41.653" gradientUnits="userSpaceOnUse">
<stop stop-color="#ED3040"/>
<stop offset="1" stop-color="#2D23F4"/>
</linearGradient>
<linearGradient id="paint2_linear_6252_23418" x1="37.9805" y1="33.6411" x2="37.9805" y2="41.653" gradientUnits="userSpaceOnUse">
<stop stop-color="#ED3040"/>
<stop offset="1" stop-color="#2D23F4"/>
</linearGradient>
</defs>
</svg>
