<svg width="50" height="50" viewBox="0 0 50 50" fill="none" xmlns="http://www.w3.org/2000/svg">
<path d="M32.6893 39.7466C37.1606 34.8415 37.7012 28.8571 35.6943 22.6839C35.5745 22.3159 34.6272 19.7354 34.4901 19.647C34.4437 19.6167 33.437 19.4548 33.3896 19.484L31.238 23.1901C30.7072 23.6725 30.2162 22.9634 30.0609 23.0595C29.598 23.5764 29.2009 25.328 28.3086 24.9816C27.9169 24.8294 25.4428 23.4005 25.1396 23.1426C24.4188 22.5263 25.7158 21.3165 25.9424 20.6409C25.4385 20.3182 25.0608 20.2783 25.2799 19.5736C27.4422 16.0768 29.2549 12.3362 31.4517 8.86325C31.6729 8.51358 31.8887 7.90813 32.4044 8.03224C32.6202 8.08404 32.8835 8.42184 33.095 8.24917L34.8721 5.17551C35.2379 4.83663 35.567 5.06219 35.9317 5.2381C36.6211 5.57159 38.0497 6.36482 38.6507 6.79975C38.942 7.01128 39.1417 7.28325 38.9647 7.65235C38.791 8.0549 37.1725 10.5285 37.1855 10.7055C37.2006 10.9052 37.9451 10.9537 37.9041 11.5937C37.8771 12.0157 36.8693 13.2007 36.9211 13.5201C37.8264 14.2832 38.2083 15.3451 38.1382 16.5204C38.1263 16.7244 37.9548 17.0611 38.0152 17.2057C38.0616 17.3158 38.5342 17.7043 38.6647 17.8533C43.3573 23.1879 46.3191 29.5597 43.8946 36.7399C43.5418 37.7835 43.0152 38.7407 42.5804 39.7477H44.4784C44.6413 39.7477 44.9013 40.0779 44.9261 40.2689C45.0308 41.0643 45.0189 43.5833 44.924 44.3949C44.8938 44.6571 44.8139 44.833 44.542 44.901L21.9393 44.9237C21.6437 44.9517 21.3588 44.6787 21.334 44.3981C21.4775 43.1365 21.1538 41.4917 21.3426 40.2787C21.3707 40.0973 21.6134 39.7488 21.7818 39.7488H23.438V37.6486H20.6521C20.3672 37.6486 20.1536 37.2255 20.1244 36.9633C20.0554 36.3416 20.0489 34.5857 20.1341 33.9803C20.1676 33.7407 20.2733 33.4903 20.5075 33.3845L33.1759 33.3629C33.4845 33.3392 33.7424 33.6025 33.7812 33.8885C33.8557 34.4454 33.8568 36.5758 33.7726 37.1197C33.7445 37.3011 33.5018 37.6496 33.3334 37.6496H30.4666V39.7498H32.6871L32.6893 39.7466ZM37.5653 7.52608C37.5048 7.42355 35.7428 6.53426 35.4774 6.38317C35.4278 6.80515 33.9636 8.83951 34.1082 9.0424C34.4977 9.09852 35.9122 10.1626 36.1496 10.0925C36.537 9.37049 37.1952 8.54811 37.5124 7.81423C37.5491 7.73113 37.616 7.61458 37.5642 7.52608H37.5653ZM32.194 18.6336C29.9616 16.0035 31.6545 12.4452 35.1116 12.6848C35.3328 12.6999 35.7137 12.8942 35.8788 12.81C36.0568 12.7183 36.3492 11.9499 36.5176 11.7534L32.5954 9.4633L26.5908 19.6696L30.5907 21.9716L32.4023 18.7879C32.3829 18.7091 32.2415 18.6886 32.194 18.6325V18.6336ZM34.4081 13.8385C31.4474 14.1547 31.7279 18.8613 35.1052 18.4134C37.8059 18.0551 37.4498 13.5137 34.4081 13.8385ZM34.2646 39.7466H41.1702C42.0851 38.2594 42.821 36.5477 43.2051 34.8339C44.6262 28.4923 41.6147 22.7886 37.4552 18.2591C36.9632 18.8418 36.4107 19.2023 35.7202 19.5142C37.6678 23.9164 38.7629 28.7827 37.4725 33.5432C36.852 35.8311 35.6598 37.8579 34.2646 39.7466ZM28.4435 23.5851C28.451 23.2689 29.1275 22.6062 28.9797 22.3763C28.874 22.2123 27.2231 21.4244 26.9221 21.2518L26.3038 22.4605C26.6167 22.5781 28.2838 23.6973 28.4435 23.584V23.5851ZM32.5684 34.4961H21.3415V36.4344H32.5684V34.4961ZM29.257 37.6464H24.653V39.7466H29.257V37.6464ZM43.7953 40.9586H22.5532V43.7862H43.7953V40.9586Z" fill="url(#paint0_linear_6252_23420)"/>
<path d="M14.1544 18.5008L14.8946 17.2618C16.1743 15.4822 19.2969 14.1623 21.4602 14.2152C21.9587 14.227 22.2382 14.5853 22.2371 15.0678C22.2328 16.951 21.3329 19.4171 20.0521 20.805C18.5761 22.4044 16.2034 22.9278 14.1544 23.3476V27.4682H15.8905C16.0782 27.4682 16.54 27.8254 16.6587 27.9927C17.0062 28.4837 17.0191 29.618 16.6587 30.0939C16.54 30.2515 16.2627 30.3778 16.2142 30.4576C15.9887 30.83 16.2865 34.0795 16.1915 34.7605L20.2518 41.8479C20.8582 43.144 20.0813 44.6021 18.7099 44.9107C15.4859 44.7337 11.9683 45.1697 8.77885 44.9215C7.89299 44.8525 7.22078 44.4046 6.90248 43.5671C6.58418 42.7296 6.74495 42.3119 7.11288 41.5522C8.23503 39.235 9.95387 37.0226 11.048 34.6634L11.0847 30.5148C10.0585 30.0875 9.97761 28.2668 10.844 27.6743C10.9034 27.6333 11.253 27.4692 11.2843 27.4692H13.0204V23.3487C10.3121 22.8221 7.78078 22.1281 6.28314 19.6264C5.61848 18.5105 5.08546 16.9402 5.02288 15.6365C4.99375 15.0138 4.88045 14.3101 5.65732 14.2368C7.76352 14.0349 11.0933 15.5448 12.3298 17.2964L13.0236 18.4199V15.2286C13.0236 15.1142 11.9586 13.6065 11.7979 13.3032C10.3865 10.6364 10.8063 7.40305 13.0204 5.28883C13.8296 4.5161 14.5547 5.66224 14.9949 6.30978C16.676 8.78231 16.6425 11.0584 15.2183 13.627C15.0748 13.886 14.1544 15.2102 14.1544 15.3095V18.5008ZM13.6678 13.9767C14.8622 11.965 15.6304 10.4389 14.6529 8.10563C14.5428 7.84337 13.794 6.4598 13.5491 6.46303C12.5715 7.79912 11.8108 9.45359 12.1885 11.1372C12.4043 12.102 13.0484 13.232 13.6688 13.9777L13.6678 13.9767ZM12.7808 22.0547C12.5586 20.5956 12.1367 18.8753 11.1677 17.7313C9.95387 16.297 8.04837 15.6732 6.2389 15.4315C6.26695 17.3622 7.20352 19.6103 8.84466 20.7003C9.95818 21.4396 11.472 21.8324 12.7797 22.0547H12.7808ZM21.0189 15.4315C18.8394 15.6657 16.512 16.5862 15.433 18.6087C14.8751 19.6534 14.6313 20.9021 14.3972 22.0547C15.8646 21.8238 17.6492 21.336 18.8005 20.3603C20.2064 19.1699 20.856 17.2262 21.0189 15.4304V15.4315ZM15.6887 28.6791H11.4893V29.4065H15.6887V28.6791ZM14.9615 30.6184H12.2154V34.9408C12.2154 35.2667 10.8203 37.3118 10.9239 37.4047C12.6222 37.2493 14.0303 38.4321 15.7275 38.2929C15.9099 38.2778 16.6727 38.1731 16.6501 37.9432C16.3631 37.2266 14.9615 35.4534 14.9615 34.78V30.6184ZM10.0553 38.798L7.9901 42.4263C7.76136 43.2034 8.25338 43.7462 9.0227 43.7894C11.9781 43.5951 15.2366 44.0366 18.1553 43.7894C19.039 43.7149 19.4231 43.2422 19.1803 42.3551C18.848 41.9374 17.5705 39.2728 17.304 39.1357C17.2284 39.0969 16.4699 39.371 16.2746 39.4045C14.2828 39.7455 13.5296 38.8789 11.8443 38.6264C11.4882 38.5724 10.311 38.594 10.0553 38.799V38.798Z" fill="url(#paint1_linear_6252_23420)"/>
<path d="M34.3218 15.2868C35.6803 14.976 35.9522 16.7114 34.9962 17.0104C33.7025 17.414 33.3486 15.5092 34.3218 15.2868Z" fill="url(#paint2_linear_6252_23420)"/>
<defs>
<linearGradient id="paint0_linear_6252_23420" x1="37.6624" y1="33.6397" x2="37.6624" y2="41.6506" gradientUnits="userSpaceOnUse">
<stop stop-color="#ED3040"/>
<stop offset="1" stop-color="#2D23F4"/>
</linearGradient>
<linearGradient id="paint1_linear_6252_23420" x1="37.6624" y1="33.6397" x2="37.6624" y2="41.6506" gradientUnits="userSpaceOnUse">
<stop stop-color="#ED3040"/>
<stop offset="1" stop-color="#2D23F4"/>
</linearGradient>
<linearGradient id="paint2_linear_6252_23420" x1="37.6624" y1="33.6397" x2="37.6624" y2="41.6506" gradientUnits="userSpaceOnUse">
<stop stop-color="#ED3040"/>
<stop offset="1" stop-color="#2D23F4"/>
</linearGradient>
</defs>
</svg>
