<svg width="50" height="50" viewBox="0 0 50 50" fill="none" xmlns="http://www.w3.org/2000/svg">
<path d="M18.7381 39.9322C19.6167 39.7457 20.0487 40.7934 19.3585 41.2484C18.3501 41.9136 17.6881 40.1544 18.7381 39.9322Z" fill="url(#paint0_linear_6252_23402)"/>
<path d="M24.3514 19.6414C24.1458 18.3288 23.6233 17.1053 23.0677 15.9068C17.6881 19.3907 13.3792 13.4847 12.2864 8.90084C11.9181 7.35544 11.5632 5.62 13.5554 5.11753C15.615 4.59726 19.9875 5.91815 21.91 6.85061C24.5546 8.13349 26.1063 10.938 24.8874 13.7164C24.7822 13.9551 24.2046 14.8175 24.1997 14.8852C24.1948 14.9672 24.8348 16.1123 24.9437 16.3546C25.0526 16.5969 25.3121 17.5508 25.3598 17.5971C25.4981 17.7337 25.5189 17.5496 25.5642 17.4819C25.7331 17.23 25.8456 16.8642 26.0182 16.591C26.1528 16.3772 26.7806 15.5944 26.8112 15.4863C26.8552 15.3271 26.4918 14.4291 26.46 14.0822C26.1136 10.3631 29.1559 9.07308 32.3205 8.39244C34.0632 8.01708 37.9951 7.38989 38 10.0827C38.0037 12.3539 35.4742 16.1063 33.4488 17.2229C31.415 18.3442 29.654 17.8964 27.8 16.7181C27.5087 16.7715 26.3351 19.1852 26.3682 19.6402H28.3372C28.3984 19.6402 28.9234 19.8932 29.0188 19.9573C30.0333 20.6332 30.1153 21.9696 29.2673 22.8094C29.0923 22.9816 28.7068 23.0826 28.6578 23.3297C28.7606 24.8263 28.5232 26.481 28.6554 27.9575C28.7141 28.6096 28.9907 29.0159 29.2844 29.5706C31.0026 32.817 33.6177 36.2261 35.1156 39.4702C36.2353 41.8946 34.9247 44.3653 32.2679 44.8832C27.6164 44.6527 22.5929 45.2229 17.9842 44.8963C15.1916 44.6991 13.6925 41.8969 14.8698 39.4654C16.4631 36.1739 18.9644 32.861 20.7059 29.5706C20.9996 29.0159 21.2761 28.6096 21.3349 27.9575C21.4683 26.4573 21.226 24.7776 21.3349 23.2572C20.0866 22.7773 19.5604 21.3875 20.4158 20.3078C20.5847 20.0951 21.2186 19.6402 21.4695 19.6402H24.3551L24.3514 19.6414ZM22.2441 14.7498C22.4399 14.4837 19.8786 12.0178 19.5396 11.7303C19.0599 11.3229 17.0542 10.0732 16.9098 9.74896C16.7127 9.30827 17.0077 8.82838 17.4788 8.7381C17.8912 8.6597 19.0085 9.46744 19.3952 9.73708C20.8833 10.7729 22.2062 12.0831 23.2978 13.5049C24.2645 12.0581 23.6649 9.96159 22.3836 8.88064C20.9322 7.65597 16.4154 6.40398 14.5039 6.48356C14.3607 6.4895 13.6264 6.59284 13.5811 6.65461C13.2152 7.15707 14.2456 10.0768 14.5332 10.7218C15.9051 13.7983 18.497 16.8868 22.2429 14.7498H22.2441ZM27.9236 14.1286L30.7345 12.1021C31.415 11.8431 32.4233 10.8287 33.1025 11.5474C33.4354 11.9002 33.3522 12.1544 33.094 12.5238C31.7233 13.2401 30.3429 14.0181 29.2048 15.061C28.8671 15.3699 28.6701 15.4435 29.1204 15.7678C32.3364 18.0817 35.5708 13.6475 36.2843 10.9974C36.3957 10.5828 36.6453 9.70976 36.0273 9.59573C34.2137 9.26076 29.911 10.1802 28.6529 11.5925C27.9738 12.3551 27.8881 13.1522 27.9224 14.1274L27.9236 14.1286ZM21.6029 21.1535C21.3973 21.6999 21.5454 21.8199 22.1022 21.8686C23.9305 22.0301 26.0145 21.7451 27.871 21.8579C28.4951 21.7653 28.3054 21.1523 28.1524 21.1523H21.6029V21.1535ZM22.8866 23.2869V28.1333C22.8866 28.3935 22.5721 29.2938 22.446 29.573C22.3286 29.8343 21.1464 31.6434 21.2382 31.7337C21.7106 31.59 22.342 31.7016 22.8156 31.8477C23.1693 31.957 24.1324 32.6198 24.2131 32.6222C24.6684 32.6353 25.6963 31.3738 26.0916 31.0661C26.6386 30.6409 27.3044 30.376 28.0166 30.3997C27.8367 30.0826 27.6262 29.7868 27.4891 29.4459C27.3778 29.1691 27.1012 28.2961 27.1012 28.0442V23.2869H22.8866ZM25.4516 33.6889C26.3119 33.9217 27.2689 33.9977 28.1071 33.6449C28.3666 33.5357 28.6468 33.3159 28.9099 33.1793C29.315 32.9679 29.7996 33.0653 29.2073 32.3989C28.708 31.8358 27.6678 31.7301 27.0523 32.1768C26.7732 32.3787 26.6166 32.7707 26.3229 32.9797L25.4516 33.6877V33.6889ZM21.2149 33.1805C20.8674 33.2292 20.1845 33.4775 19.9679 33.7483C18.6964 36.08 17.1912 38.3001 16.0213 40.677C15.8096 42.2592 16.7213 43.3509 18.3477 43.4756C22.6651 43.2238 27.3643 43.7999 31.6365 43.4756C33.3644 43.3437 34.4854 41.9801 33.8588 40.3337C33.2322 38.6874 31.4872 36.7167 30.748 34.9955C29.9954 33.9965 29.5695 34.6368 28.8108 34.954C27.4426 35.5241 25.8909 35.5681 24.5644 34.8625C23.239 34.1581 23.0261 32.9251 21.2137 33.1817L21.2149 33.1805Z" fill="url(#paint1_linear_6252_23402)"/>
<path d="M29.7323 38.0685C33.4134 37.4568 33.4121 42.9054 29.7323 42.2937C27.5344 41.929 27.5185 38.4355 29.7323 38.0685ZM30.0982 39.4856C29.2966 39.6448 29.4361 40.9823 30.3429 40.892C31.3342 40.7934 31.1102 39.2849 30.0982 39.4856Z" fill="url(#paint2_linear_6252_23402)"/>
<path d="M23.1424 38.6921C26.0476 38.4439 26.3914 42.6714 23.7481 43.0183C20.5615 43.4376 20.2298 38.9404 23.1424 38.6921ZM23.135 40.1983C22.074 40.4228 22.834 42.0787 23.7579 41.4265C24.4261 40.955 23.9745 40.0201 23.135 40.1983Z" fill="url(#paint3_linear_6252_23402)"/>
<path d="M20.0781 37.9271C18.0895 36.0919 20.7352 33.0475 22.9306 34.5798C25.5299 36.3948 22.3518 40.0261 20.0781 37.9271ZM21.4866 35.6619C20.6483 35.8306 20.816 37.1586 21.7314 37.0683C22.6431 36.978 22.4864 35.4612 21.4866 35.6619Z" fill="url(#paint4_linear_6252_23402)"/>
<path d="M29.3639 35.397C30.666 35.1179 30.6134 37.2144 29.2 36.763C28.6162 36.5766 28.6799 35.5443 29.3639 35.397Z" fill="url(#paint5_linear_6252_23402)"/>
<path d="M26.9788 37.3641C27.6482 38.0732 26.6093 39.0105 25.9117 38.4439C25.0918 37.7775 26.318 36.6645 26.9788 37.3641Z" fill="url(#paint6_linear_6252_23402)"/>
<path d="M26.5236 41.3553C27.5381 41.0631 27.9309 42.3756 27.1685 42.6928C26.0316 43.1656 25.7257 41.5857 26.5236 41.3553Z" fill="url(#paint7_linear_6252_23402)"/>
<defs>
<linearGradient id="paint0_linear_6252_23402" x1="33.2306" y1="33.6397" x2="33.2306" y2="41.6506" gradientUnits="userSpaceOnUse">
<stop stop-color="#ED3040"/>
<stop offset="1" stop-color="#2D23F4"/>
</linearGradient>
<linearGradient id="paint1_linear_6252_23402" x1="33.2306" y1="33.6397" x2="33.2306" y2="41.6506" gradientUnits="userSpaceOnUse">
<stop stop-color="#ED3040"/>
<stop offset="1" stop-color="#2D23F4"/>
</linearGradient>
<linearGradient id="paint2_linear_6252_23402" x1="33.2306" y1="33.6397" x2="33.2306" y2="41.6506" gradientUnits="userSpaceOnUse">
<stop stop-color="#ED3040"/>
<stop offset="1" stop-color="#2D23F4"/>
</linearGradient>
<linearGradient id="paint3_linear_6252_23402" x1="33.2306" y1="33.6397" x2="33.2306" y2="41.6506" gradientUnits="userSpaceOnUse">
<stop stop-color="#ED3040"/>
<stop offset="1" stop-color="#2D23F4"/>
</linearGradient>
<linearGradient id="paint4_linear_6252_23402" x1="33.2306" y1="33.6397" x2="33.2306" y2="41.6506" gradientUnits="userSpaceOnUse">
<stop stop-color="#ED3040"/>
<stop offset="1" stop-color="#2D23F4"/>
</linearGradient>
<linearGradient id="paint5_linear_6252_23402" x1="33.2306" y1="33.6397" x2="33.2306" y2="41.6506" gradientUnits="userSpaceOnUse">
<stop stop-color="#ED3040"/>
<stop offset="1" stop-color="#2D23F4"/>
</linearGradient>
<linearGradient id="paint6_linear_6252_23402" x1="33.2306" y1="33.6397" x2="33.2306" y2="41.6506" gradientUnits="userSpaceOnUse">
<stop stop-color="#ED3040"/>
<stop offset="1" stop-color="#2D23F4"/>
</linearGradient>
<linearGradient id="paint7_linear_6252_23402" x1="33.2306" y1="33.6397" x2="33.2306" y2="41.6506" gradientUnits="userSpaceOnUse">
<stop stop-color="#ED3040"/>
<stop offset="1" stop-color="#2D23F4"/>
</linearGradient>
</defs>
</svg>
