<svg width="50" height="50" viewBox="0 0 50 50" fill="none" xmlns="http://www.w3.org/2000/svg">
<path d="M45 29.8313V30.4594C44.5774 31.1111 43.4615 31.0505 43.4294 30.1863C43.3958 29.2717 44.5539 29.0867 45 29.8313Z" fill="url(#paint0_linear_6252_23404)"/>
<path d="M37.514 30.9442L34.3916 36.4562L37.6964 42.2436C38.162 43.1614 37.1306 43.9288 36.4059 43.2267L33.0402 37.3425L32.8539 37.2157L26.7734 37.2283C26.5966 37.2874 25.123 39.9942 24.7677 40.3956C24.0141 41.2488 22.9843 40.4475 23.4562 39.4684C23.8905 38.5664 24.7216 37.6266 25.1739 36.7191C25.2357 36.5947 25.332 36.483 25.3046 36.3295L22.2581 30.9434L15.9976 30.9458C15.2268 31.8691 14.6172 32.9545 13.8753 33.9171C13.2743 34.4759 12.3399 33.9092 12.5426 33.1292L14.5006 30.2193L14.5287 30.0462L11.5323 24.8034C11.4728 24.7215 11.3875 24.7318 11.3015 24.7215C9.62758 24.5177 7.52875 24.9246 5.83843 24.7168C4.70294 24.5775 4.76476 23.2245 5.75861 23.0836C7.40668 22.8491 9.56106 23.2843 11.2232 23.0812C11.3093 23.071 11.393 23.0789 11.4517 22.997L14.5804 17.5842L12.9151 14.3776C12.7328 13.4953 13.6812 12.9845 14.3049 13.6307L15.996 16.7161L22.1383 16.7759L22.3066 16.6311L25.5644 10.953C25.7428 10.6602 26.019 10.5005 26.3673 10.5036L32.994 10.4918C33.2561 10.4115 34.9332 7.40564 35.3127 6.9326C35.8621 6.24862 36.7886 6.41076 36.8598 7.26632C36.9099 7.86923 34.6906 10.6028 34.4566 11.4111L37.7637 17.1923L37.8873 17.685C36.87 19.7188 35.6531 21.6724 34.5137 23.6479L34.4652 23.9604L37.532 29.2874C37.8263 29.5039 40.5613 29.2662 41.2038 29.3646C42.031 29.4921 42.1429 30.6294 41.3486 30.9143L37.5117 30.9434L37.514 30.9442ZM33.0347 23.0592L36.1493 17.6165L33.1208 12.2824L32.8602 12.1518L26.7233 12.1943L23.7927 17.2584L23.68 17.6094L26.7374 23.0624L33.0355 23.0584L33.0347 23.0592ZM15.9616 29.3433L22.1939 29.3205L25.2795 24.0124L25.3069 23.8416L22.1947 18.4004L15.9608 18.3792L12.8783 23.7298L12.858 23.9344L15.96 29.3433H15.9616ZM26.7758 24.7381L23.6268 30.1068L26.7241 35.5259L33.0511 35.5274L36.1469 30.1068C35.2251 28.6168 34.4433 27.0324 33.5324 25.537C33.4064 25.3299 33.1333 24.7632 32.9337 24.7255L26.7758 24.7388V24.7381Z" fill="url(#paint1_linear_6252_23404)"/>
<path d="M18.5229 8.85702H20.2414V6.69726C20.2414 6.47294 21.3292 6.347 21.2611 6.84995L21.2548 11.9581C21.1578 12.4603 20.2414 12.2462 20.2414 12.0384V9.72124H18.5229V12.0384C18.5229 12.2391 17.612 12.4871 17.5095 11.9581L17.5032 6.84917C17.4352 6.34622 18.5229 6.47215 18.5229 6.69647V8.85702Z" fill="url(#paint2_linear_6252_23404)"/>
<path d="M9.20891 28.0454C8.9178 27.7738 8.16967 27.8179 7.96073 28.2028C7.76352 28.5664 7.77917 30.3327 7.81987 30.8167C7.88169 31.5456 8.18297 32.017 8.9984 31.7604C9.66514 31.5511 8.97414 30.6223 10.0486 30.6939C10.3992 30.7176 10.4884 30.8521 10.4845 31.2063C10.4618 33.1504 7.12887 33.3189 6.82602 31.5023C6.73446 30.9505 6.74385 28.4846 6.8894 27.9895C7.40354 26.2422 10.6848 26.8026 10.4767 28.5287C10.4258 28.9521 10.0455 29.0592 9.67453 28.9505C9.29499 28.8396 9.42411 28.2461 9.20891 28.0454Z" fill="url(#paint3_linear_6252_23404)"/>
<path d="M11.3962 35.1095C12.4456 34.908 12.7132 36.6357 11.6028 36.7435C10.6441 36.8364 10.3601 35.3078 11.3962 35.1095Z" fill="url(#paint4_linear_6252_23404)"/>
<path d="M21.9051 42.0319C22.5453 41.4353 23.7222 42.2885 23.0954 43.111C22.3778 44.0524 21.1194 42.7639 21.9051 42.0319Z" fill="url(#paint5_linear_6252_23404)"/>
<path d="M39.767 22.7617H41.4855V20.6011C41.4855 20.4563 42.4168 20.2123 42.5013 20.6798L42.5068 25.9462C42.4606 26.3374 41.4855 26.1981 41.4855 25.9431V23.6259H39.767V25.9431C39.767 26.1414 38.8287 26.5366 38.7474 25.7117L38.7646 20.6137C38.8812 20.2643 39.767 20.413 39.767 20.6011V22.7617Z" fill="url(#paint6_linear_6252_23404)"/>
<path d="M12.0206 10.602C13.1209 10.3863 13.3181 12.1431 12.2257 12.21C11.3195 12.2659 11.0424 10.794 12.0206 10.602Z" fill="url(#paint7_linear_6252_23404)"/>
<defs>
<linearGradient id="paint0_linear_6252_23404" x1="0" y1="0" x2="0" y2="1" gradientUnits="objectBoundingBox">
<stop stop-color="#ED3040"/>
<stop offset="1" stop-color="#2D23F4"/>
</linearGradient>
<linearGradient id="paint1_linear_6252_23404" x1="0" y1="0" x2="0" y2="1" gradientUnits="objectBoundingBox">
<stop stop-color="#ED3040"/>
<stop offset="1" stop-color="#2D23F4"/>
</linearGradient>
<linearGradient id="paint2_linear_6252_23404" x1="0" y1="0" x2="0" y2="1" gradientUnits="objectBoundingBox">
<stop stop-color="#ED3040"/>
<stop offset="1" stop-color="#2D23F4"/>
</linearGradient>
<linearGradient id="paint3_linear_6252_23404" x1="0" y1="0" x2="0" y2="1" gradientUnits="objectBoundingBox">
<stop stop-color="#ED3040"/>
<stop offset="1" stop-color="#2D23F4"/>
</linearGradient>
<linearGradient id="paint4_linear_6252_23404" x1="0" y1="0" x2="0" y2="1" gradientUnits="objectBoundingBox">
<stop stop-color="#ED3040"/>
<stop offset="1" stop-color="#2D23F4"/>
</linearGradient>
<linearGradient id="paint5_linear_6252_23404" x1="0" y1="0" x2="0" y2="1" gradientUnits="objectBoundingBox">
<stop stop-color="#ED3040"/>
<stop offset="1" stop-color="#2D23F4"/>
</linearGradient>
<linearGradient id="paint6_linear_6252_23404" x1="0" y1="0" x2="0" y2="1" gradientUnits="objectBoundingBox">
<stop stop-color="#ED3040"/>
<stop offset="1" stop-color="#2D23F4"/>
</linearGradient>
<linearGradient id="paint7_linear_6252_23404" x1="0" y1="0" x2="0" y2="1" gradientUnits="objectBoundingBox">
<stop stop-color="#ED3040"/>
<stop offset="1" stop-color="#2D23F4"/>
</linearGradient>
</defs>
</svg>
