<svg width="50" height="50" viewBox="0 0 50 50" fill="none" xmlns="http://www.w3.org/2000/svg">
<path d="M21.1145 5.00222L21.3491 5.08035C21.444 5.02306 21.566 5.02201 21.6609 5.08035C21.7548 5.05431 21.8591 5.02826 21.9727 5.00222C22.076 5.00847 22.1823 4.99493 22.2845 5.00222C25.3118 5.22723 28.3943 6.41687 30.6781 8.43155C30.9607 8.68156 31.9691 9.83578 32.1599 9.91495C32.2903 9.96912 32.2652 9.86286 32.2934 9.81599C32.5458 9.38888 33.0015 8.20341 33.4905 8.12633L41.8403 8.12008C42.6464 8.2055 42.6453 9.23992 41.833 9.36492L33.9661 9.38263L33.0129 11.0035C35.0214 13.9849 35.9307 17.6372 35.3217 21.2176C36.1309 21.4426 36.6263 22.0822 36.7159 22.9083C36.7045 27.8502 36.7879 32.8066 36.6742 37.7402C36.4709 38.4132 35.5094 38.2475 35.475 37.56L35.4416 22.7781C35.3029 22.4937 35.2018 22.4176 34.8962 22.3874C34.0224 22.302 31.8439 22.2884 30.9868 22.3905C30.8095 22.4114 30.481 22.5478 30.481 22.7426V43.679H35.4771V39.7413C35.4771 39.3111 36.5939 38.9996 36.7212 39.9028C36.8379 40.732 36.8233 43.3332 36.7264 44.1863C36.6774 44.6197 36.4594 44.9301 35.9891 44.9312C34.0578 44.7645 31.7866 45.1416 29.897 44.927C29.6822 44.903 29.2338 44.7489 29.2338 44.4978V30.7347C28.7645 30.9222 28.3558 31.2493 27.9084 31.4774C26.3254 32.2816 24.2607 32.8962 22.4806 32.9952C22.1375 33.0139 20.8809 33.1025 20.8809 32.5671V19.5842H7.88336C7.67689 19.5842 7.4725 19.1143 7.46728 18.9237C7.39116 16.334 8.48089 13.1599 9.96689 11.0598C10.1598 10.7869 10.6051 10.091 10.9336 10.0712C11.3361 10.0462 11.6416 10.4108 11.5895 10.8046C11.5634 11.0067 10.5363 12.3765 10.3287 12.7474C9.35268 14.4922 8.83023 16.4173 8.70301 18.4143H21.6995C21.8205 18.4143 22.1292 18.8331 22.1292 18.9216V31.7483C24.6882 31.7087 27.1649 30.7211 29.215 29.2367L29.2505 22.6051C29.4059 22.0603 29.7156 21.5759 30.2464 21.3384C30.3194 21.3061 30.8011 21.1436 30.8324 21.1436H34.1496C34.5844 18.0955 34.062 14.8204 32.3153 12.2557L30.1702 16.0382C29.7031 16.5382 28.8438 16.0423 29.1358 15.3944L31.5593 11.1233C27.5361 5.99706 20.3053 4.72096 14.72 8.16695C14.2455 8.45967 13.795 8.8024 13.3498 9.13783C13.015 9.38888 12.6208 9.95349 12.1359 9.41076C11.5634 8.77011 12.8586 7.97423 13.3299 7.63672C15.4594 6.11373 18.1248 5.17515 20.7245 5.00222H21.1145Z" fill="url(#paint0_linear_6252_23432)"/>
<path d="M45 31.3587V44.5364C44.8405 44.7353 44.7028 44.9301 44.416 44.928C42.4472 44.753 40.0884 45.1562 38.1675 44.928C37.8568 44.8916 37.5554 44.6989 37.5794 44.3457L37.6211 31.2774C37.8526 30.6868 38.3771 30.1284 39.0351 30.0388C39.9205 29.919 42.5723 29.9294 43.4775 30.0315C44.22 30.1149 44.7299 30.7159 44.999 31.3576L45 31.3587ZM43.83 43.679V31.7097C43.83 31.4847 43.3784 31.241 43.1594 31.2097C42.3638 31.0982 40.4919 31.1399 39.6504 31.1993C39.4596 31.2128 39.1154 31.2451 38.9653 31.3535C38.9267 31.3805 38.7557 31.6889 38.7557 31.7097V43.679H43.83Z" fill="url(#paint1_linear_6252_23432)"/>
<path d="M14.3237 34.6349C9.25049 32.9692 5.33474 27.8606 5.03129 22.5114C5.00105 21.9738 4.85401 20.8457 5.6163 20.9061L19.3177 20.9498L19.543 21.1926L19.5128 35.2547C19.2812 35.5745 18.7046 35.5068 18.3406 35.4932C17.4032 35.4609 16.4156 35.212 15.4948 35.0557L13.6365 38.9746C13.527 39.1976 13.3404 39.3257 13.0953 39.3705L6.486 39.382C5.60796 39.2569 5.58397 38.235 6.39945 38.1402L12.6334 38.1298L14.3237 34.6338V34.6349ZM18.3823 22.0791H6.2837C6.37234 27.1939 10.0263 31.9952 14.867 33.54C15.1496 32.9817 15.5261 31.1878 16.4114 31.5733C17.253 31.9399 16.1528 33.3858 15.963 33.9307L18.3823 34.2432V22.0791Z" fill="url(#paint2_linear_6252_23432)"/>
<path d="M22.5014 36.4474C23.3618 36.3235 25.8082 36.3339 26.6883 36.436C27.6508 36.5474 28.2953 37.2162 28.3777 38.1798C28.5466 40.1476 28.2442 42.3508 28.3766 44.3436C28.3651 44.7603 28.0095 44.8958 27.6373 44.9312C25.7133 45.1156 23.4984 44.7843 21.5431 44.9291C21.1666 44.902 20.8621 44.5718 20.8778 44.1905C21.0634 42.2758 20.6327 39.9059 20.9018 38.0475C21.0186 37.2412 21.6912 36.5662 22.5025 36.4485L22.5014 36.4474ZM27.1252 43.679V38.0256C27.1252 37.8308 26.7968 37.6944 26.6195 37.6735C25.7665 37.5715 23.5797 37.584 22.71 37.6704C22.5557 37.686 22.1292 37.8694 22.1292 38.0256V43.679H27.1252Z" fill="url(#paint3_linear_6252_23432)"/>
<path d="M6.18255 35.663L11.3914 35.6516C12.0807 35.7589 12.039 36.712 11.3914 36.812L6.24616 36.8152C5.69451 36.5985 5.67366 35.9474 6.18255 35.6641V35.663Z" fill="url(#paint4_linear_6252_23432)"/>
<path d="M38.812 20.6925L43.318 20.68C44.0406 20.7946 44.0729 21.7936 43.1594 21.9166C42.3888 22.0197 39.8006 22.0238 39.0362 21.9166C38.2718 21.8093 38.1269 21.0113 38.812 20.6925Z" fill="url(#paint5_linear_6252_23432)"/>
<path d="M38.544 24.2406C38.1696 23.8656 38.4647 23.252 38.9559 23.1749C40.2876 23.2937 41.9456 22.9968 43.2377 23.1781C44.0667 23.2937 43.9926 24.3083 43.318 24.4135C41.9581 24.3094 40.3574 24.5677 39.0278 24.4198C38.8985 24.4052 38.6305 24.326 38.544 24.2396V24.2406Z" fill="url(#paint6_linear_6252_23432)"/>
<path d="M38.812 18.1976L43.3993 18.183C43.9979 18.4081 43.9926 19.1279 43.3993 19.3498L38.8787 19.3466C38.2583 19.2508 38.1853 18.3706 38.813 18.1987L38.812 18.1976Z" fill="url(#paint7_linear_6252_23432)"/>
<path d="M21.6609 5.00222C21.7287 5.0241 21.7277 5.05014 21.6609 5.08035C21.5577 5.08347 21.4513 5.08452 21.3491 5.08035C21.2814 5.05847 21.2824 5.03243 21.3491 5.00222H21.6609Z" fill="url(#paint8_linear_6252_23432)"/>
<path d="M21.9738 5.00222C21.9195 5.11993 21.7642 5.07722 21.662 5.08035V5.00222H21.9738Z" fill="url(#paint9_linear_6252_23432)"/>
<path d="M21.3491 5.00222L21.3491 5.08035C21.2636 5.07722 21.152 5.10431 21.1145 5.00222H21.3491Z" fill="url(#paint10_linear_6252_23432)"/>
<path d="M35.9234 5.79913L41.9123 5.78663C42.5911 5.89289 42.6881 6.92523 41.761 7.0294C39.9956 7.22732 37.8724 6.88564 36.0684 7.02419C35.3363 6.91169 35.2456 6.0554 35.9234 5.79809V5.79913Z" fill="url(#paint11_linear_6252_23432)"/>
<defs>
<linearGradient id="paint0_linear_6252_23432" x1="37.6624" y1="33.6397" x2="37.6624" y2="41.6506" gradientUnits="userSpaceOnUse">
<stop stop-color="#ED3040"/>
<stop offset="1" stop-color="#2D23F4"/>
</linearGradient>
<linearGradient id="paint1_linear_6252_23432" x1="37.6624" y1="33.6397" x2="37.6624" y2="41.6506" gradientUnits="userSpaceOnUse">
<stop stop-color="#ED3040"/>
<stop offset="1" stop-color="#2D23F4"/>
</linearGradient>
<linearGradient id="paint2_linear_6252_23432" x1="37.6624" y1="33.6397" x2="37.6624" y2="41.6506" gradientUnits="userSpaceOnUse">
<stop stop-color="#ED3040"/>
<stop offset="1" stop-color="#2D23F4"/>
</linearGradient>
<linearGradient id="paint3_linear_6252_23432" x1="37.6624" y1="33.6397" x2="37.6624" y2="41.6506" gradientUnits="userSpaceOnUse">
<stop stop-color="#ED3040"/>
<stop offset="1" stop-color="#2D23F4"/>
</linearGradient>
<linearGradient id="paint4_linear_6252_23432" x1="37.6624" y1="33.6397" x2="37.6624" y2="41.6506" gradientUnits="userSpaceOnUse">
<stop stop-color="#ED3040"/>
<stop offset="1" stop-color="#2D23F4"/>
</linearGradient>
<linearGradient id="paint5_linear_6252_23432" x1="37.6624" y1="33.6397" x2="37.6624" y2="41.6506" gradientUnits="userSpaceOnUse">
<stop stop-color="#ED3040"/>
<stop offset="1" stop-color="#2D23F4"/>
</linearGradient>
<linearGradient id="paint6_linear_6252_23432" x1="37.6624" y1="33.6397" x2="37.6624" y2="41.6506" gradientUnits="userSpaceOnUse">
<stop stop-color="#ED3040"/>
<stop offset="1" stop-color="#2D23F4"/>
</linearGradient>
<linearGradient id="paint7_linear_6252_23432" x1="37.6624" y1="33.6397" x2="37.6624" y2="41.6506" gradientUnits="userSpaceOnUse">
<stop stop-color="#ED3040"/>
<stop offset="1" stop-color="#2D23F4"/>
</linearGradient>
<linearGradient id="paint8_linear_6252_23432" x1="37.6624" y1="33.6397" x2="37.6624" y2="41.6506" gradientUnits="userSpaceOnUse">
<stop stop-color="#ED3040"/>
<stop offset="1" stop-color="#2D23F4"/>
</linearGradient>
<linearGradient id="paint9_linear_6252_23432" x1="37.6624" y1="33.6397" x2="37.6624" y2="41.6506" gradientUnits="userSpaceOnUse">
<stop stop-color="#ED3040"/>
<stop offset="1" stop-color="#2D23F4"/>
</linearGradient>
<linearGradient id="paint10_linear_6252_23432" x1="37.6624" y1="33.6397" x2="37.6624" y2="41.6506" gradientUnits="userSpaceOnUse">
<stop stop-color="#ED3040"/>
<stop offset="1" stop-color="#2D23F4"/>
</linearGradient>
<linearGradient id="paint11_linear_6252_23432" x1="37.6624" y1="33.6397" x2="37.6624" y2="41.6506" gradientUnits="userSpaceOnUse">
<stop stop-color="#ED3040"/>
<stop offset="1" stop-color="#2D23F4"/>
</linearGradient>
</defs>
</svg>
