<svg width="50" height="50" viewBox="0 0 50 50" fill="none" xmlns="http://www.w3.org/2000/svg">
<path d="M34.9386 28.3479C34.8471 28.4764 35.2476 29.1225 35.3225 29.3122C35.7289 30.3474 36.0295 31.4414 35.9796 32.5679C37.3461 32.0659 38.885 32.2412 40.1921 32.8453C40.7589 33.1071 41.7868 33.5586 41.4244 34.3296C41.0845 35.0526 39.9485 34.099 39.4863 33.9093C38.7721 33.6175 38.0247 33.471 37.2523 33.5466C37.0158 33.5694 36.1163 33.7676 35.9499 33.8817C35.8631 33.9405 35.4484 35.5389 35.2963 35.8848C35.1062 36.3135 34.8614 36.717 34.6 37.1037C34.9315 37.3439 35.5934 38.2854 35.8928 38.4223C36.1234 38.528 36.4787 38.4391 36.7686 38.5064C37.1952 38.6037 39.4934 40.907 39.857 41.373C40.2206 41.8389 40.3395 42.1139 40.242 42.7336C40.1695 43.1996 38.5392 44.8712 38.0936 44.9637C37.762 45.0333 37.3331 45.0081 37.0336 44.8412C36.241 44.0114 35.2571 43.2284 34.5014 42.3817C34.3005 42.1572 33.912 41.7393 33.8407 41.4642C33.7563 41.14 33.8704 40.7521 33.7539 40.4951C33.7183 40.4158 32.6084 39.2846 32.5228 39.269C28.2592 42.1908 22.1692 40.3078 20.4616 35.3876C19.5989 35.6554 18.6482 35.7407 17.7451 35.6266C14.9502 35.2723 13.9045 32.4538 10.3883 33.9597C9.9867 34.1315 8.79602 35.091 8.54767 34.2672C8.34803 33.6043 8.81028 33.3977 9.28798 33.1119C10.3776 32.461 11.6563 32.1836 12.9206 32.3133C15.4992 32.5763 17.3161 35.3624 20.1205 34.1507C19.7011 32.5319 20.0373 30.8578 20.5554 29.3086C19.5335 29.6028 18.6447 29.7433 17.5894 29.5332C14.9978 29.0168 13.8843 26.711 10.7781 27.7474C10.2351 27.9288 9.00041 28.9531 8.61421 28.301C8.18048 27.5697 9.10498 27.1362 9.64684 26.8684C10.5286 26.4312 11.5137 26.1778 12.5011 26.2223C16.0304 26.382 17.1058 29.9115 21.2256 27.5625C22.0658 27.0833 22.6314 26.4264 23.405 25.8908C26.8273 23.5202 31.4831 24.1387 34.1187 27.3667C35.0373 26.9236 36.0045 26.3291 37.0705 26.2283C38.3336 26.1094 40.2492 26.5561 41.239 27.3847C41.6062 27.6922 41.5705 28.4235 41.0738 28.516C40.5771 28.6085 39.7168 27.9083 39.1642 27.721C37.6408 27.2046 36.2862 27.5613 34.941 28.3479H34.9386ZM32.8116 37.3799C36.6332 33.4445 34.4693 26.7194 29.1136 25.8127C23.6213 24.8832 19.442 30.5912 21.9042 35.6518C23.9267 39.807 29.6044 40.6812 32.8116 37.3799ZM33.7682 38.2098C33.6743 38.2254 33.5032 38.4079 33.5769 38.5556C33.6077 38.6169 34.4491 39.4683 34.5382 39.5308C34.7652 39.6893 34.985 39.4431 34.8947 39.2618C34.84 39.1525 33.8478 38.1966 33.7682 38.211V38.2098ZM36.8031 40.1012C36.7116 40.0195 36.462 39.6785 36.3266 39.7385L35.0206 41.0655L37.7514 43.7448C37.9474 43.5178 39.0181 42.6039 39.0121 42.3997L38.9076 42.1956C38.1506 41.5591 37.5339 40.7581 36.8019 40.1012H36.8031Z" fill="url(#paint0_linear_6252_23424)"/>
<path d="M23.6058 16.4528H31.8396C32.8128 16.4528 32.265 18.5568 32.1022 19.096C31.7908 20.1288 31.0208 21.3454 30.1878 22.0023C30.0072 22.144 30.8034 22.2568 30.883 22.2629C34.3457 22.5511 35.572 18.8451 39.9224 20.6116C40.4975 20.8446 41.7714 21.3982 41.422 22.1752C41.0727 22.9522 40.065 22.0491 39.5813 21.8365C36.0616 20.2898 34.575 23.5742 31.331 23.5514C28.0691 23.5298 26.5932 20.3078 23.0235 21.8966C21.5049 22.5727 20.7598 23.5154 18.8609 23.5887C15.5361 23.7172 14.0186 20.339 10.4763 21.8077C10.0984 21.965 9.2856 22.5931 8.96595 22.4934C8.62253 22.3853 8.46686 22.0407 8.53341 21.6948C8.64867 21.0896 10.7971 20.2753 11.4079 20.2381C11.0811 19.341 10.4537 17.8159 10.7282 16.8672C10.7615 16.7519 11.112 16.4528 11.1893 16.4528H22.2987V13.8997H14.936C14.6686 13.8997 14.3335 13.029 14.7161 12.7973C17.0963 10.6692 19.2269 8.2362 21.556 6.06014C21.714 5.91243 22.635 5.04657 22.7086 5.02376C23.0414 4.92168 23.6058 5.16186 23.6058 5.48971V16.4528ZM22.2987 12.6664V7.20702L16.722 12.6664H22.2987ZM31.0992 17.7738H11.9296C12.1173 18.6493 12.3609 19.4611 12.8885 20.1949C15.3863 20.5071 16.4558 22.4682 19.1212 22.2689C20.6648 22.1536 21.4835 21.1292 22.7978 20.6128C24.3117 20.0171 25.8006 20.0772 27.2955 20.6921C27.6532 20.8398 28.662 21.5195 28.9223 21.4366C29.097 21.3814 29.8587 20.6032 30.0108 20.4158C30.6097 19.6773 30.9875 18.7214 31.0992 17.7726V17.7738Z" fill="url(#paint1_linear_6252_23424)"/>
<path d="M32.1141 36.7639C26.63 42.3061 18.3428 33.8168 23.8233 28.3419C29.2942 22.8777 37.5695 31.2505 32.1141 36.7639ZM27.5082 27.9264C21.146 28.5316 22.6469 38.5484 29.0114 37.1073C34.4847 35.868 33.2548 27.3799 27.5082 27.9264Z" fill="url(#paint2_linear_6252_23424)"/>
<defs>
<linearGradient id="paint0_linear_6252_23424" x1="35.4465" y1="33.6397" x2="35.4465" y2="41.6506" gradientUnits="userSpaceOnUse">
<stop stop-color="#ED3040"/>
<stop offset="1" stop-color="#2D23F4"/>
</linearGradient>
<linearGradient id="paint1_linear_6252_23424" x1="35.4465" y1="33.6397" x2="35.4465" y2="41.6506" gradientUnits="userSpaceOnUse">
<stop stop-color="#ED3040"/>
<stop offset="1" stop-color="#2D23F4"/>
</linearGradient>
<linearGradient id="paint2_linear_6252_23424" x1="35.4465" y1="33.6397" x2="35.4465" y2="41.6506" gradientUnits="userSpaceOnUse">
<stop stop-color="#ED3040"/>
<stop offset="1" stop-color="#2D23F4"/>
</linearGradient>
</defs>
</svg>
