<svg width="50" height="50" viewBox="0 0 50 50" fill="none" xmlns="http://www.w3.org/2000/svg">
<path d="M35.5121 19.9337C35.5121 11.7204 28.8891 5 20.7937 5C12.6992 5 6.07631 11.7199 6.07631 19.9337C6.07631 28.1475 12.6993 34.8674 20.7947 34.8674C24.474 34.8674 27.8383 33.4808 30.4663 31.2407L43.1865 44.147L44.6584 42.6536L31.9381 29.7473C34.1455 27.0805 35.5122 23.6673 35.5122 19.9342L35.5121 19.9337ZM20.7947 32.7333C13.8564 32.7333 8.17965 26.9732 8.17965 19.9337C8.17965 12.8939 13.8567 7.13411 20.7947 7.13411C27.733 7.13411 33.4098 12.8942 33.4098 19.9337C33.4094 26.974 27.7327 32.7333 20.7947 32.7333Z" fill="url(#paint0_linear_6252_23426)"/>
<path d="M29.0999 18.8667C28.8898 17.2669 28.2587 15.8798 27.4179 14.7068L28.9947 13.107L27.5228 11.6136L25.9461 13.2134C24.7896 12.2535 23.423 11.72 21.8462 11.5068V9.2667H19.7436V11.5068C18.1669 11.72 16.7999 12.3603 15.6437 13.2134L14.067 11.6136L12.5952 13.107L14.1719 14.7068C13.2258 15.8802 12.7 17.2668 12.4899 18.8667H10.2821V21H12.4899C12.7 22.5997 13.3311 23.9868 14.1719 25.1599L12.5952 26.7596L14.067 28.253L15.6437 26.6532C16.8003 27.6131 18.1668 28.1466 19.7436 28.3598V30.5999H21.8462V28.3598C23.4229 28.1466 24.79 27.5063 25.9461 26.6532L27.5228 28.253L28.9947 26.7596L27.4179 25.1599C28.364 23.9864 28.8898 22.5998 29.0999 21H31.3077V18.8667H29.0999ZM20.7949 26.3333C17.3257 26.3333 14.4872 23.4533 14.4872 19.9333C14.4872 16.4133 17.3257 13.5333 20.7949 13.5333C24.2641 13.5333 27.1026 16.4133 27.1026 19.9333C27.1026 23.4533 24.2641 26.3333 20.7949 26.3333Z" fill="url(#paint1_linear_6252_23426)"/>
<path d="M20.2689 22.0668C20.2689 22.9505 19.5631 23.6666 18.6922 23.6666C17.8213 23.6666 17.1151 22.9504 17.1151 22.0668C17.1151 21.1832 17.8213 20.4666 18.6922 20.4666C19.5631 20.4666 20.2689 21.1832 20.2689 22.0668Z" fill="url(#paint2_linear_6252_23426)"/>
<path d="M22.3712 16.7336C22.3712 17.6172 21.6654 18.3333 20.7945 18.3333C19.9236 18.3333 19.2174 17.6172 19.2174 16.7336C19.2174 15.8499 19.9236 15.1334 20.7945 15.1334C21.6654 15.1334 22.3712 15.8499 22.3712 16.7336Z" fill="url(#paint3_linear_6252_23426)"/>
<path d="M25.5252 20.9998C25.5252 21.8834 24.8194 22.5995 23.9485 22.5995C23.0776 22.5995 22.3714 21.8834 22.3714 20.9998C22.3714 20.1161 23.0776 19.3996 23.9485 19.3996C24.8194 19.3996 25.5252 20.1161 25.5252 20.9998Z" fill="url(#paint4_linear_6252_23426)"/>
<path d="M39.192 7.1331C39.192 8.01675 38.4858 8.73287 37.6149 8.73287C36.7439 8.73287 36.0382 8.01673 36.0382 7.1331C36.0382 6.24946 36.744 5.53292 37.6149 5.53292C38.4858 5.53292 39.192 6.24945 39.192 7.1331Z" fill="url(#paint5_linear_6252_23426)"/>
<path d="M41.2943 13.5334C41.2943 14.4171 40.5881 15.1332 39.7172 15.1332C38.8463 15.1332 38.1405 14.417 38.1405 13.5334C38.1405 12.6498 38.8463 11.9332 39.7172 11.9332C40.5881 11.9332 41.2943 12.6498 41.2943 13.5334Z" fill="url(#paint6_linear_6252_23426)"/>
<path d="M9.75616 36.9995C9.75616 37.8832 9.05034 38.5997 8.17945 38.5997C7.30853 38.5997 6.60234 37.8832 6.60234 36.9995C6.60234 36.1159 7.30854 35.3997 8.17945 35.3997C9.05036 35.3997 9.75616 36.1159 9.75616 36.9995Z" fill="url(#paint7_linear_6252_23426)"/>
<path d="M13.9618 41.2657C13.9618 42.1494 13.256 42.8659 12.3851 42.8659C11.5142 42.8659 10.808 42.1493 10.808 41.2657C10.808 40.382 11.5142 39.6659 12.3851 39.6659C13.2561 39.6659 13.9618 40.3821 13.9618 41.2657Z" fill="url(#paint8_linear_6252_23426)"/>
<path d="M7.65381 43.3998C7.65381 44.2835 6.948 45 6.07711 45C5.20619 45 4.5 44.2835 4.5 43.3998C4.5 42.5162 5.2062 41.8 6.07711 41.8C6.94802 41.8 7.65381 42.5162 7.65381 43.3998Z" fill="url(#paint9_linear_6252_23426)"/>
<path d="M45.5 9.2662C45.5 10.1499 44.7938 10.866 43.9229 10.866C43.052 10.866 42.3462 10.1498 42.3462 9.2662C42.3462 8.38254 43.052 7.66602 43.9229 7.66602C44.7938 7.66602 45.5 8.38255 45.5 9.2662Z" fill="url(#paint10_linear_6252_23426)"/>
<defs>
<linearGradient id="paint0_linear_6252_23426" x1="0" y1="0" x2="0" y2="1" gradientUnits="objectBoundingBox">
<stop stop-color="#ED3040"/>
<stop offset="1" stop-color="#2D23F4"/>
</linearGradient>
<linearGradient id="paint1_linear_6252_23426" x1="0" y1="0" x2="0" y2="1" gradientUnits="objectBoundingBox">
<stop stop-color="#ED3040"/>
<stop offset="1" stop-color="#2D23F4"/>
</linearGradient>
<linearGradient id="paint2_linear_6252_23426" x1="0" y1="0" x2="0" y2="1" gradientUnits="objectBoundingBox">
<stop stop-color="#ED3040"/>
<stop offset="1" stop-color="#2D23F4"/>
</linearGradient>
<linearGradient id="paint3_linear_6252_23426" x1="0" y1="0" x2="0" y2="1" gradientUnits="objectBoundingBox">
<stop stop-color="#ED3040"/>
<stop offset="1" stop-color="#2D23F4"/>
</linearGradient>
<linearGradient id="paint4_linear_6252_23426" x1="0" y1="0" x2="0" y2="1" gradientUnits="objectBoundingBox">
<stop stop-color="#ED3040"/>
<stop offset="1" stop-color="#2D23F4"/>
</linearGradient>
<linearGradient id="paint5_linear_6252_23426" x1="0" y1="0" x2="0" y2="1" gradientUnits="objectBoundingBox">
<stop stop-color="#ED3040"/>
<stop offset="1" stop-color="#2D23F4"/>
</linearGradient>
<linearGradient id="paint6_linear_6252_23426" x1="0" y1="0" x2="0" y2="1" gradientUnits="objectBoundingBox">
<stop stop-color="#ED3040"/>
<stop offset="1" stop-color="#2D23F4"/>
</linearGradient>
<linearGradient id="paint7_linear_6252_23426" x1="0" y1="0" x2="0" y2="1" gradientUnits="objectBoundingBox">
<stop stop-color="#ED3040"/>
<stop offset="1" stop-color="#2D23F4"/>
</linearGradient>
<linearGradient id="paint8_linear_6252_23426" x1="0" y1="0" x2="0" y2="1" gradientUnits="objectBoundingBox">
<stop stop-color="#ED3040"/>
<stop offset="1" stop-color="#2D23F4"/>
</linearGradient>
<linearGradient id="paint9_linear_6252_23426" x1="0" y1="0" x2="0" y2="1" gradientUnits="objectBoundingBox">
<stop stop-color="#ED3040"/>
<stop offset="1" stop-color="#2D23F4"/>
</linearGradient>
<linearGradient id="paint10_linear_6252_23426" x1="0" y1="0" x2="0" y2="1" gradientUnits="objectBoundingBox">
<stop stop-color="#ED3040"/>
<stop offset="1" stop-color="#2D23F4"/>
</linearGradient>
</defs>
</svg>
