<svg width="50" height="50" viewBox="0 0 50 50" fill="none" xmlns="http://www.w3.org/2000/svg">
<path d="M42.8125 5.08702C44.032 5.27793 44.564 5.82353 44.999 6.96063V8.05391C44.9624 9.01158 44.1519 9.91292 43.2339 10.0496C43.2903 11.4715 43.3143 12.8975 43.3049 14.3257C43.2997 15.4858 42.7478 16.6343 41.7474 17.2404C41.3782 17.4637 40.6041 17.8257 40.2745 17.5012L40.2223 17.6577H36.6099L36.4096 17.5012C36.4732 17.5284 36.5358 17.5586 36.5922 17.5983C37.0313 17.9039 37.8147 19.8662 38.0307 20.4838C38.4511 21.6876 38.7035 22.9426 38.7536 24.2164L39.9104 24.208C40.7564 21.6678 44.6151 21.7012 45 24.4522V25.5454C44.6151 28.2954 40.7564 28.3287 39.9104 25.7896L38.7536 25.7812C38.6806 27.4608 38.2748 29.1091 37.5832 30.6426C37.3839 31.0839 36.8477 32.2689 36.516 32.4849C36.4597 32.5214 36.3961 32.5496 36.3314 32.5746L36.5661 32.4181H40.5718L40.6646 32.5746C40.6792 32.511 40.7231 32.4244 40.7648 32.4359C43.1557 33.0983 43.308 34.7309 43.3205 36.9279C43.2746 37.9284 43.2444 38.9549 43.2235 39.9324C44.154 40.1056 44.9593 40.9735 44.9979 41.9447V43.038C44.927 44.1501 43.9892 44.9617 42.8897 44.9899H42.1084C39.2553 44.8021 39.0634 40.5833 41.762 39.9564C41.7047 38.5637 41.7005 37.1606 41.7516 35.747C41.8006 34.9072 41.4105 34.1561 40.5582 33.984L35.4249 33.9955C33.0945 36.7631 29.4883 38.5793 25.7892 38.7431L25.7955 39.9021C28.4305 40.7565 28.2396 44.7395 25.3981 44.9888C25.1508 44.9648 24.8556 45.0233 24.6167 44.9888C22.3114 44.6581 21.6959 41.4075 23.7634 40.2693C23.9324 40.1765 24.3539 40.0857 24.3747 40.0617C24.4394 39.9866 24.3434 38.8068 24.3831 38.5856C23.148 38.5679 21.8013 38.3436 20.6371 37.919C20.1479 37.7406 19.5846 37.6112 19.7911 36.9227C20.0122 36.1831 21.3683 36.8977 21.8503 37.0177C34.5893 40.2036 42.9189 24.2456 33.2071 15.6652C32.9077 15.4013 31.6935 14.5959 31.6445 14.3361C31.5193 13.6685 32.0315 13.3868 32.6042 13.6914C33.6327 14.2381 34.6404 15.4033 35.4436 16.24C37.0199 16.1336 38.8871 16.4267 40.4289 16.2525C41.1487 16.1711 41.737 15.5755 41.8664 14.8786L41.8778 9.97447C39.2094 9.28073 39.465 5.35095 42.1856 5.00773L42.8104 5.08597L42.8125 5.08702ZM42.1657 6.27732C41.784 6.34826 41.4293 6.68522 41.2905 7.04095C40.8368 8.20309 42.1397 9.32663 43.1985 8.63707C44.4106 7.84736 43.7221 5.9894 42.1657 6.27732ZM42.4046 23.6885C40.3966 23.8492 41.1622 27.056 43.0764 26.163C44.3845 25.5527 43.7868 23.5779 42.4046 23.6885ZM24.7544 41.1832C23.415 41.4002 23.3472 43.4772 24.6752 43.7224C26.8585 44.1261 26.7521 40.8588 24.7544 41.1832ZM42.245 41.1832C40.6991 41.4336 40.8879 44.0823 42.8334 43.7224C44.3532 43.4417 44.008 40.8974 42.245 41.1832Z" fill="url(#paint0_linear_6252_23422)"/>
<path d="M42.8125 5.08702C42.6174 5.06198 42.3222 5.16526 42.1877 5.00878C42.4714 4.97331 42.6039 5.05468 42.8125 5.08702Z" fill="url(#paint1_linear_6252_23422)"/>
<path d="M22.0422 25.2356C22.4282 25.6592 23.1021 26.9945 22.0787 27.0352C21.4487 27.0602 21.5207 26.5532 21.2494 26.2215C20.6559 25.4964 19.9038 26.2016 19.4635 25.6654C18.9607 25.0531 19.717 24.6483 20.2866 24.6097C20.5338 24.593 20.8708 24.7088 20.9761 24.6931C21.0241 24.6858 21.3944 24.2091 21.6886 24.0599C23.0969 23.3422 23.3931 24.9581 22.0422 25.2356Z" fill="url(#paint2_linear_6252_23422)"/>
<path d="M27.5647 23.8408C28.2344 23.7198 28.8102 24.6201 29.0449 24.6754C29.1545 24.7004 29.5039 24.5951 29.7303 24.6097C30.2675 24.6441 30.9623 25.0113 30.5846 25.6185C30.2028 26.2308 29.3495 25.4933 28.756 26.2089C28.4952 26.5219 28.3711 27.4159 27.6325 26.9434C26.8939 26.4708 27.9277 25.4891 27.8881 25.2826C27.7587 25.0301 27.4072 25.0729 27.2288 24.8486C26.9576 24.5064 27.1297 23.918 27.5657 23.8398L27.5647 23.8408Z" fill="url(#paint3_linear_6252_23422)"/>
<path d="M7.83027 5.08702C10.6823 5.55333 10.7584 9.15033 8.138 9.97655C8.25171 11.5382 8.00344 13.2721 8.14009 14.8129C8.20372 15.5327 8.79728 16.1492 9.51706 16.2473C11.0328 16.4539 12.9501 16.1023 14.5106 16.2598L14.6087 16.2369C16.9568 13.3576 20.6361 11.5028 24.3862 11.4131C24.3466 11.1919 24.4425 10.012 24.3779 9.93691C24.357 9.91292 23.9356 9.82216 23.7666 9.72931C21.6667 8.57343 22.3437 5.25393 24.6981 5.00982L25.323 5.08806C28.1416 5.54916 28.2657 9.15659 25.6442 9.93795L25.6349 11.4131C26.9628 11.4715 28.7445 11.7177 29.9514 12.2894C30.3051 12.4563 30.4699 12.6451 30.3781 13.0718C30.2008 13.898 28.9646 13.2053 28.4629 13.0749C15.3994 9.67089 7.00201 25.728 16.8473 34.3731C17.1749 34.661 18.4402 35.4695 18.508 35.7574C18.5988 36.1414 18.3401 36.5357 17.9353 36.5565C17.6192 36.5732 16.3695 35.5686 16.0702 35.3057C15.7708 35.0429 14.7349 33.8703 14.5044 33.8254C12.9198 33.9527 11.0588 33.6491 9.50871 33.8233C8.80875 33.9026 8.2684 34.4357 8.14948 35.119L8.138 40.0231C10.7887 40.8243 10.58 44.39 7.90851 44.9899H7.12719C4.43272 44.3994 4.26059 40.8149 6.89769 40.0231C7.11154 38.1902 6.33335 35.0762 7.56323 33.5959C7.8866 33.2068 8.85674 32.5746 9.35224 32.5746H13.6855C12.3221 30.5341 11.4667 28.1013 11.4219 25.6247L9.94892 25.6362C9.2667 28.3506 5.17127 27.996 5.01584 25.2001C4.84372 22.1091 9.12066 21.4529 9.94892 24.3656L11.4219 24.3771C11.4542 21.9255 12.3221 19.5574 13.6083 17.5044H9.74342C8.22459 17.5044 7.00618 16.2014 6.89039 14.7346C6.77043 13.2074 6.98219 11.5215 6.89769 9.97655C5.10451 9.48729 4.38264 7.3174 5.61148 5.87464C5.94946 5.47822 6.69428 5.06198 7.20542 5.00982L7.83027 5.08806V5.08702ZM7.18456 6.27732C5.85662 6.52248 5.92339 8.59951 7.26384 8.8165C9.26357 9.14094 9.37519 5.87151 7.18456 6.27732ZM24.6752 6.27732C23.3472 6.52248 23.414 8.59951 24.7544 8.8165C26.7531 9.1399 26.8595 5.87256 24.6752 6.27732ZM7.42344 23.6885C5.39868 23.8502 6.18313 27.056 8.09524 26.163C9.37832 25.5642 8.81501 23.578 7.42344 23.6885ZM7.2628 41.1832C5.92339 41.4002 5.85558 43.4772 7.18352 43.7224C9.3731 44.1271 9.26253 40.8588 7.2628 41.1832Z" fill="url(#paint4_linear_6252_23422)"/>
<path d="M31.6539 19.1339C31.6664 19.1526 31.9616 19.2497 32.0597 19.3154C32.9161 19.8892 33.5868 20.7477 33.5993 21.842C33.6025 22.13 33.3803 22.6954 33.3928 22.8529C33.4022 22.9635 33.6901 23.242 33.7673 23.385C34.2805 24.328 34.3869 25.1762 33.9676 26.1922C33.8935 26.3706 33.5535 26.8651 33.5482 26.9131C33.5388 27.0101 33.7819 27.5515 33.8195 27.7821C33.9822 28.7794 33.7047 29.4825 33.1258 30.2691C32.9954 30.4465 32.7241 30.6082 32.6261 30.7845C32.2151 31.521 32.3789 32.1146 31.6059 32.9658C30.4751 34.2125 29.5884 34.1102 28.0977 34.299C27.1412 34.4201 26.8533 34.7476 25.7882 34.2531C25.5587 34.1467 25.082 33.6815 25.035 33.6731C24.9641 33.6606 24.4644 34.1373 24.2788 34.2281C23.1699 34.7727 22.8392 34.3992 21.8451 34.2917C21.5467 34.2594 21.2234 34.3189 20.9156 34.2844C19.5063 34.1269 18.1669 33.0649 17.6651 31.7567C17.5535 31.4646 17.5076 31.0129 17.3877 30.7845C17.275 30.5696 16.8108 30.2138 16.6189 29.9134C16.1453 29.1717 16.0253 28.431 16.2193 27.5745C16.2558 27.4128 16.4718 26.982 16.4676 26.9131C16.4645 26.8568 16.0097 26.1881 15.9262 25.92C15.6988 25.1866 15.7447 24.3771 16.0649 23.6729C16.1724 23.4371 16.5479 23.0386 16.573 22.8467C16.6063 22.5921 16.4092 22.1613 16.4092 21.8368C16.4092 20.7029 17.2781 19.4635 18.3672 19.1391C18.0991 17.7005 19.2476 16.4309 20.6121 16.1159C20.7769 16.0783 21.0867 16.1346 21.1681 16.0846C21.1868 16.0731 21.2891 15.7758 21.3517 15.6819C21.94 14.8077 22.7964 14.4519 23.8552 14.6314C24.1786 14.6856 24.9662 15.2343 25.0309 15.225C25.1477 15.2072 25.4231 14.9099 25.5754 14.8317C26.4172 14.3998 27.6513 14.5625 28.3231 15.2385C28.49 15.4065 28.7883 16.0345 28.829 16.0606C28.9385 16.1325 29.1691 16.0814 29.3193 16.1169C30.7328 16.4486 31.5276 17.2832 31.6747 18.7416C31.6862 18.8595 31.6069 19.0671 31.6507 19.1328L31.6539 19.1339ZM24.3841 28.5144V19.2997C24.3841 19.2643 23.8271 19.064 23.7207 19.064C23.2669 19.064 23.0103 19.5741 22.5461 19.0681C21.6938 18.1397 23.7572 17.6212 24.3831 17.9717C24.4018 17.0923 24.5865 15.7789 23.3295 15.7789C22.2529 15.7789 22.4595 16.7793 21.8002 17.1455C21.3871 17.375 20.7529 17.2206 20.249 17.5461C19.2142 18.2117 19.3446 19.788 20.4765 20.2793C21.1764 20.5829 21.312 20.1593 21.9327 20.0894C22.2832 20.0498 22.7881 20.0196 22.8841 20.4483C23.1156 21.4842 22.0527 21.1003 21.5332 21.5625C21.1023 21.9464 21.2766 22.5285 21.0304 22.8352C20.8061 23.1137 20.4128 23.0835 20.1645 22.855C19.6284 22.3605 20.2177 21.6178 20.1343 21.4821C20.0133 21.286 18.7709 20.8051 18.7605 20.2355C18.025 20.5902 17.5713 21.3037 17.6756 22.1425C17.709 22.4075 17.9103 22.7152 17.8863 22.9896C17.831 23.6103 16.9934 24.037 16.9746 24.9675C16.9589 25.7718 17.7037 26.2674 17.7444 26.8432C17.7726 27.2584 17.371 27.7205 17.3522 28.239C17.3386 28.6302 17.4722 28.8649 17.5921 29.2155C17.8946 28.9025 18.0355 28.4529 18.3317 28.1211C18.6916 27.7185 20.0769 26.6565 20.3659 27.5714C20.6194 28.3726 19.8307 28.3757 19.3843 28.7846C17.9948 30.0563 18.701 32.2377 20.3721 32.8761C21.0147 33.1213 21.3277 33.019 21.9108 33.0712C22.3687 33.1119 22.6619 33.3153 23.1761 33.2798C23.7634 33.2402 24.3142 32.8302 24.3831 32.222C24.4238 31.8642 24.4331 30.2775 24.3403 30C24.1984 29.5764 23.6174 29.4919 23.2596 29.6933C22.9039 29.8925 23.004 30.4152 22.7818 30.6989C22.4991 31.0599 21.8451 30.9034 21.7501 30.4851C21.4466 29.1497 23.1584 27.8572 24.3831 28.5123L24.3841 28.5144ZM25.6338 19.3383V28.4351C26.8084 28.0658 28.2146 28.841 28.2918 30.1168C28.3325 30.7855 27.5949 31.208 27.1933 30.6634C26.9367 30.3161 27.1641 29.711 26.5268 29.6119C26.0646 29.5399 25.6901 29.6933 25.6317 30.1919C25.5879 30.5727 25.5858 32.2616 25.6943 32.5537C25.9029 33.1119 26.6154 33.3195 27.1589 33.2819C27.4771 33.26 27.7702 33.0774 28.0341 33.0628C28.7685 33.0242 29.0366 33.1359 29.7991 32.7989C31.3701 32.1041 31.9668 29.9374 30.5898 28.7512C30.2185 28.431 29.361 28.2755 29.6082 27.6152C29.8148 27.0644 30.2873 27.1937 30.6983 27.393C31.3294 27.6986 31.7331 28.143 32.0982 28.7252C32.1629 28.8284 32.2881 29.3438 32.4248 29.2176C32.5145 29.1341 32.6699 28.4143 32.6626 28.2453C32.6334 27.5442 32.045 27.1593 32.3945 26.4144C32.7137 25.7343 33.0298 25.7875 32.9745 24.8016C32.9192 23.8158 32.213 23.6864 32.1275 23.0668C32.0763 22.6933 32.3121 22.4304 32.3465 22.0726C32.4268 21.238 31.9658 20.6413 31.2919 20.2386C30.9435 20.7456 30.4834 21.2954 29.8471 21.4091C30.0453 21.8817 30.2727 22.9917 29.4914 23.0459C28.6475 23.1043 28.9698 22.0663 28.4931 21.5906C28.0811 21.1807 26.9398 21.3663 27.0494 20.6069C27.209 19.5053 28.6579 20.4087 29.1023 20.3972C30.521 20.3596 31.0864 18.0051 29.4403 17.4032C28.9709 17.231 28.4681 17.35 28.0696 17.0558C27.5146 16.6468 27.7358 15.7799 26.6843 15.7789C25.3542 15.7789 25.7246 17.1226 25.5524 17.9707C26.169 17.6003 28.3032 18.1616 27.4708 19.0713C27.0296 19.5532 26.677 19.0389 26.2169 19.0598C26.0845 19.0661 25.663 19.233 25.6307 19.3383H25.6338Z" fill="url(#paint5_linear_6252_23422)"/>
<path d="M7.83027 5.08702C7.6352 5.06198 7.33999 5.16526 7.20542 5.00878C7.49229 4.97957 7.61434 5.05155 7.83027 5.08702Z" fill="url(#paint6_linear_6252_23422)"/>
<path d="M25.3209 5.08702C25.1258 5.06198 24.8306 5.16526 24.696 5.00878C24.9829 4.97957 25.1049 5.05155 25.3209 5.08702Z" fill="url(#paint7_linear_6252_23422)"/>
<defs>
<linearGradient id="paint0_linear_6252_23422" x1="0" y1="0" x2="0" y2="1" gradientUnits="objectBoundingBox">
<stop stop-color="#ED3040"/>
<stop offset="1" stop-color="#2D23F4"/>
</linearGradient>
<linearGradient id="paint1_linear_6252_23422" x1="0" y1="0" x2="0" y2="1" gradientUnits="objectBoundingBox">
<stop stop-color="#ED3040"/>
<stop offset="1" stop-color="#2D23F4"/>
</linearGradient>
<linearGradient id="paint2_linear_6252_23422" x1="0" y1="0" x2="0" y2="1" gradientUnits="objectBoundingBox">
<stop stop-color="#ED3040"/>
<stop offset="1" stop-color="#2D23F4"/>
</linearGradient>
<linearGradient id="paint3_linear_6252_23422" x1="0" y1="0" x2="0" y2="1" gradientUnits="objectBoundingBox">
<stop stop-color="#ED3040"/>
<stop offset="1" stop-color="#2D23F4"/>
</linearGradient>
<linearGradient id="paint4_linear_6252_23422" x1="0" y1="0" x2="0" y2="1" gradientUnits="objectBoundingBox">
<stop stop-color="#ED3040"/>
<stop offset="1" stop-color="#2D23F4"/>
</linearGradient>
<linearGradient id="paint5_linear_6252_23422" x1="0" y1="0" x2="0" y2="1" gradientUnits="objectBoundingBox">
<stop stop-color="#ED3040"/>
<stop offset="1" stop-color="#2D23F4"/>
</linearGradient>
<linearGradient id="paint6_linear_6252_23422" x1="0" y1="0" x2="0" y2="1" gradientUnits="objectBoundingBox">
<stop stop-color="#ED3040"/>
<stop offset="1" stop-color="#2D23F4"/>
</linearGradient>
<linearGradient id="paint7_linear_6252_23422" x1="0" y1="0" x2="0" y2="1" gradientUnits="objectBoundingBox">
<stop stop-color="#ED3040"/>
<stop offset="1" stop-color="#2D23F4"/>
</linearGradient>
</defs>
</svg>
