<svg width="50" height="50" viewBox="0 0 50 50" fill="none" xmlns="http://www.w3.org/2000/svg">
<path d="M47.5 27.1836V28.2315C46.4618 31.4684 41.8336 29.0903 43.6316 26.5278C44.7108 24.991 46.9445 25.4543 47.5 27.1836ZM45.3591 27.0342C44.4983 27.0809 44.5652 28.4812 45.4906 28.3598C46.362 28.2455 46.173 26.9899 45.3591 27.0342Z" fill="url(#paint0_linear_6252_23400)"/>
<path d="M13.8036 39.9961C13.3784 40.457 12.6045 40.1105 12.5341 39.5224L12.4695 33.1231L6.98159 29.9281C6.20532 29.3529 6.94166 28.2665 7.7649 28.7134L13.2586 31.8699L18.359 28.9316C18.5645 26.9677 18.2345 24.8101 18.3989 22.8579C18.4741 21.9723 18.8393 21.9396 19.5181 21.5242C21.2515 20.4635 23.087 19.5451 24.8345 18.5066L25.1915 18.4646L31.5014 22.0714L31.6764 22.509L31.7175 28.9328L36.7732 31.8547C38.7626 30.8978 40.6146 29.6458 42.5758 28.6189C43.2992 28.5185 43.8031 29.3634 43.2217 29.8791L37.607 33.1219L37.5659 39.5457L37.3909 39.9833L31.1468 43.568C30.9601 43.645 30.7698 43.5785 30.5983 43.4945C28.8168 42.3159 26.6654 41.4197 24.912 40.2365C24.3753 39.8748 24.3389 39.7826 24.2861 39.1116C24.2414 38.5375 24.2039 36.2002 24.5115 35.835C24.8838 35.3927 25.6425 35.6133 25.7646 36.157C25.8961 36.7416 25.6342 38.7452 25.828 39.0638L30.9401 42.0195L36.1132 39.0649V33.1231L30.9741 30.193L25.8703 33.0799C25.5614 33.423 26.1897 34.8326 25.1222 34.8781C23.9431 34.9271 24.501 33.36 24.1616 33.0332L19.1963 30.1965L14.0478 33.1266L14.0055 39.4605C13.9879 39.6215 13.9069 39.8818 13.7989 39.9984L13.8036 39.9961ZM30.2519 28.9129L30.2566 23.0481C28.9495 22.2465 27.6248 21.4518 26.286 20.705C26.0605 20.579 25.1375 20.0154 24.9954 20.0539L19.9432 22.991L19.9127 28.8721L25.0412 31.8687L30.2531 28.9118L30.2519 28.9129Z" fill="url(#paint1_linear_6252_23400)"/>
<path d="M31.4733 8.51912C31.8056 8.82135 31.7234 9.37096 31.3699 9.62767L25.8304 12.8576C25.6072 14.1634 25.9819 15.8274 25.7822 17.09C25.6871 17.6886 24.9284 17.978 24.5151 17.4855C24.0054 16.8788 24.4563 13.7013 24.2743 12.7888L18.777 9.64868C18.1147 9.12124 18.5856 8.07804 19.4429 8.3756L25.04 11.5437L30.6465 8.38493C30.8814 8.24724 31.2854 8.34876 31.4744 8.52029L31.4733 8.51912Z" fill="url(#paint2_linear_6252_23400)"/>
<path d="M30.7733 31.0437C30.9554 31.004 31.1327 31.0064 31.3006 31.095C32.3787 31.9294 34.1074 32.493 35.1338 33.3121C35.4063 33.5292 35.4286 33.6039 35.4603 33.9493C35.5531 34.9645 35.5742 37.3309 35.4579 38.3228C35.3652 39.1069 34.4515 39.2085 34.0675 38.5643L34.0064 34.3448L30.4057 32.2456C30.1133 31.8524 30.2589 31.1569 30.7722 31.0449L30.7733 31.0437Z" fill="url(#paint3_linear_6252_23400)"/>
<path d="M4.13842 25.6316C7.08611 25.1334 7.60753 29.3727 4.97575 29.7823C2.06094 30.235 1.64051 26.0541 4.13842 25.6316ZM4.57059 27.0342C3.72034 27.0809 3.71329 28.3353 4.55532 28.3633C5.50892 28.396 5.41614 26.9876 4.57059 27.0342Z" fill="url(#paint4_linear_6252_23400)"/>
<path d="M33.8561 5.01611C36.2213 4.80723 37.0422 8.17606 34.9295 9.0594C31.7786 10.3768 30.7052 5.29383 33.8561 5.01611ZM34.5513 6.68243C34.0534 6.06865 32.9248 6.84813 33.5202 7.57744C34.0816 8.26474 35.1091 7.37207 34.5513 6.68243Z" fill="url(#paint5_linear_6252_23400)"/>
<path d="M17.9315 5.6404C19.8633 7.55994 17.0061 10.532 14.9826 8.70116C12.9005 6.81663 15.9116 3.63334 17.9315 5.6404ZM16.2697 6.49806C15.47 6.66026 15.6837 7.96018 16.5798 7.77815C17.3795 7.61595 17.1658 6.31603 16.2697 6.49806Z" fill="url(#paint6_linear_6252_23400)"/>
<path d="M12.8453 40.7429C15.1353 40.5037 16.0783 43.8014 13.9785 44.7559C10.8958 46.1573 9.60398 41.0825 12.8453 40.7429ZM12.8406 42.2237C12.1747 42.3696 12.2181 43.491 12.9979 43.5225C13.9856 43.5621 13.9022 41.9915 12.8406 42.2237Z" fill="url(#paint7_linear_6252_23400)"/>
<path d="M24.8838 20.9115C25.0647 20.8719 25.2444 20.8754 25.4111 20.9629C26.5162 21.7155 27.8832 22.2663 28.9777 23.0085C29.3735 23.2768 29.5226 23.2885 29.5708 23.8171C29.6635 24.8346 29.6859 27.1976 29.5684 28.1906C29.4721 29.0098 28.4422 29.0891 28.1791 28.3447L28.1157 24.215C27.9936 24.0132 25.498 22.7447 25.0565 22.4507C24.6149 22.1566 24.2062 21.9466 24.3988 21.306C24.4458 21.1508 24.7253 20.9466 24.8826 20.9115H24.8838Z" fill="url(#paint8_linear_6252_23400)"/>
<defs>
<linearGradient id="paint0_linear_6252_23400" x1="39.2452" y1="33.6397" x2="39.2452" y2="41.6506" gradientUnits="userSpaceOnUse">
<stop stop-color="#ED3040"/>
<stop offset="1" stop-color="#2D23F4"/>
</linearGradient>
<linearGradient id="paint1_linear_6252_23400" x1="39.2452" y1="33.6397" x2="39.2452" y2="41.6506" gradientUnits="userSpaceOnUse">
<stop stop-color="#ED3040"/>
<stop offset="1" stop-color="#2D23F4"/>
</linearGradient>
<linearGradient id="paint2_linear_6252_23400" x1="39.2452" y1="33.6397" x2="39.2452" y2="41.6506" gradientUnits="userSpaceOnUse">
<stop stop-color="#ED3040"/>
<stop offset="1" stop-color="#2D23F4"/>
</linearGradient>
<linearGradient id="paint3_linear_6252_23400" x1="39.2452" y1="33.6397" x2="39.2452" y2="41.6506" gradientUnits="userSpaceOnUse">
<stop stop-color="#ED3040"/>
<stop offset="1" stop-color="#2D23F4"/>
</linearGradient>
<linearGradient id="paint4_linear_6252_23400" x1="39.2452" y1="33.6397" x2="39.2452" y2="41.6506" gradientUnits="userSpaceOnUse">
<stop stop-color="#ED3040"/>
<stop offset="1" stop-color="#2D23F4"/>
</linearGradient>
<linearGradient id="paint5_linear_6252_23400" x1="39.2452" y1="33.6397" x2="39.2452" y2="41.6506" gradientUnits="userSpaceOnUse">
<stop stop-color="#ED3040"/>
<stop offset="1" stop-color="#2D23F4"/>
</linearGradient>
<linearGradient id="paint6_linear_6252_23400" x1="39.2452" y1="33.6397" x2="39.2452" y2="41.6506" gradientUnits="userSpaceOnUse">
<stop stop-color="#ED3040"/>
<stop offset="1" stop-color="#2D23F4"/>
</linearGradient>
<linearGradient id="paint7_linear_6252_23400" x1="39.2452" y1="33.6397" x2="39.2452" y2="41.6506" gradientUnits="userSpaceOnUse">
<stop stop-color="#ED3040"/>
<stop offset="1" stop-color="#2D23F4"/>
</linearGradient>
<linearGradient id="paint8_linear_6252_23400" x1="39.2452" y1="33.6397" x2="39.2452" y2="41.6506" gradientUnits="userSpaceOnUse">
<stop stop-color="#ED3040"/>
<stop offset="1" stop-color="#2D23F4"/>
</linearGradient>
</defs>
</svg>
