<svg width="50" height="50" viewBox="0 0 50 50" fill="none" xmlns="http://www.w3.org/2000/svg">
<path d="M29.5424 30.8827L29.4557 44.6262C29.3082 44.875 29.1173 44.9105 28.8571 44.9283C26.3845 45.1593 23.5735 44.7417 21.0576 44.9283C20.8407 44.9283 20.6585 44.8128 20.537 44.6262L20.4503 30.8827C18.7759 30.7051 17.4398 29.2037 17.2055 27.5157C17.4571 24.4152 16.8672 20.7461 17.2055 17.7167C17.3964 16.0643 18.9494 14.5096 20.5631 14.3408C23.348 14.0565 26.5753 14.554 29.4123 14.3408C31.1388 14.5895 32.6223 16.0732 32.7785 17.8766C33.0561 20.9771 32.5876 24.5129 32.7611 27.6667C32.4662 29.2836 31.1561 30.7228 29.5338 30.8916L29.5424 30.8827ZM29.5424 29.4702C30.6443 29.3014 31.4077 28.182 31.4771 27.0893C31.3383 24.2553 31.694 21.1726 31.4945 18.3652C31.3904 16.9083 30.5228 15.8688 29.0826 15.6734C26.4886 15.7978 23.7037 15.4779 21.1357 15.6556C19.5827 15.7622 18.611 16.775 18.4982 18.3563C18.2813 21.3147 18.585 24.6728 18.6023 27.649C18.8019 28.4663 19.6 29.3725 20.4503 29.4613V18.7828C20.4503 18.2053 21.7516 18.2053 21.7516 18.7828V43.5957H24.3457V30.0921C24.3457 29.5146 25.647 29.5146 25.647 30.0921V43.5957H28.2411V18.7828C28.2411 18.2053 29.5424 18.2053 29.5424 18.7828V29.4702Z" fill="url(#paint0_linear_6252_23388)"/>
<path d="M13.1279 7.70446H19.921C20.7019 7.81995 20.6411 8.96598 19.843 9.01928L13.5531 9.0637C13.2754 9.46348 11.0024 11.5157 10.959 11.7378C10.9503 11.7911 11.28 12.2975 11.3234 12.5107C11.8179 14.9982 8.60789 15.9488 7.66223 13.9321C6.91612 12.3241 8.1741 10.8316 9.81381 10.9738C10.933 9.90768 11.922 8.66392 13.1193 7.71334L13.1279 7.70446ZM9.31062 12.3597C8.22615 12.564 9.0677 14.3141 9.86587 13.4346C10.317 12.9371 9.80514 12.2708 9.31062 12.3597Z" fill="url(#paint1_linear_6252_23388)"/>
<path d="M24.4151 5.04815C27.6338 4.59506 28.51 7.42017 28.2498 10.1387C27.8854 13.9055 22.1854 13.9232 21.769 10.2097C21.5347 8.10423 21.9338 5.39462 24.4238 5.04815H24.4151ZM24.8228 6.38074C23.1571 6.55842 22.9315 8.24638 23.053 9.65005C23.2786 12.3152 26.6621 12.2797 26.9397 9.80107C27.1132 8.2908 26.7489 6.16753 24.8228 6.38074Z" fill="url(#paint2_linear_6252_23388)"/>
<path d="M31.3123 32.3131C33.4205 32.3131 35.5547 32.2242 37.6456 32.3575L40.1876 34.9072C41.8013 34.765 43.0679 36.2131 42.3652 37.8034C41.4629 39.8555 38.2442 38.9938 38.6606 36.5063C38.704 36.2664 39.0511 35.7156 39.0424 35.6712C39.0077 35.4758 37.3593 34.0277 37.1511 33.699C35.2337 33.5035 33.2557 33.699 31.321 33.6012C30.6963 33.4591 30.6963 32.473 31.321 32.3042L31.3123 32.3131ZM40.4826 36.2931C39.3981 36.4974 40.2396 38.2476 41.0378 37.368C41.4889 36.8705 40.9771 36.2042 40.4826 36.2931Z" fill="url(#paint3_linear_6252_23388)"/>
<path d="M42.1049 10.3696C43.7793 10.0765 45.02 11.6845 44.2825 13.2658C43.5451 14.8472 41.2894 14.634 40.6647 13.0526L34.4529 13.0171C33.9584 13.2214 33.2383 14.4563 32.7438 14.474C32.1452 14.4918 31.8502 13.8877 32.1278 13.3902C32.2059 13.2569 33.7241 11.7644 33.8283 11.7289L40.5259 11.6934C40.7255 11.6578 40.9424 11.107 41.1419 10.9116C41.3501 10.6984 41.7926 10.4318 42.0876 10.3785L42.1049 10.3696ZM42.4346 11.6934C41.3501 11.8977 42.1917 13.6478 42.9898 12.7683C43.441 12.2708 42.9291 11.6045 42.4346 11.6934Z" fill="url(#paint4_linear_6252_23388)"/>
<path d="M12.4773 24.3353C13.2841 24.1487 14.6549 24.4241 15.5311 24.3353C16.095 24.6373 16.043 25.5346 15.3836 25.6412C14.8024 25.7389 13.2581 25.4991 12.8677 25.7211L10.638 28.0132C11.7138 28.9371 11.6184 30.785 10.317 31.4247C7.97456 32.5707 6.19603 29.1504 8.58186 27.8178C8.7814 27.7023 9.02432 27.6934 9.22386 27.5601C10.1522 26.9471 11.228 25.2503 12.1823 24.5218C12.2864 24.4419 12.3471 24.3619 12.4859 24.3353H12.4773ZM9.31062 28.9816C8.22615 29.1859 9.0677 30.936 9.86587 30.0565C10.317 29.559 9.80514 28.8927 9.31062 28.9816Z" fill="url(#paint5_linear_6252_23388)"/>
<path d="M37.1511 15.6911H43.9442C44.6643 15.7978 44.6903 16.9083 43.8661 17.006C41.8186 17.2458 39.3113 16.8283 37.2118 17.006C36.5264 16.8994 36.483 15.8955 37.1424 15.7L37.1511 15.6911Z" fill="url(#paint6_linear_6252_23388)"/>
<path d="M5.97914 16.3486H12.7722C13.4923 16.4552 13.5184 17.5657 12.6942 17.6634C10.6467 17.9033 8.1394 17.4857 6.03987 17.6634C5.35448 17.5568 5.3111 16.5529 5.97046 16.3574L5.97914 16.3486Z" fill="url(#paint7_linear_6252_23388)"/>
<path d="M37.1511 18.3475H43.9442C44.6643 18.4541 44.6903 19.5646 43.8661 19.6623C41.8186 19.9022 39.3113 19.4846 37.2118 19.6623C36.5264 19.5557 36.483 18.5518 37.1424 18.3563L37.1511 18.3475Z" fill="url(#paint8_linear_6252_23388)"/>
<path d="M5.97914 19.0138H12.7722C13.4923 19.1204 13.5184 20.2309 12.6942 20.3286C10.6467 20.5684 8.1394 20.1509 6.03987 20.3286C5.35448 20.222 5.3111 19.2181 5.97046 19.0226L5.97914 19.0138Z" fill="url(#paint9_linear_6252_23388)"/>
<path d="M5.97914 32.9794H12.7722C13.4923 33.086 13.5184 34.1965 12.6942 34.2942C10.6467 34.5341 8.1394 34.1165 6.03987 34.2942C5.35448 34.1876 5.3111 33.1837 5.97046 32.9882L5.97914 32.9794Z" fill="url(#paint10_linear_6252_23388)"/>
<path d="M5.97914 35.6357H12.7722C13.4923 35.7423 13.5184 36.8528 12.6942 36.9505C10.6467 37.1904 8.1394 36.7728 6.03987 36.9505C5.35448 36.8439 5.3111 35.84 5.97046 35.6446L5.97914 35.6357Z" fill="url(#paint11_linear_6252_23388)"/>
<path d="M37.1511 40.2909H43.9442C44.6643 40.3975 44.6903 41.508 43.8661 41.6057C41.8186 41.8456 39.3113 41.428 37.2118 41.6057C36.5264 41.4991 36.483 40.4952 37.1424 40.2998L37.1511 40.2909Z" fill="url(#paint12_linear_6252_23388)"/>
<path d="M37.1511 42.9561H43.9442C44.6643 43.0627 44.6903 44.1732 43.8661 44.2709C41.8186 44.5108 39.3113 44.0932 37.2118 44.2709C36.5264 44.1643 36.483 43.1604 37.1424 42.9649L37.1511 42.9561Z" fill="url(#paint13_linear_6252_23388)"/>
<defs>
<linearGradient id="paint0_linear_6252_23388" x1="37.3459" y1="33.6397" x2="37.3459" y2="41.6506" gradientUnits="userSpaceOnUse">
<stop stop-color="#ED3040"/>
<stop offset="1" stop-color="#2D23F4"/>
</linearGradient>
<linearGradient id="paint1_linear_6252_23388" x1="37.3459" y1="33.6397" x2="37.3459" y2="41.6506" gradientUnits="userSpaceOnUse">
<stop stop-color="#ED3040"/>
<stop offset="1" stop-color="#2D23F4"/>
</linearGradient>
<linearGradient id="paint2_linear_6252_23388" x1="37.3459" y1="33.6397" x2="37.3459" y2="41.6506" gradientUnits="userSpaceOnUse">
<stop stop-color="#ED3040"/>
<stop offset="1" stop-color="#2D23F4"/>
</linearGradient>
<linearGradient id="paint3_linear_6252_23388" x1="37.3459" y1="33.6397" x2="37.3459" y2="41.6506" gradientUnits="userSpaceOnUse">
<stop stop-color="#ED3040"/>
<stop offset="1" stop-color="#2D23F4"/>
</linearGradient>
<linearGradient id="paint4_linear_6252_23388" x1="37.3459" y1="33.6397" x2="37.3459" y2="41.6506" gradientUnits="userSpaceOnUse">
<stop stop-color="#ED3040"/>
<stop offset="1" stop-color="#2D23F4"/>
</linearGradient>
<linearGradient id="paint5_linear_6252_23388" x1="37.3459" y1="33.6397" x2="37.3459" y2="41.6506" gradientUnits="userSpaceOnUse">
<stop stop-color="#ED3040"/>
<stop offset="1" stop-color="#2D23F4"/>
</linearGradient>
<linearGradient id="paint6_linear_6252_23388" x1="37.3459" y1="33.6397" x2="37.3459" y2="41.6506" gradientUnits="userSpaceOnUse">
<stop stop-color="#ED3040"/>
<stop offset="1" stop-color="#2D23F4"/>
</linearGradient>
<linearGradient id="paint7_linear_6252_23388" x1="37.3459" y1="33.6397" x2="37.3459" y2="41.6506" gradientUnits="userSpaceOnUse">
<stop stop-color="#ED3040"/>
<stop offset="1" stop-color="#2D23F4"/>
</linearGradient>
<linearGradient id="paint8_linear_6252_23388" x1="37.3459" y1="33.6397" x2="37.3459" y2="41.6506" gradientUnits="userSpaceOnUse">
<stop stop-color="#ED3040"/>
<stop offset="1" stop-color="#2D23F4"/>
</linearGradient>
<linearGradient id="paint9_linear_6252_23388" x1="37.3459" y1="33.6397" x2="37.3459" y2="41.6506" gradientUnits="userSpaceOnUse">
<stop stop-color="#ED3040"/>
<stop offset="1" stop-color="#2D23F4"/>
</linearGradient>
<linearGradient id="paint10_linear_6252_23388" x1="37.3459" y1="33.6397" x2="37.3459" y2="41.6506" gradientUnits="userSpaceOnUse">
<stop stop-color="#ED3040"/>
<stop offset="1" stop-color="#2D23F4"/>
</linearGradient>
<linearGradient id="paint11_linear_6252_23388" x1="37.3459" y1="33.6397" x2="37.3459" y2="41.6506" gradientUnits="userSpaceOnUse">
<stop stop-color="#ED3040"/>
<stop offset="1" stop-color="#2D23F4"/>
</linearGradient>
<linearGradient id="paint12_linear_6252_23388" x1="37.3459" y1="33.6397" x2="37.3459" y2="41.6506" gradientUnits="userSpaceOnUse">
<stop stop-color="#ED3040"/>
<stop offset="1" stop-color="#2D23F4"/>
</linearGradient>
<linearGradient id="paint13_linear_6252_23388" x1="37.3459" y1="33.6397" x2="37.3459" y2="41.6506" gradientUnits="userSpaceOnUse">
<stop stop-color="#ED3040"/>
<stop offset="1" stop-color="#2D23F4"/>
</linearGradient>
</defs>
</svg>
