<svg width="50" height="50" viewBox="0 0 50 50" fill="none" xmlns="http://www.w3.org/2000/svg">
<path d="M40.0001 5H9.99995C8.67456 5.00165 7.40348 5.52889 6.46639 6.46639C5.52894 7.40344 5.00169 8.67456 5 9.99995V40C5.00165 41.3258 5.5289 42.5965 6.46639 43.534C7.40344 44.4711 8.67456 44.9987 9.99995 45H40.0001C41.3258 44.9988 42.5965 44.4711 43.534 43.534C44.4711 42.5966 44.9987 41.3259 45 40V9.99995C44.9988 8.67456 44.4711 7.40348 43.534 6.46639C42.5966 5.52894 41.3259 5.00169 40.0001 5ZM43.0002 9.99984V24H25.9999V6.99972H40.0001C40.7953 7.00097 41.5578 7.31731 42.1206 7.8797C42.683 8.44209 42.9993 9.20471 43.0002 9.99984ZM9.99995 6.99972H24.0001V24H6.99983V9.99984C7.00107 9.20464 7.31742 8.44209 7.87981 7.87975C8.44219 7.31741 9.20482 7.00096 9.99995 6.99972ZM6.99983 39.9999V25.9998H24.0001V43.0001H9.99995C9.20475 42.9992 8.4422 42.6829 7.87986 42.1205C7.31747 41.5577 7.00107 40.7951 6.99983 39.9999ZM40.0001 43.0001H25.9999V25.9998H43.0002V39.9999C42.9993 40.7951 42.683 41.5577 42.1206 42.1205C41.5578 42.6828 40.7952 42.9992 40.0001 43.0001Z" fill="url(#paint0_linear_6252_23412)"/>
<path d="M11.9997 16.5008H14.4998V19.0005C14.4998 19.5526 14.9477 20.0004 15.5001 20.0004C16.0522 20.0004 16.5 19.5526 16.5 19.0005V16.5008H18.9997C19.5518 16.5008 19.9996 16.053 19.9996 15.5009C19.9996 14.9484 19.5518 14.5006 18.9997 14.5006H16.5V12.0005C16.5 11.448 16.0522 11.0006 15.5001 11.0006C14.9476 11.0006 14.4998 11.448 14.4998 12.0005V14.5006H11.9997C11.4472 14.5006 10.9998 14.9484 10.9998 15.5009C10.9998 16.053 11.4472 16.5008 11.9997 16.5008Z" fill="url(#paint1_linear_6252_23412)"/>
<path d="M16.9138 35.0001L18.682 33.2327H18.6816C19.0723 32.842 19.0719 32.2085 18.6811 31.8181C18.2904 31.4273 17.6568 31.4278 17.2661 31.8185L15.4999 33.5872L13.7313 31.819C13.5444 31.6283 13.2888 31.52 13.0217 31.5187C12.755 31.5175 12.4982 31.623 12.3096 31.8115C12.1206 32.0005 12.0152 32.2573 12.0168 32.524C12.018 32.7911 12.1264 33.0467 12.3174 33.2336L14.0856 35.001L12.3174 36.7683C12.1264 36.9552 12.018 37.2104 12.0168 37.4775C12.0152 37.7447 12.1206 38.001 12.3096 38.19C12.4981 38.379 12.7549 38.4844 13.0217 38.4832C13.2888 38.4816 13.5444 38.3736 13.7313 38.1826L15.4999 36.4135L17.2661 38.1822C17.6581 38.5655 18.2854 38.5622 18.6729 38.1743C19.0604 37.7868 19.0637 37.1595 18.6799 36.7679L16.9138 35.0001Z" fill="url(#paint2_linear_6252_23412)"/>
<path d="M30.9997 16.5008H37.9998C38.5523 16.5008 39.0001 16.053 39.0001 15.5009C39.0001 14.9484 38.5523 14.5006 37.9998 14.5006H30.9997C30.4477 14.5006 29.9998 14.9484 29.9998 15.5009C29.9998 16.053 30.4477 16.5008 30.9997 16.5008Z" fill="url(#paint3_linear_6252_23412)"/>
<path d="M37.9993 32H30.9992C30.4471 32 29.9993 32.4474 29.9993 32.9999C29.9993 33.5519 30.4471 33.9998 30.9992 33.9998H37.9993C38.5517 33.9998 38.9996 33.5519 38.9996 32.9999C38.9996 32.4474 38.5517 32 37.9993 32Z" fill="url(#paint4_linear_6252_23412)"/>
<path d="M37.9993 36.0005H30.9992C30.4471 36.0005 29.9993 36.4479 29.9993 37.0004C29.9993 37.5528 30.4471 38.0003 30.9992 38.0003H37.9993C38.5517 38.0003 38.9996 37.5528 38.9996 37.0004C38.9996 36.4479 38.5517 36.0005 37.9993 36.0005Z" fill="url(#paint5_linear_6252_23412)"/>
<defs>
<linearGradient id="paint0_linear_6252_23412" x1="37.6624" y1="33.6397" x2="37.6624" y2="41.6506" gradientUnits="userSpaceOnUse">
<stop stop-color="#ED3040"/>
<stop offset="1" stop-color="#2D23F4"/>
</linearGradient>
<linearGradient id="paint1_linear_6252_23412" x1="37.6624" y1="33.6397" x2="37.6624" y2="41.6506" gradientUnits="userSpaceOnUse">
<stop stop-color="#ED3040"/>
<stop offset="1" stop-color="#2D23F4"/>
</linearGradient>
<linearGradient id="paint2_linear_6252_23412" x1="37.6624" y1="33.6397" x2="37.6624" y2="41.6506" gradientUnits="userSpaceOnUse">
<stop stop-color="#ED3040"/>
<stop offset="1" stop-color="#2D23F4"/>
</linearGradient>
<linearGradient id="paint3_linear_6252_23412" x1="37.6624" y1="33.6397" x2="37.6624" y2="41.6506" gradientUnits="userSpaceOnUse">
<stop stop-color="#ED3040"/>
<stop offset="1" stop-color="#2D23F4"/>
</linearGradient>
<linearGradient id="paint4_linear_6252_23412" x1="37.6624" y1="33.6397" x2="37.6624" y2="41.6506" gradientUnits="userSpaceOnUse">
<stop stop-color="#ED3040"/>
<stop offset="1" stop-color="#2D23F4"/>
</linearGradient>
<linearGradient id="paint5_linear_6252_23412" x1="37.6624" y1="33.6397" x2="37.6624" y2="41.6506" gradientUnits="userSpaceOnUse">
<stop stop-color="#ED3040"/>
<stop offset="1" stop-color="#2D23F4"/>
</linearGradient>
</defs>
</svg>
