<svg width="50" height="50" viewBox="0 0 50 50" fill="none" xmlns="http://www.w3.org/2000/svg">
<path d="M26.8561 38.8861H7.17081C5.97397 38.8861 5 37.9218 5 36.7368V8.14907C5 6.96389 5.97405 6 7.17081 6H29.0535C30.2504 6 31.224 6.96389 31.224 8.14932V26.2652C31.224 26.6072 30.9442 26.8842 30.5989 26.8842C30.2539 26.8842 29.9738 26.6075 29.9738 26.2652L29.9741 8.14848C29.9741 7.64565 29.5613 7.23713 29.0535 7.23713H7.17077C6.66299 7.23713 6.25011 7.64566 6.25011 8.14848V36.7362C6.25011 37.239 6.66299 37.6475 7.17077 37.6475H26.856C27.201 37.6475 27.4811 37.9242 27.4811 38.2665C27.4811 38.6085 27.2014 38.8855 26.856 38.8855L26.8561 38.8861Z" fill="url(#paint0_linear_6252_23408)"/>
<path d="M25.3689 16.5024H10.8555C9.91768 16.5024 9.15486 15.7027 9.15486 14.7202V11.2039C9.15486 10.2169 9.91768 9.41443 10.8555 9.41443L25.3689 9.41411C26.3066 9.41411 27.0695 10.2168 27.0695 11.2036V14.7198C27.0698 15.703 26.3066 16.5024 25.3689 16.5024ZM10.8555 10.6518C10.607 10.6518 10.4047 10.8995 10.4047 11.2036V14.7199C10.4047 15.0204 10.607 15.2645 10.8555 15.2645L25.3689 15.2648C25.6173 15.2648 25.8196 15.0207 25.8196 14.7202V11.2039C25.8196 10.8998 25.6173 10.6521 25.3689 10.6521L10.8555 10.6518Z" fill="url(#paint1_linear_6252_23408)"/>
<path d="M11.7682 22.9303C10.5592 22.9303 9.57562 21.9567 9.57562 20.7595C9.57562 19.5623 10.5592 18.5886 11.7682 18.5886C12.9768 18.5886 13.9604 19.5623 13.9604 20.7595C13.9604 21.9567 12.9768 22.9303 11.7682 22.9303ZM11.7682 19.8262C11.2485 19.8262 10.8254 20.2452 10.8254 20.7595C10.8254 21.2737 11.2485 21.6927 11.7682 21.6927C12.2879 21.6927 12.7106 21.2737 12.7106 20.7595C12.7106 20.2449 12.2879 19.8262 11.7682 19.8262Z" fill="url(#paint2_linear_6252_23408)"/>
<path d="M24.4561 22.9303C23.2475 22.9303 22.2639 21.9567 22.2639 20.7595C22.2639 19.5623 23.2475 18.5886 24.4561 18.5886C25.6651 18.5886 26.6487 19.5623 26.6487 20.7595C26.6487 21.9567 25.6651 22.9303 24.4561 22.9303ZM24.4561 19.8262C23.9365 19.8262 23.5137 20.2452 23.5137 20.7595C23.5137 21.2737 23.9365 21.6927 24.4561 21.6927C24.9758 21.6927 25.3989 21.2737 25.3989 20.7595C25.3989 20.2449 24.9758 19.8262 24.4561 19.8262Z" fill="url(#paint3_linear_6252_23408)"/>
<path d="M18.1126 22.9303C16.9039 22.9303 15.9204 21.9567 15.9204 20.7595C15.9204 19.5623 16.9039 18.5886 18.1126 18.5886C19.3216 18.5886 20.3052 19.5623 20.3052 20.7595C20.3052 21.9567 19.3216 22.9303 18.1126 22.9303ZM18.1126 19.8262C17.5929 19.8262 17.1702 20.2452 17.1702 20.7595C17.1702 21.2737 17.5929 21.6927 18.1126 21.6927C18.6322 21.6927 19.0553 21.2737 19.0553 20.7595C19.0553 20.2449 18.6323 19.8262 18.1126 19.8262Z" fill="url(#paint4_linear_6252_23408)"/>
<path d="M11.7682 29.1394C10.5592 29.1394 9.57562 28.165 9.57562 26.9678C9.57562 25.7706 10.5592 24.797 11.7682 24.797C12.9768 24.797 13.9604 25.7706 13.9604 26.9678C13.9604 28.165 12.9768 29.1394 11.7682 29.1394ZM11.7682 26.0346C11.2485 26.0346 10.8254 26.4536 10.8254 26.9678C10.8254 27.4827 11.2485 27.9017 11.7682 27.9017C12.2879 27.9017 12.7106 27.4828 12.7106 26.9678C12.7106 26.4533 12.2879 26.0346 11.7682 26.0346Z" fill="url(#paint5_linear_6252_23408)"/>
<path d="M18.1126 29.1394C16.9039 29.1394 15.9204 28.165 15.9204 26.9678C15.9204 25.7706 16.9039 24.797 18.1126 24.797C19.3216 24.797 20.3052 25.7706 20.3052 26.9678C20.3052 28.165 19.3216 29.1394 18.1126 29.1394ZM18.1126 26.0346C17.5929 26.0346 17.1702 26.4536 17.1702 26.9678C17.1702 27.4827 17.5929 27.9017 18.1126 27.9017C18.6322 27.9017 19.0553 27.4828 19.0553 26.9678C19.0553 26.4533 18.6323 26.0346 18.1126 26.0346Z" fill="url(#paint6_linear_6252_23408)"/>
<path d="M11.7682 35.4729C10.5592 35.4729 9.57562 34.4992 9.57562 33.302C9.57562 32.1048 10.5592 31.1312 11.7682 31.1312C12.9768 31.1312 13.9604 32.1048 13.9604 33.302C13.9604 34.4992 12.9768 35.4729 11.7682 35.4729ZM11.7682 32.3688C11.2485 32.3688 10.8254 32.7878 10.8254 33.302C10.8254 33.8163 11.2485 34.2353 11.7682 34.2353C12.2879 34.2353 12.7106 33.8163 12.7106 33.302C12.7106 32.7878 12.2879 32.3688 11.7682 32.3688Z" fill="url(#paint7_linear_6252_23408)"/>
<path d="M18.1126 35.4729C16.9039 35.4729 15.9204 34.4992 15.9204 33.302C15.9204 32.1048 16.9039 31.1312 18.1126 31.1312C19.3216 31.1312 20.3052 32.1048 20.3052 33.302C20.3052 34.4992 19.3216 35.4729 18.1126 35.4729ZM18.1126 32.3688C17.5929 32.3688 17.1702 32.7878 17.1702 33.302C17.1702 33.8163 17.5929 34.2353 18.1126 34.2353C18.6322 34.2353 19.0553 33.8163 19.0553 33.302C19.0553 32.7878 18.6323 32.3688 18.1126 32.3688Z" fill="url(#paint8_linear_6252_23408)"/>
<path d="M35.5523 44H32.8407C32.5428 44 32.2864 43.7921 32.2278 43.5027L31.8169 41.4767C31.1961 41.3031 30.5993 41.0584 30.0345 40.7454L28.303 41.8927C28.0552 42.0572 27.7243 42.0252 27.5134 41.816L25.598 39.9196C25.3874 39.711 25.3545 39.3847 25.5195 39.1394L26.6761 37.4187C26.3644 36.85 26.1206 36.26 25.9482 35.657L23.8997 35.2436C23.6084 35.1849 23.3991 34.9316 23.3991 34.6373V31.96C23.3991 31.665 23.6094 31.4112 23.901 31.3531L25.9486 30.9462C26.1232 30.3357 26.3664 29.7457 26.6751 29.1851L25.5192 27.4652C25.3541 27.2198 25.3871 26.8922 25.5986 26.6837L27.5141 24.7944C27.724 24.5882 28.0528 24.5552 28.3006 24.7177L30.0395 25.8601C30.6033 25.5472 31.198 25.3021 31.8165 25.1282L32.2274 23.1015C32.2861 22.8121 32.5424 22.6042 32.8403 22.6042H35.5519C35.8498 22.6042 36.1062 22.8121 36.1648 23.1015L36.5754 25.1285C37.1939 25.3021 37.7887 25.5469 38.3524 25.8598L40.0916 24.7174C40.3397 24.5549 40.6679 24.5882 40.8781 24.7947L42.7933 26.684C43.0048 26.8919 43.0378 27.2195 42.8727 27.4648L41.7171 29.1845C42.0304 29.7513 42.2759 30.3412 42.4502 30.9462L44.4982 31.3531C44.7898 31.4102 45 31.6641 45 31.959V34.6364C45 34.9307 44.7911 35.1839 44.4998 35.2426L42.4505 35.6561C42.2785 36.2538 42.0324 36.8438 41.7164 37.4178L42.8727 39.1384C43.0374 39.3838 43.0048 39.7101 42.7942 39.9186L40.8791 41.8157C40.6676 42.0249 40.337 42.0575 40.0886 41.8918L38.3643 40.7451C37.7998 41.0577 37.2008 41.3024 36.5753 41.4763L36.1648 43.5024C36.1064 43.7918 35.8501 44 35.5522 44L35.5523 44ZM33.3531 42.762H35.0406L35.4274 40.8515C35.4755 40.6124 35.6611 40.4241 35.9009 40.3699C36.6677 40.1963 37.392 39.9004 38.054 39.4892C38.2625 39.36 38.5298 39.3642 38.7341 39.5L40.3589 40.5801L41.5488 39.4021L40.462 37.7853C40.3282 37.5866 40.3223 37.3291 40.4465 37.1242C40.867 36.4308 41.1659 35.7116 41.3349 34.9876C41.3899 34.7513 41.579 34.5686 41.8189 34.5203L43.7499 34.1307V32.4662L41.8203 32.0831C41.5801 32.0355 41.3899 31.8528 41.3346 31.6165C41.1632 30.8876 40.8568 30.1492 40.4478 29.4812C40.322 29.2757 40.3276 29.0169 40.462 28.8175L41.5481 27.2013L40.3576 26.0269L38.7166 27.1047C38.512 27.2395 38.2474 27.2424 38.0395 27.1138C37.3761 26.7024 36.6562 26.4061 35.8996 26.2331C35.6604 26.178 35.4755 25.99 35.4271 25.7515L35.0402 23.841H33.3528L32.9656 25.7515C32.9175 25.9904 32.7323 26.1783 32.4931 26.2331C31.7365 26.4061 31.0165 26.702 30.3532 27.1138C30.1456 27.2427 29.8807 27.2388 29.6761 27.1047L28.0354 26.0269L26.8446 27.2013L27.9307 28.8175C28.0648 29.0169 28.0704 29.2757 27.9452 29.4806C27.5432 30.1381 27.239 30.8762 27.0653 31.6165C27.0097 31.8528 26.8195 32.0355 26.5796 32.0832L24.6497 32.4662V34.1307L26.581 34.5207C26.8212 34.5689 27.0103 34.7517 27.0657 34.9879C27.237 35.7234 27.5333 36.4426 27.9465 37.1245C28.0707 37.3295 28.0644 37.5869 27.931 37.7856L26.8446 39.4024L28.0351 40.581L29.6672 39.4997C29.8718 39.3643 30.1381 39.36 30.3466 39.4896C31.0109 39.9017 31.7329 40.198 32.4925 40.3702C32.7324 40.4247 32.9176 40.6127 32.966 40.8519L33.3531 42.762Z" fill="url(#paint9_linear_6252_23408)"/>
<path d="M34.2903 39.0715C31.0776 39.0715 28.4639 36.4837 28.4639 33.3022C28.4639 30.1207 31.0776 27.5322 34.2903 27.5322C37.5031 27.5319 40.1168 30.1204 40.1168 33.3019C40.1168 36.4833 37.5031 39.0715 34.2903 39.0715ZM34.2903 28.7693C31.7669 28.7693 29.7137 30.8025 29.7137 33.3017C29.7137 35.8002 31.7669 37.8334 34.2903 37.8334C36.8137 37.8334 38.867 35.8002 38.867 33.3017C38.867 30.8025 36.8137 28.7693 34.2903 28.7693Z" fill="url(#paint10_linear_6252_23408)"/>
<path d="M34.1933 36.6833C34.0727 36.6833 33.9653 36.6422 33.8826 36.5648C33.8219 36.5068 33.7508 36.4059 33.7508 36.2451V35.9706C33.3072 35.9223 32.8855 35.814 32.4937 35.6492C32.3978 35.6101 32.3164 35.5442 32.2538 35.4541C32.1899 35.364 32.1569 35.2626 32.1569 35.1542C32.1569 35.0188 32.2057 34.8948 32.2983 34.7953C32.4492 34.6335 32.699 34.591 32.9036 34.6824C33.1732 34.8008 33.4572 34.8788 33.7505 34.9157V33.7668C33.4961 33.6937 33.2803 33.617 33.0951 33.5341C32.8466 33.4229 32.637 33.2633 32.472 33.059C32.2953 32.842 32.2054 32.5683 32.2054 32.2456C32.2054 31.9669 32.2752 31.7065 32.4136 31.4703C32.552 31.2347 32.7583 31.0376 33.0262 30.8846C33.2358 30.7655 33.4786 30.6839 33.7508 30.6405V30.3651C33.7508 30.2473 33.793 30.1403 33.8727 30.0557C34.0408 29.8805 34.337 29.8792 34.511 30.0492C34.597 30.1344 34.6421 30.2437 34.6421 30.3654V30.6209C35.0293 30.6535 35.3835 30.7302 35.6973 30.848C35.9151 30.9254 36.0423 31.1048 36.0423 31.3394C36.0423 31.4677 35.9965 31.5884 35.9101 31.6889C35.776 31.8449 35.5921 31.9209 35.3299 31.8145C35.1193 31.7414 34.887 31.6905 34.6422 31.6647V32.8662C34.9087 32.9344 35.1384 33.0088 35.3272 33.0881C35.5813 33.1938 35.7974 33.354 35.9691 33.5638C36.151 33.7874 36.2433 34.0774 36.2433 34.4276C36.2433 34.7141 36.1639 34.9787 36.007 35.214L36.0063 35.2153C35.8511 35.4463 35.6307 35.631 35.3516 35.7654C35.1404 35.8669 34.9025 35.9351 34.6422 35.9697V36.2457C34.6422 36.3678 34.598 36.4761 34.5143 36.5583C34.4293 36.6399 34.3189 36.6833 34.1933 36.6833ZM32.4713 34.9519L32.6446 35.1095L32.6397 35.1904C33.0842 35.3934 33.5294 35.4962 34.0006 35.5265L34.1844 35.5379L34.394 35.5265C34.6797 35.5102 34.9331 35.4498 35.1466 35.347C35.3526 35.2479 35.5058 35.1209 35.6155 34.9571C35.722 34.7969 35.774 34.6236 35.774 34.4272C35.774 34.1831 35.7183 33.9958 35.604 33.8555C35.4801 33.7038 35.3298 33.5925 35.145 33.5158C34.9384 33.4293 34.6721 33.3478 34.3538 33.274L34.2197 33.2427V33.2463L33.9258 33.1696C33.594 33.0835 33.3455 32.9797 33.1666 32.8521C32.9504 32.6991 32.8364 32.4726 32.8364 32.1969C32.8364 31.9166 32.9534 31.6771 33.1745 31.5035C33.3738 31.3475 33.6361 31.2474 33.9541 31.2049L34.1732 31.1736L34.1891 31.1743L34.2197 31.17V31.1756L34.4168 31.1828C34.7983 31.1978 35.1621 31.2643 35.4973 31.3811L35.5734 31.3394C35.5734 31.2989 35.5691 31.296 35.5342 31.2833C35.2043 31.1593 34.8231 31.0881 34.3976 31.0705L34.1891 31.0614L34.0049 31.077C33.7136 31.1012 33.4631 31.172 33.2598 31.2868C33.0615 31.3997 32.9171 31.5358 32.8193 31.7032C32.7221 31.8693 32.6746 32.0471 32.6746 32.2452C32.6746 32.4622 32.728 32.6332 32.8377 32.7679C32.9583 32.9167 33.1056 33.029 33.2885 33.1106C33.4885 33.2 33.7432 33.2858 34.0461 33.3657L34.1736 33.3997V33.3895L34.4692 33.4688C34.8181 33.5631 35.0768 33.6623 35.2607 33.7729C35.4949 33.9139 35.6192 34.126 35.6192 34.3864C35.6192 34.7333 35.464 35.3268 34.4243 35.3999L34.1733 35.4175V35.4097L33.9746 35.4006C33.5356 35.3807 33.1113 35.2815 32.7125 35.1062L32.4713 34.9519ZM34.6418 34.006V34.9036C35.1502 34.7992 35.1502 34.5163 35.1502 34.3861C35.1502 34.2889 35.1116 34.2259 35.0171 34.1691C34.9251 34.114 34.7996 34.0591 34.6418 34.006ZM33.7508 31.7232C33.6378 31.7587 33.5422 31.8077 33.4651 31.8677C33.3557 31.9535 33.305 32.0579 33.305 32.1969C33.305 32.3232 33.3465 32.409 33.4391 32.475H33.4394C33.5172 32.5304 33.6213 32.5826 33.7508 32.6303V31.7232Z" fill="url(#paint11_linear_6252_23408)"/>
<defs>
<linearGradient id="paint0_linear_6252_23408" x1="0" y1="0" x2="0" y2="1" gradientUnits="objectBoundingBox">
<stop stop-color="#ED3040"/>
<stop offset="1" stop-color="#2D23F4"/>
</linearGradient>
<linearGradient id="paint1_linear_6252_23408" x1="0" y1="0" x2="0" y2="1" gradientUnits="objectBoundingBox">
<stop stop-color="#ED3040"/>
<stop offset="1" stop-color="#2D23F4"/>
</linearGradient>
<linearGradient id="paint2_linear_6252_23408" x1="0" y1="0" x2="0" y2="1" gradientUnits="objectBoundingBox">
<stop stop-color="#ED3040"/>
<stop offset="1" stop-color="#2D23F4"/>
</linearGradient>
<linearGradient id="paint3_linear_6252_23408" x1="0" y1="0" x2="0" y2="1" gradientUnits="objectBoundingBox">
<stop stop-color="#ED3040"/>
<stop offset="1" stop-color="#2D23F4"/>
</linearGradient>
<linearGradient id="paint4_linear_6252_23408" x1="0" y1="0" x2="0" y2="1" gradientUnits="objectBoundingBox">
<stop stop-color="#ED3040"/>
<stop offset="1" stop-color="#2D23F4"/>
</linearGradient>
<linearGradient id="paint5_linear_6252_23408" x1="0" y1="0" x2="0" y2="1" gradientUnits="objectBoundingBox">
<stop stop-color="#ED3040"/>
<stop offset="1" stop-color="#2D23F4"/>
</linearGradient>
<linearGradient id="paint6_linear_6252_23408" x1="0" y1="0" x2="0" y2="1" gradientUnits="objectBoundingBox">
<stop stop-color="#ED3040"/>
<stop offset="1" stop-color="#2D23F4"/>
</linearGradient>
<linearGradient id="paint7_linear_6252_23408" x1="0" y1="0" x2="0" y2="1" gradientUnits="objectBoundingBox">
<stop stop-color="#ED3040"/>
<stop offset="1" stop-color="#2D23F4"/>
</linearGradient>
<linearGradient id="paint8_linear_6252_23408" x1="0" y1="0" x2="0" y2="1" gradientUnits="objectBoundingBox">
<stop stop-color="#ED3040"/>
<stop offset="1" stop-color="#2D23F4"/>
</linearGradient>
<linearGradient id="paint9_linear_6252_23408" x1="0" y1="0" x2="0" y2="1" gradientUnits="objectBoundingBox">
<stop stop-color="#ED3040"/>
<stop offset="1" stop-color="#2D23F4"/>
</linearGradient>
<linearGradient id="paint10_linear_6252_23408" x1="0" y1="0" x2="0" y2="1" gradientUnits="objectBoundingBox">
<stop stop-color="#ED3040"/>
<stop offset="1" stop-color="#2D23F4"/>
</linearGradient>
<linearGradient id="paint11_linear_6252_23408" x1="0" y1="0" x2="0" y2="1" gradientUnits="objectBoundingBox">
<stop stop-color="#ED3040"/>
<stop offset="1" stop-color="#2D23F4"/>
</linearGradient>
</defs>
</svg>
