<svg width="50" height="50" viewBox="0 0 50 50" fill="none" xmlns="http://www.w3.org/2000/svg">
<path d="M46 9.51346V32.0635C45.7874 34.0508 43.3523 36.5738 41.2832 36.5738H32.0544V39.4734H34.9663C35.5395 39.4734 36.4589 39.9468 36.8557 40.3567C38.4951 42.0502 37.2831 44.797 34.9696 44.953L19.253 44.9143C18.5626 44.5646 18.7697 43.7168 19.5423 43.6598L35.1931 43.6425C36.8403 43.1734 36.6529 40.914 34.8885 40.7591L14.888 40.7817C13.586 41.0216 13.22 42.7398 14.3389 43.4564C15.1148 43.9535 17.1445 43.337 17.5401 43.9373C17.7779 44.2988 17.5872 44.8357 17.1477 44.9326C16.4464 45.0875 14.6008 44.967 13.9345 44.6582C11.3317 43.4543 12.3257 39.4723 15.0326 39.4723H17.9445V36.5727H8.71574C6.60938 36.5727 4.05808 33.9335 4 31.8602V9.71573C4.32987 7.14322 6.49431 5.19044 9.12233 5L40.9533 5.0043C43.3183 5.13664 45.6986 7.19379 46 9.51346ZM8.73656 6.31262C7.06857 6.64722 5.73703 7.792 5.36442 9.44568C5.1266 16.9792 5.16058 24.6096 5.34688 32.1485C5.75128 33.7441 7.00391 34.9491 8.65327 35.2655C19.5314 35.4333 30.4653 35.4333 41.3434 35.2655C43.0136 34.9513 44.2761 33.6979 44.6663 32.084C44.8274 24.5816 44.8581 17.0094 44.6498 9.51023C44.2915 7.77371 42.8185 6.52242 41.0388 6.29002L8.73547 6.31369L8.73656 6.31262ZM30.7415 36.5738H19.2563V39.4734H30.7415V36.5738Z" fill="url(#paint0_linear_6252_23396)"/>
<path d="M9.14753 8.24496L40.7823 8.23312C41.6755 8.32565 42.5873 9.06911 42.7122 9.96319C42.7703 10.3806 42.7802 11.6405 42.7243 12.0548C42.629 12.7606 41.5802 12.7595 41.4848 12.0548C41.3971 11.4114 41.7654 9.88573 40.9763 9.57479C30.4577 9.43061 19.9018 9.55865 9.37 9.51023C8.8056 9.4984 8.53053 10.0224 8.50971 10.5173V31.1404C8.50971 31.8505 9.12452 32.1496 9.78097 32.1475H40.2223C40.8777 32.1496 41.4936 31.8537 41.4936 31.1404L41.533 14.1055C41.8465 13.6504 42.3648 13.6504 42.6783 14.1055L42.7243 31.4621C42.6454 32.325 41.9714 33.0405 41.1473 33.2965C30.3788 33.374 19.5588 33.417 8.79574 33.275C8.01545 33.0157 7.41379 32.3519 7.28228 31.5396L7.27899 10.1138C7.38091 9.13689 8.17326 8.39128 9.14972 8.24496H9.14753Z" fill="url(#paint1_linear_6252_23396)"/>
<path d="M30.8007 29.2619L39.9724 29.2436C40.7122 29.2683 40.7056 30.4335 39.9724 30.4551H30.9454C30.2823 30.4776 30.2045 29.3974 30.8007 29.2629V29.2619Z" fill="url(#paint2_linear_6252_23396)"/>
<path d="M34.8216 27.0089C36.3691 27.1143 38.2968 26.798 39.7993 26.9971C40.7725 27.1262 40.7473 28.1817 39.8903 28.2806C38.3012 28.4635 36.3537 28.144 34.7252 28.2742C33.9295 28.0859 34.06 27.1434 34.8216 27.0089Z" fill="url(#paint3_linear_6252_23396)"/>
<path d="M12.5898 10.0105C12.8386 9.95996 13.2057 10.0977 13.3076 10.3204C13.3844 10.4872 13.3953 13.1813 13.3449 13.4954C13.2463 14.1141 12.2051 14.1614 12.1186 13.4212C12.0101 12.5002 12.1997 11.3856 12.1219 10.442C12.1569 10.2537 12.4068 10.0482 12.5898 10.0105Z" fill="url(#paint4_linear_6252_23396)"/>
<path d="M10.5032 13.8376C10.4111 13.7644 10.3278 13.5438 10.3114 13.4223C10.2643 13.0478 10.2621 11.8547 10.3202 11.491C10.4341 10.7734 11.4369 10.8487 11.5443 11.4081C11.6024 11.7126 11.5925 13.1726 11.541 13.4954C11.4654 13.9656 10.8298 14.0969 10.5032 13.8386V13.8376Z" fill="url(#paint5_linear_6252_23396)"/>
<path d="M36.6189 14.156C35.8912 14.8532 34.7208 15.0458 33.8035 14.6015C33.6008 14.5036 33.1273 14.0484 33.0813 14.0452C33.0101 14.0398 31.8396 14.6391 31.8221 14.7144C31.8046 14.7897 31.9109 15.0232 31.8977 15.19C31.8637 15.6257 31.6851 16.0884 31.467 16.466C31.3958 16.5887 31.2248 16.6866 31.1908 16.7597C31.1229 16.905 32.164 18.3758 32.2287 18.6856C33.969 18.2477 35.5208 19.9229 34.6945 21.568C34.4457 22.0629 33.8649 22.5288 33.3071 22.6213C33.0605 22.6622 32.3284 22.5794 32.2572 22.6321C32.1728 22.6934 31.2084 24.3073 31.1876 24.4084C31.1689 24.4999 31.6226 25.0497 31.7092 25.2767C32.7624 28.0386 28.8467 29.9031 27.3146 27.3371C27.228 27.1929 27.1458 26.8561 27.125 26.8389C27.0351 26.7614 25.1885 26.8809 24.8882 26.8249C24.6055 27.6297 23.7156 28.2505 22.8301 28.1999C22.5386 28.1838 21.9205 27.8858 21.8558 27.8912C21.7824 27.8965 20.727 28.6992 20.6898 28.7605C20.6459 28.8315 20.7993 29.0747 20.8103 29.2124C21.0021 31.6536 17.8579 32.3906 16.9023 30.3916C16.2611 29.051 17.2946 27.4468 18.8037 27.4715C19.1259 27.4769 19.8273 27.8137 19.939 27.7846C20.0015 27.7685 20.9067 27.0433 20.9418 26.9895C21.0251 26.8594 20.8618 26.0901 20.9199 25.7608C20.9692 25.4768 21.3835 24.885 21.378 24.7893C21.3725 24.6892 20.4574 23.1216 20.3654 23.0431C20.1834 22.8882 20.018 23.0517 19.7955 23.0485C18.6053 23.0312 17.7067 22.362 17.3231 21.2667H15.0447C14.4967 22.858 12.4068 23.1754 11.3996 21.781C10.3728 20.3598 11.6276 18.3973 13.3745 18.6351C14.1438 18.7405 14.7477 19.3193 15.0502 19.9864H17.3187C17.8426 18.6469 18.9703 18.1089 20.396 18.2789C20.4662 17.8486 21.3451 16.8695 21.3769 16.5478C21.3922 16.3907 21.1226 16.1163 21.0481 15.9324C20.1451 13.7009 23.1369 12.0505 24.5912 13.9032C24.7052 14.0484 24.7994 14.3594 24.8773 14.4272C24.9814 14.5186 27.0406 14.5713 27.1261 14.4982C27.1447 14.482 27.1973 14.1603 27.2653 14.0301C27.8538 12.9069 29.1568 12.4679 30.3558 12.9133C30.6517 13.0231 31.2204 13.5137 31.2752 13.518C31.3399 13.5234 32.4183 13.0177 32.4522 12.9628C32.5136 12.8671 32.4446 12.2667 32.4731 12.0569C32.6714 10.5506 34.449 9.68238 35.8595 10.2483C37.419 10.8745 37.8244 13.0016 36.6211 14.155L36.6189 14.156ZM35.7181 13.2706C36.9378 12.072 34.7778 10.428 33.9032 11.8514C33.1931 13.007 34.7789 14.1926 35.7181 13.2706ZM29.079 14.042C27.9875 14.2625 28.0105 16.0862 29.2456 16.2605C30.9815 16.5069 31.1076 13.631 29.079 14.042ZM23.4942 15.686C24.2394 14.9544 23.0076 13.7719 22.3292 14.6617C21.7396 15.4353 22.8268 16.3412 23.4942 15.686ZM27.1228 15.8043C27.0373 15.7301 24.9321 15.7333 24.8466 15.8076C24.8214 15.8291 24.8137 15.9991 24.7578 16.0787C24.3797 16.6242 23.9227 17.0481 23.2137 17.1428C23.0076 17.1707 22.5693 17.0997 22.4936 17.1546C22.418 17.2095 21.5073 18.7394 21.4854 18.8341C21.4394 19.0428 21.8065 19.4076 21.9205 19.6615C22.3391 20.5889 22.1276 21.5433 21.4821 22.2942C21.4174 22.5299 22.3818 23.8016 22.4684 24.1567C23.3112 24.1136 24.0487 24.2481 24.5879 24.9356C24.7107 25.0916 24.8225 25.4768 24.9704 25.5263C25.08 25.5629 27.0417 25.6005 27.1228 25.5317C27.1392 25.5177 27.1787 25.2261 27.2335 25.1174C27.594 24.402 28.3261 23.8619 29.1492 23.7769C29.3782 23.7532 30.0193 23.8532 30.084 23.8134C30.1782 23.7553 31.1744 22.0285 31.1941 21.922C31.2204 21.7843 30.8884 21.4002 30.8412 21.1312C30.7284 20.4803 30.8588 19.9348 31.2193 19.3936C30.8445 18.9837 30.5103 17.9605 30.1563 17.6162C29.9042 17.3698 29.3037 17.5258 28.9135 17.4677C28.1946 17.359 27.5403 16.7684 27.2203 16.1486C27.1721 16.055 27.1349 15.8162 27.1217 15.8043H27.1228ZM19.482 19.5184C18.225 19.7164 18.2524 21.5863 19.4689 21.7466C21.3495 21.9951 21.2169 19.2451 19.482 19.5184ZM13.6496 20.0919C13.0106 19.4646 11.8391 20.3124 12.4857 21.114C13.1937 21.993 14.3784 20.8073 13.6496 20.0919ZM33.4199 20.0919C32.6912 19.3764 31.4824 20.5394 32.3788 21.2345C33.1953 21.8682 34.0589 20.7191 33.4199 20.0919ZM29.0768 25.0733C27.833 25.3498 28.1036 27.5071 29.6127 27.294C31.0714 27.0874 30.8533 24.6785 29.0768 25.0733ZM22.8476 25.394C21.8657 25.5123 21.9413 27.1229 23.1501 26.9056C24.0192 26.7496 23.823 25.2767 22.8476 25.394ZM19.3133 28.9477C18.6557 28.3592 17.6113 29.1629 18.1067 29.9311C18.7653 30.9532 20.1023 29.6546 19.3133 28.9477Z" fill="url(#paint6_linear_6252_23396)"/>
<path d="M14.477 10.9789C14.9318 10.8831 15.2452 11.1273 15.3143 11.5717C15.3636 11.8848 15.368 13.1931 15.3022 13.4825C15.1762 14.0366 14.3553 14.1431 14.1 13.6504C13.9575 13.3749 13.9619 11.8633 14.0266 11.5061C14.0726 11.2543 14.2063 11.0359 14.477 10.9789Z" fill="url(#paint7_linear_6252_23396)"/>
<path d="M16.2798 11.7051C16.6129 11.6298 17.048 11.7524 17.1214 12.1322C17.1576 12.3184 17.1543 13.4007 17.1061 13.5632C16.9603 14.0549 16.0003 14.1388 15.8973 13.4943C15.8272 13.0586 15.7526 11.8234 16.2787 11.7051H16.2798Z" fill="url(#paint8_linear_6252_23396)"/>
<defs>
<linearGradient id="paint0_linear_6252_23396" x1="0" y1="0" x2="0" y2="1" gradientUnits="objectBoundingBox">
<stop stop-color="#ED3040"/>
<stop offset="1" stop-color="#2D23F4"/>
</linearGradient>
<linearGradient id="paint1_linear_6252_23396" x1="0" y1="0" x2="0" y2="1" gradientUnits="objectBoundingBox">
<stop stop-color="#ED3040"/>
<stop offset="1" stop-color="#2D23F4"/>
</linearGradient>
<linearGradient id="paint2_linear_6252_23396" x1="0" y1="0" x2="0" y2="1" gradientUnits="objectBoundingBox">
<stop stop-color="#ED3040"/>
<stop offset="1" stop-color="#2D23F4"/>
</linearGradient>
<linearGradient id="paint3_linear_6252_23396" x1="0" y1="0" x2="0" y2="1" gradientUnits="objectBoundingBox">
<stop stop-color="#ED3040"/>
<stop offset="1" stop-color="#2D23F4"/>
</linearGradient>
<linearGradient id="paint4_linear_6252_23396" x1="0" y1="0" x2="0" y2="1" gradientUnits="objectBoundingBox">
<stop stop-color="#ED3040"/>
<stop offset="1" stop-color="#2D23F4"/>
</linearGradient>
<linearGradient id="paint5_linear_6252_23396" x1="0" y1="0" x2="0" y2="1" gradientUnits="objectBoundingBox">
<stop stop-color="#ED3040"/>
<stop offset="1" stop-color="#2D23F4"/>
</linearGradient>
<linearGradient id="paint6_linear_6252_23396" x1="0" y1="0" x2="0" y2="1" gradientUnits="objectBoundingBox">
<stop stop-color="#ED3040"/>
<stop offset="1" stop-color="#2D23F4"/>
</linearGradient>
<linearGradient id="paint7_linear_6252_23396" x1="0" y1="0" x2="0" y2="1" gradientUnits="objectBoundingBox">
<stop stop-color="#ED3040"/>
<stop offset="1" stop-color="#2D23F4"/>
</linearGradient>
<linearGradient id="paint8_linear_6252_23396" x1="0" y1="0" x2="0" y2="1" gradientUnits="objectBoundingBox">
<stop stop-color="#ED3040"/>
<stop offset="1" stop-color="#2D23F4"/>
</linearGradient>
</defs>
</svg>
