<svg width="50" height="50" viewBox="0 0 50 50" fill="none" xmlns="http://www.w3.org/2000/svg">
<path d="M25 5.00016C19.6954 5.00016 14.6086 7.10725 10.8579 10.8581C7.10726 14.6089 5 19.6956 5 25.0001C5 30.3044 7.1071 35.3914 10.8579 39.1421C14.6088 42.8929 19.6955 45 25 45C30.3044 45 35.3914 42.8929 39.1421 39.1421C42.8929 35.3913 45 30.3045 45 25.0001C44.9941 19.6973 42.8851 14.6135 39.1356 10.8644C35.3859 7.11511 30.3027 5.00588 24.9998 5L25 5.00016ZM25 43.7509C20.0269 43.7509 15.2581 41.7753 11.7416 38.259C8.22523 34.7426 6.24962 29.9732 6.24962 25.0006C6.24962 20.0275 8.22523 15.2588 11.7416 11.7423C15.258 8.22594 20.0274 6.25033 25 6.25033C29.9728 6.25033 34.7419 8.22594 38.2584 11.7423C41.7748 15.2587 43.7504 20.0281 43.7504 25.0006C43.7448 29.9715 41.7673 34.7378 38.2522 38.2526C34.7371 41.7677 29.9712 43.7452 25.0002 43.7508L25 43.7509Z" fill="url(#paint0_linear_6252_23414)"/>
<path d="M34.1004 11.536C33.8144 11.3425 33.4258 11.4172 33.232 11.7029C33.0384 11.9888 33.1132 12.3774 33.3988 12.5713C36.5725 14.7225 38.7962 18.0124 39.6091 21.759C40.4223 25.5058 39.762 29.4217 37.7656 32.6942C35.7692 35.9675 32.5897 38.3465 28.8859 39.3384C25.1825 40.3302 21.2394 39.8588 17.8745 38.0219C14.5094 36.1849 11.9802 33.1232 10.8116 29.4717C9.6433 25.8204 9.92492 21.859 11.5984 18.4095C13.2716 14.9601 16.2084 12.287 19.8001 10.9447C23.3912 9.60208 27.3613 9.69354 30.887 11.1993C31.2046 11.3351 31.5718 11.1881 31.7076 10.8705C31.8435 10.5533 31.6965 10.1857 31.3789 10.0499C27.535 8.40521 23.205 8.30319 19.2876 9.7655C15.3705 11.2275 12.1665 14.1413 10.3404 17.9028C8.51433 21.6639 8.20604 25.9837 9.47947 29.9662C10.7532 33.9484 13.511 37.2877 17.1809 39.2913C20.8508 41.2948 25.1507 41.8087 29.1896 40.7266C33.2282 39.6442 36.6953 37.049 38.872 33.4786C41.0482 29.9086 41.7665 25.6376 40.878 21.5525C39.9897 17.4668 37.5626 13.88 34.1005 11.536L34.1004 11.536Z" fill="url(#paint1_linear_6252_23414)"/>
<path d="M34.3751 23.7503C34.0299 23.7503 33.7502 24.0301 33.7502 24.3752V25.1152C33.6894 25.1363 33.6298 25.1608 33.5722 25.1884L32.9423 24.5585H32.9419C32.6969 24.3216 32.3071 24.325 32.0658 24.566C31.8248 24.8073 31.8214 25.1971 32.0584 25.4421L32.6876 26.0723C32.66 26.1303 32.6355 26.1896 32.6144 26.2503H31.2501C30.9049 26.2503 30.6252 26.5301 30.6252 26.8753C30.6252 27.2205 30.9049 27.5005 31.2501 27.5005H32.615C32.6361 27.561 32.6606 27.6205 32.6882 27.6785L32.0583 28.3084C31.9377 28.425 31.8688 28.5851 31.8676 28.7526C31.866 28.9203 31.9321 29.0816 32.0506 29.2001C32.169 29.3186 32.3303 29.3846 32.4978 29.3831C32.6656 29.3815 32.8256 29.313 32.9419 29.1923L33.5721 28.5628C33.6298 28.5907 33.6893 28.6149 33.7501 28.6359V29.3753C33.7501 29.7205 34.0299 30.0006 34.3751 30.0006C34.7203 30.0006 35 29.7205 35 29.3753V28.6353C35.0608 28.6142 35.1203 28.59 35.1783 28.5621L35.8082 29.192V29.1923C36.0536 29.4293 36.4434 29.4259 36.6844 29.1846C36.9254 28.9436 36.9288 28.5538 36.6921 28.3085L36.0625 27.6786C36.0901 27.6206 36.1143 27.561 36.1351 27.5005H37.5C37.8452 27.5005 38.1253 27.2205 38.1253 26.8753C38.1253 26.5301 37.8452 26.2504 37.5 26.2504H36.1351C36.114 26.1896 36.0898 26.1303 36.0619 26.0723L37.3171 24.8172C37.554 24.5718 37.5506 24.1823 37.3093 23.941C37.0684 23.7 36.6785 23.6966 36.4332 23.9336L35.1783 25.1878C35.1203 25.1605 35.0608 25.1363 35 25.1152V24.3752C35 24.2096 34.9343 24.0505 34.817 23.9333C34.6998 23.816 34.541 23.7503 34.3751 23.7503ZM35 26.8753C35 27.128 34.8478 27.356 34.6142 27.4527C34.3807 27.5495 34.1121 27.4962 33.9332 27.3172C33.7545 27.1386 33.7009 26.8697 33.7976 26.6361C33.8944 26.4026 34.1223 26.2503 34.3751 26.2503C34.541 26.2503 34.6998 26.3161 34.8171 26.4333C34.9343 26.5505 35 26.7096 35 26.8753Z" fill="url(#paint2_linear_6252_23414)"/>
<path d="M22.4006 25.6328C22.4632 25.5977 22.5256 25.5608 22.5882 25.5233C22.7411 25.4213 22.9421 25.4275 23.0882 25.5391L23.1657 25.6018V25.6015C23.6749 26.0214 24.3451 26.192 24.9934 26.0667C25.6416 25.9414 26.1998 25.5329 26.5159 24.9533C26.8127 24.4025 26.8558 23.75 26.6337 23.1648C26.3965 22.529 25.8947 22.0272 25.2589 21.7896C25.0908 21.7174 24.9869 21.5465 25.0003 21.3641V21.142V21.1423C24.9876 20.9572 25.0949 20.7848 25.2664 20.714C25.9022 20.4765 26.404 19.975 26.6415 19.3392C26.8633 18.754 26.8202 18.1011 26.5233 17.5504C26.2073 16.9707 25.6487 16.5623 25.0005 16.4372C24.3523 16.3119 23.6818 16.4825 23.1726 16.9027L23.0969 16.9654C22.9502 17.0783 22.748 17.0851 22.5939 16.9828C22.5312 16.9446 22.4689 16.9077 22.4062 16.8727C22.2397 16.7905 22.1448 16.6106 22.1715 16.4267C22.2831 15.7562 22.0983 15.0701 21.665 14.5466C21.2689 14.0594 20.6806 13.7691 20.0532 13.7508C19.3935 13.7353 18.7612 14.0147 18.3284 14.5131C17.8961 15.0115 17.7085 15.6768 17.8167 16.3277L17.8328 16.4257L17.8331 16.426C17.8583 16.6084 17.7643 16.7864 17.5993 16.8683C17.5367 16.9033 17.4743 16.9403 17.4117 16.9778H17.412C17.2569 17.0817 17.0528 17.0742 16.9055 16.9598C16.3808 16.5278 15.6944 16.3454 15.0242 16.4595C14.4067 16.5603 13.8631 16.9241 13.5343 17.4567C13.1906 18.0199 13.1162 18.7068 13.3314 19.3308C13.5467 19.9545 14.029 20.4495 14.6467 20.6809L14.7373 20.7153C14.9079 20.7848 15.0149 20.9553 15.0037 21.1389L15 21.2509V21.3598C15.0124 21.5449 14.9054 21.7173 14.7336 21.7877C14.0978 22.0253 13.5963 22.5271 13.3587 23.1629C13.137 23.7481 13.1798 24.4007 13.4769 24.9514C13.7929 25.5314 14.3512 25.9395 14.9997 26.0648C15.6479 26.1901 16.3181 26.0192 16.8274 25.599L16.9031 25.5363V25.5366C17.0498 25.4237 17.252 25.4169 17.4061 25.519C17.4688 25.5571 17.5311 25.594 17.5938 25.6291C17.7603 25.7112 17.8552 25.8914 17.8289 26.0753C17.7169 26.7459 17.9017 27.4316 18.335 27.9554C18.7311 28.4424 19.3194 28.7327 19.9468 28.751H20.0002C20.6509 28.751 21.2684 28.4644 21.6889 27.9679C22.1095 27.4717 22.2903 26.8154 22.1833 26.1734L22.1672 26.0754C22.1417 25.893 22.236 25.7147 22.4007 25.6328L22.4006 25.6328ZM21.9406 24.4552C21.8957 24.4828 21.8494 24.5095 21.8008 24.5358C21.4934 24.7014 21.2453 24.9582 21.0899 25.2705C20.9345 25.5832 20.8799 25.9361 20.9336 26.281L20.9503 26.3796H20.9507C20.9975 26.6628 20.9159 26.9522 20.728 27.1689C20.5363 27.3808 20.2637 27.5014 19.978 27.5011C19.7144 27.4924 19.4679 27.3684 19.3038 27.1615C19.1028 26.9153 19.0172 26.5946 19.0681 26.281C19.1217 25.9361 19.0668 25.5835 18.9118 25.2712C18.7564 24.9585 18.5083 24.7021 18.2012 24.5364C18.1538 24.5101 18.107 24.4834 18.0601 24.4546H18.0598C17.7894 24.2905 17.4789 24.2043 17.1626 24.2046C16.7792 24.2037 16.4077 24.3364 16.1118 24.5796L16.0355 24.6422C15.8138 24.8252 15.5219 24.8993 15.24 24.8447C14.9578 24.7902 14.7146 24.6121 14.5775 24.3597C14.4528 24.1271 14.437 23.8514 14.5335 23.606C14.6461 23.3098 14.8796 23.0757 15.1755 22.9628C15.5024 22.8356 15.7812 22.6099 15.9738 22.3168C16.1664 22.0237 16.2628 21.6782 16.2498 21.3277V21.1696C16.2607 20.8207 16.163 20.477 15.9701 20.1861C15.7775 19.8949 15.499 19.6709 15.1737 19.5447L15.0831 19.5103C14.8139 19.4092 14.6039 19.1936 14.5103 18.922C14.4166 18.6503 14.4489 18.351 14.5987 18.106C14.7379 17.8818 14.9683 17.7304 15.2292 17.6913C15.5433 17.6408 15.864 17.7267 16.1106 17.9277C16.3829 18.1469 16.7167 18.2763 17.0655 18.2977C17.4148 18.3191 17.7615 18.2316 18.0586 18.0471C18.1036 18.0195 18.1498 17.9928 18.1985 17.9665H18.1988C18.5058 17.8008 18.7543 17.5444 18.9093 17.2317C19.0647 16.9191 19.1193 16.5662 19.0657 16.2216L19.0489 16.123V16.1226C19.0018 15.8395 19.0833 15.5501 19.2713 15.3333C19.4623 15.1206 19.7353 14.9996 20.0212 15.0015C20.2851 15.0102 20.5317 15.1342 20.6958 15.3408C20.8964 15.587 20.9823 15.9077 20.9312 16.2216C20.8778 16.5662 20.9324 16.9191 21.0878 17.2314C21.2428 17.5437 21.491 17.8002 21.7983 17.9658C21.8458 17.9922 21.8926 18.0189 21.9394 18.0477C22.2365 18.2319 22.5836 18.3194 22.9328 18.2977C23.2817 18.276 23.6155 18.1466 23.8874 17.9271L23.9637 17.8644V17.8647C24.1855 17.6817 24.4773 17.6073 24.7595 17.6622C25.0417 17.7168 25.2846 17.8945 25.422 18.1473C25.5454 18.3786 25.5615 18.6528 25.4657 18.8972C25.3534 19.1937 25.1199 19.4278 24.8237 19.5407C24.4974 19.6679 24.2189 19.8937 24.0263 20.1861C23.834 20.4789 23.7373 20.8241 23.75 21.1739V21.3321C23.7394 21.681 23.8371 22.0249 24.03 22.3159C24.2229 22.6071 24.5015 22.831 24.8268 22.9572C25.123 23.0701 25.3565 23.304 25.4688 23.6002C25.5655 23.8458 25.5494 24.1215 25.425 24.3541C25.2876 24.6063 25.0448 24.784 24.7629 24.8389C24.481 24.8934 24.1894 24.8196 23.9673 24.6373L23.8892 24.5746H23.8895C23.6169 24.3553 23.2832 24.226 22.934 24.2046C22.5847 24.1832 22.2378 24.2707 21.9406 24.4552Z" fill="url(#paint3_linear_6252_23414)"/>
<path d="M19.9996 18.7507C19.3365 18.7507 18.7005 19.0144 18.2318 19.483C17.7629 19.9519 17.4995 20.5877 17.4995 21.2508C17.4995 21.9139 17.7628 22.5497 18.2318 23.0187C18.7004 23.4876 19.3365 23.7509 19.9996 23.7509C20.6627 23.7509 21.2985 23.4876 21.7675 23.0187C22.2361 22.5497 22.4997 21.9139 22.4997 21.2508C22.4997 20.5877 22.2361 19.952 21.7675 19.483C21.2985 19.0144 20.6627 18.7507 19.9996 18.7507ZM19.9996 22.5009C19.6681 22.5009 19.3502 22.3691 19.1157 22.1346C18.8812 21.9002 18.7494 21.5823 18.7494 21.2507C18.7494 20.9192 18.8812 20.6013 19.1157 20.3668C19.3502 20.1324 19.6681 20.0008 19.9996 20.0008C20.3312 20.0008 20.6491 20.1323 20.8835 20.3668C21.118 20.6013 21.2495 20.9192 21.2495 21.2507C21.2495 21.5823 21.118 21.9002 20.8835 22.1346C20.6491 22.3691 20.3312 22.5009 19.9996 22.5009Z" fill="url(#paint4_linear_6252_23414)"/>
<path d="M29.5446 32.1448C29.2246 31.6954 28.7231 31.4101 28.1732 31.3642C27.6237 31.3186 27.0815 31.5171 26.6917 31.9073L26.6442 31.9547C26.4262 32.1724 26.0733 32.1724 25.8552 31.9547C25.5395 31.6309 25.1199 31.4281 24.6699 31.3825C24.2198 31.3369 23.768 31.4511 23.3933 31.7048C22.9442 32.0248 22.6586 32.5267 22.613 33.0762C22.5671 33.626 22.7659 34.1679 23.1561 34.558L23.2035 34.6055C23.4209 34.8232 23.4209 35.1761 23.2035 35.3941C22.8794 35.7099 22.6769 36.1295 22.6313 36.5798C22.5854 37.0299 22.6995 37.4817 22.9535 37.8561C23.2736 38.3055 23.7751 38.5908 24.325 38.6367C24.8745 38.6823 25.4167 38.4838 25.8065 38.0936L25.8539 38.0462C26.072 37.8285 26.4249 37.8285 26.6429 38.0462L26.6904 38.0936C27.0418 38.4456 27.5188 38.6432 28.0159 38.6429C28.0665 38.6429 28.117 38.6429 28.1679 38.6367C28.7187 38.5914 29.2215 38.3058 29.5427 37.8561C29.7967 37.4817 29.9109 37.0299 29.865 36.5799C29.8194 36.1295 29.6168 35.7099 29.2927 35.3942C29.0753 35.1761 29.0753 34.8232 29.2927 34.6055C29.6168 34.2901 29.8194 33.8707 29.8656 33.4207C29.9115 32.971 29.798 32.5192 29.5446 32.1448ZM28.4123 36.2793C28.6477 36.498 28.697 36.8518 28.5305 37.1266C28.4238 37.2795 28.2541 37.3766 28.0683 37.3918C27.8854 37.4079 27.7046 37.3419 27.5752 37.211L27.5278 37.1635C27.1888 36.8245 26.7291 36.6341 26.2497 36.6341C25.7702 36.6341 25.3106 36.8245 24.9715 37.1635L24.9241 37.211C24.7951 37.3422 24.6139 37.4082 24.431 37.3918C24.2452 37.3769 24.0758 37.2798 23.9688 37.1272C23.8026 36.8525 23.8519 36.4983 24.087 36.2793C24.4248 35.9397 24.6146 35.4801 24.6146 35.0009C24.6146 34.522 24.4248 34.0624 24.087 33.7227L24.0396 33.6753C23.9087 33.5447 23.8423 33.3627 23.8584 33.1781C23.8746 32.9939 23.9716 32.8261 24.1233 32.7204C24.3984 32.5538 24.7526 32.6031 24.9716 32.8385C25.3158 33.1673 25.7736 33.3506 26.2497 33.3506C26.7258 33.3506 27.1835 33.1673 27.5278 32.8385L27.5753 32.7911C27.7061 32.6599 27.8882 32.5935 28.0724 32.6096C28.257 32.6258 28.4244 32.7229 28.5305 32.8748C28.6967 33.1496 28.6474 33.5038 28.4123 33.7228C28.0733 34.0617 27.8829 34.5216 27.8829 35.0009C27.8829 35.4804 28.0733 35.9403 28.4123 36.2793Z" fill="url(#paint5_linear_6252_23414)"/>
<path d="M32.4998 15.0009C32.0026 15.0009 31.5256 15.1984 31.1743 15.5501C30.8226 15.9015 30.625 16.3786 30.625 16.876C30.625 17.3731 30.8226 17.8502 31.1743 18.2015C31.5256 18.5532 32.0027 18.7507 32.4998 18.7507C32.9972 18.7507 33.4742 18.5532 33.8256 18.2015C34.1773 17.8501 34.3749 17.3731 34.3749 16.876C34.3749 16.3785 34.1773 15.9015 33.8256 15.5501C33.4742 15.1984 32.9972 15.0009 32.4998 15.0009ZM32.4998 17.5009C32.247 17.5009 32.0194 17.3486 31.9226 17.1151C31.8258 16.8815 31.8792 16.6127 32.0578 16.434C32.2368 16.2551 32.5057 16.2017 32.7392 16.2985C32.9727 16.3952 33.125 16.6229 33.125 16.876C33.125 17.0416 33.059 17.2007 32.9417 17.3179C32.8248 17.4348 32.6657 17.5009 32.4998 17.5009Z" fill="url(#paint6_linear_6252_23414)"/>
<path d="M16.8746 34.3759C16.8746 34.8733 17.0718 35.3501 17.4235 35.7017C17.7752 36.0534 18.2523 36.251 18.7494 36.251C19.2468 36.251 19.7236 36.0534 20.0752 35.7017C20.4269 35.35 20.6245 34.8733 20.6245 34.3759C20.6245 33.8787 20.4269 33.4017 20.0752 33.05C19.7235 32.6983 19.2468 32.5008 18.7494 32.5008C18.2522 32.5008 17.7752 32.6983 17.4235 33.05C17.0718 33.4017 16.8746 33.8788 16.8746 34.3759ZM19.3743 34.3759C19.3743 34.6286 19.222 34.8566 18.9885 34.9533C18.755 35.0501 18.4864 34.9968 18.3074 34.8178C18.1288 34.6392 18.0751 34.3703 18.1719 34.1368C18.2687 33.9032 18.4966 33.7509 18.7494 33.7509C18.9153 33.7509 19.0741 33.8167 19.1913 33.9339C19.3086 34.0512 19.3743 34.2103 19.3743 34.3759Z" fill="url(#paint7_linear_6252_23414)"/>
<defs>
<linearGradient id="paint0_linear_6252_23414" x1="0" y1="0" x2="0" y2="1" gradientUnits="objectBoundingBox">
<stop stop-color="#ED3040"/>
<stop offset="1" stop-color="#2D23F4"/>
</linearGradient>
<linearGradient id="paint1_linear_6252_23414" x1="0" y1="0" x2="0" y2="1" gradientUnits="objectBoundingBox">
<stop stop-color="#ED3040"/>
<stop offset="1" stop-color="#2D23F4"/>
</linearGradient>
<linearGradient id="paint2_linear_6252_23414" x1="0" y1="0" x2="0" y2="1" gradientUnits="objectBoundingBox">
<stop stop-color="#ED3040"/>
<stop offset="1" stop-color="#2D23F4"/>
</linearGradient>
<linearGradient id="paint3_linear_6252_23414" x1="0" y1="0" x2="0" y2="1" gradientUnits="objectBoundingBox">
<stop stop-color="#ED3040"/>
<stop offset="1" stop-color="#2D23F4"/>
</linearGradient>
<linearGradient id="paint4_linear_6252_23414" x1="0" y1="0" x2="0" y2="1" gradientUnits="objectBoundingBox">
<stop stop-color="#ED3040"/>
<stop offset="1" stop-color="#2D23F4"/>
</linearGradient>
<linearGradient id="paint5_linear_6252_23414" x1="0" y1="0" x2="0" y2="1" gradientUnits="objectBoundingBox">
<stop stop-color="#ED3040"/>
<stop offset="1" stop-color="#2D23F4"/>
</linearGradient>
<linearGradient id="paint6_linear_6252_23414" x1="0" y1="0" x2="0" y2="1" gradientUnits="objectBoundingBox">
<stop stop-color="#ED3040"/>
<stop offset="1" stop-color="#2D23F4"/>
</linearGradient>
<linearGradient id="paint7_linear_6252_23414" x1="0" y1="0" x2="0" y2="1" gradientUnits="objectBoundingBox">
<stop stop-color="#ED3040"/>
<stop offset="1" stop-color="#2D23F4"/>
</linearGradient>
</defs>
</svg>
