<svg width="50" height="50" viewBox="0 0 50 50" fill="none" xmlns="http://www.w3.org/2000/svg">
<path d="M33.3876 32.4393V18.5487C33.3876 17.1647 33.0114 15.8074 32.2997 14.6216L31.3598 13.0552C31.2435 12.8618 31.0332 12.7424 30.8069 12.7424H28.2262C27.9999 12.7424 27.7895 12.8618 27.6733 13.0552L26.7333 14.6216C26.1244 15.6371 25.7777 16.7803 25.6855 17.9564C25.4617 17.9215 25.2325 17.9036 25.0004 17.9036V15.9681C25.0004 13.3371 24.6172 10.7248 23.861 8.20445L23.7797 7.93233C23.2531 6.17866 21.6693 5.00056 19.839 5.00056C18.0087 5.00056 16.4247 6.17866 15.899 7.93209L15.8177 8.2042C15.115 10.5453 14.7494 12.9675 14.6991 15.4079C13.5776 15.6896 12.7421 16.6974 12.7421 17.9037V24.6269C12.3396 24.4508 11.9007 24.3551 11.4519 24.3551C9.86075 24.3551 8.53501 25.5124 8.27315 27.0298C8.05033 26.968 7.81758 26.9357 7.58068 26.9357C6.15732 26.9357 5 28.093 5 29.5163C5 30.9396 6.15732 32.0969 7.58068 32.0969H12.7421V35.6652L9.10337 38.6975C8.95642 38.8207 8.87126 39.0019 8.87126 39.1937V41.7743C8.87126 42.1309 9.16035 42.4194 9.51636 42.4194H19.1939V44.3549C19.1939 44.7116 19.483 45 19.839 45H30.1616C30.5176 45 30.8066 44.7116 30.8066 44.3549V42.4194H40.4842C40.8402 42.4194 41.1293 42.1309 41.1293 41.7743V39.1937C41.1293 39.0019 41.0441 38.8207 40.8972 38.6975L33.3876 32.4393ZM16.6133 21.7745H14.0326V20.4843H16.6133V21.7745ZM17.4918 33.3875H20.4842V38.5488H11.2984L17.4918 33.3875ZM21.1293 32.097H20.4842V29.3487C20.4842 27.657 20.6805 25.9888 21.0631 24.3551H28.9387C29.0386 24.7822 29.1231 25.2131 29.1974 25.6453L25.0006 25.6456C24.6446 25.6456 24.3555 25.934 24.3555 26.2907V28.8713C24.3555 29.2279 24.6446 29.5163 25.0006 29.5163H29.5168V32.097H28.8717C28.5157 32.097 28.2266 32.3854 28.2266 32.742V39.8388H21.7744V32.742C21.7744 32.3854 21.4856 32.097 21.1293 32.097L21.1293 32.097ZM32.0969 32.097H30.8067V29.3487C30.8067 26.3803 30.2481 23.4783 29.1385 20.7057C29.1074 20.6282 29.0648 20.5594 29.0299 20.4845H32.097L32.0969 32.097ZM29.4861 28.2263H25.6454V26.9361H29.3789C29.426 27.3642 29.464 27.7941 29.4861 28.2263ZM29.5162 33.3876H32.5087L38.7015 38.5489H29.5166L29.5162 33.3876ZM27.8396 15.2853L28.591 14.0326H30.4408L31.1931 15.2857C31.4441 15.7044 31.6337 16.1519 31.7816 16.6132H27.2505C27.3988 16.1526 27.5886 15.704 27.8396 15.2853ZM26.9794 17.9034H32.0531C32.0752 18.1176 32.0969 18.3317 32.0969 18.5485V19.1935H28.1284C27.782 18.8504 27.3869 18.5606 26.9489 18.3484C26.9537 18.1996 26.964 18.051 26.9794 17.9034ZM27.9472 21.2021C28.1925 21.8155 28.4066 22.4368 28.5949 23.0647H21.406C21.5955 22.4318 21.8126 21.804 22.06 21.1842C22.5435 19.975 23.6976 19.1936 25.0003 19.1936C26.3027 19.1936 27.4571 19.9751 27.9472 21.2022L27.9472 21.2021ZM20.855 20.7235C19.7525 23.4789 19.1935 26.3806 19.1935 29.3484V32.0968H17.9033V17.9038C17.9033 16.7123 17.0873 15.7166 15.9879 15.4211C15.9975 14.9579 16.0078 14.4946 16.0427 14.0327H23.635C23.6836 14.6762 23.7099 15.3213 23.7099 15.9683V18.0946C22.4325 18.4781 21.3757 19.4219 20.8551 20.7239L20.855 20.7235ZM23.4931 12.7421H16.1844C16.2392 12.3099 16.3077 11.8809 16.3845 11.452H23.2943C23.3698 11.881 23.439 12.31 23.4931 12.7421ZM17.053 8.57454L17.1343 8.30242C17.4897 7.1176 18.6022 6.29067 19.8389 6.29067C21.0757 6.29067 22.1878 7.11792 22.5429 8.30242L22.6242 8.57454C22.7817 9.09892 22.9146 9.62938 23.0378 10.1614H16.6384C16.7626 9.62936 16.8955 9.09889 17.053 8.57454ZM15.3227 16.6132C16.0343 16.6132 16.6128 17.192 16.6128 17.9033V19.1935H14.0322V17.9033C14.0325 17.1917 14.611 16.6132 15.3227 16.6132ZM7.58054 30.8062C6.86886 30.8062 6.29037 30.2274 6.29037 29.516C6.29037 28.8044 6.86919 28.2259 7.58054 28.2259C7.91862 28.2259 8.23941 28.3575 8.48175 28.5956C8.68568 28.7957 8.99526 28.8377 9.24562 28.6994C9.49533 28.5614 9.62435 28.2761 9.56384 27.9973C9.53151 27.8488 9.51614 27.7127 9.51614 27.5805C9.51614 26.5134 10.3847 25.645 11.4517 25.645C11.9329 25.645 12.3885 25.8332 12.7419 26.1527V30.8062L7.58054 30.8062ZM14.0325 23.0643H16.6132V32.4391L14.0325 34.5895V23.0643ZM10.1613 39.838H20.4839V41.1282L10.1613 41.1285V39.838ZM29.5164 43.7091H20.4839V42.419H21.129C21.485 42.419 21.774 42.1305 21.774 41.7739V41.1288H28.2257V41.7739C28.2257 42.1305 28.5147 42.419 28.8708 42.419H29.5159L29.5164 43.7091ZM29.5164 41.1285V39.8384H39.8389V41.1285H29.5164Z" fill="url(#paint0_linear_6252_23392)"/>
<path d="M42.4193 7.58065C42.1824 7.58065 41.9496 7.61299 41.7271 7.67477C41.4652 6.15762 40.1392 5 38.5484 5C36.9573 5 35.6315 6.15729 35.3697 7.67477C35.1469 7.61298 34.9141 7.58065 34.6772 7.58065C33.2538 7.58065 32.0965 8.73794 32.0965 10.1613C32.0965 11.5846 33.2538 12.7419 34.6772 12.7419H42.4193C43.8427 12.7419 45 11.5846 45 10.1613C45 8.73827 43.8426 7.58065 42.4193 7.58065ZM42.4193 11.4517H34.6772C33.9655 11.4517 33.387 10.8729 33.387 10.1616C33.387 9.44992 33.9658 8.87144 34.6772 8.87144C35.0152 8.87144 35.336 9.00302 35.5784 9.2412C35.7823 9.44193 36.0925 9.48386 36.3422 9.34492C36.5919 9.20694 36.721 8.9217 36.6605 8.64286C36.6281 8.49432 36.6128 8.35826 36.6128 8.22573C36.6128 7.15867 37.4813 6.29019 38.5484 6.29019C39.6154 6.29019 40.4839 7.15876 40.4839 8.22573C40.4839 8.35795 40.4686 8.494 40.4356 8.64254C40.3751 8.92138 40.5041 9.2063 40.7538 9.3446C41.0035 9.48322 41.3144 9.44065 41.5177 9.24088C41.7604 9.0027 42.0811 8.87112 42.4192 8.87112C43.1309 8.87112 43.7094 9.44993 43.7094 10.1613C43.7097 10.8729 43.1309 11.4517 42.4193 11.4517Z" fill="url(#paint1_linear_6252_23392)"/>
<defs>
<linearGradient id="paint0_linear_6252_23392" x1="0" y1="0" x2="0" y2="1" gradientUnits="objectBoundingBox">
<stop stop-color="#ED3040"/>
<stop offset="1" stop-color="#2D23F4"/>
</linearGradient>
<linearGradient id="paint1_linear_6252_23392" x1="0" y1="0" x2="0" y2="1" gradientUnits="objectBoundingBox">
<stop stop-color="#ED3040"/>
<stop offset="1" stop-color="#2D23F4"/>
</linearGradient>
</defs>
</svg>
