<svg width="13" height="13" viewBox="0 0 13 13" fill="none" xmlns="http://www.w3.org/2000/svg">
<g clip-path="url(#clip0_448_8795)">
<path d="M6.50146 6.95604C8.41922 6.95604 9.97948 5.39571 9.97948 3.47803C9.97935 1.56041 8.41903 0 6.50146 0C4.58371 0 3.02344 1.56034 3.02344 3.47803C3.02344 5.39564 4.58378 6.95604 6.50146 6.95604ZM6.50146 1.04656C7.84254 1.04656 8.93305 2.13706 8.93305 3.47816C8.93292 4.81925 7.84254 5.90962 6.50146 5.90962C5.16037 5.90962 4.06987 4.81911 4.06987 3.47803C4.06987 2.13706 5.1609 1.04656 6.50146 1.04656Z" fill="#C22032"/>
<path d="M0.536874 12.9813C0.815213 13.057 1.10356 12.8944 1.1804 12.6155C1.83602 10.2321 4.02381 8.5675 6.49963 8.5675C8.97548 8.5675 11.1628 10.232 11.8188 12.6155C11.8833 12.8479 12.0936 13 12.3232 13C12.3693 13 12.4158 12.9938 12.4624 12.9812C12.7407 12.9044 12.9046 12.6165 12.8282 12.3377C12.0475 9.50168 9.44517 7.521 6.49989 7.521C3.55471 7.521 0.951992 9.50142 0.171308 12.3377C0.0944523 12.616 0.258543 12.9044 0.536874 12.9813Z" fill="#1E417C"/>
</g>
<defs>
<clipPath id="clip0_448_8795">
<rect width="13" height="13" fill="white"/>
</clipPath>
</defs>
</svg>
