<svg width="20" height="20" viewBox="0 0 20 20" fill="none" xmlns="http://www.w3.org/2000/svg">
<path d="M15.6816 8.85253C15.1066 8.856 14.5562 9.12369 14.1514 9.59664C13.7466 10.0698 13.5204 10.7094 13.5226 11.3754C13.5248 12.0412 13.7552 12.679 14.1632 13.1482C14.5711 13.6177 15.1232 13.8803 15.6983 13.8787C16.2735 13.877 16.8245 13.6112 17.2305 13.1397C17.6363 12.6679 17.864 12.0289 17.8634 11.3631C17.8604 10.6956 17.6292 10.0567 17.2202 9.58619C16.8114 9.11569 16.2581 8.85185 15.6816 8.85248L15.6816 8.85253ZM15.6816 13.1736C15.2675 13.1707 14.8712 12.9779 14.5798 12.6371C14.2883 12.2964 14.1255 11.8357 14.1273 11.356C14.1288 10.8766 14.2947 10.4173 14.5884 10.0792C14.8822 9.74113 15.2797 9.55177 15.6938 9.5526C16.1081 9.55363 16.5049 9.7448 16.7976 10.0841C17.0901 10.4236 17.2543 10.8835 17.2545 11.3632C17.2533 11.8447 17.0869 12.306 16.792 12.6456C16.497 12.9851 16.0976 13.175 15.6816 13.1736Z" fill="black"/>
<path d="M15.6523 15.0264C15.6623 15.0338 15.6715 15.0425 15.6796 15.0527L15.6523 15.0264ZM14.1501 14.5133L14.0637 14.8318L14.0636 14.8316C14.4387 14.9744 14.7934 15.1811 15.1159 15.4449L15.1818 15.2027C15.2329 15.0176 15.4036 14.9152 15.5636 14.9738C15.5959 14.9844 15.626 15.0021 15.6523 15.0264C15.1504 14.5704 14.57 14.2445 13.9501 14.0711C14.0273 14.0991 14.0916 14.1613 14.1291 14.2442C14.1667 14.3272 14.1742 14.4239 14.1499 14.5133L14.1501 14.5133ZM19.5069 11.1449C18.9265 10.3889 18.5802 9.43063 18.5228 8.42124C18.5119 8.247 18.3915 8.10886 18.241 8.09764C17.3651 8.03276 16.5323 7.63408 15.8729 6.96341C15.7612 6.86058 15.6028 6.86058 15.4911 6.96341C14.8313 7.63345 13.9987 8.03214 13.123 8.09764C12.9716 8.10764 12.85 8.24618 12.8389 8.42124C12.7829 9.43183 12.4365 10.3916 11.8548 11.1475C11.7663 11.2761 11.7663 11.4585 11.8548 11.587C12.4361 12.3423 12.7824 13.3011 12.8389 14.3107C12.8498 14.4863 12.9711 14.6255 13.123 14.6369C13.2412 14.6369 13.3503 14.6606 13.4662 14.6789H13.4661C13.6687 14.7114 13.8687 14.7634 14.0638 14.8342C14.4389 14.977 14.7936 15.1837 15.1161 15.4473C15.2387 15.5447 15.3638 15.6499 15.4911 15.7683V15.7685C15.5357 15.8113 15.5903 15.8378 15.6479 15.8448H15.7161C15.7735 15.837 15.8278 15.8105 15.8729 15.7685C16.0001 15.6501 16.1253 15.5449 16.2479 15.4475V15.4473C16.5704 15.1837 16.9251 14.977 17.3001 14.8342C17.4953 14.7634 17.6953 14.7114 17.8979 14.6789C18.0093 14.6606 18.1253 14.6447 18.2412 14.6369H18.241C18.3919 14.6243 18.5119 14.4853 18.5228 14.3107C18.5788 13.2987 18.9251 12.3373 19.5069 11.5791C19.5955 11.4526 19.5955 11.2714 19.5069 11.1449ZM17.9388 13.9632C17.7767 13.9834 17.6158 14.015 17.4568 14.0581H17.4114C16.798 14.2297 16.223 14.5508 15.725 15.0001L15.691 15.0291L15.6614 15.0054C15.1597 14.5494 14.5793 14.2235 13.9592 14.0501H13.9138C13.755 14.0075 13.5941 13.9759 13.432 13.9555C13.3356 13.003 13.0086 12.1018 12.4887 11.3555C13.0089 10.6103 13.3359 9.70973 13.432 8.75811C14.254 8.64793 15.0332 8.27435 15.6819 7.6792C16.3313 8.27924 17.1134 8.65589 17.9388 8.7661C18.0346 9.71815 18.3625 10.6189 18.8841 11.3635C18.3624 12.1086 18.0345 13.0104 17.9388 13.9632Z" fill="black"/>
<path d="M14.2819 20C14.251 20 14.2204 19.9947 14.1909 19.9843L12.5 19.3685C12.4234 19.3406 12.3596 19.2787 12.3224 19.1963C12.2854 19.1139 12.278 19.0176 12.3023 18.929L13.5682 14.3001C13.6189 14.1141 13.7904 14.011 13.9511 14.07C14.1118 14.1287 14.2008 14.3273 14.1499 14.5133L12.9728 18.8054L14.0908 19.2106L15.1818 15.2028C15.2325 15.0167 15.404 14.9137 15.5647 14.9725C15.7254 15.0314 15.8144 15.2299 15.7636 15.416L14.5726 19.7554C14.5321 19.9015 14.4144 20.0006 14.2819 20Z" fill="black"/>
<path d="M17.0791 20C16.9466 20.0006 16.8289 19.9014 16.7884 19.7554L15.5996 15.416C15.5748 15.327 15.5817 15.2301 15.6188 15.1471C15.6558 15.064 15.7202 15.0016 15.7973 14.9738C15.9579 14.9167 16.1284 15.0183 16.1815 15.2028L17.2724 19.2106L18.3838 18.8054L17.2132 14.5133C17.1734 14.3321 17.2624 14.1465 17.4162 14.0899C17.5701 14.0334 17.7352 14.1256 17.7928 14.3001L19.0633 18.929C19.0853 19.0165 19.0779 19.1106 19.0428 19.1922C19.0048 19.2744 18.9403 19.3358 18.8633 19.3632L17.1724 19.9789C17.1424 19.9912 17.1111 19.9983 17.0792 20L17.0791 20Z" fill="black"/>
<path d="M19.6951 14.4733H18.9655C18.7987 14.4733 18.6633 14.3166 18.6633 14.1234C18.6633 13.9301 18.7987 13.7734 18.9655 13.7734H19.3906V12.3681C19.3906 12.1734 19.5269 12.0155 19.6951 12.0155C19.8633 12.0155 19.9997 12.1734 19.9997 12.3681V14.126C19.999 14.2188 19.9666 14.3076 19.9095 14.3727C19.8524 14.4378 19.7752 14.4741 19.6951 14.4733Z" fill="black"/>
<path d="M0.304493 2.91317C0.4726 2.91317 0.608986 3.10782 0.608986 3.26574V3.35001C0.608986 3.54466 0.4726 3.70258 0.304493 3.70258C0.136386 3.70258 0 3.50793 0 3.35001V3.26574C0 3.07109 0.136386 2.91317 0.304493 2.91317Z" fill="black"/>
<path d="M12.3976 14.1181C12.3987 14.2124 12.3671 14.3032 12.3098 14.3701C12.2526 14.4368 12.1743 14.4741 12.0929 14.4733H0.304768C0.223182 14.4733 0.144943 14.4356 0.0878516 14.3682C0.0305844 14.3009 -0.000961369 14.2099 0.000274647 14.1154V4.8447C0.000274647 4.65005 0.136485 4.49213 0.304768 4.49213C0.472875 4.49213 0.609261 4.65005 0.609261 4.8447V13.7681H12.0929C12.1735 13.7673 12.251 13.804 12.3083 13.8697C12.3654 13.9354 12.3976 14.0248 12.3976 14.118V14.1181Z" fill="black"/>
<path d="M20 10.1129C20 10.3078 19.8636 10.4655 19.6953 10.4655C19.5272 10.4655 19.3908 10.3078 19.3908 10.1129V0.702694H0.609261V1.77101C0.609261 1.96586 0.472875 2.12358 0.304768 2.12358C0.136485 2.12358 0.00027489 1.96586 0.00027489 1.77101V0.349916C0.00150833 0.15629 0.137369 0 0.304768 0H19.6953C19.8627 0 19.9988 0.15629 20 0.349916V10.1129Z" fill="black"/>
<path d="M18.2768 5.52637H1.6384C1.47135 5.52637 1.33602 5.36967 1.33602 5.17625C1.33602 4.98303 1.47135 4.82633 1.6384 4.82633H18.2768C18.4438 4.82633 18.5792 4.98303 18.5792 5.17625C18.5792 5.36967 18.4438 5.52637 18.2768 5.52637Z" fill="black"/>
<path d="M10.5792 8.06852H1.6384C1.47135 8.06852 1.33602 7.91182 1.33602 7.7184C1.33602 7.52518 1.47135 7.36849 1.6384 7.36849H10.5792C10.7463 7.36849 10.8816 7.52518 10.8816 7.7184C10.8816 7.91182 10.7463 8.06852 10.5792 8.06852Z" fill="black"/>
<path d="M10.5792 10.6237H1.6384C1.47135 10.6237 1.33602 10.467 1.33602 10.2738C1.33602 10.0806 1.47135 9.92391 1.6384 9.92391H10.5792C10.7463 9.92391 10.8816 10.0806 10.8816 10.2738C10.8816 10.467 10.7463 10.6237 10.5792 10.6237Z" fill="black"/>
<path d="M14.2521 2.4739H5.74747C5.66254 2.48226 5.57831 2.44921 5.51541 2.38249C5.4525 2.31557 5.41673 2.22131 5.41673 2.12255C5.41673 2.0238 5.4525 1.92954 5.51541 1.86261C5.57831 1.79589 5.66254 1.76263 5.74747 1.7712H14.2521C14.337 1.76264 14.4212 1.79589 14.4841 1.86261C14.5471 1.92953 14.5828 2.0238 14.5828 2.12255C14.5828 2.22131 14.5471 2.31557 14.4841 2.38249C14.4212 2.44921 14.337 2.48227 14.2521 2.4739Z" fill="black"/>
</svg>
