<svg width="20" height="20" viewBox="0 0 20 20" fill="none" xmlns="http://www.w3.org/2000/svg">
<path fill-rule="evenodd" clip-rule="evenodd" d="M9.89119 4.07948C9.74435 4.08832 9.60866 4.11469 9.50365 4.15481L4.95595 5.88888C4.89069 5.91375 4.83893 5.94327 4.80361 5.97576C4.76829 6.00826 4.7501 6.04309 4.7501 6.07826C4.7501 6.11344 4.76829 6.14827 4.80361 6.18076C4.83893 6.21326 4.89069 6.24278 4.95595 6.26764L6.84226 6.9868V8.5716C6.84254 8.71834 6.97504 8.85002 7.17634 8.90363C9.00042 9.39075 10.9186 9.42796 12.8291 8.9022C13.0273 8.84746 13.1569 8.71676 13.157 8.57157V6.98746L13.6844 6.78661V7.45554C13.6844 7.55026 13.7398 7.6411 13.8385 7.70808C13.9372 7.77506 14.0711 7.81268 14.2107 7.81268C14.3503 7.81268 14.4841 7.77506 14.5828 7.70808C14.6815 7.6411 14.737 7.55026 14.737 7.45554V6.38553L15.0454 6.26764C15.1106 6.24278 15.1624 6.21326 15.1977 6.18076C15.233 6.14827 15.2512 6.11344 15.2512 6.07826C15.2512 6.04309 15.233 6.00826 15.1977 5.97576C15.1624 5.94327 15.1106 5.91375 15.0454 5.88888L10.4967 4.15481C10.4184 4.12495 10.3228 4.10256 10.2176 4.08947C10.1124 4.07638 10.0005 4.07295 9.89119 4.07948ZM10.0001 4.72261L13.5559 6.07791L10.0001 7.43322L6.44546 6.07791L10.0001 4.72261ZM7.89489 7.38858L9.50365 8.00171C9.63534 8.05191 9.81393 8.08012 10.0001 8.08012C10.1864 8.08012 10.365 8.05191 10.4967 8.00171L12.1044 7.38858V8.28561C10.6682 8.62702 9.2864 8.60994 7.89489 8.28561V7.38858ZM6.32006 14.7957C5.89334 14.881 5.49169 14.9797 5.12763 15.0935C4.48615 15.294 3.94825 15.5364 3.55073 15.8301C3.3098 16.0082 3.12114 16.2104 3.009 16.4286H2.63173C2.34106 16.4286 2.10542 16.5885 2.10542 16.7858C2.10542 16.983 2.34106 17.1429 2.63173 17.1429H2.93807C3.0264 17.4274 3.24745 17.6903 3.55073 17.9144C3.94825 18.2081 4.48615 18.4505 5.12763 18.651C6.28971 19.0142 7.80079 19.2394 9.47384 19.2788V19.6429C9.47384 19.8401 9.70948 20 10.0002 20C10.2908 20 10.5265 19.8401 10.5265 19.6429V19.2788C12.1995 19.2394 13.7106 19.0142 14.8727 18.651C15.5142 18.4505 16.0521 18.2081 16.4496 17.9144C16.7529 17.6903 16.9739 17.4274 17.0622 17.1429H17.3686C17.6593 17.1429 17.8949 16.983 17.8949 16.7858C17.8949 16.5885 17.6593 16.4286 17.3686 16.4286H16.9934C16.7525 15.9553 16.1401 15.5613 15.3599 15.2624C15.1068 15.1652 14.7854 15.2258 14.6424 15.3977C14.4992 15.5695 14.5885 15.7875 14.8418 15.8846C15.2986 16.0595 15.6136 16.2453 15.8092 16.4286H15.7896C15.499 16.4286 15.2633 16.5885 15.2633 16.7858C15.2633 16.983 15.499 17.1429 15.7896 17.1429H15.9654C15.9044 17.2359 15.8094 17.3313 15.6745 17.431C15.4062 17.6293 14.9808 17.8306 14.4317 18.0023C13.4449 18.3107 12.0663 18.5229 10.5265 18.5631C10.5198 18.3691 10.2861 18.2143 10.0002 18.2143C9.71464 18.2146 9.48157 18.3694 9.47487 18.5631C7.93459 18.523 6.55561 18.3108 5.56863 18.0023C5.01955 17.8306 4.59412 17.6293 4.32582 17.431C4.19096 17.3313 4.09591 17.2359 4.03491 17.1429H4.21069C4.50136 17.1429 4.737 16.983 4.737 16.7858C4.737 16.5885 4.50136 16.4286 4.21069 16.4286H4.18706C4.22795 16.3908 4.27301 16.3526 4.32583 16.3135C4.59413 16.1153 5.01956 15.9139 5.56863 15.7423C5.99587 15.6087 6.4978 15.4942 7.05301 15.4026C6.81573 15.2092 6.57293 15.0083 6.32006 14.7957Z" fill="black"/>
<path fill-rule="evenodd" clip-rule="evenodd" d="M9.89119 4.07948C9.74435 4.08832 9.60866 4.11469 9.50365 4.15481L4.95595 5.88888C4.89069 5.91375 4.83893 5.94327 4.80361 5.97576C4.76829 6.00826 4.7501 6.04309 4.7501 6.07826C4.7501 6.11344 4.76829 6.14827 4.80361 6.18076C4.83893 6.21326 4.89069 6.24278 4.95595 6.26764L6.84226 6.9868V8.5716C6.84254 8.71834 6.97504 8.85002 7.17634 8.90363C9.00042 9.39075 10.9186 9.42796 12.8291 8.9022C13.0273 8.84746 13.1569 8.71676 13.157 8.57157V6.98746L13.6844 6.78661V7.45554C13.6844 7.55026 13.7398 7.6411 13.8385 7.70808C13.9372 7.77506 14.0711 7.81268 14.2107 7.81268C14.3503 7.81268 14.4841 7.77506 14.5828 7.70808C14.6815 7.6411 14.737 7.55026 14.737 7.45554V6.38553L15.0454 6.26764C15.1106 6.24278 15.1624 6.21326 15.1977 6.18076C15.233 6.14827 15.2512 6.11344 15.2512 6.07826C15.2512 6.04309 15.233 6.00826 15.1977 5.97576C15.1624 5.94327 15.1106 5.91375 15.0454 5.88888L10.4967 4.15481C10.4184 4.12495 10.3228 4.10256 10.2176 4.08947C10.1124 4.07638 10.0005 4.07295 9.89119 4.07948ZM10.0001 4.72261L13.5559 6.07791L10.0001 7.43322L6.44546 6.07791L10.0001 4.72261ZM7.89489 7.38858L9.50365 8.00171C9.63534 8.05191 9.81393 8.08012 10.0001 8.08012C10.1864 8.08012 10.365 8.05191 10.4967 8.00171L12.1044 7.38858V8.28561C10.6682 8.62702 9.2864 8.60994 7.89489 8.28561V7.38858ZM6.32006 14.7957C5.89334 14.881 5.49169 14.9797 5.12763 15.0935C4.48615 15.294 3.94825 15.5364 3.55073 15.8301C3.3098 16.0082 3.12114 16.2104 3.009 16.4286H2.63173C2.34106 16.4286 2.10542 16.5885 2.10542 16.7858C2.10542 16.983 2.34106 17.1429 2.63173 17.1429H2.93807C3.0264 17.4274 3.24745 17.6903 3.55073 17.9144C3.94825 18.2081 4.48615 18.4505 5.12763 18.651C6.28971 19.0142 7.80079 19.2394 9.47384 19.2788V19.6429C9.47384 19.8401 9.70948 20 10.0002 20C10.2908 20 10.5265 19.8401 10.5265 19.6429V19.2788C12.1995 19.2394 13.7106 19.0142 14.8727 18.651C15.5142 18.4505 16.0521 18.2081 16.4496 17.9144C16.7529 17.6903 16.9739 17.4274 17.0622 17.1429H17.3686C17.6593 17.1429 17.8949 16.983 17.8949 16.7858C17.8949 16.5885 17.6593 16.4286 17.3686 16.4286H16.9934C16.7525 15.9553 16.1401 15.5613 15.3599 15.2624C15.1068 15.1652 14.7854 15.2258 14.6424 15.3977C14.4992 15.5695 14.5885 15.7875 14.8418 15.8846C15.2986 16.0595 15.6136 16.2453 15.8092 16.4286H15.7896C15.499 16.4286 15.2633 16.5885 15.2633 16.7858C15.2633 16.983 15.499 17.1429 15.7896 17.1429H15.9654C15.9044 17.2359 15.8094 17.3313 15.6745 17.431C15.4062 17.6293 14.9808 17.8306 14.4317 18.0023C13.4449 18.3107 12.0663 18.5229 10.5265 18.5631C10.5198 18.3691 10.2861 18.2143 10.0002 18.2143C9.71464 18.2146 9.48157 18.3694 9.47487 18.5631C7.93459 18.523 6.55561 18.3108 5.56863 18.0023C5.01955 17.8306 4.59412 17.6293 4.32582 17.431C4.19096 17.3313 4.09591 17.2359 4.03491 17.1429H4.21069C4.50136 17.1429 4.737 16.983 4.737 16.7858C4.737 16.5885 4.50136 16.4286 4.21069 16.4286H4.18706C4.22795 16.3908 4.27301 16.3526 4.32583 16.3135C4.59413 16.1153 5.01956 15.9139 5.56863 15.7423C5.99587 15.6087 6.4978 15.4942 7.05301 15.4026C6.81573 15.2092 6.57293 15.0083 6.32006 14.7957Z" fill="black"/>
<path fill-rule="evenodd" clip-rule="evenodd" d="M10 0C4.48339 0 0 3.04226 0 6.78561C0 8.77634 2.45239 11.3455 4.84169 13.5098C7.23099 15.6742 9.6176 17.3881 9.6176 17.3881C9.6668 17.4234 9.72608 17.4515 9.79183 17.4707C9.85758 17.49 9.92841 17.4999 10 17.4999C10.0716 17.4999 10.1424 17.49 10.2082 17.4707C10.2739 17.4515 10.3332 17.4234 10.3824 17.3881C10.3824 17.3881 16.5258 13.0022 19.0008 9.32534C19.0296 9.28266 19.0457 9.23654 19.0483 9.18963C19.0508 9.14272 19.0396 9.09593 19.0155 9.05194C18.9913 9.00795 18.9546 8.96762 18.9075 8.93327C18.8604 8.89891 18.8037 8.8712 18.7407 8.85171C18.6778 8.83217 18.6099 8.82123 18.5408 8.81952C18.4716 8.81781 18.4027 8.82537 18.3378 8.84176C18.273 8.85815 18.2136 8.88305 18.163 8.91504C18.1123 8.94703 18.0715 8.98548 18.0428 9.02819C15.8432 12.2959 10.607 16.1519 9.99178 16.602C9.48605 16.2318 7.72017 14.9255 5.68462 13.0816C3.33708 10.955 1.05263 8.34523 1.05263 6.78561C1.05263 3.42829 5.05228 0.714275 10 0.714275C14.9477 0.714275 18.9474 3.42829 18.9474 6.78561C18.9474 6.88033 19.0028 6.97117 19.1015 7.03815C19.2002 7.10512 19.3341 7.14275 19.4737 7.14275C19.6133 7.14275 19.7471 7.10512 19.8458 7.03815C19.9445 6.97117 20 6.88033 20 6.78561C20 3.04226 15.5166 0 10 0Z" fill="black"/>
<path fill-rule="evenodd" clip-rule="evenodd" d="M10 0C4.48339 0 0 3.04226 0 6.78561C0 8.77634 2.45239 11.3455 4.84169 13.5098C7.23099 15.6742 9.6176 17.3881 9.6176 17.3881C9.6668 17.4234 9.72608 17.4515 9.79183 17.4707C9.85758 17.49 9.92841 17.4999 10 17.4999C10.0716 17.4999 10.1424 17.49 10.2082 17.4707C10.2739 17.4515 10.3332 17.4234 10.3824 17.3881C10.3824 17.3881 16.5258 13.0022 19.0008 9.32534C19.0296 9.28266 19.0457 9.23654 19.0483 9.18963C19.0508 9.14272 19.0396 9.09593 19.0155 9.05194C18.9913 9.00795 18.9546 8.96762 18.9075 8.93327C18.8604 8.89891 18.8037 8.8712 18.7407 8.85171C18.6778 8.83217 18.6099 8.82123 18.5408 8.81952C18.4716 8.81781 18.4027 8.82537 18.3378 8.84176C18.273 8.85815 18.2136 8.88305 18.163 8.91504C18.1123 8.94703 18.0715 8.98548 18.0428 9.02819C15.8432 12.2959 10.607 16.1519 9.99178 16.602C9.48605 16.2318 7.72017 14.9255 5.68462 13.0816C3.33708 10.955 1.05263 8.34523 1.05263 6.78561C1.05263 3.42829 5.05228 0.714275 10 0.714275C14.9477 0.714275 18.9474 3.42829 18.9474 6.78561C18.9474 6.88033 19.0028 6.97117 19.1015 7.03815C19.2002 7.10512 19.3341 7.14275 19.4737 7.14275C19.6133 7.14275 19.7471 7.10512 19.8458 7.03815C19.9445 6.97117 20 6.88033 20 6.78561C20 3.04226 15.5166 0 10 0Z" fill="black"/>
<path fill-rule="evenodd" clip-rule="evenodd" d="M19.2175 7.70669C19.0779 7.70669 18.944 7.74432 18.8453 7.81129C18.7466 7.87827 18.6912 7.96911 18.6912 8.06383C18.6912 8.15855 18.7466 8.24939 18.8453 8.31636C18.944 8.38334 19.0779 8.42096 19.2175 8.42096C19.3571 8.42096 19.4909 8.38334 19.5897 8.31636C19.6884 8.24939 19.7438 8.15855 19.7438 8.06383C19.7438 7.96911 19.6884 7.87827 19.5897 7.81129C19.4909 7.74432 19.3571 7.70669 19.2175 7.70669ZM10.0002 11.7854C8.78037 11.7854 7.62563 11.5838 6.61101 11.2267C6.54962 11.205 6.49512 11.1754 6.45063 11.1394C6.40614 11.1035 6.37252 11.062 6.35171 11.0172C6.33089 10.9724 6.32329 10.9253 6.32933 10.8785C6.33537 10.8318 6.35494 10.7863 6.38691 10.7447C6.45132 10.6607 6.5622 10.5976 6.69519 10.569C6.82818 10.5405 6.97241 10.549 7.0962 10.5926C7.96546 10.8986 8.95115 11.0711 10.0002 11.0711C13.4945 11.0711 16.316 9.15658 16.316 6.78546C16.316 6.25334 16.1732 5.74512 15.913 5.276C15.864 5.18738 15.8689 5.08919 15.9265 5.003C15.9841 4.91681 16.0898 4.84967 16.2204 4.81632C16.2851 4.79976 16.354 4.79201 16.4232 4.79353C16.4923 4.79505 16.5603 4.8058 16.6233 4.82517C16.6863 4.84454 16.7431 4.87215 16.7904 4.90642C16.8377 4.94069 16.8745 4.98094 16.8988 5.02488C17.2027 5.57281 17.3686 6.16671 17.3686 6.78546C17.3686 9.5426 14.0634 11.7854 10.0002 11.7854ZM3.8756 9.38587C3.74147 9.35997 3.62797 9.29901 3.56002 9.21637C2.96891 8.49673 2.63177 7.66636 2.63177 6.78546C2.63177 4.02832 5.93698 1.78554 10.0002 1.78554C11.2313 1.78554 12.3957 1.99136 13.4171 2.35472C13.5408 2.39867 13.6336 2.47414 13.6752 2.56452C13.7169 2.65491 13.7039 2.75282 13.6392 2.83672C13.6071 2.87835 13.5633 2.91527 13.5101 2.94538C13.457 2.97549 13.3956 2.99819 13.3296 3.01219C13.2635 3.02618 13.194 3.0312 13.125 3.02694C13.0561 3.02268 12.9891 3.00924 12.9278 2.98738C12.0527 2.67607 11.059 2.49981 10.0002 2.49981C6.50587 2.49981 3.6844 4.41435 3.6844 6.78546C3.6844 7.54303 3.97249 8.25233 4.47902 8.86899C4.54681 8.9517 4.56346 9.04929 4.52529 9.14032C4.48713 9.23134 4.39728 9.30837 4.27548 9.35448C4.15359 9.40049 4.00976 9.41177 3.8756 9.38587Z" fill="black"/>
<path fill-rule="evenodd" clip-rule="evenodd" d="M19.2175 7.70669C19.0779 7.70669 18.944 7.74432 18.8453 7.81129C18.7466 7.87827 18.6912 7.96911 18.6912 8.06383C18.6912 8.15855 18.7466 8.24939 18.8453 8.31636C18.944 8.38334 19.0779 8.42096 19.2175 8.42096C19.3571 8.42096 19.4909 8.38334 19.5897 8.31636C19.6884 8.24939 19.7438 8.15855 19.7438 8.06383C19.7438 7.96911 19.6884 7.87827 19.5897 7.81129C19.4909 7.74432 19.3571 7.70669 19.2175 7.70669ZM10.0002 11.7854C8.78037 11.7854 7.62563 11.5838 6.61101 11.2267C6.54962 11.205 6.49512 11.1754 6.45063 11.1394C6.40614 11.1035 6.37252 11.062 6.35171 11.0172C6.33089 10.9724 6.32329 10.9253 6.32933 10.8785C6.33537 10.8318 6.35494 10.7863 6.38691 10.7447C6.45132 10.6607 6.5622 10.5976 6.69519 10.569C6.82818 10.5405 6.97241 10.549 7.0962 10.5926C7.96546 10.8986 8.95115 11.0711 10.0002 11.0711C13.4945 11.0711 16.316 9.15658 16.316 6.78546C16.316 6.25334 16.1732 5.74512 15.913 5.276C15.864 5.18738 15.8689 5.08919 15.9265 5.003C15.9841 4.91681 16.0898 4.84967 16.2204 4.81632C16.2851 4.79976 16.354 4.79201 16.4232 4.79353C16.4923 4.79505 16.5603 4.8058 16.6233 4.82517C16.6863 4.84454 16.7431 4.87215 16.7904 4.90642C16.8377 4.94069 16.8745 4.98094 16.8988 5.02488C17.2027 5.57281 17.3686 6.16671 17.3686 6.78546C17.3686 9.5426 14.0634 11.7854 10.0002 11.7854ZM3.8756 9.38587C3.74147 9.35997 3.62797 9.29901 3.56002 9.21637C2.96891 8.49673 2.63177 7.66636 2.63177 6.78546C2.63177 4.02832 5.93698 1.78554 10.0002 1.78554C11.2313 1.78554 12.3957 1.99136 13.4171 2.35472C13.5408 2.39867 13.6336 2.47414 13.6752 2.56452C13.7169 2.65491 13.7039 2.75282 13.6392 2.83672C13.6071 2.87835 13.5633 2.91527 13.5101 2.94538C13.457 2.97549 13.3956 2.99819 13.3296 3.01219C13.2635 3.02618 13.194 3.0312 13.125 3.02694C13.0561 3.02268 12.9891 3.00924 12.9278 2.98738C12.0527 2.67607 11.059 2.49981 10.0002 2.49981C6.50587 2.49981 3.6844 4.41435 3.6844 6.78546C3.6844 7.54303 3.97249 8.25233 4.47902 8.86899C4.54681 8.9517 4.56346 9.04929 4.52529 9.14032C4.48713 9.23134 4.39728 9.30837 4.27548 9.35448C4.15359 9.40049 4.00976 9.41177 3.8756 9.38587Z" fill="black"/>
</svg>
