<svg width="20" height="20" viewBox="0 0 20 20" fill="none" xmlns="http://www.w3.org/2000/svg">
<path d="M9.81729 7.73124C10.3908 7.73181 10.9517 7.43889 11.223 7.00443C11.456 6.615 10.7904 6.30642 10.5421 6.68846C10.2713 7.14576 9.46576 7.18809 9.13291 6.76407C8.83852 6.41056 8.21138 6.79448 8.50327 7.15072C8.79959 7.50914 9.30731 7.73124 9.81729 7.73124Z" fill="black"/>
<path d="M17.9101 9.19041C17.7721 9.01676 17.5742 8.88151 17.336 8.8109C16.3218 8.1927 15.079 7.71422 13.7017 7.4048C14.4972 6.82998 14.7063 5.88746 14.2438 5.12287C14.6597 4.23647 14.8093 3.39421 14.6814 2.61804C14.4244 0.571611 11.7947 -0.795928 9.87608 0.51621C7.50312 0.329646 4.15314 0.662034 5.14059 3.4348C5.29843 3.93732 5.52483 4.49308 5.41007 4.95612C5.3935 5.02547 5.40974 5.09163 5.43989 5.1521C4.97757 5.93961 5.24322 6.89437 6.06642 7.45838C4.77882 7.7686 3.61563 8.22857 2.6627 8.81114C2.42177 8.88279 2.222 9.02052 2.08404 9.1973C-0.60733 11.0965 -0.710452 14.013 1.88248 15.9884V17.3769C1.86913 17.9372 2.46584 18.4175 3.11367 18.3699C2.92955 18.8995 3.11591 19.5344 3.56946 19.906C3.69061 20.0074 3.87352 20.0286 4.02055 19.9607C5.92104 19.064 8.0684 19.08 9.9998 19.7545C11.9338 19.0774 14.082 19.0661 15.9792 19.9607C16.1263 20.0286 16.3092 20.0073 16.4303 19.906C16.8836 19.5344 17.0705 18.8995 16.8861 18.37C17.5358 18.4189 18.1297 17.9366 18.1173 17.3769V15.9884C20.7129 14.0097 20.6066 11.0927 17.9101 9.19041ZM1.88248 15.0378C0.39994 13.5956 0.397748 11.7395 1.88248 10.2998V15.0378ZM7.21071 1.29901C8.13513 1.11855 8.98258 1.08698 9.95724 1.196C10.0773 1.20885 10.1981 1.17371 10.2826 1.09919C10.8281 0.620994 11.8103 0.531508 12.5664 0.890923C13.8024 1.4728 14.2052 2.95724 13.8038 4.15223C13.6545 2.86887 12.5353 1.7879 10.9673 2.04078C9.99055 2.25755 9.0258 2.01107 8.04944 2.01788C7.06402 2.10271 6.19288 2.81373 6.01928 3.67119C5.50024 2.36253 5.65411 1.54225 7.21071 1.29901ZM5.98498 6.00085C5.98573 5.76965 6.05708 5.54202 6.19108 5.34271C6.5278 4.84353 6.67313 4.27373 6.78298 3.77895C6.90368 3.21082 7.48486 2.73535 8.13248 2.68052C9.12767 2.72638 10.1163 2.90361 11.1116 2.69541C11.8175 2.57185 12.547 2.92842 12.8257 3.5165C13.0317 4.08109 13.082 4.6757 13.4556 5.24818C14.0792 6.07106 13.4805 6.95036 12.5346 7.28216C11.9843 7.45202 11.3486 7.67607 10.8066 8.04883C10.2585 8.42663 9.44197 8.42581 8.89386 8.04899C7.90948 7.30186 6.10058 7.33979 5.98498 6.00085ZM9.22681 8.92412C9.72905 9.05626 10.2988 9.01801 10.773 8.83144C10.9204 9.87851 9.19732 9.97254 9.22681 8.92412ZM2.65557 12.6744C2.89943 12.6744 3.04891 12.6835 3.16404 12.7619C3.33407 12.8694 3.42635 13.1105 3.24216 13.2094C2.8068 13.5243 2.91582 13.94 3.30411 14.2175C3.69288 14.6011 3.12122 15.0094 2.65557 15.0014V12.6744ZM3.94808 19.2451C3.77028 18.9761 3.77401 18.604 3.95157 18.3374C4.96346 18.3236 5.97998 18.4173 6.92194 18.6035C5.90825 18.64 4.89754 18.8513 3.94808 19.2451ZM9.61335 18.7427C8.13966 18.0541 6.17636 17.6668 4.17872 17.6668C3.81157 17.6693 3.44411 17.68 3.07797 17.7065C2.96511 17.714 2.86017 17.6838 2.77863 17.619C2.69936 17.5562 2.65557 17.4703 2.65557 17.3769V15.6677C3.9083 15.6685 4.75415 14.4787 3.78236 13.6861C4.65652 12.9644 3.70247 11.8867 2.65557 12.0084V9.75708C2.64439 9.58392 2.87298 9.52683 3.00147 9.42286C5.40757 9.06336 7.98281 9.85903 9.61335 11.46V18.7427ZM4.46061 8.67754C5.23181 8.36169 6.09105 8.11348 7.00687 7.9425C7.48963 8.09125 8.01825 8.29758 8.45372 8.59424C8.42465 9.0716 8.47071 9.60248 8.90713 9.94579C9.8405 10.7859 11.5728 10.1673 11.5461 9.00371V8.41638C11.9454 8.1926 12.393 8.03382 12.7955 7.90955C13.7879 8.07948 14.7128 8.33903 15.5395 8.67766C13.4721 8.74771 11.4407 9.52705 9.9999 10.8394C8.55895 9.52725 6.5269 8.74767 4.46061 8.67754ZM16.0517 19.2451C15.1031 18.8512 14.093 18.6398 13.08 18.6032C14.0215 18.4172 15.0373 18.3236 16.0482 18.3374C16.2258 18.604 16.2295 18.9761 16.0517 19.2451ZM16.7576 13.2094C16.5735 13.1105 16.6657 12.8694 16.8357 12.7619C16.9509 12.6835 17.1004 12.6744 17.3435 12.6744C17.3442 12.6744 17.3442 15.0014 17.3442 15.0014C16.8778 15.009 16.3073 14.6012 16.6957 14.2171C17.0857 13.935 17.1942 13.5292 16.7576 13.2094ZM17.3442 12.0084C16.2972 11.8874 15.3433 12.9641 16.2174 13.6861C15.2454 14.4781 16.092 15.6692 17.3442 15.6677V17.3769C17.3442 17.4703 17.3004 17.5562 17.2212 17.619C16.9413 17.8035 16.5339 17.6465 16.2068 17.6757C14.0794 17.6223 11.9546 18.0097 10.3864 18.7426V11.4599C12.0175 9.85826 14.5944 9.06236 17.0003 9.42312C17.1311 9.52446 17.3552 9.58241 17.3442 9.75705V12.0084ZM18.1173 15.0378V10.2998C19.6019 11.7405 19.6 13.5952 18.1173 15.0378Z" fill="black"/>
<path d="M15.4116 5.00508C15.6252 5.00508 15.7981 4.85588 15.7981 4.67186C15.7882 4.25029 16.2793 3.91644 16.7577 4.02381C17.4725 4.16125 17.5173 5.01064 16.9438 5.25614C16.4685 5.48197 16.1847 5.87556 16.1847 6.30901C16.1683 6.50287 16.3437 6.65807 16.5712 6.65671C16.7849 6.65671 16.9578 6.49303 16.9578 6.30901C16.9578 6.12206 17.0922 5.9465 17.3168 5.83976C17.9279 5.54966 18.2333 4.95627 18.077 4.36321C17.8635 3.43018 16.4376 3.02006 15.6071 3.62978C15.1938 3.86316 14.6218 4.92029 15.4116 5.00508ZM16.5712 7.67085C17.079 7.66237 17.0789 7.0127 16.5712 7.00441C16.0635 7.01277 16.0635 7.66243 16.5712 7.67085ZM1.88257 1.67287C2.09623 1.67287 2.26912 1.52367 2.26912 1.33965C2.25923 0.918165 2.75034 0.584048 3.22868 0.691598C3.94344 0.829045 3.98827 1.67843 3.41475 1.92393C2.93953 2.14976 2.65566 2.54335 2.65566 2.9768C2.63924 3.17066 2.81467 3.32586 3.0422 3.3245C3.25585 3.3245 3.42874 3.16082 3.42874 2.9768C3.42874 2.78985 3.56313 2.61429 3.78773 2.50756C4.39887 2.21745 4.70426 1.62406 4.54798 1.031C4.33423 0.097785 2.90928 -0.311704 2.07808 0.297568C1.66474 0.530949 1.09274 1.58808 1.88257 1.67287ZM3.04223 4.33864C3.54999 4.33016 3.54989 3.6805 3.0422 3.6722C2.53444 3.68056 2.53449 4.33022 3.04223 4.33864ZM11.4802 13.616C11.1731 13.6226 10.9798 13.2959 11.1688 13.0857C11.752 12.4004 12.5224 11.8628 13.3974 11.5312C13.9124 11.3376 14.4644 11.2075 15.0327 11.1627C15.5121 11.1617 15.5524 11.7819 15.0757 11.8272C13.8364 11.8671 12.2801 12.7885 11.7924 13.4798C11.7199 13.565 11.6033 13.616 11.4802 13.616ZM11.4802 16.2817C11.1731 16.2884 10.9798 15.9617 11.1688 15.7515C11.752 15.0662 12.5224 14.5286 13.3974 14.197C13.9122 14.0035 14.4638 13.8732 15.0319 13.8286C15.512 13.8274 15.5527 14.4475 15.0757 14.4929C13.8364 14.5328 12.2801 15.4543 11.7924 16.1456C11.7199 16.2308 11.6033 16.2817 11.4802 16.2817ZM8.70079 13.616C8.57773 13.616 8.46109 13.565 8.38861 13.4798C7.90042 12.7882 6.34474 11.8674 5.10521 11.8272C4.63048 11.7827 4.66729 11.1612 5.14831 11.1627C5.71636 11.2074 6.26846 11.3376 6.78355 11.5312C7.65856 11.8628 8.429 12.4004 9.01221 13.0859C9.20059 13.2955 9.00848 13.6231 8.70079 13.616ZM8.70079 16.2817C8.57773 16.2817 8.46109 16.2308 8.38861 16.1455C7.90042 15.454 6.34474 14.5332 5.10521 14.493C4.63018 14.4483 4.66736 13.8269 5.14907 13.8286C5.7167 13.873 6.26852 14.0035 6.78355 14.197C7.65856 14.5286 8.429 15.0662 9.01221 15.7516C9.20059 15.9613 9.00848 16.2889 8.70079 16.2817Z" fill="black"/>
</svg>
