<svg width="20" height="20" viewBox="0 0 20 20" fill="none" xmlns="http://www.w3.org/2000/svg">
<path d="M13.5405 15.7508C13.4861 15.5831 13.3408 15.4608 13.1661 15.4351L11.2665 15.1596L10.4158 13.438C10.338 13.2802 10.1764 13.1797 10.0003 13.1797C9.82341 13.1797 9.66258 13.2802 9.58433 13.438L8.7339 15.1596L6.83382 15.4351C6.65959 15.4605 6.51418 15.5831 6.45948 15.7508C6.40509 15.9185 6.45044 16.1026 6.57683 16.2258L7.95187 17.5666L7.62646 19.4576C7.5967 19.6317 7.66823 19.8072 7.81114 19.9113C7.95405 20.0153 8.14294 20.0289 8.29955 19.9466L10.0001 19.0537L11.6998 19.9466C11.7681 19.9824 11.8423 19.9996 11.9161 19.9996C12.0125 19.9996 12.1077 19.9698 12.1887 19.9113C12.3315 19.8072 12.4027 19.6319 12.3729 19.4581L12.0484 17.5667L13.4235 16.2258C13.5496 16.1026 13.5953 15.9185 13.5405 15.7508ZM11.2258 17.0736C11.1167 17.1799 11.067 17.3337 11.0929 17.4835L11.2997 18.6889L10.2156 18.1199C10.1483 18.0845 10.0741 18.0664 10.0003 18.0664C9.92607 18.0664 9.85189 18.0845 9.78394 18.1199L8.70035 18.6889L8.90747 17.4839C8.93334 17.3333 8.88378 17.1799 8.77406 17.0735L7.89697 16.2182L9.10867 16.0422C9.25969 16.0201 9.39029 15.9254 9.45761 15.7888L9.99981 14.6911L10.542 15.7888C10.6093 15.9254 10.7399 16.0204 10.8909 16.0422L12.1026 16.2182L11.2258 17.0736Z" fill="black"/>
<path d="M0.140005 17.0681L1.15689 18.0598L0.916576 19.4579C0.886342 19.6315 0.958033 19.8071 1.10079 19.9111C1.24354 20.0151 1.43336 20.0287 1.58968 19.9465L2.84674 19.2864L4.10316 19.9465C4.17096 19.9823 4.24514 19.9994 4.31948 19.9994C4.41532 19.9994 4.51101 19.9697 4.59205 19.9111C4.7345 19.8071 4.80603 19.6317 4.77626 19.4579L4.53642 18.0598L5.5533 17.0681C5.67922 16.9453 5.72489 16.7612 5.67019 16.5931C5.6158 16.4254 5.47055 16.3031 5.29585 16.2779L3.89121 16.0743L3.26299 14.802C3.1846 14.6433 3.02361 14.5434 2.84703 14.5434C2.67015 14.5434 2.50932 14.6433 2.43059 14.802L1.8019 16.0743L0.397262 16.2779C0.223026 16.3028 0.077623 16.4254 0.0229208 16.5931C-0.031937 16.7612 0.0134578 16.9453 0.140005 17.0681ZM2.17613 16.9569C2.32761 16.9344 2.45821 16.8401 2.52553 16.7035L2.84642 16.0544L3.16653 16.7035C3.23432 16.8401 3.36492 16.9347 3.51593 16.9569L4.23204 17.0605L3.71338 17.5662C3.60429 17.6726 3.55411 17.8263 3.57998 17.9766L3.70263 18.689L3.06209 18.3524C2.92712 18.2817 2.76567 18.2817 2.63025 18.3524L1.98971 18.689L2.11236 17.9766C2.13823 17.826 2.08836 17.6726 1.97895 17.5662L1.46029 17.0605L2.17613 16.9569Z" fill="black"/>
<path d="M19.6024 16.2779L18.1982 16.0743L17.5692 14.8021C17.491 14.6433 17.3298 14.5434 17.1532 14.5434C16.9768 14.5434 16.8155 14.6433 16.7373 14.8021L16.1086 16.0743L14.7044 16.2779C14.5297 16.3028 14.3843 16.4254 14.3296 16.5931C14.2752 16.7613 14.3206 16.9454 14.447 17.0682L15.4638 18.0598L15.224 19.4579C15.1938 19.6316 15.2654 19.8071 15.4082 19.9111C15.4892 19.9698 15.5846 19.9994 15.6808 19.9994C15.755 19.9994 15.8288 19.9821 15.8971 19.9465L17.1535 19.2864L18.4106 19.9465C18.5667 20.0289 18.7566 20.0152 18.8995 19.9111C19.0424 19.8071 19.1134 19.6317 19.0837 19.4579L18.8434 18.0598L19.8603 17.0681C19.9866 16.9453 20.0318 16.7612 19.9771 16.5931C19.9224 16.4254 19.7771 16.3028 19.6024 16.2779ZM18.0208 17.5662C17.9117 17.6726 17.8615 17.8263 17.8874 17.9766L18.0101 18.689L17.3691 18.3524C17.3018 18.3171 17.2276 18.2995 17.1532 18.2995C17.079 18.2995 17.0049 18.3171 16.9374 18.3524L16.2968 18.689L16.4195 17.9766C16.4449 17.826 16.3955 17.6726 16.2861 17.5662L15.7676 17.0605L16.4833 16.9569C16.6347 16.9343 16.7653 16.8401 16.8327 16.7035L17.1532 16.0544L17.4738 16.7035C17.5416 16.8401 17.6722 16.9346 17.8232 16.9569L18.5393 17.0605L18.0208 17.5662Z" fill="black"/>
<path d="M15.4495 10.6122C15.7397 11.5815 15.784 12.9068 15.7844 12.9201C15.7922 13.171 15.9981 13.3697 16.2479 13.3697C16.2526 13.3697 16.2579 13.3697 16.2626 13.3692C16.5183 13.3615 16.7198 13.1481 16.712 12.892C16.7099 12.8328 16.664 11.4336 16.338 10.3462C15.9803 9.15085 14.0011 8.49265 13.1647 8.26415L13.1781 8.21883C13.2283 8.05016 13.1781 7.86825 13.05 7.748L12.4922 7.22812C12.3124 7.05991 12.0323 7.06256 11.8545 7.23248L9.9814 9.02731L8.1083 7.23248C7.93048 7.06225 7.65013 7.06007 7.47011 7.2289L6.91392 7.74878C6.78581 7.86823 6.7361 8.05045 6.78628 8.21865L6.80217 8.27332C5.94751 8.50959 4.01348 9.16575 3.66064 10.3458C3.65425 10.3679 3.64942 10.3897 3.64599 10.4123L3.29253 12.8392C3.25544 13.0921 3.43108 13.3273 3.68464 13.3643C3.70723 13.3679 3.72999 13.3695 3.75149 13.3695C3.97841 13.3695 4.17647 13.2034 4.20999 12.9728L4.55815 10.5844C4.76496 10.0091 6.05942 9.44189 7.06557 9.16323L7.47032 10.5291C7.50788 10.654 7.59577 10.7581 7.71375 10.8146C7.77718 10.8458 7.84622 10.8612 7.91557 10.8612C7.97433 10.8612 8.03324 10.85 8.08856 10.8277L8.76461 10.5553L8.91531 10.9562L7.79681 13.454C7.69192 13.6883 7.79681 13.9619 8.03074 14.0666C8.09229 14.0942 8.15666 14.1077 8.21962 14.1077C8.39697 14.1077 8.56638 14.0055 8.64368 13.8331L9.71451 11.4412H10.2612L11.3462 13.8288C11.4522 14.0625 11.7272 14.165 11.9605 14.059C12.1935 13.9532 12.2965 13.6786 12.1909 13.4455L11.0583 10.9544L11.2064 10.5587L11.8742 10.8278C11.9949 10.8766 12.1313 10.8722 12.249 10.8147C12.3666 10.7582 12.4548 10.6546 12.4919 10.5293L12.9006 9.15339C13.926 9.43202 15.2721 10.0193 15.4495 10.6122ZM7.75666 8.22946L7.783 8.20547L9.06559 9.43414L8.21516 9.77693L7.75666 8.22946ZM10.2374 10.5013H9.73529L9.62527 10.2087L9.98106 10.0649L10.3456 10.2121L10.2374 10.5013ZM11.7476 9.77693L10.8964 9.43413L12.1799 8.20499L12.2066 8.23037L11.7476 9.77693Z" fill="black"/>
<path d="M14.7996 12.1871C14.7996 11.9311 14.5917 11.7236 14.3353 11.7236H13.0778C12.8216 11.7236 12.614 11.9309 12.614 12.1871C12.614 12.4433 12.8214 12.6506 13.0778 12.6506H14.3353C14.5915 12.6505 14.7996 12.4432 14.7996 12.1871Z" fill="black"/>
<path d="M6.85899 4.08494C6.92102 4.6545 7.03151 5.15412 7.19764 5.61467C7.42985 6.25105 7.87106 6.8563 8.47417 7.36509C8.82545 7.66132 9.13418 7.89494 9.64239 7.97902C9.75584 7.99709 9.86197 8.00612 9.96732 8.00612C10.4353 8.00612 10.7826 7.82468 11.0863 7.62938C11.8219 7.15981 12.3985 6.47264 12.7097 5.69483C13.004 4.96156 13.1475 4.17288 13.148 3.28264L13.1489 3.21878C13.1503 3.15851 13.1511 3.09714 13.1475 3.03905C13.123 2.51387 12.9616 2.00862 12.6686 1.53782C12.3938 1.09458 12.0259 0.729041 11.5723 0.451339C11.1076 0.169905 10.6052 0.0185388 10.0809 0.00171321L9.97304 0C9.49631 0 9.03563 0.111204 8.60518 0.329713C8.01719 0.625477 7.55199 1.07012 7.22253 1.65152C6.96273 2.11207 6.82559 2.59566 6.81514 3.08983C6.80782 3.42452 6.82314 3.75991 6.85899 4.08494ZM8.03047 2.10774C8.2672 1.68925 8.60071 1.36964 9.02398 1.15705C9.32413 1.00458 9.64393 0.927327 9.97308 0.927327L10.0499 0.928262C10.4144 0.94041 10.7646 1.04632 11.0891 1.24302C11.4161 1.44347 11.6819 1.70652 11.8803 2.02689C12.0921 2.36704 12.2036 2.71231 12.2212 3.08798C12.2233 3.12644 12.2221 3.16398 12.2212 3.20105L12.2202 3.2825C12.2193 4.05205 12.0976 4.72862 11.8482 5.35017C11.6084 5.95043 11.1602 6.48199 10.5854 6.84877C10.2436 7.06821 10.063 7.10886 9.79155 7.06401C9.52443 7.02055 9.36749 6.90624 9.07234 6.65688C8.59218 6.25211 8.2454 5.78159 8.06886 5.29848C7.9286 4.91005 7.83447 4.48064 7.78054 3.98445C7.74844 3.69865 7.73612 3.40413 7.74205 3.10964C7.75015 2.76996 7.84673 2.43293 8.03047 2.10774Z" fill="black"/>
</svg>
