<svg width="20" height="20" viewBox="0 0 20 20" fill="none" xmlns="http://www.w3.org/2000/svg">
<path fill-rule="evenodd" clip-rule="evenodd" d="M9.99987 9.8572C10.5595 9.8572 11.1067 9.99246 11.572 10.2459C12.0374 10.4993 12.4001 10.8594 12.6142 11.2808C12.8284 11.7022 12.8844 12.1659 12.7753 12.6132C12.6661 13.0606 12.3966 13.4715 12.0008 13.794C11.6051 14.1165 11.1009 14.3362 10.5519 14.4252C10.003 14.5141 9.43404 14.4685 8.91697 14.2939C8.3999 14.1194 7.95795 13.8238 7.64701 13.4446C7.33608 13.0653 7.17011 12.6194 7.17011 12.1633C7.17011 11.5517 7.46825 10.9651 7.99893 10.5327C8.52961 10.1002 9.24938 9.8572 9.99987 9.8572ZM4.87986 5.65273C4.87807 5.70003 4.89479 5.74657 4.92761 5.78561C4.96043 5.82464 5.00765 5.85416 5.06242 5.86987L6.67728 6.36959L6.86821 4.47366L4.87986 3.90064V5.65273ZM7.26808 6.55241L9.8978 7.36621C9.96333 7.38755 10.0364 7.38755 10.1019 7.36621L14.9373 5.86987C14.9921 5.85416 15.0393 5.82465 15.0722 5.78561C15.105 5.74657 15.1217 5.70003 15.1199 5.65273V3.90064L10.2968 5.29056C10.105 5.34803 9.89443 5.34803 9.70267 5.29056L7.46005 4.64427L7.26793 6.55241H7.26808ZM15.1199 6.34183C15.1199 6.51326 15.1605 6.68469 14.9373 6.75408L10.1019 8.25042C10.0364 8.2718 9.96332 8.2718 9.8978 8.25042L7.18178 7.40992L7.21649 7.0651L9.68434 7.82862C9.88721 7.89389 10.1129 7.89389 10.3158 7.82862L15.1201 6.34192L15.1199 6.34183ZM6.6257 6.88208L6.59099 7.22694L5.06242 6.75392C4.83924 6.68486 4.87986 6.5131 4.87986 6.34167L6.6257 6.88208ZM6.30516 9.19691V10.4286H7.08898V9.19679C7.08898 9.11208 7.04769 9.03084 6.97419 8.97095C6.90069 8.91105 6.80101 8.8774 6.69707 8.8774C6.59313 8.8774 6.49344 8.91105 6.41995 8.97095C6.34645 9.03084 6.30516 9.11208 6.30516 9.19679V9.19691ZM5.69764 10.6763C5.69764 10.742 5.72965 10.805 5.78664 10.8515C5.84362 10.8979 5.92091 10.924 6.0015 10.924H7.39299C7.47358 10.924 7.55087 10.8979 7.60785 10.8515C7.66484 10.805 7.69685 10.742 7.69685 10.6763V9.19691C7.69684 9.03545 7.63799 8.87764 7.52776 8.74347C7.41753 8.60931 7.26089 8.50486 7.07771 8.44336L7.13015 7.92225L9.68434 8.71262C9.88722 8.77787 10.1129 8.77787 10.3158 8.71262L15.1512 7.21629C15.3211 7.16479 15.4676 7.072 15.5707 6.95047C15.6738 6.82894 15.7286 6.68453 15.7278 6.53677V3.72549L18.0694 3.05063C18.1409 3.03014 18.2057 2.99664 18.259 2.95268C18.3122 2.90872 18.3525 2.85545 18.3768 2.79691C18.401 2.73837 18.4085 2.6761 18.3988 2.61483C18.3891 2.55356 18.3624 2.49489 18.3208 2.44328L18.3213 2.44299C18.2614 2.36836 18.1728 2.31208 18.0694 2.28303L10.2969 0.0431014C10.1052 -0.0143671 9.89458 -0.0143671 9.70282 0.0431014L1.9304 2.28303C1.85888 2.30352 1.79403 2.33702 1.74077 2.38098C1.6875 2.42494 1.64723 2.47822 1.62299 2.53675C1.59876 2.59529 1.59121 2.65756 1.60091 2.71883C1.61061 2.78011 1.6373 2.83877 1.67897 2.89038L1.67842 2.89067C1.73831 2.96529 1.82696 3.02157 1.9304 3.05063L4.27219 3.72549V6.53677C4.27129 6.68454 4.32611 6.82897 4.42923 6.95052C4.53235 7.07207 4.6788 7.16487 4.84876 7.21637L6.53935 7.73952L6.47259 8.40299C6.25236 8.44451 6.05587 8.54559 5.91514 8.68976C5.77442 8.83393 5.69775 9.01269 5.69764 9.19691V10.6763ZM9.82418 2.46565L7.14237 4.02831L2.41812 2.66683L9.90471 0.509308C9.96608 0.490613 10.0337 0.490613 10.095 0.509308L17.5816 2.66683L10.095 4.82452C10.0337 4.84321 9.96608 4.84321 9.90471 4.82452L7.83959 4.22937L10.1756 2.86822C10.2085 2.84959 10.2366 2.82582 10.2582 2.79828C10.2798 2.77075 10.2944 2.74 10.3013 2.70782C10.3082 2.67563 10.3072 2.64266 10.2983 2.6108C10.2895 2.57893 10.2729 2.54882 10.2497 2.52221C10.2264 2.49559 10.197 2.47299 10.1629 2.45573C10.1289 2.43847 10.091 2.42688 10.0514 2.42164C10.0119 2.4164 9.9714 2.4176 9.93241 2.42519C9.89342 2.43278 9.85667 2.4466 9.82428 2.46585L9.82418 2.46565ZM6.209 15.243C5.89322 15.1192 5.54702 15.0555 5.19659 15.0567H2.9737C2.34685 15.0585 1.74627 15.2622 1.30302 15.6234C0.859766 15.9846 0.609822 16.4741 0.607723 16.985V17.2135C1.16906 17.6381 1.8402 17.9544 2.57163 18.1393C3.30306 18.3242 4.07609 18.3729 4.83368 18.2817C4.78062 18.2359 4.75112 18.1752 4.75124 18.1122V17.6757C4.75187 17.2067 4.88345 16.7439 5.13601 16.3224C5.38857 15.9009 5.7555 15.5318 6.209 15.243V15.243ZM5.66363 18.2275C5.55972 18.1567 5.45815 18.0834 5.35892 18.0075V17.6757C5.36161 16.9874 5.69831 16.3279 6.29551 15.8413C6.89271 15.3546 7.70191 15.0802 8.54648 15.078H11.4533C11.6628 15.0779 11.8717 15.0947 12.0771 15.1283V15.1273C12.7988 15.247 13.4479 15.5658 13.9148 16.03C14.3818 16.4942 14.6381 17.0754 14.6406 17.6757V18.0072L14.3385 18.225L14.339 18.2255L13.8499 18.5282C12.6794 19.1861 11.2848 19.5275 9.86324 19.5042C8.44167 19.4809 7.06506 19.094 5.92802 18.3982L5.66373 18.2275H5.66363ZM5.40855 18.6944C4.47403 18.8751 3.49875 18.8612 2.57257 18.6539C1.64639 18.4467 0.799102 18.0528 0.108783 17.5086C0.0746955 17.4854 0.0472834 17.4564 0.0284856 17.4236C0.00968787 17.3908 -3.65533e-05 17.355 1.03249e-07 17.3188V16.985C0.00210197 16.3427 0.316077 15.7273 0.873299 15.2732C1.43052 14.8191 2.18567 14.5632 2.9737 14.5615H5.19679C5.75892 14.5623 6.30922 14.6932 6.78366 14.9389C7.32684 14.7047 7.93213 14.5825 8.54663 14.5829H11.4533C11.7026 14.5828 11.9513 14.6029 12.1958 14.6429V14.6438C12.5513 14.7016 12.8946 14.801 13.2153 14.9389C13.6898 14.6924 14.2407 14.5615 14.8034 14.5614H17.0263C17.814 14.5639 18.5686 14.82 19.1256 15.2739C19.6826 15.7279 19.9969 16.3428 20 16.9848V17.3186H19.9991C19.9991 17.4497 19.8799 17.5202 19.7609 17.6084L19.5762 17.7395L19.5757 17.739C18.2172 18.6791 16.3273 19.0292 14.5912 18.6943C13.2858 19.5398 11.6675 20 10 20C8.33254 20 6.71424 19.5398 5.4088 18.6943L5.40855 18.6944ZM4.08517 10.6598C4.5273 10.6598 4.95949 10.7667 5.32711 10.9669C5.69472 11.167 5.98123 11.4516 6.15042 11.7845C6.31962 12.1173 6.36388 12.4836 6.27763 12.837C6.19138 13.1904 5.97848 13.515 5.66585 13.7698C5.35322 14.0246 4.95491 14.1981 4.52128 14.2684C4.08765 14.3387 3.63818 14.3027 3.22971 14.1648C2.82123 14.0269 2.4721 13.7934 2.22645 13.4938C1.98081 13.1942 1.84968 12.842 1.84966 12.4817C1.84969 11.9985 2.08523 11.5352 2.50446 11.1935C2.9237 10.8519 3.49229 10.6599 4.08517 10.6599V10.6598ZM5.23621 11.5436C5.00856 11.3581 4.71853 11.2317 4.40278 11.1806C4.08703 11.1294 3.75976 11.1557 3.46233 11.2561C3.16491 11.3565 2.9107 11.5265 2.73185 11.7447C2.553 11.9628 2.45754 12.2193 2.45754 12.4816C2.45754 12.744 2.553 13.0005 2.73185 13.2186C2.9107 13.4367 3.16491 13.6068 3.46233 13.7072C3.75976 13.8076 4.08703 13.8339 4.40278 13.7827C4.71853 13.7315 5.00856 13.6052 5.23621 13.4197C5.38737 13.2965 5.50729 13.1502 5.5891 12.9893C5.67091 12.8283 5.71302 12.6558 5.71302 12.4816C5.71302 12.3074 5.67091 12.1349 5.5891 11.974C5.50729 11.813 5.38737 11.6668 5.23621 11.5436ZM15.165 18.2817C15.8772 18.3676 16.6036 18.3299 17.2967 18.1712C17.9898 18.0125 18.634 17.7364 19.1872 17.3609L19.1867 17.3605L19.392 17.2133V16.985C19.3907 16.4739 19.141 15.9841 18.6976 15.6227C18.2542 15.2613 17.6531 15.0578 17.026 15.0567H14.803C14.4522 15.0562 14.1059 15.12 13.7895 15.2433C14.243 15.5321 14.6101 15.9011 14.8629 16.3225C15.1157 16.7439 15.2476 17.2066 15.2487 17.6757V18.1122H15.2478C15.2479 18.1752 15.2183 18.2359 15.1651 18.2817H15.165ZM15.9148 10.6598C16.3569 10.6599 16.7891 10.7667 17.1567 10.9669C17.5243 11.1671 17.8108 11.4517 17.9799 11.7846C18.1491 12.1175 18.1933 12.4838 18.1071 12.8371C18.0208 13.1905 17.8079 13.5151 17.4952 13.7699C17.1826 14.0246 16.7843 14.1981 16.3507 14.2684C15.917 14.3387 15.4676 14.3026 15.0591 14.1648C14.6507 14.0269 14.3015 13.7934 14.0559 13.4938C13.8103 13.1942 13.6791 12.842 13.6791 12.4817C13.6791 12.2424 13.7369 12.0055 13.8493 11.7845C13.9616 11.5634 14.1263 11.3626 14.3339 11.1934C14.5415 11.0242 14.788 10.89 15.0593 10.7985C15.3305 10.7069 15.6212 10.6598 15.9148 10.6598ZM17.0659 11.5436C16.8382 11.3581 16.5482 11.2317 16.2324 11.1806C15.9167 11.1294 15.5894 11.1557 15.292 11.2561C14.9946 11.3565 14.7404 11.5265 14.5615 11.7447C14.3827 11.9628 14.2872 12.2193 14.2872 12.4816C14.2872 12.744 14.3827 13.0005 14.5615 13.2186C14.7404 13.4367 14.9946 13.6068 15.292 13.7072C15.5894 13.8076 15.9167 13.8339 16.2324 13.7827C16.5482 13.7315 16.8382 13.6052 17.0659 13.4197C17.217 13.2965 17.3369 13.1502 17.4188 12.9893C17.5006 12.8283 17.5427 12.6558 17.5427 12.4816C17.5427 12.3074 17.5006 12.1349 17.4188 11.974C17.3369 11.813 17.217 11.6668 17.0659 11.5436ZM11.5716 10.8828C11.2608 10.6295 10.8649 10.4571 10.4338 10.3872C10.0028 10.3173 9.556 10.3532 9.14996 10.4903C8.74393 10.6273 8.39688 10.8594 8.15271 11.1573C7.90854 11.4551 7.77822 11.8052 7.77822 12.1634C7.77822 12.5215 7.90854 12.8717 8.15271 13.1695C8.39688 13.4673 8.74393 13.6994 9.14996 13.8365C9.556 13.9735 10.0028 14.0094 10.4338 13.9395C10.8649 13.8696 11.2608 13.6972 11.5716 13.4439C11.9883 13.1042 12.2223 12.6436 12.2222 12.1633C12.2221 11.683 11.9879 11.2224 11.5712 10.8828H11.5716Z" fill="black"/>
</svg>
