<svg width="20" height="20" viewBox="0 0 20 20" fill="none" xmlns="http://www.w3.org/2000/svg">
<path d="M14.4796 17.5892C14.4796 17.7797 14.325 17.934 14.1344 17.934C13.9438 17.934 13.7894 17.7797 13.7894 17.5892C13.7894 17.3988 13.9438 17.2444 14.1344 17.2444C14.325 17.2444 14.4796 17.3988 14.4796 17.5892Z" fill="black"/>
<path d="M15.8594 17.5892C15.8594 17.7797 15.7048 17.934 15.5142 17.934C15.3236 17.934 15.1692 17.7797 15.1692 17.5892C15.1692 17.3988 15.3236 17.2444 15.5142 17.2444C15.7048 17.2444 15.8594 17.3988 15.8594 17.5892Z" fill="black"/>
<path d="M17.2396 17.5892C17.2396 17.7797 17.085 17.934 16.8945 17.934C16.7039 17.934 16.5495 17.7797 16.5495 17.5892C16.5495 17.3988 16.7039 17.2444 16.8945 17.2444C17.085 17.2444 17.2396 17.3988 17.2396 17.5892Z" fill="black"/>
<path d="M18.6199 17.5892C18.6199 17.7797 18.4653 17.934 18.2747 17.934C18.0841 17.934 17.9297 17.7797 17.9297 17.5892C17.9297 17.3988 18.0841 17.2444 18.2747 17.2444C18.4653 17.2444 18.6199 17.3988 18.6199 17.5892Z" fill="black"/>
<path d="M18.2746 14.1371V13.7923C18.2746 13.6018 18.1201 13.4475 17.9296 13.4475C17.739 13.4475 17.5846 13.6018 17.5846 13.7923V14.1371H14.8242V13.7923C14.8242 13.6018 14.6698 13.4475 14.4792 13.4475C14.2887 13.4475 14.134 13.6018 14.134 13.7923V14.1371H12.7541C12.5635 14.1371 12.4089 14.2916 12.4089 14.4821V19.655C12.4089 19.7466 12.4454 19.8342 12.5101 19.8989C12.5746 19.9636 12.6625 20 12.7541 20H19.6548C19.7464 20 19.8341 19.9636 19.8988 19.8989C19.9635 19.8342 20 19.7466 20 19.655V14.4821C20 14.3905 19.9635 14.3029 19.8988 14.2382C19.8341 14.1736 19.7464 14.1371 19.6548 14.1371H18.2746ZM13.0989 14.8269H14.1341H14.1339C14.1339 15.0174 14.2885 15.1717 14.4791 15.1717C14.6696 15.1717 14.8241 15.0174 14.8241 14.8269H17.5844C17.5844 15.0174 17.7388 15.1717 17.9294 15.1717C18.12 15.1717 18.2744 15.0174 18.2744 14.8269H19.3096V15.8615H13.0987L13.0989 14.8269ZM13.0989 19.3103V16.5513H19.3098V19.3103H13.0989Z" fill="black"/>
<path d="M9.99391 2.47397C9.79821 2.66974 9.53233 2.77908 9.25545 2.77755C8.6348 2.77755 8.06122 3.10834 7.75099 3.64566C7.44058 4.18284 7.44058 4.84474 7.75099 5.38209C8.06123 5.91927 8.6348 6.25021 9.25545 6.25021H10.3389C10.6134 6.25021 10.8767 6.35921 11.0708 6.55327C11.265 6.74733 11.3741 7.01037 11.3741 7.28483C11.3732 7.74583 11.5571 8.18785 11.8846 8.51248C12.2099 8.83864 12.6522 9.02122 13.1129 9.01934H17.2397C17.2308 10.3858 16.8822 11.7285 16.2252 12.9267C16.1795 13.0071 16.1675 13.1026 16.1922 13.1917C16.2166 13.2811 16.2757 13.3569 16.3563 13.4026C16.524 13.4979 16.7371 13.4392 16.8325 13.2715C17.5553 11.9511 17.9327 10.4694 17.9296 8.96423V8.68838C17.8637 6.7608 17.1804 4.90529 15.9803 3.39455C14.7803 1.88417 13.1268 0.798725 11.2637 0.297687C9.38699 -0.19805 7.40017 -0.072118 5.60113 0.656711C3.80217 1.38538 2.28829 2.67773 1.28666 4.33952C0.285036 6.00135 -0.150338 7.94294 0.0460256 9.87297C0.24224 11.8031 1.05962 13.6174 2.37525 15.0441C3.50491 16.2711 4.95444 17.1589 6.56112 17.6079C8.16779 18.0568 9.86795 18.0491 11.4706 17.5857C11.6612 17.5323 11.7723 17.3346 11.7191 17.1442C11.6656 16.9537 11.4679 16.8427 11.2773 16.8959C9.93278 17.2869 8.51085 17.3305 7.14473 17.023C5.7786 16.7153 4.5128 16.0666 3.46564 15.1372H5.88095C6.33845 15.1372 6.77725 14.9555 7.10085 14.632C7.42445 14.3088 7.60609 13.8702 7.60609 13.4128C7.60609 12.9555 7.42443 12.5169 7.10085 12.1937C6.77726 11.8702 6.33841 11.6885 5.88095 11.6885H4.78381C4.41022 11.6885 4.06507 11.4893 3.87826 11.166C3.69164 10.8428 3.69164 10.4444 3.87826 10.1211C4.06506 9.79787 4.41024 9.59866 4.78381 9.59866C5.24456 9.60038 5.68682 9.41778 6.01209 9.0918C6.34185 8.76752 6.52763 8.32463 6.52763 7.86227C6.52763 7.40005 6.34186 6.95701 6.01209 6.63292C5.68678 6.30675 5.24452 6.12417 4.78381 6.12588H1.18142C1.85875 4.27957 3.17179 2.73448 4.88515 1.76763C6.5985 0.80095 8.60036 0.475453 10.5319 0.849534C10.3727 1.11307 10.2869 1.41427 10.2835 1.72211C10.2925 2.00156 10.1879 2.27278 9.99377 2.47387L9.99391 2.47397ZM4.81834 6.80536V6.80553C5.09691 6.80382 5.36435 6.91454 5.56023 7.11236C5.75935 7.3071 5.87167 7.57371 5.87167 7.85216C5.87167 8.13058 5.75935 8.39718 5.56023 8.59177C5.36435 8.78977 5.09693 8.90032 4.81834 8.89878C4.19835 8.89878 3.6253 9.22939 3.31524 9.76605C3.00534 10.3029 3.00534 10.9641 3.31524 11.5008C3.62531 12.0374 4.19835 12.3681 4.81834 12.3681H5.93279C6.21136 12.3665 6.47879 12.4771 6.67467 12.6751C6.87055 12.8705 6.97995 13.1364 6.97824 13.413C6.97824 13.6875 6.86917 13.9506 6.67519 14.1445C6.48103 14.3386 6.21768 14.4476 5.94325 14.4476H2.77234C1.85908 13.4215 1.21581 12.1846 0.900096 10.8481C0.584547 9.5116 0.606463 8.11762 0.964299 6.79171L4.81834 6.80536ZM10.974 1.72226C10.9812 1.4642 11.0844 1.21828 11.2638 1.03245C12.8775 1.50733 14.3094 2.45982 15.3708 3.7643C16.4321 5.06879 17.073 6.66421 17.2088 8.3401H13.1339C12.8618 8.33805 12.6015 8.22904 12.4093 8.03669C12.2139 7.83921 12.1037 7.57294 12.1023 7.29519C12.1023 6.83792 11.9205 6.39935 11.5969 6.07591C11.2734 5.75265 10.8346 5.57093 10.3771 5.57093H9.23841C8.96002 5.57247 8.69258 5.46192 8.49653 5.26393C8.2974 5.06936 8.18509 4.80276 8.18509 4.52431C8.18509 4.24586 8.2974 3.97911 8.49653 3.78452C8.69257 3.58669 8.96 3.47597 9.23841 3.47752C9.69605 3.47752 10.1349 3.29595 10.4583 2.97253C10.7819 2.64928 10.9636 2.21066 10.9636 1.75326L10.974 1.72226Z" fill="black"/>
</svg>
