<svg width="20" height="20" viewBox="0 0 20 20" fill="none" xmlns="http://www.w3.org/2000/svg">
<path d="M8.33333 19.9998C9.50633 19.9998 10.4773 19.1288 10.64 17.9998H14.1953L13.7643 18.4308L14.2357 18.9021L15.2357 17.9021C15.2667 17.8713 15.2914 17.8345 15.3082 17.7941C15.325 17.7536 15.3337 17.7103 15.3337 17.6665C15.3337 17.6227 15.325 17.5793 15.3082 17.5389C15.2914 17.4984 15.2667 17.4617 15.2357 17.4308L14.2357 16.4308L13.7643 16.9021L14.1953 17.3331H10.64C10.4773 16.2041 9.50633 15.3331 8.33333 15.3331C7.04666 15.3331 5.99999 16.3798 5.99999 17.6665C5.99999 18.9531 7.04666 19.9998 8.33333 19.9998ZM8.33333 15.9998C9.25233 15.9998 9.99999 16.7475 9.99999 17.6665C9.99999 18.5855 9.25233 19.3331 8.33333 19.3331C7.41433 19.3331 6.66666 18.5855 6.66666 17.6665C6.66666 16.7475 7.41433 15.9998 8.33333 15.9998Z" fill="black"/>
<path d="M17.6667 20C18.9533 20 20 18.9533 20 17.6667C20 16.38 18.9533 15.3333 17.6667 15.3333C16.38 15.3333 15.3333 16.38 15.3333 17.6667C15.3333 18.9533 16.38 20 17.6667 20ZM17.6667 16C18.5857 16 19.3333 16.7477 19.3333 17.6667C19.3333 18.5857 18.5857 19.3333 17.6667 19.3333C16.7477 19.3333 16 18.5857 16 17.6667C16 16.7477 16.7477 16 17.6667 16ZM7 7.66667C5.827 7.66667 4.856 8.53767 4.69333 9.66667H4.16667C1.869 9.66667 0 11.5357 0 13.8333C0 16.131 1.869 18 4.16667 18H4.862L4.431 18.431L4.90233 18.9023L5.90233 17.9023C5.93339 17.8714 5.95805 17.8347 5.97487 17.7943C5.99169 17.7538 6.00034 17.7105 6.00034 17.6667C6.00034 17.6229 5.99169 17.5795 5.97487 17.539C5.95805 17.4986 5.93339 17.4619 5.90233 17.431L4.90233 16.431L4.431 16.9023L4.862 17.3333H4.16667C2.23667 17.3333 0.666667 15.7633 0.666667 13.8333C0.666667 11.9033 2.23667 10.3333 4.16667 10.3333H4.69333C4.856 11.4623 5.827 12.3333 7 12.3333C8.28667 12.3333 9.33333 11.2867 9.33333 10C9.33333 8.71333 8.28667 7.66667 7 7.66667ZM7 11.6667C6.081 11.6667 5.33333 10.919 5.33333 10C5.33333 9.081 6.081 8.33333 7 8.33333C7.919 8.33333 8.66667 9.081 8.66667 10C8.66667 10.919 7.919 11.6667 7 11.6667ZM8.23567 1.09767L7.76433 1.569L8.19533 2H4.64C4.47733 0.871 3.50667 0 2.33333 0C1.04667 0 0 1.04667 0 2.33333C0 3.62 1.04667 4.66667 2.33333 4.66667C3.50633 4.66667 4.47733 3.79567 4.64 2.66667H8.19533L7.76433 3.09767L8.23567 3.569L9.23567 2.569C9.26673 2.53812 9.29138 2.5014 9.3082 2.46095C9.32502 2.42051 9.33368 2.37714 9.33368 2.33333C9.33368 2.28953 9.32502 2.24616 9.3082 2.20572C9.29138 2.16527 9.26673 2.12855 9.23567 2.09767L8.23567 1.09767ZM2.33333 4C1.41433 4 0.666667 3.25233 0.666667 2.33333C0.666667 1.41433 1.41433 0.666667 2.33333 0.666667C3.25233 0.666667 4 1.41433 4 2.33333C4 3.25233 3.25233 4 2.33333 4Z" fill="black"/>
<path d="M20 6.16667C20 3.869 18.131 2 15.8333 2H13.9733C13.8107 0.871 12.84 0 11.6667 0C10.38 0 9.33333 1.04667 9.33333 2.33333C9.33333 3.62 10.38 4.66667 11.6667 4.66667C12.8397 4.66667 13.8107 3.79567 13.9733 2.66667H15.8333C17.7633 2.66667 19.3333 4.23667 19.3333 6.16667C19.3333 8.09667 17.7633 9.66667 15.8333 9.66667H10.4713L10.9023 9.23567L10.431 8.76433L9.431 9.76433C9.39994 9.79522 9.37529 9.83194 9.35847 9.87238C9.34165 9.91283 9.33299 9.9562 9.33299 10C9.33299 10.0438 9.34165 10.0872 9.35847 10.1276C9.37529 10.1681 9.39994 10.2048 9.431 10.2357L10.431 11.2357L10.9023 10.7643L10.4713 10.3333H15.8333C18.131 10.3333 20 8.46433 20 6.16667ZM11.6667 4C10.7477 4 10 3.25233 10 2.33333C10 1.41433 10.7477 0.666667 11.6667 0.666667C12.5857 0.666667 13.3333 1.41433 13.3333 2.33333C13.3333 3.25233 12.5857 4 11.6667 4Z" fill="black"/>
</svg>
