<svg width="20" height="20" viewBox="0 0 20 20" fill="none" xmlns="http://www.w3.org/2000/svg">
<path d="M20 5.38462V1.92308C20 0.862692 19.2523 0 18.3333 0H11.3333C11.2676 0.000379642 11.2033 0.02316 11.1487 0.065484C11.0941 0.107808 11.0516 0.167791 11.0264 0.237911C11.0013 0.30803 10.9946 0.385163 11.0073 0.459637C11.0199 0.53411 11.0514 0.602608 11.0977 0.656538L13.5287 3.46154H11.7213C10.8307 2.50846 9.64167 1.92308 8.33333 1.92308C7.025 1.92308 5.83567 2.50846 4.94533 3.46154H2.33333C1.782 3.46154 1.33333 3.97923 1.33333 4.61538V16.9231H0.333333C0.244928 16.9231 0.160143 16.9636 0.0976311 17.0357C0.0351189 17.1079 0 17.2057 0 17.3077V18.0769C0 19.1373 0.747667 20 1.66667 20H18.3333C19.2523 20 20 19.1373 20 18.0769V17.3077C20 17.2057 19.9649 17.1079 19.9024 17.0357C19.8399 16.9636 19.7551 16.9231 19.6667 16.9231H18.6667V7.26885C19.0428 7.17952 19.3807 6.94338 19.6236 6.60018C19.8664 6.25697 19.9994 5.82769 20 5.38462ZM18.3333 0.769231C18.8847 0.769231 19.3333 1.28692 19.3333 1.92308V5.38462C19.3333 6.02077 18.8847 6.53846 18.3333 6.53846H15.3333C14.782 6.53846 14.3333 6.02077 14.3333 5.38462V3.46154C14.3334 3.41102 14.3248 3.361 14.308 3.31433C14.2913 3.26767 14.2667 3.22528 14.2357 3.18962L12.138 0.769231H18.3333ZM5.33333 8.07692H6C6.25884 8.07688 6.51411 8.00723 6.74555 7.8735C6.977 7.73978 7.17825 7.54566 7.33333 7.30654C7.48842 7.54566 7.68967 7.73978 7.92111 7.8735C8.15256 8.00723 8.40783 8.07688 8.66667 8.07692H11.3333V10C11.3333 11.6965 10.137 13.0769 8.66667 13.0769H8C6.52967 13.0769 5.33333 11.6965 5.33333 10V8.07692ZM5.353 7.30769C5.51967 5.57962 6.792 4.23077 8.33333 4.23077C9.87467 4.23077 11.147 5.57962 11.3137 7.30769H8.66667C8.11533 7.30769 7.66667 6.79 7.66667 6.15385C7.66667 6.05184 7.63155 5.95401 7.56904 5.88188C7.50652 5.80975 7.42174 5.76923 7.33333 5.76923C7.24493 5.76923 7.16014 5.80975 7.09763 5.88188C7.03512 5.95401 7 6.05184 7 6.15385C7 6.79 6.55133 7.30769 6 7.30769H5.353ZM10.264 14.0535L8.33333 15.3262L6.40267 14.0531L6.57133 13.4696C7.01715 13.7168 7.50536 13.8455 8 13.8462H8.66667C9.1613 13.8455 9.64951 13.7168 10.0953 13.4696L10.264 14.0535ZM8.168 16.1031C8.21833 16.1363 8.27533 16.1538 8.33333 16.1538C8.39134 16.1538 8.44833 16.1363 8.49867 16.1031L10.7443 14.6223C11.2897 14.715 12.4507 15.7038 13.056 16.7515C13.0863 16.8042 13.1147 16.8654 13.1437 16.9227H12.3333C12.2449 16.9227 12.1601 16.9632 12.0976 17.0353C12.0351 17.1075 12 17.2053 12 17.3073C12 17.5192 11.8503 17.6919 11.6667 17.6919H8.33333C8.14967 17.6919 8 17.5192 8 17.3073C8 17.2053 7.96488 17.1075 7.90237 17.0353C7.83986 16.9632 7.75507 16.9227 7.66667 16.9227H3.523C3.55233 16.8654 3.58033 16.8042 3.61067 16.7515C4.21567 15.7038 5.377 14.715 5.92233 14.6223L8.168 16.1031ZM13.8963 16.9231C13.8133 16.7163 13.7179 16.5164 13.6107 16.325C13.0097 15.2846 11.777 14.0938 10.9173 13.8823L10.6793 13.0585C11.3215 12.4945 11.7649 11.6813 11.9277 10.7692H13C13.5513 10.7692 14 10.2515 14 9.61539V8.46154C13.9993 8.22086 13.9332 7.98648 13.8112 7.79133C13.6891 7.59617 13.5171 7.45004 13.3193 7.37346C13.2645 6.23486 12.9172 5.14087 12.3217 4.23077H13.6667V5.38462C13.6667 6.445 14.4143 7.30769 15.3333 7.30769H18V16.9231H13.8963ZM12 8.07692H13C13.1837 8.07692 13.3333 8.24962 13.3333 8.46154V9.61539C13.3333 9.82731 13.1837 10 13 10H12V8.07692ZM8.33333 2.69231C10.6103 2.69231 12.4787 4.73038 12.6497 7.30769H11.983C11.814 5.15462 10.2427 3.46154 8.33333 3.46154C6.424 3.46154 4.85267 5.15462 4.68367 7.30769H4.017C4.188 4.73038 6.05633 2.69231 8.33333 2.69231ZM4.66667 10H3.66667C3.483 10 3.33333 9.82731 3.33333 9.61539V8.46154C3.33333 8.24962 3.483 8.07692 3.66667 8.07692H4.66667V10ZM2 4.61538C2 4.40346 2.14967 4.23077 2.33333 4.23077H4.345C3.74935 5.14078 3.40204 6.23483 3.34733 7.37346C3.14958 7.45004 2.97759 7.59617 2.85551 7.79133C2.73343 7.98648 2.66739 8.22086 2.66667 8.46154V9.61539C2.66667 10.2515 3.11533 10.7692 3.66667 10.7692H4.739C4.90142 11.6814 5.34493 12.4947 5.98733 13.0585L5.74933 13.8823C4.89 14.0938 3.65733 15.2842 3.056 16.325C2.953 16.5031 2.85933 16.7073 2.77033 16.9231H2V4.61538ZM19.3333 17.6923V18.0769C19.3333 18.7131 18.8847 19.2308 18.3333 19.2308H1.66667C1.11533 19.2308 0.666667 18.7131 0.666667 18.0769V17.6923H7.39033C7.45953 17.9171 7.5873 18.1117 7.75613 18.2494C7.92496 18.3872 8.12658 18.4612 8.33333 18.4615H11.6667C11.8734 18.4612 12.075 18.3872 12.2439 18.2494C12.4127 18.1117 12.5405 17.9171 12.6097 17.6923H19.3333ZM7 9.61539V9.23077C7 9.12876 7.03512 9.03093 7.09763 8.9588C7.16014 8.88667 7.24493 8.84615 7.33333 8.84615C7.42174 8.84615 7.50652 8.88667 7.56904 8.9588C7.63155 9.03093 7.66667 9.12876 7.66667 9.23077V9.61539C7.66667 9.71739 7.63155 9.81522 7.56904 9.88735C7.50652 9.95948 7.42174 10 7.33333 10C7.24493 10 7.16014 9.95948 7.09763 9.88735C7.03512 9.81522 7 9.71739 7 9.61539ZM9 9.61539V9.23077C9 9.12876 9.03512 9.03093 9.09763 8.9588C9.16014 8.88667 9.24493 8.84615 9.33333 8.84615C9.42174 8.84615 9.50653 8.88667 9.56904 8.9588C9.63155 9.03093 9.66667 9.12876 9.66667 9.23077V9.61539C9.66667 9.71739 9.63155 9.81522 9.56904 9.88735C9.50653 9.95948 9.42174 10 9.33333 10C9.24493 10 9.16014 9.95948 9.09763 9.88735C9.03512 9.81522 9 9.71739 9 9.61539Z" fill="black"/>
</svg>
