<svg width="20" height="20" viewBox="0 0 20 20" fill="none" xmlns="http://www.w3.org/2000/svg">
<path d="M3.12583 13.016H1.87585C1.70304 13.016 1.56336 13.1579 1.56336 13.3335V14.9207C1.56336 15.0962 1.70304 15.2381 1.87585 15.2381H3.12583C3.29864 15.2381 3.43833 15.0962 3.43833 14.9207V13.3335C3.43833 13.1579 3.29864 13.016 3.12583 13.016ZM2.81334 14.6032H2.18835V13.6509H2.81334V14.6032ZM5.62579 13.016H4.37581C4.203 13.016 4.06332 13.1579 4.06332 13.3335V14.9207C4.06332 15.0962 4.203 15.2381 4.37581 15.2381H5.62579C5.7986 15.2381 5.93829 15.0962 5.93829 14.9207V13.3335C5.93829 13.1579 5.7986 13.016 5.62579 13.016ZM5.3133 14.6032H4.68831V13.6509H5.3133V14.6032ZM9.37698 13.016H8.127C7.95419 13.016 7.81451 13.1579 7.81451 13.3335V14.9207C7.81451 15.0962 7.95419 15.2381 8.127 15.2381H9.37698C9.54979 15.2381 9.68948 15.0962 9.68948 14.9207V13.3335C9.68948 13.1579 9.54979 13.016 9.37698 13.016ZM9.06449 14.6032H8.4395V13.6509H9.06449V14.6032ZM12.1919 13.3335C12.1919 13.1579 12.0523 13.016 11.8794 13.016H10.6295C10.4567 13.016 10.317 13.1579 10.317 13.3335V14.9207C10.317 15.0962 10.4567 15.2381 10.6295 15.2381H11.8794C12.0523 15.2381 12.1919 15.0962 12.1919 14.9207V13.3335ZM11.5669 14.6032H10.942V13.6509H11.5669V14.6032ZM14.3757 15.2381H15.6256C15.7984 15.2381 15.9381 15.0962 15.9381 14.9207V13.3335C15.9381 13.1579 15.7984 13.016 15.6256 13.016H14.3757C14.2028 13.016 14.0632 13.1579 14.0632 13.3335V14.9207C14.0632 15.0962 14.2028 15.2381 14.3757 15.2381ZM14.6882 13.6509H15.3131V14.6032H14.6882V13.6509ZM16.8756 15.2381H18.1256C18.2984 15.2381 18.4381 15.0962 18.4381 14.9207V13.3335C18.4381 13.1579 18.2984 13.016 18.1256 13.016H16.8756C16.7028 13.016 16.5631 13.1579 16.5631 13.3335V14.9207C16.5631 15.0962 16.7028 15.2381 16.8756 15.2381ZM17.1881 13.6509H17.8131V14.6032H17.1881V13.6509ZM3.12583 15.8759H1.87585C1.70304 15.8759 1.56336 16.0178 1.56336 16.1933V17.7805C1.56336 17.9561 1.70304 18.098 1.87585 18.098H3.12583C3.29864 18.098 3.43833 17.9561 3.43833 17.7805V16.1933C3.43833 16.0178 3.29864 15.8759 3.12583 15.8759ZM2.81334 17.4631H2.18835V16.5108H2.81334V17.4631ZM5.62579 15.8759H4.37581C4.203 15.8759 4.06332 16.0178 4.06332 16.1933V17.7805C4.06332 17.9561 4.203 18.098 4.37581 18.098H5.62579C5.7986 18.098 5.93829 17.9561 5.93829 17.7805V16.1933C5.93829 16.0178 5.7986 15.8759 5.62579 15.8759ZM5.3133 17.4631H4.68831V16.5108H5.3133V17.4631ZM14.3757 18.098H15.6256C15.7984 18.098 15.9381 17.9561 15.9381 17.7805V16.1933C15.9381 16.0178 15.7984 15.8759 15.6256 15.8759H14.3757C14.2028 15.8759 14.0632 16.0178 14.0632 16.1933V17.7805C14.0632 17.9561 14.2028 18.098 14.3757 18.098ZM14.6882 16.5108H15.3131V17.4631H14.6882V16.5108ZM16.8756 18.098H18.1256C18.2984 18.098 18.4381 17.9561 18.4381 17.7805V16.1933C18.4381 16.0178 18.2984 15.8759 18.1256 15.8759H16.8756C16.7028 15.8759 16.5631 16.0178 16.5631 16.1933V17.7805C16.5631 17.9561 16.7028 18.098 16.8756 18.098ZM17.1881 16.5108H17.8131V17.4631H17.1881V16.5108Z" fill="black"/>
<path d="M19.9928 11.7086C19.9913 11.695 19.9944 11.6817 19.9909 11.668L19.6791 10.3982C19.6769 10.39 19.6713 10.3839 19.6684 10.376C19.6619 10.3551 19.6519 10.3363 19.6409 10.3173C19.6313 10.3005 19.6219 10.2843 19.6094 10.27C19.5956 10.2535 19.5797 10.2408 19.5631 10.2274C19.5481 10.216 19.5341 10.2052 19.5175 10.1963C19.4991 10.1865 19.4797 10.1805 19.4591 10.1748C19.4394 10.169 19.4209 10.1646 19.4003 10.1627C19.3919 10.1621 19.3844 10.1576 19.3756 10.1576H15.6379V8.8891C15.6379 8.71355 15.4982 8.57166 15.3254 8.57166H14.3751C14.2023 8.57166 14.0626 8.71355 14.0626 8.8891V10.1576H12.1867V8.25802C12.1867 8.08279 12.0476 7.94153 11.8754 7.94089V4.76231C12.0482 4.76231 12.1879 4.62042 12.1879 4.44487V3.49253C12.1879 3.31698 12.0482 3.17509 11.8754 3.17509H11.7236L10.3127 1.16979V0.317445C10.3127 0.141898 10.173 0 10.0002 0C9.82735 0 9.68766 0.141898 9.68766 0.317445V1.16979L8.27675 3.17509H8.12519C7.95238 3.17509 7.81269 3.31698 7.81269 3.49253V4.44328C7.81269 4.44392 7.81238 4.44423 7.81238 4.44487C7.81238 4.62042 7.95206 4.76231 8.12487 4.76231V7.94089C7.95269 7.94153 7.81363 8.08279 7.81363 8.25802V10.1576H5.93772V8.8891C5.93772 8.71355 5.79803 8.57166 5.62522 8.57166H4.67493C4.50212 8.57166 4.36243 8.71355 4.36243 8.8891V10.1576H0.624678C0.61624 10.1576 0.608741 10.1621 0.600303 10.1627C0.579678 10.1646 0.560304 10.1694 0.540617 10.1751C0.520929 10.1808 0.501867 10.1865 0.48343 10.1957C0.466243 10.2046 0.451868 10.216 0.436868 10.2281C0.420306 10.2411 0.404681 10.2538 0.391244 10.2697C0.378432 10.2843 0.369057 10.3005 0.359057 10.3176C0.348432 10.3363 0.338745 10.3547 0.33187 10.3757C0.329057 10.3836 0.323432 10.39 0.321245 10.3982L0.00937485 11.668C0.00593741 11.6813 0.00906236 11.694 0.00749988 11.7074C0.0062499 11.7204 0.000312495 11.7315 0.000312495 11.7448C0.000312495 11.7531 0.00437493 11.7604 0.00531242 11.7686C0.00687489 11.7909 0.0118748 11.8112 0.0178122 11.8321C0.0234371 11.8515 0.0284371 11.8696 0.0374994 11.8874C0.0462493 11.9055 0.0578116 11.921 0.0703114 11.9372C0.0824987 11.9531 0.094686 11.9683 0.109686 11.9817C0.124686 11.995 0.141248 12.0045 0.158123 12.0147C0.17656 12.0255 0.194059 12.035 0.214684 12.042C0.222497 12.0448 0.228746 12.0505 0.236871 12.0528C0.261871 12.0591 0.287183 12.0616 0.31187 12.062H0.312495V19.3638C0.139685 19.3638 0 19.5057 0 19.6813C0 19.8568 0.139685 19.9987 0.312495 19.9987H8.11831C8.1205 19.9987 8.12237 20 8.12456 20H11.877C11.8792 20 11.8811 19.9987 11.8833 19.9987H19.6875C19.8603 19.9987 20 19.8568 20 19.6813C20 19.5057 19.8603 19.3638 19.6875 19.3638V12.0632C19.6919 12.0632 19.695 12.061 19.6991 12.0607C19.7203 12.0601 19.7419 12.0582 19.7631 12.0531C19.77 12.0512 19.7753 12.0464 19.7822 12.0439C19.8056 12.0366 19.8263 12.0255 19.8466 12.0128C19.8613 12.0039 19.8756 11.9953 19.8884 11.9842C19.9056 11.9693 19.9191 11.9524 19.9325 11.9347C19.9434 11.9198 19.9541 11.9058 19.9625 11.8893C19.9719 11.8705 19.9778 11.8515 19.9834 11.8309C19.9891 11.8102 19.9938 11.7909 19.9953 11.7696C19.9959 11.7613 20 11.754 20 11.7458C20 11.7325 19.9941 11.7213 19.9928 11.7086ZM8.43706 19.3642V16.5122H9.68766V19.3642H8.43706ZM10.3127 19.3642V16.5122H11.5645V19.3642H10.3127ZM11.877 15.8773H8.12456C7.95175 15.8773 7.81207 16.0192 7.81207 16.1948V19.3642H7.18801V11.8985L10.0002 9.61224L12.8129 11.8985V19.3642H12.1895V16.1948C12.1895 16.0192 12.0498 15.8773 11.877 15.8773ZM0.712801 11.4274L0.868736 10.7925H4.67024C4.6718 10.7925 4.67336 10.7935 4.67493 10.7935H5.62522C5.62679 10.7935 5.62835 10.7925 5.62991 10.7925H7.54801L6.76708 11.4274H0.712801ZM8.43862 8.57546H11.5617V10.0681L10.1955 8.95767C10.188 8.95132 10.1783 8.95005 10.1705 8.94465C10.1523 8.93259 10.1342 8.92338 10.1145 8.91545C10.0961 8.90815 10.0786 8.90148 10.0595 8.89767C10.0395 8.89355 10.0198 8.89259 9.99953 8.89259C9.97984 8.89259 9.96109 8.89355 9.94172 8.89767C9.92203 8.90148 9.90391 8.90783 9.88485 8.91577C9.86516 8.92338 9.84766 8.93259 9.82985 8.94434C9.82172 8.95005 9.81203 8.95132 9.80453 8.95767L8.43831 10.0684L8.43862 8.57546ZM13.2354 11.4283L12.4532 10.7925H14.3707C14.3723 10.7925 14.3738 10.7935 14.3754 10.7935H15.3257C15.3273 10.7935 15.3288 10.7925 15.3304 10.7925H19.1319L19.2878 11.4283H13.2354ZM14.6876 9.20655H15.0129V10.1576H14.6876V9.20655ZM11.2504 7.94057H8.74986V4.76231H9.68766V5.13849C9.32485 5.26991 9.06267 5.6191 9.06267 6.03209V6.66698C9.06267 6.84253 9.20236 6.98443 9.37517 6.98443H9.68766C9.68766 7.15998 9.82735 7.30187 10.0002 7.30187C10.173 7.30187 10.3127 7.15998 10.3127 6.98443H10.6251C10.798 6.98443 10.9376 6.84253 10.9376 6.66698V6.03209C10.9376 5.61878 10.6755 5.26991 10.3127 5.13849V4.76231H11.2504V7.94057ZM11.5629 3.80998V4.12742H8.43768V3.80998H11.5629ZM10.3127 6.34954H9.68766V6.03209C9.68766 5.85686 9.82766 5.71465 10.0002 5.71465C10.1727 5.71465 10.3127 5.85686 10.3127 6.03209V6.34954ZM10.0002 1.81737L10.9558 3.17509H9.04486L10.0002 1.81737ZM4.98742 9.20655H5.31273V10.1576H4.98742V9.20655ZM0.937798 12.0623H6.56302V19.3642H0.937798V12.0623ZM19.0625 19.3642H13.4379V12.0632H19.0625V19.3642Z" fill="black"/>
<path d="M10.9376 11.4274C10.9376 10.9027 10.5173 10.4757 10.0007 10.4757C9.48415 10.4757 9.06384 10.9027 9.06384 11.4274C9.06384 11.9522 9.48415 12.3791 10.0007 12.3791C10.5173 12.3791 10.9376 11.9522 10.9376 11.4274ZM10.0007 11.7443C9.82852 11.7443 9.68883 11.6024 9.68883 11.4274C9.68883 11.2525 9.82852 11.1106 10.0007 11.1106C10.1729 11.1106 10.3126 11.2525 10.3126 11.4274C10.3126 11.6024 10.1729 11.7443 10.0007 11.7443Z" fill="black"/>
</svg>
