<svg width="50" height="50" viewBox="0 0 50 50" fill="none" xmlns="http://www.w3.org/2000/svg">
<path d="M32.4265 32.0964C32.2988 33.1238 33.0651 34.0872 34.0872 34.28C35.109 34.4728 36.1311 33.6379 36.3225 32.6101C36.4502 31.5183 35.6839 30.555 34.6618 30.4265C33.5763 30.234 32.5542 31.069 32.4265 32.0964Z" fill="url(#paint0_linear_5944_22821)"/>
<path d="M24.9541 36.014C24.8264 37.0414 25.5928 38.0047 26.6149 38.1976C27.6367 38.3904 28.6587 37.5554 28.8502 36.5277C28.9779 35.4359 28.2116 34.4726 27.1894 34.3441C26.104 34.1516 25.0819 34.9865 24.9541 36.014Z" fill="url(#paint1_linear_5944_22821)"/>
<path d="M23.2934 27.6649C22.2716 27.5365 21.1858 28.3714 21.1217 29.3988C20.994 30.4263 21.7604 31.3896 22.7825 31.5824C23.8042 31.7753 24.8263 30.9403 25.0178 29.9126C25.0818 28.8211 24.3155 27.7933 23.2934 27.6649Z" fill="url(#paint2_linear_5944_22821)"/>
<path d="M12.5635 35.243C12.4358 36.2704 13.2021 37.2338 14.2242 37.4266C15.246 37.6194 16.268 36.7845 16.4595 35.7567C16.5872 34.6649 15.8209 33.7016 14.7988 33.5731C13.7133 33.3806 12.6915 34.2156 12.5635 35.243Z" fill="url(#paint3_linear_5944_22821)"/>
<path d="M44.1145 33.9589C43.7314 33.3168 43.2842 32.6103 42.8373 32.0322C42.6456 31.711 42.4542 31.4541 42.2624 31.1332L39.2605 26.6376C36.9612 23.1698 34.6619 19.6375 32.2989 16.1699C32.1072 15.8487 32.0435 15.6562 32.0435 15.2709V10.9681C32.0435 10.4544 32.4906 10.0047 33.0016 10.0047H34.2151C34.8537 10.0047 35.4286 9.42664 35.3646 8.72046C35.3646 8.07832 34.7897 7.56461 34.0874 7.56461H32.9379C31.0858 7.56461 29.5527 9.10609 29.5527 10.9684V15.2712C29.5527 16.1061 29.7445 16.8127 30.2554 17.5189C32.5547 20.9867 34.9177 24.5833 37.1533 27.9866L40.1552 32.4821C40.347 32.8034 40.5384 33.1243 40.7938 33.4455C41.177 34.0236 41.6242 34.6657 42.0074 35.2438C42.7737 36.5281 42.9014 38.9045 41.3688 39.9963C41.3047 40.0606 41.1133 40.1247 41.0493 40.1247H8.98685C8.92284 40.1247 8.79511 40.0603 8.66739 39.9963C7.07069 38.9045 7.19848 36.5284 8.02878 35.2438C8.41195 34.6017 8.8591 34.0236 9.24229 33.3815C9.43403 33.0603 9.62546 32.7393 9.8809 32.4825L12.7551 28.1153C15.0544 24.6474 17.4174 21.0508 19.7808 17.4542C20.2279 16.7477 20.4834 16.0413 20.4834 15.2066V10.9038C20.4834 9.04148 18.9504 7.5 17.0983 7.5H15.7571C15.1185 7.5 14.5436 8.07808 14.5436 8.72021C14.5436 9.36235 15.1185 9.94043 15.7571 9.94043H17.0983C17.6092 9.94043 18.0564 10.3901 18.0564 10.9038V15.271C18.0564 15.5922 17.9924 15.849 17.8009 16.1059C15.6293 19.3812 13.4578 22.7207 11.2865 25.9315L7.9014 31.0693C7.70966 31.3905 7.51823 31.6474 7.3265 31.9683C6.87932 32.6105 6.49618 33.2526 6.0493 33.895C5.21866 35.0502 4.89948 36.5917 5.02718 38.0044C5.21861 39.6743 5.98529 41.0873 7.3265 41.9863C7.77336 42.3075 8.41198 42.5 8.9232 42.5H41.1133C41.6242 42.5 42.2628 42.3072 42.71 41.9863C43.9872 41.0873 44.8176 39.6743 44.9453 38.0047C45.1368 36.5917 44.8173 35.0502 44.1147 33.9584L44.1145 33.9589Z" fill="url(#paint4_linear_5944_22821)"/>
<path d="M16.9066 25.1604C16.6511 25.5456 16.8425 26.0594 17.226 26.3162C17.6092 26.573 18.1201 26.3806 18.3755 25.995C19.0141 24.9032 20.3553 24.6463 22.5909 25.1601C23.2936 25.2885 23.9962 25.5454 24.7626 25.8022C26.2315 26.2519 27.8282 26.7656 29.4249 26.7656C30.0635 26.7656 30.7021 26.7012 31.341 26.5087C31.9159 26.3159 32.4905 26.0591 33.0017 25.6738C33.3849 25.417 33.4489 24.9033 33.1934 24.518C32.938 24.1327 32.4271 24.0683 32.0439 24.3252C31.6608 24.582 31.2776 24.7748 30.8304 24.9033C29.042 25.417 27.1262 24.8389 25.2738 24.1968C24.5075 23.9399 23.7408 23.6831 22.9745 23.5546C21.7607 23.3621 18.3755 22.5916 16.9066 25.1605L16.9066 25.1604Z" fill="url(#paint5_linear_5944_22821)"/>
<defs>
<linearGradient id="paint0_linear_5944_22821" x1="37.6624" y1="32.5597" x2="37.6624" y2="39.5692" gradientUnits="userSpaceOnUse">
<stop stop-color="#ED3040"/>
<stop offset="1" stop-color="#2D23F4"/>
</linearGradient>
<linearGradient id="paint1_linear_5944_22821" x1="37.6624" y1="32.5597" x2="37.6624" y2="39.5692" gradientUnits="userSpaceOnUse">
<stop stop-color="#ED3040"/>
<stop offset="1" stop-color="#2D23F4"/>
</linearGradient>
<linearGradient id="paint2_linear_5944_22821" x1="37.6624" y1="32.5597" x2="37.6624" y2="39.5692" gradientUnits="userSpaceOnUse">
<stop stop-color="#ED3040"/>
<stop offset="1" stop-color="#2D23F4"/>
</linearGradient>
<linearGradient id="paint3_linear_5944_22821" x1="37.6624" y1="32.5597" x2="37.6624" y2="39.5692" gradientUnits="userSpaceOnUse">
<stop stop-color="#ED3040"/>
<stop offset="1" stop-color="#2D23F4"/>
</linearGradient>
<linearGradient id="paint4_linear_5944_22821" x1="37.6624" y1="32.5597" x2="37.6624" y2="39.5692" gradientUnits="userSpaceOnUse">
<stop stop-color="#ED3040"/>
<stop offset="1" stop-color="#2D23F4"/>
</linearGradient>
<linearGradient id="paint5_linear_5944_22821" x1="37.6624" y1="32.5597" x2="37.6624" y2="39.5692" gradientUnits="userSpaceOnUse">
<stop stop-color="#ED3040"/>
<stop offset="1" stop-color="#2D23F4"/>
</linearGradient>
</defs>
</svg>
