<svg width="50" height="50" viewBox="0 0 50 50" fill="none" xmlns="http://www.w3.org/2000/svg">
<path d="M44.9458 12.494C44.912 12.4106 44.8624 12.3327 44.7935 12.2641C44.7907 12.2624 44.7883 12.2614 44.7849 12.259L37.7418 5.21548C37.7391 5.21204 37.7377 5.2079 37.7346 5.20515C37.666 5.13657 37.5867 5.08591 37.503 5.05214C37.2525 4.94911 36.9565 4.99873 36.7528 5.20135C36.7456 5.20893 36.7435 5.21824 36.7369 5.22547L32.3484 9.6142C32.3412 9.62075 32.3318 9.62316 32.3253 9.6297C32.3181 9.63625 32.316 9.64624 32.3094 9.65314L27.925 14.0384C27.9164 14.046 27.9047 14.0481 27.8964 14.057C27.8885 14.066 27.8861 14.077 27.8778 14.086L25.5069 16.4561L23.3597 14.3076C22.504 13.4516 21.3299 13.1184 20.2141 13.2844L20.0511 8.62658C20.0418 8.35228 19.8699 8.11003 19.6152 8.00872C19.3605 7.90914 19.0693 7.9691 18.8743 8.1631L8.16537 18.8716C7.97101 19.0652 7.91071 19.3564 8.01168 19.6114C8.11161 19.8671 8.35387 20.0384 8.62852 20.048L13.2869 20.2138C13.1212 21.3286 13.4537 22.5036 14.309 23.3599L16.4576 25.5074L14.0867 27.8771C14.0781 27.8847 14.0667 27.8868 14.0588 27.8961C14.0502 27.9051 14.0481 27.9161 14.0399 27.9247L9.65405 32.3096C9.6475 32.3162 9.63751 32.3186 9.63096 32.3248C9.62441 32.332 9.62165 32.3406 9.61511 32.3489L5.22761 36.7353C5.21969 36.7428 5.21038 36.7449 5.20211 36.7532C4.93263 37.022 4.93263 37.4589 5.20211 37.7277L5.20487 37.7308C5.20625 37.7322 5.20625 37.7335 5.20763 37.7349C5.209 37.7363 5.21038 37.7363 5.21176 37.7377L12.2607 44.7853C12.2634 44.7881 12.2634 44.7905 12.2658 44.7932C12.333 44.8622 12.4126 44.9125 12.4964 44.9469C12.5805 44.9814 12.6707 45 12.761 45C12.9375 45 13.1139 44.9328 13.249 44.7981C13.2583 44.7888 13.261 44.7764 13.2703 44.7657L17.643 40.3928C17.6537 40.3835 17.6675 40.3808 17.6768 40.3708C17.6861 40.3604 17.6902 40.3477 17.6999 40.337L22.0698 35.9658C22.0802 35.9565 22.0939 35.9534 22.1046 35.9427C22.1153 35.9331 22.1181 35.9183 22.1277 35.9079L24.4945 33.5416L24.7181 33.766C25.9301 34.9782 27.5373 35.6464 29.2428 35.6464C30.9497 35.6464 32.5562 34.9779 33.7678 33.766C34.9801 32.5541 35.6479 30.9479 35.6479 29.2422C35.6479 27.5361 34.9801 25.9289 33.7678 24.7163L33.5438 24.4923L35.9106 22.1257C35.9213 22.1164 35.935 22.1136 35.9443 22.1036C35.9536 22.094 35.9578 22.0809 35.9657 22.0698L40.3401 17.6973C40.3494 17.6884 40.3629 17.6853 40.3722 17.676C40.3815 17.6667 40.3843 17.6529 40.3939 17.6432L44.7704 13.2683C44.7797 13.2593 44.7907 13.2573 44.7997 13.2483C45.0026 13.0443 45.0512 12.7452 44.9461 12.4943L44.9458 12.494ZM13.6121 18.8459L10.2605 18.7259L18.7268 10.2607L18.8453 13.6122L13.6121 18.8459ZM12.7558 43.3301L6.66934 37.2452L10.122 33.792L16.208 39.8779L12.7558 43.3301ZM17.1833 38.9025L11.0969 32.8166L14.5509 29.3638L20.6349 35.4489L17.1833 38.9025ZM21.6105 34.4741L15.5265 28.389L18.1544 25.7605L24.2398 31.8439L21.6105 34.4741ZM34.2682 29.2425C34.2682 30.5795 33.7441 31.8394 32.7923 32.7908C30.8914 34.6933 27.5987 34.6947 25.693 32.7908L25.4694 32.5665L25.7037 32.3318C25.9732 32.0623 25.9732 31.6261 25.7037 31.3566L18.6424 24.2973C18.3736 24.0278 17.9366 24.0278 17.6671 24.2973L17.4328 24.5316L15.2842 22.3844C14.3882 21.4871 14.3882 20.0271 15.2842 19.1308L19.1314 15.2842C20.0287 14.3868 21.4874 14.3879 22.3844 15.2838L24.5317 17.4323L24.2974 17.6673C24.0279 17.9368 24.0279 18.373 24.2974 18.6425L31.3583 25.7025C31.4934 25.8372 31.6695 25.9044 31.8463 25.9044C32.0224 25.9044 32.1992 25.8373 32.3339 25.7025L32.5682 25.4682L32.7922 25.6922C33.744 26.6439 34.2682 27.9048 34.2682 29.2425ZM31.846 24.2397L25.7599 18.1552L28.3893 15.5256L34.4753 21.6107L31.846 24.2397ZM35.4509 20.6353L29.3644 14.5505L32.8174 11.0976L38.9028 17.1827L35.4509 20.6353ZM39.8784 16.2073L33.7923 10.1225L37.2453 6.66928L43.3314 12.7541L39.8784 16.2073Z" fill="url(#paint0_linear_5944_22805)"/>
<path d="M37.1993 29.8477C36.8681 29.8036 36.507 30.151 36.5046 30.5318C36.4925 32.1227 35.866 33.6179 34.7426 34.7417C33.6192 35.8647 32.1232 36.4908 30.5315 36.5036C30.1507 36.5067 29.8444 36.8182 29.8471 37.1986C29.8502 37.5777 30.1583 37.8827 30.537 37.8827H30.5429C32.4985 37.8675 34.3374 37.0984 35.7185 35.7169C37.099 34.3354 37.8696 32.4984 37.8844 30.5429C37.8865 30.1621 37.5811 29.8508 37.1993 29.8477Z" fill="url(#paint1_linear_5944_22805)"/>
<defs>
<linearGradient id="paint0_linear_5944_22805" x1="0" y1="0" x2="0" y2="1" gradientUnits="objectBoundingBox">
<stop stop-color="#ED3040"/>
<stop offset="1" stop-color="#2D23F4"/>
</linearGradient>
<linearGradient id="paint1_linear_5944_22805" x1="0" y1="0" x2="0" y2="1" gradientUnits="objectBoundingBox">
<stop stop-color="#ED3040"/>
<stop offset="1" stop-color="#2D23F4"/>
</linearGradient>
</defs>
</svg>
