<svg width="50" height="50" viewBox="0 0 50 50" fill="none" xmlns="http://www.w3.org/2000/svg">
<path d="M42.3328 23.6668C41.9431 23.6668 41.5749 23.7555 41.2411 23.9063C39.2479 22.6757 35.5756 21.7345 30.9998 21.2817V7.00006C30.9998 5.89718 30.1026 5 28.9997 5H20.9997C19.8968 5 18.9996 5.89718 18.9996 7.00006V21.2817C14.4235 21.7346 10.7509 22.6757 8.75835 23.9066C8.42456 23.7555 8.0567 23.6668 7.66664 23.6668C6.19621 23.6668 5 24.863 5 26.3334C5 27.8039 6.19621 29.0001 7.66664 29.0001C8.05667 29.0001 8.42486 28.9111 8.75928 28.7599C9.63987 29.3067 10.8364 29.7904 12.3257 30.2046L9.43408 33.4362C8.29443 34.7102 7.66656 36.3533 7.66656 38.0626C7.66656 41.8878 10.7788 45 14.604 45H35.3957C39.2212 45 42.3334 41.8878 42.3334 38.0626C42.3334 36.3533 41.7059 34.7105 40.5659 33.4366L37.6743 30.2049C39.1643 29.7904 40.3605 29.3068 41.2407 28.7602C41.5752 28.9111 41.943 29.0001 42.3334 29.0001C43.8038 29.0001 45 27.8039 45 26.3334C45 24.863 43.8038 23.6668 42.3334 23.6668L42.3328 23.6668ZM20.3326 7.00038C20.3326 6.63286 20.6317 6.3338 20.9992 6.3338H28.9992C29.3667 6.3338 29.6658 6.63285 29.6658 7.00038V9.00044H25.666C25.2978 9.00044 24.9994 9.29883 24.9994 9.66702C24.9994 10.0352 25.2978 10.3336 25.666 10.3336H29.6658V12.3337H25.666C25.2978 12.3337 24.9994 12.632 24.9994 13.0002C24.9994 13.3684 25.2978 13.6668 25.666 13.6668H29.6658V15.6669H25.666C25.2978 15.6669 24.9994 15.9653 24.9994 16.3335C24.9994 16.7016 25.2978 17 25.666 17H29.6658V19.0001H25.666C25.2978 19.0001 24.9994 19.2985 24.9994 19.6667C24.9994 20.0349 25.2978 20.3332 25.666 20.3332H29.6658V22.9999C29.6658 23.164 29.7263 23.3221 29.8358 23.4445L35.1871 29.4252C33.1437 29.8374 30.7747 30.1176 28.2401 30.2489C27.8977 28.7731 26.5781 27.6669 24.9994 27.6669C23.4204 27.6669 22.1011 28.7735 21.7588 30.2496C19.2244 30.1182 16.8564 29.838 14.8117 29.4255L20.163 23.4448C20.2722 23.3224 20.3327 23.1643 20.3327 23.0002L20.3326 7.00038ZM26.9991 30.9999C26.9991 32.1027 26.102 32.9999 24.9991 32.9999C23.8962 32.9999 22.999 32.1027 22.999 30.9999C22.999 29.897 23.8962 28.9998 24.9991 28.9998C26.102 28.9998 26.9991 29.897 26.9991 30.9999ZM6.33281 26.3332C6.33281 25.5978 6.93092 25 7.66597 25C8.40136 25 8.99912 25.5981 8.99912 26.3332C8.99912 27.0686 8.40101 27.6663 7.66597 27.6663C6.9309 27.6666 6.33281 27.0685 6.33281 26.3332ZM9.85396 27.8509C10.154 27.4192 10.3326 26.8975 10.3326 26.3332C10.3326 25.7685 10.1537 25.2465 9.85296 24.8147C11.722 23.8197 15.0203 23.0254 18.9992 22.6205V22.7452L13.3235 29.0884C11.895 28.7312 10.7174 28.3107 9.85396 27.8509ZM40.9995 38.0625C40.9995 41.1526 38.4857 43.6664 35.3956 43.6664H14.6039C11.5135 43.6664 8.99963 41.1526 8.99963 38.0625C8.99963 36.6817 9.50676 35.3545 10.4274 34.326L13.7887 30.5691C16.072 31.0851 18.7936 31.4328 21.7252 31.5827C22.0024 33.1424 23.361 34.3333 24.9996 34.3333C26.6381 34.3333 27.9968 33.1427 28.2739 31.5827C31.2066 31.4325 33.9288 31.0848 36.2104 30.5691L39.5718 34.326C40.4921 35.3545 40.9992 36.6817 40.9992 38.0625H40.9995ZM30.9996 22.7452V22.6204C34.9786 23.025 38.2772 23.8196 40.1459 24.8147C39.8452 25.2464 39.6662 25.7684 39.6662 26.3331C39.6662 26.8975 39.8448 27.4191 40.1452 27.8509C39.2818 28.3107 38.1044 28.7309 36.6753 29.0887L30.9996 22.7452ZM42.3325 27.6666C41.5971 27.6666 40.9994 27.0685 40.9994 26.3334C40.9994 25.598 41.5975 25.0003 42.3325 25.0003C43.0679 25.0003 43.6657 25.5984 43.6657 26.3334C43.6657 27.0685 43.0679 27.6666 42.3325 27.6666Z" fill="url(#paint0_linear_5944_22801)"/>
<defs>
<linearGradient id="paint0_linear_5944_22801" x1="37.6624" y1="33.6397" x2="37.6624" y2="41.6506" gradientUnits="userSpaceOnUse">
<stop stop-color="#ED3040"/>
<stop offset="1" stop-color="#2D23F4"/>
</linearGradient>
</defs>
</svg>
