<svg width="50" height="50" viewBox="0 0 50 50" fill="none" xmlns="http://www.w3.org/2000/svg">
<path fill-rule="evenodd" clip-rule="evenodd" d="M41.4621 41.0246H40.4282L40.4285 37.9581C40.4285 37.6597 40.1905 37.4176 39.8965 37.4176H39.0123V23.8977C39.3086 23.8009 39.5689 23.6013 39.745 23.3193C41.0604 21.21 41.4585 19.1083 40.8965 17.242L38.5669 9.50284C38.0052 7.636 36.5184 6.11985 34.2665 5.11872C33.7724 4.89886 33.2142 4.98851 32.8114 5.3533C32.4081 5.7181 32.2555 6.27035 32.4133 6.79516L34.2362 12.8508L11.7581 19.832L11.6161 19.3609C11.3958 18.6293 10.6308 18.2171 9.91127 18.4399L8.87872 18.7609C8.53023 18.8688 8.24423 19.109 8.07256 19.4365C7.90122 19.764 7.86515 20.1392 7.97175 20.4932L9.45424 25.4185C9.56053 25.7725 9.79693 26.063 10.1193 26.2371C10.32 26.3457 10.539 26.4006 10.7596 26.4006C10.8356 26.4006 10.912 26.3921 10.988 26.379V34.4356H10.1038C9.80946 34.4356 9.57177 34.6774 9.57177 34.9761V41.0255H8.53823C7.69021 41.0255 7 41.7263 7 42.5877V44.4595C7 44.7579 7.23801 45 7.53207 45H42.4679C42.7617 45 43 44.7582 43 44.4595V42.5877C43.0003 41.7256 42.3101 41.0245 41.4618 41.0245L41.4621 41.0246ZM37.5965 41.0246V38.4986H39.3647V41.025L37.5965 41.0253V41.0246ZM37.0641 37.4173C36.7703 37.4173 36.532 37.6594 36.532 37.9578V41.0246H29.6079L28.0594 23.4208C28.059 23.4169 28.0568 23.414 28.0565 23.4097C28.05 23.3508 28.0339 23.2942 28.0088 23.2399C28.0053 23.2314 28.0014 23.2236 27.9975 23.2157C27.9714 23.166 27.9379 23.1208 27.8967 23.0802C27.8899 23.0734 27.8825 23.0672 27.8751 23.0606C27.8635 23.0505 27.8536 23.0387 27.8407 23.0295C27.8062 23.0043 27.7692 22.985 27.7315 22.9693C27.7254 22.9667 27.7189 22.9654 27.7125 22.9628C27.6545 22.9409 27.5943 22.9291 27.534 22.9284C27.5324 22.9284 27.5312 22.9275 27.5299 22.9275H26.7182V20.6851C26.7182 20.3356 26.6377 20.0059 26.4986 19.7104L35.4636 16.9259L37.2865 22.9822C37.3957 23.344 37.6357 23.6296 37.9491 23.7981L37.9487 37.4177L37.0641 37.4173ZM23.3259 20.6854C23.3259 20.033 23.8483 19.5026 24.4899 19.5026C25.1314 19.5026 25.6538 20.0333 25.6538 20.6854V22.9278L23.3259 22.9281V20.6854ZM27.7461 32.1381C27.7509 32.1326 27.7522 32.125 27.7564 32.1188L28.4311 39.7868L25.1266 35.4845L27.7461 32.1381ZM24.4531 34.6079L22.2877 31.7887L24.4705 28.7097L26.6622 31.786L24.4531 34.6079ZM27.6922 31.3889L25.1252 27.7857L27.1269 24.9618L27.6922 31.3889ZM26.4909 24.0092L24.4679 26.8631L22.435 24.0092H26.4909ZM23.8128 27.787L21.1911 31.4857C21.1808 31.5007 21.1763 31.5181 21.1673 31.5341L21.7882 24.9449L23.8128 27.787ZM21.1245 31.9879C21.1432 32.0392 21.1686 32.0893 21.2034 32.1341L23.7719 35.4782L20.3882 39.801L21.1245 31.9879ZM24.4451 36.3553L28.0314 41.0247H20.7901L24.4451 36.3553ZM10.4727 25.101L8.99022 20.1765C8.96671 20.0986 8.97476 20.0165 9.01277 19.9435C9.05078 19.8709 9.11358 19.8182 9.19023 19.7947L10.2228 19.4737C10.3816 19.424 10.5503 19.5156 10.5986 19.6769L10.8959 20.6646C10.9372 20.8017 11.0306 20.9165 11.1552 20.9836C11.2798 21.0513 11.4257 21.0651 11.5607 21.0232L35.0563 13.7263C35.3372 13.6389 35.4956 13.337 35.4099 13.0517L33.4314 6.47876C33.395 6.35771 33.4263 6.24483 33.5194 6.16042C33.6124 6.07634 33.7261 6.05801 33.8405 6.1084C35.799 6.97904 37.0816 8.26218 37.5495 9.8182L39.8791 17.5574C40.3474 19.1134 39.9902 20.9054 38.8462 22.7401C38.7796 22.8465 38.6762 22.8959 38.5515 22.8795C38.4282 22.8628 38.3399 22.7869 38.3035 22.6659L36.3253 16.0933C36.2838 15.9562 36.1907 15.8414 36.0661 15.7743C35.9414 15.7066 35.7955 15.6935 35.6606 15.7347L25.7424 18.8147C25.3849 18.5667 24.9536 18.4217 24.4892 18.4217C23.5523 18.4217 22.7506 19.0129 22.4211 19.8463L12.164 23.0316C12.0291 23.0738 11.916 23.1683 11.85 23.2949C11.7837 23.4216 11.7695 23.5698 11.811 23.7069L12.0806 24.6023C12.1289 24.7636 12.0394 24.935 11.8806 24.9841L10.8481 25.3044C10.6896 25.3541 10.5208 25.2629 10.4722 25.1009L10.4727 25.101ZM12.0525 26.061L12.1923 26.0175C12.5408 25.9095 12.8268 25.6694 12.9981 25.3419C13.1695 25.0144 13.2055 24.6391 13.0989 24.2858L12.9846 23.9072L22.2613 21.0265V22.928H21.393C21.3907 22.928 21.3891 22.9293 21.3875 22.9293C21.3283 22.9296 21.2693 22.942 21.2126 22.9627C21.2059 22.9653 21.1985 22.9669 21.1914 22.9702C21.1534 22.9859 21.1167 23.0052 21.0816 23.0307C21.0693 23.0395 21.0603 23.0503 21.049 23.0601C21.0413 23.0667 21.0339 23.0732 21.0265 23.0804C20.9859 23.1203 20.9521 23.1648 20.926 23.2139C20.9218 23.2224 20.9183 23.2306 20.9137 23.2394C20.8889 23.2928 20.8725 23.349 20.8658 23.4069C20.8654 23.4105 20.8632 23.4135 20.8629 23.4174L19.2035 41.0254H13.4692V34.9751C13.4692 34.6767 13.2312 34.4346 12.9371 34.4346H12.0536L12.0533 26.0613L12.0525 26.061ZM10.6366 35.5153H12.4048V41.0242H10.6366V35.5153ZM41.9363 43.9177H8.06494V42.5864C8.06494 42.3211 8.27751 42.1052 8.53872 42.1052H41.4627C41.7239 42.1052 41.9365 42.3211 41.9365 42.5864L41.9363 43.9177Z" fill="url(#paint0_linear_5944_22827)"/>
<defs>
<linearGradient id="paint0_linear_5944_22827" x1="36.3962" y1="33.6397" x2="36.3962" y2="41.6506" gradientUnits="userSpaceOnUse">
<stop stop-color="#ED3040"/>
<stop offset="1" stop-color="#2D23F4"/>
</linearGradient>
</defs>
</svg>
