<svg width="50" height="50" viewBox="0 0 50 50" fill="none" xmlns="http://www.w3.org/2000/svg">
<path d="M41.3852 20.643H40.7842V17.2574C40.7842 17.2432 40.77 17.2287 40.77 17.2004C40.7557 17.1716 40.77 17.1433 40.7557 17.1146C40.7557 17.1004 40.7415 17.0859 40.7415 17.0575C40.7273 17.0433 40.7128 17.0005 40.6986 16.9859C40.6698 16.9289 40.6556 16.9143 40.6127 16.8718C40.5985 16.8431 40.5839 16.8147 40.5555 16.8002C40.5267 16.7715 40.4838 16.7431 40.4412 16.7286C40.427 16.7144 40.3982 16.6999 40.3695 16.6999C40.2977 16.657 40.2264 16.6428 40.1547 16.6428H31.6545V10.6428L39.5393 6.59994V8.98572H38.9382C38.6091 8.98572 38.3371 9.24268 38.3371 9.58579C38.3371 9.92854 38.6091 10.2 38.9382 10.2H39.5393V10.6286C39.5393 10.9571 39.8113 11.2428 40.1546 11.2428C40.4837 11.2428 40.7557 10.9571 40.7557 10.6286V10.2H41.3568C41.7001 10.2 41.9721 9.92854 41.9721 9.58579C41.9721 9.24305 41.7001 8.98572 41.3568 8.98572H40.7557L40.7553 5.61426C40.7553 5.60008 40.7411 5.58555 40.7411 5.55719C40.7269 5.5143 40.7411 5.50012 40.7269 5.47141C40.7696 5.4427 40.7411 5.42853 40.7411 5.41435C40.7411 5.39982 40.7124 5.35728 40.7124 5.34275C40.6836 5.28569 40.6694 5.25698 40.6265 5.21408L40.5693 5.15702C40.5405 5.12831 40.4976 5.09995 40.455 5.07124C40.4408 5.07124 40.412 5.05707 40.3833 5.05707C40.3261 5.01418 40.2544 5 40.183 5H9.81716C9.74544 5 9.67408 5.01418 9.60235 5.05707C9.58815 5.05707 9.55939 5.07124 9.54519 5.07124C9.50259 5.11413 9.45962 5.12866 9.43087 5.15702C9.40211 5.18573 9.38791 5.19991 9.37371 5.21444C9.33074 5.25697 9.31654 5.28568 9.28779 5.34275C9.27358 5.35728 9.27358 5.39982 9.25903 5.41435C9.25903 5.42853 9.24482 5.4427 9.23062 5.47141V5.55719C9.23062 5.57137 9.21642 5.60008 9.21642 5.61426V8.99987H8.61533C8.2862 8.99987 8.00004 9.25684 8.00004 9.59995C8.00004 9.94269 8.27201 10.2142 8.61533 10.2142H9.21642V10.6427C9.21642 10.9713 9.48839 11.257 9.81751 11.257C10.1608 11.257 10.4328 10.9713 10.4328 10.6427V10.2142H11.0339C11.3772 10.2142 11.6492 9.94269 11.6492 9.59995C11.6492 9.2572 11.3772 8.99987 11.0339 8.99987H10.4324V6.59994L18.3173 10.6428V16.6428H9.81711C9.74539 16.6428 9.67403 16.657 9.60231 16.6999C9.58811 16.6999 9.55935 16.7141 9.54515 16.7141C9.50219 16.7569 9.45923 16.7711 9.43082 16.7998C9.41662 16.814 9.40206 16.8427 9.37366 16.8569C9.3307 16.8856 9.3165 16.9285 9.28774 16.9856C9.27354 17.0143 9.27354 17.0572 9.25898 17.0713C9.25898 17.0859 9.24478 17.1001 9.23058 17.1288C9.21638 17.1717 9.21638 17.1858 9.21638 17.2145C9.21638 17.2287 9.20217 17.2574 9.20217 17.2716V20.6572H8.61529C8.28616 20.6572 8 20.9142 8 21.2573C8 21.6 8.27196 21.8715 8.61529 21.8715H9.21638V22.3001C9.21638 22.6286 9.48835 22.9143 9.81747 22.9143C10.1608 22.9143 10.4328 22.6286 10.4328 22.3001V21.8715H11.0339C11.3772 21.8715 11.6491 21.6 11.6491 21.2573C11.6491 20.9146 11.3772 20.6572 11.0339 20.6572H10.4324V18.2714L18.1742 22.243L11.8207 41.3715H9.81716C9.48804 41.3715 9.21607 41.643 9.21607 41.9716V44.4003C9.21607 44.7143 9.48804 45 9.81716 45C10.1605 45 10.4325 44.7143 10.4325 44.3858V42.5714H39.5531V44.3858C39.5531 44.7143 39.8251 45 40.1684 45C40.4975 45 40.7695 44.7143 40.7695 44.3858V41.9571C40.7695 41.6285 40.4975 41.357 40.1684 41.357H38.1794L31.7971 22.2285L39.5672 18.2569V20.6427H38.9662C38.637 20.6427 38.3651 20.8997 38.3651 21.2428C38.3651 21.5855 38.637 21.857 38.9662 21.857H39.5672V22.2855C39.5672 22.6141 39.8392 22.8998 40.1825 22.8998C40.5117 22.8998 40.7836 22.6141 40.7836 22.2855V21.857H41.3847C41.728 21.857 42 21.5855 42 21.2428C42 20.9 41.728 20.643 41.3847 20.643L41.3852 20.643ZM31.669 9.28537V6.22832H37.665L31.669 9.28537ZM29.9946 6.22832H30.438V9.68562H19.5192L19.5196 6.22832H29.9946ZM12.3362 6.22832H18.3177V9.28537L12.3362 6.22832ZM19.534 10.8857H30.4528V16.6571H19.534V10.8857ZM36.7061 40.7712L26.3454 35.5569L33.7292 31.871L36.7061 40.7712ZM16.2574 31.871L23.6412 35.5569L13.2805 40.7712L16.2574 31.871ZM18.4611 31.5995H31.5258L25.0008 34.8856L18.4611 31.5995ZM25.001 36.2424L35.1899 41.3709L14.8121 41.3713L25.001 36.2424ZM16.7441 30.3997L19.3628 22.5423H30.6252L33.2439 30.3997H16.7441ZM30.4532 21.328H19.5344V17.8707H30.4532V21.328ZM18.3183 17.8711V20.9281L12.3368 17.8711H18.3183ZM31.6693 20.9424V17.8853H37.6653L31.6693 20.9424Z" fill="url(#paint0_linear_5944_22807)"/>
<defs>
<linearGradient id="paint0_linear_5944_22807" x1="35.7631" y1="33.6397" x2="35.7631" y2="41.6506" gradientUnits="userSpaceOnUse">
<stop stop-color="#ED3040"/>
<stop offset="1" stop-color="#2D23F4"/>
</linearGradient>
</defs>
</svg>
