<svg width="50" height="50" viewBox="0 0 50 50" fill="none" xmlns="http://www.w3.org/2000/svg">
<path d="M25.0021 40.8809C24.431 40.8809 23.8834 40.6576 23.4799 40.2601C23.0762 39.863 22.8493 39.3239 22.8493 38.7617C22.8493 38.1998 23.0762 37.6607 23.4799 37.2633C23.8834 36.8661 24.431 36.6429 25.0021 36.6429C25.5729 36.6429 26.1206 36.8661 26.5243 37.2633C26.9277 37.6608 27.1545 38.1999 27.1545 38.7617C27.1542 39.3236 26.927 39.8623 26.5236 40.2594C26.1198 40.6569 25.5728 40.8802 25.0021 40.8809ZM25.0021 38.0554C24.7119 38.0554 24.4502 38.2275 24.3391 38.4915C24.228 38.7554 24.2893 39.0593 24.4947 39.2612C24.6998 39.4634 25.0085 39.5237 25.2766 39.4144C25.5448 39.305 25.7196 39.0474 25.7196 38.7617C25.7192 38.3719 25.3981 38.0558 25.0021 38.0554Z" fill="url(#paint0_linear_5944_22831)"/>
<path d="M32.1778 40.8809C31.607 40.8809 31.0593 40.6576 30.6556 40.2601C30.2518 39.863 30.025 39.3239 30.025 38.7617C30.025 38.1998 30.2518 37.6607 30.6556 37.2633C31.0594 36.8661 31.607 36.6429 32.1778 36.6429C32.7485 36.6429 33.2962 36.8661 33.6999 37.2633C34.1037 37.6608 34.3305 38.1999 34.3305 38.7617C34.3298 39.3236 34.1027 39.8623 33.6992 40.2594C33.2958 40.6569 32.7485 40.8802 32.1778 40.8809ZM32.1778 38.0554C31.8876 38.0554 31.6259 38.2275 31.5148 38.4915C31.4037 38.7554 31.4653 39.0593 31.6704 39.2612C31.8755 39.4634 32.1842 39.5237 32.4523 39.4144C32.7204 39.305 32.8952 39.0474 32.8952 38.7617C32.8949 38.3719 32.5741 38.0558 32.1778 38.0554Z" fill="url(#paint1_linear_5944_22831)"/>
<path d="M39.3534 40.8809C38.7826 40.8809 38.235 40.6576 37.8312 40.2601C37.4278 39.863 37.201 39.3239 37.201 38.7617C37.201 38.1998 37.4278 37.6607 37.8312 37.2633C38.235 36.8661 38.7827 36.6429 39.3534 36.6429C39.9245 36.6429 40.4721 36.8661 40.8756 37.2633C41.2794 37.6608 41.5062 38.1999 41.5062 38.7617C41.5055 39.3236 41.2787 39.8623 40.8749 40.2594C40.4715 40.6569 39.9241 40.8802 39.3534 40.8809ZM39.3534 38.0554C39.0632 38.0554 38.8015 38.2275 38.6908 38.4915C38.5797 38.7554 38.6409 39.0593 38.846 39.2612C39.0515 39.4634 39.3602 39.5237 39.6283 39.4144C39.8964 39.305 40.0712 39.0474 40.0712 38.7617C40.0709 38.3719 39.7497 38.0558 39.3534 38.0554Z" fill="url(#paint2_linear_5944_22831)"/>
<path d="M10.6508 40.8809C10.0797 40.8809 9.53237 40.6576 9.12865 40.2601C8.72486 39.863 8.49804 39.3239 8.49804 38.7617C8.49804 38.1998 8.72486 37.6607 9.12865 37.2633C9.53243 36.8661 10.0797 36.6429 10.6508 36.6429C11.2216 36.6429 11.7693 36.8661 12.173 37.2633C12.5768 37.6608 12.8036 38.1999 12.8036 38.7617C12.8029 39.3236 12.5757 39.8623 12.1723 40.2594C11.7685 40.6569 11.2215 40.8802 10.6508 40.8809ZM10.6508 38.0554C10.3606 38.0554 10.0989 38.2275 9.98783 38.4915C9.87673 38.7554 9.93834 39.0593 10.1434 39.2612C10.3485 39.4634 10.6572 39.5237 10.9254 39.4144C11.1935 39.305 11.3683 39.0474 11.3683 38.7617C11.368 38.3719 11.0471 38.0558 10.6508 38.0554Z" fill="url(#paint3_linear_5944_22831)"/>
<path d="M17.8265 40.8809C17.2557 40.8809 16.708 40.6576 16.3043 40.2601C15.9005 39.863 15.674 39.3239 15.674 38.7617C15.674 38.1998 15.9005 37.6607 16.3043 37.2633C16.7081 36.8661 17.2558 36.6429 17.8265 36.6429C18.3976 36.6429 18.9449 36.8661 19.3487 37.2633C19.7524 37.6608 19.9793 38.1999 19.9793 38.7617C19.9785 39.3236 19.7517 39.8623 19.3479 40.2594C18.9445 40.6569 18.3972 40.8802 17.8265 40.8809ZM17.8265 38.0554C17.5363 38.0554 17.2746 38.2275 17.1635 38.4915C17.0524 38.7554 17.114 39.0593 17.3191 39.2612C17.5245 39.4634 17.8329 39.5237 18.101 39.4144C18.3691 39.305 18.544 39.0474 18.544 38.7617C18.544 38.3719 18.2228 38.0558 17.8265 38.0554Z" fill="url(#paint4_linear_5944_22831)"/>
<path d="M15.6187 34.5234H13.4773C13.081 34.5234 12.7599 34.8396 12.7599 35.2297C12.7599 35.6198 13.081 35.936 13.4773 35.936H15.6187C16.015 35.936 16.3362 35.6198 16.3362 35.2297C16.3362 34.8396 16.015 34.5234 15.6187 34.5234Z" fill="url(#paint5_linear_5944_22831)"/>
<path d="M15.0919 41.5871H12.9505C12.5542 41.5871 12.233 41.9036 12.233 42.2937C12.233 42.6838 12.5542 43 12.9505 43H15.0919C15.4882 43 15.8093 42.6838 15.8093 42.2937C15.8093 41.9036 15.4882 41.5871 15.0919 41.5871Z" fill="url(#paint6_linear_5944_22831)"/>
<path d="M19.3743 41.5871H17.2325C16.8362 41.5871 16.515 41.9036 16.515 42.2937C16.515 42.6838 16.8362 43 17.2325 43H19.3743C19.7706 43 20.0918 42.6838 20.0918 42.2937C20.0918 41.9036 19.7706 41.5871 19.3743 41.5871Z" fill="url(#paint7_linear_5944_22831)"/>
<path d="M19.9011 34.5234H17.7601C17.3638 34.5234 17.0426 34.8396 17.0426 35.2297C17.0426 35.6198 17.3638 35.936 17.7601 35.936H19.9011C20.2971 35.936 20.6186 35.6198 20.6186 35.2297C20.6186 34.8396 20.2971 34.5234 19.9011 34.5234Z" fill="url(#paint8_linear_5944_22831)"/>
<path d="M6.41673 39.3922C6.32842 39.0123 5.94386 38.7746 5.55788 38.8616C5.17154 38.9481 4.93013 39.3267 5.01808 39.707C5.20965 40.5353 5.65046 41.2874 6.28284 41.8651C6.57339 42.1308 7.02703 42.1147 7.29729 41.829C7.56719 41.5434 7.55117 41.0964 7.26133 40.8304C6.83903 40.4459 6.54455 39.9446 6.41673 39.3922Z" fill="url(#paint9_linear_5944_22831)"/>
<path d="M43.5839 38.1154C43.6594 38.435 43.9488 38.6611 44.2818 38.6611C44.337 38.6611 44.3921 38.6548 44.4459 38.6425C44.6311 38.5998 44.7917 38.4865 44.8921 38.3274C44.9925 38.1683 45.0245 37.9765 44.9811 37.7939C44.7849 36.9667 44.3398 36.217 43.7038 35.6424C43.4122 35.3782 42.9586 35.3967 42.6901 35.6835C42.4216 35.9705 42.4405 36.4171 42.7318 36.6814C43.1555 37.0645 43.4525 37.564 43.5839 38.1154Z" fill="url(#paint10_linear_5944_22831)"/>
<path d="M6.77496 35.27C6.06353 35.7505 5.51558 36.4309 5.20328 37.2223C5.05908 37.5858 5.24174 37.9952 5.61099 38.1368C5.69395 38.169 5.78261 38.1855 5.87163 38.1852C6.16717 38.1852 6.4328 38.0068 6.54033 37.7355C6.74899 37.2076 7.11467 36.7537 7.58933 36.4329C7.91478 36.2114 7.99668 35.7722 7.772 35.4514C7.54732 35.1304 7.10116 35.0494 6.77495 35.2699L6.77496 35.27Z" fill="url(#paint11_linear_5944_22831)"/>
<path d="M11.3363 34.5234H9.19528C9.00621 34.5238 8.82497 34.5984 8.69216 34.7313C8.55935 34.8641 8.486 35.0436 8.48848 35.2297C8.49276 35.6219 8.8175 35.937 9.21558 35.936H11.3364C11.7327 35.936 12.0539 35.6198 12.0539 35.2297C12.0539 34.8396 11.7326 34.5234 11.3363 34.5234Z" fill="url(#paint12_linear_5944_22831)"/>
<path d="M10.8094 41.5871H9.2157C9.06935 41.5871 8.92337 41.5766 8.77844 41.5548C8.38677 41.4956 8.02073 41.7602 7.9609 42.1458C7.90073 42.5314 8.16956 42.892 8.56123 42.9509C8.77808 42.9835 8.9967 43 9.21569 43H10.8094C11.2057 43 11.5269 42.6838 11.5269 42.2937C11.5269 41.9036 11.2057 41.5871 10.8094 41.5871Z" fill="url(#paint13_linear_5944_22831)"/>
<path d="M40.7882 41.5871H38.6468C38.2505 41.5871 37.9289 41.9036 37.9289 42.2937C37.9289 42.6838 38.2505 43 38.6468 43H40.8302C41.0182 42.9993 41.1984 42.9239 41.3294 42.7911C41.4604 42.6579 41.5317 42.4788 41.5267 42.2937C41.5171 41.8994 41.1888 41.5853 40.7882 41.5871Z" fill="url(#paint14_linear_5944_22831)"/>
<path d="M32.7502 34.5234H30.6088C30.2125 34.5234 29.891 34.8396 29.891 35.2297C29.891 35.6198 30.2125 35.936 30.6088 35.936H32.7502C33.1465 35.936 33.4677 35.6198 33.4677 35.2297C33.4677 34.8396 33.1465 34.5234 32.7502 34.5234Z" fill="url(#paint15_linear_5944_22831)"/>
<path d="M36.5058 41.5871H34.3644C33.9681 41.5871 33.6469 41.9036 33.6469 42.2937C33.6469 42.6838 33.9681 43 34.3644 43H36.5058C36.9021 43 37.2236 42.6838 37.2236 42.2937C37.2236 41.9036 36.9021 41.5871 36.5058 41.5871Z" fill="url(#paint16_linear_5944_22831)"/>
<path d="M44.397 39.3662C44.027 39.2267 43.6122 39.4086 43.4697 39.7725C43.2639 40.3014 42.9011 40.7574 42.4286 41.0806C42.1046 41.3042 42.0255 41.7437 42.252 42.0634C42.4784 42.3827 42.9249 42.4616 43.2496 42.2393C43.9579 41.7546 44.5012 41.0714 44.8096 40.2789C44.8779 40.104 44.8726 39.9095 44.7953 39.7384C44.7181 39.5674 44.5746 39.4335 44.3969 39.3662L44.397 39.3662Z" fill="url(#paint17_linear_5944_22831)"/>
<path d="M32.2233 41.5871H30.082C29.6856 41.5871 29.3641 41.9036 29.3641 42.2937C29.3641 42.6838 29.6856 43 30.082 43H32.2233C32.6197 43 32.9408 42.6838 32.9408 42.2937C32.9408 41.9036 32.6197 41.5871 32.2233 41.5871Z" fill="url(#paint18_linear_5944_22831)"/>
<path d="M27.94 41.5871H25.7986C25.4023 41.5871 25.0811 41.9036 25.0811 42.2937C25.0811 42.6838 25.4023 43 25.7986 43H27.94C28.3363 43 28.6579 42.6838 28.6579 42.2937C28.6579 41.9036 28.3363 41.5871 27.94 41.5871Z" fill="url(#paint19_linear_5944_22831)"/>
<path d="M23.6576 41.5871H21.5162C21.1199 41.5871 20.7987 41.9036 20.7987 42.2937C20.7987 42.6838 21.1199 43 21.5162 43H23.6576C24.0539 43 24.3751 42.6838 24.3751 42.2937C24.3751 41.9036 24.0539 41.5871 23.6576 41.5871Z" fill="url(#paint20_linear_5944_22831)"/>
<path d="M28.7321 34.5763C29.3756 34.5627 29.8901 34.046 29.8915 33.4126V26.0528C29.8908 25.4089 29.3606 24.8874 28.7065 24.8863H21.2971C20.643 24.8874 20.1132 25.4089 20.1121 26.0528V33.4126C20.1131 34.0562 20.643 34.5781 21.2971 34.5788H21.7646C21.4495 34.7092 21.2714 35.04 21.3391 35.3699C21.4067 35.6994 21.7009 35.9367 22.0427 35.9363H24.1841C24.5255 35.9367 24.82 35.6994 24.8877 35.3699C24.955 35.04 24.7773 34.7092 24.4622 34.5788H26.0474C25.7327 34.7092 25.5546 35.04 25.6223 35.3699C25.6896 35.6994 25.984 35.9367 26.3255 35.9363H28.4669C28.8109 35.9374 29.1068 35.6969 29.1719 35.3646C29.2367 35.032 29.0522 34.7011 28.7321 34.5763ZM25.7857 26.299V27.6179H25.786C25.6034 27.5405 25.3965 27.5405 25.2142 27.6186L25.0005 27.7105L24.7865 27.6186C24.6053 27.5408 24.3995 27.5405 24.2175 27.6172V26.299L25.7857 26.299ZM21.547 26.299H22.7826V28.2664C22.7826 28.5475 22.9517 28.802 23.2135 28.9142L23.713 29.1287C23.896 29.2069 24.1036 29.2069 24.2863 29.1287L24.4999 29.0369L24.7136 29.1287H24.714C24.8966 29.2072 25.1042 29.2072 25.2872 29.1287L25.5016 29.0369L25.7167 29.1287C25.899 29.2072 26.1062 29.2072 26.2885 29.1287L26.7895 28.9142C27.0516 28.802 27.2211 28.5475 27.2211 28.2664V26.299H28.4566V33.1659H21.5471L21.547 26.299Z" fill="url(#paint21_linear_5944_22831)"/>
<path d="M40.9058 24.8862H33.4959C32.8418 24.8873 32.312 25.4089 32.3109 26.0528V33.4125C32.312 34.0561 32.8418 34.578 33.4959 34.5787H34.6137C34.2989 34.7091 34.1209 35.04 34.1882 35.3698C34.2558 35.6993 34.5503 35.9366 34.8918 35.9362H37.0324C37.3743 35.9366 37.6684 35.6993 37.736 35.3698C37.8037 35.04 37.6256 34.7091 37.3109 34.5787H38.8961C38.581 34.7091 38.4033 35.04 38.4706 35.3698C38.5383 35.6993 38.8324 35.9362 39.1742 35.9362H40.7887C40.9293 35.9362 41.0699 35.9464 41.2092 35.9667C41.2437 35.972 41.279 35.9744 41.3142 35.9744C41.6899 35.9737 42.0014 35.6881 42.0285 35.319C42.0559 34.9502 41.7896 34.6232 41.4178 34.5692C41.3331 34.5569 41.2451 34.558 41.159 34.5506V34.5503C41.7023 34.4329 42.0894 33.9597 42.0905 33.4125V26.0527C42.0898 25.4088 41.5595 24.8873 40.9058 24.8862ZM37.9849 26.2988V27.6178C37.8022 27.5399 37.5954 27.5403 37.4131 27.6185L37.1994 27.7103L36.9854 27.6185C36.8042 27.5406 36.5984 27.5403 36.4164 27.6171V26.2988L37.9849 26.2988ZM33.7463 26.2988H34.9818L34.9815 28.2663C34.9815 28.5474 35.1506 28.8018 35.4123 28.914L35.9119 29.1285H35.9123C36.0949 29.2067 36.3025 29.2067 36.4852 29.1285L36.6988 29.0367L36.9125 29.1285H36.9128C37.0955 29.207 37.3031 29.207 37.4861 29.1285L37.7005 29.0367L37.9155 29.1285C38.0978 29.207 38.3051 29.207 38.4874 29.1285L38.9884 28.914C39.2504 28.8018 39.4199 28.5474 39.4199 28.2663V26.2988H40.6555V33.1657H33.746L33.7463 26.2988Z" fill="url(#paint22_linear_5944_22831)"/>
<path d="M19.2002 13.3028L14.7774 11.6109H14.777C14.7215 11.5363 14.6613 11.4648 14.5976 11.3968V7.783C14.5976 7.39287 14.276 7.07671 13.8797 7.07671C13.4834 7.07671 13.1622 7.39287 13.1622 7.783V10.6849C13.0437 10.6646 12.9237 10.6527 12.8037 10.6492C12.6833 10.6527 12.5633 10.6646 12.4447 10.6849V7.70664C12.4447 7.31651 12.1236 7 11.7273 7C11.331 7 11.0094 7.31651 11.0094 7.70664V11.3968C10.9457 11.4648 10.8859 11.5363 10.83 11.611L6.40717 13.3029C6.12267 13.4112 5.9393 13.6853 5.94998 13.985L6.20279 21.1957H6.20314C6.21489 21.5333 6.4677 21.8154 6.80633 21.8691C6.84407 21.875 6.88253 21.8782 6.92062 21.8778C7.22151 21.8778 7.48998 21.6931 7.59324 21.4152L7.91335 20.556V26.9998H7.9137C7.91441 27.6437 8.4446 28.1653 9.0987 28.1664H16.5082C17.1623 28.1653 17.6924 27.6437 17.6932 26.9998V20.556L18.0133 21.4152H18.0136C18.1169 21.6931 18.3857 21.8778 18.6862 21.8778C18.7243 21.8782 18.7628 21.875 18.8005 21.8691C19.1392 21.8154 19.3923 21.5333 19.4037 21.1957L19.6565 13.985L19.6569 13.9853C19.6676 13.6853 19.4842 13.4112 19.2 13.3029L19.2002 13.3028ZM13.8798 13.1216C13.8798 13.5499 13.6177 13.9362 13.2153 14.1002C12.8133 14.2642 12.3505 14.1738 12.0425 13.8706C11.7348 13.5678 11.6426 13.1118 11.8092 12.716C11.9759 12.32 12.3683 12.062 12.8037 12.062C13.3977 12.0627 13.8794 12.5366 13.8798 13.1216ZM7.51076 17.537L7.40144 14.4378L10.313 13.3238C10.3344 13.6085 10.4063 13.8871 10.5256 14.1472L8.65937 15.033C8.4913 15.1122 8.3617 15.2531 8.2976 15.4255L7.51076 17.537ZM16.2584 26.7533H9.34879V19.8864H10.5844V21.8539C10.5844 22.1347 10.7535 22.3891 11.0152 22.5017L11.5148 22.7162C11.6978 22.7943 11.9054 22.7943 12.0881 22.7162L12.3017 22.6243L12.5154 22.7162H12.5157C12.6984 22.7947 12.906 22.7947 13.089 22.7162L13.3034 22.6243L13.5184 22.7162C13.7007 22.7947 13.908 22.7947 14.0903 22.7162L14.5913 22.5017C14.8533 22.3895 15.0228 22.135 15.0228 21.8539V19.8864H16.2584L16.2584 26.7533ZM12.0197 19.8864H13.5878V21.2054C13.4051 21.1276 13.1983 21.1279 13.016 21.2061L12.8023 21.2979L12.5887 21.2061H12.5883C12.4071 21.1283 12.2013 21.1276 12.0193 21.2047L12.0197 19.8864ZM16.5087 18.4739L9.09884 18.4735C8.94751 18.4739 8.79796 18.5033 8.65767 18.5594L9.54429 16.1808L11.5284 15.2394C11.9122 15.471 12.3534 15.5937 12.8034 15.5937C13.2535 15.5937 13.695 15.471 14.0785 15.2394L16.0629 16.1808L16.9495 18.5594C16.8096 18.5033 16.6597 18.4739 16.5084 18.4735L16.5087 18.4739ZM18.0964 17.537L17.3095 15.4255C17.2454 15.2531 17.1158 15.1122 16.9477 15.033L15.0815 14.1476C15.2008 13.8871 15.2727 13.6085 15.2941 13.3239L18.2053 14.4374L18.0964 17.537Z" fill="url(#paint23_linear_5944_22831)"/>
<defs>
<linearGradient id="paint0_linear_5944_22831" x1="0" y1="0" x2="0" y2="1" gradientUnits="objectBoundingBox">
<stop stop-color="#ED3040"/>
<stop offset="1" stop-color="#2D23F4"/>
</linearGradient>
<linearGradient id="paint1_linear_5944_22831" x1="0" y1="0" x2="0" y2="1" gradientUnits="objectBoundingBox">
<stop stop-color="#ED3040"/>
<stop offset="1" stop-color="#2D23F4"/>
</linearGradient>
<linearGradient id="paint2_linear_5944_22831" x1="0" y1="0" x2="0" y2="1" gradientUnits="objectBoundingBox">
<stop stop-color="#ED3040"/>
<stop offset="1" stop-color="#2D23F4"/>
</linearGradient>
<linearGradient id="paint3_linear_5944_22831" x1="0" y1="0" x2="0" y2="1" gradientUnits="objectBoundingBox">
<stop stop-color="#ED3040"/>
<stop offset="1" stop-color="#2D23F4"/>
</linearGradient>
<linearGradient id="paint4_linear_5944_22831" x1="0" y1="0" x2="0" y2="1" gradientUnits="objectBoundingBox">
<stop stop-color="#ED3040"/>
<stop offset="1" stop-color="#2D23F4"/>
</linearGradient>
<linearGradient id="paint5_linear_5944_22831" x1="0" y1="0" x2="0" y2="1" gradientUnits="objectBoundingBox">
<stop stop-color="#ED3040"/>
<stop offset="1" stop-color="#2D23F4"/>
</linearGradient>
<linearGradient id="paint6_linear_5944_22831" x1="0" y1="0" x2="0" y2="1" gradientUnits="objectBoundingBox">
<stop stop-color="#ED3040"/>
<stop offset="1" stop-color="#2D23F4"/>
</linearGradient>
<linearGradient id="paint7_linear_5944_22831" x1="0" y1="0" x2="0" y2="1" gradientUnits="objectBoundingBox">
<stop stop-color="#ED3040"/>
<stop offset="1" stop-color="#2D23F4"/>
</linearGradient>
<linearGradient id="paint8_linear_5944_22831" x1="0" y1="0" x2="0" y2="1" gradientUnits="objectBoundingBox">
<stop stop-color="#ED3040"/>
<stop offset="1" stop-color="#2D23F4"/>
</linearGradient>
<linearGradient id="paint9_linear_5944_22831" x1="0" y1="0" x2="0" y2="1" gradientUnits="objectBoundingBox">
<stop stop-color="#ED3040"/>
<stop offset="1" stop-color="#2D23F4"/>
</linearGradient>
<linearGradient id="paint10_linear_5944_22831" x1="0" y1="0" x2="0" y2="1" gradientUnits="objectBoundingBox">
<stop stop-color="#ED3040"/>
<stop offset="1" stop-color="#2D23F4"/>
</linearGradient>
<linearGradient id="paint11_linear_5944_22831" x1="0" y1="0" x2="0" y2="1" gradientUnits="objectBoundingBox">
<stop stop-color="#ED3040"/>
<stop offset="1" stop-color="#2D23F4"/>
</linearGradient>
<linearGradient id="paint12_linear_5944_22831" x1="0" y1="0" x2="0" y2="1" gradientUnits="objectBoundingBox">
<stop stop-color="#ED3040"/>
<stop offset="1" stop-color="#2D23F4"/>
</linearGradient>
<linearGradient id="paint13_linear_5944_22831" x1="0" y1="0" x2="0" y2="1" gradientUnits="objectBoundingBox">
<stop stop-color="#ED3040"/>
<stop offset="1" stop-color="#2D23F4"/>
</linearGradient>
<linearGradient id="paint14_linear_5944_22831" x1="0" y1="0" x2="0" y2="1" gradientUnits="objectBoundingBox">
<stop stop-color="#ED3040"/>
<stop offset="1" stop-color="#2D23F4"/>
</linearGradient>
<linearGradient id="paint15_linear_5944_22831" x1="0" y1="0" x2="0" y2="1" gradientUnits="objectBoundingBox">
<stop stop-color="#ED3040"/>
<stop offset="1" stop-color="#2D23F4"/>
</linearGradient>
<linearGradient id="paint16_linear_5944_22831" x1="0" y1="0" x2="0" y2="1" gradientUnits="objectBoundingBox">
<stop stop-color="#ED3040"/>
<stop offset="1" stop-color="#2D23F4"/>
</linearGradient>
<linearGradient id="paint17_linear_5944_22831" x1="0" y1="0" x2="0" y2="1" gradientUnits="objectBoundingBox">
<stop stop-color="#ED3040"/>
<stop offset="1" stop-color="#2D23F4"/>
</linearGradient>
<linearGradient id="paint18_linear_5944_22831" x1="0" y1="0" x2="0" y2="1" gradientUnits="objectBoundingBox">
<stop stop-color="#ED3040"/>
<stop offset="1" stop-color="#2D23F4"/>
</linearGradient>
<linearGradient id="paint19_linear_5944_22831" x1="0" y1="0" x2="0" y2="1" gradientUnits="objectBoundingBox">
<stop stop-color="#ED3040"/>
<stop offset="1" stop-color="#2D23F4"/>
</linearGradient>
<linearGradient id="paint20_linear_5944_22831" x1="0" y1="0" x2="0" y2="1" gradientUnits="objectBoundingBox">
<stop stop-color="#ED3040"/>
<stop offset="1" stop-color="#2D23F4"/>
</linearGradient>
<linearGradient id="paint21_linear_5944_22831" x1="0" y1="0" x2="0" y2="1" gradientUnits="objectBoundingBox">
<stop stop-color="#ED3040"/>
<stop offset="1" stop-color="#2D23F4"/>
</linearGradient>
<linearGradient id="paint22_linear_5944_22831" x1="0" y1="0" x2="0" y2="1" gradientUnits="objectBoundingBox">
<stop stop-color="#ED3040"/>
<stop offset="1" stop-color="#2D23F4"/>
</linearGradient>
<linearGradient id="paint23_linear_5944_22831" x1="0" y1="0" x2="0" y2="1" gradientUnits="objectBoundingBox">
<stop stop-color="#ED3040"/>
<stop offset="1" stop-color="#2D23F4"/>
</linearGradient>
</defs>
</svg>
