<svg width="50" height="50" viewBox="0 0 50 50" fill="none" xmlns="http://www.w3.org/2000/svg">
<path d="M6.30433 44.9996H27.549C27.991 44.9996 28.3529 44.6397 28.3529 44.1995C28.3529 43.7596 27.9914 43.3994 27.549 43.3994H25.5156C25.2583 41.2554 23.4178 39.5834 21.191 39.5834H20.9337V36.1756H38.6499C40.8602 36.1756 42.6528 34.3837 42.6528 32.1919C42.6528 30.0007 40.8601 28.2006 38.6499 28.2006C38.433 28.2006 38.224 28.2326 38.015 28.2646L25.1052 15.1776L32.8699 13.3935C33.5049 14.0574 34.3971 14.4735 35.394 14.4735C36.5435 14.4735 37.556 13.9134 38.1914 13.0657L40.8841 14.3935C40.9966 14.4494 41.1171 14.4735 41.2378 14.4735C41.4629 14.4735 41.6798 14.3857 41.8327 14.2097L44.2921 11.5139C44.5893 11.186 44.5654 10.6818 44.236 10.3859C43.9065 10.09 43.3999 10.1139 43.1026 10.4417L41.0609 12.6817L38.8423 11.5857C38.8745 11.3859 38.9067 11.1857 38.9067 10.9776C38.9067 10.1057 38.569 9.31377 38.0384 8.70567L39.6702 6.78582L42.3147 8.00983C42.7167 8.19367 43.1991 8.02583 43.3838 7.62578C43.5685 7.22573 43.3999 6.74566 42.9979 6.56182L39.7906 5.07401C39.4612 4.92218 39.0753 5.01001 38.8341 5.28204L36.7281 7.75378C36.3183 7.58595 35.8681 7.48994 35.3939 7.48994C34.0676 7.48994 32.9263 8.23385 32.3314 9.32195L23.4094 11.3296C22.6858 10.6895 21.7375 10.2817 20.6924 10.2817C18.4338 10.2817 16.593 12.1137 16.593 14.3615C16.593 16.6092 18.4338 18.4412 20.6924 18.4412C20.9496 18.4412 21.1987 18.4092 21.4481 18.3694L31.4228 28.2011H16.9221C14.7118 28.2011 12.9192 29.993 12.9192 32.1849V39.5846H12.6619C10.4355 39.5846 8.59469 41.2566 8.33738 43.4005L6.30395 43.4002C5.86196 43.4002 5.5 43.76 5.5 44.2003C5.50037 44.6401 5.85374 45 6.30395 45L6.30433 44.9996ZM41.0446 32.1841C41.0446 33.504 39.9676 34.568 38.6492 34.568C37.331 34.568 36.2538 33.4962 36.2538 32.1841C36.2542 30.8722 37.3233 29.8002 38.6496 29.8002C39.9677 29.8002 41.0447 30.8723 41.0447 32.1841H41.0446ZM24.7116 13.6248C24.6556 13.313 24.5669 13.0167 24.4383 12.7369L31.8897 11.057C31.8975 11.361 31.954 11.6569 32.0344 11.9371L24.7116 13.6248ZM35.3938 9.08917C36.4386 9.08917 37.2907 9.93727 37.2907 10.977C37.2907 12.0168 36.4385 12.8648 35.3938 12.8648C34.7428 12.8648 34.1639 12.537 33.8184 12.0327C33.6176 11.7287 33.4968 11.3688 33.4968 10.977C33.4968 9.93721 34.3487 9.08917 35.3938 9.08917ZM18.2003 14.3609C18.2003 12.993 19.3176 11.881 20.6922 11.881C22.0667 11.881 23.184 12.993 23.184 14.3609C23.184 15.7289 22.0667 16.8409 20.6922 16.8409C19.3176 16.8409 18.2003 15.7289 18.2003 14.3609ZM24.1646 16.5049L36.3822 28.8964C35.9963 29.1603 35.6668 29.4885 35.4017 29.8644L33.9468 28.4324L23.0473 17.6975C23.4975 17.3775 23.8752 16.9696 24.1647 16.5055L24.1646 16.5049ZM34.7184 31.4401C34.6702 31.6801 34.6463 31.928 34.6463 32.184C34.6463 33.0801 34.9596 33.9041 35.4663 34.5679H20.9254V32.184C20.9254 31.2879 20.6121 30.4639 20.1054 29.8001H33.0467L34.7184 31.4401ZM16.9219 29.8001C18.2482 29.8001 19.3172 30.8718 19.3172 32.184C19.3172 33.4958 18.2403 34.5679 16.9219 34.5679C15.6037 34.5679 14.5265 33.4961 14.5265 32.184C14.5265 30.8721 15.5956 29.8001 16.9219 29.8001ZM14.5265 35.3598C15.1936 35.8637 16.0215 36.1759 16.9219 36.1759C17.8223 36.1759 18.6502 35.8641 19.3172 35.3598V39.5836H14.5186V35.3598H14.5265ZM12.6539 41.1835H21.1822C22.5164 41.1835 23.6337 42.1354 23.8831 43.3992H9.95296C10.2024 42.1354 11.3197 41.1835 12.6539 41.1835Z" fill="url(#paint0_linear_5944_22833)"/>
<defs>
<linearGradient id="paint0_linear_5944_22833" x1="37.3459" y1="33.6397" x2="37.3459" y2="41.6506" gradientUnits="userSpaceOnUse">
<stop stop-color="#ED3040"/>
<stop offset="1" stop-color="#2D23F4"/>
</linearGradient>
</defs>
</svg>
