<svg width="50" height="50" viewBox="0 0 50 50" fill="none" xmlns="http://www.w3.org/2000/svg">
<path fill-rule="evenodd" clip-rule="evenodd" d="M35.3051 18.22C35.3051 14.6633 32.421 11.7792 28.8644 11.7792H21.1355C17.5788 11.7792 14.6947 14.6633 14.6947 18.22V19.5757C14.6947 23.1324 17.5788 26.0165 21.1355 26.0165H28.8644C32.421 26.0165 35.3051 23.1324 35.3051 19.5757V18.22ZM33.2711 18.22V19.5757C33.2711 22.0098 31.2984 23.9825 28.8644 23.9825H21.1355C18.7015 23.9825 16.7287 22.0098 16.7287 19.5757V18.22C16.7287 15.7859 18.7015 13.8132 21.1355 13.8132H28.8644C31.2984 13.8132 33.2711 15.7859 33.2711 18.22Z" fill="url(#paint0_linear_5944_22823)"/>
<path fill-rule="evenodd" clip-rule="evenodd" d="M38.5907 18.9003V18.895C38.5907 16.6699 36.7872 14.865 34.5607 14.865H34.2909C32.9433 14.865 33.2712 16.4431 33.2712 15.882V21.9133C33.2712 22.4748 33.7267 22.9304 34.2883 22.9304H34.5608C36.7872 22.9304 38.5907 21.1254 38.5907 18.9003ZM35.3053 20.7523C36.0387 20.4566 36.5567 19.7394 36.5567 18.9V18.8946C36.5567 18.0552 36.0386 17.338 35.3053 17.0423V20.7523Z" fill="url(#paint1_linear_5944_22823)"/>
<path fill-rule="evenodd" clip-rule="evenodd" d="M15.4399 22.9301H15.7124L15.7652 22.9287C16.3021 22.9015 16.7293 22.4567 16.7293 21.9131V15.8817C16.7293 15.8817 17.0574 14.8647 15.7096 14.8647H15.4398C13.2134 14.8647 11.4099 16.6696 11.4099 18.8947V18.9001C11.4099 21.1252 13.2134 22.9301 15.4399 22.9301ZM14.6954 17.0427C13.962 17.3385 13.4439 18.0557 13.4439 18.8951V18.9005C13.4439 19.7398 13.962 20.4571 14.6954 20.7528V17.0427Z" fill="url(#paint2_linear_5944_22823)"/>
<path fill-rule="evenodd" clip-rule="evenodd" d="M28.9811 24.9996C28.9811 24.4381 28.5255 23.9826 27.964 23.9826H22.036C21.4745 23.9826 21.0189 24.4381 21.0189 24.9996V29.0673C21.0189 29.6287 21.4745 30.0843 22.036 30.0843H27.964C28.5255 30.0843 28.9811 29.6288 28.9811 29.0673V24.9996ZM26.9471 26.0167V28.0507H23.0527V26.0167H26.9471Z" fill="url(#paint3_linear_5944_22823)"/>
<path fill-rule="evenodd" clip-rule="evenodd" d="M36.8648 31.7793C36.8648 30.7909 36.4715 29.8415 35.7731 29.1421C35.0733 28.4437 34.1243 28.0504 33.1359 28.0504H16.8646C15.8762 28.0504 14.9268 28.4437 14.2274 29.1421C13.529 29.8419 13.1357 30.7909 13.1357 31.7793V41.271C13.1357 42.2595 13.529 43.2088 14.2274 43.9082C14.9272 44.6066 15.8763 44.9999 16.8646 44.9999H33.1359C34.1243 44.9999 35.0737 44.6066 35.7731 43.9082C36.4715 43.2085 36.8648 42.2594 36.8648 41.271V31.7793ZM34.8308 31.7793V41.271C34.8308 41.7211 34.6518 42.1511 34.3346 42.4697C34.016 42.7869 33.5861 42.9659 33.1359 42.9659H16.8646C16.4145 42.9659 15.9845 42.7869 15.666 42.4697C15.3487 42.1511 15.1698 41.7211 15.1698 41.271V31.7793C15.1698 31.3292 15.3487 30.8992 15.666 30.5806C15.9846 30.2634 16.4145 30.0844 16.8646 30.0844H33.1359C33.5861 30.0844 34.016 30.2634 34.3346 30.5806C34.6518 30.8992 34.8308 31.3292 34.8308 31.7793Z" fill="url(#paint4_linear_5944_22823)"/>
<path fill-rule="evenodd" clip-rule="evenodd" d="M23.3193 10.4611C23.7899 10.1125 24.3716 9.90665 25.0021 9.90665C25.6406 9.90665 26.232 10.1196 26.705 10.4762C27.1538 10.8153 27.7909 10.7258 28.1301 10.277C28.4678 9.82961 28.3783 9.19111 27.9292 8.85333C27.1144 8.23769 26.1001 7.87299 25.0017 7.87299C23.9185 7.87299 22.9176 8.22825 22.1081 8.82741C21.6567 9.16248 21.5618 9.79966 21.8965 10.2498C22.2299 10.7013 22.8674 10.7962 23.319 10.4614L23.3193 10.4611Z" fill="url(#paint5_linear_5944_22823)"/>
<path fill-rule="evenodd" clip-rule="evenodd" d="M21.0017 8.34328C22.1123 7.5204 23.4872 7.0336 24.9731 7.0336C26.481 7.0336 27.8734 7.53386 28.992 8.3773C29.4394 8.71641 30.0779 8.62692 30.4157 8.17814C30.7535 7.7307 30.6653 7.09221 30.2165 6.75443C28.7575 5.65334 26.9405 5 24.9731 5C23.0326 5 21.2402 5.63583 19.7909 6.70835C19.3394 7.04343 19.2459 7.6806 19.5793 8.13207C19.9127 8.5822 20.5501 8.67707 21.0017 8.34367L21.0017 8.34328Z" fill="url(#paint6_linear_5944_22823)"/>
<path fill-rule="evenodd" clip-rule="evenodd" d="M45 34.4913V34.4886C45 32.4305 43.3324 30.7624 41.2738 30.7624H35.8473C35.2858 30.7624 34.8303 31.2179 34.8303 31.7794V37.2033C34.8303 37.7648 35.2858 38.2203 35.8473 38.2203H41.2711C43.3307 38.2203 45 36.5509 45 34.4913ZM42.966 34.4886V34.4913C42.966 35.4269 42.2067 36.1863 41.2711 36.1863H36.8644V32.7965H41.2738C42.2081 32.7965 42.9659 33.5545 42.9659 34.4887L42.966 34.4886Z" fill="url(#paint7_linear_5944_22823)"/>
<path fill-rule="evenodd" clip-rule="evenodd" d="M5 34.4888V34.4914C5 36.551 6.66933 38.2204 8.72888 38.2204H14.1527C14.7142 38.2204 15.1697 37.7648 15.1697 37.2033V31.7795C15.1697 31.218 14.7142 30.7625 14.1527 30.7625H8.72621C6.66804 30.7625 5 32.4301 5 34.4888ZM7.03397 34.4888C7.03397 33.5545 7.79193 32.7966 8.72613 32.7966H13.1356V36.1863H8.7288C7.79324 36.1863 7.03389 35.427 7.03389 34.4914L7.03397 34.4888Z" fill="url(#paint8_linear_5944_22823)"/>
<path fill-rule="evenodd" clip-rule="evenodd" d="M43.4696 37.2034C43.4696 36.6419 43.0141 36.1863 42.4526 36.1863H39.2377C38.6763 36.1863 38.2207 36.6419 38.2207 37.2034V43.983C38.2207 44.5444 38.6762 45 39.2377 45H42.4526C43.014 45 43.4696 44.5445 43.4696 43.983V37.2034ZM41.4356 38.2204V42.9663H40.2544V38.2204H41.4356Z" fill="url(#paint9_linear_5944_22823)"/>
<path fill-rule="evenodd" clip-rule="evenodd" d="M7.54839 36.1863C6.98691 36.1863 6.53136 36.6418 6.53136 37.2033V43.9829C6.53136 44.5444 6.98688 44.9999 7.54839 44.9999H10.7632C11.3247 44.9999 11.7802 44.5444 11.7802 43.9829V37.2033C11.7802 36.6418 11.3247 36.1863 10.7632 36.1863H7.54839ZM8.56542 38.2202H9.7466V42.9661H8.56542V38.2202Z" fill="url(#paint10_linear_5944_22823)"/>
<path fill-rule="evenodd" clip-rule="evenodd" d="M21.0207 15.8473C19.3379 15.8473 17.9697 17.2141 17.9697 18.8983C17.9697 20.5824 19.3379 21.9493 21.0207 21.9493C22.7048 21.9493 24.0717 20.5824 24.0717 18.8983C24.0717 17.2141 22.7048 15.8473 21.0207 15.8473ZM21.0207 17.8812C21.5822 17.8812 22.0377 18.3368 22.0377 18.8983C22.0377 19.4598 21.5822 19.9153 21.0207 19.9153C20.4605 19.9153 20.0036 19.4598 20.0036 18.8983C20.0036 18.3368 20.4605 17.8812 21.0207 17.8812Z" fill="url(#paint11_linear_5944_22823)"/>
<path fill-rule="evenodd" clip-rule="evenodd" d="M28.9802 15.8473C27.296 15.8473 25.9292 17.2141 25.9292 18.8983C25.9292 20.5824 27.296 21.9493 28.9802 21.9493C30.663 21.9493 32.0312 20.5824 32.0312 18.8983C32.0312 17.2141 30.663 15.8473 28.9802 15.8473ZM28.9802 17.8812C29.5403 17.8812 29.9972 18.3368 29.9972 18.8983C29.9972 19.4598 29.5404 19.9153 28.9802 19.9153C28.4187 19.9153 27.9632 19.4598 27.9632 18.8983C27.9632 18.3368 28.4187 17.8812 28.9802 17.8812Z" fill="url(#paint12_linear_5944_22823)"/>
<defs>
<linearGradient id="paint0_linear_5944_22823" x1="37.6624" y1="33.6397" x2="37.6624" y2="41.6506" gradientUnits="userSpaceOnUse">
<stop stop-color="#ED3040"/>
<stop offset="1" stop-color="#2D23F4"/>
</linearGradient>
<linearGradient id="paint1_linear_5944_22823" x1="37.6624" y1="33.6397" x2="37.6624" y2="41.6506" gradientUnits="userSpaceOnUse">
<stop stop-color="#ED3040"/>
<stop offset="1" stop-color="#2D23F4"/>
</linearGradient>
<linearGradient id="paint2_linear_5944_22823" x1="37.6624" y1="33.6397" x2="37.6624" y2="41.6506" gradientUnits="userSpaceOnUse">
<stop stop-color="#ED3040"/>
<stop offset="1" stop-color="#2D23F4"/>
</linearGradient>
<linearGradient id="paint3_linear_5944_22823" x1="37.6624" y1="33.6397" x2="37.6624" y2="41.6506" gradientUnits="userSpaceOnUse">
<stop stop-color="#ED3040"/>
<stop offset="1" stop-color="#2D23F4"/>
</linearGradient>
<linearGradient id="paint4_linear_5944_22823" x1="37.6624" y1="33.6397" x2="37.6624" y2="41.6506" gradientUnits="userSpaceOnUse">
<stop stop-color="#ED3040"/>
<stop offset="1" stop-color="#2D23F4"/>
</linearGradient>
<linearGradient id="paint5_linear_5944_22823" x1="37.6624" y1="33.6397" x2="37.6624" y2="41.6506" gradientUnits="userSpaceOnUse">
<stop stop-color="#ED3040"/>
<stop offset="1" stop-color="#2D23F4"/>
</linearGradient>
<linearGradient id="paint6_linear_5944_22823" x1="37.6624" y1="33.6397" x2="37.6624" y2="41.6506" gradientUnits="userSpaceOnUse">
<stop stop-color="#ED3040"/>
<stop offset="1" stop-color="#2D23F4"/>
</linearGradient>
<linearGradient id="paint7_linear_5944_22823" x1="37.6624" y1="33.6397" x2="37.6624" y2="41.6506" gradientUnits="userSpaceOnUse">
<stop stop-color="#ED3040"/>
<stop offset="1" stop-color="#2D23F4"/>
</linearGradient>
<linearGradient id="paint8_linear_5944_22823" x1="37.6624" y1="33.6397" x2="37.6624" y2="41.6506" gradientUnits="userSpaceOnUse">
<stop stop-color="#ED3040"/>
<stop offset="1" stop-color="#2D23F4"/>
</linearGradient>
<linearGradient id="paint9_linear_5944_22823" x1="37.6624" y1="33.6397" x2="37.6624" y2="41.6506" gradientUnits="userSpaceOnUse">
<stop stop-color="#ED3040"/>
<stop offset="1" stop-color="#2D23F4"/>
</linearGradient>
<linearGradient id="paint10_linear_5944_22823" x1="37.6624" y1="33.6397" x2="37.6624" y2="41.6506" gradientUnits="userSpaceOnUse">
<stop stop-color="#ED3040"/>
<stop offset="1" stop-color="#2D23F4"/>
</linearGradient>
<linearGradient id="paint11_linear_5944_22823" x1="37.6624" y1="33.6397" x2="37.6624" y2="41.6506" gradientUnits="userSpaceOnUse">
<stop stop-color="#ED3040"/>
<stop offset="1" stop-color="#2D23F4"/>
</linearGradient>
<linearGradient id="paint12_linear_5944_22823" x1="37.6624" y1="33.6397" x2="37.6624" y2="41.6506" gradientUnits="userSpaceOnUse">
<stop stop-color="#ED3040"/>
<stop offset="1" stop-color="#2D23F4"/>
</linearGradient>
</defs>
</svg>
