<svg width="50" height="50" viewBox="0 0 50 50" fill="none" xmlns="http://www.w3.org/2000/svg">
<path d="M9.31743 40.6736C9.70939 41.0654 10.3442 41.0654 10.7367 40.6736L13.1063 38.3024C13.475 37.9064 13.4638 37.2894 13.0818 36.9067C12.6993 36.5241 12.0828 36.5133 11.6871 36.8822L9.31749 39.2534C8.92595 39.6457 8.92589 40.2813 9.31743 40.6736Z" fill="url(#paint0_linear_5944_22794)"/>
<path d="M10.2603 30.2231L6.47812 34.0411C6.27882 34.2273 6.1634 34.4861 6.15883 34.7587C6.15385 35.0313 6.26014 35.2938 6.45279 35.4866C6.64545 35.6794 6.90786 35.7858 7.18024 35.7808C7.45262 35.7762 7.71171 35.6607 7.89731 35.4613L11.6861 31.6699C12.0856 31.276 12.0897 30.6328 11.6961 30.2331C11.3025 29.8334 10.6597 29.8288 10.2603 30.2231Z" fill="url(#paint1_linear_5944_22794)"/>
<path d="M19.7321 39.7216C20.1008 39.3256 20.09 38.7086 19.7076 38.326C19.3252 37.9433 18.7086 37.9325 18.3133 38.3015L14.5245 42.0929C14.3252 42.2786 14.2098 42.5375 14.2048 42.81C14.2002 43.0826 14.3061 43.3456 14.4987 43.5384C14.6914 43.7312 14.9542 43.8371 15.2266 43.8326C15.499 43.8276 15.7577 43.7125 15.9433 43.513L19.7321 39.7216Z" fill="url(#paint2_linear_5944_22794)"/>
<path d="M33.2207 20.1024C34.2612 20.1003 35.2415 19.6142 35.8734 18.7874C36.5054 17.9602 36.7172 16.8861 36.4464 15.8811C36.1753 14.8756 35.4528 14.0537 34.4908 13.657C33.5292 13.2597 32.4373 13.3329 31.5371 13.8547C30.6369 14.3766 30.0302 15.2878 29.8958 16.3203C29.7617 17.3528 30.1146 18.389 30.8512 19.1244C31.4802 19.7522 32.3327 20.1037 33.2208 20.1025L33.2207 20.1024ZM31.8015 15.333C32.1681 14.9179 32.69 14.6728 33.243 14.6557C33.7965 14.6383 34.3321 14.8506 34.7241 15.2416C35.1161 15.633 35.3291 16.1685 35.3133 16.7224C35.2971 17.2758 35.0534 17.7985 34.6398 18.1662C34.2574 18.5314 33.7492 18.7354 33.2206 18.7354C32.692 18.7354 32.1838 18.5314 31.8014 18.1662C31.4256 17.7893 31.2143 17.2787 31.2143 16.746C31.2143 16.2138 31.4256 15.7027 31.8014 15.3262L31.8015 15.333Z" fill="url(#paint3_linear_5944_22794)"/>
<path d="M23.1334 44.9133C23.5163 45.0837 23.9647 44.9981 24.2582 44.6989L32.5254 36.3928H32.525C32.704 36.2146 32.809 35.9753 32.8198 35.723L32.8866 28.0734L36.2336 25.4542C38.6493 23.5945 40.4496 21.0504 41.4013 18.1527L44.9289 6.9332C45.0988 6.40468 44.9588 5.82593 44.5665 5.43365C44.1745 5.04101 43.5961 4.90141 43.0679 5.07092L31.8487 8.581C28.953 9.53289 26.4107 11.3349 24.5522 13.7522L21.9347 17.1014L14.2903 17.1683C14.0382 17.1791 13.7991 17.2843 13.621 17.4629L5.29394 25.749C5.00703 26.0366 4.92108 26.4682 5.07637 26.8434C5.23165 27.2186 5.59745 27.4638 6.00312 27.4638H15.5222L17.4699 29.4128L13.9087 34.6845V34.6849C13.6434 35.0834 13.6961 35.614 14.0345 35.9526C14.3729 36.2912 14.9031 36.3436 15.3013 36.0781L20.5694 32.5144L22.5171 34.4634V43.989C22.518 44.3933 22.7609 44.7573 23.1329 44.9135L23.1334 44.9133ZM30.7849 35.2676L24.526 41.5574V34.5372L30.8384 29.6207L30.7849 35.2676ZM40.9126 12.9542C40.2433 12.358 39.5739 11.7285 38.9042 11.0721C38.2349 10.4156 37.6258 9.73248 37.0299 9.06227L42.7062 7.27362L40.9126 12.9542ZM26.1453 14.964C27.7521 12.8683 29.9515 11.3048 32.4577 10.4759L35.6374 9.49116C36.3603 10.3417 37.13 11.186 37.9601 12.0165C38.7901 12.8471 39.6268 13.624 40.4771 14.3474L39.4731 17.496C38.6444 20.0164 37.0741 22.2276 34.9681 23.8398L26.2658 30.6318L24.7598 29.1248L27.9395 23.3911V23.3906C28.123 23.0067 28.0441 22.5484 27.7435 22.2472C27.4425 21.9464 26.9845 21.8675 26.6008 22.0511L20.871 25.2329L19.365 23.7259L26.1453 14.964ZM14.7187 19.1908L20.3618 19.1372L15.4486 25.4539H8.43328L14.7187 19.1908ZM17.276 26.3717L18.5213 24.7708L19.7665 26.0169L18.6217 27.7117L17.276 26.3717ZM21.3795 27.2222L24.4857 25.4942L22.7589 28.6026L18.4876 31.496L21.3795 27.2222ZM22.2494 31.3688L23.9563 30.2232L25.2016 31.4693L23.5884 32.7083L22.2494 31.3688Z" fill="url(#paint4_linear_5944_22794)"/>
<defs>
<linearGradient id="paint0_linear_5944_22794" x1="37.6624" y1="33.6397" x2="37.6624" y2="41.6506" gradientUnits="userSpaceOnUse">
<stop stop-color="#ED3040"/>
<stop offset="1" stop-color="#2D23F4"/>
</linearGradient>
<linearGradient id="paint1_linear_5944_22794" x1="37.6624" y1="33.6397" x2="37.6624" y2="41.6506" gradientUnits="userSpaceOnUse">
<stop stop-color="#ED3040"/>
<stop offset="1" stop-color="#2D23F4"/>
</linearGradient>
<linearGradient id="paint2_linear_5944_22794" x1="37.6624" y1="33.6397" x2="37.6624" y2="41.6506" gradientUnits="userSpaceOnUse">
<stop stop-color="#ED3040"/>
<stop offset="1" stop-color="#2D23F4"/>
</linearGradient>
<linearGradient id="paint3_linear_5944_22794" x1="37.6624" y1="33.6397" x2="37.6624" y2="41.6506" gradientUnits="userSpaceOnUse">
<stop stop-color="#ED3040"/>
<stop offset="1" stop-color="#2D23F4"/>
</linearGradient>
<linearGradient id="paint4_linear_5944_22794" x1="37.6624" y1="33.6397" x2="37.6624" y2="41.6506" gradientUnits="userSpaceOnUse">
<stop stop-color="#ED3040"/>
<stop offset="1" stop-color="#2D23F4"/>
</linearGradient>
</defs>
</svg>
