<svg width="50" height="50" viewBox="0 0 50 50" fill="none" xmlns="http://www.w3.org/2000/svg">
<path fill-rule="evenodd" clip-rule="evenodd" d="M34.3326 43V41.6662C34.3326 40.5619 33.4371 39.6661 32.3332 39.6661H10.9997C9.89548 39.6661 9 40.5619 9 41.6662V43C9 44.1038 9.89548 45 10.9997 45H32.3332C33.4371 45 34.3326 44.1038 34.3326 43ZM32.9998 41.6662V43C32.9998 43.3678 32.7014 43.6659 32.3332 43.6659H10.9997C10.6312 43.6659 10.3331 43.3678 10.3331 43V41.6662C10.3331 41.298 10.6312 40.9999 10.9997 40.9999H32.3332C32.7014 40.9999 32.9998 41.298 32.9998 41.6662Z" fill="url(#paint0_linear_5944_22839)"/>
<path fill-rule="evenodd" clip-rule="evenodd" d="M22.3333 40.3323V27.6658C22.3333 27.2976 22.0346 26.9989 21.6664 26.9989C21.2985 26.9989 20.9998 27.2976 20.9998 27.6658V40.3323C20.9998 40.7005 21.2985 40.9989 21.6664 40.9989C22.0346 40.9989 22.3333 40.7005 22.3333 40.3323Z" fill="url(#paint1_linear_5944_22839)"/>
<path fill-rule="evenodd" clip-rule="evenodd" d="M22.1377 32.2101L24.2826 30.0652C24.543 29.8051 24.543 29.3827 24.2829 29.1223C24.0226 28.862 23.6002 28.8623 23.3398 29.1223L21.1948 31.2673C20.9348 31.5276 20.9348 31.9501 21.1948 32.2101C21.4552 32.4704 21.8776 32.4704 22.1377 32.2101Z" fill="url(#paint2_linear_5944_22839)"/>
<path fill-rule="evenodd" clip-rule="evenodd" d="M22.1377 36.1378L24.2826 33.9929C24.543 33.7326 24.543 33.3101 24.2829 33.0498C24.0226 32.7897 23.6002 32.7897 23.3398 33.0501L21.1948 35.195C20.9348 35.455 20.9348 35.8775 21.1948 36.1378C21.4552 36.3978 21.8776 36.3979 22.1377 36.1378Z" fill="url(#paint3_linear_5944_22839)"/>
<path fill-rule="evenodd" clip-rule="evenodd" d="M22.1377 30.6011L19.9927 28.4561C19.7327 28.1961 19.3103 28.1958 19.0499 28.4561C18.7899 28.7161 18.7899 29.1389 19.0499 29.3989L21.1952 31.5439C21.4552 31.8039 21.8776 31.8042 22.138 31.5439C22.398 31.2839 22.398 30.8611 22.1377 30.6011Z" fill="url(#paint4_linear_5944_22839)"/>
<path fill-rule="evenodd" clip-rule="evenodd" d="M22.1377 33.6735L19.9927 31.5285C19.7327 31.2685 19.3103 31.2682 19.0499 31.5285C18.7899 31.7885 18.7899 32.2113 19.0499 32.4713L21.1952 34.6163C21.4552 34.8763 21.8776 34.8766 22.138 34.6163C22.398 34.3559 22.398 33.9335 22.1377 33.6735Z" fill="url(#paint5_linear_5944_22839)"/>
<path fill-rule="evenodd" clip-rule="evenodd" d="M25.0365 27.084C26.1097 27.5267 26.8668 28.5634 26.8668 29.7738C26.8668 30.142 27.1656 30.4404 27.5337 30.4404C27.9016 30.4404 28.2003 30.142 28.2003 29.7738C28.2003 28.0126 27.1067 26.4966 25.5456 25.8515C25.2062 25.7109 24.8158 25.873 24.6752 26.2131C24.5343 26.5531 24.6964 26.9435 25.0365 27.084Z" fill="url(#paint6_linear_5944_22839)"/>
<path fill-rule="evenodd" clip-rule="evenodd" d="M18.2971 27.084C17.2243 27.5267 16.4668 28.5634 16.4668 29.7738C16.4668 30.142 16.1684 30.4404 15.8002 30.4404C15.4323 30.4404 15.1336 30.142 15.1336 29.7738C15.1336 28.0126 16.2269 26.4966 17.7884 25.8515C18.1278 25.7109 18.5181 25.873 18.6587 26.2131C18.7996 26.5531 18.6375 26.9435 18.2971 27.084Z" fill="url(#paint7_linear_5944_22839)"/>
<path fill-rule="evenodd" clip-rule="evenodd" d="M21.6668 36.9999V38.3331H25.3335C27.7289 38.3331 29.6668 36.4233 29.6668 34.0793C29.6668 32.7534 29.0481 31.5675 28.0763 30.7868C28.1576 30.4619 28.2003 30.1235 28.2003 29.7742C28.2003 29.406 27.9016 29.1076 27.5337 29.1076C27.1655 29.1076 26.8668 29.406 26.8668 29.7742C26.8668 30.1381 26.799 30.4861 26.6736 30.8066C26.5575 31.106 26.671 31.4454 26.9436 31.6147C27.7769 32.1328 28.3336 33.0419 28.3336 34.0793C28.3336 35.6953 26.9856 36.9999 25.3335 36.9999H21.6668Z" fill="url(#paint8_linear_5944_22839)"/>
<path fill-rule="evenodd" clip-rule="evenodd" d="M21.6668 36.9999V38.3331H18.0004C15.6051 38.3331 13.6672 36.4233 13.6672 34.0793C13.6672 32.7534 14.2858 31.5675 15.2577 30.7868C15.1763 30.4619 15.1336 30.1235 15.1336 29.7742C15.1336 29.406 15.4324 29.1076 15.8002 29.1076C16.1684 29.1076 16.4671 29.406 16.4671 29.7742C16.4671 30.1381 16.5349 30.4861 16.6603 30.8066C16.7764 31.106 16.663 31.4454 16.3904 31.6147C15.5571 32.1328 15.0003 33.0419 15.0003 34.0793C15.0003 35.6953 16.3484 36.9999 18.0004 36.9999H21.6668Z" fill="url(#paint9_linear_5944_22839)"/>
<path fill-rule="evenodd" clip-rule="evenodd" d="M21.0604 21.7073C21.0717 21.706 21.3691 21.666 21.6662 21.666C21.9635 21.666 22.2609 21.706 22.2722 21.7073H22.2729C22.9411 21.7993 23.6636 22.1096 24.1955 22.4668L24.2117 22.4774C25.2961 23.2522 25.9994 24.5066 25.9994 25.9201L25.9941 26.1285C25.9868 26.278 25.9716 26.4252 25.9488 26.5708C25.8922 26.934 25.5508 27.1828 25.1876 27.1259C24.8237 27.0686 24.5749 26.7273 24.6315 26.364C24.647 26.2688 24.6569 26.1718 24.6622 26.0733L24.6662 25.9201C24.6662 24.9548 24.1836 24.0993 23.4442 23.5681C23.073 23.3207 22.5755 23.0993 22.1021 23.0302C22.0749 23.0282 21.8702 22.9975 21.6661 22.9975C21.4623 22.9975 21.2575 23.0282 21.2301 23.0302C20.757 23.0993 20.2595 23.3207 19.8883 23.5681C19.1489 24.0994 18.6662 24.9548 18.6662 25.9201L18.6702 26.0733C18.6755 26.1718 18.6854 26.2688 18.701 26.364C18.7575 26.7273 18.5088 27.0686 18.1449 27.1259C17.7816 27.1828 17.4403 26.934 17.3837 26.5708C17.3609 26.4252 17.3456 26.278 17.3384 26.1285L17.3327 25.9201C17.3327 24.5066 18.036 23.2521 19.1207 22.4774L19.137 22.4668C19.6689 22.1096 20.3913 21.7993 21.0596 21.7073H21.0604Z" fill="url(#paint10_linear_5944_22839)"/>
<path fill-rule="evenodd" clip-rule="evenodd" d="M33.667 42.9991H35.0001C35.5307 42.9991 36.0395 42.7884 36.4143 42.4133C36.7894 42.0385 37.0001 41.5296 37.0001 40.9991V26.9996C37.0001 26.6317 36.7014 26.333 36.3336 26.333C35.9654 26.333 35.6667 26.6317 35.6667 26.9996V40.9991C35.6667 41.1757 35.5969 41.3458 35.4715 41.4705C35.3468 41.5959 35.1767 41.666 35.0001 41.666H33.6669C33.2987 41.666 33 41.9644 33 42.3326C33 42.7004 33.2988 42.9991 33.667 42.9991Z" fill="url(#paint11_linear_5944_22839)"/>
<path fill-rule="evenodd" clip-rule="evenodd" d="M41 25.6672V20.3334C41 19.2295 40.1042 18.3333 39.0003 18.3333H33.667C32.5627 18.3333 31.6669 19.2295 31.6669 20.3334V25.6672C31.6669 26.7711 32.5627 27.6673 33.667 27.6673H39.0003C40.1042 27.6673 41 26.7711 41 25.6672ZM39.6669 20.3334V25.6672C39.6669 26.0351 39.3681 26.3331 39.0003 26.3331H33.6669C33.2988 26.3331 33 26.0351 33 25.6672V20.3334C33 19.9655 33.2988 19.6674 33.6669 19.6674H39.0003C39.3681 19.6674 39.6669 19.9655 39.6669 20.3334Z" fill="url(#paint12_linear_5944_22839)"/>
<path fill-rule="evenodd" clip-rule="evenodd" d="M33.667 16.3331V18.9994C33.667 19.3676 33.9657 19.6663 34.3335 19.6663C34.7014 19.6663 35.0001 19.3676 35.0001 18.9994V16.3331C35.0001 15.9649 34.7014 15.6662 34.3335 15.6662C33.9657 15.6662 33.667 15.9649 33.667 16.3331Z" fill="url(#paint13_linear_5944_22839)"/>
<path fill-rule="evenodd" clip-rule="evenodd" d="M37.6667 16.3331V18.9994C37.6667 19.3676 37.9654 19.6663 38.3333 19.6663C38.7015 19.6663 39.0002 19.3676 39.0002 18.9994V16.3331C39.0002 15.9649 38.7015 15.6662 38.3333 15.6662C37.9654 15.6662 37.6667 15.9649 37.6667 16.3331Z" fill="url(#paint14_linear_5944_22839)"/>
<path fill-rule="evenodd" clip-rule="evenodd" d="M37.1781 10.3331L35.3983 13.4158C35.2144 13.7341 35.3239 14.1423 35.6424 14.3262C35.961 14.5101 36.3692 14.4007 36.5528 14.0824C36.5528 14.0824 37.9085 11.7343 38.5638 10.5997C38.754 10.2699 38.7543 9.86299 38.5638 9.53282C38.3729 9.20334 38.0209 8.99989 37.6399 8.99956L35.1541 8.99989L36.8862 5.99979C37.0702 5.6809 36.9607 5.27335 36.6421 5.08942C36.3235 4.90549 35.9156 5.01432 35.7314 5.33322L33.7687 8.7332C33.5778 9.06334 33.5781 9.46957 33.7687 9.79974C33.9589 10.1299 34.3112 10.3333 34.6923 10.333L37.1781 10.3331Z" fill="url(#paint15_linear_5944_22839)"/>
<defs>
<linearGradient id="paint0_linear_5944_22839" x1="35.13" y1="33.6397" x2="35.13" y2="41.6506" gradientUnits="userSpaceOnUse">
<stop stop-color="#ED3040"/>
<stop offset="1" stop-color="#2D23F4"/>
</linearGradient>
<linearGradient id="paint1_linear_5944_22839" x1="35.13" y1="33.6397" x2="35.13" y2="41.6506" gradientUnits="userSpaceOnUse">
<stop stop-color="#ED3040"/>
<stop offset="1" stop-color="#2D23F4"/>
</linearGradient>
<linearGradient id="paint2_linear_5944_22839" x1="35.13" y1="33.6397" x2="35.13" y2="41.6506" gradientUnits="userSpaceOnUse">
<stop stop-color="#ED3040"/>
<stop offset="1" stop-color="#2D23F4"/>
</linearGradient>
<linearGradient id="paint3_linear_5944_22839" x1="35.13" y1="33.6397" x2="35.13" y2="41.6506" gradientUnits="userSpaceOnUse">
<stop stop-color="#ED3040"/>
<stop offset="1" stop-color="#2D23F4"/>
</linearGradient>
<linearGradient id="paint4_linear_5944_22839" x1="35.13" y1="33.6397" x2="35.13" y2="41.6506" gradientUnits="userSpaceOnUse">
<stop stop-color="#ED3040"/>
<stop offset="1" stop-color="#2D23F4"/>
</linearGradient>
<linearGradient id="paint5_linear_5944_22839" x1="35.13" y1="33.6397" x2="35.13" y2="41.6506" gradientUnits="userSpaceOnUse">
<stop stop-color="#ED3040"/>
<stop offset="1" stop-color="#2D23F4"/>
</linearGradient>
<linearGradient id="paint6_linear_5944_22839" x1="35.13" y1="33.6397" x2="35.13" y2="41.6506" gradientUnits="userSpaceOnUse">
<stop stop-color="#ED3040"/>
<stop offset="1" stop-color="#2D23F4"/>
</linearGradient>
<linearGradient id="paint7_linear_5944_22839" x1="35.13" y1="33.6397" x2="35.13" y2="41.6506" gradientUnits="userSpaceOnUse">
<stop stop-color="#ED3040"/>
<stop offset="1" stop-color="#2D23F4"/>
</linearGradient>
<linearGradient id="paint8_linear_5944_22839" x1="35.13" y1="33.6397" x2="35.13" y2="41.6506" gradientUnits="userSpaceOnUse">
<stop stop-color="#ED3040"/>
<stop offset="1" stop-color="#2D23F4"/>
</linearGradient>
<linearGradient id="paint9_linear_5944_22839" x1="35.13" y1="33.6397" x2="35.13" y2="41.6506" gradientUnits="userSpaceOnUse">
<stop stop-color="#ED3040"/>
<stop offset="1" stop-color="#2D23F4"/>
</linearGradient>
<linearGradient id="paint10_linear_5944_22839" x1="35.13" y1="33.6397" x2="35.13" y2="41.6506" gradientUnits="userSpaceOnUse">
<stop stop-color="#ED3040"/>
<stop offset="1" stop-color="#2D23F4"/>
</linearGradient>
<linearGradient id="paint11_linear_5944_22839" x1="35.13" y1="33.6397" x2="35.13" y2="41.6506" gradientUnits="userSpaceOnUse">
<stop stop-color="#ED3040"/>
<stop offset="1" stop-color="#2D23F4"/>
</linearGradient>
<linearGradient id="paint12_linear_5944_22839" x1="35.13" y1="33.6397" x2="35.13" y2="41.6506" gradientUnits="userSpaceOnUse">
<stop stop-color="#ED3040"/>
<stop offset="1" stop-color="#2D23F4"/>
</linearGradient>
<linearGradient id="paint13_linear_5944_22839" x1="35.13" y1="33.6397" x2="35.13" y2="41.6506" gradientUnits="userSpaceOnUse">
<stop stop-color="#ED3040"/>
<stop offset="1" stop-color="#2D23F4"/>
</linearGradient>
<linearGradient id="paint14_linear_5944_22839" x1="35.13" y1="33.6397" x2="35.13" y2="41.6506" gradientUnits="userSpaceOnUse">
<stop stop-color="#ED3040"/>
<stop offset="1" stop-color="#2D23F4"/>
</linearGradient>
<linearGradient id="paint15_linear_5944_22839" x1="35.13" y1="33.6397" x2="35.13" y2="41.6506" gradientUnits="userSpaceOnUse">
<stop stop-color="#ED3040"/>
<stop offset="1" stop-color="#2D23F4"/>
</linearGradient>
</defs>
</svg>
