<svg width="50" height="50" viewBox="0 0 50 50" fill="none" xmlns="http://www.w3.org/2000/svg">
<path d="M43.9983 44.004H41.1526C41.2865 43.7718 41.3535 43.4732 41.3535 43.2078V41.4832L42.2241 34.6174V34.551C42.2241 33.7549 41.9227 33.0254 41.387 32.4283L41.0187 32.0302H42.0897C42.2906 32.0302 42.458 31.9307 42.5585 31.7317L43.5961 29.4762C43.663 29.3103 43.663 29.1445 43.5626 29.0118C43.4621 28.8791 43.2947 28.7796 43.1273 28.7796H37.9385L35.3942 26.0929C34.7915 25.4626 33.9549 25.0977 33.0843 25.0977L16.8489 25.0988C15.9783 25.0988 15.1416 25.4637 14.5389 26.094L11.9946 28.7807L6.87285 28.7803C6.70543 28.7803 6.53801 28.8799 6.43757 29.0126C6.33712 29.1453 6.33712 29.3443 6.40408 29.477L7.44166 31.7324C7.50862 31.8983 7.70952 32.031 7.91042 32.031H8.9149L8.54659 32.4291C8.01086 32.993 7.70951 33.7557 7.70951 34.5518V34.6182L8.58008 41.4839V43.2086C8.58008 43.5072 8.64704 43.7726 8.78097 44.0048H6.00225C5.73439 44.0048 5.5 44.237 5.5 44.5024C5.5 44.7678 5.73439 45 6.00225 45H43.9977C44.2656 45 44.5 44.7678 44.5 44.5024C44.5 44.2362 44.2656 44.004 43.9977 44.004H43.9983ZM42.3245 29.7416L41.7553 31.0018L40.048 31.0022L38.843 29.7419L42.3245 29.7416ZM8.2122 31.0022L7.64299 29.7419H11.0575L9.85249 31.0022H8.2122ZM9.24977 33.0917L15.2756 26.7567C15.6774 26.3255 16.2466 26.0933 16.8489 26.0933H33.0852C33.6879 26.0933 34.2568 26.3255 34.6585 26.7567L40.6509 33.0917C41.0192 33.4898 41.2201 33.9874 41.2201 34.4846L40.383 40.9192H9.51794L8.68086 34.4846C8.68125 33.987 8.88215 33.4894 9.25007 33.0917H9.24977ZM15.9787 41.9141H33.9554V43.1743C33.9554 43.4729 34.0223 43.7383 34.1563 43.9705H15.778C15.9119 43.7383 15.9789 43.4397 15.9789 43.1743L15.9787 41.9141ZM10.3882 44.0036C9.95293 44.0036 9.58462 43.6387 9.58462 43.2074V41.914H14.9742V43.1743C14.9742 43.6055 14.6059 43.9704 14.1706 43.9704H10.3882V44.0036ZM35.7634 44.0036C35.3281 44.0036 34.9598 43.6387 34.9598 43.2074L34.9602 41.914H40.3498V43.1743C40.3498 43.6055 39.9815 43.9704 39.5462 43.9704H35.7634L35.7634 44.0036Z" fill="url(#paint0_linear_5944_22796)"/>
<path d="M12.1963 36.8407H19.2601C19.4275 36.8407 19.5615 36.7743 19.6619 36.6416C19.7623 36.5089 19.7958 36.3431 19.7289 36.2104L19.2936 34.8838C19.2266 34.7179 19.0592 34.5852 18.8918 34.552L12.2633 33.6563C12.1293 33.6232 11.9619 33.6895 11.8615 33.789C11.761 33.8886 11.6941 34.0213 11.6941 34.154V36.343C11.6941 36.6084 11.895 36.8407 12.1963 36.8407ZM12.6986 34.718L18.4231 35.481L18.557 35.879L12.6987 35.8787L12.6986 34.718Z" fill="url(#paint1_linear_5944_22796)"/>
<path d="M30.6753 34.8499L30.24 36.1765C30.1731 36.3424 30.2065 36.5082 30.307 36.6078C30.4074 36.7073 30.5414 36.8068 30.7088 36.8068H37.7725C38.0404 36.8068 38.2748 36.5746 38.2748 36.3092V34.1201C38.2748 33.9874 38.2078 33.8547 38.1074 33.7552C38.0069 33.6557 37.8395 33.6225 37.7056 33.6225L31.0771 34.485C30.9097 34.5514 30.7423 34.684 30.6753 34.8499ZM31.5455 35.4466L37.27 34.6836V35.8112L31.4116 35.8115L31.5455 35.4466Z" fill="url(#paint2_linear_5944_22796)"/>
<path d="M13.803 31.5003H36.0984C36.2993 31.5003 36.4667 31.3676 36.5671 31.2017C36.6676 31.0359 36.6006 30.8037 36.4667 30.671L35.1277 29.3112C34.9268 29.1121 34.6255 29.1121 34.4246 29.3112C34.2237 29.5102 34.2237 29.8088 34.4246 30.0078L34.9268 30.5054H15.0086L15.5109 30.0078C15.7118 29.8088 15.7118 29.5102 15.5109 29.3112C15.31 29.1121 15.0086 29.1121 14.8077 29.3112L13.4687 30.671C13.3348 30.8037 13.3013 31.0359 13.3683 31.2017C13.4349 31.3676 13.6023 31.5003 13.8032 31.5003H13.803Z" fill="url(#paint3_linear_5944_22796)"/>
<path d="M17.5188 15.9778C17.6862 16.5086 17.8871 17.0058 18.1549 17.4702C17.8871 17.7688 17.7197 18.1668 17.7197 18.5645C17.7197 18.9958 17.8871 19.3939 18.1884 19.7252L18.925 20.4551C19.5612 21.0854 20.5653 21.0854 21.2015 20.4882C21.7038 20.7536 22.2391 20.9859 22.7748 21.1185C22.9088 21.1517 23.0762 21.1185 23.2101 21.0522C23.344 20.9527 23.411 20.82 23.411 20.6873L23.6454 18.0338C23.6789 17.8347 23.5449 17.6025 23.344 17.5362C21.8042 16.9059 20.8332 15.4466 20.8332 13.8215C20.8332 12.8926 21.1681 12.0305 21.7373 11.3007V13.4898C21.7373 13.6557 21.8377 13.8215 22.0051 13.9211L24.7169 15.4466C24.8843 15.5462 25.0517 15.5462 25.2191 15.4466L27.9309 13.9211C28.0983 13.8215 28.1988 13.6557 28.1988 13.4898V11.3007C28.768 11.9974 29.1028 12.8926 29.1028 13.8215C29.1028 15.4466 28.1318 16.9058 26.592 17.5362C26.3911 17.6025 26.2572 17.8016 26.2906 18.0338L26.4581 20.6873C26.4581 20.8532 26.5585 20.9858 26.659 21.0522C26.7594 21.1185 26.8599 21.1517 26.9603 21.1517C26.9938 21.1517 27.0608 21.1517 27.0942 21.1185C27.6635 20.9527 28.1653 20.7536 28.6675 20.4882C29.3037 21.0854 30.3078 21.0522 30.944 20.4551L31.6807 19.7252C31.982 19.4267 32.1829 18.9954 32.1829 18.5645C32.1829 18.1665 32.0155 17.7684 31.7476 17.4702C32.0155 17.0058 32.2164 16.475 32.3838 15.9778C32.8191 15.9778 33.1874 15.8119 33.4884 15.5134C33.7897 15.2148 33.9571 14.8167 33.9571 14.3527V13.3247C33.9571 12.4621 33.254 11.7327 32.3838 11.6995C32.2164 11.1688 32.0155 10.6715 31.7476 10.2071C32.0155 9.90857 32.1829 9.51048 32.1829 9.11278C32.1829 8.68152 32.0155 8.28344 31.7142 7.95207L30.9775 7.22225C30.3413 6.59195 29.3372 6.59195 28.701 7.18908C28.2323 6.92369 27.6966 6.72465 27.1612 6.55878C27.1612 6.1607 26.9938 5.76261 26.6925 5.46443C26.3911 5.16587 25.9893 5 25.5544 5H24.4499C23.5793 5 22.8431 5.69665 22.8096 6.55877C22.2739 6.72464 21.772 6.92368 21.2698 7.18907C20.6336 6.59194 19.6295 6.62512 18.9933 7.22224L18.2567 7.95206C17.9553 8.25062 17.7544 8.68188 17.7544 9.11277C17.7544 9.51085 17.9218 9.90894 18.1897 10.2071C17.9218 10.6715 17.7209 11.2023 17.5535 11.6995C16.6487 11.7323 15.9455 12.429 15.9455 13.3243V14.3854C15.9455 14.8167 16.113 15.2148 16.4143 15.513C16.7156 15.8119 17.0839 15.9778 17.5188 15.9778ZM16.9499 13.3243C16.9499 12.9925 17.2178 12.7271 17.5861 12.7271C17.9879 12.7271 18.3562 12.4618 18.4567 12.0637C18.5906 11.5661 18.7915 11.1016 19.0594 10.6708C19.2603 10.3059 19.1933 9.87463 18.9254 9.57645C18.7915 9.44375 18.7245 9.31106 18.7245 9.14519C18.7245 8.97932 18.7915 8.81345 18.9254 8.71393L19.6621 7.98411C19.9299 7.75189 20.3317 7.75189 20.5661 7.98411C20.8675 8.28267 21.3027 8.34902 21.6707 8.11681C22.1059 7.88459 22.6082 7.68555 23.0765 7.55286C23.4783 7.45334 23.7462 7.08843 23.7462 6.65717C23.7462 6.32543 24.0141 6.06004 24.3824 6.06004H25.4869C25.6543 6.06004 25.8218 6.12639 25.9222 6.22591C26.0561 6.35861 26.0896 6.4913 26.0896 6.69034C26.0896 7.08842 26.3575 7.45334 26.7593 7.55286C27.2615 7.68556 27.7303 7.8846 28.1651 8.14999C28.5335 8.34903 28.9687 8.28269 29.2697 8.01729C29.5376 7.78507 29.9394 7.78507 30.1737 8.01729L30.9104 8.74711C31.0443 8.87981 31.1113 9.0125 31.1113 9.17837C31.1113 9.34424 31.0443 9.51011 30.9104 9.60963C30.609 9.90819 30.5421 10.3395 30.7429 10.704C30.9773 11.1352 31.1782 11.5997 31.3122 12.0968C31.4126 12.4949 31.7809 12.7603 32.1827 12.7603C32.551 12.7603 32.8189 13.0589 32.8189 13.3906V14.4186C32.8189 14.5845 32.7519 14.7504 32.618 14.8499C32.4841 14.9826 32.3501 15.0489 32.1492 15.0489C31.7475 15.0489 31.3791 15.3143 31.2787 15.7124C31.1447 16.21 30.9438 16.6744 30.676 17.1053C30.4751 17.4702 30.542 17.9014 30.8099 18.1996C30.9439 18.3323 31.0108 18.465 31.0108 18.6309C31.0108 18.7967 30.9438 18.9626 30.8099 19.0621L30.0733 19.792C29.8054 20.0242 29.4036 20.0242 29.1692 19.792C28.8679 19.4934 28.4326 19.427 28.0647 19.6593C27.7968 19.792 27.529 19.9246 27.2276 20.0242L27.1272 18.3659C28.8344 17.5033 29.9394 15.7787 29.9394 13.8881C29.9394 12.2962 29.1693 10.7706 27.8303 9.80859C27.6629 9.70906 27.462 9.67588 27.2946 9.77541C27.1272 9.87493 27.0268 10.0408 27.0268 10.2067V13.2578L24.8173 14.5181L22.6077 13.2578V10.2067C22.6077 10.0076 22.5073 9.84176 22.3399 9.77541C22.1725 9.67589 21.9716 9.70906 21.8042 9.80859C20.4987 10.7706 19.6951 12.263 19.6951 13.8881C19.6951 15.8118 20.7662 17.5365 22.5073 18.3659L22.3734 20.0242C22.0721 19.9246 21.8042 19.7919 21.5363 19.6261C21.168 19.427 20.7327 19.4934 20.4318 19.7588C20.1639 19.991 19.7621 19.991 19.5277 19.7588L18.7911 19.029C18.6572 18.8963 18.5902 18.7636 18.5902 18.5977C18.5902 18.4318 18.6572 18.266 18.7911 18.1664C19.0924 17.8679 19.1594 17.4366 18.9585 17.0721C18.7241 16.6408 18.5232 16.1764 18.3893 15.6792C18.2889 15.2811 17.9205 15.0157 17.4853 15.0157C17.3178 15.0157 17.1504 14.9494 17.05 14.8499C17.0169 14.6844 16.9499 14.5517 16.9499 14.3858L16.9499 13.3243Z" fill="url(#paint4_linear_5944_22796)"/>
<defs>
<linearGradient id="paint0_linear_5944_22796" x1="0" y1="0" x2="0" y2="1" gradientUnits="objectBoundingBox">
<stop stop-color="#ED3040"/>
<stop offset="1" stop-color="#2D23F4"/>
</linearGradient>
<linearGradient id="paint1_linear_5944_22796" x1="0" y1="0" x2="0" y2="1" gradientUnits="objectBoundingBox">
<stop stop-color="#ED3040"/>
<stop offset="1" stop-color="#2D23F4"/>
</linearGradient>
<linearGradient id="paint2_linear_5944_22796" x1="0" y1="0" x2="0" y2="1" gradientUnits="objectBoundingBox">
<stop stop-color="#ED3040"/>
<stop offset="1" stop-color="#2D23F4"/>
</linearGradient>
<linearGradient id="paint3_linear_5944_22796" x1="0" y1="0" x2="0" y2="1" gradientUnits="objectBoundingBox">
<stop stop-color="#ED3040"/>
<stop offset="1" stop-color="#2D23F4"/>
</linearGradient>
<linearGradient id="paint4_linear_5944_22796" x1="0" y1="0" x2="0" y2="1" gradientUnits="objectBoundingBox">
<stop stop-color="#ED3040"/>
<stop offset="1" stop-color="#2D23F4"/>
</linearGradient>
</defs>
</svg>
