<svg width="50" height="50" viewBox="0 0 50 50" fill="none" xmlns="http://www.w3.org/2000/svg">
<path d="M25.0003 41.4993C19.6576 41.4993 14.6363 39.4244 10.8579 35.6575C7.07962 31.8907 5 26.8823 5 21.556C5 21.3058 5.20359 21.1028 5.45445 21.1028H44.5456C44.7964 21.1028 45 21.3058 45 21.556C45 26.8839 42.9193 31.8913 39.1421 35.6592C35.3645 39.4263 30.3425 41.5 24.9997 41.5L25.0003 41.4993ZM5.91462 22.009C6.15628 32.2982 14.6249 40.5941 25.0003 40.5941C35.3756 40.5941 43.844 32.299 44.0859 22.009H5.91462Z" fill="url(#paint0_linear_5944_22813)"/>
<path d="M27.7841 41.3025C27.5668 41.3025 27.374 41.1457 27.3369 40.9256C27.2634 40.4933 27.088 40.1697 26.9526 39.974C26.2181 38.9089 26.0865 37.6154 26.5898 36.4244C26.618 36.3573 26.6453 36.2938 26.6716 36.233C26.8562 35.8115 26.9278 35.419 26.9034 34.9595C26.8771 34.4656 26.7626 34.1168 26.5888 34.0007C26.4388 33.901 26.2007 33.9627 26.0725 34.0079C25.7764 34.1129 25.5046 34.1737 25.191 34.2046C23.5077 34.3713 23.5149 36.0436 23.533 36.3763C23.5968 37.5255 23.1804 38.5445 22.3295 39.3222C22.2877 39.3601 22.2458 39.3975 22.2068 39.4329C21.7879 39.8019 21.5041 40.2422 21.3632 40.7428C21.295 40.9838 21.0442 41.1245 20.8025 41.0565C20.5609 40.9885 20.4198 40.7384 20.488 40.4974C20.677 39.8266 21.0534 39.2403 21.6042 38.7543C21.6398 38.7226 21.6769 38.6891 21.7162 38.6546C22.3596 38.0664 22.6742 37.296 22.626 36.4266C22.567 35.3634 23.0215 33.5079 25.1008 33.3021C25.3419 33.2783 25.5407 33.2331 25.7681 33.1534C26.2742 32.9741 26.7325 33.0057 27.0933 33.2458C27.5268 33.5339 27.7688 34.0942 27.8113 34.9108C27.843 35.5101 27.746 36.0449 27.504 36.5948C27.4796 36.6511 27.453 36.7118 27.4266 36.7751C27.0404 37.6887 27.1377 38.6413 27.7013 39.4591C27.8877 39.7291 28.1313 40.177 28.2321 40.7725C28.274 41.0192 28.1075 41.2529 27.8605 41.2956C27.8348 41.3 27.8095 41.3025 27.7841 41.3025Z" fill="url(#paint1_linear_5944_22813)"/>
<path d="M11.7096 36.2992C11.5142 36.2992 11.3331 36.1724 11.2741 35.9757C11.2025 35.7354 11.3385 35.4836 11.5795 35.4118C12.5712 35.1155 13.0111 34.4619 13.1848 34.0984C13.7429 32.9318 14.8 32.1706 16.0862 32.0109C16.1588 32.0017 16.2279 31.9938 16.2933 31.9865C16.7515 31.9356 17.1286 31.8006 17.5148 31.5504C17.9303 31.2813 18.1767 31.0074 18.1903 30.799C18.2021 30.6197 18.0295 30.4454 17.9258 30.3566C17.6867 30.1536 17.4977 29.9486 17.3131 29.6931C16.3269 28.3224 14.8783 29.1646 14.5983 29.3478C13.632 29.9777 12.5395 30.1273 11.4381 29.781C11.3835 29.7639 11.3309 29.7465 11.2808 29.7301C10.5301 29.479 9.82108 29.5299 9.11477 29.886C8.69395 30.0973 8.31308 30.4037 7.98136 30.7962C7.81962 30.9875 7.53231 31.0118 7.34045 30.8506C7.14859 30.6893 7.12417 30.4028 7.2859 30.2114C7.69658 29.7257 8.1739 29.3439 8.70379 29.0773C9.62539 28.6134 10.5897 28.5435 11.5687 28.8715C11.6141 28.887 11.6613 28.9021 11.7114 28.9176C12.5439 29.1795 13.3703 29.0663 14.101 28.5894C14.9953 28.0065 16.8333 27.4717 18.0521 29.1649C18.1929 29.3607 18.3311 29.5112 18.5148 29.6662C18.9239 30.0134 19.1255 30.4249 19.0973 30.8562C19.0637 31.3745 18.6984 31.8641 18.0102 32.309C17.5056 32.6364 16.9922 32.8195 16.3941 32.8865C16.3323 32.8938 16.267 32.9011 16.1988 32.9102C15.2126 33.0336 14.4337 33.5936 14.0055 34.4893C13.7664 34.9886 13.1683 35.8852 11.8405 36.2812C11.7958 36.2938 11.7521 36.2992 11.7096 36.2992Z" fill="url(#paint2_linear_5944_22813)"/>
<path d="M38.265 36.3251C38.135 36.3251 38.0059 36.2698 37.9168 36.1629C36.257 34.1879 34.7328 34.0753 33.7466 34.3283C32.7622 34.5813 31.776 34.2768 31.1062 33.5143C30.1954 32.4773 30.6163 31.5131 30.6343 31.4722C30.6651 31.4043 30.7124 31.3445 30.7726 31.2993C31.8505 30.477 31.6114 29.0062 31.5134 28.5754C31.4624 28.3515 31.4417 28.1494 31.4481 27.9211C31.4681 27.1595 31.7233 26.5698 32.207 26.1671C32.8342 25.645 33.7957 25.4799 35.0646 25.6766C35.9281 25.8098 36.6207 26.312 37.0143 27.0916C37.2344 27.5277 37.5632 27.8521 37.9914 28.0561C38.3104 28.2086 38.6085 28.2557 38.9592 28.2101C40.0482 28.0678 41.3751 28.5302 42.903 29.5814C43.1095 29.7237 43.1612 30.0055 43.0184 30.2114C42.8757 30.4173 42.5932 30.4698 42.3867 30.3265C41.0678 29.4192 39.9226 28.9986 39.0766 29.1083C38.5559 29.1763 38.0723 29.0991 37.5998 28.8737C36.9944 28.5856 36.5117 28.1105 36.2038 27.4995C35.9422 26.9818 35.5004 26.6612 34.9268 26.5723C34.2396 26.4664 33.3107 26.43 32.7909 26.8632C32.5128 27.0944 32.372 27.4489 32.3583 27.9454C32.3539 28.0994 32.3666 28.2237 32.4012 28.3743C32.5274 28.9236 32.8191 30.7664 31.445 31.9254C31.4133 32.0911 31.4013 32.4738 31.7923 32.9188C32.2375 33.4254 32.8677 33.6196 33.5219 33.4517C34.5364 33.1908 36.5486 33.1209 38.6156 35.5816C38.7764 35.7739 38.752 36.0592 38.5592 36.2198C38.4716 36.2907 38.3679 36.3251 38.2652 36.3251L38.265 36.3251Z" fill="url(#paint3_linear_5944_22813)"/>
<path d="M22.68 30.8191C22.6245 30.8191 22.569 30.8089 22.5164 30.7884C22.4019 30.7441 22.3099 30.6562 22.2617 30.5436C21.9481 29.8121 21.6855 29.0544 21.481 28.2913C21.1775 27.162 20.9929 25.9997 20.9311 24.8369C20.9247 24.7117 20.9701 24.5896 21.0573 24.4988C21.1445 24.4081 21.2663 24.3556 21.3909 24.3594C21.9881 24.3667 22.5561 24.546 23.0786 24.8923C23.1113 24.9141 23.1459 24.9365 23.1823 24.9593C23.7839 25.342 24.4331 25.4232 25.1121 25.2012C25.983 24.9157 27.6263 24.8802 28.2615 26.5589C28.3306 26.7411 28.407 26.8862 28.5168 27.0456C28.7851 27.4337 28.8612 27.8315 28.7375 28.1958C28.5903 28.63 28.174 28.9608 27.5004 29.1793C27.0123 29.3381 26.5478 29.376 26.0407 29.2989C25.9897 29.2916 25.9361 29.2834 25.8799 29.2752C25.0855 29.1654 24.3622 29.4402 23.8411 30.0484C23.6585 30.2622 23.3414 30.5613 22.8704 30.777C22.8098 30.8055 22.7455 30.8191 22.6801 30.8191L22.68 30.8191ZM21.8774 25.3324C21.9582 26.2505 22.12 27.1641 22.3591 28.0572C22.5081 28.6109 22.6889 29.1631 22.8988 29.7023C23.0051 29.6172 23.0878 29.5318 23.1487 29.4604C23.8667 28.622 24.9075 28.2276 26.0028 28.3782C26.0637 28.3864 26.1211 28.3946 26.1757 28.4025C26.5429 28.4579 26.8648 28.4316 27.2181 28.3175C27.7578 28.1426 27.858 27.9585 27.8752 27.906C27.9142 27.7909 27.8124 27.6268 27.767 27.5607C27.6142 27.3406 27.5045 27.1303 27.409 26.8792C26.9473 25.66 25.7492 25.9456 25.394 26.0626C24.4579 26.369 23.5236 26.252 22.6928 25.7236C22.6518 25.6973 22.6128 25.672 22.5754 25.6474C22.3528 25.5003 22.1181 25.3941 21.8774 25.3324Z" fill="url(#paint4_linear_5944_22813)"/>
<path d="M10.4739 19.0588C10.2313 19.0588 9.98842 19.0361 9.74772 18.9874C8.72788 18.7824 7.90362 18.166 7.3626 17.2053C6.75911 16.1313 6.53899 14.6801 6.70996 12.8926C6.92624 10.6267 6.97983 9.73011 7.00362 9.34677C7.02264 9.02419 7.02645 8.966 7.09907 8.78479C7.14442 8.67158 7.23449 8.58081 7.34707 8.53464C7.45965 8.48847 7.58809 8.48942 7.69972 8.53749C10.4175 9.69999 12.3608 11.0245 13.4758 12.4738C14.7056 14.0728 14.6438 15.4352 14.3749 16.296C13.8694 17.9121 12.1826 19.0588 10.4739 19.0588L10.4739 19.0588ZM7.89796 9.6157C7.86783 10.0951 7.8006 11.0423 7.6154 12.9784C7.46254 14.5783 7.64457 15.8518 8.1561 16.7616C8.56234 17.4849 9.17505 17.9473 9.92665 18.0987C11.3965 18.3932 13.0697 17.4251 13.5061 16.0267C14.1714 13.8993 12.0819 11.5246 7.89802 9.61562L7.89796 9.6157Z" fill="url(#paint5_linear_5944_22813)"/>
<path d="M13.4981 22.009C13.4771 22.009 13.4562 22.0071 13.4343 22.0046C13.1863 21.9701 13.0125 21.7408 13.0471 21.4926C13.0506 21.4689 13.2307 20.1166 12.9317 18.6729C12.5489 16.8238 11.5893 15.69 10.0776 15.3011C9.83495 15.2385 9.68844 14.9912 9.75123 14.7493C9.81402 14.5073 10.062 14.3612 10.3046 14.4238C12.1607 14.9014 13.3795 16.3163 13.8266 18.5145C14.152 20.1134 13.9557 21.5581 13.9465 21.6188C13.9164 21.8449 13.7216 22.009 13.4981 22.009Z" fill="url(#paint6_linear_5944_22813)"/>
<path d="M20.3768 19.0588C18.6681 19.0588 16.981 17.9131 16.4758 16.2961C16.2069 15.4349 16.1451 14.0725 17.3749 12.4739C18.4902 11.0246 20.4326 9.70038 23.1501 8.53724C23.2627 8.48917 23.3901 8.48822 23.5027 8.53439C23.6153 8.58056 23.7054 8.67132 23.7507 8.78454C23.8233 8.9648 23.8271 9.02394 23.8462 9.34651C23.869 9.72981 23.9236 10.6264 24.1398 12.8923C24.3108 14.6797 24.0907 16.131 23.4872 17.205C22.9474 18.1668 22.1229 18.7831 21.1021 18.9871C20.862 19.0352 20.6194 19.0588 20.3768 19.0588ZM22.9526 9.6157C18.7687 11.5255 16.6801 13.8993 17.3435 16.0267C17.7808 17.4252 19.453 18.3942 20.9229 18.0988C21.6745 17.9483 22.2872 17.4863 22.6935 16.7617C23.2053 15.8509 23.3871 14.5783 23.2342 12.9784C23.0499 11.0424 22.9827 10.0952 22.9526 9.61578L22.9526 9.6157Z" fill="url(#paint7_linear_5944_22813)"/>
<path d="M17.3527 22.0082C17.1301 22.0082 16.9354 21.845 16.9036 21.6186C16.8954 21.5579 16.6982 20.1139 17.0235 18.5143C17.4716 16.3154 18.6897 14.9014 20.5455 14.4236C20.7882 14.361 21.0365 14.5071 21.0989 14.749C21.1617 14.991 21.0152 15.2386 20.7726 15.3009C19.2612 15.6899 18.3003 16.8246 17.9185 18.6727C17.6185 20.122 17.8012 21.4788 17.8031 21.4924C17.8376 21.7397 17.6638 21.9693 17.4158 22.0034C17.3946 22.0072 17.3736 22.0082 17.3527 22.0082Z" fill="url(#paint8_linear_5944_22813)"/>
<path d="M29.6237 19.0588C29.3811 19.0588 29.1382 19.0361 28.8985 18.9874C27.8786 18.7824 27.0543 18.166 26.5133 17.2053C25.9098 16.1313 25.6897 14.6801 25.8607 12.8926C26.077 10.6276 26.1306 9.73011 26.1543 9.34677C26.1734 9.02419 26.1772 8.96506 26.2498 8.78479C26.2952 8.67158 26.3843 8.58081 26.4978 8.53464C26.6113 8.48752 26.7388 8.48847 26.8504 8.53749C29.5673 9.70031 31.5106 11.0248 32.6257 12.4742C33.8554 14.0731 33.7937 15.4355 33.5247 16.2963C33.0195 17.9121 31.3324 19.0588 29.6237 19.0588ZM27.0477 9.6157C27.0176 10.0951 26.9504 11.0423 26.7652 12.9784C26.6123 14.5783 26.7944 15.8518 27.3059 16.7616C27.7121 17.4849 28.3248 17.9473 29.0764 18.0987C30.5479 18.3932 32.2195 17.4251 32.6559 16.0267C33.3212 13.8993 31.2316 11.5246 27.0478 9.61562L27.0477 9.6157Z" fill="url(#paint9_linear_5944_22813)"/>
<path d="M32.6478 22.009C32.6269 22.009 32.606 22.0071 32.5841 22.0046C32.3361 21.9701 32.1623 21.7408 32.1969 21.4935C32.1988 21.4799 32.3815 20.1229 32.0814 18.6739C31.6987 16.8247 30.7391 15.691 29.2273 15.3021C28.9847 15.2394 28.8382 14.9921 28.901 14.7502C28.9638 14.5083 29.2118 14.3622 29.4544 14.4248C31.3105 14.9023 32.5293 16.3172 32.9774 18.5154C33.3028 20.1144 33.1065 21.559 33.0973 21.6198C33.0652 21.8449 32.8708 22.009 32.6478 22.009Z" fill="url(#paint10_linear_5944_22813)"/>
<path d="M39.5266 19.0588C37.8179 19.0588 36.1308 17.9131 35.6256 16.2961C35.3567 15.4349 35.2948 14.0725 36.5246 12.4739C37.64 11.0246 39.5824 9.70038 42.2999 8.53724C42.4124 8.48917 42.5399 8.48822 42.6525 8.53439C42.7651 8.58056 42.8551 8.67132 42.9005 8.78454C42.9731 8.9648 42.9769 9.02394 42.996 9.34651C43.0188 9.72981 43.0733 10.6264 43.2896 12.8913C43.4605 14.6788 43.2405 16.13 42.637 17.2041C42.0972 18.1658 41.2718 18.7821 40.2528 18.9861C40.0121 19.0352 39.7692 19.0588 39.5266 19.0588ZM42.1026 9.6157C37.9187 11.5255 35.8292 13.8993 36.4935 16.0267C36.9309 17.4252 38.6021 18.3942 40.073 18.0988C40.8246 17.9483 41.4373 17.4863 41.8435 16.7617C42.3554 15.8509 42.5371 14.5783 42.3842 12.9784C42.1997 11.0424 42.1324 10.0952 42.1026 9.61578L42.1026 9.6157Z" fill="url(#paint11_linear_5944_22813)"/>
<path d="M36.5025 22.0082C36.2799 22.0082 36.0851 21.845 36.0534 21.6186C36.0442 21.5579 35.8479 20.1139 36.1733 18.5143C36.6214 16.3154 37.8395 14.9014 39.6953 14.4236C39.9379 14.361 40.1862 14.5071 40.2487 14.749C40.3115 14.991 40.165 15.2386 39.9224 15.3009C38.411 15.6899 37.4501 16.8246 37.0683 18.6727C36.7683 20.122 36.9509 21.4788 36.9528 21.4924C36.9874 21.7397 36.8136 21.9693 36.5656 22.0034C36.5441 22.0072 36.5231 22.0082 36.5025 22.0082Z" fill="url(#paint12_linear_5944_22813)"/>
<defs>
<linearGradient id="paint0_linear_5944_22813" x1="37.6624" y1="32.1277" x2="37.6624" y2="38.7367" gradientUnits="userSpaceOnUse">
<stop stop-color="#ED3040"/>
<stop offset="1" stop-color="#2D23F4"/>
</linearGradient>
<linearGradient id="paint1_linear_5944_22813" x1="37.6624" y1="32.1277" x2="37.6624" y2="38.7367" gradientUnits="userSpaceOnUse">
<stop stop-color="#ED3040"/>
<stop offset="1" stop-color="#2D23F4"/>
</linearGradient>
<linearGradient id="paint2_linear_5944_22813" x1="37.6624" y1="32.1277" x2="37.6624" y2="38.7367" gradientUnits="userSpaceOnUse">
<stop stop-color="#ED3040"/>
<stop offset="1" stop-color="#2D23F4"/>
</linearGradient>
<linearGradient id="paint3_linear_5944_22813" x1="37.6624" y1="32.1277" x2="37.6624" y2="38.7367" gradientUnits="userSpaceOnUse">
<stop stop-color="#ED3040"/>
<stop offset="1" stop-color="#2D23F4"/>
</linearGradient>
<linearGradient id="paint4_linear_5944_22813" x1="37.6624" y1="32.1277" x2="37.6624" y2="38.7367" gradientUnits="userSpaceOnUse">
<stop stop-color="#ED3040"/>
<stop offset="1" stop-color="#2D23F4"/>
</linearGradient>
<linearGradient id="paint5_linear_5944_22813" x1="37.6624" y1="32.1277" x2="37.6624" y2="38.7367" gradientUnits="userSpaceOnUse">
<stop stop-color="#ED3040"/>
<stop offset="1" stop-color="#2D23F4"/>
</linearGradient>
<linearGradient id="paint6_linear_5944_22813" x1="37.6624" y1="32.1277" x2="37.6624" y2="38.7367" gradientUnits="userSpaceOnUse">
<stop stop-color="#ED3040"/>
<stop offset="1" stop-color="#2D23F4"/>
</linearGradient>
<linearGradient id="paint7_linear_5944_22813" x1="37.6624" y1="32.1277" x2="37.6624" y2="38.7367" gradientUnits="userSpaceOnUse">
<stop stop-color="#ED3040"/>
<stop offset="1" stop-color="#2D23F4"/>
</linearGradient>
<linearGradient id="paint8_linear_5944_22813" x1="37.6624" y1="32.1277" x2="37.6624" y2="38.7367" gradientUnits="userSpaceOnUse">
<stop stop-color="#ED3040"/>
<stop offset="1" stop-color="#2D23F4"/>
</linearGradient>
<linearGradient id="paint9_linear_5944_22813" x1="37.6624" y1="32.1277" x2="37.6624" y2="38.7367" gradientUnits="userSpaceOnUse">
<stop stop-color="#ED3040"/>
<stop offset="1" stop-color="#2D23F4"/>
</linearGradient>
<linearGradient id="paint10_linear_5944_22813" x1="37.6624" y1="32.1277" x2="37.6624" y2="38.7367" gradientUnits="userSpaceOnUse">
<stop stop-color="#ED3040"/>
<stop offset="1" stop-color="#2D23F4"/>
</linearGradient>
<linearGradient id="paint11_linear_5944_22813" x1="37.6624" y1="32.1277" x2="37.6624" y2="38.7367" gradientUnits="userSpaceOnUse">
<stop stop-color="#ED3040"/>
<stop offset="1" stop-color="#2D23F4"/>
</linearGradient>
<linearGradient id="paint12_linear_5944_22813" x1="37.6624" y1="32.1277" x2="37.6624" y2="38.7367" gradientUnits="userSpaceOnUse">
<stop stop-color="#ED3040"/>
<stop offset="1" stop-color="#2D23F4"/>
</linearGradient>
</defs>
</svg>
