<svg width="50" height="50" viewBox="0 0 50 50" fill="none" xmlns="http://www.w3.org/2000/svg">
<path d="M44.0259 25.6712V16.607C44.0259 16.4351 43.8836 16.296 43.7083 16.296H37.994C37.8187 16.296 37.6764 16.4351 37.6764 16.607V17.9807C37.6764 18.1526 37.8187 18.2917 37.994 18.2917H38.7991L38.7973 18.2935C38.3569 18.7533 38.1146 19.3543 38.1146 19.9859V22.6217C37.5828 22.393 37.0397 22.1634 36.4849 21.9369C35.7405 21.6323 34.9556 21.4775 34.153 21.4775H26.2574V17.726C26.2574 17.5541 26.1151 17.415 25.9398 17.415H23.5399V16.3397C23.5399 16.1679 23.3976 16.0288 23.2224 16.0288C23.0471 16.0288 22.9048 16.1679 22.9048 16.3397V17.4153H21.2064V15.311C21.2064 15.1391 21.0641 15 20.8888 15C20.7136 15 20.5713 15.1391 20.5713 15.311V17.4153H19.0981L19.0987 16.3397C19.0987 16.1679 18.9563 16.0288 18.7811 16.0288C18.6059 16.0288 18.4635 16.1679 18.4635 16.3397V17.4153H15.8382C15.663 17.4153 15.5206 17.5544 15.5206 17.7263L15.5209 19.4137C15.5209 19.5856 15.6633 19.7247 15.8385 19.7247H16.6704V21.4778H16.0324V20.4365C16.0324 20.2646 15.89 20.1255 15.7148 20.1255H14.1625C13.9873 20.1255 13.845 20.2646 13.845 20.4365V21.4778H13.3494V20.4365C13.3494 20.2646 13.207 20.1255 13.0318 20.1255H11.4795C11.3043 20.1255 11.1619 20.2646 11.1619 20.4365V21.4778H10.5999V20.4365C10.5999 20.2646 10.4576 20.1255 10.2824 20.1255H8.73319C8.55796 20.1255 8.4156 20.2646 8.4156 20.4365V21.4778H8.26643C6.46541 21.4778 5 22.9126 5 24.6763V29.6837C5 31.0099 5.43885 32.1103 6.30447 32.9551C7.69636 34.3134 10.1601 34.997 13.6027 34.9863C13.7742 34.9885 14.8011 35 16.3415 35C21.7439 35 33.4426 34.8582 36.5351 33.6721C37.7372 33.2117 38.9929 32.5844 40.1972 31.8449V32.7577C40.1972 33.2648 40.4252 33.7416 40.8237 34.0668L41.2408 34.4042C41.5497 34.6571 41.9433 34.7968 42.3493 34.7968H43.5684C44.358 34.7968 45 34.1679 45 33.3951V26.9392C45.0003 26.5645 44.6865 26.1588 44.0258 25.6714L44.0259 25.6712ZM39.2606 18.7182L39.7621 18.1929C39.8483 18.1024 39.8716 17.9703 39.8213 17.8568C39.7708 17.7432 39.6566 17.6697 39.5301 17.6697H38.311L38.3116 16.9178H43.3911V25.2397C42.1068 24.4319 40.2351 23.5504 38.7498 22.896L38.7495 19.9857C38.7495 19.5129 38.931 19.0629 39.2607 18.7182L39.2606 18.7182ZM16.9877 19.103H16.1558V18.0368H25.6222V21.4777H17.3047V19.4136C17.3047 19.2418 17.1626 19.103 16.9874 19.103L16.9877 19.103ZM8.26681 22.0993H34.153C34.8713 22.0993 35.5738 22.2377 36.2403 22.5104C36.9393 22.7959 37.6263 23.0859 38.2835 23.3722C38.2986 23.3801 38.3135 23.3871 38.33 23.3926C40.0153 24.1299 42.2731 25.1903 43.5229 26.0782C43.8557 26.3126 44.0558 26.4933 44.1776 26.6281H5.63492V24.6762C5.63492 23.2554 6.81561 22.0993 8.26673 22.0993L8.26681 22.0993ZM36.3031 33.093C32.4437 34.574 13.7975 34.3677 13.6054 34.3647C10.3691 34.3778 8.00242 33.7349 6.75257 32.5148C6.01103 31.7911 5.63484 30.8383 5.63484 29.6834V27.2495H36.7485C36.6365 27.4299 36.5683 27.6391 36.5683 27.8647V27.9519C36.5683 28.6084 37.1138 29.1422 37.784 29.1422H41.5587C42.2274 29.1422 42.7713 28.608 42.7713 27.9519V27.8647C42.7713 27.6388 42.7034 27.4296 42.5918 27.2495H44.3012C44.0023 28.0715 42.6538 29.5115 40.3392 31.0155C39.0252 31.8667 37.6298 32.5849 36.3031 33.0929L36.3031 33.093ZM44.3649 33.3948C44.3649 33.8251 44.0073 34.1749 43.5682 34.1749H42.3491C42.0917 34.1749 41.8426 34.0869 41.6466 33.9259L41.2288 33.5882C40.9764 33.3821 40.8319 33.0793 40.8319 32.7574V31.4395C42.1425 30.5731 43.5667 29.4277 44.3653 28.3761V33.3948L44.3649 33.3948Z" fill="url(#paint0_linear_5944_22819)"/>
<path d="M12.9234 28.5709C11.8677 28.5709 11.0092 29.4117 11.0092 30.4447C11.0092 31.4799 11.868 32.3223 12.9234 32.3223C13.9809 32.3223 14.8409 31.4799 14.8409 30.4447C14.8409 29.4117 13.9809 28.5709 12.9234 28.5709Z" fill="url(#paint1_linear_5944_22819)"/>
<path d="M20.7748 28.5709C19.7173 28.5709 18.8573 29.4117 18.8573 30.4447C18.8573 31.4799 19.7173 32.3223 20.7748 32.3223C21.8306 32.3223 22.689 31.4799 22.689 30.4447C22.6893 29.4117 21.8306 28.5709 20.7748 28.5709Z" fill="url(#paint2_linear_5944_22819)"/>
<path d="M28.6223 28.5709C27.5666 28.5709 26.7082 29.4117 26.7082 30.4447C26.7082 31.4799 27.5669 32.3223 28.6223 32.3223C29.6799 32.3223 30.5399 31.4799 30.5399 30.4447C30.5399 29.4117 29.6799 28.5709 28.6223 28.5709Z" fill="url(#paint3_linear_5944_22819)"/>
<defs>
<linearGradient id="paint0_linear_5944_22819" x1="37.6624" y1="29.3198" x2="37.6624" y2="33.3253" gradientUnits="userSpaceOnUse">
<stop stop-color="#ED3040"/>
<stop offset="1" stop-color="#2D23F4"/>
</linearGradient>
<linearGradient id="paint1_linear_5944_22819" x1="37.6624" y1="29.3198" x2="37.6624" y2="33.3253" gradientUnits="userSpaceOnUse">
<stop stop-color="#ED3040"/>
<stop offset="1" stop-color="#2D23F4"/>
</linearGradient>
<linearGradient id="paint2_linear_5944_22819" x1="37.6624" y1="29.3198" x2="37.6624" y2="33.3253" gradientUnits="userSpaceOnUse">
<stop stop-color="#ED3040"/>
<stop offset="1" stop-color="#2D23F4"/>
</linearGradient>
<linearGradient id="paint3_linear_5944_22819" x1="37.6624" y1="29.3198" x2="37.6624" y2="33.3253" gradientUnits="userSpaceOnUse">
<stop stop-color="#ED3040"/>
<stop offset="1" stop-color="#2D23F4"/>
</linearGradient>
</defs>
</svg>
