<svg width="50" height="50" viewBox="0 0 50 50" fill="none" xmlns="http://www.w3.org/2000/svg">
<path d="M33.711 15.5483H16.2888C15.8796 15.5483 15.5481 15.8799 15.5481 16.289V33.7113C15.5481 33.9076 15.6264 34.0961 15.765 34.2351C15.9039 34.374 16.0925 34.4519 16.2888 34.4519H27.7706C27.9669 34.4545 28.1551 34.3736 28.2889 34.2295L34.2149 28.3035V28.3039C34.359 28.1701 34.4395 27.9815 34.4373 27.7853V16.2883C34.4373 15.8851 34.1146 15.5558 33.7113 15.5477L33.711 15.5483ZM32.9704 27.4L27.4594 32.911H17.0889L17.0885 17.03H32.9704L32.9704 27.4ZM44.2593 22.289C44.4556 22.289 44.6442 22.211 44.7831 22.0721C44.9221 21.9332 45 21.7446 45 21.5483C45 21.3517 44.9221 21.1635 44.7831 21.0245C44.6442 20.8856 44.4556 20.8073 44.2593 20.8073H39.0741V15.3706H44.2593C44.6684 15.3706 45 15.0387 45 14.6296C45 14.2204 44.6684 13.8889 44.2593 13.8889H39.0741V11.6666C39.0741 11.4703 38.9961 11.2817 38.8572 11.1428C38.7182 11.0039 38.5297 10.9259 38.3334 10.9259H36.1111V5.74066C36.1111 5.33154 35.7795 5 35.3704 5C34.9613 5 34.6298 5.33154 34.6298 5.74066V10.9259H29.1927V5.74066C29.1927 5.54438 29.1148 5.35581 28.9758 5.21687C28.8369 5.07829 28.6483 5 28.452 5C28.0429 5 27.711 5.33154 27.711 5.74066V10.9259H22.289V5.74066C22.289 5.54438 22.211 5.35581 22.0721 5.21687C21.9332 5.07829 21.7446 5 21.5483 5C21.1392 5 20.8073 5.33154 20.8073 5.74066V10.9259H15.3706V5.74066C15.3706 5.33154 15.0387 5 14.6296 5C14.2205 5 13.8889 5.33154 13.8889 5.74066V10.9259H11.6666C11.2575 10.9259 10.9259 11.2575 10.9259 11.6666V13.8889H5.74066C5.33154 13.8889 5 14.2204 5 14.6296C5 15.0387 5.33154 15.3706 5.74066 15.3706H10.9259V20.8077L5.74066 20.8073C5.33154 20.8073 5 21.1392 5 21.5483C5 21.7446 5.07829 21.9332 5.21687 22.0721C5.35581 22.2111 5.54438 22.289 5.74066 22.289H10.9259V27.7114L5.74066 27.711C5.33154 27.711 5 28.0429 5 28.452C5 28.6483 5.07829 28.8369 5.21687 28.9758C5.35581 29.1148 5.54438 29.1927 5.74066 29.1927H10.9259V34.6298H5.74066C5.33154 34.6298 5 34.9613 5 35.3704C5 35.7796 5.33154 36.1111 5.74066 36.1111H10.9259V38.3334C10.9259 38.5297 11.0039 38.7183 11.1428 38.8572C11.2817 38.9961 11.4703 39.0741 11.6666 39.0741H13.8889V44.2593C13.8889 44.6685 14.2205 45 14.6296 45C15.0387 45 15.3706 44.6685 15.3706 44.2593V39.0741H20.8077L20.8073 44.2593C20.8073 44.4556 20.8856 44.6442 21.0245 44.7831C21.1635 44.9221 21.3517 45 21.5483 45C21.7446 45 21.9332 44.9221 22.0721 44.7831C22.2111 44.6442 22.289 44.4556 22.289 44.2593V39.0741H27.7114L27.711 44.2593C27.711 44.4556 27.7893 44.6442 27.9283 44.7831C28.0672 44.9221 28.2554 45 28.452 45C28.6483 45 28.8369 44.9221 28.9758 44.7831C29.1148 44.6442 29.1927 44.4556 29.1927 44.2593V39.0741H34.6298V44.2593C34.6298 44.6685 34.9613 45 35.3704 45C35.7796 45 36.1111 44.6685 36.1111 44.2593V39.0741H38.3334C38.5297 39.0741 38.7183 38.9961 38.8572 38.8572C38.9961 38.7183 39.0741 38.5297 39.0741 38.3334V36.1111H44.2593C44.6685 36.1111 45 35.7796 45 35.3704C45 34.9613 44.6685 34.6298 44.2593 34.6298H39.0741V29.1927H44.2593C44.4556 29.1927 44.6442 29.1148 44.7831 28.9758C44.9221 28.8369 45 28.6483 45 28.452C45 28.2554 44.9221 28.0672 44.7831 27.9283C44.6442 27.7893 44.4556 27.711 44.2593 27.711H39.0741V22.289L44.2593 22.289ZM37.5927 37.5931H12.4073V12.4077H37.5927V37.5931ZM20.2146 20.5557C20.2146 20.1466 20.5462 19.815 20.9553 19.815H29.0444C29.4535 19.815 29.7851 20.1466 29.7851 20.5557C29.7851 20.9648 29.4535 21.2963 29.0444 21.2963H20.9553C20.5462 21.2963 20.2146 20.9648 20.2146 20.5557ZM20.2146 25.0003C20.2146 24.5912 20.5462 24.2593 20.9553 24.2593H29.0444C29.4535 24.2593 29.7851 24.5912 29.7851 25.0003C29.7851 25.4094 29.4535 25.741 29.0444 25.741H20.9553C20.5462 25.741 20.2146 25.4094 20.2146 25.0003ZM20.2146 29.4446C20.2146 29.0354 20.5462 28.7039 20.9553 28.7039H26.7331C27.1422 28.7039 27.4741 29.0354 27.4741 29.4446C27.4741 29.8537 27.1422 30.1852 26.7331 30.1852H20.9553C20.5462 30.1852 20.2146 29.8537 20.2146 29.4446Z" fill="url(#paint0_linear_5944_22825)"/>
<defs>
<linearGradient id="paint0_linear_5944_22825" x1="0" y1="0" x2="0" y2="1" gradientUnits="objectBoundingBox">
<stop stop-color="#ED3040"/>
<stop offset="1" stop-color="#2D23F4"/>
</linearGradient>
</defs>
</svg>
