<svg width="50" height="50" viewBox="0 0 50 50" fill="none" xmlns="http://www.w3.org/2000/svg">
<path d="M32.5261 22.3332H27.4754L29.721 17.9645C29.8273 17.7571 29.8154 17.511 29.6897 17.3145C29.5641 17.1176 29.3428 16.9985 29.1051 16.9999H20.21C19.8759 16.9999 19.5904 17.2354 19.5354 17.5563L18.1671 25.5564H18.1668C18.1339 25.7499 18.1895 25.9477 18.3196 26.0973C18.4496 26.2468 18.6404 26.3331 18.8414 26.3331H22.1256L20.2216 36.2103C20.1649 36.5074 20.32 36.8045 20.6001 36.9345C20.8802 37.0645 21.2147 36.9947 21.4157 36.7644L33.0469 23.4311C33.2194 23.233 33.2581 22.9554 33.146 22.7199C33.0343 22.484 32.7919 22.3331 32.5254 22.3331L32.5261 22.3332ZM22.0421 33.9881L23.6198 25.7882C23.6572 25.5933 23.6032 25.3925 23.4735 25.24C23.3435 25.0875 23.1506 24.9995 22.9473 24.9995H19.6498L20.7895 18.333L27.9979 18.3326L25.7523 22.7014C25.6461 22.9088 25.6579 23.1549 25.7836 23.3514C25.9092 23.5482 26.1306 23.6673 26.3682 23.666H31.0461L22.0421 33.9881Z" fill="url(#paint0_linear_5944_22809)"/>
<path d="M34.5789 14.3336V7.00009C34.5789 6.28553 34.1877 5.62526 33.5525 5.26796C32.9176 4.91068 32.1349 4.91068 31.4997 5.26796C30.8648 5.62525 30.4737 6.28558 30.4737 7.00009V14.3336H19.5265V7.00009C19.5265 6.28553 19.135 5.62526 18.5001 5.26796C17.8648 4.91068 17.0826 4.91068 16.4474 5.26796C15.8125 5.62525 15.421 6.28558 15.421 7.00009V14.3336H14.0527C13.5081 14.3336 12.9862 14.5443 12.6013 14.9195C12.2163 15.2943 12 15.8031 12 16.3337V31C12.0027 33.2975 12.9408 35.5004 14.6082 37.1253C16.276 38.75 18.5364 39.664 20.8947 39.6667V41.6667C20.8947 41.8434 20.9671 42.0131 21.0951 42.1381C21.2234 42.2629 21.3976 42.3333 21.5789 42.3333H22.9471V45H24.3154L24.3157 42.3333H25.6839V45H27.0522L27.0525 42.3333H28.4211C28.6024 42.3333 28.7766 42.2629 28.9049 42.1381C29.0333 42.0131 29.1053 41.8434 29.1053 41.6667V39.6667C31.4636 39.664 33.7245 38.75 35.3918 37.1253C37.0592 35.5003 37.9973 33.2975 38 31V16.3337C38 15.8031 37.7837 15.2943 37.3987 14.9195C37.014 14.5443 36.4918 14.3336 35.9473 14.3336H34.5789ZM31.842 7.00009C31.842 6.63189 32.1483 6.3335 32.5261 6.3335C32.904 6.3335 33.2103 6.63189 33.2103 7.00009V14.3336H31.842L31.842 7.00009ZM16.7897 7.00009C16.7897 6.63189 17.096 6.3335 17.4739 6.3335C17.8518 6.3335 18.158 6.63189 18.158 7.00009V14.3336H16.7898L16.7897 7.00009ZM27.7369 40.9999H22.2632V39.6667H27.7369V40.9999ZM29.1052 38.3332H20.8946C18.8992 38.3309 16.9863 37.5578 15.5753 36.1829C14.1643 34.808 13.3709 32.9443 13.3684 31.0001V18.9997H17.4735V17.6666H13.3684V16.3334C13.3684 15.9652 13.6747 15.6665 14.0526 15.6665H35.9469C36.1286 15.6665 36.3024 15.737 36.4308 15.862C36.5591 15.9867 36.6314 16.1564 36.6314 16.3334V17.6666H33.2101V18.9997H36.6311L36.6314 31.0001C36.629 32.9443 35.8352 34.8081 34.4241 36.1829C33.0135 37.5577 31.1003 38.3309 29.1049 38.3332H29.1052Z" fill="url(#paint1_linear_5944_22809)"/>
<defs>
<linearGradient id="paint0_linear_5944_22809" x1="33.2306" y1="33.6397" x2="33.2306" y2="41.6506" gradientUnits="userSpaceOnUse">
<stop stop-color="#ED3040"/>
<stop offset="1" stop-color="#2D23F4"/>
</linearGradient>
<linearGradient id="paint1_linear_5944_22809" x1="33.2306" y1="33.6397" x2="33.2306" y2="41.6506" gradientUnits="userSpaceOnUse">
<stop stop-color="#ED3040"/>
<stop offset="1" stop-color="#2D23F4"/>
</linearGradient>
</defs>
</svg>
