<svg width="50" height="50" viewBox="0 0 50 50" fill="none" xmlns="http://www.w3.org/2000/svg">
<path d="M16.8178 5.00026C15.3227 5.00026 14.0906 6.2325 14.0906 7.72751V19.5458C14.0906 21.0409 15.3228 22.273 16.8178 22.273H21.3633C21.8654 22.273 22.2724 21.866 22.2724 21.364C22.2724 20.8619 21.8653 20.4549 21.3633 20.4549H16.8178C16.2985 20.4549 15.9088 20.0651 15.9088 19.5458V7.72751C15.9088 7.20818 16.2985 6.81843 16.8178 6.81843H33.1815C33.7009 6.81843 34.0906 7.20819 34.0906 7.72751V19.5458C34.0906 20.0651 33.7009 20.4549 33.1815 20.4549H24.9997C24.4976 20.4549 24.0906 20.8619 24.0906 21.364V26.8186H12.2723C10.7769 26.8186 9.54508 28.0504 9.54508 29.5458V33.1822H7.27254C6.02922 33.1822 5 34.2114 5 35.4547V42.7275C5 43.9708 6.02922 45 7.27254 45H13.6362C14.8795 45 15.9088 43.9708 15.9088 42.7275V35.4547C15.9088 34.2114 14.8792 33.1818 13.6359 33.1818H11.3633V29.5455C11.3633 29.0326 11.7595 28.6364 12.2724 28.6364H24.0907V33.1818H21.8182C20.5748 33.1818 19.5456 34.211 19.5456 35.4543V42.7271C19.5456 43.9704 20.5748 44.9997 21.8182 44.9997H28.1818C29.4252 44.9997 30.4544 43.9704 30.4544 42.7271V35.4543C30.4544 34.2113 29.4248 33.1818 28.1815 33.1818H25.909V28.6364H37.7272C38.2401 28.6364 38.6363 29.0326 38.6363 29.5455V33.1818H36.3638C35.1205 33.1818 34.0912 34.211 34.0912 35.4543V42.7271C34.0912 43.9704 35.1205 44.9997 36.3638 44.9997H42.7275C43.9708 44.9997 45 43.9704 45 42.7271V35.4543C44.9997 34.2113 43.9704 33.1818 42.7271 33.1818H40.4542V29.5455C40.4542 28.05 39.2223 26.8182 37.727 26.8182H25.9087V22.2728H33.1815C34.6766 22.2728 35.9087 21.0406 35.9087 19.5455V7.72725C35.9087 6.23215 34.6765 5 33.1815 5L16.8178 5.00026ZM7.27228 35.0002H13.636C13.9036 35.0002 14.0903 35.1873 14.0903 35.4546V42.7274C14.0903 42.995 13.9032 43.1818 13.636 43.1818H7.27228C7.00466 43.1818 6.8179 42.9947 6.8179 42.7274V35.4546C6.8179 35.187 7.005 35.0002 7.27228 35.0002ZM21.818 35.0002H28.1817C28.4493 35.0002 28.636 35.1873 28.636 35.4546V42.7274C28.636 42.995 28.4489 43.1818 28.1817 43.1818H21.818C21.5504 43.1818 21.3636 42.9947 21.3636 42.7274V35.4546C21.3636 35.187 21.5507 35.0002 21.818 35.0002ZM36.3637 35.0002H42.7274C42.995 35.0002 43.1818 35.1873 43.1818 35.4546V42.7274C43.1818 42.995 42.9947 43.1818 42.7274 43.1818H36.3637C36.0961 43.1818 35.9093 42.9947 35.9093 42.7274V35.4546C35.9093 35.187 36.0964 35.0002 36.3637 35.0002Z" fill="url(#paint0_linear_5944_22837)"/>
<path d="M20.4538 10.4542C19.9518 10.4542 19.5448 10.8613 19.5448 11.3633C19.5448 11.6042 19.6405 11.8356 19.811 12.0062C19.9815 12.1767 20.2126 12.2724 20.4538 12.2724H29.5447C29.7856 12.2724 30.017 12.1767 30.1875 12.0062C30.3581 11.8356 30.4538 11.6042 30.4538 11.3633C30.4538 11.1221 30.358 10.891 30.1875 10.7205C30.017 10.55 29.7856 10.4542 29.5447 10.4542L20.4538 10.4542Z" fill="url(#paint1_linear_5944_22837)"/>
<path d="M20.4538 14.9997C19.9518 14.9997 19.5448 15.4067 19.5448 15.9088C19.5448 16.1496 19.6405 16.3811 19.811 16.5516C19.9815 16.7221 20.2126 16.8179 20.4538 16.8179H29.5447C29.7856 16.8179 30.017 16.7221 30.1875 16.5516C30.3581 16.3811 30.4538 16.1497 30.4538 15.9088C30.4538 15.6675 30.358 15.4365 30.1875 15.2659C30.017 15.0954 29.7856 14.9997 29.5447 14.9997L20.4538 14.9997Z" fill="url(#paint2_linear_5944_22837)"/>
<defs>
<linearGradient id="paint0_linear_5944_22837" x1="37.6624" y1="33.6397" x2="37.6624" y2="41.6506" gradientUnits="userSpaceOnUse">
<stop stop-color="#ED3040"/>
<stop offset="1" stop-color="#2D23F4"/>
</linearGradient>
<linearGradient id="paint1_linear_5944_22837" x1="37.6624" y1="33.6397" x2="37.6624" y2="41.6506" gradientUnits="userSpaceOnUse">
<stop stop-color="#ED3040"/>
<stop offset="1" stop-color="#2D23F4"/>
</linearGradient>
<linearGradient id="paint2_linear_5944_22837" x1="37.6624" y1="33.6397" x2="37.6624" y2="41.6506" gradientUnits="userSpaceOnUse">
<stop stop-color="#ED3040"/>
<stop offset="1" stop-color="#2D23F4"/>
</linearGradient>
</defs>
</svg>
