<svg width="50" height="50" viewBox="0 0 50 50" fill="none" xmlns="http://www.w3.org/2000/svg">
<path d="M6.29022 22.8313C6.29022 22.4843 5.98909 22.1806 5.64494 22.1806C5.30113 22.1806 5 22.4843 5 22.8313V24.3494H6.29019L6.29022 22.8313Z" fill="url(#paint0_linear_5944_22835)"/>
<path d="M5.00028 27.1687C5.00028 27.5157 5.30141 27.8194 5.64556 27.8194C5.98971 27.8194 6.29083 27.5157 6.29083 27.1687V25.6506H5.00064L5.00028 27.1687Z" fill="url(#paint1_linear_5944_22835)"/>
<path d="M8.87094 21.9635C8.87094 21.6165 8.56982 21.3128 8.22567 21.3128C7.88153 21.3131 7.58072 21.6168 7.58072 21.9635V24.3492H8.87092L8.87094 21.9635Z" fill="url(#paint2_linear_5944_22835)"/>
<path d="M7.58101 28.0365C7.58101 28.3835 7.88213 28.6872 8.22628 28.6872C8.57043 28.6872 8.87156 28.3835 8.87156 28.0365V25.6508H7.58136L7.58101 28.0365Z" fill="url(#paint3_linear_5944_22835)"/>
<path d="M10.1609 33.6746C10.1609 34.0217 10.462 34.3254 10.8062 34.3254C11.1503 34.3254 11.4514 34.0217 11.4514 33.6746L11.4511 25.6503H10.1609L10.1609 33.6746Z" fill="url(#paint4_linear_5944_22835)"/>
<path d="M11.4517 16.3254C11.4517 15.9783 11.1505 15.6746 10.8064 15.6746C10.4622 15.6746 10.1611 15.9783 10.1611 16.3254V24.3494H11.4513L11.4517 16.3254Z" fill="url(#paint5_linear_5944_22835)"/>
<path d="M15.3223 39.3128C15.3223 39.6599 15.6235 39.9635 15.9676 39.9635C16.3118 39.9635 16.6129 39.6599 16.6129 39.3128L16.6125 25.65H15.3224L15.3223 39.3128Z" fill="url(#paint6_linear_5944_22835)"/>
<path d="M16.6123 10.6863C16.6123 10.3393 16.3111 10.0356 15.967 10.0356C15.6228 10.0356 15.3217 10.3393 15.3217 10.6863V24.3491H16.6119L16.6123 10.6863Z" fill="url(#paint7_linear_5944_22835)"/>
<path d="M12.7416 42.3493C12.7416 42.6963 13.0427 43 13.3869 43C13.731 43 14.0322 42.6963 14.0322 42.3493L14.0318 25.65H12.7416L12.7416 42.3493Z" fill="url(#paint8_linear_5944_22835)"/>
<path d="M14.0324 7.65073C14.0324 7.30368 13.7313 7 13.3871 7C13.043 7 12.7418 7.30367 12.7418 7.65073V24.3491H14.032L14.0324 7.65073Z" fill="url(#paint9_linear_5944_22835)"/>
<path d="M17.9031 34.9763C17.9031 35.3234 18.2042 35.6271 18.5483 35.6271C18.8925 35.6271 19.1936 35.3234 19.1936 34.9763L19.1933 25.6509H17.9031L17.9031 34.9763Z" fill="url(#paint10_linear_5944_22835)"/>
<path d="M19.193 15.0237C19.193 14.6766 18.8919 14.3729 18.5477 14.3729C18.2036 14.3729 17.9024 14.6766 17.9024 15.0237V24.3491H19.1926L19.193 15.0237Z" fill="url(#paint11_linear_5944_22835)"/>
<path d="M21.7737 18.494C21.7737 18.147 21.4726 17.8433 21.1284 17.8433C20.7843 17.8433 20.4832 18.147 20.4832 18.494V24.3497H21.7734L21.7737 18.494Z" fill="url(#paint12_linear_5944_22835)"/>
<path d="M20.4838 31.506C20.4838 31.853 20.7849 32.1567 21.1291 32.1567C21.4732 32.1567 21.7743 31.853 21.7743 31.506L21.774 25.6503H20.4838L20.4838 31.506Z" fill="url(#paint13_linear_5944_22835)"/>
<path d="M23.0645 29.3373C23.0645 29.6844 23.3656 29.9881 23.7098 29.9881C24.0539 29.9881 24.3551 29.6844 24.3551 29.3373V25.6505H23.0649L23.0645 29.3373Z" fill="url(#paint14_linear_5944_22835)"/>
<path d="M24.3544 20.6627C24.3544 20.3156 24.0533 20.0119 23.7092 20.0119C23.365 20.0119 23.0639 20.3156 23.0639 20.6627V24.3495H24.3541L24.3544 20.6627Z" fill="url(#paint15_linear_5944_22835)"/>
<path d="M26.9352 18.494C26.9352 18.147 26.634 17.8433 26.2899 17.8433C25.9457 17.8433 25.6446 18.147 25.6446 18.494V24.3497H26.9348L26.9352 18.494Z" fill="url(#paint16_linear_5944_22835)"/>
<path d="M25.6444 31.506C25.6444 31.853 25.9455 32.1567 26.2897 32.1567C26.6338 32.1567 26.9349 31.853 26.9349 31.506V25.6503H25.6447L25.6444 31.506Z" fill="url(#paint17_linear_5944_22835)"/>
<path d="M29.5159 21.9635C29.5159 21.6165 29.2148 21.3128 28.8706 21.3128C28.5265 21.3128 28.2253 21.6165 28.2253 21.9635V24.3492H29.5155L29.5159 21.9635Z" fill="url(#paint18_linear_5944_22835)"/>
<path d="M28.226 28.0365C28.226 28.3835 28.5271 28.6872 28.8712 28.6872C29.2154 28.6872 29.5165 28.3835 29.5165 28.0365V25.6508H28.2263L28.226 28.0365Z" fill="url(#paint19_linear_5944_22835)"/>
<path d="M30.8058 27.1687C30.8058 27.5157 31.1069 27.8194 31.4511 27.8194C31.7952 27.8194 32.0964 27.5157 32.0964 27.1687V25.6506H30.8062L30.8058 27.1687Z" fill="url(#paint20_linear_5944_22835)"/>
<path d="M32.0966 22.8313C32.0966 22.4843 31.7955 22.1806 31.4513 22.1806C31.1072 22.1806 30.8061 22.4843 30.8061 22.8313V24.3494H32.0963L32.0966 22.8313Z" fill="url(#paint21_linear_5944_22835)"/>
<path d="M33.3865 28.0365C33.3865 28.3835 33.6877 28.6872 34.0318 28.6872C34.376 28.6872 34.6771 28.3835 34.6771 28.0365V25.6508H33.3869L33.3865 28.0365Z" fill="url(#paint22_linear_5944_22835)"/>
<path d="M34.6773 21.9635C34.6773 21.6165 34.3762 21.3128 34.0321 21.3128C33.6879 21.3128 33.3868 21.6165 33.3868 21.9635V24.3492H34.677L34.6773 21.9635Z" fill="url(#paint23_linear_5944_22835)"/>
<path d="M35.9673 27.1687C35.9673 27.5157 36.2684 27.8194 36.6126 27.8194C36.9567 27.8194 37.2578 27.5157 37.2578 27.1687V25.6506H35.9676L35.9673 27.1687Z" fill="url(#paint24_linear_5944_22835)"/>
<path d="M37.2581 22.8313C37.2581 22.4843 36.9569 22.1806 36.6128 22.1806C36.2686 22.1806 35.9675 22.4843 35.9675 22.8313V24.3494H37.2577L37.2581 22.8313Z" fill="url(#paint25_linear_5944_22835)"/>
<path d="M42.4187 22.8313C42.4187 22.4843 42.1175 22.1806 41.7734 22.1806C41.4292 22.1806 41.1281 22.4843 41.1281 22.8313V24.3494H42.4183L42.4187 22.8313Z" fill="url(#paint26_linear_5944_22835)"/>
<path d="M41.1287 27.1687C41.1287 27.5157 41.4298 27.8194 41.774 27.8194C42.1181 27.8194 42.4193 27.5157 42.4193 27.1687V25.6506H41.1291L41.1287 27.1687Z" fill="url(#paint27_linear_5944_22835)"/>
<path d="M38.548 27.6026C38.548 27.9496 38.8491 28.2533 39.1933 28.2533C39.5374 28.2533 39.8385 27.9496 39.8385 27.6026V25.6507H38.5484L38.548 27.6026Z" fill="url(#paint28_linear_5944_22835)"/>
<path d="M39.8379 22.3974C39.8379 22.0504 39.5368 21.7467 39.1927 21.7467C38.8485 21.7467 38.5474 22.0504 38.5474 22.3974V24.3493H39.8376L39.8379 22.3974Z" fill="url(#paint29_linear_5944_22835)"/>
<path d="M43.7094 27.1687C43.7094 27.5157 44.0106 27.8194 44.3547 27.8194C44.6989 27.8194 45 27.5157 45 27.1687V25.6506H43.7098L43.7094 27.1687Z" fill="url(#paint30_linear_5944_22835)"/>
<path d="M44.9994 22.8313C44.9994 22.4843 44.6983 22.1806 44.3541 22.1806C44.01 22.1806 43.7088 22.4843 43.7088 22.8313V24.3494H44.999L44.9994 22.8313Z" fill="url(#paint31_linear_5944_22835)"/>
<defs>
<linearGradient id="paint0_linear_5944_22835" x1="37.6624" y1="32.7757" x2="37.6624" y2="39.9855" gradientUnits="userSpaceOnUse">
<stop stop-color="#ED3040"/>
<stop offset="1" stop-color="#2D23F4"/>
</linearGradient>
<linearGradient id="paint1_linear_5944_22835" x1="37.6624" y1="32.7757" x2="37.6624" y2="39.9855" gradientUnits="userSpaceOnUse">
<stop stop-color="#ED3040"/>
<stop offset="1" stop-color="#2D23F4"/>
</linearGradient>
<linearGradient id="paint2_linear_5944_22835" x1="37.6624" y1="32.7757" x2="37.6624" y2="39.9855" gradientUnits="userSpaceOnUse">
<stop stop-color="#ED3040"/>
<stop offset="1" stop-color="#2D23F4"/>
</linearGradient>
<linearGradient id="paint3_linear_5944_22835" x1="37.6624" y1="32.7757" x2="37.6624" y2="39.9855" gradientUnits="userSpaceOnUse">
<stop stop-color="#ED3040"/>
<stop offset="1" stop-color="#2D23F4"/>
</linearGradient>
<linearGradient id="paint4_linear_5944_22835" x1="37.6624" y1="32.7757" x2="37.6624" y2="39.9855" gradientUnits="userSpaceOnUse">
<stop stop-color="#ED3040"/>
<stop offset="1" stop-color="#2D23F4"/>
</linearGradient>
<linearGradient id="paint5_linear_5944_22835" x1="37.6624" y1="32.7757" x2="37.6624" y2="39.9855" gradientUnits="userSpaceOnUse">
<stop stop-color="#ED3040"/>
<stop offset="1" stop-color="#2D23F4"/>
</linearGradient>
<linearGradient id="paint6_linear_5944_22835" x1="37.6624" y1="32.7757" x2="37.6624" y2="39.9855" gradientUnits="userSpaceOnUse">
<stop stop-color="#ED3040"/>
<stop offset="1" stop-color="#2D23F4"/>
</linearGradient>
<linearGradient id="paint7_linear_5944_22835" x1="37.6624" y1="32.7757" x2="37.6624" y2="39.9855" gradientUnits="userSpaceOnUse">
<stop stop-color="#ED3040"/>
<stop offset="1" stop-color="#2D23F4"/>
</linearGradient>
<linearGradient id="paint8_linear_5944_22835" x1="37.6624" y1="32.7757" x2="37.6624" y2="39.9855" gradientUnits="userSpaceOnUse">
<stop stop-color="#ED3040"/>
<stop offset="1" stop-color="#2D23F4"/>
</linearGradient>
<linearGradient id="paint9_linear_5944_22835" x1="37.6624" y1="32.7757" x2="37.6624" y2="39.9855" gradientUnits="userSpaceOnUse">
<stop stop-color="#ED3040"/>
<stop offset="1" stop-color="#2D23F4"/>
</linearGradient>
<linearGradient id="paint10_linear_5944_22835" x1="37.6624" y1="32.7757" x2="37.6624" y2="39.9855" gradientUnits="userSpaceOnUse">
<stop stop-color="#ED3040"/>
<stop offset="1" stop-color="#2D23F4"/>
</linearGradient>
<linearGradient id="paint11_linear_5944_22835" x1="37.6624" y1="32.7757" x2="37.6624" y2="39.9855" gradientUnits="userSpaceOnUse">
<stop stop-color="#ED3040"/>
<stop offset="1" stop-color="#2D23F4"/>
</linearGradient>
<linearGradient id="paint12_linear_5944_22835" x1="37.6624" y1="32.7757" x2="37.6624" y2="39.9855" gradientUnits="userSpaceOnUse">
<stop stop-color="#ED3040"/>
<stop offset="1" stop-color="#2D23F4"/>
</linearGradient>
<linearGradient id="paint13_linear_5944_22835" x1="37.6624" y1="32.7757" x2="37.6624" y2="39.9855" gradientUnits="userSpaceOnUse">
<stop stop-color="#ED3040"/>
<stop offset="1" stop-color="#2D23F4"/>
</linearGradient>
<linearGradient id="paint14_linear_5944_22835" x1="37.6624" y1="32.7757" x2="37.6624" y2="39.9855" gradientUnits="userSpaceOnUse">
<stop stop-color="#ED3040"/>
<stop offset="1" stop-color="#2D23F4"/>
</linearGradient>
<linearGradient id="paint15_linear_5944_22835" x1="37.6624" y1="32.7757" x2="37.6624" y2="39.9855" gradientUnits="userSpaceOnUse">
<stop stop-color="#ED3040"/>
<stop offset="1" stop-color="#2D23F4"/>
</linearGradient>
<linearGradient id="paint16_linear_5944_22835" x1="37.6624" y1="32.7757" x2="37.6624" y2="39.9855" gradientUnits="userSpaceOnUse">
<stop stop-color="#ED3040"/>
<stop offset="1" stop-color="#2D23F4"/>
</linearGradient>
<linearGradient id="paint17_linear_5944_22835" x1="37.6624" y1="32.7757" x2="37.6624" y2="39.9855" gradientUnits="userSpaceOnUse">
<stop stop-color="#ED3040"/>
<stop offset="1" stop-color="#2D23F4"/>
</linearGradient>
<linearGradient id="paint18_linear_5944_22835" x1="37.6624" y1="32.7757" x2="37.6624" y2="39.9855" gradientUnits="userSpaceOnUse">
<stop stop-color="#ED3040"/>
<stop offset="1" stop-color="#2D23F4"/>
</linearGradient>
<linearGradient id="paint19_linear_5944_22835" x1="37.6624" y1="32.7757" x2="37.6624" y2="39.9855" gradientUnits="userSpaceOnUse">
<stop stop-color="#ED3040"/>
<stop offset="1" stop-color="#2D23F4"/>
</linearGradient>
<linearGradient id="paint20_linear_5944_22835" x1="37.6624" y1="32.7757" x2="37.6624" y2="39.9855" gradientUnits="userSpaceOnUse">
<stop stop-color="#ED3040"/>
<stop offset="1" stop-color="#2D23F4"/>
</linearGradient>
<linearGradient id="paint21_linear_5944_22835" x1="37.6624" y1="32.7757" x2="37.6624" y2="39.9855" gradientUnits="userSpaceOnUse">
<stop stop-color="#ED3040"/>
<stop offset="1" stop-color="#2D23F4"/>
</linearGradient>
<linearGradient id="paint22_linear_5944_22835" x1="37.6624" y1="32.7757" x2="37.6624" y2="39.9855" gradientUnits="userSpaceOnUse">
<stop stop-color="#ED3040"/>
<stop offset="1" stop-color="#2D23F4"/>
</linearGradient>
<linearGradient id="paint23_linear_5944_22835" x1="37.6624" y1="32.7757" x2="37.6624" y2="39.9855" gradientUnits="userSpaceOnUse">
<stop stop-color="#ED3040"/>
<stop offset="1" stop-color="#2D23F4"/>
</linearGradient>
<linearGradient id="paint24_linear_5944_22835" x1="37.6624" y1="32.7757" x2="37.6624" y2="39.9855" gradientUnits="userSpaceOnUse">
<stop stop-color="#ED3040"/>
<stop offset="1" stop-color="#2D23F4"/>
</linearGradient>
<linearGradient id="paint25_linear_5944_22835" x1="37.6624" y1="32.7757" x2="37.6624" y2="39.9855" gradientUnits="userSpaceOnUse">
<stop stop-color="#ED3040"/>
<stop offset="1" stop-color="#2D23F4"/>
</linearGradient>
<linearGradient id="paint26_linear_5944_22835" x1="37.6624" y1="32.7757" x2="37.6624" y2="39.9855" gradientUnits="userSpaceOnUse">
<stop stop-color="#ED3040"/>
<stop offset="1" stop-color="#2D23F4"/>
</linearGradient>
<linearGradient id="paint27_linear_5944_22835" x1="37.6624" y1="32.7757" x2="37.6624" y2="39.9855" gradientUnits="userSpaceOnUse">
<stop stop-color="#ED3040"/>
<stop offset="1" stop-color="#2D23F4"/>
</linearGradient>
<linearGradient id="paint28_linear_5944_22835" x1="37.6624" y1="32.7757" x2="37.6624" y2="39.9855" gradientUnits="userSpaceOnUse">
<stop stop-color="#ED3040"/>
<stop offset="1" stop-color="#2D23F4"/>
</linearGradient>
<linearGradient id="paint29_linear_5944_22835" x1="37.6624" y1="32.7757" x2="37.6624" y2="39.9855" gradientUnits="userSpaceOnUse">
<stop stop-color="#ED3040"/>
<stop offset="1" stop-color="#2D23F4"/>
</linearGradient>
<linearGradient id="paint30_linear_5944_22835" x1="37.6624" y1="32.7757" x2="37.6624" y2="39.9855" gradientUnits="userSpaceOnUse">
<stop stop-color="#ED3040"/>
<stop offset="1" stop-color="#2D23F4"/>
</linearGradient>
<linearGradient id="paint31_linear_5944_22835" x1="37.6624" y1="32.7757" x2="37.6624" y2="39.9855" gradientUnits="userSpaceOnUse">
<stop stop-color="#ED3040"/>
<stop offset="1" stop-color="#2D23F4"/>
</linearGradient>
</defs>
</svg>
