<svg width="50" height="50" viewBox="0 0 50 50" fill="none" xmlns="http://www.w3.org/2000/svg">
<path d="M25.0005 11.6686C21.6528 11.6633 18.4258 12.9193 15.9629 15.1863C13.5 17.4536 11.9816 20.5653 11.7105 23.9018C11.4395 27.238 12.4356 30.5541 14.5003 33.1888C14.513 33.2034 14.521 33.222 14.535 33.2354H14.5347C16.0534 35.1776 18.0827 36.6581 20.3953 37.5119C22.7084 38.3656 25.2131 38.5586 27.6293 38.0689C30.0453 37.5795 32.2777 36.4267 34.0755 34.74C34.1077 34.7164 34.1372 34.6898 34.1642 34.66C36.1026 32.8282 37.4461 30.4564 38.0204 27.852C38.5951 25.2479 38.3746 22.531 37.3871 20.0537C36.3996 17.5762 34.6911 15.4525 32.4823 13.9571C30.2739 12.462 27.6671 11.6647 25.0002 11.6681L25.0005 11.6686ZM15.6667 32.526V28.3344C15.6667 27.9806 15.8072 27.6416 16.0575 27.3917C16.3075 27.1414 16.6465 27.0009 17.0003 27.0009H17.8563L17.0369 30.6966V30.6969C16.9281 31.1451 17.0599 31.6174 17.3849 31.9442C17.7099 32.2714 18.1813 32.4063 18.6301 32.3009L23.2868 31.2675C23.6565 31.1872 23.994 30.9996 24.257 30.7276L27.9876 27.001H31.6668C32.0207 27.001 32.3597 27.1414 32.6096 27.3917C32.8599 27.6417 33.0004 27.9806 33.0004 28.3345V33.9194C30.5577 36.125 27.3137 37.2259 24.0327 36.9623C20.7521 36.6984 17.7254 35.0935 15.666 32.526L15.6667 32.526ZM31.1957 21.9107L27.4275 18.1428L28.3703 17.2V17.2003C28.4953 17.0754 28.665 17.005 28.842 17.005C29.0188 17.005 29.1885 17.0754 29.3135 17.2003L32.1416 20.0283C32.2669 20.1533 32.337 20.3229 32.337 20.5C32.337 20.6768 32.2669 20.8464 32.1416 20.9714L31.1957 21.9107ZM26.4816 19.0843L27.8949 20.4975L22.5754 25.8167H22.5757C22.447 25.9407 22.3735 26.1113 22.372 26.2902C22.3704 26.4691 22.4408 26.641 22.5673 26.7675C22.6939 26.8937 22.8657 26.9641 23.0446 26.9625C23.2233 26.961 23.3942 26.8878 23.5182 26.7591L28.8377 21.44L30.2522 22.8544L23.5188 29.584L19.7481 25.8136L26.4816 19.0843ZM19.1902 27.1456L22.1902 30.1453L18.3367 30.9947L19.1902 27.1456ZM34.3333 32.5264V28.3348C34.3333 27.6275 34.0523 26.9492 33.5521 26.4493C33.0521 25.9491 32.3739 25.6681 31.6664 25.6681H29.3218L33.0798 21.9132H33.0801C33.455 21.538 33.6659 21.0294 33.6659 20.4988C33.6659 19.9685 33.455 19.4596 33.0801 19.0847L30.2519 16.2567C29.877 15.8818 29.368 15.6709 28.8377 15.6709C28.3071 15.6709 27.7985 15.8818 27.4232 16.2567L26.0099 17.6687L26.0059 17.6746L18.5914 25.0824C18.4286 25.2539 18.2961 25.4521 18.2 25.6682H17.0001C16.2926 25.6682 15.6144 25.9492 15.1144 26.4494C14.6142 26.9493 14.3332 27.6276 14.3332 28.3349V30.4735V30.4732C13.008 27.8989 12.6581 24.932 13.3489 22.1206C14.0392 19.3084 15.7233 16.8411 18.0903 15.173C20.4572 13.5051 23.3478 12.7494 26.2283 13.0452C29.1089 13.3408 31.7853 14.6681 33.764 16.7821C35.7427 18.8962 36.8902 21.6544 36.9947 24.5481C37.0996 27.4415 36.1542 30.2754 34.3334 32.5268L34.3333 32.5264Z" fill="url(#paint0_linear_5944_22815)"/>
<path d="M44.9803 24.1067C44.9627 23.8226 44.8553 23.5519 44.6733 23.3329C44.4915 23.1143 44.245 22.9592 43.969 22.8901L41.4358 22.2528H41.4355C41.2612 21.1981 40.982 20.1636 40.6021 19.1644L42.4828 17.3499C42.6894 17.1514 42.8268 16.8918 42.8749 16.6093C42.9229 16.3271 42.8789 16.0368 42.7496 15.7813C42.6162 15.5192 42.4701 15.2612 42.3216 15.002C42.173 14.7427 42.0211 14.4912 41.8629 14.2446C41.7066 14.0055 41.478 13.8226 41.21 13.7227C40.9424 13.6225 40.6499 13.6111 40.3748 13.6892L37.854 14.4065H37.8543C37.1757 13.5844 36.419 12.8299 35.5943 12.1542L36.3135 9.63009C36.392 9.35533 36.3802 9.06258 36.28 8.79491C36.1802 8.52728 35.9969 8.29841 35.7575 8.14242C35.5109 7.98518 35.2581 7.83385 34.9995 7.68375C34.7408 7.53366 34.4828 7.39255 34.2207 7.25703H34.221C33.9658 7.12647 33.6755 7.08151 33.3929 7.12895C33.1104 7.17609 32.8508 7.31316 32.6523 7.5197L30.8383 9.39498C29.8375 9.0185 28.8016 8.74249 27.7462 8.57099L27.1123 6.03796V6.03765C27.0435 5.76102 26.8884 5.51324 26.6691 5.33058C26.4499 5.14792 26.1782 5.04 25.8935 5.02233C25.298 4.99256 24.701 4.99256 24.1055 5.02233C23.8214 5.04001 23.5507 5.14761 23.3317 5.32935C23.113 5.51108 22.958 5.75793 22.8888 6.03363L22.2509 8.56665V8.56696C21.1961 8.74187 20.1618 9.0216 19.1628 9.40215L17.3482 7.51973C17.1494 7.31349 16.8895 7.17674 16.6073 7.12959C16.3247 7.08214 16.0348 7.12649 15.7795 7.25644C15.5174 7.38979 15.2594 7.53585 14.9995 7.68502C14.7396 7.83449 14.4896 7.9849 14.2434 8.14244C14.0036 8.29842 13.8204 8.52699 13.7202 8.79493C13.6203 9.06287 13.6088 9.35594 13.6873 9.63099L14.4047 12.1516V12.1513C13.5825 12.8299 12.8279 13.5865 12.1521 14.4112L9.62791 13.6886C9.35314 13.6104 9.06036 13.6222 8.79267 13.7224C8.52502 13.8222 8.29645 14.0052 8.14014 14.2446C7.9829 14.4912 7.83155 14.7439 7.68145 15.0026C7.53134 15.2612 7.39022 15.5192 7.2547 15.7813C7.12475 16.0362 7.08009 16.3265 7.12723 16.6087C7.17468 16.8912 7.31145 17.1508 7.51738 17.3499L9.39278 19.1638C9.01628 20.1645 8.74025 21.2 8.56874 22.2553L6.03555 22.8892L6.03524 22.8895C5.75859 22.958 5.51079 23.1134 5.32813 23.3323C5.14545 23.5516 5.03752 23.8233 5.01985 24.1079C5.00527 24.4013 5 24.7012 5 25.0014C5 25.3013 5.00527 25.6015 5.01985 25.8961V25.8958C5.03753 26.1799 5.14514 26.4509 5.3272 26.6696C5.50894 26.8885 5.75581 27.0436 6.03214 27.1124L8.56533 27.7497C8.74056 28.8044 9.02 29.8389 9.39994 30.8381L7.51739 32.6529C7.31146 32.8517 7.17469 33.1113 7.12724 33.3938C7.07978 33.676 7.12413 33.9663 7.25408 34.2215C7.38744 34.4836 7.53352 34.7416 7.68269 35.0015C7.83218 35.2613 7.98259 35.5113 8.14077 35.7581V35.7578C8.29676 35.9972 8.52565 36.1802 8.7933 36.2804C9.06126 36.3802 9.35372 36.3917 9.62878 36.3133L12.1496 35.596H12.1493C12.8279 36.4184 13.5846 37.1726 14.4093 37.8483L13.6866 40.3724C13.6085 40.6472 13.6203 40.9399 13.7204 41.2076C13.8203 41.4752 14.0033 41.7041 14.2427 41.8604C14.4893 42.0176 14.742 42.1689 15.0007 42.319C15.2594 42.4691 15.5174 42.6102 15.7795 42.7458V42.7454C16.0344 42.8757 16.3247 42.92 16.6069 42.8729C16.8895 42.8258 17.149 42.689 17.3481 42.4828L19.1622 40.6075V40.6078C20.163 40.984 21.1985 41.26 22.2539 41.4315L22.8878 43.9679L22.8881 43.9682C22.9573 44.2442 23.1127 44.4914 23.3319 44.6734C23.5512 44.8552 23.8226 44.9628 24.1067 44.9802C24.4025 44.9947 24.7 45 24.9999 45C25.2998 45 25.6 44.9947 25.8947 44.9802C26.1787 44.9625 26.4495 44.8552 26.6685 44.6731C26.8871 44.4914 27.0422 44.2449 27.1113 43.9689L27.7487 41.4358V41.4355C28.8034 41.2612 29.838 40.9821 30.8373 40.6022L32.6519 42.4828H32.6522C32.8507 42.6894 33.11 42.8268 33.3925 42.8748C33.6747 42.9229 33.965 42.8789 34.2209 42.7495C34.483 42.6162 34.741 42.4701 35.0003 42.3216C35.2596 42.173 35.5111 42.0211 35.7576 41.8629H35.7573C35.9968 41.7069 36.1797 41.4781 36.2799 41.2104C36.3798 40.9425 36.3913 40.65 36.3128 40.375L35.5954 37.8544V37.8547C36.4176 37.1761 37.1722 36.4195 37.848 35.5955L40.3706 36.3162H40.3709C40.6457 36.3949 40.9388 36.3835 41.2067 36.2836C41.4746 36.1838 41.7035 36.0008 41.8602 35.7614C42.0174 35.5148 42.1688 35.2621 42.3189 35.0034C42.469 34.7448 42.6101 34.4868 42.7456 34.2247H42.7453C42.8756 33.9698 42.9199 33.6795 42.8728 33.3973C42.8256 33.1148 42.6889 32.8552 42.4826 32.6561L40.6072 30.8422H40.6075C40.9837 29.8415 41.2594 28.8054 41.4306 27.7498L43.9679 27.1165H43.9682C44.2448 27.047 44.4923 26.891 44.6744 26.6715C44.8564 26.4516 44.9634 26.1796 44.9802 25.8946C44.9947 25.5988 45 25.3014 45 25.0015C45 24.7016 44.9947 24.4014 44.9802 24.1083L44.9803 24.1067ZM43.647 25.8198L41.1077 26.4536V26.454C40.8558 26.5181 40.6282 26.6546 40.4526 26.8466C40.2774 27.0385 40.162 27.2776 40.1208 27.5344C39.9589 28.5035 39.7037 29.4547 39.3588 30.3748C39.2673 30.6176 39.2487 30.8821 39.3051 31.1352C39.3616 31.3885 39.4909 31.6199 39.677 31.8007L41.5629 33.6099C41.4355 33.8546 41.3015 34.0965 41.1629 34.3365C41.0242 34.5765 40.8828 34.8125 40.7377 35.0336L38.2156 34.3129V34.3132C37.9659 34.2425 37.7011 34.2463 37.4536 34.3238C37.2058 34.4013 36.9862 34.5496 36.8215 34.7499C36.1972 35.5063 35.5019 36.2015 34.7455 36.8258C34.5451 36.9905 34.3972 37.2097 34.3197 37.4572C34.2421 37.7047 34.2384 37.9695 34.3088 38.2192L35.0389 40.7336C34.8087 40.8809 34.5721 41.0217 34.3342 41.1597C34.0964 41.2977 33.851 41.4329 33.6116 41.5545L31.7964 39.6745V39.6742C31.6153 39.4881 31.3839 39.3588 31.1302 39.3024C30.8768 39.2459 30.6126 39.2645 30.3694 39.3563C29.4512 39.7018 28.5012 39.958 27.5335 40.1208C27.2777 40.163 27.0395 40.2783 26.8481 40.4538C26.6568 40.6291 26.5209 40.8561 26.4567 41.1076L25.8299 43.6481H25.8302C25.2822 43.6775 24.7327 43.6766 24.1849 43.6447L23.5504 41.1116H23.5501C23.4862 40.8601 23.3503 40.6328 23.159 40.4573C22.9679 40.2821 22.7294 40.1661 22.4736 40.1242C21.5044 39.9623 20.5529 39.7071 19.6327 39.3622C19.3899 39.2708 19.1257 39.2522 18.8723 39.3086C18.6192 39.365 18.3878 39.4944 18.2067 39.6804L16.3974 41.5663C16.1527 41.4388 15.9108 41.3048 15.6701 41.1662C15.4294 41.0276 15.1947 40.8868 14.972 40.7417L15.694 38.2197H15.6943C15.765 37.9701 15.7613 37.7053 15.6838 37.4575C15.6062 37.21 15.458 36.9904 15.2576 36.8258C14.5012 36.2015 13.8059 35.5062 13.1816 34.7499C13.0169 34.5495 12.7976 34.4013 12.5501 34.3235C12.3027 34.2459 12.0378 34.2422 11.7881 34.3126L9.26669 35.0392C9.11937 34.8091 8.97857 34.5725 8.84056 34.3346C8.70255 34.0968 8.56733 33.8515 8.44575 33.612L10.3258 31.7969H10.3261C10.5122 31.6158 10.6416 31.3845 10.698 31.1308C10.7544 30.8774 10.7358 30.6132 10.644 30.3701C10.2985 29.4519 10.0424 28.5023 9.87955 27.5343C9.83768 27.2782 9.72199 27.0397 9.54646 26.8484C9.37123 26.657 9.14359 26.5212 8.89207 26.457L6.35205 25.8312C6.33871 25.5539 6.33344 25.2792 6.33344 25.0013C6.33344 24.7235 6.33871 24.4487 6.35546 24.1826L8.89206 23.5481C9.14359 23.4839 9.37091 23.3481 9.54645 23.1571C9.72168 22.9657 9.83768 22.7276 9.87954 22.4714C10.0414 21.5023 10.2967 20.5511 10.6416 19.6311C10.733 19.3882 10.7517 19.1237 10.6952 18.8706C10.6388 18.6173 10.5094 18.3859 10.3234 18.2051L8.43739 16.3959C8.56486 16.1512 8.69884 15.9093 8.83748 15.6687C8.97611 15.428 9.11691 15.1933 9.26206 14.9706L11.7835 15.6926C12.0332 15.7633 12.2983 15.7599 12.5461 15.6823C12.7936 15.6048 13.0135 15.4566 13.1782 15.2559C13.8025 14.4995 14.4978 13.8043 15.2542 13.18C15.4546 13.0153 15.6025 12.7958 15.68 12.5486C15.7579 12.3011 15.7613 12.0363 15.6909 11.7867L14.9615 9.26879C15.1916 9.12148 15.4282 8.98069 15.6661 8.84269C15.904 8.70468 16.1493 8.56947 16.3887 8.4479L18.2039 10.3279L18.2042 10.3282C18.3851 10.5142 18.6167 10.6436 18.8701 10.7C19.1235 10.7564 19.388 10.7378 19.6309 10.646C20.5492 10.3006 21.4991 10.0444 22.4668 9.8816C22.723 9.83974 22.9615 9.72406 23.1528 9.54885C23.3442 9.37363 23.48 9.14631 23.5442 8.89481L24.171 6.35432C24.719 6.32362 25.2683 6.32362 25.8163 6.35432L26.4509 8.89076V8.89107C26.5148 9.14381 26.6512 9.37237 26.8438 9.54852C27.0361 9.72467 27.2761 9.84034 27.5336 9.88158C28.5024 10.0438 29.4537 10.2987 30.3735 10.6435C30.6164 10.736 30.8812 10.7552 31.1346 10.6987C31.3883 10.6423 31.6197 10.5124 31.8002 10.3254L33.6095 8.43953C33.8542 8.56699 34.0961 8.70096 34.3362 8.83958C34.5762 8.97821 34.8122 9.11962 35.0349 9.26476L34.3129 11.786C34.2422 12.0357 34.2456 12.3008 34.3231 12.5486C34.4007 12.7964 34.5489 13.016 34.7496 13.1806C35.506 13.8052 36.2013 14.5002 36.8256 15.2565C36.9903 15.4569 37.2096 15.6051 37.457 15.6826C37.7045 15.7602 37.9694 15.7639 38.2191 15.6932L40.7337 14.9632C40.881 15.1933 41.0218 15.4299 41.1598 15.6678C41.2978 15.9056 41.433 16.1509 41.5546 16.3903L39.6745 18.2054L39.6742 18.2057C39.4881 18.3865 39.3588 18.6182 39.3024 18.8716C39.2459 19.1249 39.2645 19.3895 39.3563 19.6323C39.7012 20.5518 39.9564 21.5026 40.1183 22.4714C40.1602 22.7273 40.2759 22.9655 40.4511 23.1568C40.6263 23.3481 40.8537 23.484 41.1049 23.5482L43.6462 24.1861C43.6595 24.4568 43.6642 24.7272 43.6642 25.0014C43.6642 25.2753 43.6617 25.5541 43.6456 25.8199L43.647 25.8198Z" fill="url(#paint1_linear_5944_22815)"/>
<defs>
<linearGradient id="paint0_linear_5944_22815" x1="37.6624" y1="33.6397" x2="37.6624" y2="41.6506" gradientUnits="userSpaceOnUse">
<stop stop-color="#ED3040"/>
<stop offset="1" stop-color="#2D23F4"/>
</linearGradient>
<linearGradient id="paint1_linear_5944_22815" x1="37.6624" y1="33.6397" x2="37.6624" y2="41.6506" gradientUnits="userSpaceOnUse">
<stop stop-color="#ED3040"/>
<stop offset="1" stop-color="#2D23F4"/>
</linearGradient>
</defs>
</svg>
