<svg width="50" height="50" viewBox="0 0 50 50" fill="none" xmlns="http://www.w3.org/2000/svg">
<path fill-rule="evenodd" clip-rule="evenodd" d="M15.92 40.955H34.079H41.5259V30.6177H8.47283V40.955H15.9197H15.92ZM41.526 29.6626V11.2921C41.526 8.37057 39.1201 5.95489 36.084 5.95489H13.9153C10.9365 5.95489 8.47332 8.37057 8.47332 11.2921V29.6626H41.526ZM39.8076 41.9101H34.0794V44.0451H39.8076V41.9101ZM33.1054 41.9101H16.8942V45H9.21843V41.9101H7.5V11.2921C7.5 7.80893 10.3641 5 13.9157 5H36.0843C39.6359 5 42.5 7.80893 42.5 11.2921V41.9101H40.7816V45H33.1058V41.9101H33.1054ZM15.9204 41.9101H10.1922V44.0451H15.9204V41.9101ZM15.0612 8.09007V10.4496H34.9955V8.09007H15.0612ZM14.0875 7.19131H35.9696V11.4048H14.0875V7.19131ZM11.5096 13.1463V27.4724H24.4559V13.1463H11.5096ZM25.5439 27.4724H38.4902V13.1463H25.5439V27.4724ZM39.4641 28.4273H10.5357V12.1909H39.4641V28.4273ZM22.0499 36.7979V39.2697H27.9502V36.7979H22.0499ZM21.0763 35.843H28.9241V40.2249H21.0763V35.843ZM35.2822 32.3599C33.7356 32.3599 32.4181 33.5957 32.4181 35.1127C32.4181 36.6295 33.6783 37.8655 35.2822 37.8655C36.8289 37.8655 38.0891 36.6296 38.0891 35.1127C38.0891 33.5958 36.829 32.3599 35.2822 32.3599ZM35.2822 31.405C37.4016 31.405 39.0631 33.0342 39.0631 35.113C39.0631 37.1916 37.4019 38.821 35.2822 38.821C33.1628 38.821 31.5014 37.1918 31.5014 35.113C31.5014 33.0344 33.1626 31.405 35.2822 31.405ZM14.7748 31.405C16.8369 31.405 18.5556 33.0342 18.5556 35.113C18.5556 37.1916 16.8372 38.821 14.7748 38.821C12.6554 38.821 10.9367 37.1918 10.9367 35.113C10.9367 33.0344 12.6551 31.405 14.7748 31.405ZM14.7748 32.3599C13.1709 32.3599 11.9107 33.5957 11.9107 35.1127C11.9107 36.6295 13.1708 37.8655 14.7748 37.8655C16.3214 37.8655 17.5816 36.6296 17.5816 35.1127C17.5816 33.5958 16.3215 32.3599 14.7748 32.3599Z" fill="url(#paint0_linear_5944_22841)"/>
<defs>
<linearGradient id="paint0_linear_5944_22841" x1="0" y1="0" x2="0" y2="1" gradientUnits="objectBoundingBox">
<stop stop-color="#ED3040"/>
<stop offset="1" stop-color="#2D23F4"/>
</linearGradient>
</defs>
</svg>
