<svg width="50" height="50" viewBox="0 0 50 50" fill="none" xmlns="http://www.w3.org/2000/svg">
<path d="M22.9884 5C21.1388 5 19.6251 6.52562 19.6251 8.38995C19.6251 8.94064 19.7696 9.45164 20.0036 9.91255C19.1882 10.9312 18.4772 12.1648 17.8754 13.5673C17.5917 13.5333 17.3029 13.4926 17.0266 13.4724C13.2557 13.1872 10.0903 14.0887 8.69442 16.526C7.71977 18.2272 7.82787 20.3782 8.74449 22.5982C9.20612 23.7167 9.87569 24.8676 10.7335 26.0251C10.5653 26.2526 10.3907 26.481 10.2368 26.7084C8.10622 29.8571 7.29811 33.0685 8.69437 35.5056C10.0906 37.9425 13.2557 38.8438 17.0265 38.5591C17.3019 38.5389 17.5896 38.4969 17.8727 38.4643C18.4034 39.707 19.0066 40.8201 19.6832 41.7453C21.1559 43.7587 22.9961 45 25.0069 45C27.7991 45 30.1563 42.6899 31.7965 39.2562C31.917 39.0042 32.0252 38.7321 32.138 38.467C32.4217 38.501 32.7104 38.5417 32.9868 38.5619C36.7577 38.8468 39.923 37.9456 41.319 35.5087C42.4308 33.5679 42.1384 31.0247 40.7488 28.3559C41.3286 27.746 41.6895 26.9235 41.6895 26.0176C41.6895 25.1114 41.3266 24.2892 40.7462 23.6793C42.1388 21.0076 42.4319 18.4609 41.319 16.5182C39.9227 14.0813 36.7577 13.1797 32.9868 13.465V13.4785C32.7121 13.4986 32.4254 13.5407 32.1433 13.5733C32.098 13.4677 32.0586 13.3516 32.0118 13.2477C30.5795 10.036 28.5705 7.74478 26.118 7.18328C25.6304 5.91533 24.4134 5.00642 22.9887 5.00642L22.9884 5ZM22.9884 6.3557C24.1109 6.3557 25.0064 7.25824 25.0064 8.3896C25.0064 9.52096 24.1109 10.4235 22.9884 10.4235C21.8658 10.4235 20.9703 9.52096 20.9703 8.3896C20.9703 7.25824 21.8658 6.3557 22.9884 6.3557ZM26.3253 8.64934C27.9736 9.27909 29.5567 11.0701 30.7687 13.7735C28.9399 14.1062 26.9975 14.6724 25.0064 15.4818C23.0257 14.6767 21.0934 14.1123 19.2729 13.7789C19.7499 12.7115 20.2856 11.7803 20.8731 10.9982C21.4536 11.4779 22.1839 11.7793 22.9884 11.7793C24.7498 11.7793 26.1905 10.391 26.3253 8.64902V8.64934ZM34.3554 14.7692C37.2036 14.7827 39.2607 15.6392 40.152 17.1947C40.9411 18.5726 40.8172 20.5497 39.6316 22.8938C39.2297 22.7215 38.7881 22.6263 38.3258 22.6263C37.728 22.6263 37.174 22.7979 36.6862 23.0765C35.8791 22.2842 35.0042 21.5175 34.0689 20.7832C33.7692 18.6319 33.2845 16.6383 32.6527 14.8644C32.7959 14.8496 32.9458 14.8277 33.0863 14.8169C33.5242 14.7843 33.9485 14.7682 34.3554 14.7695L34.3554 14.7692ZM15.657 14.7827C16.0639 14.7827 16.4882 14.7975 16.9261 14.8301C17.065 14.8436 17.2129 14.8641 17.3544 14.8775C16.7202 16.6585 16.2452 18.6443 15.9511 20.767C14.2665 22.0931 12.8105 23.4973 11.6128 24.9193C10.9172 23.9417 10.3587 22.985 9.98623 22.083C9.17178 20.1104 9.15242 18.4427 9.86006 17.2075C10.7513 15.6517 12.8084 14.7942 15.6567 14.7817L15.657 14.7827ZM31.2911 15.0555C31.7988 16.4287 32.21 17.9748 32.5128 19.637C31.6549 19.0342 30.7734 18.4515 29.8538 17.9102C29.8121 17.8695 29.7654 17.8328 29.7146 17.8046C28.7333 17.2334 27.7496 16.7251 26.7689 16.2635C28.3434 15.7003 29.8651 15.2973 31.2911 15.0558L31.2911 15.0555ZM18.7358 15.069C20.1541 15.3102 21.6688 15.7091 23.2344 16.2689C22.2567 16.7295 21.2753 17.2381 20.2967 17.8077C20.2583 17.8292 20.2222 17.8551 20.1888 17.885H20.1862C19.2539 18.432 18.3714 19.011 17.5246 19.6064C17.827 17.9728 18.2312 16.4392 18.7359 15.0699L18.7358 15.069ZM24.9947 16.9599C26.3326 17.5271 27.6894 18.1938 29.0413 18.9804C30.3601 19.7477 31.6188 20.5907 32.7908 21.4856C32.9723 22.9371 33.0772 24.4554 33.0772 26.0244C33.0772 27.5961 32.969 29.1102 32.7881 30.5608C31.6165 31.4557 30.3591 32.3018 29.0409 33.0687C27.6917 33.8539 26.3378 34.5173 25.0023 35.0838C23.6685 34.5176 22.3163 33.8552 20.9688 33.0714C20.4214 32.7528 19.8937 32.4074 19.3659 32.0625C19.5311 31.6629 19.6233 31.2282 19.6233 30.7704C19.6233 29.1519 18.4807 27.7911 16.9693 27.4601C16.9512 26.981 16.9325 26.502 16.9325 26.022C16.9325 24.4695 17.0363 22.9516 17.2216 21.4909C18.3715 20.6129 19.6132 19.7675 20.9554 18.9857L20.9687 18.9722C22.3135 18.1898 23.6631 17.5253 24.9942 16.9595L24.9947 16.9599ZM25.0051 22.635C23.1555 22.635 21.6418 24.1607 21.6418 26.0246C21.6418 27.8887 23.1556 29.4142 25.0051 29.4142C26.8546 29.4142 28.3683 27.8886 28.3683 26.0246C28.3683 24.1606 26.8546 22.635 25.0051 22.635ZM15.7456 22.6852C15.6522 23.7791 15.5881 24.89 15.5881 26.0246C15.5881 26.4986 15.6078 26.9713 15.6248 27.4442C15.1375 27.5391 14.6919 27.7457 14.303 28.0296C13.6167 27.3561 13.0065 26.6822 12.4584 26.0115C13.3763 24.8929 14.4802 23.7727 15.7456 22.6854L15.7456 22.6852ZM34.2782 22.7013C34.7635 23.1188 35.2205 23.546 35.6631 23.9776C35.2292 24.5488 34.9615 25.2543 34.9615 26.0247C34.9615 26.7947 35.2292 27.4981 35.6631 28.069C35.2155 28.506 34.7515 28.9362 34.2598 29.3588C34.3493 28.3129 34.406 27.2462 34.4097 26.1491C34.4097 26.1491 34.4124 26.1491 34.4124 26.133C34.4191 26.095 34.4231 26.0556 34.4231 26.0162C34.4231 24.8849 34.371 23.7794 34.2785 22.7006L34.2782 22.7013ZM25.0051 23.9911C26.1277 23.9911 27.0232 24.8937 27.0232 26.025C27.0232 27.1564 26.1277 28.0589 25.0051 28.0589C23.8825 28.0589 22.987 27.1564 22.987 26.025C22.987 24.8937 23.8825 23.9911 25.0051 23.9911ZM38.3243 23.9911C39.4469 23.9911 40.3424 24.8937 40.3424 26.025C40.3424 26.6881 40.0296 27.265 39.549 27.635H39.5463C39.2075 27.8951 38.7876 28.0559 38.3246 28.0559C37.202 28.0559 36.3065 27.1533 36.3065 26.022C36.3065 25.4313 36.5542 24.9038 36.9477 24.5337C37.0128 24.4944 37.0732 24.4483 37.1236 24.3908C37.4591 24.1405 37.871 23.9881 38.3246 23.9881L38.3243 23.9911ZM11.615 27.1107C12.1537 27.7512 12.7415 28.39 13.3911 29.0251C13.083 29.5368 12.897 30.1312 12.897 30.7704C12.897 32.6345 14.4108 34.16 16.2603 34.16C16.3404 34.16 16.4155 34.1425 16.4943 34.1355C16.7436 35.214 17.0404 36.2191 17.3772 37.1652C17.2276 37.18 17.0717 37.2045 16.9252 37.2153C13.421 37.4804 10.8782 36.6128 9.85946 34.8345C8.84071 33.0563 9.36678 30.4041 11.3468 27.478C11.4293 27.3558 11.5277 27.232 11.6148 27.1096L11.615 27.1107ZM16.2607 28.7365C17.3832 28.7365 18.2787 29.6391 18.2787 30.7704C18.2787 31.9018 17.3832 32.8043 16.2607 32.8043C15.1381 32.8043 14.2426 31.9018 14.2426 30.7704C14.2426 29.6391 15.1381 28.7365 16.2607 28.7365ZM36.6851 28.9643C37.1728 29.2425 37.7272 29.4147 38.3247 29.4147C38.7894 29.4147 39.2323 29.3185 39.6359 29.1446C40.8189 31.4863 40.9397 33.4614 40.1509 34.8382C39.1322 36.6165 36.5893 37.4841 33.0852 37.219C32.943 37.2056 32.7914 37.1837 32.6462 37.1689C33.2724 35.4065 33.7521 33.4241 34.0495 31.2822C34.9908 30.539 35.8713 29.7653 36.6851 28.965L36.6851 28.9643ZM32.5047 32.4283C32.2019 34.0847 31.788 35.617 31.283 36.9833C29.8607 36.7421 28.3416 36.34 26.7714 35.7786C27.7508 35.3177 28.7342 34.8131 29.7145 34.2426C30.6831 33.6791 31.6068 33.0628 32.5049 32.4287L32.5047 32.4283ZM18.6095 33.1855C19.1643 33.5485 19.7211 33.9098 20.2965 34.2449C21.2741 34.8138 22.2549 35.3184 23.2316 35.7783C21.6681 36.337 20.1553 36.7367 18.7384 36.9779C18.3742 35.9956 18.0551 34.9278 17.7897 33.771C18.0901 33.6139 18.3698 33.4225 18.6095 33.1856L18.6095 33.1855ZM25.0026 36.5567C26.992 37.3651 28.932 37.9323 30.7599 38.265C30.6994 38.3992 30.646 38.5455 30.5839 38.6754C29.0595 41.8666 27.0428 43.6515 25.0056 43.6515C23.546 43.6515 22.0793 42.7476 20.7648 40.9502C20.2201 40.2057 19.7233 39.2802 19.2644 38.2596C21.0865 37.9269 23.0202 37.3621 25.0032 36.557L25.0026 36.5567Z" fill="url(#paint0_linear_5944_22829)"/>
<defs>
<linearGradient id="paint0_linear_5944_22829" x1="35.7631" y1="33.6397" x2="35.7631" y2="41.6506" gradientUnits="userSpaceOnUse">
<stop stop-color="#ED3040"/>
<stop offset="1" stop-color="#2D23F4"/>
</linearGradient>
</defs>
</svg>
