<svg width="50" height="50" viewBox="0 0 50 50" fill="none" xmlns="http://www.w3.org/2000/svg">
<path d="M43.9099 30.5828H40.0936V24.9405C40.0936 24.607 39.8294 24.3366 39.5036 24.3366H38.9136V17.6251C39.6143 16.9836 40.0383 15.9079 39.5404 14.7378C39.442 14.5051 39.3253 14.3101 39.1901 14.1465C39.7247 13.3476 40.2779 12.4544 40.5543 11.4418C40.5606 11.4103 40.5666 11.379 40.5728 11.341C40.831 8.78115 39.6879 6.25241 37.9733 5.58545C37.2481 5.30252 35.8593 5.15156 34.3413 7.00688C29.7444 3.62907 19.1188 5.0444 15.8429 7.37801C15.6032 7.18295 15.3573 6.94412 15.0991 6.6924C14.3063 5.90605 13.4028 5.01924 12.2228 5.36533C12.1982 5.37176 12.1674 5.38432 12.1429 5.39687C10.717 6.05093 9.73391 7.43499 9.43893 9.196C9.13765 10.9886 9.60498 12.8818 10.6497 14.2093C10.533 14.3603 10.4346 14.5428 10.3424 14.7504C9.82008 15.9771 10.2871 17.0715 11.0431 17.7069V24.3367H10.4531C10.1273 24.3367 9.86317 24.607 9.86317 24.9405V30.5828H6.08997C5.76416 30.5828 5.5 30.8532 5.5 31.1867C5.5 31.5201 5.76416 31.7969 6.08997 31.7969H7.12242V44.3961C7.12242 44.7296 7.38658 45 7.71239 45H42.2385C42.5643 45 42.8285 44.7296 42.8285 44.3961V31.7969H43.91C44.2358 31.7969 44.5 31.5266 44.5 31.1931C44.5 30.8596 44.2358 30.5828 43.91 30.5828L43.9099 30.5828ZM32.6266 24.28C32.6266 23.9466 32.3624 23.6762 32.0366 23.6762H27.3413V19.2481C27.3413 18.9146 27.0772 18.6443 26.7514 18.6443V16.0905C28.3493 16.4114 29.99 15.9459 31.379 14.782C31.6127 15.5053 32.0366 16.0779 32.6203 16.4236C33.2964 16.8263 34.1198 16.8829 34.9371 16.6061C35.0232 16.8198 35.1214 17.0213 35.2443 17.21C35.2811 17.2666 35.3242 17.3233 35.361 17.3799V24.3432H34.7713C34.4455 24.3432 34.1814 24.6136 34.1814 24.947V30.5893H32.6266L32.6266 24.28ZM23.7948 19.8516H26.1547V23.6759H23.7948V19.8516ZM38.9071 25.5505V30.5825H35.3609V25.5505H38.9071ZM11.9463 16.8827C11.5039 16.5933 11.0982 15.9895 11.424 15.2286C11.5406 14.9517 11.6636 14.8449 11.7067 14.8259C11.8973 14.7502 12.0325 14.5806 12.0693 14.3794C12.1061 14.1783 12.0448 13.9642 11.8973 13.8258C10.828 12.7816 10.3179 11.0457 10.5943 9.40379C10.8217 8.0641 11.5406 7.01348 12.5731 6.52295C13.0464 6.40964 13.5565 6.86897 14.2694 7.56714C14.6751 7.96981 15.093 8.37861 15.566 8.65542C15.7874 8.78127 16.0638 8.75617 16.2544 8.57978C18.7373 6.32181 30.1494 4.78065 34.0395 8.31551C34.1685 8.42882 34.3345 8.48547 34.5006 8.46647C34.6666 8.44748 34.8201 8.35317 34.9185 8.21476C35.5453 7.309 36.5102 6.32142 37.5426 6.71769C38.7288 7.17701 39.5707 9.20226 39.3864 11.1584C39.116 12.1208 38.52 12.995 37.9423 13.8381L37.9048 13.9141C37.8004 14.065 37.7696 14.2601 37.825 14.4361C37.8803 14.6122 38.0093 14.7571 38.1753 14.8263C38.2184 14.8453 38.3414 14.9521 38.4517 15.2225C38.759 15.9458 38.4149 16.531 37.9784 16.839C37.8187 16.9523 37.7265 17.1409 37.7265 17.336V24.3369H36.5466V17.1534C36.5466 17.0025 36.4913 16.858 36.3928 16.7447C36.3375 16.688 36.2884 16.6252 36.239 16.5496C36.073 16.2853 35.9563 15.9898 35.901 15.6689C35.8642 15.4803 35.7472 15.3167 35.5751 15.235C35.4031 15.1532 35.2003 15.1593 35.0342 15.254C34.3703 15.6251 33.7068 15.6692 33.2152 15.3798C32.6929 15.0715 32.3916 14.4174 32.3733 13.5432C32.367 13.2979 32.2136 13.0777 31.9862 12.9895C31.7588 12.9014 31.5006 12.9706 31.3409 13.1531C29.9272 14.776 28.0651 15.3673 26.3692 14.7319C26.1849 14.6627 25.988 14.6942 25.8282 14.8075C25.6685 14.9208 25.5763 15.103 25.5763 15.3045V18.6507L24.3844 18.6501V15.2723C24.3844 15.0711 24.286 14.8886 24.1262 14.7753C23.9665 14.662 23.7636 14.6369 23.5793 14.7061C21.8584 15.3727 19.9782 14.7943 18.5459 13.1524C18.3862 12.9699 18.128 12.9007 17.9006 12.9889C17.6732 13.0771 17.5194 13.2973 17.5135 13.5426C17.4949 14.4168 17.1999 15.0648 16.6775 15.3731C16.1797 15.6686 15.5161 15.6184 14.8463 15.2473C14.6802 15.1529 14.4774 15.1465 14.3054 15.2347C14.1333 15.3165 14.0104 15.48 13.9796 15.675C13.9242 15.996 13.8075 16.2979 13.6415 16.5618C13.6229 16.587 13.6047 16.6121 13.5861 16.631L13.5371 16.6877C13.4509 16.7946 13.4018 16.933 13.4018 17.0714V24.3427H12.2219L12.2222 17.3987C12.2222 17.1911 12.1178 16.996 11.9458 16.8827L11.9463 16.8827ZM11.0428 25.5505H14.589V30.5825H11.0428V25.5505ZM15.1789 24.3364H14.5889V17.2853C14.6012 17.2663 14.6198 17.2412 14.632 17.2161C14.755 17.021 14.8594 16.8134 14.9456 16.5997C15.7692 16.8765 16.5925 16.8134 17.2686 16.4172C17.8464 16.0712 18.2703 15.505 18.504 14.7817C19.9176 15.9643 21.5828 16.4297 23.1992 16.0776V18.644C22.8734 18.644 22.6093 18.9144 22.6093 19.2479V23.676H17.914C17.5882 23.676 17.324 23.9463 17.324 24.2798V30.5825H15.7692V24.9403C15.7689 24.6068 15.5047 24.3364 15.1789 24.3364ZM8.30204 31.7966H17.3174V43.7918H8.30204V31.7966ZM18.5097 24.8901H31.4458V43.7922H18.5097V24.8901ZM41.6479 43.7922H32.6261V31.797H41.6414V43.7922H41.6479Z" fill="url(#paint0_linear_5944_22817)"/>
<path d="M23.7956 32.0479H20.8394C20.5136 32.0479 20.2494 32.3183 20.2494 32.6517V36.0231C20.2494 36.3566 20.5136 36.627 20.8394 36.627H23.7956C24.1214 36.627 24.3856 36.3566 24.3856 36.0231V32.6517C24.3856 32.3186 24.1214 32.0479 23.7956 32.0479ZM23.2056 35.4196H21.4357V33.262H23.2056V35.4196Z" fill="url(#paint1_linear_5944_22817)"/>
<path d="M29.1116 32.0479H26.1554C25.8296 32.0479 25.5654 32.3183 25.5654 32.6517V36.0231C25.5654 36.3566 25.8296 36.627 26.1554 36.627H29.1116C29.4374 36.627 29.7016 36.3566 29.7016 36.0231V32.6517C29.7016 32.3186 29.4374 32.0479 29.1116 32.0479ZM28.5216 35.4196H26.7517V33.262H28.5216V35.4196Z" fill="url(#paint2_linear_5944_22817)"/>
<path d="M23.7956 26.4751H20.8394C20.5136 26.4751 20.2494 26.7454 20.2494 27.0789V30.4503C20.2494 30.7838 20.5136 31.0541 20.8394 31.0541H23.7956C24.1214 31.0541 24.3856 30.7838 24.3856 30.4503V27.0789C24.3856 26.7458 24.1214 26.4751 23.7956 26.4751ZM23.2056 29.8468H21.4357V27.6892H23.2056V29.8468Z" fill="url(#paint3_linear_5944_22817)"/>
<path d="M29.1116 26.4751H26.1554C25.8296 26.4751 25.5654 26.7454 25.5654 27.0789V30.4503C25.5654 30.7838 25.8296 31.0541 26.1554 31.0541H29.1116C29.4374 31.0541 29.7016 30.7838 29.7016 30.4503V27.0789C29.7016 26.7458 29.4374 26.4751 29.1116 26.4751ZM28.5216 29.8468H26.7517V27.6892H28.5216V29.8468Z" fill="url(#paint4_linear_5944_22817)"/>
<path d="M23.7956 37.6207H20.8394C20.5136 37.6207 20.2494 37.8911 20.2494 38.2246V41.5959C20.2494 41.9294 20.5136 42.1998 20.8394 42.1998H23.7956C24.1214 42.1998 24.3856 41.9294 24.3856 41.5959V38.2246C24.3856 37.8914 24.1214 37.6207 23.7956 37.6207ZM23.2056 40.9924H21.4357V38.8348H23.2056V40.9924Z" fill="url(#paint5_linear_5944_22817)"/>
<path d="M29.1116 37.6207H26.1554C25.8296 37.6207 25.5654 37.8911 25.5654 38.2246V41.5959C25.5654 41.9294 25.8296 42.1998 26.1554 42.1998H29.1116C29.4374 42.1998 29.7016 41.9294 29.7016 41.5959V38.2246C29.7016 37.8914 29.4374 37.6207 29.1116 37.6207ZM28.5216 40.9924H26.7517V38.8348H28.5216V40.9924Z" fill="url(#paint6_linear_5944_22817)"/>
<path d="M35.3671 37.0867H38.9133C39.2391 37.0867 39.5032 36.8164 39.5032 36.4829V33.8599C39.5032 33.5264 39.2391 33.256 38.9133 33.256H35.3671C35.0413 33.256 34.7771 33.5264 34.7771 33.8599V36.4829C34.7711 36.8164 35.0353 37.0867 35.3671 37.0867ZM35.9571 34.4637H38.3169V35.8791H35.9571V34.4637Z" fill="url(#paint7_linear_5944_22817)"/>
<path d="M35.3671 42.339H38.9133C39.2391 42.339 39.5032 42.0686 39.5032 41.7352V39.1122C39.5032 38.7787 39.2391 38.5083 38.9133 38.5083H35.3671C35.0413 38.5083 34.7771 38.7787 34.7771 39.1122V41.7352C34.7711 42.0683 35.0353 42.339 35.3671 42.339ZM35.9571 39.7096H38.3169V41.1249H35.9571V39.7096Z" fill="url(#paint8_linear_5944_22817)"/>
<path d="M14.5894 33.2493H11.0433C10.7175 33.2493 10.4533 33.5197 10.4533 33.8531V36.4762C10.4533 36.8096 10.7175 37.08 11.0433 37.08H14.5894C14.9152 37.08 15.1794 36.8096 15.1794 36.4762V33.8531C15.1794 33.5197 14.9152 33.2493 14.5894 33.2493ZM13.9932 35.8784H11.6333V34.4631H13.9932V35.8784Z" fill="url(#paint9_linear_5944_22817)"/>
<path d="M14.5894 38.5016H11.0433C10.7175 38.5016 10.4533 38.772 10.4533 39.1054V41.7284C10.4533 42.0619 10.7175 42.3323 11.0433 42.3323H14.5894C14.9152 42.3323 15.1794 42.0619 15.1794 41.7284V39.1054C15.1794 38.772 14.9152 38.5016 14.5894 38.5016ZM13.9932 41.1246H11.6333V39.7093H13.9932V41.1246Z" fill="url(#paint10_linear_5944_22817)"/>
<defs>
<linearGradient id="paint0_linear_5944_22817" x1="37.3459" y1="33.6397" x2="37.3459" y2="41.6506" gradientUnits="userSpaceOnUse">
<stop stop-color="#ED3040"/>
<stop offset="1" stop-color="#2D23F4"/>
</linearGradient>
<linearGradient id="paint1_linear_5944_22817" x1="37.3459" y1="33.6397" x2="37.3459" y2="41.6506" gradientUnits="userSpaceOnUse">
<stop stop-color="#ED3040"/>
<stop offset="1" stop-color="#2D23F4"/>
</linearGradient>
<linearGradient id="paint2_linear_5944_22817" x1="37.3459" y1="33.6397" x2="37.3459" y2="41.6506" gradientUnits="userSpaceOnUse">
<stop stop-color="#ED3040"/>
<stop offset="1" stop-color="#2D23F4"/>
</linearGradient>
<linearGradient id="paint3_linear_5944_22817" x1="37.3459" y1="33.6397" x2="37.3459" y2="41.6506" gradientUnits="userSpaceOnUse">
<stop stop-color="#ED3040"/>
<stop offset="1" stop-color="#2D23F4"/>
</linearGradient>
<linearGradient id="paint4_linear_5944_22817" x1="37.3459" y1="33.6397" x2="37.3459" y2="41.6506" gradientUnits="userSpaceOnUse">
<stop stop-color="#ED3040"/>
<stop offset="1" stop-color="#2D23F4"/>
</linearGradient>
<linearGradient id="paint5_linear_5944_22817" x1="37.3459" y1="33.6397" x2="37.3459" y2="41.6506" gradientUnits="userSpaceOnUse">
<stop stop-color="#ED3040"/>
<stop offset="1" stop-color="#2D23F4"/>
</linearGradient>
<linearGradient id="paint6_linear_5944_22817" x1="37.3459" y1="33.6397" x2="37.3459" y2="41.6506" gradientUnits="userSpaceOnUse">
<stop stop-color="#ED3040"/>
<stop offset="1" stop-color="#2D23F4"/>
</linearGradient>
<linearGradient id="paint7_linear_5944_22817" x1="37.3459" y1="33.6397" x2="37.3459" y2="41.6506" gradientUnits="userSpaceOnUse">
<stop stop-color="#ED3040"/>
<stop offset="1" stop-color="#2D23F4"/>
</linearGradient>
<linearGradient id="paint8_linear_5944_22817" x1="37.3459" y1="33.6397" x2="37.3459" y2="41.6506" gradientUnits="userSpaceOnUse">
<stop stop-color="#ED3040"/>
<stop offset="1" stop-color="#2D23F4"/>
</linearGradient>
<linearGradient id="paint9_linear_5944_22817" x1="37.3459" y1="33.6397" x2="37.3459" y2="41.6506" gradientUnits="userSpaceOnUse">
<stop stop-color="#ED3040"/>
<stop offset="1" stop-color="#2D23F4"/>
</linearGradient>
<linearGradient id="paint10_linear_5944_22817" x1="37.3459" y1="33.6397" x2="37.3459" y2="41.6506" gradientUnits="userSpaceOnUse">
<stop stop-color="#ED3040"/>
<stop offset="1" stop-color="#2D23F4"/>
</linearGradient>
</defs>
</svg>
