<svg width="50" height="50" viewBox="0 0 50 50" fill="none" xmlns="http://www.w3.org/2000/svg">
<path d="M16.3327 35.0008H18.3328V37.0009C18.3328 37.3691 18.6309 37.6675 18.9994 37.6675H22.3326C22.7012 37.6675 22.9992 37.3691 22.9992 37.0009V35.0008H24.9993C25.3678 35.0008 25.6659 34.7024 25.6659 34.3342V31.001C25.6659 30.6328 25.3678 30.3344 24.9993 30.3344H22.9992V28.3343C22.9992 27.9661 22.7012 27.6677 22.3326 27.6677H18.9994C18.6309 27.6677 18.3328 27.9661 18.3328 28.3343V30.3344H16.3327C15.9642 30.3344 15.6662 30.6328 15.6662 31.001V34.3342C15.6658 34.7024 15.9642 35.0008 16.3327 35.0008ZM16.9993 31.6676H18.9994C19.3679 31.6676 19.666 31.3692 19.666 31.001V29.0009H21.6661V31.001C21.6661 31.3692 21.9641 31.6676 22.3326 31.6676H24.3327V33.6676H22.3326C21.9641 33.6676 21.6661 33.966 21.6661 34.3342V36.3343H19.666V34.3342C19.666 33.966 19.3679 33.6676 18.9994 33.6676H16.9993V31.6676Z" fill="url(#paint0_linear_5944_22799)"/>
<path d="M44.333 24.3335H34.4415L32.5443 23.701C32.4759 23.6785 32.4051 23.6669 32.3333 23.6669H28.9841C28.9074 22.5421 28.4373 21.4948 27.6328 20.6905L23.9766 17.0333C23.3471 16.4045 23.0001 15.5672 23.0001 14.6766V13.0001H25.0002C25.3687 13.0001 25.6668 12.7017 25.6668 12.3335V5.66692C25.6668 5.29872 25.3687 5.00033 25.0002 5.00033L9.00014 5C8.63161 5 8.33355 5.29872 8.33355 5.66692V12.3335C8.33355 12.7017 8.63161 13.0001 9.00014 13.0001H11.0002V14.6766C11.0002 15.5672 10.6532 16.4045 10.0237 17.0337L6.36754 20.6902C5.48594 21.5714 5 22.7435 5 23.9904V43.6668C5 44.4022 5.59844 45 6.33315 45H27.6668C28.4019 45 29 44.4019 29 43.6668L29.0003 27.0003H32.2257L34.0779 27.6179L35.9986 28.5783C36.5511 28.8542 37.1697 29.0004 37.7873 29.0004H41.0002C43.2061 29.0004 45 27.206 45 25.0006C45.0003 24.6324 44.7019 24.3337 44.3337 24.3337L44.333 24.3335ZM27.6665 39.6671H12.9994V25.6673H27.6657L27.6665 39.6671ZM9.66614 6.33386H24.3323V11.6673H9.66614V6.33386ZM6.33292 43.6669V23.9905C6.33292 23.0999 6.67994 22.2627 7.30945 21.6335L10.9656 17.977C11.8472 17.0957 12.3329 15.9239 12.3329 14.6767V13.0002H21.6663V14.6767C21.6663 15.9239 22.1519 17.0956 23.0336 17.9766L26.6897 21.6338C27.3196 22.2627 27.6666 23.0999 27.6666 23.9905V24.3335H12.333C11.9645 24.3335 11.6665 24.6319 11.6665 25.0001V40.3329C11.6665 40.7011 11.9645 40.9995 12.333 40.9995H27.6657V43.6662L6.33292 43.6669ZM40.999 27.6668H37.7861C37.3739 27.6668 36.962 27.5695 36.5935 27.3853L34.6304 26.4037C34.6023 26.3899 34.5732 26.3776 34.5431 26.3677L32.543 25.7011C32.4749 25.6779 32.4041 25.6667 32.3323 25.6667H28.9991V25.0001H32.2245L34.1217 25.6326C34.1898 25.6551 34.2606 25.6667 34.3324 25.6667H43.5812C43.2851 26.8152 42.2394 27.6668 40.9992 27.6668L40.999 27.6668Z" fill="url(#paint1_linear_5944_22799)"/>
<path d="M39.6659 23.0005C41.1367 23.0005 42.3325 21.8043 42.3325 20.3338C42.3325 19.0847 40.5683 16.467 40.2147 15.9549C39.9646 15.5943 39.3671 15.5943 39.117 15.9549C38.7634 16.467 36.9992 19.0847 36.9992 20.3338C36.9992 21.8043 38.1951 23.0005 39.6659 23.0005ZM39.6659 17.548C40.3775 18.6837 40.999 19.8918 40.999 20.3338C40.999 21.0692 40.4006 21.667 39.6659 21.667C38.9308 21.667 38.3327 21.0689 38.3327 20.3338C38.3324 19.8925 38.955 18.6844 39.6659 17.548Z" fill="url(#paint2_linear_5944_22799)"/>
<defs>
<linearGradient id="paint0_linear_5944_22799" x1="0" y1="0" x2="0" y2="1" gradientUnits="objectBoundingBox">
<stop stop-color="#ED3040"/>
<stop offset="1" stop-color="#2D23F4"/>
</linearGradient>
<linearGradient id="paint1_linear_5944_22799" x1="0" y1="0" x2="0" y2="1" gradientUnits="objectBoundingBox">
<stop stop-color="#ED3040"/>
<stop offset="1" stop-color="#2D23F4"/>
</linearGradient>
<linearGradient id="paint2_linear_5944_22799" x1="0" y1="0" x2="0" y2="1" gradientUnits="objectBoundingBox">
<stop stop-color="#ED3040"/>
<stop offset="1" stop-color="#2D23F4"/>
</linearGradient>
</defs>
</svg>
