<svg width="50" height="50" viewBox="0 0 50 50" fill="none" xmlns="http://www.w3.org/2000/svg">
<path d="M19.6063 6.50399C19.5249 6.24038 19.2469 6.09344 18.9816 6.17447C16.5556 6.92733 14.2935 8.25395 12.4392 10.0105C12.2386 10.2005 12.2305 10.5168 12.4199 10.7176C12.5182 10.8215 12.6507 10.8738 12.7828 10.8738C12.9063 10.8738 13.0295 10.8285 13.1263 10.737C14.8702 9.08506 16.9968 7.83755 19.2775 7.12963C19.5408 7.04745 19.6884 6.76762 19.6063 6.50399Z" fill="url(#paint0_linear_5944_22811)"/>
<path d="M16.2443 13.4789C16.357 13.4789 16.4704 13.4409 16.5642 13.3622C17.4038 12.659 18.3344 12.081 19.3301 11.6441C19.5826 11.5332 19.698 11.2382 19.5873 10.9855C19.4765 10.7331 19.1818 10.6183 18.9293 10.728C17.8464 11.2037 16.8353 11.8317 15.9236 12.5958C15.7118 12.773 15.6843 13.0882 15.8613 13.2998C15.9596 13.4181 16.1014 13.4789 16.2443 13.4789Z" fill="url(#paint1_linear_5944_22811)"/>
<path d="M33.9426 38.7656C34.0309 38.7656 34.12 38.7423 34.2013 38.6927C35.9197 37.649 37.4243 36.3182 38.6725 34.7376C38.8437 34.5213 38.8073 34.2068 38.5904 34.0355C38.3743 33.8638 38.0598 33.9014 37.889 34.1177C36.7144 35.6044 35.2993 36.8567 33.6831 37.8386C33.4469 37.9816 33.3717 38.2895 33.5154 38.5252C33.6091 38.6798 33.7737 38.7656 33.9426 38.7656Z" fill="url(#paint2_linear_5944_22811)"/>
<path d="M41.652 24.3473C41.6691 24.3488 41.6857 24.3496 41.7024 24.3496C41.9561 24.3496 42.1729 24.1573 42.1989 23.8995C42.2539 23.3432 42.2822 22.7764 42.2822 22.2131C42.2822 14.8092 37.5441 8.36347 30.4919 6.17413C30.2274 6.0931 29.9485 6.24042 29.8672 6.50365C29.7851 6.76727 29.9327 7.04718 30.1964 7.12897C36.8275 9.18831 41.2827 15.2496 41.2827 22.2122C41.2827 22.7426 41.2564 23.2768 41.2041 23.799C41.1766 24.0742 41.3772 24.3192 41.6514 24.3467L41.652 24.3473Z" fill="url(#paint3_linear_5944_22811)"/>
<path d="M30.5449 10.7289C30.2924 10.618 29.9977 10.7339 29.8869 10.9863C29.7761 11.2387 29.8912 11.5337 30.1441 11.6449C34.2803 13.462 36.9862 17.5566 37.0389 22.0766L37.0393 22.2134C37.0393 22.4899 37.2627 22.7135 37.5388 22.7135C37.815 22.7135 38.0384 22.4899 38.0384 22.2134L38.0381 22.0653C37.9807 17.1535 35.0397 12.7038 30.5449 10.7286L30.5449 10.7289Z" fill="url(#paint4_linear_5944_22811)"/>
<path d="M34.474 32.3702C34.2769 32.1779 33.9597 32.1814 33.7676 32.3791C33.1684 32.9944 32.5004 33.5426 31.7827 34.009C31.5511 34.1594 31.4853 34.4687 31.6355 34.7002C31.7312 34.8483 31.8915 34.9281 32.055 34.9281C32.1483 34.9281 32.2424 34.9022 32.3261 34.8475C33.1064 34.3412 33.8319 33.7454 34.4825 33.077C34.6753 32.8796 34.6715 32.5629 34.474 32.3702Z" fill="url(#paint5_linear_5944_22811)"/>
<path d="M44.5937 41.5951C38.3821 40.4273 33.428 39.8497 28.1218 39.6734L27.2276 26.2009C27.4518 26.0295 27.6578 25.8361 27.8375 25.619L28.6562 27.7635C28.7054 27.893 28.8061 27.9962 28.9339 28.0481L39.9618 32.5657C40.1651 32.6502 40.3793 32.6925 40.593 32.6925C40.8072 32.6925 41.021 32.6499 41.2247 32.5657C41.6314 32.3967 41.9485 32.0796 42.1174 31.6718L43.1077 29.2759C43.4555 28.4342 43.0546 27.4658 42.2127 27.1161L31.1828 22.597C31.0535 22.5443 30.9086 22.5477 30.782 22.6071L28.667 23.5984C28.6767 23.4898 28.6837 23.3805 28.6837 23.2696C28.6837 21.6197 27.5966 20.219 26.1025 19.7487L27.8255 18.1701C27.9289 18.0755 27.9878 17.9418 27.9878 17.8014L27.9866 6.65223C27.9866 5.7408 27.2469 5 26.3371 5H23.7497C22.8399 5 22.0994 5.74124 22.0994 6.65223V17.8014C22.0994 17.9387 22.156 18.0701 22.2555 18.1643L23.9192 19.7425C22.4146 20.2065 21.3179 21.6119 21.3179 23.2691C21.3179 23.38 21.3248 23.4894 21.3345 23.5975L19.2196 22.6062C19.0933 22.5465 18.9477 22.5434 18.8187 22.5961L7.78692 27.1161C6.9469 27.4646 6.54643 28.433 6.89424 29.2754L7.88452 31.6705C8.05299 32.0787 8.37017 32.3962 8.77759 32.5649C8.98131 32.6494 9.19508 32.6916 9.40926 32.6916C9.62226 32.6916 9.83566 32.6498 10.0382 32.5657L21.068 28.0469C21.1958 27.9946 21.2962 27.8915 21.3457 27.7624L22.164 25.6182C22.3438 25.8353 22.5498 26.0287 22.7736 26.1997L21.8821 39.6385C11.231 39.8765 5.59365 41.5345 5.3557 41.6059C5.09196 41.6854 4.94208 41.9641 5.02109 42.2289C5.08538 42.4456 5.28405 42.5852 5.49899 42.5852C5.54624 42.5852 5.59465 42.5782 5.64306 42.5642C5.6996 42.5468 11.352 40.8836 21.8145 40.641L21.5609 44.4666C21.5516 44.6046 21.6004 44.7406 21.6945 44.8414C21.789 44.9426 21.9214 45 22.0593 45H27.9405C28.0784 45 28.2109 44.943 28.3054 44.8418C28.3995 44.7407 28.4483 44.605 28.439 44.4669L28.1872 40.6759C33.4031 40.8538 38.2891 41.4268 44.4083 42.5766C44.4397 42.5824 44.4702 42.5855 44.5008 42.5855C44.7363 42.5855 44.9462 42.4181 44.9911 42.1777C45.0427 41.9059 44.8641 41.645 44.593 41.5943L44.5937 41.5951ZM31.0059 23.6059L41.8305 28.041C42.162 28.1786 42.3204 28.5616 42.1833 28.8935L41.193 31.2889C41.126 31.4502 41.0013 31.5754 40.8402 31.6421C40.6791 31.7092 40.5025 31.7092 40.3406 31.6409L29.5111 27.2044L28.5727 24.7458L31.0059 23.6059ZM20.4887 27.2047L9.65711 31.6425C9.49678 31.7088 9.32057 31.7088 9.15907 31.6425C8.99873 31.5762 8.87364 31.4506 8.80703 31.2893L7.81674 28.8942C7.67965 28.5616 7.83766 28.179 8.16684 28.0421L18.9934 23.606L21.4271 24.7461L20.4887 27.2047ZM23.0981 6.65306C23.0981 6.29291 23.3901 6.0006 23.7492 6.0006H26.3366C26.6956 6.0006 26.9873 6.29291 26.9873 6.65306V17.5819L25.006 19.3974L23.0982 17.5874L23.0981 6.65306ZM25.0001 20.5811C26.4796 20.5811 27.6836 21.7875 27.6836 23.2705C27.6836 24.7534 26.4795 25.9594 25.0001 25.9594C23.5208 25.9594 22.3167 24.7534 22.3167 23.2705C22.3167 21.7879 23.5204 20.5811 25.0001 20.5811ZM22.5932 44.001L23.7392 26.7323C24.1331 26.8769 24.5564 26.9599 24.9998 26.9599C25.4433 26.9599 25.8666 26.8769 26.2605 26.7323L27.4072 44.001H22.5932Z" fill="url(#paint6_linear_5944_22811)"/>
<defs>
<linearGradient id="paint0_linear_5944_22811" x1="37.6624" y1="33.6397" x2="37.6624" y2="41.6506" gradientUnits="userSpaceOnUse">
<stop stop-color="#ED3040"/>
<stop offset="1" stop-color="#2D23F4"/>
</linearGradient>
<linearGradient id="paint1_linear_5944_22811" x1="37.6624" y1="33.6397" x2="37.6624" y2="41.6506" gradientUnits="userSpaceOnUse">
<stop stop-color="#ED3040"/>
<stop offset="1" stop-color="#2D23F4"/>
</linearGradient>
<linearGradient id="paint2_linear_5944_22811" x1="37.6624" y1="33.6397" x2="37.6624" y2="41.6506" gradientUnits="userSpaceOnUse">
<stop stop-color="#ED3040"/>
<stop offset="1" stop-color="#2D23F4"/>
</linearGradient>
<linearGradient id="paint3_linear_5944_22811" x1="37.6624" y1="33.6397" x2="37.6624" y2="41.6506" gradientUnits="userSpaceOnUse">
<stop stop-color="#ED3040"/>
<stop offset="1" stop-color="#2D23F4"/>
</linearGradient>
<linearGradient id="paint4_linear_5944_22811" x1="37.6624" y1="33.6397" x2="37.6624" y2="41.6506" gradientUnits="userSpaceOnUse">
<stop stop-color="#ED3040"/>
<stop offset="1" stop-color="#2D23F4"/>
</linearGradient>
<linearGradient id="paint5_linear_5944_22811" x1="37.6624" y1="33.6397" x2="37.6624" y2="41.6506" gradientUnits="userSpaceOnUse">
<stop stop-color="#ED3040"/>
<stop offset="1" stop-color="#2D23F4"/>
</linearGradient>
<linearGradient id="paint6_linear_5944_22811" x1="37.6624" y1="33.6397" x2="37.6624" y2="41.6506" gradientUnits="userSpaceOnUse">
<stop stop-color="#ED3040"/>
<stop offset="1" stop-color="#2D23F4"/>
</linearGradient>
</defs>
</svg>
