<svg width="50" height="50" viewBox="0 0 50 50" fill="none" xmlns="http://www.w3.org/2000/svg">
<path d="M17.6664 20.3329H18.9996V21.666H17.6664V20.3329Z" fill="url(#paint0_linear_5944_22803)"/>
<path d="M22.3327 34.3335H23.6659V35.6667H22.3327V34.3335Z" fill="url(#paint1_linear_5944_22803)"/>
<path d="M26.3326 34.3335H27.6657V35.6667H26.3326V34.3335Z" fill="url(#paint2_linear_5944_22803)"/>
<path d="M24.3322 31.6667H25.6654V32.9999H24.3322V31.6667Z" fill="url(#paint3_linear_5944_22803)"/>
<path d="M8.99945 29.6664H10.3326V30.9995H8.99945V29.6664Z" fill="url(#paint4_linear_5944_22803)"/>
<path d="M8.99945 33.667H10.3326V35.0002H8.99945V33.667Z" fill="url(#paint5_linear_5944_22803)"/>
<path d="M10.9998 31.6667H12.3329V32.9999H10.9998V31.6667Z" fill="url(#paint6_linear_5944_22803)"/>
<path d="M8.99945 37.6669H10.3326V39H8.99945V37.6669Z" fill="url(#paint7_linear_5944_22803)"/>
<path d="M8.99945 41.0002H10.3326V42.3333H8.99945V41.0002Z" fill="url(#paint8_linear_5944_22803)"/>
<path d="M10.9998 35.6665H12.3329V36.9997H10.9998V35.6665Z" fill="url(#paint9_linear_5944_22803)"/>
<path d="M42.187 43.6662L41.6465 41.5047C41.5724 41.2079 41.3057 40.9995 40.9997 40.9995H39.6666V29.6666H38.3331V30.4321L35.6664 33.3028V30.2855L38.3331 27.4147V28.3334H39.6662L39.6666 15.0001H42.9998C43.2522 15.0001 43.4831 14.8575 43.5959 14.6316L44.9291 11.9649H44.9294C45.0578 11.7082 45.0075 11.3982 44.8044 11.1954L40.3331 6.72383V5.66692C40.3331 5.48994 40.263 5.32056 40.1379 5.19551C40.0129 5.07046 39.8432 5 39.6665 5H37.6664C37.4031 5 37.1643 5.15515 37.0571 5.39598L36.6237 6.37185L7.59179 9.67104C7.25468 9.70908 6.99996 9.99424 6.99996 10.3333V10.9999L5.6668 11.0002C5.43556 11.0002 5.2212 11.1197 5.09946 11.3162C4.97805 11.513 4.96713 11.7581 5.07035 11.9649L6.40351 14.6316H6.40384C6.51664 14.8575 6.74755 15.0001 6.99996 15.0001H10.3332V13.6669H7.41214L6.74555 12.3338L15 12.3334V13.6666L11.6668 13.6669V15.0001H17.6668V17.6668H17.0002C16.7365 17.6668 16.498 17.8219 16.3908 18.0627L15.0577 21.0629V21.0626C14.9713 21.2568 14.9826 21.4801 15.0881 21.6643L16.4212 23.9976C16.54 24.2053 16.761 24.3333 17.0002 24.3333H17.6668V25.3906L15.8619 27.1952V27.1955C15.6836 27.3738 15.621 27.6382 15.7011 27.8777L16.3677 29.8777C16.4583 30.1497 16.7131 30.3333 17.0002 30.3336H19.6669C19.8435 30.3336 20.0132 30.2631 20.1383 30.1381C20.2633 30.013 20.3335 29.8437 20.3335 29.6667V27.6669H19V29.0001H17.4806L17.0962 27.8469L18.8045 26.1386C18.9299 26.0135 19 25.8438 19 25.6668V24.3333H19.6669C19.9061 24.3333 20.1271 24.2053 20.2455 23.9976L21.5787 21.6643H21.579C21.6842 21.4801 21.6955 21.2568 21.6094 21.0626L20.2763 18.0624L20.276 18.0627C20.1691 17.8219 19.9303 17.6668 19.6669 17.6668H19.0003L19 15.0001H27.2548L29.7372 19.9649C29.8503 20.1909 30.0809 20.3335 30.3336 20.3335H34.3335V40.9999H33C32.6943 40.9999 32.4277 41.2083 32.3532 41.5051L31.813 43.6666H30.3336V33.6666C30.3336 33.5184 30.284 33.3741 30.193 33.2574L28.9558 31.6665H29.0001V29.6664H27.667V30.0092L25.5266 27.2571H25.5263C25.4042 27.1003 25.2183 27.006 25.0195 27.0001C24.8207 26.9945 24.6295 27.0778 24.4985 27.2277L19.8317 32.5611V32.5608C19.7255 32.6825 19.667 32.8383 19.667 32.9997V37.3903L17.4717 35.195C17.3467 35.07 17.1769 34.9998 17.0003 34.9998C16.8233 34.9998 16.6539 35.07 16.5289 35.195L15.0002 36.7237V30.3334C15.0002 30.1277 14.9052 29.9335 14.7428 29.8071L8.74283 25.1404C8.62572 25.0494 8.48182 25.0001 8.33361 25.0001V22.3334H7.00012V25.0001C6.63192 25.0001 6.33353 25.2985 6.33353 25.6667V33.6668H7.66669V26.3333H8.10469L13.667 30.6593V38.057L12.5287 39.1953C12.4037 39.3203 12.3335 39.4897 12.3335 39.6667V43.6665H7.66679V34.9995H6.33363V43.6665H5.00013V44.9997L45 45V43.6665L42.187 43.6662ZM20.2536 21.2949L19.2794 22.9993H17.3865L16.4125 21.2949L17.4331 18.9991H19.2331L20.2536 21.2949ZM38.3329 32.3908V35.7651L35.6662 38.6359V35.2615L38.3329 32.3908ZM38.3329 14.9992V15.0981L35.6662 17.9689V14.9992H38.3329ZM35.6662 19.9277L38.3329 17.0569V20.1218L35.6662 22.9926V19.9277ZM35.6662 28.3257V24.9514L38.3329 22.0806V25.4552L35.6662 28.3257ZM42.5878 13.6662H21.6664V12.3327H43.2543L42.5878 13.6662ZM42.7237 10.9995H40.333V8.60875L42.7237 10.9995ZM38.0996 6.33275H38.9997V10.9995H36.0254L38.0996 6.33275ZM8.33342 10.9281L35.9959 7.78439L34.5668 10.9996H8.33385L8.33342 10.9281ZM16.3335 13.6662V12.3327H20.3333V13.6659L16.3335 13.6662ZM30.7457 18.9996L30.0791 17.6665L31.667 17.6662V16.333H29.4122L28.7456 14.9998L34.3337 14.9995V18.9993L30.7457 18.9996ZM35.6668 40.5951L38.3335 37.7244V40.9998H35.6668V40.5951ZM23 40.9997V43.6664H21.6665V39.6665C21.6665 39.4896 21.5964 39.3202 21.4714 39.1951L21 38.7237V38.333H29V40.3331H23.6666C23.2984 40.3331 23 40.6315 23 40.9997ZM24.9697 28.7131L29 33.895V36.9997H21V33.2503L24.9697 28.7131ZM17.6667 43.6665V40.9999H16.3336V43.6665H13.6669V39.9425L17.0001 36.6093L20.3334 39.9425V43.6665H17.6667ZM24.3333 43.6665V41.6668H29V43.6669L24.3333 43.6665ZM33.1874 43.6665L33.5209 42.3334H40.4799L40.8133 43.6665H33.1874Z" fill="url(#paint10_linear_5944_22803)"/>
<defs>
<linearGradient id="paint0_linear_5944_22803" x1="37.6624" y1="33.6397" x2="37.6624" y2="41.6506" gradientUnits="userSpaceOnUse">
<stop stop-color="#ED3040"/>
<stop offset="1" stop-color="#2D23F4"/>
</linearGradient>
<linearGradient id="paint1_linear_5944_22803" x1="37.6624" y1="33.6397" x2="37.6624" y2="41.6506" gradientUnits="userSpaceOnUse">
<stop stop-color="#ED3040"/>
<stop offset="1" stop-color="#2D23F4"/>
</linearGradient>
<linearGradient id="paint2_linear_5944_22803" x1="37.6624" y1="33.6397" x2="37.6624" y2="41.6506" gradientUnits="userSpaceOnUse">
<stop stop-color="#ED3040"/>
<stop offset="1" stop-color="#2D23F4"/>
</linearGradient>
<linearGradient id="paint3_linear_5944_22803" x1="37.6624" y1="33.6397" x2="37.6624" y2="41.6506" gradientUnits="userSpaceOnUse">
<stop stop-color="#ED3040"/>
<stop offset="1" stop-color="#2D23F4"/>
</linearGradient>
<linearGradient id="paint4_linear_5944_22803" x1="37.6624" y1="33.6397" x2="37.6624" y2="41.6506" gradientUnits="userSpaceOnUse">
<stop stop-color="#ED3040"/>
<stop offset="1" stop-color="#2D23F4"/>
</linearGradient>
<linearGradient id="paint5_linear_5944_22803" x1="37.6624" y1="33.6397" x2="37.6624" y2="41.6506" gradientUnits="userSpaceOnUse">
<stop stop-color="#ED3040"/>
<stop offset="1" stop-color="#2D23F4"/>
</linearGradient>
<linearGradient id="paint6_linear_5944_22803" x1="37.6624" y1="33.6397" x2="37.6624" y2="41.6506" gradientUnits="userSpaceOnUse">
<stop stop-color="#ED3040"/>
<stop offset="1" stop-color="#2D23F4"/>
</linearGradient>
<linearGradient id="paint7_linear_5944_22803" x1="37.6624" y1="33.6397" x2="37.6624" y2="41.6506" gradientUnits="userSpaceOnUse">
<stop stop-color="#ED3040"/>
<stop offset="1" stop-color="#2D23F4"/>
</linearGradient>
<linearGradient id="paint8_linear_5944_22803" x1="37.6624" y1="33.6397" x2="37.6624" y2="41.6506" gradientUnits="userSpaceOnUse">
<stop stop-color="#ED3040"/>
<stop offset="1" stop-color="#2D23F4"/>
</linearGradient>
<linearGradient id="paint9_linear_5944_22803" x1="37.6624" y1="33.6397" x2="37.6624" y2="41.6506" gradientUnits="userSpaceOnUse">
<stop stop-color="#ED3040"/>
<stop offset="1" stop-color="#2D23F4"/>
</linearGradient>
<linearGradient id="paint10_linear_5944_22803" x1="37.6624" y1="33.6397" x2="37.6624" y2="41.6506" gradientUnits="userSpaceOnUse">
<stop stop-color="#ED3040"/>
<stop offset="1" stop-color="#2D23F4"/>
</linearGradient>
</defs>
</svg>
