<svg width="50" height="50" viewBox="0 0 50 50" fill="none" xmlns="http://www.w3.org/2000/svg">
<path d="M44.9996 15.4773C45.002 15.2157 44.9329 14.9579 44.7991 14.7318C44.6656 14.5057 44.4729 14.3191 44.2409 14.1919L42.7649 13.3691C42.719 13.3431 42.6964 13.2902 42.7098 13.2399L43.1649 11.6214C43.2594 11.2843 43.2296 10.9252 43.0808 10.6077C42.9315 10.2905 42.6732 10.0357 42.3515 9.88857C42.0295 9.74177 41.6653 9.71241 41.3235 9.80555L39.6891 10.2544C39.6381 10.2675 39.5844 10.2453 39.558 10.2001L38.7169 8.74453C38.5416 8.44149 38.2631 8.20965 37.9311 8.08985C37.5988 7.97005 37.2347 7.97005 36.9024 8.08985C36.5705 8.20965 36.2919 8.44149 36.1167 8.74453L35.2755 10.2001C35.2492 10.2453 35.1955 10.2675 35.1445 10.2544L33.5032 9.80555C33.1614 9.71242 32.7969 9.74177 32.4752 9.88857C32.1536 10.0357 31.8952 10.2905 31.746 10.6077C31.5971 10.9253 31.5673 11.2843 31.6618 11.6214L32.1169 13.2331C32.1299 13.2834 32.1074 13.3364 32.0618 13.3624L30.5858 14.1919C30.3346 14.3326 30.1307 14.5432 29.9996 14.7973H21.5513L17.9998 13.3216C17.828 13.2497 17.6336 13.2497 17.4618 13.3216L13.9654 14.7973H8.44814C7.53369 14.7973 6.65666 15.1553 6.00985 15.7931C5.36306 16.4309 5 17.2959 5 18.1976V38.5997C5 39.5017 5.36309 40.3663 6.00985 41.0042C6.65664 41.642 7.53378 42 8.44814 42H41.5515C42.4662 42 43.3433 41.6419 43.9898 41.0042C44.6366 40.3664 45 39.5017 45 38.5997V18.1976C44.9979 17.6134 44.8436 17.0398 44.5517 16.5315C44.8405 16.2551 45.0024 15.8741 45 15.4773L44.9996 15.4773ZM31.2619 15.3754L32.7379 14.5455C33.0243 14.3815 33.2474 14.1281 33.3724 13.8254C33.4973 13.5223 33.5164 13.1876 33.4275 12.8727L32.9723 11.261C32.9497 11.2256 32.9497 11.1807 32.9723 11.1453C33.0065 11.1257 33.0483 11.1257 33.0825 11.1453L34.7237 11.5941C35.043 11.6822 35.3828 11.6629 35.6898 11.5398C35.9971 11.4169 36.2538 11.1966 36.4204 10.9141L37.2619 9.45859C37.2831 9.42417 37.3208 9.40325 37.3619 9.40325C37.4026 9.40325 37.4406 9.42417 37.4618 9.45859L38.3033 10.9141C38.4689 11.1976 38.7256 11.4183 39.0329 11.5415C39.3402 11.6646 39.6804 11.6832 39.9996 11.5941L41.634 11.1453C41.67 11.123 41.7155 11.123 41.7514 11.1453C41.7709 11.179 41.7709 11.2205 41.7514 11.2539L41.2963 12.8724V12.8727C41.207 13.1876 41.2265 13.5223 41.351 13.8254C41.4759 14.1281 41.6991 14.3815 41.9858 14.5455L43.4618 15.3753C43.4964 15.3963 43.5176 15.4337 43.5176 15.4739C43.5176 15.514 43.4964 15.5515 43.4618 15.5724L41.9858 16.4023C41.6991 16.5663 41.4759 16.8197 41.351 17.1224C41.2265 17.4251 41.207 17.7602 41.2963 18.075L41.7514 19.6868C41.7631 19.7272 41.7514 19.7704 41.7213 19.8001C41.6915 19.8298 41.6474 19.8413 41.6067 19.8298L39.9654 19.381H39.9651C39.6458 19.2929 39.3063 19.3122 38.999 19.435C38.6921 19.5582 38.4351 19.7782 38.2687 20.061L37.4272 21.5165V21.5162C37.406 21.5506 37.368 21.5715 37.3273 21.5715C37.2866 21.5715 37.2486 21.5506 37.2274 21.5162L36.3859 20.0607V20.061C36.2565 19.8342 36.068 19.6452 35.8404 19.514C35.6125 19.3824 35.3534 19.3132 35.0896 19.3128C34.954 19.3132 34.8195 19.3314 34.6895 19.3672L33.0551 19.816C33.014 19.8275 32.9702 19.8163 32.9401 19.7866C32.91 19.757 32.8984 19.7138 32.91 19.6733L33.3651 18.0548C33.4545 17.74 33.435 17.4049 33.3104 17.1022C33.1855 16.7995 32.9623 16.546 32.6756 16.3817L31.1996 15.5519L31.1999 15.5522C31.165 15.5309 31.1438 15.4938 31.1438 15.4537C31.1438 15.4132 31.165 15.376 31.1999 15.3548L31.2619 15.3754ZM34.6344 20.816L35.1378 20.68C35.1888 20.6669 35.2425 20.6891 35.2689 20.7344L36.1104 22.1899L36.1101 22.1895C36.2853 22.4926 36.5635 22.7248 36.8958 22.8446C37.2277 22.9644 37.5922 22.9644 37.9245 22.8446C38.2564 22.7248 38.535 22.4926 38.7102 22.1895L39.5517 20.7273L39.5514 20.7276C39.5777 20.6824 39.6315 20.6601 39.6824 20.6729L40.1858 20.8089V20.8093C40.1783 20.8451 40.1735 20.8815 40.1722 20.9179V26.2293C40.1746 26.2819 40.1403 26.3295 40.0893 26.345C40.0469 26.3778 39.987 26.3778 39.9446 26.345L38.9997 25.4133C38.5768 24.9972 38.0039 24.7633 37.4067 24.7633C36.8092 24.7633 36.2363 24.9972 35.8136 25.4133L34.8688 26.345C34.8315 26.3794 34.7771 26.3896 34.7295 26.3703C34.6823 26.3514 34.6501 26.3069 34.6481 26.2566V20.9179C34.6522 20.8909 34.6542 20.8636 34.6549 20.8362L34.6344 20.816ZM29.9998 16.1573C30.1309 16.4114 30.3348 16.622 30.586 16.7627L32.0689 17.5925V17.5922C32.1147 17.6182 32.1373 17.6712 32.124 17.7214L31.6688 19.3399V19.3402C31.5391 19.8093 31.6544 20.3114 31.9768 20.6796C32.2992 21.0482 32.7858 21.2341 33.2755 21.1764V26.2292C33.2752 26.6248 33.4339 27.0041 33.7173 27.2838C34.0007 27.5636 34.3853 27.7205 34.7864 27.7205C35.1871 27.7205 35.5718 27.5632 35.8548 27.2835L36.7928 26.3585C37.1387 26.0345 37.6815 26.0345 38.0272 26.3585L38.972 27.2902C39.256 27.5707 39.6414 27.7279 40.0432 27.7272C40.4449 27.7269 40.8299 27.5686 41.1129 27.2872C41.396 27.0061 41.5537 26.6254 41.5513 26.2292V21.1764C42.0428 21.2351 42.5315 21.0481 42.8541 20.6779C43.1765 20.3081 43.2908 19.8036 43.1584 19.3332L42.7032 17.7215C42.6899 17.6712 42.7125 17.6182 42.7583 17.5922L43.3722 17.2521V17.2524C43.5314 17.5429 43.6166 17.8673 43.6204 18.1976V36.5592H27.759C27.5383 33.0432 24.228 31.996 22.2418 31.3635C21.8195 31.2431 21.4051 31.0976 21.0002 30.9282C20.8517 30.8617 20.7162 30.7696 20.6002 30.6562C22.5087 28.9159 23.6 26.4733 23.614 23.9099V23.3794L24.269 23.2708C24.4672 23.237 24.6403 23.1202 24.7437 22.9502C24.847 22.7804 24.8703 22.5746 24.807 22.3866L24.0278 20.0743L28.0554 18.748C28.3274 18.6582 28.5146 18.4115 28.5256 18.1287C28.5362 17.8459 28.3681 17.5861 28.1036 17.4764L24.8553 16.1569L29.9998 16.1573ZM23.1654 22.0602L17.7587 22.9583L12.352 22.0674L13.0898 19.8843C13.483 19.585 14.9518 18.6127 17.7587 18.6127C20.5655 18.6127 22.0415 19.5786 22.4275 19.8843L23.1654 22.0602ZM13.3726 23.6382L17.6415 24.3182H17.869L22.1587 23.6382V23.9443C22.1587 26.8549 20.0897 30.4118 17.7448 30.4118C15.3999 30.4118 13.3381 26.8549 13.3381 23.9443C13.3586 23.8083 13.3658 23.7061 13.3726 23.6382ZM16.2414 31.4115C17.2304 31.862 18.3697 31.862 19.3587 31.4115C19.6297 31.7479 19.9801 32.0142 20.3795 32.1866L20.683 32.3091C20.3658 32.9891 19.6003 33.8665 17.7659 33.8665C15.9313 33.8665 15.2004 33.0367 14.8695 32.3567C15.0211 32.2956 15.173 32.2409 15.3109 32.1731H15.3106C15.6631 31.9743 15.9779 31.7165 16.2414 31.4115ZM13.5519 32.7714C13.9657 33.7373 15.0621 35.1995 17.7589 35.1995C20.4556 35.1995 21.5934 33.6488 21.9863 32.7309C24.3102 33.4653 26.1794 34.3086 26.3793 36.5594H9.28275C9.48295 34.1793 11.6758 33.3835 13.5519 32.7784L13.5519 32.7714ZM17.7589 14.682L25.8003 18.0212L23.3243 18.8372C22.7795 18.4018 21.0208 17.2389 17.7589 17.2389C14.4969 17.2393 12.7382 18.4089 12.1934 18.878L9.71746 18.062L17.7589 14.682ZM8.44881 16.1577H10.6627L7.4903 17.4772C7.22577 17.5868 7.05774 17.8467 7.06835 18.1295C7.0793 18.4123 7.26649 18.659 7.53856 18.7487L8.11793 18.9391V19.9731C7.80344 20.1071 7.53651 20.3295 7.35 20.6126C7.16349 20.8957 7.06596 21.2268 7.06938 21.5643V22.7751C7.06938 22.9553 7.14228 23.1285 7.27163 23.256C7.401 23.3832 7.57621 23.4551 7.75929 23.4551H9.86257C10.0457 23.4551 10.2209 23.3832 10.3502 23.256C10.4796 23.1285 10.5521 22.9553 10.5521 22.7751V21.5643C10.5552 21.2261 10.4567 20.8944 10.2691 20.6113C10.0812 20.3282 9.81261 20.1061 9.49708 19.9731V19.3883L11.5661 20.0683L10.7869 22.3807C10.7236 22.5686 10.7468 22.7745 10.8502 22.9442C10.9535 23.1143 11.1267 23.2311 11.3245 23.2648L12.0141 23.3735V23.8972H12.0144C12.0192 26.4849 13.1253 28.9521 15.0625 30.6979C14.9503 30.7964 14.8278 30.8831 14.6971 30.9564C14.2734 31.1406 13.8381 31.2975 13.3935 31.4254C11.4141 32.0578 8.159 33.1053 7.93823 36.5735L6.37978 36.5738V18.1984C6.37978 17.6575 6.59777 17.1384 6.98585 16.7558C7.37392 16.3731 7.89994 16.1581 8.4488 16.1581L8.44881 16.1577ZM9.17294 21.5643V22.0947H8.44881V21.5643C8.43478 21.4654 8.46901 21.3655 8.54053 21.2946C8.6124 21.2237 8.7137 21.1903 8.8143 21.2038C8.9245 21.2038 9.13837 21.2038 9.17294 21.5643ZM41.5518 40.6403H8.44843C7.89952 40.6403 7.37349 40.4253 6.98547 40.0427C6.5974 39.66 6.37941 39.1412 6.37941 38.6V37.92H43.6204V38.6C43.6204 39.1413 43.4025 39.66 43.0144 40.0427C42.6266 40.4253 42.1003 40.6403 41.5514 40.6403H41.5518Z" fill="url(#paint0_linear_5944_22771)"/>
<path d="M37.4137 18.8776C38.3281 18.8776 39.2052 18.5196 39.852 17.8818C40.4984 17.244 40.8618 16.379 40.8618 15.4774C40.8618 14.5757 40.4984 13.7107 39.852 13.0729C39.2052 12.4351 38.328 12.0771 37.4137 12.0771C36.4993 12.0771 35.6222 12.4351 34.9754 13.0729C34.3286 13.7107 33.9655 14.5757 33.9655 15.4774C33.9655 16.379 34.3286 17.244 34.9754 17.8818C35.6222 18.5196 36.4993 18.8776 37.4137 18.8776ZM37.4137 13.437C37.9622 13.437 38.4886 13.6519 38.8766 14.0346C39.2647 14.4173 39.4827 14.9364 39.4827 15.4773C39.4827 16.0182 39.2647 16.5373 38.8766 16.9199C38.4885 17.3026 37.9622 17.5176 37.4137 17.5176C36.8648 17.5176 36.3387 17.3026 35.9507 16.9199C35.5626 16.5372 35.3446 16.0182 35.3446 15.4773C35.3446 14.9364 35.5626 14.4173 35.9507 14.0346C36.3388 13.6519 36.8648 13.437 37.4137 13.437Z" fill="url(#paint1_linear_5944_22771)"/>
<path d="M30.5172 31.7992H32.5862H32.5859C32.9668 31.7992 33.2755 31.4948 33.2755 31.1192C33.2755 30.7436 32.9668 30.4388 32.5859 30.4388H30.5172C30.1363 30.4388 29.8273 30.7436 29.8273 31.1192C29.8273 31.4948 30.1363 31.7992 30.5172 31.7992Z" fill="url(#paint2_linear_5944_22771)"/>
<path d="M30.5172 34.5196H34.6549C35.0358 34.5196 35.3445 34.2149 35.3445 33.8393C35.3445 33.4637 35.0358 33.1593 34.6549 33.1593H30.5172C30.1363 33.1593 29.8273 33.4637 29.8273 33.8393C29.8273 34.2149 30.1363 34.5196 30.5172 34.5196Z" fill="url(#paint3_linear_5944_22771)"/>
<defs>
<linearGradient id="paint0_linear_5944_22771" x1="37.6624" y1="32.3437" x2="37.6624" y2="39.153" gradientUnits="userSpaceOnUse">
<stop stop-color="#ED3040"/>
<stop offset="1" stop-color="#2D23F4"/>
</linearGradient>
<linearGradient id="paint1_linear_5944_22771" x1="37.6624" y1="32.3437" x2="37.6624" y2="39.153" gradientUnits="userSpaceOnUse">
<stop stop-color="#ED3040"/>
<stop offset="1" stop-color="#2D23F4"/>
</linearGradient>
<linearGradient id="paint2_linear_5944_22771" x1="37.6624" y1="32.3437" x2="37.6624" y2="39.153" gradientUnits="userSpaceOnUse">
<stop stop-color="#ED3040"/>
<stop offset="1" stop-color="#2D23F4"/>
</linearGradient>
<linearGradient id="paint3_linear_5944_22771" x1="37.6624" y1="32.3437" x2="37.6624" y2="39.153" gradientUnits="userSpaceOnUse">
<stop stop-color="#ED3040"/>
<stop offset="1" stop-color="#2D23F4"/>
</linearGradient>
</defs>
</svg>
