<svg width="50" height="50" viewBox="0 0 50 50" fill="none" xmlns="http://www.w3.org/2000/svg">
<path d="M9.51843 5C7.54829 5 6 6.57122 6 8.57137V41.4286C6 43.4288 7.54829 45 9.51843 45H40.4816C42.4521 45 44 43.4288 44 41.4286V8.57137C44 6.57122 42.4521 5 40.4816 5H9.51843ZM9.51843 6.4284H40.4816C41.6074 6.4284 42.5928 7.42861 42.5928 8.57137V10.7143H7.40759V8.57137C7.40759 7.42861 8.3927 6.4284 9.51843 6.4284ZM9.51843 7.85717C9.12977 7.85717 8.81481 8.17688 8.81481 8.57138C8.81481 8.761 8.88883 8.94248 9.02083 9.07646C9.15283 9.21045 9.33196 9.28559 9.51843 9.28559C9.70524 9.28559 9.88403 9.21045 10.016 9.07646C10.148 8.94248 10.2224 8.761 10.2224 8.57138C10.2224 8.38211 10.148 8.20028 10.016 8.06629C9.88403 7.93231 9.70524 7.85717 9.51843 7.85717ZM12.3332 7.85717C11.9446 7.85717 11.6296 8.17688 11.6296 8.57138C11.6296 8.761 11.7036 8.94248 11.8356 9.07646C11.9676 9.21045 12.1468 9.28559 12.3332 9.28559C12.5201 9.28559 12.6988 9.21045 12.8308 9.07646C12.9628 8.94248 13.0372 8.761 13.0372 8.57138C13.0372 8.38211 12.9628 8.20028 12.8308 8.06629C12.6988 7.93231 12.5201 7.85717 12.3332 7.85717ZM15.1481 7.85717C14.7594 7.85717 14.4444 8.17688 14.4444 8.57138C14.4444 8.761 14.5185 8.94248 14.6505 9.07646C14.7825 9.21045 14.9616 9.28559 15.1481 9.28559C15.3349 9.28559 15.5137 9.21045 15.6457 9.07646C15.7777 8.94248 15.852 8.761 15.852 8.57138C15.852 8.38211 15.7777 8.20028 15.6457 8.06629C15.5137 7.93231 15.3349 7.85717 15.1481 7.85717ZM7.4075 12.1427H42.5927V41.4285C42.5927 42.5713 41.6073 43.5715 40.4815 43.5715H9.51834C8.39252 43.5715 7.4075 42.5713 7.4075 41.4285V12.1427ZM9.51834 13.5715C9.09616 13.5715 8.81472 13.8572 8.81472 14.2857V41.4292C8.81472 41.8577 9.09616 42.1434 9.51834 42.1434H40.4815C40.9037 42.1434 41.1851 41.8577 41.1851 41.4292V14.2857C41.1851 13.8572 40.9037 13.5715 40.4815 13.5715H9.51834ZM10.2223 14.9999H24.2964V40.7142H10.2223V32.1426H22.1849C22.6071 32.1426 22.8885 31.857 22.8885 31.4284C22.8885 30.9999 22.6071 30.7142 22.1849 30.7142H10.2223V14.9999ZM25.7034 14.9999H39.7775V40.7142H25.7034V32.1426H37.666C38.0882 32.1426 38.3697 31.857 38.3697 31.4284C38.3697 30.9999 38.0882 30.7142 37.666 30.7142H25.7034V14.9999ZM12.3329 16.4287C11.9107 16.4287 11.6293 16.7144 11.6293 17.1429C11.6293 17.5714 11.9107 17.8571 12.3329 17.8571H15.1477C15.5699 17.8571 15.8517 17.5714 15.8517 17.1429C15.8517 16.7144 15.5699 16.4287 15.1477 16.4287H12.3329ZM27.8149 16.4287C27.3924 16.4287 27.1109 16.7144 27.1109 17.1429C27.1109 17.5714 27.3924 17.8571 27.8149 17.8571H30.6297C31.0519 17.8571 31.3333 17.5714 31.3333 17.1429C31.3333 16.7144 31.0519 16.4287 30.6297 16.4287H27.8149ZM18.6664 17.8571C18.2442 17.8571 17.9628 18.1428 17.9628 18.5713V19.2859H15.148C14.7258 19.2859 14.4443 19.5715 14.4443 20.0001C14.4443 20.4286 14.7258 20.7143 15.148 20.7143H16.0551C16.2175 22.3972 16.786 24.0329 17.71 25.4578C17.2452 25.976 16.719 26.4488 16.132 26.8583C15.8506 27.1439 15.7105 27.5714 15.992 27.8575C16.1327 28.0003 16.2741 28.1421 16.5556 28.1421C16.6963 28.1421 16.836 28.1424 16.836 27.9996C17.4656 27.5959 18.0382 27.1181 18.5512 26.585C19.4389 27.6303 20.5217 28.5143 21.7617 29.1437C21.7617 29.2866 21.9042 29.2859 22.0449 29.2859C22.1856 29.2859 22.4671 29.1441 22.7485 29.0012C22.8893 28.5727 22.7471 28.1424 22.4657 27.9996C21.283 27.3708 20.2686 26.507 19.4556 25.494C20.4452 24.111 21.0724 22.4656 21.2697 20.7143H22.1853C22.6074 20.7143 22.8889 20.4286 22.8889 20.0001C22.8889 19.5715 22.6074 19.2859 22.1853 19.2859H19.3705V18.5713C19.3705 18.1428 19.0889 17.8571 18.6664 17.8571ZM32.0369 19.2858C30.9111 19.2858 29.9257 20.2858 29.9257 21.4284V27.1429C29.9257 27.5714 30.2072 27.8574 30.6297 27.8574C31.0519 27.8574 31.3333 27.5714 31.3333 27.1429V25.0003H35.5554V27.1429C35.5554 27.5714 35.8368 27.8574 36.259 27.8574C36.6815 27.8574 36.963 27.5714 36.963 27.1429V21.4284C36.963 20.2857 35.9776 19.2858 34.8518 19.2858H32.0369ZM17.465 20.7142H19.8566C19.6925 22.0062 19.2643 23.1958 18.6113 24.2438C17.995 23.1624 17.6011 21.9661 17.465 20.7142ZM32.0369 20.7142H34.8518C35.2739 20.7142 35.5554 20.9999 35.5554 21.4285V23.5714H31.3333V21.4285C31.3333 20.9999 31.6148 20.7142 32.0369 20.7142ZM27.7433 33.4993C27.5673 33.4993 27.392 33.5712 27.2513 33.7141C27.1106 33.8569 27.1109 34.1433 27.1109 34.2862C27.1109 34.429 27.1106 34.5729 27.2513 34.7157C27.392 34.8586 27.6742 35.0004 27.8149 35.0004H27.9549C28.0956 35.0004 28.2381 35.0011 28.2381 34.8579C28.2381 34.715 28.3781 34.7136 28.3781 34.5708V34.0015C28.3781 33.8587 28.3788 33.7141 28.2381 33.7141C28.0974 33.5712 27.9193 33.4993 27.7433 33.4993ZM12.6135 33.5716C12.4728 33.5716 12.1934 33.5712 12.0527 33.7141C11.912 33.7141 11.7698 33.7134 11.7698 33.8562C11.6291 33.999 11.6295 34.2854 11.6295 34.4283C11.6295 34.5711 11.6291 34.715 11.7698 34.8579C11.9106 34.8579 11.912 35.0004 12.0527 35.0004H12.3331C12.4738 35.0004 12.4728 35.0011 12.6135 34.8579C12.7542 34.8579 12.8967 34.8586 12.8967 34.7157C13.0374 34.7157 13.1771 34.429 13.1771 34.2862C13.1771 34.0005 13.0374 33.8569 12.8967 33.7141C12.756 33.7141 12.7542 33.5716 12.6135 33.5716ZM15.148 33.5716C14.7258 33.5716 14.4443 33.8576 14.4443 34.2862C14.4443 34.7147 14.7258 35.0004 15.148 35.0004H17.9628C18.385 35.0004 18.6664 34.7147 18.6664 34.2862C18.6664 33.8576 18.385 33.5716 17.9628 33.5716H15.148ZM30.63 33.5716C30.2075 33.5716 29.926 33.8576 29.926 34.2862C29.926 34.7147 30.2075 35.0004 30.63 35.0004H34.852C35.2742 35.0004 35.5557 34.7147 35.5557 34.2862C35.5557 33.8576 35.2742 33.5716 34.852 33.5716H30.63ZM27.8152 36.3228C27.7094 36.3228 27.605 36.3575 27.5348 36.4288C27.394 36.4288 27.2516 36.4284 27.2516 36.5712C27.1109 36.7141 27.1112 37.0005 27.1112 37.1433C27.1112 37.2862 27.1109 37.4301 27.2516 37.5729C27.3923 37.7157 27.6744 37.8575 27.8152 37.8575C27.9559 37.8575 28.2377 37.7157 28.3784 37.5729C28.5191 37.5729 28.6588 37.2862 28.6588 37.1433C28.6588 36.8576 28.5191 36.7141 28.3784 36.5712C28.2377 36.5712 28.2363 36.4288 28.0956 36.4288C28.025 36.3575 27.9206 36.3228 27.8152 36.3228ZM30.63 36.4288C30.2075 36.4288 29.926 36.7148 29.926 37.1433C29.926 37.5718 30.2075 37.8575 30.63 37.8575H33.4444C33.867 37.8575 34.1484 37.5718 34.1484 37.1433C34.1484 36.7148 33.867 36.4288 33.4444 36.4288H30.63Z" fill="url(#paint0_linear_5944_22789)"/>
<defs>
<linearGradient id="paint0_linear_5944_22789" x1="37.0293" y1="33.6397" x2="37.0293" y2="41.6506" gradientUnits="userSpaceOnUse">
<stop stop-color="#ED3040"/>
<stop offset="1" stop-color="#2D23F4"/>
</linearGradient>
</defs>
</svg>
