<svg width="50" height="50" viewBox="0 0 50 50" fill="none" xmlns="http://www.w3.org/2000/svg">
<path d="M38.4394 44.5H9.28273C6.92145 44.5 5 42.6099 5 40.2869C5 39.1666 5.44682 38.1099 6.25808 37.3117C7.06276 36.5198 8.13693 36.0838 9.28265 36.0838H38.4393C38.6822 36.0838 38.9039 36.2226 39.0064 36.4398C39.1089 36.6566 39.0743 36.9124 38.9168 37.0955C37.0455 39.2761 37.0455 41.308 38.9168 43.4882C39.0743 43.6714 39.1089 43.9271 39.0064 44.144C38.9036 44.3612 38.6828 44.4999 38.4393 44.4999L38.4394 44.5ZM9.28273 37.3134C8.47114 37.3134 7.71094 37.6214 7.14187 38.1808C6.56654 38.7471 6.2499 39.4946 6.2499 40.2866C6.2499 41.9316 7.61047 43.2701 9.28273 43.2701H37.2104C35.9727 41.305 35.9727 39.2784 37.2104 37.3134H9.28273Z" fill="url(#paint0_linear_5944_22773)"/>
<path d="M32.3304 40.9076H11.7341C11.3891 40.9076 11.109 40.6327 11.109 40.2927C11.109 39.953 11.3888 39.6778 11.7341 39.6778H32.3304C32.6757 39.6778 32.9555 39.9526 32.9555 40.2927C32.9551 40.6327 32.6757 40.9076 32.3304 40.9076Z" fill="url(#paint1_linear_5944_22773)"/>
<path d="M44.3747 37.3136H15.218C12.8567 37.3136 10.9356 35.4234 10.9356 33.1005C10.9356 31.9802 11.3824 30.9235 12.1937 30.1253C12.9977 29.3341 14.0716 28.8981 15.218 28.8981H20.6783C21.0237 28.8981 21.3034 29.173 21.3034 29.513C21.3034 29.8527 21.024 30.1279 20.6783 30.1279H15.218C14.4061 30.1279 13.6459 30.4359 13.0775 30.995C12.5021 31.5613 12.1855 32.3088 12.1855 33.1007C12.1855 34.7458 13.5461 36.0843 15.218 36.0843H43.1456C41.908 34.1192 41.908 32.0932 43.1456 30.1283L29.2531 30.1279C28.9078 30.1279 28.628 29.8531 28.628 29.513C28.628 29.1733 28.9074 28.8981 29.2531 28.8981H44.3747C44.6182 28.8981 44.8393 29.0368 44.9418 29.254C45.0443 29.4709 45.0097 29.7266 44.8522 29.9098C42.9808 32.0898 42.9808 34.1215 44.8522 36.3018C45.0097 36.4849 45.0443 36.7407 44.9418 36.9576C44.839 37.1747 44.6182 37.3135 44.3747 37.3135V37.3136Z" fill="url(#paint2_linear_5944_22773)"/>
<path d="M38.2656 33.7212H30.6137C30.2683 33.7212 29.9886 33.4463 29.9886 33.1063C29.9886 32.7665 30.268 32.4913 30.6137 32.4913H38.2656C38.611 32.4913 38.8907 32.7662 38.8907 33.1063C38.8904 33.4463 38.611 33.7212 38.2656 33.7212Z" fill="url(#paint3_linear_5944_22773)"/>
<path d="M19.4029 33.7212H17.669C17.3236 33.7212 17.0439 33.4463 17.0439 33.1063C17.0439 32.7665 17.3233 32.4913 17.669 32.4913H19.4029C19.7482 32.4913 20.028 32.7662 20.028 33.1063C20.028 33.4463 19.7485 33.7212 19.4029 33.7212Z" fill="url(#paint4_linear_5944_22773)"/>
<path d="M24.9999 33.7212C22.3901 33.7212 20.2674 31.633 20.2674 29.0656C20.2674 28.3201 20.8839 27.7129 21.6418 27.7129H28.3579C29.1158 27.7129 29.7323 28.32 29.7323 29.0656C29.7326 31.633 27.6096 33.7212 24.9998 33.7212H24.9999ZM21.6418 28.9428C21.5736 28.9428 21.5172 28.9979 21.5172 29.066C21.5172 30.9549 23.0797 32.492 24.9998 32.492C26.9199 32.492 28.4824 30.9549 28.4824 29.066C28.4824 28.9982 28.4264 28.9428 28.3579 28.9428H21.6418Z" fill="url(#paint5_linear_5944_22773)"/>
<path d="M28.0476 28.9421H21.951C21.6057 28.9421 21.3259 28.6672 21.3259 28.3272V28.147C21.3259 26.4633 20.5941 24.8225 19.3185 23.6451C17.3312 21.812 16.4043 19.2223 16.7759 16.5415C17.2791 12.9096 20.3406 9.98025 24.0552 9.57537C26.4241 9.31831 28.7835 10.0567 30.5394 11.603C32.2954 13.1496 33.3024 15.3678 33.3024 17.6881C33.3024 19.9264 32.3999 22.0146 30.7602 23.5679C29.4138 24.8438 28.672 26.471 28.672 28.1492V28.3268C28.6727 28.6669 28.3933 28.9421 28.0476 28.9421ZM22.5626 27.7123H27.4367C27.5541 25.8545 28.4157 24.0828 29.8939 22.6827C31.2861 21.3637 32.0526 19.5899 32.0526 17.6884C32.0526 15.7172 31.1975 13.8332 29.7058 12.5194C28.1927 11.1865 26.2331 10.5751 24.1934 10.7982C21.0402 11.1414 18.4413 13.6267 18.015 16.7075C17.699 18.9893 18.4855 21.1909 20.1736 22.7482C21.5912 24.0559 22.4466 25.8452 22.5626 27.7123Z" fill="url(#paint6_linear_5944_22773)"/>
<path d="M30.3826 9.13299C30.2765 9.13299 30.1691 9.10674 30.0709 9.05066C29.7717 8.8808 29.6692 8.50478 29.8419 8.21078L30.3684 7.3138C30.5411 7.01914 30.924 6.91866 31.2222 7.08852C31.5214 7.25838 31.6239 7.63439 31.4512 7.9284L30.9247 8.82537C30.8087 9.02311 30.5988 9.13299 30.3826 9.13299Z" fill="url(#paint7_linear_5944_22773)"/>
<path d="M34.3254 13.01C34.1092 13.01 33.8993 12.8995 33.7833 12.7027C33.6107 12.4084 33.7132 12.0327 34.0123 11.8628L34.9242 11.3452C35.222 11.1746 35.6053 11.2761 35.7779 11.5704C35.9506 11.8648 35.8481 12.2405 35.5489 12.4103L34.6371 12.928C34.5389 12.9838 34.4315 13.01 34.3254 13.01Z" fill="url(#paint8_linear_5944_22773)"/>
<path d="M36.8206 18.3069H35.7679C35.4225 18.3069 35.1428 18.032 35.1428 17.692C35.1428 17.3522 35.4222 17.077 35.7679 17.077H36.8206C37.166 17.077 37.4457 17.3519 37.4457 17.692C37.4457 18.0317 37.1663 18.3069 36.8206 18.3069Z" fill="url(#paint9_linear_5944_22773)"/>
<path d="M19.6163 9.13299C19.4001 9.13299 19.1902 9.02246 19.0742 8.8257L18.548 7.92872C18.3753 7.63438 18.4778 7.25869 18.777 7.08884C19.0742 6.91898 19.4575 7.01979 19.6308 7.31412L20.157 8.2111C20.3297 8.50544 20.2272 8.88113 19.928 9.05098C19.8298 9.10674 19.7224 9.13299 19.6163 9.13299Z" fill="url(#paint10_linear_5944_22773)"/>
<path d="M15.6735 13.01C15.5677 13.01 15.4603 12.9838 15.3618 12.9277L14.4503 12.41C14.1515 12.2401 14.049 11.8641 14.2213 11.5701C14.3933 11.2764 14.7752 11.175 15.0751 11.3448L15.9866 11.8625C16.2854 12.0324 16.3879 12.4084 16.2156 12.7024C16.0996 12.8995 15.8897 13.01 15.6735 13.01Z" fill="url(#paint11_linear_5944_22773)"/>
<path d="M14.231 18.3069H13.1783C12.8333 18.3069 12.5532 18.032 12.5532 17.692C12.5532 17.3522 12.8329 17.077 13.1783 17.077H14.231C14.576 17.077 14.8561 17.3519 14.8561 17.692C14.8561 18.0317 14.5764 18.3069 14.231 18.3069Z" fill="url(#paint12_linear_5944_22773)"/>
<path d="M24.9999 7.82682C24.6545 7.82682 24.3748 7.55194 24.3748 7.2119L24.3751 6.11493C24.3751 5.77521 24.6545 5.5 25.0002 5.5C25.3455 5.5 25.6253 5.77489 25.6253 6.11493V7.2119C25.625 7.55194 25.3455 7.82682 24.9999 7.82682Z" fill="url(#paint13_linear_5944_22773)"/>
<path d="M24.9999 28.9421C24.6545 28.9421 24.3748 28.6673 24.3748 28.3272L24.3751 19.233C24.3751 18.8933 24.6545 18.618 25.0002 18.618C25.3455 18.618 25.6253 18.8929 25.6253 19.233V28.3272C25.625 28.6669 25.3455 28.9421 24.9999 28.9421Z" fill="url(#paint14_linear_5944_22773)"/>
<path d="M24.9999 20.4412H22.9589C21.4946 20.4412 20.3034 19.2698 20.3034 17.8295C20.3034 16.389 21.4949 15.2171 22.9589 15.2171C24.4334 15.2171 25.625 16.3893 25.625 17.8295V19.8266C25.625 20.166 25.3455 20.4412 24.9999 20.4412ZM22.9694 16.4466C22.1839 16.4466 21.5535 17.0668 21.5535 17.8295C21.5535 18.5913 22.1839 19.2117 22.9592 19.2117H24.3751V17.8295C24.3751 17.0667 23.7444 16.4466 22.9694 16.4466Z" fill="url(#paint15_linear_5944_22773)"/>
<path d="M27.0404 20.4412H24.9995C24.6541 20.4412 24.3744 20.1664 24.3744 19.8263V17.8292C24.3744 16.3887 25.5659 15.2169 27.0299 15.2169C28.5044 15.2169 29.6959 16.389 29.6959 17.8292C29.6959 19.2697 28.5048 20.4412 27.0404 20.4412ZM25.6245 19.2114H27.0404C27.8155 19.2114 28.4461 18.5913 28.4461 17.8292C28.4461 17.0668 27.8158 16.4464 27.0404 16.4464C26.2549 16.4464 25.6245 17.0665 25.6245 17.8292V19.2114Z" fill="url(#paint16_linear_5944_22773)"/>
<defs>
<linearGradient id="paint0_linear_5944_22773" x1="0" y1="0" x2="0" y2="1" gradientUnits="objectBoundingBox">
<stop stop-color="#ED3040"/>
<stop offset="1" stop-color="#2D23F4"/>
</linearGradient>
<linearGradient id="paint1_linear_5944_22773" x1="0" y1="0" x2="0" y2="1" gradientUnits="objectBoundingBox">
<stop stop-color="#ED3040"/>
<stop offset="1" stop-color="#2D23F4"/>
</linearGradient>
<linearGradient id="paint2_linear_5944_22773" x1="0" y1="0" x2="0" y2="1" gradientUnits="objectBoundingBox">
<stop stop-color="#ED3040"/>
<stop offset="1" stop-color="#2D23F4"/>
</linearGradient>
<linearGradient id="paint3_linear_5944_22773" x1="0" y1="0" x2="0" y2="1" gradientUnits="objectBoundingBox">
<stop stop-color="#ED3040"/>
<stop offset="1" stop-color="#2D23F4"/>
</linearGradient>
<linearGradient id="paint4_linear_5944_22773" x1="0" y1="0" x2="0" y2="1" gradientUnits="objectBoundingBox">
<stop stop-color="#ED3040"/>
<stop offset="1" stop-color="#2D23F4"/>
</linearGradient>
<linearGradient id="paint5_linear_5944_22773" x1="0" y1="0" x2="0" y2="1" gradientUnits="objectBoundingBox">
<stop stop-color="#ED3040"/>
<stop offset="1" stop-color="#2D23F4"/>
</linearGradient>
<linearGradient id="paint6_linear_5944_22773" x1="0" y1="0" x2="0" y2="1" gradientUnits="objectBoundingBox">
<stop stop-color="#ED3040"/>
<stop offset="1" stop-color="#2D23F4"/>
</linearGradient>
<linearGradient id="paint7_linear_5944_22773" x1="0" y1="0" x2="0" y2="1" gradientUnits="objectBoundingBox">
<stop stop-color="#ED3040"/>
<stop offset="1" stop-color="#2D23F4"/>
</linearGradient>
<linearGradient id="paint8_linear_5944_22773" x1="0" y1="0" x2="0" y2="1" gradientUnits="objectBoundingBox">
<stop stop-color="#ED3040"/>
<stop offset="1" stop-color="#2D23F4"/>
</linearGradient>
<linearGradient id="paint9_linear_5944_22773" x1="0" y1="0" x2="0" y2="1" gradientUnits="objectBoundingBox">
<stop stop-color="#ED3040"/>
<stop offset="1" stop-color="#2D23F4"/>
</linearGradient>
<linearGradient id="paint10_linear_5944_22773" x1="0" y1="0" x2="0" y2="1" gradientUnits="objectBoundingBox">
<stop stop-color="#ED3040"/>
<stop offset="1" stop-color="#2D23F4"/>
</linearGradient>
<linearGradient id="paint11_linear_5944_22773" x1="0" y1="0" x2="0" y2="1" gradientUnits="objectBoundingBox">
<stop stop-color="#ED3040"/>
<stop offset="1" stop-color="#2D23F4"/>
</linearGradient>
<linearGradient id="paint12_linear_5944_22773" x1="0" y1="0" x2="0" y2="1" gradientUnits="objectBoundingBox">
<stop stop-color="#ED3040"/>
<stop offset="1" stop-color="#2D23F4"/>
</linearGradient>
<linearGradient id="paint13_linear_5944_22773" x1="0" y1="0" x2="0" y2="1" gradientUnits="objectBoundingBox">
<stop stop-color="#ED3040"/>
<stop offset="1" stop-color="#2D23F4"/>
</linearGradient>
<linearGradient id="paint14_linear_5944_22773" x1="0" y1="0" x2="0" y2="1" gradientUnits="objectBoundingBox">
<stop stop-color="#ED3040"/>
<stop offset="1" stop-color="#2D23F4"/>
</linearGradient>
<linearGradient id="paint15_linear_5944_22773" x1="0" y1="0" x2="0" y2="1" gradientUnits="objectBoundingBox">
<stop stop-color="#ED3040"/>
<stop offset="1" stop-color="#2D23F4"/>
</linearGradient>
<linearGradient id="paint16_linear_5944_22773" x1="0" y1="0" x2="0" y2="1" gradientUnits="objectBoundingBox">
<stop stop-color="#ED3040"/>
<stop offset="1" stop-color="#2D23F4"/>
</linearGradient>
</defs>
</svg>
