<svg width="50" height="50" viewBox="0 0 50 50" fill="none" xmlns="http://www.w3.org/2000/svg">
<path d="M13.9703 45H39.3381C39.7038 45 40 44.7112 40 44.3547V5.64528C40 5.28879 39.7038 5 39.3381 5H13.9703C12.9174 5 11.9073 5.40784 11.1627 6.1338C10.4183 6.85978 10 7.8442 10 8.87094V41.129C10 42.1557 10.4183 43.1402 11.1627 43.8661C11.9073 44.5921 12.9174 44.9999 13.9703 44.9999V45ZM13.9703 6.29056H16.6175V37.2578H13.9703V37.2581C12.9923 37.2578 12.0489 37.6119 11.3233 38.2516V8.87138C11.3233 8.18709 11.6021 7.53047 12.0985 7.04659C12.5951 6.56271 13.2683 6.29056 13.9703 6.29056ZM11.3234 41.1293C11.3234 40.445 11.6022 39.7887 12.0985 39.3045C12.5952 38.8206 13.2684 38.5489 13.9703 38.5489H14.4116V43.7101H13.9703C13.2684 43.7101 12.5952 43.4383 12.0985 42.9541C11.6022 42.4702 11.3234 41.814 11.3234 41.1293ZM15.7351 38.5486H38.6763V43.7098H15.7351V38.5486ZM38.6763 37.2584H17.9409V6.29116H38.6763V37.2584Z" fill="url(#paint0_linear_5944_22769)"/>
<path d="M22.8559 18.7546H26.4428V22.2515C26.4428 22.608 26.739 22.8967 27.1044 22.8967H30.6338C30.9995 22.8967 31.2957 22.608 31.2957 22.2515V18.7546H34.8782C35.2435 18.7546 35.5397 18.4658 35.5397 18.1097V14.6775C35.5397 14.321 35.2435 14.0323 34.8782 14.0323H31.2824V10.5441C31.2824 10.188 30.9862 9.89883 30.6208 9.89883H27.0914C26.7257 9.89883 26.4295 10.188 26.4295 10.5441V14.041H22.8559C22.4906 14.041 22.194 14.3297 22.194 14.6859V18.1268C22.2036 18.4766 22.4971 18.755 22.8559 18.7546ZM23.5178 15.3138H27.1047H27.1044C27.47 15.3138 27.7663 15.025 27.7663 14.6688V11.1893H29.9722V14.6774C29.9722 15.0336 30.2684 15.3224 30.6338 15.3224H34.2162V17.473H30.6207C30.255 17.473 29.9588 17.7617 29.9588 18.1182V21.6151H27.7529V18.1182C27.7529 17.7617 27.4566 17.473 27.0913 17.473H23.5177L23.5178 15.3138Z" fill="url(#paint1_linear_5944_22769)"/>
<path d="M22.8559 34.2476H34.8651C35.2308 34.2476 35.527 33.9588 35.527 33.6027V29.3015C35.527 28.9453 35.2308 28.6565 34.8651 28.6565H22.8559C22.4906 28.6565 22.194 28.9453 22.194 29.3015V33.6027C22.194 33.9588 22.4906 34.2476 22.8559 34.2476ZM23.5178 29.9464L34.2029 29.9467V32.9574H23.5178V29.9464Z" fill="url(#paint2_linear_5944_22769)"/>
<defs>
<linearGradient id="paint0_linear_5944_22769" x1="34.4968" y1="33.6397" x2="34.4968" y2="41.6506" gradientUnits="userSpaceOnUse">
<stop stop-color="#ED3040"/>
<stop offset="1" stop-color="#2D23F4"/>
</linearGradient>
<linearGradient id="paint1_linear_5944_22769" x1="34.4968" y1="33.6397" x2="34.4968" y2="41.6506" gradientUnits="userSpaceOnUse">
<stop stop-color="#ED3040"/>
<stop offset="1" stop-color="#2D23F4"/>
</linearGradient>
<linearGradient id="paint2_linear_5944_22769" x1="34.4968" y1="33.6397" x2="34.4968" y2="41.6506" gradientUnits="userSpaceOnUse">
<stop stop-color="#ED3040"/>
<stop offset="1" stop-color="#2D23F4"/>
</linearGradient>
</defs>
</svg>
