<svg width="50" height="50" viewBox="0 0 50 50" fill="none" xmlns="http://www.w3.org/2000/svg">
<path d="M40.4179 38.6627C42.3924 38.6627 44 37.0752 44 35.1252V15.0329C44 13.3959 42.6514 12.0641 40.9938 12.0641H39.266V7.50637C39.266 6.12509 38.1332 5 36.7345 5H13.2614C11.8692 5 10.7363 6.12517 10.7363 7.50637V12.0641H9.00621C7.34856 12.0641 6 13.3959 6 15.0329V15.262V15.2319V15.3566C6 16.439 6.00068 20.6971 6.00237 35.1253C6.00237 37.0753 7.6035 38.6628 9.57803 38.6628H20.2927V41.8503H18.6537C17.9007 41.8503 17.293 42.4565 17.293 43.2004V44.5312C17.293 44.7937 17.5019 45 17.7677 45H32.2345C32.4938 45 32.7092 44.7937 32.7092 44.5312V43.2001C32.7092 42.4565 32.0953 41.85 31.3485 41.85H29.7094V38.6625L40.4179 38.6627ZM11.6863 7.50706C11.6863 6.64475 12.3952 5.93823 13.262 5.93823H36.7351C37.6086 5.93823 38.3173 6.64441 38.3173 7.50706V10.2946L11.6866 10.2943L11.6863 7.50706ZM11.6863 11.2319H38.3169V28.5944C38.3169 29.4571 37.608 30.1633 36.7348 30.1633L13.2617 30.1629C12.3946 30.1629 11.6859 29.4568 11.6859 28.5941L11.6863 11.2319ZM6.94995 15.0333C6.94995 13.9132 7.8726 13.0021 9.00673 13.0021H10.7368V28.5944C10.7368 29.9757 11.8697 31.1008 13.2619 31.1008H36.735C38.1337 31.1008 39.2665 29.976 39.2665 28.5944V13.0021H40.9943C42.1285 13.0021 43.0511 13.9132 43.0511 15.0333V32.0303H6.95038L6.94995 15.0333ZM31.3488 42.7882C31.5766 42.7882 31.7601 42.9758 31.7601 43.2008V44.0631H18.2424V43.2008C18.2424 42.9758 18.4259 42.7882 18.6538 42.7882H31.3489H31.3488ZM21.2417 41.851V38.6635H28.76V41.851H21.2417ZM9.57791 37.726C8.12846 37.726 6.9516 36.5634 6.9516 35.1259V32.9697H43.0497V35.1259C43.0497 36.5634 41.8664 37.726 40.417 37.726H9.57791Z" fill="url(#paint0_linear_5944_22775)"/>
<path d="M21.7041 34.2194C21.0777 34.2194 20.5647 34.7256 20.5647 35.3505C20.5647 35.9691 21.0773 36.4757 21.7041 36.4757C22.3369 36.4757 22.8434 35.9695 22.8434 35.3505C22.8434 34.726 22.3373 34.2194 21.7041 34.2194ZM21.7041 35.9882C21.3496 35.9882 21.0584 35.7006 21.0584 35.3505C21.0584 34.9941 21.3496 34.7069 21.7041 34.7069C22.0647 34.7069 22.3497 34.9944 22.3497 35.3505C22.3497 35.7009 22.065 35.9882 21.7041 35.9882Z" fill="url(#paint1_linear_5944_22775)"/>
<path d="M25.0012 34.2194C24.3748 34.2194 23.8618 34.7256 23.8618 35.3505C23.8618 35.9691 24.3744 36.4757 25.0012 36.4757C25.6275 36.4757 26.1405 35.9695 26.1405 35.3505C26.1405 34.726 25.6279 34.2194 25.0012 34.2194ZM25.0012 35.9882C24.6467 35.9882 24.3555 35.7006 24.3555 35.3505C24.3555 34.9941 24.6467 34.7069 25.0012 34.7069C25.3557 34.7069 25.6468 34.9944 25.6468 35.3505C25.6468 35.7009 25.3557 35.9882 25.0012 35.9882Z" fill="url(#paint2_linear_5944_22775)"/>
<path d="M28.2922 34.2194C27.6655 34.2194 27.1529 34.7256 27.1529 35.3505C27.1529 35.9691 27.6655 36.4757 28.2922 36.4757C28.925 36.4757 29.4376 35.9695 29.4376 35.3505C29.4376 34.726 28.925 34.2194 28.2922 34.2194ZM28.2922 35.9882C27.9377 35.9882 27.6465 35.7006 27.6465 35.3505C27.6465 34.9941 27.9377 34.7069 28.2922 34.7069C28.6528 34.7069 28.9439 34.9944 28.9439 35.3505C28.9439 35.7009 28.6528 35.9882 28.2922 35.9882Z" fill="url(#paint3_linear_5944_22775)"/>
<path d="M15.0908 6.99433C14.4645 6.99433 13.9515 7.4942 13.9515 8.11916C13.9515 8.73774 14.4641 9.24434 15.0908 9.24434C15.7172 9.24434 16.2302 8.73811 16.2302 8.11916C16.2302 7.49424 15.7176 6.99433 15.0908 6.99433ZM15.0908 8.75678C14.7364 8.75678 14.4452 8.46922 14.4452 8.11915C14.4452 7.76305 14.7364 7.48152 15.0908 7.48152C15.4453 7.48152 15.7365 7.76272 15.7365 8.11915C15.7365 8.46922 15.4453 8.75678 15.0908 8.75678Z" fill="url(#paint4_linear_5944_22775)"/>
<path d="M18.3368 6.99433C17.7104 6.99433 17.1975 7.4942 17.1975 8.11916C17.1975 8.73774 17.71 9.24434 18.3368 9.24434C18.9631 9.24434 19.4761 8.73811 19.4761 8.11916C19.4761 7.49424 18.9635 6.99433 18.3368 6.99433ZM18.3368 8.75678C17.9823 8.75678 17.6911 8.46922 17.6911 8.11915C17.6911 7.76305 17.9823 7.48152 18.3368 7.48152C18.6913 7.48152 18.9824 7.76272 18.9824 8.11915C18.9824 8.46922 18.6913 8.75678 18.3368 8.75678Z" fill="url(#paint5_linear_5944_22775)"/>
<path d="M21.5836 6.99433C20.9572 6.99433 20.4443 7.4942 20.4443 8.11916C20.4443 8.73774 20.9569 9.24434 21.5836 9.24434C22.21 9.24434 22.7229 8.73811 22.7229 8.11916C22.7229 7.49424 22.2103 6.99433 21.5836 6.99433ZM21.5836 8.75678C21.2291 8.75678 20.9379 8.46922 20.9379 8.11915C20.9379 7.76305 21.2291 7.48152 21.5836 7.48152C21.9381 7.48152 22.2293 7.76272 22.2293 8.11915C22.2293 8.46922 21.9381 8.75678 21.5836 8.75678Z" fill="url(#paint6_linear_5944_22775)"/>
<path d="M14.3758 18.5756L18.4768 19.657V24.863C18.4768 25.0506 18.597 25.2255 18.7805 25.2943C20.8438 26.1005 22.9196 26.5067 25.0014 26.5067C27.0772 26.5067 29.1594 26.1005 31.2223 25.2943C31.4058 25.2258 31.5199 25.0506 31.5199 24.863V19.663L33.1969 19.2193L33.5639 19.2444V21.5257C32.817 21.732 32.2665 22.4071 32.2665 23.2069C32.2665 24.1692 33.0638 24.9569 34.0385 24.9569C35.0132 24.9569 35.8106 24.1695 35.8106 23.2069C35.8106 22.4068 35.26 21.7317 34.5131 21.5257V18.8695L35.6271 18.5756C35.8295 18.5258 35.9751 18.3382 35.9751 18.1256C35.9751 17.9132 35.8295 17.7257 35.6271 17.6755L25.1213 14.9006C25.0455 14.8819 24.9567 14.8819 24.8745 14.9006L14.3756 17.6755C14.1667 17.7257 14.0211 17.9129 14.0211 18.1256C14.0211 18.3382 14.1667 18.5258 14.3756 18.5756L14.3758 18.5756ZM30.5709 24.538C26.875 25.9069 23.1284 25.9069 19.4263 24.538V19.9131L24.8752 21.3505C24.9196 21.3569 24.9575 21.3629 25.0019 21.3629C25.0398 21.3629 25.0841 21.3565 25.122 21.3505L30.571 19.9131L30.5709 24.538ZM34.8616 23.2069C34.8616 23.6569 34.4946 24.0194 34.0389 24.0194C33.5896 24.0194 33.2161 23.6569 33.2161 23.2069C33.2161 22.7812 33.575 22.4007 34.0389 22.4007C34.4915 22.4007 34.8616 22.7668 34.8616 23.2069ZM25.0015 15.8382L33.6652 18.1256L33.1147 18.2693L25.0394 17.6568C24.7801 17.6504 24.5458 17.8317 24.5268 18.0881V18.1507C24.5394 18.382 24.7229 18.5756 24.9636 18.5944L30.3493 19.0006C30.2856 19.0173 24.6444 20.5075 25.0016 20.413C10.3189 16.5313 25.1915 20.4628 16.3378 18.1255L25.0015 15.8382Z" fill="url(#paint7_linear_5944_22775)"/>
<defs>
<linearGradient id="paint0_linear_5944_22775" x1="0" y1="0" x2="0" y2="1" gradientUnits="objectBoundingBox">
<stop stop-color="#ED3040"/>
<stop offset="1" stop-color="#2D23F4"/>
</linearGradient>
<linearGradient id="paint1_linear_5944_22775" x1="0" y1="0" x2="0" y2="1" gradientUnits="objectBoundingBox">
<stop stop-color="#ED3040"/>
<stop offset="1" stop-color="#2D23F4"/>
</linearGradient>
<linearGradient id="paint2_linear_5944_22775" x1="0" y1="0" x2="0" y2="1" gradientUnits="objectBoundingBox">
<stop stop-color="#ED3040"/>
<stop offset="1" stop-color="#2D23F4"/>
</linearGradient>
<linearGradient id="paint3_linear_5944_22775" x1="0" y1="0" x2="0" y2="1" gradientUnits="objectBoundingBox">
<stop stop-color="#ED3040"/>
<stop offset="1" stop-color="#2D23F4"/>
</linearGradient>
<linearGradient id="paint4_linear_5944_22775" x1="0" y1="0" x2="0" y2="1" gradientUnits="objectBoundingBox">
<stop stop-color="#ED3040"/>
<stop offset="1" stop-color="#2D23F4"/>
</linearGradient>
<linearGradient id="paint5_linear_5944_22775" x1="0" y1="0" x2="0" y2="1" gradientUnits="objectBoundingBox">
<stop stop-color="#ED3040"/>
<stop offset="1" stop-color="#2D23F4"/>
</linearGradient>
<linearGradient id="paint6_linear_5944_22775" x1="0" y1="0" x2="0" y2="1" gradientUnits="objectBoundingBox">
<stop stop-color="#ED3040"/>
<stop offset="1" stop-color="#2D23F4"/>
</linearGradient>
<linearGradient id="paint7_linear_5944_22775" x1="0" y1="0" x2="0" y2="1" gradientUnits="objectBoundingBox">
<stop stop-color="#ED3040"/>
<stop offset="1" stop-color="#2D23F4"/>
</linearGradient>
</defs>
</svg>
