<svg width="50" height="50" viewBox="0 0 50 50" fill="none" xmlns="http://www.w3.org/2000/svg">
<path d="M25.0016 5.00008C24.6806 5.00225 24.388 5.18492 24.2456 5.47304L22.8666 8.25807L19.7935 8.69939H19.7932C19.4728 8.74529 19.2065 8.96952 19.1058 9.27749C19.0054 9.58545 19.0882 9.92381 19.3196 10.1505L21.5386 12.324L21.0084 15.3869C20.9531 15.706 21.0835 16.0289 21.3449 16.2199C21.6063 16.4109 21.9533 16.4367 22.24 16.2866L22.4695 16.1662V17.7219H20.6015C18.3816 17.7219 16.5682 19.5424 16.5682 21.7711C16.5682 22.7576 16.9241 23.6642 17.513 24.3682C15.9784 24.9419 14.8787 26.429 14.8787 28.1642C14.8787 29.1508 15.2346 30.057 15.8235 30.7613C14.2889 31.3351 13.1892 32.8225 13.1892 34.5577C13.1892 35.5443 13.5454 36.4508 14.1343 37.1548C12.5997 37.7285 11.5 39.2157 11.5 40.9508C11.5 43.1791 13.3137 45 15.5333 45H34.4667C36.6863 45 38.5 43.1795 38.5 40.9508C38.5 39.2157 37.4004 37.7285 35.8657 37.1548C36.4546 36.4508 36.8105 35.5443 36.8105 34.5577C36.8105 32.8225 35.7109 31.335 34.1762 30.7613C34.7651 30.0573 35.121 29.1508 35.121 28.1642C35.121 26.429 34.0214 24.9419 32.4867 24.3682C33.0756 23.6642 33.4315 22.7576 33.4315 21.7711C33.4315 19.5428 31.6181 17.7219 29.3985 17.7219H27.5308V16.1886L27.7353 16.2969H27.7359C28.022 16.4482 28.369 16.4237 28.631 16.2336C28.8933 16.0435 29.0249 15.7213 28.9709 15.4018L28.4518 12.337L30.6785 10.1716V10.1713C31.0054 9.8531 31.0236 9.33297 30.7193 8.99276C30.5868 8.84451 30.4063 8.74712 30.2095 8.71829L27.138 8.2658L25.7693 5.47577C25.6253 5.18269 25.3268 4.99816 25.0008 5.00001L25.0016 5.00008ZM25.0016 7.77455L25.8077 9.41795C25.931 9.66948 26.1698 9.84408 26.4467 9.88502L28.2563 10.1514L26.9444 11.4273C26.7436 11.6224 26.6518 11.904 26.6988 12.1803L27.0047 13.9856L25.3875 13.1305L25.3872 13.1308C25.1397 12.9997 24.8437 12.999 24.5959 13.129L22.9757 13.9784L23.2881 12.174C23.336 11.898 23.2451 11.6161 23.0452 11.4201L21.738 10.1395L23.5483 9.87961L23.548 9.8793C23.8251 9.8396 24.0646 9.66593 24.1891 9.41533L25.0016 7.77455ZM24.9846 14.8448L25.8269 15.2905V17.7223H24.1615V15.2765L24.9846 14.8448ZM20.5957 19.4268H29.3937C30.7018 19.4268 31.7288 20.4576 31.7288 21.7711C31.7288 23.0845 30.7022 24.1157 29.3937 24.1157H20.5957C19.2872 24.1157 18.2605 23.0848 18.2605 21.7711C18.2605 20.4576 19.2872 19.4268 20.5957 19.4268ZM18.9066 25.8202H31.0828C32.391 25.8202 33.4179 26.8508 33.4179 28.1642C33.4179 29.4777 32.391 30.5085 31.0828 30.5085H18.9066C17.5984 30.5085 16.5714 29.4777 16.5714 28.1642C16.5714 26.8508 17.5984 25.8202 18.9066 25.8202ZM17.2175 32.2134H32.7719C34.0804 32.2134 35.1071 33.2443 35.1071 34.5577C35.1071 35.8711 34.0804 36.9023 32.7719 36.9023H17.2175C15.9093 36.9023 14.8823 35.8714 14.8823 34.5577C14.8823 33.2443 15.9093 32.2134 17.2175 32.2134ZM15.5284 38.6068H34.461C35.7692 38.6068 36.7962 39.6374 36.7962 40.9508C36.7962 42.2643 35.7692 43.2951 34.461 43.2951H15.5276C14.2191 43.2951 13.1924 42.2643 13.1924 40.9508C13.1924 39.6374 14.2191 38.6068 15.5276 38.6068H15.5284Z" fill="url(#paint0_linear_5944_22759)"/>
<defs>
<linearGradient id="paint0_linear_5944_22759" x1="0" y1="0" x2="0" y2="1" gradientUnits="objectBoundingBox">
<stop stop-color="#ED3040"/>
<stop offset="1" stop-color="#2D23F4"/>
</linearGradient>
</defs>
</svg>
