<svg width="50" height="50" viewBox="0 0 50 50" fill="none" xmlns="http://www.w3.org/2000/svg">
<path d="M45 39.2704L44.9936 18.641C44.9936 17.631 44.1685 16.8082 43.1562 16.8082H40.5564V15.3927C40.5564 14.3453 39.7002 13.4973 38.6563 13.4973H37.15V12.5623C37.15 11.6084 36.3936 10.8353 35.4626 10.8353H32.9002C30.8751 7.35026 27.1002 5 22.7813 5C18.4627 5 14.6878 7.35058 12.6623 10.8353H10.0999C9.16858 10.8353 8.41255 11.6083 8.41255 12.5623V13.4973L6.90007 13.4977C5.85011 13.4977 5 14.3453 5 15.3927V37.2814C5 38.3288 5.85011 39.1768 6.90007 39.1768H21.2503C21.7502 39.1768 22.1566 39.5759 22.1692 40.0745V40.0933C22.1692 40.2618 22.2379 40.4114 22.3441 40.5234C22.4567 40.6357 22.6067 40.7042 22.7752 40.7042C23.1126 40.7042 23.3816 40.4363 23.3816 40.0994V40.0745C23.3941 39.5758 23.8003 39.1768 24.3066 39.1768H38.3497V39.2453C38.3433 39.3264 38.3622 39.4138 38.3936 39.4948C38.3936 39.5012 38.3999 39.5073 38.3999 39.5137C38.4063 39.5261 38.4063 39.5449 38.4188 39.5574L41.1376 44.6759C41.2438 44.8753 41.4501 45 41.6753 45C41.9004 45 42.1064 44.8753 42.2129 44.6759L44.9317 39.5574C44.9371 39.5446 44.9934 39.476 44.9995 39.2702L45 39.2704ZM39.5627 38.6658V22.7807H41.069V38.6601H39.5627V38.6658ZM42.2812 22.7807H43.7875V38.6601H42.2812V22.7807ZM43.7811 18.6413V21.5652H39.5562V18.6413C39.5562 18.342 39.7686 18.0865 40.0938 18.024C40.1002 18.024 40.1252 18.0176 40.1815 18.0176H43.1565C43.5 18.0176 43.7811 18.2983 43.7811 18.6413ZM35.4561 12.039C35.7187 12.039 35.931 12.2696 35.931 12.5564V34.6134C35.931 34.9002 35.7187 35.1309 35.4561 35.1309L24.0566 35.1306C23.819 35.1306 23.5942 35.1743 23.3815 35.2553V28.304C29.5503 27.9859 34.4755 22.8987 34.4755 16.6642C34.4755 15.0247 34.1317 13.4599 33.5132 12.0447H35.4567L35.4561 12.039ZM16.6249 17.2695C16.6747 19.2458 16.9747 21.0722 17.4624 22.6496C16.7124 23.0298 16.0063 23.4976 15.35 24.0399C13.5938 22.2817 12.4751 19.9001 12.3187 17.2695H16.6249ZM33.2307 17.2695C33.0807 19.9065 31.9556 22.282 30.1995 24.0399C29.5432 23.4975 28.837 23.0298 28.087 22.6496C28.5808 21.0659 28.8744 19.2395 28.9246 17.2695H33.2307ZM23.3812 27.0325V22.6123C24.4811 22.6745 25.5563 22.9052 26.5686 23.2982C25.7812 25.2992 24.6499 26.6894 23.3812 27.0325ZM22.1687 27.0325C20.9063 26.6895 19.7752 25.2991 18.9813 23.2982C19.9938 22.9055 21.0688 22.6809 22.1687 22.6123V27.0325ZM27.6812 23.8093C28.2437 24.1085 28.7811 24.4576 29.2812 24.8567C28.3249 25.6172 27.2312 26.2096 26.0437 26.596C26.675 25.8603 27.2312 24.9189 27.6812 23.8093ZM26.9625 22.1446C25.8249 21.7082 24.6189 21.4651 23.3815 21.4029V17.2695H27.7125C27.6687 19.0399 27.4 20.7046 26.9625 22.1446ZM23.3811 16.0597V11.92C24.6185 11.8578 25.8249 11.6083 26.9622 11.1783C27.3933 12.6247 27.6623 14.2891 27.7122 16.0597H23.3811ZM23.3811 10.7109V6.29684C24.6435 6.63979 25.7747 8.02378 26.5685 10.025C25.5563 10.4177 24.4874 10.6484 23.3811 10.7109ZM26.0437 6.73329C27.2248 7.11995 28.3186 7.71204 29.2749 8.47264C28.7686 8.87174 28.2374 9.22077 27.6748 9.52C27.2248 8.40404 26.6751 7.46261 26.0437 6.73329ZM22.1751 6.29685V10.717C21.0752 10.6548 19.9939 10.4302 18.9814 10.0375C19.7752 8.02377 20.9064 6.63979 22.1751 6.29685ZM17.8751 9.52001C17.3125 9.22076 16.7752 8.87174 16.2689 8.47266C17.2252 7.71209 18.319 7.11969 19.5065 6.72693C18.8752 7.46899 18.325 8.41042 17.8751 9.52001ZM22.1751 11.9204V16.0601H17.8441C17.894 14.2895 18.163 12.6251 18.5941 11.1786C19.7314 11.6147 20.9378 11.8579 22.1751 11.9204ZM22.1687 17.2692V21.4025C20.9314 21.4648 19.7249 21.7142 18.5877 22.1443C18.1566 20.7042 17.8876 19.0334 17.8377 17.2628L22.1687 17.2631L22.1687 17.2692ZM17.8751 23.8093C18.3251 24.9189 18.8752 25.8603 19.5062 26.596C18.3187 26.2094 17.2313 25.6109 16.2687 24.8503C16.7813 24.4512 17.3126 24.1022 17.8751 23.8093ZM33.2308 16.0598H28.9246C28.8747 14.0834 28.5748 12.257 28.0871 10.6733C28.8371 10.293 29.5432 9.8253 30.1995 9.283C31.956 11.0411 33.0808 13.4228 33.2308 16.0598V16.0598ZM15.3558 9.28325C16.0121 9.82559 16.7183 10.2933 17.4683 10.6735C16.9745 12.2572 16.6809 14.0836 16.6307 16.0536H12.3246C12.4746 13.4226 13.5997 11.0411 15.3558 9.28325ZM9.61821 12.5622C9.61821 12.2754 9.83058 12.0447 10.0932 12.0447H12.0367C11.4178 13.4663 11.0743 15.0248 11.0743 16.6642C11.0743 22.8923 15.9993 27.9855 22.1618 28.304V35.2678C21.9556 35.1868 21.7243 35.1431 21.4931 35.1431L10.0994 35.1437C9.8368 35.1437 9.62443 34.9131 9.62443 34.6262V12.5627L9.61821 12.5622ZM21.2494 37.9677H6.89915C6.51792 37.9677 6.21153 37.6621 6.21153 37.2818V15.393C6.21153 15.0128 6.51792 14.7071 6.89915 14.7071H8.40548V34.6194C8.40548 35.5734 9.16186 36.3464 10.0928 36.3464L21.4988 36.3467C21.8676 36.3467 22.1612 36.6648 22.1676 37.0575V38.1734C21.8925 38.0423 21.5801 37.9677 21.249 37.9677L21.2494 37.9677ZM24.3053 37.9677C23.9739 37.9677 23.6615 38.0427 23.3803 38.1795V37.076C23.3803 36.6769 23.6803 36.3527 24.0555 36.3527H35.4549C36.3862 36.3527 37.1423 35.5798 37.1423 34.6258V14.707H38.6486C39.0298 14.707 39.3423 15.0187 39.3423 15.399V17.02C38.7423 17.3256 38.3422 17.9426 38.3422 18.647L38.3486 37.9737H24.3046L24.3053 37.9677ZM41.6742 43.0986L39.9619 39.8755H43.3869L41.6742 43.0986Z" fill="url(#paint0_linear_5944_22783)"/>
<path d="M33.4376 28.7911H26.5128C26.1754 28.7911 25.9064 29.0591 25.9064 29.396C25.9064 29.7326 26.1751 30.0009 26.5128 30.0009L33.4376 30.0005C33.775 30.0005 34.044 29.7326 34.044 29.3957C34.0437 29.0591 33.7689 28.7911 33.4376 28.7911Z" fill="url(#paint1_linear_5944_22783)"/>
<path d="M29.6566 31.0289H26.5131C26.1756 31.0289 25.9067 31.2969 25.9067 31.6338C25.9067 31.9704 26.1753 32.2387 26.5131 32.2387H29.6566C29.9941 32.2387 30.263 31.9707 30.263 31.6338C30.263 31.2969 29.994 31.0289 29.6566 31.0289Z" fill="url(#paint2_linear_5944_22783)"/>
<path d="M12.4383 30.2057H19.3571C19.6945 30.2057 19.9635 29.9377 19.9635 29.6008C19.9635 29.2642 19.6948 28.9959 19.3571 28.9959L12.4383 28.9962C12.1009 28.9962 11.832 29.2642 11.832 29.6011C11.832 29.9377 12.1009 30.2057 12.4383 30.2057Z" fill="url(#paint3_linear_5944_22783)"/>
<path d="M12.4383 32.45H15.5819C15.9193 32.45 16.1883 32.182 16.1883 31.8451C16.1883 31.5085 15.9197 31.2402 15.5819 31.2402L12.4383 31.2406C12.1009 31.2406 11.832 31.5085 11.832 31.8454C11.832 32.1759 12.1009 32.45 12.4383 32.45Z" fill="url(#paint4_linear_5944_22783)"/>
<defs>
<linearGradient id="paint0_linear_5944_22783" x1="0" y1="0" x2="0" y2="1" gradientUnits="objectBoundingBox">
<stop stop-color="#ED3040"/>
<stop offset="1" stop-color="#2D23F4"/>
</linearGradient>
<linearGradient id="paint1_linear_5944_22783" x1="0" y1="0" x2="0" y2="1" gradientUnits="objectBoundingBox">
<stop stop-color="#ED3040"/>
<stop offset="1" stop-color="#2D23F4"/>
</linearGradient>
<linearGradient id="paint2_linear_5944_22783" x1="0" y1="0" x2="0" y2="1" gradientUnits="objectBoundingBox">
<stop stop-color="#ED3040"/>
<stop offset="1" stop-color="#2D23F4"/>
</linearGradient>
<linearGradient id="paint3_linear_5944_22783" x1="0" y1="0" x2="0" y2="1" gradientUnits="objectBoundingBox">
<stop stop-color="#ED3040"/>
<stop offset="1" stop-color="#2D23F4"/>
</linearGradient>
<linearGradient id="paint4_linear_5944_22783" x1="0" y1="0" x2="0" y2="1" gradientUnits="objectBoundingBox">
<stop stop-color="#ED3040"/>
<stop offset="1" stop-color="#2D23F4"/>
</linearGradient>
</defs>
</svg>
