<svg width="50" height="50" viewBox="0 0 50 50" fill="none" xmlns="http://www.w3.org/2000/svg">
<path d="M10.5783 39.0747H25.2654V45L29.2294 40.521L33.1934 45V39.0747H44.7325L44.0841 38.1255C39.8607 31.9454 43.7265 29.7196 45 28.0483H10.5781C7.48513 28.0483 5 30.5162 5 33.5614C5 36.6012 7.50249 39.0744 10.5781 39.0744L10.5783 39.0747ZM31.9624 41.7598L29.2299 38.6722L26.4975 41.7598V35.7342H31.9624V41.7598ZM42.4566 37.8575H33.194V35.7301H41.4347C41.6826 36.4161 42.0197 37.1234 42.4564 37.8575H42.4566ZM10.5783 29.2654H42.2667C41.7673 29.9546 41.4142 30.6634 41.1967 31.3953L21.0852 31.395V32.6122H40.9666C40.9147 33.2271 40.9554 33.8597 41.0881 34.5125H25.8802V34.5163H25.2664V37.8571H10.5785C8.18155 37.8571 6.2319 35.9298 6.2319 33.5609C6.2319 31.1887 8.1682 29.2653 10.5785 29.2653L10.5783 29.2654Z" fill="url(#paint0_linear_5944_22781)"/>
<path d="M12.7435 21.4713C12.7435 24.0558 18.7087 25.408 24.6012 25.408C30.4878 25.408 36.4475 24.0555 36.4475 21.4713V13.8991L39.7832 12.5364V19.6239C39.1918 19.8636 38.7737 20.4339 38.7737 21.0997C38.7737 21.6062 39.012 22.0643 39.3975 22.3615L38.7244 25.3472L38.7097 25.4791C38.7097 26.4168 39.4531 27.1512 40.4019 27.1512C41.328 27.1512 42.081 26.4013 42.081 25.4791L41.4028 22.3609C41.7832 22.0643 42.018 21.6066 42.018 21.0994C42.018 20.4333 41.6028 19.8627 41.0148 19.6233V12.0332L42.4937 11.429L24.6424 5L6.30216 11.4287L12.7437 13.9838L12.7435 21.4713ZM40.4782 21.4858C40.4673 21.4883 40.3608 21.4896 40.3416 21.4899C40.3387 21.4899 40.3381 21.4902 40.3403 21.4915L40.2219 21.4412C40.109 21.3834 40.0047 21.2661 40.0047 21.0995C40.0047 20.8899 40.1826 20.7198 40.4017 20.7198C40.617 20.7198 40.7859 20.8864 40.7859 21.0995C40.7862 21.2721 40.6797 21.421 40.4782 21.4858ZM40.4017 25.9341C40.1576 25.9341 39.9692 25.7653 39.944 25.5332L40.3992 23.5136L40.846 25.532C40.8217 25.7615 40.6352 25.9341 40.4017 25.9341ZM35.2157 21.4712C35.2157 22.5803 31.0809 24.1908 24.6011 24.1908C18.1145 24.1908 13.975 22.5804 13.975 21.4712V14.4792L24.6427 18.703L35.2164 14.4004L35.2157 21.4712ZM24.6363 6.29266L39.0941 11.5L35.5961 12.929L24.6359 17.389L9.78097 11.5003L24.6363 6.29266Z" fill="url(#paint1_linear_5944_22781)"/>
<defs>
<linearGradient id="paint0_linear_5944_22781" x1="37.6624" y1="33.6397" x2="37.6624" y2="41.6506" gradientUnits="userSpaceOnUse">
<stop stop-color="#ED3040"/>
<stop offset="1" stop-color="#2D23F4"/>
</linearGradient>
<linearGradient id="paint1_linear_5944_22781" x1="37.6624" y1="33.6397" x2="37.6624" y2="41.6506" gradientUnits="userSpaceOnUse">
<stop stop-color="#ED3040"/>
<stop offset="1" stop-color="#2D23F4"/>
</linearGradient>
</defs>
</svg>
