<svg width="50" height="50" viewBox="0 0 50 50" fill="none" xmlns="http://www.w3.org/2000/svg">
<path d="M41.7559 5H16.6172C16.0222 5.00065 15.4518 5.2385 15.0309 5.66117C14.61 6.08416 14.3734 6.65748 14.3727 7.25555V8.14516C14.2769 8.16631 14.1814 8.18421 14.0856 8.20893H14.0859C12.8767 8.51967 11.755 9.10471 10.8058 9.9191C9.33055 11.1676 8.32278 12.884 7.94852 14.7855C7.80316 15.5254 8.02653 16.2897 8.54743 16.8327C8.62512 16.9076 8.708 16.9772 8.79541 17.0406C8.05697 17.3009 7.50594 17.9286 7.34152 18.6975C7.17673 19.4667 7.42213 20.2665 7.98898 20.8092C8.55551 21.3516 9.36257 21.5589 10.1188 21.3562C10.6947 23.0465 11.9372 24.4242 13.5546 25.1657V25.3072C13.5539 25.6596 13.429 26.0003 13.2024 26.2691C12.9754 26.5375 12.6617 26.7171 12.316 26.7757C12.316 26.7757 11.9428 26.8134 11.913 26.8209L9.43315 27.4215H9.43283C8.45357 27.6565 7.58138 28.2168 6.95824 29.012C6.33538 29.8072 5.99771 30.7906 6.00003 31.8028V43.1403C5.99809 43.4266 6.09812 43.7042 6.282 43.9228C6.46555 44.1415 6.72131 44.2869 7.0023 44.3331C10.0344 44.7952 13.0979 45.0181 16.1642 44.9989C19.231 45.0181 22.2945 44.7952 25.3262 44.3331C25.6075 44.2873 25.8629 44.1418 26.0468 43.9228C26.2307 43.7042 26.3307 43.4266 26.3288 43.1403V31.8028C26.3249 31.1621 26.185 30.5296 25.9179 29.9478H41.7555C42.3505 29.9471 42.9213 29.7093 43.3419 29.2863C43.7627 28.8636 43.9994 28.29 44 27.6919V7.25587C43.9994 6.65782 43.7627 6.08455 43.3419 5.66148C42.9213 5.23882 42.3506 5.00097 41.7555 5.00032L41.7559 5ZM9.22964 15.0373C9.54819 13.426 10.4035 11.9719 11.6551 10.9147C12.4515 10.2311 13.3936 9.74008 14.4085 9.47953C15.6973 9.14114 17.0544 9.1649 18.3308 9.54851L18.5005 9.59992C18.9899 9.7112 19.4522 9.92075 19.8598 10.2152C20.1521 10.4117 20.3224 10.7462 20.3101 11.0992C20.0336 11.9846 19.4946 12.7638 18.7655 13.3329C16.2217 14.9071 13.3673 15.9054 10.4009 16.2584C10.0642 16.3056 9.72622 16.1832 9.49637 15.9317C9.26749 15.6952 9.16778 15.3613 9.22994 15.0373L9.22964 15.0373ZM36.4577 26.0133H30.994V24.702H36.458L36.4577 26.0133ZM36.5244 23.3904H30.927C30.5987 23.3907 30.2841 23.5219 30.0519 23.7552C29.8198 23.9885 29.6893 24.3047 29.689 24.6347V26.0133H18.9599H18.9602C18.8405 25.7973 18.7767 25.5542 18.7751 25.3069V25.2435V25.2438C20.4782 24.526 21.7949 23.111 22.3937 21.3552C23.1141 21.5439 23.8804 21.362 24.4404 20.8694C25.0004 20.3768 25.2814 19.6372 25.1905 18.895C25.0998 18.1525 24.6492 17.5034 23.9871 17.1617C24.5083 16.726 24.7867 16.0635 24.7343 15.3842C24.6779 13.7654 23.9997 12.2315 22.8421 11.1051C22.4872 10.7641 22.0311 10.5494 21.5432 10.4928C21.4053 9.93994 21.0706 9.45738 20.6022 9.13627C20.4846 9.05492 20.3866 8.99635 20.2846 8.93388H40.0869V26.013H37.7629V24.6344C37.7622 24.3045 37.6318 23.9882 37.3996 23.7549C37.1675 23.5216 36.8528 23.3904 36.5245 23.3901L36.5244 23.3904ZM16.1792 36.0807L14.7618 32.0964C15.2571 32.1726 15.7577 32.2113 16.2591 32.2119C16.7262 32.2116 17.1927 32.1781 17.655 32.1107L16.1792 36.0807ZM18.1908 30.6706H18.1905C16.8939 30.9732 15.5449 30.969 14.2503 30.6586L13.6984 29.1065H13.698C15.3264 29.7426 17.1312 29.7501 18.7645 29.1274L18.1908 30.6706ZM17.0144 16.9325C16.8373 17.1427 16.6955 17.3809 16.5952 17.6373H15.9328C15.7632 17.184 15.4559 16.7958 15.0541 16.5281C16.406 16.0869 17.7062 15.4992 18.9315 14.7749C19.2481 15.2389 19.6074 15.6721 20.005 16.0683H18.9098C18.1836 16.0683 17.4928 16.3833 17.0144 16.9325ZM10.842 18.7615V18.7611C10.7938 18.4123 10.8997 18.0596 11.1321 17.7964C11.3626 17.5315 11.6957 17.3796 12.0456 17.3796H13.6181C13.968 17.3796 14.3011 17.5315 14.5316 17.7964C14.764 18.0596 14.8699 18.4123 14.8217 18.7611C14.7349 19.4129 14.338 19.9813 13.7575 20.2845C13.1774 20.5878 12.4862 20.5878 11.9061 20.2845C11.3256 19.9813 10.9287 19.4128 10.842 18.7611L10.842 18.7615ZM21.4667 11.8062C21.6545 11.8455 21.8267 11.9386 21.963 12.074C22.8646 12.9817 23.3901 14.1994 23.4334 15.481C23.4606 15.7927 23.3029 16.0914 23.0313 16.2436C22.7746 16.3966 22.4525 16.3832 22.209 16.2098C21.3382 15.6173 20.5872 14.8644 19.9953 13.9907C20.6464 13.3858 21.1501 12.6385 21.4667 11.8061L21.4667 11.8062ZM23.1822 18.2458C23.5988 18.357 23.8924 18.7312 23.9028 19.1643C23.9135 19.4597 23.7827 19.7425 23.5512 19.9247C23.3198 20.1069 23.0155 20.1668 22.7325 20.0857L23.1822 18.2458ZM17.9966 17.7964C18.2271 17.5316 18.5603 17.3796 18.9102 17.3796H20.4826C20.8325 17.3799 21.1653 17.5316 21.3961 17.7964C21.6266 18.061 21.7322 18.4127 21.6862 18.7612C21.5997 19.4129 21.2025 19.9813 20.6224 20.2846C20.0419 20.5878 19.3511 20.5878 18.7706 20.2846C18.1902 19.9813 17.7933 19.4129 17.7068 18.7612C17.6583 18.4124 17.7642 18.0596 17.9966 17.7964ZM8.61094 19.1643C8.62001 18.7306 8.91395 18.3551 9.33125 18.2438L9.78124 20.0867C9.49829 20.1665 9.19464 20.1059 8.96349 19.9237C8.73201 19.7415 8.60123 19.4594 8.61094 19.1643ZM11.6366 21.5958C12.0176 21.7458 12.4229 21.823 12.8318 21.8233C13.6311 21.821 14.4029 21.5291 15.0054 21.001C15.6079 20.4733 16.0009 19.7444 16.112 18.9489H16.4166C16.5276 19.7444 16.9203 20.4733 17.5228 21.001C18.1253 21.5291 18.8971 21.821 19.6964 21.8233C20.0985 21.8236 20.497 21.7494 20.8725 21.6046C20.2901 22.751 19.306 23.6402 18.1097 24.1003C16.9135 24.5607 15.5901 24.5594 14.3949 24.097C13.1997 23.6343 12.2172 22.7435 11.6367 21.5959L11.6366 21.5958ZM16.2569 25.7561C16.6713 25.7548 17.0847 25.7138 17.4916 25.6341C17.5926 26.4749 18.0646 27.2252 18.7765 27.6781C17.9989 28.0838 17.1332 28.2898 16.2569 28.2778C15.3453 28.2927 14.4456 28.0682 13.6466 27.6267C14.3262 27.162 14.7645 26.4175 14.8429 25.5953C15.3071 25.7007 15.781 25.7545 16.2569 25.7561ZM25.0248 43.0535C24.6033 43.1212 24.1653 43.1814 23.7202 43.2386V38.4826C23.7202 38.1204 23.4282 37.8269 23.0679 37.8269C22.7076 37.8269 22.4152 38.1204 22.4152 38.4826V43.387C20.469 43.5832 18.3543 43.6873 16.1652 43.6873C13.9761 43.6873 11.8618 43.5832 9.91523 43.387V38.4826C9.91523 38.1204 9.62323 37.8269 9.26291 37.8269C8.90259 37.8269 8.61058 38.1204 8.61058 38.4826V43.2386C8.16545 43.1814 7.72713 43.1212 7.30595 43.0535L7.30563 31.8026C7.30401 31.0848 7.54357 30.3876 7.98514 29.824C8.42704 29.2601 9.04537 28.8628 9.73979 28.6962L11.9745 28.1551L15.5515 38.2115H15.5511C15.6146 38.3856 15.7489 38.5245 15.9208 38.5929V39.7938C15.9208 39.9298 16.0303 40.0398 16.1653 40.0398C16.3006 40.0398 16.41 39.9298 16.41 39.7938V38.5922C16.5787 38.5252 16.7114 38.3905 16.7765 38.2203L20.4997 28.2072L22.591 28.6969C23.2854 28.8635 23.9038 29.2608 24.3454 29.8246C24.7873 30.3882 25.0268 31.0855 25.0252 31.8033L25.0248 43.0535ZM42.6965 27.6919C42.6958 28.2135 42.2756 28.6358 41.7566 28.6365H25.024C24.4413 28.0401 23.7048 27.6194 22.8968 27.4215L22.4989 27.3252L40.739 27.3249C41.0994 27.3249 41.3914 27.0314 41.3917 26.6693V8.27817C41.3914 7.91602 41.0994 7.62253 40.739 7.62253H17.6357C17.3971 7.62448 17.1793 7.75886 17.0692 7.97166C16.6069 7.92741 16.142 7.92123 15.6788 7.95377V7.25518C15.6794 6.73393 16.0996 6.3116 16.6183 6.31093H41.757C42.2756 6.31158 42.6962 6.73392 42.6968 7.25518L42.6965 27.6919ZM16.4099 41.7607V43.0723C16.4099 43.208 16.3005 43.318 16.1652 43.318C16.0302 43.318 15.9207 43.208 15.9207 43.0723V41.7607C15.9207 41.625 16.0302 41.5147 16.1652 41.5147C16.3005 41.5147 16.4099 41.625 16.4099 41.7607Z" fill="url(#paint0_linear_5944_22753)"/>
<defs>
<linearGradient id="paint0_linear_5944_22753" x1="0" y1="0" x2="0" y2="1" gradientUnits="objectBoundingBox">
<stop stop-color="#ED3040"/>
<stop offset="1" stop-color="#2D23F4"/>
</linearGradient>
</defs>
</svg>
