<svg width="50" height="50" viewBox="0 0 50 50" fill="none" xmlns="http://www.w3.org/2000/svg">
<path d="M12.5541 14.9661C13.4774 14.9654 14.3626 14.5979 15.0154 13.9447C15.6683 13.2915 16.0355 12.4057 16.0363 11.4819V10.4853C16.0355 9.56149 15.6683 8.67575 15.0154 8.02218C14.3626 7.36896 13.4773 7.00151 12.5541 7H12.5489C11.6256 7.00148 10.7404 7.36894 10.0876 8.02218C9.43472 8.67576 9.06748 9.56155 9.06672 10.4853V11.4819C9.06783 12.4065 9.43581 13.293 10.0897 13.9462C10.7437 14.5998 11.63 14.9665 12.5541 14.9661ZM10.5556 10.4852C10.556 9.95621 10.7662 9.44903 11.1398 9.0753C11.5137 8.70119 12.0202 8.49084 12.5489 8.4901H12.554C13.0827 8.49084 13.5893 8.70119 13.9631 9.0753C14.3367 9.44905 14.5469 9.95625 14.5473 10.4852V11.4818C14.5336 12.1861 14.1501 12.8312 13.5383 13.1794C12.9264 13.5277 12.1764 13.5277 11.5646 13.1794C10.9524 12.8312 10.5693 12.1861 10.5556 11.4818L10.5556 10.4852ZM44.2558 41.5093H16.8653V20.9076H18.9502V25.2739H18.6942C18.2829 25.2739 17.9493 25.6074 17.9493 26.0188V28.7053C17.9493 28.9031 18.028 29.0923 18.1677 29.2321C18.307 29.3718 18.4965 29.4506 18.6942 29.4506H43.7636C43.9609 29.4506 44.1504 29.3718 44.2901 29.2321C44.4297 29.0923 44.508 28.9031 44.508 28.7053V26.0188C44.508 25.8214 44.4297 25.6318 44.2901 25.492C44.1504 25.3527 43.9609 25.2739 43.7636 25.2739H43.5127L43.5123 8.7824C43.5123 8.58463 43.434 8.39535 43.2943 8.25561C43.1547 8.11587 42.9655 8.0375 42.7679 8.0375H19.6923C19.2811 8.0375 18.9478 8.37095 18.9478 8.7824V16.1778H9.46769C8.28322 16.1793 7.14783 16.6507 6.3102 17.4888C5.47262 18.3268 5.00154 19.4628 5.00003 20.648V29.5521C5.00003 30.1447 5.23538 30.7133 5.65436 31.1324C6.07334 31.5513 6.64162 31.7868 7.23381 31.7868H7.9879V41.5098H5.74485C5.33362 41.5098 5 41.8436 5 42.2551C5 42.6666 5.33362 43 5.74485 43H44.2555C44.6667 43 45 42.6666 45 42.2551C45 41.8436 44.6667 41.5098 44.2555 41.5098L44.2558 41.5093ZM43.0188 27.96H19.4391V26.7637H43.0188V27.96ZM37.7846 25.2735H34.2107V23.8968H37.7846V25.2735ZM20.436 9.52682H42.021V25.2735H39.2722V23.152C39.2722 22.9542 39.1935 22.7649 39.0538 22.6252C38.9145 22.4854 38.725 22.4071 38.5273 22.4071H33.4642H33.4645C33.0533 22.4071 32.7201 22.7405 32.7201 23.152V25.2735H20.4346L20.4342 20.9073H23.2204C24.055 20.8925 24.8198 20.4385 25.2328 19.7128C25.6455 18.9872 25.6455 18.0974 25.2328 17.3717C24.8198 16.646 24.055 16.192 23.2204 16.1773H20.4364L20.436 9.52682ZM9.47756 21.418C9.47756 21.0066 9.14431 20.6731 8.73308 20.6731C8.32186 20.6731 7.98824 21.0066 7.98824 21.418V30.2961H7.23415C6.82293 30.2961 6.48967 29.9627 6.48967 29.5512V20.6472C6.48967 19.8568 6.80335 19.0986 7.36199 18.54C7.92062 17.981 8.67803 17.6672 9.46799 17.6672H23.2233C23.6966 17.6808 24.0727 18.0686 24.0727 18.5422C24.0727 19.0154 23.6966 19.4032 23.2233 19.4169H19.714C19.7067 19.4169 19.7 19.4124 19.6926 19.4124C19.6852 19.4124 19.6786 19.4169 19.6712 19.4169H16.121C15.7098 19.4169 15.3765 19.7507 15.3765 20.1621V41.5085H13.1719V30.6186C13.1719 30.2072 12.8382 29.8733 12.427 29.8733C12.0158 29.8733 11.6825 30.2072 11.6825 30.6186V41.5085H9.47789L9.47756 21.418Z" fill="url(#paint0_linear_5944_22777)"/>
<defs>
<linearGradient id="paint0_linear_5944_22777" x1="37.6624" y1="32.7757" x2="37.6624" y2="39.9855" gradientUnits="userSpaceOnUse">
<stop stop-color="#ED3040"/>
<stop offset="1" stop-color="#2D23F4"/>
</linearGradient>
</defs>
</svg>
