<svg width="50" height="50" viewBox="0 0 50 50" fill="none" xmlns="http://www.w3.org/2000/svg">
<path d="M32.9978 44.4997H7.62788C6.1729 44.4997 5 43.3295 5 41.8985V8.10113C5 6.66096 6.18216 5.5 7.62788 5.5H33.0068C34.4617 5.5 35.6346 6.67013 35.6346 8.10113V14.5097C35.6346 14.7619 35.4344 14.9597 35.18 14.9597C34.9252 14.9597 34.7253 14.7616 34.7253 14.5097V8.10113C34.7253 7.16495 33.9525 6.40001 33.0067 6.40001H7.62785C6.68204 6.40001 5.90923 7.165 5.90923 8.10113V41.8897C5.90923 42.8259 6.68209 43.5908 7.62785 43.5908H33.0067C33.9525 43.5908 34.7253 42.8258 34.7253 41.8897V35.4363C34.7253 35.1841 34.9255 34.9863 35.18 34.9863C35.4348 34.9863 35.6346 35.1844 35.6346 35.4363V41.8897C35.6346 43.3299 34.4525 44.5 32.9975 44.5L32.9978 44.4997Z" fill="url(#paint0_linear_5944_22767)"/>
<path d="M11.7563 32.6183C10.1833 32.6183 8.90092 31.3493 8.90092 29.792V18.1543C8.90092 17.9021 9.10112 17.7042 9.35557 17.7042C9.61033 17.7042 9.81022 17.9024 9.81022 18.1543V29.792C9.81022 30.8541 10.683 31.718 11.756 31.718C12.829 31.718 13.7018 30.8541 13.7018 29.792L13.7021 18.1543C13.7021 17.9021 13.9023 17.7042 14.1568 17.7042C14.4115 17.7042 14.6114 17.9024 14.6114 18.1543V29.792C14.6206 31.3493 13.3385 32.6183 11.7563 32.6183Z" fill="url(#paint1_linear_5944_22767)"/>
<path d="M15.0205 18.6041H8.49182C8.23705 18.6041 8.03717 18.406 8.03717 18.1541V15.8318C8.03717 15.5796 8.23736 15.3818 8.49182 15.3818H15.0205C15.2753 15.3818 15.4752 15.5799 15.4752 15.8318V18.1541C15.4752 18.3969 15.2753 18.6041 15.0205 18.6041ZM8.94649 17.7038H14.566V16.2818H8.94649V17.7038Z" fill="url(#paint2_linear_5944_22767)"/>
<path d="M14.1661 27.605H9.35568C9.10091 27.605 8.90103 27.4068 8.90103 27.155C8.90103 26.9028 9.10122 26.705 9.35568 26.705H14.1661C14.4209 26.705 14.6207 26.9031 14.6207 27.155C14.6207 27.4068 14.4117 27.605 14.1661 27.605ZM14.1661 23.6176H9.35568C9.10091 23.6176 8.90103 23.4195 8.90103 23.1676C8.90103 22.9154 9.10122 22.7176 9.35568 22.7176H14.1661C14.4209 22.7176 14.6207 22.9158 14.6207 23.1676C14.6207 23.4195 14.4117 23.6176 14.1661 23.6176Z" fill="url(#paint3_linear_5944_22767)"/>
<path d="M12.9567 21.4758C12.6931 21.4758 12.4475 21.4127 12.2384 21.3499C12.0655 21.305 11.8929 21.2597 11.7565 21.2597C11.6201 21.2597 11.4475 21.3046 11.2746 21.3499C11.0563 21.4039 10.8107 21.4758 10.5563 21.4758C10.3015 21.4758 10.0471 21.4127 9.83799 21.3499C9.66508 21.305 9.49249 21.2597 9.35606 21.2597C9.1013 21.2597 8.90142 21.0616 8.90142 20.8097C8.90142 20.5575 9.10161 20.3597 9.35606 20.3597C9.61971 20.3597 9.86528 20.4228 10.0744 20.4856C10.2473 20.5305 10.4199 20.5758 10.5563 20.5758C10.6927 20.5758 10.8653 20.5308 11.0382 20.4856C11.2565 20.4316 11.5021 20.3597 11.7565 20.3597C12.0113 20.3597 12.2657 20.4228 12.4748 20.4856C12.6477 20.5305 12.8203 20.5758 12.9567 20.5758C13.0932 20.5758 13.2658 20.5308 13.4387 20.4856C13.6569 20.4316 13.9025 20.3597 14.157 20.3597C14.4117 20.3597 14.6116 20.5578 14.6116 20.8097C14.6116 21.0619 14.4114 21.2597 14.157 21.2597C14.0205 21.2597 13.8479 21.3046 13.675 21.3499C13.466 21.413 13.2204 21.4758 12.9567 21.4758Z" fill="url(#paint4_linear_5944_22767)"/>
<path d="M19.9311 17.3982H18.0034C17.7487 17.3982 17.5488 17.2001 17.5488 16.9482C17.5488 16.696 17.749 16.4982 18.0034 16.4982H19.9311C20.1859 16.4982 20.3858 16.6964 20.3858 16.9482C20.3858 17.2001 20.1767 17.3982 19.9311 17.3982Z" fill="url(#paint5_linear_5944_22767)"/>
<path d="M19.9311 21.9163H18.0034C17.7487 21.9163 17.5488 21.7182 17.5488 21.4663C17.5488 21.2142 17.749 21.0163 18.0034 21.0163H19.9311C20.1859 21.0163 20.3858 21.2145 20.3858 21.4663C20.3858 21.7182 20.1767 21.9163 19.9311 21.9163Z" fill="url(#paint6_linear_5944_22767)"/>
<path d="M19.9311 26.4353H18.0034C17.7487 26.4353 17.5488 26.2371 17.5488 25.9852C17.5488 25.7331 17.749 25.5352 18.0034 25.5352H19.9311C20.1859 25.5352 20.3858 25.7334 20.3858 25.9852C20.3858 26.2371 20.1767 26.4353 19.9311 26.4353Z" fill="url(#paint7_linear_5944_22767)"/>
<path d="M23.5503 30.9445H17.9943C17.7396 30.9445 17.5397 30.7464 17.5397 30.4945C17.5397 30.2423 17.7399 30.0445 17.9943 30.0445H23.5503C23.805 30.0445 24.0049 30.2427 24.0049 30.4945C24.0049 30.7464 23.8047 30.9445 23.5503 30.9445Z" fill="url(#paint8_linear_5944_22767)"/>
<path d="M30.1519 35.4626H10.4738C10.2191 35.4626 10.0192 35.2645 10.0192 35.0126C10.0192 34.7605 10.2194 34.5626 10.4738 34.5626H30.1519C30.4066 34.5626 30.6065 34.7608 30.6065 35.0126C30.6065 35.2645 30.3971 35.4626 30.1519 35.4626Z" fill="url(#paint9_linear_5944_22767)"/>
<path d="M30.1519 39.9808H10.4738C10.2191 39.9808 10.0192 39.7826 10.0192 39.5307C10.0192 39.2786 10.2194 39.0807 10.4738 39.0807H30.1519C30.4066 39.0807 30.6065 39.2789 30.6065 39.5307C30.6065 39.7826 30.3971 39.9808 30.1519 39.9808Z" fill="url(#paint10_linear_5944_22767)"/>
<path d="M23.4869 12.8801H8.49206C8.2373 12.8801 8.03742 12.682 8.03742 12.4301C8.03742 12.1779 8.23761 11.9801 8.49206 11.9801H23.4869C23.7417 11.9801 23.9416 12.1782 23.9416 12.4301C23.9416 12.682 23.7414 12.8801 23.4869 12.8801Z" fill="url(#paint11_linear_5944_22767)"/>
<path d="M32.1344 9.65795H8.49206C8.2373 9.65795 8.03742 9.4598 8.03742 9.20793C8.03742 8.95576 8.23761 8.75791 8.49206 8.75791H32.1344C32.3892 8.75791 32.5891 8.95607 32.5891 9.20793C32.5891 9.4601 32.38 9.65795 32.1344 9.65795Z" fill="url(#paint12_linear_5944_22767)"/>
<path d="M30.2794 30.8095C27.0968 30.8095 23.9867 29.1715 22.2865 26.255C21.059 24.1488 20.7315 21.6917 21.368 19.3336C22.0044 16.9843 23.5321 15.0134 25.66 13.7981C27.7879 12.5831 30.2702 12.259 32.6525 12.889C35.026 13.5189 37.0172 15.031 38.245 17.1373C40.7818 21.4936 39.2726 27.0828 34.8715 29.5942C33.4257 30.4135 31.8432 30.8096 30.2794 30.8096V30.8095ZM26.1147 14.5724C24.1958 15.6706 22.823 17.4437 22.25 19.5586C21.677 21.6737 21.9683 23.8971 23.0775 25.7961C24.6144 28.4334 27.406 29.9002 30.2795 29.9002C31.6888 29.9002 33.1165 29.5491 34.4169 28.802C38.3814 26.5337 39.7453 21.5026 37.4541 17.5783C36.3447 15.679 34.5533 14.3202 32.4166 13.753C30.2703 13.1862 28.0332 13.4745 26.1147 14.5723L26.1147 14.5724Z" fill="url(#paint13_linear_5944_22767)"/>
<path d="M41.318 44.4997C40.4905 44.4997 39.6904 44.0767 39.2447 43.3205L33.5888 33.6178C33.4615 33.4017 33.5342 33.1316 33.7525 33.0057L38.4083 30.3414C38.5083 30.2783 38.6358 30.2695 38.7538 30.2965C38.8722 30.3235 38.9721 30.4045 39.0267 30.5034L44.6826 40.2061C45.3375 41.3401 44.9463 42.7894 43.8098 43.4372L42.5093 44.1843C42.1366 44.4004 41.7273 44.4997 41.318 44.4997ZM34.6072 33.5549L40.036 42.8621C40.2361 43.1949 40.5544 43.438 40.936 43.546C41.318 43.645 41.7181 43.6001 42.0636 43.4019L43.3641 42.6548C43.7004 42.4566 43.946 42.1417 44.0551 41.7639C44.1551 41.3858 44.1097 40.9898 43.9095 40.6478L38.4807 31.3406L34.6072 33.5549Z" fill="url(#paint14_linear_5944_22767)"/>
<path d="M34.9804 33.2751C34.8259 33.2751 34.6714 33.1941 34.5895 33.05L32.8433 30.071C32.7161 29.8549 32.7887 29.5849 33.007 29.4589C33.2253 29.333 33.507 29.4049 33.6254 29.621L35.3621 32.6003C35.4893 32.8163 35.4167 33.0864 35.1984 33.2123C35.1349 33.2572 35.0531 33.2751 34.9804 33.2751ZM37.6445 31.7452C37.49 31.7452 37.3355 31.6642 37.2536 31.52L35.5169 28.5407C35.3897 28.3246 35.4623 28.0546 35.6806 27.9286C35.8989 27.8027 36.1806 27.8746 36.299 28.0907L38.0357 31.07C38.1629 31.286 38.0903 31.5561 37.872 31.682C37.7993 31.727 37.7264 31.7452 37.6445 31.7452Z" fill="url(#paint15_linear_5944_22767)"/>
<path d="M40.5001 41.6192C40.3456 41.6192 40.1911 41.5382 40.1093 41.394L36.6628 35.4989C36.5355 35.2829 36.6082 35.0128 36.8265 34.8869C37.0447 34.7609 37.3265 34.8328 37.4448 35.0489L40.8821 40.9443C41.0093 41.1604 40.9366 41.4305 40.7184 41.5564C40.6546 41.6013 40.5728 41.6192 40.5001 41.6192Z" fill="url(#paint16_linear_5944_22767)"/>
<path d="M42.1919 40.6561C42.0374 40.6561 41.8829 40.575 41.8011 40.4309L38.3638 34.5355C38.2366 34.3194 38.3093 34.0494 38.5275 33.9234C38.7458 33.7975 39.0275 33.8694 39.1459 34.0855L42.5831 39.9809C42.7104 40.1969 42.6377 40.467 42.4194 40.5929C42.3465 40.6382 42.2646 40.6561 42.1919 40.6561Z" fill="url(#paint17_linear_5944_22767)"/>
<path d="M30.2794 28.7297C29.661 28.7297 29.0426 28.6487 28.4243 28.4866C26.5873 28.0005 25.0597 26.8395 24.1143 25.2103C22.1593 21.8529 23.323 17.5418 26.7149 15.6065C30.1069 13.6714 34.4623 14.8233 36.4175 18.1807C37.3633 19.8099 37.6177 21.7001 37.1269 23.5181C36.6358 25.3363 35.4629 26.8485 33.8169 27.7842C32.7258 28.4057 31.5071 28.7295 30.2797 28.7295L30.2794 28.7297ZM30.2521 15.562C29.1972 15.562 28.1334 15.823 27.1604 16.3811C24.205 18.0731 23.1866 21.8265 24.896 24.7605C25.7235 26.1825 27.0601 27.1908 28.6607 27.6227C30.261 28.0457 31.9251 27.8296 33.362 27.0106C34.7986 26.1916 35.8173 24.8685 36.2536 23.2842C36.6902 21.7002 36.4627 20.0531 35.6353 18.6308C34.4804 16.6599 32.3982 15.5617 30.2522 15.5617L30.2521 15.562Z" fill="url(#paint18_linear_5944_22767)"/>
<defs>
<linearGradient id="paint0_linear_5944_22767" x1="37.6624" y1="33.4237" x2="37.6624" y2="41.2343" gradientUnits="userSpaceOnUse">
<stop stop-color="#ED3040"/>
<stop offset="1" stop-color="#2D23F4"/>
</linearGradient>
<linearGradient id="paint1_linear_5944_22767" x1="37.6624" y1="33.4237" x2="37.6624" y2="41.2343" gradientUnits="userSpaceOnUse">
<stop stop-color="#ED3040"/>
<stop offset="1" stop-color="#2D23F4"/>
</linearGradient>
<linearGradient id="paint2_linear_5944_22767" x1="37.6624" y1="33.4237" x2="37.6624" y2="41.2343" gradientUnits="userSpaceOnUse">
<stop stop-color="#ED3040"/>
<stop offset="1" stop-color="#2D23F4"/>
</linearGradient>
<linearGradient id="paint3_linear_5944_22767" x1="37.6624" y1="33.4237" x2="37.6624" y2="41.2343" gradientUnits="userSpaceOnUse">
<stop stop-color="#ED3040"/>
<stop offset="1" stop-color="#2D23F4"/>
</linearGradient>
<linearGradient id="paint4_linear_5944_22767" x1="37.6624" y1="33.4237" x2="37.6624" y2="41.2343" gradientUnits="userSpaceOnUse">
<stop stop-color="#ED3040"/>
<stop offset="1" stop-color="#2D23F4"/>
</linearGradient>
<linearGradient id="paint5_linear_5944_22767" x1="37.6624" y1="33.4237" x2="37.6624" y2="41.2343" gradientUnits="userSpaceOnUse">
<stop stop-color="#ED3040"/>
<stop offset="1" stop-color="#2D23F4"/>
</linearGradient>
<linearGradient id="paint6_linear_5944_22767" x1="37.6624" y1="33.4237" x2="37.6624" y2="41.2343" gradientUnits="userSpaceOnUse">
<stop stop-color="#ED3040"/>
<stop offset="1" stop-color="#2D23F4"/>
</linearGradient>
<linearGradient id="paint7_linear_5944_22767" x1="37.6624" y1="33.4237" x2="37.6624" y2="41.2343" gradientUnits="userSpaceOnUse">
<stop stop-color="#ED3040"/>
<stop offset="1" stop-color="#2D23F4"/>
</linearGradient>
<linearGradient id="paint8_linear_5944_22767" x1="37.6624" y1="33.4237" x2="37.6624" y2="41.2343" gradientUnits="userSpaceOnUse">
<stop stop-color="#ED3040"/>
<stop offset="1" stop-color="#2D23F4"/>
</linearGradient>
<linearGradient id="paint9_linear_5944_22767" x1="37.6624" y1="33.4237" x2="37.6624" y2="41.2343" gradientUnits="userSpaceOnUse">
<stop stop-color="#ED3040"/>
<stop offset="1" stop-color="#2D23F4"/>
</linearGradient>
<linearGradient id="paint10_linear_5944_22767" x1="37.6624" y1="33.4237" x2="37.6624" y2="41.2343" gradientUnits="userSpaceOnUse">
<stop stop-color="#ED3040"/>
<stop offset="1" stop-color="#2D23F4"/>
</linearGradient>
<linearGradient id="paint11_linear_5944_22767" x1="37.6624" y1="33.4237" x2="37.6624" y2="41.2343" gradientUnits="userSpaceOnUse">
<stop stop-color="#ED3040"/>
<stop offset="1" stop-color="#2D23F4"/>
</linearGradient>
<linearGradient id="paint12_linear_5944_22767" x1="37.6624" y1="33.4237" x2="37.6624" y2="41.2343" gradientUnits="userSpaceOnUse">
<stop stop-color="#ED3040"/>
<stop offset="1" stop-color="#2D23F4"/>
</linearGradient>
<linearGradient id="paint13_linear_5944_22767" x1="37.6624" y1="33.4237" x2="37.6624" y2="41.2343" gradientUnits="userSpaceOnUse">
<stop stop-color="#ED3040"/>
<stop offset="1" stop-color="#2D23F4"/>
</linearGradient>
<linearGradient id="paint14_linear_5944_22767" x1="37.6624" y1="33.4237" x2="37.6624" y2="41.2343" gradientUnits="userSpaceOnUse">
<stop stop-color="#ED3040"/>
<stop offset="1" stop-color="#2D23F4"/>
</linearGradient>
<linearGradient id="paint15_linear_5944_22767" x1="37.6624" y1="33.4237" x2="37.6624" y2="41.2343" gradientUnits="userSpaceOnUse">
<stop stop-color="#ED3040"/>
<stop offset="1" stop-color="#2D23F4"/>
</linearGradient>
<linearGradient id="paint16_linear_5944_22767" x1="37.6624" y1="33.4237" x2="37.6624" y2="41.2343" gradientUnits="userSpaceOnUse">
<stop stop-color="#ED3040"/>
<stop offset="1" stop-color="#2D23F4"/>
</linearGradient>
<linearGradient id="paint17_linear_5944_22767" x1="37.6624" y1="33.4237" x2="37.6624" y2="41.2343" gradientUnits="userSpaceOnUse">
<stop stop-color="#ED3040"/>
<stop offset="1" stop-color="#2D23F4"/>
</linearGradient>
<linearGradient id="paint18_linear_5944_22767" x1="37.6624" y1="33.4237" x2="37.6624" y2="41.2343" gradientUnits="userSpaceOnUse">
<stop stop-color="#ED3040"/>
<stop offset="1" stop-color="#2D23F4"/>
</linearGradient>
</defs>
</svg>
