<svg width="50" height="50" viewBox="0 0 50 50" fill="none" xmlns="http://www.w3.org/2000/svg">
<path d="M25.266 31.8667C27.2643 31.8667 28.8893 30.2393 28.8893 28.2395C28.8893 26.2384 27.2637 24.6113 25.266 24.6113C23.2684 24.6113 21.6427 26.2387 21.6427 28.2395C21.6423 30.2399 23.2681 31.8667 25.266 31.8667ZM25.266 25.6487C26.6932 25.6487 27.8537 26.8104 27.8537 28.2395C27.8537 29.6682 26.6932 30.8282 25.266 30.8282C23.8388 30.8282 22.6783 29.6681 22.6783 28.2395C22.6783 26.8102 23.8388 25.6487 25.266 25.6487Z" fill="url(#paint0_linear_5944_22779)"/>
<path d="M40.3581 28.2397C40.3581 26.2386 38.7324 24.6116 36.7357 24.6116C34.7367 24.6116 33.1113 26.239 33.1113 28.2397C33.1113 30.2402 34.737 31.8669 36.7357 31.8669C38.7323 31.8669 40.3581 30.2401 40.3581 28.2397ZM34.1461 28.2397C34.1461 26.8101 35.3065 25.649 36.735 25.649C38.1605 25.649 39.321 26.8107 39.321 28.2397C39.321 29.6685 38.1605 30.8285 36.735 30.8285C35.3065 30.8285 34.1461 29.6684 34.1461 28.2397Z" fill="url(#paint1_linear_5944_22779)"/>
<path d="M25.266 32.367C23.3937 32.367 19.8561 33.2905 19.8561 36.7855L19.8545 37.2486C19.8528 37.9456 19.8512 38.7257 19.8813 39.5001C19.8912 39.7794 20.1199 40 20.3981 40H30.1323C30.4106 40 30.6405 39.7794 30.6508 39.5001C30.6799 38.7257 30.6789 37.9456 30.6759 37.2486L30.6749 36.7855C30.6743 33.2908 27.1376 32.367 25.2657 32.367H25.266ZM20.9017 38.9609C20.8885 38.3683 20.8918 37.7853 20.8918 37.251L20.8934 36.7852C20.8934 33.4436 25.088 33.4058 25.2663 33.4058C25.4446 33.4058 29.6391 33.4432 29.6391 36.7852V37.251C29.6408 37.7853 29.6408 38.3683 29.6289 38.9609H20.9017Z" fill="url(#paint2_linear_5944_22779)"/>
<path d="M36.7358 32.367C34.8636 32.367 31.326 33.2905 31.326 36.7855L31.3243 37.2486C31.3227 37.9456 31.321 38.7257 31.3505 39.5001C31.3604 39.7794 31.59 40 31.87 40H41.6024C41.8823 40 42.1093 39.7794 42.1193 39.5001C42.149 38.7257 42.1474 37.9456 42.1474 37.2486L42.1441 36.7855C42.1441 33.2908 38.6064 32.367 36.7361 32.367H36.7358ZM32.3715 38.9609C32.36 38.3683 32.361 37.7853 32.3616 37.251V36.7852C32.3616 33.4436 36.5562 33.4058 36.7362 33.4058C36.9129 33.4058 41.108 33.4432 41.108 36.7852L41.109 37.251C41.109 37.7853 41.112 38.3683 41.0987 38.9609H32.3715Z" fill="url(#paint3_linear_5944_22779)"/>
<path d="M43.4441 10H18.5561C17.6974 10 17.0005 10.6986 17.0005 11.5575V18.5692C17.3417 18.5009 17.6871 18.4334 18.0376 18.3681V11.5576C18.0376 11.2714 18.2692 11.0385 18.5561 11.0385H43.4441C43.7326 11.0385 43.9643 11.2714 43.9643 11.5576V28.3015C43.9643 28.5877 43.7326 28.8196 43.4441 28.8196H41.3366C41.2919 29.1803 41.2115 29.5278 41.0881 29.8587H43.4438C44.3025 29.8587 44.9993 29.1601 44.9993 28.3015L45 11.5576C45 10.698 44.3031 10.0001 43.4445 10.0001L43.4441 10Z" fill="url(#paint4_linear_5944_22779)"/>
<path d="M20.6628 28.8189H18.5556C18.2688 28.8189 18.0371 28.5871 18.0371 28.3008V25.0649C17.6751 25.1801 17.3217 25.2918 17.0001 25.3921V28.3012C17.0001 29.1598 17.697 29.8584 18.5556 29.8584H20.9114C20.7879 29.5278 20.7082 29.1797 20.6628 28.8189Z" fill="url(#paint5_linear_5944_22779)"/>
<path d="M32.1327 28.8189H29.8686C29.8239 29.1797 29.7435 29.5272 29.6201 29.8581H32.3791C32.256 29.5278 32.178 29.1797 32.1327 28.8189Z" fill="url(#paint6_linear_5944_22779)"/>
<path d="M22.5112 20.5984C22.3213 19.5705 21.496 18.8808 20.5113 19.012C17.3578 19.4416 13.025 20.5189 12.9816 20.5292C12.9091 20.5484 12.839 20.5835 12.7797 20.6292C12.7728 20.6368 11.9237 21.3093 10.8993 21.3093C9.87713 21.3093 9.02867 20.6368 9.0207 20.6309C8.88702 20.5232 8.70403 20.4891 8.54056 20.5381C7.22687 20.9419 5.0022 22.3365 5.0022 25.0024L5.0012 25.5358C4.99227 28.6247 4.97936 32.7881 7.11338 33.3311C7.5366 35.6558 8.11831 38.5778 8.11831 38.5778C8.25199 39.244 8.40255 39.9989 9.27783 39.9989H12.523C13.3982 39.9989 13.5491 39.2413 13.6819 38.5745C13.6819 38.5745 15.7441 28.2908 15.981 24.6214C17.1931 24.2458 19.8886 23.4038 21.1907 22.9056C22.3171 22.474 22.6648 21.4351 22.5113 20.5981L22.5112 20.5984ZM13.1973 21.6007C13.2654 21.9336 13.324 22.304 13.3405 22.6521C13.1245 22.4192 12.8594 22.1784 12.5553 21.9561C12.8356 21.8256 13.0474 21.7024 13.1973 21.6007ZM8.60103 21.6206C8.60434 21.6196 8.61096 21.6156 8.61427 21.6146C8.7635 21.7123 8.98951 21.8352 9.24762 21.9535C8.94318 22.1761 8.67747 22.4192 8.46073 22.6521C8.4786 22.3106 8.53419 21.9482 8.60103 21.6206ZM15.3309 23.7359C15.1201 23.7999 14.9742 23.9913 14.9652 24.2113C14.8653 26.8921 12.6655 38.3721 12.6655 38.3721C12.6172 38.6156 12.5553 38.921 12.5547 38.9588H9.29854C9.24593 38.8885 9.18404 38.6182 9.13606 38.3731C9.13606 38.3731 8.5143 35.2487 8.06922 32.7806L7.61357 29.689C7.57253 29.4058 7.31377 29.2077 7.02357 29.2525C6.74198 29.2935 6.54509 29.5579 6.58778 29.8418L6.90015 31.9611C6.02661 30.8328 6.03254 27.4935 6.03779 25.5401L6.03879 25.0025C6.03879 23.6808 6.74394 22.8171 7.44846 22.2789C7.3836 22.9497 7.40114 23.7252 7.7284 24.2005C7.82601 24.3416 7.98618 24.4241 8.15427 24.4241H8.17776C8.35446 24.4165 8.51627 24.3164 8.60463 24.1631C8.61356 24.1488 9.42162 22.7695 10.7316 22.3289C10.7892 22.3316 10.8418 22.3465 10.9001 22.3465C10.9593 22.3465 11.0093 22.3306 11.0668 22.3263C12.3795 22.7668 13.1893 24.1488 13.1971 24.163C13.2855 24.3164 13.4473 24.4168 13.6257 24.4241H13.6475C13.8173 24.4241 13.9774 24.3416 14.0744 24.2005C14.5912 23.4502 14.3427 21.9486 14.2028 21.305C15.6564 20.9644 18.474 20.3387 20.7496 20.033C21.1633 20.033 21.4247 20.4235 21.4915 20.7859C21.5272 20.982 21.5848 21.6428 20.8214 21.9357C19.4035 22.4796 16.2613 23.4505 15.3308 23.736L15.3309 23.7359Z" fill="url(#paint7_linear_5944_22779)"/>
<path d="M8.96003 19.9513C9.14435 20.053 9.36836 20.0338 9.53348 19.9056C9.69695 19.7761 9.76677 19.5608 9.71184 19.3601C9.40145 18.2309 9.37432 17.1881 9.38028 16.7276C9.75387 16.4695 10.0302 16.2188 10.2347 16.0018C10.8442 16.6978 11.7651 17.3388 12.266 17.6634C12.0658 18.3829 11.8276 19.0609 11.6509 19.5316C11.5801 19.7218 11.6257 19.9371 11.7707 20.0815C11.8696 20.1799 12.0023 20.2329 12.1357 20.2329C12.1989 20.2329 12.2597 20.2223 12.32 20.2004C13.8779 19.6095 14.9252 18.1003 14.9252 16.4421C14.9252 14.2217 13.1198 12.4151 10.9007 12.4151C8.68368 12.4151 6.87866 14.2218 6.87866 16.4421C6.87833 17.8933 7.67617 19.2378 8.96003 19.9513ZM10.9001 13.4518C12.5469 13.4518 13.8858 14.7921 13.8858 16.4407C13.8858 17.1999 13.6049 17.9035 13.1198 18.4368C13.2071 18.1513 13.2922 17.8535 13.3689 17.5523C13.4248 17.3301 13.3272 17.0969 13.1303 16.9789C12.3736 16.5265 11.0463 15.5622 10.7138 14.8961C10.6281 14.7218 10.4497 14.6142 10.2562 14.6115H10.2486C10.0586 14.6115 9.88126 14.7192 9.79092 14.8871C9.78762 14.8921 9.48583 15.442 8.5954 16.0008C8.45543 16.0883 8.36543 16.238 8.35285 16.4016C8.3502 16.4444 8.30288 17.1241 8.41307 18.0781C8.09376 17.5985 7.91375 17.0317 7.91375 16.4411C7.91441 14.7918 9.25483 13.4518 10.9001 13.4518Z" fill="url(#paint8_linear_5944_22779)"/>
<path d="M10.8999 23.4426C10.5889 23.4426 10.3347 23.6957 10.3347 24.0084C10.3347 24.3211 10.5892 24.5741 10.8999 24.5741C11.2139 24.5741 11.4667 24.3211 11.4667 24.0084C11.4667 23.6957 11.2143 23.4426 10.8999 23.4426Z" fill="url(#paint9_linear_5944_22779)"/>
<path d="M10.8999 25.326C10.5889 25.326 10.3347 25.5791 10.3347 25.8918C10.3347 26.2045 10.5892 26.4576 10.8999 26.4576C11.2139 26.4576 11.4667 26.2045 11.4667 25.8918C11.4667 25.5791 11.2143 25.326 10.8999 25.326Z" fill="url(#paint10_linear_5944_22779)"/>
<defs>
<linearGradient id="paint0_linear_5944_22779" x1="0" y1="0" x2="0" y2="1" gradientUnits="objectBoundingBox">
<stop stop-color="#ED3040"/>
<stop offset="1" stop-color="#2D23F4"/>
</linearGradient>
<linearGradient id="paint1_linear_5944_22779" x1="0" y1="0" x2="0" y2="1" gradientUnits="objectBoundingBox">
<stop stop-color="#ED3040"/>
<stop offset="1" stop-color="#2D23F4"/>
</linearGradient>
<linearGradient id="paint2_linear_5944_22779" x1="0" y1="0" x2="0" y2="1" gradientUnits="objectBoundingBox">
<stop stop-color="#ED3040"/>
<stop offset="1" stop-color="#2D23F4"/>
</linearGradient>
<linearGradient id="paint3_linear_5944_22779" x1="0" y1="0" x2="0" y2="1" gradientUnits="objectBoundingBox">
<stop stop-color="#ED3040"/>
<stop offset="1" stop-color="#2D23F4"/>
</linearGradient>
<linearGradient id="paint4_linear_5944_22779" x1="0" y1="0" x2="0" y2="1" gradientUnits="objectBoundingBox">
<stop stop-color="#ED3040"/>
<stop offset="1" stop-color="#2D23F4"/>
</linearGradient>
<linearGradient id="paint5_linear_5944_22779" x1="0" y1="0" x2="0" y2="1" gradientUnits="objectBoundingBox">
<stop stop-color="#ED3040"/>
<stop offset="1" stop-color="#2D23F4"/>
</linearGradient>
<linearGradient id="paint6_linear_5944_22779" x1="0" y1="0" x2="0" y2="1" gradientUnits="objectBoundingBox">
<stop stop-color="#ED3040"/>
<stop offset="1" stop-color="#2D23F4"/>
</linearGradient>
<linearGradient id="paint7_linear_5944_22779" x1="0" y1="0" x2="0" y2="1" gradientUnits="objectBoundingBox">
<stop stop-color="#ED3040"/>
<stop offset="1" stop-color="#2D23F4"/>
</linearGradient>
<linearGradient id="paint8_linear_5944_22779" x1="0" y1="0" x2="0" y2="1" gradientUnits="objectBoundingBox">
<stop stop-color="#ED3040"/>
<stop offset="1" stop-color="#2D23F4"/>
</linearGradient>
<linearGradient id="paint9_linear_5944_22779" x1="0" y1="0" x2="0" y2="1" gradientUnits="objectBoundingBox">
<stop stop-color="#ED3040"/>
<stop offset="1" stop-color="#2D23F4"/>
</linearGradient>
<linearGradient id="paint10_linear_5944_22779" x1="0" y1="0" x2="0" y2="1" gradientUnits="objectBoundingBox">
<stop stop-color="#ED3040"/>
<stop offset="1" stop-color="#2D23F4"/>
</linearGradient>
</defs>
</svg>
