<svg width="50" height="50" viewBox="0 0 50 50" fill="none" xmlns="http://www.w3.org/2000/svg">
<path d="M37.4139 10.1577C30.6649 2.34735 18.6459 5.692 18.2008 5.82106C16.3909 6.15335 15.256 6.89992 14.828 8.04158C14.0951 9.99648 15.8622 12.2441 15.9151 12.309C16.0222 12.4595 16.0532 12.6752 15.9975 12.8705C15.9515 13.0335 15.8237 13.2577 15.4827 13.4011C12.5882 14.6147 12.3669 16.9144 12.65 17.9459C12.8296 18.6615 11.7475 19.9921 9.89292 21.3365C9.18321 21.8514 8.86194 22.7024 9.0554 23.557C9.20213 24.201 9.61053 24.7176 10.171 25.001C9.96752 25.8292 10.2763 26.5455 10.6651 27.0372C10.2985 27.5571 10.1528 28.0933 10.2328 28.6377C10.297 29.0752 10.4994 29.4371 10.7326 29.7216C10.3652 30.0061 10.0753 30.3894 9.90326 30.8401C9.59197 31.6494 9.70335 32.5558 10.1996 33.2645C10.8839 34.235 11.8439 34.9406 13.0544 35.3599C13.6999 35.5834 14.3318 35.7777 14.9476 35.9439C15.0026 36.0327 15.0793 36.11 15.1757 36.1674C16.8236 37.1543 16.8983 41.6414 16.5591 44.2384C16.5295 44.4655 16.6177 44.6923 16.7937 44.8406C16.9165 44.9444 17.071 45 17.2278 45C17.2952 45 17.3627 44.99 17.4287 44.9686C23.1738 43.1841 33.9778 44.462 34.0866 44.477C34.365 44.5133 34.6431 44.3618 34.7698 44.1086C34.8984 43.8555 34.8523 43.5478 34.6545 43.3421C31.0346 39.5574 31.7001 36.0291 31.7411 35.8006C31.8318 34.7495 32.0788 33.733 32.4262 32.7693C32.4326 32.7561 32.4362 32.7429 32.4412 32.7297C33.9002 28.7293 37.1085 25.6331 38.2384 24.6316C39.1427 23.8297 39.836 22.8938 40.2987 21.852C42.8537 16.115 37.6212 10.3807 37.4138 10.158L37.4139 10.1577ZM32.5706 42.967C29.4498 42.6925 22.6894 42.2846 17.9992 43.4163C18.1328 41.7434 18.2166 38.485 17.1403 36.4324C23.7058 37.5986 28.3229 35.6034 30.6159 34.2036C30.5202 34.6625 30.4513 35.1296 30.4099 35.6034C30.3771 35.7613 29.7016 39.1446 32.5708 42.967L32.5706 42.967ZM39.0676 21.305C38.6824 22.1703 38.1026 22.9507 37.3433 23.6242C36.1541 24.6793 32.8026 27.9173 31.2183 32.1327C30.2401 32.9535 23.9587 37.7086 13.4976 34.0869C12.5597 33.7628 11.8219 33.2251 11.3046 32.4896C11.0625 32.1441 11.0115 31.7181 11.1639 31.3216C11.3121 30.9333 11.6259 30.6588 12.0986 30.55C12.3785 30.4958 12.5941 30.2705 12.6362 29.9892C12.6783 29.7061 12.538 29.4283 12.2864 29.295C12.1503 29.2226 11.6309 28.8657 11.5684 28.4414C11.5281 28.1633 11.6927 27.8378 12.0582 27.4759C12.1982 27.3362 12.2706 27.1419 12.256 26.9465C12.2403 26.749 12.1393 26.5682 11.9793 26.4516C11.8887 26.3874 11.1147 25.7902 11.6591 24.926C11.7834 24.727 11.7309 24.4678 11.6263 24.2574C11.5217 24.0478 11.25 23.8963 11.0162 23.8759C10.5285 23.7865 10.4004 23.3811 10.3722 23.2591C10.345 23.1376 10.2858 22.7172 10.686 22.427C13.2017 20.6036 14.3027 18.9853 13.9575 17.6108C13.9089 17.4151 13.5491 15.6741 16.0055 14.6426C16.6571 14.3695 17.1147 13.8721 17.2961 13.2403C17.4642 12.6524 17.3596 12.0132 16.9937 11.4994C16.9798 11.4823 15.6318 9.74198 16.0926 8.51334C16.3422 7.84626 17.1337 7.38666 18.5102 7.13073C18.5645 7.11504 21.1995 6.38056 24.6188 6.38056C28.4044 6.38056 33.1488 7.28189 36.41 11.0552C36.4575 11.1076 41.2648 16.3704 39.0678 21.3052L39.0676 21.305Z" fill="url(#paint0_linear_5944_22765)"/>
<path d="M32.4935 19.349L29.0856 18.1431C29.0924 18.0668 29.1084 17.9938 29.1084 17.9157C29.1084 16.4995 27.9539 15.3471 26.536 15.3471C26.4025 15.3471 26.2743 15.3667 26.1461 15.3863L25.4114 12.22C26.0797 11.7558 26.5203 10.9853 26.5203 10.1124C26.5203 8.69624 25.3665 7.5439 23.9484 7.5439C22.5308 7.54426 21.377 8.6966 21.377 10.1128C21.377 11.529 22.5308 12.6814 23.9488 12.6814C24.0106 12.6814 24.0688 12.6674 24.1295 12.6632L24.8934 15.9565C24.3304 16.4279 23.9642 17.1266 23.9642 17.9161C23.9642 19.3323 25.118 20.4846 26.536 20.4846C27.3953 20.4846 28.1532 20.0575 28.6208 19.409L32.2407 20.6896C32.2693 21.033 32.3631 21.3546 32.5138 21.6462L26.8075 24.3513C26.3513 23.6318 25.5527 23.1501 24.6388 23.1501C23.992 23.1501 23.4075 23.3979 22.9552 23.7929L20.0714 20.4554C20.3349 20.0522 20.4912 19.5733 20.4912 19.0571C20.4912 17.6409 19.3374 16.4886 17.9194 16.4886C16.5014 16.4886 15.3476 17.6409 15.3476 19.0571C15.3476 20.4733 16.5014 21.6256 17.9194 21.6256C18.331 21.6256 18.7148 21.5197 19.06 21.3472L22.1916 24.971C22.1184 25.2092 22.0673 25.457 22.0673 25.7187C22.0673 27.1342 23.2211 28.2872 24.6391 28.2872C26.0572 28.2872 27.211 27.1342 27.211 25.7187C27.211 25.6973 27.2053 25.677 27.2046 25.6556L33.4848 22.6785C33.8693 22.9074 34.3134 23.0475 34.7926 23.0475C36.2106 23.0475 37.365 21.8952 37.365 20.479C37.365 19.0628 36.2105 17.9104 34.7926 17.9104C33.7819 17.9101 32.9136 18.5005 32.4935 19.3491L32.4935 19.349ZM22.7256 10.1129C22.7256 9.43945 23.274 8.89179 23.9483 8.89179C24.6227 8.89179 25.171 9.43944 25.171 10.1129C25.171 10.7864 24.6227 11.3341 23.9483 11.3341C23.274 11.3341 22.7256 10.7865 22.7256 10.1129ZM26.5355 19.1373C25.8611 19.1373 25.3128 18.5897 25.3128 17.9161C25.3128 17.2426 25.8611 16.695 26.5355 16.695C27.2099 16.695 27.7582 17.2426 27.7582 17.9161C27.7586 18.5896 27.2102 19.1373 26.5355 19.1373ZM16.6964 19.0567C16.6964 18.3832 17.2447 17.8356 17.9191 17.8356C18.5935 17.8356 19.1418 18.3832 19.1418 19.0567C19.1418 19.7302 18.5935 20.2779 17.9191 20.2779C17.2451 20.2779 16.6964 19.7302 16.6964 19.0567ZM24.6388 26.9377C23.9644 26.9377 23.4161 26.3915 23.4161 25.718C23.4161 25.0445 23.9644 24.4968 24.6388 24.4968C25.3131 24.4968 25.8615 25.0445 25.8615 25.718C25.8615 26.3919 25.3132 26.9377 24.6388 26.9377ZM36.0142 20.4786C36.0142 21.1521 35.4659 21.6997 34.7922 21.6997C34.1186 21.6997 33.5702 21.1521 33.5702 20.4786C33.5702 19.8051 34.1186 19.2574 34.7922 19.2574C35.4659 19.2574 36.0142 19.8051 36.0142 20.4786Z" fill="url(#paint1_linear_5944_22765)"/>
<defs>
<linearGradient id="paint0_linear_5944_22765" x1="35.13" y1="33.6397" x2="35.13" y2="41.6506" gradientUnits="userSpaceOnUse">
<stop stop-color="#ED3040"/>
<stop offset="1" stop-color="#2D23F4"/>
</linearGradient>
<linearGradient id="paint1_linear_5944_22765" x1="35.13" y1="33.6397" x2="35.13" y2="41.6506" gradientUnits="userSpaceOnUse">
<stop stop-color="#ED3040"/>
<stop offset="1" stop-color="#2D23F4"/>
</linearGradient>
</defs>
</svg>
