<svg width="50" height="50" viewBox="0 0 50 50" fill="none" xmlns="http://www.w3.org/2000/svg">
<path d="M40.9097 25.6901C41.0694 25.7259 41.2354 25.7523 41.4057 25.7523C41.576 25.7523 41.7388 25.7259 41.8993 25.6901L43.5561 30.263C42.1746 30.875 40.6339 30.875 39.2555 30.263L40.9097 25.6901ZM41.4057 22.6878C41.9728 22.6878 42.4083 23.1215 42.4083 23.6553C42.4083 24.1891 41.9728 24.6176 41.4057 24.6176C40.8386 24.6176 40.3999 24.1898 40.3999 23.6553C40.3999 23.1212 40.8386 22.6878 41.4057 22.6878ZM13.7076 20.0218L23.4906 23.6327L33.269 20.0249L34.986 26.6552L23.4902 30.7506L11.9899 26.6548L13.7076 20.0218ZM23.4906 6.70661L40.8329 13.1065V16.0265L23.4906 22.4296L6.14553 16.0265V13.1065L23.4906 6.70661ZM23.4906 5.5L5 12.3225V16.811L12.6331 19.625L10.6297 27.3681L23.4899 31.9486L36.351 27.3681L34.3479 19.625L40.8331 17.2329V21.6449C39.9329 21.8941 39.2553 22.6952 39.2553 23.6554C39.2553 24.233 39.4994 24.7575 39.8906 25.1391L37.8112 30.8901L38.226 31.1209C40.1925 32.224 42.6135 32.224 44.58 31.1209L45 30.8901L42.915 25.1391C43.3062 24.7606 43.5507 24.2337 43.5507 23.6554C43.5507 22.6952 42.8788 21.8937 41.9778 21.6449L41.9771 12.3226L23.4906 5.5Z" fill="url(#paint0_linear_5944_22761)"/>
<path fill-rule="evenodd" clip-rule="evenodd" d="M23.2494 35.5853H26.4528V43.3567H23.2494V35.5853ZM36.1024 35.5669H39.5344V43.3722H36.1024L27.5951 42.4363V36.5031L36.1024 35.5669ZM10.1632 35.5669H13.5952L22.1025 36.5039V42.4364L13.5952 43.3723H10.1632V35.5669ZM9.02126 34.4384V44.5H13.6581L22.1025 43.5711V44.4844H27.5956V43.5711L36.0399 44.5H40.6768L40.6764 34.4384H36.0396L27.5952 35.3674V34.452H22.1025V35.3674L13.6581 34.4384H9.02126Z" fill="url(#paint1_linear_5944_22761)"/>
<defs>
<linearGradient id="paint0_linear_5944_22761" x1="37.6624" y1="33.4237" x2="37.6624" y2="41.2343" gradientUnits="userSpaceOnUse">
<stop stop-color="#ED3040"/>
<stop offset="1" stop-color="#2D23F4"/>
</linearGradient>
<linearGradient id="paint1_linear_5944_22761" x1="37.6624" y1="33.4237" x2="37.6624" y2="41.2343" gradientUnits="userSpaceOnUse">
<stop stop-color="#ED3040"/>
<stop offset="1" stop-color="#2D23F4"/>
</linearGradient>
</defs>
</svg>
