<svg width="50" height="50" viewBox="0 0 50 50" fill="none" xmlns="http://www.w3.org/2000/svg">
<path d="M18.7503 10.001C18.9103 10.001 19.07 9.93992 19.1922 9.81803L19.8171 9.19311C20.0612 8.94904 20.0612 8.55361 19.8171 8.30921C19.5731 8.06514 19.1776 8.06514 18.9332 8.30921L18.3083 8.93413C18.0642 9.17821 18.0642 9.57363 18.3083 9.81803C18.4305 9.93992 18.5905 10.001 18.7503 10.001Z" fill="url(#paint0_linear_5944_22757)"/>
<path d="M44.3752 5.00075H27.5004C26.8113 5.00075 26.2506 5.56148 26.2506 6.25058V22.5002C26.2506 23.1897 26.8116 23.7501 27.5004 23.7501H34.7924L34.7214 26.3198C34.2596 26.3527 33.827 26.5394 33.497 26.8694L32.7204 27.646L29.0477 30.2694L27.2535 26.3226C26.9087 25.5631 26.2611 24.9639 25.4768 24.6786L20.0003 22.6875V21.282C21.4883 20.5395 22.6018 19.1604 22.9804 17.5005H23.1252C24.1592 17.5005 25.0003 16.6594 25.0003 15.6255C25.0003 14.8188 24.4858 14.1359 23.7697 13.8717C24.1397 13.529 24.3751 13.0433 24.3751 12.5005V11.3056C24.3751 9.91893 23.9685 8.57637 23.1996 7.42332C22.2438 5.98867 20.5153 5.27134 18.8319 5.59288L17.7796 5.0669C17.6931 5.02317 17.5972 5.00053 17.5002 5.00053H16.379C12.8614 5.00053 10.0001 7.86214 10.0001 11.3797V13.1254C10.0001 13.4706 10.2795 13.7504 10.625 13.7504H11.8749C10.8409 13.7504 9.99977 14.5915 9.99977 15.6254C9.99977 16.6594 10.8409 17.5005 11.8749 17.5005H12.0197C12.3984 19.1603 13.5121 20.5395 15.0001 21.2819V22.6875L9.52341 24.6788C8.73907 24.9642 8.09151 25.5634 7.74662 26.3229L5.16841 31.9952C5.05676 32.2411 5 32.502 5 32.7708V38.7502C5 39.7841 5.84112 40.6252 6.87508 40.6252H7.94534L7.50432 44.3006C7.48292 44.4784 7.53905 44.6561 7.65753 44.7897C7.77569 44.9234 7.94627 45 8.12491 45H26.875C27.0539 45 27.2242 44.9234 27.3423 44.7897C27.4608 44.6561 27.5169 44.4777 27.4955 44.3006L26.7267 37.893C27.0942 38.302 27.5839 38.5684 28.1378 38.6336C28.2287 38.6438 28.3186 38.6491 28.4082 38.6491C28.9361 38.6491 29.441 38.467 29.8541 38.1231L36.0255 32.9805C36.0339 32.9736 36.0379 32.9637 36.0457 32.9566C36.0522 32.9507 36.0609 32.9488 36.0671 32.9423L38.8798 30.1297C39.639 29.3699 39.7063 28.164 39.0354 27.3245L38.2725 26.3708C38.2235 26.3094 38.1639 26.2592 38.1081 26.2049L37.9583 23.7502H44.3751C44.7206 23.7502 45 23.4705 45 23.1253C45 22.7801 44.7206 22.5004 44.3751 22.5004H37.882L37.5362 16.8261C37.4959 16.1525 36.9355 15.6253 36.2603 15.6253C35.5635 15.6253 35.0018 16.1711 34.9822 16.868L34.8265 22.5003H27.5002V6.24984H44.3749C44.7204 6.24984 44.9998 5.9701 44.9998 5.62492C44.9998 5.27974 44.7204 5 44.3749 5L44.3752 5.00075ZM20.6248 41.2507H16.2497C15.9042 41.2507 15.6248 41.5304 15.6248 41.8756C15.6248 42.2208 15.9042 42.5005 16.2497 42.5005H20.6248V43.7503L14.3749 43.7506V40.6257C15.064 40.6257 15.6247 40.065 15.6247 39.3759V36.251C15.6247 35.5616 15.0637 35.0012 14.3749 35.0012V31.9529L15.4885 27.4726C15.4919 27.4736 15.4954 27.4748 15.4991 27.4754L15.0029 32.4388C14.9914 32.5564 15.0131 32.6752 15.0658 32.7806L16.9409 36.5304C17.047 36.7419 17.2628 36.8756 17.4998 36.8756C17.7367 36.8756 17.9526 36.7419 18.059 36.5301L19.934 32.7803C19.9865 32.6749 20.0085 32.5561 19.997 32.4385L19.5008 27.4751C19.5045 27.4745 19.5079 27.4729 19.5113 27.4723L20.6247 31.9522L20.6248 41.2507ZM11.8746 36.2506H14.3746V39.3755H11.8746V36.2506ZM16.3071 25.3093L15.6763 25.9401L14.3327 24.2607L15.154 23.9621C15.3615 24.5414 15.774 25.0168 16.3071 25.3093ZM18.7349 32.3829L17.4995 34.8531L16.2642 32.3825L16.8495 26.5343L17.4995 25.8843L18.1499 26.5347L18.7349 32.3829ZM19.3226 25.9398L18.6917 25.309C19.2249 25.0166 19.6373 24.5411 19.8448 23.9618L20.6661 24.2604L19.3226 25.9398ZM23.1246 16.2505V15.0007C23.4695 15.0007 23.7495 15.2811 23.7495 15.6256C23.7495 15.9702 23.4695 16.2505 23.1246 16.2505ZM11.2494 12.5007V11.3799C11.2494 8.55183 13.5506 6.25066 16.3785 6.25066H17.352L18.4701 6.80984C18.6031 6.87651 18.757 6.89264 18.9009 6.85729C20.1424 6.54747 21.4496 7.05391 22.1589 8.11672C22.7906 9.06389 23.1246 10.1667 23.1246 11.3058V12.5008C23.1246 12.8454 22.8446 13.1257 22.4997 13.1257H21.6726L21.2368 12.0344C21.0123 11.474 20.5251 11.067 19.9336 10.9458C19.595 10.8757 19.2476 10.9067 18.9337 11.027C18.6292 10.5987 18.1587 10.3295 17.6343 10.2849C17.0881 10.235 16.5484 10.4431 16.1664 10.8475C15.4518 11.6014 14.1269 12.5008 11.8747 12.5008L11.2494 12.5007ZM11.2494 15.6256C11.2494 15.2811 11.5294 15.0007 11.8743 15.0007V16.2505C11.5298 16.2505 11.2494 15.9702 11.2494 15.6256ZM13.1245 16.2506V13.6548C15.0799 13.3756 16.3375 12.4837 17.0741 11.7065C17.1938 11.5803 17.3529 11.5139 17.5288 11.53C17.6233 11.5381 17.8011 11.5793 17.9254 11.7657L18.2294 12.2219C18.3333 12.3779 18.5017 12.479 18.6877 12.4977C18.8726 12.5172 19.0584 12.4499 19.1914 12.3178C19.322 12.1869 19.4984 12.1332 19.6827 12.1701C19.8638 12.2074 20.0074 12.3274 20.0756 12.4989L20.6689 13.9826C20.7644 14.2202 20.9939 14.3759 21.2495 14.3759H21.8744V16.2509C21.8744 18.6635 19.9115 20.6259 17.4993 20.6259C15.0874 20.6256 13.1245 18.663 13.1245 16.2506ZM17.4996 21.8755C17.9297 21.8755 18.3469 21.8225 18.7494 21.7307V23.1256C18.7494 23.815 18.1884 24.3754 17.4996 24.3754C16.8104 24.3754 16.2497 23.8147 16.2497 23.1256V21.7307C16.6523 21.8228 17.0694 21.8755 17.4996 21.8755ZM6.24922 38.7508V32.7714C6.24922 32.6833 6.26876 32.5937 6.30535 32.5128L8.88357 26.8404C9.09043 26.3848 9.47934 26.0254 9.94985 25.8545L13.0922 24.7119L14.4608 26.4227L13.1424 31.7253C13.1306 31.7746 13.1244 31.8249 13.1244 31.8757V35.0006H9.87882L10.6201 28.8253C10.661 28.4826 10.4169 28.1712 10.0739 28.1302C9.72965 28.0878 9.42012 28.334 9.37857 28.6761L8.78558 33.6159L8.64416 33.4038C8.45249 33.1163 8.06482 33.0378 7.77732 33.2304C7.48982 33.4218 7.41228 33.8101 7.60395 34.0972L8.8538 35.9723C8.97041 36.1463 9.1658 36.2508 9.37452 36.2508H10.6244V39.3757H6.87451C6.52963 39.3757 6.24922 39.0953 6.24922 38.7508ZM9.20392 40.6258H13.1244V43.7507H8.8287L9.20392 40.6258ZM29.0536 37.1635C28.8368 37.3443 28.5654 37.4277 28.2826 37.3924C28.0032 37.3598 27.756 37.2175 27.5866 36.992L26.4336 35.455L25.6201 28.6761C25.5785 28.334 25.2709 28.0874 24.9248 28.1302C24.5818 28.1712 24.3377 28.4826 24.3786 28.8253L26.1703 43.7506H21.8746V31.8756C21.8746 31.8247 21.8684 31.7742 21.8563 31.7249L20.5379 26.4222L21.9065 24.7115L25.0488 25.854C25.5193 26.0249 25.9082 26.3844 26.1151 26.84L28.8056 32.7589C28.9104 32.9896 29.1374 33.1258 29.3753 33.1258C29.4612 33.1258 29.5493 33.1078 29.6334 33.0697C29.9478 32.9267 30.0862 32.5564 29.9435 32.2422L29.5741 31.43L32.9249 29.0364L34.822 32.3561L29.0536 37.1635ZM37.9951 29.2464L35.7612 31.4803L33.9037 28.2301L34.3798 27.754C34.5203 27.6132 34.702 27.5409 34.9064 27.5574C35.1055 27.5713 35.2804 27.6668 35.4001 27.8266L36.049 28.6921L35.8073 28.9337C35.5633 29.1778 35.5633 29.5732 35.8073 29.8176C35.9299 29.9398 36.0896 30.0009 36.2496 30.0009C36.4096 30.0009 36.5694 29.9398 36.6916 29.8179L37.3165 29.193C37.5361 28.9734 37.5612 28.6252 37.3745 28.3761L36.4003 27.077C36.3907 27.0643 36.378 27.055 36.3684 27.0426C36.4924 26.947 36.6348 26.8859 36.8044 26.8993C36.9992 26.9098 37.1738 27.0001 37.295 27.1523L38.058 28.106C38.3309 28.4469 38.3039 28.9375 37.995 29.2464L37.9951 29.2464ZM36.2881 16.9021L36.8216 25.653C36.5341 25.6443 36.2525 25.7035 35.9923 25.8189L36.2881 16.9021Z" fill="url(#paint1_linear_5944_22757)"/>
<path d="M44.3752 7.50088H29.375C29.0295 7.50088 28.75 7.78062 28.75 8.12581V20.6257C28.75 20.9708 29.0295 21.2506 29.375 21.2506H33.0042C33.3497 21.2506 33.6291 20.9708 33.6291 20.6257C33.6291 20.2805 33.3497 20.0007 33.0042 20.0007H30.0002V8.75055H44.3748C44.7203 8.75055 44.9997 8.47081 44.9997 8.12563C44.9997 7.78045 44.7203 7.50071 44.3748 7.50071L44.3752 7.50088Z" fill="url(#paint2_linear_5944_22757)"/>
<path d="M39.6416 21.2512H44.3749C44.7204 21.2512 44.9999 20.9715 44.9999 20.6263C44.9999 20.2811 44.7204 20.0014 44.3749 20.0014H39.6416C39.2961 20.0014 39.0167 20.2811 39.0167 20.6263C39.0167 20.9715 39.2961 21.2512 39.6416 21.2512Z" fill="url(#paint3_linear_5944_22757)"/>
<path d="M31.8751 11.2507H41.875C42.2205 11.2507 42.4999 10.9709 42.4999 10.6258C42.4999 10.2806 42.2205 10.0008 41.875 10.0008H31.8751C31.5296 10.0008 31.2502 10.2806 31.2502 10.6258C31.2502 10.9709 31.5296 11.2507 31.8751 11.2507Z" fill="url(#paint4_linear_5944_22757)"/>
<path d="M31.8751 13.7508H41.875C42.2205 13.7508 42.4999 13.4711 42.4999 13.1259C42.4999 12.7807 42.2205 12.501 41.875 12.501H31.8751C31.5296 12.501 31.2502 12.7807 31.2502 13.1259C31.2502 13.4711 31.5296 13.7508 31.8751 13.7508Z" fill="url(#paint5_linear_5944_22757)"/>
<path d="M15.6253 15.3133C15.6253 15.8312 15.3455 16.2509 15.0003 16.2509C14.6551 16.2509 14.3754 15.8312 14.3754 15.3133C14.3754 14.7957 14.6551 14.376 15.0003 14.376C15.3455 14.376 15.6253 14.7957 15.6253 15.3133Z" fill="url(#paint6_linear_5944_22757)"/>
<path d="M20.6248 15.3133C20.6248 15.8312 20.345 16.2509 19.9999 16.2509C19.6547 16.2509 19.3746 15.8312 19.3746 15.3133C19.3746 14.7957 19.6547 14.376 19.9999 14.376C20.345 14.376 20.6248 14.7957 20.6248 15.3133Z" fill="url(#paint7_linear_5944_22757)"/>
<defs>
<linearGradient id="paint0_linear_5944_22757" x1="0" y1="0" x2="0" y2="1" gradientUnits="objectBoundingBox">
<stop stop-color="#ED3040"/>
<stop offset="1" stop-color="#2D23F4"/>
</linearGradient>
<linearGradient id="paint1_linear_5944_22757" x1="0" y1="0" x2="0" y2="1" gradientUnits="objectBoundingBox">
<stop stop-color="#ED3040"/>
<stop offset="1" stop-color="#2D23F4"/>
</linearGradient>
<linearGradient id="paint2_linear_5944_22757" x1="0" y1="0" x2="0" y2="1" gradientUnits="objectBoundingBox">
<stop stop-color="#ED3040"/>
<stop offset="1" stop-color="#2D23F4"/>
</linearGradient>
<linearGradient id="paint3_linear_5944_22757" x1="0" y1="0" x2="0" y2="1" gradientUnits="objectBoundingBox">
<stop stop-color="#ED3040"/>
<stop offset="1" stop-color="#2D23F4"/>
</linearGradient>
<linearGradient id="paint4_linear_5944_22757" x1="0" y1="0" x2="0" y2="1" gradientUnits="objectBoundingBox">
<stop stop-color="#ED3040"/>
<stop offset="1" stop-color="#2D23F4"/>
</linearGradient>
<linearGradient id="paint5_linear_5944_22757" x1="0" y1="0" x2="0" y2="1" gradientUnits="objectBoundingBox">
<stop stop-color="#ED3040"/>
<stop offset="1" stop-color="#2D23F4"/>
</linearGradient>
<linearGradient id="paint6_linear_5944_22757" x1="0" y1="0" x2="0" y2="1" gradientUnits="objectBoundingBox">
<stop stop-color="#ED3040"/>
<stop offset="1" stop-color="#2D23F4"/>
</linearGradient>
<linearGradient id="paint7_linear_5944_22757" x1="0" y1="0" x2="0" y2="1" gradientUnits="objectBoundingBox">
<stop stop-color="#ED3040"/>
<stop offset="1" stop-color="#2D23F4"/>
</linearGradient>
</defs>
</svg>
