<svg width="50" height="50" viewBox="0 0 50 50" fill="none" xmlns="http://www.w3.org/2000/svg">
<path d="M25.031 31.3279C25.3095 31.3279 25.5572 31.4511 25.7122 31.6974C25.8669 31.913 25.8978 32.1901 25.7739 32.4364L23.9474 36.8399L21.9966 36.8395L21.997 45H21.099V34.9614H11.4713V45H10.5424L10.5421 36.8395L8.65419 36.8399L6.82727 32.4364C6.73466 32.1901 6.76553 31.913 6.88936 31.6974C7.04406 31.4821 7.29171 31.3279 7.57058 31.3279H25.031ZM24.8451 32.2518H7.75584L9.27304 35.916H10.5418L10.5422 34.7461C10.5422 34.3766 10.8519 34.0685 11.2234 34.0685H21.3162C21.6877 34.0685 21.9974 34.3766 21.9974 34.7461L21.9971 35.916H23.3287L24.8451 32.2518ZM12.6788 23.1681V28.7725H19.9232V23.1681H20.8518V29.6964H11.7495V23.1681H12.6788ZM20.7279 17.5333V18.4569H16.7651L16.7654 22.3677H15.8365V18.4569H11.812C10.0163 18.4569 9.39713 20.0273 9.39713 21.3824V29.2345H8.46823V21.3824C8.46823 19.0727 9.79945 17.5333 11.8119 17.5333H20.7279ZM20.7592 17.5333C22.7713 17.5333 24.1025 19.0726 24.1025 21.3824V29.2345H23.1739V21.3824C23.1739 20.0273 22.5544 18.4569 20.7591 18.4569L20.7592 17.5333ZM43.2356 5.00008C44.2262 5.00008 45 5.80081 45 6.75538C45 7.6901 44.2581 8.47682 43.2973 8.50933V29.1724H27.0746C26.827 29.1724 26.6102 28.9571 26.6102 28.7104C26.6102 28.4641 26.827 28.2488 27.0746 28.2488H42.3678V8.51024H7.69367V15.8082C7.69367 16.0545 7.47688 16.2702 7.22922 16.2702C6.98157 16.2702 6.76478 16.0545 6.76478 15.8082V8.51024C5.77418 8.51024 5 7.70986 5 6.7553C5 5.80074 5.80505 5 6.76478 5L43.2356 5.00008ZM16.6723 10.2657C17.477 10.3582 18.1891 10.7583 18.6844 11.4052C19.18 12.0518 19.3965 12.8214 19.3039 13.6221C19.2109 14.4229 18.8086 15.1312 18.1582 15.6238C17.632 16.0547 16.9816 16.2703 16.3007 16.2703C16.1769 16.2703 16.0531 16.2703 15.9292 16.2396C14.3255 16.0288 13.1658 14.6123 13.2871 12.9962L13.2976 12.8832C13.5144 11.2511 15.0004 10.0812 16.6722 10.2657L16.6723 10.2657ZM14.2266 13.0064C14.0716 14.1455 14.9075 15.1926 16.0532 15.3157C16.6102 15.3775 17.1676 15.2232 17.6012 14.8845C18.0344 14.546 18.3129 14.0534 18.375 13.499C18.4368 12.9445 18.2821 12.3905 17.9415 11.9593C17.6012 11.5284 17.1055 11.251 16.5485 11.1896C15.4028 11.0664 14.3504 11.8979 14.2266 13.0064ZM43.2667 5.89327H6.79646C6.33202 5.89327 5.96053 6.26276 5.96053 6.7247C5.96053 7.1863 6.33202 7.55614 6.79646 7.55614H43.2667C43.7311 7.55614 44.1026 7.1863 44.1026 6.7247C44.1026 6.26276 43.7311 5.89327 43.2667 5.89327Z" fill="url(#paint0_linear_5944_22787)"/>
<defs>
<linearGradient id="paint0_linear_5944_22787" x1="0" y1="0" x2="0" y2="1" gradientUnits="objectBoundingBox">
<stop stop-color="#ED3040"/>
<stop offset="1" stop-color="#2D23F4"/>
</linearGradient>
</defs>
</svg>
