<svg width="50" height="50" viewBox="0 0 50 50" fill="none" xmlns="http://www.w3.org/2000/svg">
<path fill-rule="evenodd" clip-rule="evenodd" d="M18.807 17.2714C18.9758 16.9697 19.3563 16.8608 19.6579 17.0299C20.1055 17.2799 20.5836 17.4066 21.0793 17.4066C21.5376 17.4066 21.9826 17.2979 22.4007 17.0839C22.7076 16.9265 23.0842 17.0479 23.2416 17.3549C23.3989 17.6624 23.2776 18.0394 22.97 18.1961C22.3735 18.5011 21.7378 18.6565 21.0789 18.6565C20.3676 18.6565 19.6851 18.4769 19.0484 18.1215C18.7468 17.9537 18.6391 17.5721 18.807 17.2714ZM43.752 34.8773V10.8977H28.2306C28.337 11.2828 28.426 11.6863 28.4983 12.1074H41.9173C42.2628 12.1074 42.5422 12.3868 42.5422 12.732V33.0426C42.5422 33.3882 42.2628 33.6676 41.9173 33.6676L8.08462 33.6679C7.74042 33.6679 7.46003 33.3885 7.46003 33.043V12.7323C7.46003 12.3868 7.74043 12.1077 8.08462 12.1077H14.3224C14.3711 11.6787 14.4326 11.2769 14.5036 10.898H6.25149V34.8768L43.752 34.8773ZM32.6188 40.9169H17.3847C18.4651 39.38 19.0903 37.8252 19.3134 36.1269H30.6887C30.9122 37.8251 31.5371 39.38 32.6184 40.9169H32.6188ZM36.437 42.9584V43.7502H13.5667V42.9584C13.5667 42.5229 13.9214 42.1672 14.3578 42.1672H35.6467C36.0826 42.1665 36.4375 42.5229 36.4375 42.9584H36.437ZM19.2606 6.51366C20.8559 5.99242 22.716 6.24862 24.2357 7.19982C25.8477 8.20828 26.864 9.94214 27.2739 12.3674C23.915 11.5729 21.6185 10.504 20.7642 9.32831C20.6347 9.1503 20.42 9.05411 20.2002 9.07373C19.9803 9.09402 19.7882 9.22949 19.6937 9.4281C19.1947 10.4798 17.7156 11.4414 15.578 12.1246C15.7122 11.0255 15.9226 10.1221 16.2115 9.39728C16.7706 7.99814 17.8533 6.97327 19.2604 6.51356L19.2606 6.51366ZM35.7711 19.4044C35.4907 19.2044 35.1004 19.2699 34.9004 19.5503L32.4842 22.9395L32.4838 15.702H38.949V24.4136H32.9688L35.9174 20.2764C36.1179 19.995 36.0525 19.6052 35.7711 19.4044ZM12.8196 19.1707C12.7296 18.9724 12.7505 18.7408 12.8732 18.5615C13.7831 17.232 14.1322 15.664 14.1567 14.6389C14.1672 14.1922 14.1859 13.7652 14.2117 13.3575H8.70917V32.4175H41.293L41.2926 13.3575H28.6585C28.6964 13.7816 28.719 14.2201 28.7278 14.6758C28.7468 15.7838 29.1741 17.2058 30.0732 19.1504C30.2129 19.4541 30.0895 19.8133 29.7928 19.9678C28.7827 20.491 27.4371 20.6994 26.1205 20.6994C25.4471 20.6994 24.7829 20.6441 24.1737 20.5499L24.3092 21.8747L28.855 23.0929C29.9292 23.3812 30.6725 24.3193 30.7092 25.4302L31.234 24.6939L31.2343 15.076C31.2343 14.7304 31.5137 14.451 31.8592 14.451H39.5742C39.9193 14.451 40.1991 14.7304 40.1991 15.076V25.0382C40.1991 25.3837 39.919 25.6632 39.5742 25.6632H32.0778L30.769 27.4985L30.8142 29.0423C30.8247 29.3865 30.5528 29.6748 30.2079 29.6849H30.1889C29.8843 29.6849 29.6288 29.465 29.5748 29.1722L28.3996 30.8223C28.2769 30.9934 28.0845 31.085 27.8892 31.085C27.7642 31.085 27.6379 31.0471 27.5273 30.9685C27.2466 30.7686 27.1805 30.3776 27.3811 30.0972L29.5068 27.1141L29.4594 25.4744C29.4427 24.9084 29.0788 24.447 28.5315 24.3004L27.6065 24.0517C27.2165 24.8452 26.4437 25.9881 25.0993 26.4269C24.7345 26.547 24.3533 26.6062 23.9577 26.6062C23.2288 26.6062 22.4491 26.4027 21.6249 25.9999V29.0406C21.6249 29.3852 21.3448 29.6656 21 29.6656C20.6555 29.6656 20.3751 29.3852 20.3751 29.0406V25.764C18.218 26.369 16.8775 26.4141 16.0831 25.9204C15.3676 25.4754 15.2517 24.7326 15.1676 24.1905C15.1506 24.0808 15.1333 23.9702 15.1123 23.8701L13.7709 24.2294C13.2232 24.3763 12.8583 24.8374 12.842 25.4044L12.7373 29.008C12.7271 29.3473 12.449 29.6149 12.1124 29.6149C12.1061 29.6149 12.1006 29.6149 12.0944 29.614C11.7492 29.6048 11.4776 29.3162 11.4878 28.9716L11.5931 25.3675C11.6252 24.253 12.3702 23.3109 13.4473 23.022L17.9931 21.8038L18.1773 19.9977C17.8946 19.8236 17.6257 19.6256 17.3734 19.4077C16.0185 19.8917 14.507 19.6917 13.5699 19.5674C13.4787 19.5556 13.3929 19.5435 13.3131 19.5337C13.0965 19.5075 12.9097 19.3701 12.82 19.1708L12.8196 19.1707ZM16.7444 13.6827H16.3711C16.3907 13.5021 16.4189 13.3241 16.4555 13.1474C16.7215 13.0529 16.9774 12.9537 17.2231 12.8503C16.9623 13.0457 16.782 13.3431 16.7444 13.6827ZM22.6671 12.6085C22.0451 12.6085 21.5324 13.0794 21.4637 13.6827H20.9075C20.8388 13.079 20.3264 12.6085 19.7045 12.6085H17.9465C17.8683 12.6085 17.7918 12.6174 17.7175 12.6314C18.8731 12.086 19.7641 11.4391 20.3438 10.7179C21.183 11.4862 22.3969 12.1091 23.7209 12.6085L22.6671 12.6085ZM26.1273 13.3686C26.1443 13.4724 26.1584 13.578 26.1705 13.6824H25.6277C25.6074 13.4995 25.5446 13.329 25.452 13.1798C25.6771 13.2459 25.9032 13.3091 26.1273 13.3686ZM21.271 20.884C21.8445 20.884 22.3995 20.7986 22.9265 20.6435L23.0813 22.1559C22.1806 22.6725 20.353 23.4673 19.1908 22.258C19.2036 22.2079 19.2134 22.1559 19.2189 22.1032L19.376 20.5673C19.9734 20.7724 20.6104 20.884 21.271 20.884ZM22.7057 14.7567V13.8585H24.3858V14.7567H22.7057ZM17.9857 14.7567V13.8585H19.6652V14.7567H17.9857ZM16.3723 14.9328C16.6599 17.576 18.7457 19.6344 21.2709 19.6344C23.7948 19.6344 25.8819 17.5766 26.1694 14.9328H25.6273C25.5592 15.5368 25.0462 16.007 24.4252 16.007H22.6673C22.0453 16.007 21.5326 15.5364 21.4639 14.9328H20.9077C20.839 15.5368 20.3266 16.007 19.7047 16.007H17.9467C17.3257 16.007 16.8121 15.5364 16.7446 14.9328H16.3723ZM15.2717 15.9003C15.4866 16.8168 15.8835 17.6571 16.4175 18.3764C15.7468 18.5079 15.0351 18.4765 14.4164 18.4123C14.8957 17.4906 15.1434 16.5992 15.2717 15.9003ZM21.3402 24.4017C21.1842 24.3003 20.9905 24.2734 20.8128 24.3297C17.9676 25.223 17.0414 25.0437 16.742 24.8585C16.5368 24.7302 16.4783 24.4864 16.402 23.9973C16.3795 23.8517 16.3549 23.6989 16.3202 23.5464L18.2088 23.0399C18.9112 23.8298 19.7969 24.1422 20.7225 24.1422C21.831 24.1422 22.9961 23.6933 23.9721 23.0778L26.37 23.7211C26.0566 24.2878 25.5259 24.9724 24.7103 25.239C23.7919 25.5401 22.6581 25.2583 21.3402 24.4017ZM27.4772 14.6975C27.4975 15.8803 27.8689 17.251 28.6725 19.0869C27.7328 19.4066 26.4479 19.5208 25.1637 19.4135C26.5598 18.2071 27.454 16.3679 27.454 14.31C27.454 14.1012 27.4442 13.8938 27.4256 13.6863C27.4282 13.6863 27.4295 13.6873 27.4311 13.6873C27.456 14.0132 27.471 14.3506 27.4772 14.6975ZM44.3755 9.64865H27.7997C27.1597 8.12319 26.191 6.94947 24.8982 6.14063C23.0679 4.99505 20.8147 4.69048 18.8709 5.32653C17.1061 5.90275 15.7492 7.18445 15.0507 8.93398C14.9621 9.15812 14.8796 9.39764 14.804 9.64926L5.62492 9.64893C5.27941 9.64893 5 9.92936 5 10.2739V35.5024C5 35.8476 5.27941 36.1271 5.62492 36.1271H18.0497C17.7938 37.8154 17.073 39.3586 15.8167 40.9171H14.3568C13.231 40.9171 12.3148 41.8336 12.3148 42.9586V44.375C12.3148 44.7206 12.5942 45 12.9397 45H37.0605C37.406 45 37.6854 44.7206 37.6854 44.375V42.9586C37.6854 41.8336 36.7693 40.9171 35.6445 40.9171H34.1833C32.927 39.3587 32.2059 37.8161 31.9503 36.1271H44.3751C44.7203 36.1271 45 35.847 45 35.5024V10.2739C45.001 9.92902 44.7212 9.64861 44.3757 9.64861L44.3755 9.64865Z" fill="url(#paint0_linear_5944_22763)"/>
<defs>
<linearGradient id="paint0_linear_5944_22763" x1="37.6624" y1="33.6397" x2="37.6624" y2="41.6506" gradientUnits="userSpaceOnUse">
<stop stop-color="#ED3040"/>
<stop offset="1" stop-color="#2D23F4"/>
</linearGradient>
</defs>
</svg>
