<svg width="50" height="50" viewBox="0 0 50 50" fill="none" xmlns="http://www.w3.org/2000/svg">
<path d="M16.9994 13.7489C16.9994 13.4174 17.1311 13.0995 17.3655 12.8651C17.5999 12.6307 17.9178 12.4991 18.2493 12.4991H30.7482C31.0797 12.4991 31.3976 12.6307 31.632 12.8651C31.8664 13.0995 31.9981 13.4174 31.9981 13.7489C31.9981 14.0804 31.8664 14.3983 31.632 14.6327C31.3976 14.8671 31.0797 14.9987 30.7482 14.9987H18.2493C17.9178 14.9987 17.5999 14.8671 17.3655 14.6327C17.1311 14.3983 16.9994 14.0804 16.9994 13.7489ZM20.7491 17.4984C20.4176 17.4984 20.0997 17.6301 19.8653 17.8645C19.6309 18.0989 19.4992 18.4168 19.4992 18.7483C19.4992 19.0798 19.6309 19.3977 19.8653 19.6321C20.0997 19.8664 20.4176 19.9981 20.7491 19.9981H28.2484C28.5799 19.9981 28.8978 19.8664 29.1322 19.6321C29.3666 19.3977 29.4983 19.0798 29.4983 18.7483C29.4983 18.4168 29.3666 18.0989 29.1322 17.8645C28.8978 17.6301 28.5799 17.4984 28.2484 17.4984H20.7491Z" fill="url(#paint0_linear_4083_15045)"/>
<path fill-rule="evenodd" clip-rule="evenodd" d="M9.5 8.74953C9.5 7.75509 9.89506 6.80139 10.5983 6.09821C11.3015 5.39504 12.2552 5 13.2497 5H35.7478C36.7423 5 37.696 5.39504 38.3992 6.09821C39.1024 6.80139 39.4975 7.75509 39.4975 8.74953V33.7464C39.4975 35.1112 38.7676 36.2961 37.6777 36.971L37.3252 38.0284C36.8982 39.3103 36.8982 40.696 37.3252 41.9779L37.5002 42.5003H38.2501C38.5816 42.5003 38.8995 42.632 39.1339 42.8664C39.3683 43.1008 39.5 43.4187 39.5 43.7502C39.5 44.0816 39.3683 44.3995 39.1339 44.6339C38.8995 44.8683 38.5816 45 38.2501 45H14.4996C11.7498 45 9.5 42.7628 9.5 40.0006V8.74953ZM35.7478 7.49969H13.2497C12.9182 7.49969 12.6003 7.63137 12.3659 7.86576C12.1315 8.10015 11.9998 8.41805 11.9998 8.74953V35.7462C12.7347 35.3212 13.5897 35.0762 14.4996 35.0762H35.7478C36.0793 35.0762 36.3972 34.9446 36.6316 34.7102C36.866 34.4758 36.9977 34.1579 36.9977 33.8264V8.82952C36.9977 8.49804 36.866 8.18014 36.6316 7.94575C36.3972 7.71136 36.0793 7.57968 35.7478 7.57968V7.49969ZM34.8679 37.4959H14.4946C13.8316 37.4959 13.1958 37.7593 12.727 38.2281C12.2582 38.6969 11.9948 39.3327 11.9948 39.9956C11.9948 40.6586 12.2582 41.2944 12.727 41.7632C13.1958 42.2319 13.8316 42.4953 14.4946 42.4953H34.8679C34.3816 40.8643 34.3816 39.1269 34.8679 37.4959Z" fill="url(#paint1_linear_4083_15045)"/>
<defs>
<linearGradient id="paint0_linear_4083_15045" x1="33.9968" y1="33.6397" x2="33.9968" y2="41.6506" gradientUnits="userSpaceOnUse">
<stop stop-color="#ED3040"/>
<stop offset="1" stop-color="#2D23F4"/>
</linearGradient>
<linearGradient id="paint1_linear_4083_15045" x1="33.9968" y1="33.6397" x2="33.9968" y2="41.6506" gradientUnits="userSpaceOnUse">
<stop stop-color="#ED3040"/>
<stop offset="1" stop-color="#2D23F4"/>
</linearGradient>
</defs>
</svg>
