<svg width="50" height="50" viewBox="0 0 50 50" fill="none" xmlns="http://www.w3.org/2000/svg">
<path d="M5.25 29C5.25 29.6904 5.80964 30.25 6.5 30.25C7.19036 30.25 7.75 29.6904 7.75 29H5.25ZM41.3318 15.344L40.4138 16.1924L40.4148 16.1935L41.3318 15.344ZM42.0664 21.1125C42.1285 21.8001 42.7362 22.3071 43.4238 22.2449C44.1114 22.1828 44.6184 21.5751 44.5562 20.8875L42.0664 21.1125ZM44.75 29C44.75 28.3096 44.1904 27.75 43.5 27.75C42.8096 27.75 42.25 28.3096 42.25 29H44.75ZM8.6682 42.656L9.58619 41.8076L9.58518 41.8065L8.6682 42.656ZM7.93363 36.8875C7.8715 36.1999 7.26376 35.6929 6.5762 35.7551C5.88865 35.8172 5.38164 36.4249 5.44377 37.1125L7.93363 36.8875ZM27.775 30.25C28.4654 30.25 29.025 29.6904 29.025 29C29.025 28.3096 28.4654 27.75 27.775 27.75V30.25ZM22.225 27.75C21.5346 27.75 20.975 28.3096 20.975 29C20.975 29.6904 21.5346 30.25 22.225 30.25V27.75ZM26.25 26C26.25 25.3096 25.6904 24.75 25 24.75C24.3096 24.75 23.75 25.3096 23.75 26H26.25ZM23.75 32C23.75 32.6904 24.3096 33.25 25 33.25C25.6904 33.25 26.25 32.6904 26.25 32H23.75ZM7.75 29C7.75 25.1962 7.75228 22.4596 8.01146 20.3763C8.26734 18.3196 8.75475 17.0905 9.58546 16.1932L7.75094 14.4948C6.41345 15.9395 5.81676 17.7674 5.53059 20.0677C5.24772 22.3414 5.25 25.2618 5.25 29H7.75ZM9.58546 16.1932C10.4039 15.3092 11.5035 14.8011 13.3611 14.5307C15.2652 14.2536 17.7739 14.25 21.3 14.25V11.75C17.8497 11.75 15.1267 11.7474 13.001 12.0568C10.8288 12.3729 9.10072 13.0368 7.75094 14.4948L9.58546 16.1932ZM21.3 14.25H28.7V11.75H21.3V14.25ZM28.7 14.25C32.2263 14.25 34.7354 14.2531 36.6398 14.53C38.4976 14.8001 39.5966 15.3082 40.4138 16.1924L42.2498 14.4956C40.9007 13.0358 39.172 12.3719 36.9995 12.056C34.8737 11.7469 32.15 11.75 28.7 11.75V14.25ZM40.4148 16.1935C41.3424 17.1947 41.8399 18.6061 42.0664 21.1125L44.5562 20.8875C44.3128 18.1939 43.741 16.1053 42.2488 14.4945L40.4148 16.1935ZM42.25 29C42.25 32.8038 42.2477 35.5404 41.9885 37.6237C41.7327 39.6804 41.2452 40.9095 40.4145 41.8068L42.2491 43.5052C43.5866 42.0605 44.1832 40.2326 44.4694 37.9323C44.7523 35.6586 44.75 32.7382 44.75 29H42.25ZM40.4145 41.8068C39.5961 42.6908 38.4965 43.1989 36.6389 43.4693C34.7348 43.7464 32.2261 43.75 28.7 43.75V46.25C32.1503 46.25 34.8733 46.2526 36.999 45.9432C39.1712 45.6271 40.8993 44.9632 42.2491 43.5052L40.4145 41.8068ZM28.7 43.75H21.3V46.25H28.7V43.75ZM21.3 43.75C17.7737 43.75 15.2646 43.7469 13.3602 43.47C11.5024 43.1999 10.4034 42.6918 9.58619 41.8076L7.75021 43.5044C9.09934 44.9642 10.828 45.6281 13.0005 45.944C15.1263 46.2531 17.85 46.25 21.3 46.25V43.75ZM9.58518 41.8065C8.65761 40.8053 8.16012 39.3939 7.93363 36.8875L5.44377 37.1125C5.68718 39.8061 6.25899 41.8947 7.75122 43.5055L9.58518 41.8065ZM33.65 13C33.65 11.1468 33.6523 9.64085 33.5049 8.45664C33.3542 7.2456 33.0285 6.18263 32.2335 5.3232L30.3983 7.0208C30.6874 7.33337 30.9037 7.7984 31.0241 8.76536C31.1477 9.75915 31.15 11.0812 31.15 13H33.65ZM32.2335 5.3232C31.4258 4.44994 30.4047 4.07894 29.2397 3.90951C28.1216 3.7469 26.7064 3.75 25 3.75V6.25C26.7827 6.25 27.9834 6.2531 28.8799 6.38349C29.7296 6.50706 30.1219 6.72206 30.3983 7.0208L32.2335 5.3232ZM25 3.75C23.2936 3.75 21.8784 3.7469 20.7603 3.90951C19.5953 4.07893 18.5742 4.44994 17.7665 5.3232L19.6017 7.0208C19.8781 6.72206 20.2704 6.50706 21.1201 6.38349C22.0166 6.2531 23.2173 6.25 25 6.25V3.75ZM17.7665 5.3232C16.9715 6.18263 16.6458 7.2456 16.4951 8.45664C16.3477 9.64085 16.35 11.1468 16.35 13H18.85C18.85 11.0812 18.8523 9.75915 18.9759 8.76536C19.0963 7.7984 19.3126 7.33337 19.6017 7.0208L17.7665 5.3232ZM27.775 27.75H22.225V30.25H27.775V27.75ZM23.75 26V32H26.25V26H23.75ZM31.15 29C31.15 32.8215 28.3066 35.75 25 35.75V38.25C29.8672 38.25 33.65 34.0151 33.65 29H31.15ZM25 35.75C21.6934 35.75 18.85 32.8215 18.85 29H16.35C16.35 34.0151 20.1328 38.25 25 38.25V35.75ZM18.85 29C18.85 25.1785 21.6934 22.25 25 22.25V19.75C20.1328 19.75 16.35 23.9849 16.35 29H18.85ZM25 22.25C28.3066 22.25 31.15 25.1785 31.15 29H33.65C33.65 23.9849 29.8672 19.75 25 19.75V22.25Z" fill="url(#paint0_linear_4083_15078)"/>
<defs>
<linearGradient id="paint0_linear_4083_15078" x1="0" y1="0" x2="0" y2="1" gradientUnits="objectBoundingBox">
<stop stop-color="#2C22F3"/>
<stop offset="1" stop-color="#E7101F"/>
</linearGradient>
</defs>
</svg>
