<svg width="50" height="50" viewBox="0 0 50 50" fill="none" xmlns="http://www.w3.org/2000/svg">
<path d="M27.8463 5H9.34617C8.59132 5 7.86739 5.32417 7.33362 5.90121C6.79986 6.47824 6.5 7.26087 6.5 8.07692V41.9231C6.5 42.7391 6.79986 43.5218 7.33362 44.0988C7.86739 44.6758 8.59132 45 9.34617 45H34.9617C35.7166 45 36.4405 44.6758 36.9743 44.0988C37.508 43.5218 37.8079 42.7391 37.8079 41.9231V28.0769M6.5 35.7692H37.8079M15.0385 12.6923H20.7309M15.0385 20.3846H17.8847M30.6757 26.5563L22.1372 28.2178L23.5603 18.864L35.5996 5.91015C35.8642 5.62175 36.179 5.39285 36.5258 5.23664C36.8726 5.08043 37.2447 5 37.6204 5C37.9961 5 38.3681 5.08043 38.715 5.23664C39.0618 5.39285 39.3766 5.62175 39.6412 5.91015L42.6581 9.17169C42.9249 9.45773 43.1366 9.79804 43.2811 10.173C43.4256 10.5479 43.5 10.9501 43.5 11.3563C43.5 11.7625 43.4256 12.1647 43.2811 12.5396C43.1366 12.9146 42.9249 13.2549 42.6581 13.5409L30.6757 26.5563Z" stroke="url(#paint0_linear_4083_15061)" stroke-width="2.5" stroke-linecap="round" stroke-linejoin="round"/>
<defs>
<linearGradient id="paint0_linear_4083_15061" x1="0" y1="0" x2="0" y2="1" gradientUnits="objectBoundingBox">
<stop stop-color="#2C22F3"/>
<stop offset="1" stop-color="#E7101F"/>
</linearGradient>
</defs>
</svg>
