<svg width="50" height="50" viewBox="0 0 50 50" fill="none" xmlns="http://www.w3.org/2000/svg">
<path d="M11.1187 28.1343L16.6239 33.6395M16.6239 22.6291L22.1291 28.1343M27.6343 11.6187L33.1395 17.1239M22.1291 17.1239L27.6343 22.6291M36.1784 5.53728L43.9627 13.3216C44.3067 13.6658 44.5 14.1324 44.5 14.619C44.5 15.1056 44.3067 15.5723 43.9627 15.9164L15.4164 44.4627C15.0723 44.8067 14.6056 45 14.119 45C13.6324 45 13.1658 44.8067 12.8216 44.4627L5.03728 36.6784C4.69326 36.3342 4.5 35.8676 4.5 35.381C4.5 34.8944 4.69326 34.4277 5.03728 34.0836L33.5836 5.53728C33.9277 5.19326 34.3944 5 34.881 5C35.3676 5 35.8342 5.19326 36.1784 5.53728Z" stroke="url(#paint0_linear_4083_15048)" stroke-width="2.5"/>
<defs>
<linearGradient id="paint0_linear_4083_15048" x1="18.875" y1="45" x2="30.125" y2="5" gradientUnits="userSpaceOnUse">
<stop stop-color="#2C22F3"/>
<stop offset="1" stop-color="#E7101F"/>
</linearGradient>
</defs>
</svg>
