<svg width="50" height="50" viewBox="0 0 50 50" fill="none" xmlns="http://www.w3.org/2000/svg">
<path d="M36.1005 15.2569V16.5069V15.2569ZM13.4489 15.9055C12.8044 16.153 12.4826 16.8761 12.7301 17.5206C12.9776 18.165 13.7007 18.4869 14.3452 18.2394L13.4489 15.9055ZM21.3006 14.2292L21.8852 13.1244C21.5661 12.9555 21.1895 12.9329 20.8524 13.0623L21.3006 14.2292ZM31.4738 19.6131L32.2701 20.5766C32.592 20.3106 32.7598 19.9013 32.7173 19.4859C32.6748 19.0704 32.4276 18.7036 32.0585 18.5083L31.4738 19.6131ZM21.3006 28.0207L20.5043 27.0572C20.2068 27.303 20.0395 27.6725 20.0511 28.0583C20.0627 28.444 20.2519 28.8028 20.5636 29.0303L21.3006 28.0207ZM31.4738 35.4467L32.5089 36.1475C32.8863 35.5901 32.7545 34.834 32.2108 34.4371L31.4738 35.4467ZM23.9705 44.2992C23.5834 44.8708 23.7331 45.648 24.3047 46.0351C24.8764 46.4221 25.6536 46.2725 26.0406 45.7008L23.9705 44.2992ZM36.1158 21.0003C35.5246 20.6437 34.7564 20.8339 34.3998 21.425C34.0433 22.0162 34.2334 22.7845 34.8246 23.141L36.1158 21.0003ZM37.9513 23.5671L37.3057 24.6375C37.806 24.9392 38.4485 24.8542 38.8531 24.4327L37.9513 23.5671ZM44.4018 18.6519C44.8799 18.1539 44.8636 17.3626 44.3656 16.8845C43.8675 16.4065 43.0763 16.4227 42.5982 16.9207L44.4018 18.6519ZM19.4142 32.9333C19.8042 32.3637 19.6587 31.5857 19.089 31.1957C18.5194 30.8056 17.7415 30.9512 17.3514 31.5208L19.4142 32.9333ZM15.6353 36.2396L16.2955 37.301C16.4425 37.2096 16.5689 37.0886 16.6667 36.9458L15.6353 36.2396ZM5.83978 40.8605C5.25357 41.2251 5.07395 41.9959 5.43858 42.5821C5.80321 43.1683 6.57402 43.3479 7.16022 42.9833L5.83978 40.8605ZM36.1005 16.5069C37.7028 16.5069 39.2099 15.8 40.2994 14.592L38.4429 12.9176C37.7976 13.6332 36.9516 14.0069 36.1005 14.0069V16.5069ZM40.2994 14.592C41.3851 13.3883 41.9759 11.7809 41.9759 10.1285H39.4759C39.4759 11.1964 39.0921 12.1978 38.4429 12.9176L40.2994 14.592ZM41.9759 10.1285C41.9759 8.47605 41.3851 6.86864 40.2994 5.6649L38.4429 7.33928C39.0921 8.05909 39.4759 9.06057 39.4759 10.1285H41.9759ZM40.2994 5.6649C39.2099 4.45689 37.7028 3.75 36.1005 3.75V6.25C36.9516 6.25 37.7976 6.62374 38.4429 7.33928L40.2994 5.6649ZM36.1005 3.75C34.4981 3.75 32.9911 4.45689 31.9015 5.6649L33.758 7.33928C34.4034 6.62374 35.2493 6.25 36.1005 6.25V3.75ZM31.9015 5.6649C30.8159 6.86864 30.225 8.47605 30.225 10.1285H32.725C32.725 9.06057 33.1088 8.05909 33.758 7.33928L31.9015 5.6649ZM30.225 10.1285C30.225 11.7809 30.8159 13.3883 31.9015 14.592L33.758 12.9176C33.1088 12.1978 32.725 11.1964 32.725 10.1285H30.225ZM31.9015 14.592C32.9911 15.8 34.4981 16.5069 36.1005 16.5069V14.0069C35.2493 14.0069 34.4034 13.6332 33.758 12.9176L31.9015 14.592ZM14.3452 18.2394L21.7487 15.3961L20.8524 13.0623L13.4489 15.9055L14.3452 18.2394ZM20.7159 15.3341L30.8891 20.7179L32.0585 18.5083L21.8852 13.1244L20.7159 15.3341ZM30.6775 18.6496L20.5043 27.0572L22.0969 28.9842L32.2701 20.5766L30.6775 18.6496ZM20.5636 29.0303L30.7368 36.4563L32.2108 34.4371L22.0375 27.0111L20.5636 29.0303ZM30.4387 34.7459L23.9705 44.2992L26.0406 45.7008L32.5089 36.1475L30.4387 34.7459ZM34.8246 23.141L37.3057 24.6375L38.5969 22.4968L36.1158 21.0003L34.8246 23.141ZM38.8531 24.4327L44.4018 18.6519L42.5982 16.9207L37.0495 22.7015L38.8531 24.4327ZM17.3514 31.5208L14.6039 35.5333L16.6667 36.9458L19.4142 32.9333L17.3514 31.5208ZM14.9751 35.1781L5.83978 40.8605L7.16022 42.9833L16.2955 37.301L14.9751 35.1781Z" fill="url(#paint0_linear_4083_15056)"/>
<defs>
<linearGradient id="paint0_linear_4083_15056" x1="19.7969" y1="45" x2="31.8104" y2="5.48871" gradientUnits="userSpaceOnUse">
<stop stop-color="#2C22F3"/>
<stop offset="1" stop-color="#E7101F"/>
</linearGradient>
</defs>
</svg>
