<svg width="50" height="50" viewBox="0 0 50 50" fill="none" xmlns="http://www.w3.org/2000/svg">
<path d="M40.2146 5C40.5934 5 40.9568 5.15049 41.2247 5.41837C41.4926 5.68625 41.6431 6.04958 41.6431 6.42842V7.85684H43.0715C43.4504 7.85684 43.8137 8.00733 44.0816 8.27521C44.3495 8.54309 44.5 8.90642 44.5 9.28526C44.5 9.6641 44.3495 10.0274 44.0816 10.2953C43.8137 10.5632 43.4504 10.7137 43.0715 10.7137H41.6431V12.1421C41.6431 12.5209 41.4926 12.8843 41.2247 13.1521C40.9568 13.42 40.5934 13.5705 40.2146 13.5705C39.8357 13.5705 39.4724 13.42 39.2045 13.1521C38.9366 12.8843 38.7861 12.5209 38.7861 12.1421V10.7137H37.3577C36.9788 10.7137 36.6155 10.5632 36.3476 10.2953C36.0797 10.0274 35.9292 9.6641 35.9292 9.28526C35.9292 8.90642 36.0797 8.54309 36.3476 8.27521C36.6155 8.00733 36.9788 7.85684 37.3577 7.85684H38.7861V6.42842C38.7861 6.04958 38.9366 5.68625 39.2045 5.41837C39.4724 5.15049 39.8357 5 40.2146 5ZM11.6452 10.7137C12.024 10.7137 12.3874 10.8642 12.6553 11.1321C12.9232 11.3999 13.0737 11.7633 13.0737 12.1421V13.5705H14.5021C14.881 13.5705 15.2443 13.721 15.5122 13.9889C15.7801 14.2568 15.9306 14.6201 15.9306 14.9989C15.9306 15.3778 15.7801 15.7411 15.5122 16.009C15.2443 16.2769 14.881 16.4274 14.5021 16.4274H13.0737V17.8558C13.0737 18.2346 12.9232 18.5979 12.6553 18.8658C12.3874 19.1337 12.024 19.2842 11.6452 19.2842C11.2663 19.2842 10.903 19.1337 10.6351 18.8658C10.3672 18.5979 10.2167 18.2346 10.2167 17.8558V16.4274H8.78824C8.40939 16.4274 8.04605 16.2769 7.77816 16.009C7.51027 15.7411 7.35977 15.3778 7.35977 14.9989C7.35977 14.6201 7.51027 14.2568 7.77816 13.9889C8.04605 13.721 8.40939 13.5705 8.78824 13.5705H10.2167V12.1421C10.2167 11.7633 10.3672 11.3999 10.6351 11.1321C10.903 10.8642 11.2663 10.7137 11.6452 10.7137ZM37.3577 36.4252C37.7365 36.4252 38.0998 36.2747 38.3677 36.0068C38.6356 35.739 38.7861 35.3756 38.7861 34.9968C38.7861 34.618 38.6356 34.2546 38.3677 33.9868C38.0998 33.7189 37.7365 33.5684 37.3577 33.5684H35.9292V32.14C35.9292 31.7611 35.7787 31.3978 35.5108 31.1299C35.2429 30.862 34.8796 30.7115 34.5007 30.7115C34.1219 30.7115 33.7585 30.862 33.4906 31.1299C33.2227 31.3978 33.0722 31.7611 33.0722 32.14V33.5684H31.6438C31.2649 33.5684 30.9016 33.7189 30.6337 33.9868C30.3658 34.2546 30.2153 34.618 30.2153 34.9968C30.2153 35.3756 30.3658 35.739 30.6337 36.0068C30.9016 36.2747 31.2649 36.4252 31.6438 36.4252H33.0722V37.8536C33.0722 38.2325 33.2227 38.5958 33.4906 38.8637C33.7585 39.1316 34.1219 39.2821 34.5007 39.2821C34.8796 39.2821 35.2429 39.1316 35.5108 38.8637C35.7787 38.5958 35.9292 38.2325 35.9292 37.8536V36.4252H37.3577ZM26.587 15.1789C27.6129 14.1534 29.0042 13.5774 30.4549 13.5777C31.9055 13.578 33.2966 14.1544 34.3221 15.1803C35.3477 16.2062 35.9237 17.5975 35.9234 19.0481C35.9232 20.4987 35.3467 21.8897 34.3207 22.9152L13.8365 43.3988C12.8105 44.4243 11.4192 45.0003 9.96858 45C8.51795 44.9997 7.12685 44.4232 6.10129 43.3973C5.07573 42.3714 4.49973 40.9802 4.5 39.5296C4.50027 38.079 5.07678 36.688 6.10272 35.6624L26.587 15.1789ZM25.2157 20.5898L8.12258 37.6822C7.63272 38.1721 7.35752 38.8364 7.35752 39.5292C7.35752 40.2219 7.63272 40.8863 8.12258 41.3761C8.61243 41.866 9.27682 42.1412 9.96959 42.1412C10.6624 42.1412 11.3267 41.866 11.8166 41.3761L28.9097 24.2837L25.2157 20.5898ZM30.9295 22.2639L32.3009 20.8926C32.548 20.6511 32.7447 20.363 32.8796 20.0449C33.0146 19.7268 33.0851 19.3851 33.087 19.0396C33.0889 18.6941 33.0222 18.3517 32.8908 18.0321C32.7594 17.7126 32.5659 17.4223 32.3215 17.1781C32.0771 16.9339 31.7866 16.7406 31.4669 16.6094C31.1473 16.4783 30.8048 16.4119 30.4593 16.414C30.1137 16.4162 29.7721 16.487 29.4541 16.6221C29.1361 16.7573 28.8481 16.9543 28.6068 17.2016L27.2355 18.5728L30.9295 22.2639Z" fill="url(#paint0_linear_4076_16788)"/>
<defs>
<linearGradient id="paint0_linear_4076_16788" x1="37.1624" y1="33.6397" x2="37.1624" y2="41.6506" gradientUnits="userSpaceOnUse">
<stop stop-color="#ED3040"/>
<stop offset="1" stop-color="#2D23F4"/>
</linearGradient>
</defs>
</svg>
