<svg width="50" height="50" viewBox="0 0 50 50" fill="none" xmlns="http://www.w3.org/2000/svg">
<path d="M25.0976 40.4212C26.5978 40.3186 28.0854 40.079 29.5419 39.7054C31.3408 40.2462 33.2396 40.3686 35.093 40.0633C35.167 40.0543 35.2414 40.0487 35.3158 40.0467C35.9771 40.0467 36.8447 40.4259 38.1104 41.2247V39.9116C38.1109 39.6828 38.1728 39.4584 38.2895 39.2616C38.4062 39.0649 38.5735 38.903 38.7741 38.7928C39.3255 38.4815 39.8351 38.1315 40.3029 37.7428C42.1469 36.2021 43.1875 34.1448 43.1875 31.9689C43.1875 31.2507 43.0737 30.5348 42.8485 29.8522C43.4079 28.8235 43.8535 27.7498 44.1854 26.631C45.252 28.2072 45.8256 30.0679 45.8327 31.9689C45.8327 34.9269 44.439 37.6859 42.0237 39.703C41.6192 40.0396 41.1965 40.3493 40.7556 40.6322V43.7088C40.7556 44.7659 39.5183 45.3751 38.6461 44.7446C37.8196 44.1364 36.9654 43.567 36.0862 43.038C35.8322 42.8915 35.5694 42.7609 35.2993 42.6469C34.5655 42.7555 33.8248 42.8102 33.0831 42.8104C30.0728 42.8104 27.2901 41.9168 25.0976 40.4212ZM9.1671 34.2704C5.3652 31.0871 3.16797 26.7472 3.16797 22.0967C3.16797 12.5967 12.2508 5 23.3413 5C34.4341 5 43.5193 12.5943 43.5193 22.0967C43.5193 31.5967 34.4341 39.191 23.3413 39.191C22.0945 39.191 20.8659 39.0962 19.6555 38.9066C19.1341 39.0275 17.0435 40.2529 14.0333 42.4217C12.9429 43.2086 11.3975 42.4502 11.3975 41.1252V35.8798C10.6168 35.3972 9.87217 34.8585 9.16947 34.268M19.729 35.6712C19.8206 35.6712 19.9131 35.6783 20.0063 35.6925C21.0966 35.8727 22.2083 35.9635 23.3413 35.9651C32.7109 35.9651 40.2081 29.6958 40.2081 22.0943C40.2081 14.4953 32.7109 8.22593 23.3436 8.22593C13.9764 8.22593 6.47449 14.5 6.47449 22.0967C6.47449 25.7706 8.22848 29.2312 11.324 31.8219C12.1046 32.4729 12.9548 33.0576 13.8744 33.5759C14.1239 33.7143 14.3322 33.9165 14.4779 34.1618C14.6237 34.4071 14.7017 34.6867 14.704 34.972V37.9964C17.0862 36.4202 18.6529 35.6712 19.729 35.6712Z" fill="url(#paint0_linear_4083_15085)"/>
<path d="M15.1674 25.0014C15.8746 25.0014 16.5529 24.7205 17.053 24.2204C17.553 23.7203 17.834 23.0421 17.834 22.3349C17.834 21.6277 17.553 20.9494 17.053 20.4493C16.5529 19.9493 15.8746 19.6683 15.1674 19.6683C14.4602 19.6683 13.782 19.9493 13.2819 20.4493C12.7818 20.9494 12.5009 21.6277 12.5009 22.3349C12.5009 23.0421 12.7818 23.7203 13.2819 24.2204C13.782 24.7205 14.4602 25.0014 15.1674 25.0014ZM23.8355 25.0014C24.5427 25.0014 25.2209 24.7205 25.721 24.2204C26.2211 23.7203 26.502 23.0421 26.502 22.3349C26.502 21.6277 26.2211 20.9494 25.721 20.4493C25.2209 19.9493 24.5427 19.6683 23.8355 19.6683C23.1283 19.6683 22.45 19.9493 21.9499 20.4493C21.4499 20.9494 21.1689 21.6277 21.1689 22.3349C21.1689 23.0421 21.4499 23.7203 21.9499 24.2204C22.45 24.7205 23.1283 25.0014 23.8355 25.0014ZM32.5012 25.0014C33.2084 25.0014 33.8866 24.7205 34.3867 24.2204C34.8868 23.7203 35.1677 23.0421 35.1677 22.3349C35.1677 21.6277 34.8868 20.9494 34.3867 20.4493C33.8866 19.9493 33.2084 19.6683 32.5012 19.6683C31.7939 19.6683 31.1157 19.9493 30.6156 20.4493C30.1156 20.9494 29.8346 21.6277 29.8346 22.3349C29.8346 23.0421 30.1156 23.7203 30.6156 24.2204C31.1157 24.7205 31.7939 25.0014 32.5012 25.0014Z" fill="url(#paint1_linear_4083_15085)"/>
<defs>
<linearGradient id="paint0_linear_4083_15085" x1="0" y1="0" x2="0" y2="1" gradientUnits="objectBoundingBox">
<stop stop-color="#ED3040"/>
<stop offset="1" stop-color="#2D23F4"/>
</linearGradient>
<linearGradient id="paint1_linear_4083_15085" x1="0" y1="0" x2="0" y2="1" gradientUnits="objectBoundingBox">
<stop stop-color="#ED3040"/>
<stop offset="1" stop-color="#2D23F4"/>
</linearGradient>
</defs>
</svg>
