<svg width="50" height="50" viewBox="0 0 50 50" fill="none" xmlns="http://www.w3.org/2000/svg">
<path d="M24.5 7.66667H25.8333C25.8333 7.41926 25.7645 7.17673 25.6345 6.96622C25.5045 6.7557 25.3185 6.58551 25.0973 6.47467L24.5 7.66667ZM24.5 10.3333L25.0973 11.5253C25.3185 11.4145 25.5045 11.2443 25.6345 11.0338C25.7645 10.8233 25.8333 10.5807 25.8333 10.3333H24.5ZM21.8333 11.6667L21.236 10.4747C21.0274 10.5793 20.8499 10.737 20.7213 10.9318C20.5927 11.1265 20.5174 11.3517 20.5031 11.5847C20.4888 11.8176 20.5359 12.0503 20.6397 12.2594C20.7435 12.4684 20.9004 12.6466 21.0947 12.776L21.8333 11.6667ZM25.8333 14.3333L25.0947 15.4427C25.3134 15.5885 25.5704 15.6665 25.8333 15.6667V14.3333ZM27.1667 14.3333V15.6667C27.5203 15.6667 27.8594 15.5262 28.1095 15.2761C28.3595 15.0261 28.5 14.687 28.5 14.3333H27.1667ZM27.1667 11.6667V10.3333C26.813 10.3333 26.4739 10.4738 26.2239 10.7239C25.9738 10.9739 25.8333 11.313 25.8333 11.6667H27.1667ZM31.1667 11.6667H32.5C32.5 11.313 32.3595 10.9739 32.1095 10.7239C31.8594 10.4738 31.5203 10.3333 31.1667 10.3333V11.6667ZM31.1667 14.3333H29.8333C29.833 14.5085 29.8672 14.6821 29.934 14.8441C30.0009 15.0061 30.0989 15.1533 30.2227 15.2773L31.1667 14.3333ZM32.5 15.6667H33.8333C33.8336 15.4915 33.7994 15.3179 33.7326 15.1559C33.6658 14.9939 33.5677 14.8467 33.444 14.7227L32.5 15.6667ZM32.5 18.3333L33.444 19.2773C33.5677 19.1533 33.6658 19.0061 33.7326 18.8441C33.7994 18.6821 33.8336 18.5085 33.8333 18.3333H32.5ZM31.1667 19.6667V21C31.3419 21.0003 31.5154 20.9661 31.6774 20.8993C31.8394 20.8325 31.9866 20.7344 32.1107 20.6107L31.1667 19.6667ZM28.5 19.6667L27.9027 20.8587C28.0881 20.9516 28.2926 21 28.5 21V19.6667ZM23.1667 17L23.764 15.808C23.5786 15.7151 23.3741 15.6667 23.1667 15.6667C22.9593 15.6667 22.7547 15.7151 22.5693 15.808L23.1667 17ZM20.5 18.3333V19.6667C20.7074 19.6667 20.9119 19.6183 21.0973 19.5253L20.5 18.3333ZM16.5 18.3333V17C16.2026 17.0001 15.9137 17.0996 15.6794 17.2827C15.445 17.4659 15.2786 17.7221 15.2067 18.0107L16.5 18.3333ZM15.1667 23.6667L13.8733 23.344C13.8172 23.5673 13.8199 23.8014 13.8811 24.0234C13.9424 24.2453 14.06 24.4477 14.2227 24.6107L15.1667 23.6667ZM19.1667 27.6667L18.2227 28.6107C18.3242 28.7114 18.4412 28.7951 18.5693 28.8587L19.1667 27.6667ZM21.8333 29H23.1667C23.1667 28.7526 23.0978 28.5101 22.9678 28.2996C22.8378 28.089 22.6519 27.9188 22.4307 27.808L21.8333 29ZM21.8333 33H20.5C20.4997 33.1752 20.5339 33.3488 20.6007 33.5107C20.6675 33.6727 20.7656 33.82 20.8893 33.944L21.8333 33ZM23.1667 34.3333H24.5C24.5003 34.1581 24.4661 33.9846 24.3993 33.8226C24.3325 33.6606 24.2344 33.5134 24.1107 33.3893L23.1667 34.3333ZM23.1667 37H21.8333C21.8333 37.2074 21.8817 37.4119 21.9747 37.5973L23.1667 37ZM24.5 39.6667L23.308 40.264C23.4188 40.4852 23.589 40.6712 23.7995 40.8012C24.0101 40.9311 24.2526 41 24.5 41V39.6667ZM27.1667 39.6667V41C27.3862 40.9999 27.6024 40.9455 27.7959 40.8418C27.9894 40.7381 28.1544 40.5881 28.276 40.4053L27.1667 39.6667ZM29.8333 35.6667L30.9427 36.4053L31.0253 36.264L29.8333 35.6667ZM31.1667 33L32.3587 33.5973C32.4516 33.4119 32.5 33.2074 32.5 33H31.1667ZM31.1667 30.3333L30.1 29.5333C29.9269 29.7641 29.8333 30.0448 29.8333 30.3333H31.1667ZM35.1667 25L36.2333 25.8C36.382 25.6017 36.4725 25.366 36.4946 25.1192C36.5168 24.8723 36.4697 24.6242 36.3587 24.4027L35.1667 25ZM33.8333 22.3333V21C33.606 21 33.3824 21.0582 33.1838 21.1689C32.9852 21.2797 32.8183 21.4394 32.6989 21.6329C32.5794 21.8263 32.5114 22.0471 32.5014 22.2743C32.4913 22.5014 32.5395 22.7274 32.6413 22.9307L33.8333 22.3333ZM37.8333 22.3333V23.6667C38.187 23.6667 38.5261 23.5262 38.7761 23.2761C39.0262 23.0261 39.1667 22.687 39.1667 22.3333H37.8333ZM37.8333 19.6667V18.3333C37.4797 18.3333 37.1406 18.4738 36.8905 18.7239C36.6405 18.9739 36.5 19.313 36.5 19.6667H37.8333ZM24.5 42.3333C19.9029 42.3333 15.4941 40.5071 12.2435 37.2565C8.99285 34.0059 7.16667 29.5971 7.16667 25H4.5C4.5 30.3043 6.60714 35.3914 10.3579 39.1421C14.1086 42.8929 19.1957 45 24.5 45V42.3333ZM41.8333 25C41.8333 27.2762 41.385 29.5302 40.5139 31.6332C39.6428 33.7362 38.3661 35.647 36.7565 37.2565C35.147 38.8661 33.2362 40.1428 31.1332 41.0139C29.0302 41.885 26.7762 42.3333 24.5 42.3333V45C29.8043 45 34.8914 42.8929 38.6421 39.1421C42.3929 35.3914 44.5 30.3043 44.5 25H41.8333ZM24.5 7.66667C26.7762 7.66667 29.0302 8.11501 31.1332 8.98609C33.2362 9.85717 35.147 11.1339 36.7565 12.7435C38.3661 14.353 39.6428 16.2638 40.5139 18.3668C41.385 20.4698 41.8333 22.7238 41.8333 25H44.5C44.5 19.6957 42.3929 14.6086 38.6421 10.8579C34.8914 7.10714 29.8043 5 24.5 5V7.66667ZM24.5 5C19.1957 5 14.1086 7.10714 10.3579 10.8579C6.60714 14.6086 4.5 19.6957 4.5 25H7.16667C7.16667 20.4029 8.99285 15.9941 12.2435 12.7435C15.4941 9.49285 19.9029 7.66667 24.5 7.66667V5ZM21.236 7.52533L23.9027 8.85867L25.0973 6.47467L22.4307 5.14133L21.236 7.52533ZM23.1667 7.66667V10.3333H25.8333V7.66667H23.1667ZM23.9027 9.14133L21.236 10.4747L22.4307 12.8587L25.0973 11.5253L23.9027 9.14133ZM21.0947 12.776L25.0947 15.4427L26.572 13.224L22.572 10.5573L21.0947 12.776ZM25.8333 15.6667H27.1667V13H25.8333V15.6667ZM28.5 14.3333V11.6667H25.8333V14.3333H28.5ZM27.1667 13H31.1667V10.3333H27.1667V13ZM29.8333 11.6667V14.3333H32.5V11.6667H29.8333ZM30.2227 15.2773L31.556 16.6107L33.444 14.7227L32.1107 13.3893L30.2227 15.2773ZM31.1667 15.6667V18.3333H33.8333V15.6667H31.1667ZM31.556 17.3893L30.2227 18.7227L32.1107 20.6107L33.444 19.2773L31.556 17.3893ZM31.1667 18.3333H28.5V21H31.1667V18.3333ZM29.0973 18.4747L23.764 15.808L22.5693 18.192L27.9027 20.8587L29.0973 18.4747ZM22.5693 15.808L19.9027 17.1413L21.0973 19.5253L23.764 18.192L22.5693 15.808ZM20.5 17H16.5V19.6667H20.5V17ZM15.2067 18.0107L13.8733 23.344L16.46 23.9893L17.7933 18.656L15.2067 18.0107ZM14.2227 24.6107L18.2227 28.6107L20.1107 26.7227L16.1107 22.7227L14.2227 24.6107ZM18.5693 28.8587L21.236 30.192L22.4307 27.808L19.764 26.4747L18.5693 28.8587ZM20.5 29V33H23.1667V29H20.5ZM20.8893 33.944L22.2227 35.2773L24.1107 33.3893L22.7773 32.056L20.8893 33.944ZM21.8333 34.3333V37H24.5V34.3333H21.8333ZM21.9747 37.5973L23.308 40.264L25.692 39.0693L24.3587 36.4027L21.9747 37.5973ZM24.5 41H27.1667V38.3333H24.5V41ZM28.276 40.4053L30.9427 36.4053L28.724 34.928L26.0573 38.928L28.276 40.4053ZM31.0253 36.264L32.3587 33.5973L29.9747 32.4027L28.6413 35.0693L31.0253 36.264ZM32.5 33V30.3333H29.8333V33H32.5ZM32.2333 31.1333L36.2333 25.8L34.1 24.2L30.1 29.5333L32.2333 31.1333ZM36.3587 24.4027L35.0253 21.736L32.6413 22.9307L33.9747 25.5973L36.3587 24.4027ZM33.8333 23.6667H37.8333V21H33.8333V23.6667ZM39.1667 22.3333V19.6667H36.5V22.3333H39.1667ZM37.8333 21H43.1667V18.3333H37.8333V21Z" fill="url(#paint0_linear_4083_15051)"/>
<defs>
<linearGradient id="paint0_linear_4083_15051" x1="37.1624" y1="33.6397" x2="37.1624" y2="41.6506" gradientUnits="userSpaceOnUse">
<stop stop-color="#ED3040"/>
<stop offset="1" stop-color="#2D23F4"/>
</linearGradient>
</defs>
</svg>
