<svg width="50" height="50" viewBox="0 0 50 50" fill="none" xmlns="http://www.w3.org/2000/svg">
<path d="M10.5 22.7776C10.5 24.8204 10.8751 26.8432 11.6037 28.7305C12.3324 30.6178 13.4005 32.3327 14.747 33.7771C16.0934 35.2216 17.6919 36.3674 19.4511 37.1492C21.2103 37.9309 23.0958 38.3333 25 38.3333C26.9042 38.3333 28.7897 37.9309 30.5489 37.1492C32.3081 36.3674 33.9066 35.2216 35.253 33.7771C36.5995 32.3327 37.6676 30.6178 38.3963 28.7305C39.1249 26.8432 39.5 24.8204 39.5 22.7776M25 45V40.5555M25.0008 5C28.4329 5 31.2151 7.98479 31.2151 11.6667V22.7779C31.2151 26.4598 28.4329 29.4446 25.0008 29.4446C21.5688 29.4446 18.7865 26.4598 18.7865 22.7779V11.6667C18.7865 7.98479 21.5688 5 25.0008 5Z" stroke="url(#paint0_linear_4083_15066)" stroke-width="2.5" stroke-linecap="round" stroke-linejoin="round"/>
<defs>
<linearGradient id="paint0_linear_4083_15066" x1="0" y1="0" x2="0" y2="1" gradientUnits="objectBoundingBox">
<stop stop-color="#2C22F3"/>
<stop offset="1" stop-color="#E7101F"/>
</linearGradient>
</defs>
</svg>
