<svg width="50" height="50" viewBox="0 0 50 50" fill="none" xmlns="http://www.w3.org/2000/svg">
<path d="M26.9959 6.5V10H30.9459C31.6479 10 32.3339 10.212 32.9139 10.606L36.3079 12.914C36.3919 12.97 36.4853 12.9987 36.5879 13H44.7919C45.1898 13 45.5713 13.158 45.8526 13.4393C46.1339 13.7206 46.2919 14.1022 46.2919 14.5C46.2919 14.8978 46.1339 15.2794 45.8526 15.5607C45.5713 15.842 45.1898 16 44.7919 16H41.6359L48.3679 31.36C48.5026 31.6671 48.5305 32.0105 48.4471 32.3354C48.3637 32.6602 48.1739 32.9477 47.9079 33.152C47.7079 33.3 47.5013 33.4373 47.2879 33.564C46.7816 33.8685 46.2535 34.1353 45.7079 34.362C43.8989 35.1185 41.9568 35.5054 39.9959 35.5C38.0356 35.5085 36.0937 35.1222 34.2859 34.364C33.7403 34.1366 33.2122 33.8692 32.7059 33.564C32.4932 33.442 32.2881 33.3071 32.0919 33.16L32.0819 33.152C31.816 32.9477 31.6261 32.6602 31.5427 32.3354C31.4594 32.0105 31.4872 31.6671 31.6219 31.36L38.3579 16H36.5859C35.8839 16 35.1979 15.788 34.6179 15.394L31.2239 13.086C31.1413 13.03 31.0438 13.0001 30.9439 13H26.9959V42H35.9699C36.3677 42 36.7493 42.158 37.0306 42.4393C37.3119 42.7206 37.4699 43.1022 37.4699 43.5C37.4699 43.8978 37.3119 44.2794 37.0306 44.5607C36.7493 44.842 36.3677 45 35.9699 45H15.0219C14.6241 45 14.2426 44.842 13.9613 44.5607C13.68 44.2794 13.5219 43.8978 13.5219 43.5C13.5219 43.1022 13.68 42.7206 13.9613 42.4393C14.2426 42.158 14.6241 42 15.0219 42H23.9959V13H20.0459C19.9461 13.0001 19.8486 13.03 19.7659 13.086L16.3739 15.394C15.7939 15.788 15.1079 16 14.4059 16H12.6339L19.3699 31.36C19.5003 31.6584 19.53 31.9911 19.4546 32.3079C19.3792 32.6247 19.2028 32.9083 18.9519 33.116C18.7919 33.246 18.6319 33.368 18.3319 33.562C17.8264 33.89 17.2969 34.1795 16.7479 34.428C14.942 35.25 12.9801 35.673 10.9959 35.668C9.01175 35.673 7.04982 35.25 5.24393 34.428C4.69493 34.1795 4.16543 33.89 3.65993 33.562C3.44704 33.4245 3.24081 33.277 3.04193 33.12C2.79256 32.9104 2.61713 32.6262 2.54152 32.3093C2.4659 31.9924 2.49409 31.6596 2.62193 31.36L9.35593 16H6.20193C5.8041 16 5.42257 15.842 5.14127 15.5607C4.85996 15.2794 4.70193 14.8978 4.70193 14.5C4.70193 14.1022 4.85996 13.7206 5.14127 13.4393C5.42257 13.158 5.8041 13 6.20193 13H14.4059C14.5073 13 14.6013 12.9713 14.6879 12.914L18.0779 10.606C18.6579 10.21 19.3459 10 20.0479 10H23.9959V6.5C23.9959 6.10218 24.154 5.72064 24.4353 5.43934C24.7166 5.15804 25.0981 5 25.4959 5C25.8938 5 26.2753 5.15804 26.5566 5.43934C26.8379 5.72064 26.9959 6.10218 26.9959 6.5ZM5.88193 31.396C7.45559 32.2351 9.21255 32.6714 10.9959 32.666C12.7793 32.6714 14.5363 32.2351 16.1099 31.396L10.9959 19.736L5.88193 31.396ZM34.9019 31.348C35.0659 31.428 35.2493 31.512 35.4519 31.6C36.5119 32.046 38.0619 32.5 39.9959 32.5C41.759 32.5047 43.5004 32.1109 45.0899 31.348L39.9959 19.734L34.9019 31.348Z" fill="url(#paint0_linear_4083_15071)"/>
<defs>
<linearGradient id="paint0_linear_4083_15071" x1="0" y1="0" x2="0" y2="1" gradientUnits="objectBoundingBox">
<stop stop-color="#ED3040"/>
<stop offset="1" stop-color="#2D23F4"/>
</linearGradient>
</defs>
</svg>
