<svg width="50" height="50" viewBox="0 0 50 50" fill="none" xmlns="http://www.w3.org/2000/svg">
<path d="M20.5 8.2H30.1C30.5243 8.2 30.9313 8.36857 31.2314 8.66863C31.5314 8.96869 31.7 9.37565 31.7 9.8V13H18.9V9.8C18.9 9.37565 19.0686 8.96869 19.3686 8.66863C19.6687 8.36857 20.0757 8.2 20.5 8.2ZM15.7 9.8V13H11.7C9.79044 13 7.95909 13.7586 6.60883 15.1088C5.25857 16.4591 4.5 18.2904 4.5 20.2V37.8C4.5 39.7096 5.25857 41.5409 6.60883 42.8912C7.95909 44.2414 9.79044 45 11.7 45H38.9C40.8096 45 42.6409 44.2414 43.9912 42.8912C45.3414 41.5409 46.1 39.7096 46.1 37.8V20.2C46.1 18.2904 45.3414 16.4591 43.9912 15.1088C42.6409 13.7586 40.8096 13 38.9 13H34.9V9.8C34.9 8.52696 34.3943 7.30606 33.4941 6.40589C32.5939 5.50571 31.373 5 30.1 5H20.5C19.227 5 18.0061 5.50571 17.1059 6.40589C16.2057 7.30606 15.7 8.52696 15.7 9.8ZM42.9 22.6C42.9 23.873 42.3943 25.0939 41.4941 25.9941C40.5939 26.8943 39.373 27.4 38.1 27.4H30.1V26.6C30.1 25.9635 29.8471 25.353 29.3971 24.9029C28.947 24.4529 28.3365 24.2 27.7 24.2H22.9C22.2635 24.2 21.653 24.4529 21.2029 24.9029C20.7529 25.353 20.5 25.9635 20.5 26.6V27.4H12.5C11.227 27.4 10.0061 26.8943 9.10589 25.9941C8.20571 25.0939 7.7 23.873 7.7 22.6V20.2C7.7 19.1391 8.12143 18.1217 8.87157 17.3716C9.62172 16.6214 10.6391 16.2 11.7 16.2H38.9C39.9609 16.2 40.9783 16.6214 41.7284 17.3716C42.4786 18.1217 42.9 19.1391 42.9 20.2V22.6ZM20.5 30.6V31.4C20.5 32.0365 20.7529 32.647 21.2029 33.0971C21.653 33.5471 22.2635 33.8 22.9 33.8H27.7C28.3365 33.8 28.947 33.5471 29.3971 33.0971C29.8471 32.647 30.1 32.0365 30.1 31.4V30.6H38.1C39.8313 30.6023 41.5163 30.0407 42.9 29V37.8C42.9 38.8609 42.4786 39.8783 41.7284 40.6284C40.9783 41.3786 39.9609 41.8 38.9 41.8H11.7C10.6391 41.8 9.62172 41.3786 8.87157 40.6284C8.12143 39.8783 7.7 38.8609 7.7 37.8V29C9.0376 30.0048 10.6984 30.6 12.5 30.6H20.5Z" fill="url(#paint0_linear_4083_15038)"/>
<defs>
<linearGradient id="paint0_linear_4083_15038" x1="38.4689" y1="33.6397" x2="38.4689" y2="41.6506" gradientUnits="userSpaceOnUse">
<stop stop-color="#ED3040"/>
<stop offset="1" stop-color="#2D23F4"/>
</linearGradient>
</defs>
</svg>
