<svg width="50" height="50" viewBox="0 0 50 50" fill="none" xmlns="http://www.w3.org/2000/svg">
<path fill-rule="evenodd" clip-rule="evenodd" d="M25.6688 43.9468L25.6479 43.9506L25.5134 44.0169L25.4756 44.0245L25.449 44.0169L25.3146 43.9506C25.2944 43.9443 25.2792 43.9475 25.2691 43.9601L25.2615 43.979L25.2293 44.7897L25.2388 44.8276L25.2577 44.8523L25.4547 44.9924L25.4831 45L25.5059 44.9924L25.7029 44.8523L25.7256 44.8219L25.7332 44.7897L25.701 43.9809C25.6959 43.9607 25.6852 43.9494 25.6688 43.9468ZM26.1707 43.7328L26.1461 43.7366L25.7957 43.9127L25.7767 43.9317L25.7711 43.9525L25.8051 44.767L25.8146 44.7897L25.8298 44.803L26.2105 44.9792C26.2345 44.9855 26.2528 44.9804 26.2654 44.964L26.273 44.9375L26.2086 43.7745C26.2023 43.7517 26.1897 43.7378 26.1707 43.7328ZM24.8164 43.7366C24.808 43.7315 24.7981 43.7299 24.7885 43.732C24.779 43.7341 24.7707 43.7398 24.7652 43.7479L24.7539 43.7745L24.6895 44.9375C24.6907 44.9602 24.7015 44.9754 24.7217 44.983L24.7501 44.9792L25.1308 44.803L25.1498 44.7879L25.1573 44.767L25.1895 43.9525L25.1839 43.9298L25.1649 43.9109L24.8164 43.7366Z" fill="url(#paint0_linear_4076_16793)"/>
<path fill-rule="evenodd" clip-rule="evenodd" d="M31.5199 6.1087C32.1905 5.43853 33.088 5.04417 34.0352 5.00349C34.9824 4.96281 35.9105 5.27877 36.6361 5.88898L36.8785 6.1087L38.2177 7.44978C38.8874 8.1203 39.2814 9.01744 39.3221 9.9642C39.3627 10.911 39.0471 11.8386 38.4374 12.5641L38.2177 12.8065L36.8785 14.1457C36.7625 14.2609 36.6391 14.3685 36.5092 14.4677C36.6749 15.0619 36.693 15.6876 36.562 16.2903C36.4309 16.8931 36.1546 17.4548 35.7572 17.9265L35.5374 18.1633L33.6622 20.0385C34.965 21.1939 36.0078 22.6126 36.7219 24.2007C37.436 25.7889 37.8051 27.5105 37.8048 29.2518C37.8048 32.3658 36.6493 35.209 34.7438 37.3778L34.3763 37.7756H39.699C40.1817 37.7761 40.6461 37.961 40.9972 38.2924C41.3482 38.6238 41.5595 39.0768 41.5878 39.5588C41.6161 40.0407 41.4593 40.5153 41.1494 40.8855C40.8395 41.2558 40.4 41.4937 39.9206 41.5507L39.699 41.564H9.39208C8.90929 41.5634 8.44493 41.3786 8.09387 41.0471C7.74281 40.7157 7.53155 40.2627 7.50326 39.7808C7.47496 39.2988 7.63177 38.8243 7.94164 38.454C8.25151 38.0838 8.69105 37.8459 9.17046 37.7889L9.39208 37.7756H25.4926C27.2027 37.7758 28.8733 37.2616 30.2873 36.2999C31.7014 35.3382 32.7934 33.9734 33.4216 32.3828C34.0497 30.7923 34.185 29.0496 33.8097 27.3812C33.4344 25.7128 32.566 24.1959 31.3172 23.0275L30.9763 22.7244L24.824 28.8805C24.1533 29.5512 23.2553 29.9459 22.3077 29.9866C21.36 30.0273 20.4316 29.711 19.7059 29.1003L19.4653 28.8786L15.4478 24.8611C14.7773 24.1907 14.3826 23.2933 14.3416 22.3461C14.3006 21.3989 14.6162 20.4707 15.2262 19.7449L15.4478 19.5043L26.1631 8.78897C26.6376 8.31437 27.2296 7.97431 27.8786 7.80358C28.5275 7.63284 29.2102 7.63756 29.8568 7.81725L30.0121 7.62784L30.1807 7.44978L31.5199 6.1087ZM14.1086 26.2022L18.1243 30.2178C18.3002 30.3937 18.4399 30.6025 18.5352 30.8323C18.6304 31.0621 18.6795 31.3085 18.6796 31.5573C18.6797 31.8061 18.6308 32.0525 18.5357 32.2824C18.4405 32.5122 18.3011 32.7212 18.1252 32.8971C17.9493 33.0731 17.7405 33.2128 17.5107 33.308C17.2809 33.4033 17.0345 33.4524 16.7857 33.4525C16.5369 33.4526 16.2906 33.4037 16.0607 33.3086C15.8308 33.2134 15.6219 33.074 15.4459 32.8981L11.4264 28.8786C11.0715 28.523 10.8724 28.0409 10.8729 27.5384C10.8735 27.0359 11.0736 26.5542 11.4293 26.1993C11.7849 25.8444 12.267 25.6453 12.7695 25.6458C13.272 25.6464 13.7537 25.8465 14.1086 26.2022ZM28.8415 11.4692L18.1243 22.1827L22.1418 26.2003L32.8572 15.4849L28.8396 11.4673L28.8415 11.4692ZM34.1983 8.79086L32.8591 10.13L34.1983 11.4692L35.5374 10.13L34.1983 8.79086Z" fill="url(#paint1_linear_4076_16793)"/>
<defs>
<linearGradient id="paint0_linear_4076_16793" x1="0" y1="0" x2="0" y2="1" gradientUnits="objectBoundingBox">
<stop stop-color="#ED3040"/>
<stop offset="1" stop-color="#2D23F4"/>
</linearGradient>
<linearGradient id="paint1_linear_4076_16793" x1="0" y1="0" x2="0" y2="1" gradientUnits="objectBoundingBox">
<stop stop-color="#ED3040"/>
<stop offset="1" stop-color="#2D23F4"/>
</linearGradient>
</defs>
</svg>
