<svg width="50" height="50" viewBox="0 0 50 50" fill="none" xmlns="http://www.w3.org/2000/svg">
<path fill-rule="evenodd" clip-rule="evenodd" d="M44.3603 6.68913L43.2656 6.515L42.9783 5.44363L44.6298 5L44.3603 6.68913ZM29.6982 22.0277L28.7544 22.6088L28.7522 22.6066L28.7489 22.6011L28.7378 22.5833L28.7001 22.5201L28.567 22.2905C28.4117 22.0189 28.262 21.7441 28.1178 21.4665C27.6612 20.5937 27.2633 19.6915 26.9267 18.7659C26.5518 17.7189 26.2302 16.52 26.1803 15.3599C26.1315 14.2042 26.3466 12.9499 27.2073 11.9661C27.9803 11.0833 29.4376 10.2703 30.9692 9.56718C32.5563 8.8363 34.424 8.13536 36.193 7.5287C38.3842 6.78053 40.5975 6.0985 42.8297 5.48356L42.9406 5.4525L42.9795 5.44141L43.2678 6.51389L44.3625 6.68802L44.3558 6.72905L44.337 6.84661C44.2263 7.52702 44.1102 8.20653 43.9887 8.8851C43.6932 10.5538 43.3708 12.2176 43.0216 13.8759C42.6268 15.7403 42.1676 17.6945 41.6807 19.3304C41.4638 20.0784 41.2095 20.815 40.9188 21.5375C40.6659 22.1474 40.3665 22.7397 40.0027 23.1567C39.2241 24.0462 38.0119 24.3246 36.9527 24.3956C35.8481 24.4699 34.6237 24.3357 33.5223 24.1405C32.5401 23.9637 31.5674 23.7379 30.6077 23.4639C30.215 23.3533 29.8245 23.235 29.4365 23.109L29.3666 23.0846L29.3478 23.078L29.3422 23.0769H29.34L29.6982 22.0277ZM29.6982 22.0277L28.7544 22.6088L28.9629 22.9471L29.34 23.0769L29.6982 22.0277ZM30.4435 21.1038C31.5794 21.457 32.7352 21.7421 33.905 21.9578C34.9298 22.1386 35.9546 22.2406 36.8041 22.1829C37.7014 22.1231 38.1516 21.9035 38.3324 21.6972C38.4478 21.5641 38.6363 21.2491 38.8692 20.6879C39.1303 20.0368 39.3587 19.3732 39.5535 18.6993C40.016 17.1466 40.4607 15.2579 40.8511 13.4179C41.2258 11.6378 41.5689 9.85112 41.8804 8.05884L41.5377 8.15865C40.3077 8.52132 38.6463 9.03261 36.9128 9.62707C35.176 10.2226 33.387 10.8959 31.8953 11.5824C30.3471 12.2944 29.3023 12.941 28.8764 13.4279C28.5359 13.8161 28.3607 14.4139 28.3973 15.2645C28.4328 16.1107 28.6757 17.0723 29.0151 18.0161C29.4025 19.0841 29.8804 20.1171 30.4435 21.1038ZM9.228 9.48067L8.94075 10.552L7.84498 10.7262L7.57658 9.03815L9.228 9.48067ZM19.9661 23.1589L20.9099 23.739L20.9121 23.7368L20.9144 23.7323L20.9232 23.7179L20.9554 23.6647L21.0663 23.4761C21.5967 22.55 22.0475 21.5805 22.4138 20.5781C22.7221 19.7175 22.9905 18.7204 23.0316 17.7488C23.0737 16.7806 22.8941 15.7004 22.1465 14.8464C21.4855 14.09 20.2622 13.4157 19.02 12.8434C17.7213 12.2456 16.1963 11.6733 14.7556 11.1798C12.9712 10.571 11.1689 10.0158 9.35111 9.51506L9.26016 9.48955L9.228 9.48067L8.94075 10.552L7.84498 10.7262L7.85052 10.7594L7.86605 10.8559L7.92594 11.2175C8.22512 13.0115 8.56199 14.799 8.93631 16.5788C9.25794 18.096 9.63281 19.6897 10.0299 21.0262C10.2295 21.6938 10.438 22.316 10.6565 22.8406C10.8639 23.3397 11.1179 23.8488 11.4373 24.2126C12.1249 25 13.1819 25.2329 14.0569 25.2906C14.9797 25.3527 15.9923 25.2407 16.8962 25.0821C18.0313 24.8791 19.1505 24.596 20.2456 24.2347L20.3188 24.2103L20.3243 24.2081L19.9661 23.1589ZM19.9661 23.1589L20.9099 23.739L20.7014 24.0784L20.3243 24.2081L19.9661 23.1589ZM19.2197 22.234C19.2899 22.1083 19.372 21.9556 19.4659 21.7759C19.7299 21.268 20.0581 20.5759 20.3254 19.8284C20.5972 19.072 20.7879 18.3123 20.8156 17.6546C20.8445 16.9902 20.7047 16.5677 20.4774 16.3059C20.1635 15.9488 19.3539 15.4386 18.0929 14.8586C16.8906 14.3052 15.4444 13.7606 14.0359 13.2782C12.8089 12.8592 11.5731 12.4665 10.3293 12.1003L10.3337 12.128C10.5223 13.1928 10.7907 14.6301 11.1068 16.1196C11.4229 17.6124 11.7833 19.1396 12.156 20.394C12.3434 21.0217 12.5275 21.5641 12.705 21.99C12.8935 22.4414 13.0355 22.6709 13.1064 22.753C13.1974 22.8562 13.4913 23.0303 14.2055 23.078C14.8721 23.1223 15.6862 23.0425 16.5113 22.8972C17.4271 22.7328 18.3317 22.512 19.2197 22.234ZM16.7908 32.8068C16.5091 32.8223 16.3716 32.8622 16.3361 32.8778C15.8337 33.1051 14.3076 33.6375 12.99 34.0867C12.3135 34.3185 11.6646 34.5358 11.1855 34.6967L11.1545 34.7078V40.7001C11.3497 40.6912 11.5593 40.6835 11.7733 40.6757C12.6916 40.6424 13.7841 40.6092 14.2577 40.6291C16.2451 40.7079 17.738 41.1781 19.1199 41.614L19.1498 41.624C20.4452 42.0321 21.6452 42.407 23.2168 42.5256C23.6604 42.5589 24.0919 42.6022 24.4945 42.6421H24.5C26.0461 42.7974 27.0642 42.875 27.8527 42.5889C28.4661 42.3659 30.7119 41.3245 32.9767 40.1855C34.0969 39.6221 35.1948 39.0487 36.0677 38.5574C36.5058 38.3111 36.8773 38.0916 37.1623 37.9074C37.3036 37.8158 37.4174 37.7381 37.5039 37.6745L37.6038 37.5969L37.6348 37.5703C37.7457 37.4583 37.8633 37.0679 37.6725 36.7008C37.5827 36.5291 37.4344 36.3953 37.2544 36.3237C37.0326 36.2272 36.6555 36.1529 36.0566 36.2516C34.7057 36.4734 33.092 37.1233 31.4805 37.7788L31.4584 37.7888C30.6665 38.1104 29.8724 38.4331 29.1681 38.6683C28.4916 38.8934 27.7407 39.0953 27.0864 39.0564C26.188 39.001 24.612 38.7681 23.3122 38.5574C22.5652 38.4366 21.8191 38.3101 21.0741 38.1781L20.9299 38.1525L20.8789 38.1426L21.0896 35.9422L26.1581 36.0032H26.1692C26.2284 35.9968 26.287 35.9857 26.3444 35.9699C26.5196 35.9255 26.8202 35.8157 27.1984 35.5484C27.3148 35.4653 27.4679 35.3122 27.611 35.107C27.6701 35.0213 27.7204 34.9377 27.7618 34.8564C27.1439 34.8166 26.5299 34.7298 25.9252 34.5968C25.5959 34.5251 25.2693 34.4419 24.9458 34.3473L24.9081 34.3362L18.7006 32.9543L18.6419 32.9443L18.4089 32.9088C18.1553 32.8715 17.9004 32.8431 17.6448 32.8234C17.3608 32.7996 17.0755 32.794 16.7908 32.8068ZM19.1188 30.7783L19.1387 30.7816L25.4804 32.1924L25.527 32.2068L25.5359 32.2101L25.578 32.2223L25.7533 32.2722C25.9074 32.3144 26.1292 32.372 26.3932 32.4297C26.9322 32.5462 27.6065 32.6537 28.2298 32.6537C28.8542 32.6537 29.533 32.8867 29.899 33.5499C30.2118 34.1177 30.1341 34.7322 30.0243 35.1381C29.9222 35.4969 29.7702 35.8396 29.5729 36.1562C29.9108 36.0231 30.2679 35.8797 30.6443 35.7259L30.7131 35.6971C32.2414 35.076 34.0736 34.3307 35.6961 34.0634C37.5816 33.7551 38.9956 34.4316 39.6422 35.6826C40.2123 36.7862 40.0859 38.2413 39.2152 39.1263C38.9968 39.3481 38.6718 39.5733 38.3613 39.774C37.9657 40.0242 37.5633 40.2635 37.1546 40.4916C36.2396 41.0062 35.1072 41.5973 33.9715 42.1685C31.729 43.2965 29.3666 44.4 28.608 44.675C27.2927 45.1519 25.771 45 24.419 44.8647L24.2782 44.8503C23.869 44.8083 23.4594 44.7714 23.0493 44.7394C21.2083 44.5996 19.7975 44.1549 18.5088 43.749L18.481 43.7401C17.0947 43.3031 15.8459 42.9138 14.1689 42.8462C13.8007 42.8317 12.8092 42.8584 11.8532 42.8939C11.3148 42.9134 10.7765 42.9352 10.2384 42.9593L8.9352 43.0192V33.1085L9.90786 32.7857C10.6971 32.5234 11.4853 32.258 12.2724 31.9894C13.6521 31.518 15.0429 31.0289 15.4222 30.8581C15.8292 30.674 16.2917 30.6142 16.6621 30.592C17.0559 30.5698 17.4607 30.5864 17.8145 30.613C18.2403 30.6471 18.6644 30.7 19.0855 30.7716L19.1088 30.7761H19.1154L19.1188 30.7783Z" fill="url(#paint0_linear_4076_16782)"/>
<path fill-rule="evenodd" clip-rule="evenodd" d="M36.8296 13.1029C36.9403 13.1976 37.0313 13.3131 37.0973 13.443C37.1634 13.5728 37.2032 13.7143 37.2145 13.8596C37.2258 14.0048 37.2085 14.1508 37.1633 14.2893C37.1182 14.4278 37.0463 14.556 36.9516 14.6667C33.6455 18.5241 29.5297 24.1771 27.713 28.772C27.6594 28.9074 27.5796 29.031 27.4783 29.1356C27.3769 29.2402 27.256 29.3239 27.1223 29.3818C26.9886 29.4396 26.8449 29.4706 26.6992 29.4729C26.5535 29.4753 26.4089 29.4489 26.2734 29.3953C26.138 29.3417 26.0144 29.2619 25.9098 29.1606C25.8051 29.0592 25.7215 28.9382 25.6636 28.8046C25.6057 28.6709 25.5748 28.5271 25.5724 28.3815C25.5701 28.2358 25.5965 28.0911 25.6501 27.9557C27.6054 23.0103 31.9175 17.1311 35.2658 13.2238C35.4573 13.0006 35.7296 12.8625 36.0229 12.8401C36.3162 12.8176 36.6064 12.9114 36.8296 13.1029ZM14.9031 16.6608C14.7888 16.7511 14.6933 16.863 14.6222 16.9902C14.5511 17.1174 14.5058 17.2573 14.4888 17.4021C14.4718 17.5468 14.4835 17.6934 14.5232 17.8336C14.5629 17.9738 14.6298 18.1048 14.7202 18.2191C17.2067 21.3744 19.9217 25.4126 21.2105 28.762C21.3211 29.0293 21.5319 29.2428 21.7977 29.357C22.0636 29.4711 22.3635 29.4768 22.6335 29.3729C22.9036 29.269 23.1223 29.0637 23.2431 28.8008C23.3638 28.5379 23.3771 28.2382 23.28 27.9657C21.8704 24.3013 18.9901 20.0524 16.4614 16.8461C16.2794 16.6151 16.0132 16.4658 15.7212 16.4311C15.4292 16.3963 15.1342 16.479 14.9031 16.6608Z" fill="url(#paint1_linear_4076_16782)"/>
<path d="M4.5 30.582H11.1545V45H4.5V30.582Z" fill="url(#paint2_linear_4076_16782)"/>
<defs>
<linearGradient id="paint0_linear_4076_16782" x1="37.2684" y1="33.6397" x2="37.2684" y2="41.6506" gradientUnits="userSpaceOnUse">
<stop stop-color="#ED3040"/>
<stop offset="1" stop-color="#2D23F4"/>
</linearGradient>
<linearGradient id="paint1_linear_4076_16782" x1="37.2684" y1="33.6397" x2="37.2684" y2="41.6506" gradientUnits="userSpaceOnUse">
<stop stop-color="#ED3040"/>
<stop offset="1" stop-color="#2D23F4"/>
</linearGradient>
<linearGradient id="paint2_linear_4076_16782" x1="37.2684" y1="33.6397" x2="37.2684" y2="41.6506" gradientUnits="userSpaceOnUse">
<stop stop-color="#ED3040"/>
<stop offset="1" stop-color="#2D23F4"/>
</linearGradient>
</defs>
</svg>
