<svg width="50" height="50" viewBox="0 0 50 50" fill="none" xmlns="http://www.w3.org/2000/svg">
<path d="M24.7 33.05C24.7 33.27 24.87 33.45 25.075 33.45H34.325C34.53 33.45 34.7 33.27 34.7 33.05V30.65C34.7 30.43 34.53 30.25 34.325 30.25H25.075C24.87 30.25 24.7 30.43 24.7 30.65V33.05ZM14.955 33.355L24.555 25.305C24.745 25.145 24.745 24.85 24.555 24.69L14.955 16.645C14.897 16.5957 14.8262 16.5641 14.7508 16.5539C14.6754 16.5437 14.5987 16.5554 14.5297 16.5875C14.4607 16.6196 14.4024 16.6708 14.3617 16.7351C14.321 16.7993 14.2996 16.8739 14.3 16.95V20.085C14.3 20.205 14.35 20.315 14.445 20.39L19.935 25L14.445 29.61C14.4003 29.6474 14.3642 29.694 14.3392 29.7467C14.3142 29.7993 14.3008 29.8567 14.3 29.915V33.05C14.3 33.39 14.695 33.575 14.955 33.355ZM42.9 5H6.1C5.215 5 4.5 5.715 4.5 6.6V43.4C4.5 44.285 5.215 45 6.1 45H42.9C43.785 45 44.5 44.285 44.5 43.4V6.6C44.5 5.715 43.785 5 42.9 5ZM40.9 41.4H8.1V8.6H40.9V41.4Z" fill="url(#paint0_linear_4083_15041)"/>
<defs>
<linearGradient id="paint0_linear_4083_15041" x1="37.1624" y1="33.6397" x2="37.1624" y2="41.6506" gradientUnits="userSpaceOnUse">
<stop stop-color="#ED3040"/>
<stop offset="1" stop-color="#2D23F4"/>
</linearGradient>
</defs>
</svg>
