<svg width="51" height="50" viewBox="0 0 51 50" fill="none" xmlns="http://www.w3.org/2000/svg">
<path d="M44.9118 44.3689C45.0634 43.9885 44.9757 43.5546 44.6882 43.263C40.3285 38.8919 34.6353 36.1032 28.513 35.339C28.4902 35.2898 28.4602 35.2444 28.4249 35.2033C26.6293 33.4056 24.5979 31.8607 22.3869 30.6104C25.2566 28.0168 28.6703 26.1006 32.3778 25.0028C36.0847 23.905 39.9905 23.6539 43.808 24.2669C44.3692 24.3571 44.8971 23.9744 44.9869 23.4121C45.0767 22.8503 44.6944 22.3218 44.1331 22.2319C39.8865 21.5545 35.5406 21.87 31.4358 23.1527C27.331 24.4357 23.578 26.6512 20.4696 29.6268C20.0698 29.4436 19.6632 29.2605 19.2567 29.0976V26.8656C20.905 26.873 22.4989 26.2741 23.7357 25.1831C25.7687 23.1477 25.4096 19.7555 25.3958 19.5997C25.3444 19.1203 24.9664 18.7419 24.4879 18.6904C25.2303 17.2704 25.5501 15.667 25.4096 14.0702C25.3581 13.5912 24.9802 13.2128 24.5013 13.1613C23.098 13.0525 21.6891 13.2855 20.3948 13.8396C21.1683 12.8371 21.6111 11.6185 21.6623 10.3526C21.6623 7.50323 18.999 5.31868 18.8908 5.2237C18.5159 4.92543 17.9849 4.92543 17.61 5.2237C17.4879 5.3119 14.8314 7.47591 14.8314 10.3253C14.8358 10.5869 14.8607 10.8478 14.9061 11.1056C13.9558 10.871 12.9739 10.7932 11.9988 10.875C11.523 10.9238 11.1463 11.3006 11.0976 11.7773C10.9567 13.3754 11.2741 14.9805 12.0125 16.4042C11.5364 16.4531 11.1601 16.8298 11.111 17.3065C11.111 17.4556 10.7519 20.8817 12.7644 22.8969C14.0052 23.9856 15.6004 24.5838 17.2505 24.5792V28.3786C13.5963 27.2027 9.73932 26.794 5.92013 27.1778C5.35857 27.234 4.94902 27.7353 5.00514 28.2971C5.0613 28.859 5.562 29.2693 6.1232 29.2131C9.5551 28.8593 13.0226 29.2007 16.3198 30.217C19.6169 31.2333 22.6759 32.9038 25.3147 35.1287C21.605 35.0796 17.9233 35.7747 14.4862 37.1729C11.0493 38.571 7.92674 40.6444 5.30282 43.2699C5.02372 43.5638 4.94403 43.9948 5.09938 44.3691C5.25507 44.7435 5.61622 44.9909 6.02108 45H43.9694C44.3817 44.999 44.7538 44.75 44.9118 44.3689ZM22.2855 23.7446C21.4344 24.4563 20.358 24.8411 19.2493 24.83C19.2382 23.72 19.6229 22.6424 20.3338 21.7906C21.1846 21.079 22.261 20.6941 23.3697 20.7049C23.3777 21.8145 22.9937 22.8911 22.2855 23.7446ZM22.2855 18.2017C21.4344 18.9133 20.358 19.2985 19.2493 19.2874C19.2453 18.1785 19.629 17.1032 20.3338 16.2477C21.1846 15.5361 22.261 15.1512 23.3697 15.1623C23.3777 16.2719 22.9937 17.3485 22.2855 18.2017ZM18.2194 7.40815C19.0009 8.18986 19.4811 9.22333 19.5749 10.3253C19.4757 11.4261 18.9965 12.4576 18.2194 13.2427C17.4423 12.4576 16.9631 11.4262 16.8643 10.3253C16.9632 9.22471 17.4423 8.19293 18.2194 7.40815ZM16.1188 13.9685C16.825 14.8256 17.2086 15.9035 17.203 17.0148C16.0909 17.0219 15.0115 16.6378 14.1537 15.9291C13.4489 15.0737 13.0652 13.9985 13.0692 12.8898C14.1853 12.8773 15.2697 13.2594 16.1323 13.9685H16.1188ZM14.1537 21.4582C13.4489 20.6031 13.0652 19.5279 13.0692 18.4189C14.1782 18.4115 15.255 18.7929 16.1121 19.4976C16.8183 20.3547 17.2019 21.4326 17.1962 22.544C16.0865 22.5497 15.0099 22.1656 14.1537 21.4582ZM41.3347 42.9642H8.65811C13.2726 39.1988 19.0433 37.1425 24.9968 37.1425C30.9497 37.1425 36.7206 39.1988 41.3347 42.9642Z" fill="url(#paint0_linear_5436_13654)"/>
<defs>
<linearGradient id="paint0_linear_5436_13654" x1="37.6624" y1="33.6397" x2="37.6624" y2="41.6506" gradientUnits="userSpaceOnUse">
<stop stop-color="#ED3040"/>
<stop offset="1" stop-color="#2D23F4"/>
</linearGradient>
</defs>
</svg>
