<svg width="51" height="50" viewBox="0 0 51 50" fill="none" xmlns="http://www.w3.org/2000/svg">
<path d="M20.5794 28.9995H21.9125V30.3326H20.5794V28.9995Z" fill="url(#paint0_linear_5436_13658)"/>
<path d="M16.5796 28.9995H17.9127V30.3326H16.5796V28.9995Z" fill="url(#paint1_linear_5436_13658)"/>
<path d="M12.5797 28.9995H13.9129V30.3326H12.5797V28.9995Z" fill="url(#paint2_linear_5436_13658)"/>
<path d="M24.5792 28.9995H25.9123V30.3326H24.5792V28.9995Z" fill="url(#paint3_linear_5436_13658)"/>
<path d="M23.9127 18.333H25.2941L25.6481 23.0497L26.9773 22.9498L26.6312 18.333H41.1942L39.2943 43.6665H34.5795V44.9997H39.9129V45C40.2623 45.001 40.5534 44.7317 40.5795 44.3834L42.5316 18.3334H43.9128C44.0898 18.3334 44.2592 18.2632 44.3842 18.1382C44.5093 18.0131 44.5797 17.8434 44.5797 17.6668V14.3335C44.5797 14.1566 44.5093 13.9872 44.3842 13.8621C44.2592 13.7371 44.0898 13.667 43.9128 13.667H35.9128V5.66692C35.9128 5.48994 35.8426 5.32056 35.7176 5.19551C35.5925 5.07046 35.4232 5 35.2462 5H32.5795C32.2113 5 31.913 5.29872 31.913 5.66692V13.667H23.9129C23.5447 13.667 23.2463 13.9653 23.2463 14.3335V17.6668C23.2463 17.8434 23.3165 18.0131 23.4415 18.1382C23.5666 18.2632 23.7363 18.3334 23.9129 18.3334L23.9127 18.333ZM33.2461 6.33275H34.5793L34.5796 13.6662H33.2461L33.2461 6.33275ZM24.5792 14.9997H43.2461V16.9998H24.5792V14.9997Z" fill="url(#paint4_linear_5436_13658)"/>
<path d="M8.57993 44.9996H29.9128C30.7968 44.9986 31.6439 44.6469 32.2688 44.022C32.8937 43.3971 33.245 42.5499 33.246 41.6663V38.9997C33.246 38.8227 33.1759 38.6533 33.0509 38.5283C32.9258 38.4032 32.7564 38.3328 32.5795 38.3328H32.5623C33.0055 37.7604 33.246 37.0568 33.246 36.333C33.246 35.6089 33.0055 34.9053 32.5623 34.3329H32.5795C32.7564 34.3329 32.9258 34.2628 33.0509 34.1378C33.1759 34.0127 33.246 33.843 33.246 33.6664C33.2474 31.0308 32.2043 28.5021 30.3455 26.6336L30.102 22.9556L28.7689 23.0436L28.9283 25.4489C27.261 24.2881 25.2778 23.6658 23.2463 23.6662H15.2462C12.5951 23.6691 10.0531 24.7237 8.17841 26.5985C6.30368 28.4732 5.2494 31.0148 5.24609 33.6663C5.24609 33.8429 5.31656 34.0126 5.4416 34.1377C5.56665 34.2627 5.73603 34.3329 5.91301 34.3329H5.93021C5.48692 34.9052 5.24643 35.6088 5.24643 36.3329C5.24643 37.0568 5.48692 37.7604 5.93021 38.3327H5.91301C5.54481 38.3327 5.24609 38.6314 5.24609 38.9996V41.6662C5.24742 42.5499 5.59874 43.3971 6.22365 44.0219C6.84855 44.6468 7.69578 44.9985 8.57966 44.9995L8.57993 44.9996ZM31.9131 41.6663C31.9131 42.1966 31.7024 42.7054 31.3273 43.0805C30.9521 43.4553 30.4436 43.6661 29.9131 43.6661H8.58019C8.04957 43.6661 7.54081 43.4553 7.16598 43.0805C6.79084 42.7054 6.58011 42.1966 6.58011 41.6663V39.6662H31.9137L31.9131 41.6663ZM25.2966 38.3331L30.6134 34.4666L30.613 34.4662C31.2032 34.6859 31.6551 35.1709 31.8321 35.7749C32.0094 36.379 31.8913 37.031 31.5135 37.5348C31.1357 38.0383 30.5426 38.3341 29.9131 38.3328L25.2966 38.3331ZM23.23 38.1879L17.4464 34.3329H28.5304L23.23 38.1879ZM23.2465 24.9994C25.4289 25.0017 27.5302 25.8268 29.1317 27.3091C30.7331 28.7918 31.7173 30.8233 31.8877 32.9991H6.60493C6.77529 30.8234 7.75948 28.7918 9.36093 27.3091C10.9624 25.8267 13.0637 25.0017 15.2461 24.9994H23.2465ZM6.57952 36.3324C6.57952 35.8017 6.79025 35.293 7.16539 34.9182C7.5402 34.543 8.04903 34.3323 8.5796 34.3323H15.0463L21.0462 38.3321H8.57934C8.04872 38.3321 7.53997 38.1214 7.16514 37.7466C6.79 37.3714 6.57927 36.8626 6.57927 36.3323L6.57952 36.3324Z" fill="url(#paint5_linear_5436_13658)"/>
<path d="M22.5797 26.3326H23.9128V27.6658H22.5797V26.3326Z" fill="url(#paint6_linear_5436_13658)"/>
<path d="M18.5799 26.3326H19.913V27.6658H18.5799V26.3326Z" fill="url(#paint7_linear_5436_13658)"/>
<path d="M14.5801 26.3326H15.9132V27.6658H14.5801V26.3326Z" fill="url(#paint8_linear_5436_13658)"/>
<path d="M28.5815 20.3799L29.9114 20.285L30.0067 21.6181L28.6768 21.7131L28.5815 20.3799Z" fill="url(#paint9_linear_5436_13658)"/>
<defs>
<linearGradient id="paint0_linear_5436_13658" x1="37.3644" y1="33.6397" x2="37.3644" y2="41.6506" gradientUnits="userSpaceOnUse">
<stop stop-color="#ED3040"/>
<stop offset="1" stop-color="#2D23F4"/>
</linearGradient>
<linearGradient id="paint1_linear_5436_13658" x1="37.3644" y1="33.6397" x2="37.3644" y2="41.6506" gradientUnits="userSpaceOnUse">
<stop stop-color="#ED3040"/>
<stop offset="1" stop-color="#2D23F4"/>
</linearGradient>
<linearGradient id="paint2_linear_5436_13658" x1="37.3644" y1="33.6397" x2="37.3644" y2="41.6506" gradientUnits="userSpaceOnUse">
<stop stop-color="#ED3040"/>
<stop offset="1" stop-color="#2D23F4"/>
</linearGradient>
<linearGradient id="paint3_linear_5436_13658" x1="37.3644" y1="33.6397" x2="37.3644" y2="41.6506" gradientUnits="userSpaceOnUse">
<stop stop-color="#ED3040"/>
<stop offset="1" stop-color="#2D23F4"/>
</linearGradient>
<linearGradient id="paint4_linear_5436_13658" x1="37.3644" y1="33.6397" x2="37.3644" y2="41.6506" gradientUnits="userSpaceOnUse">
<stop stop-color="#ED3040"/>
<stop offset="1" stop-color="#2D23F4"/>
</linearGradient>
<linearGradient id="paint5_linear_5436_13658" x1="37.3644" y1="33.6397" x2="37.3644" y2="41.6506" gradientUnits="userSpaceOnUse">
<stop stop-color="#ED3040"/>
<stop offset="1" stop-color="#2D23F4"/>
</linearGradient>
<linearGradient id="paint6_linear_5436_13658" x1="37.3644" y1="33.6397" x2="37.3644" y2="41.6506" gradientUnits="userSpaceOnUse">
<stop stop-color="#ED3040"/>
<stop offset="1" stop-color="#2D23F4"/>
</linearGradient>
<linearGradient id="paint7_linear_5436_13658" x1="37.3644" y1="33.6397" x2="37.3644" y2="41.6506" gradientUnits="userSpaceOnUse">
<stop stop-color="#ED3040"/>
<stop offset="1" stop-color="#2D23F4"/>
</linearGradient>
<linearGradient id="paint8_linear_5436_13658" x1="37.3644" y1="33.6397" x2="37.3644" y2="41.6506" gradientUnits="userSpaceOnUse">
<stop stop-color="#ED3040"/>
<stop offset="1" stop-color="#2D23F4"/>
</linearGradient>
<linearGradient id="paint9_linear_5436_13658" x1="37.3644" y1="33.6397" x2="37.3644" y2="41.6506" gradientUnits="userSpaceOnUse">
<stop stop-color="#ED3040"/>
<stop offset="1" stop-color="#2D23F4"/>
</linearGradient>
</defs>
</svg>
