<svg width="51" height="50" viewBox="0 0 51 50" fill="none" xmlns="http://www.w3.org/2000/svg">
<path d="M37.5475 9.00065C36.0684 8.99999 34.6241 9.44723 33.4041 10.2832C33.1001 10.4913 33.022 10.9061 33.2297 11.2101C33.4378 11.5145 33.8526 11.5925 34.157 11.3844C35.3641 10.5574 36.8322 10.2005 38.2848 10.3802C39.737 10.5601 41.0736 11.2644 42.0428 12.361C43.0121 13.4573 43.5474 14.8706 43.5474 16.334V20.3337C43.5474 20.7019 43.8461 21.0003 44.2143 21.0003C44.5825 21.0003 44.8809 20.7019 44.8809 20.3337V16.334C44.8785 14.3895 44.1051 12.5258 42.7302 11.151C41.3557 9.77651 39.4916 9.00302 37.5475 9.00065Z" fill="url(#paint0_linear_5436_13660)"/>
<path d="M44.2141 25.0004C43.8459 25.0004 43.5471 25.2988 43.5471 25.667V27.0001C43.5452 28.4752 43.0007 29.898 42.0168 30.9972C41.0334 32.0964 39.6796 32.7954 38.2139 32.9609V27.2221L40.0806 24.7337C40.3016 24.439 40.2417 24.0212 39.9473 23.8002C39.6529 23.5793 39.2348 23.6391 39.0141 23.9336L38.2138 25.0004V20.3338C38.2138 19.9656 37.9155 19.6672 37.5473 19.6672C37.1791 19.6672 36.8807 19.9656 36.8807 20.3338V22.3338L36.0808 21.2673V21.267C35.8598 20.9725 35.442 20.9127 35.1473 21.1336C34.8528 21.3546 34.793 21.7724 35.014 22.0671L36.8807 24.5555V32.9553C36.0702 32.8663 35.2866 32.6136 34.5766 32.2127C34.4228 32.1194 34.2375 32.0923 34.0632 32.1376C33.8889 32.1829 33.7403 32.2967 33.6514 32.4535C33.5624 32.61 33.5405 32.7959 33.5908 32.9689C33.6411 33.1416 33.7589 33.2868 33.918 33.3715C34.8291 33.8852 35.839 34.1985 36.8807 34.2902V44.3331C36.8807 44.7013 37.1791 44.9997 37.5473 44.9997C37.9155 44.9997 38.2139 44.7013 38.2139 44.3331V34.2995C40.0346 34.1318 41.7274 33.2905 42.9603 31.9405C44.1933 30.5906 44.8781 28.8287 44.8807 27.0003V25.6672C44.8807 25.4902 44.8102 25.3208 44.6855 25.1958C44.5605 25.0707 44.3908 25.0006 44.2141 25.0006L44.2141 25.0004Z" fill="url(#paint1_linear_5436_13660)"/>
<path d="M44.8806 23.0001C44.8806 23.3683 44.5822 23.6667 44.214 23.6667C43.8458 23.6667 43.5471 23.3683 43.5471 23.0001C43.5471 22.6319 43.8458 22.3335 44.214 22.3335C44.5822 22.3335 44.8806 22.6319 44.8806 23.0001Z" fill="url(#paint2_linear_5436_13660)"/>
<path d="M15.1849 32.214C14.475 32.6146 13.6913 32.8673 12.8808 32.9563V24.5564L14.7476 22.0668C14.9686 21.7721 14.9087 21.3543 14.6143 21.1333C14.3199 20.9124 13.9017 20.9722 13.681 21.2667L12.8808 22.3335V20.3335C12.8808 19.9653 12.5824 19.6669 12.2142 19.6669C11.846 19.6669 11.5476 19.9653 11.5476 20.3335V25.0001L10.7477 23.9336V23.9333C10.5267 23.6388 10.1089 23.579 9.81422 23.8C9.5198 24.0209 9.45992 24.4387 9.68091 24.7334L11.5477 27.2218V32.9606C10.0818 32.7952 8.72817 32.0962 7.7447 30.9969C6.76122 29.8977 6.21635 28.4749 6.2144 26.9998V16.3336C6.21605 14.7428 6.84889 13.2177 7.97361 12.093C9.09834 10.968 10.6234 10.3354 12.2142 10.3335C13.4217 10.3309 14.6014 10.6967 15.5955 11.3822C15.741 11.488 15.9226 11.5304 16.1 11.5003C16.2769 11.4698 16.4344 11.3693 16.5363 11.2214C16.6385 11.0735 16.6762 10.8906 16.6418 10.7143C16.6071 10.5379 16.5026 10.3831 16.3524 10.2849C15.136 9.44529 13.6923 8.99706 12.2143 9.00036C10.2701 9.00267 8.40631 9.7761 7.0315 11.1506C5.65668 12.5254 4.88323 14.3892 4.88086 16.3337V26.9999C4.88351 28.8283 5.56828 30.5902 6.80123 31.9401C8.03445 33.2901 9.72693 34.1314 11.5477 34.2991V44.3327C11.5477 44.7009 11.8461 44.9993 12.2143 44.9993C12.5825 44.9993 12.8809 44.7009 12.8809 44.3327V34.2898C13.9226 34.1985 14.9326 33.8859 15.8436 33.3724C16.0027 33.2878 16.1208 33.1425 16.1707 32.9699C16.221 32.7968 16.1992 32.6109 16.1102 32.4545C16.0212 32.2977 15.8727 32.1839 15.6983 32.1385C15.524 32.0932 15.3387 32.1204 15.1849 32.214Z" fill="url(#paint3_linear_5436_13660)"/>
<path d="M28.6392 6.58201C27.6428 5.56349 26.2763 4.99245 24.8514 5.00008C23.4266 5.00735 22.0659 5.59255 21.0805 6.62139C20.8585 6.84402 20.6445 7.07922 20.445 7.32137C20.2108 7.60521 20.2512 8.02566 20.535 8.25987C20.8192 8.49407 21.2393 8.45405 21.4739 8.16989C21.6465 7.95916 21.8325 7.75539 22.0647 7.5225H22.0644C22.8103 6.75603 23.8362 6.32665 24.9057 6.33359C25.9752 6.34087 26.9954 6.78349 27.7311 7.55985C31.113 10.9929 33.169 17.6748 32.8464 24.1871C32.6191 28.7869 31.2559 32.4536 29.1073 34.2411H29.107C28.094 35.0641 26.8499 35.5511 25.5471 35.6344V32.5751L28.7266 28.7606C28.9621 28.4774 28.9234 28.0567 28.6405 27.8211C28.3574 27.5856 27.9366 27.6239 27.701 27.9071L25.5471 30.4923V27.2418L28.7265 23.4273C28.962 23.1441 28.9233 22.7233 28.6405 22.4878C28.3573 22.2523 27.9365 22.2906 27.701 22.5738L25.547 25.159V17.6672C25.547 17.2991 25.2486 17.0007 24.8804 17.0007C24.5123 17.0007 24.2135 17.2991 24.2135 17.6672V22.4924L22.0596 19.9072C21.8241 19.624 21.4036 19.5856 21.1204 19.8212C20.8372 20.0571 20.7985 20.4775 21.0344 20.7607L24.2135 24.5752V27.8257L22.0595 25.2405C21.824 24.9573 21.4035 24.919 21.1204 25.1545C20.8372 25.39 20.7985 25.8108 21.0344 26.094L24.2134 29.9085V35.6337C22.9107 35.5507 21.6662 35.0641 20.6529 34.2411C16.355 30.6644 15.5657 19.9257 19.0296 12.1439C19.1593 11.8124 19.0058 11.4373 18.681 11.2921C18.3558 11.1468 17.974 11.2825 17.8136 11.6004C14.437 19.1824 14.5703 30.913 19.8004 35.2668C21.0532 36.2889 22.5988 36.8854 24.2134 36.97V44.3334C24.2134 44.7016 24.5121 45 24.8803 45C25.2485 45 25.5469 44.7016 25.5469 44.3334V36.9707C27.1616 36.886 28.7074 36.2893 29.9602 35.2668C32.3957 33.2395 33.9336 29.2256 34.1787 24.2542C34.5234 17.2837 32.3662 10.3648 28.6389 6.58186L28.6392 6.58201Z" fill="url(#paint4_linear_5436_13660)"/>
<path d="M20.2137 9.66713C20.2137 10.0353 19.9153 10.3337 19.5471 10.3337C19.1789 10.3337 18.8802 10.0353 18.8802 9.66713C18.8802 9.29894 19.1789 9.00055 19.5471 9.00055C19.9153 9.00055 20.2137 9.29894 20.2137 9.66713Z" fill="url(#paint5_linear_5436_13660)"/>
<defs>
<linearGradient id="paint0_linear_5436_13660" x1="37.5433" y1="33.6397" x2="37.5433" y2="41.6506" gradientUnits="userSpaceOnUse">
<stop stop-color="#ED3040"/>
<stop offset="1" stop-color="#2D23F4"/>
</linearGradient>
<linearGradient id="paint1_linear_5436_13660" x1="37.5433" y1="33.6397" x2="37.5433" y2="41.6506" gradientUnits="userSpaceOnUse">
<stop stop-color="#ED3040"/>
<stop offset="1" stop-color="#2D23F4"/>
</linearGradient>
<linearGradient id="paint2_linear_5436_13660" x1="37.5433" y1="33.6397" x2="37.5433" y2="41.6506" gradientUnits="userSpaceOnUse">
<stop stop-color="#ED3040"/>
<stop offset="1" stop-color="#2D23F4"/>
</linearGradient>
<linearGradient id="paint3_linear_5436_13660" x1="37.5433" y1="33.6397" x2="37.5433" y2="41.6506" gradientUnits="userSpaceOnUse">
<stop stop-color="#ED3040"/>
<stop offset="1" stop-color="#2D23F4"/>
</linearGradient>
<linearGradient id="paint4_linear_5436_13660" x1="37.5433" y1="33.6397" x2="37.5433" y2="41.6506" gradientUnits="userSpaceOnUse">
<stop stop-color="#ED3040"/>
<stop offset="1" stop-color="#2D23F4"/>
</linearGradient>
<linearGradient id="paint5_linear_5436_13660" x1="37.5433" y1="33.6397" x2="37.5433" y2="41.6506" gradientUnits="userSpaceOnUse">
<stop stop-color="#ED3040"/>
<stop offset="1" stop-color="#2D23F4"/>
</linearGradient>
</defs>
</svg>
