<svg width="51" height="50" viewBox="0 0 51 50" fill="none" xmlns="http://www.w3.org/2000/svg">
<path d="M18.1327 39.9033C17.9529 39.803 17.741 39.7782 17.543 39.8336C17.3524 39.8936 17.1904 40.0215 17.0881 40.1931C16.9874 40.3764 16.9642 40.5922 17.023 40.7929C17.0839 40.9804 17.2121 41.1393 17.383 41.2377C17.4992 41.3016 17.6302 41.3345 17.7627 41.3326C17.8324 41.3423 17.9029 41.3423 17.9727 41.3326C18.1625 41.2733 18.3233 41.1451 18.4225 40.9727C18.5283 40.7929 18.5573 40.5783 18.5027 40.3772C18.4481 40.1757 18.3148 40.0048 18.1327 39.9033Z" fill="url(#paint0_linear_5436_13664)"/>
<path d="M39.2095 17.5509C33.9078 16.9365 30.8695 18.1557 29.4103 18.7454L28.9105 18.9504C28.2259 18.3006 27.5565 16.7915 27.5565 14.3031C27.5909 13.3081 27.6773 12.3155 27.8164 11.3298C28.0861 9.10624 28.2062 7.91681 27.8164 7.30236C27.5863 6.88934 27.2453 6.54917 26.8323 6.31941C26.4189 6.09005 25.9501 5.9804 25.4778 6.00288C23.9289 6.073 22.3597 7.47707 21.1804 9.86069C19.3966 13.4686 19.2365 16.6165 19.1164 18.9203H19.1168C19.1013 19.7227 19.0277 20.5223 18.8967 21.3139C18.7913 21.701 18.5101 22.0156 18.1373 22.1636C16.5581 22.9632 13.2102 22.6634 10.6767 21.5138C8.03819 20.3096 6.62907 20.7591 5.91464 21.3488C5.20019 21.9385 4.85534 23.0825 5.15525 24.3471C5.76974 26.8705 9.02308 30.9631 15.1492 31.1932C17.2681 31.273 17.9875 31.6178 18.2174 31.8879C18.4471 32.1576 18.3774 32.5675 18.2825 33.2672L18.2476 33.5322C17.9128 36.2307 14.6099 39.4085 13.1957 40.768C12.1562 41.7676 12.2712 42.8168 12.7211 43.4716C13.6106 44.756 16.2441 45.2306 19.5622 43.6514C23.8496 41.6177 25.4435 38.8491 26.7078 36.1908C27.4075 34.7166 27.8422 34.4368 28.0421 34.3969C28.242 34.357 28.5768 34.5469 28.9817 34.8967C30.6008 36.3957 31.6802 37.8048 32.1796 39.0191L32.1788 39.0183C32.5895 40.0772 32.8208 41.1969 32.8634 42.3313C32.9533 43.4855 33.0432 44.68 34.3075 44.9399C34.4965 44.9799 34.6891 45 34.882 45C35.674 44.9841 36.4357 44.6924 37.0359 44.1751C37.7856 43.5556 39.0346 42.0365 38.9846 38.8482C38.8796 32.2322 36.3113 29.4892 34.7623 28.4C34.4473 28.185 34.1277 27.8402 34.1575 27.5155C34.1575 27.3504 34.3524 26.7607 35.9564 26.0714C37.6243 25.393 39.3814 24.9587 41.1734 24.782C42.7476 24.5771 43.9916 24.4124 44.4264 23.328H44.4268C44.7375 22.4496 44.6073 21.4752 44.0769 20.7097C42.9719 19.0181 41.2044 17.8717 39.2095 17.5512L39.2095 17.5509ZM43.0324 22.7728C42.9274 23.0379 41.8879 23.1777 40.9736 23.2726C39.0464 23.4749 37.1584 23.953 35.3669 24.6919C33.683 25.4164 32.7734 26.316 32.6684 27.3652H32.6688C32.6486 27.8205 32.7536 28.2726 32.9721 28.6725C33.1907 29.0724 33.5142 29.4048 33.9078 29.6341C35.2019 30.5338 37.4057 32.927 37.4909 38.8688C37.5308 41.4321 36.6265 42.5665 36.0868 43.0163V43.0159C35.6885 43.3778 35.1504 43.5444 34.6177 43.4708H34.5677C34.4286 43.0709 34.3592 42.6498 34.3627 42.2263C34.3081 40.9334 34.0396 39.6587 33.5681 38.4538C32.9784 37.0094 31.8141 35.4856 30.0102 33.8014C29.2156 33.0567 28.481 32.7569 27.7665 32.8921C26.8719 33.0621 26.1474 33.8463 25.3578 35.5154C24.1633 38.014 22.7693 40.4425 18.9267 42.2666C16.1635 43.5808 14.3292 43.1259 13.9597 42.5912C13.7849 42.3413 14.0147 42.0314 14.2394 41.8167C16.7628 39.3932 19.3862 36.5297 19.736 33.6917L19.7709 33.4317C19.8809 32.5971 20.0057 31.6525 19.361 30.8932C18.7163 30.1338 17.4672 29.7487 15.2034 29.6688C9.26195 29.4441 6.94816 25.3713 6.60835 23.9622C6.53358 23.6472 6.4034 22.8777 6.86329 22.498C7.32318 22.1183 8.58237 22.1981 10.0465 22.8676C13.0504 24.2369 16.8233 24.4918 18.8222 23.4926C19.6063 23.1439 20.1805 22.4457 20.3711 21.6085C20.5172 20.7429 20.6009 19.8677 20.621 18.9902C20.7361 16.6965 20.881 13.848 22.5299 10.5202C23.6043 8.33618 24.8185 7.50203 25.5482 7.50203C25.9488 7.48886 26.3215 7.70621 26.5075 8.06149C26.6373 8.42647 26.4373 10.0603 26.3025 11.1645C26.1557 12.2102 26.0658 13.2625 26.0328 14.3179C26.0328 18.3156 27.5318 19.8146 28.1665 20.3143C28.6663 20.6793 29.211 20.4592 29.9705 20.1493C31.3146 19.5949 34.1131 18.4654 39.0351 19.04C40.5807 19.2938 41.9491 20.1837 42.8081 21.4936C43.0669 21.8664 43.149 22.334 43.0328 22.7726L43.0324 22.7728Z" fill="url(#paint1_linear_5436_13664)"/>
<path d="M24.6491 11.7149C24.961 11.7168 25.2431 11.5308 25.3636 11.2434C25.4845 10.9559 25.4198 10.6242 25.2001 10.403C24.9804 10.1818 24.6491 10.1151 24.3609 10.2341C24.0726 10.3526 23.8847 10.6335 23.8847 10.9454C23.8902 11.3662 24.2284 11.7067 24.6491 11.7149Z" fill="url(#paint2_linear_5436_13664)"/>
<path d="M23.7843 14.4187C24.1422 14.4206 24.4665 14.2063 24.6048 13.8759C24.7435 13.5458 24.6688 13.1645 24.4166 12.9103C24.1639 12.6566 23.7831 12.5799 23.4518 12.7166C23.1206 12.853 22.9048 13.1757 22.9048 13.5341C22.9048 14.0208 23.2976 14.4159 23.7843 14.4187Z" fill="url(#paint3_linear_5436_13664)"/>
<path d="M23.4242 17.666C23.8287 17.666 24.1929 17.4227 24.3475 17.0492C24.5025 16.6757 24.4168 16.2456 24.1309 15.9601C23.845 15.6742 23.4153 15.5886 23.0418 15.7432C22.6684 15.8981 22.425 16.2623 22.425 16.6668C22.425 16.9318 22.53 17.186 22.7176 17.3735C22.9051 17.5606 23.1592 17.666 23.4242 17.666Z" fill="url(#paint4_linear_5436_13664)"/>
<path d="M24.6739 19.7003C24.6759 19.2493 24.4054 18.8413 23.9893 18.6674C23.5732 18.4934 23.0932 18.5876 22.7731 18.9056C22.4535 19.2241 22.3574 19.7038 22.5294 20.1207C22.7015 20.5375 23.1083 20.8099 23.5593 20.8099C24.173 20.8099 24.6709 20.314 24.6739 19.7003Z" fill="url(#paint5_linear_5436_13664)"/>
<path d="M24.1988 24.0476C24.6963 24.0476 25.1446 23.7481 25.3348 23.289C25.5251 22.8295 25.4197 22.3006 25.0683 21.9492C24.7165 21.5978 24.188 21.4924 23.7285 21.6826C23.2693 21.8728 22.9698 22.3211 22.9698 22.8182C22.9698 23.1444 23.0993 23.4571 23.3298 23.6876C23.5603 23.9181 23.873 24.0476 24.1988 24.0476Z" fill="url(#paint6_linear_5436_13664)"/>
<path d="M9.61266 23.7421C9.41274 23.7111 9.20817 23.7595 9.04311 23.8773C8.87845 23.9974 8.7657 24.1764 8.72851 24.3767C8.66768 24.7917 8.94586 25.1803 9.35811 25.2562C9.39956 25.2616 9.44141 25.2616 9.48286 25.2562C9.85751 25.2593 10.1787 24.9908 10.2426 24.6216V24.5968C10.2887 24.1911 10.014 23.818 9.61266 23.7421Z" fill="url(#paint7_linear_5436_13664)"/>
<path d="M12.0417 24.9016C11.5613 24.8229 11.1083 25.1484 11.0297 25.6284C10.9511 26.1088 11.2765 26.5617 11.7566 26.6404H11.9018C12.3323 26.6369 12.6984 26.3254 12.7713 25.9008C12.8065 25.6706 12.7511 25.4358 12.6163 25.2464C12.4772 25.0604 12.2711 24.9364 12.0417 24.9016Z" fill="url(#paint8_linear_5436_13664)"/>
<path d="M15.0946 25.6514C14.8347 25.6103 14.5689 25.6731 14.355 25.8265C14.1365 25.978 13.99 26.2128 13.9505 26.4759C13.9075 26.7378 13.9707 27.0055 14.1253 27.2205C14.2791 27.4332 14.5108 27.577 14.77 27.6204C14.8246 27.6254 14.88 27.6254 14.9346 27.6204C15.1423 27.6204 15.3449 27.5557 15.5142 27.4356C15.7277 27.279 15.8726 27.0462 15.9191 26.7858C15.9617 26.5243 15.899 26.2566 15.7444 26.0412C15.5875 25.8312 15.3538 25.6913 15.0946 25.6514Z" fill="url(#paint9_linear_5436_13664)"/>
<path d="M18.1228 25.8964C17.8322 25.848 17.5338 25.9165 17.2932 26.0862C17.0546 26.2602 16.8934 26.5202 16.8434 26.8111C16.7954 27.1025 16.8655 27.4008 17.0383 27.6407C17.2092 27.882 17.4707 28.0444 17.7628 28.0901C17.8244 28.0955 17.8864 28.0955 17.948 28.0901C18.1797 28.0912 18.4056 28.0176 18.5923 27.8805C18.8318 27.7096 18.9937 27.4508 19.0421 27.1606C19.1324 26.5589 18.7229 25.9964 18.1228 25.8964Z" fill="url(#paint10_linear_5436_13664)"/>
<path d="M20.9257 28.0804C20.9939 28.0878 21.0625 28.0878 21.1307 28.0804C21.3767 28.0816 21.6169 28.0084 21.8203 27.8704C22.0865 27.681 22.2663 27.3931 22.3201 27.0708C22.3709 26.748 22.2938 26.4183 22.1051 26.1514C21.7087 25.6016 20.942 25.4764 20.3911 25.8716C20.1237 26.0599 19.9436 26.3482 19.8917 26.6709C19.8397 26.9925 19.9172 27.3211 20.1063 27.5857C20.2996 27.8565 20.596 28.0355 20.9257 28.0804Z" fill="url(#paint11_linear_5436_13664)"/>
<path d="M20.1918 37.9543C19.9868 37.8431 19.7466 37.816 19.5219 37.8796C19.2968 37.9404 19.1058 38.0899 18.9922 38.2941C18.8404 38.5677 18.8439 38.9009 19.0019 39.1709C19.16 39.441 19.449 39.6072 19.7617 39.6083C19.8431 39.6091 19.924 39.5971 20.0015 39.5735C20.3471 39.4785 20.6001 39.1837 20.642 38.828C20.6838 38.472 20.5056 38.1268 20.1918 37.9543Z" fill="url(#paint12_linear_5436_13664)"/>
<path d="M22.0902 35.2912C21.8554 35.1606 21.578 35.13 21.3203 35.206C20.8531 35.3509 20.559 35.8127 20.6256 36.2978C20.6927 36.7825 21.101 37.1475 21.5904 37.1599C21.6814 37.1606 21.7721 37.149 21.86 37.125C22.1154 37.0529 22.3312 36.8821 22.4606 36.6508C22.59 36.4195 22.6221 36.1459 22.5497 35.8906C22.4807 35.6384 22.3157 35.4229 22.0902 35.2912Z" fill="url(#paint13_linear_5436_13664)"/>
<path d="M23.5045 32.4872C22.9699 32.1998 22.3031 32.3931 22.0052 32.922C21.8599 33.1788 21.8258 33.4838 21.9102 33.7666C21.9842 34.0459 22.1632 34.2858 22.41 34.4361C22.5774 34.5267 22.7646 34.5748 22.9548 34.576C23.0579 34.576 23.1605 34.5608 23.2597 34.531C23.5398 34.4593 23.7804 34.2796 23.9292 34.0312C24.0811 33.7712 24.1218 33.4605 24.042 33.1699C23.9618 32.8793 23.768 32.6333 23.5045 32.4872Z" fill="url(#paint14_linear_5436_13664)"/>
<path d="M24.5242 29.3441C24.1917 29.1593 23.7927 29.1387 23.4432 29.2883C23.0934 29.4378 22.833 29.7408 22.7369 30.1085C22.6412 30.4766 22.7211 30.8683 22.9535 31.1693C23.1856 31.4703 23.5444 31.647 23.9245 31.6474C24.0395 31.6458 24.1538 31.6292 24.2642 31.5974C24.7412 31.4614 25.0899 31.0519 25.1476 30.559C25.2057 30.0662 24.9616 29.5869 24.5292 29.344L24.5242 29.3441Z" fill="url(#paint15_linear_5436_13664)"/>
<path d="M34.8127 37.9841C34.5019 38.2569 34.4601 38.7253 34.7177 39.0487C34.844 39.1998 35.0219 39.2994 35.2172 39.3285H35.3121C35.6085 39.3296 35.8785 39.1599 36.006 38.8926C36.1331 38.6249 36.0947 38.3083 35.9068 38.079C35.6406 37.7411 35.1505 37.683 34.8127 37.9492L34.8127 37.9841Z" fill="url(#paint16_linear_5436_13664)"/>
<path d="M33.6482 36.5598C33.7958 36.7438 34.0124 36.8593 34.2476 36.8794H34.3375C34.6765 36.8759 34.9834 36.6791 35.1283 36.3727C35.2728 36.0662 35.2298 35.7043 35.0171 35.4405C34.8687 35.2584 34.6536 35.1433 34.42 35.1208C34.1864 35.0984 33.9535 35.17 33.773 35.3204C33.5913 35.4653 33.4774 35.6784 33.458 35.9101C33.4317 36.1433 33.5002 36.3773 33.6482 36.5598Z" fill="url(#paint17_linear_5436_13664)"/>
<path d="M31.9988 32.5775C31.793 32.7457 31.6625 32.9886 31.6361 33.2532C31.6102 33.5174 31.6904 33.7817 31.8589 33.9866C32.0263 34.1904 32.2669 34.3194 32.5284 34.3466H32.6284C32.8597 34.3473 33.084 34.2679 33.263 34.1219C33.5733 33.865 33.6993 33.4473 33.5823 33.0618C33.4656 32.6766 33.129 32.3992 32.7283 32.3578C32.4653 32.3276 32.2018 32.4074 31.9988 32.5775Z" fill="url(#paint18_linear_5436_13664)"/>
<path d="M31.4642 30.3885C31.2786 30.1591 31.0085 30.0134 30.7145 29.9844C30.4208 29.9553 30.1275 30.0448 29.9001 30.2335C29.5533 30.5194 29.4119 30.9859 29.5417 31.416C29.6719 31.8464 30.0477 32.1568 30.4948 32.2025H30.6048C30.8633 32.2052 31.1147 32.1169 31.3142 31.9526C31.542 31.7655 31.6858 31.495 31.7141 31.2017C31.742 30.9085 31.6521 30.6155 31.4642 30.3885Z" fill="url(#paint19_linear_5436_13664)"/>
<path d="M28.2565 27.8603C27.933 27.8281 27.6095 27.9253 27.3573 28.1303C26.9729 28.4449 26.816 28.9598 26.9594 29.4352C27.1023 29.911 27.5177 30.2535 28.0116 30.3038H28.1368C28.7958 30.3089 29.3417 29.7932 29.3739 29.1345C29.4061 28.4759 28.9132 27.9094 28.2565 27.8502L28.2565 27.8603Z" fill="url(#paint20_linear_5436_13664)"/>
<path d="M40.1647 20.6396C39.8884 20.5036 39.5576 20.5462 39.3251 20.7481C39.093 20.9499 39.0043 21.2715 39.1004 21.564C39.2182 21.8666 39.5103 22.0654 39.835 22.0638C39.9148 22.065 39.9946 22.0514 40.0698 22.0239C40.4716 21.8926 40.694 21.4633 40.5696 21.0596C40.4925 20.8732 40.3479 20.7233 40.1647 20.6396Z" fill="url(#paint21_linear_5436_13664)"/>
<path d="M36.8112 20.4948C36.3517 20.6513 36.103 21.1472 36.2514 21.609C36.375 21.9674 36.7121 22.208 37.091 22.2088C37.4261 22.2041 37.7299 22.0108 37.8755 21.709C37.9836 21.5005 38.0019 21.2568 37.9255 21.0344C37.7628 20.5811 37.2676 20.3413 36.8112 20.4948Z" fill="url(#paint22_linear_5436_13664)"/>
<path d="M34.4576 21.074C34.0973 20.8954 33.6649 20.9504 33.3607 21.2135C33.0562 21.4762 32.9392 21.8958 33.0635 22.2785C33.1991 22.6873 33.5819 22.9631 34.0128 22.9627C34.1197 22.9631 34.2258 22.9465 34.3277 22.9128C34.709 22.7837 34.9759 22.4385 35.0042 22.0368C35.0325 21.635 34.8171 21.2557 34.4576 21.074Z" fill="url(#paint23_linear_5436_13664)"/>
<path d="M31.1795 24.1626C31.2984 24.1642 31.4166 24.1456 31.5294 24.1076C32.1132 23.9104 32.4263 23.2773 32.2291 22.6934C32.0315 22.1096 31.3984 21.7965 30.8149 21.9937C30.3012 22.1696 29.9885 22.6895 30.0753 23.2258C30.1617 23.7616 30.6216 24.1572 31.1643 24.1626L31.1795 24.1626Z" fill="url(#paint24_linear_5436_13664)"/>
<path d="M27.8667 25.7367C28.0364 25.825 28.2251 25.8715 28.4165 25.8715C28.549 25.87 28.6803 25.8479 28.8063 25.8064C29.3657 25.5387 29.6381 24.896 29.4409 24.3075C29.2441 23.7193 28.6397 23.3698 28.0318 23.4931C27.389 23.7089 27.0411 24.4028 27.2522 25.0471C27.3599 25.3477 27.5804 25.5949 27.8667 25.7367Z" fill="url(#paint25_linear_5436_13664)"/>
<path d="M25.0489 24.6318C24.5188 24.6318 24.0101 24.8425 23.6355 25.2172C23.2604 25.5922 23.0501 26.1006 23.0501 26.6306C23.0501 27.161 23.2604 27.6694 23.6355 28.044C24.0101 28.419 24.5188 28.6294 25.0489 28.6294C25.5789 28.6294 26.0872 28.419 26.4623 28.044C26.8369 27.6693 27.0477 27.161 27.0477 26.6306C27.0477 26.1006 26.8369 25.5922 26.4623 25.2172C26.0872 24.8425 25.5789 24.6318 25.0489 24.6318ZM25.0489 27.1754C24.8466 27.1754 24.6645 27.0537 24.587 26.867C24.5099 26.6802 24.5526 26.4652 24.6955 26.3222C24.8385 26.1793 25.0535 26.1366 25.2399 26.2141C25.4266 26.2912 25.5487 26.4737 25.5487 26.6756C25.5487 26.9518 25.3247 27.1754 25.0489 27.1754Z" fill="url(#paint26_linear_5436_13664)"/>
<defs>
<linearGradient id="paint0_linear_5436_13664" x1="37.3386" y1="33.9237" x2="37.3386" y2="41.7343" gradientUnits="userSpaceOnUse">
<stop stop-color="#ED3040"/>
<stop offset="1" stop-color="#2D23F4"/>
</linearGradient>
<linearGradient id="paint1_linear_5436_13664" x1="37.3386" y1="33.9237" x2="37.3386" y2="41.7343" gradientUnits="userSpaceOnUse">
<stop stop-color="#ED3040"/>
<stop offset="1" stop-color="#2D23F4"/>
</linearGradient>
<linearGradient id="paint2_linear_5436_13664" x1="37.3386" y1="33.9237" x2="37.3386" y2="41.7343" gradientUnits="userSpaceOnUse">
<stop stop-color="#ED3040"/>
<stop offset="1" stop-color="#2D23F4"/>
</linearGradient>
<linearGradient id="paint3_linear_5436_13664" x1="37.3386" y1="33.9237" x2="37.3386" y2="41.7343" gradientUnits="userSpaceOnUse">
<stop stop-color="#ED3040"/>
<stop offset="1" stop-color="#2D23F4"/>
</linearGradient>
<linearGradient id="paint4_linear_5436_13664" x1="37.3386" y1="33.9237" x2="37.3386" y2="41.7343" gradientUnits="userSpaceOnUse">
<stop stop-color="#ED3040"/>
<stop offset="1" stop-color="#2D23F4"/>
</linearGradient>
<linearGradient id="paint5_linear_5436_13664" x1="37.3386" y1="33.9237" x2="37.3386" y2="41.7343" gradientUnits="userSpaceOnUse">
<stop stop-color="#ED3040"/>
<stop offset="1" stop-color="#2D23F4"/>
</linearGradient>
<linearGradient id="paint6_linear_5436_13664" x1="37.3386" y1="33.9237" x2="37.3386" y2="41.7343" gradientUnits="userSpaceOnUse">
<stop stop-color="#ED3040"/>
<stop offset="1" stop-color="#2D23F4"/>
</linearGradient>
<linearGradient id="paint7_linear_5436_13664" x1="37.3386" y1="33.9237" x2="37.3386" y2="41.7343" gradientUnits="userSpaceOnUse">
<stop stop-color="#ED3040"/>
<stop offset="1" stop-color="#2D23F4"/>
</linearGradient>
<linearGradient id="paint8_linear_5436_13664" x1="37.3386" y1="33.9237" x2="37.3386" y2="41.7343" gradientUnits="userSpaceOnUse">
<stop stop-color="#ED3040"/>
<stop offset="1" stop-color="#2D23F4"/>
</linearGradient>
<linearGradient id="paint9_linear_5436_13664" x1="37.3386" y1="33.9237" x2="37.3386" y2="41.7343" gradientUnits="userSpaceOnUse">
<stop stop-color="#ED3040"/>
<stop offset="1" stop-color="#2D23F4"/>
</linearGradient>
<linearGradient id="paint10_linear_5436_13664" x1="37.3386" y1="33.9237" x2="37.3386" y2="41.7343" gradientUnits="userSpaceOnUse">
<stop stop-color="#ED3040"/>
<stop offset="1" stop-color="#2D23F4"/>
</linearGradient>
<linearGradient id="paint11_linear_5436_13664" x1="37.3386" y1="33.9237" x2="37.3386" y2="41.7343" gradientUnits="userSpaceOnUse">
<stop stop-color="#ED3040"/>
<stop offset="1" stop-color="#2D23F4"/>
</linearGradient>
<linearGradient id="paint12_linear_5436_13664" x1="37.3386" y1="33.9237" x2="37.3386" y2="41.7343" gradientUnits="userSpaceOnUse">
<stop stop-color="#ED3040"/>
<stop offset="1" stop-color="#2D23F4"/>
</linearGradient>
<linearGradient id="paint13_linear_5436_13664" x1="37.3386" y1="33.9237" x2="37.3386" y2="41.7343" gradientUnits="userSpaceOnUse">
<stop stop-color="#ED3040"/>
<stop offset="1" stop-color="#2D23F4"/>
</linearGradient>
<linearGradient id="paint14_linear_5436_13664" x1="37.3386" y1="33.9237" x2="37.3386" y2="41.7343" gradientUnits="userSpaceOnUse">
<stop stop-color="#ED3040"/>
<stop offset="1" stop-color="#2D23F4"/>
</linearGradient>
<linearGradient id="paint15_linear_5436_13664" x1="37.3386" y1="33.9237" x2="37.3386" y2="41.7343" gradientUnits="userSpaceOnUse">
<stop stop-color="#ED3040"/>
<stop offset="1" stop-color="#2D23F4"/>
</linearGradient>
<linearGradient id="paint16_linear_5436_13664" x1="37.3386" y1="33.9237" x2="37.3386" y2="41.7343" gradientUnits="userSpaceOnUse">
<stop stop-color="#ED3040"/>
<stop offset="1" stop-color="#2D23F4"/>
</linearGradient>
<linearGradient id="paint17_linear_5436_13664" x1="37.3386" y1="33.9237" x2="37.3386" y2="41.7343" gradientUnits="userSpaceOnUse">
<stop stop-color="#ED3040"/>
<stop offset="1" stop-color="#2D23F4"/>
</linearGradient>
<linearGradient id="paint18_linear_5436_13664" x1="37.3386" y1="33.9237" x2="37.3386" y2="41.7343" gradientUnits="userSpaceOnUse">
<stop stop-color="#ED3040"/>
<stop offset="1" stop-color="#2D23F4"/>
</linearGradient>
<linearGradient id="paint19_linear_5436_13664" x1="37.3386" y1="33.9237" x2="37.3386" y2="41.7343" gradientUnits="userSpaceOnUse">
<stop stop-color="#ED3040"/>
<stop offset="1" stop-color="#2D23F4"/>
</linearGradient>
<linearGradient id="paint20_linear_5436_13664" x1="37.3386" y1="33.9237" x2="37.3386" y2="41.7343" gradientUnits="userSpaceOnUse">
<stop stop-color="#ED3040"/>
<stop offset="1" stop-color="#2D23F4"/>
</linearGradient>
<linearGradient id="paint21_linear_5436_13664" x1="37.3386" y1="33.9237" x2="37.3386" y2="41.7343" gradientUnits="userSpaceOnUse">
<stop stop-color="#ED3040"/>
<stop offset="1" stop-color="#2D23F4"/>
</linearGradient>
<linearGradient id="paint22_linear_5436_13664" x1="37.3386" y1="33.9237" x2="37.3386" y2="41.7343" gradientUnits="userSpaceOnUse">
<stop stop-color="#ED3040"/>
<stop offset="1" stop-color="#2D23F4"/>
</linearGradient>
<linearGradient id="paint23_linear_5436_13664" x1="37.3386" y1="33.9237" x2="37.3386" y2="41.7343" gradientUnits="userSpaceOnUse">
<stop stop-color="#ED3040"/>
<stop offset="1" stop-color="#2D23F4"/>
</linearGradient>
<linearGradient id="paint24_linear_5436_13664" x1="37.3386" y1="33.9237" x2="37.3386" y2="41.7343" gradientUnits="userSpaceOnUse">
<stop stop-color="#ED3040"/>
<stop offset="1" stop-color="#2D23F4"/>
</linearGradient>
<linearGradient id="paint25_linear_5436_13664" x1="37.3386" y1="33.9237" x2="37.3386" y2="41.7343" gradientUnits="userSpaceOnUse">
<stop stop-color="#ED3040"/>
<stop offset="1" stop-color="#2D23F4"/>
</linearGradient>
<linearGradient id="paint26_linear_5436_13664" x1="37.3386" y1="33.9237" x2="37.3386" y2="41.7343" gradientUnits="userSpaceOnUse">
<stop stop-color="#ED3040"/>
<stop offset="1" stop-color="#2D23F4"/>
</linearGradient>
</defs>
</svg>
