<svg width="51" height="50" viewBox="0 0 51 50" fill="none" xmlns="http://www.w3.org/2000/svg">
<path d="M24.8706 45C24.0704 45 23.2706 44.8 22.5504 44.3999L8.55049 36.7199C7.03045 35.88 6.07031 34.2801 6.07031 32.52V17.48C6.07031 15.7199 7.03021 14.12 8.55017 13.2801L22.5501 5.60012C23.9901 4.79996 25.7101 4.79996 27.1501 5.60012L41.15 13.2801C42.6701 14.12 43.6299 15.7199 43.6299 17.48V32.52C43.6299 34.2801 42.67 35.88 41.15 36.7199L27.1501 44.3999C26.4706 44.8 25.6704 45 24.8706 45ZM24.8706 6.59928C24.3505 6.59928 23.8307 6.71931 23.3106 6.99937L9.31071 14.6794C8.27078 15.2395 7.6707 16.3194 7.6707 17.4793V32.5193C7.6707 33.6792 8.31083 34.7595 9.31071 35.3193L23.3106 42.9993C24.2705 43.5194 25.4307 43.5194 26.3906 42.9993L40.3905 35.3193C41.4305 34.7592 42.0706 33.6793 42.0706 32.5193V17.4793C42.0706 16.3194 41.4304 15.2392 40.3905 14.6794L26.3906 6.99937C25.9105 6.71931 25.3904 6.59928 24.8706 6.59928Z" fill="url(#paint0_linear_5436_13662)"/>
<path d="M31.6701 30.8C31.23 30.8 30.8699 30.4399 30.8699 29.9999L30.8702 18.9995C30.8702 18.5594 31.2303 18.1994 31.6704 18.1994C32.1105 18.1994 32.4705 18.5594 32.4705 18.9995V29.9999C32.4702 30.4399 32.1102 30.8 31.6701 30.8Z" fill="url(#paint1_linear_5436_13662)"/>
<path d="M18.8706 30.7198C18.4305 30.7198 18.0705 30.3597 18.0705 29.9197L18.0708 23.4399C18.0708 22.9998 18.4309 22.6398 18.8709 22.6398C19.311 22.6398 19.6711 22.9998 19.6711 23.4399V29.92C19.6708 30.3598 19.3107 30.7198 18.8706 30.7198Z" fill="url(#paint2_linear_5436_13662)"/>
<path d="M17.59 26.8C17.3899 26.8 17.1899 26.76 16.9898 26.72C15.6299 26.3599 14.51 25.7201 13.6698 24.8799C11.5097 22.7198 11.5097 19.3197 11.5097 19.16C11.5097 18.7199 11.8698 18.3598 12.3098 18.3598C12.4699 18.3598 15.87 18.3598 18.0298 20.52C18.8696 21.3598 19.4698 22.4801 19.8699 23.84C19.9899 24.2401 19.9899 24.6402 19.8699 25.0399C19.6701 25.6797 19.27 26.1998 18.75 26.5199C18.3902 26.72 17.9901 26.8 17.5901 26.8L17.59 26.8ZM13.15 20.0799C13.27 21.0798 13.6701 22.6798 14.79 23.8C15.4301 24.4401 16.31 24.9199 17.3899 25.2C17.79 25.32 18.15 25.0799 18.2698 24.6799C18.3098 24.5598 18.3098 24.4398 18.2698 24.3198C17.9897 23.2398 17.5096 22.3596 16.8698 21.7199C15.7499 20.5597 14.1498 20.1998 13.1499 20.0799H13.15Z" fill="url(#paint3_linear_5436_13662)"/>
<path d="M20.1505 26.4404C19.7104 26.4404 19.2706 26.2803 18.9506 25.9603C18.4305 25.4402 18.1904 24.6803 18.3505 23.9202C18.6305 22.8003 19.0706 21.8801 19.6704 21.2002C21.2704 19.4002 23.7904 19.4002 23.8703 19.4002C24.3104 19.4002 24.6705 19.7602 24.6705 20.2003C24.6705 20.3203 24.6705 23.0803 23.1105 24.8403C22.5104 25.5605 21.6705 26.0802 20.6707 26.3603C20.5103 26.4004 20.3102 26.4404 20.1505 26.4404ZM19.9104 24.2802C19.8704 24.5203 19.9505 24.6803 20.0305 24.7603C20.1105 24.8404 20.1505 24.8003 20.1905 24.8003C20.9106 24.5603 21.4704 24.2402 21.9105 23.7604C22.5907 22.9603 22.8704 21.8403 22.9905 21.0805C22.3504 21.2005 21.4704 21.5206 20.8704 22.2404C20.4303 22.7602 20.1105 23.4403 19.9105 24.2801L19.9104 24.2802Z" fill="url(#paint4_linear_5436_13662)"/>
<path d="M21.1501 21.5599C20.71 21.5599 20.3499 21.1998 20.3499 20.7597C20.3499 19.5598 19.6298 18.1998 19.11 17.2796C18.5499 18.1595 17.8701 19.5598 17.8701 20.7597C17.8701 21.1998 17.51 21.5599 17.0699 21.5599C16.6298 21.5599 16.2698 21.1998 16.2698 20.7597C16.2698 18.2399 18.3899 15.4796 18.4699 15.3995C18.6299 15.1995 18.87 15.0795 19.11 15.0795C19.3501 15.0795 19.5901 15.1995 19.7502 15.3995C19.8302 15.5196 21.9503 18.2795 21.9503 20.7597C21.95 21.2398 21.5902 21.5599 21.1501 21.5599Z" fill="url(#paint5_linear_5436_13662)"/>
<path d="M25.6701 35.0001H22.4701C22.03 35.0001 21.6699 34.64 21.6699 34.1999C21.6699 33.7598 22.03 33.3998 22.4701 33.3998H25.6701C26.1102 33.3998 26.4703 33.7598 26.4703 34.1999C26.4703 34.6403 26.1102 35.0001 25.6701 35.0001Z" fill="url(#paint6_linear_5436_13662)"/>
<path d="M16.4705 35.0001H13.2704C12.8303 35.0001 12.4703 34.64 12.4703 34.1999C12.4703 33.7598 12.8303 33.3998 13.2704 33.3998H16.4705C16.9106 33.3998 17.2706 33.7598 17.2706 34.1999C17.2703 34.6403 16.9106 35.0001 16.4705 35.0001Z" fill="url(#paint7_linear_5436_13662)"/>
<path d="M34.4704 35.0001H31.2703C30.8302 35.0001 30.4702 34.64 30.4702 34.1999C30.4702 33.7598 30.8302 33.3998 31.2703 33.3998H34.4704C34.9105 33.3998 35.2705 33.7598 35.2705 34.1999C35.2702 34.6403 34.9101 35.0001 34.4704 35.0001Z" fill="url(#paint8_linear_5436_13662)"/>
<path d="M30.4704 39H26.8703C26.4302 39 26.0701 38.64 26.0701 38.1999C26.0701 37.7598 26.4302 37.3997 26.8703 37.3997H30.4704C30.9105 37.3997 31.2706 37.7598 31.2706 38.1999C31.2706 38.64 30.9105 39 30.4704 39Z" fill="url(#paint9_linear_5436_13662)"/>
<path d="M22.4704 39H18.8703C18.4302 39 18.0702 38.64 18.0702 38.1999C18.0702 37.7598 18.4302 37.3997 18.8703 37.3997H22.4704C22.9105 37.3997 23.2706 37.7598 23.2706 38.1999C23.2706 38.64 22.9105 39 22.4704 39Z" fill="url(#paint10_linear_5436_13662)"/>
<path d="M39.6708 31.4002H10.0704C9.63027 31.4002 9.27021 31.0402 9.27021 30.6001C9.27021 30.16 9.63029 29.7999 10.0704 29.7999H39.6708C40.1109 29.7999 40.471 30.16 40.471 30.6001C40.4707 31.0402 40.1106 31.4002 39.6705 31.4002H39.6708Z" fill="url(#paint11_linear_5436_13662)"/>
<path d="M31.2707 23.0001C31.1107 23.0001 30.9507 22.9601 30.7906 22.8401L26.8704 20.0401C26.3503 19.7601 26.0703 19.24 26.0703 18.6401L26.0706 15.7999C26.0706 15.5198 26.2306 15.2398 26.4707 15.0797C26.7107 14.9197 27.0308 14.9597 27.2708 15.1198L31.6708 17.9197C32.0309 18.1598 32.1509 18.6399 31.9108 19.0396C31.6708 19.3997 31.1907 19.5197 30.791 19.2797L27.6309 17.2796V18.6796C27.6709 18.6796 27.7109 18.7196 27.7509 18.7196L31.7111 21.5596C32.0712 21.7996 32.1512 22.3198 31.9112 22.6795C31.7505 22.8801 31.5108 23.0001 31.2707 23.0001Z" fill="url(#paint12_linear_5436_13662)"/>
<path d="M31.2707 27.0001C31.1107 27.0001 30.9507 26.9601 30.7906 26.8401L26.8704 24.0401C26.3503 23.76 26.0703 23.2399 26.0703 22.6401L26.0706 18.6002C26.0706 18.1601 26.4307 17.8 26.8707 17.8C27.3108 17.8 27.6709 18.1601 27.6709 18.6002V22.6401C27.7109 22.6401 27.7509 22.6801 27.7909 22.6801L31.7511 25.5201C32.1112 25.7602 32.1912 26.2803 31.9512 26.64C31.7505 26.88 31.5108 27.0001 31.2707 27.0001Z" fill="url(#paint13_linear_5436_13662)"/>
<path d="M31.6701 23.0001C31.43 23.0001 31.19 22.8801 31.0299 22.6801C30.7899 22.32 30.8699 21.8402 31.23 21.5602L35.1902 18.7202C35.2302 18.6802 35.2702 18.6802 35.3102 18.6402V17.2802L32.1502 19.2803C31.7901 19.5203 31.2703 19.4003 31.0303 19.0402C30.7902 18.6801 30.9102 18.1604 31.2703 17.9203L35.6703 15.1204C35.9103 14.9603 36.2304 14.9603 36.4704 15.0804C36.7105 15.2404 36.8705 15.4804 36.8705 15.8005V18.6405C36.8705 19.2006 36.5505 19.7204 36.0704 20.0405L32.1502 22.8805C31.9902 22.9602 31.8301 23.0001 31.6701 23.0001Z" fill="url(#paint14_linear_5436_13662)"/>
<path d="M31.6701 27.0001C31.43 27.0001 31.19 26.8801 31.0299 26.68C30.7899 26.32 30.8699 25.8402 31.23 25.5602L35.1902 22.7202C35.2302 22.6802 35.2702 22.6802 35.3102 22.6402L35.2702 18.6002C35.2702 18.1601 35.6303 17.8001 36.0703 17.8001C36.5104 17.8001 36.8705 18.1602 36.8705 18.6002V22.6402C36.8705 23.2003 36.5504 23.7201 36.0703 24.0401L32.1502 26.8801C31.9901 26.9602 31.8301 27.0001 31.6701 27.0001Z" fill="url(#paint15_linear_5436_13662)"/>
<defs>
<linearGradient id="paint0_linear_5436_13662" x1="36.74" y1="33.6397" x2="36.74" y2="41.6506" gradientUnits="userSpaceOnUse">
<stop stop-color="#ED3040"/>
<stop offset="1" stop-color="#2D23F4"/>
</linearGradient>
<linearGradient id="paint1_linear_5436_13662" x1="36.74" y1="33.6397" x2="36.74" y2="41.6506" gradientUnits="userSpaceOnUse">
<stop stop-color="#ED3040"/>
<stop offset="1" stop-color="#2D23F4"/>
</linearGradient>
<linearGradient id="paint2_linear_5436_13662" x1="36.74" y1="33.6397" x2="36.74" y2="41.6506" gradientUnits="userSpaceOnUse">
<stop stop-color="#ED3040"/>
<stop offset="1" stop-color="#2D23F4"/>
</linearGradient>
<linearGradient id="paint3_linear_5436_13662" x1="36.74" y1="33.6397" x2="36.74" y2="41.6506" gradientUnits="userSpaceOnUse">
<stop stop-color="#ED3040"/>
<stop offset="1" stop-color="#2D23F4"/>
</linearGradient>
<linearGradient id="paint4_linear_5436_13662" x1="36.74" y1="33.6397" x2="36.74" y2="41.6506" gradientUnits="userSpaceOnUse">
<stop stop-color="#ED3040"/>
<stop offset="1" stop-color="#2D23F4"/>
</linearGradient>
<linearGradient id="paint5_linear_5436_13662" x1="36.74" y1="33.6397" x2="36.74" y2="41.6506" gradientUnits="userSpaceOnUse">
<stop stop-color="#ED3040"/>
<stop offset="1" stop-color="#2D23F4"/>
</linearGradient>
<linearGradient id="paint6_linear_5436_13662" x1="36.74" y1="33.6397" x2="36.74" y2="41.6506" gradientUnits="userSpaceOnUse">
<stop stop-color="#ED3040"/>
<stop offset="1" stop-color="#2D23F4"/>
</linearGradient>
<linearGradient id="paint7_linear_5436_13662" x1="36.74" y1="33.6397" x2="36.74" y2="41.6506" gradientUnits="userSpaceOnUse">
<stop stop-color="#ED3040"/>
<stop offset="1" stop-color="#2D23F4"/>
</linearGradient>
<linearGradient id="paint8_linear_5436_13662" x1="36.74" y1="33.6397" x2="36.74" y2="41.6506" gradientUnits="userSpaceOnUse">
<stop stop-color="#ED3040"/>
<stop offset="1" stop-color="#2D23F4"/>
</linearGradient>
<linearGradient id="paint9_linear_5436_13662" x1="36.74" y1="33.6397" x2="36.74" y2="41.6506" gradientUnits="userSpaceOnUse">
<stop stop-color="#ED3040"/>
<stop offset="1" stop-color="#2D23F4"/>
</linearGradient>
<linearGradient id="paint10_linear_5436_13662" x1="36.74" y1="33.6397" x2="36.74" y2="41.6506" gradientUnits="userSpaceOnUse">
<stop stop-color="#ED3040"/>
<stop offset="1" stop-color="#2D23F4"/>
</linearGradient>
<linearGradient id="paint11_linear_5436_13662" x1="36.74" y1="33.6397" x2="36.74" y2="41.6506" gradientUnits="userSpaceOnUse">
<stop stop-color="#ED3040"/>
<stop offset="1" stop-color="#2D23F4"/>
</linearGradient>
<linearGradient id="paint12_linear_5436_13662" x1="36.74" y1="33.6397" x2="36.74" y2="41.6506" gradientUnits="userSpaceOnUse">
<stop stop-color="#ED3040"/>
<stop offset="1" stop-color="#2D23F4"/>
</linearGradient>
<linearGradient id="paint13_linear_5436_13662" x1="36.74" y1="33.6397" x2="36.74" y2="41.6506" gradientUnits="userSpaceOnUse">
<stop stop-color="#ED3040"/>
<stop offset="1" stop-color="#2D23F4"/>
</linearGradient>
<linearGradient id="paint14_linear_5436_13662" x1="36.74" y1="33.6397" x2="36.74" y2="41.6506" gradientUnits="userSpaceOnUse">
<stop stop-color="#ED3040"/>
<stop offset="1" stop-color="#2D23F4"/>
</linearGradient>
<linearGradient id="paint15_linear_5436_13662" x1="36.74" y1="33.6397" x2="36.74" y2="41.6506" gradientUnits="userSpaceOnUse">
<stop stop-color="#ED3040"/>
<stop offset="1" stop-color="#2D23F4"/>
</linearGradient>
</defs>
</svg>
