<svg width="51" height="50" viewBox="0 0 51 50" fill="none" xmlns="http://www.w3.org/2000/svg">
<path d="M20.6245 14.3566C20.6245 13.9019 20.5026 13.474 20.2889 13.106H20.8394L23.857 16.1255C24.3297 16.5984 24.957 16.8585 25.6245 16.8585C26.292 16.8585 26.9196 16.5984 27.392 16.1255C28.367 15.1505 28.367 13.5634 27.392 12.5884L23.6422 8.83631C23.1695 8.36307 22.5422 8.10301 21.8744 8.10301H13.395L11.1425 5.70915C10.1975 4.76362 8.55257 4.76362 7.60761 5.70915L5.73254 7.58536C5.2599 8.05798 5 8.68581 5 9.35361C5 10.0214 5.25989 10.6495 5.73254 11.1222L10.7326 16.1253C11.2052 16.5982 11.8326 16.8583 12.5001 16.8583H18.125C19.5039 16.8583 20.625 15.7364 20.625 14.3567L20.6245 14.3566ZM11.6155 15.241L6.61549 10.2379C6.37948 10.0015 6.24922 9.68772 6.24922 9.35349C6.24922 9.01958 6.37917 8.70553 6.61549 8.46905L8.49056 6.59284C8.9632 6.12052 9.7993 6.13418 10.245 6.58011L12.6693 9.15733C12.7875 9.28239 12.9525 9.35439 13.1249 9.35439H21.875C22.2087 9.35439 22.5226 9.48441 22.7589 9.72088L26.5087 13.473C26.9957 13.9602 26.9957 14.7543 26.5087 15.2415C26.0361 15.7145 25.2137 15.7145 24.7413 15.2415L21.5407 12.039C21.4232 11.9214 21.265 11.8559 21.0988 11.8559L15.6246 11.8556C15.2791 11.8556 14.9996 12.1352 14.9996 12.4809C14.9996 12.8266 15.2791 13.1062 15.6246 13.1062H18.1245C18.8134 13.1062 19.3744 13.6679 19.3744 14.3568C19.3744 15.0461 18.813 15.6074 18.1245 15.6074H12.4996C12.1659 15.6074 11.852 15.4774 11.6157 15.2409L11.6155 15.241Z" fill="url(#paint0_linear_5436_13656)"/>
<path d="M36.875 25.6137H28.7497C27.0623 25.6137 25.4654 22.7944 24.9661 21.6552C24.8498 21.2369 24.0623 18.7347 21.8749 18.7347C21.1486 18.7347 20.5994 18.9178 20.1149 19.0798C19.6637 19.23 19.2735 19.36 18.75 19.36H17.5002C16.4665 19.36 15.6251 20.2019 15.6251 21.2362V22.4868C15.6251 22.7481 15.7883 22.9821 16.0326 23.0733C16.857 23.3796 19.0677 24.4605 19.3939 25.7657C20.4769 30.1047 22.2177 31.7736 23.3695 32.8793C24.0667 33.5478 24.3747 33.8642 24.3747 34.3689V41.6146L23.3077 42.6822C23.1905 42.7995 23.1248 42.9578 23.1248 43.1241V44.3747C23.1248 44.7204 23.4042 45 23.7497 45H28.1247C28.3617 45 28.5778 44.8662 28.6836 44.6543L29.9334 42.1528C29.9691 42.0814 29.9908 42.0045 29.9973 41.925L30.5773 34.9644C32.158 34.9269 33.4355 34.8537 34.4453 34.7711C34.7691 37.6146 36.3241 39.6147 36.8703 40.2362C36.7965 42.3768 35.7364 42.4914 35.6247 42.4976C35.2792 42.4976 34.9998 42.7772 34.9998 43.1229V44.3735C34.9998 44.7192 35.2792 44.9988 35.6247 44.9988H40.6248C40.8617 44.9988 41.0779 44.865 41.1836 44.6531C41.2373 44.547 42.4995 41.9911 42.4995 39.3719C42.4995 38.9474 42.3314 38.4491 42.154 37.9218C42.0297 37.5513 41.8746 37.0904 41.8746 36.8704C41.8746 35.2096 42.0582 33.8448 42.222 32.9575L43.9156 34.7937C44.0955 34.9883 44.3786 35.0482 44.6218 34.9439C44.8655 34.8387 45.0163 34.5917 44.9986 34.3273C44.958 33.7225 44.7325 30.6602 44.3203 29.7363C43.0996 27.0005 40.5947 25.6136 36.8746 25.6136L36.875 25.6137ZM28.7616 41.7017L27.7378 43.7498H27.2602L28.0576 42.1532C28.0933 42.0818 28.115 42.0049 28.1215 41.9254L28.6989 34.993C28.912 34.9918 29.1164 34.9893 29.3201 34.9875L28.7616 41.7017ZM36.2498 43.6139C36.9904 43.3393 38.1249 42.5082 38.1249 39.9974C38.1249 39.8323 38.0585 39.6734 37.9438 39.5564C37.9245 39.5378 36.03 37.5834 35.6863 34.6536C36.1968 34.5962 36.6024 34.5397 36.9057 34.4916C37.1513 37.4878 38.8037 39.5952 39.3707 40.2376C39.2968 42.3776 38.2368 42.4921 38.1251 42.4983C37.7796 42.4983 37.5002 42.7779 37.5002 43.1236V43.7489H36.2504L36.2498 43.6139ZM42.4997 31.4146V30.6168C42.4997 30.2711 42.2203 29.9915 41.8748 29.9915C41.5293 29.9915 41.2499 30.2711 41.2499 30.6168V31.5722C41.1292 32.0113 40.6249 34.0086 40.6249 36.8704C40.6249 37.2949 40.793 37.7933 40.9704 38.3205C41.0948 38.6908 41.2499 39.1516 41.2499 39.3719C41.2499 41.1687 40.5455 43.0043 40.223 43.7496L38.7498 43.7493V43.6137C39.4904 43.3391 40.6249 42.508 40.6249 39.9972C40.6249 39.8309 40.5585 39.672 40.4419 39.555C40.4186 39.532 38.1248 37.1968 38.1248 33.7436C38.1248 33.5508 38.0355 33.3702 37.8848 33.2514C37.7341 33.1338 37.5374 33.0894 37.3498 33.1362C37.3247 33.1425 34.8023 33.7436 28.1249 33.7436C27.7993 33.7436 27.5291 33.9924 27.5025 34.317L26.8875 41.7015L25.8637 43.7496L24.3747 43.7493V43.3828L25.4416 42.3153C25.5585 42.1986 25.6249 42.0397 25.6249 41.8734V34.3688C25.6249 33.3093 24.9804 32.6909 24.2342 31.9755C23.1237 30.9099 21.6025 29.4501 20.6057 25.4622C20.155 23.6561 17.8545 22.488 16.8744 22.065V21.2358C16.8744 20.8907 17.1545 20.6105 17.4993 20.6105H18.7492C19.4755 20.6105 20.0247 20.4274 20.5092 20.2654C20.9604 20.1152 21.3506 19.9852 21.8741 19.9852C22.1578 19.9852 22.4041 20.0758 22.6172 20.2142C21.8372 20.8407 20.3485 22.205 20.6466 23.2793C20.9167 24.2525 22.4677 24.3604 23.1221 24.3623H23.124C23.4682 24.3623 23.7483 24.0833 23.7489 23.7389C23.7495 23.3932 23.4707 23.1123 23.1258 23.1117C22.6501 23.1105 22.0776 23.0118 21.867 22.9016C21.9638 22.5634 22.6696 21.7785 23.4282 21.1688C23.6608 21.6085 23.7657 22.0042 23.7675 22.0126C23.7756 22.0452 23.7855 22.0771 23.7995 22.1069C24.0076 22.5941 25.9189 26.8636 28.7489 26.8636H36.8742C40.0562 26.8636 42.1766 28.0012 43.1786 30.2455C43.3312 30.5862 43.4779 31.5761 43.5886 32.5949L42.4997 31.4146Z" fill="url(#paint1_linear_5436_13656)"/>
<defs>
<linearGradient id="paint0_linear_5436_13656" x1="37.6624" y1="33.6397" x2="37.6624" y2="41.6506" gradientUnits="userSpaceOnUse">
<stop stop-color="#ED3040"/>
<stop offset="1" stop-color="#2D23F4"/>
</linearGradient>
<linearGradient id="paint1_linear_5436_13656" x1="37.6624" y1="33.6397" x2="37.6624" y2="41.6506" gradientUnits="userSpaceOnUse">
<stop stop-color="#ED3040"/>
<stop offset="1" stop-color="#2D23F4"/>
</linearGradient>
</defs>
</svg>
