<svg width="50" height="50" viewBox="0 0 50 50" fill="none" xmlns="http://www.w3.org/2000/svg">
<path d="M41.7744 15.6301H40.4842V14.3393C40.4842 12.9152 39.3269 11.7573 37.9035 11.7573C37.1287 11.7573 36.4414 12.1071 35.9679 12.6494C35.4944 12.1071 34.8074 11.7573 34.0323 11.7573C33.2575 11.7573 32.5702 12.1071 32.0967 12.6494C31.6232 12.1071 30.9362 11.7573 30.1611 11.7573C29.3863 11.7573 28.699 12.1071 28.2255 12.6494C27.752 12.1071 27.065 11.7573 26.2899 11.7573C24.8665 11.7573 23.7092 12.9152 23.7092 14.3393L23.7095 28.5905C23.7095 29.7407 24.0463 30.8554 24.685 31.8135L26.2902 34.2225V37.8996H24.3546V37.2542C24.3546 36.898 24.0661 36.6087 23.7095 36.6087H9.516C9.15935 36.6087 8.8709 36.898 8.8709 37.2542V37.8996H6.2902V35.3176C6.2902 34.9614 6.00175 34.6722 5.6451 34.6722C5.28845 34.6722 5 34.9614 5 35.3176V44.3546C5 44.7108 5.28845 45 5.6451 45C6.00175 45 6.2902 44.7108 6.2902 44.3546V41.7726H8.8709V42.4181C8.8709 42.7742 9.15935 43.0635 9.516 43.0635H23.7095C24.0661 43.0635 24.3546 42.7742 24.3546 42.4181V41.7726H26.2902V44.3546C26.2902 44.7108 26.5786 45 26.9353 45H41.1288C41.4854 45 41.7739 44.7108 41.7739 44.3546L41.7742 34.2336L43.9182 31.2308C44.6258 30.2401 45 29.0723 45 27.8541V18.8582C45 17.0786 43.5529 15.6308 41.7742 15.6308L41.7744 15.6301ZM37.9032 13.0481C38.6149 13.0481 39.1933 13.6272 39.1933 14.3389V15.6297H36.6127V14.3389C36.613 13.6269 37.1918 13.0481 37.9032 13.0481ZM34.0323 13.0481C34.744 13.0481 35.3225 13.6272 35.3225 14.3389V15.9888C34.5548 16.4369 34.0323 17.2604 34.0323 18.2117C34.0323 19.163 34.5548 19.9868 35.3225 20.4346V23.6985C35.3225 24.4105 34.7436 24.9893 34.0323 24.9893C33.3206 24.9893 32.7421 24.4102 32.7421 23.6985L32.7418 14.3393C32.7418 13.6272 33.3206 13.0485 34.0323 13.0485L34.0323 13.0481ZM36.9002 24.4983C36.7199 24.2725 36.613 23.9948 36.613 23.6985V20.7936H39.1866C39.1492 21.8599 38.6603 22.8468 37.8228 23.5169C37.4652 23.8039 37.1601 24.1366 36.9002 24.4983ZM30.1613 13.0481C30.873 13.0481 31.4515 13.6272 31.4515 14.3389V23.6981C31.4515 24.4102 30.8727 24.989 30.1613 24.989C29.4496 24.989 28.8711 24.4098 28.8711 23.6981L28.8708 14.3389C28.8708 13.6269 29.4496 13.0481 30.1613 13.0481ZM24.9999 14.3389C24.9999 13.6269 25.5787 13.0481 26.29 13.0481C27.0017 13.0481 27.5802 13.6272 27.5802 14.3389L27.5805 23.6981C27.5805 24.4102 27.0017 24.989 26.2904 24.989C25.5787 24.989 25.0002 24.4098 25.0002 23.6981L24.9999 14.3389ZM6.28965 40.4814V39.1906H8.87035V40.4814H6.28965ZM23.064 41.7726H21.1284V40.4818C21.1284 40.1256 20.84 39.8363 20.4833 39.8363C20.1267 39.8363 19.8382 40.1256 19.8382 40.4818V41.7726H18.548V39.836C18.548 39.4798 18.2596 39.1906 17.9029 39.1906C17.5463 39.1906 17.2578 39.4798 17.2578 39.836V41.7726H15.9676V40.4818C15.9676 40.1256 15.6792 39.8363 15.3225 39.8363C14.9659 39.8363 14.6774 40.1256 14.6774 40.4818V41.7726H13.3873V39.836C13.3873 39.4798 13.0988 39.1906 12.7422 39.1906C12.3855 39.1906 12.0971 39.4798 12.0971 39.836V41.7726H10.1605V37.8998H23.0639L23.064 41.7726ZM24.3542 39.1906H26.9349V40.4814H24.3542L24.3542 39.1906ZM43.7094 27.8536C43.7094 28.8011 43.4184 29.7095 42.868 30.4801L40.6036 33.6521C40.5252 33.7607 40.4832 33.8923 40.4832 34.0265V43.7088H27.5797V41.7723C27.9364 41.7723 28.2248 41.483 28.2248 41.1269V40.4814H35.967C36.3237 40.4814 36.6121 40.1922 36.6121 39.836C36.6121 39.4799 36.3237 39.1906 35.967 39.1906L28.2248 39.1903V38.5449C28.2248 38.1887 27.9364 37.8995 27.5797 37.8995V34.0267C27.5797 33.8996 27.5417 33.7743 27.4712 33.6686L25.7578 31.0969C25.2609 30.3516 24.9991 29.4849 24.9991 28.5903V25.9218C25.3803 26.1438 25.817 26.2806 26.2892 26.2806C27.064 26.2806 27.7514 25.9308 28.2248 25.3885C28.6983 25.9308 29.3854 26.2806 30.1604 26.2806C30.9352 26.2806 31.6226 25.9308 32.096 25.3885C32.5692 25.9308 33.2566 26.2806 34.0313 26.2806C34.8022 26.2806 35.4874 25.934 35.9605 25.3956C36.0527 25.5013 36.1542 25.5996 36.2644 25.6899C36.0713 26.2245 35.9669 26.793 35.9669 27.3792V28.5397C35.9669 28.8958 36.2554 29.1851 36.612 29.1851C36.9687 29.1851 37.2571 28.8958 37.2571 28.5397V27.3792C37.2571 26.2633 37.7566 25.2233 38.628 24.5256C39.8069 23.5817 40.483 22.1739 40.483 20.6634V20.1483C40.483 19.7921 40.1946 19.5029 39.8379 19.5029H36.6121C35.9004 19.5029 35.3219 18.9238 35.3219 18.2121C35.3219 17.5001 35.9008 16.9213 36.6121 16.9213H41.7736C42.8407 16.9213 43.7092 17.7903 43.7092 18.8578L43.7094 27.8536Z" fill="url(#paint0_linear_6247_23362)"/>
<path d="M14.629 26.9253H14.7245C18.9671 26.9253 22.4189 23.4721 22.4189 19.2274C22.4189 17.8107 22.0293 16.4228 21.2904 15.213L15.2277 5.28803C14.9933 4.90399 14.3607 4.90399 14.1263 5.28803L8.06307 15.213C7.32417 16.4225 6.9345 17.8104 6.9345 19.2274C6.9345 23.4721 10.3861 26.9253 14.629 26.9253ZM9.16441 15.8867L14.6767 6.86206L20.1891 15.8867C20.8034 16.8937 21.1284 18.0484 21.1284 19.2278C21.1284 22.7604 18.2554 25.6349 14.7244 25.6349H14.629C11.0978 25.6349 8.22475 22.7604 8.22475 19.2278C8.22475 18.0484 8.55004 16.8937 9.16441 15.8867Z" fill="url(#paint1_linear_6247_23362)"/>
<path d="M10.8057 21.1165H12.7413V23.0531C12.7413 23.4093 13.0298 23.6985 13.3864 23.6985H15.9671C16.3238 23.6985 16.6122 23.4093 16.6122 23.0531V21.1165H18.5478C18.9045 21.1165 19.1929 20.8273 19.1929 20.4711V17.8892C19.1929 17.533 18.9045 17.2438 18.5478 17.2438H16.6122V15.3072C16.6122 14.951 16.3238 14.6618 15.9671 14.6618H13.3864C13.0298 14.6618 12.7413 14.951 12.7413 15.3072V17.2438H10.8057C10.4491 17.2438 10.1606 17.533 10.1606 17.8892V20.4711C10.1606 20.8273 10.4491 21.1165 10.8057 21.1165ZM11.4511 18.5346H13.3867C13.7434 18.5346 14.0318 18.2454 14.0318 17.8892V15.9526H15.322V17.8892C15.322 18.2454 15.6105 18.5346 15.9671 18.5346H17.9027V19.8254H15.9671C15.6105 19.8254 15.322 20.1146 15.322 20.4708V22.4073H14.0318V20.4708C14.0318 20.1146 13.7434 19.8254 13.3867 19.8254H11.4511V18.5346Z" fill="url(#paint2_linear_6247_23362)"/>
<defs>
<linearGradient id="paint0_linear_6247_23362" x1="0" y1="0" x2="0" y2="1" gradientUnits="objectBoundingBox">
<stop stop-color="#ED3040"/>
<stop offset="1" stop-color="#2D23F4"/>
</linearGradient>
<linearGradient id="paint1_linear_6247_23362" x1="0" y1="0" x2="0" y2="1" gradientUnits="objectBoundingBox">
<stop stop-color="#ED3040"/>
<stop offset="1" stop-color="#2D23F4"/>
</linearGradient>
<linearGradient id="paint2_linear_6247_23362" x1="0" y1="0" x2="0" y2="1" gradientUnits="objectBoundingBox">
<stop stop-color="#ED3040"/>
<stop offset="1" stop-color="#2D23F4"/>
</linearGradient>
</defs>
</svg>
