<svg width="50" height="50" viewBox="0 0 50 50" fill="none" xmlns="http://www.w3.org/2000/svg">
<path d="M33.7764 10.7427C33.4203 10.7427 33.1312 11.0324 33.1312 11.3901V13.9626C32.4732 14.1734 31.958 14.6906 31.7479 15.3506H30.0438C29.6877 15.3506 29.3986 15.6404 29.3986 15.998C29.3986 16.3556 29.6877 16.6453 30.0438 16.6453H31.7483C32.0237 17.5107 32.8237 18.1437 33.7768 18.1437C34.9563 18.1437 35.9161 17.1812 35.9161 15.9979C35.9161 15.0418 35.2852 14.2393 34.4221 13.9629V11.3903C34.4218 11.0324 34.133 10.7427 33.7765 10.7427L33.7764 10.7427ZM34.6255 15.9973C34.6255 16.4666 34.2446 16.8487 33.7768 16.8487C33.3089 16.8487 32.9284 16.4666 32.9284 15.9973C32.9284 15.5279 33.3089 15.1462 33.7768 15.1462C34.2446 15.1462 34.6255 15.5279 34.6255 15.9973ZM13.2078 21.4234C13.1861 21.7804 12.8813 22.0534 12.5245 22.0296C12.2031 22.0079 11.9013 22.2233 11.8136 22.5378C11.7339 22.8238 11.4747 23.0108 11.1926 23.0108C11.1349 23.0108 11.0766 23.0031 11.0185 22.9867C10.6754 22.8907 10.475 22.5334 10.571 22.1892C10.8215 21.291 11.6778 20.6771 12.6036 20.7376C12.9591 20.7597 13.2298 21.0668 13.2078 21.4234ZM25.3073 15.9973C25.3073 11.3121 29.107 7.5 33.7773 7.5C38.448 7.5 42.248 11.3117 42.248 15.9973C42.248 20.6828 38.448 24.4945 33.7773 24.4945C33.4212 24.4945 33.132 24.2048 33.132 23.8472V22.5134C33.132 22.1558 33.4212 21.8661 33.7773 21.8661C34.1335 21.8661 34.4226 22.1558 34.4226 22.5134V23.1711C35.9185 23.037 37.2792 22.4348 38.3706 21.5199L37.9148 21.0626C37.6627 20.81 37.6627 20.3998 37.9148 20.1472C38.1669 19.8943 38.5751 19.8943 38.8272 20.1472L39.2831 20.6045C40.1952 19.51 40.7931 18.1447 40.9271 16.6443H40.2735C39.9174 16.6443 39.6282 16.3546 39.6282 15.997C39.6282 15.6393 39.9174 15.3496 40.2735 15.3496H40.9255C40.7914 13.8492 40.1991 12.4803 39.2871 11.3857L38.8273 11.847C38.7012 11.9735 38.5361 12.0367 38.3711 12.0367C38.206 12.0367 38.0409 11.9735 37.9149 11.847C37.6627 11.5945 37.6627 11.1843 37.9149 10.9317L38.3747 10.4704C37.2836 9.55539 35.9186 8.96129 34.423 8.82684V9.48052C34.423 9.83814 34.1339 10.1279 33.7777 10.1279C33.4216 10.1279 33.1325 9.83814 33.1325 9.48052V8.82483C31.6368 8.95931 30.2759 9.55914 29.1848 10.4741L29.6406 10.9314C29.8927 11.184 29.8927 11.5941 29.6406 11.8468C29.5146 11.9732 29.3495 12.0364 29.1844 12.0364C29.0194 12.0364 28.8543 11.9732 28.7282 11.8468L28.2724 11.3895C27.3603 12.484 26.7604 13.849 26.6267 15.3497H27.2823C27.6385 15.3497 27.9276 15.6394 27.9276 15.997C27.9276 16.3546 27.6385 16.6444 27.2823 16.6444H25.9528C25.5959 16.6447 25.3075 16.355 25.3075 15.9974L25.3073 15.9973ZM19.6486 21.1191C19.6486 20.7614 19.9374 20.4717 20.2938 20.4717C21.2233 20.4717 22.0396 21.1331 22.2346 22.0447C22.3093 22.3943 22.0876 22.7382 21.7391 22.8135C21.6934 22.8232 21.6481 22.8279 21.603 22.8279C21.3056 22.8279 21.0378 22.6198 20.9728 22.3164C20.9047 21.9975 20.619 21.766 20.2935 21.766C19.9373 21.7664 19.6486 21.4767 19.6486 21.1191ZM43.9244 37.5588H42.5552L43.0824 27.245C43.0917 27.0677 43.0277 26.8947 42.906 26.7663C42.7843 26.6378 42.6149 26.5649 42.4381 26.5649L34.3583 26.5646C34.1815 26.5646 34.0121 26.6375 33.8904 26.7659C33.7687 26.8947 33.7046 27.0677 33.714 27.2447L34.2409 37.5585L24.9219 37.5588L25.3287 35.1334C25.335 35.095 25.333 35.0565 25.3354 35.018C29.0013 33.0416 31.4997 29.1579 31.4997 24.6991C31.4997 24.395 31.3723 24.1207 31.1699 23.9246L31.4177 23.5479C31.7435 23.0515 31.6064 22.3814 31.1115 22.0539L29.93 21.2728C29.942 20.9098 29.7749 20.5488 29.4511 20.3344L27.8074 19.2472C27.3119 18.9203 26.6436 19.0588 26.3181 19.5546L26.3091 19.5683C25.9123 18.1944 24.6491 17.1858 23.1531 17.1858C22.219 17.1858 21.3766 17.5805 20.7777 18.2101C20.6887 18.2034 20.6013 18.1884 20.511 18.1884C20.2725 18.1884 20.0404 18.2202 19.8127 18.266C19.1771 17.1948 18.0143 16.4732 16.6837 16.4732C15.1036 16.4732 13.7594 17.4895 13.2559 18.9033C12.4479 18.5543 11.5118 18.5179 10.6574 18.8668C9.33049 19.4098 8.5001 20.7523 8.57087 22.1613C8.08232 22.5712 7.75285 23.1131 7.58578 23.7019C7.19361 23.8631 6.91616 24.2488 6.91616 24.6994C6.91616 29.1584 9.4146 33.0421 13.0801 35.0184C13.0825 35.0568 13.0805 35.0953 13.0868 35.1338L13.4936 37.5592L6.07515 37.5588C5.48223 37.5588 5 38.0426 5 38.6374V41.4214C5 42.0162 5.48254 42.5 6.07515 42.5H43.9248C44.5178 42.5 45 42.0163 45 41.4214V38.6374C45 38.0426 44.5178 37.5588 43.9248 37.5588L43.9244 37.5588ZM41.7588 27.8591L41.6261 30.4537H35.17L35.0376 27.8591H41.7588ZM41.5601 31.748L41.2633 37.5586H35.5328L35.236 31.748H41.5601ZM30.2212 23.0152L29.8237 23.62H27.9813L28.9366 22.1661L30.2212 23.0152ZM27.277 20.4463L28.1847 21.0468C28.1073 21.1127 28.0357 21.1859 27.9783 21.2732L26.4363 23.62H26.2516C26.2246 23.2062 26.1245 22.8127 25.9598 22.4508L27.277 20.4463ZM23.1528 18.4795C24.2539 18.4795 25.1501 19.3784 25.1501 20.4827C25.1501 20.7454 25.0964 20.9946 25.0043 21.2248C24.6862 20.9708 24.3254 20.7661 23.9232 20.641C23.6371 19.799 23.0452 19.1121 22.2982 18.6796C22.5583 18.5552 22.8458 18.4796 23.1529 18.4796L23.1528 18.4795ZM20.5107 19.4825C21.5945 19.4825 22.5456 20.2532 22.7723 21.315C22.8274 21.5719 23.0318 21.7703 23.2899 21.8165C24.1952 21.9787 24.8633 22.7208 24.9596 23.62H17.7079C17.8433 23.0647 17.8316 22.4698 17.6429 21.8984C17.6369 21.8804 17.6272 21.8647 17.6208 21.8466C17.6582 21.8376 17.6932 21.8232 17.7316 21.8165C17.9897 21.7703 18.1941 21.5719 18.2491 21.315C18.4759 20.2532 19.4269 19.4825 20.5107 19.4825ZM16.6831 17.7673C17.4714 17.7673 18.1683 18.1594 18.5955 18.7582C17.9096 19.1937 17.3673 19.8478 17.0979 20.6413C17.0358 20.6607 16.9792 20.6904 16.9188 20.7132C16.2845 20.0542 15.3855 19.6865 14.4444 19.7587C14.4221 19.7336 14.3957 19.7136 14.3727 19.6891C14.5785 18.5969 15.5353 17.7673 16.6831 17.7673ZM9.59734 23.0081C9.81877 22.8676 9.93382 22.6067 9.88812 22.3478C9.71872 21.3917 10.2473 20.4315 11.1443 20.0649C11.3955 19.9622 11.6586 19.913 11.9187 19.913C12.5883 19.913 13.2412 20.2389 13.6334 20.8163C13.7812 21.0334 14.0449 21.1401 14.3014 21.0846C15.2135 20.8902 16.1235 21.4134 16.418 22.305C16.5624 22.7422 16.521 23.2116 16.3416 23.6198L9.0118 23.6201C9.15453 23.3802 9.34761 23.1668 9.59738 23.0082L9.59734 23.0081ZM8.20836 24.9144H30.2074C30.0923 30.557 25.481 35.1117 19.8289 35.1117H18.5871C12.935 35.112 8.32387 30.5569 8.20862 24.9144H8.20836ZM23.9318 35.6572L23.6127 37.5584H14.8016L14.4825 35.6569C15.7601 36.14 17.1423 36.4063 18.5862 36.4063H19.8281C21.2717 36.4063 22.6543 36.14 23.9315 35.6572L23.9318 35.6572ZM43.7087 41.2052H6.28924V38.8527H43.7087V41.2052Z" fill="url(#paint0_linear_6247_23360)"/>
<defs>
<linearGradient id="paint0_linear_6247_23360" x1="0" y1="0" x2="0" y2="1" gradientUnits="objectBoundingBox">
<stop stop-color="#ED3040"/>
<stop offset="1" stop-color="#2D23F4"/>
</linearGradient>
</defs>
</svg>
