<svg width="50" height="50" viewBox="0 0 50 50" fill="none" xmlns="http://www.w3.org/2000/svg">
<path d="M42.0719 16.2666H33.7309V7.92832C33.7309 6.31352 32.4186 5 30.805 5H19.1947C17.5799 5 16.2663 6.31352 16.2663 7.92832V16.2666H7.92782C6.31364 16.2666 5 17.5801 5 19.1949V30.8057C5 32.4193 6.31356 33.7315 7.92782 33.7315H16.2663V42.0723C16.2663 43.6864 17.5799 45 19.1947 45H30.805C32.4186 45 33.7309 43.6865 33.7309 42.0723L33.7312 33.7315H42.0722C43.6864 33.7315 45 32.4192 45 30.8057V19.1949C45 17.5798 43.6864 16.2663 42.0722 16.2663L42.0719 16.2666ZM43.7094 30.8066C43.7094 31.7078 42.9747 32.4422 42.0719 32.4422L33.0859 32.4419C32.7292 32.4419 32.4408 32.7303 32.4408 33.0869V42.0727C32.4408 42.9752 31.7067 43.7102 30.8051 43.7102L19.1948 43.7105C18.2916 43.7105 17.5566 42.9758 17.5566 42.073V33.0873C17.5566 32.7306 17.2681 32.4422 16.9115 32.4422L7.92797 32.4419C7.02544 32.4419 6.29043 31.7078 6.29043 30.8062L6.29075 19.1954C6.29075 18.2923 7.02549 17.5573 7.92829 17.5573H16.9118C17.2685 17.5573 17.5569 17.2688 17.5569 16.9122V7.92889C17.5569 7.02573 18.2917 6.29074 19.1951 6.29074H30.8054C31.7067 6.29074 32.4411 7.02546 32.4411 7.92889V16.9122C32.4411 17.2688 32.7295 17.5573 33.0862 17.5573H42.0722C42.9747 17.5573 43.7097 18.292 43.7097 19.1954L43.7094 30.8066Z" fill="url(#paint0_linear_6247_23382)"/>
<path d="M27.6733 26.0645C27.4069 24.8266 26.3075 23.9103 24.9984 23.9103C23.6906 23.9103 22.5912 24.8266 22.3242 26.0645C21.455 26.4612 20.8803 27.331 20.8803 28.311C20.8803 29.6716 21.9881 30.7793 23.3487 30.7793H26.65C28.0107 30.7793 29.1184 29.6715 29.1184 28.311C29.119 27.331 28.5421 26.4619 27.6732 26.0645H27.6733ZM26.6507 29.4898H23.3493C22.6997 29.4898 22.1711 28.9615 22.1711 28.3116C22.1711 27.7696 22.5396 27.2993 23.0679 27.1664C23.3442 27.0973 23.5407 26.8569 23.5558 26.5729C23.5939 25.8039 24.2281 25.2014 24.999 25.2014C25.7706 25.2014 26.4054 25.8039 26.4429 26.5729C26.4569 26.8562 26.6545 27.0973 26.9308 27.1664C27.459 27.2993 27.8294 27.7709 27.8294 28.3116C27.8285 28.9612 27.2997 29.4898 26.6507 29.4898Z" fill="url(#paint1_linear_6247_23382)"/>
<path d="M27.025 23.6427C27.9714 23.6427 28.7122 22.6723 28.7122 21.4344C28.7122 20.1945 27.9717 19.2234 27.025 19.2234C26.0786 19.2234 25.3378 20.1945 25.3378 21.4344C25.3375 22.6723 26.0786 23.6427 27.025 23.6427ZM27.025 20.5136C27.1268 20.5136 27.4217 20.8296 27.4217 21.4343C27.4217 22.0061 27.1454 22.3525 27.025 22.3525C26.9043 22.3525 26.6283 22.0061 26.6283 21.4343C26.6277 20.8296 26.9226 20.5136 27.025 20.5136Z" fill="url(#paint2_linear_6247_23382)"/>
<path d="M19.4233 22.5945C18.4769 22.5945 17.7361 23.5642 17.7361 24.8022C17.7361 26.0422 18.4766 27.0132 19.4233 27.0132C20.3697 27.0132 21.1105 26.0422 21.1105 24.8022C21.1112 23.5643 20.3697 22.5945 19.4233 22.5945ZM19.4233 25.7229C19.302 25.7229 19.0266 25.3753 19.0266 24.8022C19.0266 24.2314 19.3029 23.8847 19.4233 23.8847C19.544 23.8847 19.82 24.2311 19.82 24.8022C19.8206 25.375 19.5446 25.7229 19.4233 25.7229Z" fill="url(#paint3_linear_6247_23382)"/>
<path d="M28.8855 24.8024C28.8855 26.0423 29.626 27.0134 30.5727 27.0134C31.5191 27.0134 32.2599 26.0423 32.2599 24.8024C32.2599 23.5644 31.5194 22.5947 30.5727 22.5947C29.6263 22.5947 28.8855 23.5644 28.8855 24.8024ZM30.9703 24.8024C30.9703 25.3755 30.6941 25.7231 30.5737 25.7231C30.453 25.7231 30.177 25.3754 30.177 24.8024C30.177 24.2316 30.4533 23.8849 30.5737 23.8849C30.6941 23.8849 30.9703 24.2319 30.9703 24.8024Z" fill="url(#paint4_linear_6247_23382)"/>
<path d="M22.9721 23.6427C23.9185 23.6427 24.6593 22.6723 24.6593 21.4344C24.6593 20.1945 23.9188 19.2234 22.9721 19.2234C22.0258 19.2234 21.2849 20.1945 21.2849 21.4344C21.2849 22.6723 22.0261 23.6427 22.9721 23.6427ZM22.9721 20.5136C23.0739 20.5136 23.3688 20.8296 23.3688 21.4343C23.3688 22.0061 23.0925 22.3525 22.9721 22.3525C22.8514 22.3525 22.5755 22.0061 22.5755 21.4343C22.5751 20.8612 22.8514 20.5136 22.9721 20.5136Z" fill="url(#paint5_linear_6247_23382)"/>
<path d="M24.9982 15.4372C19.7249 15.4372 15.436 19.7262 15.436 24.9991C15.436 30.2719 19.7251 34.5618 24.9982 34.5618C30.2711 34.5618 34.5611 30.2722 34.5611 24.9991C34.5611 19.726 30.2714 15.4372 24.9982 15.4372ZM24.9982 33.2718C20.4373 33.2718 16.726 29.5607 16.726 24.9999C16.726 20.4392 20.4372 16.728 24.9982 16.728C29.5597 16.728 33.2703 20.4391 33.2703 24.9999C33.2703 29.561 29.5591 33.2718 24.9982 33.2718Z" fill="url(#paint6_linear_6247_23382)"/>
<defs>
<linearGradient id="paint0_linear_6247_23382" x1="37.6624" y1="33.6397" x2="37.6624" y2="41.6506" gradientUnits="userSpaceOnUse">
<stop stop-color="#ED3040"/>
<stop offset="1" stop-color="#2D23F4"/>
</linearGradient>
<linearGradient id="paint1_linear_6247_23382" x1="37.6624" y1="33.6397" x2="37.6624" y2="41.6506" gradientUnits="userSpaceOnUse">
<stop stop-color="#ED3040"/>
<stop offset="1" stop-color="#2D23F4"/>
</linearGradient>
<linearGradient id="paint2_linear_6247_23382" x1="37.6624" y1="33.6397" x2="37.6624" y2="41.6506" gradientUnits="userSpaceOnUse">
<stop stop-color="#ED3040"/>
<stop offset="1" stop-color="#2D23F4"/>
</linearGradient>
<linearGradient id="paint3_linear_6247_23382" x1="37.6624" y1="33.6397" x2="37.6624" y2="41.6506" gradientUnits="userSpaceOnUse">
<stop stop-color="#ED3040"/>
<stop offset="1" stop-color="#2D23F4"/>
</linearGradient>
<linearGradient id="paint4_linear_6247_23382" x1="37.6624" y1="33.6397" x2="37.6624" y2="41.6506" gradientUnits="userSpaceOnUse">
<stop stop-color="#ED3040"/>
<stop offset="1" stop-color="#2D23F4"/>
</linearGradient>
<linearGradient id="paint5_linear_6247_23382" x1="37.6624" y1="33.6397" x2="37.6624" y2="41.6506" gradientUnits="userSpaceOnUse">
<stop stop-color="#ED3040"/>
<stop offset="1" stop-color="#2D23F4"/>
</linearGradient>
<linearGradient id="paint6_linear_6247_23382" x1="37.6624" y1="33.6397" x2="37.6624" y2="41.6506" gradientUnits="userSpaceOnUse">
<stop stop-color="#ED3040"/>
<stop offset="1" stop-color="#2D23F4"/>
</linearGradient>
</defs>
</svg>
