<svg width="50" height="50" viewBox="0 0 50 50" fill="none" xmlns="http://www.w3.org/2000/svg">
<path d="M21.6399 40.1046C21.2643 40.1046 20.9598 40.4139 20.9598 40.7952C20.9598 41.1764 21.2643 41.4854 21.6399 41.4854H28.4416C28.8172 41.4854 29.1216 41.1764 29.1216 40.7952C29.1216 40.4139 28.8172 40.1046 28.4416 40.1046H21.6399Z" fill="url(#paint0_linear_6247_23352)"/>
<path d="M6.18036 44.9996H43.8196C44.0002 44.9996 44.173 44.9266 44.3005 44.7971C44.4281 44.6676 44.5 44.4923 44.5 44.309V28.8252C44.5 28.6423 44.4281 28.4666 44.3005 28.3374C44.173 28.208 44.0002 28.135 43.8196 28.135H42.201V23.4548C42.201 23.2715 42.1294 23.0961 42.0019 22.9667C41.8743 22.8372 41.7011 22.7646 41.5209 22.7646H38.8479C39.1105 21.6821 39.2475 20.5726 39.2559 19.458C39.2566 15.8173 37.9039 12.3104 35.4678 9.6382C33.0318 6.96597 29.6918 5.32481 26.115 5.04332C22.5388 4.76175 18.9897 5.86029 16.1764 8.11903C13.3632 10.3778 11.4937 13.6309 10.9411 17.2285H8.09132C7.71568 17.2285 7.41126 17.5378 7.41126 17.919V23.7245H6.18006C5.80442 23.7245 5.5 24.0335 5.5 24.4147V44.3094C5.5 44.4927 5.57155 44.6681 5.69913 44.7976C5.8267 44.927 5.99984 45 6.18006 45L6.18036 44.9996ZM18.4232 27.3139V27.3135C18.5366 27.1809 18.6014 27.0128 18.6068 26.8374V25.0424H31.3802V26.8374C31.3876 27.0134 31.4548 27.1816 31.5705 27.3135C31.6316 27.3827 36.2908 32.0561 36.2226 31.9869H13.7777L18.4232 27.3139ZM29.6727 23.6619V20.8383C29.6727 20.6554 29.6011 20.4797 29.4735 20.3502C29.346 20.2207 29.1732 20.1481 28.9926 20.1481H21.0144C20.6388 20.1481 20.3344 20.4571 20.3344 20.8383V23.6547H17.9405C17.5649 23.6547 17.2601 23.964 17.2601 24.3453V24.9804C15.9148 23.0505 15.3168 20.6852 15.5797 18.3363C15.8426 15.9875 16.9483 13.8188 18.6857 12.2441C20.4231 10.6698 22.6709 9.79933 25.0003 9.79933C27.3294 9.79933 29.5772 10.6697 31.3146 12.2441C33.0523 13.8188 34.158 15.9875 34.4209 18.3363C34.6838 20.6851 34.0854 23.0505 32.7402 24.9804V24.3381C32.7328 23.9623 32.4304 23.6616 32.0601 23.6619L29.6727 23.6619ZM28.2784 23.6619H21.6948V21.5286H28.3126L28.2784 23.6619ZM12.7982 33.3677H37.1949V35.3349H12.7982V33.3677ZM12.7982 36.7157H37.1949V43.6188H12.7982V36.7157ZM43.1392 43.6188H38.5549V32.6774C38.5465 32.4979 38.477 32.327 38.3578 32.1941L35.6916 29.5157H43.1733L43.1392 43.6188ZM40.8405 24.145V28.135H36.3582C37.2549 26.9227 37.9617 25.5769 38.453 24.145H40.8405ZM25 6.34179C28.3595 6.33426 31.589 7.66059 33.9977 10.0372C36.4068 12.4141 37.8046 15.6529 37.8924 19.0616C37.9798 22.4703 36.7506 25.779 34.4671 28.2798L33.0114 26.8233C34.8319 24.8156 35.8417 22.1862 35.841 19.4579C35.841 15.5265 33.7745 11.8941 30.4201 9.92839C27.0657 7.96287 22.933 7.96287 19.5787 9.92839C16.2243 11.8943 14.1581 15.5266 14.1581 19.4579C14.1503 22.1945 15.1581 24.8342 16.9806 26.8511L15.5182 28.2799C13.3515 25.8656 12.1405 22.7238 12.1176 19.4581C12.1176 15.9867 13.4736 12.6568 15.8882 10.1987C18.303 7.73987 21.5794 6.35319 24.9999 6.34223L25 6.34179ZM8.7715 18.5739H10.812C10.812 18.8569 10.7712 19.133 10.7712 19.4231C10.7742 20.8693 10.9899 22.3074 11.4104 23.6892H8.77147L8.7715 18.5739ZM6.86024 25.07H11.8934C12.5417 26.6111 13.4482 28.0265 14.5732 29.2532L11.6484 32.1939H11.6487C11.5279 32.3258 11.458 32.4974 11.4513 32.6772V43.6186H6.86022L6.86024 25.07Z" fill="url(#paint1_linear_6247_23352)"/>
<path d="M9.94135 35.6665C9.94135 36.0474 9.63693 36.3567 9.26129 36.3567C8.88565 36.3567 8.58123 36.0474 8.58123 35.6665C8.58123 35.2853 8.88565 34.9759 9.26129 34.9759C9.63693 34.9759 9.94135 35.2853 9.94135 35.6665Z" fill="url(#paint2_linear_6247_23352)"/>
<path d="M9.26138 38.5586C8.88574 38.5586 8.58132 38.8679 8.58132 39.2492V41.0925V41.0921C8.58132 41.4734 8.88574 41.7827 9.26138 41.7827C9.63702 41.7827 9.94145 41.4734 9.94145 41.0921V39.2492C9.94145 39.0659 9.8699 38.8905 9.74232 38.7611C9.61474 38.6316 9.44194 38.5586 9.26138 38.5586Z" fill="url(#paint3_linear_6247_23352)"/>
<path d="M9.94135 33.3532C9.94135 33.7345 9.63693 34.0438 9.26129 34.0438C8.88565 34.0438 8.58123 33.7345 8.58123 33.3532C8.58123 32.9719 8.88565 32.663 9.26129 32.663C9.63693 32.663 9.94135 32.9719 9.94135 33.3532Z" fill="url(#paint4_linear_6247_23352)"/>
<path d="M41.4255 37.6685C41.4255 38.0498 41.1207 38.3588 40.7451 38.3588C40.3694 38.3588 40.065 38.0498 40.065 37.6685C40.065 37.2873 40.3694 36.9779 40.7451 36.9779C41.1207 36.9779 41.4255 37.2873 41.4255 37.6685Z" fill="url(#paint5_linear_6247_23352)"/>
<path d="M40.7446 35.5078C40.9252 35.5078 41.0983 35.4352 41.2256 35.3057C41.3531 35.1762 41.425 35.0005 41.425 34.8176V32.9812C41.425 32.5999 41.1203 32.291 40.7446 32.291C40.369 32.291 40.0646 32.5999 40.0646 32.9812V34.8176C40.0646 35.0005 40.1365 35.1762 40.2637 35.3057C40.3913 35.4352 40.5644 35.5078 40.7446 35.5078Z" fill="url(#paint6_linear_6247_23352)"/>
<defs>
<linearGradient id="paint0_linear_6247_23352" x1="0" y1="0" x2="0" y2="1" gradientUnits="objectBoundingBox">
<stop stop-color="#ED3040"/>
<stop offset="1" stop-color="#2D23F4"/>
</linearGradient>
<linearGradient id="paint1_linear_6247_23352" x1="0" y1="0" x2="0" y2="1" gradientUnits="objectBoundingBox">
<stop stop-color="#ED3040"/>
<stop offset="1" stop-color="#2D23F4"/>
</linearGradient>
<linearGradient id="paint2_linear_6247_23352" x1="0" y1="0" x2="0" y2="1" gradientUnits="objectBoundingBox">
<stop stop-color="#ED3040"/>
<stop offset="1" stop-color="#2D23F4"/>
</linearGradient>
<linearGradient id="paint3_linear_6247_23352" x1="0" y1="0" x2="0" y2="1" gradientUnits="objectBoundingBox">
<stop stop-color="#ED3040"/>
<stop offset="1" stop-color="#2D23F4"/>
</linearGradient>
<linearGradient id="paint4_linear_6247_23352" x1="0" y1="0" x2="0" y2="1" gradientUnits="objectBoundingBox">
<stop stop-color="#ED3040"/>
<stop offset="1" stop-color="#2D23F4"/>
</linearGradient>
<linearGradient id="paint5_linear_6247_23352" x1="0" y1="0" x2="0" y2="1" gradientUnits="objectBoundingBox">
<stop stop-color="#ED3040"/>
<stop offset="1" stop-color="#2D23F4"/>
</linearGradient>
<linearGradient id="paint6_linear_6247_23352" x1="0" y1="0" x2="0" y2="1" gradientUnits="objectBoundingBox">
<stop stop-color="#ED3040"/>
<stop offset="1" stop-color="#2D23F4"/>
</linearGradient>
</defs>
</svg>
