<svg width="50" height="50" viewBox="0 0 50 50" fill="none" xmlns="http://www.w3.org/2000/svg">
<path d="M38.6116 42.381L38.5037 31.074C38.5037 26.0183 34.6627 25.5747 34.5723 25.5747H25.4891L25.1275 25.3086L23.7404 21.9715L23.7716 21.8494L24.5852 18.6121C24.9015 17.4591 24.7207 16.2171 24.1332 15.1973C24.4948 15.286 24.8563 15.3303 25.2176 15.3303C27.477 15.3303 29.4653 13.8225 30.0073 11.6494C30.1429 11.1615 30.1881 10.6739 30.1429 10.2304L31.2273 10.3634H31.2725C31.4985 10.3634 31.6793 10.186 31.7245 9.96421C31.7697 9.74242 31.5889 9.52063 31.3177 9.47628L30.5042 9.38756L30.5494 7.87976C30.6832 6.60919 28.6991 5.38377 25.994 5.055C25.9943 5.05431 25.9947 5.05396 25.9947 5.05328C25.9838 5.05224 25.8601 5.04158 25.844 5.04158C23.292 4.82015 21.202 5.50166 20.8552 6.64322C20.8247 6.72816 20.8002 6.81446 20.789 6.90421L20.5178 8.32328L19.7495 8.23456C19.5235 8.19021 19.2975 8.36763 19.2523 8.63378C19.2071 8.85556 19.3879 9.07736 19.6591 9.12171L20.4989 9.21042C20.4989 9.25478 20.4681 9.36137 20.4723 9.34349C20.1559 10.6738 20.3819 12.0045 21.0598 13.0688C19.2071 12.7583 17.8064 13.7785 17.038 15.9513C16.9476 16.2174 13.6037 25.1315 13.6037 25.2205V25.2648C13.423 25.9745 13.423 26.7283 13.5585 27.438V27.5711L14.1461 34.4007L10.7119 41.8957C10.4859 42.3393 10.4407 42.8712 10.5763 43.3591C10.7571 44.0245 11.209 44.5565 11.8414 44.8226C12.1126 44.9556 12.4289 45 12.7453 45C13.6492 45 14.4173 44.5121 14.7788 43.714L18.4842 35.5984C18.665 35.2436 18.7102 34.8444 18.665 34.4455L18.6198 34.2237L19.5686 36.3081V42.8273C19.5686 44.0246 20.5625 44.9561 21.828 44.9561C23.0931 44.9561 24.0875 43.9806 24.0875 42.8273L24.0882 35.8196C24.0882 35.5091 24.043 35.243 23.9074 34.9768L21.2863 29.5219C21.7835 28.9896 22.1447 28.3689 22.3707 27.6593L24.9918 30.0611L25.4438 44.5115C25.4438 44.7333 25.6245 44.9551 25.8957 44.9551C26.1217 44.9551 26.3477 44.7776 26.3477 44.5115V30.6755H37.5997L37.7072 42.3645C37.1617 42.5409 36.7644 43.0398 36.7644 43.6337C36.7644 44.374 37.3778 44.9764 38.1318 44.9764C38.8862 44.9764 39.5 44.374 39.5 43.6337C39.5 43.0598 39.129 42.5725 38.6111 42.3813L38.6116 42.381ZM29.2405 11.4723C28.7885 13.2462 27.1618 14.4879 25.3091 14.4879C24.9927 14.4879 24.6311 14.4435 24.3151 14.3548C22.1008 13.8669 20.7905 11.6938 21.3328 9.56529C21.3647 9.45526 21.378 9.38786 21.4232 9.29915L29.3313 10.1419C29.3761 10.5852 29.3309 11.0287 29.2405 11.4723ZM17.6271 35.1989L13.9217 43.3145C13.6957 43.7581 13.2437 44.0686 12.7017 44.0686C12.5209 44.0686 12.3401 44.0242 12.1593 43.9798C11.843 43.8468 11.5718 43.5806 11.4362 43.2701C11.3006 42.9596 11.3269 42.633 11.4814 42.339L14.9608 34.6222C15.006 34.5335 15.006 34.4892 15.006 34.4005L14.5993 29.4335C15.1868 30.0988 16 30.5865 16.8587 30.8082C16.9943 30.8525 17.2252 30.8862 17.2252 30.8862L17.7623 34.4892C17.7626 34.7553 17.7627 34.9771 17.6271 35.1989ZM23.0044 35.332C23.0948 35.5094 23.0948 35.6425 23.0948 35.8199V42.827C23.0948 43.5367 22.5073 44.1129 21.7393 44.1129C20.971 44.1129 20.3838 43.5363 20.3838 42.827V36.1748C20.3838 36.1305 20.3838 36.0417 20.3386 35.9974L18.0384 30.8973H18.079C18.8474 30.853 19.6154 30.6312 20.2934 30.232C20.3838 30.1876 20.4917 30.1171 20.5646 30.0545L23.0044 35.332ZM21.5585 27.216C21.3325 28.1915 20.6998 28.9899 19.8865 29.5222C19.0278 30.0545 18.079 30.1876 17.1303 29.9658C16.1811 29.744 15.368 29.123 14.8708 28.2805C14.3737 27.4377 14.2381 26.4623 14.464 25.4864C14.69 24.8654 17.8079 16.4839 17.8983 16.2621C18.5762 14.3995 19.6606 13.6011 21.1969 14.0003C22.1457 14.2221 22.9592 14.8427 23.4564 15.6855C23.9535 16.5283 24.0891 17.5038 23.8632 18.4793L23.3208 20.6525L21.6338 16.746C21.3626 16.0806 20.7298 15.6374 19.9618 15.6374C19.7358 15.6374 19.5098 15.6817 19.2838 15.7705C18.3799 16.1253 17.9283 17.1452 18.2899 18.0767L21.7392 26.4186L21.5585 27.216ZM27.0715 29.0787C26.7551 29.4335 26.2127 29.5222 25.8064 29.2117L23.14 27.1273C23.0045 27.0385 22.9141 26.9055 22.8689 26.7724L19.1487 17.7215C18.9679 17.278 19.1935 16.746 19.6455 16.5686C19.7359 16.5242 19.8715 16.5242 19.9619 16.5242C20.3234 16.5242 20.6398 16.746 20.7754 17.0565L24.36 25.7973C24.4052 25.886 24.4504 25.9303 24.4956 25.9747L26.8906 27.8373C27.2971 28.1035 27.3875 28.6798 27.0714 29.0789L27.0715 29.0787ZM27.6135 29.7884C27.6587 29.744 27.7491 29.6997 27.7943 29.6109C28.427 28.8569 28.2914 27.7483 27.5231 27.1273L26.6644 26.4619H34.38C34.5247 26.4619 34.6698 26.4757 34.8102 26.5104C35.4563 26.6696 37.0869 27.2937 37.5095 29.7436L27.6135 29.7884ZM38.1327 44.0891C37.8765 44.0891 37.6688 43.8849 37.6688 43.6335C37.6688 43.3822 37.8765 43.1783 38.1327 43.1783C38.3888 43.1783 38.5969 43.3822 38.5969 43.6335C38.5969 43.8845 38.3888 44.0891 38.1327 44.0891Z" fill="url(#paint0_linear_6247_23342)"/>
<defs>
<linearGradient id="paint0_linear_6247_23342" x1="34.1803" y1="33.6397" x2="34.1803" y2="41.6506" gradientUnits="userSpaceOnUse">
<stop stop-color="#ED3040"/>
<stop offset="1" stop-color="#2D23F4"/>
</linearGradient>
</defs>
</svg>
