<svg width="50" height="50" viewBox="0 0 50 50" fill="none" xmlns="http://www.w3.org/2000/svg">
<path d="M28.3319 27.1539C26.8067 27.1539 25.566 28.3793 25.566 29.8858V37.2804C25.566 38.787 26.8067 40.0123 28.3319 40.0123C29.8572 40.0123 31.0979 38.787 31.0979 37.2804V29.8855C31.0979 28.379 29.8569 27.1539 28.3319 27.1539ZM30.2576 37.2804C30.2576 38.3291 29.3935 39.1823 28.3316 39.1823C27.2698 39.1823 26.4057 38.3288 26.4057 37.2804V33.9981H30.2575L30.2576 37.2804ZM30.2576 33.168H26.4058V29.8857C26.4058 28.837 27.2698 27.9838 28.3317 27.9838C29.3935 27.9838 30.2576 28.8373 30.2576 29.8857L30.2576 33.168ZM28.0577 23.9195L33.4752 28.1714C33.9508 28.5443 34.5185 28.7254 35.0829 28.7254C35.8454 28.7254 36.6017 28.3944 37.1121 27.7603C37.542 27.2259 37.7355 26.5577 37.6573 25.8793C37.5785 25.2005 37.2371 24.5931 36.6958 24.1682L31.2783 19.9166C30.1608 19.0397 28.5293 19.2239 27.6418 20.3277C26.754 21.4311 26.9405 23.0422 28.0577 23.9195ZM36.1727 24.8183C36.5381 25.1053 36.7691 25.5158 36.8222 25.9739C36.8749 26.4316 36.7446 26.883 36.4538 27.2443C35.8545 27.9893 34.7526 28.1151 33.9976 27.5219L31.618 25.6541L33.7931 22.9508L36.1727 24.8183ZM28.2993 20.844C28.6443 20.4155 29.1547 20.1922 29.67 20.1922C30.051 20.1922 30.4347 20.3145 30.7556 20.5664L33.1355 22.4342L30.9605 25.1374L28.5805 23.2696C27.8262 22.6777 27.6998 21.5894 28.2993 20.844ZM38.5369 30.744C37.5611 30.3537 36.4898 30.3611 35.5192 30.7675C34.5493 31.1731 33.7976 31.9275 33.4024 32.892C32.5865 34.8823 33.562 37.1574 35.5772 37.9633C36.0605 38.1566 36.5602 38.248 37.052 38.248C38.6112 38.248 40.0915 37.3282 40.7117 35.8153C41.5276 33.8249 40.552 31.5498 38.5369 30.744ZM35.5231 36.9888C35.5198 36.9962 35.5214 37.0043 35.5188 37.0117C34.1916 36.2634 33.592 34.6401 34.1808 33.203C34.4919 32.4445 35.0833 31.8509 35.8468 31.5315C36.236 31.3687 36.6461 31.2873 37.0565 31.2873C37.3144 31.2873 37.5717 31.323 37.8248 31.3874C37.8212 31.3948 37.8147 31.3993 37.8118 31.407L35.5231 36.9888ZM39.9329 35.5042C39.3436 36.9406 37.7701 37.6927 36.2901 37.3199C36.2934 37.3128 36.2989 37.3073 36.3018 37.3003L38.5906 31.7185C38.5935 31.7111 38.5922 31.7033 38.5948 31.6959C39.922 32.4439 40.522 34.0668 39.9329 35.5042ZM17.5559 14.2886C17.5559 14.7342 17.052 15.0703 16.3836 15.0703C15.7152 15.0703 15.2117 14.7345 15.2117 14.2886C15.2117 14.1052 15.3622 13.9566 15.5478 13.9566C15.7335 13.9566 15.8839 14.1052 15.8839 14.2886H15.8843C15.9012 14.296 16.0712 14.4063 16.3842 14.4063C16.636 14.4063 16.7904 14.3365 16.8555 14.2886C16.8715 14.2767 16.8865 14.2651 16.891 14.2574C16.891 14.074 17.0382 13.9408 17.2236 13.9408C17.4089 13.9412 17.5559 14.1052 17.5559 14.2886ZM15.0534 12.0878C15.0534 12.4336 14.8375 12.6942 14.5509 12.6942C14.2642 12.6942 14.0483 12.4333 14.0483 12.0878C14.0483 11.742 14.2646 11.4814 14.5509 11.4814C14.8371 11.4814 15.0534 11.742 15.0534 12.0878ZM18.2167 12.6945C17.9301 12.6945 17.7142 12.4336 17.7142 12.0881C17.7142 11.7423 17.9301 11.4817 18.2167 11.4817C18.5034 11.4817 18.7193 11.7423 18.7193 12.0881C18.7196 12.4336 18.5034 12.6945 18.2167 12.6945ZM22.8164 20.6955C22.6721 19.9798 22.3627 19.3219 21.9402 18.7544V13.2971C22.006 13.1568 22.0578 13.0078 22.0832 12.847C22.1359 12.5111 22.0825 12.174 21.9402 11.8848V9.62896C21.9402 7.07659 19.6778 5 16.8973 5H15.8704C13.0895 5 10.8272 7.07659 10.8272 9.62896V11.8851C10.6852 12.1743 10.6317 12.5111 10.6845 12.847C10.7096 13.0075 10.7617 13.1565 10.8272 13.2964V18.7592C10.4034 19.3322 10.092 19.9994 9.94549 20.7309L9.00287 28.7538C8.98886 28.8712 9.02664 28.9893 9.10644 29.0774C9.14032 29.1151 9.18266 29.1418 9.22695 29.1646L9.19764 29.4065C9.1465 29.826 9.28004 30.2478 9.56406 30.5637C9.84807 30.8803 10.2562 31.0614 10.6842 31.0614H10.8953L10.6181 35.3989C10.6106 35.5131 10.6516 35.6254 10.7311 35.709C10.8106 35.7923 10.9213 35.8399 11.0373 35.8399H11.9369V42.0606H11.8545C10.708 42.0606 9.77511 42.982 9.77511 44.1147V44.4177C9.77511 44.7388 10.0396 45 10.3646 45H15.2363C15.5613 45 15.8258 44.7388 15.8258 44.4177L15.8255 43.3915C15.8255 43.1065 15.7326 42.8436 15.5776 42.6268C15.5782 42.6072 15.5818 42.5888 15.5818 42.5692L15.7535 35.8395H17.0146L17.1859 42.5589C17.1859 42.5821 17.1902 42.6036 17.1908 42.6265C17.0355 42.8433 16.9423 43.1065 16.9423 43.3918V44.4177C16.9423 44.7388 17.2068 45 17.5322 45H22.4038C22.7288 45 22.9936 44.7388 22.9936 44.4177V44.1147C22.9936 42.9823 22.0608 42.0606 20.914 42.0606H20.8316L20.8313 35.8396H21.7309C21.8469 35.8396 21.9579 35.7923 22.0371 35.7087C22.1165 35.6253 22.1576 35.5131 22.1501 35.3985L21.8729 31.061H22.084C22.5116 31.061 22.9197 30.8799 23.2038 30.564C23.4879 30.2481 23.6213 29.826 23.5705 29.4065L23.5412 29.1646C23.5852 29.1417 23.6275 29.115 23.6614 29.0774C23.7412 28.9889 23.779 28.8712 23.765 28.7538L22.8218 20.729C22.8205 20.7177 22.8188 20.7064 22.8166 20.6955L22.8164 20.6955ZM21.253 12.7196C21.196 13.0834 20.9129 13.3601 20.6159 13.3668C20.7618 12.9094 20.8618 12.439 20.9041 11.9707C21.0067 12.0115 21.0781 12.082 21.1237 12.1418C21.2396 12.2946 21.2865 12.5053 21.253 12.7196ZM18.0607 20.6942L18.3552 21.9071L16.4726 22.9546L18.7512 18.2175L19.3991 19.4818L18.2353 20.2529C18.0894 20.3494 18.02 20.5257 18.0607 20.6942ZM18.9906 17.1195C18.9108 17.0819 18.8245 17.0574 18.7362 17.059C18.604 17.0606 18.4838 17.1095 18.3858 17.1867V16.507C19.1977 15.9636 19.8609 15.1224 20.3061 14.1602C20.3498 14.1705 20.3921 14.185 20.437 14.1907C20.4937 14.1981 20.5497 14.2014 20.6058 14.2014C20.7767 14.2014 20.9435 14.1666 21.1002 14.1052V17.881C20.7129 17.5693 20.283 17.3109 19.811 17.1369C19.5469 17.0391 19.2629 17.0365 18.9906 17.1195ZM16.3836 16.3194C14.2974 16.3194 12.679 13.7014 12.679 11.4492C12.679 11.1976 12.7001 10.9457 12.7435 10.6855C14.1847 10.5799 15.4895 9.95616 16.3836 8.94051C17.2776 9.95612 18.5821 10.5796 20.0236 10.6855C20.0666 10.9454 20.0878 11.1973 20.0878 11.4492C20.0881 13.7014 18.47 16.3194 16.3835 16.3194H16.3836ZM17.5454 16.9349V17.5329C17.1826 17.5847 16.7878 17.6146 16.3836 17.6146C15.9794 17.6146 15.5846 17.585 15.2218 17.5329V16.9349C15.5905 17.0687 15.9777 17.1491 16.3836 17.1491C16.7894 17.1494 17.1767 17.0687 17.5454 16.9349ZM14.2662 19.7935L13.3598 19.1655L13.7933 18.2815L15.4905 21.9705L14.2033 21.2222L14.4345 20.2262C14.4723 20.0615 14.4059 19.8903 14.2662 19.7935ZM14.3818 17.3508C14.3388 17.3373 14.2968 17.3235 14.2564 17.3093C14.1581 17.1575 13.9952 17.0613 13.8083 17.059C13.7425 17.0555 13.6819 17.0674 13.6242 17.0861C13.3995 17.0459 13.1715 17.0581 12.9565 17.1369C12.4846 17.3109 12.0544 17.5693 11.6671 17.882V14.1052C11.824 14.1667 11.9905 14.2014 12.1615 14.2014C12.2172 14.2014 12.2735 14.1979 12.3302 14.1908C12.3751 14.185 12.4175 14.1705 12.4611 14.1602C12.9064 15.1225 13.5692 15.9637 14.3815 16.507L14.3818 17.3508ZM11.667 9.62868C11.667 7.53373 13.5525 5.82971 15.8699 5.82971H16.8969C19.2143 5.82971 21.0998 7.53405 21.0998 9.62868V11.1654C21.0372 11.1471 20.9741 11.13 20.9086 11.121C20.8897 10.817 20.8535 10.5088 20.7829 10.1959C20.7405 10.0086 20.5738 9.87448 20.3796 9.87126C18.9957 9.84907 17.7398 9.27547 16.9337 8.29786C16.663 7.9694 16.1047 7.9694 15.8331 8.29818C15.0267 9.27583 13.7708 9.8491 12.3871 9.87134C12.193 9.87456 12.0263 10.0087 11.9839 10.1959C11.9129 10.5093 11.8771 10.8175 11.8579 11.1211C11.7924 11.1301 11.7292 11.1472 11.6667 11.1655L11.667 9.62868ZM11.6439 12.1422C11.6892 12.0827 11.7605 12.0119 11.8634 11.971C11.9055 12.4394 12.0058 12.9097 12.1517 13.3675C11.8579 13.3617 11.5716 13.0835 11.5146 12.7196C11.4811 12.5054 11.5283 12.295 11.6439 12.1422ZM10.9479 30.2316H10.6837C10.4932 30.2316 10.3186 30.154 10.1919 30.0131C10.0655 29.8725 10.0085 29.6921 10.031 29.5055L10.0662 29.2166H11.0124L10.9479 30.2316ZM14.9854 44.1702H10.6147V44.1146C10.6147 43.4396 11.1707 42.8905 11.8536 42.8905H14.4776C14.7573 42.8905 14.985 43.1154 14.985 43.3917L14.9854 44.1702ZM12.7764 42.0609V35.8401H14.9127L14.7535 42.0895C14.6642 42.0712 14.572 42.0609 14.4776 42.0609L12.7764 42.0609ZM15.1896 23.6882L15.1449 23.7805C15.0759 23.924 15.101 24.0887 15.1977 24.2109V35.0102H11.484L12.2057 23.7143C12.2064 23.7053 12.2022 23.6973 12.2022 23.6883C12.2018 23.4714 12.0354 23.2881 11.8129 23.2742C11.581 23.2636 11.382 23.4335 11.3674 23.6625L11.0654 28.3874H9.89093L10.7743 20.8602C11.0267 19.606 11.8625 18.5526 12.9803 18.0354L12.4474 19.1224C12.3575 19.3057 12.4155 19.5261 12.5842 19.6429L13.5519 20.3133L13.3151 21.3331C13.274 21.5094 13.3535 21.6918 13.5115 21.7832L15.5386 22.9618L15.1896 23.6882ZM14.7205 18.292C15.2189 18.3904 15.7853 18.4451 16.3839 18.4451C16.8712 18.4451 17.3359 18.4081 17.7616 18.3419L16.2191 21.5486L14.7205 18.292ZM20.9135 42.8916C21.5968 42.8916 22.1528 43.4407 22.1528 44.1156V44.1713L17.7821 44.171V43.3928C17.7821 43.1164 18.0098 42.8916 18.2899 42.8916L20.9135 42.8916ZM17.8547 35.8409H19.9907V42.0616H18.2896C18.1951 42.0616 18.1029 42.0716 18.0137 42.0902L17.8547 35.8409ZM22.5752 30.0146C22.4485 30.1551 22.2742 30.2327 22.0837 30.2327H21.8196L21.7547 29.2177H22.701L22.7358 29.5066C22.7589 29.6932 22.7016 29.8736 22.5752 30.0146ZM21.702 28.3877L21.4 23.6629C21.3854 23.4338 21.1916 23.2636 20.9544 23.2746C20.732 23.2887 20.5656 23.4718 20.5652 23.6886C20.5652 23.6976 20.561 23.7057 20.5616 23.7147L21.2834 35.0106H16.0382V24.1487L16.8665 23.688L19.0435 22.4768C19.207 22.3861 19.2897 22.1989 19.2461 22.0184L18.9458 20.7814L20.176 19.9665C20.3522 19.8498 20.4125 19.6217 20.3167 19.4345L19.5432 17.9257C20.7785 18.3922 21.7136 19.5049 21.9889 20.8419L22.8758 28.3867L21.702 28.3877ZM19.7939 23.9019H17.598C17.3661 23.9019 17.1778 24.0875 17.1778 24.3169V26.7818C17.1778 27.0112 17.3658 27.1968 17.598 27.1968H19.7939C20.0258 27.1968 20.2141 27.0112 20.2141 26.7818V24.3169C20.2138 24.0875 20.0258 23.9019 19.7939 23.9019ZM19.3738 26.3668H18.0178V24.7319H19.3738V26.3668Z" fill="url(#paint0_linear_6247_23370)"/>
<defs>
<linearGradient id="paint0_linear_6247_23370" x1="0" y1="0" x2="0" y2="1" gradientUnits="objectBoundingBox">
<stop stop-color="#ED3040"/>
<stop offset="1" stop-color="#2D23F4"/>
</linearGradient>
</defs>
</svg>
