<svg width="50" height="50" viewBox="0 0 50 50" fill="none" xmlns="http://www.w3.org/2000/svg">
<path d="M32.8967 10.2913C32.145 8.26563 30.6421 6.6524 28.6657 5.74662C27.5836 5.25066 26.4351 5 25.2522 5C22.0827 5 19.1766 6.84197 17.8474 9.69354L6.7558 33.4939C5.8428 35.4531 5.75397 37.6476 6.50564 39.6733C7.25729 41.6991 8.7602 43.313 10.7367 44.2181C11.8187 44.7133 12.9672 44.9647 14.1501 44.9647C17.3196 44.9647 20.2257 43.1219 21.5549 40.2709L32.6465 16.4705C33.5607 14.5121 33.6491 12.3176 32.8967 10.2918V10.2913ZM20.6474 39.8543C19.4815 42.356 16.931 43.9723 14.1505 43.9723C13.1134 43.9723 12.1061 43.7516 11.1567 43.3168C9.423 42.5229 8.10474 41.1073 7.44497 39.3307C6.78524 37.5537 6.86319 35.628 7.6641 33.909L12.9059 22.6604C14.4456 24.1394 19.2453 28.2063 25.88 28.6257L20.6474 39.8543ZM31.738 16.054L26.3326 27.653C19.4669 27.3758 14.4466 22.7876 13.3525 21.7007L18.7544 10.1096C19.9203 7.60827 22.47 5.99198 25.2509 5.99198C26.288 5.99198 27.2961 6.21267 28.2451 6.64749C29.9784 7.44141 31.297 8.85736 31.9564 10.6344C32.6173 12.4106 32.5393 14.3359 31.7376 16.0541L31.738 16.054Z" fill="url(#paint0_linear_6247_23354)"/>
<path d="M26.5292 21.2703C26.2775 21.1542 25.9804 21.2638 25.8653 21.5121L24.2809 24.9123C24.1649 25.1607 24.2743 25.4559 24.5248 25.5705C24.5927 25.6017 24.6641 25.6163 24.7343 25.6163C24.9236 25.6163 25.1039 25.5098 25.1885 25.3283L26.7732 21.9281C26.89 21.6798 26.7802 21.3849 26.5292 21.2703Z" fill="url(#paint1_linear_6247_23354)"/>
<path d="M30.6488 12.431C30.3967 12.3153 30.1003 12.4253 29.9848 12.6729L27.7662 17.4324C27.6507 17.6808 27.7596 17.9761 28.011 18.0906C28.0788 18.1218 28.1502 18.1364 28.22 18.1364C28.4093 18.1364 28.59 18.0299 28.6746 17.8484L30.8931 13.0888C31.0095 12.8409 30.8997 12.546 30.6488 12.431Z" fill="url(#paint2_linear_6247_23354)"/>
<path d="M43.749 28.5831C43.3759 27.5781 42.6304 26.7772 41.6495 26.3282C41.1131 26.0829 40.5433 25.9584 39.9561 25.9584C38.3846 25.9584 36.9429 26.8722 36.2824 28.287L31.1462 39.3093C30.6936 40.2816 30.649 41.3701 31.0221 42.3753C31.3952 43.3795 32.1407 44.1804 33.1212 44.629C33.6579 44.8754 34.2277 45 34.8152 45C36.3868 45 37.8281 44.0861 38.4885 42.6721L43.6252 31.6499C44.0782 30.6772 44.122 29.588 43.7489 28.5834L43.749 28.5831ZM37.5806 42.2548C37.0838 43.3194 35.9986 44.0072 34.816 44.0072C34.3747 44.0072 33.9461 43.9134 33.5415 43.7281C32.8031 43.3906 32.2419 42.7881 31.9619 42.0319C31.6807 41.2761 31.7144 40.4564 32.0557 39.7251L34.3281 34.8478C35.226 35.6433 37.2049 37.1089 39.8438 37.3991L37.5806 42.2548ZM42.7166 31.2326L40.2921 36.4351C37.5155 36.2536 35.4343 34.5247 34.7696 33.8987L37.1905 28.7027C37.6874 27.6382 38.7726 26.9499 39.9559 26.9499C40.3973 26.9499 40.8255 27.0438 41.23 27.2291C41.9685 27.5666 42.5289 28.1691 42.8097 28.9253C43.0905 29.6815 43.0579 30.5008 42.7166 31.2324L42.7166 31.2326Z" fill="url(#paint3_linear_6247_23354)"/>
<path d="M13.986 28.1913C14.121 28.1913 14.2463 28.1414 14.3413 28.0476C14.4363 27.9584 14.4864 27.8296 14.4864 27.6954C14.4864 27.5666 14.4363 27.437 14.3413 27.3482C14.1563 27.1598 13.8212 27.1598 13.6358 27.3482C13.5408 27.4374 13.4857 27.5662 13.4857 27.6954C13.4857 27.8292 13.5408 27.9584 13.6358 28.0476C13.7262 28.141 13.8561 28.1913 13.986 28.1913Z" fill="url(#paint4_linear_6247_23354)"/>
<path d="M20.3137 29.9708C20.4437 29.9708 20.574 29.9212 20.669 29.827C20.759 29.7328 20.8141 29.604 20.8141 29.4749C20.8141 29.3461 20.759 29.2169 20.664 29.1227C20.479 28.9393 20.1439 28.9393 19.9585 29.1227C19.8634 29.2169 19.8134 29.3457 19.8134 29.4749C19.8134 29.6037 19.8634 29.7328 19.9585 29.827C20.0535 29.9212 20.1784 29.9708 20.3137 29.9708Z" fill="url(#paint5_linear_6247_23354)"/>
<path d="M19.9583 36.6163C19.8633 36.7101 19.8132 36.8389 19.8132 36.9684C19.8132 37.0972 19.8633 37.2264 19.9583 37.3152C20.0483 37.4094 20.1782 37.4644 20.3136 37.4644C20.4435 37.4644 20.5738 37.4098 20.6638 37.3206C20.7588 37.2264 20.8139 37.0976 20.8139 36.9684C20.8139 36.8389 20.7588 36.7101 20.6638 36.6163C20.4834 36.4325 20.1382 36.4325 19.9583 36.6163Z" fill="url(#paint6_linear_6247_23354)"/>
<path d="M13.986 35.9765C14.121 35.9765 14.2463 35.9219 14.3413 35.8273C14.4363 35.7381 14.4864 35.6097 14.4864 35.4806C14.4864 35.346 14.4363 35.2176 14.3413 35.1284C14.1563 34.945 13.8212 34.945 13.6312 35.1284C13.5412 35.2222 13.4861 35.346 13.4861 35.4806C13.4861 35.6094 13.5412 35.7385 13.6362 35.8273C13.7262 35.9219 13.8561 35.9765 13.986 35.9765Z" fill="url(#paint7_linear_6247_23354)"/>
<path d="M19.6981 33.4372C19.8331 33.4372 19.9634 33.3826 20.0534 33.2934C20.1484 33.1992 20.2035 33.0705 20.2035 32.9413C20.2035 32.8067 20.1484 32.6829 20.0534 32.5891C19.8684 32.4057 19.5333 32.4057 19.3479 32.5891C19.2529 32.6829 19.1978 32.8067 19.1978 32.9413C19.1978 33.0701 19.2529 33.1993 19.3479 33.2934C19.4383 33.3826 19.5682 33.4372 19.6981 33.4372Z" fill="url(#paint8_linear_6247_23354)"/>
<path d="M13.986 32.2168C14.121 32.2168 14.2463 32.1668 14.3413 32.073C14.4363 31.9834 14.4864 31.855 14.4864 31.7208C14.4864 31.5913 14.4363 31.4625 14.3413 31.3737C14.1563 31.1903 13.8162 31.1903 13.6358 31.3737C13.5408 31.4629 13.4857 31.5913 13.4857 31.7208C13.4857 31.8546 13.5408 31.9831 13.6358 32.073C13.7262 32.1668 13.8561 32.2168 13.986 32.2168Z" fill="url(#paint9_linear_6247_23354)"/>
<path d="M16.7274 40.6466C16.8573 40.6466 16.9877 40.592 17.0827 40.4978C17.1727 40.4083 17.2277 40.2799 17.2277 40.1507C17.2277 40.0161 17.1727 39.8923 17.0827 39.7985C16.8977 39.6151 16.5626 39.6151 16.3725 39.7985C16.2826 39.8877 16.2275 40.0161 16.2275 40.1507C16.2275 40.2795 16.2826 40.4087 16.3725 40.4978C16.4676 40.592 16.5975 40.6466 16.7274 40.6466Z" fill="url(#paint10_linear_6247_23354)"/>
<path d="M9.4793 35.1281C9.38428 35.2173 9.33425 35.3457 9.33425 35.4803C9.33425 35.6091 9.38428 35.7383 9.4793 35.8271C9.56928 35.9213 9.69921 35.9762 9.83457 35.9762C9.9645 35.9762 10.0948 35.9216 10.1848 35.8271C10.2798 35.7379 10.3349 35.6095 10.3349 35.4803C10.3349 35.3457 10.2798 35.2173 10.1848 35.1281C9.9994 34.9447 9.66431 34.9447 9.4793 35.1281Z" fill="url(#paint11_linear_6247_23354)"/>
<path d="M11.7451 40.9252C11.6501 41.0144 11.6 41.1432 11.6 41.2723C11.6 41.4061 11.6501 41.5353 11.7451 41.6245C11.8351 41.7187 11.965 41.7683 12.1003 41.7683C12.2303 41.7683 12.3606 41.7187 12.4506 41.6245C12.5456 41.5303 12.6007 41.4065 12.6007 41.2723C12.6007 41.1435 12.5456 41.0194 12.4506 40.9252C12.2656 40.7364 11.9254 40.7414 11.7451 40.9252Z" fill="url(#paint12_linear_6247_23354)"/>
<defs>
<linearGradient id="paint0_linear_6247_23354" x1="0" y1="0" x2="0" y2="1" gradientUnits="objectBoundingBox">
<stop stop-color="#ED3040"/>
<stop offset="1" stop-color="#2D23F4"/>
</linearGradient>
<linearGradient id="paint1_linear_6247_23354" x1="0" y1="0" x2="0" y2="1" gradientUnits="objectBoundingBox">
<stop stop-color="#ED3040"/>
<stop offset="1" stop-color="#2D23F4"/>
</linearGradient>
<linearGradient id="paint2_linear_6247_23354" x1="0" y1="0" x2="0" y2="1" gradientUnits="objectBoundingBox">
<stop stop-color="#ED3040"/>
<stop offset="1" stop-color="#2D23F4"/>
</linearGradient>
<linearGradient id="paint3_linear_6247_23354" x1="0" y1="0" x2="0" y2="1" gradientUnits="objectBoundingBox">
<stop stop-color="#ED3040"/>
<stop offset="1" stop-color="#2D23F4"/>
</linearGradient>
<linearGradient id="paint4_linear_6247_23354" x1="0" y1="0" x2="0" y2="1" gradientUnits="objectBoundingBox">
<stop stop-color="#ED3040"/>
<stop offset="1" stop-color="#2D23F4"/>
</linearGradient>
<linearGradient id="paint5_linear_6247_23354" x1="0" y1="0" x2="0" y2="1" gradientUnits="objectBoundingBox">
<stop stop-color="#ED3040"/>
<stop offset="1" stop-color="#2D23F4"/>
</linearGradient>
<linearGradient id="paint6_linear_6247_23354" x1="0" y1="0" x2="0" y2="1" gradientUnits="objectBoundingBox">
<stop stop-color="#ED3040"/>
<stop offset="1" stop-color="#2D23F4"/>
</linearGradient>
<linearGradient id="paint7_linear_6247_23354" x1="0" y1="0" x2="0" y2="1" gradientUnits="objectBoundingBox">
<stop stop-color="#ED3040"/>
<stop offset="1" stop-color="#2D23F4"/>
</linearGradient>
<linearGradient id="paint8_linear_6247_23354" x1="0" y1="0" x2="0" y2="1" gradientUnits="objectBoundingBox">
<stop stop-color="#ED3040"/>
<stop offset="1" stop-color="#2D23F4"/>
</linearGradient>
<linearGradient id="paint9_linear_6247_23354" x1="0" y1="0" x2="0" y2="1" gradientUnits="objectBoundingBox">
<stop stop-color="#ED3040"/>
<stop offset="1" stop-color="#2D23F4"/>
</linearGradient>
<linearGradient id="paint10_linear_6247_23354" x1="0" y1="0" x2="0" y2="1" gradientUnits="objectBoundingBox">
<stop stop-color="#ED3040"/>
<stop offset="1" stop-color="#2D23F4"/>
</linearGradient>
<linearGradient id="paint11_linear_6247_23354" x1="0" y1="0" x2="0" y2="1" gradientUnits="objectBoundingBox">
<stop stop-color="#ED3040"/>
<stop offset="1" stop-color="#2D23F4"/>
</linearGradient>
<linearGradient id="paint12_linear_6247_23354" x1="0" y1="0" x2="0" y2="1" gradientUnits="objectBoundingBox">
<stop stop-color="#ED3040"/>
<stop offset="1" stop-color="#2D23F4"/>
</linearGradient>
</defs>
</svg>
