<svg width="50" height="50" viewBox="0 0 50 50" fill="none" xmlns="http://www.w3.org/2000/svg">
<path d="M18.9791 35.0825C18.9029 34.9938 17.4442 36.2257 17.2212 36.2922C16.4325 36.5262 16.2947 35.8176 16.065 35.2699C15.4051 33.6998 14.8964 32.0542 14.2779 30.4664C14.2365 29.6048 14.9591 29.637 15.6258 29.678C15.5742 29.3653 15.7154 28.7776 15.5843 28.5126C15.5305 28.4051 14.9356 28.0303 14.7855 27.8906C14.0718 27.2253 13.4847 26.5001 13.0264 25.6374C10.1168 26.255 7.78859 23.0993 9.41764 20.5689C9.51176 20.4226 9.90166 20.0223 9.9095 19.9768C9.91958 19.9214 9.62156 19.1263 9.59579 18.899C9.25295 15.842 10.9705 12.5842 13.4365 10.8267C13.4724 10.728 13.4264 10.6404 13.4096 10.5473C13.2516 9.67797 12.1671 7.56564 12.2747 6.85598C12.2881 6.76395 12.3968 6.56325 12.4651 6.50227C12.6814 6.31044 14.027 5.89352 14.3877 5.78818C16.4302 5.19273 19.7007 4.75918 21.7835 5.14838C22.5902 5.29918 22.6619 6.2805 21.853 6.54218C19.164 6.23171 16.4235 6.51003 13.8701 7.3971L15.3871 12.1562L15.5742 12.2926C18.289 11.9234 21.0754 11.9466 23.7901 12.2893L25.4427 7.44145C24.9733 7.11989 23.8305 7.17089 23.6893 6.49672C23.594 6.04432 23.9985 5.63516 24.45 5.66177C24.7637 5.68062 26.404 6.25278 26.702 6.42576C27.0001 6.59873 27.0886 6.90366 27.009 7.24408L25.8494 10.8245C26.7782 11.4998 27.6129 12.3347 28.2381 13.3005C29.987 16.0028 30.88 20.7796 27.0393 22.118C27.1289 24.4033 26.1654 26.3615 24.515 27.8895C24.3649 28.0281 23.7688 28.4051 23.7162 28.5115C23.5851 28.7765 23.7263 29.3642 23.6747 29.6769H27.9098C28.2202 29.6625 29.8011 30.2845 29.9097 30.2524C30.0016 30.2247 30.3624 29.6481 30.5058 29.5073C31.3237 28.7045 32.6278 28.2609 33.7695 28.3574C34.1773 28.3918 34.8395 28.6867 35.1151 28.6745C35.6249 28.6523 35.9823 28.2742 36.7991 28.3474C38.4057 28.4916 37.9127 30.1238 36.5066 29.7612C38.0999 31.807 37.4074 33.9138 36.0406 35.8254C35.9408 35.9651 35.4266 36.4286 35.4154 36.4718C35.347 36.7369 35.3862 37.2003 35.291 37.5774C35.1005 38.3347 34.5482 39.3349 34.1426 40.0146C33.9723 40.3007 33.1253 41.4095 33.0861 41.5448C32.9169 42.1302 33.1376 43.5562 33.0726 44.2747C32.9707 45.388 31.727 44.95 31.727 44.5198V43.2313C30.9013 44.0141 30.1204 44.828 28.9081 44.9688C26.3267 45.2693 24.1946 43.361 24.3425 40.7741C24.3716 40.2707 24.8545 38.5376 25.1122 38.1273C25.4393 37.6073 26.3222 37.7415 26.4287 38.3868C26.4858 38.7328 25.9424 39.8893 25.8326 40.3384C25.2802 42.5815 27.4213 44.3479 29.5198 43.3289C30.1842 43.0062 30.5921 42.2611 31.1254 41.7765C29.5893 39.9713 28.405 37.8424 27.9524 35.4972L27.2353 36.6559C26.7581 37.2092 25.8987 36.7856 26.0421 36.0571C26.1497 35.5149 27.5748 33.519 28.0364 33.1254C28.1776 33.0045 28.7389 32.6952 28.7703 32.6475C28.8274 32.5588 28.8106 32.3437 28.8711 32.2073C28.9529 32.021 29.0829 31.8147 29.1467 31.6429C29.1815 31.5497 29.2476 31.5608 29.1299 31.4643C28.4084 30.8711 25.8393 31.0286 24.9038 31.0164L24.7817 31.145L23.0204 35.8021C22.3392 37.2004 21.1628 35.383 20.3214 35.0803V44.5187C20.3214 45.0986 18.9791 45.0986 18.9791 44.5187V35.0803V35.0825ZM12.2702 20.6122V16.8288C12.2702 16.4108 13.6147 16.1336 13.9463 15.9961C14.7675 15.6546 15.5754 15.1867 16.2891 14.66C16.7742 14.3018 17.2795 13.4835 17.9506 13.7762C19.6928 15.1168 21.7633 16.0305 23.9716 16.2877C24.7682 16.3809 25.7676 16.2656 26.4813 16.3764C27.195 16.4873 27.2118 17.5385 26.5519 17.6849C25.892 17.8312 24.1867 17.7004 23.4786 17.6072C21.3958 17.3356 19.4105 16.4707 17.6963 15.3009C16.4773 16.2656 15.1496 17.1382 13.6214 17.5429C13.6908 21.2353 12.8147 25.3269 16.6061 27.498C20.6418 29.8077 25.3755 27.0678 25.6881 22.5648C25.7519 21.6512 25.6018 20.6321 25.6847 19.734C25.7306 19.2328 26.0141 18.9323 26.5508 19.0476C27.2611 19.2006 26.9407 20.1243 27.0729 20.6111C28.5462 19.6852 28.4846 18.2226 28.1642 16.7024C27.7955 14.9505 26.804 13.3205 25.3957 12.2128C25.1592 12.6009 25.0976 13.5179 24.6035 13.672C24.1094 13.8261 22.5902 13.5012 21.956 13.4602C20.4513 13.3648 18.8536 13.3648 17.3456 13.4602C16.7383 13.499 15.0208 13.8605 14.5872 13.6165C14.1928 13.3948 14.1356 12.5798 13.9071 12.2128C12.3677 13.4059 11.3212 15.2609 11.0355 17.1826C10.8305 18.5608 10.9391 19.8604 12.2713 20.6111L12.2702 20.6122ZM12.259 22.1202C11.9049 22.2023 10.817 21.1832 10.7285 21.1988C10.6288 21.2154 10.5112 21.4305 10.4663 21.5259C9.7829 22.9807 10.9649 24.4377 12.5223 24.3534C12.3217 23.6094 12.2321 22.8931 12.2601 22.1202H12.259ZM22.3325 29.1779C20.6418 29.871 18.6576 29.8721 16.9669 29.1779C16.9893 29.5472 16.8728 29.8599 17.0868 30.1803C17.294 30.4919 19.1326 32.2849 19.4799 32.5488C19.5427 32.5965 19.5785 32.6841 19.6805 32.6652C20.0491 32.1884 22.2585 30.35 22.3325 29.9663C22.3773 29.7312 22.3067 29.4252 22.3325 29.1779ZM32.7948 29.78C31.634 29.9585 30.6839 31.4466 30.2851 32.4479C29.0538 35.5437 33.0883 37.7104 35.0647 34.7753C35.8243 33.6465 36.4148 32.4157 35.7145 31.0862C35.6473 30.9587 35.3414 30.4986 35.2193 30.5163C35.0714 30.5374 34.9773 30.8312 34.5549 30.7436C33.9062 30.6094 34.1538 29.9064 33.9958 29.7967C33.8838 29.7179 32.992 29.7501 32.7948 29.78ZM17.219 34.5003C17.3232 34.5879 18.2856 33.8705 18.42 33.7386C18.4772 33.682 18.5904 33.6698 18.5567 33.5501L15.9608 31.0075L17.219 34.5003ZM22.0815 34.5003L23.3397 31.0075L20.7438 33.5501C20.7101 33.6698 20.8233 33.6831 20.8804 33.7386C21.0149 33.8716 21.9773 34.5879 22.0815 34.5003ZM33.9062 37.3279C32.2827 37.8601 30.6817 37.2691 29.5467 36.0804C29.531 36.3964 30.3971 38.4633 30.5248 38.4955C31.159 38.4378 33.3236 38.2515 33.6956 37.8246C33.7482 37.7647 33.951 37.3822 33.9062 37.3279ZM31.3909 39.8227L32.0194 40.6521L32.7309 39.5721L31.3898 39.8227H31.3909Z" fill="url(#paint0_linear_6247_23356)"/>
<path d="M36.9089 13.7341C37.6707 13.6576 38.5155 13.6875 39.2617 13.8472C39.8925 13.9825 42.4974 14.8396 41.5014 15.7921C40.9591 16.311 40.1916 15.5925 39.6326 15.3907C34.4552 13.5212 30.1204 19.6497 33.6575 23.8101C37.3974 28.2077 44.6407 24.3024 42.8391 18.6972C42.6453 18.094 41.7075 16.983 42.5209 16.5539C43.4979 16.0394 44.1847 18.1905 44.3349 18.8769C45.6121 24.7149 39.2202 29.2356 34.1146 26.0178C29.0089 22.7999 30.74 14.355 36.9089 13.7319V13.7341Z" fill="url(#paint1_linear_6247_23356)"/>
<path d="M39.7782 18.3668H41.33C41.6067 18.3668 41.7736 18.8314 41.7949 19.0698C41.8487 19.6608 41.8734 21.2586 41.786 21.8131C41.7568 21.9993 41.5047 22.3586 41.33 22.3586H39.7782V23.8977C39.7782 24.1715 39.3099 24.3379 39.069 24.3589C38.4729 24.4122 36.8618 24.4366 36.3027 24.3501C36.1145 24.3212 35.7526 24.0706 35.7526 23.8977V22.3586H34.2009C33.9241 22.3586 33.7572 21.894 33.7359 21.6556C33.6821 21.0646 33.6575 19.4668 33.7449 18.9123C33.774 18.7261 34.0261 18.3668 34.2009 18.3668H35.7526V16.8277C35.7526 16.5539 36.2209 16.3875 36.4618 16.3665C37.0579 16.3132 38.669 16.2888 39.2281 16.3753C39.4163 16.4042 39.7782 16.6548 39.7782 16.8277V18.3668ZM38.436 17.7015H37.0937V19.2406C37.0937 19.3381 36.7307 19.6974 36.6321 19.6974H35.0804V21.028H36.6321C36.7307 21.028 37.0937 21.3884 37.0937 21.4848V23.0239H38.436V21.4848C38.436 21.3873 38.799 21.028 38.8976 21.028H40.4493V19.6974H38.8976C38.799 19.6974 38.436 19.337 38.436 19.2406V17.7015Z" fill="url(#paint2_linear_6247_23356)"/>
<path d="M11.4142 29.7013C11.8579 29.6569 12.6668 29.5461 12.8774 30.0306C13.3883 31.2027 11.4949 31.0386 10.7789 31.2337C5.1198 32.7828 7.35163 40.192 6.89787 44.4333C6.77574 45.205 5.60493 45.1551 5.55899 44.3568C5.70352 41.5503 5.37413 38.5698 5.55675 35.7855C5.75506 32.7606 8.35999 30.0073 11.4142 29.7013Z" fill="url(#paint3_linear_6247_23356)"/>
<path d="M20.3202 8.38728C22.1398 8.06572 22.1398 10.0383 20.3202 9.71678C20.644 11.522 18.6553 11.5209 18.9791 9.71678C17.1596 10.0383 17.1596 8.06572 18.9791 8.38728C18.6553 6.58099 20.644 6.58432 20.3202 8.38728Z" fill="url(#paint4_linear_6247_23356)"/>
<path d="M10.7375 39.0066C11.2036 38.9057 11.5464 39.1497 11.6013 39.6121C11.7772 41.0957 11.4713 42.912 11.5946 44.4322C11.4781 45.1684 10.3543 45.2006 10.2557 44.3557C10.082 42.8698 10.3845 41.0569 10.2624 39.5355C10.296 39.2905 10.4921 39.0599 10.7375 39.0066Z" fill="url(#paint5_linear_6247_23356)"/>
<path d="M22.1431 37.676C23.1257 37.4631 23.296 38.807 22.5241 38.9734C21.5415 39.1863 21.3712 37.8424 22.1431 37.676Z" fill="url(#paint6_linear_6247_23356)"/>
<path d="M22.1431 40.3372C23.1257 40.1243 23.296 41.4683 22.5241 41.6346C21.5415 41.8475 21.3712 40.5036 22.1431 40.3372Z" fill="url(#paint7_linear_6247_23356)"/>
<path d="M17.4464 25.0353C17.9237 24.9322 18.5735 25.4744 19.1427 25.5642C20.3729 25.7583 20.4984 25.3037 21.4093 25.0586C22.2518 24.8313 22.672 25.7494 22.0412 26.2684C20.9118 27.1976 18.5343 27.1709 17.3579 26.3371C16.8324 25.9645 16.8056 25.175 17.4464 25.0364V25.0353Z" fill="url(#paint8_linear_6247_23356)"/>
<path d="M16.2756 18.6374C17.0061 18.5409 18.8794 19.1452 18.1803 20.111C17.7187 20.7486 17.0655 20.0389 16.586 20.0256C16.0784 20.0123 15.795 20.6543 15.2079 20.2352C14.334 19.6131 15.5642 18.7316 16.2756 18.6374Z" fill="url(#paint9_linear_6247_23356)"/>
<path d="M22.4815 18.6374C23.3106 18.5276 24.9665 19.2794 24.1811 20.1565C23.668 20.7286 23.2142 20.0422 22.7941 20.0245C22.2328 20.0001 21.7409 20.6754 21.1998 20.1986C20.3449 19.4457 21.8305 18.7249 22.4815 18.6385V18.6374Z" fill="url(#paint10_linear_6247_23356)"/>
<path d="M16.7753 21.7088C17.7579 21.4959 17.9282 22.8398 17.1562 23.0062C16.1736 23.2191 16.0033 21.8751 16.7753 21.7088Z" fill="url(#paint11_linear_6247_23356)"/>
<path d="M22.1431 21.7088C23.1257 21.4959 23.296 22.8398 22.5241 23.0062C21.5415 23.2191 21.3712 21.8751 22.1431 21.7088Z" fill="url(#paint12_linear_6247_23356)"/>
<path d="M31.5041 34.6378C31.1187 34.2298 30.8822 33.2218 31.6038 33.0866C32.397 32.9391 32.3981 33.6687 32.62 33.7386C32.9763 33.8506 33.5667 33.6232 33.6541 34.2996C33.7986 35.4273 32.118 35.2887 31.5041 34.6378Z" fill="url(#paint13_linear_6247_23356)"/>
<path d="M34.388 32.3525C35.3269 32.1607 35.5868 33.6521 34.5986 33.7364C33.7549 33.8084 33.5634 32.5211 34.388 32.3525Z" fill="url(#paint14_linear_6247_23356)"/>
<path d="M32.0396 31.023C32.8441 30.8489 33.2396 31.828 32.6077 32.2538C31.6844 32.8759 31.0783 31.2304 32.0396 31.023Z" fill="url(#paint15_linear_6247_23356)"/>
<defs>
<linearGradient id="paint0_linear_6247_23356" x1="0" y1="0" x2="0" y2="1" gradientUnits="objectBoundingBox">
<stop stop-color="#ED3040"/>
<stop offset="1" stop-color="#2D23F4"/>
</linearGradient>
<linearGradient id="paint1_linear_6247_23356" x1="0" y1="0" x2="0" y2="1" gradientUnits="objectBoundingBox">
<stop stop-color="#ED3040"/>
<stop offset="1" stop-color="#2D23F4"/>
</linearGradient>
<linearGradient id="paint2_linear_6247_23356" x1="0" y1="0" x2="0" y2="1" gradientUnits="objectBoundingBox">
<stop stop-color="#ED3040"/>
<stop offset="1" stop-color="#2D23F4"/>
</linearGradient>
<linearGradient id="paint3_linear_6247_23356" x1="0" y1="0" x2="0" y2="1" gradientUnits="objectBoundingBox">
<stop stop-color="#ED3040"/>
<stop offset="1" stop-color="#2D23F4"/>
</linearGradient>
<linearGradient id="paint4_linear_6247_23356" x1="0" y1="0" x2="0" y2="1" gradientUnits="objectBoundingBox">
<stop stop-color="#ED3040"/>
<stop offset="1" stop-color="#2D23F4"/>
</linearGradient>
<linearGradient id="paint5_linear_6247_23356" x1="0" y1="0" x2="0" y2="1" gradientUnits="objectBoundingBox">
<stop stop-color="#ED3040"/>
<stop offset="1" stop-color="#2D23F4"/>
</linearGradient>
<linearGradient id="paint6_linear_6247_23356" x1="0" y1="0" x2="0" y2="1" gradientUnits="objectBoundingBox">
<stop stop-color="#ED3040"/>
<stop offset="1" stop-color="#2D23F4"/>
</linearGradient>
<linearGradient id="paint7_linear_6247_23356" x1="0" y1="0" x2="0" y2="1" gradientUnits="objectBoundingBox">
<stop stop-color="#ED3040"/>
<stop offset="1" stop-color="#2D23F4"/>
</linearGradient>
<linearGradient id="paint8_linear_6247_23356" x1="0" y1="0" x2="0" y2="1" gradientUnits="objectBoundingBox">
<stop stop-color="#ED3040"/>
<stop offset="1" stop-color="#2D23F4"/>
</linearGradient>
<linearGradient id="paint9_linear_6247_23356" x1="0" y1="0" x2="0" y2="1" gradientUnits="objectBoundingBox">
<stop stop-color="#ED3040"/>
<stop offset="1" stop-color="#2D23F4"/>
</linearGradient>
<linearGradient id="paint10_linear_6247_23356" x1="0" y1="0" x2="0" y2="1" gradientUnits="objectBoundingBox">
<stop stop-color="#ED3040"/>
<stop offset="1" stop-color="#2D23F4"/>
</linearGradient>
<linearGradient id="paint11_linear_6247_23356" x1="0" y1="0" x2="0" y2="1" gradientUnits="objectBoundingBox">
<stop stop-color="#ED3040"/>
<stop offset="1" stop-color="#2D23F4"/>
</linearGradient>
<linearGradient id="paint12_linear_6247_23356" x1="0" y1="0" x2="0" y2="1" gradientUnits="objectBoundingBox">
<stop stop-color="#ED3040"/>
<stop offset="1" stop-color="#2D23F4"/>
</linearGradient>
<linearGradient id="paint13_linear_6247_23356" x1="0" y1="0" x2="0" y2="1" gradientUnits="objectBoundingBox">
<stop stop-color="#ED3040"/>
<stop offset="1" stop-color="#2D23F4"/>
</linearGradient>
<linearGradient id="paint14_linear_6247_23356" x1="0" y1="0" x2="0" y2="1" gradientUnits="objectBoundingBox">
<stop stop-color="#ED3040"/>
<stop offset="1" stop-color="#2D23F4"/>
</linearGradient>
<linearGradient id="paint15_linear_6247_23356" x1="0" y1="0" x2="0" y2="1" gradientUnits="objectBoundingBox">
<stop stop-color="#ED3040"/>
<stop offset="1" stop-color="#2D23F4"/>
</linearGradient>
</defs>
</svg>
