<svg width="50" height="50" viewBox="0 0 50 50" fill="none" xmlns="http://www.w3.org/2000/svg">
<path d="M25 8.76198C16.0917 8.76198 8.76198 16.0921 8.76198 25C8.76198 33.9075 16.0921 41.238 25 41.238C33.9075 41.238 41.238 33.9076 41.238 25C41.2265 16.0959 33.9033 8.77296 25 8.76198ZM25 39.5369C17.0255 39.5369 10.4639 32.9752 10.4639 25.0008C10.4639 17.0265 17.0257 10.4648 25 10.4648C32.9743 10.4648 39.5361 17.0265 39.5361 25.0008C39.5292 32.9724 32.9714 39.5302 25 39.5369Z" fill="url(#paint0_linear_6247_23332)"/>
<path d="M22.8724 15.2124C20.0709 15.2124 17.766 17.5177 17.766 20.3188C17.766 23.1203 20.0709 25.4252 22.8724 25.4252C25.6735 25.4252 27.9788 23.1203 27.9788 20.3188C27.9788 17.5177 25.6735 15.2124 22.8724 15.2124ZM22.8724 23.7229C21.0046 23.7229 19.4681 22.1865 19.4681 20.3186C19.4681 18.4512 21.0046 16.9144 22.8724 16.9144C24.7401 16.9144 26.2767 18.4512 26.2767 20.3186C26.2767 22.1864 24.7402 23.7229 22.8724 23.7229Z" fill="url(#paint1_linear_6247_23332)"/>
<path d="M22.2718 19.7194C22.1138 19.8787 22.0244 20.0945 22.0244 20.3192C22.0244 20.7847 22.4065 21.1681 22.872 21.1704H22.8726C23.3395 21.1704 23.7239 20.786 23.7239 20.3192C23.7239 20.0945 23.6344 19.8787 23.4761 19.7194C23.1405 19.402 22.6078 19.402 22.2718 19.7194Z" fill="url(#paint2_linear_6247_23332)"/>
<path d="M36.5571 25.1571C36.1427 24.3069 35.493 23.5932 34.6847 23.1016C34.1581 22.8179 33.7381 22.3695 33.489 21.8251C33.2294 21.157 33.3528 20.6123 33.489 19.9188C33.785 18.9788 33.7533 17.9659 33.3996 17.0464C32.8935 15.8636 31.8295 14.953 30.2296 14.3356C30.1386 14.3033 30.0426 14.2871 29.9462 14.2871C29.4794 14.2871 29.095 14.6715 29.095 15.1383C29.095 15.4805 29.3015 15.7906 29.6166 15.9229C30.7701 16.3485 31.519 16.9698 31.8338 17.7145C32.102 18.3357 31.9786 18.8676 31.8338 19.5443C31.5458 20.4941 31.5708 21.512 31.906 22.4463C32.2667 23.3088 32.8988 24.0307 33.7061 24.5018C34.267 24.8235 34.7214 25.3029 35.0124 25.8803C35.1522 26.1818 35.4551 26.3748 35.787 26.3742C35.9108 26.3742 36.0328 26.3465 36.1444 26.293C36.4453 26.1544 36.6389 25.8519 36.6389 25.5203C36.6389 25.3949 36.6109 25.2706 36.5571 25.1571Z" fill="url(#paint3_linear_6247_23332)"/>
<path d="M32.2334 27.5533C30.1327 27.5533 28.4039 29.2822 28.4039 31.3832C28.4039 33.4839 30.1327 35.2131 32.2334 35.2131C34.3344 35.2131 36.0633 33.4839 36.0633 31.3832C36.0633 29.2822 34.3344 27.5533 32.2334 27.5533ZM32.2334 33.5109C31.0665 33.5109 30.106 32.5505 30.106 31.3832C30.106 30.2159 31.0664 29.2555 32.2334 29.2555C33.4007 29.2555 34.3611 30.2159 34.3611 31.3832C34.3611 32.5505 33.4007 33.5109 32.2334 33.5109Z" fill="url(#paint4_linear_6247_23332)"/>
<path d="M21.847 35.0342C21.686 35.1939 21.5959 35.4113 21.5959 35.6377C21.5959 36.1048 21.98 36.4885 22.4468 36.4885C22.9136 36.4885 23.298 36.1048 23.298 35.6377C23.298 35.4113 23.2076 35.1939 23.0469 35.0342C22.7107 34.7214 22.1829 34.7214 21.847 35.0342Z" fill="url(#paint5_linear_6247_23332)"/>
<path d="M15.4253 26.2509C15.8892 25.753 16.4636 25.1361 16.4893 24.1703C16.4682 23.2716 16.0657 22.423 15.3827 21.8384C15.2237 21.6826 15.0095 21.5952 14.7872 21.5952C14.3197 21.5952 13.9356 21.9796 13.9356 22.4468C13.9356 22.6757 14.028 22.8955 14.1913 23.0552C14.5206 23.3313 14.7337 23.7226 14.7872 24.1489C14.7872 24.4554 14.5615 24.7022 14.1784 25.115C13.6192 25.6132 13.2355 26.2793 13.0851 27.0128C12.9402 28.0597 13.4553 29.1659 14.6084 30.2894C14.7674 30.4451 14.9815 30.5325 15.2042 30.5325C15.6714 30.5325 16.0554 30.1481 16.0554 29.681C16.0554 29.452 15.9631 29.2322 15.7997 29.0726C15.285 28.5704 14.6892 27.8468 14.7701 27.2428C14.8842 26.8538 15.1122 26.5083 15.4253 26.251L15.4253 26.2509Z" fill="url(#paint6_linear_6247_23332)"/>
<path d="M25.4257 29.2552H24.779C23.0848 29.2526 21.4322 29.7828 20.0557 30.7703L18.9748 31.5404C18.7505 31.7001 18.6168 31.9588 18.6168 32.2339C18.6168 32.7014 19.0012 33.0855 19.4684 33.0855C19.6452 33.0855 19.8178 33.0304 19.962 32.9278L21.0472 32.1531C22.1346 31.3731 23.4408 30.9547 24.7791 30.9574H25.4257C25.8926 30.9574 26.277 30.5734 26.277 30.1066C26.277 29.6397 25.8926 29.2553 25.4257 29.2553L25.4257 29.2552Z" fill="url(#paint7_linear_6247_23332)"/>
<path d="M25 5C14.0283 5 5 14.0283 5 25C5 35.9709 14.0283 45 25 45C35.9709 45 45 35.9718 45 25C45 14.0283 35.9718 5 25 5ZM25 43.2981C14.9624 43.2981 6.70193 35.0382 6.70193 25C6.70193 14.9618 14.9622 6.70193 25 6.70193C35.0378 6.70193 43.2981 14.9622 43.2981 25C43.2981 35.0378 35.0382 43.2981 25 43.2981Z" fill="url(#paint8_linear_6247_23332)"/>
<defs>
<linearGradient id="paint0_linear_6247_23332" x1="0" y1="0" x2="0" y2="1" gradientUnits="objectBoundingBox">
<stop stop-color="#ED3040"/>
<stop offset="1" stop-color="#2D23F4"/>
</linearGradient>
<linearGradient id="paint1_linear_6247_23332" x1="0" y1="0" x2="0" y2="1" gradientUnits="objectBoundingBox">
<stop stop-color="#ED3040"/>
<stop offset="1" stop-color="#2D23F4"/>
</linearGradient>
<linearGradient id="paint2_linear_6247_23332" x1="0" y1="0" x2="0" y2="1" gradientUnits="objectBoundingBox">
<stop stop-color="#ED3040"/>
<stop offset="1" stop-color="#2D23F4"/>
</linearGradient>
<linearGradient id="paint3_linear_6247_23332" x1="0" y1="0" x2="0" y2="1" gradientUnits="objectBoundingBox">
<stop stop-color="#ED3040"/>
<stop offset="1" stop-color="#2D23F4"/>
</linearGradient>
<linearGradient id="paint4_linear_6247_23332" x1="0" y1="0" x2="0" y2="1" gradientUnits="objectBoundingBox">
<stop stop-color="#ED3040"/>
<stop offset="1" stop-color="#2D23F4"/>
</linearGradient>
<linearGradient id="paint5_linear_6247_23332" x1="0" y1="0" x2="0" y2="1" gradientUnits="objectBoundingBox">
<stop stop-color="#ED3040"/>
<stop offset="1" stop-color="#2D23F4"/>
</linearGradient>
<linearGradient id="paint6_linear_6247_23332" x1="0" y1="0" x2="0" y2="1" gradientUnits="objectBoundingBox">
<stop stop-color="#ED3040"/>
<stop offset="1" stop-color="#2D23F4"/>
</linearGradient>
<linearGradient id="paint7_linear_6247_23332" x1="0" y1="0" x2="0" y2="1" gradientUnits="objectBoundingBox">
<stop stop-color="#ED3040"/>
<stop offset="1" stop-color="#2D23F4"/>
</linearGradient>
<linearGradient id="paint8_linear_6247_23332" x1="0" y1="0" x2="0" y2="1" gradientUnits="objectBoundingBox">
<stop stop-color="#ED3040"/>
<stop offset="1" stop-color="#2D23F4"/>
</linearGradient>
</defs>
</svg>
