<svg width="50" height="50" viewBox="0 0 50 50" fill="none" xmlns="http://www.w3.org/2000/svg">
<path d="M11.5673 13.7565C10.6216 13.7579 9.71491 14.1356 9.04616 14.8074C8.37742 15.4791 8.00145 16.3899 8 17.3398V36.7954C8.00142 37.7454 8.37744 38.6561 9.04616 39.3279C9.71484 39.9996 10.6216 40.3773 11.5673 40.3787H22.1579C22.4998 41.6889 23.2601 42.8506 24.3221 43.6851C25.3842 44.52 26.6896 44.9818 28.038 45H28.1313H28.1309C29.7401 45.0032 31.2863 44.3739 32.4396 43.2468L40.1157 35.7742C41.7049 34.2281 42.3519 31.9479 41.8138 29.7921C41.2753 27.6367 39.6328 25.9334 37.5052 25.3241C35.3778 24.7148 33.088 25.2921 31.4991 26.8382L31.4228 26.9105V17.3406C31.4214 16.3906 31.0454 15.4798 30.3767 14.8081C29.708 14.1364 28.8012 13.7587 27.8555 13.7572H27.8005V12.1573H28.1141C28.6115 12.1562 29.0883 11.9574 29.4398 11.6039C29.7917 11.2508 29.9896 10.7719 29.9907 10.2723V6.86793C29.985 6.3712 29.785 5.89688 29.4338 5.54732C29.0826 5.19741 28.6087 5.00107 28.1142 5H11.3084C10.811 5.00107 10.3342 5.1999 9.98269 5.55338C9.63079 5.90651 9.43285 6.38542 9.43179 6.88502V10.2894C9.43285 10.789 9.63079 11.2679 9.98269 11.621C10.3342 11.9741 10.811 12.1733 11.3084 12.1744H11.622V13.7743L11.5673 13.7565ZM11.1437 10.2712V6.86687L11.1434 6.86723C11.1434 6.76638 11.225 6.68443 11.3257 6.68443H13.16V10.4377H11.3087C11.2143 10.4381 11.1352 10.3661 11.1267 10.2717L11.1437 10.2712ZM28.3137 6.86687V10.2712L28.3133 10.2716C28.3133 10.3724 28.2318 10.4544 28.131 10.4544H26.2757V6.70111H28.1143C28.2147 6.70111 28.2963 6.78306 28.2963 6.88426L28.3137 6.86687ZM24.5986 10.437H22.4804L22.4801 6.70122H24.5982L24.5986 10.437ZM20.7859 10.437H18.6678L18.6674 6.70122H20.7855L20.7859 10.437ZM16.9732 10.437H14.8551L14.8547 6.70122H16.9728L16.9732 10.437ZM13.3343 12.1392L26.1062 12.1395V13.7394L13.3171 13.7398L13.3343 12.1392ZM29.7324 17.3398V28.5782L27.6735 30.5869L23.8608 34.323C22.6806 35.4615 22.0045 37.0283 21.9839 38.6721H11.5668C11.0701 38.6721 10.5937 38.474 10.2425 38.1212C9.89133 37.7684 9.69409 37.2899 9.69409 36.791V17.34C9.69409 16.8411 9.89133 16.3626 10.2425 16.0098C10.5937 15.6571 11.0701 15.4589 11.5668 15.4589H27.8549C28.3523 15.4579 28.8297 15.6556 29.1816 16.0084C29.5338 16.3612 29.7318 16.8404 29.7318 17.34L29.7324 17.3398ZM35.803 26.804H35.875C37.0662 26.8218 38.2014 27.3143 39.0311 28.1734C39.8605 29.0322 40.3163 30.187 40.2983 31.3836C40.2798 32.5801 39.7888 33.72 38.9336 34.5531L36.1205 37.2976L35.2734 36.4467C34.947 36.1096 34.4103 36.1017 34.0744 36.4296C33.7388 36.7574 33.7314 37.2965 34.0577 37.6339L34.9048 38.4849L31.2702 42.0211C30.1191 43.144 28.4593 43.5648 26.9159 43.1247C25.3724 42.6846 24.1798 41.451 23.7871 39.8885C23.3947 38.326 23.8619 36.6715 25.0131 35.5487L28.2369 32.4041L31.8506 36.1531C32.0102 36.3191 32.2305 36.4128 32.4604 36.4125C32.7999 36.4114 33.106 36.2065 33.2376 35.8922C33.3696 35.5783 33.3022 35.2152 33.0663 34.9701L29.4441 31.2211L32.6977 28.0765C33.5296 27.264 34.6427 26.8076 35.803 26.804Z" fill="url(#paint0_linear_6247_23336)"/>
<path d="M25.5888 23.6549H22.5558V20.6079C22.5558 20.1735 22.3838 19.7566 22.078 19.4495C21.7722 19.1423 21.3572 18.9699 20.9248 18.9699H18.4931C18.0614 18.971 17.6474 19.1441 17.3427 19.4509C17.0376 19.7581 16.8662 20.1743 16.8662 20.608V23.6549H13.8333C13.4005 23.6549 12.9858 23.8274 12.6801 24.1349C12.3739 24.4421 12.2022 24.8586 12.2022 25.2933V27.7359V27.7356C12.2022 28.1703 12.3739 28.5868 12.6801 28.8944C12.9858 29.2015 13.4005 29.374 13.8333 29.374H14.1171C14.585 29.374 14.9642 28.9931 14.9642 28.5231C14.9642 28.0531 14.585 27.6718 14.1171 27.6718H13.8968V25.3571H16.9301H16.9297C17.3615 25.356 17.7751 25.1835 18.0805 24.8774C18.386 24.5713 18.5587 24.1562 18.5608 23.7229V20.6717H20.8613V23.7229C20.8624 24.157 21.0344 24.5732 21.3402 24.8804C21.6456 25.1872 22.06 25.3603 22.4921 25.3614H25.5254V27.6765L22.4921 27.6761C22.0604 27.6761 21.6464 27.8482 21.3406 28.1547C21.0348 28.4608 20.8624 28.8766 20.8613 29.3103V32.3615H18.5609V29.306C18.5598 28.8723 18.3874 28.4565 18.0816 28.1504C17.7758 27.844 17.3618 27.6718 16.9297 27.6718C16.4618 27.6544 16.0684 28.021 16.0507 28.4911C16.0333 28.9611 16.3983 29.3566 16.8662 29.374V32.4253C16.8662 32.8589 17.0376 33.2751 17.3427 33.5823C17.6474 33.8891 18.0614 34.0623 18.4931 34.0634H20.9248C21.3572 34.0634 21.7722 33.8909 22.078 33.5838C22.3838 33.2766 22.5558 32.8597 22.5558 32.4253V29.3741H25.5891H25.5888C26.0216 29.3741 26.4363 29.2016 26.742 28.8945C27.0482 28.587 27.2199 28.1704 27.2199 27.7357V25.2934C27.2199 24.8587 27.0482 24.4422 26.742 24.135C26.4362 23.8275 26.0216 23.6551 25.5888 23.6551L25.5888 23.6549Z" fill="url(#paint1_linear_6247_23336)"/>
<defs>
<linearGradient id="paint0_linear_6247_23336" x1="35.7631" y1="33.6397" x2="35.7631" y2="41.6506" gradientUnits="userSpaceOnUse">
<stop stop-color="#ED3040"/>
<stop offset="1" stop-color="#2D23F4"/>
</linearGradient>
<linearGradient id="paint1_linear_6247_23336" x1="35.7631" y1="33.6397" x2="35.7631" y2="41.6506" gradientUnits="userSpaceOnUse">
<stop stop-color="#ED3040"/>
<stop offset="1" stop-color="#2D23F4"/>
</linearGradient>
</defs>
</svg>
