<svg width="50" height="50" viewBox="0 0 50 50" fill="none" xmlns="http://www.w3.org/2000/svg">
<path d="M34.4441 15.0807C32.3221 13.6395 29.564 13.5172 27.2454 14.7611V14.7615C25.8372 15.4988 24.1628 15.4988 22.7547 14.7615C20.436 13.5173 17.6779 13.6399 15.5559 15.0807C13.8742 16.2179 12.5626 17.8331 11.786 19.7225C11.0094 21.6122 10.8023 23.6919 11.1914 25.7L14.3178 41.9292C14.5329 43.0466 15.2322 44.007 16.2231 44.5466C17.2141 45.0858 18.3917 45.1473 19.4319 44.7136C20.4722 44.2799 21.2652 43.397 21.5928 42.3081L23.5178 35.9069C23.6475 35.4752 23.9549 35.1213 24.361 34.9352C24.767 34.7491 25.233 34.7491 25.639 34.9352C26.045 35.1213 26.3525 35.4752 26.4822 35.9069L28.4072 42.3081C28.7347 43.397 29.5278 44.2799 30.5681 44.7136C31.6084 45.1473 32.7863 45.0858 33.7769 44.5466C34.7679 44.007 35.467 43.0466 35.6822 41.9292L38.8086 25.701C39.1977 23.6926 38.9906 21.6128 38.214 19.7234C37.4374 17.8337 36.1259 16.2189 34.4441 15.0813L34.4441 15.0807ZM37.2862 25.3999L34.1598 41.6292C34.0336 42.2848 33.6233 42.8484 33.0418 43.165C32.4603 43.4815 31.7695 43.5173 31.1592 43.2627C30.5485 43.0085 30.0832 42.4903 29.8912 41.8515L27.9662 35.4504C27.7064 34.5869 27.0919 33.8784 26.2787 33.5061C25.4659 33.1335 24.5342 33.1335 23.7214 33.5061C22.9083 33.8783 22.2937 34.5869 22.0339 35.4504L20.1089 41.8515C19.9169 42.4903 19.4516 43.0085 18.8409 43.2627C18.2305 43.5173 17.5398 43.4815 16.9583 43.165C16.3768 42.8485 15.9666 42.2848 15.8403 41.6292L12.7139 25.3999C12.3837 23.6948 12.5596 21.9288 13.2192 20.3244C13.8788 18.72 14.9925 17.349 16.4203 16.3834C18.0666 15.2653 20.2155 15.175 22.0278 16.1475C23.8908 17.129 26.1094 17.129 27.9724 16.1475C29.785 15.175 31.9336 15.2653 33.5799 16.3834V16.3838C35.0076 17.3493 36.1218 18.7204 36.781 20.3248C37.4406 21.9292 37.6164 23.6947 37.2862 25.3999Z" fill="url(#paint0_linear_6247_23338)"/>
<path d="M30.3733 23.0339C30.3856 23.0343 30.3976 23.0347 30.4099 23.0347C30.8309 23.0339 31.1746 22.6936 31.1842 22.2681C31.1938 21.8422 30.8655 21.4864 30.4453 21.4665L28.6681 21.3832L28.5858 19.5854C28.5777 19.3763 28.4876 19.1793 28.3352 19.038C28.1832 18.8963 27.9812 18.8223 27.7749 18.832C27.5682 18.8414 27.3743 18.934 27.2353 19.0894C27.0968 19.2443 27.0252 19.4491 27.0364 19.6578L27.1357 21.8239L25.793 23.1818V21.6261C25.793 21.1928 25.4458 20.8413 25.0175 20.8413C24.5892 20.8413 24.2421 21.1928 24.2421 21.6261V23.2181L22.864 21.824L22.9633 19.6579C22.9794 19.2273 22.6496 18.8641 22.224 18.8442C21.7984 18.8243 21.4366 19.1553 21.4135 19.5855L21.3312 21.3833L19.554 21.4666H19.5544C19.1337 21.4865 18.8058 21.8423 18.8151 22.2682C18.8247 22.6937 19.1684 23.0344 19.5894 23.0347C19.6013 23.0347 19.6136 23.0344 19.6259 23.034L21.7672 22.9335L23.1238 24.3059H21.5929C21.1645 24.3059 20.8174 24.6571 20.8174 25.0904C20.8174 25.5237 21.1645 25.8748 21.5929 25.8748H23.131L21.7672 27.2546L19.6259 27.1541V27.1545C19.4197 27.1432 19.2172 27.2156 19.0641 27.3562C18.9105 27.4963 18.8189 27.6929 18.8093 27.9016C18.7997 28.1107 18.8732 28.3147 19.0129 28.4688C19.153 28.6226 19.3477 28.7137 19.5544 28.7219L21.3316 28.8052L21.4139 30.603C21.4328 31.0216 21.7737 31.3509 22.1878 31.3513C22.1998 31.3513 22.2121 31.3509 22.2244 31.3505C22.6523 31.3303 22.9829 30.9632 22.9633 30.5306L22.864 28.3645L24.2421 26.9704V28.5044C24.2421 28.9377 24.5892 29.2888 25.0175 29.2888C25.4458 29.2888 25.793 28.9377 25.793 28.5044V27.0063L27.1353 28.3642L27.036 30.5303H27.0364C27.0164 30.9633 27.3473 31.3304 27.7753 31.3506C27.7876 31.351 27.7995 31.3514 27.8118 31.3514H27.8115C28.2259 31.351 28.5665 31.0216 28.5858 30.6031L28.6681 28.8053L30.4453 28.722C30.6516 28.7138 30.8467 28.6227 30.9864 28.4685C31.1265 28.3148 31.1996 28.1108 31.19 27.9017C31.1803 27.6926 31.0887 27.4964 30.9356 27.3563C30.782 27.2157 30.58 27.1433 30.3733 27.1546L28.2321 27.2551L26.8682 25.8753H28.3918L28.3922 25.8749C28.8205 25.8749 29.1677 25.5238 29.1677 25.0905C29.1677 24.6571 28.8205 24.306 28.3922 24.306H26.8759L28.2321 22.9336L30.3733 23.0339Z" fill="url(#paint1_linear_6247_23338)"/>
<path d="M25.0011 9.8045H25.003C25.2085 9.80373 25.4056 9.7208 25.5506 9.57325C25.6957 9.4257 25.7769 9.22599 25.7765 9.01771L25.7685 5.78252C25.7673 5.35 25.4206 5 24.993 5H24.9911C24.7852 5.00039 24.5882 5.0837 24.4431 5.23125C24.298 5.3788 24.2168 5.57852 24.2172 5.78641L24.2253 9.02159V9.02198C24.2264 9.45412 24.5735 9.8045 25.0011 9.8045Z" fill="url(#paint2_linear_6247_23338)"/>
<path d="M28.4453 11.6094C28.6516 11.6098 28.8498 11.5265 28.9952 11.3782L31.2508 9.0847C31.5529 8.77754 31.5518 8.28077 31.2481 7.97514C30.9445 7.66951 30.4534 7.6707 30.1513 7.97787L27.8954 10.2713C27.6745 10.4964 27.6091 10.8335 27.7292 11.1259C27.8497 11.4186 28.1321 11.6094 28.4453 11.6094Z" fill="url(#paint3_linear_6247_23338)"/>
<path d="M21.019 11.3991C21.1644 11.5463 21.3622 11.6288 21.5681 11.6284C21.774 11.628 21.9714 11.5451 22.1165 11.3972C22.262 11.2496 22.3432 11.0495 22.3424 10.8412C22.3417 10.633 22.2589 10.4332 22.1127 10.2869L19.8456 8.00477C19.7001 7.85644 19.5023 7.77313 19.2956 7.77313C19.0893 7.77274 18.8912 7.85605 18.7453 8.00438C18.5998 8.15232 18.5186 8.3532 18.5198 8.56188C18.5209 8.77094 18.6045 8.97066 18.7519 9.11703L21.019 11.3991Z" fill="url(#paint4_linear_6247_23338)"/>
<defs>
<linearGradient id="paint0_linear_6247_23338" x1="0" y1="0" x2="0" y2="1" gradientUnits="objectBoundingBox">
<stop stop-color="#ED3040"/>
<stop offset="1" stop-color="#2D23F4"/>
</linearGradient>
<linearGradient id="paint1_linear_6247_23338" x1="0" y1="0" x2="0" y2="1" gradientUnits="objectBoundingBox">
<stop stop-color="#ED3040"/>
<stop offset="1" stop-color="#2D23F4"/>
</linearGradient>
<linearGradient id="paint2_linear_6247_23338" x1="0" y1="0" x2="0" y2="1" gradientUnits="objectBoundingBox">
<stop stop-color="#ED3040"/>
<stop offset="1" stop-color="#2D23F4"/>
</linearGradient>
<linearGradient id="paint3_linear_6247_23338" x1="0" y1="0" x2="0" y2="1" gradientUnits="objectBoundingBox">
<stop stop-color="#ED3040"/>
<stop offset="1" stop-color="#2D23F4"/>
</linearGradient>
<linearGradient id="paint4_linear_6247_23338" x1="0" y1="0" x2="0" y2="1" gradientUnits="objectBoundingBox">
<stop stop-color="#ED3040"/>
<stop offset="1" stop-color="#2D23F4"/>
</linearGradient>
</defs>
</svg>
