<svg width="50" height="50" viewBox="0 0 50 50" fill="none" xmlns="http://www.w3.org/2000/svg">
<path d="M24.2832 7.60396C26.2474 7.40294 29.0118 7.62271 30.3716 9.26217C31.1426 10.1913 30.4601 11.3922 29.3208 11.4068C26.9674 11.2703 24.4049 11.5932 22.0765 11.411C21.3461 11.3537 20.6844 11.0516 20.5918 10.2381C20.4347 8.84762 23.1647 7.71854 24.2832 7.60396ZM29.4394 10.159C29.4186 9.92774 29.0618 9.72151 28.8734 9.59443C27.7821 8.85803 26.5689 8.70284 25.2695 8.74867C23.97 8.79449 22.6279 9.14134 21.808 10.159H29.4405H29.4394Z" fill="url(#paint0_linear_6247_23372)"/>
<path d="M27.1807 5.00312C27.5115 5.13645 27.9069 5.12811 28.2586 5.2104C31.4849 5.97076 34.0692 8.80283 34.5582 12.0942C34.6592 12.7744 34.5416 14.0295 34.6925 14.5368C34.8756 15.1513 36.1126 16.4918 36.4632 17.2136C37.127 18.5844 35.942 19.351 34.6571 19.1416V22.383C34.6571 22.7872 34.2336 23.4256 33.9153 23.6704C32.9061 24.4474 31.8896 23.836 30.7628 23.8287V25.664C30.7628 25.7994 31.0978 26.064 31.2258 26.1369C34.5707 28.0305 40.0537 28.8325 40.422 33.5509C40.6696 36.7152 40.2316 40.1983 40.4199 43.397C40.2971 44.2136 39.752 44.7052 39.0174 44.9979H15.8891C15.3117 44.6667 15.3773 43.9063 16.0816 43.824C23.6402 43.7886 31.2175 43.9043 38.7636 43.7657C39.0903 43.6564 39.2474 43.346 39.2557 43.0095C39.0965 40.0702 39.4534 36.934 39.2557 34.0186C39.1527 32.5135 38.4234 31.0844 37.1437 30.2782C35.1513 29.0231 32.3026 28.3065 30.3987 27.0452C29.7224 26.5973 29.5684 25.9692 29.5154 25.1974C29.4425 24.1495 29.4134 22.6059 30.8024 22.5715C32.3162 22.534 33.6905 23.8287 33.4127 21.0925C32.725 21.2685 30.8377 20.6134 30.8377 19.8041C30.8377 19.4176 31.2081 19.1604 31.5754 19.2187C31.8376 19.2614 32.2059 19.7176 32.5523 19.8061C32.8364 19.878 33.1246 19.8322 33.4107 19.8426V18.7093C33.4107 18.3615 33.9662 17.8886 34.3065 17.8886H35.4353C34.9328 16.8001 33.5282 15.5252 33.4117 14.3336C33.3202 13.4025 33.4544 12.6911 33.2307 11.7026C32.2142 7.21441 27.73 5.47184 23.5195 6.36552C22.0338 6.68008 21.4949 7.22274 20.3223 8.00185C19.6263 8.46431 18.9646 7.89665 19.311 7.29982C19.6627 6.69258 21.5448 5.71036 22.2346 5.46767L24.0657 5H27.1807V5.00312Z" fill="url(#paint1_linear_6247_23372)"/>
<path d="M10.9826 45C10.2491 44.7063 9.7039 44.2157 9.5801 43.3991C9.76841 40.2014 9.3304 36.7173 9.57801 33.553C9.9484 28.819 15.4751 28.0284 18.8241 26.1098C19.0072 26.0119 19.1612 25.8525 19.2216 25.6484V19.5103C17.1043 17.1959 16.1139 14.2961 16.941 11.1745C17.0461 10.7777 17.4425 9.64443 17.6766 9.35487C18.023 8.92678 18.8044 9.22467 18.77 9.80067C18.7607 9.96107 18.3892 10.6454 18.3018 10.8985C17.4986 13.2244 17.8222 15.6648 19.283 17.6501C19.644 18.1406 20.1996 18.5375 20.3702 19.1374C20.6407 20.0874 20.5699 24.1245 20.4825 25.2724C20.4316 25.9369 20.2849 26.5192 19.7439 26.9525C16.633 29.0544 11.0627 29.3804 10.7464 34.0196C10.5435 36.9975 10.89 40.2202 10.7672 43.2231C11.0138 44.4532 13.5128 43.3324 13.9248 44.1178C14.1163 44.4823 13.9425 44.7906 13.6304 44.999H10.9826V45Z" fill="url(#paint2_linear_6247_23372)"/>
<path d="M21.73 32.2666C22.0411 31.9219 22.7548 31.5875 23.0211 31.2573C23.1564 31.0896 23.1907 29.5033 23.1189 29.3887C23.1013 29.3596 22.8516 29.295 22.7652 29.2366C21.5989 28.4461 21.4376 26.9577 22.5925 26.0629C22.7277 25.9588 23.0867 25.8317 23.121 25.7338C23.1647 25.6088 23.147 24.2954 23.095 24.2183C23.0648 24.1735 22.7163 24.036 22.5925 23.9412C21.3211 22.958 21.6749 21.006 23.2053 20.5852C23.9169 20.3894 26.1507 20.3905 26.855 20.6029C28.3449 21.0529 28.6529 22.9778 27.4085 23.9412C27.2733 24.0454 26.9144 24.1725 26.88 24.2704C26.8374 24.3943 26.854 25.7088 26.906 25.7859C26.9362 25.8307 27.2847 25.9671 27.4085 26.0629C28.5665 26.9577 28.4001 28.4471 27.2358 29.2366C27.1495 29.295 26.9008 29.3606 26.8821 29.3887C26.8394 29.4564 26.8426 30.8074 26.8655 30.9813C26.9216 31.4115 27.9631 31.925 28.271 32.2666V30.5084C28.271 30.3157 28.7871 29.7574 28.9931 29.6699C29.4675 29.47 30.4882 29.6168 31.0125 29.7106C33.727 30.198 36.1272 32.4166 36.8929 35.0612C37.2924 36.4392 37.3882 39.3036 37.2175 40.7326C37.1031 41.693 36.2739 42.4242 35.3177 42.4252C34.4781 42.4262 30.9074 41.8086 30.1646 41.4971C28.2773 40.7055 28.1889 38.8224 28.2305 37.0308C27.5906 36.7131 25.5743 34.7175 25.0323 34.6873C24.8439 34.6768 24.69 34.7998 24.5391 34.8883C23.6059 35.4403 22.7132 36.4486 21.7674 37.0298C21.6488 37.9276 21.8611 38.7547 21.5542 39.6285C21.1879 40.6712 20.313 41.4253 19.2507 41.693C18.1916 41.9596 15.9838 42.3523 14.9122 42.4179C13.8447 42.4835 12.9115 41.8346 12.7804 40.7316C12.6306 39.4713 12.7044 36.8611 12.9656 35.6226C13.5316 32.9405 15.6238 30.6803 18.2415 29.9001C19.001 29.6741 20.6615 29.3106 21.2868 29.8554C21.3804 29.9366 21.7269 30.4355 21.7269 30.5074V32.2656L21.73 32.2666ZM26.7677 21.9018C26.6636 21.806 26.4316 21.7351 26.288 21.7185C25.7366 21.657 24.1812 21.6497 23.6433 21.7258C22.8266 21.8404 22.8058 22.9892 23.7234 23.1194C24.1968 23.1871 25.8896 23.1913 26.3452 23.108C26.9289 23.0017 27.1963 22.2955 26.7677 21.9018ZM25.7012 24.2985H24.2998V25.7046H25.7012V24.2985ZM26.7677 28.1013C27.1963 27.7076 26.93 27.0014 26.3452 26.8952C25.8896 26.8118 24.1958 26.817 23.7234 26.8837C22.8068 27.0139 22.8276 28.1628 23.6433 28.2773C24.1812 28.3534 25.7366 28.3461 26.288 28.2846C26.4316 28.268 26.6636 28.1971 26.7677 28.1013ZM25.7012 29.5325H24.2998V31.524C24.2998 31.6729 23.8556 32.15 23.713 32.2635L18.6098 36.2851C18.3154 37.1089 18.9396 37.6079 19.6991 37.1433C21.0849 36.2955 22.45 34.7748 23.8535 33.8894C24.6307 33.3999 25.2476 33.3488 26.0539 33.8269C27.5178 34.6956 28.9432 36.2548 30.3966 37.2037C31.0604 37.6464 31.7866 36.9131 31.3517 36.2455C29.8171 34.8039 27.8268 33.6644 26.287 32.2635C26.1476 32.1375 25.7002 31.6823 25.7002 31.524V29.5325H25.7012ZM20.4836 30.7824C17.173 30.7626 14.2338 33.4228 14.0164 36.7548C13.9529 37.7287 13.9082 39.6546 14.0185 40.5878C14.0996 41.2815 14.6105 41.2118 15.1359 41.1586C15.9682 41.0753 19.0135 40.6139 19.6034 40.2493C20.4076 39.7515 20.5793 38.9421 20.4836 38.0474C18.9802 39.3525 16.7277 37.8703 17.4331 35.9632C17.8035 34.9612 19.7085 34.004 20.4846 33.2436V30.7834L20.4836 30.7824ZM29.5175 30.7824V33.2426C30.2936 34.0029 32.1986 34.9602 32.569 35.9622C33.2744 37.8693 31.0208 39.3515 29.5185 38.0464C29.4228 38.9421 29.5934 39.7504 30.3987 40.2483C30.9699 40.6014 34.0495 41.0753 34.8662 41.1576C35.3926 41.2107 35.9024 41.2795 35.9836 40.5868C36.0939 39.6535 36.0491 37.7266 35.9857 36.7538C35.7682 33.4228 32.828 30.7647 29.5185 30.7813L29.5175 30.7824Z" fill="url(#paint3_linear_6247_23372)"/>
<path d="M25.9135 12.915C26.1986 13.2014 26.1018 13.6566 25.7761 13.866C25.3954 14.1107 24.7253 13.9306 24.2676 13.993C23.3177 14.1232 22.8547 15.1148 23.1148 15.995C23.1866 16.2387 23.9367 17.2668 24.1406 17.4657C24.6275 17.9396 24.8575 17.8136 25.4224 17.899C26.288 18.0302 26.2818 19.0291 25.5025 19.1364C22.8963 19.4947 20.1559 14.8274 23.1564 13.1119C23.7016 12.7994 25.4765 12.4744 25.9145 12.914L25.9135 12.915Z" fill="url(#paint4_linear_6247_23372)"/>
<path d="M24.7461 15.3336C25.1894 15.2534 25.9759 15.2742 26.0789 15.8419C26.2381 16.7262 24.3934 16.8428 24.2374 16.1179C24.1489 15.7065 24.3373 15.4086 24.7472 15.3346L24.7461 15.3336Z" fill="url(#paint5_linear_6247_23372)"/>
<path d="M30.7431 13.3754C31.4599 13.2723 31.6909 14.5274 30.8731 14.6117C30.1011 14.692 29.9492 13.49 30.7431 13.3754Z" fill="url(#paint6_linear_6247_23372)"/>
<defs>
<linearGradient id="paint0_linear_6247_23372" x1="0" y1="0" x2="0" y2="1" gradientUnits="objectBoundingBox">
<stop stop-color="#ED3040"/>
<stop offset="1" stop-color="#2D23F4"/>
</linearGradient>
<linearGradient id="paint1_linear_6247_23372" x1="0" y1="0" x2="0" y2="1" gradientUnits="objectBoundingBox">
<stop stop-color="#ED3040"/>
<stop offset="1" stop-color="#2D23F4"/>
</linearGradient>
<linearGradient id="paint2_linear_6247_23372" x1="0" y1="0" x2="0" y2="1" gradientUnits="objectBoundingBox">
<stop stop-color="#ED3040"/>
<stop offset="1" stop-color="#2D23F4"/>
</linearGradient>
<linearGradient id="paint3_linear_6247_23372" x1="0" y1="0" x2="0" y2="1" gradientUnits="objectBoundingBox">
<stop stop-color="#ED3040"/>
<stop offset="1" stop-color="#2D23F4"/>
</linearGradient>
<linearGradient id="paint4_linear_6247_23372" x1="0" y1="0" x2="0" y2="1" gradientUnits="objectBoundingBox">
<stop stop-color="#ED3040"/>
<stop offset="1" stop-color="#2D23F4"/>
</linearGradient>
<linearGradient id="paint5_linear_6247_23372" x1="0" y1="0" x2="0" y2="1" gradientUnits="objectBoundingBox">
<stop stop-color="#ED3040"/>
<stop offset="1" stop-color="#2D23F4"/>
</linearGradient>
<linearGradient id="paint6_linear_6247_23372" x1="0" y1="0" x2="0" y2="1" gradientUnits="objectBoundingBox">
<stop stop-color="#ED3040"/>
<stop offset="1" stop-color="#2D23F4"/>
</linearGradient>
</defs>
</svg>
