<svg width="50" height="50" viewBox="0 0 50 50" fill="none" xmlns="http://www.w3.org/2000/svg">
<path d="M36.8338 27.6704L32.4172 32.1459L30.4171 30.1191C30.0837 29.7813 29.5836 29.7813 29.2506 30.1191C28.9172 30.4569 28.9172 30.9637 29.2506 31.3012L31.8338 33.9188C32.0005 34.0877 32.1672 34.1722 32.4172 34.1722C32.6673 34.1722 32.834 34.0877 33.0007 33.9188L38.0007 28.8521C38.3341 28.5143 38.3341 28.0075 38.0007 27.67C37.667 27.3325 37.1669 27.417 36.8338 27.6703L36.8338 27.6704Z" fill="url(#paint0_linear_6247_23378)"/>
<path d="M44.1672 26.3195H41.4173C40.5008 24.6306 39.0004 23.2796 37.3338 22.5193L34.6672 12.9771C34.5839 12.6393 34.2505 12.3859 33.9171 12.3859C33.5837 12.3859 33.2503 12.5548 33.0836 12.8927L29.3334 22.7726C29.2501 22.8571 29.1667 22.8571 29.0834 22.9415L24.8335 20.2395C24.5001 19.9861 24 20.0705 23.7502 20.4084L18.7501 27.0795L18.0003 10.7817C18.0003 10.3594 17.7503 10.106 17.3335 10.0215C17.0001 9.93706 16.5834 10.106 16.417 10.4438L11.1669 20.7462H5.83349C5.33339 20.7462 5 21.084 5 21.5908C5 22.0976 5.3334 22.4354 5.83349 22.4354H11.667C12.0004 22.4354 12.2505 22.2665 12.4172 22.0131L16.5007 13.9909L17.2509 29.6133C17.2509 29.9511 17.5009 30.2889 17.8343 30.3734C18.1677 30.4579 18.5011 30.3734 18.7508 30.0356L24.6674 22.0978L27.6674 24.0401C25.834 25.729 24.5841 28.1781 24.5841 30.8802C24.5841 35.9469 28.6676 40 33.5839 40C38.584 40 42.5838 35.862 42.5838 30.8802C42.5838 29.8669 42.4171 28.9379 42.1671 28.0091L44.1665 28.0085C44.6666 28.0085 45 27.6706 45 27.1639C45 26.6574 44.6666 26.3196 44.1665 26.3196L44.1672 26.3195ZM33.7506 15.8478L35.4173 21.8433C34.8338 21.7588 34.2507 21.6744 33.5839 21.6744C32.8337 21.6744 32.0839 21.7588 31.4171 21.9277L33.7506 15.8478ZM33.5842 38.3105C29.5007 38.3105 26.2507 34.9327 26.2507 30.8792C26.2507 26.7413 29.5841 23.4479 33.5842 23.4479C37.6678 23.4479 40.9178 26.8258 40.9178 30.8792C41.0008 34.9327 37.6674 38.3105 33.5842 38.3105Z" fill="url(#paint1_linear_6247_23378)"/>
<defs>
<linearGradient id="paint0_linear_6247_23378" x1="0" y1="0" x2="0" y2="1" gradientUnits="objectBoundingBox">
<stop stop-color="#ED3040"/>
<stop offset="1" stop-color="#2D23F4"/>
</linearGradient>
<linearGradient id="paint1_linear_6247_23378" x1="0" y1="0" x2="0" y2="1" gradientUnits="objectBoundingBox">
<stop stop-color="#ED3040"/>
<stop offset="1" stop-color="#2D23F4"/>
</linearGradient>
</defs>
</svg>
