<svg width="50" height="50" viewBox="0 0 50 50" fill="none" xmlns="http://www.w3.org/2000/svg">
<path d="M37.9032 17.525L44.1423 11.2852C44.6955 10.733 45 9.99727 45 9.21616C45 7.60263 43.6871 6.29044 42.0736 6.29044C41.2918 6.29044 40.5568 6.59489 40.0046 7.14712L33.7654 13.3869L34.4105 14.032L30.1891 18.2534L29.255 17.9864C29.061 17.9316 28.8596 17.9031 28.657 17.9031H28.4659C28.3247 17.9031 28.1864 17.9191 28.0529 17.9451C25.5027 15.4256 22.1492 14.0324 18.5485 14.0324C11.0778 14.0324 5.0005 20.1102 5.0005 27.5804C5.0005 35.0504 11.078 41.1284 18.5485 41.1284C22.2583 41.1284 25.7789 39.6148 28.3307 36.9522C28.4293 37.0671 28.5289 37.1811 28.6371 37.2896L29.0017 37.6543C28.5334 38.0077 28.2264 38.5625 28.2264 39.1928V44.9992H42.4194V39.1928C42.4194 38.2554 41.7496 37.4727 40.8632 37.2954L41.7669 35.487C42.1933 34.6341 42.4184 33.6791 42.4184 32.7258C42.4184 32.2587 42.3649 31.7917 42.2603 31.3374L40.7466 24.7768C40.5408 23.8846 40.1569 23.0599 39.6066 22.3259C38.757 21.1923 37.5376 20.3529 36.1751 19.9633L34.6182 19.5189L37.2581 16.8797L37.9032 17.525ZM40.9169 8.0592C41.2258 7.75091 41.6369 7.5806 42.0735 7.5806C42.9754 7.5806 43.7098 8.31499 43.7098 9.21618C43.7098 9.65284 43.5395 10.0633 43.2305 10.3728L37.9031 15.7006L35.5898 13.387L40.9169 8.0592ZM30.4586 21.8555C30.0392 21.5568 29.5645 21.3356 29.0445 21.2233L33.3875 16.8796L34.4106 17.9028L30.4586 21.8555ZM26.4488 21.9938L23.7101 24.7323V23.7092C23.7101 21.2194 21.6842 19.193 19.1939 19.193C16.7035 19.193 14.6778 21.2195 14.6778 23.7092V24.2182C14.6778 24.6014 14.5654 24.9724 14.3525 25.2916L13.9114 25.953C13.5691 26.4678 13.3876 27.0665 13.3876 27.6847C13.3876 29.406 14.7876 30.806 16.509 30.806H16.8381C17.6355 30.806 18.4337 30.6178 19.1466 30.2608L19.4446 30.1116C19.9316 31.2756 21.0812 32.0962 22.42 32.0962C24.1987 32.0962 25.6457 30.6492 25.6457 28.8705C25.6457 28.7504 25.6393 28.631 25.6258 28.5126L26.9071 27.2307C26.9218 27.5416 26.9359 27.8524 26.9359 28.1633V32.4026C25.2091 35.4 22.0122 37.2574 18.5486 37.2574C13.2125 37.2574 8.87128 32.916 8.87128 27.5802C8.87128 22.2443 13.2127 17.9029 18.5486 17.9029C21.717 17.9032 24.6319 19.4239 26.4486 21.9943L26.4488 21.9938ZM19.2025 28.7897L18.569 29.1063C18.034 29.3743 17.4354 29.5155 16.838 29.5155H16.5089C15.4992 29.5155 14.678 28.6943 14.678 27.6846C14.678 27.3219 14.7846 26.971 14.9857 26.6691L15.4268 26.0077C15.7809 25.4759 15.9688 24.8574 15.9688 24.2188V23.7091C15.9688 21.9304 17.4158 20.4834 19.1945 20.4834C20.9732 20.4834 22.4202 21.9304 22.4202 23.7091V25.6446C20.6687 25.6446 19.2463 27.0491 19.2024 28.7897L19.2025 28.7897ZM26.7584 25.555L24.2261 28.0873L24.3062 28.4349C24.3391 28.5774 24.3552 28.7234 24.3552 28.8703C24.3552 29.9374 23.4866 30.8059 22.4196 30.8059C21.3526 30.8059 20.4841 29.9373 20.4841 28.8703C20.4841 27.8034 21.3526 26.9348 22.4196 26.9348C22.5666 26.9348 22.7132 26.9508 22.8544 26.9838L23.2027 27.0638L26.4453 23.8212C26.574 24.3949 26.6809 24.9724 26.7584 25.555ZM28.6571 19.1929C28.7397 19.1929 28.8217 19.2045 28.8998 19.2272L29.145 19.2976L27.7973 20.6454C27.665 20.4879 27.5812 20.2923 27.5812 20.0774C27.5812 19.5899 27.9778 19.1929 28.466 19.1929L28.6571 19.1929ZM18.5488 39.8383C11.7897 39.8383 6.29071 34.3396 6.29071 27.5802C6.29071 20.8208 11.7894 15.3222 18.5488 15.3222C21.6804 15.3222 24.6042 16.4907 26.8762 18.6049C26.568 18.9372 26.3685 19.3649 26.3157 19.8384C24.2816 17.7908 21.5146 16.6127 18.5494 16.6127C12.5017 16.6127 7.58218 21.5326 7.58218 27.58C7.58218 33.6274 12.502 38.5472 18.5494 38.5472C21.8945 38.5472 25.0191 37.0163 27.0826 34.4622C27.1912 34.9479 27.3595 35.4153 27.5878 35.8545C25.2652 38.3897 21.9989 39.8374 18.549 39.8374L18.5488 39.8383ZM41.1291 39.1932V43.7093H29.516V39.1932C29.516 38.8372 29.8058 38.5481 30.1611 38.5481H40.4834C40.839 38.5481 41.1288 38.8369 41.1288 39.1932H41.1291ZM35.8212 21.2048C36.9154 21.517 37.8934 22.1905 38.5753 23.1004C39.0171 23.6894 39.325 24.3515 39.4896 25.0673L41.0039 31.6286C41.0871 31.9874 41.129 32.3569 41.129 32.7266C41.129 33.4808 40.951 34.2364 40.6136 34.9112L39.44 37.2575H30.4282L29.5482 36.3774C28.6953 35.524 28.2257 34.391 28.2257 33.1847V28.164C28.2257 26.4394 28.0134 24.7177 27.5959 23.046C27.5857 23.005 27.5806 22.9643 27.5806 22.923C27.5806 22.6455 27.8063 22.4191 28.0842 22.4191H28.2257C29.649 22.4191 30.8063 23.5764 30.8063 24.9997V27.1902C30.8063 28.8398 31.29 30.4373 32.2049 31.8094L32.8218 32.7346L35.6778 27.0224C35.8673 26.6427 35.9675 26.2182 35.9675 25.7944C35.9675 24.6685 35.261 23.6395 34.2093 23.2346L31.8211 22.3164L33.5745 20.563L35.8212 21.2048ZM31.8799 23.7221L33.7463 24.4395C34.303 24.6537 34.6772 25.1989 34.6772 25.7943C34.6772 26.0187 34.6244 26.2435 34.5236 26.4439L32.7113 30.0685C32.307 29.168 32.0966 28.1899 32.0966 27.1898V24.9997C32.0966 24.5525 32.0205 24.1223 31.8799 23.7221ZM35.3224 16.9905L34.2993 15.9674L35.3224 14.9443L36.3458 15.9674L35.3224 16.9905Z" fill="url(#paint0_linear_6247_23368)"/>
<path d="M19.1936 23.0644C18.1265 23.0644 17.2581 23.9329 17.2581 24.9999C17.2581 26.0669 18.1266 26.9354 19.1936 26.9354V25.6453C18.8382 25.6453 18.5485 25.3562 18.5485 25.0002C18.5485 24.6442 18.8382 24.3551 19.1936 24.3551C19.5489 24.3551 19.8387 24.6442 19.8387 25.0002H21.1288C21.1291 23.9326 20.2609 23.0644 19.1936 23.0644Z" fill="url(#paint1_linear_6247_23368)"/>
<path d="M15.9678 35.9674C17.0349 35.9674 17.9034 35.0988 17.9034 34.0319C17.9034 32.9649 17.0348 32.0963 15.9678 32.0963C14.9008 32.0963 14.0323 32.9649 14.0323 34.0319C14.0326 35.0989 14.9009 35.9674 15.9678 35.9674ZM15.9678 33.3868C16.3232 33.3868 16.6129 33.6759 16.6129 34.0319C16.6129 34.3879 16.3232 34.6769 15.9678 34.6769C15.6125 34.6769 15.3228 34.3879 15.3228 34.0319C15.3228 33.6759 15.6125 33.3868 15.9678 33.3868Z" fill="url(#paint2_linear_6247_23368)"/>
<path d="M19.1936 32.7416H20.4837V34.0318H19.1936V32.7416Z" fill="url(#paint3_linear_6247_23368)"/>
<path d="M10.1613 26.9351H11.4514V28.2253H10.1613V26.9351Z" fill="url(#paint4_linear_6247_23368)"/>
<path d="M8.87132 39.957V38.5481H7.58085V39.957C7.03438 40.1519 6.60411 40.5822 6.40947 41.1287H5.00025V42.4188H6.40914C6.6041 42.9653 7.03437 43.3956 7.58085 43.5905V44.9994H8.87099V43.5905C9.41779 43.3956 9.84807 42.9653 10.0427 42.4188H11.4519V41.1287H10.0427C9.84807 40.5822 9.4178 40.1519 8.87132 39.957ZM8.22592 42.4188C7.87057 42.4188 7.58085 42.1297 7.58085 41.7737C7.58085 41.4177 7.87057 41.1287 8.22592 41.1287C8.58127 41.1287 8.871 41.4177 8.871 41.7737C8.87132 42.1297 8.5816 42.4188 8.22592 42.4188Z" fill="url(#paint5_linear_6247_23368)"/>
<path d="M25.0001 41.1289C23.9331 41.1289 23.0646 41.9975 23.0646 43.0645C23.0646 44.1314 23.9331 45 25.0001 45C26.0671 45 26.9357 44.1314 26.9357 43.0645C26.9353 41.9972 26.0671 41.1289 25.0001 41.1289ZM25.0001 43.7095C24.6448 43.7095 24.355 43.4204 24.355 43.0645C24.355 42.7085 24.6448 42.4194 25.0001 42.4194C25.3555 42.4194 25.6452 42.7085 25.6452 43.0645C25.6452 43.4204 25.3555 43.7095 25.0001 43.7095Z" fill="url(#paint6_linear_6247_23368)"/>
<path d="M6.93554 14.0329C8.0026 14.0329 8.87108 13.1643 8.87108 12.0974C8.87108 11.0303 8.00251 10.1618 6.93554 10.1618C5.86856 10.1618 5 11.0304 5 12.0974C5 13.1644 5.86856 14.0329 6.93554 14.0329ZM6.93554 11.4523C7.29089 11.4523 7.58062 11.7414 7.58062 12.0974C7.58062 12.4534 7.29089 12.7425 6.93554 12.7425C6.58019 12.7425 6.29046 12.4534 6.29046 12.0974C6.29046 11.7411 6.58019 11.4523 6.93554 11.4523Z" fill="url(#paint7_linear_6247_23368)"/>
<path d="M26.1827 11.2923L25.2214 12.2537L26.1338 13.1661L27.0951 12.2047C27.4332 12.4292 27.8151 12.5931 28.2262 12.6769L28.2259 14.0324H29.516V12.6769C29.9271 12.5931 30.309 12.4292 30.6471 12.2047L31.6084 13.1661L32.5208 12.2537L31.5595 11.2923C31.7839 10.9543 31.9478 10.5723 32.0317 10.1613H33.3872V8.87113H32.0317C31.9478 8.46007 31.7839 8.07879 31.5595 7.74006L32.5208 6.77873L31.6084 5.86632L30.6471 6.82766C30.309 6.60324 29.9271 6.43933 29.516 6.35546V5H28.2259V6.35546C27.8148 6.43933 27.4329 6.60324 27.0948 6.82766L26.1335 5.86632L25.2211 6.77873L26.1824 7.74006C25.958 8.07877 25.7941 8.46006 25.7102 8.87113H24.3548V10.1613H25.7102C25.7941 10.5723 25.958 10.9536 26.1827 11.2923ZM28.871 7.58066C29.938 7.58066 30.8065 8.44922 30.8065 9.5162C30.8065 10.5833 29.9379 11.4517 28.871 11.4517C27.804 11.4517 26.9354 10.5832 26.9354 9.5162C26.9354 8.44914 27.804 7.58066 28.871 7.58066Z" fill="url(#paint8_linear_6247_23368)"/>
<defs>
<linearGradient id="paint0_linear_6247_23368" x1="0" y1="0" x2="0" y2="1" gradientUnits="objectBoundingBox">
<stop stop-color="#ED3040"/>
<stop offset="1" stop-color="#2D23F4"/>
</linearGradient>
<linearGradient id="paint1_linear_6247_23368" x1="0" y1="0" x2="0" y2="1" gradientUnits="objectBoundingBox">
<stop stop-color="#ED3040"/>
<stop offset="1" stop-color="#2D23F4"/>
</linearGradient>
<linearGradient id="paint2_linear_6247_23368" x1="0" y1="0" x2="0" y2="1" gradientUnits="objectBoundingBox">
<stop stop-color="#ED3040"/>
<stop offset="1" stop-color="#2D23F4"/>
</linearGradient>
<linearGradient id="paint3_linear_6247_23368" x1="0" y1="0" x2="0" y2="1" gradientUnits="objectBoundingBox">
<stop stop-color="#ED3040"/>
<stop offset="1" stop-color="#2D23F4"/>
</linearGradient>
<linearGradient id="paint4_linear_6247_23368" x1="0" y1="0" x2="0" y2="1" gradientUnits="objectBoundingBox">
<stop stop-color="#ED3040"/>
<stop offset="1" stop-color="#2D23F4"/>
</linearGradient>
<linearGradient id="paint5_linear_6247_23368" x1="0" y1="0" x2="0" y2="1" gradientUnits="objectBoundingBox">
<stop stop-color="#ED3040"/>
<stop offset="1" stop-color="#2D23F4"/>
</linearGradient>
<linearGradient id="paint6_linear_6247_23368" x1="0" y1="0" x2="0" y2="1" gradientUnits="objectBoundingBox">
<stop stop-color="#ED3040"/>
<stop offset="1" stop-color="#2D23F4"/>
</linearGradient>
<linearGradient id="paint7_linear_6247_23368" x1="0" y1="0" x2="0" y2="1" gradientUnits="objectBoundingBox">
<stop stop-color="#ED3040"/>
<stop offset="1" stop-color="#2D23F4"/>
</linearGradient>
<linearGradient id="paint8_linear_6247_23368" x1="0" y1="0" x2="0" y2="1" gradientUnits="objectBoundingBox">
<stop stop-color="#ED3040"/>
<stop offset="1" stop-color="#2D23F4"/>
</linearGradient>
</defs>
</svg>
