<svg width="50" height="50" viewBox="0 0 50 50" fill="none" xmlns="http://www.w3.org/2000/svg">
<path d="M5.77857 10.5774L7.0379 9.84866C7.22168 10.0061 7.43283 10.1289 7.66015 10.2109V11.6668H8.9901V10.2109C9.21775 10.1289 9.42857 10.0061 9.61235 9.84866L10.8717 10.5774L11.5365 9.4229L10.2834 8.69677C10.3319 8.45694 10.3319 8.20982 10.2834 7.96999L11.5365 7.24419L10.8717 6.08965L9.61235 6.8181C9.42857 6.66063 9.21775 6.5379 8.9901 6.4562V5H7.66015V6.4562C7.43283 6.53791 7.22168 6.66064 7.0379 6.8181L5.77857 6.08932L5.11376 7.24386L6.36718 7.96999C6.31835 8.20982 6.31835 8.45694 6.36718 8.69677L5.11376 9.4229L5.77857 10.5774ZM8.32528 7.66666C8.59417 7.66666 8.83667 7.82909 8.93961 8.07818C9.04221 8.32761 8.98547 8.61409 8.79543 8.80497C8.60506 8.99552 8.31934 9.05242 8.07057 8.94953C7.82214 8.84631 7.66014 8.60318 7.66014 8.33357C7.66014 7.96537 7.95806 7.66666 8.32528 7.66666Z" fill="url(#paint0_linear_6247_23348)"/>
<path d="M17.556 8.84728L16.7688 7.7715C16.0251 8.32163 15.3286 8.93332 14.6863 9.60023L15.6417 10.5288C16.2316 9.91551 16.872 9.35312 17.556 8.84736L17.556 8.84728Z" fill="url(#paint1_linear_6247_23348)"/>
<path d="M27.0892 6.52854L27.3294 5.21725H27.3291C26.4102 5.04919 25.4762 4.9784 24.5425 5.00619L24.5824 6.33934C25.4225 6.31221 26.2628 6.37571 27.0892 6.52854Z" fill="url(#paint2_linear_6247_23348)"/>
<path d="M12.6741 14.6941C13.0687 13.9322 13.5151 13.1985 14.0099 12.4981L12.9261 11.726C12.3956 12.4763 11.9172 13.262 11.4946 14.0781L12.6741 14.6941Z" fill="url(#paint3_linear_6247_23348)"/>
<path d="M36.8649 14.0411C37.2895 14.7884 37.665 15.5626 37.9883 16.3591L39.2189 15.855L39.2193 15.8553C38.8745 15.0044 38.475 14.1775 38.0223 13.3792L36.8649 14.0411Z" fill="url(#paint4_linear_6247_23348)"/>
<path d="M38.8101 18.8056C39.0341 19.639 39.209 20.4848 39.3333 21.339L40.6491 21.1465C40.5171 20.2407 40.3317 19.3435 40.0941 18.4596L38.8101 18.8056Z" fill="url(#paint5_linear_6247_23348)"/>
<path d="M38.4992 31.5731L39.7625 31.9856C40.0453 31.1149 40.2756 30.228 40.4528 29.3299L39.1482 29.0705C38.9816 29.9168 38.7652 30.7523 38.4992 31.5731Z" fill="url(#paint6_linear_6247_23348)"/>
<path d="M32.4661 7.3119C31.6898 6.79882 30.866 6.36213 30.0061 6.00755L29.502 7.24144C30.2826 7.56365 31.0306 7.96062 31.7353 8.42672L32.4661 7.3119Z" fill="url(#paint7_linear_6247_23348)"/>
<path d="M39.5626 23.9174C39.5705 24.1661 39.5745 24.4159 39.5745 24.666C39.5745 25.2806 39.5498 25.9006 39.5019 26.5066L40.827 26.6131C40.8781 25.971 40.9042 25.3164 40.9042 24.6656C40.9042 24.399 40.9002 24.137 40.8916 23.8737L39.5626 23.9174Z" fill="url(#paint8_linear_6247_23348)"/>
<path d="M9.1427 21.9331C9.04109 22.8406 8.99027 23.7529 8.98994 24.6663C8.98994 25.1929 9.0071 25.7262 9.04108 26.2515L10.3707 26.1655C10.3357 25.6663 10.3195 25.1642 10.3195 24.6663C10.3195 23.8022 10.3677 22.9388 10.4647 22.0804L9.1427 21.9331Z" fill="url(#paint9_linear_6247_23348)"/>
<path d="M36.4924 11.0847C35.9279 10.3549 35.308 9.66985 34.6382 9.03605L33.7273 10.0073C34.3469 10.5939 34.9207 11.2273 35.4426 11.9025L36.4924 11.0847Z" fill="url(#paint10_linear_6247_23348)"/>
<path d="M22.0941 6.68183L21.7758 5.38772C20.8714 5.61267 19.9925 5.92958 19.1522 6.33317L19.7259 7.53666V7.53633C20.4845 7.17178 21.2779 6.88529 22.0941 6.68183Z" fill="url(#paint11_linear_6247_23348)"/>
<path d="M23.5266 42.9136L23.3669 44.2375C23.8915 44.301 24.4194 44.3327 24.9477 44.3331C25.3538 44.3331 25.7616 44.3145 26.1604 44.2778L26.038 42.9499V42.9496C25.202 43.0263 24.36 43.0141 23.5266 42.9136Z" fill="url(#paint12_linear_6247_23348)"/>
<path d="M10.989 34.2102C11.3658 35.0482 11.7984 35.8597 12.2833 36.6398L13.4137 35.9325C12.9604 35.203 12.5562 34.4442 12.2039 33.6612L10.989 34.2102Z" fill="url(#paint13_linear_6247_23348)"/>
<path d="M11.6386 17.056L10.3898 16.5995C10.076 17.4596 9.81505 18.3385 9.60785 19.2307L10.9025 19.5341C11.0972 18.6938 11.3429 17.8662 11.6386 17.056Z" fill="url(#paint14_linear_6247_23348)"/>
<path d="M37.5516 33.9706C37.1857 34.7473 36.7683 35.4989 36.3018 36.2198L37.4163 36.9466H37.4159C37.9151 36.1755 38.3618 35.3716 38.7531 34.5406L37.5516 33.9706Z" fill="url(#paint15_linear_6247_23348)"/>
<path d="M32.9188 40.035L33.7582 41.0665C34.4735 40.481 35.1406 39.8382 35.7526 39.1445L34.7539 38.2666C34.191 38.9051 33.5773 39.4965 32.9188 40.0351L32.9188 40.035Z" fill="url(#paint16_linear_6247_23348)"/>
<path d="M14.9191 38.0076L13.9052 38.8743C14.5014 39.5796 15.153 40.2362 15.8537 40.8377L16.7181 39.8231V39.8228C16.0708 39.2674 15.4691 38.6603 14.9191 38.0076Z" fill="url(#paint17_linear_6247_23348)"/>
<path d="M10.6816 28.7327L9.37379 28.9705C9.53645 29.8717 9.75255 30.7622 10.0208 31.6372L11.2914 31.2438C11.0386 30.4198 10.835 29.5812 10.6816 28.7327Z" fill="url(#paint18_linear_6247_23348)"/>
<path d="M21.6228 12.333C21.6228 13.5239 22.2566 14.6242 23.2854 15.2197C24.3138 15.8151 25.5811 15.8151 26.6098 15.2197C27.6382 14.6242 28.272 13.524 28.272 12.333V10.9999C28.272 9.80899 27.6382 8.70831 26.6098 8.11287C25.581 7.51742 24.3137 7.51742 23.2854 8.11287C22.2566 8.70833 21.6228 9.8089 21.6228 10.9999V12.333ZM22.9524 10.9999H22.9528C22.9528 10.2853 23.3329 9.62505 23.9502 9.26775C24.5672 8.91047 25.3277 8.91047 25.9446 9.26775C26.5619 9.62503 26.942 10.2854 26.942 10.9999V12.333C26.942 13.0476 26.5619 13.7078 25.9446 14.0651C25.3276 14.4224 24.5671 14.4224 23.9502 14.0651C23.3329 13.7078 22.9528 13.0475 22.9528 12.333L22.9524 10.9999Z" fill="url(#paint19_linear_6247_23348)"/>
<path d="M31.8622 32.1998C32.01 32.3119 32.1981 32.3562 32.3802 32.3218C32.5623 32.2888 32.7227 32.1809 32.8223 32.0244L36.594 26.0818H36.5944C36.9276 25.5601 37.1084 24.9554 37.1163 24.3358C37.1246 23.7162 36.9593 23.1068 36.6396 22.5766L34.2707 18.6188H34.2703C33.6676 17.6168 32.587 17.0031 31.4201 17.0002H18.4745C17.3076 17.0032 16.2271 17.6168 15.6243 18.6188L13.2554 22.5766C12.9353 23.1069 12.7704 23.7162 12.7783 24.3358C12.7862 24.9554 12.967 25.5601 13.3006 26.0818L17.0723 32.0244C17.172 32.1809 17.3323 32.2888 17.5144 32.3218C17.6966 32.3562 17.8846 32.3119 18.0324 32.1998L19.2433 31.289L16.3178 44.1852C16.2726 44.3834 16.3204 44.5914 16.4471 44.7502C16.5738 44.9087 16.7658 45.0007 16.9687 45H20.9579C21.2667 45 21.5349 44.7873 21.6055 44.4859L24.144 33.6671H25.7505L28.289 44.4859C28.3596 44.7873 28.6278 45 28.9367 45H32.9258C33.1284 45 33.3194 44.9077 33.4458 44.7489C33.5718 44.5905 33.619 44.383 33.5741 44.1852L30.6486 31.2891L31.8622 32.1998ZM32.0928 43.6664H29.4633L26.9248 32.8476C26.8541 32.5463 26.5859 32.3336 26.2771 32.3336H23.6175C23.3091 32.3336 23.0408 32.5463 22.9699 32.8476L20.4314 43.6664H17.8018L20.9408 29.8167V29.817C20.9526 29.7647 20.9586 29.7111 20.9579 29.6576V21.6662C20.9579 21.4896 20.888 21.3199 20.7633 21.1948C20.6386 21.0701 20.4693 20.9996 20.2931 20.9996H18.2984C18.0463 20.9996 17.816 21.1422 17.7035 21.3685L16.3739 24.0351H16.3736C16.2703 24.2429 16.2822 24.4893 16.4049 24.6862L19.4056 29.5001L17.8097 30.7L14.4233 25.3666V25.3669C14.2233 25.054 14.1148 24.6911 14.1098 24.3196C14.1049 23.9481 14.2039 23.5826 14.3955 23.2643L16.7645 19.3059V19.3056C17.1261 18.7045 17.7744 18.3356 18.4745 18.333H31.42C32.1201 18.3353 32.7688 18.7035 33.1307 19.3043L35.4996 23.2664C35.6916 23.5846 35.7906 23.9502 35.7857 24.3217C35.7807 24.6935 35.6718 25.0561 35.4719 25.369L32.0855 30.7023L30.4896 29.5025L33.4903 24.6885C33.6133 24.4914 33.6252 24.2449 33.5216 24.0372L32.192 21.3705C32.0798 21.1433 31.8489 20.9997 31.5961 20.9997H29.6014C29.2342 20.9997 28.9366 21.2981 28.9366 21.6663V29.6576C28.9359 29.7112 28.9419 29.7648 28.9537 29.8171L32.0928 43.6664ZM19.6287 27.343L17.7303 24.2968L18.7099 22.3338H19.6287V27.343ZM30.2668 27.343V22.3339H31.1856L32.1649 24.2973L30.2668 27.343Z" fill="url(#paint20_linear_6247_23348)"/>
<path d="M43.7832 11C43.7822 10.878 43.77 10.7562 43.7466 10.6365L45 9.91067L44.3352 8.75613L43.0759 9.48458C42.8921 9.32711 42.6813 9.20438 42.4536 9.12267V7.66648H41.124L41.1237 9.12267C40.896 9.20438 40.6852 9.32712 40.5014 9.48458L39.2421 8.7558L38.5773 9.91034L39.8307 10.6365C39.7819 10.8763 39.7819 11.1234 39.8307 11.3633L38.5773 12.0894L39.2421 13.2439L40.5014 12.5151C40.6852 12.6726 40.896 12.7953 41.1237 12.8774V14.3332H42.4533L42.4536 12.8774C42.6813 12.7953 42.8921 12.6726 43.0759 12.5151L44.3352 13.2439L45 12.0894L43.7466 11.3633C43.77 11.2435 43.7822 11.1218 43.7832 11ZM41.7888 11.6666C41.5199 11.6666 41.2774 11.5042 41.1745 11.2551C41.0715 11.006 41.1283 10.7192 41.3186 10.5286C41.5087 10.3377 41.7947 10.2808 42.0432 10.3841C42.2916 10.4873 42.4536 10.7304 42.4536 11C42.4536 11.1767 42.3837 11.3464 42.2589 11.4714C42.1342 11.5965 41.965 11.6666 41.7888 11.6666Z" fill="url(#paint21_linear_6247_23348)"/>
<path d="M43.8964 38.7554L42.6371 39.4842C42.4533 39.3267 42.2425 39.204 42.0148 39.1219V37.6661H40.6852V39.1219H40.6849C40.4572 39.204 40.2464 39.3267 40.0626 39.4842L38.8033 38.7554L38.1385 39.9099L39.3919 40.6361C39.3431 40.8759 39.3431 41.123 39.3919 41.3629L38.1385 42.0887L38.8033 43.2432L40.0626 42.5144V42.5147C40.2464 42.6722 40.4572 42.7949 40.6849 42.8767V44.3328H42.0145L42.0148 42.8767C42.2425 42.7949 42.4533 42.6722 42.6371 42.5147L43.8964 43.2435L44.5612 42.089L43.3078 41.3629C43.3566 41.123 43.3566 40.8759 43.3078 40.6361L44.5612 39.9099L43.8964 38.7554ZM41.35 41.6662C41.0808 41.6662 40.8386 41.5038 40.7357 41.2547C40.6327 41.0052 40.6895 40.7188 40.8799 40.5279C41.0699 40.3373 41.356 40.2804 41.6044 40.3833C41.8528 40.4865 42.0148 40.7297 42.0148 40.9993C42.0148 41.1763 41.9445 41.3456 41.8202 41.4707C41.6954 41.5957 41.5262 41.6662 41.35 41.6662Z" fill="url(#paint22_linear_6247_23348)"/>
<path d="M43.5636 33.6666C43.5636 34.4029 42.9684 34.9997 42.234 34.9997C41.4996 34.9997 40.9041 34.4029 40.9041 33.6666C40.9041 32.9302 41.4996 32.3331 42.234 32.3331C42.9684 32.3331 43.5636 32.9302 43.5636 33.6666Z" fill="url(#paint23_linear_6247_23348)"/>
<path d="M7.65955 17.0001C7.65955 17.7365 7.06435 18.3333 6.32994 18.3333C5.59552 18.3333 5 17.7365 5 17.0001C5 16.2637 5.59553 15.6666 6.32994 15.6666C7.06437 15.6666 7.65955 16.2637 7.65955 17.0001Z" fill="url(#paint24_linear_6247_23348)"/>
<path d="M36.9156 6.9994C36.9156 7.73579 36.3201 8.33289 35.5856 8.33289C34.8512 8.33289 34.256 7.73578 34.256 6.9994C34.256 6.26303 34.8512 5.66626 35.5856 5.66626C36.3201 5.66626 36.9156 6.26304 36.9156 6.9994Z" fill="url(#paint25_linear_6247_23348)"/>
<path d="M9.65455 38.3328C9.65455 39.0692 9.05935 39.6663 8.32494 39.6663C7.59052 39.6663 6.995 39.0692 6.995 38.3328C6.995 37.5964 7.59052 36.9997 8.32494 36.9997C9.05936 36.9997 9.65455 37.5965 9.65455 38.3328Z" fill="url(#paint26_linear_6247_23348)"/>
<defs>
<linearGradient id="paint0_linear_6247_23348" x1="0" y1="0" x2="0" y2="1" gradientUnits="objectBoundingBox">
<stop stop-color="#ED3040"/>
<stop offset="1" stop-color="#2D23F4"/>
</linearGradient>
<linearGradient id="paint1_linear_6247_23348" x1="0" y1="0" x2="0" y2="1" gradientUnits="objectBoundingBox">
<stop stop-color="#ED3040"/>
<stop offset="1" stop-color="#2D23F4"/>
</linearGradient>
<linearGradient id="paint2_linear_6247_23348" x1="0" y1="0" x2="0" y2="1" gradientUnits="objectBoundingBox">
<stop stop-color="#ED3040"/>
<stop offset="1" stop-color="#2D23F4"/>
</linearGradient>
<linearGradient id="paint3_linear_6247_23348" x1="0" y1="0" x2="0" y2="1" gradientUnits="objectBoundingBox">
<stop stop-color="#ED3040"/>
<stop offset="1" stop-color="#2D23F4"/>
</linearGradient>
<linearGradient id="paint4_linear_6247_23348" x1="0" y1="0" x2="0" y2="1" gradientUnits="objectBoundingBox">
<stop stop-color="#ED3040"/>
<stop offset="1" stop-color="#2D23F4"/>
</linearGradient>
<linearGradient id="paint5_linear_6247_23348" x1="0" y1="0" x2="0" y2="1" gradientUnits="objectBoundingBox">
<stop stop-color="#ED3040"/>
<stop offset="1" stop-color="#2D23F4"/>
</linearGradient>
<linearGradient id="paint6_linear_6247_23348" x1="0" y1="0" x2="0" y2="1" gradientUnits="objectBoundingBox">
<stop stop-color="#ED3040"/>
<stop offset="1" stop-color="#2D23F4"/>
</linearGradient>
<linearGradient id="paint7_linear_6247_23348" x1="0" y1="0" x2="0" y2="1" gradientUnits="objectBoundingBox">
<stop stop-color="#ED3040"/>
<stop offset="1" stop-color="#2D23F4"/>
</linearGradient>
<linearGradient id="paint8_linear_6247_23348" x1="0" y1="0" x2="0" y2="1" gradientUnits="objectBoundingBox">
<stop stop-color="#ED3040"/>
<stop offset="1" stop-color="#2D23F4"/>
</linearGradient>
<linearGradient id="paint9_linear_6247_23348" x1="0" y1="0" x2="0" y2="1" gradientUnits="objectBoundingBox">
<stop stop-color="#ED3040"/>
<stop offset="1" stop-color="#2D23F4"/>
</linearGradient>
<linearGradient id="paint10_linear_6247_23348" x1="0" y1="0" x2="0" y2="1" gradientUnits="objectBoundingBox">
<stop stop-color="#ED3040"/>
<stop offset="1" stop-color="#2D23F4"/>
</linearGradient>
<linearGradient id="paint11_linear_6247_23348" x1="0" y1="0" x2="0" y2="1" gradientUnits="objectBoundingBox">
<stop stop-color="#ED3040"/>
<stop offset="1" stop-color="#2D23F4"/>
</linearGradient>
<linearGradient id="paint12_linear_6247_23348" x1="0" y1="0" x2="0" y2="1" gradientUnits="objectBoundingBox">
<stop stop-color="#ED3040"/>
<stop offset="1" stop-color="#2D23F4"/>
</linearGradient>
<linearGradient id="paint13_linear_6247_23348" x1="0" y1="0" x2="0" y2="1" gradientUnits="objectBoundingBox">
<stop stop-color="#ED3040"/>
<stop offset="1" stop-color="#2D23F4"/>
</linearGradient>
<linearGradient id="paint14_linear_6247_23348" x1="0" y1="0" x2="0" y2="1" gradientUnits="objectBoundingBox">
<stop stop-color="#ED3040"/>
<stop offset="1" stop-color="#2D23F4"/>
</linearGradient>
<linearGradient id="paint15_linear_6247_23348" x1="0" y1="0" x2="0" y2="1" gradientUnits="objectBoundingBox">
<stop stop-color="#ED3040"/>
<stop offset="1" stop-color="#2D23F4"/>
</linearGradient>
<linearGradient id="paint16_linear_6247_23348" x1="0" y1="0" x2="0" y2="1" gradientUnits="objectBoundingBox">
<stop stop-color="#ED3040"/>
<stop offset="1" stop-color="#2D23F4"/>
</linearGradient>
<linearGradient id="paint17_linear_6247_23348" x1="0" y1="0" x2="0" y2="1" gradientUnits="objectBoundingBox">
<stop stop-color="#ED3040"/>
<stop offset="1" stop-color="#2D23F4"/>
</linearGradient>
<linearGradient id="paint18_linear_6247_23348" x1="0" y1="0" x2="0" y2="1" gradientUnits="objectBoundingBox">
<stop stop-color="#ED3040"/>
<stop offset="1" stop-color="#2D23F4"/>
</linearGradient>
<linearGradient id="paint19_linear_6247_23348" x1="0" y1="0" x2="0" y2="1" gradientUnits="objectBoundingBox">
<stop stop-color="#ED3040"/>
<stop offset="1" stop-color="#2D23F4"/>
</linearGradient>
<linearGradient id="paint20_linear_6247_23348" x1="0" y1="0" x2="0" y2="1" gradientUnits="objectBoundingBox">
<stop stop-color="#ED3040"/>
<stop offset="1" stop-color="#2D23F4"/>
</linearGradient>
<linearGradient id="paint21_linear_6247_23348" x1="0" y1="0" x2="0" y2="1" gradientUnits="objectBoundingBox">
<stop stop-color="#ED3040"/>
<stop offset="1" stop-color="#2D23F4"/>
</linearGradient>
<linearGradient id="paint22_linear_6247_23348" x1="0" y1="0" x2="0" y2="1" gradientUnits="objectBoundingBox">
<stop stop-color="#ED3040"/>
<stop offset="1" stop-color="#2D23F4"/>
</linearGradient>
<linearGradient id="paint23_linear_6247_23348" x1="0" y1="0" x2="0" y2="1" gradientUnits="objectBoundingBox">
<stop stop-color="#ED3040"/>
<stop offset="1" stop-color="#2D23F4"/>
</linearGradient>
<linearGradient id="paint24_linear_6247_23348" x1="0" y1="0" x2="0" y2="1" gradientUnits="objectBoundingBox">
<stop stop-color="#ED3040"/>
<stop offset="1" stop-color="#2D23F4"/>
</linearGradient>
<linearGradient id="paint25_linear_6247_23348" x1="0" y1="0" x2="0" y2="1" gradientUnits="objectBoundingBox">
<stop stop-color="#ED3040"/>
<stop offset="1" stop-color="#2D23F4"/>
</linearGradient>
<linearGradient id="paint26_linear_6247_23348" x1="0" y1="0" x2="0" y2="1" gradientUnits="objectBoundingBox">
<stop stop-color="#ED3040"/>
<stop offset="1" stop-color="#2D23F4"/>
</linearGradient>
</defs>
</svg>
