<svg width="50" height="50" viewBox="0 0 50 50" fill="none" xmlns="http://www.w3.org/2000/svg">
<path d="M21.5625 18.7502C20.3374 18.7502 19.375 19.9876 19.375 21.5628C19.375 21.9064 19.6563 22.1877 20 22.1877C20.3436 22.1877 20.6249 21.9064 20.6249 21.5628C20.6249 20.6442 21.1186 20.0003 21.5625 20.0003C22.0063 20.0003 22.5001 20.6441 22.5001 21.5628C22.5001 21.9064 22.7814 22.1877 23.125 22.1877C23.4686 22.1877 23.7499 21.9064 23.7499 21.5628C23.7499 19.9876 22.7875 18.7502 21.5625 18.7502Z" fill="url(#paint0_linear_6247_23344)"/>
<path d="M28.4373 18.7502C27.2122 18.7502 26.2499 19.9876 26.2499 21.5628C26.2499 21.9064 26.5312 22.1877 26.8748 22.1877C27.2185 22.1877 27.4997 21.9064 27.4997 21.5628C27.4997 20.6442 27.9935 20.0003 28.4373 20.0003C28.8811 20.0003 29.3749 20.6441 29.3749 21.5628C29.3749 21.9064 29.6562 22.1877 29.9998 22.1877C30.3435 22.1877 30.6248 21.9064 30.6248 21.5628C30.6251 19.9876 29.6624 18.7502 28.4373 18.7502Z" fill="url(#paint1_linear_6247_23344)"/>
<path d="M23.7252 16.0809C23.6315 15.7497 23.2814 15.5559 22.9502 15.6495L18.5751 16.8993C18.2438 16.993 18.05 17.3431 18.1437 17.6744C18.2249 17.9436 18.4752 18.1247 18.75 18.1247C18.8061 18.1247 18.8626 18.1185 18.9249 18.0996L23.3 16.8497C23.6312 16.7561 23.8189 16.4121 23.7252 16.0809Z" fill="url(#paint2_linear_6247_23344)"/>
<path d="M31.4186 16.9003L27.0435 15.6504C26.7123 15.5568 26.3687 15.7503 26.2685 16.0818C26.1748 16.4131 26.3684 16.7567 26.6999 16.8569L31.075 18.1067C31.1373 18.1191 31.1938 18.1253 31.2499 18.1253C31.5188 18.1253 31.7688 17.9442 31.85 17.6691C31.9437 17.3379 31.756 16.9939 31.4186 16.9003Z" fill="url(#paint3_linear_6247_23344)"/>
<path d="M41.4629 40.3002L33.8128 38.5188C32.4315 38.1938 31.2566 37.3688 30.4689 36.2502H32.6563C34.35 36.2502 35.9314 35.5002 37.0063 34.194C38.0812 32.8877 38.5065 31.1817 38.1749 29.5252L37.5187 26.2316C38.2568 25.6566 38.7506 24.7628 38.7506 23.7502C38.7506 22.8251 38.3319 21.9564 37.6443 21.369L37.7441 21.3941C37.813 21.0942 39.4192 14.0253 35.6067 9.2126C33.388 6.41886 29.8254 5 25.0002 5C20.1878 5 16.6192 6.41886 14.4065 9.2126C10.5939 14.0249 12.2002 21.094 12.269 21.3941L12.3502 21.3755C11.6689 21.9629 11.2499 22.8254 11.2499 23.7502C11.2499 24.7628 11.7436 25.6563 12.4936 26.2251L11.8373 29.5187C11.5061 31.1813 11.931 32.8812 13.0059 34.1875C14.0688 35.5003 15.6564 36.2502 17.35 36.2502H19.5375C18.7438 37.3626 17.5749 38.1937 16.1936 38.5188L8.54366 40.3002C6.48747 40.7626 5 42.7376 5 45H6.24984C6.24984 43.3187 7.33097 41.8499 8.82496 41.5187L16.4751 39.7376C16.8315 39.6563 17.1751 39.5437 17.5001 39.4125V44.9999H18.75V40.7499L22.7126 44.2187C22.8314 44.3189 22.975 44.375 23.1251 44.375C23.1564 44.375 23.1877 44.375 23.2249 44.3688C23.406 44.3375 23.5686 44.2314 23.6625 44.0751L24.3749 42.8876V44.9999H25.6248V42.881L26.3372 44.0685C26.4308 44.2248 26.5933 44.3374 26.7748 44.3622C26.8126 44.3749 26.8439 44.3749 26.8749 44.3749C27.025 44.3749 27.1686 44.3188 27.2874 44.2186L31.25 40.75V44.9998H32.4999V39.4062C32.8311 39.5374 33.1748 39.65 33.5249 39.7312L41.1813 41.5124C42.6687 41.8498 43.7502 43.3186 43.7502 44.9998H45C45 42.7374 43.5126 40.7625 41.4625 40.3001L41.4629 40.3002ZM25.0003 39.8878L20.494 37.0689C21.1003 36.2502 21.5251 35.2941 21.719 34.2628C22.0316 34.3317 22.3629 34.3754 22.6941 34.3754H27.3003C27.6377 34.3754 27.9627 34.3379 28.2753 34.2628C28.4692 35.294 28.9003 36.2501 29.5004 37.0689L25.0003 39.8878ZM12.5003 23.75C12.5003 23.1499 12.8002 22.6001 13.2815 22.2437L13.7814 22.7061C13.9315 23.6811 14.1939 24.6624 14.5314 25.6248L14.3754 25.6251C13.3438 25.6251 12.5003 24.7812 12.5003 23.75ZM35.6258 25.6251H35.4695C35.8131 24.65 36.0758 23.6501 36.2321 22.6627L36.7072 22.2378C37.1945 22.5876 37.5006 23.1437 37.5006 23.75C37.5006 24.7812 36.657 25.6251 35.6258 25.6251ZM31.8319 26.5688L34.638 24.0751C34.0881 26.0689 33.1193 28.05 31.8691 29.6813V26.8315C31.8756 26.7375 31.8508 26.6501 31.8319 26.5688ZM31.0258 25.6127C31.0072 25.6065 30.9945 25.5941 30.9821 25.5876L25.5881 23.8437C25.2008 23.7187 24.7945 23.7187 24.413 23.8437L19.019 25.5876C18.9502 25.6062 18.8941 25.6502 18.8379 25.6812L14.4442 21.6126C16.6881 20.7002 17.6067 17.5312 17.9692 15.5187C18.0253 15.2188 18.2818 14.9999 18.5879 14.9999H31.4254C31.7253 14.9999 31.988 15.2185 32.0441 15.5187C32.4066 17.525 33.3191 20.6812 35.544 21.6061L31.0258 25.6127ZM15.4008 24.2062L18.1446 26.7437C18.1446 26.7751 18.1322 26.7999 18.1322 26.825V29.6749C16.9068 28.0814 15.9506 26.1564 15.4008 24.2062ZM19.3755 29.7061L19.4006 26.7812L24.7946 25.0373C24.8631 25.0125 24.932 25.0001 25.0008 25.0001C25.0697 25.0001 25.1382 25.0125 25.2071 25.0314L30.6258 26.8249V29.6999C30.6258 31.5874 29.1384 33.1186 27.3008 33.1186H22.6946C20.8633 33.1251 19.3755 31.5874 19.3755 29.7061ZM36.9449 29.7688C37.2011 31.0561 36.8699 32.3813 36.0387 33.4001C35.201 34.4186 33.9698 34.9998 32.6511 34.9998H29.8012C29.6573 34.6186 29.5388 34.2247 29.4823 33.8122C30.0949 33.4686 30.6261 32.9873 31.0262 32.4123L31.0448 32.4374C32.6634 30.981 34.0324 29.0188 34.9823 26.8749C34.9885 26.8749 34.9947 26.8811 35.0075 26.8811H35.6324C35.8824 26.8811 36.1199 26.8435 36.3513 26.7874L36.9449 29.7688ZM15.3946 9.9876C17.3572 7.5062 20.5885 6.24986 25.0134 6.24986C29.426 6.24986 32.657 7.5062 34.6194 9.98728C37.5068 13.6248 36.8943 18.9501 36.6195 20.6C34.4132 20.3438 33.5445 16.8374 33.2632 15.3C33.1007 14.4 32.3256 13.75 31.4194 13.75H18.5819C17.6757 13.75 16.8945 14.4001 16.7381 15.3C16.4631 16.8374 15.5882 20.3314 13.3942 20.6C13.1133 18.9501 12.5069 13.625 15.3943 9.98807L15.3946 9.9876ZM17.351 35.0001C16.0323 35.0001 14.8011 34.4189 13.9699 33.4001C13.1387 32.3813 12.8074 31.0564 13.0636 29.7688L13.6573 26.7874C13.8886 26.8377 14.1259 26.8752 14.3762 26.8752H15.0011C15.0073 26.8752 15.0135 26.869 15.0262 26.869C15.9762 29.0126 17.3386 30.9752 18.9637 32.4315L18.9824 32.4064C19.3886 32.9814 19.9137 33.4689 20.5262 33.8064C20.4636 34.2188 20.3513 34.6127 20.2074 34.9939H17.351L17.351 35.0001ZM22.976 42.7876L18.751 39.0939V38.7503H18.7324C19.076 38.5189 19.401 38.2627 19.7012 37.9814L19.6699 38.0314L24.1511 40.8313L22.976 42.7876ZM31.2514 38.7502V39.0938L27.0264 42.7875L25.8512 40.8311L30.3324 38.0312L30.3011 37.9813C30.601 38.2688 30.926 38.5249 31.2699 38.7501L31.2514 38.7502Z" fill="url(#paint4_linear_6247_23344)"/>
<defs>
<linearGradient id="paint0_linear_6247_23344" x1="0" y1="0" x2="0" y2="1" gradientUnits="objectBoundingBox">
<stop stop-color="#ED3040"/>
<stop offset="1" stop-color="#2D23F4"/>
</linearGradient>
<linearGradient id="paint1_linear_6247_23344" x1="0" y1="0" x2="0" y2="1" gradientUnits="objectBoundingBox">
<stop stop-color="#ED3040"/>
<stop offset="1" stop-color="#2D23F4"/>
</linearGradient>
<linearGradient id="paint2_linear_6247_23344" x1="0" y1="0" x2="0" y2="1" gradientUnits="objectBoundingBox">
<stop stop-color="#ED3040"/>
<stop offset="1" stop-color="#2D23F4"/>
</linearGradient>
<linearGradient id="paint3_linear_6247_23344" x1="0" y1="0" x2="0" y2="1" gradientUnits="objectBoundingBox">
<stop stop-color="#ED3040"/>
<stop offset="1" stop-color="#2D23F4"/>
</linearGradient>
<linearGradient id="paint4_linear_6247_23344" x1="0" y1="0" x2="0" y2="1" gradientUnits="objectBoundingBox">
<stop stop-color="#ED3040"/>
<stop offset="1" stop-color="#2D23F4"/>
</linearGradient>
</defs>
</svg>
