<svg width="50" height="50" viewBox="0 0 50 50" fill="none" xmlns="http://www.w3.org/2000/svg">
<path d="M5 39.1045C5.37286 38.1416 6.12059 37.5334 7.21895 37.6543C7.39376 37.6731 7.60495 37.8276 7.75551 37.79C7.87171 37.7612 8.55073 37.0946 8.47899 36.9579C8.33753 36.6875 7.27554 35.9861 7.35031 35.7068C7.42509 35.4274 9.15801 34.0733 9.20348 33.8395C9.21662 33.7741 8.9054 33.1491 8.84477 33.1223L5.63254 32.5003L5.6285 27.6028C5.74369 27.4859 8.61641 27.1788 8.88418 26.9659C8.93875 26.9223 9.14387 26.4111 9.23178 26.2715C11.2507 23.0709 14.7883 21.698 18.5077 22.8441V21.2334H11.481V22.4607H10.1533V21.2334H8.70937C7.32101 21.2334 6.5076 19.4543 7.20077 18.2943C7.37254 18.006 8.0647 17.3988 8.39714 17.3988H21.1622V18.5875C21.1622 18.6509 20.9732 18.7232 20.8924 18.7064L8.71038 18.7044C8.27084 18.8114 8.10613 19.4513 8.43756 19.7356C8.47697 19.7693 8.84174 19.9298 8.86498 19.9298H21.1622V21.1185C21.1622 21.1264 21.0531 21.2334 21.045 21.2334H19.8345V23.4186L20.9268 24.1487C21.0147 24.2754 20.1507 24.9907 20.1447 25.2205C19.0837 24.4438 17.95 23.9585 16.6333 23.7633V24.9906H15.3056V23.7633C14.6539 23.8871 13.9839 23.9912 13.3888 24.2982L13.9759 25.3364C13.7505 25.4245 13.0654 25.9525 12.9098 25.9773C12.6895 26.0119 12.3611 25.1571 12.2207 24.9887C11.9297 24.9946 10.99 26.0644 10.7788 26.3329C10.7808 26.426 11.7387 26.847 11.7822 26.9193C11.9024 27.1214 11.2527 27.7831 11.2426 28.0555C11.088 28.1625 10.1877 27.4414 10.0765 27.5216C9.81683 28.1377 9.67132 28.7885 9.52885 29.4384H10.8566V30.6271C10.8566 30.635 10.7475 30.742 10.7394 30.742H9.60767C9.56523 31.0104 9.93 32.4507 10.0725 32.5508C10.2483 32.6736 10.9789 32.0188 11.2456 32.0466C11.2598 32.3655 11.9529 32.9926 11.7155 33.2353C11.6164 33.3373 10.7818 33.6672 10.7798 33.7712C10.9789 34.0248 11.9549 35.1372 12.2177 35.1184C12.2773 35.1144 12.6794 34.2566 12.8068 34.1496L13.9789 34.732L13.3898 35.8058C13.9779 36.1198 14.6508 36.2496 15.3066 36.3407V35.1134H16.6344V36.3407C19.5232 36.0218 21.8938 33.8296 22.3131 30.9896C22.5698 29.2502 22.1363 27.8307 21.1976 26.3755C21.1026 26.2279 20.8601 26.1457 20.9399 25.9208C21.1854 25.8762 21.7483 25.1571 21.9443 25.2541C22.1403 25.3512 22.7729 26.3804 22.8951 26.6251C23.0315 26.8975 23.3741 28.0743 23.4357 28.1268C23.5004 28.1813 24.1289 28.1041 24.2865 28.1348V23.1878C24.2865 23.1799 24.3956 23.0729 24.4037 23.0729H25.5748C25.5829 23.0729 25.6921 23.1799 25.6921 23.1878V28.1348C25.8507 28.1041 26.4782 28.1813 26.5429 28.1268C26.6045 28.0743 26.947 26.8975 27.0835 26.6251C27.2067 26.3794 27.8403 25.3502 28.0343 25.2541C28.2283 25.1581 28.7921 25.8752 29.0387 25.9208C29.1185 26.1467 28.876 26.2279 28.781 26.3755C27.8423 27.8307 27.4078 29.2502 27.6655 30.9896C28.0848 33.8296 30.4553 36.0218 33.3442 36.3407V35.1134H34.672V36.3407C35.3277 36.2496 35.9997 36.1198 36.5888 35.8058L35.9997 34.732L37.1718 34.1496C37.2991 34.2566 37.7013 35.1144 37.7609 35.1184C38.0246 35.1382 38.9997 34.0248 39.1988 33.7712C39.1968 33.6672 38.3621 33.3363 38.2631 33.2353C38.0256 32.9926 38.7188 32.3655 38.733 32.0466C38.9997 32.0188 39.7313 32.6746 39.9061 32.5508C40.0486 32.4507 40.4133 31.0104 40.3709 30.742H39.2392C39.2311 30.742 39.122 30.635 39.122 30.6271V29.4384H40.3709C40.3952 28.7707 40.1183 28.1387 39.901 27.5216C39.7899 27.4404 38.8896 28.1615 38.735 28.0555C38.7239 27.7841 38.0752 27.1224 38.1954 26.9193C38.2388 26.846 39.1968 26.426 39.1988 26.3329C38.9886 26.0644 38.0479 24.9956 37.7569 24.9887C37.6164 25.1571 37.287 26.0119 37.0677 25.9773C36.9111 25.9525 36.227 25.4245 36.0017 25.3364L36.5888 24.2982C35.9946 23.9912 35.3247 23.8861 34.672 23.7633V24.9906H33.3442V23.7633C32.0266 23.9585 30.8929 24.4438 29.8329 25.2205C29.8268 24.9897 28.9629 24.2754 29.0508 24.1487L30.1431 23.4186V21.2334H28.9326C28.9245 21.2334 28.8154 21.1264 28.8154 21.1185V19.9298H41.1126C41.1358 19.9298 41.5006 19.7693 41.54 19.7356C41.8724 19.4513 41.7067 18.8114 41.2672 18.7044L29.0852 18.7064C29.0053 18.7232 28.8154 18.6509 28.8154 18.5875V17.3988H41.5804C41.7239 17.3988 42.2938 17.7525 42.4262 17.8713C43.4629 18.8054 43.1486 20.5944 41.8189 21.0838C41.7471 21.1095 41.2995 21.2324 41.2682 21.2324H39.8243V22.4597H38.4965V21.2324H31.4698V22.8431C35.1893 21.697 38.7269 23.0699 40.7458 26.2705C40.8337 26.4092 41.0378 26.9213 41.0934 26.9649C41.3612 27.1779 44.2339 27.4839 44.3491 27.6018L44.345 32.4993L41.1328 33.1214C41.0873 33.1412 40.7791 33.7296 40.7741 33.787C40.7518 34.0277 42.5505 35.4195 42.6272 35.7058C42.704 35.9921 41.64 36.6865 41.4986 36.9569C41.4268 37.0936 42.1059 37.7593 42.2221 37.789C42.3726 37.8266 42.5838 37.6721 42.7586 37.6533C44.5744 37.4542 45.7 39.47 44.5077 40.8281C43.3154 42.1862 41.1641 41.3264 41.0802 39.6671C41.0671 39.4046 41.2965 38.7796 41.2692 38.7181C41.1894 38.5408 40.6265 38.1634 40.4891 37.9554C40.2759 38.1079 39.3221 39.2015 39.1725 39.1758L37.0374 37.1223C32.6409 38.8331 27.7039 36.4388 26.5045 31.9683L23.4367 31.9802C22.3313 36.4507 17.28 38.8281 12.9442 37.1223L10.8091 39.1758C10.6595 39.2015 9.70568 38.1089 9.49247 37.9554C9.35505 38.1634 8.79122 38.5408 8.7124 38.7181C8.67906 38.7924 8.91247 39.3709 8.90944 39.5988C8.88216 41.7771 5.63052 42.1822 5.00404 40.0247V39.1045H5ZM8.35672 28.4448L6.95523 28.6776L6.95927 31.4275L8.35672 31.6652C8.15868 30.5696 8.15868 29.5404 8.35672 28.4448ZM43.0193 28.6786L41.6178 28.4458C41.8148 29.5414 41.8159 30.5706 41.6178 31.6662L43.0153 31.4284L43.0193 28.6786ZM26.3145 29.4413H23.66C23.7772 29.8425 23.7762 30.2695 23.66 30.6687H26.3145C26.1973 30.2675 26.1983 29.8405 26.3145 29.4413ZM9.9684 34.9688C9.80976 35.1471 9.16509 35.6077 9.22369 35.8296C9.25199 35.9346 10.6959 37.3541 10.8051 37.3353L11.7124 36.4586L9.96739 34.9688H9.9684ZM39.9495 34.9688C39.4362 35.5205 38.8633 36.0049 38.2611 36.4586L39.1685 37.3353C39.2776 37.3541 40.7215 35.9346 40.7498 35.8296C40.7973 35.6533 40.0546 34.951 39.9495 34.9688ZM7.39983 39.1233C6.8653 38.5527 5.89829 39.4036 6.48031 39.9891C7.06233 40.5745 7.9101 39.6671 7.39983 39.1233ZM42.5747 39.1233C42.0654 39.6671 42.9122 40.5755 43.4942 39.9891C44.0762 39.4036 43.1082 38.5527 42.5747 39.1233Z" fill="url(#paint0_linear_6247_23366)"/>
<path d="M24.6543 8.52419C25.7082 8.36174 26.6631 9.03434 26.9036 10.0358L26.9349 17.5207C28.6507 19.6187 26.6479 22.6341 24.0309 21.6762C22.2868 21.0382 21.9503 18.8916 23.0396 17.5207L23.0538 10.0962C23.2104 9.33548 23.8591 8.64702 24.6543 8.52419ZM24.3633 10.3072V16.7876C24.8018 16.7361 25.1737 16.7361 25.6122 16.7876V10.3072C25.6122 10.2884 25.4536 10.0012 25.4344 9.98332C25.0979 9.65643 24.4431 9.86049 24.3623 10.3072H24.3633ZM24.5745 18.1071C23.3559 18.3755 23.4681 20.5132 24.9524 20.5469C26.7641 20.5885 26.6682 17.6465 24.5745 18.1071Z" fill="url(#paint1_linear_6247_23366)"/>
<path d="M13.2251 32.7885C9.71983 29.4433 14.7246 23.9396 18.5077 27.1779C22.4788 30.5765 17.0123 36.4032 13.2251 32.7885ZM15.9139 27.5454C11.9913 27.6286 13.1018 33.8593 16.9739 32.3447C19.5192 31.3492 18.7038 27.4859 15.9139 27.5454Z" fill="url(#paint2_linear_6247_23366)"/>
<path d="M36.7494 32.7885C32.9623 36.4032 27.4957 30.5765 31.4668 27.1779C35.2499 23.9396 40.2547 29.4433 36.7494 32.7885ZM33.9495 27.5454C31.0828 27.6058 30.5139 31.6593 33.2785 32.4567C37.0516 33.5453 37.8225 27.4641 33.9495 27.5454Z" fill="url(#paint3_linear_6247_23366)"/>
<defs>
<linearGradient id="paint0_linear_6247_23366" x1="0" y1="0" x2="0" y2="1" gradientUnits="objectBoundingBox">
<stop stop-color="#ED3040"/>
<stop offset="1" stop-color="#2D23F4"/>
</linearGradient>
<linearGradient id="paint1_linear_6247_23366" x1="0" y1="0" x2="0" y2="1" gradientUnits="objectBoundingBox">
<stop stop-color="#ED3040"/>
<stop offset="1" stop-color="#2D23F4"/>
</linearGradient>
<linearGradient id="paint2_linear_6247_23366" x1="0" y1="0" x2="0" y2="1" gradientUnits="objectBoundingBox">
<stop stop-color="#ED3040"/>
<stop offset="1" stop-color="#2D23F4"/>
</linearGradient>
<linearGradient id="paint3_linear_6247_23366" x1="0" y1="0" x2="0" y2="1" gradientUnits="objectBoundingBox">
<stop stop-color="#ED3040"/>
<stop offset="1" stop-color="#2D23F4"/>
</linearGradient>
</defs>
</svg>
