<svg width="50" height="50" viewBox="0 0 50 50" fill="none" xmlns="http://www.w3.org/2000/svg">
<path d="M41.999 10.9875C38.0056 7.00415 31.5073 7.00415 27.514 10.9875L24.997 13.4982L22.48 10.9875C18.4866 7.00415 11.9884 7.00415 7.99504 10.9875C4.00169 14.9709 4.00161 21.4529 7.99504 25.4362L8.60714 26.0467C8.61118 26.0508 8.61521 26.0548 8.61924 26.0588L24.3964 41.7964C24.5444 41.944 24.7486 42.0118 24.9406 41.996C24.9766 42 25.0166 42 25.0526 41.996C25.0725 41.996 25.0926 42 25.1088 42C25.2847 42 25.4609 41.9322 25.5968 41.7964L41.999 25.4361C43.9356 23.5044 45 20.9418 45 18.2117C45 15.4819 43.9318 12.9155 41.999 10.9875ZM41.0186 24.4625L24.9936 40.4441L10.7683 26.2545H19.5349C19.847 26.2545 20.1191 26.0469 20.2032 25.7476L21.7317 20.1878L24.4085 32.8682C24.4764 33.1835 24.7526 33.411 25.0768 33.415H25.0848C25.405 33.415 25.6852 33.1956 25.7571 32.8802L27.8379 23.9716L28.3259 26.1988C28.3939 26.5142 28.678 26.7416 29.0022 26.7416H35.2043C35.5844 26.7416 35.8965 26.4343 35.8965 26.0512C35.8965 25.6681 35.5884 25.3608 35.2043 25.3608L29.5545 25.3605L28.5301 20.6907C28.4621 20.3754 28.182 20.152 27.8578 20.1479H27.8538C27.5336 20.1479 27.2534 20.3673 27.1815 20.6827L25.1171 29.5437L22.4962 17.1224C22.4323 16.8111 22.1602 16.5836 21.84 16.5756C21.5199 16.5635 21.2357 16.7752 21.1519 17.0825L19.0072 24.8776H9.38361L8.96758 24.4626C5.5143 21.018 5.5143 15.4098 8.96758 11.9621C10.6963 10.2377 12.965 9.37562 15.2338 9.37562C17.5026 9.37562 19.7714 10.2378 21.5001 11.9621L24.4489 14.9035C24.5771 15.0313 24.753 15.1072 24.9369 15.1072H25.0489C25.2329 15.1072 25.4091 15.0354 25.537 14.9035L28.4858 11.9621C31.9391 8.51748 37.5614 8.51748 41.0178 11.9621C42.6904 13.6304 43.6145 15.8495 43.6145 18.2126C43.6152 20.575 42.6947 22.7901 41.0182 24.4625L41.0186 24.4625Z" fill="url(#paint0_linear_6247_23346)"/>
<defs>
<linearGradient id="paint0_linear_6247_23346" x1="37.6624" y1="32.3437" x2="37.6624" y2="39.153" gradientUnits="userSpaceOnUse">
<stop stop-color="#ED3040"/>
<stop offset="1" stop-color="#2D23F4"/>
</linearGradient>
</defs>
</svg>
