<svg width="50" height="50" viewBox="0 0 50 50" fill="none" xmlns="http://www.w3.org/2000/svg">
<path d="M25.6328 5C27.4458 5.3156 29.051 6.52592 29.6774 8.2987C30.1456 9.62464 29.8262 10.5621 29.9657 11.8359C30.0112 12.2494 30.2738 12.7161 30.2779 13.1671C30.2882 14.2972 29.4396 15.2305 28.4608 15.6273C28.3057 15.6898 27.8892 15.7387 27.8179 15.7981C27.7662 15.8419 27.423 16.7022 27.1791 16.9886C26.9992 17.199 26.4483 17.5501 26.4235 17.5928C26.3398 17.7375 26.4504 18.3031 26.407 18.5146H30.9332C31.4986 18.5146 32.4589 19.2281 32.7855 19.6916C33.1235 20.1717 33.8305 21.8581 32.7183 21.7956C31.9948 21.7549 32.1085 20.0999 31.0345 19.8186C30.1187 19.578 28.6758 19.8895 27.6959 19.7613C26.4741 24.0881 20.416 24.1745 19.2811 19.7728C18.1483 19.8353 16.8821 19.6624 15.7658 19.7613C15.2107 19.8103 14.9916 20.0259 14.6598 20.4415C14.0086 21.2591 12.7393 23.1902 12.2618 24.1141C12.2276 24.1798 12.1326 24.3047 12.1749 24.3672C12.7207 24.5026 14.7218 26.089 15.0732 26.0942C15.4939 26.0994 16.1513 23.935 17.0082 24.6849C17.0526 24.7235 17.2004 24.9297 17.2004 24.9599V27.8118H19.3276C19.6801 27.8118 21.6512 25.1391 22.505 25.0047C23.0187 24.9234 24.5092 24.9453 25.057 24.9964C25.9367 25.0776 25.9098 25.8494 25.8653 26.5629H28.8825V24.9609C28.8825 24.7193 29.2091 24.4485 29.4624 24.4485C29.6825 24.4485 30.1198 24.7735 30.1198 24.9609V26.5629H33.9886C33.8108 25.7755 33.139 24.6203 33.0635 23.8589C32.9953 23.1684 33.7881 22.8715 34.1592 23.4611C34.3814 23.8142 35.0378 26.2161 35.1887 26.2504C35.4657 26.0525 35.7468 25.814 36.0011 25.588C36.9117 24.7787 37.9536 23.5798 38.9015 22.8924C40.0912 22.0299 41.5 23.3079 41.5 24.5714C41.5 25.6088 40.3299 26.8629 40.0074 27.8357C39.8937 28.1784 39.9134 28.5096 39.8338 28.8325C39.6095 29.747 38.981 30.3949 38.089 30.6647C37.8957 30.723 37.3469 30.7584 37.319 30.7855C37.2942 30.8105 37.2766 31.1959 37.0709 31.4334C36.9624 31.5583 36.6223 31.7323 36.614 31.7729C36.5324 32.176 37.6497 34.5977 37.6952 35.3633C37.8503 37.9495 34.2336 38.8453 33.233 36.3486C32.7545 35.1549 32.5612 33.6967 32.1405 32.4676C31.6206 32.3999 31.2485 32.1916 31.0438 31.6844C30.9818 31.5302 30.989 31.1938 30.8981 31.1282C30.7668 31.0334 30.0143 31.0157 30.1156 31.3636C30.2789 33.354 29.9089 35.6664 30.1187 37.6172C30.1652 38.0495 30.4784 38.4974 30.6045 38.9234C31.4356 41.7305 29.6412 44.4313 26.869 45H9.77175C9.28387 44.8354 9.3924 43.8282 9.80999 43.8282H20.0615L19.984 37.8131H9.80999C9.63014 37.8131 9.41825 37.4048 9.41928 37.2277C9.41928 37.0673 9.718 36.6413 9.80999 36.6413H16.0386V32.0323H11.5124C11.2622 32.0323 10.2317 31.6688 10.0891 31.4375C9.8534 31.0553 10.0508 30.5157 10.5139 30.4699C10.7857 30.4428 11.2767 30.7501 11.6643 30.7855C14.3425 31.0323 17.3865 30.5917 20.1039 30.7855C21.6533 30.6459 21.983 28.3648 22.7345 27.2701C23.4353 26.6712 24.8886 27.6097 24.7046 26.1733H22.8089C22.5805 26.1733 20.6672 28.3732 20.2548 28.6732C19.9943 28.8627 19.7256 28.9606 19.4072 28.9888C17.7307 29.1408 15.8391 28.8658 14.1388 28.9888C13.038 28.6002 13.9983 27.7097 14.4127 27.1483L11.4452 25.3838C11.0183 26.239 9.92576 27.3118 9.77795 28.2482C9.70146 28.7356 9.82756 29.7137 8.9159 29.4179C8.01561 29.1252 8.81151 27.2753 9.11953 26.7254C10.4736 24.3089 12.3827 21.9799 13.7957 19.5728C14.0851 19.1656 15.0557 18.5167 15.5353 18.5167H20.5256C20.4843 18.3198 20.5887 17.7115 20.5132 17.5917C20.5008 17.573 20.2713 17.5053 20.1762 17.424C19.8114 17.1105 19.5344 16.772 19.3101 16.346C19.248 16.2272 19.1395 15.8169 19.1178 15.7981C19.093 15.7762 18.6165 15.6877 18.4728 15.6283C17.3617 15.17 16.5937 14.2805 16.6536 13.0067C16.6712 12.6234 16.8531 12.3161 16.8914 11.9963C16.9617 11.3985 16.8469 10.6589 16.8862 10.0381C17.0237 7.8227 18.1762 6.11762 20.2176 5.27706L21.1448 5.00312H25.6328V5ZM28.805 11.1714V9.88191C28.805 8.43098 27.6029 6.88631 26.2726 6.42281C25.057 5.99888 21.43 6.01763 20.2651 6.57071C19.3235 7.01755 18.1276 8.48723 18.1276 9.56839V11.1704L19.0558 11.2485V10.0381C19.0558 9.48402 20.0078 8.57993 20.5277 8.39973C22.3365 7.77478 22.043 9.87566 23.1913 10.3933C23.9893 10.7527 25.5377 10.2017 26.4452 10.1569C27.2607 10.1163 27.7869 10.3787 27.8768 11.2495L28.805 11.1714ZM21.061 9.53506C20.5401 9.6361 20.2724 10.0798 20.2166 10.585C20.1008 11.6255 20.1132 14.141 20.2176 15.193C20.3024 16.0439 20.9597 16.7033 21.8021 16.796C22.4885 16.8709 24.9743 16.8741 25.5532 16.6762C26.1217 16.4824 26.5227 16.021 26.6323 15.4221L26.717 11.4057C25.2586 11.3974 23.703 12.1859 22.3582 11.3151C21.7236 10.9047 21.3835 10.1975 21.0621 9.53506H21.061ZM19.0558 14.5305V12.7723C19.0558 12.5067 18.0676 12.0276 17.9116 12.7109C17.7048 13.6181 18.201 14.3055 19.0558 14.5295V14.5305ZM27.8768 14.5305C28.6923 14.3659 29.3321 13.4514 28.9414 12.6348C28.653 12.0307 27.8768 12.5765 27.8768 12.6942V14.5295V14.5305ZM25.1687 17.9677H21.7639C21.7412 19.1937 21.9303 19.5759 20.6424 19.7655C20.5566 19.778 20.4832 19.728 20.5277 19.879C20.6341 20.2415 21.1231 20.8456 21.4145 21.0935C23.1066 22.5393 25.6431 21.8185 26.407 19.7645C26.0731 19.904 25.1687 19.552 25.1687 19.1781V17.9677ZM21.2223 32.4979H26.4834C26.2571 31.8656 25.9367 31.4459 26.285 30.7751C26.4834 30.3939 26.8287 30.2553 27.2246 30.1616L30.9963 29.846C31.2557 29.3398 31.6929 28.9127 32.2521 28.7534C32.8413 28.5846 35.1814 28.2128 35.7231 28.2878C36.1871 28.3513 36.6357 28.6732 36.9148 29.0367C37.227 29.4408 37.0347 29.6533 37.7231 29.5127C38.8188 29.2887 38.5769 28.218 38.8477 27.4462C39.1185 26.6743 40.0974 25.4651 40.2379 24.787C40.3093 24.4422 40.2028 24.0975 39.9103 23.9016C39.6715 23.7423 39.3842 24.0735 39.1702 24.2568C38.1696 25.1141 36.0941 27.4826 34.9199 27.6993L25.5894 27.7316C25.2069 27.8274 24.9537 28.1638 24.5526 28.2471C24.3077 28.2982 23.6379 28.2419 23.5552 28.294C23.4342 28.37 22.5588 30.4543 22.2611 30.8542C22.136 31.0219 21.8848 31.2667 21.7226 31.4042C21.5861 31.5198 21.1417 31.7323 21.1024 31.7958C21.028 31.9146 21.1923 32.4791 21.2223 32.4999V32.4979ZM16.0386 27.8107L16.0004 27.0295L15.4195 27.8097H16.0386V27.8107ZM36.1551 30.623C36.089 29.9855 36.0848 29.5408 35.3427 29.5241C34.8641 29.5137 32.9488 29.7939 32.5033 29.946C31.9162 30.147 32.0619 30.7667 32.1715 31.249L36.1551 30.623ZM28.8825 31.2479L27.3352 31.4052L28.8825 34.8414V31.2479ZM35.3789 31.951L33.3674 32.3041C33.7519 33.3738 33.9018 34.9768 34.3845 35.9642C34.985 37.1923 36.705 36.6319 36.429 35.1497C36.243 34.1488 35.5866 32.9811 35.3789 31.951ZM21.1448 36.6382L19.7907 32.0291H17.1984V36.6382H21.1448ZM21.2223 43.8251H26.3677C28.5373 43.8251 30.2562 41.0649 29.3838 39.0609L26.9868 33.6696H21.5324C21.6719 34.5144 22.6621 36.6465 22.2962 37.3704C21.983 37.9901 21.2233 37.7474 21.2233 37.8099V43.8251H21.2223Z" fill="url(#paint0_linear_6247_23374)"/>
<defs>
<linearGradient id="paint0_linear_6247_23374" x1="0" y1="0" x2="0" y2="1" gradientUnits="objectBoundingBox">
<stop stop-color="#ED3040"/>
<stop offset="1" stop-color="#2D23F4"/>
</linearGradient>
</defs>
</svg>
