<svg width="50" height="50" viewBox="0 0 50 50" fill="none" xmlns="http://www.w3.org/2000/svg">
<path d="M25.0005 5.0003C22.9214 4.98144 20.3584 5.84886 20.3352 7.66757C20.3356 8.80914 21.4255 9.53694 22.3333 9.88195V12.6306C20.8714 12.9495 19.4067 13.5651 18.1457 14.3703L17.1348 13.3593C17.674 12.1621 17.6587 11.0599 16.9839 10.3837C15.536 9.04 13.0266 10.5478 11.8023 11.8012C10.5131 13.0834 9.05036 15.5085 10.3848 16.983C11.2247 17.8249 12.5764 17.4994 13.3649 17.1338L14.3723 18.1438C13.5668 19.4042 12.9618 20.8713 12.6422 22.3324H9.87569C9.47642 21.2395 8.70468 20.3426 7.66865 20.3343C5.72685 20.3416 4.96206 23.2279 5.00144 24.9997C4.96704 27.0269 5.83273 29.6475 7.66865 29.6651C8.69511 29.6717 9.46353 28.7785 9.87544 27.667H12.6369C12.9558 29.1288 13.5559 30.6036 14.361 31.8645L13.3616 32.8639C12.2359 32.3508 11.0781 32.323 10.3894 33.0114C9.0037 34.4775 10.5631 36.9834 11.8016 38.1985C13.1688 39.5581 15.5667 40.9296 16.9885 39.611C17.7827 38.7933 17.5429 37.525 17.136 36.6338L18.1406 35.6292C19.4083 36.4532 20.872 37.044 22.3332 37.3639V40.1225C21.2059 40.5254 20.3242 41.3441 20.3351 42.3319C20.403 44.3588 23.2809 45.0174 25.0004 44.9992C26.8813 45.0286 29.6318 44.2549 29.6656 42.3319C29.6498 41.1665 28.5637 40.4681 27.6676 40.1175V37.3639C29.1281 37.044 30.5978 36.437 31.8575 35.6318L32.8631 36.6375C32.3994 37.6556 32.273 38.836 33.0117 39.6107C34.3554 40.9117 36.8175 39.6107 38.1986 38.1985C39.6825 36.7264 40.8814 34.3303 39.6108 33.0114C38.804 32.2149 37.536 32.4623 36.6352 32.8656L35.6319 31.8622C36.4794 30.5582 37.0417 29.1304 37.3603 27.6673H40.1278C40.5274 28.7963 41.3504 29.6687 42.3322 29.6654C44.2753 29.621 45.0245 26.8257 44.9994 25C45.0182 23.046 44.2343 20.3893 42.3322 20.3346C41.3186 20.3217 40.5151 21.25 40.1231 22.3327L37.3653 22.3324C37.0464 20.8153 36.4354 19.3979 35.6303 18.1368L36.6389 17.1358C37.7923 17.6588 38.972 17.6624 39.6111 16.9833C40.9317 15.629 39.5671 13.1291 38.1986 11.8013C36.7513 10.309 34.3017 9.12604 33.0117 10.3887C32.2336 11.1773 32.446 12.439 32.8645 13.3659L31.8509 14.3723C30.5832 13.537 29.1287 12.9555 27.6676 12.6355V9.87695C28.8489 9.43863 29.6779 8.61623 29.6657 7.66749C29.5923 5.7369 26.9121 4.98861 25.0004 5.00022L25.0005 5.0003ZM25.0005 6.33377C26.0967 6.28646 28.2214 6.79656 28.3319 7.66757C28.325 8.09167 27.5781 8.53662 26.8163 8.75494C26.5311 8.83731 26.3346 9.09799 26.3343 9.39472V13.1891C26.3356 13.5136 26.5705 13.7898 26.8904 13.8437C28.5712 14.1276 30.1649 14.7869 31.5556 15.773C31.8199 15.9615 32.1775 15.9288 32.408 15.7005L34.1487 13.9671C34.3568 13.7564 34.4008 13.4335 34.2569 13.1748C33.8732 12.4924 33.6697 11.6164 33.9569 11.3293C34.507 10.887 36.113 11.5803 37.254 12.7415C38.2957 13.7673 39.1656 15.4389 38.6711 16.0436C38.2761 16.383 37.326 16.0197 36.8255 15.7386C36.5655 15.596 36.2427 15.642 36.0333 15.8517L34.2973 17.5801C34.069 17.8107 34.0435 18.1759 34.2321 18.4402C35.2182 19.8323 35.8732 21.4284 36.1564 23.1105C36.2106 23.4323 36.4895 23.6675 36.8156 23.6666H40.6C40.8987 23.6682 41.162 23.4714 41.2447 23.1842C41.4449 22.4714 41.8749 21.6863 42.3324 21.6685C43.2405 21.8032 43.7085 23.915 43.6659 25.0001C43.6821 26.315 43.1826 28.1689 42.3324 28.3316C41.8409 28.2995 41.4168 27.4272 41.2451 26.8159C41.1627 26.5304 40.902 26.3339 40.6053 26.3336H36.811C36.4865 26.3349 36.2103 26.5698 36.1564 26.8897C35.8742 28.5715 35.2172 30.1676 34.2321 31.56C34.0436 31.8239 34.0727 32.1855 34.3009 32.416L36.033 34.1481C36.2437 34.3562 36.5665 34.4002 36.8252 34.2563C37.469 33.8967 38.3393 33.6513 38.6707 33.9563C39.1888 34.6725 38.1107 36.4422 37.2536 37.2534C36.117 38.4298 34.458 39.1301 33.9565 38.6706C33.6155 38.2723 33.9876 37.2981 34.2615 36.825C34.4041 36.565 34.3581 36.2421 34.1484 36.0327L32.4117 34.2956C32.1811 34.0674 31.8196 34.0383 31.5556 34.2268C30.165 35.2133 28.5715 35.8716 26.8904 36.1557C26.5705 36.2096 26.3356 36.4859 26.3343 36.8104V40.5998C26.3327 40.8985 26.5295 41.1618 26.8166 41.2445C27.5513 41.4374 28.3459 41.9236 28.3323 42.3322C28.2665 43.14 26.3353 43.6984 25.0008 43.6657C23.4973 43.7057 21.715 43.0567 21.6693 42.3322C21.6819 41.8218 22.7021 41.3689 23.185 41.2445C23.4702 41.1625 23.667 40.9015 23.6673 40.6047L23.6667 36.8104C23.6653 36.4858 23.4305 36.2096 23.1106 36.156C21.4298 35.8719 19.836 35.2129 18.4453 34.2268C18.0782 33.9906 17.748 34.106 17.5006 34.3839L15.8519 36.0327C15.6422 36.2421 15.5962 36.565 15.7388 36.825C16.0871 37.431 16.3564 38.3447 16.0438 38.6705C15.3557 39.2068 13.5902 38.1409 12.7418 37.2534C11.8 36.3694 10.8251 34.6003 11.3296 33.9562C11.6958 33.6036 12.7447 34.0085 13.1751 34.2612C13.4351 34.4038 13.7579 34.3578 13.9673 34.1481L15.6111 32.5043C15.8985 32.2404 15.9974 31.9268 15.7685 31.5596C14.7824 30.1678 14.1224 28.5714 13.8393 26.8896C13.7858 26.5693 13.5095 26.3348 13.185 26.3331H9.39574C9.09902 26.3338 8.83835 26.5303 8.75598 26.8155C8.51946 27.6597 8.04179 28.3391 7.66863 28.3312C6.9336 28.2604 6.30776 26.4955 6.33486 24.9996C6.27697 23.8005 6.8294 21.8027 7.66364 21.6681C8.14429 21.6667 8.61464 22.6437 8.75623 23.1838C8.83827 23.4689 9.09927 23.6658 9.396 23.6661H13.1903C13.5144 23.6644 13.7907 23.4299 13.8446 23.11C14.1284 21.4292 14.7877 19.8354 15.7734 18.4447C15.962 18.1807 15.9329 17.8191 15.7046 17.5886L13.9676 15.8511C13.7579 15.6414 13.435 15.5954 13.1753 15.738C12.5084 16.1214 11.6831 16.3318 11.3298 16.0433C10.8138 15.4026 11.7751 13.6477 12.742 12.7413C13.9788 11.5104 15.534 10.9016 16.044 11.3287C16.3609 11.6473 16.0698 12.6139 15.739 13.1743C15.5964 13.4343 15.6424 13.7571 15.8521 13.9665L17.5842 15.6986C17.8148 15.9269 18.1763 15.956 18.4403 15.7674C19.8323 14.7816 21.4287 14.1213 23.1104 13.8385C23.4306 13.7846 23.6652 13.5084 23.6665 13.1839V9.39451C23.6662 9.09778 23.4697 8.83711 23.1845 8.75507C22.2586 8.49969 21.6688 8.01737 21.6688 7.66736C21.9206 6.69313 23.8071 6.35371 25.0003 6.33355L25.0005 6.33377Z" fill="url(#paint0_linear_6247_23340)"/>
<path d="M20.3352 19.0006C19.2386 19.0006 18.3323 19.9021 18.3323 20.9987C18.3323 22.0953 19.2386 23.0017 20.3352 23.0017C21.4318 23.0017 22.3333 22.0953 22.3333 20.9987C22.3333 19.911 21.4569 19.0006 20.3352 19.0006ZM20.3352 20.3341C20.7113 20.3341 20.9995 20.6222 20.9995 20.9983C20.9995 21.3745 20.7113 21.6676 20.3352 21.6676C19.9591 21.6676 19.666 21.3745 19.666 20.9983C19.6664 20.6156 19.9786 20.3334 20.3352 20.3341Z" fill="url(#paint1_linear_6247_23340)"/>
<path d="M25.0005 27.6665C23.5357 27.6665 22.3333 28.869 22.3333 30.3338C22.3333 31.7986 23.5357 33.0011 25.0005 33.0011C26.4653 33.0011 27.6677 31.7986 27.6677 30.3338C27.6677 28.869 26.4653 27.6665 25.0005 27.6665ZM25.0005 29C25.7448 29 26.3339 29.5895 26.3339 30.3335C26.3339 31.0778 25.7444 31.6669 25.0005 31.6669C24.2562 31.6669 23.667 31.0774 23.667 30.3335C23.667 29.5892 24.2565 29 25.0005 29Z" fill="url(#paint2_linear_6247_23340)"/>
<path d="M30.3347 20.3344C28.8699 20.3344 27.6675 21.5369 27.6675 23.0017C27.6675 24.4665 28.8699 25.6641 30.3347 25.6641C31.7995 25.6641 33.0019 24.4665 33.0019 23.0017C33.0019 21.4638 31.7539 20.3344 30.3347 20.3344ZM30.3347 21.6679C31.079 21.6679 31.6682 22.2574 31.6682 23.0014C31.6682 23.7457 31.0787 24.3302 30.3347 24.3302C29.5904 24.3302 29.0013 23.7456 29.0009 23.0016C29.0009 22.2583 29.6123 21.6678 30.3347 21.6678V21.6679Z" fill="url(#paint3_linear_6247_23340)"/>
<defs>
<linearGradient id="paint0_linear_6247_23340" x1="0" y1="0" x2="0" y2="1" gradientUnits="objectBoundingBox">
<stop stop-color="#ED3040"/>
<stop offset="1" stop-color="#2D23F4"/>
</linearGradient>
<linearGradient id="paint1_linear_6247_23340" x1="0" y1="0" x2="0" y2="1" gradientUnits="objectBoundingBox">
<stop stop-color="#ED3040"/>
<stop offset="1" stop-color="#2D23F4"/>
</linearGradient>
<linearGradient id="paint2_linear_6247_23340" x1="0" y1="0" x2="0" y2="1" gradientUnits="objectBoundingBox">
<stop stop-color="#ED3040"/>
<stop offset="1" stop-color="#2D23F4"/>
</linearGradient>
<linearGradient id="paint3_linear_6247_23340" x1="0" y1="0" x2="0" y2="1" gradientUnits="objectBoundingBox">
<stop stop-color="#ED3040"/>
<stop offset="1" stop-color="#2D23F4"/>
</linearGradient>
</defs>
</svg>
