<svg width="50" height="50" viewBox="0 0 50 50" fill="none" xmlns="http://www.w3.org/2000/svg">
<path d="M37.1835 44.9996C36.2159 44.9996 35.4899 44.7595 34.8043 44.5594C33.756 44.2393 32.8687 43.9591 31.4172 44.3993C28.0302 45.3995 26.6593 44.4794 26.135 43.8391C25.409 42.959 25.409 41.5983 26.1753 40.1579C26.4576 39.6376 26.5786 38.9977 26.5383 38.3173L26.377 36.4367C25.8527 30.0749 25.5304 25.9138 26.014 18.2714C26.014 17.9912 25.893 17.7111 25.651 17.511C25.409 17.3109 25.1267 17.2309 24.8444 17.2709L23.3935 17.4316C20.7323 17.8318 16.821 17.7918 14.0391 17.7117C11.4586 17.6317 9.07942 16.2313 7.86986 14.1106C7.14393 12.8703 6.86191 11.55 7.06327 10.1893C7.34527 8.5892 8.2325 7.14879 9.6034 6.18831C11.0147 5.18812 12.7889 4.78793 14.5227 5.10807C18.7161 5.86843 24.1196 6.86861 25.934 7.38888L29.2404 8.26899C29.4824 8.34902 29.6437 8.58914 29.563 8.82926C29.4824 9.06937 29.2404 9.22945 28.9984 9.14941L25.692 8.2693C23.7968 7.74904 17.789 6.62884 14.3616 6.02851C12.91 5.74838 11.3778 6.06822 10.1682 6.94865C8.99895 7.78874 8.23262 8.9893 8.03101 10.3497C7.86969 11.4698 8.07134 12.5901 8.71662 13.6706C9.80524 15.5112 11.8617 16.7114 14.1199 16.7915C16.8617 16.8715 20.6924 16.9116 23.3134 16.5114L24.7247 16.3113C25.2893 16.2312 25.8536 16.3913 26.2972 16.7915C26.7408 17.1517 26.9828 17.7116 26.9425 18.2719C26.4585 25.8741 26.8215 30.0354 27.3055 36.3173L27.4668 38.1979C27.5474 39.038 27.3861 39.8384 27.0231 40.5588C26.4585 41.639 26.3779 42.6395 26.8618 43.2395C27.5071 43.9998 29.0797 44.1196 31.1762 43.4796C32.91 42.9593 34.039 43.3195 35.1278 43.6397C36.1358 43.9598 37.1037 44.24 38.6359 43.8398C39.2812 43.6797 39.9262 43.6797 40.4908 43.7997C41.5391 44.0799 41.9424 43.7197 42.023 43.5997C42.144 43.4796 42.144 43.3595 42.1037 43.3195C41.0554 42.9994 40.6925 42.7993 40.3698 42.5992C40.1279 42.4391 39.9262 42.319 39.4022 42.199C37.749 41.7187 35.3699 40.5985 33.6767 39.7585C32.2654 39.0381 31.4185 37.5977 31.5395 36.0373C31.8212 30.5956 33.0714 22.3933 34.1196 17.0723C34.16 16.8322 34.4019 16.6721 34.6843 16.7121C34.9262 16.7521 35.0876 16.9922 35.0472 17.2724C34.0393 22.554 32.7487 30.7163 32.3861 36.1175C32.3054 37.3177 32.9507 38.4383 34.0393 38.9583C35.6925 39.7984 38.0313 40.8789 39.6038 41.3191C40.2894 41.5192 40.5311 41.6793 40.8134 41.8394C41.0957 41.9995 41.378 42.1996 42.3456 42.4797C42.8699 42.6398 43.1119 43.16 42.9506 43.72C42.7086 44.5204 41.7814 45.1604 40.1684 44.7602C39.7651 44.6401 39.2815 44.6802 38.7975 44.8002C38.1923 44.92 37.668 45 37.184 45L37.1835 44.9996Z" fill="url(#paint0_linear_6247_23350)"/>
<path d="M32.6671 17.6322H32.5865C29.7236 17.1519 27.6672 14.7114 27.6672 11.8306C27.6672 11.5905 27.8688 11.3504 28.1511 11.3504C28.4334 11.3504 28.6351 11.5504 28.6351 11.8306C28.6351 14.2314 30.369 16.3118 32.7882 16.712C33.0301 16.752 33.2318 16.9922 33.1511 17.2323C33.1108 17.4721 32.9091 17.6322 32.6671 17.6322Z" fill="url(#paint1_linear_6247_23350)"/>
<path d="M33.5947 15.8715C31.3366 15.8715 29.5223 14.0709 29.5223 11.8304C29.5627 9.62967 31.3772 7.78908 33.5947 7.78908C35.8529 7.78908 37.6671 9.58965 37.6671 11.8301C37.6674 14.0709 35.8529 15.8715 33.5947 15.8715ZM33.5947 8.74956C31.8609 8.74956 30.49 10.1499 30.49 11.8304C30.49 13.5509 31.9012 14.9113 33.5947 14.9113C35.3286 14.9113 36.6995 13.5109 36.6995 11.8304C36.7398 10.1099 35.3286 8.74956 33.5947 8.74956Z" fill="url(#paint2_linear_6247_23350)"/>
<path d="M35.0057 12.3104C34.7638 12.3104 34.5218 12.1103 34.5218 11.8301C34.5218 11.3099 34.1185 10.91 33.5945 10.91C33.0702 10.91 32.6672 11.3102 32.6672 11.8301C32.6672 12.0702 32.4656 12.3104 32.1833 12.3104C31.9413 12.3104 31.6993 12.1103 31.6993 11.8301C31.6993 10.8299 32.5459 9.98952 33.5542 9.98952C34.5621 9.98952 35.4091 10.8296 35.4091 11.8301C35.4494 12.1106 35.2477 12.3104 35.0057 12.3104Z" fill="url(#paint3_linear_6247_23350)"/>
<defs>
<linearGradient id="paint0_linear_6247_23350" x1="0" y1="0" x2="0" y2="1" gradientUnits="objectBoundingBox">
<stop stop-color="#ED3040"/>
<stop offset="1" stop-color="#2D23F4"/>
</linearGradient>
<linearGradient id="paint1_linear_6247_23350" x1="0" y1="0" x2="0" y2="1" gradientUnits="objectBoundingBox">
<stop stop-color="#ED3040"/>
<stop offset="1" stop-color="#2D23F4"/>
</linearGradient>
<linearGradient id="paint2_linear_6247_23350" x1="0" y1="0" x2="0" y2="1" gradientUnits="objectBoundingBox">
<stop stop-color="#ED3040"/>
<stop offset="1" stop-color="#2D23F4"/>
</linearGradient>
<linearGradient id="paint3_linear_6247_23350" x1="0" y1="0" x2="0" y2="1" gradientUnits="objectBoundingBox">
<stop stop-color="#ED3040"/>
<stop offset="1" stop-color="#2D23F4"/>
</linearGradient>
</defs>
</svg>
