<svg width="50" height="50" viewBox="0 0 50 50" fill="none" xmlns="http://www.w3.org/2000/svg">
<path d="M7.22906 27.644C6.35368 31.2856 11.2304 33.9229 17.0443 30.6578C20.4829 28.7114 24.4843 29.0883 26.9226 30.6578C28.9231 31.9764 30.7989 32.6043 32.4869 32.6043C33.7999 32.6043 35.0502 32.1647 36.0507 31.4113C36.4259 31.0973 36.926 30.9717 37.4888 30.9091C45.1163 30.3439 44.741 25.3836 42.1777 25.3836H39.9894C39.6141 25.3836 39.3642 25.258 38.9889 25.1323C36.8633 24.3789 35.5503 24.5672 33.9874 24.5672C33.1748 24.5672 32.4246 23.3115 18.67 15.2742C18.1699 14.9603 17.7946 14.5834 17.6071 14.0185C16.0443 10.6908 16.2317 10 15.4815 10C7.04142 10.063 5.22809 12.386 5.1036 12.6372C4.97851 12.8255 4.97851 13.0768 5.04121 13.265C8.41716 20.1718 7.66693 25.6343 7.22924 27.6438L7.22906 27.644ZM15.1691 11.1933C16.4195 13.7676 16.4821 15.2744 18.1701 16.2792C34.1756 25.6972 32.5498 25.823 34.4254 25.7605C36.9263 25.6349 37.9264 26.0118 38.6766 26.2627C40.7398 27.0162 42.8655 26.0115 42.7404 27.0788C42.5529 28.5231 40.6772 29.4018 37.5511 29.6531C36.7385 29.7158 36.0507 29.967 35.4879 30.4066C33.6122 31.9135 30.8614 31.6623 27.7353 29.5905C24.8595 27.7696 20.358 27.4557 16.6064 29.5905C11.6672 32.353 7.97871 30.4066 8.54114 27.9579C9.16629 25.3207 9.66665 19.9212 6.47793 13.0774C6.97894 12.5752 9.16696 11.3196 15.1686 11.194L15.1691 11.1933Z" fill="url(#paint0_linear_6247_23376)"/>
<path d="M43.616 32.9814C38.8643 32.9814 32.7377 37.3138 28.2355 34.5509C25.047 32.6045 21.4209 32.1649 17.9198 33.1697C8.47971 35.8069 7.97929 35.1791 7.66642 35.8696C7.60403 35.9952 7.60403 36.1835 7.66642 36.3718C8.10409 37.9413 9.22929 38.946 10.7925 39.1973C17.5446 40.139 40.2398 41.3951 44.4283 35.4927C45.1162 34.551 44.9911 33.7345 44.9911 33.6719C44.9287 33.4836 44.8036 33.295 44.6785 33.2323C44.366 33.044 44.0534 32.9814 43.6157 32.9814L43.616 32.9814ZM10.9802 37.9417C9.97976 37.8161 9.41734 37.1882 9.10447 36.5604C10.5426 36.2465 14.1059 35.493 18.2325 34.3001C21.3586 33.421 24.6721 33.7349 27.6104 35.5558C32.737 38.6952 39.1145 34.1745 43.6781 34.1745H43.8032C41.6152 40.0138 17.2945 38.8208 10.9798 37.9418L10.9802 37.9417Z" fill="url(#paint1_linear_6247_23376)"/>
<defs>
<linearGradient id="paint0_linear_6247_23376" x1="37.6624" y1="31.4797" x2="37.6624" y2="37.4879" gradientUnits="userSpaceOnUse">
<stop stop-color="#ED3040"/>
<stop offset="1" stop-color="#2D23F4"/>
</linearGradient>
<linearGradient id="paint1_linear_6247_23376" x1="37.6624" y1="31.4797" x2="37.6624" y2="37.4879" gradientUnits="userSpaceOnUse">
<stop stop-color="#ED3040"/>
<stop offset="1" stop-color="#2D23F4"/>
</linearGradient>
</defs>
</svg>
