<svg width="50" height="50" viewBox="0 0 50 50" fill="none" xmlns="http://www.w3.org/2000/svg">
<path d="M25.5233 21.9224C24.7519 21.1574 24.3272 20.14 24.3272 19.0578C24.3272 16.824 26.1589 15.0065 28.4102 15.0065C29.5005 15.0065 30.5266 15.4279 31.2979 16.1936L32.2479 15.2503C31.222 14.2336 29.8593 13.6737 28.4102 13.6737C25.4183 13.6737 22.9839 16.089 22.9839 19.0578C22.9839 20.4959 23.5479 21.848 24.5732 22.865L25.5233 21.9224Z" fill="url(#paint0_linear_6247_23364)"/>
<path d="M25.6589 25.8968C25.6589 26.853 25.2836 27.7519 24.6029 28.428L21.8216 31.1874L22.7716 32.13L25.553 29.3706C26.4876 28.4429 27.0026 27.2089 27.0026 25.8972V25.2301H25.6593L25.6589 25.8968Z" fill="url(#paint1_linear_6247_23364)"/>
<path d="M19.8042 33.1894L21.1489 31.8552L22.0989 32.7978L20.7542 34.1321L19.8042 33.1894Z" fill="url(#paint2_linear_6247_23364)"/>
<path d="M25.1973 23.4845L26.1473 22.5419L26.8196 23.209L25.8696 24.1517L25.1973 23.4845Z" fill="url(#paint3_linear_6247_23364)"/>
<path d="M17.6035 13.673H18.9482V15.0059H17.6035V13.673Z" fill="url(#paint4_linear_6247_23364)"/>
<path d="M18.9483 16.3426H20.293V17.6755H18.9483V16.3426Z" fill="url(#paint5_linear_6247_23364)"/>
<path d="M20.2932 13.673H21.6379V15.0059H20.2932V13.673Z" fill="url(#paint6_linear_6247_23364)"/>
<path d="M6.84383 27.2922L13.6318 20.5569C13.7945 21.6613 14.3018 22.6816 15.1112 23.4846C15.1772 23.5501 15.2378 23.6206 15.2985 23.6904L13.7662 25.2108C13.6402 25.3358 13.5695 25.5055 13.5695 25.6821V28.3509C13.5695 28.719 13.8698 29.0173 14.2412 29.0173H14.9135C15.0918 29.0173 15.2625 28.9469 15.3885 28.8222L20.0725 24.1752C20.3895 23.8604 20.8282 23.6798 21.2775 23.6798C22.2181 23.6798 22.9831 24.4392 22.9831 25.3722C22.9831 25.8177 22.8015 26.2539 22.4838 26.5688L16.4558 32.5497C16.3298 32.6747 16.2591 32.8444 16.2591 33.021L16.2595 45H17.6028V40.9256C19.1508 43.3678 21.8834 44.9993 24.9998 44.9993C28.1162 44.9993 30.8495 43.3677 32.3974 40.9253V45H33.7407L33.7411 27.0161C33.7411 26.8395 33.6701 26.6698 33.5444 26.5448L27.5164 20.5639C27.1944 20.2441 27.0164 19.8191 27.0164 19.367C27.0164 18.4339 27.782 17.6749 28.7227 17.6749C29.178 17.6749 29.6063 17.8509 29.9284 18.1704L34.6117 22.8173C34.7377 22.9423 34.9084 23.0124 35.0867 23.0124H35.759C36.1304 23.0124 36.4307 22.7141 36.4307 22.346V19.6772C36.4307 19.5006 36.3597 19.3309 36.234 19.2059L33.7414 16.7326V11.9454L43.157 21.2879L43.1567 44.9998H44.5V21.0119C44.5 20.8353 44.429 20.6656 44.3033 20.5406L33.7408 10.061V7.33469C33.7408 6.04745 32.6855 5 31.3878 5C30.7292 5 30.1344 5.27187 29.7072 5.70647C29.2795 5.27188 28.6849 5 28.0259 5C27.3668 5 26.7722 5.27187 26.3445 5.70647C25.9169 5.27188 25.3225 5 24.6639 5C24.0049 5 23.4103 5.27187 22.9826 5.70647C22.5549 5.27188 21.9606 5 21.302 5C20.4906 5 19.774 5.40946 19.351 6.03094C18.7387 5.39856 17.8827 5 16.931 5C15.0777 5 13.5697 6.49595 13.5697 8.33524V18.7336L5.697 26.5451C5.571 26.6701 5.5 26.8398 5.5 27.0164V44.9994H6.84331L6.84383 27.2922ZM14.9131 27.4086V25.9576L16.0048 24.8744C16.1504 25.2597 16.2344 25.6669 16.2514 26.0806L14.9131 27.4086ZM35.0867 19.953V21.404L33.7408 20.0681V18.6175L35.0867 19.953ZM14.9131 8.33538C14.9131 7.23137 15.8184 6.33311 16.9311 6.33311C18.0437 6.33311 18.949 7.23137 18.949 8.33538V12.3383H20.2923V7.3345C20.2923 6.78216 20.745 6.33302 21.302 6.33302C21.8583 6.33302 22.311 6.78217 22.311 7.3345V12.3383H23.6543V7.3345C23.6543 6.78216 24.107 6.33302 24.664 6.33302C25.2203 6.33302 25.6729 6.78217 25.6729 7.3345V12.3383H27.0162V7.3345C27.0162 6.78216 27.4689 6.33302 28.0259 6.33302C28.5829 6.33302 29.0356 6.78217 29.0356 7.3345V12.3383H30.3789V7.3345C30.3789 6.78216 30.8315 6.33302 31.3879 6.33302C31.9449 6.33302 32.3975 6.78217 32.3975 7.3345V18.7353L30.8782 17.2278C30.3022 16.6566 29.5365 16.3424 28.7225 16.3424C27.0412 16.3424 25.6728 17.6994 25.6728 19.3674C25.6728 20.1754 25.9905 20.9355 26.5662 21.507L32.3975 27.2927V36.327C32.3975 40.3739 29.0788 43.6665 24.9999 43.6665C20.9206 43.6665 17.6026 40.3739 17.6026 36.327V33.2974L23.4339 27.5117C24.0099 26.9399 24.3265 26.1801 24.3265 25.3724C24.3265 23.7042 22.9589 22.3472 21.2776 22.3472C20.4629 22.3472 19.6966 22.662 19.1219 23.2332L17.4276 24.9144C17.1949 24.0257 16.733 23.209 16.0609 22.5423C15.3203 21.8077 14.9129 20.831 14.9129 19.7918L14.9131 8.33538Z" fill="url(#paint7_linear_6247_23364)"/>
<defs>
<linearGradient id="paint0_linear_6247_23364" x1="0" y1="0" x2="0" y2="1" gradientUnits="objectBoundingBox">
<stop stop-color="#ED3040"/>
<stop offset="1" stop-color="#2D23F4"/>
</linearGradient>
<linearGradient id="paint1_linear_6247_23364" x1="0" y1="0" x2="0" y2="1" gradientUnits="objectBoundingBox">
<stop stop-color="#ED3040"/>
<stop offset="1" stop-color="#2D23F4"/>
</linearGradient>
<linearGradient id="paint2_linear_6247_23364" x1="0" y1="0" x2="0" y2="1" gradientUnits="objectBoundingBox">
<stop stop-color="#ED3040"/>
<stop offset="1" stop-color="#2D23F4"/>
</linearGradient>
<linearGradient id="paint3_linear_6247_23364" x1="0" y1="0" x2="0" y2="1" gradientUnits="objectBoundingBox">
<stop stop-color="#ED3040"/>
<stop offset="1" stop-color="#2D23F4"/>
</linearGradient>
<linearGradient id="paint4_linear_6247_23364" x1="0" y1="0" x2="0" y2="1" gradientUnits="objectBoundingBox">
<stop stop-color="#ED3040"/>
<stop offset="1" stop-color="#2D23F4"/>
</linearGradient>
<linearGradient id="paint5_linear_6247_23364" x1="0" y1="0" x2="0" y2="1" gradientUnits="objectBoundingBox">
<stop stop-color="#ED3040"/>
<stop offset="1" stop-color="#2D23F4"/>
</linearGradient>
<linearGradient id="paint6_linear_6247_23364" x1="0" y1="0" x2="0" y2="1" gradientUnits="objectBoundingBox">
<stop stop-color="#ED3040"/>
<stop offset="1" stop-color="#2D23F4"/>
</linearGradient>
<linearGradient id="paint7_linear_6247_23364" x1="0" y1="0" x2="0" y2="1" gradientUnits="objectBoundingBox">
<stop stop-color="#ED3040"/>
<stop offset="1" stop-color="#2D23F4"/>
</linearGradient>
</defs>
</svg>
