<svg width="50" height="50" viewBox="0 0 50 50" fill="none" xmlns="http://www.w3.org/2000/svg">
<path d="M16.5769 8.58824C16.4101 8.80062 16.3873 9.09405 16.5191 9.33024L17.8782 11.7379C16.5664 13.3499 15.7724 15.4141 15.7724 17.6689V28.12C15.76 29.0212 17.1029 29.0212 17.0904 28.12V17.6689C17.0904 15.9123 17.6464 14.3019 18.5837 12.988L19.1554 14.0009C19.2728 14.2077 19.49 14.3351 19.7258 14.3357H30.2734C30.5086 14.3351 30.7254 14.2074 30.8425 14.0009L31.4155 12.9867C32.3531 14.301 32.9088 15.912 32.9088 17.6689V28.12C32.8964 29.0212 34.2393 29.0212 34.2272 28.12V17.6689C34.2272 15.4138 33.4334 13.3485 32.1213 11.7369L33.4792 9.33058C33.6124 9.09538 33.5918 8.80195 33.4266 8.58858C33.4266 8.58858 30.5472 5 25.0005 5C19.4531 5 16.5778 8.58858 16.5778 8.58858L16.5769 8.58824ZM24.9997 6.33449C29.5509 6.33449 32.0937 9.09738 32.0937 9.09738L29.8887 13.0022H20.1096L17.9047 9.09738C17.9047 9.09738 20.4488 6.33449 25 6.33449H24.9997ZM24.342 8.33715V9.00107H23.6804C22.8006 9.00107 22.8006 10.3356 23.6804 10.3356H24.342V11.0048C24.342 11.8947 25.6613 11.8947 25.6613 11.0048V10.3356H26.3177C27.1975 10.3356 27.1975 9.00107 26.3177 9.00107H25.6613V8.33715C25.6688 7.9587 25.3634 7.65006 24.9892 7.65735C24.6246 7.66495 24.3345 7.96831 24.3417 8.33715H24.342ZM25.691 16.1273C25.691 16.1273 25.1576 17.6675 23.6816 17.6675H19.726C19.362 17.6689 19.0679 17.9686 19.0696 18.3368V22.3379C19.0696 24.111 19.8345 25.7002 21.0443 26.7988V28.3327C20.8311 28.3426 20.6826 28.4263 20.5822 28.5279L19.2629 29.8624C19.0601 30.0652 19.0094 30.3764 19.1369 30.6345L21.1169 34.6356C21.2896 34.9823 21.7177 35.1073 22.0464 34.9065L24.343 33.5132V43.6662L16.432 43.6665V38.9935C16.432 38.1043 15.114 38.1043 15.114 38.9935V43.6665H11.8183V38.3332C11.8183 34.9011 14.1132 32.0505 17.2366 31.2345C18.0898 31.0033 17.7448 29.7157 16.9069 29.943C13.2129 30.9083 10.5 34.2984 10.5 38.3336V44.3334C10.5 44.7016 10.795 45 11.159 45H38.841C39.205 45 39.5 44.7016 39.5 44.3334V38.3336C39.5 34.3 36.7901 30.911 33.0983 29.9444C32.2319 29.6936 31.8898 31.0281 32.7673 31.2348C35.8887 32.0522 38.1817 34.9028 38.1817 38.3336V43.6669H34.8863V38.9939C34.8863 38.1047 33.567 38.1047 33.567 38.9939V43.6669L25.6618 43.6665V33.516L27.9571 34.9067C28.2858 35.1075 28.7139 34.9828 28.8866 34.6358L30.8627 30.6347C30.9909 30.3777 30.9415 30.0664 30.7404 29.8626L29.422 28.5281C29.2981 28.4028 29.13 28.3326 28.9547 28.333V26.799C30.1648 25.7007 30.9308 24.1116 30.9308 22.3381V18.337C30.9321 17.9688 30.6384 17.6691 30.2744 17.6678H28.9564C27.4876 17.6678 26.9418 16.1275 26.9418 16.1275C26.8492 15.843 26.581 15.6565 26.2854 15.6704C26.013 15.6829 25.7772 15.8652 25.6921 16.1275L25.691 16.1273ZM26.318 17.6714C26.8099 18.3559 27.6916 19.0009 28.9557 19.0009H29.612V22.3381C29.612 24.9349 27.567 27.0035 24.9996 27.0035C22.4323 27.0035 20.3872 24.9349 20.3872 22.3381V19.0009H23.6813C24.9473 19.0009 25.8261 18.3565 26.3176 17.6714H26.318ZM22.3623 27.7152C23.1577 28.1162 24.0512 28.3365 25 28.3365C25.9481 28.3365 26.8413 28.1158 27.6363 27.7152V29.2426L25 31.4666L22.3623 29.2426V27.7152ZM21.0878 29.9015L23.8605 32.2439L21.9774 33.3912L20.5279 30.4681L21.0878 29.9015ZM28.9157 29.9015L29.4704 30.4678L28.021 33.3909L26.1378 32.2436L28.9157 29.9015ZM27.6363 39.6692H31.592C32.4901 39.6894 32.4901 38.3162 31.592 38.3361L27.602 38.3358C26.7085 38.3993 26.7749 39.6954 27.636 39.6689L27.6363 39.6692Z" fill="url(#paint0_linear_6247_23358)"/>
<defs>
<linearGradient id="paint0_linear_6247_23358" x1="34.1803" y1="33.6397" x2="34.1803" y2="41.6506" gradientUnits="userSpaceOnUse">
<stop stop-color="#ED3040"/>
<stop offset="1" stop-color="#2D23F4"/>
</linearGradient>
</defs>
</svg>
