<svg width="50" height="50" viewBox="0 0 50 50" fill="none" xmlns="http://www.w3.org/2000/svg">
<path d="M21.3521 19.0256H20.1228C19.4212 19.0256 18.2618 17.829 18.2671 17.0785C18.4579 13.8883 17.9831 10.3429 18.2554 7.19391C18.3529 6.06708 19.223 5.18444 20.357 5.0967C24.3068 4.79121 28.6571 5.32714 32.6493 5.10727C33.6486 5.33031 34.418 6.17702 34.5198 7.19814C34.8208 10.2393 34.2972 13.7572 34.5198 16.8491C34.4096 17.9749 33.5702 18.9125 32.4183 19.0256L25.8508 19.0425L22.2296 22.5509C21.7326 22.7084 21.4295 22.4854 21.3595 21.9864C21.2323 21.0858 21.439 19.9526 21.3521 19.0267V19.0256ZM22.5412 18.274C22.6397 18.7328 22.5412 19.9347 22.5412 20.4896C22.5412 20.5224 22.3366 20.6281 22.5793 20.608C23.4271 19.9537 24.2803 18.662 25.1185 18.0764C25.2542 17.9812 25.3909 17.9157 25.5509 17.8745C27.9195 17.7529 30.3178 17.9432 32.6726 17.7772C33.106 17.5542 33.2873 17.2529 33.3328 16.7741C33.6169 13.7678 33.1113 10.3249 33.3328 7.27213C33.3053 6.69286 32.8284 6.25524 32.2582 6.20767L20.5933 6.2045C19.8017 6.27427 19.4297 6.74889 19.364 7.50997C19.1096 10.4655 19.5314 13.8196 19.4021 16.8142C19.4922 17.3406 19.7974 17.773 20.357 17.8406C20.8402 17.8988 22.4013 17.6292 22.5401 18.274H22.5412Z" fill="url(#paint0_linear_6247_23380)"/>
<path d="M42.1162 26.7221C43.8119 26.5001 44.7953 28.2358 44.6724 29.7463C44.5431 31.3425 42.9206 34.2219 40.9823 33.4302C40.6209 33.2822 40.2669 33.0042 40.4503 32.5782C40.7385 31.9059 41.3076 32.4207 41.6976 32.4048C42.5507 32.371 43.4081 30.5539 43.4833 29.8266C43.5745 28.9398 43.3191 27.7273 42.1809 27.8943C41.7072 27.9641 41.4677 28.5835 40.9505 28.2411C40.0465 27.6438 41.4751 26.8066 42.1162 26.7231V26.7221Z" fill="url(#paint1_linear_6247_23380)"/>
<path d="M21.669 35.6426C21.7463 36.3054 22.1321 36.6574 21.7039 37.2979C21.6425 37.3889 21.3542 37.6309 21.3542 37.6595C21.3542 37.688 21.5089 37.7874 21.5439 37.8635C21.7527 38.3159 21.7495 38.9205 21.4305 39.3201C21.3203 39.4586 21.0776 39.5759 21.0374 39.6605C20.9017 39.9459 20.9293 40.7725 20.7915 41.2154C19.9246 44.023 17.0356 41.837 15.1609 42.3253C14.2474 42.5632 14.1128 43.9796 13.7514 44.6382C13.39 45.2967 12.5496 44.9743 12.6408 44.3263C12.7266 43.7196 13.4155 42.2524 13.851 41.8105C15.4216 40.2186 17.5316 41.7482 19.1637 41.4924C19.9362 41.3708 19.7201 39.6943 19.9627 39.1235C20.1132 38.7683 20.4259 38.7694 20.5573 38.4523C20.5 38.2028 18.8966 38.1045 19.3301 37.1468C19.4816 36.8128 20.3814 36.7483 20.7162 36.6701C20.3464 35.6669 20.2711 34.8657 21.474 34.539C21.7039 34.4767 22.8729 34.3593 22.9301 34.2906C23.0308 34.1712 22.8527 33.8223 22.7923 33.6891C22.2953 32.5983 20.8328 31.1575 20.8731 29.908C20.9473 27.592 21.4199 26.1428 20.1736 23.9578C18.3159 20.7 14.0471 19.2455 10.4439 19.5023C9.87052 19.5436 8.64119 19.9452 8.22893 19.8956C7.70647 19.8332 7.5634 19.1725 7.98095 18.866C8.20032 18.7053 8.98561 18.5668 9.29083 18.5108C14.8356 17.4876 21.8523 20.7084 22.2264 26.8965C22.2858 27.8732 22.0908 28.7358 22.0611 29.666C22.0176 31.0349 23.5925 32.3298 24.0058 33.5877C24.5494 35.242 22.9513 35.5961 21.6669 35.6426H21.669Z" fill="url(#paint2_linear_6247_23380)"/>
<path d="M13.1643 35.5866C14.2559 35.539 16.4475 35.631 17.485 35.8995C18.3169 36.114 18.1219 37.0728 17.3462 37.0739C16.6298 37.0739 15.5901 36.7916 14.8059 36.7514C9.82071 36.4935 7.20201 37.9798 6.30227 42.9849C6.20477 43.5283 6.31392 44.8972 5.677 44.9775C4.94682 45.0695 4.98391 44.45 5.01146 43.912C5.27217 38.8307 8.03288 35.8085 13.1654 35.5866H13.1643Z" fill="url(#paint3_linear_6247_23380)"/>
<path d="M13.8002 37.4068C14.6967 37.3339 16.4623 37.299 17.3122 37.4967C17.8792 37.6288 18.0816 38.3529 17.5242 38.5897C17.1173 38.763 15.9526 38.5009 15.4449 38.4882C12.1904 38.4058 9.6077 39.3455 8.99833 42.8253C8.91779 43.2851 8.92203 44.468 8.73127 44.7745C8.50553 45.1371 7.79231 45.0494 7.71282 44.5399C7.61215 43.8961 7.82516 42.7059 7.98519 42.0516C8.70477 39.1119 10.8466 37.6478 13.8002 37.4068Z" fill="url(#paint4_linear_6247_23380)"/>
<path d="M10.0676 26.7221C10.783 26.6237 12.5888 27.2421 11.9487 28.1237C11.4973 28.7453 11.0564 27.9948 10.6654 27.9049C9.62889 27.6681 9.13716 28.8002 9.223 29.6596C9.30248 30.4641 10.198 32.4545 11.1581 32.4038C11.4475 32.389 12.1225 31.9545 12.2921 32.5338C12.5804 33.5168 11.1221 33.6944 10.428 33.4428C8.03923 32.5782 6.90528 27.1544 10.0676 26.7221Z" fill="url(#paint5_linear_6247_23380)"/>
<path d="M32.0611 36.6701C32.45 36.7768 33.3699 36.8138 33.4738 37.2821C33.6815 38.225 32.2858 38.0855 32.218 38.5284C32.1925 38.6933 32.4829 38.7007 32.6185 38.8444C33.1018 39.3582 32.8125 41.189 33.4113 41.4554C33.9952 41.7154 35.7915 41.1383 36.5397 41.097C38.5618 40.9881 39.4234 42.0294 39.9225 43.8612L44.6173 43.8866C45.0751 43.9701 45.1324 44.7375 44.7339 44.9194C42.9725 45.0525 41.1741 44.9437 39.4 44.9764C38.815 44.8654 38.6561 43.0061 37.9248 42.4913C36.9763 41.8243 34.7657 42.7883 33.6041 42.6868C32.4628 42.5875 32.0601 41.7217 31.8428 40.7249C31.7792 40.4332 31.8205 39.9459 31.7008 39.6795C31.5715 39.393 31.1306 39.2461 31.0458 38.6679C30.978 38.207 31.3648 37.6806 31.3415 37.5865C31.3309 37.5432 30.9335 37.3022 30.8742 36.9438C30.7926 36.4491 31.1179 35.9904 31.0946 35.7578C31.0692 35.5105 29.1489 35.7124 28.7493 34.7113C28.2714 33.5147 29.7455 32.0306 30.2987 30.9979C30.9282 29.8235 30.5923 29.7696 30.5499 28.5645C30.5011 27.1745 30.534 25.8362 31.0268 24.5234C32.5857 20.3702 37.6938 18.0848 41.9393 18.311C42.4342 18.3374 44.4689 18.607 44.7943 18.866C45.1408 19.1419 45.0423 19.8533 44.5463 19.8956C39.3428 18.3628 31.8619 21.0678 31.6595 27.2125C31.6277 28.1935 32.0251 29.7231 31.7633 30.5613C31.5365 31.2896 29.7349 33.8836 29.7773 34.1817C29.8282 34.5327 31.7676 34.2674 32.1777 35.1669C32.4363 35.7346 32.113 36.1056 32.0579 36.6701H32.0611Z" fill="url(#paint6_linear_6247_23380)"/>
<path d="M24.8218 35.5749C25.2923 35.4904 26.0003 36.4671 26.2059 36.854C26.9996 38.3444 26.8576 40.2789 25.7555 41.578C25.4566 41.93 24.9076 42.5251 24.4859 41.9723C24.0641 41.4194 24.7942 41.0156 25.0655 40.5738C25.7004 39.5442 25.7226 38.3508 25.1217 37.3011C24.9765 37.0464 24.3884 36.4523 24.365 36.3107C24.3142 36.0094 24.507 35.632 24.8218 35.5749Z" fill="url(#paint7_linear_6247_23380)"/>
<path d="M23.4536 37.0221C23.9856 37.0199 24.5834 37.9121 24.6639 38.391C24.7826 39.0865 24.6575 39.7271 24.205 40.2693C23.5374 41.0695 22.6101 40.6679 22.9958 39.8539C23.1399 39.5516 23.5967 39.4882 23.5755 38.8497C23.5543 38.2113 22.9259 38.1256 22.929 37.5802C22.9312 37.2789 23.1452 37.0242 23.4526 37.0231L23.4536 37.0221Z" fill="url(#paint8_linear_6247_23380)"/>
<path d="M21.5694 7.72984C22.3207 7.59559 25.7544 7.60722 26.5408 7.71821C27.3706 7.83555 27.361 8.81439 26.6287 8.89895C25.0391 9.08394 23.1007 8.75942 21.4729 8.89578C20.8328 8.66217 20.8858 7.8514 21.5694 7.72984Z" fill="url(#paint9_linear_6247_23380)"/>
<path d="M21.4878 12.7128L31.0702 12.6959C31.9138 12.7044 31.9996 13.7868 31.1518 13.8841H21.6287C20.8858 13.7974 20.7894 12.9486 21.4888 12.7118L21.4878 12.7128Z" fill="url(#paint10_linear_6247_23380)"/>
<path d="M31.562 11.2477C31.439 11.3471 31.2991 11.3418 31.1518 11.3534C28.0848 11.6135 24.6544 11.1515 21.5482 11.3513C20.8424 11.3196 20.8466 10.27 21.5482 10.2404L31.2313 10.2382C31.6923 10.2731 31.9286 10.9507 31.5609 11.2467L31.562 11.2477Z" fill="url(#paint11_linear_6247_23380)"/>
<path d="M21.4083 15.2445L31.2324 15.2233C31.917 15.3132 31.8968 16.218 31.2324 16.3396L21.5492 16.3375C20.924 16.3555 20.8349 15.3766 21.4093 15.2455L21.4083 15.2445Z" fill="url(#paint12_linear_6247_23380)"/>
<defs>
<linearGradient id="paint0_linear_6247_23380" x1="37.6624" y1="33.6397" x2="37.6624" y2="41.6506" gradientUnits="userSpaceOnUse">
<stop stop-color="#ED3040"/>
<stop offset="1" stop-color="#2D23F4"/>
</linearGradient>
<linearGradient id="paint1_linear_6247_23380" x1="37.6624" y1="33.6397" x2="37.6624" y2="41.6506" gradientUnits="userSpaceOnUse">
<stop stop-color="#ED3040"/>
<stop offset="1" stop-color="#2D23F4"/>
</linearGradient>
<linearGradient id="paint2_linear_6247_23380" x1="37.6624" y1="33.6397" x2="37.6624" y2="41.6506" gradientUnits="userSpaceOnUse">
<stop stop-color="#ED3040"/>
<stop offset="1" stop-color="#2D23F4"/>
</linearGradient>
<linearGradient id="paint3_linear_6247_23380" x1="37.6624" y1="33.6397" x2="37.6624" y2="41.6506" gradientUnits="userSpaceOnUse">
<stop stop-color="#ED3040"/>
<stop offset="1" stop-color="#2D23F4"/>
</linearGradient>
<linearGradient id="paint4_linear_6247_23380" x1="37.6624" y1="33.6397" x2="37.6624" y2="41.6506" gradientUnits="userSpaceOnUse">
<stop stop-color="#ED3040"/>
<stop offset="1" stop-color="#2D23F4"/>
</linearGradient>
<linearGradient id="paint5_linear_6247_23380" x1="37.6624" y1="33.6397" x2="37.6624" y2="41.6506" gradientUnits="userSpaceOnUse">
<stop stop-color="#ED3040"/>
<stop offset="1" stop-color="#2D23F4"/>
</linearGradient>
<linearGradient id="paint6_linear_6247_23380" x1="37.6624" y1="33.6397" x2="37.6624" y2="41.6506" gradientUnits="userSpaceOnUse">
<stop stop-color="#ED3040"/>
<stop offset="1" stop-color="#2D23F4"/>
</linearGradient>
<linearGradient id="paint7_linear_6247_23380" x1="37.6624" y1="33.6397" x2="37.6624" y2="41.6506" gradientUnits="userSpaceOnUse">
<stop stop-color="#ED3040"/>
<stop offset="1" stop-color="#2D23F4"/>
</linearGradient>
<linearGradient id="paint8_linear_6247_23380" x1="37.6624" y1="33.6397" x2="37.6624" y2="41.6506" gradientUnits="userSpaceOnUse">
<stop stop-color="#ED3040"/>
<stop offset="1" stop-color="#2D23F4"/>
</linearGradient>
<linearGradient id="paint9_linear_6247_23380" x1="37.6624" y1="33.6397" x2="37.6624" y2="41.6506" gradientUnits="userSpaceOnUse">
<stop stop-color="#ED3040"/>
<stop offset="1" stop-color="#2D23F4"/>
</linearGradient>
<linearGradient id="paint10_linear_6247_23380" x1="37.6624" y1="33.6397" x2="37.6624" y2="41.6506" gradientUnits="userSpaceOnUse">
<stop stop-color="#ED3040"/>
<stop offset="1" stop-color="#2D23F4"/>
</linearGradient>
<linearGradient id="paint11_linear_6247_23380" x1="37.6624" y1="33.6397" x2="37.6624" y2="41.6506" gradientUnits="userSpaceOnUse">
<stop stop-color="#ED3040"/>
<stop offset="1" stop-color="#2D23F4"/>
</linearGradient>
<linearGradient id="paint12_linear_6247_23380" x1="37.6624" y1="33.6397" x2="37.6624" y2="41.6506" gradientUnits="userSpaceOnUse">
<stop stop-color="#ED3040"/>
<stop offset="1" stop-color="#2D23F4"/>
</linearGradient>
</defs>
</svg>
