<svg width="101" height="95" viewBox="0 0 101 95" fill="none" xmlns="http://www.w3.org/2000/svg">
<path d="M0 0H101V95H0V0Z" fill="#000066"/>
<path fill-rule="evenodd" clip-rule="evenodd" d="M10.6826 72.8226L18.7038 75.8651L21.3512 67.6858L23.9788 75.8651L32.0198 72.8226L27.2584 79.9942L34.6474 84.3802L26.0928 85.1112L27.2782 93.6264L21.3512 87.403L15.4242 93.6264L16.6096 85.131L8.03516 84.3802L15.4439 79.9942L10.6826 72.8226ZM79.6532 94.1203L75.8995 94.4364L76.4329 98.1507L73.8645 95.444L71.2962 98.1507L71.7506 94.4364L68.0363 94.1203L71.2566 92.2236L69.1822 89.1021L72.6791 90.4258L73.825 86.8696L74.9511 90.4258L78.4678 89.1021L76.4131 92.2236L79.6532 94.1203ZM79.6137 38.8015L75.8995 39.1176L76.4131 42.8319L73.8448 40.1252L71.2764 42.8319L71.7506 39.1176L68.0363 38.8015L71.2566 36.9049L69.1822 33.7833L72.6791 35.107L73.825 31.5508L74.9511 35.107L78.4678 33.7833L76.4131 36.9049L79.6137 38.8015ZM58.8692 61.2846L55.1549 61.6007L55.6686 65.2952L53.1002 62.5886L50.5318 65.2952L51.0258 61.6007L47.3115 61.2846L50.5318 59.3682L48.4574 56.2664L51.9543 57.5901L53.1002 54.0339L54.2263 57.5901L57.7233 56.2664L55.6686 59.3682L58.8692 61.2846ZM98.027 55.7528L94.3127 56.0689L94.8264 59.7634L92.258 57.0567L89.6896 59.7634L90.1836 56.0689L86.4693 55.7528L89.6896 53.8364L87.6152 50.7345L91.1121 52.0583L92.258 48.502L93.4039 52.0583L96.8811 50.7345L94.8264 53.8364L98.027 55.7528ZM82.1426 70.1356L80.1076 71.4001L80.6806 69.0688L78.8432 67.5278L81.214 67.3499L82.1426 65.1372L83.0119 67.3697L85.4024 67.5673L83.5848 69.0885L84.1578 71.4198" fill="white"/>
<path d="M-0.164062 0H50.4131V50.5772H-0.164062V0Z" fill="#000066"/>
<path d="M50.4131 0V6.32215L31.6442 25.2886L50.4131 43.7611V50.5772H43.7946L24.927 32.0059L6.55322 50.5772H-0.164062V43.8599L18.2097 25.3874L-0.164062 7.30998V0H5.96052L24.927 18.5713L43.3007 0H50.4131Z" fill="white"/>
<path d="M18.0121 32.0059L19.0987 35.3645L3.98485 50.5772H-0.164062V50.2808L18.0121 32.0059ZM30.2613 30.8205L35.5956 31.6107L50.4131 46.1319V50.5772L30.2613 30.8205ZM50.4131 0L31.4467 19.3616L31.0515 15.0151L45.8691 0H50.4131ZM-0.164062 0.0987836L18.9012 18.7689L13.0729 17.9786L-0.164062 4.84039V0.0987836Z" fill="#C8102E"/>
<path d="M17.2218 0V50.5772H33.0272V0H17.2218ZM-0.164062 17.3859V33.1913H50.4131V17.3859H-0.164062Z" fill="white"/>
<path d="M-0.164062 20.547V30.0302H50.4131V20.547H-0.164062ZM20.3829 0V50.5772H29.8661V0H20.3829Z" fill="#C8102E"/>
</svg>
