<svg width="101" height="95" viewBox="0 0 101 95" fill="none" xmlns="http://www.w3.org/2000/svg">
<mask id="mask0_673_5139" style="mask-type:alpha" maskUnits="userSpaceOnUse" x="-1" y="0" width="102" height="96">
<rect x="-0.164062" width="101.154" height="96" rx="31.1108" fill="white"/>
<rect x="0.307313" y="0.471376" width="100.212" height="95.0573" rx="30.6394" stroke="#1E417C" stroke-opacity="0.2" stroke-width="0.942751"/>
</mask>
<g mask="url(#mask0_673_5139)">
<path d="M14.6543 -2.57715H86.2329V98.5772H14.6543V-2.57715Z" fill="white"/>
<path d="M-20.7832 -2.57715H14.9962V98.5772H-20.7832V-2.57715ZM86.5748 -2.57715H122.354V98.5772H86.5748V-2.57715ZM25.7043 46.301L22.9384 47.2493L35.8593 58.6094C36.8471 61.5334 35.5234 62.3829 34.6739 63.9239L48.7012 62.1458L48.3455 76.2719L51.2695 76.1731L50.6176 62.1656L64.6843 63.8252C63.815 61.9878 63.0445 61.0197 63.8348 58.0957L76.7557 47.3283L74.5034 46.5183C72.6463 45.076 75.2937 39.6429 75.6888 36.2053C75.6888 36.2053 68.1615 38.7934 67.6676 37.4302L65.7117 33.7752L58.8759 41.2828C58.1251 41.4803 57.809 41.1642 57.6312 40.532L60.7923 24.7859L55.7741 27.6111C55.3592 27.7889 54.9443 27.6111 54.6677 27.1369L49.8273 17.4562L44.8486 27.5123C44.4732 27.8679 44.0978 27.9075 43.7817 27.6704L39.0006 24.9835L41.8653 40.6308C41.648 41.2235 41.0948 41.4211 40.4626 41.0852L33.8836 33.6171C33.0341 35.0001 32.4414 37.2524 31.3153 37.7661C30.1891 38.2205 26.3761 36.798 23.8275 36.2448C24.6968 39.3861 27.4232 44.6019 25.7043 46.3207V46.301Z" fill="#D52B1E"/>
</g>
</svg>
