<svg width="101" height="95" viewBox="0 0 101 95" fill="none" xmlns="http://www.w3.org/2000/svg">
<mask id="mask0_673_5172" style="mask-type:alpha" maskUnits="userSpaceOnUse" x="-1" y="0" width="102" height="96">
<rect x="-0.164062" width="101.154" height="96" rx="21.9285" fill="white"/>
<rect x="0.168187" y="0.33225" width="100.49" height="95.3355" rx="21.5962" stroke="#1E417C" stroke-opacity="0.2" stroke-width="0.6645"/>
</mask>
<g mask="url(#mask0_673_5172)">
<path fill-rule="evenodd" clip-rule="evenodd" d="M-22.0723 0H160.634V7.3875H-22.0723V0ZM-22.0723 14.775H160.634V22.1625H-22.0723V14.775ZM-22.0723 29.5312H160.634V36.9375H-22.0723V29.5312ZM-22.0723 44.3062H160.634V51.6937H-22.0723V44.3062ZM-22.0723 59.0813H160.634V66.4687H-22.0723V59.0813ZM-22.0723 73.8375H160.634V81.225H-22.0723V73.8375ZM-22.0723 88.6125H160.634V96H-22.0723V88.6125Z" fill="#BD3D44"/>
<path fill-rule="evenodd" clip-rule="evenodd" d="M-22.0723 7.3875H160.634V14.775H-22.0723V7.3875ZM-22.0723 22.1625H160.634V29.5312H-22.0723V22.1625ZM-22.0723 36.9187H160.634V44.3062H-22.0723V36.9187ZM-22.0723 51.6937H160.634V59.0813H-22.0723V51.6937ZM-22.0723 66.4687H160.634V73.8562H-22.0723V66.4687ZM-22.0723 81.225H160.634V88.6125H-22.0723V81.225Z" fill="white"/>
<path fill-rule="evenodd" clip-rule="evenodd" d="M-22.0723 0H51.0064V51.6937H-22.0723V0Z" fill="#192F5D"/>
<path fill-rule="evenodd" clip-rule="evenodd" d="M-15.9871 2.2125L-15.3109 4.25625H-13.1699L-14.8977 5.5125L-14.2404 7.575L-15.9871 6.3L-17.715 7.55625L-17.0576 5.5125L-18.8043 4.25625H-16.6256L-15.9871 2.2125ZM-3.7979 2.2125L-3.14055 4.25625H-0.980684L-2.72736 5.5125L-2.07001 7.575L-3.7979 6.3L-5.54458 7.55625L-4.88723 5.5125L-6.61512 4.25625H-4.47404L-3.7979 2.2125ZM8.37249 2.2125L9.04862 4.25625H11.1709L9.44303 5.5125L10.1004 7.575L8.3537 6.3L6.62581 7.55625L7.28316 5.5125L5.53648 4.25625H7.69635L8.37249 2.2125ZM20.5617 2.2125L21.219 4.25625H23.3789L21.6322 5.5125L22.3083 7.575L20.5617 6.3L18.815 7.55625L19.4911 5.5125L17.7444 4.25625H19.8855L20.5617 2.2125ZM32.732 2.2125L33.4082 4.25625H35.5493L33.8214 5.5125L34.4787 7.575L32.732 6.3L31.0041 7.55625L31.6615 5.5125L29.9336 4.25625H32.0747L32.732 2.2125ZM44.9212 2.2125L45.5786 4.25625H47.7384L45.9918 5.5125L46.6679 7.575L44.9212 6.3L43.1745 7.55625L43.8507 5.5125L42.104 4.25625H44.2639L44.9212 2.2125ZM-9.8831 7.3875L-9.22575 9.43125H-7.06588L-8.81255 10.6875L-8.17398 12.7312L-9.86432 11.475L-11.611 12.7312L-10.9912 10.6875L-12.6815 9.43125H-10.5404L-9.8831 7.3875ZM2.28729 7.3875L2.96342 9.43125H5.10451L3.35783 10.6875L4.03396 12.7312L2.28729 11.475L0.540612 12.7312L1.21675 10.6875L-0.52993 9.43125H1.62994L2.28729 7.3875ZM14.4765 7.3875L15.1338 9.43125H17.2937L15.547 10.6875L16.2044 12.7312L14.4765 11.475L12.7298 12.7312L13.3871 10.6875L11.6592 9.43125H13.8003L14.4765 7.3875ZM26.6468 7.3875L27.323 9.43125H29.4641L27.7174 10.6875L28.3935 12.7312L26.6468 11.475L24.919 12.7312L25.5763 10.6875L23.8296 9.43125H26.0083L26.6468 7.3875ZM38.836 7.3875L39.4934 9.43125H41.6532L39.9066 10.6875L40.5639 12.7312L38.836 11.475L37.0893 12.7312L37.7467 10.6875L36.0188 9.43125H38.1599L38.836 7.3875ZM-15.9871 12.5437L-15.3109 14.625H-13.1699L-14.8977 15.8812L-14.2404 17.925L-15.9871 16.65L-17.715 17.925L-17.0576 15.8625L-18.8043 14.6062H-16.6256L-15.9871 12.5437ZM-3.7979 12.5437L-3.14055 14.6062H-0.980684L-2.72736 15.8625L-2.07001 17.9062L-3.7979 16.6312L-5.54458 17.9062L-4.88723 15.8437L-6.61512 14.5875H-4.47404L-3.7979 12.5437ZM8.37249 12.5437L9.04862 14.6062H11.1709L9.44303 15.8625L10.1004 17.9062L8.3537 16.6312L6.62581 17.9062L7.28316 15.8437L5.53648 14.5875H7.69635L8.37249 12.5437ZM20.5617 12.5437L21.219 14.6062H23.3789L21.6322 15.8625L22.3083 17.9062L20.5617 16.6312L18.815 17.9062L19.4911 15.8437L17.7444 14.5875H19.8855L20.5617 12.5437ZM32.732 12.5437L33.4082 14.6062H35.5493L33.8214 15.8625L34.4787 17.9062L32.732 16.6312L31.0041 17.9062L31.6615 15.8437L29.9336 14.5875H32.0747L32.732 12.5437ZM44.9212 12.5437L45.5786 14.6062H47.7384L45.9918 15.8625L46.6679 17.9062L44.9212 16.6312L43.1745 17.9062L43.8507 15.8437L42.104 14.5875H44.2639L44.9212 12.5437ZM-9.8831 17.7187L-9.22575 19.7625H-7.06588L-8.81255 21.0187L-8.1552 23.0812L-9.8831 21.8062L-11.6298 23.0625L-10.9724 21.0187L-12.7003 19.7625H-10.5592L-9.8831 17.7187ZM2.28729 17.7187L2.96342 19.7625H5.10451L3.35783 21.0187L4.03396 23.0812L2.28729 21.8062L0.540612 23.0625L1.21675 21.0187L-0.52993 19.7625H1.62994L2.28729 17.7187ZM14.4765 17.7187L15.1338 19.7625H17.2937L15.547 21.0187L16.2044 23.0812L14.4765 21.8062L12.7298 23.0625L13.3871 21.0187L11.6592 19.7625H13.8003L14.4765 17.7187ZM26.6468 17.7187L27.323 19.7625H29.4641L27.7362 21.0187L28.3935 23.0812L26.6468 21.8062L24.919 23.0625L25.5763 21.0187L23.8296 19.7625H26.0083L26.6468 17.7187ZM38.836 17.7187L39.4934 19.7625H41.6532L39.9066 21.0187L40.5639 23.0812L38.836 21.8062L37.0893 23.0625L37.7467 21.0187L36.0188 19.7625H38.1599L38.836 17.7187ZM-15.9871 22.8937L-15.3109 24.9375H-13.1699L-14.8977 26.1937L-14.2404 28.2562L-15.9871 26.9812L-17.715 28.2375L-17.0576 26.1937L-18.8043 24.9375H-16.6256L-15.9871 22.8937ZM-3.7979 22.8937L-3.14055 24.9375H-0.980684L-2.72736 26.1937L-2.07001 28.2375L-3.7979 26.9812L-5.54458 28.2375L-4.88723 26.1937L-6.61512 24.9375H-4.47404L-3.7979 22.8937ZM8.37249 22.8937L9.04862 24.9375H11.1709L9.44303 26.1937L10.1004 28.2562L8.3537 26.9812L6.62581 28.2375L7.28316 26.1937L5.53648 24.9375H7.69635L8.37249 22.8937ZM20.5617 22.8937L21.219 24.9375H23.3789L21.6322 26.1937L22.3083 28.2562L20.5617 26.9812L18.815 28.2375L19.4911 26.1937L17.7444 24.9375H19.8855L20.5617 22.8937ZM32.732 22.8937L33.4082 24.9375H35.5493L33.8214 26.1937L34.4787 28.2562L32.732 26.9812L31.0041 28.2375L31.6615 26.1937L29.9336 24.9375H32.0747L32.732 22.8937ZM44.9212 22.8937L45.5786 24.9375H47.7384L45.9918 26.1937L46.6679 28.2562L44.9212 26.9812L43.1745 28.2375L43.8507 26.1937L42.104 24.9375H44.2639L44.9212 22.8937ZM-9.8831 28.0687L-9.22575 30.1125H-7.06588L-8.81255 31.3687L-8.1552 33.4125L-9.8831 32.1375L-11.6298 33.4125L-10.9724 31.35L-12.7003 30.0937H-10.5592L-9.8831 28.0687ZM2.28729 28.0687L2.96342 30.1125H5.10451L3.35783 31.3687L4.03396 33.4125L2.28729 32.1375L0.540612 33.4125L1.21675 31.35L-0.52993 30.0937H1.62994L2.28729 28.0687ZM14.4765 28.0687L15.1338 30.1125H17.2937L15.547 31.3687L16.2044 33.4125L14.4765 32.1375L12.7298 33.4125L13.3871 31.35L11.6592 30.0937H13.8003L14.4765 28.0687ZM26.6468 28.0687L27.323 30.1125H29.4641L27.7362 31.3687L28.3935 33.4125L26.6468 32.1375L24.919 33.4125L25.5763 31.35L23.8296 30.0937H26.0083L26.6468 28.0687ZM38.836 28.0687L39.4934 30.1125H41.6532L39.9066 31.3687L40.5639 33.4125L38.836 32.1375L37.0893 33.4125L37.7467 31.35L36.0188 30.0937H38.1599L38.836 28.0687ZM-15.9871 33.225L-15.3109 35.2875H-13.1699L-14.8977 36.5437L-14.2404 38.5687L-15.9871 37.3125L-17.715 38.5687L-17.0576 36.525L-18.8043 35.2687H-16.6256L-15.9871 33.225ZM-3.7979 33.225L-3.14055 35.2875H-0.980684L-2.72736 36.5437L-2.05123 38.5687L-3.7979 37.3125L-5.54458 38.5687L-4.86845 36.525L-6.61512 35.2687H-4.47404L-3.7979 33.225ZM8.37249 33.225L9.04862 35.2875H11.1709L9.44303 36.5437L10.1004 38.5687L8.3537 37.3125L6.62581 38.5687L7.28316 36.525L5.53648 35.2687H7.69635L8.37249 33.225ZM20.5617 33.225L21.219 35.2875H23.3789L21.6322 36.5437L22.3083 38.5687L20.5617 37.3125L18.815 38.5687L19.4911 36.525L17.7444 35.2687H19.8855L20.5617 33.225ZM32.732 33.225L33.4082 35.2875H35.5493L33.8214 36.5437L34.4787 38.5687L32.732 37.3125L31.0041 38.5687L31.6615 36.525L29.9336 35.2687H32.0747L32.732 33.225ZM44.9212 33.225L45.5786 35.2875H47.7384L45.9918 36.5437L46.6679 38.5687L44.9212 37.3125L43.1745 38.5687L43.8507 36.525L42.104 35.2687H44.2639L44.9212 33.225ZM-9.8831 38.4L-9.22575 40.4437H-7.06588L-8.81255 41.7L-8.1552 43.7625L-9.8831 42.4875L-11.6298 43.7437L-10.9724 41.7L-12.7003 40.4437H-10.5592L-9.8831 38.4ZM2.28729 38.4L2.96342 40.4437H5.10451L3.35783 41.7L4.03396 43.7625L2.28729 42.4875L0.540612 43.7437L1.21675 41.7L-0.52993 40.4437H1.62994L2.28729 38.4ZM14.4765 38.4L15.1338 40.4437H17.2937L15.547 41.7L16.2044 43.7625L14.4765 42.4875L12.7298 43.7437L13.3871 41.7L11.6592 40.4437H13.8003L14.4765 38.4ZM26.6468 38.4L27.323 40.4437H29.4641L27.7362 41.7L28.3935 43.7625L26.6468 42.4875L24.919 43.7437L25.5763 41.7L23.8296 40.4437H26.0083L26.6468 38.4ZM38.836 38.4L39.4934 40.4437H41.6532L39.9066 41.7L40.5639 43.7625L38.836 42.4875L37.0893 43.7437L37.7467 41.7L36.0188 40.4437H38.1599L38.836 38.4ZM-15.9871 43.575L-15.3109 45.6187H-13.1699L-14.8977 46.875L-14.2404 48.9187L-15.9871 47.6625L-17.715 48.9187L-17.0576 46.8562L-18.8043 45.6H-16.6256L-15.9871 43.575ZM-3.7979 43.575L-3.14055 45.6187H-0.980684L-2.72736 46.875L-2.05123 48.9187L-3.7979 47.6625L-5.54458 48.9187L-4.86845 46.8562L-6.61512 45.6H-4.47404L-3.7979 43.575ZM8.37249 43.575L9.04862 45.6187H11.1709L9.48059 46.875L10.1379 48.9187L8.39127 47.6625L6.66337 48.9187L7.32072 46.8562L5.57404 45.6H7.73391L8.37249 43.575ZM20.5617 43.575L21.219 45.6187H23.3789L21.6322 46.875L22.3083 48.9187L20.5617 47.6625L18.815 48.9187L19.4911 46.8562L17.7444 45.6H19.8855L20.5617 43.575ZM32.732 43.575L33.4082 45.6187H35.5493L33.8214 46.875L34.4787 48.9187L32.732 47.6625L31.0041 48.9187L31.6615 46.8562L29.9336 45.6H32.0747L32.732 43.575ZM44.9212 43.575L45.5786 45.6187H47.7384L45.9918 46.875L46.6679 48.9187L44.9212 47.6625L43.1745 48.9187L43.8507 46.8562L42.104 45.6H44.2639L44.9212 43.575Z" fill="white"/>
</g>
</svg>
