<svg width="15" height="10" viewBox="0 0 15 10" fill="none" xmlns="http://www.w3.org/2000/svg">
<path d="M0.833336 9.99999C0.597225 9.99999 0.399447 9.91999 0.240003 9.75999C0.0805585 9.59999 0.000558429 9.40221 2.87356e-06 9.16666C-0.000552682 8.9311 0.0794474 8.73332 0.240003 8.57332C0.400558 8.41332 0.598336 8.33332 0.833336 8.33332H14.1667C14.4028 8.33332 14.6008 8.41332 14.7608 8.57332C14.9208 8.73332 15.0006 8.9311 15 9.16666C14.9994 9.40221 14.9194 9.60027 14.76 9.76082C14.6006 9.92138 14.4028 10.0011 14.1667 9.99999H0.833336ZM0.833336 5.83333C0.597225 5.83333 0.399447 5.75333 0.240003 5.59333C0.0805585 5.43333 0.000558429 5.23555 2.87356e-06 4.99999C-0.000552682 4.76444 0.0794474 4.56666 0.240003 4.40666C0.400558 4.24666 0.598336 4.16666 0.833336 4.16666H14.1667C14.4028 4.16666 14.6008 4.24666 14.7608 4.40666C14.9208 4.56666 15.0006 4.76444 15 4.99999C14.9994 5.23555 14.9194 5.43361 14.76 5.59416C14.6006 5.75472 14.4028 5.83444 14.1667 5.83333H0.833336ZM0.833336 1.66666C0.597225 1.66666 0.399447 1.58666 0.240003 1.42667C0.0805585 1.26667 0.000558429 1.06889 2.87356e-06 0.833332C-0.000552682 0.597777 0.0794474 0.4 0.240003 0.24C0.400558 0.08 0.598336 0 0.833336 0H14.1667C14.4028 0 14.6008 0.08 14.7608 0.24C14.9208 0.4 15.0006 0.597777 15 0.833332C14.9994 1.06889 14.9194 1.26694 14.76 1.4275C14.6006 1.58805 14.4028 1.66778 14.1667 1.66666H0.833336Z" fill="black"/>
</svg>
