<svg width="15" height="15" viewBox="0 0 15 15" fill="none" xmlns="http://www.w3.org/2000/svg">
<g clip-path="url(#clip0_673_3520)">
<path d="M7.5009 8.0262C9.7137 8.0262 11.514 6.22582 11.514 4.01311C11.5139 1.80047 9.71348 0 7.5009 0C5.28811 0 3.48779 1.8004 3.48779 4.01311C3.48779 6.22574 5.28819 8.0262 7.5009 8.0262ZM7.5009 1.20758C9.0483 1.20758 10.3066 2.46584 10.3066 4.01326C10.3064 5.56067 9.0483 6.81879 7.5009 6.81879C5.95349 6.81879 4.69521 5.56051 4.69521 4.01311C4.69521 2.46584 5.9541 1.20758 7.5009 1.20758Z" fill="#C22032"/>
<path d="M0.620203 14.978C0.941362 15.0655 1.27407 14.8778 1.36273 14.556C2.11922 11.8059 4.64359 9.88523 7.5003 9.88523C10.357 9.88523 12.8809 11.8058 13.6378 14.556C13.7122 14.8241 13.9549 14.9997 14.2199 14.9997C14.273 14.9997 14.3267 14.9925 14.3804 14.978C14.7016 14.8893 14.8907 14.5572 14.8025 14.2355C13.9017 10.9631 10.899 8.67773 7.5006 8.67773C4.10232 8.67773 1.09918 10.9628 0.198395 14.2355C0.109716 14.5566 0.299051 14.8894 0.620203 14.978Z" fill="#1E417C"/>
</g>
<defs>
<clipPath id="clip0_673_3520">
<rect width="15" height="15" fill="white"/>
</clipPath>
</defs>
</svg>
