<svg width="11" height="11" viewBox="0 0 11 11" fill="none" xmlns="http://www.w3.org/2000/svg">
<g clip-path="url(#clip0_951_8066)">
<path d="M5.50154 5.88588C7.12426 5.88588 8.44448 4.5656 8.44448 2.94295C8.44437 1.32035 7.12409 0 5.50154 0C3.87882 0 2.55859 1.32029 2.55859 2.94295C2.55859 4.56554 3.87889 5.88588 5.50154 5.88588ZM5.50154 0.885555C6.6363 0.885555 7.55903 1.80828 7.55903 2.94306C7.55892 4.07783 6.6363 5.00045 5.50154 5.00045C4.36677 5.00045 3.44403 4.07771 3.44403 2.94295C3.44403 1.80828 4.36722 0.885555 5.50154 0.885555Z" fill="black"/>
<path d="M0.454278 10.9845C0.689795 11.0486 0.933781 10.9109 0.998802 10.675C1.55356 8.65825 3.40476 7.24976 5.49968 7.24976C7.59463 7.24976 9.44544 8.65814 10.0006 10.675C10.0551 10.8716 10.233 11.0004 10.4274 11.0004C10.4663 11.0004 10.5057 10.9951 10.5451 10.9844C10.7806 10.9194 10.9193 10.6759 10.8546 10.4399C10.194 8.04022 7.99206 6.36426 5.4999 6.36426C3.00783 6.36426 0.805532 8.04 0.144953 10.4399C0.0799212 10.6754 0.218767 10.9195 0.454278 10.9845Z" fill="black"/>
</g>
<defs>
<clipPath id="clip0_951_8066">
<rect width="11" height="11" fill="white"/>
</clipPath>
</defs>
</svg>
