<svg width="15" height="10" viewBox="0 0 15 10" fill="none" xmlns="http://www.w3.org/2000/svg">
<path d="M0.452611 9.54C0.324071 9.54 0.216653 9.49625 0.130356 9.40874C0.0440598 9.32124 0.000609673 9.21352 6.20006e-06 9.08558C-0.000597273 8.95765 0.0428528 8.85023 0.130356 8.76333C0.21786 8.67643 0.325278 8.63328 0.452611 8.63388H14.0307C14.1593 8.63388 14.2667 8.67734 14.353 8.76424C14.4399 8.85114 14.4834 8.95886 14.4834 9.0874C14.4834 9.21593 14.4399 9.32335 14.353 9.40965C14.2661 9.49595 14.1587 9.53909 14.0307 9.53909L0.452611 9.54ZM0.452611 5.22215C0.324071 5.22215 0.216653 5.1787 0.130356 5.0918C0.0440598 5.0049 0.000609673 4.89718 6.20006e-06 4.76864C-0.000597273 4.6401 0.0428528 4.53268 0.130356 4.44639C0.21786 4.36009 0.325278 4.31694 0.452611 4.31694H14.0307C14.1593 4.31694 14.2667 4.36039 14.353 4.44729C14.4393 4.53419 14.4827 4.64191 14.4834 4.77045C14.484 4.89899 14.4405 5.00641 14.353 5.09271C14.2655 5.179 14.1581 5.22215 14.0307 5.22215H0.452611ZM0.452611 0.904304C0.324071 0.904304 0.216653 0.861156 0.130356 0.774859C0.0434563 0.687959 6.20006e-06 0.580239 6.20006e-06 0.451699C6.20006e-06 0.32316 0.0434563 0.215742 0.130356 0.129445C0.217256 0.0431484 0.324675 0 0.452611 0H14.0307C14.1593 0 14.2667 0.0434501 14.353 0.13035C14.4393 0.21725 14.4827 0.324367 14.4834 0.451699C14.484 0.579032 14.4405 0.68645 14.353 0.773954C14.2655 0.861457 14.1581 0.904908 14.0307 0.904304H0.452611Z" fill="black"/>
</svg>
