<svg width="51" height="50" viewBox="0 0 51 50" fill="none" xmlns="http://www.w3.org/2000/svg">
<path d="M44.6626 17.789L43.9967 14.2941C43.9134 13.8781 43.5808 13.6282 43.1646 13.6282H32.3465L33.262 10.6325L40.0026 6.55505C40.4185 6.30544 40.5018 5.8062 40.2522 5.39C40.0026 4.97407 39.5033 4.89076 39.0871 5.14038L32.097 9.38444C31.9307 9.46775 31.7641 9.63405 31.7641 9.88367L30.5993 13.6282H19.365C18.9491 13.6282 18.6162 13.8778 18.5329 14.294L17.784 17.9556C17.7007 18.2052 17.784 18.4548 17.9504 18.6214C18.1167 18.7877 18.3663 18.9543 18.6162 18.9543H19.9476L20.3635 21.2845L12.6249 21.2839C8.29779 21.2839 4.80256 24.7788 4.80256 29.1062C4.80256 29.6054 5.13548 29.9383 5.6347 29.9383H32.4297C32.9289 29.9383 33.2618 29.6054 33.2618 29.1062V28.9399C33.1785 24.6958 29.6836 21.2842 25.4395 21.2842H21.9446L21.5287 18.9541H40.8347L36.9236 43.3357H31.4311C32.18 42.6699 32.8458 41.8377 33.1787 40.8393C33.2621 40.5897 33.2621 40.2567 33.0954 40.0904C32.9291 39.8408 32.6795 39.7575 32.4296 39.7575H5.6346C5.38499 39.7575 5.13537 39.9238 4.96876 40.0904C4.80245 40.34 4.71915 40.5897 4.88576 40.8393C5.80123 43.3357 8.38067 45 11.2101 45H37.6721C38.088 45 38.4209 44.6671 38.5042 44.3342L42.665 18.9536L43.913 18.9539C44.4123 18.9539 44.7452 18.6209 44.7452 18.1217C44.7452 17.9551 44.7452 17.8721 44.6622 17.7888L44.6626 17.789ZM31.5144 28.1908H6.55004C6.96596 25.1951 9.54572 22.8649 12.6247 22.8649H25.4399C28.5186 22.8649 31.0983 25.1951 31.5143 28.1908H31.5144ZM7.04952 41.4222H31.0157C30.1003 42.5872 28.5193 43.3361 26.855 43.3361H11.211C9.46342 43.3361 7.9657 42.5873 7.05031 41.4222H7.04952ZM19.6149 17.2903L20.0309 15.2931H42.4986L42.9146 17.2903H19.6149Z" fill="url(#paint0_linear_5436_13677)"/>
<path d="M5.63433 38.1772H32.4293C32.9286 38.1772 33.2615 37.8442 33.2615 37.345C33.2615 36.8458 32.9286 36.5129 32.4293 36.5129H5.63433C5.1351 36.5129 4.80219 36.8458 4.80219 37.345C4.80219 37.7609 5.13511 38.1772 5.63433 38.1772Z" fill="url(#paint1_linear_5436_13677)"/>
<path d="M10.0448 33.4337C10.7936 32.7679 12.042 32.7679 12.7909 33.4337C14.2056 34.6818 16.3691 34.6818 17.7005 33.4337C18.4494 32.7679 19.6977 32.7679 20.4466 33.4337C21.778 34.6818 24.0249 34.6818 25.3562 33.4337C26.1051 32.7679 27.3534 32.7679 28.1023 33.4337C28.7682 34.0163 29.6833 34.3492 30.5988 34.3492C31.5143 34.3492 32.3464 34.0163 33.0952 33.4337C33.4281 33.1008 33.4281 32.6016 33.1785 32.2687C32.8456 31.9357 32.3464 31.9357 32.0135 32.1854C31.2646 32.8512 30.0163 32.8512 29.2674 32.1854C27.8527 30.9373 25.6891 30.9373 24.3577 32.1854C23.6089 32.8512 22.3606 32.8512 21.6117 32.1854C20.1969 30.9373 18.0334 30.9373 16.702 32.1854C15.9532 32.8512 14.7048 32.8512 13.9559 32.1854C12.5412 30.9373 10.3777 30.9373 9.0463 32.1854C8.29746 32.8512 7.04911 32.8512 6.30021 32.1854C5.96728 31.8524 5.46806 31.9357 5.13515 32.2687C4.80225 32.6016 4.88554 33.1008 5.21846 33.4337C6.46652 34.6821 8.63009 34.6821 10.0448 33.4337Z" fill="url(#paint2_linear_5436_13677)"/>
<defs>
<linearGradient id="paint0_linear_5436_13677" x1="37.4167" y1="33.6397" x2="37.4167" y2="41.6506" gradientUnits="userSpaceOnUse">
<stop stop-color="#ED3040"/>
<stop offset="1" stop-color="#2D23F4"/>
</linearGradient>
<linearGradient id="paint1_linear_5436_13677" x1="37.4167" y1="33.6397" x2="37.4167" y2="41.6506" gradientUnits="userSpaceOnUse">
<stop stop-color="#ED3040"/>
<stop offset="1" stop-color="#2D23F4"/>
</linearGradient>
<linearGradient id="paint2_linear_5436_13677" x1="37.4167" y1="33.6397" x2="37.4167" y2="41.6506" gradientUnits="userSpaceOnUse">
<stop stop-color="#ED3040"/>
<stop offset="1" stop-color="#2D23F4"/>
</linearGradient>
</defs>
</svg>
