<svg width="51" height="50" viewBox="0 0 51 50" fill="none" xmlns="http://www.w3.org/2000/svg">
<path d="M37.2645 29.0775L31.5272 27.0147C30.6248 26.8213 29.3353 25.7898 29.3353 25.0807V23.9203C32.1073 21.3417 33.8479 16.5069 33.8479 13.4771L33.2676 11.1564L36.1041 9.02902L33.5256 6.45044L29.5933 5.48343C26.8859 4.83886 24.0494 4.83886 21.4064 5.48343L17.4742 6.45044L14.8956 9.02902L17.7321 11.1564L17.1518 13.4771C17.1518 16.507 18.8925 21.3417 21.6644 23.9203V25.0807C21.6644 25.7898 20.3753 26.8214 19.4725 27.0147L13.7353 29.0775C10.3833 30.3024 8.19141 33.461 8.19141 36.9421V45H42.8089V36.9421C42.7444 33.461 40.5528 30.3024 37.2651 29.0775H37.2645ZM16.8296 8.96509L18.1187 7.67596L21.6643 6.77353C24.1139 6.12895 26.757 6.12895 29.271 6.77353L32.8166 7.67596L34.1057 8.96509L31.785 10.7058L32.4296 13.349C27.7882 12.7686 23.082 12.7686 18.4404 13.349L19.085 10.7058L16.8296 8.96509ZM31.8498 14.5089C27.6597 15.7338 23.2761 15.7338 19.0859 14.5089C23.3406 14.0577 27.5952 14.0577 31.8498 14.5089ZM18.699 15.7338C20.9551 16.3784 23.2116 16.7008 25.4678 16.7008C27.724 16.7008 30.0446 16.3784 32.2366 15.7338C31.3987 19.6661 28.5622 24.3721 25.4678 24.3721C22.3734 24.3718 19.5369 19.6661 18.699 15.7338ZM24.3074 28.9492H26.6281L25.7899 30.8186L27.0148 43.7115H23.985L25.2098 30.8186L24.3074 28.9492ZM41.5194 43.7114H35.7822V39.7792H34.4931V43.7114H28.3046L27.0794 31.012L28.6264 27.6597H22.3088L23.8558 31.0762L22.6309 43.7112H16.4424V39.7789H15.1533V43.7112H9.41608V36.9424C9.41608 33.9771 11.2855 31.334 14.1221 30.3027L19.7305 28.3044C23.147 27.1441 22.8891 24.9522 22.8891 24.9522C23.6628 25.4034 24.5653 25.7258 25.4677 25.7258C26.3702 25.7258 27.2084 25.4679 28.0463 24.9522C28.0463 24.9522 27.7239 27.1441 31.205 28.3044L36.8134 30.3027C39.5853 31.3343 41.5194 33.9771 41.5194 36.9424L41.5194 43.7114Z" fill="url(#paint0_linear_5436_13669)"/>
<path d="M14.1525 33.104L13.7183 31.8901L19.3627 29.8704L19.7969 31.0843L14.1525 33.104Z" fill="url(#paint1_linear_5436_13669)"/>
<path d="M36.8179 33.0976L31.1735 31.0773L31.6081 29.8634L37.2524 31.8836L36.8179 33.0976Z" fill="url(#paint2_linear_5436_13669)"/>
<path d="M28.0466 9.99611V7.73997H22.8894V9.99611L25.468 11.7368L28.0466 9.99611ZM24.1786 9.0291H26.7572V9.35154L25.468 10.1895L24.1789 9.35154L24.1786 9.0291Z" fill="url(#paint3_linear_5436_13669)"/>
<defs>
<linearGradient id="paint0_linear_5436_13669" x1="0" y1="0" x2="0" y2="1" gradientUnits="objectBoundingBox">
<stop stop-color="#ED3040"/>
<stop offset="1" stop-color="#2D23F4"/>
</linearGradient>
<linearGradient id="paint1_linear_5436_13669" x1="0" y1="0" x2="0" y2="1" gradientUnits="objectBoundingBox">
<stop stop-color="#ED3040"/>
<stop offset="1" stop-color="#2D23F4"/>
</linearGradient>
<linearGradient id="paint2_linear_5436_13669" x1="0" y1="0" x2="0" y2="1" gradientUnits="objectBoundingBox">
<stop stop-color="#ED3040"/>
<stop offset="1" stop-color="#2D23F4"/>
</linearGradient>
<linearGradient id="paint3_linear_5436_13669" x1="0" y1="0" x2="0" y2="1" gradientUnits="objectBoundingBox">
<stop stop-color="#ED3040"/>
<stop offset="1" stop-color="#2D23F4"/>
</linearGradient>
</defs>
</svg>
