<svg width="51" height="50" viewBox="0 0 51 50" fill="none" xmlns="http://www.w3.org/2000/svg">
<path d="M44.218 45H5.55155C5.18311 45 4.88477 44.7016 4.88477 44.3332V41.0002C4.88477 40.6321 5.1828 40.3334 5.55155 40.3334H44.218C44.5864 40.3334 44.8848 40.6318 44.8848 41.0002L44.8845 44.3335C44.8845 44.7017 44.5864 45 44.218 45ZM6.21846 43.6667H43.5511V41.6669H6.21846V43.6667Z" fill="url(#paint0_linear_5436_13685)"/>
<path d="M42.2181 41.667H7.55148C7.18304 41.667 6.8847 41.3687 6.8847 41.0002V37.6672C6.8847 37.2991 7.18274 37.0004 7.55148 37.0004H42.2181C42.5865 37.0004 42.8848 37.2988 42.8848 37.6672V41.0002C42.8845 41.3687 42.5865 41.667 42.2181 41.667ZM8.21839 40.3337H41.5511V38.3339H8.21839V40.3337Z" fill="url(#paint1_linear_5436_13685)"/>
<path d="M12.8852 38.334H8.88538C8.51694 38.334 8.2186 38.0357 8.2186 37.6672V21.6668C8.2186 21.2986 8.51663 21 8.88538 21H12.8855C13.2539 21 13.5523 21.2983 13.5523 21.6668V37.6672C13.552 38.0353 13.2536 38.3337 12.8852 38.3337L12.8852 38.334ZM9.55189 37.0007H12.2184V22.3333H9.55189V37.0007Z" fill="url(#paint2_linear_5436_13685)"/>
<path d="M22.2179 38.334H18.2178C17.8494 38.334 17.551 38.0357 17.551 37.6672L17.5513 21.6668C17.5513 21.2986 17.8494 21 18.2181 21H22.2182C22.5867 21 22.885 21.2983 22.885 21.6668V37.6672C22.8847 38.0353 22.5864 38.3337 22.2179 38.3337V38.334ZM18.8846 37.0007H21.5512L21.5515 22.3333H18.885L18.8846 37.0007Z" fill="url(#paint3_linear_5436_13685)"/>
<path d="M31.5507 38.334H27.5506C27.1821 38.334 26.8838 38.0357 26.8838 37.6672L26.8841 21.6668C26.8841 21.2986 27.1821 21 27.5509 21H31.551C31.9194 21 32.2178 21.2983 32.2178 21.6668V37.6672C32.2175 38.0353 31.9194 38.3337 31.5507 38.3337V38.334ZM28.2177 37.0007H30.8843V22.3333H28.2177V37.0007Z" fill="url(#paint4_linear_5436_13685)"/>
<path d="M40.8842 38.334H36.8841C36.5157 38.334 36.2173 38.0357 36.2173 37.6672L36.2177 21.6668C36.2177 21.2986 36.5157 21 36.8844 21H40.8845C41.253 21 41.5513 21.2983 41.5513 21.6668V37.6672C41.5507 38.0353 41.2527 38.3337 40.8842 38.3337V38.334ZM37.551 37.0007H40.2175V22.3333H37.551V37.0007Z" fill="url(#paint5_linear_5436_13685)"/>
<path d="M44.218 19.6667H5.55155C5.26002 19.6667 5.00199 19.4769 4.91485 19.1984C4.82832 18.9199 4.93315 18.6169 5.17319 18.4513L24.5064 5.1177C24.7344 4.96077 25.0352 4.96077 25.2628 5.1177L44.596 18.4513C44.8364 18.6169 44.9412 18.9196 44.8544 19.1984C44.7672 19.4769 44.5095 19.6667 44.218 19.6667ZM7.6928 18.3334H42.0775L24.8848 6.47659L7.6928 18.3334Z" fill="url(#paint6_linear_5436_13685)"/>
<path d="M14.2182 22.3336H7.55156C7.18313 22.3336 6.88478 22.0352 6.88478 21.6668V19.0002C6.88478 18.6321 7.18282 18.3334 7.55156 18.3334H14.2182C14.5866 18.3334 14.885 18.6318 14.885 19.0002V21.6668C14.885 22.0352 14.5866 22.3336 14.2182 22.3336ZM8.21839 21.0003H13.5518V19.667H8.21839V21.0003Z" fill="url(#paint7_linear_5436_13685)"/>
<path d="M23.551 22.3336H16.8846C16.5162 22.3336 16.2179 22.0352 16.2179 21.6668V19.0002C16.2179 18.6321 16.5159 18.3334 16.8846 18.3334H23.5513C23.9197 18.3334 24.218 18.6318 24.218 19.0002V21.6668C24.2177 22.0352 23.9197 22.3336 23.551 22.3336ZM17.5511 21.0003H22.8845V19.667H17.5511V21.0003Z" fill="url(#paint8_linear_5436_13685)"/>
<path d="M32.8845 22.3336H26.2179C25.8494 22.3336 25.5511 22.0352 25.5511 21.6668V19.0002C25.5511 18.6321 25.8491 18.3334 26.2179 18.3334H32.8845C33.2529 18.3334 33.5513 18.6318 33.5513 19.0002V21.6668C33.551 22.0352 33.2529 22.3336 32.8845 22.3336ZM26.8844 21.0003H32.2178V19.667H26.8844V21.0003Z" fill="url(#paint9_linear_5436_13685)"/>
<path d="M42.2181 22.3336H35.5514C35.183 22.3336 34.8846 22.0352 34.8846 21.6668V19.0002C34.8846 18.6321 35.1827 18.3334 35.5514 18.3334H42.2181C42.5865 18.3334 42.8848 18.6318 42.8848 19.0002V21.6668C42.8845 22.0352 42.5865 22.3336 42.2181 22.3336ZM36.2183 21.0003H41.5516V19.667H36.2183V21.0003Z" fill="url(#paint10_linear_5436_13685)"/>
<path d="M24.8848 17.6667C22.6791 17.6667 20.8847 15.8723 20.8847 13.6663C20.8847 11.4606 22.6788 9.66612 24.8848 9.66612C27.0904 9.66612 28.8849 11.4603 28.8849 13.6663C28.8846 15.8723 27.0904 17.6667 24.8848 17.6667ZM24.8848 10.9997C23.4142 10.9997 22.2182 12.1959 22.2182 13.6663C22.2179 15.1372 23.4141 16.3335 24.8848 16.3335C26.3555 16.3335 27.5513 15.1373 27.5513 13.6666C27.5513 12.1962 26.3555 10.9997 24.8848 10.9997Z" fill="url(#paint11_linear_5436_13685)"/>
<defs>
<linearGradient id="paint0_linear_5436_13685" x1="37.5472" y1="33.6397" x2="37.5472" y2="41.6506" gradientUnits="userSpaceOnUse">
<stop stop-color="#ED3040"/>
<stop offset="1" stop-color="#2D23F4"/>
</linearGradient>
<linearGradient id="paint1_linear_5436_13685" x1="37.5472" y1="33.6397" x2="37.5472" y2="41.6506" gradientUnits="userSpaceOnUse">
<stop stop-color="#ED3040"/>
<stop offset="1" stop-color="#2D23F4"/>
</linearGradient>
<linearGradient id="paint2_linear_5436_13685" x1="37.5472" y1="33.6397" x2="37.5472" y2="41.6506" gradientUnits="userSpaceOnUse">
<stop stop-color="#ED3040"/>
<stop offset="1" stop-color="#2D23F4"/>
</linearGradient>
<linearGradient id="paint3_linear_5436_13685" x1="37.5472" y1="33.6397" x2="37.5472" y2="41.6506" gradientUnits="userSpaceOnUse">
<stop stop-color="#ED3040"/>
<stop offset="1" stop-color="#2D23F4"/>
</linearGradient>
<linearGradient id="paint4_linear_5436_13685" x1="37.5472" y1="33.6397" x2="37.5472" y2="41.6506" gradientUnits="userSpaceOnUse">
<stop stop-color="#ED3040"/>
<stop offset="1" stop-color="#2D23F4"/>
</linearGradient>
<linearGradient id="paint5_linear_5436_13685" x1="37.5472" y1="33.6397" x2="37.5472" y2="41.6506" gradientUnits="userSpaceOnUse">
<stop stop-color="#ED3040"/>
<stop offset="1" stop-color="#2D23F4"/>
</linearGradient>
<linearGradient id="paint6_linear_5436_13685" x1="37.5472" y1="33.6397" x2="37.5472" y2="41.6506" gradientUnits="userSpaceOnUse">
<stop stop-color="#ED3040"/>
<stop offset="1" stop-color="#2D23F4"/>
</linearGradient>
<linearGradient id="paint7_linear_5436_13685" x1="37.5472" y1="33.6397" x2="37.5472" y2="41.6506" gradientUnits="userSpaceOnUse">
<stop stop-color="#ED3040"/>
<stop offset="1" stop-color="#2D23F4"/>
</linearGradient>
<linearGradient id="paint8_linear_5436_13685" x1="37.5472" y1="33.6397" x2="37.5472" y2="41.6506" gradientUnits="userSpaceOnUse">
<stop stop-color="#ED3040"/>
<stop offset="1" stop-color="#2D23F4"/>
</linearGradient>
<linearGradient id="paint9_linear_5436_13685" x1="37.5472" y1="33.6397" x2="37.5472" y2="41.6506" gradientUnits="userSpaceOnUse">
<stop stop-color="#ED3040"/>
<stop offset="1" stop-color="#2D23F4"/>
</linearGradient>
<linearGradient id="paint10_linear_5436_13685" x1="37.5472" y1="33.6397" x2="37.5472" y2="41.6506" gradientUnits="userSpaceOnUse">
<stop stop-color="#ED3040"/>
<stop offset="1" stop-color="#2D23F4"/>
</linearGradient>
<linearGradient id="paint11_linear_5436_13685" x1="37.5472" y1="33.6397" x2="37.5472" y2="41.6506" gradientUnits="userSpaceOnUse">
<stop stop-color="#ED3040"/>
<stop offset="1" stop-color="#2D23F4"/>
</linearGradient>
</defs>
</svg>
