<svg width="51" height="50" viewBox="0 0 51 50" fill="none" xmlns="http://www.w3.org/2000/svg">
<path d="M12.0154 17.5294C9.11241 17.5294 6.7507 15.1681 6.7507 12.2647C6.75105 9.36171 9.11268 7 12.0154 7C14.918 7 17.2801 9.36135 17.2801 12.2647C17.2801 15.1681 14.9188 17.5294 12.0154 17.5294ZM12.0154 8.77489C10.0908 8.77489 8.52523 10.3405 8.52523 12.2651C8.52523 14.1896 10.0908 15.7552 12.0154 15.7552C13.94 15.7552 15.5056 14.1896 15.5056 12.2651C15.5056 10.3401 13.94 8.77489 12.0154 8.77489Z" fill="url(#paint0_linear_5436_13673)"/>
<path d="M14.5365 43.9995C14.5263 43.9995 14.5158 43.9995 14.5055 43.9991H9.45426C8.43355 43.9773 7.5709 43.047 7.5709 41.9671L7.57125 23.1885H9.34578V41.9662C9.34578 42.0828 9.44299 42.2061 9.49477 42.2241H14.5322C14.5833 42.223 14.6192 42.2015 14.64 42.1814C14.6605 42.1614 14.6851 42.1265 14.6851 42.0744V23.3408H16.4596V42.0744C16.4596 42.596 16.2543 43.0845 15.8813 43.4498C15.5185 43.8045 15.0423 43.9989 14.5365 43.9989L14.5365 43.9995Z" fill="url(#paint1_linear_5436_13673)"/>
<path d="M19.5121 31.4759H17.7375V22.5918C17.7375 21.0533 16.4857 19.8015 14.9473 19.8015L9.08274 19.8011C7.54428 19.8011 6.29246 21.053 6.29246 22.5914V31.323H4.51793L4.51758 22.5918C4.51758 20.0744 6.56541 18.027 9.08239 18.027H14.9469C17.4642 18.027 19.5117 20.0748 19.5117 22.5918L19.5121 31.4759Z" fill="url(#paint2_linear_5436_13673)"/>
<path d="M36.0193 17.5294C33.1167 17.5294 30.7546 15.1681 30.7546 12.2647C30.7546 9.36171 33.1166 7 36.0193 7C38.9221 7 41.284 9.36135 41.284 12.2647C41.284 15.1681 38.9221 17.5294 36.0193 17.5294ZM36.0193 8.77489C34.0948 8.77489 32.5292 10.3405 32.5292 12.2651C32.5292 14.1896 34.0948 15.7552 36.0193 15.7552C37.9439 15.7552 39.5095 14.1896 39.5095 12.2651C39.5092 10.3401 37.9439 8.77489 36.0193 8.77489Z" fill="url(#paint3_linear_5436_13673)"/>
<path d="M38.5441 43.9995C38.5321 43.9995 38.5205 43.9995 38.5085 43.9991H33.4576C32.4188 43.9769 31.5742 43.0943 31.5742 42.0305V38.2515H30.0343C29.6109 38.2515 29.2161 38.0624 28.9505 37.7331C28.6849 37.4034 28.5842 36.9776 28.674 36.564L31.595 23.0648L33.3297 23.4403L30.5091 36.4778H33.3491V42.0314C33.3491 42.1258 33.4294 42.2205 33.4914 42.2251H38.5355C38.606 42.2265 38.6535 42.2057 38.6739 42.1856C38.6796 42.18 38.688 42.1719 38.688 42.1395L38.6884 36.4779H41.5263L38.7092 23.5954L40.4429 23.2164L43.3614 36.5632C43.4519 36.9775 43.3512 37.404 43.086 37.734C42.8204 38.0637 42.4248 38.2532 42.0019 38.2532H40.4634V42.1403C40.4634 42.6425 40.269 43.1092 39.916 43.4548C39.555 43.807 39.0693 44 38.5441 44L38.5441 43.9995Z" fill="url(#paint4_linear_5436_13673)"/>
<path d="M28.4767 31.4317L26.7427 31.0559L28.8026 21.5529C29.0181 20.5576 29.5736 19.6573 30.3664 19.018C31.1593 18.3787 32.1568 18.0265 33.175 18.0265H38.8204C39.8391 18.0265 40.8362 18.3787 41.629 19.018C42.4219 19.6573 42.9773 20.5579 43.1929 21.5529L45.2527 31.0559L43.5184 31.4317L41.4586 21.9288C41.1916 20.696 40.0815 19.8006 38.8204 19.8006H33.1747C31.913 19.8006 30.8035 20.6952 30.5365 21.9288L28.4767 31.4317Z" fill="url(#paint5_linear_5436_13673)"/>
<path d="M23.1242 34.1909C21.3955 34.1909 19.9888 32.784 19.9888 31.0554C19.9888 29.3268 21.3956 27.92 23.1242 27.92C24.8529 27.92 26.2597 29.3268 26.2597 31.0554C26.2597 32.784 24.8529 34.1909 23.1242 34.1909ZM23.1242 29.694C22.3737 29.694 21.7632 30.3044 21.7632 31.055C21.7632 31.8057 22.3736 32.4161 23.1242 32.4161C23.8749 32.4161 24.4853 31.8057 24.4853 31.055C24.4853 30.3048 23.8749 29.694 23.1242 29.694Z" fill="url(#paint6_linear_5436_13673)"/>
<path d="M24.7329 43.9986H21.5156C20.6766 43.9986 19.9944 43.3163 19.9944 42.4773V37.9175C19.9944 37.647 19.9091 37.3881 19.7485 37.17L17.0357 33.4897L18.4643 32.4369L21.1772 36.1172C21.5646 36.6431 21.7689 37.2654 21.7689 37.9174V42.2241H24.4796V37.9167C24.4796 37.2641 24.6842 36.6416 25.0713 36.1165L27.7838 32.4375L29.2124 33.4907L26.4999 37.1697C26.3393 37.3881 26.2541 37.6462 26.2541 37.9171V42.4777C26.2541 43.3163 25.5718 43.9986 24.7329 43.9986Z" fill="url(#paint7_linear_5436_13673)"/>
<defs>
<linearGradient id="paint0_linear_5436_13673" x1="0" y1="0" x2="0" y2="1" gradientUnits="objectBoundingBox">
<stop stop-color="#ED3040"/>
<stop offset="1" stop-color="#2D23F4"/>
</linearGradient>
<linearGradient id="paint1_linear_5436_13673" x1="0" y1="0" x2="0" y2="1" gradientUnits="objectBoundingBox">
<stop stop-color="#ED3040"/>
<stop offset="1" stop-color="#2D23F4"/>
</linearGradient>
<linearGradient id="paint2_linear_5436_13673" x1="0" y1="0" x2="0" y2="1" gradientUnits="objectBoundingBox">
<stop stop-color="#ED3040"/>
<stop offset="1" stop-color="#2D23F4"/>
</linearGradient>
<linearGradient id="paint3_linear_5436_13673" x1="0" y1="0" x2="0" y2="1" gradientUnits="objectBoundingBox">
<stop stop-color="#ED3040"/>
<stop offset="1" stop-color="#2D23F4"/>
</linearGradient>
<linearGradient id="paint4_linear_5436_13673" x1="0" y1="0" x2="0" y2="1" gradientUnits="objectBoundingBox">
<stop stop-color="#ED3040"/>
<stop offset="1" stop-color="#2D23F4"/>
</linearGradient>
<linearGradient id="paint5_linear_5436_13673" x1="0" y1="0" x2="0" y2="1" gradientUnits="objectBoundingBox">
<stop stop-color="#ED3040"/>
<stop offset="1" stop-color="#2D23F4"/>
</linearGradient>
<linearGradient id="paint6_linear_5436_13673" x1="0" y1="0" x2="0" y2="1" gradientUnits="objectBoundingBox">
<stop stop-color="#ED3040"/>
<stop offset="1" stop-color="#2D23F4"/>
</linearGradient>
<linearGradient id="paint7_linear_5436_13673" x1="0" y1="0" x2="0" y2="1" gradientUnits="objectBoundingBox">
<stop stop-color="#ED3040"/>
<stop offset="1" stop-color="#2D23F4"/>
</linearGradient>
</defs>
</svg>
