<svg width="51" height="50" viewBox="0 0 51 50" fill="none" xmlns="http://www.w3.org/2000/svg">
<path d="M17.4946 20.3329H18.8277V21.666H17.4946V20.3329Z" fill="url(#paint0_linear_5436_13687)"/>
<path d="M22.1609 34.3335H23.494V35.6667H22.1609V34.3335Z" fill="url(#paint1_linear_5436_13687)"/>
<path d="M26.1607 34.3335H27.4938V35.6667H26.1607V34.3335Z" fill="url(#paint2_linear_5436_13687)"/>
<path d="M24.1604 31.6667H25.4935V32.9999H24.1604V31.6667Z" fill="url(#paint3_linear_5436_13687)"/>
<path d="M8.82758 29.6664H10.1607V30.9995H8.82758V29.6664Z" fill="url(#paint4_linear_5436_13687)"/>
<path d="M8.82758 33.667H10.1607V35.0002H8.82758V33.667Z" fill="url(#paint5_linear_5436_13687)"/>
<path d="M10.8279 31.6667H12.1611V32.9999H10.8279V31.6667Z" fill="url(#paint6_linear_5436_13687)"/>
<path d="M8.82758 37.6669H10.1607V39H8.82758V37.6669Z" fill="url(#paint7_linear_5436_13687)"/>
<path d="M8.82758 41.0002H10.1607V42.3333H8.82758V41.0002Z" fill="url(#paint8_linear_5436_13687)"/>
<path d="M10.8279 35.6665H12.1611V36.9997H10.8279V35.6665Z" fill="url(#paint9_linear_5436_13687)"/>
<path d="M42.0151 43.6662L41.4746 41.5047C41.4005 41.2079 41.1339 40.9995 40.8279 40.9995H39.4947V29.6666H38.1612V30.4321L35.4945 33.3028V30.2855L38.1612 27.4147V28.3334H39.4944L39.4947 15.0001H42.8279C43.0803 15.0001 43.3112 14.8575 43.4241 14.6316L44.7572 11.9649H44.7575C44.8859 11.7082 44.8356 11.3982 44.6325 11.1954L40.1612 6.72383V5.66692C40.1612 5.48994 40.0911 5.32056 39.966 5.19551C39.841 5.07046 39.6713 5 39.4946 5H37.4946C37.2312 5 36.9924 5.15515 36.8852 5.39598L36.4518 6.37185L7.41991 9.67104C7.08281 9.70908 6.82809 9.99424 6.82809 10.3333V10.9999L5.49493 11.0002C5.26368 11.0002 5.04932 11.1197 4.92758 11.3162C4.80617 11.513 4.79526 11.7581 4.89847 11.9649L6.23163 14.6316H6.23196C6.34477 14.8575 6.57568 15.0001 6.82809 15.0001H10.1613V13.6669H7.24027L6.57368 12.3338L14.8281 12.3334V13.6666L11.4949 13.6669V15.0001H17.4949V17.6668H16.8283C16.5646 17.6668 16.3261 17.8219 16.2189 18.0627L14.8858 21.0629V21.0626C14.7994 21.2568 14.8107 21.4801 14.9162 21.6643L16.2494 23.9976C16.3681 24.2053 16.5891 24.3333 16.8283 24.3333H17.4949V25.3906L15.69 27.1952V27.1955C15.5117 27.3738 15.4492 27.6382 15.5292 27.8777L16.1958 29.8777C16.2865 30.1497 16.5412 30.3333 16.8283 30.3336H19.495C19.6717 30.3336 19.8414 30.2631 19.9664 30.1381C20.0915 30.013 20.1616 29.8437 20.1616 29.6667V27.6669H18.8281V29.0001H17.3087L16.9243 27.8469L18.6326 26.1386C18.758 26.0135 18.8281 25.8438 18.8281 25.6668V24.3333H19.4951C19.7342 24.3333 19.9552 24.2053 20.0736 23.9976L21.4068 21.6643H21.4071C21.5123 21.4801 21.5236 21.2568 21.4376 21.0626L20.1044 18.0624L20.1041 18.0627C19.9972 17.8219 19.7584 17.6668 19.495 17.6668H18.8285L18.8281 15.0001H27.0829L29.5653 19.9649C29.6784 20.1909 29.909 20.3335 30.1618 20.3335H34.1616V40.9999H32.8281C32.5224 40.9999 32.2558 41.2083 32.1813 41.5051L31.6411 43.6666H30.1617V33.6666C30.1617 33.5184 30.1121 33.3741 30.0211 33.2574L28.7839 31.6665H28.8282V29.6664H27.4951V30.0092L25.3548 27.2571H25.3544C25.2324 27.1003 25.0464 27.006 24.8476 27.0001C24.6488 26.9945 24.4576 27.0778 24.3266 27.2277L19.6599 32.5611V32.5608C19.5537 32.6825 19.4951 32.8383 19.4951 32.9997V37.3903L17.2998 35.195C17.1748 35.07 17.0051 34.9998 16.8284 34.9998C16.6514 34.9998 16.4821 35.07 16.357 35.195L14.8283 36.7237V30.3334C14.8283 30.1277 14.7334 29.9335 14.5709 29.8071L8.57095 25.1404C8.45385 25.0494 8.30994 25.0001 8.16174 25.0001V22.3334H6.82824V25.0001C6.46004 25.0001 6.16165 25.2985 6.16165 25.6667V33.6668H7.49481V26.3333H7.93281L13.4951 30.6593V38.057L12.3568 39.1953C12.2318 39.3203 12.1617 39.4897 12.1617 39.6667V43.6665H7.49491V34.9995H6.16175V43.6665H4.82826V44.9997L44.8281 45V43.6665L42.0151 43.6662ZM20.0818 21.2949L19.1075 22.9993H17.2146L16.2407 21.2949L17.2612 18.9991H19.0612L20.0818 21.2949ZM38.161 32.3908V35.7651L35.4943 38.6359V35.2615L38.161 32.3908ZM38.161 14.9992V15.0981L35.4943 17.9689V14.9992H38.161ZM35.4943 19.9277L38.161 17.0569V20.1218L35.4943 22.9926V19.9277ZM35.4943 28.3257V24.9514L38.161 22.0806V25.4552L35.4943 28.3257ZM42.4159 13.6662H21.4945V12.3327H43.0824L42.4159 13.6662ZM42.5518 10.9995H40.1611V8.60875L42.5518 10.9995ZM37.9277 6.33275H38.8279V10.9995H35.8535L37.9277 6.33275ZM8.16155 10.9281L35.8241 7.78439L34.395 10.9996H8.16197L8.16155 10.9281ZM16.1616 13.6662V12.3327H20.1614V13.6659L16.1616 13.6662ZM30.5738 18.9996L29.9072 17.6665L31.4951 17.6662V16.333H29.2403L28.5737 14.9998L34.1618 14.9995V18.9993L30.5738 18.9996ZM35.495 40.5951L38.1616 37.7244V40.9998H35.495V40.5951ZM22.8282 40.9997V43.6664H21.4947V39.6665C21.4947 39.4896 21.4245 39.3202 21.2995 39.1951L20.8281 38.7237V38.333H28.8281V40.3331H23.4947C23.1265 40.3331 22.8282 40.6315 22.8282 40.9997ZM24.7978 28.7131L28.8281 33.895V36.9997H20.8281V33.2503L24.7978 28.7131ZM17.4949 43.6665V40.9999H16.1617V43.6665H13.495V39.9425L16.8283 36.6093L20.1615 39.9425V43.6665H17.4949ZM24.1614 43.6665V41.6668H28.8281V43.6669L24.1614 43.6665ZM33.0156 43.6665L33.349 42.3334H40.308L40.6415 43.6665H33.0156Z" fill="url(#paint10_linear_5436_13687)"/>
<defs>
<linearGradient id="paint0_linear_5436_13687" x1="0" y1="0" x2="0" y2="1" gradientUnits="objectBoundingBox">
<stop stop-color="#ED3040"/>
<stop offset="1" stop-color="#2D23F4"/>
</linearGradient>
<linearGradient id="paint1_linear_5436_13687" x1="0" y1="0" x2="0" y2="1" gradientUnits="objectBoundingBox">
<stop stop-color="#ED3040"/>
<stop offset="1" stop-color="#2D23F4"/>
</linearGradient>
<linearGradient id="paint2_linear_5436_13687" x1="0" y1="0" x2="0" y2="1" gradientUnits="objectBoundingBox">
<stop stop-color="#ED3040"/>
<stop offset="1" stop-color="#2D23F4"/>
</linearGradient>
<linearGradient id="paint3_linear_5436_13687" x1="0" y1="0" x2="0" y2="1" gradientUnits="objectBoundingBox">
<stop stop-color="#ED3040"/>
<stop offset="1" stop-color="#2D23F4"/>
</linearGradient>
<linearGradient id="paint4_linear_5436_13687" x1="0" y1="0" x2="0" y2="1" gradientUnits="objectBoundingBox">
<stop stop-color="#ED3040"/>
<stop offset="1" stop-color="#2D23F4"/>
</linearGradient>
<linearGradient id="paint5_linear_5436_13687" x1="0" y1="0" x2="0" y2="1" gradientUnits="objectBoundingBox">
<stop stop-color="#ED3040"/>
<stop offset="1" stop-color="#2D23F4"/>
</linearGradient>
<linearGradient id="paint6_linear_5436_13687" x1="0" y1="0" x2="0" y2="1" gradientUnits="objectBoundingBox">
<stop stop-color="#ED3040"/>
<stop offset="1" stop-color="#2D23F4"/>
</linearGradient>
<linearGradient id="paint7_linear_5436_13687" x1="0" y1="0" x2="0" y2="1" gradientUnits="objectBoundingBox">
<stop stop-color="#ED3040"/>
<stop offset="1" stop-color="#2D23F4"/>
</linearGradient>
<linearGradient id="paint8_linear_5436_13687" x1="0" y1="0" x2="0" y2="1" gradientUnits="objectBoundingBox">
<stop stop-color="#ED3040"/>
<stop offset="1" stop-color="#2D23F4"/>
</linearGradient>
<linearGradient id="paint9_linear_5436_13687" x1="0" y1="0" x2="0" y2="1" gradientUnits="objectBoundingBox">
<stop stop-color="#ED3040"/>
<stop offset="1" stop-color="#2D23F4"/>
</linearGradient>
<linearGradient id="paint10_linear_5436_13687" x1="0" y1="0" x2="0" y2="1" gradientUnits="objectBoundingBox">
<stop stop-color="#ED3040"/>
<stop offset="1" stop-color="#2D23F4"/>
</linearGradient>
</defs>
</svg>
