<svg width="51" height="50" viewBox="0 0 51 50" fill="none" xmlns="http://www.w3.org/2000/svg">
<path d="M44.5996 37.5169H41.8597C41.475 37.5169 41.1629 37.2047 41.1629 36.82C41.1629 36.4353 41.475 36.1231 41.8597 36.1231H43.903L43.9027 22.214C43.9027 20.4216 42.4547 18.9632 40.675 18.9632H6.67982C6.29572 18.9632 5.98358 19.2757 5.98358 19.6601V36.1232H8.02685C8.41158 36.1232 8.72372 36.4353 8.72372 36.8201C8.72372 37.2048 8.41158 37.5169 8.02685 37.5169H5.28671C4.90198 37.5169 4.58984 37.2048 4.58984 36.8201V19.6597C4.58984 18.5074 5.52749 17.5694 6.67981 17.5694H40.6749C43.2225 17.5694 45.2961 19.6528 45.2961 22.2136V36.82C45.2961 37.2047 44.9843 37.5169 44.5996 37.5169ZM34.8927 37.5169H14.9933C14.6086 37.5169 14.2964 37.2047 14.2964 36.82C14.2964 36.4353 14.6086 36.1231 14.9933 36.1231H34.8927C35.2774 36.1231 35.5895 36.4353 35.5895 36.82C35.5895 37.2047 35.2774 37.5169 34.8927 37.5169Z" fill="url(#paint0_linear_5436_13671)"/>
<path d="M11.5102 41C9.20559 41 7.33023 39.125 7.33023 36.8201C7.33023 34.5155 9.20527 32.6401 11.5102 32.6401C13.8147 32.6401 15.6901 34.5152 15.6901 36.8201C15.6898 39.1246 13.8147 41 11.5102 41ZM11.5102 34.0338C9.97373 34.0338 8.72397 35.2833 8.72397 36.82C8.72397 38.3567 9.97381 39.6062 11.5102 39.6062C13.0465 39.6062 14.2963 38.3567 14.2963 36.82C14.2963 35.2833 13.0465 34.0338 11.5102 34.0338Z" fill="url(#paint1_linear_5436_13671)"/>
<path d="M38.3766 41C36.0711 41 34.196 39.125 34.196 36.8201C34.196 34.5155 36.0711 32.6401 38.3766 32.6401C40.6812 32.6401 42.5565 34.5152 42.5565 36.8201C42.5565 39.1246 40.6815 41 38.3766 41ZM38.3766 34.0338C36.8399 34.0338 35.5894 35.2833 35.5894 36.82C35.5894 38.3567 36.8399 39.6062 38.3766 39.6062C39.9134 39.6062 41.1628 38.3567 41.1628 36.82C41.1631 35.2832 39.9133 34.0338 38.3766 34.0338Z" fill="url(#paint2_linear_5436_13671)"/>
<path d="M44.5996 32.8953H42.7189C42.3341 32.8953 42.022 32.5832 42.022 32.1984C42.022 31.8137 42.3341 31.5016 42.7189 31.5016H44.5996C44.9843 31.5016 45.2964 31.8137 45.2964 32.1984C45.2961 32.5832 44.9843 32.8953 44.5996 32.8953Z" fill="url(#paint3_linear_5436_13671)"/>
<path d="M18.2672 18.9628C17.8824 18.9628 17.5703 18.6506 17.5703 18.2659V13.4361C17.5703 13.0514 17.8824 12.7392 18.2672 12.7392C18.6519 12.7392 18.964 13.0514 18.964 13.4361V18.2659C18.964 18.6509 18.6519 18.9628 18.2672 18.9628Z" fill="url(#paint4_linear_5436_13671)"/>
<path d="M10.5115 18.9628C10.1268 18.9628 9.81464 18.6506 9.81464 18.2659V14.8759C9.81464 14.4912 10.1268 14.179 10.5115 14.179C10.8962 14.179 11.2084 14.4912 11.2084 14.8759V18.2659C11.2081 18.6509 10.8962 18.9628 10.5115 18.9628Z" fill="url(#paint5_linear_5436_13671)"/>
<path d="M26.0454 18.9628C25.6607 18.9628 25.3486 18.6506 25.3486 18.2659V12.0429C25.3486 11.6582 25.6607 11.3461 26.0454 11.3461C26.4302 11.3461 26.7423 11.6582 26.7423 12.0429V18.2659C26.7423 18.6509 26.4302 18.9628 26.0454 18.9628Z" fill="url(#paint6_linear_5436_13671)"/>
<path d="M6.1687 16.3862C5.83952 16.3862 5.54663 16.1517 5.48445 15.8162C5.41438 15.4377 5.66435 15.0745 6.04277 15.0041L32.6297 10.0815C33.0087 10.0158 33.372 10.2611 33.4417 10.6398C33.5121 11.0182 33.2618 11.3815 32.8841 11.4519L6.29636 16.3745C6.25376 16.3821 6.21083 16.3862 6.16886 16.3862L6.1687 16.3862Z" fill="url(#paint7_linear_5436_13671)"/>
<path d="M40.6745 18.9628C40.2897 18.9628 39.9776 18.6506 39.9776 18.2659V16.3154C39.9776 15.6883 39.4672 15.1779 38.8401 15.1779C38.2256 15.1779 37.7257 15.6883 37.7257 16.3154V18.2659C37.7257 18.6506 37.4136 18.9628 37.0288 18.9628C36.6441 18.9628 36.332 18.6506 36.332 18.2659V16.3154C36.332 14.9198 37.4568 13.7842 38.8398 13.7842C40.2357 13.7842 41.371 14.9198 41.371 16.3154V18.2659C41.3713 18.6509 41.0595 18.9628 40.6745 18.9628Z" fill="url(#paint8_linear_5436_13671)"/>
<path d="M38.8404 12.5782C38.4556 12.5782 38.1435 12.2661 38.1435 11.8813V10.6969C38.1435 10.3121 38.4556 10 38.8404 10C39.2251 10 39.5372 10.3121 39.5372 10.6969V11.8813C39.5372 12.2661 39.2254 12.5782 38.8404 12.5782Z" fill="url(#paint9_linear_5436_13671)"/>
<path d="M42.4625 14.5747C42.2842 14.5747 42.1058 14.5068 41.9698 14.3702C41.6978 14.0981 41.6978 13.6575 41.9698 13.3852L42.8059 12.5498C43.078 12.2771 43.5195 12.2771 43.7915 12.5498C44.0636 12.8218 44.0636 13.2624 43.7915 13.5347L42.9554 14.3702C42.8194 14.5068 42.6411 14.5747 42.4625 14.5747Z" fill="url(#paint10_linear_5436_13671)"/>
<path d="M35.2417 14.5747C35.0634 14.5747 34.8851 14.5068 34.749 14.3702L33.9129 13.5347C33.6409 13.2624 33.6409 12.8215 33.9129 12.5498C34.185 12.2771 34.6265 12.2771 34.8986 12.5498L35.7347 13.3852C36.0067 13.6576 36.0067 14.0985 35.7347 14.3702C35.5983 14.5068 35.42 14.5747 35.2417 14.5747Z" fill="url(#paint11_linear_5436_13671)"/>
<path d="M18.6857 37.5169C18.301 37.5169 17.9888 37.2047 17.9888 36.82V28.4608C17.9888 28.0761 18.301 27.7639 18.6857 27.7639H30.5983C30.9831 27.7639 31.2952 28.0761 31.2952 28.4608V36.82C31.2949 37.2047 30.9827 37.5169 30.598 37.5169H18.6857ZM19.3822 36.1231H29.9011L29.9014 29.1569H19.3825L19.3822 36.1231Z" fill="url(#paint12_linear_5436_13671)"/>
<path d="M22.2844 33.2209C21.3467 33.2209 20.6126 32.4858 20.6126 31.5482C20.6126 30.6266 21.3625 29.8764 22.2844 29.8764C23.2062 29.8764 23.9561 30.6269 23.9561 31.5482C23.9561 32.4856 23.222 33.2209 22.2844 33.2209ZM22.2844 31.2698C22.136 31.2698 22.006 31.4002 22.006 31.5482C22.006 31.9146 22.5627 31.9146 22.5627 31.5482C22.5627 31.4002 22.4327 31.2698 22.2844 31.2698Z" fill="url(#paint13_linear_5436_13671)"/>
<path d="M26.998 33.2209C26.0477 33.2209 25.3029 32.4858 25.3029 31.5482C25.3029 30.6266 26.0635 29.8764 26.998 29.8764C27.9202 29.8764 28.6708 30.6269 28.6708 31.5482C28.6708 32.4856 27.9357 33.2209 26.998 33.2209ZM26.998 31.2698C26.8317 31.2698 26.6963 31.3945 26.6963 31.5482C26.6954 31.9241 27.277 31.9225 27.277 31.5482C27.2773 31.4002 27.147 31.2698 26.998 31.2698Z" fill="url(#paint14_linear_5436_13671)"/>
<path d="M27.9264 35.4032H21.3323C20.9476 35.4032 20.6355 35.0911 20.6355 34.7064C20.6355 34.3216 20.9476 34.0095 21.3323 34.0095H27.9264C28.3111 34.0095 28.6233 34.3216 28.6233 34.7064C28.6233 35.0914 28.3111 35.4032 27.9264 35.4032Z" fill="url(#paint15_linear_5436_13671)"/>
<path d="M44.5996 27.1369H37.0293C36.6446 27.1369 36.3325 26.8248 36.3325 26.4401V18.2667C36.3325 17.882 36.6446 17.5698 37.0293 17.5698C37.4141 17.5698 37.7262 17.882 37.7262 18.2667V25.7438H44.5996C44.9843 25.7438 45.2964 26.056 45.2964 26.4407C45.2961 26.8254 44.9843 27.1373 44.5996 27.1373V27.1369Z" fill="url(#paint16_linear_5436_13671)"/>
<path d="M34.2665 25.2794H27.4165C27.0318 25.2794 26.7196 24.9673 26.7196 24.5826V20.6118C26.7196 20.2271 27.0318 19.9149 27.4165 19.9149H34.2665C34.6512 19.9149 34.9634 20.2271 34.9634 20.6118V24.5826C34.9634 24.9673 34.6512 25.2794 34.2665 25.2794ZM28.1133 23.8857H33.5699V21.3087H28.1133V23.8857Z" fill="url(#paint17_linear_5436_13671)"/>
<path d="M20.7985 23.2821H10.442C10.0573 23.2821 9.74515 22.97 9.74515 22.5853C9.74515 22.2005 10.0573 21.8884 10.442 21.8884H20.7985C21.1832 21.8884 21.4954 22.2005 21.4954 22.5853C21.4951 22.97 21.1832 23.2821 20.7985 23.2821Z" fill="url(#paint18_linear_5436_13671)"/>
<path d="M22.7021 24.5127H20.7977C20.413 24.5127 20.1008 24.2005 20.1008 23.8158V21.3774C20.1008 20.9926 20.413 20.6805 20.7977 20.6805H22.7021C23.0868 20.6805 23.399 20.9926 23.399 21.3774V23.8158C23.399 24.2008 23.0871 24.5127 22.7021 24.5127ZM21.4946 23.1192H22.0052V22.0746H21.4946V23.1192Z" fill="url(#paint19_linear_5436_13671)"/>
<path d="M10.442 24.5127H8.51462C8.12989 24.5127 7.81775 24.2005 7.81775 23.8158V21.3774C7.81775 20.9926 8.12989 20.6805 8.51462 20.6805H10.442C10.8268 20.6805 11.1389 20.9926 11.1389 21.3774V23.8158C11.1389 24.2008 10.8268 24.5127 10.442 24.5127ZM9.21149 23.1192H9.74551V22.0746H9.21149V23.1192Z" fill="url(#paint20_linear_5436_13671)"/>
<path d="M18.6857 30.1321H5.28721C4.90248 30.1321 4.59034 29.8202 4.59034 29.4355C4.59034 29.0508 4.90248 28.7386 5.28721 28.7386H18.6857C19.0704 28.7386 19.3826 29.0508 19.3826 29.4355C19.3822 29.8202 19.0704 30.1321 18.6857 30.1321Z" fill="url(#paint21_linear_5436_13671)"/>
<path d="M37.0297 30.1321H30.5979C30.2132 30.1321 29.9011 29.8199 29.9011 29.4352C29.9011 29.0505 30.2132 28.7383 30.5979 28.7383H37.0297C37.4145 28.7383 37.7266 29.0505 37.7266 29.4352C37.7266 29.8202 37.4145 30.1321 37.0297 30.1321Z" fill="url(#paint22_linear_5436_13671)"/>
<defs>
<linearGradient id="paint0_linear_5436_13671" x1="0" y1="0" x2="0" y2="1" gradientUnits="objectBoundingBox">
<stop stop-color="#ED3040"/>
<stop offset="1" stop-color="#2D23F4"/>
</linearGradient>
<linearGradient id="paint1_linear_5436_13671" x1="0" y1="0" x2="0" y2="1" gradientUnits="objectBoundingBox">
<stop stop-color="#ED3040"/>
<stop offset="1" stop-color="#2D23F4"/>
</linearGradient>
<linearGradient id="paint2_linear_5436_13671" x1="0" y1="0" x2="0" y2="1" gradientUnits="objectBoundingBox">
<stop stop-color="#ED3040"/>
<stop offset="1" stop-color="#2D23F4"/>
</linearGradient>
<linearGradient id="paint3_linear_5436_13671" x1="0" y1="0" x2="0" y2="1" gradientUnits="objectBoundingBox">
<stop stop-color="#ED3040"/>
<stop offset="1" stop-color="#2D23F4"/>
</linearGradient>
<linearGradient id="paint4_linear_5436_13671" x1="0" y1="0" x2="0" y2="1" gradientUnits="objectBoundingBox">
<stop stop-color="#ED3040"/>
<stop offset="1" stop-color="#2D23F4"/>
</linearGradient>
<linearGradient id="paint5_linear_5436_13671" x1="0" y1="0" x2="0" y2="1" gradientUnits="objectBoundingBox">
<stop stop-color="#ED3040"/>
<stop offset="1" stop-color="#2D23F4"/>
</linearGradient>
<linearGradient id="paint6_linear_5436_13671" x1="0" y1="0" x2="0" y2="1" gradientUnits="objectBoundingBox">
<stop stop-color="#ED3040"/>
<stop offset="1" stop-color="#2D23F4"/>
</linearGradient>
<linearGradient id="paint7_linear_5436_13671" x1="0" y1="0" x2="0" y2="1" gradientUnits="objectBoundingBox">
<stop stop-color="#ED3040"/>
<stop offset="1" stop-color="#2D23F4"/>
</linearGradient>
<linearGradient id="paint8_linear_5436_13671" x1="0" y1="0" x2="0" y2="1" gradientUnits="objectBoundingBox">
<stop stop-color="#ED3040"/>
<stop offset="1" stop-color="#2D23F4"/>
</linearGradient>
<linearGradient id="paint9_linear_5436_13671" x1="0" y1="0" x2="0" y2="1" gradientUnits="objectBoundingBox">
<stop stop-color="#ED3040"/>
<stop offset="1" stop-color="#2D23F4"/>
</linearGradient>
<linearGradient id="paint10_linear_5436_13671" x1="0" y1="0" x2="0" y2="1" gradientUnits="objectBoundingBox">
<stop stop-color="#ED3040"/>
<stop offset="1" stop-color="#2D23F4"/>
</linearGradient>
<linearGradient id="paint11_linear_5436_13671" x1="0" y1="0" x2="0" y2="1" gradientUnits="objectBoundingBox">
<stop stop-color="#ED3040"/>
<stop offset="1" stop-color="#2D23F4"/>
</linearGradient>
<linearGradient id="paint12_linear_5436_13671" x1="0" y1="0" x2="0" y2="1" gradientUnits="objectBoundingBox">
<stop stop-color="#ED3040"/>
<stop offset="1" stop-color="#2D23F4"/>
</linearGradient>
<linearGradient id="paint13_linear_5436_13671" x1="0" y1="0" x2="0" y2="1" gradientUnits="objectBoundingBox">
<stop stop-color="#ED3040"/>
<stop offset="1" stop-color="#2D23F4"/>
</linearGradient>
<linearGradient id="paint14_linear_5436_13671" x1="0" y1="0" x2="0" y2="1" gradientUnits="objectBoundingBox">
<stop stop-color="#ED3040"/>
<stop offset="1" stop-color="#2D23F4"/>
</linearGradient>
<linearGradient id="paint15_linear_5436_13671" x1="0" y1="0" x2="0" y2="1" gradientUnits="objectBoundingBox">
<stop stop-color="#ED3040"/>
<stop offset="1" stop-color="#2D23F4"/>
</linearGradient>
<linearGradient id="paint16_linear_5436_13671" x1="0" y1="0" x2="0" y2="1" gradientUnits="objectBoundingBox">
<stop stop-color="#ED3040"/>
<stop offset="1" stop-color="#2D23F4"/>
</linearGradient>
<linearGradient id="paint17_linear_5436_13671" x1="0" y1="0" x2="0" y2="1" gradientUnits="objectBoundingBox">
<stop stop-color="#ED3040"/>
<stop offset="1" stop-color="#2D23F4"/>
</linearGradient>
<linearGradient id="paint18_linear_5436_13671" x1="0" y1="0" x2="0" y2="1" gradientUnits="objectBoundingBox">
<stop stop-color="#ED3040"/>
<stop offset="1" stop-color="#2D23F4"/>
</linearGradient>
<linearGradient id="paint19_linear_5436_13671" x1="0" y1="0" x2="0" y2="1" gradientUnits="objectBoundingBox">
<stop stop-color="#ED3040"/>
<stop offset="1" stop-color="#2D23F4"/>
</linearGradient>
<linearGradient id="paint20_linear_5436_13671" x1="0" y1="0" x2="0" y2="1" gradientUnits="objectBoundingBox">
<stop stop-color="#ED3040"/>
<stop offset="1" stop-color="#2D23F4"/>
</linearGradient>
<linearGradient id="paint21_linear_5436_13671" x1="0" y1="0" x2="0" y2="1" gradientUnits="objectBoundingBox">
<stop stop-color="#ED3040"/>
<stop offset="1" stop-color="#2D23F4"/>
</linearGradient>
<linearGradient id="paint22_linear_5436_13671" x1="0" y1="0" x2="0" y2="1" gradientUnits="objectBoundingBox">
<stop stop-color="#ED3040"/>
<stop offset="1" stop-color="#2D23F4"/>
</linearGradient>
</defs>
</svg>
