<svg width="51" height="50" viewBox="0 0 51 50" fill="none" xmlns="http://www.w3.org/2000/svg">
<path d="M10.83 11.6807C13.2248 10.4147 16.3569 11.4973 18.4404 13.4894C18.6957 13.7332 19.0943 13.7177 19.3317 13.4698C19.5725 13.2179 19.5631 12.8192 19.3121 12.5785C16.8314 10.2073 13.1347 9.03939 10.2417 10.5655C9.93378 10.728 9.81574 11.1098 9.97829 11.4174C10.1412 11.7249 10.5226 11.8426 10.8298 11.6808L10.83 11.6807Z" fill="url(#paint0_linear_5436_13681)"/>
<path d="M10.83 15.7428C13.2248 14.4768 16.3569 15.5594 18.4404 17.5515C18.6957 17.7953 19.0943 17.7798 19.3317 17.5319C19.5725 17.28 19.5631 16.8814 19.3121 16.6406C16.8314 14.2694 13.1347 13.1015 10.2417 14.6276C9.93378 14.7901 9.81574 15.1719 9.97829 15.4795C10.1412 15.787 10.5226 15.9047 10.8298 15.7429L10.83 15.7428Z" fill="url(#paint1_linear_5436_13681)"/>
<path d="M10.83 19.8049C13.2248 18.5399 16.3575 19.6221 18.4404 21.6143C18.6957 21.8581 19.0943 21.8426 19.3317 21.5947C19.5725 21.3428 19.5631 20.9442 19.3121 20.7034C16.833 18.3322 13.1374 17.1629 10.2417 18.6897C9.93378 18.8522 9.81574 19.234 9.97829 19.5416C10.1412 19.8491 10.5226 19.9668 10.8298 19.805L10.83 19.8049Z" fill="url(#paint2_linear_5436_13681)"/>
<path d="M10.83 23.867C13.2434 22.5913 16.3794 23.7045 18.4404 25.6757C19.0343 26.2429 19.9226 25.3496 19.3122 24.7644C16.8368 22.3969 13.1406 21.2223 10.2417 22.7514C9.93383 22.914 9.81579 23.2957 9.97834 23.6033C10.1412 23.9115 10.5227 24.0289 10.8299 23.867L10.83 23.867Z" fill="url(#paint3_linear_5436_13681)"/>
<path d="M24.358 13.4895C26.4345 11.5041 29.5736 10.4148 31.9684 11.6808C32.2756 11.8427 32.6574 11.725 32.8203 11.4174C32.9828 11.1095 32.8644 10.7281 32.5569 10.5655C29.6643 9.03944 25.9734 10.2016 23.4864 12.5785C23.2351 12.8193 23.226 13.2183 23.4668 13.4699C23.7063 13.7198 24.1049 13.7309 24.3578 13.4894L24.358 13.4895Z" fill="url(#paint4_linear_5436_13681)"/>
<path d="M31.9685 15.7428C32.2758 15.9047 32.6575 15.787 32.8204 15.4794C32.983 15.1715 32.8646 14.7901 32.557 14.6275C29.6644 13.1015 25.9736 14.2636 23.4866 16.6405C23.2353 16.8813 23.2262 17.2803 23.467 17.5319C23.7065 17.7821 24.1051 17.7932 24.3583 17.5514C26.4345 15.5657 29.5736 14.4768 31.9684 15.7428L31.9685 15.7428Z" fill="url(#paint5_linear_5436_13681)"/>
<path d="M44.5434 17.6595H37.9879V9.125C37.9879 8.77661 37.7059 8.49467 37.3576 8.49467H35.4177V8.34628C35.4177 8.15472 35.331 7.97429 35.1819 7.85457C31.3686 4.79672 25.3707 5.60811 21.3095 9.64069C17.251 5.76161 11.3713 5.02439 7.6183 8.04114C7.48036 8.1521 7.40314 8.31836 7.39201 8.49407H5.45454C5.10616 8.49407 4.82422 8.77601 4.82422 9.12439V28.9186C4.82422 29.267 5.10616 29.549 5.45454 29.549H21.3973C21.5231 29.5328 21.599 29.522 21.6813 29.4812C22.8074 28.9288 23.921 28.4701 25.0039 28.1042C25.0039 43.4902 24.9806 42.4774 25.046 42.6622C25.2524 43.9919 26.3853 45 27.7582 45H44.5393C44.8877 45 45.1696 44.7181 45.1696 44.3697C45.1696 44.0213 44.8877 43.7394 44.5393 43.7394C43.7188 43.7394 43.0514 43.0635 43.0514 42.2329C43.0514 41.4123 43.7188 40.745 44.5393 40.745C44.7137 40.745 44.8715 40.6745 44.9855 40.5602C45.1015 40.4458 45.174 40.2877 45.174 40.1116V18.2902C45.174 17.9418 44.8921 17.6599 44.5434 17.6599L44.5434 17.6595ZM26.2652 39.9195V21.4807C26.2652 20.0689 27.4139 18.9203 28.8263 18.9203H28.8964V39.4813H27.7606C27.2253 39.4816 26.6969 39.6401 26.2652 39.9197L26.2652 39.9195ZM43.9131 39.4814H30.1563V18.9205H43.9131V39.4814ZM36.727 9.75592V17.6597H35.4175L35.4178 9.75592H36.727ZM8.64452 8.84301C12.015 6.36223 17.238 7.22654 20.767 10.8648V27.9265C20.7518 27.9198 20.7369 27.9141 20.7218 27.9073C16.8407 26.1617 12.7744 25.2801 8.64422 26.0552C8.64388 17.3093 8.64388 14.4317 8.64388 8.84321L8.64452 8.84301ZM6.08543 9.75523H7.38384V26.8325C7.38384 27.0251 7.47186 27.2075 7.62328 27.3269C7.77538 27.447 7.97301 27.4918 8.15951 27.4456C11.5995 26.6295 14.9928 27.0807 18.3143 28.2884H6.08572L6.08543 9.75523ZM22.0282 27.929V10.6911C25.5576 7.04782 30.7818 6.17807 34.1567 8.65712V17.6594H28.8255C26.7184 17.6594 25.0037 19.3733 25.0037 21.4804V26.7797C24.0314 27.0899 23.0362 27.4727 22.0278 27.9287L22.0282 27.929ZM27.7584 43.7397C25.7214 43.7397 25.8169 40.7452 27.7584 40.7452H42.2292C41.9523 41.1742 41.7908 41.6851 41.7908 42.2331C41.7908 42.7886 41.954 43.3056 42.2346 43.7396L27.7584 43.7397Z" fill="url(#paint6_linear_5436_13681)"/>
<defs>
<linearGradient id="paint0_linear_5436_13681" x1="37.7723" y1="33.9237" x2="37.7723" y2="41.7343" gradientUnits="userSpaceOnUse">
<stop stop-color="#ED3040"/>
<stop offset="1" stop-color="#2D23F4"/>
</linearGradient>
<linearGradient id="paint1_linear_5436_13681" x1="37.7723" y1="33.9237" x2="37.7723" y2="41.7343" gradientUnits="userSpaceOnUse">
<stop stop-color="#ED3040"/>
<stop offset="1" stop-color="#2D23F4"/>
</linearGradient>
<linearGradient id="paint2_linear_5436_13681" x1="37.7723" y1="33.9237" x2="37.7723" y2="41.7343" gradientUnits="userSpaceOnUse">
<stop stop-color="#ED3040"/>
<stop offset="1" stop-color="#2D23F4"/>
</linearGradient>
<linearGradient id="paint3_linear_5436_13681" x1="37.7723" y1="33.9237" x2="37.7723" y2="41.7343" gradientUnits="userSpaceOnUse">
<stop stop-color="#ED3040"/>
<stop offset="1" stop-color="#2D23F4"/>
</linearGradient>
<linearGradient id="paint4_linear_5436_13681" x1="37.7723" y1="33.9237" x2="37.7723" y2="41.7343" gradientUnits="userSpaceOnUse">
<stop stop-color="#ED3040"/>
<stop offset="1" stop-color="#2D23F4"/>
</linearGradient>
<linearGradient id="paint5_linear_5436_13681" x1="37.7723" y1="33.9237" x2="37.7723" y2="41.7343" gradientUnits="userSpaceOnUse">
<stop stop-color="#ED3040"/>
<stop offset="1" stop-color="#2D23F4"/>
</linearGradient>
<linearGradient id="paint6_linear_5436_13681" x1="37.7723" y1="33.9237" x2="37.7723" y2="41.7343" gradientUnits="userSpaceOnUse">
<stop stop-color="#ED3040"/>
<stop offset="1" stop-color="#2D23F4"/>
</linearGradient>
</defs>
</svg>
