<svg width="51" height="50" viewBox="0 0 51 50" fill="none" xmlns="http://www.w3.org/2000/svg">
<path d="M21.4367 36.6665V33.6749C21.4367 33.1415 21.645 32.6332 22.0283 32.2499C22.7198 31.5583 23.1031 30.6332 23.1031 29.65V24.5082C23.1031 23.5248 22.7198 22.6 22.0283 21.9083L20.6035 20.4916V14.5832C20.6035 13.8082 20.2952 13.0583 19.7535 12.5165C19.2037 11.9666 18.4704 11.6667 17.6871 11.6667C17.2372 11.6667 16.8208 11.7749 16.4375 11.9582V10.4165C16.4375 8.80848 15.1293 7.50005 13.5212 7.50005C13.0628 7.50005 12.638 7.61666 12.2464 7.79995C12.1381 6.24182 10.8466 5 9.26365 5C7.69712 5 6.40589 6.17513 6.26419 7.74159L4.77268 24.0914C4.75594 24.2914 4.80586 24.4831 4.92276 24.6413L10.5636 32.6999L9.8969 36.6665H8.10556C7.64726 36.6665 7.27236 37.0415 7.27236 37.4999V44.1666C7.27236 44.625 7.64726 44.9999 8.10556 44.9999C8.56386 44.9999 8.93875 44.625 8.93875 44.1666V38.3332H22.2702V44.1666C22.2702 44.625 22.6451 44.9999 23.1034 44.9999C23.5617 44.9999 23.9366 44.625 23.9366 44.1666V37.4999C23.9366 37.0418 23.5614 36.6665 23.1034 36.6665H21.4367ZM17.687 13.3331C18.0204 13.3331 18.337 13.4665 18.5702 13.6997C18.8037 13.9249 18.937 14.2499 18.937 14.583V18.8247L18.6954 18.5831C18.0706 17.9582 17.2542 17.6499 16.4374 17.6499V14.583C16.4374 13.8914 16.9956 13.3331 17.687 13.3331ZM13.5211 9.16648C14.2129 9.16648 14.771 9.72472 14.771 10.4163V18.1248C14.5626 18.2498 14.3626 18.3999 14.1794 18.5832C13.7877 18.9749 13.5211 19.4416 13.3794 19.9332L12.513 19.0667C12.3629 18.9082 12.2714 18.6914 12.2714 18.4749V10.4163C12.2714 9.72474 12.8296 9.16648 13.5211 9.16648ZM12.1213 32.0251L6.46375 23.9419L7.92208 7.89219C7.98875 7.19221 8.56365 6.66712 9.26348 6.66712C10.0049 6.66712 10.6049 7.26724 10.6049 8.00874V18.4754C10.6049 19.1422 10.8632 19.7671 11.3382 20.2419L16.6791 25.5837C17.0041 25.9087 17.5291 25.9087 17.8541 25.5837C18.0203 25.4252 18.1037 25.2168 18.1037 25.0003C18.1037 24.7835 18.0203 24.5754 17.8621 24.4086L15.3626 21.9086C14.7709 21.3169 14.7709 20.3502 15.3626 19.7503C15.9542 19.1502 16.9207 19.1586 17.5205 19.7503L20.8533 23.0837C21.2365 23.467 21.4449 23.9669 21.4449 24.5087V29.6505C21.4449 30.1839 21.2365 30.6922 20.8533 31.0756C20.1534 31.7752 19.7701 32.7001 19.7701 33.6751V36.6667H11.5882L12.2629 32.6334C12.2961 32.4253 12.2462 32.2001 12.1212 32.0252L12.1213 32.0251Z" fill="url(#paint0_linear_5436_13689)"/>
<path d="M44.6164 24.6414C44.733 24.4829 44.7829 24.2832 44.7665 24.0915L43.275 7.74167C43.1333 6.17521 41.8501 5.00008 40.2752 5.00008C38.6838 5.00008 37.3924 6.2419 37.2841 7.80003C36.9008 7.61673 36.476 7.50013 36.0177 7.50013C34.4096 7.50013 33.1014 8.80856 33.1014 10.4166V11.9583C32.7181 11.775 32.3017 11.6668 31.8517 11.6668C31.0852 11.6668 30.327 11.9751 29.7853 12.5169C29.2439 13.0584 28.9357 13.8166 28.9357 14.5833V20.4917L27.5109 21.9168C26.8194 22.6084 26.4361 23.5335 26.4361 24.5083V29.6501C26.4361 30.6335 26.8194 31.5583 27.5109 32.25C27.8941 32.6333 28.1025 33.1332 28.1025 33.675V36.6666H26.4361C25.9778 36.6666 25.6029 37.0416 25.6029 37.5V44.1667C25.6029 44.6251 25.9778 45 26.4361 45C26.8944 45 27.2693 44.625 27.2693 44.1667V38.3333H40.6007V44.1667C40.6007 44.6251 40.9756 45 41.4339 45C41.8922 45 42.2671 44.625 42.2671 44.1667V37.5C42.2671 37.0416 41.8922 36.6666 41.4339 36.6666H39.6426L38.9843 32.7L44.6164 24.6414ZM34.7675 10.4162C34.7675 9.72455 35.3259 9.16632 36.0174 9.16632C36.7089 9.16632 37.267 9.72456 37.267 10.4162V18.4748C37.267 18.6915 37.1753 18.908 37.0255 19.0665L36.1591 19.933C36.0174 19.4414 35.7427 18.9747 35.3591 18.583C35.1758 18.3997 34.9758 18.2579 34.7674 18.1246L34.7675 10.4162ZM30.6017 14.5828C30.6017 14.2494 30.7351 13.9328 30.9682 13.6995C31.2014 13.4663 31.518 13.333 31.8514 13.333C32.5429 13.333 33.101 13.8912 33.101 14.5828V17.6411C32.2846 17.6411 31.4681 17.9494 30.843 18.5743L30.6017 18.8246L30.6017 14.5828ZM29.7685 36.6657V33.6741C29.7685 32.6907 29.3853 31.7659 28.6938 31.0743C28.3102 30.6993 28.1021 30.191 28.1021 29.6575V24.5158C28.1021 23.9823 28.3105 23.474 28.6938 23.0907L32.0265 19.7574C32.6182 19.1656 33.5847 19.1656 34.1845 19.7574C34.7845 20.3491 34.7761 21.3158 34.1845 21.9157L31.6849 24.4156C31.5181 24.5741 31.4347 24.7825 31.4347 24.9993C31.4347 25.2161 31.5181 25.4242 31.6762 25.5911C32.0012 25.9161 32.5262 25.9161 32.8511 25.5911L38.1921 20.2493C38.6671 19.7742 38.9254 19.1493 38.9254 18.4827L38.9251 8.0076C38.9335 7.26607 39.5335 6.66599 40.2749 6.66599C40.9748 6.66599 41.5497 7.19105 41.6163 7.89105L43.0743 23.9408L37.4168 32.024C37.2918 32.1989 37.2419 32.424 37.2751 32.6405L37.9504 36.6654L29.7685 36.6657Z" fill="url(#paint1_linear_5436_13689)"/>
<defs>
<linearGradient id="paint0_linear_5436_13689" x1="37.432" y1="33.6397" x2="37.432" y2="41.6506" gradientUnits="userSpaceOnUse">
<stop stop-color="#ED3040"/>
<stop offset="1" stop-color="#2D23F4"/>
</linearGradient>
<linearGradient id="paint1_linear_5436_13689" x1="37.432" y1="33.6397" x2="37.432" y2="41.6506" gradientUnits="userSpaceOnUse">
<stop stop-color="#ED3040"/>
<stop offset="1" stop-color="#2D23F4"/>
</linearGradient>
</defs>
</svg>
