<svg width="51" height="50" viewBox="0 0 51 50" fill="none" xmlns="http://www.w3.org/2000/svg">
<path d="M21.3792 38.3308C12.1894 38.3308 4.71289 30.8549 4.71289 21.6654C4.71289 12.4759 12.1895 5 21.3792 5C30.5688 5 38.0455 12.4763 38.0455 21.6654C38.0455 25.4652 36.7271 29.1848 34.3348 32.1392C33.5988 33.0501 32.764 33.8849 31.8521 34.6218C28.8988 37.013 25.1787 38.3311 21.3793 38.3311L21.3792 38.3308ZM21.3792 6.66638C13.108 6.66638 6.37936 13.3949 6.37936 21.6654C6.37936 29.9354 13.1083 36.6644 21.3792 36.6644C24.7983 36.6644 28.1456 35.4785 30.8048 33.3254C31.6257 32.6621 32.3772 31.9113 33.0395 31.0907C35.1931 28.4315 36.3788 25.0842 36.3788 21.6656C36.3788 13.3949 29.6498 6.66662 21.3789 6.66662L21.3792 6.66638Z" fill="url(#paint0_linear_5436_13679)"/>
<path d="M21.3792 34.9981C14.0275 34.9981 8.04583 29.0169 8.04583 21.6654C8.04583 14.3144 14.0273 8.33356 21.3792 8.33356C28.731 8.33356 34.7125 14.3147 34.7125 21.6662C34.7122 29.0172 28.7307 34.9981 21.3792 34.9981ZM21.3792 9.99994C14.9458 9.99994 9.7123 15.2328 9.7123 21.6662C9.7123 28.0996 14.9454 33.3325 21.3792 33.3325C27.8129 33.3325 33.0461 28.0996 33.0461 21.6662C33.0457 15.2332 27.8126 9.99994 21.3792 9.99994Z" fill="url(#paint1_linear_5436_13679)"/>
<path d="M42.2112 44.9995C41.5438 44.9995 40.9155 44.7362 40.4429 44.258L30.7394 34.5638C30.572 34.3964 30.4836 34.1662 30.496 33.9306C30.5084 33.6949 30.62 33.4747 30.8043 33.3264C31.6242 32.664 32.376 31.9124 33.0385 31.0924C33.1867 30.9081 33.4069 30.7965 33.6426 30.7841C33.8817 30.7717 34.1093 30.8601 34.2759 31.0275L43.9754 40.7353C44.4496 41.2045 44.7129 41.8318 44.7129 42.4992C44.7129 43.165 44.4511 43.7918 43.9754 44.2632C43.504 44.7383 42.8772 45 42.2113 45L42.2112 44.9995ZM32.5554 34.0208L41.6261 43.0823C41.9468 43.4082 42.4812 43.4039 42.7944 43.0863L42.8018 43.0789C42.9603 42.9222 43.0478 42.7154 43.0478 42.4965C43.0478 42.2772 42.9612 42.0707 42.8018 41.9141L33.7351 32.8399C33.3608 33.2539 32.9675 33.6471 32.5551 34.0205L32.5554 34.0208Z" fill="url(#paint2_linear_5436_13679)"/>
<path d="M21.3792 27.4989C16.2394 27.4989 12.2124 24.9368 12.2124 21.666C12.2124 18.3955 16.2392 15.833 21.3792 15.833C26.5192 15.833 30.546 18.3951 30.546 21.666C30.546 24.9364 26.5192 27.4989 21.3792 27.4989ZM21.3792 17.4999C17.3143 17.4999 13.8793 19.408 13.8793 21.6662C13.8793 23.9244 17.3143 25.8326 21.3792 25.8326C25.444 25.8326 28.8791 23.9244 28.8791 21.6662C28.8791 19.408 25.444 17.4999 21.3792 17.4999Z" fill="url(#paint3_linear_5436_13679)"/>
<path d="M21.3792 27.4989C19.0426 27.4989 17.2126 24.9368 17.2126 21.666C17.2126 18.3955 19.0427 15.833 21.3792 15.833C23.7156 15.833 25.5457 18.3951 25.5457 21.666C25.5457 24.9364 23.7156 27.4989 21.3792 27.4989ZM21.3792 17.4999C20.0242 17.4999 18.8792 19.408 18.8792 21.6662C18.8792 23.9244 20.0242 25.8326 21.3792 25.8326C22.7341 25.8326 23.8791 23.9244 23.8791 21.6662C23.8791 19.408 22.7341 17.4999 21.3792 17.4999Z" fill="url(#paint4_linear_5436_13679)"/>
<defs>
<linearGradient id="paint0_linear_5436_13679" x1="0" y1="0" x2="0" y2="1" gradientUnits="objectBoundingBox">
<stop stop-color="#ED3040"/>
<stop offset="1" stop-color="#2D23F4"/>
</linearGradient>
<linearGradient id="paint1_linear_5436_13679" x1="0" y1="0" x2="0" y2="1" gradientUnits="objectBoundingBox">
<stop stop-color="#ED3040"/>
<stop offset="1" stop-color="#2D23F4"/>
</linearGradient>
<linearGradient id="paint2_linear_5436_13679" x1="0" y1="0" x2="0" y2="1" gradientUnits="objectBoundingBox">
<stop stop-color="#ED3040"/>
<stop offset="1" stop-color="#2D23F4"/>
</linearGradient>
<linearGradient id="paint3_linear_5436_13679" x1="0" y1="0" x2="0" y2="1" gradientUnits="objectBoundingBox">
<stop stop-color="#ED3040"/>
<stop offset="1" stop-color="#2D23F4"/>
</linearGradient>
<linearGradient id="paint4_linear_5436_13679" x1="0" y1="0" x2="0" y2="1" gradientUnits="objectBoundingBox">
<stop stop-color="#ED3040"/>
<stop offset="1" stop-color="#2D23F4"/>
</linearGradient>
</defs>
</svg>
