<svg width="51" height="50" viewBox="0 0 51 50" fill="none" xmlns="http://www.w3.org/2000/svg">
<path d="M23.4414 21.6664C23.4414 22.4028 22.8443 22.9999 22.1079 22.9999C21.3715 22.9999 20.7747 22.4028 20.7747 21.6664C20.7747 20.93 21.3715 20.3332 22.1079 20.3332C22.8443 20.3332 23.4414 20.93 23.4414 21.6664Z" fill="url(#paint0_linear_5436_13683)"/>
<path d="M30.1081 21.6664C30.1081 22.4028 29.5113 22.9999 28.775 22.9999C28.0386 22.9999 27.4414 22.4028 27.4414 21.6664C27.4414 20.93 28.0386 20.3332 28.775 20.3332C29.5114 20.3332 30.1081 20.93 30.1081 21.6664Z" fill="url(#paint1_linear_5436_13683)"/>
<path d="M22.304 25.4232C22.0437 25.6836 22.0437 26.1057 22.304 26.3661C23.136 27.1984 24.2651 27.6662 25.4422 27.6662C26.6193 27.6662 27.748 27.1984 28.58 26.3661C28.8328 26.1044 28.8291 25.6885 28.5721 25.4315C28.3147 25.1745 27.8992 25.1708 27.6375 25.4232C27.0553 26.0055 26.2656 26.3326 25.4422 26.3326C24.6188 26.3326 23.8288 26.0055 23.2465 25.4232C22.9862 25.1632 22.5644 25.1632 22.304 25.4232Z" fill="url(#paint2_linear_5436_13683)"/>
<path d="M23.6997 12.1261C23.61 12.401 23.7076 12.7024 23.9412 12.8725C24.1751 13.0425 24.492 13.0425 24.7256 12.8721C24.9336 12.7206 25.1844 12.6386 25.4421 12.6386C25.6995 12.6386 25.9503 12.7206 26.1583 12.8721C26.3922 13.0425 26.7088 13.0425 26.9427 12.8725C27.1766 12.7024 27.2742 12.401 27.1842 12.1261C27.1041 11.8817 27.1041 11.618 27.1835 11.3732C27.2633 11.1284 27.4184 10.915 27.6272 10.7642C27.8607 10.5944 27.9583 10.2934 27.8693 10.0188C27.78 9.74424 27.524 9.55832 27.2351 9.55832C26.9774 9.55865 26.7267 9.47727 26.5186 9.32609C26.3102 9.17457 26.1554 8.9612 26.0763 8.71606C25.9863 8.44247 25.7309 8.25755 25.4431 8.25755C25.155 8.25755 24.8996 8.44247 24.8096 8.71606C24.7305 8.9612 24.5757 9.17458 24.3676 9.32609C24.1592 9.47728 23.9084 9.55865 23.6511 9.55832C23.3623 9.55832 23.1062 9.74424 23.0169 10.0188C22.9276 10.2934 23.0252 10.5944 23.259 10.7642C23.4671 10.9153 23.622 11.1287 23.7013 11.3735C23.7804 11.6183 23.7798 11.8817 23.6997 12.1261ZM25.4418 10.1568C25.6234 10.3374 25.8318 10.4889 26.0597 10.6063C25.9449 10.8353 25.8652 11.0801 25.8229 11.3328C25.5701 11.2948 25.3127 11.2948 25.0597 11.3328C25.0173 11.0801 24.9376 10.8353 24.8228 10.6063C25.0507 10.4886 25.2595 10.3371 25.4418 10.1568Z" fill="url(#paint3_linear_5436_13683)"/>
<path d="M41.4421 45C41.6191 45 41.7885 44.9295 41.9135 44.8048C42.0386 44.6798 42.109 44.5101 42.109 44.3334V40.9998C42.1074 39.8171 41.7567 38.6609 41.1007 37.6767C40.4451 36.6922 39.5132 35.9234 38.4221 35.4665C38.6987 35.0642 38.8187 34.5746 38.7595 34.0903C38.7003 33.6057 38.4658 33.1594 38.1002 32.8359C37.735 32.5124 37.2636 32.3334 36.7756 32.333H32.1088V30.9999C32.1075 30.9215 32.0919 30.8441 32.0635 30.7713C32.0575 30.7561 32.0522 30.7412 32.0456 30.726V30.7256C32.0148 30.6558 31.9718 30.5916 31.9189 30.5364L31.9136 30.5285L30.7571 29.3719H30.7567C31.99 28.0748 32.7039 26.3705 32.7629 24.5817L33.935 23.9959C34.5867 23.6753 35.0812 23.1053 35.3072 22.4152C35.5331 21.7248 35.4709 20.9729 35.1348 20.3291C35.3353 19.8067 35.4395 19.2522 35.4422 18.6929V17.4996C35.467 14.0664 33.6977 10.8687 30.7756 9.06605V7.66605C30.7753 7.39941 30.6165 7.15857 30.3713 7.05337L25.7045 5.05326L25.7049 5.05359C25.5368 4.98214 25.3473 4.98214 25.1795 5.05359L20.5127 7.0537V7.05337C20.2676 7.15857 20.1088 7.3994 20.1088 7.66605V9.04886C17.2075 10.8799 15.4466 14.069 15.442 17.4996V18.6929C15.4436 19.2536 15.5469 19.8094 15.7467 20.333C15.4106 20.9768 15.3484 21.7291 15.5743 22.4192C15.8003 23.1093 16.2952 23.6793 16.9465 23.9998L18.1186 24.5857C18.1775 26.3744 18.8914 28.0791 20.1248 29.3759L18.9682 30.5324L18.963 30.5404C18.9097 30.5956 18.8667 30.6598 18.8363 30.7299C18.8296 30.7451 18.8243 30.76 18.8184 30.7753H18.8181C18.7909 30.847 18.7767 30.9231 18.7754 30.9999V32.3331H14.1088C13.6205 32.3334 13.1495 32.5124 12.7839 32.8359C12.4183 33.1594 12.1841 33.6057 12.1245 34.0903C12.0653 34.5746 12.1854 35.0642 12.462 35.4665C11.4695 35.883 10.6071 36.5579 9.96465 37.4213C9.32188 38.2844 8.92289 39.3043 8.80847 40.3745V40.3851C8.78697 40.5896 8.77605 40.7947 8.77539 40.9998V44.3334C8.77539 44.5101 8.84552 44.6798 8.97057 44.8048C9.09563 44.9295 9.26501 45 9.44199 45L41.4421 45ZM40.7755 43.6668L39.4423 43.6665V42.3333H40.7755V43.6668ZM35.442 43.6668L26.1084 43.6665V40.7725L30.371 38.9457C30.6161 38.8409 30.7749 38.5997 30.7753 38.3331V36.5913L31.549 36.3333H35.4418L35.442 43.6668ZM29.442 30.4722C29.5478 30.4054 29.65 30.3283 29.7526 30.2536L30.2859 30.7868L29.442 31.1593L29.442 30.4722ZM28.1088 31.817V31.8167C26.9509 32.5061 26.023 33.5224 25.4421 34.7381C24.8608 33.5224 23.9329 32.5061 22.7754 31.8167V31.1573C24.4884 31.8365 26.3959 31.8365 28.1089 31.1573L28.1088 31.817ZM21.4418 30.4722V31.1597L20.5999 30.7848L21.1331 30.2516C21.2337 30.328 21.3359 30.4001 21.4418 30.4722ZM20.1086 32.0261L21.5159 32.652V32.6523C23.1838 33.3944 24.3738 34.9164 24.6917 36.7141L20.1086 35.1861V32.0261ZM29.3685 32.652L30.7758 32.0261V35.186L26.1924 36.7141C26.5103 34.9164 27.7006 33.3943 29.3682 32.6523L29.3685 32.652ZM36.7759 33.6669C37.1441 33.6669 37.4425 33.9653 37.4425 34.3335C37.4425 34.7017 37.1441 35.0001 36.7759 35.0001H32.1091V33.6669L36.7759 33.6669ZM33.339 22.8004L32.7757 23.0849V20.1648C33.1902 20.1824 33.5752 20.3838 33.826 20.714C34.0771 21.0445 34.1677 21.4693 34.0738 21.8732C33.9795 22.2772 33.7102 22.6182 33.339 22.8035L33.339 22.8004ZM34.1092 17.5001V18.6933C34.1075 18.864 34.0926 19.0341 34.0652 19.2021C33.6732 18.9735 33.2295 18.8475 32.7756 18.8362V17.0002C32.7756 16.8232 32.7055 16.6538 32.5804 16.5288C32.4554 16.4037 32.2857 16.3336 32.109 16.3336H26.589L27.541 15.6528C29.2163 14.4496 30.3414 12.6268 30.6657 10.5899C30.9856 10.8288 31.2879 11.0901 31.5711 11.3713C33.2013 12.9933 34.1154 15.2002 34.1092 17.5001ZM21.4422 8.10547L25.4421 6.39152L29.4419 8.10547L29.4423 9.36819C29.44 11.4315 28.4439 13.3675 26.7663 14.5683L25.4423 15.5138L24.1184 14.5683H24.118C22.4404 13.3674 21.4444 11.4315 21.442 9.36819L21.4422 8.10547ZM16.7756 17.5001C16.7786 14.7844 18.0529 12.2268 20.2188 10.5886C20.542 12.6271 21.6671 14.4516 23.3436 15.6554L24.2954 16.3336H18.7753C18.4071 16.3336 18.1087 16.632 18.1087 17.0002V18.8363C17.6548 18.8475 17.2115 18.9736 16.8195 19.2022C16.7917 19.0341 16.7768 18.8641 16.7755 18.6934L16.7756 17.5001ZM16.7756 21.5575C16.776 21.1983 16.9146 20.8532 17.163 20.5938C17.4111 20.3345 17.7502 20.1807 18.1088 20.1648V23.0849L17.5455 22.8037V22.8033C17.3136 22.6885 17.1184 22.5109 16.9821 22.2906C16.8461 22.0706 16.7743 21.8166 16.7756 21.5575ZM19.4423 24.1637L19.442 17.6667H31.4425V24.3334C31.4425 26.477 30.2988 28.458 28.4423 29.5298C26.5861 30.6013 24.2988 30.6013 22.4422 29.5298C20.5857 28.458 19.442 26.477 19.442 24.3334L19.4423 24.1637ZM14.1089 35.0005C13.7407 35.0005 13.4419 34.7021 13.4419 34.3339C13.4419 33.9657 13.7407 33.6673 14.1089 33.6673H18.7757V35.0005L14.1089 35.0005ZM14.1089 36.3814V43.6673H12.4048C12.8749 42.877 12.8994 41.8987 12.4693 41.086C12.0393 40.2728 11.2165 39.7429 10.2985 39.6866C10.5516 38.8295 11.0451 38.0626 11.7203 37.4768C12.3955 36.8909 13.2243 36.5108 14.1089 36.3814ZM10.1086 41.0006C10.585 41.0006 11.0253 41.255 11.2635 41.6675C11.5017 42.0801 11.5017 42.5882 11.2635 43.0007C11.0254 43.4132 10.585 43.6673 10.1086 43.6673V41.0006ZM15.4421 36.3338H19.3349L25.2317 38.2992V38.2995C25.3667 38.3448 25.5126 38.3448 25.6475 38.2995L29.4424 37.0368V37.895L25.1798 39.7217V39.7214C24.9347 39.8266 24.7755 40.0674 24.7755 40.334V43.6673H15.4419L15.4421 36.3338ZM36.7762 36.3811V36.3814C37.8861 36.5432 38.9011 37.0986 39.6355 37.9468C40.3699 38.7951 40.7748 39.8788 40.7762 41.0006H38.7761C38.4079 41.0006 38.1095 41.2994 38.1095 41.6676V43.6677L36.7763 43.6673L36.7762 36.3811Z" fill="url(#paint4_linear_5436_13683)"/>
<defs>
<linearGradient id="paint0_linear_5436_13683" x1="0" y1="0" x2="0" y2="1" gradientUnits="objectBoundingBox">
<stop stop-color="#ED3040"/>
<stop offset="1" stop-color="#2D23F4"/>
</linearGradient>
<linearGradient id="paint1_linear_5436_13683" x1="0" y1="0" x2="0" y2="1" gradientUnits="objectBoundingBox">
<stop stop-color="#ED3040"/>
<stop offset="1" stop-color="#2D23F4"/>
</linearGradient>
<linearGradient id="paint2_linear_5436_13683" x1="0" y1="0" x2="0" y2="1" gradientUnits="objectBoundingBox">
<stop stop-color="#ED3040"/>
<stop offset="1" stop-color="#2D23F4"/>
</linearGradient>
<linearGradient id="paint3_linear_5436_13683" x1="0" y1="0" x2="0" y2="1" gradientUnits="objectBoundingBox">
<stop stop-color="#ED3040"/>
<stop offset="1" stop-color="#2D23F4"/>
</linearGradient>
<linearGradient id="paint4_linear_5436_13683" x1="0" y1="0" x2="0" y2="1" gradientUnits="objectBoundingBox">
<stop stop-color="#ED3040"/>
<stop offset="1" stop-color="#2D23F4"/>
</linearGradient>
</defs>
</svg>
