<svg width="51" height="50" viewBox="0 0 51 50" fill="none" xmlns="http://www.w3.org/2000/svg">
<path d="M42.4871 14.2408C41.9107 15.7297 41.3391 17.2142 40.7628 18.7031C39.8458 21.0752 38.929 23.4429 38.0164 25.8149C37.806 26.3575 37.5956 26.9041 37.3856 27.4468C37.7893 27.1399 38.1973 26.8287 38.6011 26.5215H21.3958C20.6011 26.5215 19.8061 26.5005 19.0111 26.5215H18.9774C19.3811 26.8284 19.7891 27.1396 20.1928 27.4468C19.9908 26.8327 19.7891 26.2187 19.5871 25.6006C19.0993 24.1243 18.6154 22.6482 18.1276 21.1719C17.5429 19.3929 16.9586 17.6138 16.3696 15.8351C15.8608 14.2917 15.3519 12.7481 14.8473 11.2048C14.5992 10.4562 14.3678 9.70358 14.107 8.95896C14.1027 8.94627 14.0987 8.93793 14.0944 8.92524C13.9177 8.39533 13.4509 8 12.8789 8H5.95229C5.29216 8 4.66112 8.58033 4.69044 9.26186C4.71982 9.94736 5.24572 10.5237 5.95229 10.5237H12.8789C12.4752 10.2169 12.0672 9.90565 11.6635 9.59848C11.8655 10.2125 12.0672 10.8266 12.2692 11.4447C12.757 12.9209 13.2408 14.3971 13.7287 15.8733C14.3137 17.6517 14.9023 19.4307 15.487 21.2095C15.9959 22.7528 16.5047 24.2964 17.0093 25.8398C17.2574 26.5884 17.4888 27.341 17.7496 28.0856C17.7539 28.0983 17.7579 28.1066 17.7623 28.1193C17.9389 28.6492 18.4057 29.0446 18.9777 29.0446H36.183C36.9777 29.0446 37.7727 29.0699 38.5677 29.0446H38.6014C39.2028 29.0446 39.6148 28.6449 39.8168 28.1193C40.3932 26.6304 40.9648 25.1459 41.5412 23.657C42.4581 21.2849 43.375 18.9172 44.2875 16.5451C44.4979 16.0025 44.7083 15.456 44.9183 14.9133C45.0275 14.6275 44.9393 14.1984 44.7921 13.9417C44.6408 13.6809 44.338 13.4285 44.0391 13.3613C43.7152 13.2899 43.3536 13.3026 43.0675 13.4876C42.7733 13.6772 42.609 13.9213 42.4871 14.2409L42.4871 14.2408Z" fill="url(#paint0_linear_5436_13675)"/>
<path d="M17.8885 27.1431C17.2073 28.3586 16.5218 29.5697 15.8403 30.785C15.7434 30.9616 15.6426 31.1339 15.5458 31.3106C15.079 32.139 15.6677 33.2072 16.635 33.2072H35.8967C36.7842 33.2072 37.6757 33.2239 38.5673 33.2072H38.605C39.2651 33.2072 39.8962 32.6269 39.8669 31.9454C39.8375 31.2598 39.3116 30.6835 38.605 30.6835H19.3433C18.4557 30.6835 17.5602 30.6581 16.6727 30.6835H16.635C16.9966 31.3142 17.3625 31.9494 17.7241 32.5801C18.4053 31.3647 19.0908 30.1536 19.7723 28.9382C19.8692 28.7616 19.97 28.5893 20.0668 28.4127C20.3907 27.8364 20.2224 27.0079 19.6127 26.6884C19.0157 26.3778 18.2334 26.5291 17.8885 27.1431Z" fill="url(#paint1_linear_5436_13675)"/>
<path d="M30.5643 38.8693C30.5727 39.685 30.8084 40.5305 31.2875 41.1993C31.8174 41.9352 32.4946 42.4484 33.3441 42.768C34.858 43.3357 36.7633 42.8311 37.7938 41.5864C38.3951 40.8588 38.7317 40.047 38.8071 39.1051C38.8746 38.3018 38.6472 37.4356 38.2308 36.7457C37.8228 36.0769 37.2131 35.4882 36.4939 35.1603C35.6317 34.765 34.7359 34.6558 33.8065 34.8364C31.9226 35.2061 30.585 36.9894 30.5643 38.8693C30.556 39.5294 31.1489 40.1605 31.8261 40.1312C32.516 40.1018 33.0793 39.5759 33.088 38.8694C33.088 38.7305 33.1007 38.5959 33.1174 38.4613C33.1007 38.5749 33.088 38.6844 33.071 38.7979C33.1087 38.5538 33.1718 38.3184 33.2686 38.0914C33.2266 38.1922 33.1845 38.2934 33.1424 38.3942C33.2139 38.2343 33.2937 38.0787 33.3905 37.9318C33.3989 37.9191 33.462 37.8182 33.4703 37.8182C33.4746 37.8182 33.2599 38.0747 33.3735 37.9445C33.4322 37.877 33.4913 37.8056 33.5585 37.7424C33.6172 37.6837 33.6803 37.6289 33.7394 37.5741C33.8192 37.5027 33.9415 37.469 33.6343 37.6539C33.6636 37.6373 33.693 37.6119 33.7224 37.5908C33.878 37.4857 34.0379 37.4015 34.2102 37.3257C34.1094 37.3678 34.0082 37.4099 33.9074 37.4519C34.1344 37.3594 34.3698 37.292 34.6139 37.2543C34.5004 37.271 34.3909 37.2836 34.2773 37.3007C34.5508 37.2629 34.82 37.2629 35.0931 37.3007C34.9796 37.284 34.87 37.2713 34.7565 37.2543C35.0006 37.292 35.236 37.3551 35.463 37.4519C35.3622 37.4099 35.261 37.3678 35.1602 37.3257C35.3201 37.3972 35.4757 37.477 35.6227 37.5738C35.6354 37.5822 35.7362 37.6453 35.7362 37.6536C35.7362 37.6579 35.4797 37.4433 35.61 37.5568C35.6774 37.6155 35.7489 37.6746 35.812 37.7418C35.8707 37.8005 35.9255 37.8636 35.9803 37.9227C36.0517 38.0025 36.0855 38.1248 35.9005 37.8176C35.9172 37.8469 35.9425 37.8763 35.9636 37.9057C36.0688 38.0613 36.1529 38.2212 36.2287 38.3935C36.1866 38.2927 36.1446 38.1915 36.1025 38.0907C36.195 38.3177 36.2624 38.5532 36.3002 38.7972C36.2835 38.6837 36.2708 38.5742 36.2537 38.4607C36.2915 38.7341 36.2915 39.0033 36.2537 39.2764C36.2704 39.1629 36.2831 39.0533 36.3002 38.9398C36.2624 39.1839 36.1993 39.4193 36.1025 39.6464C36.1446 39.5455 36.1866 39.4443 36.2287 39.3435C36.1572 39.5034 36.0774 39.659 35.9806 39.806C35.9723 39.8187 35.9092 39.9195 35.9008 39.9195C35.8965 39.9195 36.1112 39.663 35.9976 39.7933C35.9389 39.8607 35.8798 39.9322 35.8127 39.9953C35.7539 40.0541 35.6908 40.1088 35.6317 40.1636C35.5519 40.235 35.4297 40.2688 35.7369 40.0838C35.7075 40.1005 35.6781 40.1258 35.6487 40.1469C35.4931 40.2521 35.3332 40.3362 35.1609 40.412C35.2617 40.3699 35.3629 40.3279 35.4637 40.2858C35.2367 40.3783 35.0013 40.4457 34.7572 40.4835C34.8707 40.4668 34.9802 40.4541 35.0938 40.437C34.8203 40.4748 34.5512 40.4748 34.278 40.437C34.3916 40.4537 34.5011 40.4664 34.6146 40.4835C34.3705 40.4457 34.1351 40.3826 33.9081 40.2858C34.0089 40.3279 34.1101 40.3699 34.2109 40.412C34.051 40.3405 33.8954 40.2608 33.7485 40.1639C33.7358 40.1556 33.6349 40.0925 33.6349 40.0841C33.6349 40.0798 33.8914 40.2945 33.7612 40.1809C33.6937 40.1222 33.6222 40.0631 33.5591 39.996C33.5004 39.9372 33.4456 39.8741 33.3908 39.815C33.3194 39.7352 33.2857 39.613 33.4706 39.9202C33.454 39.8908 33.4286 39.8614 33.4075 39.832C33.3024 39.6764 33.2182 39.5165 33.1424 39.3442C33.1845 39.445 33.2266 39.5462 33.2686 39.647C33.1761 39.42 33.1087 39.1846 33.071 38.9405C33.0877 39.054 33.1003 39.1635 33.1174 39.2771C33.1007 39.1425 33.088 39.0079 33.088 38.869C33.0796 38.2089 32.5117 37.5779 31.8261 37.6072C31.1486 37.6369 30.5556 38.1585 30.5643 38.8694L30.5643 38.8693Z" fill="url(#paint2_linear_5436_13675)"/>
<path d="M16.0677 38.8693C16.0761 39.685 16.3118 40.5305 16.791 41.1993C17.3209 41.9352 17.998 42.4484 18.8475 42.768C20.3615 43.3357 22.2668 42.8311 23.2972 41.5864C23.8986 40.8588 24.2352 40.047 24.3106 39.1051C24.378 38.3018 24.1506 37.4356 23.7343 36.7457C23.3262 36.0769 22.7165 35.4882 21.9973 35.1603C21.1351 34.765 20.2393 34.6558 19.31 34.8364C17.4217 35.2061 16.0845 36.9894 16.0677 38.8693C16.0594 39.5294 16.6524 40.1605 17.3296 40.1312C18.0194 40.1018 18.5827 39.5759 18.5914 38.8694C18.5914 38.7305 18.6041 38.5959 18.6208 38.4613C18.6041 38.5749 18.5914 38.6844 18.5744 38.7979C18.6121 38.5538 18.6752 38.3184 18.7721 38.0914C18.73 38.1922 18.6879 38.2934 18.6459 38.3942C18.7173 38.2343 18.7971 38.0787 18.8939 37.9318C18.9023 37.9191 18.9654 37.8182 18.9737 37.8182C18.9781 37.8182 18.7634 38.0747 18.8769 37.9445C18.9357 37.877 18.9948 37.8056 19.0619 37.7424C19.1207 37.6837 19.1838 37.6289 19.2429 37.5741C19.3227 37.5027 19.4449 37.469 19.1377 37.6539C19.1671 37.6373 19.1965 37.6119 19.2258 37.5908C19.3814 37.4857 19.5414 37.4015 19.7137 37.3257C19.6128 37.3678 19.5117 37.4099 19.4108 37.4519C19.6379 37.3594 19.8733 37.292 20.1174 37.2543C20.0038 37.271 19.8943 37.2836 19.7808 37.3007C20.0543 37.2629 20.3234 37.2629 20.5965 37.3007C20.483 37.284 20.3735 37.2713 20.2599 37.2543C20.504 37.292 20.7394 37.3551 20.9665 37.4519C20.8657 37.4099 20.7645 37.3678 20.6636 37.3257C20.8236 37.3972 20.9792 37.477 21.1261 37.5738C21.1388 37.5822 21.2396 37.6453 21.2396 37.6536C21.2396 37.6579 20.9832 37.4433 21.1134 37.5568C21.1809 37.6155 21.2523 37.6746 21.3154 37.7418C21.3742 37.8005 21.4289 37.8636 21.4837 37.9227C21.5552 38.0025 21.5889 38.1248 21.4039 37.8176C21.4206 37.8469 21.446 37.8763 21.467 37.9057C21.5722 38.0613 21.6563 38.2212 21.7321 38.3935C21.6901 38.2927 21.648 38.1915 21.6059 38.0907C21.6984 38.3177 21.7659 38.5532 21.8036 38.7972C21.7869 38.6837 21.7742 38.5742 21.7572 38.4607C21.7949 38.7341 21.7949 39.0033 21.7572 39.2764C21.7739 39.1629 21.7866 39.0533 21.8036 38.9398C21.7659 39.1839 21.7028 39.4193 21.6059 39.6464C21.648 39.5455 21.6901 39.4443 21.7321 39.3435C21.6607 39.5034 21.5809 39.659 21.4841 39.806C21.4757 39.8187 21.4126 39.9195 21.4043 39.9195C21.3999 39.9195 21.6146 39.663 21.5011 39.7933C21.4423 39.8607 21.3832 39.9322 21.3161 39.9953C21.2573 40.0541 21.1942 40.1088 21.1351 40.1636C21.0553 40.235 20.9331 40.2688 21.2403 40.0838C21.2109 40.1005 21.1815 40.1258 21.1522 40.1469C20.9966 40.2521 20.8366 40.3362 20.6643 40.412C20.7652 40.3699 20.8663 40.3279 20.9672 40.2858C20.7401 40.3783 20.5047 40.4457 20.2606 40.4835C20.3742 40.4668 20.4837 40.4541 20.5972 40.437C20.3237 40.4748 20.0546 40.4748 19.7815 40.437C19.895 40.4537 20.0045 40.4664 20.1181 40.4835C19.874 40.4457 19.6386 40.3826 19.4115 40.2858C19.5124 40.3279 19.6135 40.3699 19.7144 40.412C19.5544 40.3405 19.3988 40.2608 19.2519 40.1639C19.2392 40.1556 19.1384 40.0925 19.1384 40.0841C19.1384 40.0798 19.3948 40.2945 19.2646 40.1809C19.1971 40.1222 19.1257 40.0631 19.0626 39.996C19.0038 39.9372 18.9491 39.8741 18.8943 39.815C18.8228 39.7352 18.7891 39.613 18.9741 39.9202C18.9574 39.8908 18.932 39.8614 18.911 39.832C18.8058 39.6764 18.7217 39.5165 18.6459 39.3442C18.6879 39.445 18.73 39.5462 18.7721 39.647C18.6796 39.42 18.6121 39.1846 18.5744 38.9405C18.5911 39.054 18.6038 39.1635 18.6208 39.2771C18.6041 39.1425 18.5914 39.0079 18.5914 38.869C18.5831 38.2089 18.0151 37.5779 17.3296 37.6072C16.6481 37.6369 16.0594 38.1585 16.0677 38.8694L16.0677 38.8693Z" fill="url(#paint3_linear_5436_13675)"/>
<path d="M22.607 16.0239C23.8561 17.273 25.1092 18.5261 26.3584 19.7754C26.5394 19.9563 26.716 20.133 26.8967 20.3136C27.3802 20.7971 28.1962 20.7971 28.6797 20.3136C29.7018 19.2915 30.7235 18.2698 31.7456 17.2477C33.3774 15.6159 35.0049 13.9884 36.6367 12.3566L37.764 11.2293C38.2308 10.7625 38.2646 9.90436 37.764 9.44627C37.2595 8.98381 36.4771 8.94575 35.981 9.44627L32.9151 12.5122C31.2833 14.1437 29.6558 15.7715 28.024 17.4033C27.6497 17.7776 27.2754 18.1519 26.8967 18.5306H28.6797C27.4306 17.2815 26.1775 16.0283 24.9283 14.7791C24.7473 14.5981 24.5706 14.4215 24.39 14.2409C23.9232 13.7741 23.0651 13.7403 22.607 14.2409C22.1445 14.7411 22.1108 15.5234 22.607 16.0239Z" fill="url(#paint4_linear_5436_13675)"/>
<defs>
<linearGradient id="paint0_linear_5436_13675" x1="37.5786" y1="33.0597" x2="37.5786" y2="40.0692" gradientUnits="userSpaceOnUse">
<stop stop-color="#ED3040"/>
<stop offset="1" stop-color="#2D23F4"/>
</linearGradient>
<linearGradient id="paint1_linear_5436_13675" x1="37.5786" y1="33.0597" x2="37.5786" y2="40.0692" gradientUnits="userSpaceOnUse">
<stop stop-color="#ED3040"/>
<stop offset="1" stop-color="#2D23F4"/>
</linearGradient>
<linearGradient id="paint2_linear_5436_13675" x1="37.5786" y1="33.0597" x2="37.5786" y2="40.0692" gradientUnits="userSpaceOnUse">
<stop stop-color="#ED3040"/>
<stop offset="1" stop-color="#2D23F4"/>
</linearGradient>
<linearGradient id="paint3_linear_5436_13675" x1="37.5786" y1="33.0597" x2="37.5786" y2="40.0692" gradientUnits="userSpaceOnUse">
<stop stop-color="#ED3040"/>
<stop offset="1" stop-color="#2D23F4"/>
</linearGradient>
<linearGradient id="paint4_linear_5436_13675" x1="37.5786" y1="33.0597" x2="37.5786" y2="40.0692" gradientUnits="userSpaceOnUse">
<stop stop-color="#ED3040"/>
<stop offset="1" stop-color="#2D23F4"/>
</linearGradient>
</defs>
</svg>
