<svg width="50" height="50" viewBox="0 0 50 50" fill="none" xmlns="http://www.w3.org/2000/svg">
<path d="M41.8878 30.9395H32.0766C31.7304 30.9395 31.4494 30.6597 31.4494 30.3144C31.4494 29.9694 31.7301 29.6893 32.0766 29.6893H41.8887C42.9083 29.6893 43.7379 28.8585 43.7379 27.8377L43.7375 8.09323C43.7375 7.07698 42.908 6.24987 41.8884 6.24987H8.11183C7.08754 6.24987 6.25411 7.07696 6.25411 8.09323V27.8386C6.25411 28.8594 7.0876 29.6901 8.11183 29.6901H9.57514C9.92129 29.6901 10.2023 29.9699 10.2023 30.3152C10.2023 30.6602 9.92163 30.9403 9.57514 30.9403L8.11183 30.94C6.39596 30.94 5.00002 29.5488 5.00002 27.8385V8.09318C5.00002 6.38758 6.39588 5 8.11183 5H41.8884C43.5993 5 44.9915 6.38758 44.9915 8.09318V27.8385C44.9915 29.5487 43.5993 30.94 41.8884 30.94L41.8878 30.9395Z" fill="url(#paint0_linear_5443_13695)"/>
<path d="M44.3728 12.699H5.62719C5.28103 12.699 5 12.4193 5 12.0739C5 11.7289 5.28069 11.4488 5.62719 11.4488H44.3728C44.719 11.4488 45 11.7286 45 12.0739C44.9997 12.4189 44.719 12.699 44.3728 12.699Z" fill="url(#paint1_linear_5443_13695)"/>
<path d="M20.9602 39.6088C18.2842 39.6088 15.7024 38.7263 13.563 37.058C11.0308 35.0832 9.4227 32.2431 9.03556 29.0602C8.64841 25.8794 9.52719 22.7371 11.5093 20.2121C13.491 17.6873 16.3386 16.0836 19.5277 15.6954C22.7159 15.3062 25.8676 16.1811 28.4012 18.1566C33.6328 22.236 34.5626 29.7919 30.4741 35C28.4924 37.5245 25.6411 39.1289 22.446 39.5178C21.9495 39.5787 21.4532 39.6087 20.9606 39.6087L20.9602 39.6088ZM21.0058 16.8553C20.5658 16.8553 20.1234 16.882 19.6797 16.9357C16.8232 17.2833 14.2725 18.7203 12.4971 20.9819C8.83023 25.6531 9.65512 32.4223 14.3357 36.0732C16.6048 37.8428 19.4308 38.6237 22.294 38.2771C25.1564 37.9284 27.7108 36.4914 29.4862 34.2299C33.1485 29.5642 32.315 22.7953 27.6282 19.141C25.7113 17.6466 23.3992 16.8555 21.0059 16.8555L21.0058 16.8553Z" fill="url(#paint2_linear_5443_13695)"/>
<path d="M31.4714 39.2469C31.3322 39.2469 31.1957 39.2004 31.0849 39.1141L28.0135 36.7191C27.8634 36.6021 27.7751 36.4235 27.7728 36.2337C27.7708 36.0439 27.8555 35.8634 28.0029 35.7431C28.5471 35.2999 29.0311 34.8046 29.4827 34.2293C29.9294 33.6606 30.3033 33.0595 30.5936 32.443C30.6746 32.271 30.8303 32.1448 31.0158 32.1009C31.2029 32.0571 31.3977 32.0993 31.5478 32.2166L34.6192 34.6116C34.892 34.8244 34.9402 35.2169 34.7267 35.489L31.965 39.007C31.8625 39.1375 31.7121 39.2221 31.5471 39.2422C31.5216 39.2455 31.4966 39.2469 31.4714 39.2469ZM29.3803 36.1982L31.3637 37.7449L33.3523 35.2113L31.3696 33.6652C31.1084 34.1235 30.8076 34.5703 30.4703 34.9997C30.1328 35.4297 29.7681 35.8304 29.3803 36.1982Z" fill="url(#paint3_linear_5443_13695)"/>
<path d="M38.2856 45C37.4178 45 36.5804 44.7137 35.8867 44.1723L31.2527 40.5591C30.5373 40.0006 30.4103 38.9665 30.9704 38.2535L33.7532 34.7085C34.3136 33.9958 35.3507 33.8696 36.0665 34.4268L40.7005 38.0403C42.3969 39.363 42.6967 41.8142 41.3696 43.505C40.7269 44.3242 39.8021 44.8445 38.7667 44.9704C38.606 44.9901 38.4453 45 38.2856 45ZM35.0515 35.3285C34.9345 35.3285 34.8184 35.3803 34.7411 35.4791L31.9583 39.024C31.8935 39.1067 31.8647 39.2092 31.8776 39.3134C31.8905 39.4175 31.9431 39.5101 32.0257 39.575L36.6596 43.1881C37.2171 43.6231 37.9103 43.8165 38.615 43.7302C39.3178 43.6449 39.9457 43.2913 40.3821 42.7354C41.2831 41.5877 41.0794 39.9233 39.9278 39.0254L35.2939 35.4119C35.2218 35.3559 35.1365 35.3285 35.0515 35.3285Z" fill="url(#paint4_linear_5443_13695)"/>
<path d="M40.6411 9.47409H28.2086C27.8625 9.47409 27.5814 9.19433 27.5814 8.84899C27.5814 8.50399 27.8621 8.2239 28.2086 8.2239H40.6411C40.9873 8.2239 41.2683 8.50366 41.2683 8.84899C41.2683 9.19433 40.9873 9.47409 40.6411 9.47409Z" fill="url(#paint5_linear_5443_13695)"/>
<path d="M9.40035 9.51627C9.0542 9.51627 8.73119 9.19433 8.73119 8.84933C8.73119 8.50399 9.0542 8.18239 9.40035 8.18239C9.7465 8.18239 10.0695 8.504 10.0695 8.84933C10.0695 9.19433 9.74683 9.51627 9.40035 9.51627Z" fill="url(#paint6_linear_5443_13695)"/>
<path d="M12.5523 9.51627C12.2061 9.51627 11.8831 9.19433 11.8831 8.84933C11.8831 8.50433 12.2058 8.18239 12.5523 8.18239C12.8984 8.18239 13.2214 8.504 13.2214 8.84933C13.2218 9.19433 12.8988 9.51627 12.5523 9.51627Z" fill="url(#paint7_linear_5443_13695)"/>
<path d="M15.7059 9.51627C15.3597 9.51627 15.0367 9.19433 15.0367 8.84933C15.0367 8.50433 15.3594 8.18239 15.7059 8.18239C16.052 8.18239 16.3751 8.504 16.3751 8.84933C16.3751 9.19433 16.052 9.51627 15.7059 9.51627Z" fill="url(#paint8_linear_5443_13695)"/>
<path d="M20.9822 33.0501C16.3807 33.0501 12.7634 28.1821 12.6119 27.9748C12.4513 27.7554 12.4513 27.4575 12.6119 27.238C12.7634 27.0308 16.381 22.1631 20.9822 22.1631C25.5957 22.1631 29.2126 27.0311 29.3644 27.238C29.525 27.4575 29.525 27.7554 29.3644 27.9748C29.2126 28.1818 25.5953 33.0501 20.9822 33.0501ZM13.9186 27.6064C14.8225 28.6925 17.6969 31.8002 20.9822 31.8002C24.2772 31.8002 27.1532 28.6925 28.0575 27.6064C27.1532 26.5207 24.2772 23.413 20.9822 23.413C17.6969 23.413 14.8225 26.5204 13.9186 27.6064Z" fill="url(#paint9_linear_5443_13695)"/>
<path d="M20.9797 29.9111C19.7051 29.9111 18.6683 28.8774 18.6683 27.6072C18.6683 26.337 19.7051 25.3033 20.9797 25.3033C22.2543 25.3033 23.2913 26.337 23.2913 27.6072C23.2913 28.8774 22.2545 29.9111 20.9797 29.9111ZM20.9797 26.553C20.3968 26.553 19.9224 27.0259 19.9224 27.6071C19.9224 28.1884 20.3968 28.6612 20.9797 28.6612C21.5629 28.6612 22.0373 28.1884 22.0373 27.6071C22.0373 27.0255 21.5629 26.553 20.9797 26.553Z" fill="url(#paint10_linear_5443_13695)"/>
<defs>
<linearGradient id="paint0_linear_5443_13695" x1="0" y1="0" x2="0" y2="1" gradientUnits="objectBoundingBox">
<stop stop-color="#ED3040"/>
<stop offset="1" stop-color="#2D23F4"/>
</linearGradient>
<linearGradient id="paint1_linear_5443_13695" x1="0" y1="0" x2="0" y2="1" gradientUnits="objectBoundingBox">
<stop stop-color="#ED3040"/>
<stop offset="1" stop-color="#2D23F4"/>
</linearGradient>
<linearGradient id="paint2_linear_5443_13695" x1="0" y1="0" x2="0" y2="1" gradientUnits="objectBoundingBox">
<stop stop-color="#ED3040"/>
<stop offset="1" stop-color="#2D23F4"/>
</linearGradient>
<linearGradient id="paint3_linear_5443_13695" x1="0" y1="0" x2="0" y2="1" gradientUnits="objectBoundingBox">
<stop stop-color="#ED3040"/>
<stop offset="1" stop-color="#2D23F4"/>
</linearGradient>
<linearGradient id="paint4_linear_5443_13695" x1="0" y1="0" x2="0" y2="1" gradientUnits="objectBoundingBox">
<stop stop-color="#ED3040"/>
<stop offset="1" stop-color="#2D23F4"/>
</linearGradient>
<linearGradient id="paint5_linear_5443_13695" x1="0" y1="0" x2="0" y2="1" gradientUnits="objectBoundingBox">
<stop stop-color="#ED3040"/>
<stop offset="1" stop-color="#2D23F4"/>
</linearGradient>
<linearGradient id="paint6_linear_5443_13695" x1="0" y1="0" x2="0" y2="1" gradientUnits="objectBoundingBox">
<stop stop-color="#ED3040"/>
<stop offset="1" stop-color="#2D23F4"/>
</linearGradient>
<linearGradient id="paint7_linear_5443_13695" x1="0" y1="0" x2="0" y2="1" gradientUnits="objectBoundingBox">
<stop stop-color="#ED3040"/>
<stop offset="1" stop-color="#2D23F4"/>
</linearGradient>
<linearGradient id="paint8_linear_5443_13695" x1="0" y1="0" x2="0" y2="1" gradientUnits="objectBoundingBox">
<stop stop-color="#ED3040"/>
<stop offset="1" stop-color="#2D23F4"/>
</linearGradient>
<linearGradient id="paint9_linear_5443_13695" x1="0" y1="0" x2="0" y2="1" gradientUnits="objectBoundingBox">
<stop stop-color="#ED3040"/>
<stop offset="1" stop-color="#2D23F4"/>
</linearGradient>
<linearGradient id="paint10_linear_5443_13695" x1="0" y1="0" x2="0" y2="1" gradientUnits="objectBoundingBox">
<stop stop-color="#ED3040"/>
<stop offset="1" stop-color="#2D23F4"/>
</linearGradient>
</defs>
</svg>
