<svg width="50" height="50" viewBox="0 0 50 50" fill="none" xmlns="http://www.w3.org/2000/svg">
<path d="M6.66671 27.5002V13.3335H26.6671V11.6668H6.66671V9.1668C6.66671 8.50372 6.93002 7.86796 7.39895 7.39896C7.86788 6.92997 8.50365 6.66671 9.16676 6.66671H25.8334C26.4964 6.66671 27.1322 6.93002 27.6012 7.39896C28.0698 7.86789 28.3334 8.50368 28.3334 9.1668V18.3339H30.0001V9.1668C29.9985 8.06208 29.5591 7.00293 28.7781 6.22199C27.9969 5.44075 26.9377 5.00127 25.8333 5H9.16673C8.06203 5.00124 7.0029 5.44071 6.22197 6.22199C5.44074 7.00293 5.00127 8.06208 5 9.1668V27.5002C5.00124 28.6046 5.44071 29.6638 6.22197 30.445C7.00289 31.226 8.06203 31.6654 9.16673 31.6667H15.0001V30.0003H9.16673C8.50366 30.0003 7.86791 29.7367 7.39892 29.2681C6.93 28.7992 6.66671 28.163 6.66671 27.5002Z" fill="url(#paint0_linear_5443_13653)"/>
<path d="M13.3327 16.6666C13.3327 16.4455 13.2449 16.2336 13.0886 16.0773C12.9323 15.921 12.7202 15.8332 12.4994 15.8332H9.16606C8.70581 15.8332 8.33273 16.2063 8.33273 16.6666V20C8.33273 20.2208 8.4205 20.4329 8.5768 20.5892C8.73311 20.7455 8.94494 20.8333 9.16607 20.8333H12.4994C12.7202 20.8333 12.9323 20.7455 13.0887 20.5892C13.245 20.4329 13.3327 20.2208 13.3327 20L13.3327 16.6666ZM11.6661 19.1666H9.9994V17.4999H11.6661V19.1666Z" fill="url(#paint1_linear_5443_13653)"/>
<path d="M16.6665 17.5003H18.3332V18.3336H19.9998V16.6669C19.9998 16.4458 19.9121 16.234 19.7558 16.0776C19.5995 15.9213 19.3873 15.8336 19.1665 15.8336H15.8332C15.3729 15.8336 14.9999 16.2067 14.9999 16.6669V18.3336H16.6665L16.6665 17.5003Z" fill="url(#paint2_linear_5443_13653)"/>
<path d="M26.6663 18.3331V16.6664C26.6663 16.4453 26.5782 16.2335 26.4223 16.0772C26.2659 15.9208 26.0538 15.8331 25.833 15.8331H22.4997C22.0394 15.8331 21.6663 16.2062 21.6663 16.6664V18.3331H23.333V17.4998H24.9997V18.3331L26.6663 18.3331Z" fill="url(#paint3_linear_5443_13653)"/>
<path d="M12.4999 22.4998H9.16654C8.7063 22.4998 8.33321 22.8729 8.33321 23.3332V26.6666C8.33321 26.8874 8.42098 27.0995 8.57729 27.2558C8.7336 27.4118 8.94542 27.4999 9.16655 27.4999H12.4999C12.7207 27.4999 12.9328 27.4118 13.0891 27.2558C13.2454 27.0995 13.3332 26.8874 13.3332 26.6666V23.3332C13.3332 23.1121 13.2454 22.9002 13.0891 22.7439C12.9328 22.5876 12.7207 22.4998 12.4999 22.4998ZM11.6665 25.8332H9.99987V24.1665H11.6665V25.8332Z" fill="url(#paint4_linear_5443_13653)"/>
<path d="M8.33321 8.33314H9.99987V9.99983H8.33321V8.33314Z" fill="url(#paint5_linear_5443_13653)"/>
<path d="M11.6662 8.33314H16.6663V9.99983H11.6662V8.33314Z" fill="url(#paint6_linear_5443_13653)"/>
<path d="M34.9996 33.3335H36.6663C36.8874 33.3335 37.0992 33.4216 37.2556 33.5776C37.4119 33.7339 37.4996 33.946 37.4996 34.1668H39.1663C39.1663 33.5041 38.903 32.868 38.4341 32.399C37.9654 31.9304 37.3294 31.6667 36.6663 31.6667V30.8337H34.9996V31.6671V31.6668C34.1067 31.6668 33.2811 32.1434 32.8345 32.9169C32.3879 33.6904 32.3879 34.6435 32.8345 35.417C33.2811 36.1905 34.1066 36.6668 34.9996 36.6668H36.6663C37.1265 36.6668 37.4996 37.0399 37.4996 37.5002C37.4996 37.9604 37.1265 38.3335 36.6663 38.3335H34.9996C34.5393 38.3335 34.1663 37.9604 34.1663 37.5002H32.4996C32.4996 38.1633 32.7632 38.7993 33.2318 39.268C33.7008 39.7369 34.3369 40.0003 34.9996 40.0003V40.8336H36.6663V40.0003C37.5595 40.0003 38.3848 39.5239 38.8314 38.7504C39.278 37.9769 39.278 37.0238 38.8314 36.2504C38.3848 35.4769 37.5595 35.0002 36.6663 35.0002H34.9996C34.5394 35.0002 34.1663 34.6271 34.1663 34.1668C34.1663 33.7066 34.5394 33.3335 34.9996 33.3335Z" fill="url(#paint7_linear_5443_13653)"/>
<path d="M35.8333 26.6666C33.4021 26.6666 31.0708 27.6323 29.3517 29.3514C27.6326 31.0705 26.6669 33.4019 26.6669 35.8331C26.6669 38.2643 27.6326 40.596 29.3517 42.3151C31.0708 44.0342 33.4021 45 35.8333 45C38.2644 45 40.596 44.0342 42.3152 42.3151C44.0342 40.596 45 38.2643 45 35.8331C44.9972 33.4029 44.0305 31.0731 42.3121 29.3545C40.5936 27.636 38.2639 26.6693 35.8333 26.6666ZM35.8333 43.3332C33.8444 43.3332 31.9367 42.5429 30.5302 41.1364C29.1234 39.7299 28.3335 37.8223 28.3335 35.833C28.3335 33.844 29.1235 31.9364 30.5302 30.5299C31.9367 29.123 33.8444 28.3331 35.8333 28.3331C37.8225 28.3331 39.7302 29.123 41.1366 30.5299C42.5431 31.9364 43.3333 33.844 43.3333 35.833C43.3312 37.8216 42.5403 39.7281 41.1342 41.134C39.7283 42.5401 37.8219 43.331 35.8333 43.3332Z" fill="url(#paint8_linear_5443_13653)"/>
<path d="M18.333 29.1668V27.5001C18.333 27.0398 18.7061 26.6667 19.1664 26.6667H30.8335C31.4962 26.6667 32.1323 26.4031 32.601 25.9345C33.0699 25.4655 33.3332 24.8298 33.3332 24.1666V22.4999C33.3332 21.8369 33.0699 21.2008 32.601 20.7321C32.1323 20.2632 31.4963 19.9999 30.8335 19.9999H19.1664C18.5033 19.9999 17.8672 20.2632 17.3985 20.7321C16.9296 21.2007 16.6663 21.8368 16.6663 22.4999V24.1666C16.6685 24.7835 16.9001 25.3778 17.3164 25.8333C16.9001 26.2886 16.6685 26.8829 16.6663 27.5V29.1667C16.6685 29.7836 16.9001 30.3778 17.3164 30.8334C16.9001 31.2887 16.6685 31.8829 16.6663 32.4998V34.1665C16.6623 34.7796 16.9079 35.368 17.3461 35.7965C16.911 36.2571 16.6675 36.8663 16.6663 37.4998V39.1665C16.6663 39.8296 16.9296 40.4657 17.3985 40.9344C17.8672 41.4033 18.5032 41.6666 19.1664 41.6666H25.8331V39.9999H19.1664C18.7061 39.9999 18.333 39.6268 18.333 39.1666V37.4999C18.333 37.0396 18.7061 36.6666 19.1664 36.6666V36.6098V36.6101C19.4424 36.6489 19.7209 36.6678 19.9997 36.6666H24.9997V34.9999H19.9997C19.4997 34.9999 18.333 34.9164 18.333 34.1665V32.4998C18.333 32.0396 18.7061 31.6665 19.1664 31.6665H25.8331V30.0001H19.1664C18.7061 30.0001 18.333 29.627 18.333 29.1668ZM18.333 22.4999C18.333 22.0397 18.7061 21.6666 19.1664 21.6666H30.8335C31.0543 21.6666 31.2664 21.7544 31.4224 21.9107C31.5787 22.067 31.6665 22.2788 31.6665 22.4999V24.1666C31.6665 24.3874 31.5787 24.5996 31.4224 24.7559C31.2664 24.9122 31.0543 25 30.8335 25H19.1664C18.7061 25 18.333 24.6269 18.333 24.1666V22.4999Z" fill="url(#paint9_linear_5443_13653)"/>
<path d="M39.1663 15.8329V20.4879L36.4222 17.7438L35.244 18.922L39.4107 23.0887L39.4163 23.0831C39.5701 23.2413 39.7813 23.3313 40.0021 23.3322C40.2229 23.3331 40.4347 23.245 40.5898 23.0881L44.7565 18.9214L43.5782 17.7431L40.8329 20.4879V15.8329C40.8317 14.7282 40.3922 13.6691 39.6113 12.8881C38.83 12.1069 37.7709 11.6674 36.6662 11.6661H31.6661V13.3328H36.6662C37.3293 13.3328 37.9653 13.5961 38.434 14.0651C38.9029 14.534 39.1663 15.1698 39.1663 15.8329Z" fill="url(#paint10_linear_5443_13653)"/>
<defs>
<linearGradient id="paint0_linear_5443_13653" x1="0" y1="0" x2="0" y2="1" gradientUnits="objectBoundingBox">
<stop stop-color="#ED3040"/>
<stop offset="1" stop-color="#2D23F4"/>
</linearGradient>
<linearGradient id="paint1_linear_5443_13653" x1="0" y1="0" x2="0" y2="1" gradientUnits="objectBoundingBox">
<stop stop-color="#ED3040"/>
<stop offset="1" stop-color="#2D23F4"/>
</linearGradient>
<linearGradient id="paint2_linear_5443_13653" x1="0" y1="0" x2="0" y2="1" gradientUnits="objectBoundingBox">
<stop stop-color="#ED3040"/>
<stop offset="1" stop-color="#2D23F4"/>
</linearGradient>
<linearGradient id="paint3_linear_5443_13653" x1="0" y1="0" x2="0" y2="1" gradientUnits="objectBoundingBox">
<stop stop-color="#ED3040"/>
<stop offset="1" stop-color="#2D23F4"/>
</linearGradient>
<linearGradient id="paint4_linear_5443_13653" x1="0" y1="0" x2="0" y2="1" gradientUnits="objectBoundingBox">
<stop stop-color="#ED3040"/>
<stop offset="1" stop-color="#2D23F4"/>
</linearGradient>
<linearGradient id="paint5_linear_5443_13653" x1="0" y1="0" x2="0" y2="1" gradientUnits="objectBoundingBox">
<stop stop-color="#ED3040"/>
<stop offset="1" stop-color="#2D23F4"/>
</linearGradient>
<linearGradient id="paint6_linear_5443_13653" x1="0" y1="0" x2="0" y2="1" gradientUnits="objectBoundingBox">
<stop stop-color="#ED3040"/>
<stop offset="1" stop-color="#2D23F4"/>
</linearGradient>
<linearGradient id="paint7_linear_5443_13653" x1="0" y1="0" x2="0" y2="1" gradientUnits="objectBoundingBox">
<stop stop-color="#ED3040"/>
<stop offset="1" stop-color="#2D23F4"/>
</linearGradient>
<linearGradient id="paint8_linear_5443_13653" x1="0" y1="0" x2="0" y2="1" gradientUnits="objectBoundingBox">
<stop stop-color="#ED3040"/>
<stop offset="1" stop-color="#2D23F4"/>
</linearGradient>
<linearGradient id="paint9_linear_5443_13653" x1="0" y1="0" x2="0" y2="1" gradientUnits="objectBoundingBox">
<stop stop-color="#ED3040"/>
<stop offset="1" stop-color="#2D23F4"/>
</linearGradient>
<linearGradient id="paint10_linear_5443_13653" x1="0" y1="0" x2="0" y2="1" gradientUnits="objectBoundingBox">
<stop stop-color="#ED3040"/>
<stop offset="1" stop-color="#2D23F4"/>
</linearGradient>
</defs>
</svg>
