<svg width="50" height="50" viewBox="0 0 50 50" fill="none" xmlns="http://www.w3.org/2000/svg">
<path d="M5.9016 8.00026C5.4734 8.00303 5.07375 8.34366 5.00926 8.76024C4.94477 9.17683 5.22389 9.61943 5.63199 9.74705L12.302 12.2067V20.9827C12.2953 21.4551 12.7302 21.8898 13.2102 21.8898C13.6902 21.8898 14.1251 21.4552 14.1183 20.9827V15.6163H43.1829V15.84L36.2433 29.926H14.1185V24.5596C14.1252 24.0872 13.6903 23.6525 13.2104 23.6525C12.7304 23.6525 12.2954 24.0872 12.3022 24.5596V30.4012C10.9397 31.1441 10.0315 32.6808 10.0315 34.3978C10.0315 36.7998 11.8003 38.8695 14.1186 38.8695H14.2321C14.6487 40.6542 16.2719 42 18.2057 42C20.1398 42 21.7627 40.6542 22.1793 38.8695H29.8001C30.3651 40.4255 31.8776 41.5525 33.6461 41.5525C35.8928 41.5525 37.7332 39.7402 37.7332 37.5279C37.7332 35.3156 35.8925 33.5032 33.6461 33.5032C31.5548 33.5032 29.8177 35.0794 29.5873 37.0808H22.1794C21.7628 35.2961 20.1396 33.9503 18.2058 33.9503C16.2716 33.9503 14.6487 35.2961 14.2322 37.0808H14.1187C12.9148 37.0808 11.848 35.9597 11.848 34.3978C11.848 32.8358 12.9148 31.7147 14.1187 31.7147H36.8254C37.1659 31.7193 37.4996 31.5132 37.6487 31.2118L44.9146 16.4545C44.9724 16.3328 45.0017 16.1978 44.9999 16.0632V14.7216C44.9999 14.2533 44.5671 13.8274 44.0918 13.8274H14.1195V11.5915C14.1188 11.2283 13.87 10.878 13.5236 10.7531L6.2573 8.06973C6.14522 8.02325 6.02399 7.99932 5.9024 8.00001L5.9016 8.00026ZM33.6463 35.2931C34.9112 35.2931 35.917 36.2837 35.917 37.529C35.917 38.7746 34.9112 39.765 33.6463 39.765C32.3814 39.765 31.3756 38.7743 31.3756 37.529C31.3756 36.2835 32.3814 35.2931 33.6463 35.2931ZM18.2059 35.7402C19.4708 35.7402 20.4766 36.7305 20.4766 37.9761C20.4766 39.2218 19.4708 40.2121 18.2059 40.2121C16.941 40.2121 15.9352 39.2218 15.9352 37.9761C15.9352 36.7305 16.941 35.7402 18.2059 35.7402Z" fill="url(#paint0_linear_5443_13729)"/>
<defs>
<linearGradient id="paint0_linear_5443_13729" x1="0" y1="0" x2="0" y2="1" gradientUnits="objectBoundingBox">
<stop stop-color="#ED3040"/>
<stop offset="1" stop-color="#2D23F4"/>
</linearGradient>
</defs>
</svg>
