<svg width="50" height="50" viewBox="0 0 50 50" fill="none" xmlns="http://www.w3.org/2000/svg">
<path d="M39.1456 29.3991L31.4528 26.7744L30.2964 25.083C30.2031 24.9535 30.0632 24.8706 29.8955 24.861C29.8396 24.861 29.7744 24.8702 29.7182 24.8889V22.8647C30.4267 21.7648 30.7905 20.5449 30.9679 19.4545C31.1263 19.4361 31.3036 19.3991 31.4806 19.3066C32.0121 19.0384 32.4038 18.484 32.6463 17.6339C32.8795 16.8205 32.8139 16.2108 32.4504 15.8226C32.3479 15.7118 32.2265 15.6285 32.1054 15.5639C32.5811 14.7043 32.9446 13.5398 32.9168 11.9871C32.8887 10.2774 32.3853 8.96502 31.4154 8.09622C30.3616 7.15369 29.0563 7.01497 28.4782 6.99628C28.0677 6.46025 26.949 5.25868 24.9813 5.03674C22.2398 4.72268 19.032 6.42325 15.4794 10.0921C15.3488 10.2308 15.3021 10.434 15.3769 10.619C15.4517 10.8039 15.6194 10.9238 15.8152 10.9426C15.9925 10.9517 17.5217 11.1183 17.475 12.9942C17.4469 14.0846 17.615 14.9168 17.8574 15.5357C17.7083 15.6003 17.5591 15.6836 17.4284 15.8223C17.0649 16.2196 16.9994 16.8298 17.2326 17.6432C17.4751 18.4841 17.8667 19.048 18.3983 19.3159C18.6222 19.4267 18.8458 19.4637 19.0231 19.4729C19.2004 20.6374 19.5824 21.9128 20.3564 23.0405V24.9443C20.2816 24.8981 20.198 24.8798 20.0858 24.8798C19.9274 24.8889 19.7782 24.9631 19.6849 25.1017L18.5285 26.7931L10.8357 29.4178C10.6307 29.4919 10.5 29.6765 10.5 29.8893L10.5004 44.501C10.5004 44.7784 10.7243 45 11.0038 45H38.9966C39.2764 45 39.5 44.778 39.5 44.501V29.8705C39.4907 29.6581 39.3508 29.4732 39.1458 29.399L39.1456 29.3991ZM30.5948 27.3012L29.6997 31.5619C28.935 29.9167 27.6483 28.9093 26.6318 28.3365C28.0773 27.8188 29.2333 26.793 29.83 26.1737L30.5948 27.3012ZM22.5478 44.0018L22.3704 43.0593L23.5361 33.7616H26.4452L27.247 43.1887L27.0697 44.0113L22.5478 44.0018ZM23.471 25.4988C23.9466 25.6929 24.4593 25.7945 25.0001 25.7945C25.5783 25.7945 26.1284 25.6745 26.6507 25.4526C27.4806 25.0923 28.1613 24.6208 28.7114 24.0939V25.8591C27.9 26.6075 26.5293 27.6059 24.9908 27.6613C23.5083 27.6059 22.1843 26.6816 21.3636 25.9424V24.1865C21.9322 24.7041 22.6222 25.1568 23.471 25.4988ZM25.0001 28.6779C25.4477 28.835 26.7907 29.371 27.8626 30.5818L26.6037 32.7538H23.3773L22.1466 30.6467C23.2378 29.4451 24.5619 28.8537 25.0001 28.6779ZM21.4939 31.5155L22.5755 33.3639L21.7641 39.8428L20.6266 33.8445C20.7573 32.9295 21.0838 32.1623 21.4939 31.5155ZM27.9651 39.7687L27.4151 33.3547L28.5152 31.4693C28.8694 32.0607 29.14 32.7632 29.2703 33.595L27.9651 39.7687ZM16.8135 10.1657C19.844 7.20822 22.6133 5.77588 24.8421 6.01576C26.8377 6.23773 27.7512 7.68845 27.7886 7.74415C27.8911 7.91035 28.0777 8.00281 28.2643 7.98446C28.2828 7.98446 29.6909 7.87366 30.7448 8.81621C31.4999 9.49092 31.8916 10.563 31.9196 11.9769C31.9381 13.1598 31.7146 14.1764 31.267 15.0177V14.2784C31.1737 10.8033 28.5441 9.7499 28.4323 9.70369C28.3575 9.6758 28.2831 9.65746 28.218 9.65746C28.1432 9.65746 28.0781 9.6758 28.0129 9.71286C27.8822 9.78697 27.7986 9.8886 27.7704 10.0365C27.7704 10.0456 27.3229 11.0531 23.5091 11.2101C21.8492 11.2747 20.5811 11.8107 19.7326 12.809C19.1452 13.4929 18.8653 14.2784 18.7351 14.9623C18.5766 14.4817 18.4645 13.844 18.4926 13.0031C18.5104 11.3672 17.6527 10.5355 16.8135 10.1656L16.8135 10.1657ZM19.3962 18.2619C19.247 18.271 19.1256 18.3451 19.0419 18.4559C18.986 18.4559 18.9113 18.4376 18.8276 18.3914C18.5759 18.2527 18.3427 17.8832 18.1935 17.3468C18.0536 16.8479 18.0817 16.5705 18.1654 16.478C18.2028 16.441 18.2679 16.4135 18.3331 16.4039C18.4915 16.6259 18.6499 16.7921 18.7898 16.9121C18.8831 16.9954 19.0042 17.0416 19.1256 17.0416C19.2096 17.0416 19.284 17.0232 19.3588 16.9862C19.5453 16.8937 19.6479 16.6905 19.6294 16.478C19.6294 16.4597 19.4151 14.685 20.4874 13.4372C21.1496 12.6701 22.175 12.2449 23.5365 12.1895C26.6788 12.06 27.9285 11.3486 28.4226 10.8125C29.0382 11.1915 30.2035 12.1895 30.2598 14.2877V16.4872C30.2598 16.663 30.3438 16.8108 30.4837 16.9033C30.6795 17.0328 30.9405 17.0141 31.1178 16.8479C31.2577 16.7184 31.3977 16.5705 31.528 16.4043C31.6027 16.4135 31.6864 16.4322 31.7238 16.4784C31.8078 16.5709 31.8448 16.8387 31.6956 17.3472C31.5465 17.8833 31.3133 18.2531 31.0616 18.3918C30.9775 18.438 30.8939 18.4563 30.8376 18.4563C30.7725 18.4101 30.6884 18.3822 30.6044 18.373C30.3527 18.336 30.0821 18.5392 30.0451 18.8166C29.8308 20.7667 28.9912 23.336 26.2498 24.5375C25.485 24.8703 24.5899 24.8795 23.8533 24.5838C20.9442 23.3914 20.1236 20.7391 19.937 18.7241C19.9185 18.4468 19.676 18.2431 19.3962 18.2619ZM20.1517 26.1731C20.7576 26.8016 21.9326 27.8458 23.4154 28.3543C22.3804 28.9644 21.0282 30.0364 20.2264 31.7278L19.3873 27.3009L20.1517 26.1731ZM11.4984 30.2301L18.4638 27.8549L19.6106 33.9269C19.6106 33.936 19.6106 33.9452 19.6198 33.9548L21.5221 44.0009H11.4981L11.4984 30.2301ZM38.4838 44.0012H28.096L28.2359 43.3174V43.3082L31.4996 27.837L38.4743 30.2215V44.0011L38.4838 44.0012Z" fill="url(#paint0_linear_5443_13709)"/>
<defs>
<linearGradient id="paint0_linear_5443_13709" x1="0" y1="0" x2="0" y2="1" gradientUnits="objectBoundingBox">
<stop stop-color="#ED3040"/>
<stop offset="1" stop-color="#2D23F4"/>
</linearGradient>
</defs>
</svg>
