<svg width="50" height="50" viewBox="0 0 50 50" fill="none" xmlns="http://www.w3.org/2000/svg">
<path d="M35.3163 16.7244C35.6841 16.7244 36.0366 16.8695 36.2967 17.1282C36.5568 17.387 36.703 17.7377 36.703 18.1036H38.0892C38.0892 17.3719 37.7972 16.6704 37.2771 16.1529C36.757 15.6358 36.0518 15.3449 35.3163 15.3449H35.1154V13.669H33.7288V15.3449H33.5279C32.5373 15.3449 31.6219 15.8709 31.1265 16.7244C30.6312 17.5779 30.6312 18.6295 31.1265 19.483C31.6219 20.3365 32.5373 20.8621 33.5279 20.8621H33.7288V23.6208H33.5279C33.1602 23.6208 32.8076 23.4757 32.5476 23.2169C32.2875 22.9582 32.1413 22.6074 32.1413 22.2416H30.7551C30.7551 22.9733 31.0471 23.6748 31.5672 24.1923C32.0873 24.7094 32.7925 25.0003 33.528 25.0003H33.7289V26.6761H35.1151L35.1154 25.0003H35.3163C36.307 25.0003 37.2224 24.4743 37.7177 23.6208C38.2131 22.7673 38.2131 21.7156 37.7177 20.8622C37.2224 20.0087 36.307 19.483 35.3163 19.483H35.1154V16.7244H35.3163ZM35.3163 20.8622C35.8117 20.8622 36.2695 21.125 36.5172 21.5517C36.7649 21.9785 36.7649 22.5045 36.5172 22.9312C36.2695 23.358 35.8117 23.6208 35.3163 23.6208H35.1155V20.8622L35.3163 20.8622ZM33.7289 19.483H33.528C33.0326 19.483 32.5748 19.2202 32.3271 18.7931C32.0794 18.3664 32.0794 17.8407 32.3271 17.414C32.5748 16.9872 33.0326 16.7244 33.528 16.7244H33.7289V19.483Z" fill="url(#paint0_linear_5443_13693)"/>
<path d="M35.1147 8.44819C35.1147 7.53373 34.7494 6.65668 34.0993 6.00987C33.4495 5.36307 32.5678 5 31.6484 5H9.46597C8.54653 5 7.66522 5.36309 7.01507 6.00987C6.36494 6.65666 6 7.53382 6 8.44819V15.3447C6 15.5277 6.07292 15.703 6.20295 15.8323C6.33298 15.9617 6.5091 16.0346 6.69313 16.0346H11.5457V41.5515C11.5457 42.4662 11.9107 43.3433 12.5608 43.9898C13.2106 44.6366 14.0922 45 15.0117 45H37.1941C38.1135 45 38.9951 44.6366 39.6449 43.9898C40.2951 43.3433 40.6604 42.4662 40.6604 41.5515V37.4137C40.6604 37.1526 40.5118 36.9137 40.2772 36.7967C40.0422 36.68 39.7612 36.7053 39.551 36.862L36.2653 39.3103L35.1147 38.4482V29.8273C38.3753 29.5525 41.2775 27.6611 42.8334 24.7967C44.3889 21.9327 44.3889 18.481 42.8334 15.6162C41.2775 12.7518 38.3753 10.8603 35.1147 10.5855L35.1147 8.44819ZM7.38625 14.6551V8.44819C7.38625 7.70899 7.78252 7.02595 8.42615 6.65633C9.06978 6.28671 9.86233 6.28673 10.5059 6.65633C11.1491 7.02593 11.5458 7.70904 11.5458 8.44819V14.6551H7.38625ZM36.6813 40.7239L39.2739 38.7928V41.5514C39.2739 42.1003 39.0547 42.6266 38.6646 43.0144C38.2749 43.4024 37.7458 43.6204 37.1941 43.6204H17.7848C18.2347 43.0236 18.4779 42.2977 18.4779 41.5514V38.7928L21.0636 40.7239C21.3099 40.9077 21.6491 40.9077 21.8954 40.7239L25.1742 38.2757L28.453 40.7239C28.6997 40.9077 29.0385 40.9077 29.2851 40.7239L32.5708 38.2757L35.8497 40.7239C36.096 40.9077 36.4351 40.9077 36.6814 40.7239H36.6813ZM32.9797 36.8619C32.7344 36.6813 32.3997 36.6813 32.1548 36.8619L28.8759 39.3102L25.5899 36.8619C25.3436 36.6778 25.0048 36.6778 24.7581 36.8619L21.4793 39.3102L18.2004 36.8619C17.9892 36.7052 17.7072 36.6813 17.4726 36.7997C17.2394 36.9167 17.0921 37.1539 17.0911 37.4136V41.5514C17.0911 42.2906 16.6948 42.9736 16.0515 43.3432C15.4079 43.7128 14.6151 43.7128 13.9718 43.3432C13.3282 42.9736 12.9319 42.2905 12.9319 41.5514V8.44756C12.9189 7.70357 12.6767 6.98152 12.2388 6.37851H31.6482C32.1999 6.37851 32.7289 6.59651 33.1187 6.98459C33.5088 7.37267 33.7279 7.8987 33.7279 8.44756V10.5509C30.4043 10.749 27.4148 12.6278 25.8079 15.5288C24.2008 18.4298 24.2008 21.9479 25.8079 24.8486C27.4147 27.7499 30.4042 29.6287 33.7279 29.8265V37.4129L32.9797 36.8619ZM34.4213 28.4481C32.2153 28.4481 30.0995 27.5761 28.5395 26.0241C26.9791 24.4722 26.103 22.3672 26.103 20.1722C26.103 17.9771 26.9792 15.8721 28.5395 14.3202C30.0995 12.7682 32.2153 11.8962 34.4213 11.8962C36.6276 11.8962 38.7435 12.7682 40.3035 14.3202C41.8634 15.8721 42.7399 17.9771 42.7399 20.1722C42.7399 22.3672 41.8634 24.4722 40.3035 26.0241C38.7435 27.5761 36.6276 28.4481 34.4213 28.4481Z" fill="url(#paint1_linear_5443_13693)"/>
<path d="M16.3983 31.8965H30.2626V33.2756H16.3983V31.8965Z" fill="url(#paint2_linear_5443_13693)"/>
<path d="M16.3983 27.7587H25.4104V29.1378H16.3983V27.7587Z" fill="url(#paint3_linear_5443_13693)"/>
<path d="M16.3983 23.6201H24.0238V24.9992H16.3983V23.6201Z" fill="url(#paint4_linear_5443_13693)"/>
<path d="M16.3983 19.4823H22.6372V20.8615H16.3983V19.4823Z" fill="url(#paint5_linear_5443_13693)"/>
<path d="M16.3983 15.3446H22.6372V16.7237H16.3983V15.3446Z" fill="url(#paint6_linear_5443_13693)"/>
<path d="M16.3983 11.2068H26.1035V12.5859H16.3983V11.2068Z" fill="url(#paint7_linear_5443_13693)"/>
<defs>
<linearGradient id="paint0_linear_5443_13693" x1="37.0293" y1="33.6397" x2="37.0293" y2="41.6506" gradientUnits="userSpaceOnUse">
<stop stop-color="#ED3040"/>
<stop offset="1" stop-color="#2D23F4"/>
</linearGradient>
<linearGradient id="paint1_linear_5443_13693" x1="37.0293" y1="33.6397" x2="37.0293" y2="41.6506" gradientUnits="userSpaceOnUse">
<stop stop-color="#ED3040"/>
<stop offset="1" stop-color="#2D23F4"/>
</linearGradient>
<linearGradient id="paint2_linear_5443_13693" x1="37.0293" y1="33.6397" x2="37.0293" y2="41.6506" gradientUnits="userSpaceOnUse">
<stop stop-color="#ED3040"/>
<stop offset="1" stop-color="#2D23F4"/>
</linearGradient>
<linearGradient id="paint3_linear_5443_13693" x1="37.0293" y1="33.6397" x2="37.0293" y2="41.6506" gradientUnits="userSpaceOnUse">
<stop stop-color="#ED3040"/>
<stop offset="1" stop-color="#2D23F4"/>
</linearGradient>
<linearGradient id="paint4_linear_5443_13693" x1="37.0293" y1="33.6397" x2="37.0293" y2="41.6506" gradientUnits="userSpaceOnUse">
<stop stop-color="#ED3040"/>
<stop offset="1" stop-color="#2D23F4"/>
</linearGradient>
<linearGradient id="paint5_linear_5443_13693" x1="37.0293" y1="33.6397" x2="37.0293" y2="41.6506" gradientUnits="userSpaceOnUse">
<stop stop-color="#ED3040"/>
<stop offset="1" stop-color="#2D23F4"/>
</linearGradient>
<linearGradient id="paint6_linear_5443_13693" x1="37.0293" y1="33.6397" x2="37.0293" y2="41.6506" gradientUnits="userSpaceOnUse">
<stop stop-color="#ED3040"/>
<stop offset="1" stop-color="#2D23F4"/>
</linearGradient>
<linearGradient id="paint7_linear_5443_13693" x1="37.0293" y1="33.6397" x2="37.0293" y2="41.6506" gradientUnits="userSpaceOnUse">
<stop stop-color="#ED3040"/>
<stop offset="1" stop-color="#2D23F4"/>
</linearGradient>
</defs>
</svg>
