<svg width="50" height="50" viewBox="0 0 50 50" fill="none" xmlns="http://www.w3.org/2000/svg">
<path d="M22.4229 14.0313C24.8899 14.0313 26.904 12.0077 26.904 9.51179C26.904 7.01587 24.8898 5 22.4229 5C19.956 5 17.9418 7.02363 17.9418 9.51955C17.9418 12.0158 19.956 14.0313 22.4229 14.0313ZM22.4229 6.29121C24.1873 6.29121 25.6238 7.73998 25.6238 9.51955C25.6238 11.2991 24.1874 12.7479 22.4229 12.7479C20.6586 12.7479 19.2221 11.2991 19.2221 9.51955C19.2221 7.73998 20.6585 6.29121 22.4229 6.29121Z" fill="url(#paint0_linear_5443_13719)"/>
<path d="M36.4993 30.8028H31.3857V21.1259C31.3857 18.3621 29.4338 15.9684 26.7484 15.4329L26.2488 15.3307L24.1175 20.2047L23.7818 16.6063H24.3595V15.315H20.5261V16.6063H21.1038L20.7682 20.2047L18.6369 15.3307L18.1373 15.4329C15.4515 15.9683 13.5 18.362 13.5 21.1259V32.0943H16.7009V45H28.1852V38.5512H36.5L36.4993 30.8028ZM22.3682 16.6136H22.4853L23.0553 22.6214L22.4308 24.0464L21.8063 22.6214L22.3682 16.6136ZM26.9039 43.7077H23.0627L23.063 34.6766H21.7827V43.7077H17.9416V30.802H14.7407V21.1251C14.7407 19.1487 16.021 17.4164 17.8558 16.8259L22.415 27.2429L26.9742 16.8259C28.8089 17.4163 30.0892 19.1486 30.0892 21.1251V30.802H24.9836V38.5421H26.9042L26.9039 43.7077ZM35.2186 37.2588H26.2644V32.1013H35.2186V37.2588Z" fill="url(#paint1_linear_5443_13719)"/>
<defs>
<linearGradient id="paint0_linear_5443_13719" x1="32.2809" y1="33.6397" x2="32.2809" y2="41.6506" gradientUnits="userSpaceOnUse">
<stop stop-color="#ED3040"/>
<stop offset="1" stop-color="#2D23F4"/>
</linearGradient>
<linearGradient id="paint1_linear_5443_13719" x1="32.2809" y1="33.6397" x2="32.2809" y2="41.6506" gradientUnits="userSpaceOnUse">
<stop stop-color="#ED3040"/>
<stop offset="1" stop-color="#2D23F4"/>
</linearGradient>
</defs>
</svg>
