<svg width="50" height="50" viewBox="0 0 50 50" fill="none" xmlns="http://www.w3.org/2000/svg">
<path d="M45 32.1057H43.3488L44.9744 27.5291H37.3964C36.2008 26.5587 34.7154 26.0241 33.1569 26.0241C29.6543 26.0241 26.7741 28.7039 26.4793 32.1056H23.603C23.3075 28.7035 20.428 26.0241 16.9253 26.0241C15.368 26.0241 13.8816 26.5583 12.6867 27.5291H5.10862L6.73425 32.1057H5V36.0863H6.73931V45H42.7581V36.0866H44.9994L45 32.1057ZM43.3366 28.68L42.1198 32.1061L36.6856 32.1057L37.8189 28.6797L43.3366 28.68ZM34.4088 27.3218L33.1574 29.1386L31.9039 27.3225C32.3074 27.2293 32.7256 27.1758 33.1574 27.1758C33.5839 27.1747 34.0017 27.2286 34.4088 27.3218ZM30.7716 27.7175L33.1581 31.1757L35.5432 27.714C35.9477 27.906 36.3289 28.1465 36.6798 28.4338L35.4649 32.1064H27.6405C27.8444 30.1654 29.0705 28.5265 30.7717 27.7175L30.7716 27.7175ZM22.4424 32.1057H14.6177L13.4027 28.4331C13.7537 28.1458 14.1352 27.9052 14.5394 27.7132L16.9244 31.175L19.311 27.7172C21.0121 28.5266 22.2383 30.1654 22.4425 32.1057L22.4424 32.1057ZM18.179 27.3221L16.9255 29.1383L15.6738 27.3214C16.0805 27.2282 16.4987 27.1751 16.9252 27.1751C17.3574 27.1747 17.7756 27.229 18.179 27.3221ZM6.74714 28.68H12.2641L13.3978 32.1061L7.96359 32.1057L6.74714 28.68ZM41.5996 43.8496H7.8987V36.0864H41.5987L41.5996 43.8496ZM43.8409 34.9359H6.16058V33.2567H43.8409V34.9359Z" fill="url(#paint0_linear_5443_13673)"/>
<path d="M16.9253 17.2577C14.7132 17.2577 12.9131 19.0443 12.9131 21.2398C12.9131 23.4356 14.7132 25.2218 16.9253 25.2218C19.1373 25.2218 20.9374 23.4353 20.9374 21.2398C20.937 19.0443 19.1373 17.2577 16.9253 17.2577ZM16.9253 24.0709C15.3521 24.0709 14.0728 22.8011 14.0728 21.2398C14.0728 19.6784 15.3521 18.4087 16.9253 18.4087C18.4984 18.4087 19.7777 19.6784 19.7777 21.2398C19.7777 22.8011 18.4984 24.0709 16.9253 24.0709Z" fill="url(#paint1_linear_5443_13673)"/>
<path d="M11.6977 14.4876H14.0554L17.4246 16.9662V14.4876H20.0592C22.6949 14.4876 24.8387 12.3592 24.8387 9.74401C24.8387 7.12844 22.6942 5 20.0589 5H11.6977C9.06195 5 6.91817 7.12807 6.91817 9.74364C6.91817 12.3596 9.06195 14.4876 11.6977 14.4876ZM11.6977 6.15097H20.0589C22.0549 6.15097 23.6791 7.7623 23.6791 9.74401C23.6791 11.7254 22.0548 13.337 20.0589 13.337L16.265 13.3367V14.6807L14.4383 13.3367H11.6979C9.70189 13.3367 8.07774 11.7246 8.07774 9.74365C8.07774 7.76295 9.70161 6.15097 11.6976 6.15097L11.6977 6.15097Z" fill="url(#paint2_linear_5443_13673)"/>
<path d="M10.7974 7.85211H21.1974V9.00271H10.7974V7.85211Z" fill="url(#paint3_linear_5443_13673)"/>
<path d="M10.7974 10.1535H21.1974V11.3041H10.7974V10.1535Z" fill="url(#paint4_linear_5443_13673)"/>
<path d="M32.802 14.4876V16.9662L36.1715 14.4876H38.5293C41.165 14.4876 43.3087 12.3592 43.3087 9.74401C43.3087 7.12844 41.1639 5 38.5289 5H30.1677C27.532 5 25.3878 7.12807 25.3878 9.74364C25.3875 12.3596 27.532 14.4876 30.1677 14.4876H32.802ZM30.1678 6.15097H38.529C40.525 6.15097 42.1492 7.7623 42.1492 9.74401C42.1492 11.7254 40.5249 13.337 38.529 13.337H35.7883L33.9617 14.6811V13.337H30.1681C28.1717 13.337 26.5476 11.725 26.5476 9.74401C26.5472 7.76294 28.1711 6.15097 30.1678 6.15097Z" fill="url(#paint5_linear_5443_13673)"/>
<path d="M29.0291 7.85211H39.4291V9.00271H29.0291V7.85211Z" fill="url(#paint6_linear_5443_13673)"/>
<path d="M29.0291 10.1535H39.4291V11.3041H29.0291V10.1535Z" fill="url(#paint7_linear_5443_13673)"/>
<path d="M33.1576 17.2577C30.9451 17.2577 29.1454 19.0443 29.1454 21.2398C29.1454 23.4356 30.9455 25.2218 33.1576 25.2218C35.3697 25.2218 37.1697 23.4353 37.1697 21.2398C37.1697 19.0443 35.3697 17.2577 33.1576 17.2577ZM33.1576 24.0709C31.5844 24.0709 30.3051 22.8011 30.3051 21.2398C30.3051 19.6784 31.5852 18.4087 33.1576 18.4087C34.7304 18.4087 36.0101 19.6784 36.0101 21.2398C36.0101 22.8011 34.7304 24.0709 33.1576 24.0709Z" fill="url(#paint8_linear_5443_13673)"/>
<path d="M10.2175 42.7182V38.3457H40.02V37.1948H9.05762V42.7182H10.2175Z" fill="url(#paint9_linear_5443_13673)"/>
<defs>
<linearGradient id="paint0_linear_5443_13673" x1="37.6624" y1="33.6397" x2="37.6624" y2="41.6506" gradientUnits="userSpaceOnUse">
<stop stop-color="#ED3040"/>
<stop offset="1" stop-color="#2D23F4"/>
</linearGradient>
<linearGradient id="paint1_linear_5443_13673" x1="37.6624" y1="33.6397" x2="37.6624" y2="41.6506" gradientUnits="userSpaceOnUse">
<stop stop-color="#ED3040"/>
<stop offset="1" stop-color="#2D23F4"/>
</linearGradient>
<linearGradient id="paint2_linear_5443_13673" x1="37.6624" y1="33.6397" x2="37.6624" y2="41.6506" gradientUnits="userSpaceOnUse">
<stop stop-color="#ED3040"/>
<stop offset="1" stop-color="#2D23F4"/>
</linearGradient>
<linearGradient id="paint3_linear_5443_13673" x1="37.6624" y1="33.6397" x2="37.6624" y2="41.6506" gradientUnits="userSpaceOnUse">
<stop stop-color="#ED3040"/>
<stop offset="1" stop-color="#2D23F4"/>
</linearGradient>
<linearGradient id="paint4_linear_5443_13673" x1="37.6624" y1="33.6397" x2="37.6624" y2="41.6506" gradientUnits="userSpaceOnUse">
<stop stop-color="#ED3040"/>
<stop offset="1" stop-color="#2D23F4"/>
</linearGradient>
<linearGradient id="paint5_linear_5443_13673" x1="37.6624" y1="33.6397" x2="37.6624" y2="41.6506" gradientUnits="userSpaceOnUse">
<stop stop-color="#ED3040"/>
<stop offset="1" stop-color="#2D23F4"/>
</linearGradient>
<linearGradient id="paint6_linear_5443_13673" x1="37.6624" y1="33.6397" x2="37.6624" y2="41.6506" gradientUnits="userSpaceOnUse">
<stop stop-color="#ED3040"/>
<stop offset="1" stop-color="#2D23F4"/>
</linearGradient>
<linearGradient id="paint7_linear_5443_13673" x1="37.6624" y1="33.6397" x2="37.6624" y2="41.6506" gradientUnits="userSpaceOnUse">
<stop stop-color="#ED3040"/>
<stop offset="1" stop-color="#2D23F4"/>
</linearGradient>
<linearGradient id="paint8_linear_5443_13673" x1="37.6624" y1="33.6397" x2="37.6624" y2="41.6506" gradientUnits="userSpaceOnUse">
<stop stop-color="#ED3040"/>
<stop offset="1" stop-color="#2D23F4"/>
</linearGradient>
<linearGradient id="paint9_linear_5443_13673" x1="37.6624" y1="33.6397" x2="37.6624" y2="41.6506" gradientUnits="userSpaceOnUse">
<stop stop-color="#ED3040"/>
<stop offset="1" stop-color="#2D23F4"/>
</linearGradient>
</defs>
</svg>
