<svg width="50" height="50" viewBox="0 0 50 50" fill="none" xmlns="http://www.w3.org/2000/svg">
<path d="M39.3786 23.8934L34.4633 22.9669L34.4636 22.9666C34.1588 22.9044 33.8421 22.9676 33.584 23.1418C33.3263 23.3161 33.1486 23.5872 33.0913 23.8941C33.0337 24.2009 33.1015 24.518 33.2786 24.7746C33.456 25.0312 33.7282 25.2054 34.0347 25.2583L38.0037 26.0066V28.509L34.0353 29.2566C33.5969 29.3389 33.2444 29.6666 33.1285 30.0994C32.8862 31.0034 32.5287 31.8723 32.0646 32.6848C31.8418 33.073 31.8605 33.5551 32.1127 33.9251L34.3908 37.27L32.6295 39.0393L29.299 36.7502C28.9307 36.4969 28.4505 36.4781 28.0637 36.7019C27.2556 37.1688 26.3909 37.5282 25.491 37.7713C25.0605 37.8877 24.7346 38.2418 24.6526 38.6816L23.9077 42.668L21.4169 42.6683L20.6724 38.6826C20.5904 38.2425 20.2645 37.8883 19.8343 37.7716C18.934 37.5286 18.0687 37.1691 17.2606 36.7026C16.8738 36.4784 16.3936 36.4969 16.0249 36.7502L12.6951 39.039L10.9341 37.27L13.2126 33.9247C13.4644 33.5547 13.4831 33.0723 13.2603 32.6838C12.7959 31.8724 12.4384 31.0034 12.1968 30.0994C12.0809 29.6666 11.7281 29.3389 11.2896 29.2566L7.32152 28.509V26.0069L11.2906 25.2586V25.2583C11.7287 25.1759 12.0809 24.8482 12.1968 24.4161C12.4384 23.512 12.7959 22.6435 13.2603 21.832C13.4831 21.4435 13.4647 20.9611 13.2126 20.5911L10.9341 17.2462L12.6954 15.4768L16.0253 17.7656L16.0256 17.7653C16.3936 18.0186 16.8738 18.0371 17.2603 17.8136C18.0687 17.3474 18.9337 16.9883 19.834 16.7449C20.2645 16.6282 20.5907 16.2741 20.6724 15.8336L21.4166 11.8472H23.9074L24.6523 15.8343H24.6526C24.7708 16.4671 25.3778 16.8837 26.0078 16.7647C26.6381 16.646 27.0528 16.0363 26.9344 15.4034L26.0121 10.4657C25.9087 9.91453 25.4294 9.51514 24.8712 9.51514H20.4535C19.8949 9.51514 19.4157 9.91491 19.3126 10.4664L18.521 14.7068C17.9147 14.9075 17.3238 15.1525 16.7533 15.4402L13.2112 13.0052L13.2109 13.0048C12.7501 12.6874 12.1293 12.7456 11.7346 13.1427L8.61086 16.2806C8.21587 16.6774 8.15826 17.3007 8.4736 17.7637L10.8972 21.3222C10.6112 21.8952 10.3673 22.4887 10.1672 23.0975L5.9463 23.8934C5.39726 23.9969 4.99966 24.4783 5 25.0394V29.4768C5 30.0379 5.39796 30.5193 5.94698 30.6229L10.1675 31.4181H10.1672C10.3673 32.0272 10.6112 32.6207 10.8973 33.194L8.47395 36.7522C8.15861 37.2154 8.21621 37.8384 8.61121 38.2352L11.7349 41.3731C12.1299 41.7695 12.7501 41.8277 13.2113 41.511L16.7534 39.0757C17.3241 39.363 17.915 39.608 18.5213 39.8091L19.3129 44.0487C19.4156 44.6003 19.8948 45 20.4538 45H24.8711C25.4294 45 25.9086 44.6006 26.012 44.0494L26.8043 39.8091C27.4099 39.608 28.0004 39.3627 28.5709 39.0757L32.1137 41.51V41.5103C32.5749 41.8267 33.195 41.7689 33.59 41.3721L36.7137 38.2342V38.2345C37.1087 37.8377 37.1663 37.2144 36.851 36.7515L34.427 33.1933V33.193C34.7134 32.62 34.9573 32.0264 35.1571 31.4173L39.3783 30.6221C39.9274 30.5186 40.3253 30.0372 40.3253 29.4761V25.039C40.3253 24.4782 39.9277 23.9968 39.3786 23.8933V23.8934Z" fill="url(#paint0_linear_5443_13731)"/>
<path d="M15.1751 27.2573C15.1751 29.2521 15.9637 31.1653 17.3679 32.5755C18.7721 33.9861 20.6763 34.7787 22.6621 34.7787C24.6479 34.7787 26.5525 33.9861 27.9564 32.5759C29.3606 31.1653 30.1495 29.2521 30.1495 27.2573C30.1495 25.2628 29.3605 23.3496 27.9564 21.939C26.5522 20.5285 24.6479 19.7362 22.6621 19.7362C20.6773 19.7386 18.774 20.5318 17.3705 21.9417C15.9666 23.3516 15.1773 25.2635 15.175 27.2574L15.1751 27.2573ZM27.8275 27.2573C27.8275 28.6335 27.2834 29.9535 26.3147 30.9266C25.346 31.8997 24.032 32.4463 22.662 32.4463C21.292 32.4463 19.9783 31.8997 19.0092 30.9266C18.0405 29.9535 17.4964 28.6338 17.4964 27.2573C17.4964 25.8811 18.0405 24.5614 19.0092 23.5883C19.9779 22.6152 21.292 22.0683 22.662 22.0683C24.0316 22.07 25.3446 22.6172 26.313 23.59C27.2814 24.5628 27.8258 25.8818 27.8275 27.2573Z" fill="url(#paint1_linear_5443_13731)"/>
<path d="M36.8262 5C34.6583 5 32.5791 5.86502 31.0461 7.40484C29.5133 8.94467 28.6521 11.0331 28.6521 13.2108C28.6521 15.3886 29.5133 17.4769 31.0461 19.0168C32.579 20.5567 34.6583 21.4217 36.8259 21.4217C38.9938 21.4217 41.0731 20.5567 42.606 19.0168C44.139 17.477 45 15.3886 45 13.2108C44.9977 11.0338 44.1356 8.9467 42.6034 7.40747C41.0708 5.86789 38.9931 5.00229 36.8262 5ZM36.8262 19.0896C35.2739 19.0896 33.7854 18.4703 32.688 17.3679C31.5907 16.2652 30.9737 14.77 30.9737 13.2109C30.9737 11.6519 31.5903 10.1563 32.688 9.05395C33.7854 7.95158 35.274 7.33222 36.8259 7.33222C38.3782 7.33222 39.8667 7.95153 40.9641 9.05395C42.0615 10.1563 42.6781 11.6516 42.6781 13.2109C42.6764 14.7693 42.0592 16.2635 40.9622 17.3656C39.865 18.4677 38.3776 19.0877 36.8262 19.0896Z" fill="url(#paint2_linear_5443_13731)"/>
<path d="M36.6821 8.66779C36.3303 8.70185 36.0064 8.87511 35.7815 9.14922C35.5567 9.42301 35.4497 9.77548 35.4836 10.1289L35.7809 13.2169C35.8322 13.7496 36.2776 14.156 36.8105 14.156C37.3431 14.156 37.7884 13.7496 37.8398 13.2169L38.137 10.1289C38.1449 10.0433 38.1449 9.957 38.137 9.87135C38.1031 9.51788 37.9306 9.19252 37.6578 8.96698C37.3849 8.74114 37.034 8.63341 36.6821 8.66779Z" fill="url(#paint3_linear_5443_13731)"/>
<path d="M36.8262 14.8572C36.185 14.8572 35.6653 15.3793 35.6653 16.0231V16.12C35.6653 16.7641 36.1851 17.2862 36.8262 17.2862C37.4671 17.2862 37.9868 16.7641 37.9868 16.12V16.0231C37.9868 15.3793 37.4671 14.8572 36.8262 14.8572Z" fill="url(#paint4_linear_5443_13731)"/>
<defs>
<linearGradient id="paint0_linear_5443_13731" x1="0" y1="0" x2="0" y2="1" gradientUnits="objectBoundingBox">
<stop stop-color="#ED3040"/>
<stop offset="1" stop-color="#2D23F4"/>
</linearGradient>
<linearGradient id="paint1_linear_5443_13731" x1="0" y1="0" x2="0" y2="1" gradientUnits="objectBoundingBox">
<stop stop-color="#ED3040"/>
<stop offset="1" stop-color="#2D23F4"/>
</linearGradient>
<linearGradient id="paint2_linear_5443_13731" x1="0" y1="0" x2="0" y2="1" gradientUnits="objectBoundingBox">
<stop stop-color="#ED3040"/>
<stop offset="1" stop-color="#2D23F4"/>
</linearGradient>
<linearGradient id="paint3_linear_5443_13731" x1="0" y1="0" x2="0" y2="1" gradientUnits="objectBoundingBox">
<stop stop-color="#ED3040"/>
<stop offset="1" stop-color="#2D23F4"/>
</linearGradient>
<linearGradient id="paint4_linear_5443_13731" x1="0" y1="0" x2="0" y2="1" gradientUnits="objectBoundingBox">
<stop stop-color="#ED3040"/>
<stop offset="1" stop-color="#2D23F4"/>
</linearGradient>
</defs>
</svg>
