<svg width="50" height="50" viewBox="0 0 50 50" fill="none" xmlns="http://www.w3.org/2000/svg">
<path d="M43.6059 5H6.39381C5.60583 5 5 5.60583 5 6.39381V43.6059C5 44.3938 5.60583 45 6.39381 45H43.6059C44.3938 45 44.9997 44.3938 44.9997 43.6062L45 6.39413C45 5.60616 44.3938 5.00033 43.6059 5.00033L43.6059 5ZM43.6059 6.21196C43.727 6.21196 43.7877 6.27267 43.7877 6.39378V14.2118H6.21161V6.39378C6.21161 6.27267 6.27232 6.21196 6.39343 6.21196H43.6059ZM43.6059 43.788H6.39381C6.2727 43.788 6.21199 43.7273 6.21199 43.6062V15.4242H43.7881V43.5457C43.7881 43.7272 43.7274 43.7879 43.6063 43.7879L43.6059 43.788Z" fill="url(#paint0_linear_5443_13723)"/>
<path d="M25.6669 12.6369H41.7882C42.1519 12.6369 42.3944 12.3944 42.3944 12.0308V8.21263C42.3944 7.849 42.1519 7.60647 41.7882 7.60647H25.6669C25.3033 7.60647 25.0608 7.849 25.0608 8.21263V11.9704C25.0608 12.334 25.3033 12.6369 25.6669 12.6369ZM26.2731 8.81879H41.1821V11.3642H26.2731V8.81879Z" fill="url(#paint1_linear_5443_13723)"/>
<path d="M9.72719 12.6369C11.0606 12.6369 12.1515 11.546 12.1515 10.2126C12.1515 8.87916 11.0606 7.78827 9.72719 7.78827C8.39376 7.78827 7.30286 8.87916 7.30286 10.2126C7.30286 11.546 8.39376 12.6369 9.72719 12.6369ZM9.72719 9.00064C10.3937 9.00064 10.9392 9.54609 10.9392 10.2126C10.9392 10.8791 10.3937 11.4246 9.72719 11.4246C9.06065 11.4246 8.51523 10.8791 8.51523 10.2126C8.51523 9.54609 9.06068 9.00064 9.72719 9.00064Z" fill="url(#paint2_linear_5443_13723)"/>
<path d="M15.4246 12.6369C16.7581 12.6369 17.849 11.546 17.849 10.2126C17.849 8.87916 16.7581 7.78827 15.4246 7.78827C14.0912 7.78827 13.0003 8.87916 13.0003 10.2126C13.0003 11.546 14.0912 12.6369 15.4246 12.6369ZM15.4246 9.00064C16.0912 9.00064 16.6366 9.54609 16.6366 10.2126C16.6366 10.8791 16.0911 11.4246 15.4246 11.4246C14.7581 11.4246 14.2127 10.8791 14.2127 10.2126C14.2123 9.54605 14.7578 9.00064 15.4246 9.00064Z" fill="url(#paint3_linear_5443_13723)"/>
<path d="M21.1212 12.6369C22.4547 12.6369 23.5456 11.546 23.5456 10.2126C23.5456 8.87916 22.4547 7.78827 21.1212 7.78827C19.7878 7.78827 18.6969 8.87916 18.6969 10.2126C18.6969 11.546 19.7878 12.6369 21.1212 12.6369ZM21.1212 9.00064C21.7878 9.00064 22.3332 9.54609 22.3332 10.2126C22.3332 10.8791 21.7878 11.4246 21.1212 11.4246C20.4547 11.4246 19.9093 10.8791 19.9093 10.2126C19.909 9.54605 20.4544 9.00064 21.1212 9.00064Z" fill="url(#paint4_linear_5443_13723)"/>
<path d="M10.1517 27.0004H18.6967C19.0603 27.0004 19.3028 26.7578 19.3028 26.3942V23.4852C19.3028 23.1216 19.0603 22.879 18.6967 22.879C18.333 22.879 18.0905 23.1216 18.0905 23.4852V25.7881H10.7572V18.3943H18.6967C19.0604 18.3943 19.3029 18.1518 19.3029 17.7882C19.3029 17.4245 19.0604 17.182 18.6967 17.182H10.1518C9.78818 17.182 9.54565 17.4245 9.54565 17.7882V26.3944C9.54565 26.7581 9.78817 27.0006 10.1518 27.0006L10.1517 27.0004Z" fill="url(#paint5_linear_5443_13723)"/>
<path d="M18.758 19.8485L14.273 23.0605L13.1821 20.9394C13.061 20.6365 12.6974 20.5151 12.3942 20.6969C12.0913 20.818 11.9698 21.1816 12.1516 21.4849L13.5455 24.2728C13.6062 24.4546 13.788 24.5757 13.9698 24.5757C14.1516 24.6364 14.3334 24.5757 14.4545 24.4546L19.485 20.8183C19.7275 20.6365 19.7879 20.2729 19.6061 19.9699C19.3639 19.7271 19.0002 19.6667 18.758 19.8485Z" fill="url(#paint6_linear_5443_13723)"/>
<path d="M28.6968 33.9698C28.3939 33.8487 28.0303 34.0305 27.9089 34.3334L25.7271 40.3941L25.4241 38.5759C25.3634 38.3333 25.2423 38.1515 24.9998 38.0911C24.818 38.0304 24.5755 38.0911 24.3936 38.2122L23.0602 39.4242L25.3631 32.5756C25.4842 32.2727 25.3024 31.909 24.9994 31.7876C24.6965 31.6665 24.3329 31.8483 24.2115 32.1512L21.1206 41.2418C21.0599 41.4843 21.1206 41.7872 21.3631 41.969C21.6057 42.0901 21.9086 42.0901 22.0904 41.9083L24.3329 39.8477L24.8783 42.8778C24.9391 43.1204 25.1209 43.3626 25.4238 43.3626C25.6663 43.3626 25.9692 43.2415 26.03 42.9382L29.1211 34.6968C29.1818 34.3935 29.0604 34.0906 28.6968 33.9695L28.6968 33.9698Z" fill="url(#paint7_linear_5443_13723)"/>
<path d="M39.1821 32.0908C39.061 31.7879 38.6973 31.6061 38.3941 31.7879C38.0912 31.909 37.9094 32.2726 38.0305 32.5759L40.7577 39.303L39.3639 38.1514C39.1821 38.0303 38.9396 37.9696 38.7578 38.0907C38.5759 38.1514 38.3941 38.3332 38.3941 38.5755L38.2123 40.3329L35.788 34.2722C35.6669 33.9693 35.3032 33.7875 35 33.9086C34.6971 34.0297 34.5153 34.3933 34.6364 34.6966L37.9698 42.9388C38.0909 43.1814 38.3334 43.3632 38.6363 43.3025C38.9392 43.2418 39.121 43.06 39.1818 42.757L39.5454 39.7269L41.909 41.6661C42.1515 41.8479 42.4545 41.8479 42.6363 41.6661C42.8788 41.4843 42.9392 41.1814 42.8181 40.9389L39.1821 32.0908Z" fill="url(#paint8_linear_5443_13723)"/>
<path d="M31.9092 19.909C28.879 19.909 26.394 22.3937 26.394 25.4242C26.394 28.4544 28.8787 30.9394 31.9092 30.9394C34.9393 30.9394 37.4243 28.4547 37.4243 25.4242C37.4243 22.3941 34.9393 19.909 31.9092 19.909ZM31.9092 29.7881C29.5455 29.7881 27.606 27.8489 27.606 25.485C27.606 23.1214 29.5453 21.1819 31.9092 21.1819C34.2728 21.1819 36.2123 23.1211 36.2123 25.485C36.212 27.8486 34.2727 29.7881 31.9092 29.7881Z" fill="url(#paint9_linear_5443_13723)"/>
<path d="M36.7575 33.6671C36.8786 33.6064 37 33.4246 37.0604 33.3035L37.5452 31.3036L39.5451 30.8792C39.7269 30.8185 39.848 30.7581 39.9087 30.6367C39.9694 30.5156 40.0298 30.3338 39.9694 30.152L39.424 27.6066L41.2422 25.7277C41.4847 25.4851 41.4847 25.1215 41.2422 24.8793L39.6058 23.3037L40.1513 21.1219C40.212 20.819 40.0302 20.4553 39.7269 20.3946L37.7273 19.8492L37.303 17.8492C37.2423 17.6674 37.1819 17.5463 37.0605 17.4856C36.9393 17.4249 36.7575 17.3645 36.5757 17.4249L34.0303 17.9703L32.1514 16.1521C32.0303 16.031 31.8485 15.9703 31.7271 15.9703C31.5453 15.9703 31.4242 16.031 31.3027 16.1521L29.7271 17.7885L27.5453 17.243C27.3635 17.1823 27.2424 17.243 27.0606 17.3037C26.9395 17.3644 26.818 17.5463 26.7577 17.6674L26.2729 19.6673L24.273 20.0917C23.97 20.1524 23.7275 20.516 23.7882 20.8189L24.3337 23.3643L22.5155 25.2432C22.273 25.4857 22.273 25.8494 22.5155 26.0916L24.1518 27.6672L23.6668 29.849C23.6061 30.1519 23.7879 30.5156 24.0911 30.5763L26.0911 31.061L26.5154 33.0609C26.5761 33.2428 26.6365 33.3639 26.7579 33.4246C26.879 33.4853 27.0609 33.5457 27.2427 33.4853L29.7881 32.9398L31.667 34.758C31.7881 34.8791 31.9095 34.9398 32.0913 34.9398C32.2731 34.9398 32.3942 34.8791 32.5156 34.758L34.0913 33.1217L36.2731 33.6671C36.4546 33.7278 36.6364 33.7278 36.7575 33.6671ZM34.0303 31.8489C33.8484 31.7882 33.6059 31.8489 33.4241 32.0308L32.0303 33.4853L30.3939 31.8489C30.2728 31.7278 30.1514 31.6671 29.9696 31.6671H29.8485L27.606 32.1518L27.182 30.4551C27.1213 30.2126 26.9395 30.0308 26.7576 29.9704L25.0002 29.546L25.485 27.6068C25.5457 27.425 25.485 27.1825 25.3031 27.0006L23.8486 25.6065L25.485 23.9702C25.6061 23.849 25.6668 23.6065 25.6668 23.4247L25.1821 21.1822L26.9395 20.8186C27.182 20.7579 27.3638 20.5761 27.4242 20.3942L27.8486 18.6368L29.7878 19.1216C30.0303 19.1823 30.2122 19.1216 30.394 18.9397L31.7878 17.4852L33.4241 19.1216C33.5452 19.2427 33.7878 19.3034 33.9696 19.3034L36.2121 18.8187L36.5757 20.5761C36.6364 20.8186 36.8182 21.0004 37 21.0608L38.7575 21.4852L38.3334 23.3036C38.2727 23.4854 38.3334 23.7279 38.5152 23.9098L39.9697 25.3036L38.3334 27.0006C38.2123 27.1217 38.1516 27.3642 38.1516 27.5461L38.6363 29.7885L36.8789 30.1522C36.6364 30.2129 36.4546 30.3947 36.3942 30.5765L35.9698 32.3339L34.0303 31.8489Z" fill="url(#paint10_linear_5443_13723)"/>
<path d="M34.818 23.424C34.5755 23.1815 34.2118 23.1815 33.9696 23.424L31.1213 26.4542L29.8483 24.7575C29.6665 24.5149 29.2422 24.4545 29 24.6364C28.7575 24.8182 28.6971 25.2425 28.8789 25.4847L30.5759 27.8483C30.697 27.9695 30.8788 28.0909 31.0003 28.0909C31.1821 28.0909 31.3639 28.0302 31.485 27.9091L34.8184 24.3335C35.121 24.0302 35.0606 23.6666 34.8181 23.4241L34.818 23.424Z" fill="url(#paint11_linear_5443_13723)"/>
<path d="M20.3335 29.4241H8.21224C7.84861 29.4241 7.60608 29.6666 7.60608 30.0303C7.60608 30.3939 7.8486 30.6364 8.21224 30.6364H20.3335C20.6971 30.6364 20.9397 30.3939 20.9397 30.0303C20.9397 29.7274 20.6364 29.4241 20.3335 29.4241Z" fill="url(#paint12_linear_5443_13723)"/>
<path d="M20.3335 33.1215H8.21224C7.84861 33.1215 7.60608 33.364 7.60608 33.7277C7.60608 34.0913 7.8486 34.3338 8.21224 34.3338H20.3335C20.6971 34.3338 20.9397 34.0913 20.9397 33.7277C20.9397 33.364 20.6364 33.1215 20.3335 33.1215Z" fill="url(#paint13_linear_5443_13723)"/>
<path d="M20.3335 36.7576H8.21224C7.84861 36.7576 7.60608 37.0001 7.60608 37.3637C7.60608 37.7274 7.8486 37.9699 8.21224 37.9699H20.3335C20.6971 37.9699 20.9397 37.7274 20.9397 37.3637C20.9397 37.0001 20.6364 36.7576 20.3335 36.7576Z" fill="url(#paint14_linear_5443_13723)"/>
<path d="M19.7274 40.3944H8.21224C7.84861 40.3944 7.60608 40.637 7.60608 41.0006C7.60608 41.3642 7.8486 41.6068 8.21224 41.6068H19.7274C20.091 41.6068 20.3335 41.3642 20.3335 41.0006C20.3335 40.6974 20.0306 40.3944 19.7274 40.3944Z" fill="url(#paint15_linear_5443_13723)"/>
<defs>
<linearGradient id="paint0_linear_5443_13723" x1="37.6624" y1="33.6397" x2="37.6624" y2="41.6506" gradientUnits="userSpaceOnUse">
<stop stop-color="#ED3040"/>
<stop offset="1" stop-color="#2D23F4"/>
</linearGradient>
<linearGradient id="paint1_linear_5443_13723" x1="37.6624" y1="33.6397" x2="37.6624" y2="41.6506" gradientUnits="userSpaceOnUse">
<stop stop-color="#ED3040"/>
<stop offset="1" stop-color="#2D23F4"/>
</linearGradient>
<linearGradient id="paint2_linear_5443_13723" x1="37.6624" y1="33.6397" x2="37.6624" y2="41.6506" gradientUnits="userSpaceOnUse">
<stop stop-color="#ED3040"/>
<stop offset="1" stop-color="#2D23F4"/>
</linearGradient>
<linearGradient id="paint3_linear_5443_13723" x1="37.6624" y1="33.6397" x2="37.6624" y2="41.6506" gradientUnits="userSpaceOnUse">
<stop stop-color="#ED3040"/>
<stop offset="1" stop-color="#2D23F4"/>
</linearGradient>
<linearGradient id="paint4_linear_5443_13723" x1="37.6624" y1="33.6397" x2="37.6624" y2="41.6506" gradientUnits="userSpaceOnUse">
<stop stop-color="#ED3040"/>
<stop offset="1" stop-color="#2D23F4"/>
</linearGradient>
<linearGradient id="paint5_linear_5443_13723" x1="37.6624" y1="33.6397" x2="37.6624" y2="41.6506" gradientUnits="userSpaceOnUse">
<stop stop-color="#ED3040"/>
<stop offset="1" stop-color="#2D23F4"/>
</linearGradient>
<linearGradient id="paint6_linear_5443_13723" x1="37.6624" y1="33.6397" x2="37.6624" y2="41.6506" gradientUnits="userSpaceOnUse">
<stop stop-color="#ED3040"/>
<stop offset="1" stop-color="#2D23F4"/>
</linearGradient>
<linearGradient id="paint7_linear_5443_13723" x1="37.6624" y1="33.6397" x2="37.6624" y2="41.6506" gradientUnits="userSpaceOnUse">
<stop stop-color="#ED3040"/>
<stop offset="1" stop-color="#2D23F4"/>
</linearGradient>
<linearGradient id="paint8_linear_5443_13723" x1="37.6624" y1="33.6397" x2="37.6624" y2="41.6506" gradientUnits="userSpaceOnUse">
<stop stop-color="#ED3040"/>
<stop offset="1" stop-color="#2D23F4"/>
</linearGradient>
<linearGradient id="paint9_linear_5443_13723" x1="37.6624" y1="33.6397" x2="37.6624" y2="41.6506" gradientUnits="userSpaceOnUse">
<stop stop-color="#ED3040"/>
<stop offset="1" stop-color="#2D23F4"/>
</linearGradient>
<linearGradient id="paint10_linear_5443_13723" x1="37.6624" y1="33.6397" x2="37.6624" y2="41.6506" gradientUnits="userSpaceOnUse">
<stop stop-color="#ED3040"/>
<stop offset="1" stop-color="#2D23F4"/>
</linearGradient>
<linearGradient id="paint11_linear_5443_13723" x1="37.6624" y1="33.6397" x2="37.6624" y2="41.6506" gradientUnits="userSpaceOnUse">
<stop stop-color="#ED3040"/>
<stop offset="1" stop-color="#2D23F4"/>
</linearGradient>
<linearGradient id="paint12_linear_5443_13723" x1="37.6624" y1="33.6397" x2="37.6624" y2="41.6506" gradientUnits="userSpaceOnUse">
<stop stop-color="#ED3040"/>
<stop offset="1" stop-color="#2D23F4"/>
</linearGradient>
<linearGradient id="paint13_linear_5443_13723" x1="37.6624" y1="33.6397" x2="37.6624" y2="41.6506" gradientUnits="userSpaceOnUse">
<stop stop-color="#ED3040"/>
<stop offset="1" stop-color="#2D23F4"/>
</linearGradient>
<linearGradient id="paint14_linear_5443_13723" x1="37.6624" y1="33.6397" x2="37.6624" y2="41.6506" gradientUnits="userSpaceOnUse">
<stop stop-color="#ED3040"/>
<stop offset="1" stop-color="#2D23F4"/>
</linearGradient>
<linearGradient id="paint15_linear_5443_13723" x1="37.6624" y1="33.6397" x2="37.6624" y2="41.6506" gradientUnits="userSpaceOnUse">
<stop stop-color="#ED3040"/>
<stop offset="1" stop-color="#2D23F4"/>
</linearGradient>
</defs>
</svg>
