<svg width="50" height="50" viewBox="0 0 50 50" fill="none" xmlns="http://www.w3.org/2000/svg">
<path d="M6.31542 9.6742H9.35951V11.0814H8.29253C7.84383 11.0814 7.48026 11.4511 7.48026 11.9066V16.4678C7.48026 17.9496 8.6668 19.155 10.1254 19.155H10.2189C11.2806 19.155 12.1916 18.5129 12.6123 17.5941H18.543L19.0935 20.2688H18.8301C17.7237 20.2688 16.7191 20.9326 16.2711 21.9602L15.2035 24.408H14.5665C14.1178 24.408 13.7542 24.7777 13.7542 25.2332C13.7542 25.689 14.1181 26.0584 14.5665 26.0584H15.7296C15.7303 26.0584 15.7309 26.0587 15.7313 26.0587C15.7323 26.0587 15.7329 26.0584 15.7339 26.0584H17.0216C17.4703 26.0584 17.8339 25.6887 17.8339 25.2332C17.8339 24.7773 17.4699 24.408 17.0216 24.408L16.9802 24.4086L17.7561 22.6297C17.9444 22.1986 18.3657 21.9202 18.83 21.9202H19.5245C20.0066 22.9611 21.0435 23.669 22.212 23.669H27.7907C28.9589 23.669 29.9962 22.9611 30.4786 21.9202H31.173C31.6374 21.9202 32.0587 22.1986 32.247 22.6297L33.0245 24.4124C32.5852 24.4232 32.231 24.7848 32.231 25.2338C32.231 25.6897 32.5949 26.059 33.0432 26.059H34.2685C34.2695 26.059 34.2702 26.0594 34.2712 26.0594C34.2718 26.0594 34.2725 26.059 34.2728 26.059H35.4984C35.9471 26.059 36.3107 25.6893 36.3107 25.2338C36.3107 24.778 35.9468 24.4086 35.4984 24.4086H34.7993L33.732 21.9611C33.2836 20.9335 32.2794 20.2694 31.1727 20.2694H30.909L31.4591 17.5947H37.3902C37.8112 18.5135 38.7219 19.1556 39.7832 19.1556H39.8774C41.3356 19.1556 42.5222 17.9501 42.5222 16.4683V11.9072C42.5222 11.4514 42.1583 11.082 41.7099 11.082H40.6433V9.6741H40.7858C42.8341 9.6741 44.5 7.9813 44.5 5.8252C44.5 5.36936 44.1361 5 43.6877 5H38.8758C36.8276 5 35.1617 6.69279 35.1617 8.84889C35.1617 9.30474 35.5256 9.6741 35.9739 9.6741H39.0187V11.0813H37.9514C37.5027 11.0813 37.1391 11.451 37.1391 11.9065V11.9832H12.8638V11.9065C12.8638 11.4507 12.4999 11.0813 12.0515 11.0813H10.9842V9.6741H11.1268C13.175 9.6741 14.8409 7.9813 14.8409 5.8252C14.8409 5.36936 14.477 5 14.0287 5H9.2171C7.16887 5 5.50294 6.69279 5.50294 8.84889C5.50261 9.3044 5.86651 9.6741 6.31522 9.6741L6.31542 9.6742ZM38.8751 6.65086H42.7402C42.441 7.45232 41.6775 8.02352 40.7851 8.02352H36.92C37.2195 7.22172 37.9831 6.65086 38.8751 6.65086ZM29.1139 20.9262C28.9837 21.5591 28.4271 22.0183 27.7905 22.0183H22.2118C21.5751 22.0183 21.0189 21.5587 20.8887 20.9262L20.203 17.5949H24.1889V19.1907C24.1889 19.6465 24.5528 20.0159 25.0012 20.0159C25.4499 20.0159 25.8135 19.6462 25.8135 19.1907V17.5949H29.7991L29.1139 20.9262ZM38.7631 12.7325H40.8968V16.4685C40.8968 17.04 40.4394 17.505 39.8769 17.505H39.7827C39.2202 17.505 38.7627 17.04 38.7627 16.4685C38.7631 16.2178 38.7631 12.6454 38.7631 12.7325ZM37.1382 13.6344V15.9442H12.8638V13.6344H37.1382ZM11.2382 16.4685C11.2382 17.04 10.7804 17.5051 10.2179 17.5051H10.1244C9.56183 17.5051 9.10406 17.0401 9.10406 16.4685V12.7326H11.2384C11.2381 12.8205 11.2382 16.571 11.2382 16.4685ZM9.21635 6.65095H13.0811C12.782 7.45241 12.0184 8.02361 11.126 8.02361H7.26128C7.56042 7.2218 8.32399 6.65095 9.21635 6.65095Z" fill="url(#paint0_linear_5443_13659)"/>
<path d="M6.31285 27.7352C13.2804 27.7352 19.6312 31.6238 22.4935 37.644C23.4961 39.735 24.0083 41.9985 24.0306 44.1825C24.0353 44.6357 24.3982 44.9989 24.8429 44.9989H24.8515C25.3002 44.9941 25.6601 44.6204 25.6551 44.1645C25.6515 43.8003 25.6331 43.4326 25.6047 43.0646C25.5954 42.9435 25.579 42.8228 25.567 42.7014C25.5473 42.5029 25.5319 42.3042 25.5052 42.1061C25.6224 41.884 25.7459 41.6659 25.8758 41.4512C26.1102 41.0628 25.9903 40.5544 25.6081 40.316C25.4592 40.2234 25.2936 40.2003 25.1316 40.2112C24.8579 39.1184 24.4603 38.0459 24.1801 37.4117C27.5664 33.4634 32.5509 31.2096 37.9387 31.2096C39.8267 31.2096 41.6799 31.4881 43.447 32.0368C43.8763 32.1705 44.3307 31.9252 44.4616 31.4887C44.5924 31.0526 44.3507 30.5913 43.922 30.458C42.0007 29.8614 39.9876 29.5589 37.9386 29.5589C32.3031 29.5589 27.0689 31.8354 23.3895 35.8413C20.0423 29.878 13.4736 26.0836 6.31227 26.0836C5.86357 26.0836 5.5 26.4533 5.5 26.9088C5.49967 27.3653 5.86357 27.7347 6.31227 27.7347L6.31285 27.7352Z" fill="url(#paint1_linear_5443_13659)"/>
<path d="M11.8836 31.5521C11.7017 31.969 11.8863 32.4564 12.2963 32.6419C13.2361 33.0659 14.1282 33.5929 14.9487 34.2079C15.312 34.4802 15.8197 34.3981 16.0849 34.0339C16.3509 33.6672 16.2745 33.1503 15.9136 32.8797C14.9988 32.1939 14.0039 31.6061 12.9566 31.133C12.5453 30.9491 12.0666 31.1363 11.8836 31.5521Z" fill="url(#paint2_linear_5443_13659)"/>
<path d="M19.915 41.7987C20.0873 42.5821 20.1831 43.3877 20.2011 44.1922C20.2108 44.6419 20.5724 44.9994 21.0127 44.9994C21.0187 44.9994 21.0251 44.9994 21.0311 44.999C21.4798 44.9889 21.8357 44.6114 21.8253 44.1559C21.8056 43.2425 21.6965 42.3288 21.5012 41.4391C21.4037 40.9938 20.9683 40.7153 20.5313 40.8134C20.0929 40.9124 19.8172 41.3537 19.915 41.7987Z" fill="url(#paint3_linear_5443_13659)"/>
<path d="M6.31285 31.3655C7.34547 31.3655 8.37475 31.473 9.37233 31.6853C9.42875 31.6968 9.48451 31.7026 9.53959 31.7026C9.91618 31.7026 10.2537 31.4353 10.3342 31.0466C10.4256 30.6006 10.1445 30.1627 9.70551 30.0695C8.5988 29.8341 7.45695 29.7147 6.31289 29.7147C5.86418 29.7147 5.50061 30.0844 5.50061 30.5399C5.50028 30.9958 5.86415 31.3655 6.31285 31.3655Z" fill="url(#paint4_linear_5443_13659)"/>
<path d="M18.4236 35.2493C18.1311 34.9033 17.6187 34.8626 17.2778 35.159C16.9369 35.4558 16.8972 35.9768 17.189 36.3231C17.8584 37.1167 18.429 37.9822 18.8857 38.896C19.0887 39.3023 19.5781 39.4638 19.9781 39.2579C20.378 39.0517 20.5373 38.5548 20.3343 38.1482C19.8195 37.1174 19.176 36.1423 18.4236 35.2493Z" fill="url(#paint5_linear_5443_13659)"/>
<path d="M6.31285 34.9879C11.7087 34.9879 16.2202 39.12 16.3698 44.1986C16.3828 44.6459 16.7441 44.9994 17.1814 44.9994C17.1898 44.9994 17.1978 44.9994 17.2061 44.999C17.6548 44.9855 18.0074 44.6049 17.994 44.1494C17.8154 38.0864 12.6847 33.3368 6.31233 33.3368C5.86363 33.3368 5.50006 33.7065 5.50006 34.162C5.49973 34.6178 5.86363 34.9875 6.31233 34.9875L6.31285 34.9879Z" fill="url(#paint6_linear_5443_13659)"/>
<path d="M13.2913 44.3262C13.3333 44.3262 13.3757 44.3228 13.4181 44.316C13.8612 44.2455 14.1643 43.8236 14.0949 43.3732C13.9076 42.1572 13.4014 40.9918 12.6309 40.0029C12.3525 39.6454 11.8407 39.585 11.4895 39.8679C11.1376 40.1508 11.0782 40.67 11.3566 41.0275C11.9535 41.794 12.3451 42.6935 12.4897 43.6289C12.5528 44.0359 12.898 44.3262 13.2913 44.3262Z" fill="url(#paint7_linear_5443_13659)"/>
<path d="M6.31285 38.6182C7.2994 38.6182 8.24322 38.8281 9.11755 39.2429C9.51884 39.4335 10.0056 39.2612 10.1973 38.8441C10.3869 38.431 10.2113 37.9398 9.80464 37.7472C8.71322 37.2303 7.53873 36.9677 6.31287 36.9677C5.86416 36.9677 5.50059 37.3374 5.50059 37.7929C5.50026 38.2485 5.86415 38.6182 6.31285 38.6182Z" fill="url(#paint8_linear_5443_13659)"/>
<path d="M27.7703 39.0211C28.4881 38.2918 29.2933 37.64 30.1641 37.0831C30.5437 36.8399 30.6578 36.3308 30.4188 35.9448C30.1794 35.5592 29.6783 35.4439 29.2984 35.6861C28.3252 36.3084 27.4248 37.0376 26.6216 37.8537C26.3041 38.1763 26.3041 38.6986 26.6216 39.0208C26.9387 39.3436 27.4528 39.3436 27.7703 39.0211Z" fill="url(#paint9_linear_5443_13659)"/>
<path d="M42.01 35.4047C42.4414 35.5305 42.8908 35.2758 43.0139 34.8376C43.1375 34.3994 42.8874 33.9425 42.4557 33.8177C41.3683 33.5023 40.2369 33.3018 39.0928 33.2221C38.6444 33.1919 38.2575 33.5345 38.2267 33.989C38.1957 34.4435 38.5339 34.8376 38.9816 34.8688C40.0125 34.9411 41.0311 35.1211 42.01 35.4047Z" fill="url(#paint10_linear_5443_13659)"/>
<path d="M32.9206 35.7164C33.8814 35.364 34.8853 35.1144 35.9046 34.9729C36.3493 34.9112 36.6604 34.4954 36.5997 34.0436C36.5389 33.5915 36.1249 33.2778 35.6849 33.3375C34.5532 33.4942 33.4377 33.7723 32.3694 34.164C31.9474 34.3183 31.7287 34.7915 31.8809 35.2202C32.0329 35.6492 32.4986 35.8717 32.9206 35.7164Z" fill="url(#paint11_linear_5443_13659)"/>
<path d="M44.386 39.6176C44.6124 39.2238 44.4822 38.7185 44.0946 38.4888C42.246 37.3919 40.1173 36.812 37.9389 36.812C33.113 36.812 28.8469 39.5759 27.0683 43.8532C26.8937 44.2731 27.0874 44.7574 27.5007 44.9348C27.916 45.1125 28.3914 44.9141 28.5654 44.4956C30.0651 40.8871 33.8319 38.4628 37.9386 38.4628C39.8292 38.4628 41.6744 38.9644 43.2746 39.9141C43.6619 40.1437 44.1603 40.0111 44.3861 39.6177L44.386 39.6176Z" fill="url(#paint12_linear_5443_13659)"/>
<path d="M42.9092 44.4183C43.012 44.7547 43.3205 44.9989 43.6854 44.9989C44.1341 44.9989 44.4976 44.6292 44.4976 44.1737V44.0852C44.4976 43.9041 44.4389 43.728 44.3311 43.5842C44.2569 43.4855 44.1801 43.3885 44.1014 43.2932C43.8132 42.9446 43.3008 42.8988 42.9569 43.1922C42.6133 43.4852 42.5686 44.0058 42.8574 44.3549C42.8751 44.3756 42.8921 44.3969 42.9092 44.4183Z" fill="url(#paint13_linear_5443_13659)"/>
<path d="M34.2274 41.3315C33.135 41.8932 32.1832 42.7069 31.4754 43.686C31.21 44.053 31.2878 44.5699 31.6497 44.8399C32.0096 45.1085 32.5187 45.0319 32.7855 44.6628C33.3423 43.8923 34.0948 43.2499 34.9605 42.8049C35.3611 42.599 35.5214 42.1025 35.3187 41.6959C35.1168 41.2895 34.6277 41.1263 34.2274 41.3315Z" fill="url(#paint14_linear_5443_13659)"/>
<path d="M37.9392 40.4416L37.6985 40.4453C37.2498 40.4578 36.8963 40.837 36.9086 41.2929C36.9206 41.7487 37.2949 42.1343 37.7429 42.0953L37.9392 42.0926C38.8557 42.0926 39.7393 42.2765 40.5667 42.6387C40.9743 42.8191 41.4554 42.6296 41.6343 42.208C41.8126 41.7898 41.6223 41.3041 41.2103 41.1233C40.1791 40.6709 39.0787 40.4416 37.9392 40.4416Z" fill="url(#paint15_linear_5443_13659)"/>
<path d="M23.0585 25.6513C23.0585 25.1955 22.6946 24.8261 22.2462 24.8261C21.7975 24.8261 21.4339 25.1958 21.4339 25.6513V27.3085C21.4339 27.7644 21.7978 28.1337 22.2462 28.1337C22.6949 28.1337 23.0585 27.764 23.0585 27.3085V25.6513Z" fill="url(#paint16_linear_5443_13659)"/>
<path d="M25.4772 25.9283C25.4772 25.4725 25.1133 25.1031 24.6649 25.1031C24.2162 25.1031 23.8527 25.4728 23.8527 25.9283V27.0316C23.8527 27.4875 24.2166 27.8568 24.6649 27.8568C25.1136 27.8568 25.4772 27.4871 25.4772 27.0316V25.9283Z" fill="url(#paint17_linear_5443_13659)"/>
<path d="M27.8951 25.6513C27.8951 25.1955 27.5312 24.8261 27.0828 24.8261C26.6341 24.8261 26.2705 25.1958 26.2705 25.6513V27.3085C26.2705 27.7644 26.6344 28.1337 27.0828 28.1337C27.5315 28.1337 27.8951 27.764 27.8951 27.3085V25.6513Z" fill="url(#paint18_linear_5443_13659)"/>
<path d="M22.2457 28.8865C21.797 28.8865 21.4334 29.2562 21.4334 29.7117V30.6692C21.4334 31.125 21.7973 31.4944 22.2457 31.4944C22.6944 31.4944 23.058 31.1247 23.058 30.6692V29.7117C23.058 29.2559 22.6944 28.8865 22.2457 28.8865Z" fill="url(#paint19_linear_5443_13659)"/>
<path d="M24.6644 29.0454C24.2157 29.0454 23.8521 29.4151 23.8521 29.8706V30.509C23.8521 30.9648 24.216 31.3342 24.6644 31.3342C25.1131 31.3342 25.4767 30.9645 25.4767 30.509V29.8706C25.477 29.4151 25.1131 29.0454 24.6644 29.0454Z" fill="url(#paint20_linear_5443_13659)"/>
<path d="M27.0831 28.8865C26.6344 28.8865 26.2709 29.2562 26.2709 29.7117V30.6692C26.2709 31.125 26.6348 31.4944 27.0831 31.4944C27.5319 31.4944 27.8954 31.1247 27.8954 30.6692V29.7117C27.8954 29.2559 27.5319 28.8865 27.0831 28.8865Z" fill="url(#paint21_linear_5443_13659)"/>
<defs>
<linearGradient id="paint0_linear_5443_13659" x1="37.3459" y1="33.6397" x2="37.3459" y2="41.6506" gradientUnits="userSpaceOnUse">
<stop stop-color="#ED3040"/>
<stop offset="1" stop-color="#2D23F4"/>
</linearGradient>
<linearGradient id="paint1_linear_5443_13659" x1="37.3459" y1="33.6397" x2="37.3459" y2="41.6506" gradientUnits="userSpaceOnUse">
<stop stop-color="#ED3040"/>
<stop offset="1" stop-color="#2D23F4"/>
</linearGradient>
<linearGradient id="paint2_linear_5443_13659" x1="37.3459" y1="33.6397" x2="37.3459" y2="41.6506" gradientUnits="userSpaceOnUse">
<stop stop-color="#ED3040"/>
<stop offset="1" stop-color="#2D23F4"/>
</linearGradient>
<linearGradient id="paint3_linear_5443_13659" x1="37.3459" y1="33.6397" x2="37.3459" y2="41.6506" gradientUnits="userSpaceOnUse">
<stop stop-color="#ED3040"/>
<stop offset="1" stop-color="#2D23F4"/>
</linearGradient>
<linearGradient id="paint4_linear_5443_13659" x1="37.3459" y1="33.6397" x2="37.3459" y2="41.6506" gradientUnits="userSpaceOnUse">
<stop stop-color="#ED3040"/>
<stop offset="1" stop-color="#2D23F4"/>
</linearGradient>
<linearGradient id="paint5_linear_5443_13659" x1="37.3459" y1="33.6397" x2="37.3459" y2="41.6506" gradientUnits="userSpaceOnUse">
<stop stop-color="#ED3040"/>
<stop offset="1" stop-color="#2D23F4"/>
</linearGradient>
<linearGradient id="paint6_linear_5443_13659" x1="37.3459" y1="33.6397" x2="37.3459" y2="41.6506" gradientUnits="userSpaceOnUse">
<stop stop-color="#ED3040"/>
<stop offset="1" stop-color="#2D23F4"/>
</linearGradient>
<linearGradient id="paint7_linear_5443_13659" x1="37.3459" y1="33.6397" x2="37.3459" y2="41.6506" gradientUnits="userSpaceOnUse">
<stop stop-color="#ED3040"/>
<stop offset="1" stop-color="#2D23F4"/>
</linearGradient>
<linearGradient id="paint8_linear_5443_13659" x1="37.3459" y1="33.6397" x2="37.3459" y2="41.6506" gradientUnits="userSpaceOnUse">
<stop stop-color="#ED3040"/>
<stop offset="1" stop-color="#2D23F4"/>
</linearGradient>
<linearGradient id="paint9_linear_5443_13659" x1="37.3459" y1="33.6397" x2="37.3459" y2="41.6506" gradientUnits="userSpaceOnUse">
<stop stop-color="#ED3040"/>
<stop offset="1" stop-color="#2D23F4"/>
</linearGradient>
<linearGradient id="paint10_linear_5443_13659" x1="37.3459" y1="33.6397" x2="37.3459" y2="41.6506" gradientUnits="userSpaceOnUse">
<stop stop-color="#ED3040"/>
<stop offset="1" stop-color="#2D23F4"/>
</linearGradient>
<linearGradient id="paint11_linear_5443_13659" x1="37.3459" y1="33.6397" x2="37.3459" y2="41.6506" gradientUnits="userSpaceOnUse">
<stop stop-color="#ED3040"/>
<stop offset="1" stop-color="#2D23F4"/>
</linearGradient>
<linearGradient id="paint12_linear_5443_13659" x1="37.3459" y1="33.6397" x2="37.3459" y2="41.6506" gradientUnits="userSpaceOnUse">
<stop stop-color="#ED3040"/>
<stop offset="1" stop-color="#2D23F4"/>
</linearGradient>
<linearGradient id="paint13_linear_5443_13659" x1="37.3459" y1="33.6397" x2="37.3459" y2="41.6506" gradientUnits="userSpaceOnUse">
<stop stop-color="#ED3040"/>
<stop offset="1" stop-color="#2D23F4"/>
</linearGradient>
<linearGradient id="paint14_linear_5443_13659" x1="37.3459" y1="33.6397" x2="37.3459" y2="41.6506" gradientUnits="userSpaceOnUse">
<stop stop-color="#ED3040"/>
<stop offset="1" stop-color="#2D23F4"/>
</linearGradient>
<linearGradient id="paint15_linear_5443_13659" x1="37.3459" y1="33.6397" x2="37.3459" y2="41.6506" gradientUnits="userSpaceOnUse">
<stop stop-color="#ED3040"/>
<stop offset="1" stop-color="#2D23F4"/>
</linearGradient>
<linearGradient id="paint16_linear_5443_13659" x1="37.3459" y1="33.6397" x2="37.3459" y2="41.6506" gradientUnits="userSpaceOnUse">
<stop stop-color="#ED3040"/>
<stop offset="1" stop-color="#2D23F4"/>
</linearGradient>
<linearGradient id="paint17_linear_5443_13659" x1="37.3459" y1="33.6397" x2="37.3459" y2="41.6506" gradientUnits="userSpaceOnUse">
<stop stop-color="#ED3040"/>
<stop offset="1" stop-color="#2D23F4"/>
</linearGradient>
<linearGradient id="paint18_linear_5443_13659" x1="37.3459" y1="33.6397" x2="37.3459" y2="41.6506" gradientUnits="userSpaceOnUse">
<stop stop-color="#ED3040"/>
<stop offset="1" stop-color="#2D23F4"/>
</linearGradient>
<linearGradient id="paint19_linear_5443_13659" x1="37.3459" y1="33.6397" x2="37.3459" y2="41.6506" gradientUnits="userSpaceOnUse">
<stop stop-color="#ED3040"/>
<stop offset="1" stop-color="#2D23F4"/>
</linearGradient>
<linearGradient id="paint20_linear_5443_13659" x1="37.3459" y1="33.6397" x2="37.3459" y2="41.6506" gradientUnits="userSpaceOnUse">
<stop stop-color="#ED3040"/>
<stop offset="1" stop-color="#2D23F4"/>
</linearGradient>
<linearGradient id="paint21_linear_5443_13659" x1="37.3459" y1="33.6397" x2="37.3459" y2="41.6506" gradientUnits="userSpaceOnUse">
<stop stop-color="#ED3040"/>
<stop offset="1" stop-color="#2D23F4"/>
</linearGradient>
</defs>
</svg>
