<svg width="50" height="50" viewBox="0 0 50 50" fill="none" xmlns="http://www.w3.org/2000/svg">
<path d="M25.6481 35.9679H24.3517C22.4609 35.9679 20.6476 36.7155 19.3106 38.0463C17.9733 39.3774 17.2223 41.1824 17.2223 43.0644V44.3549C17.2223 44.5259 17.2905 44.6901 17.4121 44.8111C17.5337 44.9321 17.6987 45 17.8704 45H32.129C32.3011 45 32.4658 44.9321 32.5873 44.8111C32.7089 44.6901 32.7771 44.5259 32.7771 44.3549V43.0644C32.7771 41.1823 32.0261 39.3774 30.6892 38.0463C29.3519 36.7155 27.5386 35.9679 25.6479 35.9679H25.6481ZM24.8572 37.2581H25.1425L25.6092 39.1162L25 40.3292L24.3909 39.1162L24.8572 37.2581ZM31.4813 43.7099H18.5186V43.0645C18.5208 41.6726 19.0254 40.3279 19.9402 39.275C20.8551 38.2224 22.1195 37.5318 23.5028 37.3292L23.0557 39.0387C23.019 39.1886 23.0374 39.3464 23.1075 39.4841L24.4036 42.0647H24.4039C24.5146 42.2801 24.7374 42.4156 24.9806 42.4156C25.2237 42.4156 25.4466 42.2801 25.5576 42.0647L26.8537 39.4841C26.9238 39.3464 26.9424 39.1886 26.9054 39.0387L26.4777 37.3292C27.8649 37.5274 29.1339 38.2163 30.0525 39.2696C30.9713 40.3226 31.4785 41.6697 31.4814 43.0646L31.4813 43.7099Z" fill="url(#paint0_linear_5443_13667)"/>
<path d="M13.9822 22.4198C13.9886 24.5926 14.6418 26.7144 15.8588 28.5185C17.0755 30.3221 18.8019 31.7269 20.8198 32.5551C21.2848 33.6526 22.1663 34.523 23.2731 34.9763C24.3795 35.43 25.6213 35.43 26.7276 34.9763C27.8342 34.523 28.7158 33.6526 29.1809 32.5551C31.6567 31.5444 33.6787 29.6712 34.869 27.2856C36.059 24.8996 36.3362 22.1643 35.6489 19.5901C34.9613 17.0155 33.3561 14.7783 31.1328 13.2954C28.9097 11.8128 26.2204 11.1864 23.567 11.533C20.9136 11.8794 18.4778 13.1754 16.714 15.1788C14.9502 17.1819 13.979 19.7559 13.9822 22.4198ZM25.0001 34.0329C24.1405 34.0329 23.3161 33.693 22.7086 33.0882C22.1007 32.4832 21.7592 31.6626 21.7592 30.8072V30.7362C23.8507 29.9672 26.1493 29.9672 28.2408 30.7362V30.8072C28.2408 31.6627 27.8992 32.4832 27.2917 33.0882C26.6839 33.693 25.8595 34.0329 25.0002 34.0329H25.0001ZM22.1808 29.2459H22.1805C22.5591 28.581 23.1628 28.0713 23.8835 27.8081C24.6043 27.5447 25.3957 27.5447 26.1165 27.8081C26.8372 28.0713 27.4409 28.581 27.8195 29.2459C25.9734 28.7468 24.027 28.7468 22.1806 29.2459H22.1808ZM25.0001 12.7424C27.9149 12.745 30.6751 14.0489 32.5199 16.2956C34.3643 18.5423 35.0989 21.4944 34.521 24.3385C33.9434 27.1823 32.1137 29.6183 29.5369 30.9748V30.807C29.5369 29.1934 28.6724 27.7026 27.2685 26.8958C25.8646 26.089 24.1353 26.0891 22.7315 26.8958C21.3279 27.7026 20.4631 29.1934 20.4631 30.807V30.9748C17.8863 29.6183 16.0569 27.1824 15.479 24.3385C14.9011 21.4944 15.6356 18.5423 17.4805 16.2956C19.3249 14.0489 22.0851 12.7449 25.0002 12.7424H25.0001Z" fill="url(#paint1_linear_5443_13667)"/>
<path d="M24.3513 5H25.6474V10.1613H24.3513V5Z" fill="url(#paint2_linear_5443_13667)"/>
<path d="M37.3148 21.7748H42.5V23.0649H37.3148V21.7748Z" fill="url(#paint3_linear_5443_13667)"/>
<path d="M7.5 21.7748H12.6852V23.0649H7.5V21.7748Z" fill="url(#paint4_linear_5443_13667)"/>
<path d="M33.2508 13.3022L36.9173 9.65257L37.8339 10.565L34.1675 14.2146L33.2508 13.3022Z" fill="url(#paint5_linear_5443_13667)"/>
<path d="M12.1675 34.2764L15.8339 30.6268L16.7506 31.5392L13.0841 35.1888L12.1675 34.2764Z" fill="url(#paint6_linear_5443_13667)"/>
<path d="M33.2484 31.5423L34.165 30.6299L37.8314 34.2795L36.9148 35.1919L33.2484 31.5423Z" fill="url(#paint7_linear_5443_13667)"/>
<path d="M12.1708 10.5558L13.0874 9.64339L16.7539 13.293L15.8372 14.2054L12.1708 10.5558Z" fill="url(#paint8_linear_5443_13667)"/>
<path d="M32.1294 22.4198H33.4259C33.4259 20.1951 32.5382 18.062 30.9577 16.4892C29.3777 14.9164 27.2347 14.0327 25.0001 14.0327V15.3229C26.8909 15.3229 28.7042 16.0707 30.0412 17.4015C31.3785 18.7323 32.1294 20.5373 32.1294 22.4197V22.4198Z" fill="url(#paint9_linear_5443_13667)"/>
<defs>
<linearGradient id="paint0_linear_5443_13667" x1="0" y1="0" x2="0" y2="1" gradientUnits="objectBoundingBox">
<stop stop-color="#ED3040"/>
<stop offset="1" stop-color="#2D23F4"/>
</linearGradient>
<linearGradient id="paint1_linear_5443_13667" x1="0" y1="0" x2="0" y2="1" gradientUnits="objectBoundingBox">
<stop stop-color="#ED3040"/>
<stop offset="1" stop-color="#2D23F4"/>
</linearGradient>
<linearGradient id="paint2_linear_5443_13667" x1="0" y1="0" x2="0" y2="1" gradientUnits="objectBoundingBox">
<stop stop-color="#ED3040"/>
<stop offset="1" stop-color="#2D23F4"/>
</linearGradient>
<linearGradient id="paint3_linear_5443_13667" x1="0" y1="0" x2="0" y2="1" gradientUnits="objectBoundingBox">
<stop stop-color="#ED3040"/>
<stop offset="1" stop-color="#2D23F4"/>
</linearGradient>
<linearGradient id="paint4_linear_5443_13667" x1="0" y1="0" x2="0" y2="1" gradientUnits="objectBoundingBox">
<stop stop-color="#ED3040"/>
<stop offset="1" stop-color="#2D23F4"/>
</linearGradient>
<linearGradient id="paint5_linear_5443_13667" x1="0" y1="0" x2="0" y2="1" gradientUnits="objectBoundingBox">
<stop stop-color="#ED3040"/>
<stop offset="1" stop-color="#2D23F4"/>
</linearGradient>
<linearGradient id="paint6_linear_5443_13667" x1="0" y1="0" x2="0" y2="1" gradientUnits="objectBoundingBox">
<stop stop-color="#ED3040"/>
<stop offset="1" stop-color="#2D23F4"/>
</linearGradient>
<linearGradient id="paint7_linear_5443_13667" x1="0" y1="0" x2="0" y2="1" gradientUnits="objectBoundingBox">
<stop stop-color="#ED3040"/>
<stop offset="1" stop-color="#2D23F4"/>
</linearGradient>
<linearGradient id="paint8_linear_5443_13667" x1="0" y1="0" x2="0" y2="1" gradientUnits="objectBoundingBox">
<stop stop-color="#ED3040"/>
<stop offset="1" stop-color="#2D23F4"/>
</linearGradient>
<linearGradient id="paint9_linear_5443_13667" x1="0" y1="0" x2="0" y2="1" gradientUnits="objectBoundingBox">
<stop stop-color="#ED3040"/>
<stop offset="1" stop-color="#2D23F4"/>
</linearGradient>
</defs>
</svg>
