<svg width="50" height="50" viewBox="0 0 50 50" fill="none" xmlns="http://www.w3.org/2000/svg">
<path d="M36.0618 40.5429H36.2259C37.3312 40.5429 38.3848 40.0776 39.1261 39.2626C39.8358 38.4825 40.1337 37.4145 39.9291 36.3823L39.7923 35.6906C39.7322 35.388 39.8255 35.0752 40.0419 34.8542C40.9758 33.8993 41.409 33.1586 41.409 32.7137C41.409 32.0424 41.2767 31.39 41.008 30.7504C40.5489 31.1098 40.0034 31.4421 39.3728 31.7495C38.9044 31.9783 38.3384 31.786 38.1084 31.3202C37.8783 30.8544 38.0717 30.2914 38.5401 30.0627C39.4256 29.6304 40.0577 29.169 40.4425 28.6939C40.506 28.6162 40.5788 28.5506 40.6589 28.4987C41.1717 27.7706 41.4819 26.9186 41.5547 26.0307L41.5957 25.5329C41.6919 24.3676 41.3007 23.215 40.5148 22.3456L40.0166 21.7948C39.6874 21.4305 39.6948 20.8763 40.0327 20.5208C40.6975 19.8218 40.9944 18.8533 40.8352 17.9047L40.7532 17.4156C40.5646 16.2941 39.7246 15.3907 38.6148 15.1172L38.1538 15.0036C38.1406 15.0002 38.1279 14.9968 38.1152 14.9934C38.0942 14.9895 38.0732 14.9846 38.0522 14.9793C37.4915 14.8375 36.8868 14.8375 36.2274 14.9856C35.7185 15.0997 35.2125 14.7821 35.0977 14.276C34.9829 13.7699 35.3023 13.2667 35.8112 13.152C36.3304 13.0355 36.8384 12.9835 37.3337 12.9961C37.2106 12.3399 36.9771 11.7949 36.6391 11.3534C35.9158 10.4082 35.2247 9.80734 34.5814 9.52521C34.5697 9.52618 34.5585 9.52715 34.5473 9.52764C33.9699 9.56552 33.3946 9.75155 32.8134 10.095C32.365 10.3606 31.7853 10.214 31.5187 9.76807C31.2515 9.3217 31.399 8.74515 31.8474 8.48C32.1795 8.28329 32.517 8.12106 32.8584 7.99282C32.1873 7.29097 31.248 6.87957 30.2488 6.87957C28.8836 6.87957 27.6015 7.52946 26.799 8.6277L25.894 9.86676V11.8276C25.894 12.3469 25.471 12.7675 24.9489 12.7675C24.4273 12.7675 24.0043 12.3469 24.0043 11.8276V9.62006C24.0043 9.38934 24.0878 9.17757 24.227 9.01389C24.2568 8.93229 24.2983 8.8536 24.3521 8.77978L25.2698 7.52329C26.4278 5.93842 28.2789 5 30.2487 5C32.1834 5 33.9714 6.01223 34.9605 7.65783C36.0756 8.02698 37.1296 8.89058 38.143 10.2151C38.7951 11.0675 39.1741 12.119 39.2889 13.3527C41.0209 13.8681 42.3171 15.3203 42.6169 17.1064L42.699 17.5955C42.9071 18.8336 42.633 20.0926 41.9522 21.1252C43.0643 22.3745 43.6163 24.0221 43.4795 25.6861L43.4385 26.184C43.3471 27.2914 42.9886 28.3575 42.3967 29.2931C42.9955 30.3806 43.2993 31.5249 43.2993 32.714C43.2993 33.667 42.763 34.6757 41.7402 35.8012L41.7832 36.0193C42.1031 37.6337 41.6376 39.3032 40.528 40.5238C39.428 41.7328 37.8656 42.4226 36.226 42.4226H35.9784L35.4313 42.967C32.7098 45.6758 28.2961 45.6778 25.5717 42.9719C24.9509 42.355 24.4527 41.6275 24.1035 40.8265C24.0342 40.6681 24.0127 40.501 24.0322 40.3408C24.0137 40.2679 24.0044 40.1921 24.0044 40.1135V37.9059C24.0044 37.3871 24.4274 36.9665 24.949 36.9665C25.4711 36.9665 25.8941 37.3871 25.8941 37.9059V40.1135C25.8941 40.1416 25.8926 40.1688 25.8902 40.1965C26.1412 40.7337 26.4856 41.2228 26.9075 41.642C28.893 43.615 32.1106 43.6131 34.0946 41.6386L34.2206 41.5133C34.2142 41.4628 34.2118 41.4108 34.2137 41.3583C34.2367 40.7818 34.1112 40.1926 33.8284 39.5806C33.6105 39.109 33.8181 38.5509 34.2924 38.3343C34.7666 38.1177 35.3273 38.3241 35.5456 38.7957C35.8133 39.3752 35.9862 39.9586 36.0619 40.5434L36.0618 40.5429Z" fill="url(#paint0_linear_5443_13707)"/>
<path d="M26.9192 33.8172C27.4409 33.8172 27.8643 34.2379 27.8643 34.7571C27.8643 35.2758 27.4409 35.6965 26.9192 35.6965H21.0782C19.8606 35.6965 18.8735 36.6781 18.8735 37.889V38.6234C19.9275 39.0343 20.6737 40.0548 20.6737 41.2486C20.6737 42.8058 19.4044 44.0677 17.8389 44.0677C16.2731 44.0677 15.0041 42.8059 15.0041 41.2486C15.0041 39.9882 15.8359 38.9211 16.9832 38.5602L16.9837 37.889C16.9837 35.6401 18.8167 33.8172 21.0781 33.8172L26.9192 33.8172ZM17.8391 40.3093C17.3169 40.3093 16.894 40.7299 16.894 41.2487C16.894 41.7679 17.3169 42.1885 17.8391 42.1885C18.3607 42.1885 18.7837 41.7679 18.7837 41.2487C18.7837 40.7299 18.3607 40.3093 17.8391 40.3093ZM24.3194 28.8056C24.8415 28.8056 25.2645 29.2262 25.2645 29.7454C25.2645 30.2642 24.8415 30.6848 24.3194 30.6848H17.1109C16.492 30.6848 15.902 30.9432 15.4844 31.3969L13.6836 33.3533C13.9225 33.7666 14.0592 34.246 14.0592 34.757C14.0592 36.3138 12.7904 37.5761 11.2244 37.5761C9.659 37.5761 8.38964 36.3138 8.38964 34.757C8.38964 33.1999 9.659 31.9379 11.2244 31.9379C11.5864 31.9379 11.9317 32.0049 12.2496 32.1278L14.0905 30.1281C14.8661 29.2854 15.9622 28.8055 17.1109 28.8055L24.3194 28.8056ZM11.2245 33.8172C10.7028 33.8172 10.2798 34.2379 10.2798 34.7571C10.2798 35.2758 10.7028 35.6965 11.2245 35.6965C11.7466 35.6965 12.1695 35.2758 12.1695 34.7571C12.1695 34.2379 11.7466 33.8172 11.2245 33.8172ZM9.3348 22.2281C10.569 22.2281 11.6192 23.0125 12.0084 24.1073H27.7078C28.23 24.1073 28.6529 24.5279 28.6529 25.0467C28.6529 25.5474 28.2593 25.9564 27.7635 25.9851L27.7078 25.9865H12.0084C11.6192 27.0818 10.569 27.8657 9.3348 27.8657C7.76936 27.8657 6.5 26.6039 6.5 25.0466C6.5 23.4898 7.76936 22.2281 9.3348 22.2281ZM9.3348 24.1073C8.81316 24.1073 8.38971 24.5279 8.38971 25.0467C8.38971 25.5659 8.81316 25.9865 9.3348 25.9865C9.85692 25.9865 10.2799 25.5659 10.2799 25.0467C10.2799 24.5279 9.85692 24.1073 9.3348 24.1073ZM11.8545 12.5177C13.4199 12.5177 14.6893 13.78 14.6893 15.3368C14.6893 15.8876 14.5306 16.401 14.2561 16.8352L16.1145 18.8533C16.5111 19.2841 17.0635 19.5391 17.6482 19.5634L17.7405 19.5654H24.9495C25.4716 19.5654 25.8946 19.986 25.8946 20.5052C25.8946 21.0055 25.5009 21.4145 25.0052 21.4431L24.9495 21.4446H17.7405C16.6303 21.4446 15.569 20.9963 14.7993 20.2055L14.7206 20.1225L12.7713 18.0053C12.4837 18.1029 12.1755 18.1559 11.8546 18.1559C10.2891 18.1559 9.01978 16.894 9.01978 15.3368C9.01978 13.78 10.2891 12.5177 11.8545 12.5177ZM11.8545 14.3973C11.3329 14.3973 10.9094 14.818 10.9094 15.3367C10.9094 15.856 11.3329 16.2766 11.8545 16.2766C12.3766 16.2766 12.7996 15.856 12.7996 15.3367C12.7996 14.818 12.3766 14.3973 11.8545 14.3973ZM17.8391 5.94004C19.4045 5.94004 20.6739 7.20237 20.6739 8.75914C20.6739 9.95303 19.9276 10.9736 18.8736 11.3844V12.0479C18.8736 13.2588 19.8607 14.2404 21.0783 14.2404H26.9194C27.441 14.2404 27.8645 14.661 27.8645 15.1803C27.8645 15.699 27.441 16.1201 26.9194 16.1201H21.0783C18.817 16.1201 16.9839 14.2968 16.9839 12.0479L16.9835 11.4476C15.8362 11.0867 15.0044 10.0196 15.0044 8.75914C15.0044 7.20237 16.2733 5.94004 17.8392 5.94004H17.8391ZM17.8391 7.81924C17.3169 7.81924 16.894 8.23986 16.894 8.75909C16.894 9.27784 17.3169 9.69895 17.8391 9.69895C18.3607 9.69895 18.7837 9.27784 18.7837 8.75909C18.7837 8.23986 18.3607 7.81924 17.8391 7.81924Z" fill="url(#paint1_linear_5443_13707)"/>
<path d="M30.1001 33.6606C30.6223 33.6606 31.0452 34.0812 31.0452 34.5999C31.0452 35.1192 30.6223 35.5398 30.1001 35.5398H29.8076C29.2859 35.5398 28.8625 35.1192 28.8625 34.5999C28.8625 34.0812 29.2859 33.6606 29.8076 33.6606H30.1001ZM33.5724 28.6489C34.094 28.6489 34.517 29.0695 34.517 29.5883C34.517 30.1075 34.094 30.5281 33.5724 30.5281H33.2798C32.7577 30.5281 32.3347 30.1075 32.3347 29.5883C32.3347 29.0695 32.7577 28.6489 33.2798 28.6489H33.5724ZM30.3176 28.6489C30.8392 28.6489 31.2627 29.0695 31.2627 29.5883C31.2627 30.1075 30.8392 30.5281 30.3176 30.5281H27.977C27.4549 30.5281 27.0319 30.1075 27.0319 29.5883C27.0319 29.0695 27.4549 28.6489 27.977 28.6489H30.3176ZM33.4673 23.9501C33.989 23.9501 34.4119 24.3712 34.4119 24.89C34.4119 25.4092 33.989 25.8298 33.4673 25.8298H31.1263C30.6047 25.8298 30.1817 25.4092 30.1817 24.89C30.1817 24.3712 30.6047 23.9501 31.1263 23.9501H33.4673ZM37.0367 23.9501C37.5588 23.9501 37.9818 24.3712 37.9818 24.89C37.9818 25.4092 37.5588 25.8298 37.0367 25.8298H36.7442C36.2225 25.8298 35.7995 25.4092 35.7995 24.89C35.7995 24.3712 36.2225 23.9501 36.7442 23.9501H37.0367ZM33.8873 19.565C34.409 19.565 34.8319 19.9857 34.8319 20.5049C34.8319 21.0236 34.409 21.4443 33.8873 21.4443H33.5948C33.0726 21.4443 32.6497 21.0236 32.6497 20.5049C32.6497 19.9857 33.0726 19.565 33.5948 19.565H33.8873ZM30.6325 19.565C31.1542 19.565 31.5771 19.9857 31.5771 20.5049C31.5771 21.0236 31.1542 21.4443 30.6325 21.4443H28.292C27.7699 21.4443 27.3469 21.0236 27.3469 20.5049C27.3469 19.9857 27.7699 19.565 28.292 19.565H30.6325ZM30.1075 14.2402C30.6296 14.2402 31.0526 14.6608 31.0526 15.18C31.0526 15.6988 30.6296 16.1199 30.1075 16.1199H29.8149C29.2933 16.1199 28.8703 15.6988 28.8703 15.18C28.8703 14.6608 29.2933 14.2402 29.8149 14.2402H30.1075Z" fill="url(#paint2_linear_5443_13707)"/>
<defs>
<linearGradient id="paint0_linear_5443_13707" x1="36.7128" y1="33.6397" x2="36.7128" y2="41.6506" gradientUnits="userSpaceOnUse">
<stop stop-color="#ED3040"/>
<stop offset="1" stop-color="#2D23F4"/>
</linearGradient>
<linearGradient id="paint1_linear_5443_13707" x1="36.7128" y1="33.6397" x2="36.7128" y2="41.6506" gradientUnits="userSpaceOnUse">
<stop stop-color="#ED3040"/>
<stop offset="1" stop-color="#2D23F4"/>
</linearGradient>
<linearGradient id="paint2_linear_5443_13707" x1="36.7128" y1="33.6397" x2="36.7128" y2="41.6506" gradientUnits="userSpaceOnUse">
<stop stop-color="#ED3040"/>
<stop offset="1" stop-color="#2D23F4"/>
</linearGradient>
</defs>
</svg>
