<svg width="50" height="50" viewBox="0 0 50 50" fill="none" xmlns="http://www.w3.org/2000/svg">
<path d="M35.1332 37.3016C35.3936 37.561 35.8157 37.561 36.0761 37.3016L39.3759 34.0101V34.0098C39.6363 33.7501 39.6363 33.3293 39.3759 33.0695L37.75 31.4481V31.4478C38.8652 29.7824 39.6423 27.9147 40.0373 25.9507H42.3334C42.5101 25.9507 42.6798 25.8807 42.8048 25.756C42.9299 25.6312 43 25.4622 43 25.2857V20.6298V20.6302C43 20.4536 42.9299 20.2846 42.8048 20.1599C42.6798 20.0351 42.5101 19.9648 42.3334 19.9648H40.0373C39.6429 18.0011 38.8665 16.1334 37.752 14.4677L39.378 12.8482C39.6383 12.5885 39.6383 12.1677 39.378 11.908L36.0781 8.61649V8.61616C35.8177 8.35675 35.3956 8.35675 35.1352 8.61616L33.51 10.2357C31.8404 9.12411 29.9683 8.34951 28 7.95579V5.66536C28 5.48879 27.9299 5.31981 27.8048 5.19505C27.6798 5.07029 27.5101 5 27.3334 5H22.6667C22.2985 5 22.0001 5.29802 22.0001 5.66536V7.95579C20.0318 8.34953 18.1596 9.12411 16.4901 10.2357L14.8668 8.61422C14.6064 8.35481 14.1843 8.35481 13.924 8.61422L10.6248 11.9057V11.906C10.3644 12.1658 10.3644 12.5866 10.6248 12.8463L12.25 14.4677C11.1348 16.1335 10.3577 18.0011 9.96274 19.9648H7.66659C7.29839 19.9648 7 20.2628 7 20.6302V25.286V25.2857C7 25.4622 7.07046 25.6312 7.19518 25.756C7.32023 25.8807 7.48994 25.9507 7.66659 25.9507H9.96274C10.3571 27.9147 11.1335 29.7821 12.248 31.4478L10.6227 33.0676C10.3624 33.327 10.3624 33.7481 10.6227 34.0079L13.9219 37.2993C14.1823 37.5591 14.6044 37.5591 14.8648 37.2993L16.8847 35.2848C17.1375 35.024 17.1338 34.6092 16.8768 34.3524C16.6194 34.096 16.2036 34.0924 15.9423 34.3445L14.3934 35.8907L12.0367 33.5396L13.5845 31.9954H13.5849C13.8155 31.764 13.8439 31.3996 13.6514 31.1352C12.3724 29.3702 11.5249 27.3309 11.1769 25.1807C11.1249 24.8579 10.8457 24.6203 10.5182 24.6206H8.33351V21.2952H10.5202C10.8477 21.2952 11.1269 21.0579 11.1788 20.7351C11.5265 18.5835 12.374 16.5433 13.6533 14.7769C13.8458 14.5128 13.8174 14.1485 13.5868 13.9171L12.0366 12.3758L14.3933 10.025L15.9418 11.5692H15.9422C16.1741 11.7996 16.5393 11.8276 16.804 11.6359C18.5732 10.3597 20.6169 9.51409 22.7722 9.16683C23.0947 9.11535 23.3326 8.83779 23.3336 8.51171V6.33018H26.6668V8.51171C26.6665 8.83845 26.9044 9.117 27.2282 9.16881C29.3831 9.51601 31.4269 10.3616 33.1961 11.6379C33.4608 11.8296 33.826 11.8016 34.0582 11.5712L35.6068 10.0249L37.9635 12.3761L36.4156 13.9203C36.1847 14.1517 36.1566 14.5161 36.3488 14.7804C37.6278 16.5455 38.4752 18.5848 38.8236 20.735C38.8753 21.0578 39.1544 21.2951 39.4823 21.2951H41.667V24.6205H39.4803C39.1525 24.6202 38.8733 24.8578 38.8217 25.1806C38.4737 27.3321 37.6265 29.3724 36.3468 31.1385C36.1543 31.4029 36.1828 31.7672 36.4133 31.9986L37.9619 33.5428L35.6068 35.8907L34.0582 34.3465C33.7966 34.0943 33.3807 34.098 33.1237 34.3544C32.8663 34.6112 32.8627 35.026 33.1154 35.2868L35.1332 37.3016Z" fill="url(#paint0_linear_5443_13733)"/>
<path d="M36.3468 22.3064C36.3485 19.5727 35.3587 16.9304 33.56 14.868C31.7611 12.8059 29.275 11.4626 26.561 11.0864C23.8466 10.7105 21.088 11.327 18.7938 12.8221C16.4999 14.3174 14.8257 16.5905 14.0807 19.2211C13.3357 21.8522 13.5703 24.6631 14.741 27.1348C15.9114 29.6065 17.9394 31.5722 20.4495 32.6685L20.0668 34.9887C20.035 35.1811 20.0899 35.3781 20.2166 35.527C20.3433 35.6758 20.5289 35.7613 20.7248 35.7613H20.8369L20.9931 37.2712H20.7261C20.3579 37.2712 20.0595 37.5689 20.0595 37.9363V40.7828C20.0595 40.9594 20.1296 41.1284 20.2547 41.2531C20.3797 41.3779 20.5491 41.4482 20.7261 41.4482H21.4241L21.486 42.0568V42.0564C21.5095 42.8871 21.9051 43.6634 22.5641 44.1716C23.2568 44.7185 24.1169 45.0109 25.0002 44.9997C26.9229 44.9997 28.4903 43.6828 28.5134 42.0567L28.5753 41.4482H29.2733C29.4503 41.4482 29.6196 41.3779 29.7447 41.2531C29.8698 41.1283 29.9402 40.9594 29.9402 40.7828V37.9363C29.9402 37.76 29.8697 37.5907 29.7447 37.466C29.6196 37.3412 29.4503 37.2712 29.2733 37.2712H29.0067L29.1628 35.7613H29.275H29.2746C29.4705 35.7613 29.6564 35.6758 29.7831 35.527C29.9098 35.3781 29.9644 35.1811 29.9326 34.9887L29.5508 32.6685C31.5761 31.7952 33.3 30.3473 34.5081 28.5055C35.7162 26.6632 36.3557 24.5077 36.3468 22.3064ZM28.6067 38.6011V40.1176H21.3933V38.6011H28.6067ZM27.1799 42.0196C27.1799 42.9289 26.202 43.6691 24.9998 43.6691H25.0002C24.4249 43.678 23.8638 43.4919 23.4086 43.141C23.0523 42.8757 22.8357 42.4631 22.8201 42.0199C22.8201 41.9971 22.7649 41.4479 22.7649 41.4479H27.2355C27.2355 41.4479 27.1799 41.9971 27.1799 42.0199L27.1799 42.0196ZM27.6668 37.271H22.3334L22.178 35.7611H27.8193L27.6668 37.271ZM23.0001 24.9533H21.6666C21.313 24.9533 20.9739 24.813 20.7238 24.5635C20.474 24.314 20.3334 23.9757 20.3334 23.6229C20.3334 23.27 20.474 22.9318 20.7238 22.6822C20.9739 22.4327 21.3129 22.2928 21.6666 22.2928C22.0203 22.2928 22.3597 22.4327 22.6094 22.6822C22.8595 22.9317 23.0001 23.27 23.0001 23.6229L23.0001 24.9533ZM28.568 31.6356C28.2716 31.7484 28.0959 32.0547 28.1489 32.3669L28.4889 34.4333L27 34.4336V32.2692C27 31.9019 26.7016 31.6042 26.3334 31.6042C25.9652 31.6042 25.6668 31.9019 25.6668 32.2692V34.431H24.3333V26.2833H25.6664V26.9483H25.6668C25.6668 27.3157 25.9652 27.6137 26.3334 27.6137C26.7016 27.6137 27 27.3157 27 26.9483V26.2833H28.3335C29.0407 26.2833 29.7189 26.0031 30.2191 25.5041C30.719 25.0051 31.0002 24.3285 31.0002 23.6228C31.0002 22.9172 30.719 22.2407 30.2191 21.7416C29.7189 21.2426 29.0408 20.9624 28.3335 20.9624C27.6261 20.9624 26.948 21.2426 26.4478 21.7416C25.9475 22.2406 25.6667 22.9172 25.6667 23.6228V24.9529L24.3332 24.9532V23.6228C24.3332 22.9172 24.0524 22.2407 23.5522 21.7416C23.0523 21.2426 22.3738 20.9624 21.6665 20.9624C20.9595 20.9624 20.2811 21.2426 19.7808 21.7416C19.281 22.2406 18.9998 22.9172 18.9998 23.6228C18.9998 24.3285 19.281 25.005 19.7808 25.5041C20.281 26.0031 20.9595 26.2833 21.6665 26.2833H22.9997L23 34.431H21.5113L21.8514 32.3646V32.3643C21.904 32.0521 21.7287 31.7458 21.432 31.6329C18.4917 30.5148 16.2495 28.0827 15.3774 25.0665C14.5054 22.0506 15.1052 18.8007 16.9971 16.2922C18.8887 13.7836 21.8521 12.308 24.9988 12.308C28.1451 12.308 31.1086 13.7836 33.0005 16.2922C34.8921 18.8005 35.4918 22.0504 34.6198 25.0665C33.7477 28.0827 31.5055 30.5147 28.5652 31.6329L28.568 31.6356ZM26.9999 24.9533V23.6229C26.9999 23.2701 27.1405 22.9318 27.3906 22.6823C27.6407 22.4328 27.9798 22.2928 28.3335 22.2928C28.6871 22.2928 29.0262 22.4327 29.2763 22.6823C29.5264 22.9318 29.6666 23.2701 29.6666 23.6229C29.6666 23.9757 29.5264 24.314 29.2763 24.5635C29.0262 24.813 28.6871 24.9533 28.3335 24.9533L26.9999 24.9533Z" fill="url(#paint1_linear_5443_13733)"/>
<path d="M25.0003 13.647C24.6321 13.647 24.3333 13.9447 24.3333 14.312C24.3333 14.6794 24.6321 14.9771 25.0003 14.9771C26.9484 14.979 28.8162 15.7523 30.1937 17.1266C31.5711 18.5008 32.346 20.3642 32.3482 22.3078C32.3482 22.6752 32.6466 22.9728 33.0148 22.9728C33.383 22.9728 33.6814 22.6752 33.6814 22.3078C33.6788 20.0117 32.7634 17.8101 31.1358 16.1866C29.5082 14.5628 27.3017 13.6496 25.0002 13.6469L25.0003 13.647Z" fill="url(#paint2_linear_5443_13733)"/>
<path d="M22.9999 14.9769C22.9999 15.3442 22.7015 15.6419 22.3333 15.6419C21.9651 15.6419 21.6664 15.3442 21.6664 14.9769C21.6664 14.6095 21.9651 14.3119 22.3333 14.3119C22.7015 14.3119 22.9999 14.6095 22.9999 14.9769Z" fill="url(#paint3_linear_5443_13733)"/>
<path d="M26.9998 29.6088C26.9998 29.9762 26.7014 30.2742 26.3332 30.2742C25.965 30.2742 25.6666 29.9762 25.6666 29.6088C25.6666 29.2415 25.965 28.9438 26.3332 28.9438C26.7014 28.9438 26.9998 29.2415 26.9998 29.6088Z" fill="url(#paint4_linear_5443_13733)"/>
<defs>
<linearGradient id="paint0_linear_5443_13733" x1="36.3962" y1="33.6397" x2="36.3962" y2="41.6506" gradientUnits="userSpaceOnUse">
<stop stop-color="#ED3040"/>
<stop offset="1" stop-color="#2D23F4"/>
</linearGradient>
<linearGradient id="paint1_linear_5443_13733" x1="36.3962" y1="33.6397" x2="36.3962" y2="41.6506" gradientUnits="userSpaceOnUse">
<stop stop-color="#ED3040"/>
<stop offset="1" stop-color="#2D23F4"/>
</linearGradient>
<linearGradient id="paint2_linear_5443_13733" x1="36.3962" y1="33.6397" x2="36.3962" y2="41.6506" gradientUnits="userSpaceOnUse">
<stop stop-color="#ED3040"/>
<stop offset="1" stop-color="#2D23F4"/>
</linearGradient>
<linearGradient id="paint3_linear_5443_13733" x1="36.3962" y1="33.6397" x2="36.3962" y2="41.6506" gradientUnits="userSpaceOnUse">
<stop stop-color="#ED3040"/>
<stop offset="1" stop-color="#2D23F4"/>
</linearGradient>
<linearGradient id="paint4_linear_5443_13733" x1="36.3962" y1="33.6397" x2="36.3962" y2="41.6506" gradientUnits="userSpaceOnUse">
<stop stop-color="#ED3040"/>
<stop offset="1" stop-color="#2D23F4"/>
</linearGradient>
</defs>
</svg>
