<svg width="50" height="50" viewBox="0 0 50 50" fill="none" xmlns="http://www.w3.org/2000/svg">
<path d="M17.9689 10.4864H32.9137C33.1995 10.4864 33.4322 10.2548 33.4322 9.96936C33.4322 9.68394 33.1995 9.45234 32.9137 9.45234H17.9689C17.683 9.45234 17.4511 9.68394 17.4511 9.96936C17.4511 10.2548 17.683 10.4864 17.9689 10.4864Z" fill="url(#paint0_linear_5443_13737)"/>
<path d="M17.9689 13.0683H32.9137C33.1995 13.0683 33.4322 12.8367 33.4322 12.5512C33.4322 12.2658 33.1995 12.0342 32.9137 12.0342L17.9689 12.0346C17.683 12.0346 17.4511 12.2662 17.4511 12.5516C17.4511 12.8367 17.683 13.0683 17.9689 13.0683Z" fill="url(#paint1_linear_5443_13737)"/>
<path d="M17.9689 15.651H32.9137C33.1995 15.651 33.4322 15.4194 33.4322 15.134C33.4322 14.8486 33.1995 14.617 32.9137 14.617L17.9689 14.6173C17.683 14.6173 17.4511 14.8489 17.4511 15.1344C17.4511 15.4194 17.683 15.651 17.9689 15.651Z" fill="url(#paint2_linear_5443_13737)"/>
<path d="M16.0207 9.452C15.7348 9.452 15.5029 9.6836 15.5029 9.96902C15.5029 10.2544 15.7348 10.486 16.0207 10.486H16.1008C16.3866 10.486 16.5785 10.2544 16.5785 9.96902C16.5788 9.6836 16.3061 9.452 16.0207 9.452Z" fill="url(#paint3_linear_5443_13737)"/>
<path d="M16.0207 12.0348C15.7348 12.0348 15.5029 12.2664 15.5029 12.5518C15.5029 12.8372 15.7348 13.0688 16.0207 13.0688H16.1008C16.3866 13.0688 16.5785 12.8372 16.5785 12.5518C16.5788 12.2664 16.3061 12.0348 16.0207 12.0348Z" fill="url(#paint4_linear_5443_13737)"/>
<path d="M16.0207 14.6176C15.7348 14.6176 15.5029 14.8492 15.5029 15.1346C15.5029 15.42 15.7348 15.6516 16.0207 15.6516H16.1008C16.3866 15.6516 16.5785 15.42 16.5785 15.1346C16.5788 14.8492 16.3061 14.6176 16.0207 14.6176Z" fill="url(#paint5_linear_5443_13737)"/>
<path d="M16.0207 19.7831C15.7348 19.7831 15.5029 20.0147 15.5029 20.3001C15.5029 20.5856 15.7348 20.8172 16.0207 20.8172H16.1008C16.3866 20.8172 16.5785 20.5856 16.5785 20.3001C16.5788 20.0147 16.3061 19.7831 16.0207 19.7831Z" fill="url(#paint6_linear_5443_13737)"/>
<path d="M16.0207 22.3659C15.7348 22.3659 15.5029 22.5975 15.5029 22.8829C15.5029 23.1683 15.7348 23.3999 16.0207 23.3999H16.1008C16.3866 23.3999 16.5785 23.1683 16.5785 22.8829C16.5788 22.5975 16.3061 22.3659 16.0207 22.3659Z" fill="url(#paint7_linear_5443_13737)"/>
<path d="M16.0207 24.9487C15.7348 24.9487 15.5029 25.1803 15.5029 25.4657C15.5029 25.7511 15.7348 25.9827 16.0207 25.9827H16.1008C16.3866 25.9827 16.5785 25.7511 16.5785 25.4657C16.5788 25.1803 16.3061 24.9487 16.0207 24.9487Z" fill="url(#paint8_linear_5443_13737)"/>
<path d="M43.0306 17.5548H37.3077V7.76036C37.3077 6.23871 36.0676 5.00035 34.5431 5.00035L9.62748 5C8.15406 5 6.95498 6.19729 6.95498 7.66872V9.89831C6.95498 10.1837 7.18691 10.4153 7.47273 10.4153H11.2648V26.8004C8.04621 27.0685 5.5 29.7404 5.5 33.0224C5.5 36.3044 8.04621 38.9763 11.2648 39.2444V42.253C11.2648 43.768 12.4982 45 14.0145 45H37.6837C40.1309 45 42.1222 43.0106 42.1222 40.5664V40.2495C42.1222 39.964 41.8895 39.7317 41.6037 39.7317H37.3082V37.8255H43.0311C43.8414 37.8255 44.5 37.1665 44.5 36.3573V19.0222C44.5 18.213 43.8415 17.5554 43.0311 17.5554L43.0306 17.5548ZM7.98992 9.38093V7.66835C7.98992 6.76711 8.72434 6.03374 9.62684 6.03374C10.5294 6.03374 11.2638 6.76712 11.2638 7.66835V9.38093H7.98992ZM6.53493 33.0212C6.53493 30.1315 8.88895 27.7823 11.782 27.7823C14.675 27.7823 17.0283 30.1315 17.0283 33.0212C17.0283 35.744 14.9012 38.0392 12.1859 38.2463C12.0525 38.2552 11.9178 38.2601 11.7819 38.2601C8.88857 38.2601 6.53493 35.9108 6.53493 33.0212ZM37.6828 43.9633H16.1625C16.5388 43.4938 16.7636 42.8992 16.7636 42.2515V40.7655H41.0792C40.9746 42.5471 39.4915 43.9632 37.6826 43.9632L37.6828 43.9633ZM36.2707 39.7305H16.2465C15.9607 39.7305 15.7288 39.9628 15.7288 40.2483V42.2516C15.7288 43.1956 14.9596 43.9634 14.0138 43.9634C13.0687 43.9634 12.2995 43.196 12.2995 42.2516V39.2698C15.5344 39.0056 18.0635 36.2693 18.0635 33.0209C18.0635 29.7389 15.5181 27.067 12.2995 26.7989V7.66789C12.2995 7.04923 12.0789 6.48619 11.7236 6.03327H34.543C35.4962 6.03327 36.2711 6.80775 36.2711 7.75963V17.555H30.7201C29.9098 17.555 29.2499 18.2126 29.2499 19.0218V19.7831L17.9682 19.7828C17.6823 19.7828 17.4504 20.0144 17.4504 20.2998C17.4504 20.5852 17.6823 20.8168 17.9682 20.8168H29.2499V22.3658H17.9682C17.6823 22.3658 17.4504 22.5974 17.4504 22.8828C17.4504 23.1682 17.6823 23.3998 17.9682 23.3998H29.2499V24.9487L17.9682 24.9484C17.6823 24.9484 17.4504 25.18 17.4504 25.4654C17.4504 25.7508 17.6823 25.9824 17.9682 25.9824H29.2499V36.3571C29.2499 37.1662 29.9098 37.8252 30.7201 37.8252H36.2711L36.2707 39.7311L36.2707 39.7305ZM43.4625 36.3564C43.4625 36.5951 43.2692 36.7895 43.0302 36.7895L30.7199 36.7892C30.4809 36.7892 30.2862 36.5947 30.2862 36.3561V19.0209C30.2862 18.7822 30.4809 18.5878 30.7199 18.5878H43.0302C43.2692 18.5878 43.4625 18.7822 43.4625 19.0209V36.3564Z" fill="url(#paint9_linear_5443_13737)"/>
<path d="M41.6035 20.347H32.623C32.3372 20.347 32.1046 20.5786 32.1046 20.864V23.6559C32.1046 23.9414 32.3372 24.173 32.623 24.173H41.6035C41.8893 24.173 42.122 23.9414 42.122 23.6559V20.864C42.122 20.5786 41.8893 20.347 41.6035 20.347ZM41.0854 23.1389H33.1415V21.381H41.0854V23.1389Z" fill="url(#paint10_linear_5443_13737)"/>
<path d="M33.058 26.4418H33.757C34.0428 26.4418 34.2755 26.2102 34.2755 25.9248C34.2755 25.6393 34.0428 25.4077 33.757 25.4077H33.058C32.7722 25.4077 32.5396 25.6393 32.5396 25.9248C32.5396 26.2102 32.7722 26.4418 33.058 26.4418Z" fill="url(#paint11_linear_5443_13737)"/>
<path d="M37.225 26.4418C37.5108 26.4418 37.7435 26.2102 37.7435 25.9248C37.7435 25.6393 37.5108 25.4077 37.225 25.4077H36.5261C36.2402 25.4077 36.0076 25.6393 36.0076 25.9248C36.0076 26.2102 36.2402 26.4418 36.5261 26.4418H37.225Z" fill="url(#paint12_linear_5443_13737)"/>
<path d="M40.6921 25.4083H39.9931C39.7073 25.4083 39.4746 25.6399 39.4746 25.9253C39.4746 26.2107 39.7073 26.4423 39.9931 26.4423H40.6921C40.9779 26.4423 41.2105 26.2107 41.2105 25.9253C41.2105 25.6399 40.9779 25.4083 40.6921 25.4083Z" fill="url(#paint13_linear_5443_13737)"/>
<path d="M32.5778 27.8052H34.3988V29.4805H32.5778V27.8052Z" fill="url(#paint14_linear_5443_13737)"/>
<path d="M35.9649 27.8052H37.786V29.4805H35.9649V27.8052Z" fill="url(#paint15_linear_5443_13737)"/>
<path d="M39.3521 27.8052H41.1731V29.4805H39.3521V27.8052Z" fill="url(#paint16_linear_5443_13737)"/>
<path d="M32.5778 30.8068H34.3988V32.4822H32.5778V30.8068Z" fill="url(#paint17_linear_5443_13737)"/>
<path d="M35.9649 30.8068H37.786V32.4822H35.9649V30.8068Z" fill="url(#paint18_linear_5443_13737)"/>
<path d="M39.3521 30.8068H41.1731V32.4822H39.3521V30.8068Z" fill="url(#paint19_linear_5443_13737)"/>
<path d="M32.5778 33.8085H34.3988V35.4838H32.5778V33.8085Z" fill="url(#paint20_linear_5443_13737)"/>
<path d="M35.9649 33.8085H37.786V35.4838H35.9649V33.8085Z" fill="url(#paint21_linear_5443_13737)"/>
<path d="M39.3521 33.8085H41.1731V35.4838H39.3521V33.8085Z" fill="url(#paint22_linear_5443_13737)"/>
<path d="M14.155 30.5893C13.9387 30.4026 13.6121 30.425 13.4242 30.6424L9.82295 34.8009C9.63607 35.0169 9.65982 35.3437 9.87615 35.5307C9.97402 35.6153 10.095 35.6568 10.2148 35.6568C10.3595 35.6568 10.5042 35.5962 10.6067 35.4776L14.2079 31.3191C14.3951 31.1031 14.371 30.7759 14.155 30.5893Z" fill="url(#paint23_linear_5443_13737)"/>
<path d="M10.1106 32.6C10.9022 32.5735 11.5245 31.907 11.4979 31.1166C11.4702 30.3262 10.811 29.6736 10.0106 29.7306C9.2187 29.7582 8.59672 30.4236 8.62368 31.2151C8.63715 31.5975 8.79886 31.9538 9.07937 32.2147C9.34782 32.4647 9.69393 32.6011 10.0585 32.6011C10.0758 32.6011 10.0929 32.6011 10.1106 32.6ZM9.65919 31.1796C9.65103 30.9576 9.8255 30.7706 10.0454 30.7632H10.0588C10.2755 30.7632 10.4553 30.9349 10.4628 31.152C10.4702 31.373 10.2957 31.5596 10.0741 31.5674C9.978 31.5699 9.86558 31.532 9.7865 31.4587C9.70813 31.3854 9.66237 31.2869 9.65919 31.1796Z" fill="url(#paint24_linear_5443_13737)"/>
<path d="M12.6045 34.9262C12.6318 35.7014 13.2719 36.3137 14.0438 36.3137C14.0598 36.3137 14.0754 36.3137 14.0914 36.3123C14.4751 36.2996 14.8311 36.1381 15.0924 35.8566C15.3548 35.5764 15.4921 35.2113 15.4786 34.8278C15.4651 34.4439 15.3034 34.0891 15.0229 33.8281C14.7417 33.5668 14.3903 33.4103 13.9921 33.4432C13.2005 33.4694 12.5782 34.1359 12.6045 34.9262ZM14.0425 34.4754C14.1442 34.4754 14.2411 34.5133 14.3162 34.5841C14.3946 34.6574 14.44 34.7559 14.4432 34.8632C14.4471 34.9705 14.4091 35.0728 14.3357 35.1522C14.2616 35.2304 14.1627 35.2758 14.0556 35.2796C13.8559 35.3012 13.6478 35.1128 13.6396 34.8908C13.6322 34.6698 13.8066 34.4832 14.0283 34.4754L14.0425 34.4754Z" fill="url(#paint25_linear_5443_13737)"/>
<path d="M26.1276 27.6466H17.9688C17.683 27.6466 17.451 27.8789 17.451 28.1643C17.451 28.4497 17.683 28.682 17.9688 28.682H26.1276C26.4134 28.682 26.6461 28.4497 26.6461 28.1643C26.6461 27.8789 26.4134 27.6466 26.1276 27.6466Z" fill="url(#paint26_linear_5443_13737)"/>
<defs>
<linearGradient id="paint0_linear_5443_13737" x1="0" y1="0" x2="0" y2="1" gradientUnits="objectBoundingBox">
<stop stop-color="#ED3040"/>
<stop offset="1" stop-color="#2D23F4"/>
</linearGradient>
<linearGradient id="paint1_linear_5443_13737" x1="0" y1="0" x2="0" y2="1" gradientUnits="objectBoundingBox">
<stop stop-color="#ED3040"/>
<stop offset="1" stop-color="#2D23F4"/>
</linearGradient>
<linearGradient id="paint2_linear_5443_13737" x1="0" y1="0" x2="0" y2="1" gradientUnits="objectBoundingBox">
<stop stop-color="#ED3040"/>
<stop offset="1" stop-color="#2D23F4"/>
</linearGradient>
<linearGradient id="paint3_linear_5443_13737" x1="0" y1="0" x2="0" y2="1" gradientUnits="objectBoundingBox">
<stop stop-color="#ED3040"/>
<stop offset="1" stop-color="#2D23F4"/>
</linearGradient>
<linearGradient id="paint4_linear_5443_13737" x1="0" y1="0" x2="0" y2="1" gradientUnits="objectBoundingBox">
<stop stop-color="#ED3040"/>
<stop offset="1" stop-color="#2D23F4"/>
</linearGradient>
<linearGradient id="paint5_linear_5443_13737" x1="0" y1="0" x2="0" y2="1" gradientUnits="objectBoundingBox">
<stop stop-color="#ED3040"/>
<stop offset="1" stop-color="#2D23F4"/>
</linearGradient>
<linearGradient id="paint6_linear_5443_13737" x1="0" y1="0" x2="0" y2="1" gradientUnits="objectBoundingBox">
<stop stop-color="#ED3040"/>
<stop offset="1" stop-color="#2D23F4"/>
</linearGradient>
<linearGradient id="paint7_linear_5443_13737" x1="0" y1="0" x2="0" y2="1" gradientUnits="objectBoundingBox">
<stop stop-color="#ED3040"/>
<stop offset="1" stop-color="#2D23F4"/>
</linearGradient>
<linearGradient id="paint8_linear_5443_13737" x1="0" y1="0" x2="0" y2="1" gradientUnits="objectBoundingBox">
<stop stop-color="#ED3040"/>
<stop offset="1" stop-color="#2D23F4"/>
</linearGradient>
<linearGradient id="paint9_linear_5443_13737" x1="0" y1="0" x2="0" y2="1" gradientUnits="objectBoundingBox">
<stop stop-color="#ED3040"/>
<stop offset="1" stop-color="#2D23F4"/>
</linearGradient>
<linearGradient id="paint10_linear_5443_13737" x1="0" y1="0" x2="0" y2="1" gradientUnits="objectBoundingBox">
<stop stop-color="#ED3040"/>
<stop offset="1" stop-color="#2D23F4"/>
</linearGradient>
<linearGradient id="paint11_linear_5443_13737" x1="0" y1="0" x2="0" y2="1" gradientUnits="objectBoundingBox">
<stop stop-color="#ED3040"/>
<stop offset="1" stop-color="#2D23F4"/>
</linearGradient>
<linearGradient id="paint12_linear_5443_13737" x1="0" y1="0" x2="0" y2="1" gradientUnits="objectBoundingBox">
<stop stop-color="#ED3040"/>
<stop offset="1" stop-color="#2D23F4"/>
</linearGradient>
<linearGradient id="paint13_linear_5443_13737" x1="0" y1="0" x2="0" y2="1" gradientUnits="objectBoundingBox">
<stop stop-color="#ED3040"/>
<stop offset="1" stop-color="#2D23F4"/>
</linearGradient>
<linearGradient id="paint14_linear_5443_13737" x1="0" y1="0" x2="0" y2="1" gradientUnits="objectBoundingBox">
<stop stop-color="#ED3040"/>
<stop offset="1" stop-color="#2D23F4"/>
</linearGradient>
<linearGradient id="paint15_linear_5443_13737" x1="0" y1="0" x2="0" y2="1" gradientUnits="objectBoundingBox">
<stop stop-color="#ED3040"/>
<stop offset="1" stop-color="#2D23F4"/>
</linearGradient>
<linearGradient id="paint16_linear_5443_13737" x1="0" y1="0" x2="0" y2="1" gradientUnits="objectBoundingBox">
<stop stop-color="#ED3040"/>
<stop offset="1" stop-color="#2D23F4"/>
</linearGradient>
<linearGradient id="paint17_linear_5443_13737" x1="0" y1="0" x2="0" y2="1" gradientUnits="objectBoundingBox">
<stop stop-color="#ED3040"/>
<stop offset="1" stop-color="#2D23F4"/>
</linearGradient>
<linearGradient id="paint18_linear_5443_13737" x1="0" y1="0" x2="0" y2="1" gradientUnits="objectBoundingBox">
<stop stop-color="#ED3040"/>
<stop offset="1" stop-color="#2D23F4"/>
</linearGradient>
<linearGradient id="paint19_linear_5443_13737" x1="0" y1="0" x2="0" y2="1" gradientUnits="objectBoundingBox">
<stop stop-color="#ED3040"/>
<stop offset="1" stop-color="#2D23F4"/>
</linearGradient>
<linearGradient id="paint20_linear_5443_13737" x1="0" y1="0" x2="0" y2="1" gradientUnits="objectBoundingBox">
<stop stop-color="#ED3040"/>
<stop offset="1" stop-color="#2D23F4"/>
</linearGradient>
<linearGradient id="paint21_linear_5443_13737" x1="0" y1="0" x2="0" y2="1" gradientUnits="objectBoundingBox">
<stop stop-color="#ED3040"/>
<stop offset="1" stop-color="#2D23F4"/>
</linearGradient>
<linearGradient id="paint22_linear_5443_13737" x1="0" y1="0" x2="0" y2="1" gradientUnits="objectBoundingBox">
<stop stop-color="#ED3040"/>
<stop offset="1" stop-color="#2D23F4"/>
</linearGradient>
<linearGradient id="paint23_linear_5443_13737" x1="0" y1="0" x2="0" y2="1" gradientUnits="objectBoundingBox">
<stop stop-color="#ED3040"/>
<stop offset="1" stop-color="#2D23F4"/>
</linearGradient>
<linearGradient id="paint24_linear_5443_13737" x1="0" y1="0" x2="0" y2="1" gradientUnits="objectBoundingBox">
<stop stop-color="#ED3040"/>
<stop offset="1" stop-color="#2D23F4"/>
</linearGradient>
<linearGradient id="paint25_linear_5443_13737" x1="0" y1="0" x2="0" y2="1" gradientUnits="objectBoundingBox">
<stop stop-color="#ED3040"/>
<stop offset="1" stop-color="#2D23F4"/>
</linearGradient>
<linearGradient id="paint26_linear_5443_13737" x1="0" y1="0" x2="0" y2="1" gradientUnits="objectBoundingBox">
<stop stop-color="#ED3040"/>
<stop offset="1" stop-color="#2D23F4"/>
</linearGradient>
</defs>
</svg>
