<svg width="50" height="50" viewBox="0 0 50 50" fill="none" xmlns="http://www.w3.org/2000/svg">
<path d="M44.6936 32.8728C44.324 32.0712 43.6527 31.4513 42.8282 31.1489C42.0038 30.8469 41.0936 30.8879 40.2991 31.2627L31.7224 35.2841C32.291 34.2517 32.2752 32.9932 31.6807 31.9757C31.0859 30.9584 30.0013 30.3335 28.829 30.3335H18.9003C18.0236 30.3325 17.165 30.5829 16.4244 31.055C15.6834 31.5274 15.0912 32.2019 14.7165 32.9998H12.9431V31.0001C12.9431 30.8231 12.8735 30.6537 12.7493 30.5287C12.6252 30.4036 12.457 30.3335 12.2813 30.3335H5.66217C5.29659 30.3335 5 30.6319 5 31.0001V44.3334C5 44.5101 5.06996 44.6798 5.19412 44.8048C5.31828 44.9295 5.48645 45 5.66217 45H12.2813C12.457 45 12.6252 44.9295 12.7493 44.8048C12.8735 44.6798 12.9431 44.5101 12.9431 44.3334V42.9999H30.2276C30.7111 42.9992 31.1887 42.8931 31.6269 42.688L43.0969 37.3033H43.0973C43.8895 36.9258 44.5017 36.2487 44.8007 35.4187C45.0996 34.589 45.0611 33.6739 44.6936 32.8728ZM11.6195 43.6663H6.3241V31.666H11.6195V43.6663ZM42.5359 36.0956L31.0684 41.4789C30.805 41.6019 30.5186 41.6658 30.2282 41.6664H12.9437V34.333H15.1611C15.4429 34.3326 15.6935 34.153 15.7861 33.885C16.0128 33.2356 16.4345 32.673 16.9926 32.2756C17.5506 31.878 18.2174 31.6653 18.9009 31.6663H28.8297C29.5391 31.6663 30.1947 32.0474 30.5495 32.6663C30.9042 33.285 30.9042 34.0475 30.5495 34.6664C30.1947 35.285 29.5391 35.6662 28.8297 35.6662H22.8724V36.9993L30.468 36.9997C30.9505 36.999 31.4271 36.8925 31.8646 36.6877L40.86 32.4698V32.4695C41.3353 32.2455 41.8795 32.2207 42.3728 32.4007C42.8662 32.5806 43.2682 32.9508 43.4906 33.4295C43.6124 33.6961 43.6758 33.9859 43.6765 34.2796C43.6762 34.6597 43.5691 35.0322 43.3671 35.3538C43.1654 35.6754 42.877 35.9324 42.5361 36.0955L42.5359 36.0956Z" fill="url(#paint0_linear_5443_13697)"/>
<path d="M29.491 11.0003V9.66683C29.491 7.99948 28.6081 6.45892 27.1743 5.62525C25.7406 4.79158 23.9745 4.79159 22.5408 5.62525C21.1074 6.4589 20.2242 7.99948 20.2242 9.66683V11.0003C20.2242 12.6673 21.1074 14.2079 22.5408 15.0416C23.9746 15.8752 25.7407 15.8752 27.1743 15.0416C28.608 14.2079 29.491 12.6673 29.491 11.0003ZM24.8577 6.33358C25.6204 6.33457 26.3594 6.60021 26.95 7.08618C27.5409 7.57182 27.9475 8.24802 28.101 9.0003H25.2667L24.7914 8.03562C24.6962 7.84441 24.5155 7.71077 24.306 7.67636C24.0961 7.64195 23.8829 7.71109 23.7325 7.86227L22.598 9.00031H21.6143C21.768 8.24804 22.1743 7.57188 22.7653 7.08619C23.3561 6.60022 24.0951 6.33458 24.8579 6.33359L24.8577 6.33358ZM24.8577 14.3337C23.98 14.3327 23.1389 13.981 22.5185 13.3561C21.898 12.7312 21.5492 11.884 21.5479 11.0004V10.3335H22.8719C23.0473 10.3335 23.2158 10.2634 23.3399 10.1383L24.0146 9.45882L24.2655 9.96497H24.2652C24.3772 10.1909 24.6068 10.3338 24.8577 10.3335H28.1672V11.0004C28.1663 11.8841 27.8171 12.7313 27.1966 13.3561C26.5762 13.9809 25.735 14.3326 24.8577 14.3337Z" fill="url(#paint1_linear_5443_13697)"/>
<path d="M32.1388 29C32.4899 29 32.8266 28.8594 33.0749 28.6096C33.3232 28.3595 33.4628 28.0204 33.4628 27.6668V23C33.4628 21.8948 33.2139 20.8037 32.7346 19.8093C32.1349 18.5718 31.203 17.528 30.0453 16.7959C28.8872 16.0639 27.5489 15.6728 26.1816 15.6665H23.534C21.6036 15.6689 19.7531 16.4423 18.388 17.8172C17.023 19.1917 16.2551 21.0558 16.253 23V27.6668C16.253 28.0204 16.3923 28.3595 16.6406 28.6096C16.8889 28.8594 17.2256 29 17.5767 29H32.1388ZM31.5435 20.3923C31.9373 21.2041 32.1413 22.0963 32.139 22.9997V27.6665H25.5199V21.2755L29.0203 17.75L29.0199 17.7503C30.113 18.3458 30.9949 19.2691 31.5435 20.3922L31.5435 20.3923ZM26.1817 16.9997C26.6905 17.0027 27.1966 17.0725 27.6877 17.2072L24.8581 20.0571L22.029 17.2072H22.0287C22.5194 17.0725 23.0255 17.0027 23.534 16.9997H26.1817ZM17.5764 22.9997C17.5735 22.0956 17.7771 21.2031 18.1723 20.3909C18.7205 19.2681 19.6024 18.3452 20.6955 17.7503L24.1955 21.2755V27.6665H17.5764L17.5764 22.9997Z" fill="url(#paint2_linear_5443_13697)"/>
<path d="M27.5057 21.6668H30.1534V23H27.5057V21.6668Z" fill="url(#paint3_linear_5443_13697)"/>
<defs>
<linearGradient id="paint0_linear_5443_13697" x1="37.6624" y1="33.6397" x2="37.6624" y2="41.6506" gradientUnits="userSpaceOnUse">
<stop stop-color="#ED3040"/>
<stop offset="1" stop-color="#2D23F4"/>
</linearGradient>
<linearGradient id="paint1_linear_5443_13697" x1="37.6624" y1="33.6397" x2="37.6624" y2="41.6506" gradientUnits="userSpaceOnUse">
<stop stop-color="#ED3040"/>
<stop offset="1" stop-color="#2D23F4"/>
</linearGradient>
<linearGradient id="paint2_linear_5443_13697" x1="37.6624" y1="33.6397" x2="37.6624" y2="41.6506" gradientUnits="userSpaceOnUse">
<stop stop-color="#ED3040"/>
<stop offset="1" stop-color="#2D23F4"/>
</linearGradient>
<linearGradient id="paint3_linear_5443_13697" x1="37.6624" y1="33.6397" x2="37.6624" y2="41.6506" gradientUnits="userSpaceOnUse">
<stop stop-color="#ED3040"/>
<stop offset="1" stop-color="#2D23F4"/>
</linearGradient>
</defs>
</svg>
