<svg width="50" height="50" viewBox="0 0 50 50" fill="none" xmlns="http://www.w3.org/2000/svg">
<path d="M34.2511 21.2737C33.925 21.3688 33.7363 21.7159 33.8298 22.0477C34.0361 22.7783 34.1853 23.5328 34.2715 24.2901C34.3082 24.6086 34.5726 24.8421 34.8814 24.8421C34.905 24.8421 34.9295 24.8407 34.9531 24.8375C35.2896 24.7973 35.5309 24.4877 35.4928 24.1438C35.3975 23.3177 35.237 22.4967 35.0116 21.7005C34.9164 21.3701 34.5771 21.1782 34.2511 21.2737Z" fill="url(#paint0_linear_5443_13703)"/>
<path d="M31.4218 17.2602C31.5433 17.4181 31.7229 17.4998 31.9057 17.4998C32.0385 17.4998 32.1719 17.4564 32.2843 17.3659C32.5505 17.1532 32.5973 16.7604 32.3882 16.4881C29.5134 12.7618 25.1965 10.6236 20.5462 10.6236C20.2727 10.6236 19.9965 10.631 19.7258 10.6457C19.3866 10.6637 19.1276 10.9582 19.1453 11.3034C19.163 11.6486 19.4537 11.9121 19.7915 11.8941C19.8383 11.8914 19.885 11.8914 19.9321 11.8881V16.8734C19.9321 17.2186 20.207 17.4983 20.5462 17.4983C20.8854 17.4983 21.1602 17.2186 21.1602 16.8734V11.9223C23.1403 12.2421 24.9751 14.0965 26.2667 17.1218C26.3674 17.3567 26.5928 17.4984 26.8295 17.4984C26.9116 17.4984 26.9946 17.4822 27.0735 17.4462C27.3851 17.3091 27.527 16.9404 27.3923 16.6233C26.6626 14.9148 25.7588 13.534 24.7397 12.5297C27.3501 13.3734 29.6753 14.9965 31.4213 17.2603L31.4218 17.2602Z" fill="url(#paint1_linear_5443_13703)"/>
<path d="M20.5469 41.2502C21.7854 41.2502 23.018 41.097 24.2099 40.7933C24.5387 40.7098 24.7391 40.3706 24.6575 40.036C24.5754 39.7014 24.2421 39.4974 23.9133 39.5804C23.0167 39.808 22.0942 39.9436 21.1628 39.9852V33.1253H22.6984C23.0376 33.1253 23.3125 32.8456 23.3125 32.5004C23.3125 32.1552 23.0376 31.8755 22.6984 31.8755H21.1628V21.8753C21.1628 21.5301 20.888 21.2504 20.5487 21.2504C20.2095 21.2504 19.9347 21.5301 19.9347 21.8753V31.8755H13.8749C13.4201 30.0391 13.1788 28.0241 13.1788 25.9381C13.1788 24.59 13.2795 23.2567 13.4799 21.9736C13.5325 21.633 13.3044 21.3127 12.9697 21.2578C12.6351 21.2029 12.3203 21.4364 12.2664 21.777C12.0559 23.1236 11.9489 24.5239 11.9489 25.9376C11.9489 28.0107 12.177 30.021 12.6097 31.875H8.02239C7.19338 30.07 6.72813 28.0577 6.72813 25.9376C6.72813 23.3083 7.44603 20.7441 8.80292 18.5224C8.98115 18.2293 8.89362 17.8439 8.60565 17.6621C8.31766 17.4789 7.93899 17.5698 7.76031 17.8629C6.28239 20.2825 5.5 23.0757 5.5 25.9389C5.5 34.3809 12.2501 41.2497 20.5475 41.2497L20.5469 41.2502ZM19.9328 33.1252V39.9496C18.2598 39.6787 16.6821 38.3084 15.439 36.0212C14.9624 35.1448 14.5556 34.1715 14.2254 33.1252H19.9328ZM12.9388 33.1252C13.3148 34.3943 13.7914 35.5731 14.3646 36.6253C14.9555 37.7103 15.6208 38.6176 16.3447 39.3335C13.1084 38.2799 10.3875 36.042 8.675 33.1252H12.9388Z" fill="url(#paint2_linear_5443_13703)"/>
<path d="M28.1257 21.2572C27.791 21.3107 27.5629 21.6324 27.6155 21.973C27.816 23.2555 27.9167 24.5889 27.9167 25.9375C27.9167 26.2827 28.1915 26.5624 28.5307 26.5624C28.87 26.5624 29.1448 26.2827 29.1448 25.9375C29.1448 24.5238 29.0382 23.1236 28.8273 21.7769C28.7752 21.4358 28.4609 21.2023 28.1257 21.2572Z" fill="url(#paint3_linear_5443_13703)"/>
<path d="M39.2789 29.062V26.8744C39.2789 26.0128 38.59 25.3117 37.7433 25.3117H31.2944C30.4477 25.3117 29.7588 26.0127 29.7588 26.8744V29.062H26.5352C25.4341 29.062 24.5393 29.9726 24.5393 31.0931V35.3123C24.5393 35.952 24.9194 36.5011 25.4604 36.7439V43.1249C25.4604 44.1591 26.2867 45 27.303 45H41.7363C42.7526 45 43.5789 44.1591 43.5789 43.1249V36.7439C44.12 36.503 44.5 35.9524 44.5 35.3123V31.0936C44.5 29.973 43.6048 29.062 42.5037 29.062H39.2789ZM30.9878 26.8744C30.9878 26.7018 31.1252 26.562 31.2948 26.562H37.7437C37.9133 26.562 38.0507 26.7018 38.0507 26.8744V29.062H30.9878V26.8744ZM25.7674 31.0931C25.7674 30.6616 26.1126 30.3118 26.5352 30.3118H42.5034C42.926 30.3118 43.2711 30.6616 43.2711 31.0931V35.3123C43.2711 35.4849 43.1337 35.6248 42.9641 35.6248H26.0742C25.9046 35.6248 25.7672 35.4849 25.7672 35.3123L25.7674 31.0931ZM32.5233 36.8746H36.5156V38.1244H32.5233V36.8746ZM41.7354 43.7498H27.3021C26.9629 43.7498 26.6881 43.4701 26.6881 43.1249V36.8751H31.2944V38.1248C31.2944 38.8139 31.8459 39.3746 32.5225 39.3746H36.5147C37.1918 39.3746 37.7428 38.8134 37.7428 38.1248V36.8751H42.3491V43.1249C42.3496 43.4701 42.0743 43.7498 41.7351 43.7498H41.7354Z" fill="url(#paint4_linear_5443_13703)"/>
<path d="M12.5628 5C9.51522 5 7.03548 7.524 7.03548 10.6249C7.03548 12.7724 8.36921 15.1487 9.48944 16.7663C10.2119 17.8093 10.88 18.5879 11.2137 18.9585C12.1525 20.0015 12.3529 20.0015 12.5634 20.0015C12.7738 20.0015 12.9743 20.0015 13.913 18.9585C14.2463 18.5879 14.9148 17.8112 15.6373 16.7663C16.7561 15.15 18.0913 12.7723 18.0913 10.6249C18.0904 7.52353 15.6106 5 12.563 5H12.5628ZM12.5628 18.5835C11.5274 17.558 8.26356 13.6282 8.26356 10.6252C8.26356 8.2128 10.1923 6.25001 12.5628 6.25001C14.9333 6.25001 16.862 8.2128 16.862 10.6252C16.862 13.6282 13.5982 17.5567 12.5628 18.5835Z" fill="url(#paint5_linear_5443_13703)"/>
<path d="M12.5628 7.81193C11.039 7.81193 9.79908 9.07375 9.79908 10.6244C9.79908 12.1751 11.039 13.437 12.5628 13.437C14.0866 13.437 15.3265 12.1751 15.3265 10.6244C15.3265 9.07375 14.0866 7.81193 12.5628 7.81193ZM12.5628 12.1871C11.7161 12.1871 11.0272 11.486 11.0272 10.6243C11.0272 9.76262 11.716 9.06158 12.5628 9.06158C13.4095 9.06158 14.0984 9.76262 14.0984 10.6243C14.0984 11.486 13.4095 12.1871 12.5628 12.1871Z" fill="url(#paint6_linear_5443_13703)"/>
<path d="M41.7347 27.812C42.074 27.812 42.3488 27.5324 42.3488 27.1871V22.4995C42.3488 20.431 40.6963 18.7497 38.6641 18.7497H16.2467C15.9075 18.7497 15.6327 19.0294 15.6327 19.3746C15.6327 19.7198 15.9075 19.9995 16.2467 19.9995H38.6641C40.0182 19.9995 41.1207 21.1215 41.1207 22.4995V27.1872C41.1207 27.5324 41.3955 27.812 41.7347 27.812Z" fill="url(#paint7_linear_5443_13703)"/>
<defs>
<linearGradient id="paint0_linear_5443_13703" x1="37.3459" y1="33.6397" x2="37.3459" y2="41.6506" gradientUnits="userSpaceOnUse">
<stop stop-color="#ED3040"/>
<stop offset="1" stop-color="#2D23F4"/>
</linearGradient>
<linearGradient id="paint1_linear_5443_13703" x1="37.3459" y1="33.6397" x2="37.3459" y2="41.6506" gradientUnits="userSpaceOnUse">
<stop stop-color="#ED3040"/>
<stop offset="1" stop-color="#2D23F4"/>
</linearGradient>
<linearGradient id="paint2_linear_5443_13703" x1="37.3459" y1="33.6397" x2="37.3459" y2="41.6506" gradientUnits="userSpaceOnUse">
<stop stop-color="#ED3040"/>
<stop offset="1" stop-color="#2D23F4"/>
</linearGradient>
<linearGradient id="paint3_linear_5443_13703" x1="37.3459" y1="33.6397" x2="37.3459" y2="41.6506" gradientUnits="userSpaceOnUse">
<stop stop-color="#ED3040"/>
<stop offset="1" stop-color="#2D23F4"/>
</linearGradient>
<linearGradient id="paint4_linear_5443_13703" x1="37.3459" y1="33.6397" x2="37.3459" y2="41.6506" gradientUnits="userSpaceOnUse">
<stop stop-color="#ED3040"/>
<stop offset="1" stop-color="#2D23F4"/>
</linearGradient>
<linearGradient id="paint5_linear_5443_13703" x1="37.3459" y1="33.6397" x2="37.3459" y2="41.6506" gradientUnits="userSpaceOnUse">
<stop stop-color="#ED3040"/>
<stop offset="1" stop-color="#2D23F4"/>
</linearGradient>
<linearGradient id="paint6_linear_5443_13703" x1="37.3459" y1="33.6397" x2="37.3459" y2="41.6506" gradientUnits="userSpaceOnUse">
<stop stop-color="#ED3040"/>
<stop offset="1" stop-color="#2D23F4"/>
</linearGradient>
<linearGradient id="paint7_linear_5443_13703" x1="37.3459" y1="33.6397" x2="37.3459" y2="41.6506" gradientUnits="userSpaceOnUse">
<stop stop-color="#ED3040"/>
<stop offset="1" stop-color="#2D23F4"/>
</linearGradient>
</defs>
</svg>
