<svg width="50" height="50" viewBox="0 0 50 50" fill="none" xmlns="http://www.w3.org/2000/svg">
<path d="M38.7751 5.7142H15.7346C15.3356 5.2793 14.7654 5 14.1249 5H12.6751C11.476 5 10.5 5.96163 10.5 7.14294V42.8571C10.5 44.0385 11.4761 45 12.6751 45H14.1249C14.765 45 15.3356 44.7207 15.7346 44.2858L38.7751 44.2854C39.1759 44.2854 39.5 43.9654 39.5 43.5712V6.42801C39.5 6.03387 39.1762 5.71381 38.7751 5.71381V5.7142ZM14.1247 43.5715H12.6748C12.2748 43.5715 11.9499 43.2508 11.9499 42.8573L11.9496 7.14321C11.9496 6.74978 12.2744 6.42901 12.6745 6.42901H14.1243C14.5244 6.42901 14.8492 6.74978 14.8492 7.14321V42.8573C14.8496 43.2508 14.5247 43.5715 14.1247 43.5715ZM38.0503 42.8573H16.3001V7.14321H38.0503V42.8573ZM18.4745 31.429H35.8749C36.2756 31.429 36.5998 31.1089 36.5998 30.7148V26.4293C36.5998 26.0351 36.2756 25.7151 35.8749 25.7151L18.4745 25.7147C18.0737 25.7147 17.7496 26.0348 17.7496 26.4289V30.7144C17.7496 31.1089 18.0737 31.429 18.4745 31.429ZM19.1998 27.1431H35.1496V30.0002H19.1998V27.1431ZM27.1747 22.7782C31.1274 22.7782 34.3444 19.6095 34.3444 15.7145C34.3444 11.8195 31.1274 8.65117 27.1747 8.65117C23.222 8.65117 20.0053 11.8195 20.0053 15.7149C20.0053 19.6099 23.222 22.7782 27.1747 22.7782ZM27.1747 10.0796C30.3284 10.0796 32.8943 12.6074 32.8943 15.7145C32.8946 18.8219 30.3288 21.3497 27.1747 21.3497C24.021 21.3497 21.4551 18.8219 21.4551 15.7148C21.4551 12.6074 24.0209 10.0796 27.1747 10.0796ZM27.9 17.1433C27.9 16.7498 27.5751 16.4291 27.1751 16.4291C25.9759 16.4291 24.9999 15.4674 24.9999 14.2861C24.9999 13.3855 25.5676 12.6167 26.3688 12.2998L26.3685 11.4289C26.3685 11.0348 26.6926 10.7147 27.0934 10.7147C27.4942 10.7147 27.8183 11.0348 27.8183 11.4289V12.2498C28.7015 12.5217 29.3498 13.327 29.3498 14.286C29.3498 14.6802 29.0257 15.0002 28.6249 15.0002C28.2241 15.0002 27.9 14.6802 27.9 14.286C27.9 13.9475 27.655 13.6768 27.3344 13.603C27.2582 13.6296 27.1794 13.6509 27.0937 13.6509C27.0373 13.6509 26.988 13.6317 26.9351 13.6193C26.6534 13.7182 26.4498 13.9759 26.4498 14.286C26.4498 14.6795 26.7746 15.0003 27.1747 15.0003C28.3738 15.0003 29.3498 15.9619 29.3498 17.1432C29.3498 18.0732 28.7414 18.8583 27.9 19.1546V20.0003C27.9 20.3945 27.5758 20.7145 27.1751 20.7145C26.7743 20.7145 26.4501 20.3945 26.4501 20.0003V19.1539C25.6083 18.8583 25.0003 18.0725 25.0003 17.1432C25.0003 16.7491 25.3244 16.429 25.7252 16.429C26.126 16.429 26.4501 16.7491 26.4501 17.1432C26.4501 17.5366 26.775 17.8574 27.1751 17.8574C27.5751 17.8574 27.9 17.5367 27.9 17.1433ZM35.8749 35.0003C35.8749 35.3945 35.5507 35.7145 35.1499 35.7145H19.1992C18.7985 35.7145 18.4743 35.3945 18.4743 35.0003C18.4743 34.6062 18.7985 34.2861 19.1992 34.2861H35.1499C35.5507 34.2861 35.8749 34.6062 35.8749 35.0003ZM35.8749 39.2858C35.8749 39.68 35.5507 40 35.1499 40L19.1992 40.0004C18.7985 40.0004 18.4743 39.6803 18.4743 39.2862C18.4743 38.892 18.7985 38.572 19.1992 38.572L35.1499 38.5716C35.5507 38.5716 35.8749 38.8917 35.8749 39.2858Z" fill="url(#paint0_linear_5443_13691)"/>
<defs>
<linearGradient id="paint0_linear_5443_13691" x1="0" y1="0" x2="0" y2="1" gradientUnits="objectBoundingBox">
<stop stop-color="#ED3040"/>
<stop offset="1" stop-color="#2D23F4"/>
</linearGradient>
</defs>
</svg>
