<svg width="50" height="50" viewBox="0 0 50 50" fill="none" xmlns="http://www.w3.org/2000/svg">
<path d="M25 8.4944C25.2972 8.4944 25.5392 8.25853 25.5392 7.96808V5.52633C25.5392 5.23587 25.2972 5 25 5C24.7027 5 24.4607 5.23588 24.4607 5.52633V7.96842C24.4607 8.25855 24.7027 8.4944 25 8.4944Z" fill="url(#paint0_linear_5443_13699)"/>
<path d="M19.2839 9.04573C19.3635 9.25976 19.5699 9.39209 19.7903 9.39209C19.8516 9.39209 19.9139 9.38183 19.9745 9.36066C20.2538 9.26108 20.3986 8.95905 20.2967 8.68579L19.442 6.39089C19.3408 6.11796 19.031 5.97902 18.7514 6.07595C18.4721 6.17553 18.3273 6.47756 18.4292 6.75082L19.2839 9.04573Z" fill="url(#paint1_linear_5443_13699)"/>
<path d="M14.7958 11.7888C14.9024 11.9135 15.0554 11.977 15.2088 11.977C15.331 11.977 15.4539 11.9367 15.5548 11.8543C15.7829 11.6674 15.8127 11.3349 15.6218 11.1126L14.0159 9.24117C13.8233 9.01688 13.4834 8.98908 13.2569 9.17567C13.0288 9.36257 12.999 9.69505 13.1899 9.91735L14.7958 11.7888Z" fill="url(#paint2_linear_5443_13699)"/>
<path d="M9.37525 14.6462L11.54 15.8673C11.6243 15.9149 11.7167 15.9374 11.8081 15.9374C11.9943 15.9374 12.1757 15.8428 12.2756 15.6744C12.4242 15.4223 12.3355 15.1004 12.0776 14.9545L9.91307 13.7335C9.65614 13.5876 9.32575 13.6743 9.17714 13.9264C9.02854 14.1784 9.1173 14.5003 9.37525 14.6462Z" fill="url(#paint3_linear_5443_13699)"/>
<path d="M7.44535 20.3636L9.90604 20.7877C9.93752 20.793 9.96901 20.7953 10.0001 20.7953C10.2564 20.7953 10.4842 20.616 10.5303 20.3603C10.5814 20.0741 10.3864 19.8012 10.0929 19.7506L7.6322 19.3265C7.34006 19.2788 7.05943 19.4671 7.00832 19.7539C6.95653 20.0397 7.15185 20.313 7.44535 20.3636Z" fill="url(#paint4_linear_5443_13699)"/>
<path d="M10.5304 25.3475C10.4793 25.0614 10.2034 24.8731 9.90655 24.9201L7.44585 25.3442C7.1527 25.3948 6.95738 25.6681 7.00849 25.9539C7.05452 26.2096 7.282 26.3889 7.5386 26.3889C7.56941 26.3889 7.60123 26.3863 7.6327 26.3813L10.0934 25.9572C10.3862 25.9066 10.5815 25.6333 10.5304 25.3475Z" fill="url(#paint5_linear_5443_13699)"/>
<path d="M11.54 29.8403L9.37525 31.062C9.11832 31.2072 9.02929 31.5291 9.17858 31.7812C9.27776 31.9496 9.45955 32.0442 9.64539 32.0442C9.73679 32.0442 9.82954 32.0217 9.91451 31.9734L12.0793 30.7517C12.3362 30.6064 12.4252 30.2846 12.2759 30.0325C12.1277 29.7817 11.799 29.695 11.54 29.8403Z" fill="url(#paint6_linear_5443_13699)"/>
<path d="M40.6238 31.0615L38.4604 29.8398C38.2024 29.6939 37.8723 29.7805 37.7237 30.032C37.5751 30.284 37.6632 30.6059 37.9211 30.7512L40.0845 31.9729C40.1699 32.0212 40.2619 32.0437 40.3543 32.0437C40.5398 32.0437 40.7213 31.9497 40.8212 31.7807C40.9698 31.5289 40.8818 31.2067 40.6238 31.0615Z" fill="url(#paint7_linear_5443_13699)"/>
<path d="M42.5546 25.3441L40.0939 24.92C39.7967 24.8724 39.5218 25.0613 39.4707 25.3474C39.4182 25.6336 39.6139 25.9065 39.9074 25.9571L42.3681 26.3812C42.3995 26.3865 42.431 26.3888 42.4615 26.3888C42.7194 26.3888 42.9456 26.2095 42.9916 25.9538C43.0437 25.668 42.8477 25.3947 42.5546 25.3441Z" fill="url(#paint8_linear_5443_13699)"/>
<path d="M39.4704 20.3602C39.5164 20.6159 39.7425 20.7952 40.0005 20.7952C40.0306 20.7952 40.0624 20.7926 40.0939 20.7876L42.5546 20.3635C42.8478 20.3129 43.0438 20.0396 42.9913 19.7538C42.9398 19.4676 42.669 19.2787 42.3681 19.3264L39.9074 19.7505C39.6139 19.8011 39.4179 20.074 39.4704 20.3602Z" fill="url(#paint9_linear_5443_13699)"/>
<path d="M38.1904 15.9369C38.2825 15.9369 38.3746 15.9144 38.4602 15.8661L40.6237 14.645C40.8816 14.4998 40.9696 14.1779 40.821 13.9258C40.671 13.6748 40.341 13.5871 40.0844 13.7336L37.9209 14.9547C37.663 15.0999 37.575 15.4218 37.7236 15.6739C37.8235 15.8426 38.0049 15.9369 38.1904 15.9369Z" fill="url(#paint10_linear_5443_13699)"/>
<path d="M34.7899 11.9777C34.9436 11.9777 35.0962 11.9141 35.2029 11.7901L36.8098 9.91864C37.0004 9.69567 36.9716 9.36352 36.7428 9.17695C36.5166 8.99004 36.1747 9.01882 35.9838 9.24112L34.3769 11.1129C34.1863 11.3359 34.2151 11.668 34.4439 11.8546C34.5441 11.9373 34.6677 11.9777 34.7899 11.9777Z" fill="url(#paint11_linear_5443_13699)"/>
<path d="M30.0253 9.36077C30.0859 9.38194 30.1476 9.3922 30.2095 9.3922C30.4292 9.3922 30.6357 9.25987 30.7159 9.04584L31.5707 6.75093C31.6719 6.47801 31.5287 6.17564 31.2484 6.07607C30.9735 5.97715 30.6594 6.11576 30.5578 6.39101L29.7031 8.68591C29.6019 8.95917 29.7451 9.26119 30.0253 9.36077Z" fill="url(#paint12_linear_5443_13699)"/>
<path d="M38.3377 22.8543C38.3377 19.1528 36.7176 15.612 33.8937 13.1413C31.0296 10.6341 27.3276 9.48213 23.479 9.90227C17.5357 10.5454 12.6223 15.2033 11.7964 20.9771C10.9766 26.7008 13.9585 32.1323 19.238 34.6018V36.1302C18.9963 36.1821 18.8111 36.3826 18.8111 36.6344C18.8111 36.8861 18.9959 37.0869 19.238 37.1385V38.3252C18.9963 38.3771 18.8111 38.5776 18.8111 38.8294C18.8111 39.0811 18.9959 39.2819 19.238 39.3335V40.5195C18.9963 40.5714 18.8111 40.7719 18.8111 41.0237C18.8111 41.2757 18.9966 41.4766 19.239 41.5282C19.2447 42.5868 20.1266 43.4462 21.2105 43.4462H21.2315L21.5683 44.6163C21.634 44.8432 21.8459 45 22.0872 45H27.9764C28.2184 45 28.43 44.8432 28.4946 44.6163L28.8328 43.4415C29.8876 43.4171 30.7383 42.5827 30.7562 41.5499H30.7738C31.071 41.5499 31.3131 41.314 31.3131 41.0236C31.3131 40.7331 31.071 40.4973 30.7738 40.4973H30.7593V39.3553H30.7738C31.071 39.3553 31.3131 39.1194 31.3131 38.829C31.3131 38.5385 31.071 38.3027 30.7738 38.3027H30.7593V37.16H30.7738C31.071 37.16 31.3131 36.9242 31.3131 36.6337C31.3131 36.3433 31.071 36.1074 30.7738 36.1074H30.7593V34.6012C35.3742 32.4383 38.3372 27.8648 38.3372 22.8548L38.3377 22.8543ZM27.5694 43.9478H22.4954L22.3522 43.4466H27.7126L27.5694 43.9478ZM28.7871 42.3939H21.2111C20.7291 42.3939 20.3405 42.0171 20.3222 41.55H29.6745C29.6562 42.0171 29.2682 42.3939 28.7869 42.3939H28.7871ZM29.6814 40.4976H20.3152V39.3557H29.6805L29.6814 40.4976ZM29.6814 38.303H20.3152V37.1604H29.6805L29.6814 38.303ZM30.001 33.7847C29.8063 33.8693 29.6814 34.0576 29.6814 34.2653V36.1077H20.3152V34.2653C20.3152 34.0579 20.191 33.8693 19.997 33.7847C14.9613 31.5805 12.0945 26.4922 12.8632 21.1228C13.6222 15.8188 18.1369 11.5394 23.5977 10.9483C24.0737 10.897 24.5473 10.8712 25.0168 10.8712C28.0417 10.8712 30.8968 11.9315 33.1747 13.9256C35.7707 16.1973 37.2595 19.4515 37.2595 22.8543C37.2592 27.5645 34.4106 31.8559 30.0011 33.7852L30.001 33.7847Z" fill="url(#paint13_linear_5443_13699)"/>
<path d="M36.1322 24.5548C36.1322 23.5898 35.703 22.696 34.9934 22.0469C35.3733 21.4961 35.5957 20.8338 35.5957 20.1213C35.5957 18.4642 34.399 17.0808 32.7904 16.7496C32.7904 16.7447 32.7921 16.74 32.7921 16.7351C32.7921 14.8296 31.2061 13.2797 29.2556 13.2797C28.7952 13.2797 28.3389 13.3677 27.9141 13.5367C27.5418 13.2502 27.0777 13.0908 26.5949 13.0908C25.9575 13.0908 25.3911 13.3707 24.9995 13.805C24.6082 13.371 24.0415 13.0908 23.4041 13.0908C22.92 13.0908 22.4573 13.2502 22.0839 13.5367C21.6605 13.3677 21.2042 13.2797 20.7437 13.2797C18.7932 13.2797 17.2073 14.8296 17.2073 16.7351C17.2073 16.74 17.2089 16.7447 17.2089 16.7493C15.5997 17.0801 14.403 18.4636 14.403 20.1209C14.403 20.8335 14.6251 21.4958 15.0049 22.0466C14.2957 22.6957 13.8671 23.5892 13.8671 24.5545C13.8671 25.9949 14.7751 27.2295 16.06 27.7475C16.0289 27.9334 16.0113 28.122 16.0113 28.3126C16.0113 30.2187 17.5973 31.7686 19.5478 31.7686C19.9381 31.7686 20.3182 31.6833 20.6852 31.5609C21.152 32.3228 21.9773 32.8226 22.914 32.8226C23.7674 32.8226 24.5199 32.4163 24.9999 31.7974C25.4796 32.416 26.2324 32.8226 27.0858 32.8226C28.0227 32.8226 28.8477 32.323 29.3142 31.5609C29.6815 31.6833 30.0617 31.7686 30.4513 31.7686C32.4018 31.7686 33.9878 30.2187 33.9878 28.3126C33.9878 28.122 33.9705 27.9334 33.939 27.7479C35.2237 27.2301 36.1322 25.9956 36.1322 24.5548ZM24.4601 30.2581C24.4601 31.0918 23.7671 31.7702 22.9134 31.7702C22.2479 31.7702 21.6588 31.3571 21.4462 30.7414C21.4415 30.7275 21.4303 30.718 21.4246 30.7047C21.4188 30.6918 21.4195 30.6779 21.4127 30.665C21.4026 30.6462 21.3853 30.6349 21.3735 30.6177C21.3514 30.5863 21.3294 30.5572 21.3017 30.5314C21.2797 30.5112 21.2567 30.495 21.232 30.4791C21.1978 30.4566 21.1639 30.4378 21.126 30.4232C21.1009 30.4139 21.0766 30.4086 21.0502 30.403C21.0095 30.3941 20.9696 30.3885 20.9273 30.3895C20.8958 30.3901 20.8657 30.3957 20.8342 30.4017C20.8105 30.4063 20.7871 30.403 20.7634 30.411C20.7489 30.4156 20.7394 30.4265 20.7259 30.4321C20.7127 30.4378 20.6984 30.4371 20.6852 30.4437C20.3373 30.6217 19.9442 30.7163 19.5471 30.7163C18.1911 30.7163 17.0878 29.6379 17.0878 28.3129C17.0878 28.2008 17.1258 28.0946 17.1413 27.9844C17.229 27.9907 17.3133 28.0102 17.4027 28.0102C18.1778 28.0102 18.9144 27.7701 19.5312 27.3148C19.7685 27.1395 19.8152 26.8097 19.6365 26.5771C19.4584 26.3469 19.1216 26.3002 18.8816 26.4743C18.4534 26.7905 17.9418 26.9576 17.4026 26.9576C16.0466 26.9576 14.9433 25.8797 14.9433 24.5549C14.9433 23.8816 15.2439 23.2581 15.7402 22.8065C16.3458 23.2808 17.1033 23.5766 17.9385 23.5766C18.0563 23.5766 18.1694 23.5422 18.2861 23.5309C18.3796 23.8836 18.5471 24.2161 18.7959 24.495C18.9026 24.6137 19.0519 24.6749 19.2018 24.6749C19.3274 24.6749 19.4537 24.6326 19.5562 24.5453C19.7797 24.3544 19.8034 24.0216 19.6074 23.8026C19.3951 23.5641 19.2773 23.259 19.2773 22.9428C19.2773 22.6252 19.3951 22.3202 19.6087 22.0824C19.8054 21.864 19.7837 21.5309 19.56 21.3397C19.3365 21.1481 18.995 21.17 18.8 21.3873C18.5184 21.7009 18.3318 22.0801 18.2496 22.4836C18.1456 22.4965 18.0444 22.5246 17.9385 22.5246C16.5824 22.5246 15.4792 21.4468 15.4792 20.1219C15.4792 18.9823 16.2923 18.0262 17.3924 17.7827C17.4331 17.9068 17.4618 18.0335 17.517 18.1536C17.6392 18.4196 17.9588 18.538 18.2299 18.4172C18.5007 18.2978 18.6219 17.9862 18.4997 17.7205C18.3565 17.4109 18.2841 17.0798 18.2841 16.736C18.2841 15.4108 19.3876 14.3333 20.7434 14.3333C21.1577 14.3333 21.5673 14.4362 21.9282 14.6297C22.1516 14.7505 22.4319 14.7005 22.5988 14.509C22.7985 14.2777 23.092 14.1448 23.4038 14.1448C23.9864 14.1448 24.46 14.6082 24.46 15.1775L24.4603 30.2581L24.4601 30.2581ZM30.4664 27.3152C31.0845 27.7701 31.8211 28.0106 32.5956 28.0106C32.6846 28.0106 32.7686 27.9914 32.8559 27.9847C32.8711 28.0949 32.9084 28.2004 32.9084 28.3132C32.9084 29.6385 31.8061 30.7166 30.4504 30.7166C30.048 30.7166 29.6654 30.6247 29.3117 30.4437C29.2985 30.4371 29.2842 30.4378 29.2707 30.4321C29.2575 30.4265 29.248 30.4159 29.2338 30.4113C29.2098 30.4034 29.1867 30.4067 29.163 30.402C29.1319 30.3964 29.1021 30.3904 29.071 30.3901C29.0253 30.3891 28.9826 30.3944 28.9396 30.4043C28.918 30.4093 28.8977 30.4139 28.8767 30.4212C28.8333 30.4368 28.7951 30.4576 28.7575 30.4834C28.7369 30.4976 28.7172 30.5115 28.6986 30.5284C28.6688 30.5559 28.6451 30.5863 28.6221 30.6204C28.6106 30.6366 28.5943 30.6475 28.5845 30.6654C28.5774 30.6783 28.5784 30.6925 28.5723 30.7057C28.5666 30.7186 28.5561 30.7282 28.5514 30.7418C28.3398 31.3568 27.7504 31.77 27.0849 31.77C26.2315 31.77 25.5382 31.0915 25.5382 30.2579L25.5385 15.1764C25.5385 14.6071 26.0121 14.1437 26.5947 14.1437C26.9052 14.1437 27.1997 14.2766 27.4011 14.5086C27.5656 14.6994 27.8456 14.7497 28.0703 14.6286C28.4319 14.4351 28.8411 14.3322 29.2551 14.3322C30.6112 14.3322 31.7131 15.4101 31.7131 16.7349C31.7131 17.0793 31.6406 17.4108 31.4988 17.7188C31.3766 17.9834 31.4961 18.2957 31.7669 18.4155C32.0367 18.5349 32.3573 18.4181 32.4798 18.1535C32.5353 18.0337 32.5644 17.9063 32.6054 17.782C33.7046 18.0254 34.517 18.9815 34.517 20.1212C34.517 21.4464 33.4148 22.5239 32.0591 22.5239C31.9535 22.5239 31.8523 22.4957 31.748 22.4828C31.6657 22.0789 31.4796 21.7005 31.1989 21.3871C31.0029 21.1678 30.6624 21.146 30.439 21.3382C30.2156 21.5297 30.1932 21.8625 30.3889 22.0809C30.6018 22.3187 30.7189 22.6244 30.7189 22.942C30.7189 23.2589 30.6032 23.5646 30.3902 23.8017C30.1956 24.0211 30.2179 24.3539 30.4427 24.5444C30.5439 24.6317 30.6702 24.6741 30.7964 24.6741C30.9464 24.6741 31.0964 24.6129 31.203 24.4941C31.4511 24.2159 31.6187 23.8834 31.7118 23.5301C31.8286 23.5414 31.941 23.5758 32.0591 23.5758C32.8935 23.5758 33.6511 23.28 34.2567 22.8056C34.7536 23.2572 35.0536 23.8807 35.0536 24.554C35.0536 25.8792 33.9513 26.9567 32.5956 26.9567C32.0564 26.9567 31.5449 26.7897 31.116 26.4734C30.878 26.2987 30.5385 26.3431 30.3611 26.577C30.1824 26.8099 30.2298 27.14 30.4664 27.315L30.4664 27.3152Z" fill="url(#paint14_linear_5443_13699)"/>
<path d="M29.5964 26.7686C29.3124 26.6806 29.0097 26.8381 28.9231 27.1163C28.8141 27.4607 28.5744 27.7428 28.2471 27.9112C27.9221 28.079 27.546 28.1137 27.1949 28.0068C26.9096 27.9208 26.6083 28.0763 26.5216 28.3545C26.4336 28.6321 26.5927 28.9272 26.8767 29.0132C27.1161 29.0853 27.3622 29.121 27.6052 29.121C27.9999 29.121 28.3916 29.0271 28.7508 28.8421C29.3306 28.5428 29.7582 28.0402 29.9514 27.4272C30.0394 27.1487 29.8804 26.8546 29.5964 26.7686Z" fill="url(#paint15_linear_5443_13699)"/>
<path d="M30.7065 17.4528C30.4685 16.1494 29.1981 15.2717 27.8538 15.5102C27.5607 15.5608 27.366 15.8341 27.4185 16.1206C27.4696 16.4061 27.7448 16.6019 28.0431 16.546C28.7912 16.417 29.5122 16.9053 29.6463 17.6377C29.6923 17.8928 29.9198 18.0714 30.1764 18.0714C30.2065 18.0714 30.2393 18.0688 30.2712 18.0631C30.5647 18.0125 30.7593 17.7386 30.7065 17.4528Z" fill="url(#paint16_linear_5443_13699)"/>
<path d="M27.0304 21.2782C27.442 21.5121 27.6973 21.9451 27.6973 22.4092C27.6973 22.872 27.4434 23.3051 27.0345 23.539C26.7765 23.6855 26.6899 24.0074 26.8398 24.2588C26.9397 24.4266 27.1211 24.5198 27.3053 24.5198C27.3987 24.5198 27.4921 24.4967 27.5761 24.4477C28.3154 24.0263 28.7754 23.2456 28.7754 22.4093C28.7754 21.572 28.3137 20.7899 27.572 20.3684C27.3158 20.2206 26.9854 20.3069 26.8354 20.5587C26.6861 20.8101 26.7741 21.132 27.0304 21.2782Z" fill="url(#paint17_linear_5443_13699)"/>
<path d="M22.804 28.0068C22.0742 28.2284 21.302 27.8261 21.0772 27.1162C20.9886 26.8379 20.6852 26.6805 20.4033 26.7685C20.1192 26.8545 19.9601 27.1496 20.0475 27.4271C20.3745 28.4573 21.3488 29.1202 22.3974 29.1202C22.6381 29.1202 22.8815 29.0855 23.1222 29.013C23.4062 28.927 23.5653 28.6319 23.4773 28.3544C23.3893 28.0758 23.0853 27.9204 22.804 28.0068Z" fill="url(#paint18_linear_5443_13699)"/>
<path d="M20.3533 17.6374C20.4873 16.904 21.203 16.4144 21.9558 16.5457C22.2598 16.6016 22.5292 16.4068 22.5803 16.1203C22.6328 15.8341 22.4382 15.5605 22.145 15.5099C20.8126 15.2727 19.5317 16.1494 19.2931 17.4525C19.2406 17.7387 19.4352 18.0123 19.7284 18.0629C19.7605 18.0685 19.792 18.0711 19.8238 18.0711C20.0798 18.0711 20.3066 17.8925 20.3533 17.6374Z" fill="url(#paint19_linear_5443_13699)"/>
<path d="M21.2242 22.4088C21.2242 23.2441 21.6832 24.0255 22.4236 24.4473C22.5079 24.4962 22.601 24.5194 22.6944 24.5194C22.8785 24.5194 23.06 24.4261 23.1598 24.2584C23.3098 24.0073 23.2228 23.6851 22.9652 23.5385C22.5563 23.3046 22.301 22.8716 22.301 22.4088C22.301 21.9446 22.5563 21.5116 22.9679 21.2778C23.2242 21.1319 23.3125 20.81 23.1625 20.5579C23.0126 20.3058 22.6825 20.2198 22.4259 20.3677C21.6846 20.7888 21.2242 21.5708 21.2242 22.4088Z" fill="url(#paint20_linear_5443_13699)"/>
<defs>
<linearGradient id="paint0_linear_5443_13699" x1="0" y1="0" x2="0" y2="1" gradientUnits="objectBoundingBox">
<stop stop-color="#ED3040"/>
<stop offset="1" stop-color="#2D23F4"/>
</linearGradient>
<linearGradient id="paint1_linear_5443_13699" x1="0" y1="0" x2="0" y2="1" gradientUnits="objectBoundingBox">
<stop stop-color="#ED3040"/>
<stop offset="1" stop-color="#2D23F4"/>
</linearGradient>
<linearGradient id="paint2_linear_5443_13699" x1="0" y1="0" x2="0" y2="1" gradientUnits="objectBoundingBox">
<stop stop-color="#ED3040"/>
<stop offset="1" stop-color="#2D23F4"/>
</linearGradient>
<linearGradient id="paint3_linear_5443_13699" x1="0" y1="0" x2="0" y2="1" gradientUnits="objectBoundingBox">
<stop stop-color="#ED3040"/>
<stop offset="1" stop-color="#2D23F4"/>
</linearGradient>
<linearGradient id="paint4_linear_5443_13699" x1="0" y1="0" x2="0" y2="1" gradientUnits="objectBoundingBox">
<stop stop-color="#ED3040"/>
<stop offset="1" stop-color="#2D23F4"/>
</linearGradient>
<linearGradient id="paint5_linear_5443_13699" x1="0" y1="0" x2="0" y2="1" gradientUnits="objectBoundingBox">
<stop stop-color="#ED3040"/>
<stop offset="1" stop-color="#2D23F4"/>
</linearGradient>
<linearGradient id="paint6_linear_5443_13699" x1="0" y1="0" x2="0" y2="1" gradientUnits="objectBoundingBox">
<stop stop-color="#ED3040"/>
<stop offset="1" stop-color="#2D23F4"/>
</linearGradient>
<linearGradient id="paint7_linear_5443_13699" x1="0" y1="0" x2="0" y2="1" gradientUnits="objectBoundingBox">
<stop stop-color="#ED3040"/>
<stop offset="1" stop-color="#2D23F4"/>
</linearGradient>
<linearGradient id="paint8_linear_5443_13699" x1="0" y1="0" x2="0" y2="1" gradientUnits="objectBoundingBox">
<stop stop-color="#ED3040"/>
<stop offset="1" stop-color="#2D23F4"/>
</linearGradient>
<linearGradient id="paint9_linear_5443_13699" x1="0" y1="0" x2="0" y2="1" gradientUnits="objectBoundingBox">
<stop stop-color="#ED3040"/>
<stop offset="1" stop-color="#2D23F4"/>
</linearGradient>
<linearGradient id="paint10_linear_5443_13699" x1="0" y1="0" x2="0" y2="1" gradientUnits="objectBoundingBox">
<stop stop-color="#ED3040"/>
<stop offset="1" stop-color="#2D23F4"/>
</linearGradient>
<linearGradient id="paint11_linear_5443_13699" x1="0" y1="0" x2="0" y2="1" gradientUnits="objectBoundingBox">
<stop stop-color="#ED3040"/>
<stop offset="1" stop-color="#2D23F4"/>
</linearGradient>
<linearGradient id="paint12_linear_5443_13699" x1="0" y1="0" x2="0" y2="1" gradientUnits="objectBoundingBox">
<stop stop-color="#ED3040"/>
<stop offset="1" stop-color="#2D23F4"/>
</linearGradient>
<linearGradient id="paint13_linear_5443_13699" x1="0" y1="0" x2="0" y2="1" gradientUnits="objectBoundingBox">
<stop stop-color="#ED3040"/>
<stop offset="1" stop-color="#2D23F4"/>
</linearGradient>
<linearGradient id="paint14_linear_5443_13699" x1="0" y1="0" x2="0" y2="1" gradientUnits="objectBoundingBox">
<stop stop-color="#ED3040"/>
<stop offset="1" stop-color="#2D23F4"/>
</linearGradient>
<linearGradient id="paint15_linear_5443_13699" x1="0" y1="0" x2="0" y2="1" gradientUnits="objectBoundingBox">
<stop stop-color="#ED3040"/>
<stop offset="1" stop-color="#2D23F4"/>
</linearGradient>
<linearGradient id="paint16_linear_5443_13699" x1="0" y1="0" x2="0" y2="1" gradientUnits="objectBoundingBox">
<stop stop-color="#ED3040"/>
<stop offset="1" stop-color="#2D23F4"/>
</linearGradient>
<linearGradient id="paint17_linear_5443_13699" x1="0" y1="0" x2="0" y2="1" gradientUnits="objectBoundingBox">
<stop stop-color="#ED3040"/>
<stop offset="1" stop-color="#2D23F4"/>
</linearGradient>
<linearGradient id="paint18_linear_5443_13699" x1="0" y1="0" x2="0" y2="1" gradientUnits="objectBoundingBox">
<stop stop-color="#ED3040"/>
<stop offset="1" stop-color="#2D23F4"/>
</linearGradient>
<linearGradient id="paint19_linear_5443_13699" x1="0" y1="0" x2="0" y2="1" gradientUnits="objectBoundingBox">
<stop stop-color="#ED3040"/>
<stop offset="1" stop-color="#2D23F4"/>
</linearGradient>
<linearGradient id="paint20_linear_5443_13699" x1="0" y1="0" x2="0" y2="1" gradientUnits="objectBoundingBox">
<stop stop-color="#ED3040"/>
<stop offset="1" stop-color="#2D23F4"/>
</linearGradient>
</defs>
</svg>
