<svg width="50" height="50" viewBox="0 0 50 50" fill="none" xmlns="http://www.w3.org/2000/svg">
<path d="M14.3676 37.5C12.9101 37.5 11.6582 36.513 11.3204 35.1001L10.171 28.6572H16.5971L17.4274 33.7215C17.6365 34.5904 17.4219 35.5597 16.8248 36.3133C16.2261 37.0673 15.3301 37.5 14.3676 37.5ZM12.4512 30.5621L13.1901 34.7128C13.3916 35.5371 14.737 35.8699 15.3246 35.1325C15.5579 34.8376 15.6418 34.4598 15.5559 34.0954L14.9738 30.5624L12.4512 30.5621Z" fill="url(#paint0_linear_5443_13657)"/>
<path d="M19.235 30.4345H10.5883C9.16648 30.4345 8.00954 29.281 8.00954 27.8625V18.5117C8.00954 17.0933 9.16648 15.9397 10.5883 15.9397H19.235V30.4345ZM10.5883 17.8449C10.2209 17.8449 9.92033 18.1445 9.92033 18.5117V27.8625C9.92033 28.2301 10.2209 28.5293 10.5883 28.5293H17.3245L17.3241 17.8447L10.5883 17.8449Z" fill="url(#paint1_linear_5443_13657)"/>
<path d="M9.92082 28.6083H7.17573C5.97601 28.6083 5 27.6352 5 26.4398V20.0853C5 18.8891 5.976 17.9159 7.17573 17.9159H9.92041L9.92082 28.6083ZM7.17573 19.8212C7.03003 19.8212 6.91085 19.9392 6.91085 20.0853V26.4398C6.91085 26.5851 7.03042 26.7031 7.17573 26.7031H8.00999V19.8212L7.17573 19.8212Z" fill="url(#paint2_linear_5443_13657)"/>
<path d="M30.2145 33.8445C30.0688 33.8445 29.9255 33.8121 29.7908 33.7458C29.0203 33.3652 28.3448 33.021 27.7362 32.7103C24.3236 30.9681 23.1386 30.3688 18.5559 30.432C18.3654 30.4355 18.0558 30.336 17.8729 30.1568C17.6919 29.9772 17.5894 29.7336 17.5894 29.4786L17.5929 16.8576C17.5929 16.6025 17.6955 16.3589 17.8764 16.1805C18.0594 16.0021 18.371 15.9144 18.5594 15.9053C23.1944 15.9397 24.3308 15.3704 27.7418 13.6318C28.35 13.3219 29.0255 12.978 29.7964 12.5982C30.095 12.4521 30.4458 12.4707 30.7237 12.6428C31.0056 12.8169 31.1751 13.1229 31.1751 13.4521L31.1696 32.892C31.1696 33.2212 30.9977 33.5264 30.7182 33.7005C30.5654 33.7952 30.3899 33.8438 30.2145 33.8438L30.2145 33.8445ZM19.5005 28.5272C23.8294 28.5757 25.3185 29.3357 28.6081 31.0147C28.8172 31.1217 29.0334 31.2322 29.2594 31.3479L29.265 14.9966C29.0393 15.111 28.8207 15.2216 28.6121 15.3286C25.3226 17.0048 23.8314 17.7648 19.5045 17.8113L19.5005 28.5272Z" fill="url(#paint3_linear_5443_13657)"/>
<path d="M33.9619 28.3203C33.7864 28.3203 33.611 28.2729 33.4523 28.1734C33.0064 27.8923 32.8718 27.3045 33.1537 26.86C33.8217 25.8043 34.1744 24.5603 34.1744 23.2627C34.1744 21.9642 33.8217 20.7214 33.1537 19.6674C32.8718 19.2229 33.0064 18.6338 33.4523 18.3531C33.889 18.072 34.4861 18.2035 34.7696 18.65C35.63 20.0092 36.085 21.6045 36.085 23.2631C36.085 24.9217 35.6296 26.5169 34.7696 27.8762C34.5886 28.1628 34.277 28.3203 33.9619 28.3203Z" fill="url(#paint4_linear_5443_13657)"/>
<path d="M37.9626 31.0763C37.8078 31.0763 37.651 31.0392 37.5053 30.9599C37.0424 30.7076 36.871 30.1292 37.1248 29.6669C38.1733 27.7506 38.7275 25.5359 38.7275 23.2623C38.7275 21.0298 38.1732 18.8364 37.1248 16.9182C36.871 16.4567 37.0428 15.8783 37.5053 15.6261C37.9682 15.373 38.5502 15.5444 38.8004 16.0066C40.0041 18.2028 40.6384 20.7117 40.6384 23.2624C40.6384 25.8542 40.0041 28.3844 38.8004 30.5805C38.6266 30.8971 38.3004 31.0763 37.9626 31.0763Z" fill="url(#paint5_linear_5443_13657)"/>
<path d="M41.6491 33.7717C41.4943 33.7717 41.3375 33.7346 41.1918 33.6564C40.729 33.4042 40.5575 32.8266 40.8094 32.3643C42.3227 29.5913 43.0896 26.529 43.0896 23.2622C43.0896 19.9954 42.3227 16.933 40.8094 14.1608C40.5575 13.6993 40.729 13.1209 41.1918 12.8695C41.6563 12.6184 42.2368 12.7878 42.4886 13.2509C44.1305 16.2619 45 19.7246 45 23.2622C45 26.8501 44.1547 30.2184 42.4886 33.2744C42.3151 33.5922 41.9869 33.7717 41.6491 33.7717Z" fill="url(#paint6_linear_5443_13657)"/>
<path d="M14.5115 21.4438H12.7761C12.2479 21.4438 11.8207 21.0178 11.8207 20.4912C11.8207 19.9645 12.2479 19.5386 12.7761 19.5386H14.5115C15.0397 19.5386 15.4669 19.9645 15.4669 20.4912C15.4669 21.0178 15.0393 21.4438 14.5115 21.4438Z" fill="url(#paint7_linear_5443_13657)"/>
<path d="M14.5115 24.3434H12.7761C12.2479 24.3434 11.8207 23.9174 11.8207 23.3907C11.8207 22.8641 12.2479 22.4381 12.7761 22.4381H14.5115C15.0397 22.4381 15.4669 22.8641 15.4669 23.3907C15.4669 23.9174 15.0393 24.3434 14.5115 24.3434Z" fill="url(#paint8_linear_5443_13657)"/>
<path d="M14.5115 27.0519H12.7761C12.2479 27.0519 11.8207 26.6259 11.8207 26.0993C11.8207 25.5726 12.2479 25.1467 12.7761 25.1467H14.5115C15.0397 25.1467 15.4669 25.5726 15.4669 26.0993C15.4669 26.6259 15.0393 27.0519 14.5115 27.0519Z" fill="url(#paint9_linear_5443_13657)"/>
<defs>
<linearGradient id="paint0_linear_5443_13657" x1="37.6624" y1="30.3998" x2="37.6624" y2="35.4066" gradientUnits="userSpaceOnUse">
<stop stop-color="#ED3040"/>
<stop offset="1" stop-color="#2D23F4"/>
</linearGradient>
<linearGradient id="paint1_linear_5443_13657" x1="37.6624" y1="30.3998" x2="37.6624" y2="35.4066" gradientUnits="userSpaceOnUse">
<stop stop-color="#ED3040"/>
<stop offset="1" stop-color="#2D23F4"/>
</linearGradient>
<linearGradient id="paint2_linear_5443_13657" x1="37.6624" y1="30.3998" x2="37.6624" y2="35.4066" gradientUnits="userSpaceOnUse">
<stop stop-color="#ED3040"/>
<stop offset="1" stop-color="#2D23F4"/>
</linearGradient>
<linearGradient id="paint3_linear_5443_13657" x1="37.6624" y1="30.3998" x2="37.6624" y2="35.4066" gradientUnits="userSpaceOnUse">
<stop stop-color="#ED3040"/>
<stop offset="1" stop-color="#2D23F4"/>
</linearGradient>
<linearGradient id="paint4_linear_5443_13657" x1="37.6624" y1="30.3998" x2="37.6624" y2="35.4066" gradientUnits="userSpaceOnUse">
<stop stop-color="#ED3040"/>
<stop offset="1" stop-color="#2D23F4"/>
</linearGradient>
<linearGradient id="paint5_linear_5443_13657" x1="37.6624" y1="30.3998" x2="37.6624" y2="35.4066" gradientUnits="userSpaceOnUse">
<stop stop-color="#ED3040"/>
<stop offset="1" stop-color="#2D23F4"/>
</linearGradient>
<linearGradient id="paint6_linear_5443_13657" x1="37.6624" y1="30.3998" x2="37.6624" y2="35.4066" gradientUnits="userSpaceOnUse">
<stop stop-color="#ED3040"/>
<stop offset="1" stop-color="#2D23F4"/>
</linearGradient>
<linearGradient id="paint7_linear_5443_13657" x1="37.6624" y1="30.3998" x2="37.6624" y2="35.4066" gradientUnits="userSpaceOnUse">
<stop stop-color="#ED3040"/>
<stop offset="1" stop-color="#2D23F4"/>
</linearGradient>
<linearGradient id="paint8_linear_5443_13657" x1="37.6624" y1="30.3998" x2="37.6624" y2="35.4066" gradientUnits="userSpaceOnUse">
<stop stop-color="#ED3040"/>
<stop offset="1" stop-color="#2D23F4"/>
</linearGradient>
<linearGradient id="paint9_linear_5443_13657" x1="37.6624" y1="30.3998" x2="37.6624" y2="35.4066" gradientUnits="userSpaceOnUse">
<stop stop-color="#ED3040"/>
<stop offset="1" stop-color="#2D23F4"/>
</linearGradient>
</defs>
</svg>
