<svg width="50" height="50" viewBox="0 0 50 50" fill="none" xmlns="http://www.w3.org/2000/svg">
<path d="M43.849 35.4158L41.095 33.2528C41.4681 32.3963 41.6794 31.4458 41.6794 30.4518C41.6794 27.0257 39.2174 24.1687 35.9784 23.5685V10.8333C35.9784 10.7581 35.9596 10.6896 35.9348 10.6209C35.9284 10.6145 35.9284 10.602 35.9284 10.5959C35.8973 10.5271 35.86 10.4647 35.8041 10.4084L30.6315 5.20667C30.6133 5.1814 30.5946 5.175 30.5761 5.15644C30.5389 5.12509 30.4953 5.09406 30.4457 5.06878C30.4209 5.05631 30.3961 5.04991 30.3709 5.04383C30.3273 5.03135 30.2777 5.01888 30.2281 5.01248C30.2093 5.01248 30.1969 5 30.1785 5H7.14487C5.96363 5 5 5.96906 5 7.16303V42.837C5 44.0309 5.96363 45 7.14487 45H33.8344C35.0157 45 35.9793 44.0309 35.9793 42.837V37.3291C36.5077 37.2289 37.0173 37.0728 37.4961 36.8601L39.647 39.6233C40.1755 40.3047 40.9651 40.7235 41.8231 40.7798C41.8851 40.7862 41.9475 40.7862 42.0095 40.7862C42.7991 40.7862 43.5636 40.4736 44.1232 39.9048C44.7324 39.2921 45.0496 38.4482 44.9937 37.5917C44.9437 36.7413 44.5212 35.9476 43.8497 35.4162L43.849 35.4158ZM40.4361 30.4453C40.4361 33.6212 37.8685 36.2034 34.7166 36.2034C31.5585 36.2034 28.9908 33.6213 28.9908 30.4453C28.9908 27.2755 31.5584 24.6936 34.7166 24.6936C37.8684 24.6936 40.4361 27.2754 40.4361 30.4453ZM30.7998 7.13772L33.8587 10.2139H31.9687C31.3222 10.2139 30.7998 9.68247 30.7998 9.03236V7.13772ZM34.7351 42.8428C34.7351 43.3492 34.3311 43.7556 33.8335 43.7556H7.14482C6.64757 43.7556 6.24325 43.3429 6.24325 42.8428V7.16885C6.24325 6.67488 6.65969 6.25605 7.14482 6.25605H29.557V9.04456C29.557 10.3825 30.6386 11.4766 31.9691 11.4766H34.7356V23.4425H34.7168C30.8747 23.4425 27.7478 26.5871 27.7478 30.4448C27.7478 34.3085 30.8748 37.4531 34.7168 37.4531H34.7356L34.7351 42.8428ZM43.2402 39.0293C42.8857 39.3857 42.3822 39.5796 41.8973 39.5418C41.3937 39.5105 40.9401 39.2731 40.6289 38.8664L38.6024 36.2597C39.3484 35.7532 39.9888 35.1092 40.4861 34.359L43.0786 36.3973C43.4826 36.7098 43.719 37.1664 43.7502 37.6728C43.781 38.1789 43.5946 38.6729 43.2402 39.0293Z" fill="url(#paint0_linear_5443_13725)"/>
<path d="M32.7948 30.1954C32.5524 29.9516 32.1608 29.9516 31.9183 30.1954C31.6759 30.4391 31.6759 30.833 31.9183 31.0768L33.7835 32.9525C33.9079 33.0776 34.0632 33.1339 34.2248 33.1339C34.3864 33.1339 34.542 33.0715 34.666 32.9525L37.6437 29.958C37.8862 29.7142 37.8862 29.3204 37.6437 29.0766C37.4013 28.8328 37.0097 28.8328 36.7673 29.0766L34.2307 31.6274L32.7948 30.1954Z" fill="url(#paint1_linear_5443_13725)"/>
<path d="M22.4068 16.8847C22.4068 14.4715 20.4547 12.5084 18.055 12.5084C15.6553 12.5084 13.7032 14.4715 13.7032 16.8847C13.7032 19.2979 15.6553 21.261 18.055 21.261C20.4547 21.261 22.4068 19.2979 22.4068 16.8847ZM18.055 20.0107C16.339 20.0107 14.9465 18.604 14.9465 16.8847C14.9465 15.159 16.3454 13.7587 18.055 13.7587C19.771 13.7587 21.1635 15.159 21.1635 16.8847C21.1632 18.61 19.7707 20.0107 18.055 20.0107Z" fill="url(#paint2_linear_5443_13725)"/>
<path d="M26.7583 36.9097H23.6498V35.4716C23.6498 34.8714 23.165 34.3899 22.5742 34.3899H18.6761V32.5142H21.7846C22.1266 32.5142 22.4062 32.2329 22.4062 31.889V28.1378C22.4062 27.7939 22.1266 27.5127 21.7846 27.5127H18.6825V26.2122C19.0493 26.1872 19.4097 26.1498 19.7581 26.0871C19.8825 26.0621 19.9944 26.0058 20.0813 25.9121C20.1745 25.8184 20.2429 25.6869 20.2617 25.5496L20.4421 24.3617C20.8461 24.2305 21.2441 24.0616 21.6293 23.8617L22.593 24.5745C22.5993 24.5809 22.6117 24.5869 22.6178 24.5933C22.829 24.7434 23.109 24.7498 23.3326 24.5997C24.0226 24.1246 24.6382 23.5558 25.1727 22.9179C25.3592 22.699 25.5395 22.4553 25.726 22.1801C25.8564 21.9926 25.8628 21.73 25.7571 21.53C25.7447 21.4987 25.726 21.4737 25.7075 21.4488L24.9927 20.4797C25.0611 20.3421 25.1295 20.2046 25.2039 20.0609C25.3159 19.7983 25.4091 19.5484 25.4899 19.2918L26.6523 19.1104C26.9259 19.0855 27.156 18.8727 27.2056 18.5979C27.3052 18.0102 27.3548 17.4538 27.3548 16.8975C27.3548 16.3411 27.3052 15.7659 27.1992 15.1906C27.1496 14.9219 26.932 14.7155 26.6644 14.6781L25.4832 14.4967C25.3528 14.0779 25.1848 13.6777 24.992 13.3027L25.7008 12.3337C25.738 12.2838 25.7692 12.2211 25.788 12.1587C25.8128 12.0899 25.8252 12.015 25.8252 11.9398C25.8252 11.8147 25.788 11.6897 25.7196 11.5898C25.0855 10.6582 24.2835 9.84558 23.3323 9.18266C23.1459 9.05149 22.8847 9.03902 22.6735 9.15131C22.6423 9.16379 22.6175 9.18266 22.5863 9.20122L21.629 9.90762C21.2434 9.70767 20.8458 9.54514 20.4418 9.40757L20.2614 8.22606C20.2241 7.9634 20.0126 7.74456 19.7578 7.69465C18.6449 7.48222 17.4761 7.48222 16.3572 7.69465C16.096 7.74456 15.8908 7.96339 15.8536 8.22606L15.6732 9.41396C15.2752 9.54513 14.8776 9.71406 14.492 9.91401L13.5284 9.20761C13.5159 9.20121 13.5035 9.18873 13.4972 9.18265C13.2859 9.03901 13.006 9.03261 12.7947 9.18265C11.8623 9.83275 11.0539 10.6393 10.4011 11.5959C10.2643 11.7898 10.2582 12.0396 10.3638 12.2399C10.3826 12.2713 10.4011 12.3023 10.4198 12.3336L11.1286 13.3027C10.9358 13.678 10.7682 14.0779 10.6374 14.4967L9.46254 14.6781C9.32574 14.6969 9.18894 14.7657 9.09573 14.8595C9.00857 14.9471 8.94653 15.0594 8.92172 15.1845C8.82214 15.7223 8.76614 16.2972 8.76614 16.8913C8.76614 17.4727 8.81577 18.0418 8.90899 18.5918C8.95257 18.842 9.139 19.0355 9.37537 19.0918C9.40019 19.0982 9.425 19.1043 9.45014 19.1107L10.6314 19.2982C10.7061 19.542 10.8054 19.7982 10.9234 20.0734C10.9794 20.2046 11.0478 20.3485 11.1286 20.4922L10.4446 21.4238C10.4074 21.4612 10.3762 21.5051 10.3514 21.555C10.2458 21.7613 10.2582 22.0115 10.3886 22.199C10.6062 22.518 10.799 22.7678 10.9855 22.9867C11.5139 23.5993 12.1171 24.1432 12.7822 24.6059C12.9935 24.7559 13.2983 24.7434 13.5159 24.587L14.4795 23.8742C14.8711 24.0741 15.2691 24.2431 15.6668 24.3742L15.8471 25.5621C15.8659 25.6997 15.9343 25.8309 16.0275 25.9246C16.1147 26.0184 16.2327 26.0747 16.3571 26.0996C16.7176 26.162 17.072 26.1998 17.4327 26.2247V27.5252H14.3182C13.9762 27.5252 13.6966 27.8064 13.6966 28.1504V31.9015C13.6966 32.2455 13.9762 32.5267 14.3182 32.5267H17.4267V34.4024H13.5286C12.9318 34.4024 12.453 34.89 12.453 35.4841V36.9222H9.3445C9.00251 36.9222 8.72286 37.2034 8.72286 37.5473V41.2985C8.72286 41.6424 9.00251 41.9237 9.3445 41.9237H16.8048C17.1468 41.9237 17.4264 41.6424 17.4264 41.2985V37.5473C17.4264 37.2034 17.1468 36.9222 16.8048 36.9222H13.6963V35.653H22.4066V36.9222H19.2981C18.9561 36.9222 18.6764 37.2034 18.6764 37.5473V41.2985C18.6764 41.6424 18.9561 41.9237 19.2981 41.9237H26.7584C27.1004 41.9237 27.38 41.6424 27.38 41.2985V37.5473C27.3803 37.1909 27.1007 36.9097 26.7587 36.9097L26.7583 36.9097ZM16.8362 23.7808C16.7989 23.537 16.6185 23.3307 16.3822 23.2683C15.8226 23.1182 15.2693 22.8869 14.7409 22.5804C14.5297 22.4554 14.2622 22.4742 14.0633 22.6179L13.1369 23.2993C12.6957 22.9618 12.2913 22.574 11.9308 22.1552C11.85 22.0551 11.7629 21.9553 11.676 21.8363L12.366 20.8986C12.5152 20.6986 12.5277 20.4296 12.4033 20.2107C12.2541 19.9545 12.1484 19.7481 12.0676 19.5542C11.906 19.1918 11.8064 18.8853 11.738 18.5916C11.682 18.3414 11.4769 18.1478 11.2284 18.1101L10.072 17.9287C10.0284 17.5912 10.01 17.2472 10.01 16.8848C10.01 16.5223 10.0287 16.1784 10.072 15.8408L11.216 15.6658C11.4648 15.6284 11.6636 15.447 11.7257 15.2032C11.8749 14.6094 12.0988 14.0652 12.3909 13.5776C12.5213 13.3588 12.5089 13.0901 12.3597 12.8837L11.6757 11.946C12.1046 11.3833 12.5958 10.8893 13.143 10.4644L14.0754 11.1459C14.2743 11.2895 14.5354 11.3084 14.747 11.1833C15.2818 10.8768 15.835 10.6455 16.3882 10.4955C16.6246 10.4331 16.8047 10.2328 16.8422 9.98901L17.0162 8.85098C17.7002 8.75725 18.4026 8.75725 19.0987 8.85098L19.2727 9.98901C19.31 10.2328 19.4903 10.4328 19.7267 10.5015C20.2924 10.6516 20.8459 10.8829 21.3679 11.1894C21.5792 11.3145 21.8467 11.2956 22.0456 11.1519L22.978 10.4705C23.5376 10.9018 24.0288 11.3957 24.4453 11.946L23.7556 12.8837C23.6064 13.0901 23.5939 13.3588 23.7244 13.5777C24.0164 14.0592 24.2404 14.6091 24.396 15.2093C24.458 15.4531 24.6572 15.6281 24.9056 15.6658L26.0433 15.8408C26.0869 16.1972 26.1117 16.5472 26.1117 16.8848C26.1117 17.2287 26.0869 17.5726 26.0433 17.9351L24.8993 18.1165C24.6568 18.1539 24.458 18.3353 24.3957 18.5791C24.3085 18.9041 24.2029 19.2292 24.0661 19.5418C23.9541 19.767 23.8421 19.9983 23.7117 20.2171C23.5873 20.436 23.5997 20.7047 23.7489 20.905L24.4389 21.8427C24.3642 21.9428 24.2897 22.0301 24.215 22.1178C23.8481 22.5615 23.4317 22.9618 22.9778 23.3182L22.0453 22.6303C21.8465 22.4867 21.5789 22.4678 21.3677 22.5929C20.8393 22.8994 20.2861 23.1307 19.7265 23.2807C19.484 23.3431 19.31 23.5434 19.2725 23.7932L19.0985 24.9373C18.4581 25.0186 17.7432 25.025 17.016 24.9373L16.8362 23.7808ZM14.9464 28.7637H21.1634V31.2646H14.9464V28.7637ZM16.1897 40.6616H9.97275V38.1607H16.1897V40.6616ZM26.1371 40.6616H19.9201V38.1607H26.1371V40.6616Z" fill="url(#paint3_linear_5443_13725)"/>
<defs>
<linearGradient id="paint0_linear_5443_13725" x1="37.6624" y1="33.6397" x2="37.6624" y2="41.6506" gradientUnits="userSpaceOnUse">
<stop stop-color="#ED3040"/>
<stop offset="1" stop-color="#2D23F4"/>
</linearGradient>
<linearGradient id="paint1_linear_5443_13725" x1="37.6624" y1="33.6397" x2="37.6624" y2="41.6506" gradientUnits="userSpaceOnUse">
<stop stop-color="#ED3040"/>
<stop offset="1" stop-color="#2D23F4"/>
</linearGradient>
<linearGradient id="paint2_linear_5443_13725" x1="37.6624" y1="33.6397" x2="37.6624" y2="41.6506" gradientUnits="userSpaceOnUse">
<stop stop-color="#ED3040"/>
<stop offset="1" stop-color="#2D23F4"/>
</linearGradient>
<linearGradient id="paint3_linear_5443_13725" x1="37.6624" y1="33.6397" x2="37.6624" y2="41.6506" gradientUnits="userSpaceOnUse">
<stop stop-color="#ED3040"/>
<stop offset="1" stop-color="#2D23F4"/>
</linearGradient>
</defs>
</svg>
