<svg width="50" height="50" viewBox="0 0 50 50" fill="none" xmlns="http://www.w3.org/2000/svg">
<path d="M23.4006 39.8531H8.47833C8.033 39.8531 7.67194 39.5001 7.67194 39.065V7.40383C7.67194 7.19478 7.75688 6.99407 7.90805 6.84626C8.05923 6.69844 8.26452 6.6154 8.47833 6.6154H32.9298C33.3752 6.6154 33.7362 6.96842 33.7362 7.40383V20.2619C33.7362 20.7079 34.1061 21.0695 34.5623 21.0695C35.0184 21.0695 35.3883 20.7079 35.3883 20.2619V7.40383C35.3867 6.76674 35.127 6.15661 34.6666 5.70607C34.2058 5.25558 33.5814 5.00165 32.9298 5.00004H8.47828C7.8234 4.99651 7.19375 5.2482 6.72908 5.69901C6.26407 6.15013 6.00173 6.76352 6.00009 7.40383V39.065C5.99451 39.7092 6.25391 40.3283 6.7199 40.7839C7.18589 41.2395 7.81915 41.4931 8.47825 41.488H23.4005C23.8566 41.488 24.2266 41.1263 24.2266 40.6803C24.2266 40.234 23.8566 39.8727 23.4005 39.8727L23.4006 39.8531Z" fill="url(#paint0_linear_5443_13701)"/>
<path d="M19.7991 13.7365H25.6609C26.117 13.7365 26.4869 13.3749 26.4869 12.9289C26.4869 12.4829 26.117 12.1212 25.6609 12.1212H19.7991C19.3426 12.1212 18.973 12.4829 18.973 12.9289C18.973 13.3749 19.3426 13.7365 19.7991 13.7365Z" fill="url(#paint1_linear_5443_13701)"/>
<path d="M30.5775 16.5215C30.5775 16.3074 30.4906 16.1018 30.3355 15.9505C30.1807 15.7988 29.9705 15.7139 29.7515 15.7139H19.5607C19.1045 15.7139 18.7346 16.0755 18.7346 16.5215C18.7346 16.9675 19.1045 17.3292 19.5607 17.3292H29.7515C29.9705 17.3292 30.1807 17.2439 30.3355 17.0926C30.4906 16.9412 30.5775 16.7357 30.5775 16.5215Z" fill="url(#paint2_linear_5443_13701)"/>
<path d="M19.5607 21.1928C19.1045 21.1928 18.7346 21.5545 18.7346 22.0005C18.7346 22.4464 19.1045 22.8081 19.5607 22.8081H25.3963C25.8524 22.8081 26.2223 22.4464 26.2223 22.0005C26.2223 21.5545 25.8524 21.1928 25.3963 21.1928H19.5607Z" fill="url(#paint3_linear_5443_13701)"/>
<path d="M24.3383 24.9143H19.5603C19.1042 24.9143 18.7343 25.276 18.7343 25.722C18.7343 26.168 19.1042 26.5297 19.5603 26.5297H24.3383C24.7948 26.5297 25.1644 26.168 25.1644 25.722C25.1644 25.276 24.7948 24.9143 24.3383 24.9143Z" fill="url(#paint4_linear_5443_13701)"/>
<path d="M23.3015 30.3941H19.5611C19.1049 30.3941 18.735 30.7558 18.735 31.2018C18.735 31.6477 19.1049 32.0094 19.5611 32.0094H23.3015C23.758 32.0094 24.1279 31.6477 24.1279 31.2018C24.1279 30.7558 23.758 30.3941 23.3015 30.3941Z" fill="url(#paint5_linear_5443_13701)"/>
<path d="M19.5607 34.1157C19.1045 34.1157 18.7346 34.4773 18.7346 34.9233C18.7346 35.3693 19.1045 35.731 19.5607 35.731H23.3011C23.7576 35.731 24.1275 35.3693 24.1275 34.9233C24.1275 34.4773 23.7576 34.1157 23.3011 34.1157H19.5607Z" fill="url(#paint6_linear_5443_13701)"/>
<path d="M15.0869 31.1435L12.4963 33.5857L11.3397 32.4549L11.34 32.4552C11.017 32.1394 10.4933 32.1394 10.1703 32.4552C9.84725 32.771 9.84725 33.2831 10.1703 33.5989L11.3269 34.7298L11.3265 34.7295C11.645 35.0401 12.0765 35.2146 12.5261 35.2146C12.9757 35.2146 13.4072 35.0401 13.7257 34.7295L16.2239 32.2805L16.2236 32.2808C16.4561 31.9621 16.4216 31.5267 16.1419 31.2471C15.8625 30.9672 15.4178 30.9235 15.0869 31.1435Z" fill="url(#paint7_linear_5443_13701)"/>
<path d="M16.2303 21.9422C16.0756 21.7902 15.865 21.7049 15.6456 21.7049C15.4263 21.7049 15.2157 21.7902 15.0606 21.9422L12.503 24.3912L11.3465 23.2603H11.3468C11.0208 22.9737 10.5227 22.9859 10.2118 23.2882C9.90122 23.5903 9.88581 24.0773 10.177 24.3976L11.3336 25.5285L11.3333 25.5281C11.6517 25.8388 12.0833 26.0133 12.5328 26.0133C12.9828 26.0133 13.414 25.8388 13.7324 25.5281L16.2303 23.0536C16.5326 22.7419 16.5326 22.2536 16.2303 21.9423L16.2303 21.9422Z" fill="url(#paint8_linear_5443_13701)"/>
<path d="M16.4083 12.8057C16.2532 12.6537 16.0427 12.5685 15.8233 12.5685C15.6039 12.5685 15.3934 12.6538 15.2386 12.8057L12.681 15.2547L11.5244 14.1239C11.3736 13.9581 11.1594 13.86 10.9325 13.8533C10.7056 13.8465 10.4855 13.9312 10.3245 14.088C10.1635 14.2444 10.0756 14.4589 10.0812 14.6808C10.0868 14.9027 10.1858 15.1127 10.3547 15.2611L11.5113 16.392C11.8297 16.7023 12.2609 16.8768 12.7105 16.8768C13.1604 16.8768 13.5917 16.7023 13.9101 16.392L16.4083 13.9494C16.5634 13.7981 16.651 13.5922 16.651 13.3777C16.651 13.1632 16.5634 12.9574 16.4083 12.8057Z" fill="url(#paint9_linear_5443_13701)"/>
<path d="M42.9955 26.698C42.3393 25.8223 41.4126 25.1769 40.3521 24.8562L37.484 23.971L37.4837 23.9713C35.6558 23.4073 33.6944 23.4073 31.8665 23.9713L28.9919 24.8566V24.8562C27.9396 25.1817 27.021 25.8261 26.3684 26.6963C25.7162 27.5666 25.3643 28.6172 25.3636 29.6962V35.3303C25.3639 38.5565 27.1115 41.5409 29.9566 43.1745C30.3597 43.4069 32.2498 44.2405 33.3403 44.7254C34.1817 45.0915 35.1423 45.0915 35.9837 44.7254C37.1535 44.2342 38.6999 43.5625 39.4135 43.1553C42.2413 41.5149 43.982 38.5449 44 35.3303V29.6962C44.001 28.6175 43.6488 27.5669 42.9955 26.698ZM42.3479 35.3305C42.34 37.9833 40.9069 40.4371 38.5744 41.7921C38.0789 42.0765 36.9288 42.5998 35.3295 43.2718C34.9189 43.4485 34.4513 43.4485 34.0407 43.2718C32.3424 42.5222 31.047 41.9341 30.8158 41.8049C28.474 40.4586 27.038 37.9994 27.0423 35.3436V29.6963C27.042 28.9605 27.2817 28.2439 27.726 27.6504C28.1704 27.0566 28.7967 26.6166 29.5139 26.3944L32.3886 25.5092C33.8935 25.042 35.5095 25.042 37.0147 25.5092L39.8828 26.3944C40.6 26.6166 41.226 27.0565 41.6707 27.6504C42.115 28.2438 42.3544 28.9605 42.3544 29.6963L42.3479 35.3305Z" fill="url(#paint10_linear_5443_13701)"/>
<path d="M38.3556 31.1115L33.4188 35.9447C33.3844 35.9822 33.3414 36.011 33.2932 36.0287C33.1726 36.0848 33.0289 36.0646 32.9296 35.977L31.0331 34.0385C30.7101 33.7227 30.1864 33.7227 29.8633 34.0385C29.5403 34.3544 29.5403 34.8664 29.8633 35.1823L31.7863 37.0624C32.1562 37.4244 32.6573 37.629 33.1807 37.6312C33.3686 37.6302 33.5555 37.6043 33.7359 37.5536C34.0556 37.4619 34.3465 37.2929 34.5819 37.0624L39.5383 32.2488C39.8613 31.9329 39.8613 31.4209 39.5383 31.105C39.2153 30.7892 38.6916 30.7892 38.3685 31.105L38.3556 31.1115Z" fill="url(#paint11_linear_5443_13701)"/>
<defs>
<linearGradient id="paint0_linear_5443_13701" x1="37.0293" y1="33.6397" x2="37.0293" y2="41.6506" gradientUnits="userSpaceOnUse">
<stop stop-color="#ED3040"/>
<stop offset="1" stop-color="#2D23F4"/>
</linearGradient>
<linearGradient id="paint1_linear_5443_13701" x1="37.0293" y1="33.6397" x2="37.0293" y2="41.6506" gradientUnits="userSpaceOnUse">
<stop stop-color="#ED3040"/>
<stop offset="1" stop-color="#2D23F4"/>
</linearGradient>
<linearGradient id="paint2_linear_5443_13701" x1="37.0293" y1="33.6397" x2="37.0293" y2="41.6506" gradientUnits="userSpaceOnUse">
<stop stop-color="#ED3040"/>
<stop offset="1" stop-color="#2D23F4"/>
</linearGradient>
<linearGradient id="paint3_linear_5443_13701" x1="37.0293" y1="33.6397" x2="37.0293" y2="41.6506" gradientUnits="userSpaceOnUse">
<stop stop-color="#ED3040"/>
<stop offset="1" stop-color="#2D23F4"/>
</linearGradient>
<linearGradient id="paint4_linear_5443_13701" x1="37.0293" y1="33.6397" x2="37.0293" y2="41.6506" gradientUnits="userSpaceOnUse">
<stop stop-color="#ED3040"/>
<stop offset="1" stop-color="#2D23F4"/>
</linearGradient>
<linearGradient id="paint5_linear_5443_13701" x1="37.0293" y1="33.6397" x2="37.0293" y2="41.6506" gradientUnits="userSpaceOnUse">
<stop stop-color="#ED3040"/>
<stop offset="1" stop-color="#2D23F4"/>
</linearGradient>
<linearGradient id="paint6_linear_5443_13701" x1="37.0293" y1="33.6397" x2="37.0293" y2="41.6506" gradientUnits="userSpaceOnUse">
<stop stop-color="#ED3040"/>
<stop offset="1" stop-color="#2D23F4"/>
</linearGradient>
<linearGradient id="paint7_linear_5443_13701" x1="37.0293" y1="33.6397" x2="37.0293" y2="41.6506" gradientUnits="userSpaceOnUse">
<stop stop-color="#ED3040"/>
<stop offset="1" stop-color="#2D23F4"/>
</linearGradient>
<linearGradient id="paint8_linear_5443_13701" x1="37.0293" y1="33.6397" x2="37.0293" y2="41.6506" gradientUnits="userSpaceOnUse">
<stop stop-color="#ED3040"/>
<stop offset="1" stop-color="#2D23F4"/>
</linearGradient>
<linearGradient id="paint9_linear_5443_13701" x1="37.0293" y1="33.6397" x2="37.0293" y2="41.6506" gradientUnits="userSpaceOnUse">
<stop stop-color="#ED3040"/>
<stop offset="1" stop-color="#2D23F4"/>
</linearGradient>
<linearGradient id="paint10_linear_5443_13701" x1="37.0293" y1="33.6397" x2="37.0293" y2="41.6506" gradientUnits="userSpaceOnUse">
<stop stop-color="#ED3040"/>
<stop offset="1" stop-color="#2D23F4"/>
</linearGradient>
<linearGradient id="paint11_linear_5443_13701" x1="37.0293" y1="33.6397" x2="37.0293" y2="41.6506" gradientUnits="userSpaceOnUse">
<stop stop-color="#ED3040"/>
<stop offset="1" stop-color="#2D23F4"/>
</linearGradient>
</defs>
</svg>
