<svg width="50" height="50" viewBox="0 0 50 50" fill="none" xmlns="http://www.w3.org/2000/svg">
<path d="M43.0611 6H6.93936C6.42513 6 5.93193 6.20647 5.56815 6.57333C5.20439 6.94052 5.00018 7.4384 5.00018 7.9575V33.5543C4.99306 34.078 5.19436 34.5827 5.55876 34.9555C5.92316 35.3282 6.42054 35.5383 6.93934 35.5379H17.374V39.0491H13.9912C13.1152 39.0491 12.3057 39.5211 11.8675 40.2869C11.4297 41.0526 11.4297 41.9964 11.8675 42.7622C12.3057 43.5283 13.1152 44 13.9912 44H36.0089C36.8849 44 37.6943 43.5283 38.1325 42.7622C38.5707 41.9965 38.5707 41.0527 38.1325 40.2869C37.6943 39.5211 36.8849 39.0491 36.0089 39.0491H32.6697V35.5379H43.1044C43.6154 35.5265 44.1014 35.3115 44.4564 34.9401C44.8118 34.5687 45.0069 34.0705 44.9998 33.5543V7.95753C44.9998 7.43844 44.7956 6.94059 44.4318 6.57336C44.0684 6.2065 43.5749 6.00003 43.0606 6.00003L43.0611 6ZM43.0611 7.67688C43.2115 7.68145 43.3306 7.80592 43.3306 7.9575V28.6293H6.6696V7.9575C6.6696 7.80592 6.78902 7.68145 6.93918 7.67688H43.0611ZM36.009 40.7344C36.4459 40.7344 36.8003 41.0921 36.8003 41.5334C36.8003 41.9745 36.4459 42.3322 36.009 42.3322H13.9914C13.5545 42.3322 13.2001 41.9745 13.2001 41.5334C13.2001 41.0921 13.5545 40.7344 13.9914 40.7344H36.009ZM31.0003 39.049H18.9998V35.5379H30.9738L31.0003 39.049ZM43.0613 33.8261L6.93961 33.8264C6.86647 33.8264 6.79657 33.7963 6.74576 33.7434C6.69495 33.6905 6.66777 33.6193 6.67004 33.5455V30.3152H43.3311V33.5542C43.3337 33.6277 43.3062 33.6993 43.2553 33.7522C43.2045 33.8051 43.1346 33.8352 43.0615 33.8352L43.0613 33.8261Z" fill="url(#paint0_linear_5443_13655)"/>
<path d="M20.6954 22.2653C20.2323 22.2888 19.8689 22.675 19.8692 23.1431V25.4955C19.7873 25.7621 19.8359 26.0519 19.9996 26.2766C20.1634 26.5011 20.4236 26.6337 20.6996 26.6337C20.976 26.6337 21.2362 26.5011 21.4 26.2766C21.5637 26.0519 21.6123 25.7621 21.5304 25.4955V23.1081C21.5126 22.6505 21.1488 22.2833 20.6954 22.2653Z" fill="url(#paint1_linear_5443_13655)"/>
<path d="M27.4351 18.7453C26.9549 18.7453 26.5655 19.1383 26.5655 19.6231V25.4955C26.674 25.8702 27.0138 26.1277 27.4005 26.1277C27.7869 26.1277 28.127 25.8702 28.2351 25.4955V19.5881C28.2189 19.1429 27.8749 18.7809 27.4351 18.7453Z" fill="url(#paint2_linear_5443_13655)"/>
<path d="M24.0698 19.9128C23.5896 19.9128 23.2003 20.3058 23.2003 20.7906V25.4955C23.1181 25.762 23.1666 26.0518 23.3304 26.2766C23.4944 26.501 23.7543 26.6336 24.0307 26.6336C24.307 26.6336 24.5669 26.501 24.7307 26.2766C24.8948 26.0518 24.943 25.762 24.8611 25.4955V20.7556C24.8452 20.3136 24.5061 19.9523 24.0698 19.9128Z" fill="url(#paint3_linear_5443_13655)"/>
<path d="M29.9653 17.5603V25.4604C30.0737 25.8348 30.4138 26.0922 30.8002 26.0922C31.1866 26.0922 31.5268 25.8348 31.6348 25.4604V17.5603C31.7115 17.295 31.6601 17.0088 31.4957 16.7877C31.3316 16.5668 31.074 16.4368 30.8002 16.4368C30.5264 16.4368 30.2688 16.5668 30.1044 16.7877C29.9403 17.0088 29.8886 17.295 29.9653 17.5603Z" fill="url(#paint4_linear_5443_13655)"/>
<path d="M19.2 19.5615H19.3046C22.7858 18.9078 25.9217 17.0216 28.1486 14.2422L27.9052 15.6907H27.9049C27.8447 16.1441 28.1402 16.5681 28.5832 16.6648H28.7224C29.123 16.6537 29.4644 16.3672 29.5486 15.9716L30.2182 11.8371C30.2677 11.5813 30.1932 11.3173 30.0182 11.1259C29.8415 10.9482 29.5974 10.8554 29.3486 10.8714L25.0007 11.2487V11.249C24.7318 11.1942 24.4528 11.2706 24.2483 11.4552C24.0441 11.6401 23.9379 11.9112 23.9622 12.1873C23.9865 12.463 24.1386 12.7109 24.3719 12.8563C24.6056 13.0017 24.8933 13.0275 25.1483 12.9256L27.1483 12.7501V12.7498C25.1558 15.3956 22.2788 17.2204 19.0528 17.8849C18.8328 17.9189 18.6357 18.0424 18.5079 18.2263C18.3797 18.4102 18.3315 18.6389 18.3745 18.8594C18.4551 19.2586 18.7972 19.5493 19.2004 19.5614L19.2 19.5615Z" fill="url(#paint5_linear_5443_13655)"/>
<path d="M40.9045 31.2974H39.7217C39.458 31.2148 39.1706 31.2634 38.9482 31.4291C38.7256 31.5944 38.5942 31.8567 38.5942 32.1357C38.5942 32.4147 38.7256 32.677 38.9482 32.8426C39.1706 33.0079 39.458 33.0569 39.7217 32.9739H40.9045C41.1683 33.0569 41.4553 33.0079 41.678 32.8426C41.9006 32.677 42.032 32.4147 42.032 32.1357C42.032 31.8567 41.9006 31.5944 41.678 31.4291C41.4553 31.2634 41.1683 31.2148 40.9045 31.2974Z" fill="url(#paint6_linear_5443_13655)"/>
<defs>
<linearGradient id="paint0_linear_5443_13655" x1="0" y1="0" x2="0" y2="1" gradientUnits="objectBoundingBox">
<stop stop-color="#ED3040"/>
<stop offset="1" stop-color="#2D23F4"/>
</linearGradient>
<linearGradient id="paint1_linear_5443_13655" x1="0" y1="0" x2="0" y2="1" gradientUnits="objectBoundingBox">
<stop stop-color="#ED3040"/>
<stop offset="1" stop-color="#2D23F4"/>
</linearGradient>
<linearGradient id="paint2_linear_5443_13655" x1="0" y1="0" x2="0" y2="1" gradientUnits="objectBoundingBox">
<stop stop-color="#ED3040"/>
<stop offset="1" stop-color="#2D23F4"/>
</linearGradient>
<linearGradient id="paint3_linear_5443_13655" x1="0" y1="0" x2="0" y2="1" gradientUnits="objectBoundingBox">
<stop stop-color="#ED3040"/>
<stop offset="1" stop-color="#2D23F4"/>
</linearGradient>
<linearGradient id="paint4_linear_5443_13655" x1="0" y1="0" x2="0" y2="1" gradientUnits="objectBoundingBox">
<stop stop-color="#ED3040"/>
<stop offset="1" stop-color="#2D23F4"/>
</linearGradient>
<linearGradient id="paint5_linear_5443_13655" x1="0" y1="0" x2="0" y2="1" gradientUnits="objectBoundingBox">
<stop stop-color="#ED3040"/>
<stop offset="1" stop-color="#2D23F4"/>
</linearGradient>
<linearGradient id="paint6_linear_5443_13655" x1="0" y1="0" x2="0" y2="1" gradientUnits="objectBoundingBox">
<stop stop-color="#ED3040"/>
<stop offset="1" stop-color="#2D23F4"/>
</linearGradient>
</defs>
</svg>
