<svg width="50" height="50" viewBox="0 0 50 50" fill="none" xmlns="http://www.w3.org/2000/svg">
<path fill-rule="evenodd" clip-rule="evenodd" d="M25.6054 13.061C24.9782 9.62043 21.9453 7 18.3017 7C14.6967 7 11.6862 9.56159 11.0138 12.946C11.0066 12.9764 11.0028 13.0072 10.9997 13.0383C10.9195 13.4727 10.8712 13.9183 10.8712 14.3753C10.8712 18.443 14.2042 21.7519 18.3024 21.7519C22.3979 21.7519 25.7308 18.4434 25.7308 14.3753C25.7308 14.0004 25.6936 13.6352 25.6388 13.2751C25.6388 13.2689 25.6406 13.2635 25.6402 13.257C25.6388 13.1889 25.6247 13.1239 25.6054 13.061ZM18.302 8.49083C20.9151 8.49083 23.1351 10.1816 23.9211 12.5172C21.9253 12.4337 20.4624 11.9645 19.1508 11.5432C17.2394 10.9293 15.5351 10.3865 13.1777 11.4272C14.2066 9.67513 16.1155 8.49083 18.302 8.49083ZM18.302 20.2613C15.0322 20.2613 12.3716 17.6218 12.3716 14.3762C12.3716 14.0933 12.3988 13.8177 12.4378 13.5454C15.0518 11.8039 16.442 12.2411 18.6892 12.9634C20.097 13.4155 21.8289 13.9634 24.2104 14.0136C24.218 14.134 24.229 14.2537 24.229 14.3762C24.2294 17.621 21.5695 20.2613 18.302 20.2613Z" fill="url(#paint0_linear_5443_13683)"/>
<path fill-rule="evenodd" clip-rule="evenodd" d="M43.7722 29.3789H39.1283V27.9332C39.1283 27.4182 38.7077 26.9999 38.1914 26.9999H32.0808C31.5645 26.9999 31.1439 27.4182 31.1439 27.9332V29.3789H30.5173C29.3128 26.4914 27.2281 24.2766 24.2889 22.8073C24.1846 22.755 24.0682 22.727 23.9514 22.727H12.6882C12.5704 22.727 12.4557 22.7547 12.3507 22.8073C7.84663 25.0584 6.11232 28.7164 5.44991 31.3878C4.73794 34.2605 5.08032 36.5892 5.09548 36.687C5.13647 36.9596 5.32592 37.1863 5.58735 37.278C9.19927 38.5461 13.4543 39.2154 17.8937 39.2154C18.0353 39.2154 18.1779 39.2154 18.3201 39.2144C18.4675 39.2154 18.615 39.2161 18.7627 39.2161C20.9869 39.2161 23.1572 39.0393 25.2377 38.7096V41.7804C25.2377 42.4528 25.7882 43 26.4654 43H43.7724C44.4485 43 45 42.4531 45 41.7804L44.9997 30.5983C45 29.9259 44.4485 29.379 43.772 29.379L43.7722 29.3789ZM32.6457 28.491H37.6271V29.3789H32.6457V28.491ZM19.0555 24.2187L18.8116 25.2154H17.7428L17.491 24.2187H19.0555ZM17.8089 26.7061H18.7427L19.423 31.8337L18.2253 33.3775L17.0876 31.7711L17.8089 26.7061ZM25.238 30.598V37.2096C23.0315 37.5738 20.7047 37.7469 18.328 37.7226H18.3125C18.173 37.724 18.0331 37.7243 17.8936 37.7243C13.8063 37.7243 9.89168 37.1371 6.5361 36.0249C6.47996 35.2633 6.44069 33.595 6.92085 31.6915C7.76889 28.3299 9.77011 25.8166 12.8695 24.2181H15.9424L16.3926 25.9979L15.559 31.8543C15.5318 32.0421 15.578 32.2322 15.6882 32.3875L17.5837 35.0626C17.7215 35.2562 17.943 35.3742 18.1813 35.379H18.1982C18.43 35.379 18.6508 35.2719 18.7931 35.0886L20.803 32.4987C20.9252 32.3417 20.979 32.1427 20.9531 31.9463L20.1647 26.0027L20.6018 24.2185H23.7714C26.102 25.4213 27.8194 27.1532 28.8896 29.3786H26.4657C25.7885 29.379 25.2381 29.9258 25.2381 30.5982L25.238 30.598ZM43.4982 41.5088H26.7397V34.9519H30.5256V36.3983C30.5256 36.9126 30.9455 37.3316 31.4628 37.3316H38.7738C39.2908 37.3316 39.7118 36.9126 39.7118 36.3983V34.9519H43.4977L43.4982 41.5088ZM32.0278 35.8408V34.9524H38.21V35.8408H32.0278ZM43.4982 33.4615H26.7397V30.8705H43.4982V33.4615Z" fill="url(#paint1_linear_5443_13683)"/>
<defs>
<linearGradient id="paint0_linear_5443_13683" x1="0" y1="0" x2="0" y2="1" gradientUnits="objectBoundingBox">
<stop stop-color="#ED3040"/>
<stop offset="1" stop-color="#2D23F4"/>
</linearGradient>
<linearGradient id="paint1_linear_5443_13683" x1="0" y1="0" x2="0" y2="1" gradientUnits="objectBoundingBox">
<stop stop-color="#ED3040"/>
<stop offset="1" stop-color="#2D23F4"/>
</linearGradient>
</defs>
</svg>
