<svg width="50" height="50" viewBox="0 0 50 50" fill="none" xmlns="http://www.w3.org/2000/svg">
<path d="M12.049 16.5314H19.8252V10H24.077V11.1069H20.9442V13.8189H43.2656V15.5901H45V20.6826H43.2656V21.2361H45V26.3286H43.2656V32.3065H40.0767C40.58 33.0814 40.8599 34.0222 40.8599 34.9632C40.8599 36.347 40.2446 37.6199 39.3496 38.561C38.3984 39.4464 37.1118 40 35.7131 40C34.3145 40 33.0279 39.4464 32.0767 38.561C31.1817 37.6199 30.6222 36.347 30.6222 34.9632C30.6222 34.0222 30.8459 33.0814 31.3496 32.3065H18.7617C19.2092 33.0814 19.4891 34.0222 19.4891 34.9632C19.4891 36.347 18.9296 37.6199 17.9788 38.561C17.0838 39.4464 15.7968 40 14.3423 40C12.9437 40 11.6571 39.4464 10.7622 38.561C9.811 37.6199 9.25177 36.347 9.25177 34.9632C9.25177 34.0222 9.53136 33.0814 9.97921 32.3065H5V23.2848L5.1679 23.1739L11.6575 16.6981L11.8254 16.5319H12.0491L12.049 16.5314ZM38.566 32.1949V32.1396C38.0627 31.6969 37.5031 31.3647 36.8877 31.1433L36.664 31.0881H36.4403V31.0328H35.9935V30.9776H35.4909L35.4351 31.0328H34.9883V31.0881H34.7646C34.0371 31.3094 33.4218 31.6416 32.8626 32.1396V32.1949L32.8067 32.2501C32.1355 32.9142 31.7438 33.9106 31.7438 34.9621C31.7438 36.069 32.1913 37.0653 32.8626 37.785C33.59 38.4491 34.5967 38.8918 35.7158 38.8918C36.8345 38.8918 37.8415 38.4491 38.5689 37.785C39.2964 37.0653 39.7438 36.0693 39.7438 34.9621C39.7438 33.8553 39.2963 32.9143 38.5689 32.1946L38.566 32.1949ZM37.0556 30.0362C37.1115 30.0914 37.2235 30.0914 37.2794 30.147H37.3352C37.391 30.147 37.5031 30.2023 37.6148 30.2579C38.2302 30.4792 38.7335 30.8115 39.1813 31.1989H42.1461V25.2211H43.8805V22.343H42.1461V19.5754H43.8805V16.6973H42.1461V14.9261H20.944V31.199H32.2443C32.636 30.8668 33.0835 30.5902 33.531 30.3688H33.5868L33.6989 30.3136L33.7547 30.2583H33.8664C33.9784 30.2031 34.146 30.1474 34.3139 30.0922L34.4259 30.0369H34.4818C34.5376 30.0369 34.6497 29.9817 34.7614 29.9817H34.8734L34.9292 29.9264H35.376L35.4318 29.8712H35.9903L36.0461 29.9264H36.4929L36.5487 29.9817H36.8279V30.0369H37.0513L37.0556 30.0362ZM17.2511 32.1949L17.1952 32.1396C16.7478 31.6969 16.1882 31.3647 15.517 31.1433L15.2932 31.0881H15.1253L15.0695 31.0328H14.6228V30.9776H14.1202L14.0643 31.0328H13.6734L13.6176 31.0881H13.3938C12.7226 31.3094 12.0511 31.6416 11.5477 32.1396C10.8202 32.8593 10.3728 33.8553 10.3728 34.9625C10.3728 36.0693 10.8203 37.0656 11.5477 37.7853C12.2751 38.4494 13.2818 38.8922 14.345 38.8922C15.4637 38.8922 16.4707 38.4494 17.1981 37.7853C17.9256 37.0656 18.373 36.0696 18.373 34.9625C18.373 33.8556 17.9256 32.9146 17.2543 32.1949L17.2511 32.1949ZM15.6846 30.0362C15.8525 30.0914 16.0762 30.147 16.2441 30.2575H16.2999C16.8595 30.4789 17.3628 30.8111 17.8103 31.1986H19.8243V24.9993H11.4327V20.0731H19.8243V17.6377H12.2719L6.11806 23.7813V31.1982H10.929C11.3765 30.8107 11.8802 30.4785 12.4394 30.2571H12.4952C12.6631 30.1463 12.8869 30.091 13.0548 30.0358H13.1106C13.2227 30.0358 13.3902 29.9805 13.5022 29.9805H13.5581V29.9253H14.0607V29.87H14.675V29.9253H15.1776V29.9805H15.4568V30.0358H15.6802L15.6846 30.0362ZM19.8244 21.1802H12.5519V23.8922H19.8244V21.1802Z" fill="url(#paint0_linear_5443_13739)"/>
<path d="M14.3429 32.6378C15.0141 32.6378 15.5737 32.9144 16.0212 33.3575C16.4128 33.745 16.6924 34.3538 16.6924 34.9626C16.6924 35.5715 16.4128 36.1803 16.0212 36.5678C15.5737 37.0105 15.0142 37.2319 14.3429 37.2319C13.7275 37.2319 13.168 37.0105 12.7205 36.5678C12.3289 36.1803 12.0493 35.5715 12.0493 34.9626C12.0493 34.3538 12.3289 33.745 12.7205 33.3575C13.168 32.9148 13.7275 32.6378 14.3429 32.6378ZM15.2379 34.1321C15.0141 33.9108 14.6783 33.7446 14.3429 33.7446C14.0633 33.7446 13.7275 33.9108 13.5038 34.1321C13.28 34.3535 13.168 34.6301 13.168 34.9623C13.168 35.2945 13.28 35.5712 13.5038 35.7925C13.7275 36.0139 14.0633 36.1247 14.3429 36.1247C14.6787 36.1247 15.0141 36.0139 15.2379 35.7925C15.4616 35.5712 15.5737 35.2945 15.5737 34.9623C15.5737 34.6301 15.4616 34.3535 15.2379 34.1321Z" fill="url(#paint1_linear_5443_13739)"/>
<path d="M35.7134 32.6927C36.3288 32.6927 36.9442 32.9693 37.3358 33.3568C37.7274 33.7442 38.007 34.3531 38.007 34.9619C38.007 35.5708 37.7274 36.1243 37.3358 36.5671C36.9442 36.9546 36.3288 37.2312 35.7134 37.2312C35.098 37.2312 34.5385 36.9545 34.091 36.5671C33.6994 36.1244 33.4198 35.5708 33.4198 34.9619C33.4198 34.3531 33.6994 33.7442 34.091 33.3568C34.5385 32.9693 35.098 32.6927 35.7134 32.6927ZM36.5525 34.1317C36.3288 33.9104 36.0492 33.7995 35.7134 33.7995C35.3776 33.7995 35.098 33.9104 34.8743 34.1317C34.7064 34.3531 34.5385 34.6297 34.5385 34.9619C34.5385 35.2942 34.7064 35.5708 34.8743 35.7922C35.098 35.9583 35.3776 36.1244 35.7134 36.1244C36.0492 36.1244 36.3288 35.9583 36.5525 35.7922C36.7763 35.5708 36.8883 35.2942 36.8883 34.9619C36.8883 34.6297 36.7763 34.3531 36.5525 34.1317Z" fill="url(#paint2_linear_5443_13739)"/>
<defs>
<linearGradient id="paint0_linear_5443_13739" x1="37.6624" y1="31.4797" x2="37.6624" y2="37.4879" gradientUnits="userSpaceOnUse">
<stop stop-color="#ED3040"/>
<stop offset="1" stop-color="#2D23F4"/>
</linearGradient>
<linearGradient id="paint1_linear_5443_13739" x1="37.6624" y1="31.4797" x2="37.6624" y2="37.4879" gradientUnits="userSpaceOnUse">
<stop stop-color="#ED3040"/>
<stop offset="1" stop-color="#2D23F4"/>
</linearGradient>
<linearGradient id="paint2_linear_5443_13739" x1="37.6624" y1="31.4797" x2="37.6624" y2="37.4879" gradientUnits="userSpaceOnUse">
<stop stop-color="#ED3040"/>
<stop offset="1" stop-color="#2D23F4"/>
</linearGradient>
</defs>
</svg>
