<svg width="50" height="50" viewBox="0 0 50 50" fill="none" xmlns="http://www.w3.org/2000/svg">
<path d="M22.9995 16.3337H24.3327C24.3327 15.6191 23.9516 14.9588 23.333 14.6015C22.714 14.2442 21.9515 14.2442 21.3329 14.6015C20.7139 14.9588 20.3328 15.6191 20.3328 16.3337H21.666C21.666 15.9655 21.9647 15.6667 22.3329 15.6667C22.7011 15.6667 22.9995 15.9655 22.9995 16.3337Z" fill="url(#paint0_linear_5443_13685)"/>
<path d="M27.6667 15.6672C27.8433 15.6672 28.013 15.7376 28.1381 15.8627C28.2628 15.9874 28.3333 16.1571 28.3333 16.3341H29.6664C29.6664 15.6195 29.2853 14.9593 28.6663 14.602C28.0477 14.2447 27.2852 14.2447 26.6666 14.602C26.0477 14.9592 25.6665 15.6196 25.6665 16.3341H26.9997C26.9997 15.9659 27.2985 15.6672 27.6667 15.6672Z" fill="url(#paint1_linear_5443_13685)"/>
<path d="M27.8869 20.0006L26.7323 19.3341H26.732C26.4971 19.7419 26.126 20.0542 25.6836 20.2153C25.2413 20.3767 24.7564 20.3767 24.3137 20.2153C23.8714 20.0542 23.5003 19.7419 23.2654 19.3341L22.1108 20.0006C22.5025 20.6798 23.1208 21.1991 23.8575 21.4671C24.5942 21.7354 25.4017 21.7354 26.1385 21.4671C26.8752 21.1991 27.4935 20.6798 27.8855 20.0006H27.8869Z" fill="url(#paint2_linear_5443_13685)"/>
<path d="M34.9532 27.2067L28.9999 26.4134V23.8133C29.4247 23.5314 29.822 23.2099 30.1866 22.8536C31.4017 21.6428 32.15 20.042 32.2998 18.3334H32.3332C33.2859 18.3334 34.1663 17.8252 34.6426 17.0002C35.119 16.1752 35.119 15.1586 34.6426 14.3336C34.1663 13.5085 33.2859 13.0001 32.3332 13.0001V12.267C33.1467 11.8065 33.8225 11.1376 34.2913 10.3287C34.76 9.52023 35.0045 8.60152 34.9999 7.66665V5.66692C34.9999 5.48994 34.9297 5.32056 34.8047 5.19551C34.6796 5.07046 34.5099 5 34.3333 5H20.9933C19.6333 5.00331 18.3421 5.59844 17.4562 6.63024C16.5703 7.66242 16.1772 9.0286 16.3801 10.3734L16.8134 13.1535H16.8131C16.0089 13.4241 15.3817 14.0622 15.1256 14.8714C14.8692 15.6806 15.0148 16.5635 15.5169 17.2477C16.0191 17.9318 16.8177 18.3354 17.6666 18.3334H17.7C17.9081 20.5656 19.1232 22.5806 20.9999 23.8067V26.4134L15.0466 27.2067C13.9277 27.3612 12.9026 27.914 12.1589 28.7642C11.4155 29.6144 11.004 30.7041 11 31.8335V44.3334C11 44.5101 11.0701 44.6798 11.1952 44.8048C11.3202 44.9295 11.4896 45 11.6666 45H38.3331C38.5101 45 38.6794 44.9295 38.8045 44.8048C38.9295 44.6798 39 44.5101 39 44.3334V31.8335C38.9957 30.7041 38.5842 29.6144 37.8408 28.7642C37.0971 27.914 36.0719 27.3613 34.9531 27.2067L34.9532 27.2067ZM29.3933 27.8134L29.1601 29.6868L26.8001 27.6669H28.2868L29.3933 27.8134ZM22.3335 26.3334V24.4933C24.047 25.1689 25.9532 25.1689 27.6669 24.4933V26.3334H22.3335ZM26.5066 29.1668L25.9201 30.3335H24.0801L23.4936 29.1668L25.0001 27.8799L26.5066 29.1668ZM33.6667 15.6667C33.6641 16.0196 33.5228 16.3571 33.2731 16.6069C33.0236 16.8563 32.6862 16.9976 32.3332 17.0002V14.3335C32.6865 14.3345 33.0253 14.4755 33.275 14.7252C33.5248 14.975 33.6657 15.3134 33.6667 15.6667ZM17.6667 17.0002C17.3137 16.9975 16.9763 16.8563 16.7268 16.6068C16.4774 16.3571 16.3358 16.0196 16.3335 15.6666C16.3345 15.3133 16.4751 14.9749 16.7251 14.7251C16.9749 14.4754 17.3133 14.3344 17.6666 14.3335L17.6667 17.0002ZM17.9465 11.7868L17.6997 10.1735H17.7001C17.5548 9.21276 17.835 8.23656 18.4672 7.49918C19.0997 6.76181 20.0217 6.33642 20.9933 6.33337H33.6668V7.66653C33.6715 8.42541 33.4577 9.16974 33.0512 9.81049C32.6446 10.4509 32.062 10.9614 31.3734 11.28C30.8407 11.5357 30.2575 11.6677 29.6667 11.6667C28.3143 11.714 26.9868 11.2952 25.9068 10.4801C25.5128 10.1721 25.1783 9.79495 24.9203 9.36659C24.784 9.09003 24.4731 8.94546 24.1737 9.01989C23.8736 9.09102 23.6612 9.35831 23.6602 9.66663V11.5933C22.6718 11.2952 21.9092 10.5052 21.647 9.50648C21.5653 9.18063 21.2533 8.96627 20.9195 9.00696C20.5861 9.04765 20.3346 9.33049 20.3336 9.6666C20.3356 10.1979 20.1259 10.7077 19.7501 11.0832C19.3746 11.4586 18.8649 11.6687 18.3335 11.6667C18.1959 11.6687 18.0616 11.7104 17.9468 11.7868L17.9465 11.7868ZM18.9999 17.6667V12.9334C19.6423 12.8034 20.2318 12.4855 20.6933 12.0201C20.869 11.8454 21.0234 11.6509 21.1535 11.4402C21.9014 12.4369 23.0804 13.0165 24.3266 12.9999C24.5033 12.9986 24.673 12.9295 24.8 12.8068C24.9466 12.6533 24.9866 12.6136 24.9932 11.4534L25.0799 11.5203C26.3968 12.5193 28.0141 13.0413 29.6666 13C30.1168 13 30.5647 12.9418 31.0001 12.8267V17.6668C31.0001 19.8104 29.8564 21.791 27.9999 22.8628C26.1437 23.9346 23.8565 23.9346 21.9999 22.8628C20.1434 21.791 18.9998 19.8104 18.9998 17.6668L18.9999 17.6667ZM21.7132 27.6667H23.1999L20.8399 29.6867L20.6067 27.8133L21.7132 27.6667ZM17.6667 43.6668V33.6668H16.3336V43.6668H12.3334V31.8333C12.3371 31.0268 12.6318 30.2487 13.1634 29.6424C13.695 29.036 14.4278 28.6423 15.2267 28.5331L19.2867 27.9866L19.6734 31.08C19.7032 31.3232 19.8643 31.5306 20.0926 31.6196C20.3211 31.7086 20.5798 31.6652 20.7667 31.5064L22.4536 30.0598L22.9802 31.1198L21.6735 41.5863V41.5867C21.6464 41.7901 21.7152 41.9946 21.8601 42.1398L23.3933 43.6665L17.6667 43.6668ZM23.0335 41.4269L24.2535 31.6666H25.7468L26.9668 41.4269L25.0001 43.3936L23.0335 41.4269ZM37.6667 43.6668H33.6669V33.6668H32.3334V43.6668H26.6067L28.14 42.1401C28.2849 41.9949 28.3537 41.7904 28.3269 41.587L27.0202 31.1204L27.5468 30.0605L29.2336 31.5071L29.2333 31.5068C29.3537 31.611 29.5079 31.6675 29.6667 31.6669C29.749 31.6675 29.8307 31.6517 29.9068 31.6202C30.1367 31.5329 30.2988 31.3245 30.3266 31.0803L30.7133 27.9869L34.7734 28.5334C35.5723 28.6426 36.305 29.0363 36.8369 29.6427C37.3686 30.2491 37.663 31.0272 37.6666 31.8337L37.6667 43.6668Z" fill="url(#paint3_linear_5443_13685)"/>
<defs>
<linearGradient id="paint0_linear_5443_13685" x1="0" y1="0" x2="0" y2="1" gradientUnits="objectBoundingBox">
<stop stop-color="#ED3040"/>
<stop offset="1" stop-color="#2D23F4"/>
</linearGradient>
<linearGradient id="paint1_linear_5443_13685" x1="0" y1="0" x2="0" y2="1" gradientUnits="objectBoundingBox">
<stop stop-color="#ED3040"/>
<stop offset="1" stop-color="#2D23F4"/>
</linearGradient>
<linearGradient id="paint2_linear_5443_13685" x1="0" y1="0" x2="0" y2="1" gradientUnits="objectBoundingBox">
<stop stop-color="#ED3040"/>
<stop offset="1" stop-color="#2D23F4"/>
</linearGradient>
<linearGradient id="paint3_linear_5443_13685" x1="0" y1="0" x2="0" y2="1" gradientUnits="objectBoundingBox">
<stop stop-color="#ED3040"/>
<stop offset="1" stop-color="#2D23F4"/>
</linearGradient>
</defs>
</svg>
