<svg width="50" height="50" viewBox="0 0 50 50" fill="none" xmlns="http://www.w3.org/2000/svg">
<path d="M33.4293 45H7.54887C6.14401 45 5 43.8495 5 42.4367V7.56326C5 6.15046 6.14401 5 7.54887 5H33.4293C34.8342 5 35.9782 6.15046 35.9782 7.56326V23.9058C35.9782 24.2497 35.6986 24.5309 35.3566 24.5309C35.0146 24.5309 34.735 24.2497 34.735 23.9058V7.56326C34.735 6.83798 34.1506 6.2503 33.4294 6.2503H7.54891C6.8277 6.2503 6.24332 6.83801 6.24332 7.56326V42.4367C6.24332 43.162 6.82772 43.7497 7.54891 43.7497H33.4294C34.1506 43.7497 34.735 43.162 34.735 42.4367V37.0789C34.735 36.735 35.0146 36.4538 35.3566 36.4538C35.6986 36.4538 35.9782 36.735 35.9782 37.0789V42.4367C35.9782 43.8495 34.8345 45 33.4293 45Z" fill="url(#paint0_linear_5443_13661)"/>
<path d="M34.7161 37.4536C30.874 37.4536 27.7472 34.309 27.7472 30.4454C27.7472 26.5817 30.8741 23.4431 34.7161 23.4431C38.5582 23.4431 41.679 26.5877 41.679 30.4454C41.679 34.3088 38.5582 37.4536 34.7161 37.4536ZM34.7161 24.6869C31.5581 24.6869 28.9904 27.269 28.9904 30.4386C28.9904 33.6144 31.558 36.1966 34.7161 36.1966C37.8681 36.1966 40.4355 33.6145 40.4355 30.4386C40.4358 27.2687 37.8682 24.6869 34.7161 24.6869Z" fill="url(#paint1_linear_5443_13661)"/>
<path d="M43.849 35.4094L40.8213 33.0275C40.8089 33.0589 40.7965 33.0899 40.7841 33.1152C40.6597 33.4905 40.4545 33.8155 40.1624 34.0967L43.0845 36.3973C43.4885 36.7099 43.7249 37.1664 43.7561 37.6728C43.7872 38.1729 43.6005 38.6669 43.2464 39.0232C42.892 39.3796 42.4008 39.5735 41.9036 39.5357C41.4 39.5044 40.9463 39.267 40.6352 38.8604L38.1796 35.703C38.0988 35.5968 37.9868 35.5341 37.8688 35.503C37.6448 35.7219 37.384 35.9033 37.0732 36.0408C37.0608 36.1909 37.098 36.3473 37.1975 36.4721L39.6532 39.6295C40.1816 40.3109 40.9712 40.7297 41.8292 40.786C41.8912 40.7924 41.9536 40.7924 42.0096 40.7924C42.7992 40.7924 43.5636 40.4734 44.1232 39.911C44.7325 39.2983 45.0496 38.4604 44.9937 37.5979C44.9431 36.7344 44.5206 35.9407 43.849 35.4093L43.849 35.4094Z" fill="url(#paint2_linear_5443_13661)"/>
<path d="M34.2185 33.1333C34.0505 33.1333 33.8953 33.0646 33.7773 32.952L32.6581 31.8265C32.4157 31.5827 32.4157 31.1889 32.6581 30.9451C32.9005 30.7013 33.2921 30.7013 33.5346 30.9451L34.2122 31.6265L36.7487 29.0757C36.9911 28.8319 37.3827 28.8319 37.6251 29.0757C37.8676 29.3195 37.8676 29.7133 37.6251 29.9571L34.6475 32.9516C34.5419 33.0645 34.3803 33.1333 34.2186 33.1333L34.2185 33.1333Z" fill="url(#paint3_linear_5443_13661)"/>
<path d="M12.4598 23.0923H9.35134C9.00935 23.0923 8.72971 22.8111 8.72971 22.4671V16.2151C8.72971 15.8712 9.00935 15.59 9.35134 15.59H12.4598C12.8018 15.59 13.0814 15.8712 13.0814 16.2151V22.4671C13.0814 22.8175 12.8018 23.0923 12.4598 23.0923ZM9.97298 21.842H11.8382V16.8406H9.97298V21.842Z" fill="url(#paint4_linear_5443_13661)"/>
<path d="M18.677 23.0923H15.5562C15.2142 23.0923 14.9346 22.8111 14.9346 22.4671V11.2139C14.9346 10.87 15.2142 10.5888 15.5562 10.5888H18.677C19.019 10.5888 19.2987 10.87 19.2987 11.2139V22.4671C19.2987 22.8175 19.019 23.0923 18.677 23.0923ZM16.1778 21.842H18.0554V11.8386H16.1778V21.842Z" fill="url(#paint5_linear_5443_13661)"/>
<path d="M31.1229 23.0923H28.0021C27.6601 23.0923 27.3805 22.8111 27.3805 22.4671V13.0895C27.3805 12.7455 27.6601 12.4643 28.0021 12.4643H31.1229C31.4649 12.4643 31.7445 12.7455 31.7445 13.0895V22.4671C31.7445 22.8175 31.4649 23.0923 31.1229 23.0923ZM28.6236 21.842H30.5013V13.7146H28.6236V21.842Z" fill="url(#paint6_linear_5443_13661)"/>
<path d="M24.8935 23.0923H21.7665C21.4245 23.0923 21.1449 22.8111 21.1449 22.4671V8.40637C21.1449 8.06245 21.4245 7.78123 21.7665 7.78123H24.8998C25.2418 7.78123 25.5214 8.06245 25.5214 8.40637V22.4729C25.5154 22.8168 25.2354 23.0916 24.8935 23.0916L24.8935 23.0923ZM22.3882 21.842H24.2782V9.03183H22.3882V21.842Z" fill="url(#paint7_linear_5443_13661)"/>
<path d="M26.1371 26.8442H9.35117C9.00918 26.8442 8.72955 26.563 8.72955 26.219C8.72955 25.8751 9.00918 25.5939 9.35117 25.5939H26.1371C26.4791 25.5939 26.7587 25.8751 26.7587 26.219C26.7587 26.563 26.4791 26.8442 26.1371 26.8442Z" fill="url(#paint8_linear_5443_13661)"/>
<path d="M26.1371 30.5952H9.35117C9.00918 30.5952 8.72955 30.314 8.72955 29.9701C8.72955 29.6262 9.00918 29.345 9.35117 29.345H26.1371C26.4791 29.345 26.7587 29.6262 26.7587 29.9701C26.7587 30.314 26.4791 30.5952 26.1371 30.5952Z" fill="url(#paint9_linear_5443_13661)"/>
<path d="M26.1371 34.3463H9.35117C9.00918 34.3463 8.72955 34.0651 8.72955 33.7212C8.72955 33.3773 9.00918 33.096 9.35117 33.096H26.1371C26.4791 33.096 26.7587 33.3773 26.7587 33.7212C26.7587 34.0651 26.4791 34.3463 26.1371 34.3463Z" fill="url(#paint10_linear_5443_13661)"/>
<path d="M28.6235 38.0974H9.35117C9.00918 38.0974 8.72955 37.8162 8.72955 37.4722C8.72955 37.1283 9.00918 36.8471 9.35117 36.8471H28.6235C28.9655 36.8471 29.2451 37.1283 29.2451 37.4722C29.2454 37.8162 28.9655 38.0974 28.6235 38.0974Z" fill="url(#paint11_linear_5443_13661)"/>
<path d="M32.3535 41.8484H9.35117C9.00918 41.8484 8.72955 41.5672 8.72955 41.2233C8.72955 40.8794 9.00918 40.5982 9.35117 40.5982H32.3535C32.6955 40.5982 32.9751 40.8794 32.9751 41.2233C32.9754 41.5669 32.6955 41.8484 32.3535 41.8484Z" fill="url(#paint12_linear_5443_13661)"/>
<defs>
<linearGradient id="paint0_linear_5443_13661" x1="37.6624" y1="33.6397" x2="37.6624" y2="41.6506" gradientUnits="userSpaceOnUse">
<stop stop-color="#ED3040"/>
<stop offset="1" stop-color="#2D23F4"/>
</linearGradient>
<linearGradient id="paint1_linear_5443_13661" x1="37.6624" y1="33.6397" x2="37.6624" y2="41.6506" gradientUnits="userSpaceOnUse">
<stop stop-color="#ED3040"/>
<stop offset="1" stop-color="#2D23F4"/>
</linearGradient>
<linearGradient id="paint2_linear_5443_13661" x1="37.6624" y1="33.6397" x2="37.6624" y2="41.6506" gradientUnits="userSpaceOnUse">
<stop stop-color="#ED3040"/>
<stop offset="1" stop-color="#2D23F4"/>
</linearGradient>
<linearGradient id="paint3_linear_5443_13661" x1="37.6624" y1="33.6397" x2="37.6624" y2="41.6506" gradientUnits="userSpaceOnUse">
<stop stop-color="#ED3040"/>
<stop offset="1" stop-color="#2D23F4"/>
</linearGradient>
<linearGradient id="paint4_linear_5443_13661" x1="37.6624" y1="33.6397" x2="37.6624" y2="41.6506" gradientUnits="userSpaceOnUse">
<stop stop-color="#ED3040"/>
<stop offset="1" stop-color="#2D23F4"/>
</linearGradient>
<linearGradient id="paint5_linear_5443_13661" x1="37.6624" y1="33.6397" x2="37.6624" y2="41.6506" gradientUnits="userSpaceOnUse">
<stop stop-color="#ED3040"/>
<stop offset="1" stop-color="#2D23F4"/>
</linearGradient>
<linearGradient id="paint6_linear_5443_13661" x1="37.6624" y1="33.6397" x2="37.6624" y2="41.6506" gradientUnits="userSpaceOnUse">
<stop stop-color="#ED3040"/>
<stop offset="1" stop-color="#2D23F4"/>
</linearGradient>
<linearGradient id="paint7_linear_5443_13661" x1="37.6624" y1="33.6397" x2="37.6624" y2="41.6506" gradientUnits="userSpaceOnUse">
<stop stop-color="#ED3040"/>
<stop offset="1" stop-color="#2D23F4"/>
</linearGradient>
<linearGradient id="paint8_linear_5443_13661" x1="37.6624" y1="33.6397" x2="37.6624" y2="41.6506" gradientUnits="userSpaceOnUse">
<stop stop-color="#ED3040"/>
<stop offset="1" stop-color="#2D23F4"/>
</linearGradient>
<linearGradient id="paint9_linear_5443_13661" x1="37.6624" y1="33.6397" x2="37.6624" y2="41.6506" gradientUnits="userSpaceOnUse">
<stop stop-color="#ED3040"/>
<stop offset="1" stop-color="#2D23F4"/>
</linearGradient>
<linearGradient id="paint10_linear_5443_13661" x1="37.6624" y1="33.6397" x2="37.6624" y2="41.6506" gradientUnits="userSpaceOnUse">
<stop stop-color="#ED3040"/>
<stop offset="1" stop-color="#2D23F4"/>
</linearGradient>
<linearGradient id="paint11_linear_5443_13661" x1="37.6624" y1="33.6397" x2="37.6624" y2="41.6506" gradientUnits="userSpaceOnUse">
<stop stop-color="#ED3040"/>
<stop offset="1" stop-color="#2D23F4"/>
</linearGradient>
<linearGradient id="paint12_linear_5443_13661" x1="37.6624" y1="33.6397" x2="37.6624" y2="41.6506" gradientUnits="userSpaceOnUse">
<stop stop-color="#ED3040"/>
<stop offset="1" stop-color="#2D23F4"/>
</linearGradient>
</defs>
</svg>
