<svg width="50" height="50" viewBox="0 0 50 50" fill="none" xmlns="http://www.w3.org/2000/svg">
<path d="M34.1838 40H12.8159C12.4988 39.1035 11.7753 38.4101 10.8657 38.1315C9.95614 37.8531 8.96843 38.0228 8.20367 38.5885C7.43891 39.1542 6.98779 40.0488 6.98779 41C6.98779 41.9512 7.43885 42.8463 8.20367 43.4119C8.96848 43.9776 9.95622 44.147 10.8657 43.8686C11.7752 43.5902 12.4988 42.8969 12.8159 42H34.1838C34.5009 42.8969 35.2244 43.5902 36.1339 43.8686C37.0439 44.147 38.0316 43.9776 38.7964 43.4119C39.5611 42.8463 40.0122 41.9512 40.0122 41C40.0122 40.0488 39.5612 39.1541 38.7964 38.5885C38.0315 38.0228 37.0438 37.8531 36.1339 38.1315C35.2244 38.4102 34.5009 39.1035 34.1838 40ZM9.99957 42C9.59503 42 9.23031 41.7566 9.07549 41.383C8.92105 41.0093 9.00627 40.5791 9.29246 40.293C9.57828 40.0071 10.0085 39.9215 10.3822 40.0764C10.7559 40.2312 10.9996 40.5959 10.9996 41.0001C10.9996 41.2654 10.8943 41.5196 10.7067 41.7072C10.5192 41.8947 10.2646 42 9.99957 42ZM36.9987 40C37.4033 40 37.768 40.2438 37.9228 40.6175C38.0776 40.9911 37.992 41.4213 37.7059 41.7072C37.42 41.9934 36.9898 42.079 36.6161 41.9242C36.2424 41.7693 35.9987 41.4046 35.9987 41.0001C35.9987 40.4478 36.4465 40 36.9987 40Z" fill="url(#paint0_linear_5443_13735)"/>
<path d="M40.9996 6.00001C40.4474 6.00001 39.9997 6.44772 39.9997 6.99999V35.9992H5V37.9991H41C41.2654 37.9991 41.5196 37.8938 41.7071 37.7062C41.8947 37.519 42 37.2645 42 36.9991V7.99997H45V6L40.9996 6.00001Z" fill="url(#paint1_linear_5443_13735)"/>
<path d="M16.0008 22.0001H30.0013C30.2663 22.0001 30.5208 21.8948 30.7084 21.7072C30.8956 21.5197 31.0013 21.2651 31.0013 21.0001V11.0003C31.0013 10.7349 30.8956 10.4808 30.7084 10.2932C30.5208 10.1056 30.2663 10.0003 30.0013 10.0003H16.0008C15.4486 10.0003 15.0009 10.448 15.0009 11.0003V21.0001C15.0009 21.2651 15.1062 21.5197 15.2937 21.7072C15.4813 21.8948 15.7355 22.0001 16.0008 22.0001ZM24.0009 12.0003V13.0003H22.0009V12.0003H24.0009ZM17.0008 12.0003H20.0008V14.0003C20.0008 14.2652 20.1061 14.5198 20.2937 14.7074C20.4813 14.8949 20.7355 15.0003 21.0008 15.0003H25.0008C25.2657 15.0003 25.5203 14.8949 25.7079 14.7074C25.8955 14.5198 26.0008 14.2652 26.0008 14.0003V12.0003H29.0007V20.0003H17.001L17.0008 12.0003Z" fill="url(#paint2_linear_5443_13735)"/>
<path d="M7.00036 35.0001H21.0008C21.2658 35.0001 21.5203 34.8948 21.7079 34.7072C21.8955 34.52 22.0008 34.2655 22.0008 34.0001V24.0003C22.0008 23.7349 21.8955 23.4808 21.7079 23.2932C21.5203 23.1056 21.2658 23.0003 21.0008 23.0003H7.00036C6.44807 23.0003 6.00037 23.448 6.00037 24.0003V34.0001C6.00037 34.2655 6.1057 34.52 6.29326 34.7072C6.48083 34.8948 6.73501 35.0001 7.00036 35.0001ZM15.0004 25.0003V26.0003L13.0004 26.0006V25.0007L15.0004 25.0003ZM8.00035 25.0007H11.0003V27.0006C11.0003 27.2656 11.1056 27.5202 11.2932 27.7077C11.4808 27.8949 11.735 28.0006 12.0003 28.0006H16.0003C16.2653 28.0006 16.5198 27.8949 16.7074 27.7077C16.895 27.5202 17.0003 27.2656 17.0003 27.0006V25.0007H20.0003V33.0006L8.00056 33.0003L8.00035 25.0007Z" fill="url(#paint3_linear_5443_13735)"/>
<path d="M24 23.0005C23.4477 23.0005 23 23.4482 23 24.0005V34.0003C23 34.2657 23.1053 34.5202 23.2929 34.7074C23.4805 34.895 23.7347 35.0003 24 35.0003H37.9995C38.2649 35.0003 38.519 34.895 38.7066 34.7074C38.8942 34.5202 38.9995 34.2657 38.9995 34.0003V24.0005C38.9995 23.7351 38.8942 23.481 38.7066 23.2934C38.519 23.1058 38.2649 23.0005 37.9995 23.0005L24 23.0005ZM37.0001 33.0003H25.0004V25.0008H28.0003V27.0007C28.0003 27.2657 28.1057 27.5203 28.2932 27.7078C28.4804 27.895 28.735 28.0007 29.0003 28.0007H33.0003H32.9999C33.2653 28.0007 33.5198 27.895 33.707 27.7078C33.8946 27.5203 33.9999 27.2657 33.9999 27.0007V25.0008H36.9999L37.0001 33.0003ZM32.0001 25.0004V26.0004L30.0005 26.0007V25.0007L32.0001 25.0004Z" fill="url(#paint4_linear_5443_13735)"/>
<defs>
<linearGradient id="paint0_linear_5443_13735" x1="0" y1="0" x2="0" y2="1" gradientUnits="objectBoundingBox">
<stop stop-color="#ED3040"/>
<stop offset="1" stop-color="#2D23F4"/>
</linearGradient>
<linearGradient id="paint1_linear_5443_13735" x1="0" y1="0" x2="0" y2="1" gradientUnits="objectBoundingBox">
<stop stop-color="#ED3040"/>
<stop offset="1" stop-color="#2D23F4"/>
</linearGradient>
<linearGradient id="paint2_linear_5443_13735" x1="0" y1="0" x2="0" y2="1" gradientUnits="objectBoundingBox">
<stop stop-color="#ED3040"/>
<stop offset="1" stop-color="#2D23F4"/>
</linearGradient>
<linearGradient id="paint3_linear_5443_13735" x1="0" y1="0" x2="0" y2="1" gradientUnits="objectBoundingBox">
<stop stop-color="#ED3040"/>
<stop offset="1" stop-color="#2D23F4"/>
</linearGradient>
<linearGradient id="paint4_linear_5443_13735" x1="0" y1="0" x2="0" y2="1" gradientUnits="objectBoundingBox">
<stop stop-color="#ED3040"/>
<stop offset="1" stop-color="#2D23F4"/>
</linearGradient>
</defs>
</svg>
