<svg width="50" height="50" viewBox="0 0 50 50" fill="none" xmlns="http://www.w3.org/2000/svg">
<path d="M20.4008 9.36218C20.5276 9.26022 20.658 9.16215 20.794 9.06904C21.1186 8.84953 21.5601 8.93273 21.7823 9.25562C22.0044 9.5785 21.9243 10.02 21.603 10.2444C21.4977 10.3174 21.3953 10.3935 21.2961 10.4731V10.4735C20.9886 10.716 20.5432 10.6657 20.2973 10.3609C20.0518 10.0561 20.0978 9.61041 20.4008 9.36218Z" fill="url(#paint0_linear_5443_13671)"/>
<path d="M18.2393 12.6776C18.3942 12.0509 18.6514 11.4544 19.0007 10.9113C19.2147 10.5831 19.6534 10.4882 19.9836 10.6992C20.3138 10.9102 20.4123 11.3478 20.2043 11.6795C19.9397 12.0913 19.7441 12.5437 19.6254 13.0185C19.5311 13.4005 19.1446 13.6341 18.7619 13.54C18.3796 13.4458 18.1454 13.0599 18.2393 12.6776Z" fill="url(#paint1_linear_5443_13671)"/>
<path d="M17.5028 42.1H15.3607C14.9663 42.1 14.6468 41.7806 14.6468 41.3866C14.6468 40.9925 14.9663 40.6732 15.3607 40.6732H17.5028C17.8972 40.6732 18.2167 40.9925 18.2167 41.3866C18.2167 41.7806 17.8972 42.1 17.5028 42.1Z" fill="url(#paint2_linear_5443_13671)"/>
<path d="M34.6393 42.1H32.4972H32.4975C32.1032 42.1 31.7832 41.7806 31.7832 41.3866C31.7832 40.9925 32.1032 40.6732 32.4975 40.6732H34.6396H34.6393C35.0336 40.6732 35.3536 40.9925 35.3536 41.3866C35.3536 41.7806 35.0336 42.1 34.6393 42.1Z" fill="url(#paint3_linear_5443_13671)"/>
<path d="M41.3703 34.2674C39.5152 31.918 31.8701 29.4557 30.2629 28.9579H30.2632C30.1998 27.9524 30.0822 26.9508 29.9104 25.9578C31.1242 24.7749 31.9636 23.2621 32.3249 21.6066C32.7962 21.2579 33.1909 20.8157 33.4835 20.3077C33.9909 19.4852 34.1368 18.49 33.8874 17.5567C34.2438 17.4236 34.5514 17.1857 34.7693 16.8742C34.9872 16.5626 35.1052 16.1919 35.1076 15.812C35.1091 15.4452 35.0074 15.0855 34.8136 14.774C34.6201 14.4624 34.3423 14.2118 34.0128 14.0507C33.9831 12.3084 33.4112 10.6183 32.377 9.2152C31.3428 7.81183 29.8976 6.76492 28.2411 6.2193C28.1692 5.87553 27.9814 5.56717 27.7093 5.34519C27.4372 5.12356 27.0971 5.00141 26.746 5H23.3794C23.0406 5.00177 22.7125 5.11612 22.4458 5.3243C22.179 5.53247 21.9887 5.82349 21.9051 6.15133C20.203 6.68061 18.7106 7.73144 17.6389 9.15502C16.5671 10.5786 15.9704 12.3027 15.9332 14.0836C15.6189 14.2503 15.3564 14.4992 15.1729 14.8037C14.9897 15.1078 14.8926 15.4565 14.8919 15.812C14.894 16.1869 15.0088 16.553 15.2218 16.8621C15.4344 17.1715 15.7352 17.4094 16.0849 17.5461C15.936 18.2195 15.9679 18.9201 16.177 19.5772C16.4615 20.4467 17.0358 21.1923 17.8046 21.689C18.1876 23.3169 18.9997 24.8131 20.1566 26.0218C19.9893 26.995 19.8745 27.9768 19.8125 28.9624C18.149 29.4588 10.6806 31.7862 8.83295 34.0626C7.16238 36.1203 6.56502 43.4088 6.50198 44.2326C6.47292 44.6253 6.76736 44.9673 7.15993 44.997C7.55285 45.0267 7.89547 44.7332 7.92594 44.341C8.08714 42.2245 8.76352 36.4133 9.94199 34.9613C10.5556 34.2054 12.1376 33.3624 13.9333 32.5896V38.5332H13.2193L13.219 38.5328C13.0298 38.5328 12.848 38.6079 12.7141 38.7417C12.5802 38.8755 12.5051 39.0571 12.5051 39.2462V44.2866C12.5051 44.6807 12.8246 45 13.219 45C13.6133 45 13.9329 44.6807 13.9329 44.2866V39.9599H36.0671V44.2866H36.0675C36.0675 44.6807 36.3871 45 36.7814 45C37.1757 45 37.4953 44.6807 37.4953 44.2866V39.2462C37.4953 39.0571 37.4202 38.8755 37.2863 38.7417C37.1524 38.6079 36.971 38.5328 36.7814 38.5328H36.0675V32.6249C37.9467 33.4495 39.619 34.3526 40.2497 35.1514C41.3785 36.5803 41.9489 42.2615 42.0736 44.3298V44.3295C42.1002 44.7203 42.4375 45.0167 42.829 44.9933C43.2202 44.9696 43.5196 44.635 43.499 44.2438C43.4508 43.4373 42.9789 36.3035 41.3707 34.2668L41.3703 34.2674ZM24.9958 34.311H25.0057C26.8612 34.3106 29.1886 31.5834 30.1077 30.4048C30.3937 30.4951 30.7214 30.6027 31.0686 30.7189V38.5332H18.9308V30.7334C19.3138 30.6091 19.6706 30.4965 19.9817 30.4016C20.8813 31.5813 23.1542 34.3017 24.9965 34.3109L24.9958 34.311ZM28.8867 29.6461C27.7087 31.1275 25.9424 32.8842 25.0074 32.8842H25.0031C24.0749 32.8796 22.3369 31.1094 21.1901 29.6296H21.1897C21.2308 28.7862 21.3173 27.9458 21.4487 27.112C23.6143 28.4704 26.5348 28.1345 28.6022 26.9304H28.6018C28.746 27.8297 28.841 28.7364 28.8867 29.6462L28.8867 29.6461ZM16.6854 15.3197C17.3876 15.2875 17.371 14.5663 17.3653 14.3287L17.3604 14.0366V14.0369C17.4018 12.6297 17.8649 11.267 18.6904 10.1259C19.5156 8.98484 20.665 8.11784 21.9894 7.63703L22.5864 12.2898C22.6399 12.6782 22.997 12.9508 23.3857 12.9005C23.7747 12.8499 24.0504 12.4959 24.0033 12.1068L23.2798 6.51476C23.2876 6.4659 23.329 6.42944 23.3786 6.42696H26.7452C26.7948 6.42944 26.8359 6.4659 26.8441 6.51476L26.1202 12.1064V12.1068C26.071 12.4969 26.3466 12.8538 26.7374 12.9041C27.1279 12.9547 27.4854 12.6799 27.5371 12.2898L28.1302 7.70682C29.4181 8.20035 30.5296 9.06596 31.3229 10.1936C32.1161 11.3213 32.5551 12.6591 32.5842 14.037C32.5842 14.2098 32.5774 14.3812 32.564 14.5508C32.5484 14.7518 32.6189 14.9497 32.7571 15.096C32.8956 15.2425 33.0894 15.3236 33.291 15.3197C33.4809 15.2733 33.6786 15.587 33.6786 15.8118C33.6786 16.145 33.3169 16.2788 33.1025 16.3054L33.1029 16.3057C30.4212 16.6084 27.7248 16.7621 25.0261 16.7663C22.3096 16.761 19.5952 16.6074 16.8954 16.3057C16.6814 16.2788 16.3193 16.145 16.3193 15.8122C16.3118 15.5828 16.4635 15.3789 16.6853 15.3197L16.6854 15.3197ZM19.1376 21.099H19.1379C19.0965 20.888 18.9622 20.7071 18.7723 20.6058C18.1905 20.2911 17.749 19.7682 17.5361 19.1423C17.3993 18.7097 17.3823 18.2483 17.4875 17.8073C20.1307 18.0887 23.1341 18.1932 25.0265 18.1932C26.887 18.1932 29.8454 18.0898 32.4754 17.8112H32.4751C32.6661 18.4116 32.5817 19.0655 32.2444 19.5976C32.0106 19.9995 31.6836 20.339 31.2906 20.5879C31.122 20.6969 31.0068 20.8718 30.9739 21.0697C30.6365 23.0778 29.4135 24.8282 27.643 25.8365C27.5292 25.8953 24.8323 27.2725 22.5186 26.0819C20.7457 24.9645 19.5201 23.1586 19.1379 21.0991L19.1376 21.099ZM15.36 38.5333V32.0045C16.0863 31.7209 16.8144 31.454 17.5021 31.2143V38.5333L15.36 38.5333ZM34.6379 38.5333H32.4958L32.4962 31.215C33.1817 31.4614 33.9088 31.7351 34.6383 32.0272L34.6379 38.5333Z" fill="url(#paint4_linear_5443_13671)"/>
<path d="M24.9921 15.8806C23.4896 15.8802 21.3286 15.7453 19.2123 15.5201C18.8226 15.4755 18.5419 15.125 18.5838 14.7356C18.6256 14.3458 18.9742 14.0626 19.3643 14.1015C21.4331 14.3217 23.537 14.4534 24.9921 14.4538C26.7144 14.4534 29.0369 14.2711 30.6373 14.1012C31.027 14.0633 31.3746 14.3465 31.4161 14.736C31.4575 15.125 31.1769 15.4748 30.7879 15.5198C29.9942 15.6044 27.2302 15.8802 24.9921 15.8806Z" fill="url(#paint5_linear_5443_13671)"/>
<defs>
<linearGradient id="paint0_linear_5443_13671" x1="0" y1="0" x2="0" y2="1" gradientUnits="objectBoundingBox">
<stop stop-color="#ED3040"/>
<stop offset="1" stop-color="#2D23F4"/>
</linearGradient>
<linearGradient id="paint1_linear_5443_13671" x1="0" y1="0" x2="0" y2="1" gradientUnits="objectBoundingBox">
<stop stop-color="#ED3040"/>
<stop offset="1" stop-color="#2D23F4"/>
</linearGradient>
<linearGradient id="paint2_linear_5443_13671" x1="0" y1="0" x2="0" y2="1" gradientUnits="objectBoundingBox">
<stop stop-color="#ED3040"/>
<stop offset="1" stop-color="#2D23F4"/>
</linearGradient>
<linearGradient id="paint3_linear_5443_13671" x1="0" y1="0" x2="0" y2="1" gradientUnits="objectBoundingBox">
<stop stop-color="#ED3040"/>
<stop offset="1" stop-color="#2D23F4"/>
</linearGradient>
<linearGradient id="paint4_linear_5443_13671" x1="0" y1="0" x2="0" y2="1" gradientUnits="objectBoundingBox">
<stop stop-color="#ED3040"/>
<stop offset="1" stop-color="#2D23F4"/>
</linearGradient>
<linearGradient id="paint5_linear_5443_13671" x1="0" y1="0" x2="0" y2="1" gradientUnits="objectBoundingBox">
<stop stop-color="#ED3040"/>
<stop offset="1" stop-color="#2D23F4"/>
</linearGradient>
</defs>
</svg>
