<svg width="50" height="50" viewBox="0 0 50 50" fill="none" xmlns="http://www.w3.org/2000/svg">
<path d="M39.8383 28.2259C39.8383 27.5143 39.2595 26.9358 38.5482 26.9358H33.3868C32.6751 26.9358 32.0966 27.5146 32.0966 28.2259V43.7099H29.516L29.5157 33.3875C29.5157 32.6758 28.9369 32.0974 28.2255 32.0974H23.0642C22.3525 32.0974 21.774 32.6762 21.774 33.3875V43.7099H19.1934V38.5485C19.1934 37.8369 18.6146 37.2584 17.9032 37.2584H12.7418C12.0302 37.2584 11.4517 37.8372 11.4517 38.5485V43.7099H10.1609V45H41.1289V43.7099H39.8387L39.8383 28.2259ZM33.3868 28.2259H38.5482V43.7099H33.3868V28.2259ZM23.0644 33.3873H28.2258V43.7096H23.0644V33.3873ZM12.742 38.5486H17.9034V43.7099H12.742V38.5486Z" fill="url(#paint0_linear_5443_13715)"/>
<path d="M41.7741 6.29048H26.577C26.1291 5.52278 25.306 5 24.3549 5C23.051 5 21.982 5.97486 21.8097 7.23166L20.6556 8.0967C19.9904 8.59612 19.166 8.87112 18.3336 8.87112H10.1614C7.31559 8.87112 5 11.1867 5 14.0324C5 16.7655 7.1366 19.0027 9.82649 19.1771L11.4518 21.3438V28.2259C11.4518 28.9376 12.0307 29.516 12.742 29.516H15.3226C16.0343 29.516 16.6128 28.9372 16.6128 28.2259L16.6131 21.7741H17.2582C18.3253 21.7741 19.1938 20.9055 19.1938 19.8385V19.3029C19.6538 19.4086 20.0911 19.5959 20.4839 19.859V22.4195C20.4839 24.1982 21.9309 25.6452 23.7096 25.6452H23.9562L26.0278 29.7884C26.3418 30.4169 26.9728 30.8065 27.6749 30.8065C28.6904 30.8065 29.5161 29.9806 29.5161 28.965V25.6452H41.7743C43.553 25.6452 45 24.1982 45 22.4195V9.51635C45 7.73767 43.553 6.29066 41.7743 6.29066L41.7741 6.29048ZM26.9351 11.4518H27.5802C27.9362 11.4518 28.2253 11.7409 28.2253 12.0969V14.6775C28.2253 15.0335 27.9362 15.3226 27.5802 15.3226H26.9351V11.4518ZM23.0643 7.58071C23.0643 6.86903 23.6431 6.29056 24.3545 6.29056C25.0662 6.29056 25.6446 6.86937 25.6446 7.58071V20.4838C25.6446 21.1955 25.0658 21.774 24.3545 21.774C23.6428 21.774 23.0643 21.1952 23.0643 20.4838V7.58071ZM21.4294 9.1286L21.7738 8.87058V19.1937H21.7732L21.4294 18.9363C20.5429 18.2701 19.4436 17.9035 18.3333 17.9035H12.7417V10.1616H18.3333C19.4436 10.1616 20.5429 9.79501 21.4294 9.12877V9.1286ZM6.2904 14.0325C6.2904 11.8978 8.02656 10.1617 10.1612 10.1617H11.4514V17.9037L10.1612 17.9034C8.02648 17.9034 6.2904 16.1672 6.2904 14.0326V14.0325ZM12.7419 28.2256V21.3435C12.7419 21.066 12.6497 20.7913 12.4839 20.5701L11.4511 19.1931H15.3225V28.2255L12.7419 28.2256ZM17.2581 20.4837H16.613V19.1935H17.9032V19.8386C17.9032 20.1946 17.6141 20.4837 17.2581 20.4837ZM43.7095 22.4192C43.7095 23.4863 42.841 24.3548 41.774 24.3548L28.2258 24.3544V28.9648C28.2258 29.268 27.978 29.5157 27.6748 29.5157C27.4651 29.5157 27.2762 29.3989 27.1818 29.2107L24.7535 24.3544H23.7095C22.6425 24.3544 21.774 23.4859 21.774 22.4189V20.806L21.8095 20.8326C21.9818 22.0894 23.051 23.0642 24.3547 23.0642C25.778 23.0642 26.9353 21.9069 26.9353 20.4836V16.6128H27.5804C28.6475 16.6128 29.516 15.7443 29.516 14.6773V12.0967C29.516 11.0296 28.6474 10.1611 27.5804 10.1611H26.9353V7.58049H41.7735C42.8406 7.58049 43.7091 8.44905 43.7091 9.51604L43.7095 22.4192Z" fill="url(#paint1_linear_5443_13715)"/>
<path d="M33.3875 8.87126H32.0974C31.3857 8.87126 30.8072 9.45008 30.8072 10.1614V11.4516C30.8072 12.1632 31.386 12.7417 32.0974 12.7417H33.3875C34.0992 12.7417 34.6777 12.1629 34.6777 11.4516V10.1614C34.6777 9.44974 34.0992 8.87126 33.3875 8.87126ZM32.0971 11.4519V10.1614H33.3872L33.3885 11.4516L32.0971 11.4519Z" fill="url(#paint2_linear_5443_13715)"/>
<path d="M33.3875 14.0328H32.0974C31.3857 14.0328 30.8072 14.6117 30.8072 15.323V16.6131C30.8072 17.3248 31.386 17.9033 32.0974 17.9033H33.3875C34.0992 17.9033 34.6777 17.3245 34.6777 16.6131V15.323C34.6777 14.6113 34.0992 14.0328 33.3875 14.0328ZM32.0971 16.6135V15.3233H33.3872L33.3885 16.6135H32.0971Z" fill="url(#paint3_linear_5443_13715)"/>
<path d="M33.3875 19.1936H32.0974C31.3857 19.1936 30.8072 19.7724 30.8072 20.4837V21.7739C30.8072 22.4856 31.386 23.064 32.0974 23.064H33.3875C34.0992 23.064 34.6777 22.4852 34.6777 21.7739V20.4837C34.6777 19.7724 34.0992 19.1936 33.3875 19.1936ZM32.0971 21.7742V20.4841H33.3872L33.3885 21.7742H32.0971Z" fill="url(#paint4_linear_5443_13715)"/>
<path d="M35.9675 10.1612H42.419V11.4514H35.9675V10.1612Z" fill="url(#paint5_linear_5443_13715)"/>
<path d="M35.9675 15.3228H42.419V16.613H35.9675V15.3228Z" fill="url(#paint6_linear_5443_13715)"/>
<path d="M35.9675 20.4836H42.419V21.7737H35.9675V20.4836Z" fill="url(#paint7_linear_5443_13715)"/>
<defs>
<linearGradient id="paint0_linear_5443_13715" x1="37.6624" y1="33.6397" x2="37.6624" y2="41.6506" gradientUnits="userSpaceOnUse">
<stop stop-color="#ED3040"/>
<stop offset="1" stop-color="#2D23F4"/>
</linearGradient>
<linearGradient id="paint1_linear_5443_13715" x1="37.6624" y1="33.6397" x2="37.6624" y2="41.6506" gradientUnits="userSpaceOnUse">
<stop stop-color="#ED3040"/>
<stop offset="1" stop-color="#2D23F4"/>
</linearGradient>
<linearGradient id="paint2_linear_5443_13715" x1="37.6624" y1="33.6397" x2="37.6624" y2="41.6506" gradientUnits="userSpaceOnUse">
<stop stop-color="#ED3040"/>
<stop offset="1" stop-color="#2D23F4"/>
</linearGradient>
<linearGradient id="paint3_linear_5443_13715" x1="37.6624" y1="33.6397" x2="37.6624" y2="41.6506" gradientUnits="userSpaceOnUse">
<stop stop-color="#ED3040"/>
<stop offset="1" stop-color="#2D23F4"/>
</linearGradient>
<linearGradient id="paint4_linear_5443_13715" x1="37.6624" y1="33.6397" x2="37.6624" y2="41.6506" gradientUnits="userSpaceOnUse">
<stop stop-color="#ED3040"/>
<stop offset="1" stop-color="#2D23F4"/>
</linearGradient>
<linearGradient id="paint5_linear_5443_13715" x1="37.6624" y1="33.6397" x2="37.6624" y2="41.6506" gradientUnits="userSpaceOnUse">
<stop stop-color="#ED3040"/>
<stop offset="1" stop-color="#2D23F4"/>
</linearGradient>
<linearGradient id="paint6_linear_5443_13715" x1="37.6624" y1="33.6397" x2="37.6624" y2="41.6506" gradientUnits="userSpaceOnUse">
<stop stop-color="#ED3040"/>
<stop offset="1" stop-color="#2D23F4"/>
</linearGradient>
<linearGradient id="paint7_linear_5443_13715" x1="37.6624" y1="33.6397" x2="37.6624" y2="41.6506" gradientUnits="userSpaceOnUse">
<stop stop-color="#ED3040"/>
<stop offset="1" stop-color="#2D23F4"/>
</linearGradient>
</defs>
</svg>
