<svg width="50" height="50" viewBox="0 0 50 50" fill="none" xmlns="http://www.w3.org/2000/svg">
<path d="M42.9996 25.0001H38.333V23.6665C38.333 23.1362 38.1224 22.6276 37.7475 22.2523C37.3722 21.8774 36.8636 21.6668 36.3333 21.6668H28.9999V7.00005C28.9999 6.4694 28.7893 5.96076 28.414 5.58586C28.0391 5.21059 27.5304 5.00001 26.9998 5.00001H13.552C13.0213 4.99876 12.5121 5.20966 12.138 5.58586L5.58585 12.1381C5.20966 12.5122 4.99846 13.0214 5.00001 13.5521V35C5.00001 35.5306 5.21059 36.0393 5.58585 36.4142C5.96081 36.7895 6.46944 37 7.00003 37H18.3336V43C18.3336 43.5306 18.5442 44.0392 18.9194 44.4142C19.2944 44.7894 19.803 45 20.3336 45H43C43.5306 45 44.0393 44.7894 44.4142 44.4142C44.7894 44.0392 45 43.5306 45 43V27.0002C45 26.4698 44.7894 25.9612 44.4142 25.586C44.0392 25.211 43.5306 25.0004 43 25.0004L42.9996 25.0001ZM43.6664 27.0002V30.3335V30.3332C43.6664 31.0406 43.3854 31.7189 42.8855 32.2189C42.3852 32.7191 41.7069 33.0001 40.9998 33.0001H22.3334C21.6263 33.0001 20.948 32.7191 20.4478 32.2189C19.9478 31.7189 19.6668 31.0406 19.6668 30.3332V26.9999C19.6668 26.6317 19.9652 26.3334 20.3336 26.3334H43C43.1771 26.3334 43.3464 26.4035 43.4714 26.5285C43.5967 26.6538 43.6668 26.8231 43.6668 26.9999L43.6664 27.0002ZM30.3328 34.3334H32.9994V35.6667H32.9997C32.9997 35.8435 32.9293 36.0131 32.8043 36.1381C32.6793 36.2631 32.5097 36.3335 32.3329 36.3335H30.9996C30.6315 36.3335 30.3329 36.0348 30.3329 35.6667L30.3328 34.3334ZM25.6663 25.0004V23.6668C25.6663 23.2987 25.9649 23.0004 26.3331 23.0004H27.6663V25.0004L25.6663 25.0004ZM36.3332 23.0004C36.51 23.0004 36.6794 23.0705 36.8046 23.1955C36.9296 23.3208 36.9997 23.4901 36.9997 23.6669V25.0002L28.9999 25.0005V23.0004L36.3332 23.0004ZM12.3327 7.27611V10.9999C12.3327 11.3535 12.1926 11.6928 11.9423 11.9427C11.6923 12.193 11.353 12.3332 10.9995 12.3332H7.27571L12.3327 7.27611ZM6.99966 35.6672C6.63153 35.6672 6.33287 35.3688 6.33287 35.0004V13.6668H10.9994C11.7069 13.6668 12.3851 13.3858 12.8851 12.8855C13.3853 12.3856 13.6663 11.7073 13.6663 10.9999V6.33327H26.999C27.1758 6.33327 27.3454 6.40367 27.4704 6.52866C27.5954 6.65364 27.6658 6.82328 27.6658 7.00007V21.6668H26.3325C25.8019 21.6668 25.2933 21.8774 24.9184 22.2523C24.5431 22.6276 24.3325 23.1363 24.3325 23.6665V24.9998L20.3327 25.0001C19.8021 25.0001 19.2934 25.2107 18.9185 25.5857C18.5433 25.9609 18.3327 26.4696 18.3327 26.9999V35.6667L6.99966 35.6672ZM42.9995 43.667H20.3332C19.9647 43.667 19.6664 43.3687 19.6664 43.0003V33.3069C20.3974 33.9674 21.3477 34.3334 22.3329 34.3338H28.9996V35.667C28.9996 36.1974 29.2105 36.7063 29.5855 37.0812C29.9604 37.4562 30.4694 37.6671 30.9996 37.6671H32.3329C32.8632 37.6671 33.3722 37.4562 33.7471 37.0812C34.122 36.7063 34.3329 36.1973 34.3329 35.667V34.3338H40.9996C41.9849 34.3334 42.9352 33.9675 43.6662 33.3069V43.0003C43.6662 43.1773 43.5961 43.3467 43.4708 43.4717C43.3458 43.597 43.1765 43.667 42.9994 43.667H42.9995Z" fill="url(#paint0_linear_5443_13713)"/>
<path d="M9.66657 19.6663H24.3331C24.7013 19.6663 24.9999 19.368 24.9999 18.9995C24.9999 18.6314 24.7013 18.3331 24.3331 18.3331H9.66657C9.29844 18.3331 9.00009 18.6314 9.00009 18.9995C9.00009 19.368 9.29844 19.6663 9.66657 19.6663Z" fill="url(#paint1_linear_5443_13713)"/>
<path d="M15.6664 15.6664H24.3331C24.7013 15.6664 24.9999 15.368 24.9999 14.9999C24.9999 14.6318 24.7013 14.3331 24.3331 14.3331H15.6664C15.2983 14.3331 14.9999 14.6318 14.9999 14.9999C14.9999 15.368 15.2983 15.6664 15.6664 15.6664Z" fill="url(#paint2_linear_5443_13713)"/>
<path d="M9.66657 23.6663H21.6663C22.0344 23.6663 22.3327 23.3679 22.3327 22.9998C22.3327 22.6317 22.0344 22.333 21.6663 22.333H9.66657C9.29844 22.333 9.00009 22.6317 9.00009 22.9998C9.00009 23.3679 9.29844 23.6663 9.66657 23.6663Z" fill="url(#paint3_linear_5443_13713)"/>
<path d="M16.3333 26.3332H9.66665C9.29852 26.3332 9.00017 26.6315 9.00017 26.9997C9.00017 27.3681 9.29852 27.6665 9.66665 27.6665H16.3333C16.7015 27.6665 17.0001 27.3681 17.0001 26.9997C17.0001 26.6315 16.7015 26.3332 16.3333 26.3332Z" fill="url(#paint4_linear_5443_13713)"/>
<path d="M16.3333 30.3331H9.66665C9.29852 30.3331 9.00017 30.6318 9.00017 30.9999C9.00017 31.3681 9.29852 31.6664 9.66665 31.6664H16.3333C16.7015 31.6664 17.0001 31.3681 17.0001 30.9999C17.0001 30.6318 16.7015 30.3331 16.3333 30.3331Z" fill="url(#paint5_linear_5443_13713)"/>
<path d="M30.333 30.3331H29.6665C29.2984 30.3331 28.9997 30.6318 28.9997 30.9999C28.9997 31.3681 29.2984 31.6664 29.6665 31.6664H30.3333H30.333C30.7014 31.6664 30.9998 31.3681 30.9998 30.9999C30.9998 30.6318 30.7014 30.3331 30.333 30.3331Z" fill="url(#paint6_linear_5443_13713)"/>
<path d="M27 30.3331H26.3335C25.9654 30.3331 25.6667 30.6318 25.6667 30.9999C25.6667 31.3681 25.9654 31.6664 26.3335 31.6664H27.0003H27C27.3684 31.6664 27.6668 31.3681 27.6668 30.9999C27.6668 30.6318 27.3684 30.3331 27 30.3331Z" fill="url(#paint7_linear_5443_13713)"/>
<path d="M23.6662 30.3331H22.9997C22.6316 30.3331 22.3329 30.6318 22.3329 30.9999C22.3329 31.3681 22.6316 31.6664 22.9997 31.6664H23.6665H23.6662C24.0347 31.6664 24.333 31.3681 24.333 30.9999C24.333 30.6318 24.0347 30.3331 23.6662 30.3331Z" fill="url(#paint8_linear_5443_13713)"/>
<path d="M22.3332 28.3332C22.3332 27.9647 22.0348 27.6664 21.6667 27.6664C21.2983 27.6664 20.9999 27.9647 20.9999 28.3332V28.9999V28.9996C20.9999 29.3678 21.2983 29.6664 21.6667 29.6664C22.0348 29.6664 22.3332 29.3678 22.3332 28.9996V28.3332Z" fill="url(#paint9_linear_5443_13713)"/>
<path d="M33.6668 30.3331H33.0003C32.6318 30.3331 32.3335 30.6318 32.3335 30.9999C32.3335 31.3681 32.6318 31.6664 33.0003 31.6664H33.6671H33.6668C34.0349 31.6664 34.3335 31.3681 34.3335 30.9999C34.3335 30.6318 34.0349 30.3331 33.6668 30.3331Z" fill="url(#paint10_linear_5443_13713)"/>
<path d="M36.9997 30.3331H36.3333C35.9648 30.3331 35.6665 30.6318 35.6665 30.9999C35.6665 31.3681 35.9648 31.6664 36.3333 31.6664H37H36.9997C37.3679 31.6664 37.6665 31.3681 37.6665 30.9999C37.6665 30.6318 37.3679 30.3331 36.9997 30.3331Z" fill="url(#paint11_linear_5443_13713)"/>
<path d="M39.6666 31.6662H40.3334H40.3331C40.7012 31.6662 40.9999 31.3678 40.9999 30.9997C40.9999 30.6316 40.7012 30.3329 40.3331 30.3329H39.6666C39.2982 30.3329 38.9998 30.6316 38.9998 30.9997C38.9998 31.3678 39.2982 31.6662 39.6666 31.6662Z" fill="url(#paint12_linear_5443_13713)"/>
<path d="M41.6665 29.667C41.8433 29.667 42.013 29.5966 42.138 29.4716C42.2629 29.3466 42.3333 29.177 42.3333 29.0002V28.3337C42.3333 27.9653 42.0347 27.6669 41.6665 27.6669C41.2984 27.6669 41.0001 27.9653 41.0001 28.3337V29.0005V29.0002C41.0001 29.177 41.0702 29.3466 41.1951 29.4716C41.3201 29.5966 41.4898 29.667 41.6665 29.667Z" fill="url(#paint13_linear_5443_13713)"/>
<path d="M30.333 40.9999H29.6665C29.2984 40.9999 28.9997 41.2983 28.9997 41.6664C28.9997 42.0345 29.2984 42.3332 29.6665 42.3332H30.3333H30.333C30.7014 42.3332 30.9998 42.0345 30.9998 41.6664C30.9998 41.2983 30.7014 40.9999 30.333 40.9999Z" fill="url(#paint14_linear_5443_13713)"/>
<path d="M27 40.9999H26.3335C25.9654 40.9999 25.6667 41.2983 25.6667 41.6664C25.6667 42.0345 25.9654 42.3332 26.3335 42.3332H27.0003H27C27.3684 42.3332 27.6668 42.0345 27.6668 41.6664C27.6668 41.2983 27.3684 40.9999 27 40.9999Z" fill="url(#paint15_linear_5443_13713)"/>
<path d="M23.6662 40.9999H22.9997C22.6316 40.9999 22.3329 41.2983 22.3329 41.6664C22.3329 42.0345 22.6316 42.3332 22.9997 42.3332H23.6665H23.6662C24.0347 42.3332 24.333 42.0345 24.333 41.6664C24.333 41.2983 24.0347 40.9999 23.6662 40.9999Z" fill="url(#paint16_linear_5443_13713)"/>
<path d="M22.3332 38.9999C22.3332 38.6318 22.0348 38.3331 21.6667 38.3331C21.2983 38.3331 20.9999 38.6318 20.9999 38.9999V39.6667C20.9999 40.0349 21.2983 40.3332 21.6667 40.3332C22.0348 40.3332 22.3332 40.0349 22.3332 39.6667V38.9999Z" fill="url(#paint17_linear_5443_13713)"/>
<path d="M33.6668 40.9999H33.0003C32.6318 40.9999 32.3335 41.2983 32.3335 41.6664C32.3335 42.0345 32.6318 42.3332 33.0003 42.3332H33.6671H33.6668C34.0349 42.3332 34.3335 42.0345 34.3335 41.6664C34.3335 41.2983 34.0349 40.9999 33.6668 40.9999Z" fill="url(#paint18_linear_5443_13713)"/>
<path d="M36.9997 40.9999H36.3333C35.9648 40.9999 35.6665 41.2983 35.6665 41.6664C35.6665 42.0345 35.9648 42.3332 36.3333 42.3332H37H36.9997C37.3679 42.3332 37.6665 42.0345 37.6665 41.6664C37.6665 41.2983 37.3679 40.9999 36.9997 40.9999Z" fill="url(#paint19_linear_5443_13713)"/>
<path d="M40.3327 40.9999H39.6662C39.2978 40.9999 38.9995 41.2983 38.9995 41.6664C38.9995 42.0345 39.2978 42.3332 39.6662 42.3332H40.333H40.3327C40.7008 42.3332 40.9995 42.0345 40.9995 41.6664C40.9995 41.2983 40.7008 40.9999 40.3327 40.9999Z" fill="url(#paint20_linear_5443_13713)"/>
<path d="M41.6665 38.333C41.2984 38.333 41.0001 38.6317 41.0001 38.9998V39.6666C41.0001 40.0347 41.2984 40.3331 41.6665 40.3331C42.0347 40.3331 42.3333 40.0347 42.3333 39.6666V38.9998C42.3333 38.823 42.2629 38.6534 42.138 38.5284C42.013 38.4034 41.8433 38.333 41.6665 38.333Z" fill="url(#paint21_linear_5443_13713)"/>
<path d="M21.6671 37C21.8438 37 22.0135 36.9299 22.1385 36.8049C22.2634 36.6796 22.3335 36.5103 22.3335 36.3335V35.6667C22.3335 35.2986 22.0352 34.9999 21.6671 34.9999C21.2986 34.9999 21.0003 35.2986 21.0003 35.6667V36.3335C21.0003 36.5103 21.0707 36.6796 21.1957 36.8049C21.3206 36.9299 21.4903 37 21.6671 37Z" fill="url(#paint22_linear_5443_13713)"/>
<path d="M41.6665 35C41.2984 35 41.0001 35.2987 41.0001 35.6668V36.3336C41.0001 36.7017 41.2984 37.0001 41.6665 37.0001C42.0347 37.0001 42.3333 36.7017 42.3333 36.3336V35.6668C42.3333 35.49 42.2629 35.3204 42.138 35.1954C42.013 35.0704 41.8433 35 41.6665 35Z" fill="url(#paint23_linear_5443_13713)"/>
<defs>
<linearGradient id="paint0_linear_5443_13713" x1="37.6624" y1="33.6397" x2="37.6624" y2="41.6506" gradientUnits="userSpaceOnUse">
<stop stop-color="#ED3040"/>
<stop offset="1" stop-color="#2D23F4"/>
</linearGradient>
<linearGradient id="paint1_linear_5443_13713" x1="37.6624" y1="33.6397" x2="37.6624" y2="41.6506" gradientUnits="userSpaceOnUse">
<stop stop-color="#ED3040"/>
<stop offset="1" stop-color="#2D23F4"/>
</linearGradient>
<linearGradient id="paint2_linear_5443_13713" x1="37.6624" y1="33.6397" x2="37.6624" y2="41.6506" gradientUnits="userSpaceOnUse">
<stop stop-color="#ED3040"/>
<stop offset="1" stop-color="#2D23F4"/>
</linearGradient>
<linearGradient id="paint3_linear_5443_13713" x1="37.6624" y1="33.6397" x2="37.6624" y2="41.6506" gradientUnits="userSpaceOnUse">
<stop stop-color="#ED3040"/>
<stop offset="1" stop-color="#2D23F4"/>
</linearGradient>
<linearGradient id="paint4_linear_5443_13713" x1="37.6624" y1="33.6397" x2="37.6624" y2="41.6506" gradientUnits="userSpaceOnUse">
<stop stop-color="#ED3040"/>
<stop offset="1" stop-color="#2D23F4"/>
</linearGradient>
<linearGradient id="paint5_linear_5443_13713" x1="37.6624" y1="33.6397" x2="37.6624" y2="41.6506" gradientUnits="userSpaceOnUse">
<stop stop-color="#ED3040"/>
<stop offset="1" stop-color="#2D23F4"/>
</linearGradient>
<linearGradient id="paint6_linear_5443_13713" x1="37.6624" y1="33.6397" x2="37.6624" y2="41.6506" gradientUnits="userSpaceOnUse">
<stop stop-color="#ED3040"/>
<stop offset="1" stop-color="#2D23F4"/>
</linearGradient>
<linearGradient id="paint7_linear_5443_13713" x1="37.6624" y1="33.6397" x2="37.6624" y2="41.6506" gradientUnits="userSpaceOnUse">
<stop stop-color="#ED3040"/>
<stop offset="1" stop-color="#2D23F4"/>
</linearGradient>
<linearGradient id="paint8_linear_5443_13713" x1="37.6624" y1="33.6397" x2="37.6624" y2="41.6506" gradientUnits="userSpaceOnUse">
<stop stop-color="#ED3040"/>
<stop offset="1" stop-color="#2D23F4"/>
</linearGradient>
<linearGradient id="paint9_linear_5443_13713" x1="37.6624" y1="33.6397" x2="37.6624" y2="41.6506" gradientUnits="userSpaceOnUse">
<stop stop-color="#ED3040"/>
<stop offset="1" stop-color="#2D23F4"/>
</linearGradient>
<linearGradient id="paint10_linear_5443_13713" x1="37.6624" y1="33.6397" x2="37.6624" y2="41.6506" gradientUnits="userSpaceOnUse">
<stop stop-color="#ED3040"/>
<stop offset="1" stop-color="#2D23F4"/>
</linearGradient>
<linearGradient id="paint11_linear_5443_13713" x1="37.6624" y1="33.6397" x2="37.6624" y2="41.6506" gradientUnits="userSpaceOnUse">
<stop stop-color="#ED3040"/>
<stop offset="1" stop-color="#2D23F4"/>
</linearGradient>
<linearGradient id="paint12_linear_5443_13713" x1="37.6624" y1="33.6397" x2="37.6624" y2="41.6506" gradientUnits="userSpaceOnUse">
<stop stop-color="#ED3040"/>
<stop offset="1" stop-color="#2D23F4"/>
</linearGradient>
<linearGradient id="paint13_linear_5443_13713" x1="37.6624" y1="33.6397" x2="37.6624" y2="41.6506" gradientUnits="userSpaceOnUse">
<stop stop-color="#ED3040"/>
<stop offset="1" stop-color="#2D23F4"/>
</linearGradient>
<linearGradient id="paint14_linear_5443_13713" x1="37.6624" y1="33.6397" x2="37.6624" y2="41.6506" gradientUnits="userSpaceOnUse">
<stop stop-color="#ED3040"/>
<stop offset="1" stop-color="#2D23F4"/>
</linearGradient>
<linearGradient id="paint15_linear_5443_13713" x1="37.6624" y1="33.6397" x2="37.6624" y2="41.6506" gradientUnits="userSpaceOnUse">
<stop stop-color="#ED3040"/>
<stop offset="1" stop-color="#2D23F4"/>
</linearGradient>
<linearGradient id="paint16_linear_5443_13713" x1="37.6624" y1="33.6397" x2="37.6624" y2="41.6506" gradientUnits="userSpaceOnUse">
<stop stop-color="#ED3040"/>
<stop offset="1" stop-color="#2D23F4"/>
</linearGradient>
<linearGradient id="paint17_linear_5443_13713" x1="37.6624" y1="33.6397" x2="37.6624" y2="41.6506" gradientUnits="userSpaceOnUse">
<stop stop-color="#ED3040"/>
<stop offset="1" stop-color="#2D23F4"/>
</linearGradient>
<linearGradient id="paint18_linear_5443_13713" x1="37.6624" y1="33.6397" x2="37.6624" y2="41.6506" gradientUnits="userSpaceOnUse">
<stop stop-color="#ED3040"/>
<stop offset="1" stop-color="#2D23F4"/>
</linearGradient>
<linearGradient id="paint19_linear_5443_13713" x1="37.6624" y1="33.6397" x2="37.6624" y2="41.6506" gradientUnits="userSpaceOnUse">
<stop stop-color="#ED3040"/>
<stop offset="1" stop-color="#2D23F4"/>
</linearGradient>
<linearGradient id="paint20_linear_5443_13713" x1="37.6624" y1="33.6397" x2="37.6624" y2="41.6506" gradientUnits="userSpaceOnUse">
<stop stop-color="#ED3040"/>
<stop offset="1" stop-color="#2D23F4"/>
</linearGradient>
<linearGradient id="paint21_linear_5443_13713" x1="37.6624" y1="33.6397" x2="37.6624" y2="41.6506" gradientUnits="userSpaceOnUse">
<stop stop-color="#ED3040"/>
<stop offset="1" stop-color="#2D23F4"/>
</linearGradient>
<linearGradient id="paint22_linear_5443_13713" x1="37.6624" y1="33.6397" x2="37.6624" y2="41.6506" gradientUnits="userSpaceOnUse">
<stop stop-color="#ED3040"/>
<stop offset="1" stop-color="#2D23F4"/>
</linearGradient>
<linearGradient id="paint23_linear_5443_13713" x1="37.6624" y1="33.6397" x2="37.6624" y2="41.6506" gradientUnits="userSpaceOnUse">
<stop stop-color="#ED3040"/>
<stop offset="1" stop-color="#2D23F4"/>
</linearGradient>
</defs>
</svg>
