<svg width="50" height="50" viewBox="0 0 50 50" fill="none" xmlns="http://www.w3.org/2000/svg">
<path d="M44.5651 13.0669C44.826 13.0669 45 12.8891 45 12.6223V10.4445C45 10.1778 44.8261 10 44.5651 10L5.43487 10.0003C5.17395 10.0003 5 10.1781 5 10.4449V12.6227C5 12.8894 5.17394 13.0672 5.43487 13.0672H6.13065V36.9335L5.43487 36.9331C5.17395 36.9331 5 37.1109 5 37.3777V39.5555C5 39.8222 5.17394 40 5.43487 40H44.5651C44.826 40 45 39.8222 45 39.5555V37.3777C45 37.1109 44.8261 36.9331 44.5651 36.9331H43.8694V13.0669H44.5651ZM5.86981 10.8447H44.1302V12.1334L5.86971 12.1337L5.86981 10.8447ZM44.1302 39.111H5.86981V37.8223L44.1301 37.822L44.1302 39.111ZM42.9995 36.8889H7.00015V13.0676H42.9995V36.8889Z" fill="url(#paint0_linear_5443_13717)"/>
<path d="M8.43546 35.999H41.5223C41.7832 35.999 41.9571 35.8211 41.9571 35.5544V14.444C41.9571 14.1773 41.7832 13.9994 41.5223 13.9994L8.43546 13.9998C8.17455 13.9998 8.00059 14.1776 8.00059 14.4443V35.5548C8.00059 35.777 8.21802 35.999 8.43546 35.999ZM8.87033 14.8885H41.0872V35.1098H8.87033V14.8885Z" fill="url(#paint1_linear_5443_13717)"/>
<path d="M13.0006 28.3993C13.0876 28.3993 13.1746 28.3993 13.2181 28.3549L14.5223 27.5547L16.5224 30.9768C16.5658 31.0657 16.6963 31.1546 16.7833 31.1991H16.8702C16.9572 31.1991 17.0442 31.1991 17.0877 31.1546L18.6529 30.2215C18.8703 30.0882 18.9138 29.8214 18.7833 29.5992L16.8268 26.266L21.2179 25.3329L21.2614 25.4218C21.3049 25.5107 21.4353 25.5996 21.5223 25.644H21.6093C21.6962 25.644 21.7832 25.644 21.8267 25.5996L22.957 24.9328C23.1744 24.7995 23.2179 24.5328 23.0875 24.3105L18.7833 16.7552C18.7399 16.6663 18.6094 16.5773 18.5224 16.5329C18.392 16.4884 18.305 16.5329 18.1745 16.5774L17.0442 17.2441C16.8268 17.3775 16.7833 17.6442 16.9137 17.8664L16.9572 17.9553L13.8269 21.733C13.7834 21.733 13.7835 21.733 13.74 21.7775L10.5227 23.733C10.4357 23.7775 10.3487 23.9108 10.3052 23.9997C10.2618 24.1331 10.3052 24.222 10.3487 24.3553L12.5662 28.1774C12.6097 28.2663 12.7401 28.3552 12.8271 28.3997C12.9141 28.3994 12.9572 28.3993 13.0006 28.3993ZM18.2615 17.5993L22.1746 24.3545L21.7832 24.5768L17.8701 17.8215L18.2615 17.5993ZM17.0442 30.1768L15.2617 27.1103L16.0879 26.6214L17.8705 29.6879L17.0442 30.1768ZM16.3923 25.4212L14.5662 22.3103L17.4791 18.8437L20.7834 24.5325L16.3923 25.4212ZM11.3486 24.3103L13.827 22.7992L15.6096 25.8657L14.4357 26.577L13.1315 27.3771L11.3486 24.3103Z" fill="url(#paint2_linear_5443_13717)"/>
<path d="M21.3914 20.266C21.4784 20.3994 21.6089 20.4883 21.7828 20.4883C21.8698 20.4883 21.9568 20.4883 22.0002 20.4438L22.9131 19.9104C23.1305 19.777 23.174 19.5103 23.0436 19.2881C22.9131 19.0658 22.6522 19.0214 22.4348 19.1547L21.5219 19.644C21.3479 19.7774 21.261 20.0437 21.3914 20.266Z" fill="url(#paint3_linear_5443_13717)"/>
<path d="M20.5656 18.3112H20.6525C20.8265 18.3112 21.0439 18.1778 21.0874 17.9556L21.3483 16.9335C21.3918 16.7113 21.2613 16.4446 21.0439 16.4001C20.8265 16.3557 20.5656 16.489 20.5221 16.7113L20.2612 17.7333C20.2177 18.0004 20.3481 18.2223 20.5656 18.3112Z" fill="url(#paint4_linear_5443_13717)"/>
<path d="M22.6963 21.9553C22.6528 22.1776 22.7832 22.4443 23.0007 22.4887L24.0005 22.7554H24.0875C24.2614 22.7554 24.4789 22.6221 24.5224 22.3998C24.5658 22.1776 24.4354 21.9108 24.218 21.8664L23.2181 21.5997C23.0007 21.5556 22.7397 21.6886 22.6963 21.9553Z" fill="url(#paint5_linear_5443_13717)"/>
<path d="M10.1312 31.9993C9.87031 31.9993 9.69636 32.1771 9.69636 32.4439V33.5993C9.69636 33.866 9.8703 34.0438 10.1312 34.0438C10.3921 34.0438 10.5661 33.866 10.5661 33.5993V32.4439C10.5661 32.1771 10.3921 31.9993 10.1312 31.9993Z" fill="url(#paint6_linear_5443_13717)"/>
<path d="M11.6087 31.9993C11.3477 31.9993 11.1738 32.1771 11.1738 32.4439V33.5993C11.1738 33.866 11.3477 34.0438 11.6087 34.0438C11.8696 34.0438 12.0435 33.866 12.0435 33.5993V32.4439C12.0435 32.1771 11.8261 31.9993 11.6087 31.9993Z" fill="url(#paint7_linear_5443_13717)"/>
<path d="M36.5221 32.5321H21.1748V32.3988C21.1748 32.1321 21.0009 31.9543 20.74 31.9543C20.479 31.9543 20.3051 32.1321 20.3051 32.3988V32.5321H13.2617C13.0008 32.5321 12.8268 32.71 12.8268 32.9767C12.8268 33.2434 13.0008 33.4212 13.2617 33.4212H20.3051V33.5545C20.3051 33.8212 20.479 33.9991 20.74 33.9991C21.0009 33.9991 21.1748 33.8213 21.1748 33.5545V33.4212H36.5221C36.783 33.4212 36.957 33.2434 36.957 32.9767C36.957 32.71 36.7831 32.5321 36.5221 32.5321Z" fill="url(#paint8_linear_5443_13717)"/>
<path d="M39.8696 31.8661H38.0871C37.8261 31.8661 37.6522 32.0439 37.6522 32.3106V33.6883C37.6522 33.955 37.8261 34.1328 38.0871 34.1328H39.8696C40.1306 34.1328 40.3045 33.955 40.3045 33.6883V32.3106C40.3045 32.0439 40.0871 31.8661 39.8696 31.8661ZM39.4348 33.2438H38.5219V32.7548H39.4348V33.2438Z" fill="url(#paint9_linear_5443_13717)"/>
<path d="M39.8696 30.0886H39.4348V18.7999C39.4348 18.5332 39.2608 18.3554 38.9999 18.3554H37.1303C36.8694 18.3554 36.6955 18.5332 36.6955 18.7999V30.0886H36.2171L36.2175 22.4444C36.2175 22.1776 36.0435 21.9998 35.7826 21.9998H33.913C33.6521 21.9998 33.4782 22.1776 33.4782 22.4444V30.0886H32.9998L33.0001 20.8888C33.0001 20.6221 32.8262 20.4443 32.5653 20.4443H30.6957C30.4348 20.4443 30.2608 20.6221 30.2608 20.8888V30.0886H29.7825L29.7828 24.9777C29.7828 24.711 29.6089 24.5332 29.348 24.5332H27.4784C27.2175 24.5332 27.0435 24.711 27.0435 24.9777V30.0886H26.4782L26.4785 16.2664C26.4785 15.9997 26.3046 15.8219 26.0437 15.8219C25.7828 15.8219 25.6088 15.9997 25.6088 16.2664V30.5323C25.6088 30.799 25.7828 30.9769 26.0437 30.9769H39.8695C40.1305 30.9769 40.3044 30.7991 40.3044 30.5323C40.3044 30.266 40.087 30.0882 39.8695 30.0882L39.8696 30.0886ZM28.0002 30.0886V25.4219H29V30.0883L28.0002 30.0886ZM31.2175 30.0886V21.3334H32.2173V30.0886H31.2175ZM34.3912 30.0886V22.8889H35.3911V30.0886H34.3912ZM37.565 30.0886V19.2445H38.5649V30.0886H37.565Z" fill="url(#paint10_linear_5443_13717)"/>
<path d="M28.4783 20.4001C28.5652 20.4001 28.6957 20.3556 28.7827 20.2667L31.7391 17.4225L34.652 19.1114C34.7824 19.2003 34.9999 19.2003 35.1303 19.0669L38.3041 16.6224C38.4781 16.4891 38.5216 16.1779 38.3911 16.0001C38.2606 15.8223 37.9562 15.7779 37.7823 15.9112L34.8259 18.1779L31.8695 16.489C31.6955 16.4001 31.4781 16.4001 31.3476 16.5335L28.2173 19.6448C28.0434 19.8226 28.0434 20.0893 28.2173 20.2671C28.2608 20.3557 28.3913 20.4001 28.4783 20.4001Z" fill="url(#paint11_linear_5443_13717)"/>
<defs>
<linearGradient id="paint0_linear_5443_13717" x1="37.6624" y1="31.4797" x2="37.6624" y2="37.4879" gradientUnits="userSpaceOnUse">
<stop stop-color="#ED3040"/>
<stop offset="1" stop-color="#2D23F4"/>
</linearGradient>
<linearGradient id="paint1_linear_5443_13717" x1="37.6624" y1="31.4797" x2="37.6624" y2="37.4879" gradientUnits="userSpaceOnUse">
<stop stop-color="#ED3040"/>
<stop offset="1" stop-color="#2D23F4"/>
</linearGradient>
<linearGradient id="paint2_linear_5443_13717" x1="37.6624" y1="31.4797" x2="37.6624" y2="37.4879" gradientUnits="userSpaceOnUse">
<stop stop-color="#ED3040"/>
<stop offset="1" stop-color="#2D23F4"/>
</linearGradient>
<linearGradient id="paint3_linear_5443_13717" x1="37.6624" y1="31.4797" x2="37.6624" y2="37.4879" gradientUnits="userSpaceOnUse">
<stop stop-color="#ED3040"/>
<stop offset="1" stop-color="#2D23F4"/>
</linearGradient>
<linearGradient id="paint4_linear_5443_13717" x1="37.6624" y1="31.4797" x2="37.6624" y2="37.4879" gradientUnits="userSpaceOnUse">
<stop stop-color="#ED3040"/>
<stop offset="1" stop-color="#2D23F4"/>
</linearGradient>
<linearGradient id="paint5_linear_5443_13717" x1="37.6624" y1="31.4797" x2="37.6624" y2="37.4879" gradientUnits="userSpaceOnUse">
<stop stop-color="#ED3040"/>
<stop offset="1" stop-color="#2D23F4"/>
</linearGradient>
<linearGradient id="paint6_linear_5443_13717" x1="37.6624" y1="31.4797" x2="37.6624" y2="37.4879" gradientUnits="userSpaceOnUse">
<stop stop-color="#ED3040"/>
<stop offset="1" stop-color="#2D23F4"/>
</linearGradient>
<linearGradient id="paint7_linear_5443_13717" x1="37.6624" y1="31.4797" x2="37.6624" y2="37.4879" gradientUnits="userSpaceOnUse">
<stop stop-color="#ED3040"/>
<stop offset="1" stop-color="#2D23F4"/>
</linearGradient>
<linearGradient id="paint8_linear_5443_13717" x1="37.6624" y1="31.4797" x2="37.6624" y2="37.4879" gradientUnits="userSpaceOnUse">
<stop stop-color="#ED3040"/>
<stop offset="1" stop-color="#2D23F4"/>
</linearGradient>
<linearGradient id="paint9_linear_5443_13717" x1="37.6624" y1="31.4797" x2="37.6624" y2="37.4879" gradientUnits="userSpaceOnUse">
<stop stop-color="#ED3040"/>
<stop offset="1" stop-color="#2D23F4"/>
</linearGradient>
<linearGradient id="paint10_linear_5443_13717" x1="37.6624" y1="31.4797" x2="37.6624" y2="37.4879" gradientUnits="userSpaceOnUse">
<stop stop-color="#ED3040"/>
<stop offset="1" stop-color="#2D23F4"/>
</linearGradient>
<linearGradient id="paint11_linear_5443_13717" x1="37.6624" y1="31.4797" x2="37.6624" y2="37.4879" gradientUnits="userSpaceOnUse">
<stop stop-color="#ED3040"/>
<stop offset="1" stop-color="#2D23F4"/>
</linearGradient>
</defs>
</svg>
