<svg width="50" height="50" viewBox="0 0 50 50" fill="none" xmlns="http://www.w3.org/2000/svg">
<path d="M44.3955 20.4446H39.4146C39.0808 20.4446 38.8101 20.715 38.8101 21.0484V43.8961C38.8101 44.2296 39.0808 44.5 39.4146 44.5H44.3955C44.7293 44.5 45 44.2296 45 43.8961V21.0484C45 20.715 44.7293 20.4446 44.3955 20.4446ZM43.791 43.2914H40.0191L40.0194 21.6524H43.7913L43.791 43.2914Z" fill="url(#paint0_linear_5443_13669)"/>
<path d="M35.6464 44.4993C35.9802 44.4993 36.2509 44.2289 36.2509 43.8954V27.5872C36.2509 27.2537 35.9802 26.9833 35.6464 26.9833H30.6655C30.3317 26.9833 30.061 27.2537 30.061 27.5872V43.8954C30.061 44.2289 30.3317 44.4993 30.6655 44.4993H35.6464ZM31.27 28.1911H35.0418V43.2922H31.27V28.1911Z" fill="url(#paint1_linear_5443_13669)"/>
<path d="M26.8965 44.4993C27.2303 44.4993 27.501 44.2289 27.501 43.8954V33.5999C27.501 33.2664 27.2303 32.996 26.8965 32.996H21.9156C21.5818 32.996 21.3111 33.2664 21.3111 33.5999V43.8954C21.3111 44.2289 21.5818 44.4993 21.9156 44.4993H26.8965ZM22.5204 34.2038H26.2922V43.2914H22.5204V34.2038Z" fill="url(#paint2_linear_5443_13669)"/>
<path d="M18.1474 44.4993C18.4812 44.4993 18.7519 44.2289 18.7519 43.8954V38.222C18.7519 37.8886 18.4812 37.6181 18.1474 37.6181L13.1665 37.6185C12.8327 37.6185 12.562 37.8889 12.562 38.2223V43.8957C12.562 44.2292 12.8327 44.4996 13.1665 44.4996L18.1474 44.4993ZM13.771 38.8262H17.5428V43.2915H13.771V38.8262Z" fill="url(#paint3_linear_5443_13669)"/>
<path d="M15.0129 25.5048C20.5342 25.5048 25.0257 21.0179 25.0257 15.5024C25.0254 9.98714 20.5335 5.5 15.0129 5.5C9.49152 5.5 5 9.98722 5 15.5024C5 21.0176 9.49192 25.5048 15.0129 25.5048ZM15.0129 6.70784C19.8675 6.70784 23.8174 10.653 23.8174 15.5032C23.8174 20.3524 19.8679 24.2977 15.0129 24.2977C10.1582 24.2974 6.2083 20.3523 6.2083 15.5032C6.2083 10.6533 10.1579 6.70784 15.0129 6.70784Z" fill="url(#paint4_linear_5443_13669)"/>
<path d="M15.074 22.6691C19.0302 22.6691 22.2487 19.454 22.2487 15.5022C22.2487 11.5502 19.0302 8.33504 15.074 8.33504C11.1178 8.33473 7.89927 11.5502 7.89927 15.5022C7.89927 19.454 11.1178 22.6691 15.074 22.6691ZM15.074 9.24076C18.5299 9.24076 21.3418 12.0497 21.3418 15.5023C21.3418 18.9546 18.5299 21.7635 15.074 21.7635C11.6177 21.7632 8.80618 18.9544 8.80618 15.5023C8.80618 12.0497 11.6177 9.24076 15.074 9.24076Z" fill="url(#paint5_linear_5443_13669)"/>
<path d="M41.9885 13.3493L39.7118 12.9224C39.4663 12.8772 39.2288 13.0381 39.1827 13.2841C39.1365 13.5297 39.2986 13.7666 39.5445 13.8127L40.8069 14.0492L15.7445 32.6614L14.0757 30.4815C14.001 30.3836 13.8895 30.3205 13.767 30.3067C13.6452 30.2939 13.5221 30.329 13.4269 30.4074L6.65734 35.9885C6.46422 36.1479 6.43689 36.433 6.59611 36.6263C6.75564 36.8195 7.04172 36.8459 7.23422 36.6875L13.6411 31.405L15.2957 33.5668C15.4465 33.7635 15.7272 33.8024 15.9263 33.6552L41.2435 14.8535L41.0306 15.986C40.9844 16.2316 41.1465 16.4685 41.3923 16.5146C41.636 16.5604 41.875 16.4007 41.9215 16.1529L42.3492 13.8782C42.3495 13.8766 42.3489 13.8748 42.3492 13.8732C42.3935 13.6131 42.2066 13.3907 41.9881 13.3493L41.9885 13.3493Z" fill="url(#paint6_linear_5443_13669)"/>
<path d="M15.074 18.3485C14.4547 18.3485 13.9513 17.8453 13.9513 17.227C13.9513 16.8935 13.6806 16.6231 13.3468 16.6231C13.013 16.6231 12.7423 16.8935 12.7423 17.227C12.7423 18.3334 13.5201 19.2576 14.5567 19.4939V19.8192C14.5567 20.1526 14.8274 20.4231 15.1612 20.4231C15.4951 20.4231 15.7657 20.1526 15.7657 19.8192V19.4396C16.7122 19.1431 17.4056 18.2692 17.4056 17.227C17.4056 15.9427 16.3595 14.8974 15.0739 14.8974C14.4546 14.8974 13.9512 14.3943 13.9512 13.7759C13.9512 13.1576 14.4549 12.6544 15.0739 12.6544C15.6932 12.6544 16.1966 13.1576 16.1966 13.7759C16.1966 14.1094 16.4673 14.3798 16.8011 14.3798C17.1349 14.3798 17.4056 14.1094 17.4056 13.7759C17.4056 12.7018 16.6701 11.804 15.6784 11.5361V11.1835C15.6784 10.85 15.4077 10.5796 15.0739 10.5796C14.7401 10.5796 14.4694 10.85 14.4694 11.1835V11.5361C13.4777 11.804 12.7423 12.7015 12.7423 13.7759C12.7423 15.0602 13.7883 16.1052 15.074 16.1052C15.6932 16.1052 16.1967 16.6084 16.1967 17.227C16.1967 17.8453 15.6929 18.3485 15.074 18.3485Z" fill="url(#paint7_linear_5443_13669)"/>
<defs>
<linearGradient id="paint0_linear_5443_13669" x1="0" y1="0" x2="0" y2="1" gradientUnits="objectBoundingBox">
<stop stop-color="#ED3040"/>
<stop offset="1" stop-color="#2D23F4"/>
</linearGradient>
<linearGradient id="paint1_linear_5443_13669" x1="0" y1="0" x2="0" y2="1" gradientUnits="objectBoundingBox">
<stop stop-color="#ED3040"/>
<stop offset="1" stop-color="#2D23F4"/>
</linearGradient>
<linearGradient id="paint2_linear_5443_13669" x1="0" y1="0" x2="0" y2="1" gradientUnits="objectBoundingBox">
<stop stop-color="#ED3040"/>
<stop offset="1" stop-color="#2D23F4"/>
</linearGradient>
<linearGradient id="paint3_linear_5443_13669" x1="0" y1="0" x2="0" y2="1" gradientUnits="objectBoundingBox">
<stop stop-color="#ED3040"/>
<stop offset="1" stop-color="#2D23F4"/>
</linearGradient>
<linearGradient id="paint4_linear_5443_13669" x1="0" y1="0" x2="0" y2="1" gradientUnits="objectBoundingBox">
<stop stop-color="#ED3040"/>
<stop offset="1" stop-color="#2D23F4"/>
</linearGradient>
<linearGradient id="paint5_linear_5443_13669" x1="0" y1="0" x2="0" y2="1" gradientUnits="objectBoundingBox">
<stop stop-color="#ED3040"/>
<stop offset="1" stop-color="#2D23F4"/>
</linearGradient>
<linearGradient id="paint6_linear_5443_13669" x1="0" y1="0" x2="0" y2="1" gradientUnits="objectBoundingBox">
<stop stop-color="#ED3040"/>
<stop offset="1" stop-color="#2D23F4"/>
</linearGradient>
<linearGradient id="paint7_linear_5443_13669" x1="0" y1="0" x2="0" y2="1" gradientUnits="objectBoundingBox">
<stop stop-color="#ED3040"/>
<stop offset="1" stop-color="#2D23F4"/>
</linearGradient>
</defs>
</svg>
