<svg width="50" height="50" viewBox="0 0 50 50" fill="none" xmlns="http://www.w3.org/2000/svg">
<path d="M33.6127 26.5713C33.6127 28.4489 35.12 29.9774 36.9716 29.9774C38.8231 29.9774 40.3304 28.4489 40.3304 26.5713C40.3304 24.6937 38.8231 23.1652 36.9716 23.1652C35.12 23.1652 33.6127 24.6937 33.6127 26.5713ZM38.9955 26.5713C38.9955 27.7068 38.0913 28.6673 36.9286 28.6673C35.766 28.6673 34.9047 27.7068 34.9047 26.5713C34.9047 25.4359 35.8089 24.4753 36.9716 24.4753C38.1342 24.4753 38.9955 25.4359 38.9955 26.5713ZM34.0003 35.7413H35.5505V44.3439C35.5505 44.6934 35.2492 44.999 34.9046 44.999C34.56 44.999 34.2587 44.6934 34.2587 44.3439V37.0513H34.0003C33.6557 37.0513 33.3544 36.7457 33.3544 36.3963C33.3544 36.0472 33.6127 35.7413 34.0003 35.7413ZM39.8999 37.0513H39.6415V44.3439C39.6415 44.6934 39.3402 44.999 38.9956 44.999C38.651 44.999 38.3497 44.7369 38.3497 44.3439V35.7413H39.8999C40.2445 35.7413 40.5458 36.0468 40.5458 36.3963C40.5458 36.7457 40.2874 37.0513 39.8999 37.0513ZM13.0297 29.9335C14.8812 29.9335 16.3885 28.405 16.3885 26.5274C16.3885 24.6498 14.8812 23.1213 13.0297 23.1213C11.1781 23.1213 9.67082 24.6498 9.67082 26.5274C9.67082 28.405 11.221 29.9335 13.0297 29.9335ZM13.0297 24.475C14.1494 24.475 15.0966 25.392 15.0966 26.571C15.0966 27.75 14.1923 28.667 13.0297 28.667C11.867 28.667 10.9627 27.75 10.9627 26.571C10.9627 25.392 11.91 24.475 13.0297 24.475ZM10.1013 35.7416H11.6516V44.3443C11.6516 44.6937 11.3503 44.9993 11.0057 44.9993C10.6614 44.9993 10.3597 44.7373 10.3597 44.3443V37.0516H10.1014C9.75676 37.0516 9.45545 36.7461 9.45545 36.3966C9.45545 36.0475 9.7138 35.7416 10.1013 35.7416ZM16.0009 37.0516H15.7426V44.3443C15.7426 44.6937 15.4412 44.9993 15.0966 44.9993C14.752 44.9993 14.4507 44.6937 14.4507 44.3443V35.7416H16.0009C16.3455 35.7416 16.6469 36.0472 16.6469 36.3966C16.6469 36.7461 16.3885 37.0516 16.0009 37.0516ZM34.0003 42.5977C34.0003 42.9471 33.699 43.2527 33.3544 43.2527H30.8999V42.1172H32.9668V41.9427H33.3544C33.699 41.9427 34.0003 42.2047 34.0003 42.5977ZM43 36.7025V43.2091H40.5455C40.2009 43.2091 39.8996 42.9035 39.8996 42.5541C39.8996 42.2046 40.2009 41.8991 40.5455 41.8991H41.7081V36.7025C41.7081 34.3009 39.7703 32.2919 37.3588 32.2919H36.5407C35.0335 32.2919 33.7416 33.0344 32.9666 34.2135V33.4274C32.9666 33.078 32.9236 32.7289 32.8803 32.3794C33.8708 31.506 35.1627 30.9819 36.5404 30.9819H37.3585C40.4593 31.0255 43 33.5584 43 36.7025ZM17.0334 42.0736H19.1004V43.2091H16.6459C16.3013 43.2091 15.9999 42.9035 15.9999 42.5541C15.9999 42.2046 16.3013 41.8991 16.6459 41.8991H17.0334L17.0334 42.0736ZM13.4592 32.3357H12.6412C10.2729 32.3357 8.29184 34.3008 8.29184 36.7463V41.9429H9.45449C9.7991 41.9429 10.1004 42.2484 10.1004 42.5979C10.1004 42.9473 9.7991 43.2529 9.45449 43.2529H7V36.7028C7 33.5587 9.54073 30.9822 12.6412 30.9822H13.4592C14.8373 30.9822 16.1292 31.5062 17.1193 32.3796C17.0764 32.7291 17.0331 33.0782 17.0331 33.4277V34.2137C16.2583 33.0782 14.9235 32.3357 13.4592 32.3357ZM24.9998 17.4009C22.8467 17.4009 21.1243 19.1476 21.1243 21.331C21.1243 23.5145 22.8467 25.2611 24.9998 25.2611C27.153 25.2611 28.8754 23.5145 28.8754 21.331C28.8754 19.1476 27.1527 17.4009 24.9998 17.4009ZM24.9998 23.9511C23.5788 23.9511 22.4162 22.7721 22.4162 21.331C22.4162 19.89 23.5788 18.711 24.9998 18.711C26.4209 18.711 27.5835 19.89 27.5835 21.331C27.5835 22.7721 26.4209 23.9511 24.9998 23.9511ZM32.105 41.2004H29.3059C28.9613 41.2004 28.66 40.8948 28.66 40.5453C28.66 40.1959 28.9613 39.8903 29.3059 39.8903H30.8132V33.5148C30.8132 30.5452 28.4016 28.1001 25.4737 28.1001H24.5264C21.5981 28.1001 19.1869 30.5456 19.1869 33.5148V39.8903H20.6935C21.0381 39.8903 21.3394 40.1959 21.3394 40.5453C21.3394 40.8948 21.0381 41.2004 20.6935 41.2004H17.8944L17.8947 33.5148C17.8947 29.8031 20.866 26.7901 24.5261 26.7901H25.4733C29.1334 26.7901 32.1047 29.8031 32.1047 33.5148L32.105 41.2004ZM21.4689 32.4668H23.1913V44.345C23.1913 44.6944 22.89 45 22.5454 45C22.2008 45 21.8995 44.6944 21.8995 44.345L21.8998 33.777H21.4693C21.1247 33.777 20.8234 33.4714 20.8234 33.1219C20.823 32.7725 21.0814 32.4669 21.469 32.4669L21.4689 32.4668ZM28.5312 33.7769H28.1007V44.3449C28.1007 44.6944 27.7993 44.9999 27.4547 44.9999C27.1101 44.9999 26.8088 44.6944 26.8088 44.3449V32.4668H28.5312C28.8758 32.4668 29.1771 32.7723 29.1771 33.1218C29.1771 33.4712 28.9187 33.7768 28.5312 33.7768L28.5312 33.7769ZM19.833 17.0955C20.2205 17.5321 20.651 17.8816 21.1248 18.1871C21.3832 17.8376 21.7278 17.5321 22.072 17.2701C21.8137 17.0956 21.5553 16.9645 21.2969 16.7461C21.8137 16.5276 22.3304 16.3531 22.8472 16.2221C22.9334 16.3966 22.9763 16.5276 23.0626 16.7025C23.4501 16.528 23.8806 16.397 24.3544 16.3531C24.3115 16.2221 24.2252 16.0911 24.1823 16.0036C24.699 15.9601 25.2587 15.9601 25.7755 16.0036C25.7325 16.1346 25.6463 16.2656 25.6033 16.3531C26.0338 16.3966 26.4646 16.5276 26.8952 16.7025C26.9814 16.528 27.0673 16.397 27.1106 16.2221C27.6273 16.3531 28.1441 16.5276 28.6608 16.7461C28.4025 16.9645 28.1441 17.0956 27.8857 17.2701C28.2303 17.5321 28.5746 17.8377 28.8762 18.2307C29.3067 17.9687 29.6513 17.6631 30.0389 17.2701L30.211 17.0956C30.254 17.052 30.2972 17.0081 30.3402 16.9646C31.5028 15.6545 32.1488 13.9515 32.1488 12.2048C32.1488 10.3708 31.4599 8.71135 30.3831 7.44513C30.3402 7.35769 30.2969 7.31413 30.211 7.27058C28.9192 5.87309 27.1106 5 25.0866 5H25.0436H25.0007C22.9767 5 21.1681 5.87344 19.8763 7.27058L19.7041 7.44513C18.5844 8.71161 17.9385 10.3708 17.9385 12.2048C17.9385 14.0389 18.6273 15.6983 19.7041 16.9646C19.7038 17.0081 19.7468 17.0517 19.833 17.0955ZM26.2922 14.7375C25.4309 14.6501 24.5698 14.6501 23.7515 14.7375C23.5793 14.1261 23.4501 13.471 23.4069 12.8599H26.6365C26.5936 13.471 26.4643 14.126 26.2922 14.7375ZM23.3639 11.5495C23.4068 10.8945 23.536 10.283 23.7085 9.67188C24.139 9.71543 24.5698 9.75933 25.0003 9.75933C25.4309 9.75933 25.8616 9.71577 26.2492 9.67188C26.4214 10.2833 26.5505 10.9384 26.5938 11.5495H23.3639ZM29.6077 15.7855C28.9618 15.4361 28.273 15.1741 27.5408 14.9995C27.7563 14.3009 27.8422 13.602 27.8854 12.8599H30.7275C30.6413 13.9076 30.2537 14.9121 29.6077 15.7855ZM30.7704 11.5495H27.9283C27.8854 10.807 27.7562 10.1085 27.5837 9.40994C28.2726 9.23538 28.9618 8.97338 29.6506 8.62392C30.2536 9.4535 30.6412 10.4579 30.7704 11.5495ZM28.6605 7.61942C28.1438 7.83787 27.6271 8.01243 27.1103 8.14343C26.9382 7.70687 26.7228 7.26999 26.4644 6.8334L26.206 6.39684C27.1103 6.61529 27.9717 7.05186 28.6605 7.61942ZM24.6558 7.53231L25.0004 6.92085L25.345 7.53231C25.5172 7.79432 25.6463 8.09988 25.7755 8.40575C25.2588 8.44931 24.6991 8.44931 24.1823 8.40575C24.3545 8.09985 24.4837 7.79429 24.6558 7.53231ZM23.7945 6.4404L23.5361 6.87697C23.2778 7.31353 23.0623 7.75041 22.8902 8.18699C22.3735 8.05599 21.8568 7.88144 21.34 7.66298C22.0292 7.05186 22.8902 6.61532 23.7945 6.4404ZM20.3927 8.62387C21.0386 8.97333 21.7275 9.23533 22.4596 9.40989C22.2442 10.1085 22.1583 10.8509 22.115 11.5495H19.2729C19.3592 10.4579 19.7468 9.4535 20.3927 8.62387ZM22.0721 12.8595C22.1151 13.5581 22.2443 14.3006 22.4167 14.9991C21.7279 15.1737 21.0386 15.4357 20.3498 15.7851C19.7039 14.9555 19.3164 13.951 19.1872 12.8595L22.0721 12.8595ZM12.4265 16.5276V13.9075C12.4265 13.5581 12.7278 13.2525 13.0724 13.2525C13.417 13.2525 13.7183 13.5581 13.7183 13.9075V16.5276C13.7183 16.877 13.417 17.1826 13.0724 17.1826C12.7281 17.1826 12.4265 16.9206 12.4265 16.5276ZM12.4265 21.3312V18.7112C12.4265 18.3617 12.7278 18.0561 13.0724 18.0561C13.417 18.0561 13.7183 18.3617 13.7183 18.7112V21.3312C13.7183 21.6807 13.417 21.9862 13.0724 21.9862C12.7281 21.9862 12.4265 21.7242 12.4265 21.3312ZM12.9432 12.2919C12.9432 11.9425 13.2445 11.6369 13.5891 11.6369H16.0007C16.3453 11.6369 16.6466 11.9425 16.6466 12.2919C16.6466 12.6414 16.3453 12.9469 16.0007 12.9469H13.5891C13.2449 12.9469 12.9432 12.6849 12.9432 12.2919ZM33.4835 12.5104C33.4835 12.1609 33.7848 11.8554 34.1294 11.8554H36.541C36.8856 11.8554 37.1869 12.1609 37.1869 12.5104C37.1869 12.8598 36.8856 13.1654 36.541 13.1654H34.1294C33.7419 13.1654 33.4835 12.9034 33.4835 12.5104ZM37.1006 22.2047C36.756 22.2047 36.4547 21.8992 36.4547 21.5497V18.9296C36.4547 18.5802 36.756 18.2746 37.1006 18.2746C37.4452 18.2746 37.7466 18.5802 37.7466 18.9296V21.5497C37.7466 21.9427 37.4452 22.2047 37.1006 22.2047ZM37.1006 13.4712C37.4452 13.4712 37.7466 13.7768 37.7466 14.1262V16.7463C37.7466 17.0957 37.4452 17.4013 37.1006 17.4013C36.756 17.4013 36.4547 17.0957 36.4547 16.7463V14.1262C36.4547 13.7768 36.7131 13.4712 37.1006 13.4712Z" fill="url(#paint0_linear_5443_13665)"/>
<defs>
<linearGradient id="paint0_linear_5443_13665" x1="36.3962" y1="33.6397" x2="36.3962" y2="41.6506" gradientUnits="userSpaceOnUse">
<stop stop-color="#ED3040"/>
<stop offset="1" stop-color="#2D23F4"/>
</linearGradient>
</defs>
</svg>
