<svg width="50" height="50" viewBox="0 0 50 50" fill="none" xmlns="http://www.w3.org/2000/svg">
<path d="M43.9945 23.4257H43.1813V19.1292C43.1813 17.8776 42.1697 16.8581 40.9277 16.8581H40.262V10.3484C40.262 9.09676 39.2504 8.07731 38.0084 8.07731L30.819 8.09679C29.942 6.2648 28.0916 5 25.9471 5C23.7895 5 21.9267 6.27731 21.056 8.12249L16.4272 8.13536C15.5181 8.14196 14.7306 8.3417 14.0714 8.72236C13.6937 8.94158 13.348 9.20635 13.0535 9.50942C12.1444 10.419 11.6451 11.6448 11.6385 12.9225C11.6385 12.9354 11.632 12.9482 11.632 12.9548V17.9162C11.632 18.1807 11.8495 18.4002 12.1123 18.4002C12.3747 18.4002 12.5925 18.181 12.5925 17.9162V15.871C13.4057 16.9678 14.6732 17.7033 16.1071 17.813C16.2863 17.8324 16.4655 17.8453 16.645 17.8453H39.7691C39.7818 17.8453 39.7946 17.8387 39.814 17.8387H40.9216C41.6322 17.8387 42.2147 18.4257 42.2147 19.1418V23.4387H38.2837C36.0494 23.4387 34.2312 25.271 34.2312 27.5225C34.2312 29.7741 36.0495 31.6064 38.2837 31.6064H42.2147V36.8128C42.2147 37.5289 41.6322 38.1159 40.9216 38.1159L26.4209 38.1162C26.1584 38.1162 25.9406 38.3355 25.9406 38.6002C25.9406 38.8647 26.1581 39.0842 26.4209 39.0842H40.9216C42.1636 39.0842 43.1752 38.0648 43.1752 36.8132V31.6067H43.9883C44.5453 31.6067 44.9999 31.1488 44.9999 30.581V24.4585C45.0058 23.884 44.5514 23.4257 43.9945 23.4257ZM25.947 5.96785C28.3988 5.96785 30.3962 7.98071 30.3962 10.4582C30.3962 10.8259 30.3513 11.1871 30.2681 11.5354H21.6197C21.5365 11.1934 21.4916 10.8322 21.4916 10.4582C21.4851 7.9808 23.489 5.96785 25.9474 5.96785H25.947ZM13.7383 10.1871C13.9752 9.94182 14.2504 9.7292 14.5515 9.55489C15.0635 9.25809 15.6974 9.10324 16.4335 9.09697L20.7036 9.0841C20.5883 9.52286 20.5244 9.98074 20.5244 10.4519C20.5244 10.8197 20.5693 11.1746 20.6397 11.5292H16.235C15.9725 11.5292 15.7547 11.7484 15.7547 12.0132C15.7547 12.2776 15.9722 12.4972 16.235 12.4972H35.6394C35.9019 12.4972 36.1197 12.2779 36.1197 12.0132C36.1197 11.7487 35.9022 11.5292 35.6394 11.5292H31.2347C31.3051 11.1809 31.35 10.8194 31.35 10.4519C31.35 9.96793 31.2796 9.50339 31.1643 9.0584L37.9952 9.03892C38.7058 9.03892 39.2883 9.62592 39.2883 10.342V16.8518L16.4721 16.8514C16.3951 16.8514 16.3184 16.8448 16.2414 16.8386C14.4425 16.6643 12.9699 15.3417 12.6564 13.6256C12.6564 13.6127 12.6499 13.5932 12.6499 13.5803C12.6305 13.4707 12.6178 13.3674 12.6115 13.2578C12.6115 13.2383 12.6115 13.2126 12.605 13.1934C12.5349 12.0775 12.9382 10.9871 13.7385 10.1871L13.7383 10.1871ZM44.0456 30.5743C44.0456 30.6067 44.0201 30.6325 43.9945 30.6325H38.2902C36.5872 30.6325 35.1979 29.2323 35.1979 27.5162C35.1979 25.8001 36.5872 24.4 38.2902 24.4H43.9945C44.0266 24.4 44.0456 24.4257 44.0456 24.4581V30.5743Z" fill="url(#paint0_linear_5443_13689)"/>
<path d="M38.4634 25.6451C37.4389 25.6451 36.6068 26.4837 36.6068 27.5161C36.6068 28.5485 37.4389 29.3871 38.4634 29.3871C39.4878 29.3871 40.32 28.5485 40.32 27.5161C40.32 26.4837 39.4875 25.6451 38.4634 25.6451ZM38.4634 28.4127C37.9703 28.4127 37.567 28.0063 37.567 27.5094C37.567 27.0125 37.9703 26.6061 38.4634 26.6061C38.9565 26.6061 39.3598 27.0125 39.3598 27.5094C39.3598 28.0063 38.9565 28.4127 38.4634 28.4127Z" fill="url(#paint1_linear_5443_13689)"/>
<path d="M24.9808 40.7289V35.3934C24.9808 32.8965 24.0141 30.5548 22.2663 28.7869C21.6389 28.1547 20.9411 27.6386 20.179 27.2128C20.3006 27.045 20.371 26.845 20.371 26.6258V25.1547C20.371 24.5997 19.9228 24.1547 19.3787 24.1547H19.2057L20.486 21.3999C20.7036 20.9288 20.6652 20.3933 20.3901 19.9548C20.1149 19.5227 19.6474 19.2645 19.1353 19.2645H12.324C11.8119 19.2645 11.3444 19.5227 11.0692 19.9548C10.7941 20.387 10.7554 20.9291 10.9733 21.3999L12.2536 24.1547H12.0806C11.5299 24.1547 11.0883 24.6063 11.0883 25.1547V26.6258C11.0883 26.8516 11.1653 27.0517 11.2868 27.2194C8.35471 28.8773 6.44672 32.1032 6.44672 35.5935V40.7289C5.61459 40.9419 5 41.7032 5 42.6065V43.0644C5 44.1354 5.86426 45 6.92074 45H24.5011C25.5639 45 26.4218 44.1291 26.4218 43.0644V42.5999C26.4218 42.0839 26.2233 41.5933 25.8584 41.232C25.6149 40.9871 25.3139 40.8128 24.981 40.7289L24.9808 40.7289ZM11.8438 20.9874C11.7668 20.8197 11.7799 20.6262 11.8821 20.4714C11.9846 20.3165 12.1445 20.2261 12.3303 20.2261H19.1357C19.3215 20.2261 19.4813 20.3165 19.5839 20.4714C19.6864 20.6262 19.6992 20.8197 19.616 20.9874L18.15 24.1551H13.3164L11.8438 20.9874ZM12.0744 25.1228L19.4111 25.1552L19.379 26.6583H12.0806C12.0613 26.6583 12.0485 26.6454 12.0485 26.626L12.0744 25.1228ZM25.4614 43.065C25.4614 43.6005 25.0325 44.0326 24.5012 44.0326L6.91409 44.0329C6.38271 44.0329 5.95389 43.6008 5.95389 43.0653V42.6008C5.95389 42.0653 6.38273 41.6332 6.92063 41.6332C7.18304 41.6332 7.40091 41.4139 7.40091 41.1492V35.5944C7.40091 32.117 9.50087 28.9298 12.6315 27.6333H13.6238C13.1822 28.1365 12.9067 28.7882 12.9067 29.5109C12.9067 29.7753 13.1242 29.9949 13.387 29.9949C13.6494 29.9949 13.8672 29.7757 13.8672 29.5109C13.8672 28.4723 14.7059 27.6333 15.7304 27.6333C16.7548 27.6333 17.5935 28.4785 17.5935 29.5109C17.5935 29.7753 17.811 29.9949 18.0738 29.9949C18.3362 29.9949 18.554 29.7757 18.554 29.5109C18.554 28.7882 18.2788 28.1368 17.8369 27.6333H18.8292C19.8664 28.0526 20.7946 28.672 21.5883 29.4785C23.1569 31.0592 24.0211 33.1623 24.0211 35.401V41.1558C24.0211 41.4202 24.2387 41.6397 24.5014 41.6397C24.7576 41.6397 25.0007 41.7431 25.1799 41.9237C25.3591 42.1043 25.4616 42.3496 25.4616 42.6074L25.4614 43.065Z" fill="url(#paint2_linear_5443_13689)"/>
<path d="M15.6723 33.594C15.6851 33.594 15.6979 33.6006 15.7106 33.6006C15.7234 33.6006 15.7362 33.594 15.749 33.594C16.4212 33.6135 16.9589 34.1681 16.9589 34.8522C16.9589 35.1166 17.1764 35.3362 17.4391 35.3362C17.7015 35.3362 17.9194 35.117 17.9194 34.8522C17.9194 33.7878 17.1767 32.8974 16.191 32.6778V32.0713C16.191 31.8069 15.9734 31.5873 15.7107 31.5873C15.4483 31.5873 15.2304 31.8066 15.2304 32.0713V32.6778C14.2446 32.9036 13.502 33.7874 13.502 34.8522C13.502 36.078 14.4943 37.078 15.7169 37.078C16.4085 37.078 16.9655 37.6459 16.9655 38.3425C16.9655 39.02 16.4275 39.5746 15.7556 39.5941C15.7428 39.5941 15.7301 39.5875 15.7107 39.5875C15.6979 39.5875 15.6852 39.5941 15.6724 39.5941C15.0001 39.5684 14.4625 39.02 14.4625 38.3425C14.4625 38.078 14.245 37.8585 13.9822 37.8585C13.7198 37.8585 13.502 38.0777 13.502 38.3425C13.502 39.4007 14.2447 40.291 15.2304 40.5102V41.1167C15.2304 41.3811 15.4479 41.6007 15.7107 41.6007C15.9731 41.6007 16.1909 41.3814 16.1909 41.1167V40.5102C17.1767 40.291 17.9194 39.4006 17.9194 38.3425C17.9194 37.1104 16.9271 36.1104 15.7106 36.1104C15.0191 36.1104 14.4559 35.5425 14.4559 34.8522C14.4559 34.1747 15.0001 33.6198 15.6723 33.594Z" fill="url(#paint3_linear_5443_13689)"/>
<defs>
<linearGradient id="paint0_linear_5443_13689" x1="37.6624" y1="33.6397" x2="37.6624" y2="41.6506" gradientUnits="userSpaceOnUse">
<stop stop-color="#ED3040"/>
<stop offset="1" stop-color="#2D23F4"/>
</linearGradient>
<linearGradient id="paint1_linear_5443_13689" x1="37.6624" y1="33.6397" x2="37.6624" y2="41.6506" gradientUnits="userSpaceOnUse">
<stop stop-color="#ED3040"/>
<stop offset="1" stop-color="#2D23F4"/>
</linearGradient>
<linearGradient id="paint2_linear_5443_13689" x1="37.6624" y1="33.6397" x2="37.6624" y2="41.6506" gradientUnits="userSpaceOnUse">
<stop stop-color="#ED3040"/>
<stop offset="1" stop-color="#2D23F4"/>
</linearGradient>
<linearGradient id="paint3_linear_5443_13689" x1="37.6624" y1="33.6397" x2="37.6624" y2="41.6506" gradientUnits="userSpaceOnUse">
<stop stop-color="#ED3040"/>
<stop offset="1" stop-color="#2D23F4"/>
</linearGradient>
</defs>
</svg>
