<svg width="50" height="50" viewBox="0 0 50 50" fill="none" xmlns="http://www.w3.org/2000/svg">
<path fill-rule="evenodd" clip-rule="evenodd" d="M6.33412 43.6667H43.6666V42.3335H6.33412V43.6667ZM44.3335 45H5.66721C5.29909 45 5.00043 44.7013 5.00043 44.3335V41.6666C5.00043 41.2988 5.29909 41.0002 5.66721 41.0002H44.3335C44.7013 41.0002 45 41.2988 45 41.6666V44.3335C45 44.7013 44.7013 45 44.3335 45Z" fill="url(#paint0_linear_5443_13727)"/>
<path fill-rule="evenodd" clip-rule="evenodd" d="M9.00095 40.9999H15.6676C15.6676 40.2645 15.0696 39.6666 14.3343 39.6666H10.3342C9.59889 39.6666 9.00095 40.2645 9.00095 40.9999ZM16.334 42.3331H8.33428C7.96647 42.3331 7.66781 42.0345 7.66781 41.6663V40.9999C7.66781 39.5292 8.86364 38.333 10.3343 38.333H14.3344C15.805 38.333 17.0009 39.5291 17.0009 40.9999V41.6663C17.0009 42.0345 16.7023 42.3331 16.3342 42.3331" fill="url(#paint1_linear_5443_13727)"/>
<path fill-rule="evenodd" clip-rule="evenodd" d="M9.00095 26.3333C9.00095 27.0686 9.59888 27.6665 10.3342 27.6665H14.3343C15.0696 27.6665 15.6676 27.0686 15.6676 26.3333H9.00095ZM14.3343 28.9998H10.3342C8.8636 28.9998 7.66769 27.804 7.66769 26.3333V25.6665C7.66769 25.2986 7.96635 25 8.33417 25H16.3339C16.702 25 17.0007 25.2986 17.0007 25.6665V26.3333C17.0007 27.8039 15.8048 28.9998 14.3341 28.9998H14.3343Z" fill="url(#paint2_linear_5443_13727)"/>
<path fill-rule="evenodd" clip-rule="evenodd" d="M11.0001 38.333H13.6669V29.0001H11.0001V38.333ZM14.3334 39.6666H10.3336C9.96545 39.6666 9.6668 39.3679 9.6668 38.9998V28.3331C9.6668 27.965 9.96545 27.6663 10.3336 27.6663H14.3334C14.7015 27.6663 15.0001 27.965 15.0001 28.3331V38.9998C15.0001 39.3679 14.7015 39.6666 14.3334 39.6666Z" fill="url(#paint3_linear_5443_13727)"/>
<path fill-rule="evenodd" clip-rule="evenodd" d="M21.6674 40.9999H28.334C28.334 40.2645 27.7361 39.6666 27.0008 39.6666H23.0007C22.2654 39.6666 21.6674 40.2645 21.6674 40.9999ZM29.0008 42.3331H21.0011C20.6329 42.3331 20.3343 42.0345 20.3343 41.6663V40.9999C20.3343 39.5292 21.5301 38.333 23.0008 38.333H27.0009C28.4715 38.333 29.6674 39.5291 29.6674 40.9999V41.6663C29.6674 42.0345 29.3688 42.3331 29.0009 42.3331" fill="url(#paint4_linear_5443_13727)"/>
<path fill-rule="evenodd" clip-rule="evenodd" d="M21.6674 26.3333C21.6674 27.0686 22.2654 27.6665 23.0007 27.6665H27.0008C27.7361 27.6665 28.334 27.0686 28.334 26.3333H21.6674ZM27.0008 28.9998H23.0007C21.5301 28.9998 20.3342 27.804 20.3342 26.3333V25.6665C20.3342 25.2986 20.6328 25 21.0009 25H29.0007C29.3685 25 29.6671 25.2986 29.6671 25.6665V26.3333C29.6671 27.8039 28.4713 28.9998 27.0006 28.9998H27.0008Z" fill="url(#paint5_linear_5443_13727)"/>
<path fill-rule="evenodd" clip-rule="evenodd" d="M23.6666 38.333H26.3334V29.0001H23.6666V38.333ZM26.9998 39.6666H23C22.6319 39.6666 22.3333 39.3679 22.3333 38.9998V28.3331C22.3333 27.965 22.6319 27.6663 23 27.6663H26.9998C27.3679 27.6663 27.6666 27.965 27.6666 28.3331V38.9998C27.6666 39.3679 27.3679 39.6666 26.9998 39.6666Z" fill="url(#paint6_linear_5443_13727)"/>
<path fill-rule="evenodd" clip-rule="evenodd" d="M34.3331 40.9999H40.9997C40.9997 40.2645 40.4018 39.6666 39.6665 39.6666H35.6664C34.931 39.6666 34.3331 40.2645 34.3331 40.9999ZM41.6665 42.3331H33.6667C33.2986 42.3331 33 42.0345 33 41.6663V40.9999C33 39.5292 34.1958 38.333 35.6665 38.333H39.6666C41.1372 38.333 42.3331 39.5291 42.3331 40.9999V41.6663C42.3331 42.0345 42.0344 42.3331 41.6666 42.3331" fill="url(#paint7_linear_5443_13727)"/>
<path fill-rule="evenodd" clip-rule="evenodd" d="M34.3331 26.3333C34.3331 27.0686 34.931 27.6665 35.6664 27.6665H39.6665C40.4018 27.6665 40.9997 27.0686 40.9997 26.3333H34.3331ZM39.6665 28.9998H35.6664C34.1958 28.9998 32.9998 27.804 32.9998 26.3333V25.6665C32.9998 25.2986 33.2985 25 33.6666 25H41.6663C42.0341 25 42.3328 25.2986 42.3328 25.6665V26.3333C42.3328 27.8039 41.137 28.9998 39.6663 28.9998H39.6665Z" fill="url(#paint8_linear_5443_13727)"/>
<path fill-rule="evenodd" clip-rule="evenodd" d="M36.3338 38.333H39.0003V29.0001H36.3338V38.333ZM39.6671 39.6666H35.667C35.2989 39.6666 35.0002 39.3679 35.0002 38.9998V28.3331C35.0002 27.965 35.2989 27.6663 35.667 27.6663H39.6671C40.0349 27.6663 40.3336 27.965 40.3336 28.3331V38.9998C40.3336 39.3679 40.0349 39.6666 39.6671 39.6666Z" fill="url(#paint9_linear_5443_13727)"/>
<path fill-rule="evenodd" clip-rule="evenodd" d="M9.64563 22.3333H40.3543L24.9996 17.0387L9.64563 22.3333ZM44.3327 23.6666H5.66642C5.34109 23.6666 5.06321 23.4315 5.00925 23.1102C4.95529 22.7896 5.14199 22.476 5.44933 22.3699L24.7825 15.7036C24.9236 15.6543 25.0756 15.6543 25.217 15.7036L44.5501 22.3699C44.8581 22.476 45.0442 22.7896 44.9908 23.1102C44.9369 23.4315 44.659 23.6666 44.3327 23.6666Z" fill="url(#paint10_linear_5443_13727)"/>
<path fill-rule="evenodd" clip-rule="evenodd" d="M7.66714 25.0002H42.3336V23.6666H7.66714V25.0002ZM42.9997 26.3335H7.00023C6.63211 26.3335 6.33345 26.0348 6.33345 25.6667V23.0001C6.33345 22.632 6.63211 22.3334 7.00023 22.3334H42.9997C43.3678 22.3334 43.6665 22.632 43.6665 23.0001V25.6667C43.6665 26.0348 43.3678 26.3335 42.9997 26.3335Z" fill="url(#paint11_linear_5443_13727)"/>
<path fill-rule="evenodd" clip-rule="evenodd" d="M19.0371 11.6667H30.9636C30.6312 8.67077 28.0832 6.33323 25.0005 6.33323C21.9171 6.33323 19.37 8.67069 19.0373 11.6667M31.6672 12.9999H18.3338C17.966 12.9999 17.6674 12.7013 17.6674 12.3331C17.6674 8.28988 20.9567 5 25.0004 5C29.0439 5 32.3338 8.28996 32.3338 12.3331C32.3338 12.7013 32.0351 12.9999 31.667 12.9999" fill="url(#paint12_linear_5443_13727)"/>
<path fill-rule="evenodd" clip-rule="evenodd" d="M31.6671 19.2989C31.2989 19.2989 31.0003 19.0002 31.0003 18.6321V13H19.0007V18.6321C19.0007 19.0002 18.7021 19.2989 18.3339 19.2989C17.9661 19.2989 17.6675 19.0002 17.6675 18.6321V12.3335C17.6675 11.9654 17.9661 11.6667 18.3339 11.6667H31.6673C32.0351 11.6667 32.3341 11.9654 32.3341 12.3335V18.6321C32.3341 19.0002 32.0351 19.2989 31.6673 19.2989" fill="url(#paint13_linear_5443_13727)"/>
<path fill-rule="evenodd" clip-rule="evenodd" d="M21.0005 18.3795C20.6324 18.3795 20.3337 18.0808 20.3337 17.7127V12.3334C20.3337 11.9652 20.6324 11.6666 21.0005 11.6666C21.3683 11.6666 21.667 11.9652 21.667 12.3334V17.7127C21.667 18.0808 21.3683 18.3795 21.0005 18.3795Z" fill="url(#paint14_linear_5443_13727)"/>
<path fill-rule="evenodd" clip-rule="evenodd" d="M23.6674 17.4601C23.2992 17.4601 23.0006 17.1614 23.0006 16.7933V12.3342C23.0006 11.9654 23.2992 11.6674 23.6674 11.6674C24.0352 11.6674 24.3338 11.9654 24.3338 12.3342V16.7933C24.3338 17.1614 24.0352 17.4601 23.6674 17.4601Z" fill="url(#paint15_linear_5443_13727)"/>
<path fill-rule="evenodd" clip-rule="evenodd" d="M26.3334 17.4601C25.9656 17.4601 25.6669 17.1614 25.6669 16.7933V12.3342C25.6669 11.9654 25.9656 11.6674 26.3334 11.6674C26.7015 11.6674 27.0002 11.9654 27.0002 12.3342V16.7933C27.0002 17.1614 26.7015 17.4601 26.3334 17.4601Z" fill="url(#paint16_linear_5443_13727)"/>
<path fill-rule="evenodd" clip-rule="evenodd" d="M29.0002 18.3795C28.6321 18.3795 28.3334 18.0808 28.3334 17.7127V12.3334C28.3334 11.9652 28.6321 11.6666 29.0002 11.6666C29.368 11.6666 29.6667 11.9652 29.6667 12.3334V17.7127C29.6667 18.0808 29.368 18.3795 29.0002 18.3795Z" fill="url(#paint17_linear_5443_13727)"/>
<defs>
<linearGradient id="paint0_linear_5443_13727" x1="0" y1="0" x2="0" y2="1" gradientUnits="objectBoundingBox">
<stop stop-color="#ED3040"/>
<stop offset="1" stop-color="#2D23F4"/>
</linearGradient>
<linearGradient id="paint1_linear_5443_13727" x1="0" y1="0" x2="0" y2="1" gradientUnits="objectBoundingBox">
<stop stop-color="#ED3040"/>
<stop offset="1" stop-color="#2D23F4"/>
</linearGradient>
<linearGradient id="paint2_linear_5443_13727" x1="0" y1="0" x2="0" y2="1" gradientUnits="objectBoundingBox">
<stop stop-color="#ED3040"/>
<stop offset="1" stop-color="#2D23F4"/>
</linearGradient>
<linearGradient id="paint3_linear_5443_13727" x1="0" y1="0" x2="0" y2="1" gradientUnits="objectBoundingBox">
<stop stop-color="#ED3040"/>
<stop offset="1" stop-color="#2D23F4"/>
</linearGradient>
<linearGradient id="paint4_linear_5443_13727" x1="0" y1="0" x2="0" y2="1" gradientUnits="objectBoundingBox">
<stop stop-color="#ED3040"/>
<stop offset="1" stop-color="#2D23F4"/>
</linearGradient>
<linearGradient id="paint5_linear_5443_13727" x1="0" y1="0" x2="0" y2="1" gradientUnits="objectBoundingBox">
<stop stop-color="#ED3040"/>
<stop offset="1" stop-color="#2D23F4"/>
</linearGradient>
<linearGradient id="paint6_linear_5443_13727" x1="0" y1="0" x2="0" y2="1" gradientUnits="objectBoundingBox">
<stop stop-color="#ED3040"/>
<stop offset="1" stop-color="#2D23F4"/>
</linearGradient>
<linearGradient id="paint7_linear_5443_13727" x1="0" y1="0" x2="0" y2="1" gradientUnits="objectBoundingBox">
<stop stop-color="#ED3040"/>
<stop offset="1" stop-color="#2D23F4"/>
</linearGradient>
<linearGradient id="paint8_linear_5443_13727" x1="0" y1="0" x2="0" y2="1" gradientUnits="objectBoundingBox">
<stop stop-color="#ED3040"/>
<stop offset="1" stop-color="#2D23F4"/>
</linearGradient>
<linearGradient id="paint9_linear_5443_13727" x1="0" y1="0" x2="0" y2="1" gradientUnits="objectBoundingBox">
<stop stop-color="#ED3040"/>
<stop offset="1" stop-color="#2D23F4"/>
</linearGradient>
<linearGradient id="paint10_linear_5443_13727" x1="0" y1="0" x2="0" y2="1" gradientUnits="objectBoundingBox">
<stop stop-color="#ED3040"/>
<stop offset="1" stop-color="#2D23F4"/>
</linearGradient>
<linearGradient id="paint11_linear_5443_13727" x1="0" y1="0" x2="0" y2="1" gradientUnits="objectBoundingBox">
<stop stop-color="#ED3040"/>
<stop offset="1" stop-color="#2D23F4"/>
</linearGradient>
<linearGradient id="paint12_linear_5443_13727" x1="0" y1="0" x2="0" y2="1" gradientUnits="objectBoundingBox">
<stop stop-color="#ED3040"/>
<stop offset="1" stop-color="#2D23F4"/>
</linearGradient>
<linearGradient id="paint13_linear_5443_13727" x1="0" y1="0" x2="0" y2="1" gradientUnits="objectBoundingBox">
<stop stop-color="#ED3040"/>
<stop offset="1" stop-color="#2D23F4"/>
</linearGradient>
<linearGradient id="paint14_linear_5443_13727" x1="0" y1="0" x2="0" y2="1" gradientUnits="objectBoundingBox">
<stop stop-color="#ED3040"/>
<stop offset="1" stop-color="#2D23F4"/>
</linearGradient>
<linearGradient id="paint15_linear_5443_13727" x1="0" y1="0" x2="0" y2="1" gradientUnits="objectBoundingBox">
<stop stop-color="#ED3040"/>
<stop offset="1" stop-color="#2D23F4"/>
</linearGradient>
<linearGradient id="paint16_linear_5443_13727" x1="0" y1="0" x2="0" y2="1" gradientUnits="objectBoundingBox">
<stop stop-color="#ED3040"/>
<stop offset="1" stop-color="#2D23F4"/>
</linearGradient>
<linearGradient id="paint17_linear_5443_13727" x1="0" y1="0" x2="0" y2="1" gradientUnits="objectBoundingBox">
<stop stop-color="#ED3040"/>
<stop offset="1" stop-color="#2D23F4"/>
</linearGradient>
</defs>
</svg>
