<svg width="50" height="50" viewBox="0 0 50 50" fill="none" xmlns="http://www.w3.org/2000/svg">
<path d="M44.4937 12.6562L25.2942 5.05624C25.105 4.98125 24.8942 4.98125 24.7051 5.05624L5.50558 12.6562C5.20092 12.777 5 13.0717 5 13.4V16.3002C5 16.7421 5.35796 17.1001 5.79988 17.1001H8.18913V20.5001C8.18913 20.9421 8.54709 21.3 8.98901 21.3H9.47951V36.0002H8.98901C8.54662 36.0002 8.18913 36.3586 8.18913 36.8001V40.2001H5.79988C5.35749 40.2001 5 40.5581 5 41V44.2001C5 44.642 5.35796 45 5.79988 45H44.2001C44.6425 45 45 44.6415 45 44.2001V41C45 40.5581 44.642 40.2001 44.2001 40.2001H41.8109V36.8001C41.8109 36.3581 41.4529 36.0002 41.011 36.0002H40.5205V21.3H41.011C41.4534 21.3 41.8109 20.9416 41.8109 20.5001V17.1001H44.2001C44.6425 17.1001 45 16.7416 45 16.3002V13.4C45.0005 13.0717 44.7995 12.777 44.4949 12.6562H44.4937ZM43.3994 41.8005V43.4003H6.59896V41.8005H43.3994ZM9.78864 19.7002V17.1001H15.7104V19.7002H9.78864ZM14.4195 21.3V36.0001H11.079V21.3H14.4195ZM15.7103 37.5999V40.2001H9.78858V37.5999H15.7103ZM33.4883 21.3H33.9788V36.0001H33.4883C33.0459 36.0001 32.6884 36.3586 32.6884 36.8V40.2001L17.3102 40.2005V36.8005C17.3102 36.3586 16.9523 36.0006 16.5103 36.0006H16.0198V21.3005H16.5103C16.9527 21.3005 17.3102 20.942 17.3102 20.5006V17.1005H32.6884V20.5006C32.6889 20.9425 33.0464 21.3005 33.4888 21.3005L33.4883 21.3ZM34.2886 19.7002V17.1001H40.2104V19.7002H34.2886ZM38.9195 21.3V36.0001H35.579V21.3H38.9195ZM40.2103 37.5999V40.2001H34.2885V37.5999H40.2103ZM43.3991 15.4997H6.59981V13.9432L25 6.65967L43.4003 13.9432L43.3991 15.4997Z" fill="url(#paint0_linear_5443_13663)"/>
<path d="M23.063 24.8413H26.9345C27.2047 24.8413 27.425 25.0611 27.425 25.3318C27.425 25.7738 27.7829 26.1317 28.2249 26.1317C28.6672 26.1317 29.0247 25.7733 29.0247 25.3318C29.0247 24.1791 28.0871 23.2411 26.9341 23.2411H25.7984V22.7506C25.7984 22.3087 25.4404 21.9507 24.9985 21.9507C24.5561 21.9507 24.1986 22.3091 24.1986 22.7506V23.2411H23.063C21.9098 23.2411 20.9723 24.1792 20.9723 25.3318V27.3599C20.9723 28.5126 21.9099 29.4506 23.063 29.4506H26.9345C27.2047 29.4506 27.425 29.6704 27.425 29.9411V31.9687C27.425 32.2395 27.2047 32.4592 26.9345 32.4592H23.063C22.7927 32.4592 22.5725 32.2395 22.5725 31.9687C22.5725 31.5268 22.2145 31.1688 21.7726 31.1688C21.3302 31.1688 20.9727 31.5268 20.9727 31.9687C20.9727 33.1214 21.9103 34.0595 23.0634 34.0595H24.1991V34.5505C24.1991 34.9924 24.557 35.3504 24.9989 35.3504C25.4413 35.3504 25.7988 34.9924 25.7988 34.5505V34.0595H26.9345C28.0876 34.0595 29.0252 33.1214 29.0252 31.9687V29.9411C29.0252 28.7885 28.0876 27.8504 26.9345 27.8504H23.063C22.7927 27.8504 22.5725 27.6306 22.5725 27.3599V25.3318C22.5725 25.0611 22.7927 24.8413 23.063 24.8413Z" fill="url(#paint1_linear_5443_13663)"/>
<defs>
<linearGradient id="paint0_linear_5443_13663" x1="37.6624" y1="33.6397" x2="37.6624" y2="41.6506" gradientUnits="userSpaceOnUse">
<stop stop-color="#ED3040"/>
<stop offset="1" stop-color="#2D23F4"/>
</linearGradient>
<linearGradient id="paint1_linear_5443_13663" x1="37.6624" y1="33.6397" x2="37.6624" y2="41.6506" gradientUnits="userSpaceOnUse">
<stop stop-color="#ED3040"/>
<stop offset="1" stop-color="#2D23F4"/>
</linearGradient>
</defs>
</svg>
