<svg width="50" height="50" viewBox="0 0 50 50" fill="none" xmlns="http://www.w3.org/2000/svg">
<path d="M10.4251 14.8217C10.5179 15.6633 11.321 16.444 12.0119 16.6847C12.0228 16.6883 12.0336 16.6874 12.0448 16.6903C12.2333 18.0752 12.6469 19.59 13.5612 20.891C16.0129 24.379 21.4728 24.8988 23.4298 20.1503C23.8499 19.1308 24.051 18.0394 24.2405 16.9535C24.7754 16.8691 25.2676 16.5147 25.5368 16.0024C25.9638 15.193 25.8293 13.8407 25.0475 13.3974C25.3617 12.3193 25.42 11.1464 25.1834 10.0185C24.788 8.13396 23.413 6.50869 21.6805 5.87749C20.3086 5.3772 18.6458 5.59575 17.3531 6.34489C17.4104 6.11624 17.4982 5.89541 17.615 5.69314C17.743 5.47101 17.6657 5.1883 17.4407 5.06095C17.216 4.93425 16.9307 5.01144 16.8021 5.23357C16.6359 5.52117 16.5139 5.82994 16.4369 6.14943C16.3622 6.08396 16.2852 6.02077 16.1993 5.96997C15.9763 5.83969 15.6894 5.91134 15.5578 6.13055C15.4249 6.35072 15.4976 6.63474 15.7193 6.76633C15.7864 6.80574 15.8437 6.86013 15.8947 6.92007C14.9284 6.82105 13.8871 7.14807 13.1058 7.84735C12.2411 8.6183 11.6914 9.7808 11.5591 11.1201C11.492 11.7988 11.5348 12.4643 11.6246 13.0814C10.8768 13.185 10.325 13.8977 10.4254 14.8217L10.4251 14.8217ZM22.4465 19.5708C20.7149 23.5868 16.5021 23.4526 14.3287 20.361C13.3884 19.023 12.9157 17.2495 12.8396 14.8168C13.2492 14.0683 13.7236 13.1473 14.0635 12.1916C16.7747 13.3603 19.5552 13.158 22.3422 11.5907C22.6481 12.8954 23.0535 14.1648 23.2595 15.4337C23.2621 15.451 23.272 15.465 23.2762 15.4816C23.1746 16.8548 23.0035 18.2784 22.4465 19.5708ZM24.1709 16.0174C24.1968 15.7236 24.2192 15.4334 24.238 15.153C24.238 15.1516 24.2373 15.1503 24.2373 15.149C24.4097 14.8888 24.5634 14.6159 24.6959 14.3302C25.0026 14.8745 24.8572 15.8213 24.1709 16.0174ZM12.4897 11.2108C12.6 10.1021 13.0405 9.15174 13.7317 8.53514C14.4762 7.86971 15.5659 7.64304 16.3838 7.98079C16.5677 8.05863 16.7819 8.00912 16.9151 7.8606C17.9475 6.70335 19.8999 6.21482 21.3576 6.74704C22.7941 7.26948 23.9353 8.62738 24.267 10.2064C24.5233 11.4272 24.3736 12.7462 23.885 13.8589C23.5978 12.6818 23.3402 11.8421 23.1194 10.7686C23.053 10.4488 22.6858 10.297 22.4095 10.4699C19.5593 12.261 16.7276 12.4861 13.9906 11.136C13.7281 11.0067 13.4139 11.1451 13.3326 11.4197C13.1493 12.0372 12.8835 12.6577 12.6029 13.2391C12.47 12.4779 12.4299 11.8212 12.4897 11.2108ZM11.7952 14.0002C11.8298 14.1552 11.8653 14.3041 11.9011 14.4474C11.8807 14.6425 11.9248 15.3942 11.9377 15.5903C11.0345 14.8894 11.3323 13.9917 11.7952 14.0002Z" fill="url(#paint0_linear_5443_13711)"/>
<path d="M5.55611 34.6281C5.56499 34.6291 5.5742 34.63 5.58309 34.6313L6.07692 35.6697C11.9845 36.1491 18.431 36.1573 24.9087 36.1078C24.8574 38.2734 24.8564 40.5292 24.9173 42.9496C24.9393 43.8479 25.5332 44.7808 27.5147 44.8681C32.3353 45.0795 37.1644 45.0107 41.9862 44.8449C44.1863 44.7694 44.912 44.1763 44.9334 41.7843C45.0084 33.3869 45.115 33.1626 44.6495 32.2713C44.4619 31.9123 43.8918 31.2635 43.4108 31.317C43.1769 31.1737 42.9087 31.0854 42.6202 31.0854H38.5336C38.5409 30.6786 38.5484 30.2718 38.5557 29.865C38.5593 29.664 38.5593 29.4497 38.4504 29.2803C38.3346 29.1002 38.0451 28.9507 37.7874 28.9009C37.6595 28.7999 37.5088 28.725 37.3397 28.6934C35.3127 28.3133 33.1722 28.309 31.3117 28.6833C30.8284 28.781 30.478 29.2106 30.478 29.706V31.0857H29.2193C26.1918 25.0804 17.8666 22.1923 11.1624 26.5225C8.3165 28.3518 6.37378 30.648 5.04294 33.762C4.97287 33.9399 4.98932 34.1399 5.0867 34.3092C5.18475 34.4796 5.35056 34.5949 5.55586 34.6281L5.55611 34.6281ZM43.2332 42.8757C43.2364 43.2763 42.9463 43.6219 42.5794 43.6219H42.5781C36.8893 43.6108 32.1166 43.7603 26.4946 43.6509C26.1501 43.6443 25.8626 43.3196 25.853 42.9268C25.7991 40.7804 25.7945 38.7665 25.8293 36.8276C26.4511 36.8615 27.073 36.8905 27.6947 36.9156V37.4103C27.6947 37.9999 28.1787 38.4786 28.7738 38.4786H29.7628C30.3576 38.4786 30.8413 37.9995 30.8413 37.4103V37.0156C33.7096 37.0846 35.6431 37.0846 38.5216 37.01V37.511C38.5216 38.1005 39.0055 38.5792 39.6006 38.5792H40.5896C41.1851 38.5792 41.6687 38.1001 41.6687 37.511V36.9081C42.1987 36.8849 42.7288 36.8589 43.2591 36.8302C43.2427 38.8437 43.219 40.9562 43.2332 42.8757ZM28.6303 37.4106V35.853C28.6303 35.7745 28.6941 35.7114 28.7734 35.7114H29.7624C29.841 35.7114 29.9048 35.7745 29.9048 35.853V37.4106C29.9048 37.4891 29.841 37.5523 29.7624 37.5523H28.7734C28.6944 37.5523 28.6303 37.4888 28.6303 37.4106ZM39.4574 35.9534C39.4574 35.8749 39.5212 35.8117 39.6005 35.8117H40.5894C40.6687 35.8117 40.7326 35.8749 40.7326 35.9534V37.5109C40.7326 37.5894 40.6687 37.6526 40.5894 37.6526H39.6005C39.5212 37.6526 39.4574 37.5894 39.4574 37.5109V35.9534ZM31.4132 29.7059C31.4132 29.6505 31.4491 29.6017 31.4975 29.5919C33.2402 29.2402 35.253 29.2457 37.1649 29.6046C37.2162 29.6137 37.255 29.6675 37.252 29.7251C37.2303 30.1525 37.1922 30.4886 37.2089 31.0856H31.4133L31.4132 29.7059ZM42.6193 32.0122C42.974 32.0122 43.2652 32.3409 43.2684 32.7448C43.2763 33.7626 43.2731 34.831 43.2658 35.9028C42.7332 35.9315 42.2011 35.9572 41.6688 35.981V35.9536C41.6688 35.3641 41.1849 34.8854 40.5897 34.8854H39.6008C39.0053 34.8854 38.5217 35.3645 38.5217 35.9536V36.0836C36.0084 36.1507 33.4317 36.1523 30.8414 36.0888V35.853C30.8414 35.2635 30.3575 34.7847 29.7629 34.7847H28.774C28.1785 34.7847 27.6949 35.2638 27.6949 35.853V35.9879C27.0796 35.9631 26.4644 35.9351 25.8495 35.9009C25.8771 34.8176 25.914 33.7496 25.9703 32.7102C25.991 32.3187 26.2779 32.0122 26.623 32.0122L42.6193 32.0122ZM19.0945 25.3655C19.0133 26.3768 17.3745 26.6823 17.1244 25.3977C17.7769 25.3199 18.4346 25.3085 19.0945 25.3655ZM19.4834 31.4787L19.4785 31.4849C19.0969 31.9598 18.6405 32.5281 18.2444 32.9219C17.7499 32.5033 17.2341 31.8995 16.733 31.4161L18.0846 28.1717C18.531 29.2941 18.9564 30.3348 19.4834 31.4787ZM11.6729 27.2985C12.8748 26.5227 14.7915 25.8602 16.2036 25.5534C16.3343 26.2546 16.7853 26.8904 17.5207 27.0956L15.745 31.3585C15.6694 31.5405 15.7184 31.7506 15.8668 31.8815C16.5211 32.4587 17.2259 33.3746 18.004 33.9087C18.1737 34.026 18.406 34.0191 18.5695 33.8846C19.09 33.4579 19.7115 32.6834 20.2112 32.0616C20.2533 31.9789 20.6208 31.7066 20.4514 31.3438C19.7588 29.8648 19.246 28.5681 18.6528 27.0666C18.6643 27.0633 18.6755 27.0623 18.6867 27.0584C19.4779 26.8099 19.9336 26.2334 20.0146 25.4892C23.2986 26.0829 26.4196 28.0528 28.1445 31.0852H26.6229C25.78 31.0852 25.0829 31.7773 25.0354 32.6603C25.0065 33.1977 24.9864 33.7485 24.965 34.297C19.5036 34.511 11.8504 34.4761 6.06502 33.7589C7.30834 31.0129 9.09887 28.9534 11.6729 27.2985Z" fill="url(#paint1_linear_5443_13711)"/>
<defs>
<linearGradient id="paint0_linear_5443_13711" x1="37.6624" y1="33.6397" x2="37.6624" y2="41.6506" gradientUnits="userSpaceOnUse">
<stop stop-color="#ED3040"/>
<stop offset="1" stop-color="#2D23F4"/>
</linearGradient>
<linearGradient id="paint1_linear_5443_13711" x1="37.6624" y1="33.6397" x2="37.6624" y2="41.6506" gradientUnits="userSpaceOnUse">
<stop stop-color="#ED3040"/>
<stop offset="1" stop-color="#2D23F4"/>
</linearGradient>
</defs>
</svg>
