<svg width="50" height="50" viewBox="0 0 50 50" fill="none" xmlns="http://www.w3.org/2000/svg">
<path d="M19.3909 19.2497C19.0469 18.9297 18.5951 18.751 18.1252 18.7498H6.87504C6.40519 18.751 5.95335 18.9297 5.60942 19.2497C5.22392 19.6036 5.0031 20.1016 5 20.6248V29.3749C5.00279 29.8981 5.2233 30.3962 5.6088 30.75C5.95273 31.0701 6.40488 31.2487 6.87506 31.25H18.1252C18.5951 31.2487 19.0469 31.0701 19.3909 30.75C19.7764 30.3965 19.9972 29.8981 20.0003 29.3749V20.6248C19.9972 20.1017 19.7767 19.6036 19.3915 19.2497H19.3909ZM10.9878 23.1537C11.3791 23.0672 11.7879 23.1782 12.0816 23.4511C12.3194 23.6658 12.6811 23.6658 12.9189 23.4511C13.2126 23.1782 13.6214 23.0672 14.0128 23.1537C14.0208 23.1537 14.0276 23.1593 14.036 23.1612H14.0357C14.4113 23.2558 14.7242 23.5141 14.8882 23.8649C14.9202 23.9353 14.9447 24.0088 14.9621 24.0841C14.9621 24.0947 14.9695 24.104 14.972 24.1148C14.9903 24.2004 14.9996 24.2876 15.0002 24.3747C14.9996 24.4492 14.9912 24.523 14.9751 24.5955C14.9707 24.6175 14.9633 24.6386 14.9577 24.6582V24.6579C14.9441 24.7097 14.9276 24.7602 14.9084 24.8098C14.8991 24.8343 14.8876 24.8579 14.8765 24.8818C14.8551 24.9292 14.8312 24.9758 14.8051 25.021C14.7915 25.0455 14.7769 25.0697 14.7614 25.0942C14.7338 25.1373 14.7046 25.1798 14.6739 25.2192L14.6172 25.2955C14.5877 25.3324 14.5545 25.3681 14.526 25.4031C14.4972 25.4382 14.4755 25.4624 14.4479 25.4912C14.4203 25.52 14.3998 25.5399 14.3753 25.5638C14.3378 25.6019 14.2996 25.6401 14.2596 25.677L14.2326 25.7015C14.1219 25.8013 14.005 25.8978 13.8837 25.9896C13.7736 26.0727 13.6626 26.1509 13.5519 26.2241L13.4892 26.2659L13.4895 26.2653C13.1723 26.4709 12.842 26.6548 12.5002 26.8161C12.0006 26.5847 11.5264 26.3019 11.0851 25.9722C10.8851 25.8218 10.698 25.6546 10.5265 25.4723L10.5228 25.4679C10.4679 25.4053 10.4146 25.3429 10.3653 25.2803L10.3491 25.2589C10.3054 25.2009 10.2648 25.142 10.2279 25.0821L10.204 25.0427V25.043C10.172 24.9888 10.1432 24.9329 10.1178 24.8756C10.1103 24.8582 10.1017 24.8399 10.0945 24.8225V24.8222C10.0734 24.7683 10.0554 24.7131 10.0415 24.6566C10.0365 24.638 10.0297 24.6191 10.026 24.5999C10.0092 24.5261 10.0005 24.4504 10.0002 24.3747C10.0002 24.2876 10.0099 24.2007 10.0285 24.1154C10.0285 24.1049 10.0353 24.0962 10.0371 24.086C10.0548 24.0103 10.0799 23.9365 10.1116 23.8655C10.2756 23.5147 10.5886 23.2564 10.9638 23.1618C10.9728 23.1593 10.9797 23.1556 10.9878 23.1537ZM15.6708 25.9806C15.6813 25.9669 15.6934 25.9523 15.7033 25.9381V25.9378C15.8091 25.7914 15.9024 25.6363 15.9821 25.4741C15.9995 25.4391 16.0128 25.4034 16.0277 25.3684V25.3687C16.0811 25.2471 16.1248 25.1218 16.1589 24.9934C16.1707 24.9484 16.1846 24.9041 16.1939 24.8579C16.2293 24.6994 16.2482 24.5375 16.2501 24.3747C16.2485 24.228 16.234 24.0816 16.2057 23.9374C16.197 23.8868 16.185 23.8382 16.1732 23.7879C16.1511 23.698 16.1235 23.6093 16.0907 23.5224C16.0708 23.4682 16.0538 23.413 16.028 23.3612H16.0283C15.9806 23.2548 15.9254 23.1521 15.8633 23.0535L18.75 20.6931V29.3066L15.2657 26.4546C15.4124 26.3067 15.5476 26.1482 15.6707 25.9804L15.6708 25.9806ZM8.9697 23.3618C8.94582 23.4136 8.9297 23.4688 8.90706 23.5231C8.87449 23.6099 8.84689 23.6986 8.82456 23.7886C8.81215 23.8385 8.80068 23.8872 8.792 23.938C8.76501 24.0819 8.75106 24.2283 8.75013 24.3747C8.75199 24.5385 8.77091 24.7013 8.80657 24.861C8.81588 24.9072 8.82921 24.9516 8.84162 24.9965V24.9968C8.87542 25.1249 8.91915 25.2502 8.97218 25.3718C8.98769 25.4068 9.00102 25.4425 9.01839 25.4776V25.4772C9.09809 25.6394 9.19114 25.7945 9.29658 25.9412C9.30713 25.9555 9.31922 25.97 9.32977 25.9837C9.45289 26.1515 9.58811 26.31 9.7345 26.4579L6.25011 29.3068V20.6933L9.13435 23.0546L9.13466 23.0543C9.07264 23.153 9.01743 23.2556 8.96967 23.362L8.9697 23.3618ZM17.6253 19.9999L14.951 22.1873C14.9221 22.1718 14.8883 22.1603 14.8623 22.1455C14.7959 22.1123 14.7305 22.0779 14.6604 22.0506C14.5562 22.0102 14.4495 21.9771 14.3409 21.951C14.2646 21.933 14.1877 21.9209 14.1096 21.9098C14.0469 21.9017 13.9908 21.8961 13.9315 21.8918C13.872 21.8874 13.8128 21.8747 13.7501 21.8747C13.3106 21.8753 12.8789 21.9929 12.5003 22.2162C12.1213 21.9929 11.6899 21.8753 11.2501 21.8747C11.105 21.8763 10.9599 21.8908 10.8172 21.9184C10.7741 21.9259 10.7322 21.934 10.6922 21.9436C10.5694 21.9715 10.4491 22.009 10.3321 22.0555C10.2695 22.0806 10.2109 22.1123 10.151 22.1424C10.1185 22.1579 10.0853 22.1712 10.0536 22.1886L7.37535 20L17.6253 19.9999ZM7.37546 29.9997L10.725 27.259C11.2109 27.5818 11.7273 27.8569 12.2666 28.0802C12.4161 28.1395 12.5824 28.1395 12.7315 28.0802C13.2709 27.8569 13.7872 27.5818 14.2735 27.259L17.6255 29.9997H7.37546Z" fill="url(#paint0_linear_5443_13679)"/>
<path d="M41.1608 5H36.3394C35.3216 5.00124 34.3456 5.40597 33.626 6.12582C32.9062 6.84564 32.5012 7.82128 32.4999 8.83952V13.6609V13.6606C32.5011 14.6784 32.9062 15.6544 33.626 16.3743C34.3455 17.0941 35.3215 17.4988 36.3394 17.5001H41.1608C42.1786 17.4989 43.1543 17.0942 43.8742 16.3743C44.594 15.6545 44.999 14.6785 45 13.6606V8.83953C44.9991 7.82137 44.594 6.84569 43.8742 6.12582C43.1544 5.406 42.1787 5.00127 41.1608 5ZM38.1252 16.2502V13.7502C38.1252 13.5846 38.0592 13.4255 37.9419 13.3083C37.8247 13.1911 37.6659 13.1253 37.5 13.1253H36.8751V12.5004H37.5C37.6659 12.5004 37.8247 12.4346 37.9419 12.3174C38.0592 12.2002 38.1252 12.0411 38.1252 11.8755V10.0004C38.1544 9.67879 38.2955 9.37734 38.5238 9.14906C38.7523 8.9208 39.0535 8.77969 39.3751 8.75023H40.6249L40.6252 9.37546H39.3751C39.0299 9.37546 38.7502 9.6552 38.7502 10.0004V11.8754C38.7502 12.041 38.8159 12.2001 38.9332 12.3174C39.0504 12.4346 39.2095 12.5004 39.3751 12.5004H40.3833L40.1746 13.1253H39.3751C39.0299 13.1253 38.7502 13.405 38.7502 13.7502V16.2502L38.1252 16.2502ZM43.7502 13.6609C43.7496 14.3475 43.4763 15.0057 42.991 15.4914C42.5056 15.9767 41.8472 16.2496 41.1608 16.2503H40V14.3755H40.6252C40.8941 14.3755 41.1332 14.2031 41.2182 13.9478L41.8432 12.0728C41.9067 11.8824 41.8748 11.6727 41.7572 11.5099C41.6397 11.3468 41.4511 11.2503 41.2502 11.2503H40V10.6254H41.2502C41.4158 10.6254 41.5749 10.5596 41.6921 10.4424C41.8094 10.3252 41.8751 10.1661 41.8751 10.0005V8.1254C41.8751 7.95979 41.8094 7.80069 41.6921 7.68346C41.5749 7.56622 41.4158 7.50048 41.2502 7.50048H39.3751C38.7214 7.52932 38.102 7.80193 37.6393 8.26465C37.1766 8.72737 36.904 9.34672 36.8751 10.0005V11.2503H36.2502C35.905 11.2503 35.6253 11.5303 35.6253 11.8755V13.7506V13.7503C35.6253 13.9162 35.6911 14.075 35.8083 14.1922C35.9255 14.3094 36.0843 14.3755 36.2502 14.3755H36.8751V16.2506H36.3395V16.2502C35.6529 16.2496 34.9948 15.9767 34.5094 15.4913C34.0238 15.0057 33.7508 14.3476 33.7502 13.6609V8.83983C33.7508 8.15319 34.0238 7.49504 34.5094 7.00939C34.9948 6.52402 35.6529 6.25111 36.3395 6.25018H41.1609C41.8473 6.25111 42.5057 6.52402 42.9911 7.00939C43.4764 7.49506 43.7496 8.15315 43.7503 8.83983L43.7502 13.6609Z" fill="url(#paint1_linear_5443_13679)"/>
<path d="M41.1608 32.4999H36.3382C35.3204 32.5011 34.3447 32.9062 33.6248 33.626C32.9053 34.3458 32.5006 35.3215 32.4993 36.3394V41.1608C32.5006 42.1786 32.9053 43.1543 33.6248 43.8742C34.3447 44.594 35.3203 44.999 36.3382 45H41.1608C42.1786 44.9991 43.1543 44.594 43.8742 43.8742C44.5937 43.1544 44.9984 42.1787 44.9994 41.1608V36.3394C44.9984 35.3216 44.5937 34.3459 43.8742 33.626C43.1544 32.9062 42.1787 32.5012 41.1608 32.4999ZM43.7495 41.161C43.7488 41.8474 43.4759 42.5055 42.9906 42.9908C42.5052 43.4765 41.8471 43.7494 41.1608 43.7504H36.3382C35.6519 43.7494 34.9937 43.4765 34.5084 42.9908C34.023 42.5055 33.7501 41.8474 33.7495 41.161V36.3396C33.7501 35.6533 34.023 34.9952 34.5084 34.5095C34.9937 34.0242 35.6518 33.7512 36.3382 33.7503H41.1608C41.8471 33.7512 42.5052 34.0242 42.9906 34.5095C43.4759 34.9952 43.7488 35.6533 43.7495 36.3396V41.161Z" fill="url(#paint2_linear_5443_13679)"/>
<path d="M41.9095 36.1679C41.5984 35.6059 41.0532 35.2121 40.4221 35.0933C39.791 34.9745 39.1397 35.1435 38.646 35.5542C38.1522 35.9648 37.8672 36.5745 37.8688 37.2165V37.6141H35.4258C35.0806 37.6141 34.8009 37.8939 34.8009 38.239C34.8031 39.2411 35.316 40.1727 36.1615 40.7105C35.9255 40.9555 35.9292 41.3447 36.1695 41.5854C36.7545 42.171 37.5605 42.4811 38.3874 42.4389C39.2138 42.3965 39.9839 42.0057 40.5059 41.3631C41.0282 40.7208 41.2533 39.8871 41.1259 39.0693C41.4537 38.8739 41.7241 38.5957 41.9096 38.2623L42.5153 37.6566C42.759 37.4125 42.759 37.0171 42.5153 36.773L41.9095 36.1679ZM40.9583 37.4472C40.9093 37.4956 40.8693 37.552 40.8396 37.614C40.7208 37.8566 40.5006 38.0334 40.2382 38.0972C40.0642 38.1394 39.9166 38.2542 39.8329 38.4127C39.7491 38.5711 39.7377 38.7578 39.8006 38.9253C39.9151 39.2268 39.9402 39.5546 39.8729 39.8699C39.8059 40.185 39.6493 40.4741 39.4219 40.7026C39.1828 40.9355 38.8811 41.0931 38.5533 41.1564C38.2258 41.2199 37.8868 41.1858 37.5782 41.059L37.7032 40.934C37.8657 40.7715 37.9256 40.533 37.8595 40.3128C37.7935 40.0926 37.612 39.9267 37.3872 39.8801C36.8373 39.7657 36.3814 39.3842 36.1715 38.8635H38.4929C38.6585 38.8635 38.8176 38.7974 38.9348 38.6802C39.052 38.563 39.1178 38.4042 39.1178 38.2383V37.2164C39.1153 36.793 39.4065 36.4246 39.819 36.3294C40.2315 36.2342 40.6548 36.4376 40.8384 36.8191C40.8685 36.8805 40.9088 36.9363 40.9572 36.9847L41.1886 37.2161L40.9583 37.4472Z" fill="url(#paint3_linear_5443_13679)"/>
<path d="M41.4307 21.4315C41.3166 21.5512 41.2518 21.7097 41.2496 21.875C41.2518 22.2192 41.5303 22.4977 41.8746 22.5002C42.0827 22.499 42.2768 22.3941 42.3919 22.2205C42.5069 22.0471 42.528 21.8278 42.4483 21.6356C42.3683 21.4433 42.198 21.3034 41.9939 21.2625C41.7899 21.2215 41.5787 21.2848 41.4307 21.4315Z" fill="url(#paint4_linear_5443_13679)"/>
<path d="M41.1608 18.7503H36.3394C35.3216 18.7516 34.3456 19.1563 33.626 19.8762C32.9062 20.596 32.5012 21.5719 32.4999 22.5899V27.4113V27.4109C32.5011 28.4291 32.9062 29.4048 33.626 30.1246C34.3455 30.8445 35.3215 31.2492 36.3394 31.2505H41.1608C42.1786 31.2492 43.1543 30.8445 43.8742 30.1246C44.594 29.4048 44.999 28.4292 45 27.4109V22.5899C44.9991 21.572 44.594 20.596 43.8742 19.8762C43.1544 19.1563 42.1787 18.7516 41.1608 18.7503ZM43.7501 27.4107C43.7495 28.0973 43.4762 28.7555 42.9909 29.2411C42.5055 29.7265 41.8471 29.9994 41.1608 30.0003H36.3394C35.6527 29.9994 34.9946 29.7265 34.5093 29.2411C34.0236 28.7555 33.7507 28.0974 33.75 27.4107V22.5896C33.7507 21.903 34.0236 21.2448 34.5093 20.7592C34.9946 20.2738 35.6527 20.0009 36.3394 20.0003H41.1608C41.8471 20.0009 42.5055 20.2738 42.9909 20.7592C43.4762 21.2449 43.7495 21.9029 43.7501 22.5896V27.4107Z" fill="url(#paint5_linear_5443_13679)"/>
<path d="M38.7496 21.8753C37.9206 21.8753 37.1261 22.2047 36.5399 22.7908C35.9537 23.3766 35.6247 24.1716 35.6247 25.0005C35.6247 25.8292 35.9538 26.6241 36.5399 27.2102C37.126 27.7961 37.9206 28.1254 38.7496 28.1254C39.5783 28.1254 40.3731 27.796 40.9593 27.2102C41.5451 26.6241 41.8745 25.8292 41.8745 25.0005C41.8736 24.1718 41.5439 23.3776 40.958 22.7918C40.3722 22.2059 39.5779 21.8766 38.7496 21.8753ZM38.7496 26.8753C38.2521 26.8753 37.7754 26.6778 37.4238 26.3264C37.0721 25.9747 36.8745 25.4977 36.8745 25.0006C36.8745 24.5031 37.0721 24.0262 37.4238 23.6748C37.7755 23.3231 38.2522 23.1255 38.7496 23.1255C39.2467 23.1255 39.7238 23.3231 40.0754 23.6748C40.4271 24.0262 40.6247 24.5032 40.6247 25.0006C40.6247 25.4977 40.4271 25.9748 40.0754 26.3264C39.7237 26.6778 39.2467 26.8753 38.7496 26.8753Z" fill="url(#paint6_linear_5443_13679)"/>
<path d="M30.0003 24.3746H22.5003C22.1552 24.3746 21.8751 24.6547 21.8751 24.9999C21.8751 25.3451 22.1552 25.6248 22.5003 25.6248H30.0003C30.3455 25.6248 30.6253 25.3451 30.6253 24.9999C30.6253 24.6547 30.3455 24.3746 30.0003 24.3746Z" fill="url(#paint7_linear_5443_13679)"/>
<path d="M29.5581 11.4333L22.0581 18.9333C21.9375 19.0496 21.8686 19.2097 21.8674 19.3775C21.8658 19.5449 21.9319 19.7062 22.0504 19.8247C22.1688 19.9431 22.3301 20.0092 22.4976 20.0077C22.6654 20.0064 22.8254 19.9376 22.9417 19.8169L30.4417 12.3169C30.6786 12.0719 30.6752 11.6821 30.4342 11.4408C30.193 11.1998 29.8031 11.1964 29.5581 11.4333Z" fill="url(#paint8_linear_5443_13679)"/>
<path d="M22.9414 30.1832C22.6964 29.9462 22.3065 29.9496 22.0653 30.1909C21.8243 30.4319 21.8209 30.8217 22.0578 31.067L29.5578 38.567V38.5667C29.8028 38.8037 30.1927 38.8003 30.4339 38.5593C30.6749 38.318 30.6783 37.9285 30.4414 37.6832L22.9414 30.1832Z" fill="url(#paint9_linear_5443_13679)"/>
<defs>
<linearGradient id="paint0_linear_5443_13679" x1="37.6624" y1="33.6397" x2="37.6624" y2="41.6506" gradientUnits="userSpaceOnUse">
<stop stop-color="#ED3040"/>
<stop offset="1" stop-color="#2D23F4"/>
</linearGradient>
<linearGradient id="paint1_linear_5443_13679" x1="37.6624" y1="33.6397" x2="37.6624" y2="41.6506" gradientUnits="userSpaceOnUse">
<stop stop-color="#ED3040"/>
<stop offset="1" stop-color="#2D23F4"/>
</linearGradient>
<linearGradient id="paint2_linear_5443_13679" x1="37.6624" y1="33.6397" x2="37.6624" y2="41.6506" gradientUnits="userSpaceOnUse">
<stop stop-color="#ED3040"/>
<stop offset="1" stop-color="#2D23F4"/>
</linearGradient>
<linearGradient id="paint3_linear_5443_13679" x1="37.6624" y1="33.6397" x2="37.6624" y2="41.6506" gradientUnits="userSpaceOnUse">
<stop stop-color="#ED3040"/>
<stop offset="1" stop-color="#2D23F4"/>
</linearGradient>
<linearGradient id="paint4_linear_5443_13679" x1="37.6624" y1="33.6397" x2="37.6624" y2="41.6506" gradientUnits="userSpaceOnUse">
<stop stop-color="#ED3040"/>
<stop offset="1" stop-color="#2D23F4"/>
</linearGradient>
<linearGradient id="paint5_linear_5443_13679" x1="37.6624" y1="33.6397" x2="37.6624" y2="41.6506" gradientUnits="userSpaceOnUse">
<stop stop-color="#ED3040"/>
<stop offset="1" stop-color="#2D23F4"/>
</linearGradient>
<linearGradient id="paint6_linear_5443_13679" x1="37.6624" y1="33.6397" x2="37.6624" y2="41.6506" gradientUnits="userSpaceOnUse">
<stop stop-color="#ED3040"/>
<stop offset="1" stop-color="#2D23F4"/>
</linearGradient>
<linearGradient id="paint7_linear_5443_13679" x1="37.6624" y1="33.6397" x2="37.6624" y2="41.6506" gradientUnits="userSpaceOnUse">
<stop stop-color="#ED3040"/>
<stop offset="1" stop-color="#2D23F4"/>
</linearGradient>
<linearGradient id="paint8_linear_5443_13679" x1="37.6624" y1="33.6397" x2="37.6624" y2="41.6506" gradientUnits="userSpaceOnUse">
<stop stop-color="#ED3040"/>
<stop offset="1" stop-color="#2D23F4"/>
</linearGradient>
<linearGradient id="paint9_linear_5443_13679" x1="37.6624" y1="33.6397" x2="37.6624" y2="41.6506" gradientUnits="userSpaceOnUse">
<stop stop-color="#ED3040"/>
<stop offset="1" stop-color="#2D23F4"/>
</linearGradient>
</defs>
</svg>
