<svg width="50" height="50" viewBox="0 0 50 50" fill="none" xmlns="http://www.w3.org/2000/svg">
<path d="M13.7369 32.8737C13.5594 32.5758 13.18 32.4707 12.876 32.6358L12.5059 32.8522C12.2523 32.9989 12.1289 33.2985 12.2043 33.5827C12.28 33.8669 12.5363 34.0642 12.8286 34.0639C12.9418 34.0622 13.0525 34.0327 13.1516 33.9773L13.5174 33.7609C13.6639 33.673 13.7693 33.5297 13.8104 33.3633C13.8517 33.1968 13.825 33.0207 13.7369 32.8737Z" fill="url(#paint0_linear_5443_13677)"/>
<path d="M14.8389 32.2372C14.9544 32.4382 15.1679 32.562 15.3985 32.562C15.512 32.5624 15.6234 32.5325 15.7212 32.4754L16.0913 32.259H16.0916C16.4006 32.0799 16.5064 31.6826 16.3282 31.3719C16.15 31.0612 15.7549 30.9545 15.4459 31.134L15.0759 31.3504V31.3501C14.9274 31.4363 14.8189 31.5779 14.7745 31.7443C14.7302 31.9108 14.7535 32.0882 14.8389 32.2372Z" fill="url(#paint1_linear_5443_13677)"/>
<path d="M10.2678 34.1373L9.89773 34.3537H9.87203C9.26771 33.7081 8.3981 33.384 7.52112 33.4776C6.64448 33.5712 5.86198 34.0719 5.40615 34.8308C4.95032 35.5895 4.87357 36.5192 5.19925 37.343C5.52461 38.1667 6.21471 38.7902 7.06427 39.0274C7.91385 39.2649 8.82481 39.0888 9.52624 38.5519C10.2277 38.015 10.6391 37.1789 10.6378 36.2924C10.6375 36.0139 10.5968 35.7371 10.5173 35.4703H10.543L10.9131 35.2539H10.9134C11.2117 35.0771 11.3165 34.6939 11.15 34.3882C10.9748 34.0748 10.5805 33.9628 10.2678 34.1373ZM7.81914 37.8503C7.41237 37.8517 7.02195 37.6903 6.73398 37.4017C6.44567 37.1135 6.28316 36.7216 6.28249 36.3129C6.28182 35.9039 6.44266 35.5116 6.72964 35.2221C7.01695 34.9325 7.40671 34.7698 7.81318 34.7691C8.21995 34.7688 8.61004 34.9312 8.89766 35.2201C9.1853 35.509 9.34681 35.9009 9.34681 36.3099C9.34581 36.7173 9.18464 37.1079 8.89833 37.3964C8.61235 37.6849 8.22426 37.8483 7.81914 37.8503Z" fill="url(#paint2_linear_5443_13677)"/>
<path d="M16.9088 17.4156C17.0296 17.5411 17.1958 17.6112 17.3693 17.6106C17.6312 17.6146 17.8692 17.4582 17.9706 17.2153C18.0721 16.9724 18.0163 16.6919 17.8298 16.507L17.5198 16.1869L17.5201 16.1865C17.4023 16.0567 17.2372 15.9805 17.0623 15.9752C16.8874 15.9698 16.7183 16.0359 16.5928 16.1584C16.4673 16.2808 16.3969 16.4493 16.3972 16.6251C16.3976 16.8009 16.469 16.969 16.5948 17.0912L16.9088 17.4156Z" fill="url(#paint3_linear_5443_13677)"/>
<path d="M12.5452 12.9103C12.6644 13.0385 12.8312 13.1106 13.0057 13.1093C13.1749 13.1103 13.3378 13.0432 13.4576 12.9234C13.7072 12.6691 13.7072 12.2604 13.4576 12.0057L13.1432 11.6856H13.1436C13.1079 11.652 13.0671 11.6242 13.0231 11.6033C13.537 10.8125 13.6277 9.8166 13.266 8.94491C12.904 8.07288 12.1358 7.43801 11.2151 7.24912C10.2945 7.06055 9.34046 7.3424 8.66807 8.0024C7.99534 8.66207 7.69131 9.61401 7.85652 10.5441C8.02137 11.4742 8.6337 12.2621 9.49166 12.6476C10.3496 13.0328 11.3416 12.966 12.1409 12.4687C12.1616 12.5137 12.1876 12.556 12.2183 12.5945L12.5452 12.9103ZM9.14521 10.0542C9.14421 9.64487 9.30472 9.25229 9.59203 8.96238C9.87901 8.67247 10.2691 8.50941 10.6759 8.50907C11.0827 8.50873 11.4731 8.67113 11.7607 8.96037C12.0484 9.2496 12.2099 9.64218 12.2096 10.0512C12.2092 10.4602 12.047 10.8524 11.7587 11.1413C11.4704 11.4299 11.08 11.5916 10.6732 11.5903C10.2681 11.5892 9.88038 11.4268 9.59405 11.139C9.30774 10.8514 9.14621 10.4612 9.14521 10.0542Z" fill="url(#paint4_linear_5443_13677)"/>
<path d="M14.727 15.1651C14.979 15.4181 15.3874 15.4181 15.6394 15.1651C15.889 14.9104 15.889 14.5021 15.6394 14.2474L15.325 13.9273H15.3254C15.2076 13.7974 15.0424 13.7209 14.8675 13.7156C14.693 13.7102 14.5235 13.7766 14.398 13.8991C14.2729 14.0216 14.2021 14.19 14.2025 14.3658C14.2028 14.5417 14.2742 14.7098 14.4 14.8319L14.727 15.1651Z" fill="url(#paint5_linear_5443_13677)"/>
<path d="M22.4435 12.9885C22.1075 13.0908 21.9156 13.4458 22.0134 13.7847L22.1295 14.2175C22.2066 14.5004 22.4619 14.6967 22.7535 14.698C22.8119 14.6974 22.8697 14.6886 22.9257 14.6719C23.2617 14.5699 23.4536 14.2149 23.3562 13.8756L23.2401 13.4428H23.2397C23.1436 13.0972 22.7882 12.8945 22.4435 12.9885Z" fill="url(#paint6_linear_5443_13677)"/>
<path d="M39.1981 16.1177C39.3416 16.116 39.4807 16.0677 39.5942 15.9791L39.8264 15.7973V15.7976C40.5529 16.3888 41.5226 16.5818 42.4182 16.313C43.3139 16.0446 44.02 15.349 44.3053 14.4541C44.5906 13.5592 44.4188 12.5805 43.8455 11.8383C43.2725 11.0957 42.3719 10.6857 41.4392 10.742C40.5062 10.7981 39.661 11.3134 39.1801 12.1194C38.6996 12.9254 38.6449 13.9176 39.0346 14.7718L38.8024 14.9537C38.5825 15.1231 38.4947 15.415 38.5845 15.6788C38.6742 15.9422 38.9211 16.1191 39.1981 16.1177ZM41.5997 12.054C42.0054 12.0563 42.3938 12.2204 42.6795 12.5103C42.9652 12.8002 43.125 13.1925 43.1233 13.6005C43.1217 14.0084 42.9592 14.3994 42.6715 14.6872C42.3839 14.9748 41.9941 15.1362 41.5883 15.1352C41.1825 15.1345 40.7934 14.9718 40.5068 14.6829C40.2202 14.3943 40.059 14.0027 40.059 13.5947C40.06 13.187 40.2212 12.7965 40.5075 12.5079C40.7938 12.2194 41.1815 12.0563 41.587 12.054L41.5997 12.054Z" fill="url(#paint7_linear_5443_13677)"/>
<path d="M36.9522 17.8571C37.0954 17.8571 37.2342 17.8098 37.3483 17.7229L37.6667 17.4719C37.9483 17.2522 37.9994 16.8441 37.7808 16.561C37.5619 16.2778 37.1565 16.2265 36.8749 16.4462L36.5565 16.6972H36.5562C36.3403 16.868 36.2552 17.1576 36.3443 17.4186C36.4334 17.68 36.6773 17.8561 36.9522 17.8571Z" fill="url(#paint8_linear_5443_13677)"/>
<path d="M36.8745 30.9307C36.5625 30.7707 36.1807 30.8898 36.0136 31.1991C35.8487 31.5112 35.9662 31.8984 36.2762 32.0645L36.6636 32.2722V32.2725C36.7577 32.3228 36.8625 32.3497 36.9693 32.3504C37.2062 32.349 37.4241 32.2182 37.5372 32.0084C37.6987 31.6951 37.5799 31.3092 37.2703 31.1428L36.8745 30.9307Z" fill="url(#paint9_linear_5443_13677)"/>
<path d="M33.2072 36.5742L32.9706 36.1803C32.8952 36.0088 32.7497 35.8786 32.5715 35.8229C32.3933 35.7672 32.2001 35.792 32.0412 35.8904C31.8824 35.9887 31.774 36.1514 31.7433 36.3363C31.7126 36.5215 31.7633 36.7107 31.8817 36.8554L32.1183 37.2493C32.2345 37.4365 32.437 37.5519 32.6562 37.5563C32.775 37.5573 32.8912 37.5241 32.9919 37.4613C33.2936 37.2748 33.3894 36.8792 33.2072 36.5742Z" fill="url(#paint10_linear_5443_13677)"/>
<path d="M20.1498 34.9988C20.0057 34.9052 19.8305 34.8737 19.663 34.9112C19.4955 34.9485 19.35 35.0518 19.2589 35.1978L19.0393 35.5528C18.8458 35.8551 18.9325 36.2581 19.2332 36.453C19.5338 36.6476 19.9346 36.5604 20.1284 36.258L20.3524 35.903L20.352 35.9034C20.4475 35.7571 20.4798 35.5783 20.4418 35.4078C20.4034 35.2374 20.2983 35.0898 20.1498 34.9988Z" fill="url(#paint11_linear_5443_13677)"/>
<path d="M18.7941 38.3694C18.9843 38.0661 18.8939 37.6648 18.5919 37.4735C18.2899 37.2826 17.8912 37.3735 17.7009 37.6772L17.4944 38.006C16.7359 37.745 15.903 37.8211 15.2036 38.2154C14.5045 38.6096 14.005 39.2844 13.8308 40.0712C13.6563 40.8577 13.8231 41.6821 14.2896 42.3374C14.7561 42.9931 15.4782 43.4179 16.2751 43.5058C17.072 43.5934 17.8685 43.336 18.4648 42.7975C19.0615 42.2593 19.4022 41.4909 19.4012 40.6846C19.4012 39.9417 19.1088 39.2291 18.5876 38.7026L18.7941 38.3694ZM16.5734 42.2255C16.1673 42.2241 15.7782 42.061 15.4919 41.7715C15.2053 41.4822 15.0448 41.0903 15.0458 40.6819C15.0464 40.2736 15.2083 39.882 15.4959 39.5938C15.7836 39.3056 16.173 39.1438 16.5791 39.1442C16.9852 39.1445 17.3746 39.3069 17.6616 39.5958C17.9486 39.8847 18.1101 40.2763 18.1101 40.6846C18.1101 41.094 17.9479 41.4866 17.6596 41.7758C17.3713 42.0647 16.9805 42.2265 16.5734 42.2255Z" fill="url(#paint12_linear_5443_13677)"/>
<path d="M36.543 25.7983C36.5454 23.5617 35.8433 21.3817 34.5373 19.5708C34.596 19.5879 34.657 19.5966 34.7181 19.597C34.8613 19.5976 35.0004 19.5503 35.1142 19.4627L35.4326 19.2161C35.7155 18.996 35.7676 18.5873 35.5487 18.3028C35.3301 18.0186 34.9237 17.9662 34.6407 18.186L34.3223 18.437C34.1648 18.5588 34.0737 18.748 34.0767 18.9477C31.9274 16.3604 28.6879 14.9478 25.3403 15.1377C21.9929 15.3279 18.932 17.0982 17.086 19.9124C15.2397 22.7262 14.8259 26.2524 15.9695 29.4212C17.1131 32.5901 19.6799 35.0287 22.8909 35.9974C26.1024 36.9658 29.5798 36.3504 32.2698 34.3379C34.9594 32.325 36.5438 29.1519 36.5431 25.7807L36.543 25.7983ZM31.3137 33.4409C30.963 33.6922 30.5949 33.9177 30.2119 34.116C27.4509 35.5585 24.1547 35.5145 21.4318 33.9992C21.1101 33.8174 20.7981 33.6181 20.4981 33.402C19.5988 32.7487 18.821 31.9414 18.1997 31.0173C17.9664 30.6646 17.7552 30.2976 17.567 29.9181C16.7484 28.2478 16.4447 26.3697 16.6947 24.5247C16.9447 22.6796 17.7371 20.9515 18.9702 19.5624C19.2592 19.2413 19.5682 18.9393 19.8955 18.6578C20.7668 17.9149 21.7659 17.3385 22.8437 16.9569C23.2492 16.8123 23.665 16.6979 24.0874 16.615C25.7579 16.2741 27.4894 16.4023 29.0919 16.9854C30.6946 17.5686 32.1064 18.5843 33.1729 19.9214L33.3881 20.1942C34.8915 22.2172 35.5181 24.7649 35.126 27.2593C34.7339 29.7536 33.3558 31.9829 31.3049 33.4409L31.3137 33.4409Z" fill="url(#paint13_linear_5443_13677)"/>
<path d="M31.7139 28.1614L30.4873 23.0331L30.1603 21.6785L29.6698 19.6143H29.6694C29.5863 19.2653 29.2376 19.0502 28.8906 19.1341C28.5435 19.2177 28.3296 19.5683 28.4127 19.9172L24.4144 22.5961L23.9839 22.886L23.2351 23.3836L22.9855 23.4444L19.3316 24.3101V24.3097C18.8711 24.4208 18.4733 24.711 18.2257 25.1167C17.9778 25.5223 17.9004 26.0105 18.0105 26.4736L18.2514 27.4776C18.3308 27.8705 18.5397 28.2248 18.8444 28.4832C19.1491 28.7415 19.5315 28.8888 19.9299 28.9012H20.0847L20.4204 29.5589L21.7115 32.1556H21.7118C21.8196 32.376 22.0442 32.5143 22.2884 32.5106C22.3899 32.5092 22.4897 32.4854 22.5811 32.4415L23.7043 31.8486C24.0166 31.6848 24.1424 31.3013 23.9886 30.9829L22.8437 28.7673C22.9228 28.8378 23.0075 28.9016 23.0976 28.9576C23.4977 29.2133 23.9853 29.2914 24.4448 29.174C24.7221 29.1069 24.9223 28.8633 24.9353 28.5767C24.9437 28.515 24.9437 28.4523 24.9353 28.3905C24.8836 28.1694 24.7204 27.9919 24.5049 27.9235L25.1332 27.9969L26.8547 28.2003L30.517 28.6288V28.6633H30.5173C30.5971 28.9364 30.8454 29.1247 31.1287 29.1264C31.1787 29.1324 31.2291 29.1324 31.2792 29.1264C31.6249 29.0408 31.8378 28.6918 31.757 28.3432L31.7139 28.1614ZM30.1776 27.2957L24.914 26.6639L24.333 24.2144L28.7398 21.2631L30.1776 27.2957ZM19.4909 27.2179L19.2543 26.2139H19.254C19.2229 26.0854 19.2443 25.9495 19.3127 25.8368C19.3814 25.724 19.4919 25.6432 19.62 25.6123L23.1318 24.7466L23.5362 26.4387V26.534L23.5793 26.7159L20.2697 27.5121L20.0675 27.5641C19.9397 27.5946 19.8049 27.5728 19.6931 27.5034C19.593 27.4326 19.5216 27.3282 19.4909 27.2091L19.4909 27.2179Z" fill="url(#paint14_linear_5443_13677)"/>
<path d="M31.0433 22.6219H31.1381H31.1378C31.2776 22.6212 31.4131 22.5759 31.5252 22.492L32.571 21.7001C32.852 21.4824 32.9093 21.0794 32.7001 20.7912C32.4986 20.5207 32.1242 20.4509 31.8395 20.6311C31.8222 20.6388 31.8062 20.6489 31.7922 20.6617L30.7464 21.4535C30.7137 21.4747 30.6846 21.5008 30.6603 21.5314C30.4497 21.7622 30.4317 22.1108 30.6172 22.3622C30.718 22.5038 30.8718 22.5977 31.0433 22.6219Z" fill="url(#paint15_linear_5443_13677)"/>
<path d="M33.3883 25.1361L32.0972 24.9109C31.7602 24.8787 31.4559 25.1133 31.3991 25.4485C31.3427 25.784 31.5533 26.1065 31.882 26.1877L33.173 26.4172H33.2848V26.4168C33.6415 26.448 33.9556 26.1826 33.9866 25.8239C34.0173 25.4656 33.7533 25.1498 33.3969 25.1186L33.3883 25.1361Z" fill="url(#paint16_linear_5443_13677)"/>
<path d="M30.9348 23.9155C30.9702 24.0859 31.074 24.2339 31.2215 24.3248C31.369 24.4154 31.5468 24.4413 31.714 24.396L33.1342 24.054C33.4813 23.9705 33.6952 23.6199 33.6117 23.2709C33.5286 22.9219 33.1799 22.7069 32.8329 22.7904L31.4127 23.1367C31.2455 23.1746 31.1007 23.2786 31.0109 23.4252C30.9212 23.5719 30.8938 23.7484 30.9348 23.9155Z" fill="url(#paint17_linear_5443_13677)"/>
<path d="M35.8374 39.3306C35.5301 39.332 35.2251 39.3833 34.9338 39.4823C34.9178 39.4199 34.8931 39.3601 34.8607 39.3048L34.6241 38.9152H34.6238C34.542 38.7552 34.3979 38.6364 34.2257 38.5874C34.0532 38.5384 33.8686 38.5632 33.7155 38.6565C33.5623 38.7498 33.4545 38.9028 33.4178 39.079C33.3811 39.2555 33.4188 39.439 33.5223 39.586L33.7589 39.9799C33.7932 40.0346 33.8353 40.0842 33.8836 40.1272C33.2513 40.7415 32.9403 41.6177 33.0427 42.496C33.1455 43.3745 33.6501 44.1543 34.4069 44.6046C35.1637 45.0552 36.0864 45.1247 36.9016 44.7925C37.7165 44.4603 38.3308 43.7644 38.5624 42.9112C38.7936 42.0582 38.6157 41.1452 38.0815 40.443C37.5469 39.7404 36.717 39.3293 35.8374 39.3307L35.8374 39.3306ZM35.8374 43.7061C35.4313 43.7061 35.0416 43.5437 34.7542 43.2548C34.4669 42.9659 34.3054 42.574 34.3054 42.1652C34.3054 41.7569 34.4669 41.365 34.7542 41.0761C35.0415 40.7872 35.4313 40.6248 35.8374 40.6248C36.2439 40.6248 36.6336 40.7872 36.921 41.0761C37.2083 41.365 37.3698 41.7569 37.3698 42.1652C37.3698 42.5739 37.2083 42.9658 36.921 43.2548C36.6337 43.5437 36.2439 43.7061 35.8374 43.7061Z" fill="url(#paint18_linear_5443_13677)"/>
<path d="M42.1726 31.6712C41.3617 31.6755 40.5919 32.0302 40.0593 32.6449L39.9776 32.5885L39.5902 32.3808C39.2752 32.2124 38.8841 32.3325 38.7165 32.6492C38.549 32.9657 38.6685 33.3592 38.9835 33.5277L39.3666 33.7354H39.3662C39.3966 33.7505 39.4283 33.7623 39.461 33.77C39.3909 34.0163 39.3545 34.2713 39.3535 34.5273C39.3535 35.2806 39.6512 36.003 40.1808 36.5351C40.7107 37.0676 41.4291 37.3666 42.1783 37.3663C42.9274 37.3659 43.6455 37.0663 44.1748 36.5331C44.704 36.0003 45.001 35.2776 45 34.5246C44.9993 33.7713 44.701 33.0492 44.1708 32.5174C43.6402 31.9856 42.9214 31.6873 42.1726 31.6883L42.1726 31.6712ZM42.1726 36.0462C41.7648 36.0462 41.3741 35.8829 41.0868 35.5926C40.7991 35.302 40.6386 34.9081 40.6406 34.4984C40.6423 34.0884 40.8068 33.6965 41.0968 33.4086C41.3871 33.121 41.7795 32.9613 42.187 32.965C42.5947 32.969 42.9838 33.1361 43.2688 33.429C43.5534 33.7223 43.7103 34.1176 43.7046 34.5272C43.7003 34.9326 43.5364 35.3194 43.2494 35.604C42.9625 35.8885 42.5753 36.0476 42.1726 36.0462Z" fill="url(#paint19_linear_5443_13677)"/>
<path d="M21.0451 10.6821H21.1569C21.1596 10.7204 21.1666 10.758 21.1786 10.7945L21.2947 11.2274C21.3701 11.5096 21.6237 11.7062 21.9144 11.7079C21.9728 11.7079 22.0308 11.6991 22.0866 11.6817C22.4226 11.5797 22.6145 11.2247 22.517 10.8855L22.4009 10.4526H22.4006C22.3912 10.4171 22.3782 10.3822 22.3619 10.349C23.1794 9.90806 23.73 9.09201 23.8351 8.16527C23.9402 7.23852 23.5865 6.31882 22.8888 5.70448C22.1907 5.08978 21.2377 4.85859 20.3377 5.08542C19.4381 5.31224 18.7062 5.96853 18.3792 6.84159C18.0525 7.71431 18.1723 8.69311 18.6999 9.46043C19.2275 10.2275 20.0958 10.6858 21.0234 10.6864L21.0451 10.6821ZM21.0451 6.3067C21.4512 6.3067 21.841 6.46909 22.1283 6.75799C22.4156 7.04689 22.5771 7.4388 22.5771 7.84751C22.5771 8.2562 22.4156 8.6481 22.1283 8.93704C21.841 9.22594 21.4512 9.388 21.0451 9.388C20.6387 9.388 20.2489 9.22594 19.9616 8.93704C19.6743 8.64814 19.5127 8.25623 19.5127 7.84751C19.5117 7.4385 19.6726 7.04592 19.9602 6.7567C20.2479 6.46781 20.6384 6.30569 21.0451 6.3067Z" fill="url(#paint20_linear_5443_13677)"/>
<defs>
<linearGradient id="paint0_linear_5443_13677" x1="37.6624" y1="33.6397" x2="37.6624" y2="41.6506" gradientUnits="userSpaceOnUse">
<stop stop-color="#ED3040"/>
<stop offset="1" stop-color="#2D23F4"/>
</linearGradient>
<linearGradient id="paint1_linear_5443_13677" x1="37.6624" y1="33.6397" x2="37.6624" y2="41.6506" gradientUnits="userSpaceOnUse">
<stop stop-color="#ED3040"/>
<stop offset="1" stop-color="#2D23F4"/>
</linearGradient>
<linearGradient id="paint2_linear_5443_13677" x1="37.6624" y1="33.6397" x2="37.6624" y2="41.6506" gradientUnits="userSpaceOnUse">
<stop stop-color="#ED3040"/>
<stop offset="1" stop-color="#2D23F4"/>
</linearGradient>
<linearGradient id="paint3_linear_5443_13677" x1="37.6624" y1="33.6397" x2="37.6624" y2="41.6506" gradientUnits="userSpaceOnUse">
<stop stop-color="#ED3040"/>
<stop offset="1" stop-color="#2D23F4"/>
</linearGradient>
<linearGradient id="paint4_linear_5443_13677" x1="37.6624" y1="33.6397" x2="37.6624" y2="41.6506" gradientUnits="userSpaceOnUse">
<stop stop-color="#ED3040"/>
<stop offset="1" stop-color="#2D23F4"/>
</linearGradient>
<linearGradient id="paint5_linear_5443_13677" x1="37.6624" y1="33.6397" x2="37.6624" y2="41.6506" gradientUnits="userSpaceOnUse">
<stop stop-color="#ED3040"/>
<stop offset="1" stop-color="#2D23F4"/>
</linearGradient>
<linearGradient id="paint6_linear_5443_13677" x1="37.6624" y1="33.6397" x2="37.6624" y2="41.6506" gradientUnits="userSpaceOnUse">
<stop stop-color="#ED3040"/>
<stop offset="1" stop-color="#2D23F4"/>
</linearGradient>
<linearGradient id="paint7_linear_5443_13677" x1="37.6624" y1="33.6397" x2="37.6624" y2="41.6506" gradientUnits="userSpaceOnUse">
<stop stop-color="#ED3040"/>
<stop offset="1" stop-color="#2D23F4"/>
</linearGradient>
<linearGradient id="paint8_linear_5443_13677" x1="37.6624" y1="33.6397" x2="37.6624" y2="41.6506" gradientUnits="userSpaceOnUse">
<stop stop-color="#ED3040"/>
<stop offset="1" stop-color="#2D23F4"/>
</linearGradient>
<linearGradient id="paint9_linear_5443_13677" x1="37.6624" y1="33.6397" x2="37.6624" y2="41.6506" gradientUnits="userSpaceOnUse">
<stop stop-color="#ED3040"/>
<stop offset="1" stop-color="#2D23F4"/>
</linearGradient>
<linearGradient id="paint10_linear_5443_13677" x1="37.6624" y1="33.6397" x2="37.6624" y2="41.6506" gradientUnits="userSpaceOnUse">
<stop stop-color="#ED3040"/>
<stop offset="1" stop-color="#2D23F4"/>
</linearGradient>
<linearGradient id="paint11_linear_5443_13677" x1="37.6624" y1="33.6397" x2="37.6624" y2="41.6506" gradientUnits="userSpaceOnUse">
<stop stop-color="#ED3040"/>
<stop offset="1" stop-color="#2D23F4"/>
</linearGradient>
<linearGradient id="paint12_linear_5443_13677" x1="37.6624" y1="33.6397" x2="37.6624" y2="41.6506" gradientUnits="userSpaceOnUse">
<stop stop-color="#ED3040"/>
<stop offset="1" stop-color="#2D23F4"/>
</linearGradient>
<linearGradient id="paint13_linear_5443_13677" x1="37.6624" y1="33.6397" x2="37.6624" y2="41.6506" gradientUnits="userSpaceOnUse">
<stop stop-color="#ED3040"/>
<stop offset="1" stop-color="#2D23F4"/>
</linearGradient>
<linearGradient id="paint14_linear_5443_13677" x1="37.6624" y1="33.6397" x2="37.6624" y2="41.6506" gradientUnits="userSpaceOnUse">
<stop stop-color="#ED3040"/>
<stop offset="1" stop-color="#2D23F4"/>
</linearGradient>
<linearGradient id="paint15_linear_5443_13677" x1="37.6624" y1="33.6397" x2="37.6624" y2="41.6506" gradientUnits="userSpaceOnUse">
<stop stop-color="#ED3040"/>
<stop offset="1" stop-color="#2D23F4"/>
</linearGradient>
<linearGradient id="paint16_linear_5443_13677" x1="37.6624" y1="33.6397" x2="37.6624" y2="41.6506" gradientUnits="userSpaceOnUse">
<stop stop-color="#ED3040"/>
<stop offset="1" stop-color="#2D23F4"/>
</linearGradient>
<linearGradient id="paint17_linear_5443_13677" x1="37.6624" y1="33.6397" x2="37.6624" y2="41.6506" gradientUnits="userSpaceOnUse">
<stop stop-color="#ED3040"/>
<stop offset="1" stop-color="#2D23F4"/>
</linearGradient>
<linearGradient id="paint18_linear_5443_13677" x1="37.6624" y1="33.6397" x2="37.6624" y2="41.6506" gradientUnits="userSpaceOnUse">
<stop stop-color="#ED3040"/>
<stop offset="1" stop-color="#2D23F4"/>
</linearGradient>
<linearGradient id="paint19_linear_5443_13677" x1="37.6624" y1="33.6397" x2="37.6624" y2="41.6506" gradientUnits="userSpaceOnUse">
<stop stop-color="#ED3040"/>
<stop offset="1" stop-color="#2D23F4"/>
</linearGradient>
<linearGradient id="paint20_linear_5443_13677" x1="37.6624" y1="33.6397" x2="37.6624" y2="41.6506" gradientUnits="userSpaceOnUse">
<stop stop-color="#ED3040"/>
<stop offset="1" stop-color="#2D23F4"/>
</linearGradient>
</defs>
</svg>
