<svg width="50" height="50" viewBox="0 0 50 50" fill="none" xmlns="http://www.w3.org/2000/svg">
<path d="M17.5987 12.7185C17.5987 11.8871 17.2713 11.0729 16.6508 10.4622C16.0303 9.83453 15.2203 9.49511 14.3586 9.49511H14.3415C12.549 9.49511 11.0844 10.92 11.0498 12.6673C11.0152 14.3467 12.5665 15.9074 14.2898 15.9414H14.3415C15.1515 15.9414 15.9615 15.602 16.582 15.0084C17.2193 14.3808 17.5987 13.5494 17.5987 12.7185ZM14.3069 15.2798C12.9284 15.263 11.6874 14.0074 11.7045 12.6673C11.7216 11.2932 12.9281 10.1396 14.3411 10.1396H14.3582C15.0304 10.1396 15.7026 10.4278 16.1848 10.9201C16.6846 11.412 16.9432 12.0569 16.9432 12.7181C16.9432 13.3625 16.6329 14.0241 16.1161 14.5333C15.5995 15.0084 14.9445 15.263 14.3069 15.2798Z" fill="url(#paint0_linear_5443_13675)"/>
<path d="M24.9572 13.346C26.0083 13.346 27.0595 12.9049 27.8695 12.1415C28.6967 11.3442 29.1793 10.2755 29.1964 9.18997C29.2135 8.1044 28.7654 7.05253 27.9728 6.25521C27.1628 5.44105 26.1116 5 24.9913 5H24.9568C22.6475 5 20.7346 6.83204 20.6829 9.10515C20.6484 11.3274 22.6132 13.312 24.888 13.346H24.9572ZM22.355 9.13877C22.3721 7.78185 23.5786 6.62827 24.9575 6.62827H24.9746C25.6293 6.62827 26.3015 6.9165 26.7841 7.40876C27.2668 7.90069 27.5425 8.52829 27.5425 9.18994C27.5425 9.83441 27.2323 10.4792 26.7154 10.9711C26.2156 11.4631 25.578 11.7516 24.9404 11.7176C23.5786 11.7004 22.3379 10.4452 22.355 9.13877Z" fill="url(#paint1_linear_5443_13675)"/>
<path d="M35.5382 15.9241H35.5898C36.3998 15.9241 37.2099 15.5847 37.8304 14.9911C38.468 14.3804 38.847 13.5493 38.8645 12.718C38.8645 11.8867 38.5371 11.0725 37.9166 10.4617C37.2961 9.8341 36.4861 9.49468 35.6244 9.49468H35.6073C33.8149 9.49468 32.3502 10.9196 32.3156 12.6668C32.2639 14.3463 33.8148 15.8902 35.5382 15.9241ZM35.5902 10.1395C36.2794 10.1395 36.9516 10.4277 37.4343 10.92C37.9341 11.4119 38.1927 12.0568 38.1927 12.718C38.1927 13.3625 37.8824 14.0241 37.3655 14.5332C36.8658 15.0252 36.1936 15.2625 35.556 15.2797C34.1775 15.2629 32.9365 14.0073 32.9535 12.6672C32.9706 11.2931 34.1768 10.1395 35.5902 10.1395Z" fill="url(#paint2_linear_5443_13675)"/>
<path d="M31.5748 22.9639C32.04 22.9639 32.4019 22.5908 32.4019 22.1497V17.756C32.4364 17.1792 32.0745 16.1273 30.5578 15.6185C30.5578 15.6185 28.0761 14.7872 27.473 14.6006L26.9903 14.4481L25.0087 16.4326L22.9922 14.4478L22.5096 14.6003C21.9065 14.7868 19.4248 15.6182 19.4248 15.6182C17.9081 16.127 17.5636 17.1788 17.5806 17.7556V22.1494C17.5806 22.6073 17.9596 22.9635 18.4078 22.9635C18.8559 22.9635 19.2349 22.5905 19.2349 22.1494V17.7049C19.252 17.586 19.4073 17.3486 19.9416 17.1621C19.9416 17.1621 21.5962 16.6193 22.5095 16.3139L25.0086 18.7568L27.4729 16.3311C28.3863 16.6365 30.0408 17.1792 30.0408 17.1792C30.5577 17.3489 30.713 17.5695 30.7475 17.6543V22.1497C30.7472 22.6076 31.1265 22.9639 31.5746 22.9639L31.5748 22.9639Z" fill="url(#paint3_linear_5443_13675)"/>
<path d="M40.2091 17.7395C40.14 17.7054 38.6237 16.9761 38.0548 16.8065L37.8652 16.7384L35.9007 18.6722L34.0741 16.8742C33.9362 16.7385 33.7293 16.7385 33.6089 16.8742C33.4881 17.0099 33.471 17.2136 33.6089 17.3321L35.9011 19.5884L38.0555 17.4678C38.676 17.7052 39.9341 18.2991 39.9684 18.316C40.9162 18.6382 40.9162 19.181 40.9162 19.2322V22.2178C40.9162 22.4043 41.0712 22.54 41.2436 22.54C41.4331 22.54 41.5709 22.3875 41.5709 22.2178V19.2662C41.5531 19.2322 41.6222 18.2143 40.2091 17.7396V17.7395Z" fill="url(#paint4_linear_5443_13675)"/>
<path d="M10.1019 18.3161C10.119 18.3161 11.36 17.7053 11.9805 17.4679L14.1174 19.5886L16.4096 17.3323C16.5474 17.1966 16.5474 16.9929 16.4096 16.8744C16.2717 16.7387 16.0648 16.7555 15.9444 16.8744L14.1345 18.6723L12.1699 16.7382L11.9804 16.8063C11.4116 16.976 9.87807 17.7225 9.86064 17.7393C8.3956 18.214 8.46469 19.2319 8.46469 19.2487V22.2344C8.46469 22.4209 8.61965 22.5566 8.79206 22.5566C8.96446 22.5566 9.11942 22.4041 9.11942 22.2344V19.2319C9.11942 19.2151 9.10231 18.6552 10.1019 18.3161Z" fill="url(#paint5_linear_5443_13675)"/>
<path d="M13.9619 37.4511C13.8586 37.6036 13.8928 37.8073 14.031 37.909C14.0827 37.943 14.1518 37.977 14.2205 37.977C14.3238 37.977 14.4275 37.9262 14.4962 37.8413C15.0651 37.078 15.5474 36.2807 15.961 35.4834C18.4253 36.0433 21.0794 36.3484 23.8539 36.3655H24.0263V41.794C24.0263 41.9805 24.1813 42.1162 24.3537 42.1162C24.5261 42.1162 24.681 41.9637 24.681 41.794V36.3487C27.6796 36.3319 30.6094 35.9925 33.2119 35.3649C33.3497 35.3309 33.5047 35.2969 33.6429 35.2632C34.091 36.1622 34.6079 37.0276 35.2113 37.8417C35.2804 37.9265 35.3837 37.9774 35.487 37.9774C35.5561 37.9774 35.6248 37.9605 35.6765 37.9094C35.8314 37.8077 35.866 37.604 35.7456 37.4514C35.1942 36.705 34.729 35.9076 34.298 35.0766C36.073 34.5847 37.6584 33.9739 39.0373 33.2446C39.1581 33.1937 39.2443 33.0749 39.2443 32.9392C39.2443 32.7526 39.0893 32.6169 38.9169 32.6169H38.8307L38.7616 32.651C37.4002 33.3803 35.7972 33.9911 34.0052 34.483C33.9881 34.449 33.9706 34.3981 33.9535 34.3641C32.8849 32.1078 32.2989 29.6822 32.2302 27.1377C32.2302 26.9512 32.0752 26.8323 31.8854 26.8155C31.6958 26.8155 31.558 26.968 31.558 27.1549C31.6442 29.7842 32.2473 32.2947 33.3505 34.6358C33.3505 34.6358 33.3505 34.6527 33.3676 34.6527C33.2814 34.6695 33.178 34.7035 33.0919 34.7207C30.5585 35.3315 27.6803 35.6537 24.7334 35.6877V27.138C24.7334 26.9515 24.5785 26.8158 24.4061 26.8158C24.2337 26.8158 24.0787 26.9683 24.0787 27.138V35.6877H23.9238C21.2525 35.6537 18.7021 35.3655 16.3408 34.8564C16.3753 34.7884 16.4099 34.7039 16.4441 34.6359C17.5469 32.2948 18.1503 29.7843 18.2365 27.1549C18.2365 26.9683 18.0987 26.8155 17.9092 26.8155C17.7368 26.8323 17.5644 26.9512 17.5644 27.1377C17.4782 29.6654 16.9096 32.1082 15.841 34.3642C15.7893 34.483 15.7202 34.6015 15.6686 34.7036C14.066 34.3133 12.6009 33.8214 11.2912 33.2617C11.1188 33.1937 10.9293 33.2617 10.8602 33.4314C10.7911 33.6011 10.8602 33.7877 11.0326 33.8557C12.3253 34.4325 13.79 34.9076 15.3583 35.2975C14.9099 36.0433 14.4618 36.7558 13.962 37.4511L13.9619 37.4511Z" fill="url(#paint6_linear_5443_13675)"/>
<path d="M5.00006 25.305C5.00006 30.7334 7.30936 35.9754 11.342 39.6905C14.9266 42.9815 19.5797 44.8643 24.4223 44.9832C24.6118 45 24.8013 45 25.0082 45C30.1095 45 34.9518 43.1171 38.6577 39.6904C42.6904 35.9755 44.9997 30.7336 44.9997 25.3049L45 24.4908H5L5.00006 25.305ZM43.3284 26.1363C43.1214 30.8691 41.0707 35.2457 37.5207 38.5031C34.1086 41.6412 29.6621 43.3715 24.9922 43.3715C24.8543 43.3715 24.7165 43.3715 24.5095 43.3547C20.0288 43.253 15.7377 41.5226 12.4635 38.503C8.91348 35.2289 6.87985 30.8695 6.65585 26.1363L43.3284 26.1363Z" fill="url(#paint7_linear_5443_13675)"/>
<defs>
<linearGradient id="paint0_linear_5443_13675" x1="0" y1="0" x2="0" y2="1" gradientUnits="objectBoundingBox">
<stop stop-color="#ED3040"/>
<stop offset="1" stop-color="#2D23F4"/>
</linearGradient>
<linearGradient id="paint1_linear_5443_13675" x1="0" y1="0" x2="0" y2="1" gradientUnits="objectBoundingBox">
<stop stop-color="#ED3040"/>
<stop offset="1" stop-color="#2D23F4"/>
</linearGradient>
<linearGradient id="paint2_linear_5443_13675" x1="0" y1="0" x2="0" y2="1" gradientUnits="objectBoundingBox">
<stop stop-color="#ED3040"/>
<stop offset="1" stop-color="#2D23F4"/>
</linearGradient>
<linearGradient id="paint3_linear_5443_13675" x1="0" y1="0" x2="0" y2="1" gradientUnits="objectBoundingBox">
<stop stop-color="#ED3040"/>
<stop offset="1" stop-color="#2D23F4"/>
</linearGradient>
<linearGradient id="paint4_linear_5443_13675" x1="0" y1="0" x2="0" y2="1" gradientUnits="objectBoundingBox">
<stop stop-color="#ED3040"/>
<stop offset="1" stop-color="#2D23F4"/>
</linearGradient>
<linearGradient id="paint5_linear_5443_13675" x1="0" y1="0" x2="0" y2="1" gradientUnits="objectBoundingBox">
<stop stop-color="#ED3040"/>
<stop offset="1" stop-color="#2D23F4"/>
</linearGradient>
<linearGradient id="paint6_linear_5443_13675" x1="0" y1="0" x2="0" y2="1" gradientUnits="objectBoundingBox">
<stop stop-color="#ED3040"/>
<stop offset="1" stop-color="#2D23F4"/>
</linearGradient>
<linearGradient id="paint7_linear_5443_13675" x1="0" y1="0" x2="0" y2="1" gradientUnits="objectBoundingBox">
<stop stop-color="#ED3040"/>
<stop offset="1" stop-color="#2D23F4"/>
</linearGradient>
</defs>
</svg>
