<svg width="50" height="50" viewBox="0 0 50 50" fill="none" xmlns="http://www.w3.org/2000/svg">
<path d="M34.4999 26.2498C29.2616 26.2498 24.9999 30.4556 24.9999 35.6247C24.9999 40.7939 29.2618 44.9996 34.4999 44.9996C39.7381 44.9996 44 40.7939 44 35.6247C44 30.4556 39.7381 26.2498 34.4999 26.2498ZM34.4999 43.75C29.9602 43.75 26.2662 40.1049 26.2662 35.6247C26.2662 31.1445 29.9599 27.4995 34.4999 27.4995C39.04 27.4995 42.7336 31.1445 42.7336 35.6247C42.7336 40.1049 39.04 43.75 34.4999 43.75Z" fill="url(#paint0_linear_5443_13705)"/>
<path d="M34.4999 28.7499C30.6589 28.7499 27.533 31.8342 27.533 35.625C27.533 39.4155 30.6586 42.5001 34.4999 42.5001C36.022 42.5001 37.467 42.0244 38.6808 41.1244C38.9608 40.9169 39.017 40.5255 38.8068 40.2494C38.5971 39.9737 38.1999 39.9182 37.9202 40.1251C36.9277 40.861 35.7451 41.2499 34.4999 41.2499C31.3572 41.2499 28.7998 38.7261 28.7998 35.625C28.7998 32.5237 31.3574 30 34.4999 30C37.6426 30 40.1999 32.5239 40.1999 35.625C40.1999 36.6143 39.9366 37.5869 39.4375 38.437C39.2628 38.7356 39.3658 39.1184 39.6688 39.2914C39.9721 39.4645 40.3593 39.3628 40.5347 39.0632C41.1443 38.0224 41.4668 36.8336 41.4668 35.625C41.4668 31.8342 38.3413 28.7499 34.4999 28.7499Z" fill="url(#paint1_linear_5443_13705)"/>
<path d="M27.3499 43.75H12.9663C9.82355 43.75 7.26623 41.2261 7.26623 38.125V32.555C7.26623 26.4599 11.1315 20.9276 16.8934 18.7498H25.5061C28.5354 19.8949 31.1492 22.0236 32.8705 24.7593C32.9902 24.95 33.1973 25.0542 33.4095 25.0542C33.5236 25.0542 33.6389 25.0242 33.7432 24.9606C34.0402 24.7782 34.1314 24.393 33.9472 24.0999C32.2985 21.4812 29.8971 19.3725 27.095 18.0594C27.3644 17.7347 27.5335 17.3263 27.5335 16.875C27.5335 15.9393 26.8336 15.168 25.924 15.0288L28.1217 9.60698C28.2515 9.2863 28.0938 8.92251 27.7691 8.79446L25.1154 7.74684L25.6145 5.77627C25.6619 5.58925 25.6189 5.39201 25.4991 5.24004C25.3794 5.08807 25.1949 5 25.0001 5H17.3999C17.2048 5 17.0206 5.0887 16.9009 5.24066C16.7811 5.39262 16.7381 5.59018 16.7855 5.77688L17.2846 7.74746L14.6309 8.79508C14.3059 8.92378 14.1481 9.28695 14.2783 9.6076L15.7984 13.3574C15.9289 13.6775 16.2969 13.8332 16.6218 13.7054C16.9468 13.5767 17.1045 13.2135 16.9744 12.8929L15.69 9.72295L17.5951 8.97117L18.2108 11.401C18.2957 11.736 18.6407 11.9404 18.9789 11.856C19.3183 11.7723 19.5242 11.433 19.4399 11.098L18.2111 6.24973H24.1887L22.644 12.3479C22.5592 12.6828 22.7656 13.0221 23.1051 13.1059C23.1563 13.1192 23.2075 13.1248 23.2591 13.1248C23.5429 13.1248 23.8006 12.9353 23.8728 12.6515L24.805 8.9714L26.7102 9.72286L24.5712 14.9998H16.7668C15.7193 14.9998 14.8667 15.8413 14.8667 16.8749C14.8667 17.3268 15.0364 17.7362 15.307 18.0606C9.69029 20.6871 6 26.3534 6 32.5549V38.1249C6 41.9154 9.1255 45 12.9669 45H27.3505C27.7 45 27.9838 44.72 27.9838 44.3751C27.9838 44.0299 27.7003 43.7498 27.3505 43.7498L27.3499 43.75ZM25.6326 16.25C25.9814 16.25 26.2659 16.5307 26.2659 16.8749C26.2659 17.2192 25.9814 17.4999 25.6326 17.4999L16.7657 17.5002C16.4169 17.5002 16.1324 17.2195 16.1324 16.8752C16.1321 16.5307 16.4165 16.25 16.7657 16.25H25.6326Z" fill="url(#paint2_linear_5443_13705)"/>
<path d="M34.4999 33.7502H35.8039C36.1533 33.7502 36.4371 33.4701 36.4371 33.1253C36.4371 32.7804 36.1533 32.5003 35.8039 32.5003L34.4999 32.5C33.4524 32.5 32.5998 33.3415 32.5998 34.3751C32.5998 35.4087 33.4525 36.2502 34.5373 36.2502C34.8862 36.2502 35.1706 36.5308 35.1706 36.8751C35.1706 37.2193 34.8862 37.5 34.5373 37.5H33.2334C32.8839 37.5 32.6001 37.7801 32.6001 38.1249C32.6001 38.4698 32.8839 38.7499 33.2334 38.7499H34.5373C35.5849 38.7499 36.4374 37.9084 36.4374 36.8748C36.4374 35.8414 35.5848 35.0001 34.4999 35.0001C34.1511 35.0001 33.8667 34.7194 33.8667 34.3751C33.8667 34.0309 34.1511 33.7502 34.4999 33.7502Z" fill="url(#paint3_linear_5443_13705)"/>
<defs>
<linearGradient id="paint0_linear_5443_13705" x1="37.0293" y1="33.6397" x2="37.0293" y2="41.6506" gradientUnits="userSpaceOnUse">
<stop stop-color="#ED3040"/>
<stop offset="1" stop-color="#2D23F4"/>
</linearGradient>
<linearGradient id="paint1_linear_5443_13705" x1="37.0293" y1="33.6397" x2="37.0293" y2="41.6506" gradientUnits="userSpaceOnUse">
<stop stop-color="#ED3040"/>
<stop offset="1" stop-color="#2D23F4"/>
</linearGradient>
<linearGradient id="paint2_linear_5443_13705" x1="37.0293" y1="33.6397" x2="37.0293" y2="41.6506" gradientUnits="userSpaceOnUse">
<stop stop-color="#ED3040"/>
<stop offset="1" stop-color="#2D23F4"/>
</linearGradient>
<linearGradient id="paint3_linear_5443_13705" x1="37.0293" y1="33.6397" x2="37.0293" y2="41.6506" gradientUnits="userSpaceOnUse">
<stop stop-color="#ED3040"/>
<stop offset="1" stop-color="#2D23F4"/>
</linearGradient>
</defs>
</svg>
