<svg width="50" height="50" viewBox="0 0 50 50" fill="none" xmlns="http://www.w3.org/2000/svg">
<path d="M30.0003 33.0256L30.3121 32.8457L31.2968 34.5507C31.0749 35.0267 31.0799 35.5999 31.3617 36.0886L32.1949 37.5314C32.5032 38.0658 33.0653 38.3649 33.6416 38.3649C33.9238 38.3649 34.2099 38.2931 34.4717 38.142L41.6664 33.9883C42.4611 33.5292 42.7345 32.5081 42.2762 31.7111L41.4438 30.2662C41.1612 29.7787 40.6679 29.4889 40.1451 29.442L34.0092 18.8143C34.2303 18.3384 34.2253 17.7656 33.9447 17.2765L33.1111 15.8325C32.6513 15.0378 31.6309 14.7648 30.8339 15.2219L30.0007 15.7033V5.83352C30.0007 5.37293 29.6278 5 29.1672 5H5.83354C5.37294 5 5 5.37293 5 5.83352V37.4998C5 37.96 5.37294 38.3329 5.83354 38.3329H12.1412C12.1996 38.4783 12.265 38.6209 12.3446 38.7585C12.7898 39.5301 13.5084 40.0818 14.3688 40.3121C14.6514 40.3879 14.9374 40.4263 15.2246 40.4263C15.8106 40.4263 16.3985 40.2668 16.9521 39.9442L19.302 38.3333H29.1662C29.6268 38.3333 29.9997 37.9604 29.9997 37.5002V33.0254L30.0003 33.0256ZM28.3336 36.6668H21.7326L26.8023 33.1905L27.1137 33.7299C27.2244 33.921 27.4067 34.0614 27.6201 34.1182C27.6904 34.1371 27.7635 34.1471 27.8354 34.1471C27.9807 34.1471 28.1245 34.109 28.2518 34.0356L28.3336 33.9883L28.3336 36.6668ZM16.3602 38.3335L16.0645 38.5365C15.6789 38.7587 15.2294 38.8171 14.8 38.7037C14.5451 38.6353 14.3205 38.505 14.1287 38.3343C13.9968 38.2166 13.8788 38.084 13.7884 37.9267C13.71 37.7918 13.6535 37.648 13.6158 37.5011C13.547 37.2301 13.547 36.9452 13.6196 36.6676C13.62 36.6657 13.6208 36.6638 13.6212 36.6618C13.7361 36.2328 14.011 35.8745 14.3951 35.6518L24.8154 29.7508L25.5832 31.0798L25.9669 31.745L18.7895 36.6683L17.5746 37.5018L16.3602 38.3335ZM6.66688 36.6668V6.66778H28.3342V16.6675L23.6398 19.3771C23.2542 19.6001 22.9773 19.9592 22.8628 20.3898C22.747 20.8204 22.8066 21.2694 23.0285 21.6543L23.862 23.0983C24.1438 23.5866 24.6371 23.8753 25.1603 23.9219L26.1458 25.6293L24.0857 26.8184C23.687 27.0491 23.5502 27.5581 23.7809 27.9568L23.9827 28.3063L13.5703 34.2031C13.5688 34.2043 13.5665 34.2054 13.5646 34.2066C12.7941 34.6518 12.2419 35.3703 12.0121 36.23C11.9733 36.375 11.9483 36.5207 11.9287 36.6668L6.66676 36.6672L6.66688 36.6668ZM25.6413 27.8446L26.9793 27.0722L28.3342 29.4185L29.1673 30.8618L29.4791 31.4024L29.1673 31.5823L28.3342 32.0632L28.1412 32.1747L25.6413 27.8446ZM30.0004 28.971L29.1669 27.5277L28.3337 26.0845L27.7924 25.1468L26.7559 23.3518L28.3337 22.441L29.1669 21.96L30.0004 21.4791L32.7164 19.9112L38.5492 30.0132L32.5887 33.4545L31.5522 31.6599L30.0004 28.971ZM40.0014 31.1002L40.8349 32.5442L33.6396 36.6975L32.806 35.2546L40.0014 31.1002ZM32.5011 18.1104L30.0013 19.5537L29.1678 20.0346L28.3346 20.5156L25.3061 22.2642L24.4729 20.8217L28.3349 18.5918L29.1681 18.1109L30.0016 17.6299L31.6683 16.6676L32.5015 18.1105L32.5011 18.1104ZM8.33381 16.6664C8.33381 16.2081 8.70906 15.8329 9.16735 15.8329H10.0005C10.4588 15.8329 10.834 16.2081 10.834 16.6664C10.834 17.1247 10.4588 17.4995 10.0005 17.4995H9.16735C8.70907 17.4999 8.33381 17.1246 8.33381 16.6664ZM24.1674 16.6664C24.1674 17.1246 23.7922 17.4995 23.3339 17.4995H16.6672C16.2089 17.4995 15.8336 17.1246 15.8336 16.6664C15.8336 16.2081 16.2089 15.8329 16.6672 15.8329H23.3335C23.7922 15.8332 24.1674 16.2089 24.1674 16.6664ZM13.3338 15.8333C13.7921 15.8333 14.167 16.2085 14.167 16.6668C14.167 17.1251 13.7921 17.4999 13.3338 17.4999C12.8755 17.4999 12.5003 17.125 12.5003 16.6668C12.5003 16.2089 12.8759 15.8333 13.3338 15.8333ZM8.33411 20C8.33411 19.5395 8.70705 19.1665 9.16765 19.1665H20.0013C20.4619 19.1665 20.8348 19.5395 20.8348 20C20.8348 20.4606 20.4619 20.8336 20.0013 20.8336H9.16765C8.70667 20.8332 8.3345 20.4606 8.3345 20H8.33411ZM22.5004 23.3333C22.5004 23.7939 22.1275 24.1668 21.6669 24.1668H12.5007C12.0401 24.1668 11.6675 23.7939 11.6675 23.3333C11.6675 22.8727 12.0401 22.5002 12.5007 22.5002H21.6673C22.1279 22.4998 22.5004 22.8727 22.5004 23.3333ZM22.5004 26.6662C22.5004 27.1268 22.1275 27.4997 21.6669 27.4997L12.5007 27.5001C12.0401 27.5001 11.6675 27.1271 11.6675 26.6666C11.6675 26.206 12.0401 25.8334 12.5007 25.8334H21.6673C22.1279 25.8334 22.5004 26.2056 22.5004 26.6662ZM12.5004 30.833C12.0398 30.833 11.6673 30.46 11.6673 29.9998C11.6673 29.5393 12.0398 29.1663 12.5004 29.1663H15.8338C16.2944 29.1663 16.6673 29.5393 16.6673 29.9998C16.6673 30.46 16.2944 30.833 15.8338 30.833H12.5004ZM12.9168 14.1662H22.9168C24.5251 14.1662 25.8334 12.8575 25.8334 11.2496C25.8334 9.64143 24.5247 8.3331 22.9168 8.3331H12.9168C11.3086 8.3331 10.0002 9.64182 10.0002 11.2496C10.0002 12.8579 11.3086 14.1662 12.9168 14.1662ZM24.1668 11.2496C24.1668 11.939 23.6059 12.4995 22.9169 12.4995L12.9169 12.4999C12.2276 12.4999 11.667 11.939 11.667 11.25C11.667 10.5607 12.228 10.0002 12.9169 10.0002H22.9169C23.6063 9.99978 24.1668 10.5603 24.1668 11.2496ZM42.5004 39.9997H32.4995C31.1207 39.9997 29.9997 41.1212 29.9997 42.4998V44.1665C29.9997 44.6271 30.3722 45 30.8328 45H44.1665C44.6271 45 45 44.6271 45 44.1665V42.4998C44.9996 41.1207 43.8784 39.9997 42.5002 39.9997H42.5004ZM31.6668 42.4998C31.6668 42.04 32.0401 41.6663 32.4999 41.6663H42.4999C42.9598 41.6663 43.3335 42.04 43.3335 42.4998V43.3333H31.6662L31.6668 42.4998ZM10.0005 29.9992C10.0005 30.4575 9.62563 30.8324 9.16734 30.8324C8.70906 30.8324 8.3338 30.4575 8.3338 29.9992C8.3338 29.541 8.70905 29.1657 9.16734 29.1657C9.62564 29.1657 10.0005 29.5409 10.0005 29.9992ZM10.0005 23.3331C10.0005 23.7914 9.62563 24.1666 9.16734 24.1666C8.70906 24.1666 8.3338 23.7914 8.3338 23.3331C8.3338 22.8748 8.70905 22.5 9.16734 22.5C9.62564 22.5 10.0005 22.8748 10.0005 23.3331ZM10.0005 26.666C10.0005 27.1242 9.62563 27.4995 9.16734 27.4995C8.70906 27.4995 8.3338 27.1243 8.3338 26.666C8.3338 26.2077 8.70905 25.8328 9.16734 25.8328C9.62563 25.8332 10.0005 26.2081 10.0005 26.666Z" fill="url(#paint0_linear_6236_23320)"/>
<defs>
<linearGradient id="paint0_linear_6236_23320" x1="0" y1="0" x2="0" y2="1" gradientUnits="objectBoundingBox">
<stop stop-color="#ED3040"/>
<stop offset="1" stop-color="#2D23F4"/>
</linearGradient>
</defs>
</svg>
