<svg width="50" height="50" viewBox="0 0 50 50" fill="none" xmlns="http://www.w3.org/2000/svg">
<path d="M31.2503 42.4999H18.7504C18.5582 42.4999 18.3764 42.4112 18.2583 42.2595C18.1398 42.1082 18.0976 41.9103 18.1441 41.7236L19.394 36.7235H19.3943C19.4637 36.4453 19.7137 36.25 20.0006 36.25H30.0003C30.2869 36.25 30.5369 36.4453 30.6063 36.7235L31.8562 41.7236H31.8565C31.903 41.9103 31.8608 42.1082 31.7427 42.2595C31.6242 42.4112 31.4425 42.4999 31.2502 42.4999H31.2503ZM19.5507 41.25H30.4493L29.5117 37.5002L20.4885 37.4999L19.5507 41.25Z" fill="url(#paint0_linear_6236_23308)"/>
<path d="M33.1256 45H16.8759C16.5444 45 16.2262 44.8685 15.992 44.634C15.7576 44.3996 15.6258 44.0817 15.6258 43.7501V42.5C15.6258 42.1684 15.7576 41.8506 15.992 41.6161C16.2262 41.3816 16.5444 41.2501 16.8759 41.2501H33.1256C33.4572 41.2501 33.7751 41.3816 34.0096 41.6161C34.244 41.8505 34.3755 42.1684 34.3755 42.5V43.7501C34.3755 44.0817 34.244 44.3996 34.0096 44.634C33.7751 44.8685 33.4572 45 33.1256 45ZM16.8752 43.7502H33.1249L33.1253 42.5H16.8755L16.8752 43.7502Z" fill="url(#paint1_linear_6236_23308)"/>
<path d="M44.3751 37.5003H5.62492C5.27974 37.5003 5 37.2206 5 36.8754V9.37539C5 9.0302 5.27974 8.75015 5.62492 8.75015H9.99997V10.0003H6.24984V36.2499H43.7495V10.0003H39.9994V8.75015H44.3744C44.5401 8.75015 44.6992 8.81621 44.8164 8.93344C44.9336 9.05068 44.9994 9.20947 44.9994 9.37539V36.8754C44.9994 37.0413 44.9336 37.2001 44.8164 37.3174C44.6992 37.4346 44.5401 37.5003 44.3744 37.5003H44.3751Z" fill="url(#paint2_linear_6236_23308)"/>
<path d="M44.3751 37.5003H5.62492C5.27974 37.5003 5 37.2206 5 36.8754V33.1256C5 32.7804 5.27974 32.5004 5.62492 32.5004H44.3751C44.5407 32.5004 44.6998 32.5664 44.817 32.6837C44.9342 32.8009 45 32.9597 45 33.1256V36.8754C45 37.0413 44.9342 37.2001 44.817 37.3174C44.6998 37.4346 44.5407 37.5003 44.3751 37.5003ZM6.24976 36.2505H43.7494V33.7505H6.24976V36.2505Z" fill="url(#paint3_linear_6236_23308)"/>
<path d="M40.0004 33.7505H10.0004C9.65518 33.7505 9.37544 33.4708 9.37544 33.1256V8.12571C9.37544 7.78052 9.65518 7.50078 10.0004 7.50078H40.0004C40.1663 7.50078 40.3251 7.56653 40.4424 7.68376C40.5596 7.801 40.6257 7.9601 40.6257 8.12571V33.1256C40.6257 33.2912 40.5596 33.4503 40.4424 33.5675C40.3251 33.6848 40.1663 33.7505 40.0004 33.7505ZM10.626 32.5004H39.3756V8.75016H10.626V32.5004Z" fill="url(#paint4_linear_6236_23308)"/>
<path d="M36.2506 8.74984H13.751C13.4058 8.74984 13.126 8.4701 13.126 8.12491V5.62493C13.126 5.27974 13.4058 5 13.751 5H36.2506C36.4162 5 36.5753 5.06575 36.6926 5.18298C36.8098 5.30022 36.8755 5.45932 36.8755 5.62493V8.12491C36.8755 8.29083 36.8098 8.44963 36.6926 8.56686C36.5753 8.68409 36.4162 8.74984 36.2506 8.74984ZM14.3758 7.50001H35.6258V6.24985H14.3758V7.50001Z" fill="url(#paint5_linear_6236_23308)"/>
<path d="M13.7502 8.74984H10.0004C9.65518 8.74984 9.37544 8.4701 9.37544 8.12491V5.62493C9.37544 5.27974 9.65518 5 10.0004 5H13.7502C13.9161 5 14.0749 5.06575 14.1921 5.18298C14.3094 5.30022 14.3754 5.45932 14.3754 5.62493V8.12491C14.3754 8.29083 14.3093 8.44963 14.1921 8.56686C14.0749 8.68409 13.9161 8.74984 13.7502 8.74984ZM10.6253 7.50001H13.1253V6.24985H10.6253V7.50001Z" fill="url(#paint6_linear_6236_23308)"/>
<path d="M40.0004 8.74984H36.2506C35.9054 8.74984 35.6257 8.4701 35.6257 8.12491V5.62493C35.6257 5.27974 35.9054 5 36.2506 5H40.0004C40.1663 5 40.3251 5.06575 40.4424 5.18298C40.5596 5.30022 40.6257 5.45932 40.6257 5.62493V8.12491C40.6257 8.29083 40.5596 8.44963 40.4424 8.56686C40.3251 8.68409 40.1663 8.74984 40.0004 8.74984ZM36.8755 7.50001H39.3755V6.24985H36.8755V7.50001Z" fill="url(#paint7_linear_6236_23308)"/>
<path d="M28.7502 29.3751H21.2502C20.905 29.3751 20.6253 29.0953 20.6253 28.7501V26.2502C20.6253 26.0845 20.691 25.9254 20.8082 25.8082L22.0581 24.5584H22.0584C22.1756 24.4411 22.3344 24.3751 22.5003 24.3751H27.5004C27.666 24.3751 27.8251 24.4411 27.942 24.5584L29.1918 25.8082H29.1921C29.3094 25.9254 29.3751 26.0845 29.3751 26.2502V28.7501C29.3751 28.9161 29.3094 29.0749 29.1921 29.1921C29.0749 29.3093 28.9161 29.3751 28.7502 29.3751ZM21.8751 28.1252H28.1253V26.5088L27.2414 25.6252H22.759L21.8751 26.5088V28.1252Z" fill="url(#paint8_linear_6236_23308)"/>
<path d="M24.3748 11.25H25.6246V24.9996H24.3748V11.25Z" fill="url(#paint9_linear_6236_23308)"/>
<path d="M18.1256 23.7499C17.1314 23.749 16.178 23.3536 15.4752 22.6505C14.7721 21.9474 14.3767 20.9944 14.3757 20C14.3757 19.6548 14.6555 19.3748 15.0006 19.3748H21.2505C21.4164 19.3748 21.5752 19.4409 21.6925 19.5581C21.8097 19.6753 21.8754 19.8341 21.8754 20C21.8745 20.9943 21.4791 21.9473 20.776 22.6505C20.0732 23.3536 19.12 23.749 18.1256 23.7499ZM15.7044 20.625C15.8899 21.3464 16.3873 21.9474 17.0616 22.2647C17.7355 22.5817 18.5158 22.5817 19.1897 22.2647C19.864 21.9474 20.3614 21.3464 20.5469 20.625H15.7044Z" fill="url(#paint10_linear_6236_23308)"/>
<path d="M31.8752 23.7499C30.8809 23.749 29.9279 23.3536 29.2247 22.6505C28.5216 21.9474 28.1262 20.9944 28.1253 20C28.1253 19.6548 28.405 19.3748 28.7502 19.3748H35.0001C35.166 19.3748 35.3248 19.4409 35.442 19.5581C35.5593 19.6753 35.6253 19.8341 35.6253 20C35.6241 20.9943 35.229 21.9473 34.5259 22.6505C33.8228 23.3536 32.8695 23.749 31.8752 23.7499ZM29.454 20.625C29.6394 21.3464 30.1372 21.9474 30.8111 22.2647C31.4851 22.5817 32.2653 22.5817 32.9396 22.2647C33.6136 21.9474 34.111 21.3464 34.2965 20.625H29.454Z" fill="url(#paint11_linear_6236_23308)"/>
<path d="M20.7044 20.3034L18.1256 15.6628L15.5469 20.3034L14.4542 19.6971L17.5791 14.0721H17.5794C17.6992 13.8866 17.9048 13.7744 18.1256 13.7744C18.3464 13.7744 18.552 13.8866 18.6717 14.0721L21.7966 19.6971L20.7044 20.3034Z" fill="url(#paint12_linear_6236_23308)"/>
<path d="M34.4539 20.3034L31.8752 15.6628L29.2964 20.3034L28.2038 19.6971L31.3287 14.0721H31.329C31.4487 13.8866 31.6544 13.7744 31.8752 13.7744C32.096 13.7744 32.3019 13.8866 32.4216 14.0721L35.5465 19.6971L34.4539 20.3034Z" fill="url(#paint13_linear_6236_23308)"/>
<path d="M16.2503 13.7501H33.7505V15H16.2503V13.7501Z" fill="url(#paint14_linear_6236_23308)"/>
<path d="M19.3753 28.1254H30.6255V29.3752H19.3753V28.1254Z" fill="url(#paint15_linear_6236_23308)"/>
<path d="M31.8752 28.1254H33.125V29.3752H31.8752V28.1254Z" fill="url(#paint16_linear_6236_23308)"/>
<defs>
<linearGradient id="paint0_linear_6236_23308" x1="37.6624" y1="33.6397" x2="37.6624" y2="41.6506" gradientUnits="userSpaceOnUse">
<stop stop-color="#ED3040"/>
<stop offset="1" stop-color="#2D23F4"/>
</linearGradient>
<linearGradient id="paint1_linear_6236_23308" x1="37.6624" y1="33.6397" x2="37.6624" y2="41.6506" gradientUnits="userSpaceOnUse">
<stop stop-color="#ED3040"/>
<stop offset="1" stop-color="#2D23F4"/>
</linearGradient>
<linearGradient id="paint2_linear_6236_23308" x1="37.6624" y1="33.6397" x2="37.6624" y2="41.6506" gradientUnits="userSpaceOnUse">
<stop stop-color="#ED3040"/>
<stop offset="1" stop-color="#2D23F4"/>
</linearGradient>
<linearGradient id="paint3_linear_6236_23308" x1="37.6624" y1="33.6397" x2="37.6624" y2="41.6506" gradientUnits="userSpaceOnUse">
<stop stop-color="#ED3040"/>
<stop offset="1" stop-color="#2D23F4"/>
</linearGradient>
<linearGradient id="paint4_linear_6236_23308" x1="37.6624" y1="33.6397" x2="37.6624" y2="41.6506" gradientUnits="userSpaceOnUse">
<stop stop-color="#ED3040"/>
<stop offset="1" stop-color="#2D23F4"/>
</linearGradient>
<linearGradient id="paint5_linear_6236_23308" x1="37.6624" y1="33.6397" x2="37.6624" y2="41.6506" gradientUnits="userSpaceOnUse">
<stop stop-color="#ED3040"/>
<stop offset="1" stop-color="#2D23F4"/>
</linearGradient>
<linearGradient id="paint6_linear_6236_23308" x1="37.6624" y1="33.6397" x2="37.6624" y2="41.6506" gradientUnits="userSpaceOnUse">
<stop stop-color="#ED3040"/>
<stop offset="1" stop-color="#2D23F4"/>
</linearGradient>
<linearGradient id="paint7_linear_6236_23308" x1="37.6624" y1="33.6397" x2="37.6624" y2="41.6506" gradientUnits="userSpaceOnUse">
<stop stop-color="#ED3040"/>
<stop offset="1" stop-color="#2D23F4"/>
</linearGradient>
<linearGradient id="paint8_linear_6236_23308" x1="37.6624" y1="33.6397" x2="37.6624" y2="41.6506" gradientUnits="userSpaceOnUse">
<stop stop-color="#ED3040"/>
<stop offset="1" stop-color="#2D23F4"/>
</linearGradient>
<linearGradient id="paint9_linear_6236_23308" x1="37.6624" y1="33.6397" x2="37.6624" y2="41.6506" gradientUnits="userSpaceOnUse">
<stop stop-color="#ED3040"/>
<stop offset="1" stop-color="#2D23F4"/>
</linearGradient>
<linearGradient id="paint10_linear_6236_23308" x1="37.6624" y1="33.6397" x2="37.6624" y2="41.6506" gradientUnits="userSpaceOnUse">
<stop stop-color="#ED3040"/>
<stop offset="1" stop-color="#2D23F4"/>
</linearGradient>
<linearGradient id="paint11_linear_6236_23308" x1="37.6624" y1="33.6397" x2="37.6624" y2="41.6506" gradientUnits="userSpaceOnUse">
<stop stop-color="#ED3040"/>
<stop offset="1" stop-color="#2D23F4"/>
</linearGradient>
<linearGradient id="paint12_linear_6236_23308" x1="37.6624" y1="33.6397" x2="37.6624" y2="41.6506" gradientUnits="userSpaceOnUse">
<stop stop-color="#ED3040"/>
<stop offset="1" stop-color="#2D23F4"/>
</linearGradient>
<linearGradient id="paint13_linear_6236_23308" x1="37.6624" y1="33.6397" x2="37.6624" y2="41.6506" gradientUnits="userSpaceOnUse">
<stop stop-color="#ED3040"/>
<stop offset="1" stop-color="#2D23F4"/>
</linearGradient>
<linearGradient id="paint14_linear_6236_23308" x1="37.6624" y1="33.6397" x2="37.6624" y2="41.6506" gradientUnits="userSpaceOnUse">
<stop stop-color="#ED3040"/>
<stop offset="1" stop-color="#2D23F4"/>
</linearGradient>
<linearGradient id="paint15_linear_6236_23308" x1="37.6624" y1="33.6397" x2="37.6624" y2="41.6506" gradientUnits="userSpaceOnUse">
<stop stop-color="#ED3040"/>
<stop offset="1" stop-color="#2D23F4"/>
</linearGradient>
<linearGradient id="paint16_linear_6236_23308" x1="37.6624" y1="33.6397" x2="37.6624" y2="41.6506" gradientUnits="userSpaceOnUse">
<stop stop-color="#ED3040"/>
<stop offset="1" stop-color="#2D23F4"/>
</linearGradient>
</defs>
</svg>
