<svg width="50" height="50" viewBox="0 0 50 50" fill="none" xmlns="http://www.w3.org/2000/svg">
<path d="M45 23.6666C45 23.4898 44.9299 23.3205 44.8049 23.1952C44.6799 23.0702 44.5103 23.0001 44.3335 23.0001H36.9054C36.71 22.2322 36.1818 21.5918 35.4651 21.2541C34.7483 20.9163 33.9185 20.9163 33.2017 21.2541C32.485 21.5918 31.9568 22.2322 31.7614 23.0001H24.3332C23.9651 23.0001 23.6664 23.2985 23.6664 23.6666C23.6664 24.035 23.9651 24.3334 24.3332 24.3334H25.8514L23.7548 28.0002L23.7635 28.0055H23.7632C23.7021 28.1041 23.6689 28.2173 23.6665 28.3336V28.6902C23.102 28.4893 22.5103 28.3748 21.9114 28.3506L19.6667 26.6669V24.7555C21.5492 23.6694 22.7935 21.7432 23.0094 19.5809C23.5589 19.436 24.0477 19.1191 24.404 18.6765C24.7607 18.2336 24.966 17.6887 24.9899 17.1208C25.4104 15.3323 25.6374 13.5036 25.6666 11.6667C25.6672 11.1445 25.6179 10.6234 25.5199 10.1108C25.3503 9.29449 24.9238 8.55421 24.3033 7.99813C23.6824 7.44205 22.8999 7.09937 22.0699 7.01998C21.8141 6.65897 21.4909 6.35101 21.1182 6.11281C20.0147 5.37468 18.4047 5 16.3333 5C12.4854 5 11.0765 6.30478 10.5933 7.02148C9.83501 7.10057 9.11519 7.39365 8.51727 7.86665C7.80736 8.42955 7.3211 9.22661 7.14524 10.1154C7.04817 10.6269 6.99948 11.146 7.0001 11.6667C7.02956 13.5037 7.25628 15.3323 7.67682 17.1208C7.69977 17.6915 7.90911 18.2392 8.27259 18.6802C8.63607 19.1209 9.13387 19.4307 9.68995 19.5619C9.88255 21.7282 11.1175 23.6654 13 24.754V26.6669L10.762 28.3454C9.21445 28.4068 7.75057 29.0643 6.67659 30.1805C5.60261 31.2967 5.00183 32.7847 5 34.3336V42.3334C5 43.0405 5.28099 43.7188 5.78092 44.2191C6.28118 44.719 6.95947 45 7.66656 45H25.0001C25.7072 45 26.3855 44.719 26.8857 44.2191C27.3857 43.7188 27.6667 43.0405 27.6667 42.3334V34.3336C27.6651 33.4075 27.4483 32.4948 27.0334 31.6667H27.6667C28.3738 31.6667 29.052 31.386 29.5523 30.8858C30.0522 30.3858 30.3332 29.7075 30.3332 29.0001V28.3336C30.3307 28.2183 30.2973 28.106 30.2368 28.0083L30.2455 28.003L28.1486 24.3334H31.7614C31.8656 24.7326 32.0613 25.102 32.3333 25.4121V38.4282C31.7627 38.5755 31.2568 38.9077 30.8949 39.3731C30.533 39.8383 30.3354 40.4105 30.3333 41.0001V41.1229V41.1226C29.9447 41.26 29.6082 41.5143 29.3693 41.8502C29.1308 42.1864 29.0018 42.5877 29 42.9999V43.6666C29 44.0202 29.1404 44.3595 29.3904 44.6095C29.6407 44.8594 29.9797 44.9999 30.3332 44.9999H38.3331C38.687 44.9999 39.0259 44.8594 39.2759 44.6095C39.5262 44.3595 39.6667 44.0202 39.6667 43.6666V42.9999C39.6648 42.5877 39.5358 42.1864 39.297 41.8502C39.0585 41.5143 38.7217 41.26 38.3331 41.1226V41.0001C38.3309 40.4105 38.1337 39.8383 37.7717 39.3731C37.4098 38.9076 36.9039 38.5755 36.3333 38.4282V25.4121C36.6053 25.102 36.801 24.7326 36.9052 24.3334H40.518L38.4215 28.0002L38.4302 28.0055H38.4299C38.3688 28.1041 38.3356 28.2173 38.3331 28.3336V29.0004V29.0001C38.3331 29.7075 38.6141 30.3858 39.1143 30.8858C39.6143 31.386 40.2926 31.6667 41 31.6667H42.3333C43.0404 31.6667 43.7186 31.386 44.2189 30.8858C44.7188 30.3858 44.9998 29.7075 44.9998 29.0001V28.3336C44.997 28.2183 44.9638 28.106 44.9034 28.0083L44.9121 28.003L42.8152 24.3334H44.3333C44.5101 24.3334 44.6798 24.2634 44.8047 24.1381C44.9297 24.0131 44.9998 23.8437 44.9998 23.6667L45 23.6666ZM27.0003 25.0108L28.5184 27.6668H25.4825L27.0003 25.0108ZM15.3396 43.6671L9.00033 34.9439L10.5876 31.4964C11.0416 34.1465 12.3163 38.3685 15.8975 41.5026C16.1487 41.7222 16.5236 41.7222 16.7749 41.5026C20.3628 38.3634 21.6357 34.1312 22.0875 31.4821L23.6822 34.9147L17.3269 43.6672L15.3396 43.6671ZM15.615 33.0003H17.0524L17.5285 38.7822H17.5282C17.1597 39.2465 16.7606 39.6853 16.3335 40.0963C15.9064 39.685 15.5073 39.2456 15.1388 38.781L15.615 33.0003ZM18.7222 37.0222L18.3569 32.5863L18.6683 32.2749C19.055 32.4117 19.4861 32.305 19.7643 32.0035L20.8216 30.8755C20.5027 33.0353 19.7912 35.1185 18.7222 37.0222ZM17.389 31.6667H15.2763L15.0003 31.3935L16.3336 29.9749L17.6669 31.3935L17.389 31.6667ZM13.667 32.3335C13.7805 32.3323 13.8931 32.3121 14.0001 32.2743L14.3121 32.5863L13.9474 37.0181H13.9477C12.882 35.116 12.1715 33.036 11.8502 30.8796L12.9115 32.0128C13.1094 32.2178 13.382 32.3338 13.667 32.3335ZM19.0005 30.8668L17.3288 29.087L19.0001 27.8334L20.6715 29.0866L19.0005 30.8668ZM8.45518 10.3662C8.56962 9.78993 8.88597 9.27321 9.34711 8.90942C9.81666 8.53509 10.3997 8.33195 10.9998 8.33349C11.2758 8.32481 11.5208 8.15392 11.6244 7.89806C11.6312 7.88224 12.3145 6.33341 16.3333 6.33341C18.5793 6.33341 19.7712 6.81599 20.3781 7.22193V7.22224C20.6497 7.3801 20.8761 7.60588 21.0346 7.87756C21.1252 8.14955 21.3798 8.33315 21.6667 8.33346C22.26 8.32695 22.8371 8.52544 23.3008 8.89574C23.7647 9.26574 24.086 9.78489 24.2114 10.3649C24.2926 10.7941 24.3336 11.2299 24.3332 11.6668C24.3221 12.7749 24.2269 13.8806 24.0479 14.9741C23.7356 14.7102 23.3669 14.5219 22.9699 14.4242C22.8489 13.469 22.4439 12.5724 21.8075 11.8504C21.1708 11.1281 20.3321 10.6139 19.3999 10.3741C19.0076 10.2593 18.5851 10.4048 18.3466 10.7366C17.8765 11.3678 17.1185 11.7179 16.3332 11.6668C15.539 11.7179 14.7738 11.3603 14.304 10.7181C14.0649 10.3968 13.6505 10.2591 13.2666 10.3735C12.3331 10.6145 11.4926 11.1278 10.8516 11.8476C10.2105 12.5674 9.798 13.4618 9.66652 14.4167C9.27885 14.5178 8.91908 14.7058 8.61453 14.9666C8.43744 13.8755 8.34316 12.7723 8.33323 11.6668C8.33292 11.2304 8.37386 10.795 8.45512 10.366L8.45518 10.3662ZM11.0185 19.4522C10.9915 19.1752 10.8777 18.9141 10.6934 18.7054C10.5095 18.4969 10.2645 18.3515 9.99314 18.2901C9.6095 18.1896 9.29068 17.9235 9.12289 17.5641C8.9551 17.2046 8.95634 16.789 9.12568 16.4305C9.29532 16.0717 9.6157 15.8075 9.99998 15.7088C10.2673 15.6468 10.5089 15.5035 10.6919 15.2991C10.8749 15.0948 10.9906 14.8386 11.0225 14.566C11.1062 13.9159 11.3748 13.3034 11.796 12.8013C12.2175 12.2991 12.7741 11.9285 13.4 11.7335C14.135 12.5786 15.214 13.0448 16.3333 13.0001C17.4526 13.0447 18.5316 12.5786 19.2665 11.7335C19.8924 11.9285 20.4491 12.2992 20.8709 12.8013C21.2923 13.3034 21.5609 13.9159 21.6446 14.566C21.6766 14.8386 21.792 15.0944 21.9749 15.2991C22.1579 15.5035 22.3992 15.6465 22.6665 15.7088C23.0508 15.8075 23.3712 16.072 23.5405 16.4305C23.7099 16.7894 23.7111 17.2046 23.5433 17.5641C23.3755 17.9235 23.0564 18.1896 22.6724 18.2901C22.4014 18.3515 22.1567 18.4966 21.9728 18.7051C21.7889 18.9132 21.6753 19.1743 21.6477 19.4506C21.4989 21.2451 20.4544 22.8429 18.8707 23.6999C17.2872 24.5565 15.3783 24.5565 13.795 23.6999C12.2115 22.8429 11.1669 21.2451 11.0178 19.4506L11.0185 19.4522ZM16.3332 25.6667C17.0121 25.6651 17.687 25.5584 18.3333 25.35V26.6669L16.3332 28.1671L14.3332 26.6669V25.35C14.9795 25.5584 15.6544 25.6654 16.3332 25.6667ZM13.6667 27.8333L15.338 29.0866L13.6667 30.8668L11.9953 29.0869L13.6667 27.8333ZM6.33319 42.3333V34.3334C6.33536 33.2889 6.68736 32.275 7.33309 31.454C7.9788 30.6328 8.8813 30.0519 9.89605 29.8041L7.78525 34.3886C7.59079 34.8156 7.63762 35.3134 7.90775 35.6968L13.6924 43.6665H7.66647C7.31292 43.6665 6.97393 43.526 6.72365 43.276C6.47369 43.026 6.33319 42.6867 6.33319 42.3332V42.3333ZM26.3336 42.3333C26.3336 42.6868 26.1931 43.0261 25.9432 43.2761C25.6929 43.5261 25.3539 43.6666 25.0003 43.6666H18.9741L24.7693 35.6802H24.7696C25.0326 35.2984 25.0748 34.8062 24.8803 34.3856L22.7729 29.8077V29.8074C23.2158 29.9141 23.6401 30.0871 24.0309 30.321C24.3255 30.8371 24.7839 31.2399 25.3334 31.4663C25.9785 32.2829 26.3306 33.2924 26.3337 34.3329L26.3336 42.3333ZM27.6669 30.3335H26.3336C25.9801 30.3335 25.6408 30.193 25.3908 29.943C25.1408 29.693 25.0003 29.3537 25.0003 29.0002H29.0005H29.0002C29.0002 29.3537 28.8597 29.693 28.6097 29.943C28.3598 30.193 28.0205 30.3335 27.6669 30.3335ZM41.6667 25.0109L43.1848 27.6669H40.1489L41.6667 25.0109ZM42.3335 30.3335H41.0002C40.6466 30.3335 40.3073 30.193 40.0573 29.943C39.8071 29.693 39.6669 29.3537 39.6669 29.0002H43.667H43.6667C43.6667 29.3537 43.5262 29.693 43.2763 29.943C43.0263 30.193 42.687 30.3335 42.3335 30.3335ZM33.6667 26.239C34.1021 26.3653 34.5646 26.3653 35 26.239V38.3333H33.6667V26.239ZM34.3335 22.3335C34.687 22.3335 35.0263 22.474 35.2763 22.724C35.5263 22.9742 35.6667 23.3132 35.6667 23.6668C35.6667 24.0207 35.5263 24.3596 35.2763 24.6096C35.0263 24.8599 34.687 25.0004 34.3335 25.0004C33.9799 25.0004 33.6406 24.8599 33.3906 24.6096C33.1407 24.3596 33.0002 24.0207 33.0002 23.6668C33.0002 23.3132 33.1407 22.9742 33.3906 22.724C33.6406 22.474 33.9799 22.3335 34.3335 22.3335ZM30.3333 43.667V43.0002C30.3333 42.6321 30.632 42.3338 31.0001 42.3338H37.6668C37.8436 42.3338 38.0132 42.4038 38.1382 42.5288C38.2632 42.6541 38.3333 42.8235 38.3333 43.0002V43.667H30.3333ZM37 41.0005H31.6666C31.6666 40.6469 31.8071 40.3076 32.0574 40.0576C32.3073 39.8074 32.6463 39.6672 33.0002 39.6672H35.6667C36.0203 39.6672 36.3596 39.8074 36.6096 40.0576C36.8595 40.3076 37 40.6469 37 41.0005Z" fill="url(#paint0_linear_6236_23322)"/>
<defs>
<linearGradient id="paint0_linear_6236_23322" x1="37.6624" y1="33.6397" x2="37.6624" y2="41.6506" gradientUnits="userSpaceOnUse">
<stop stop-color="#ED3040"/>
<stop offset="1" stop-color="#2D23F4"/>
</linearGradient>
</defs>
</svg>
