<svg width="50" height="50" viewBox="0 0 50 50" fill="none" xmlns="http://www.w3.org/2000/svg">
<path d="M44.5016 40.9963H39.6096V35.2169C39.6096 30.1729 35.2523 25.9609 29.4277 25.417L28.7263 25.4166C28.5108 25.4166 28.3327 25.5835 28.2639 25.7889C28.2535 25.8177 28.252 25.848 28.2469 25.8784C28.2423 25.9072 28.2303 25.9344 28.2303 25.9636C28.2303 27.7578 26.7811 29.2174 24.9997 29.2174C23.2182 29.2174 21.769 27.7578 21.7686 25.9823C21.7697 25.9687 21.7717 25.9321 21.7717 25.9185C21.7717 25.6415 21.5488 25.4166 21.2734 25.4166L20.526 25.4186C18.8438 25.5761 17.2598 26.0453 15.819 26.8113C12.4199 28.6194 10.3906 31.7616 10.3906 35.2163V41.0384C10.2141 41.1159 10.0908 41.2917 10.0908 41.4975C10.0908 41.7745 10.3137 41.9993 10.5891 41.9993H44.5017C44.7771 41.9993 45 41.7745 45 41.4975C44.9996 41.2209 44.7764 40.9964 44.5009 40.9964L44.5016 40.9963ZM11.5254 35.9241H13.962V40.9959H11.3868L11.3872 35.8961C11.432 35.9098 11.4764 35.9241 11.5254 35.9241ZM36.0383 35.9241H38.6135V40.9959H36.0383V35.9241ZM38.5973 34.9209H36.0387V33.7082C36.0387 33.4313 35.8158 33.2064 35.5404 33.2064H32.7721L29.5102 26.4354C34.5925 26.966 38.4289 30.568 38.5973 34.9209ZM25 30.2207C26.7783 30.2207 28.3025 29.1076 28.924 27.5177L31.6646 33.206H22.7343C22.4589 33.206 22.236 33.4309 22.236 33.7078C22.236 33.9848 22.4589 34.2097 22.7343 34.2097H32.1482L32.5723 35.0893C32.6584 35.2678 32.8357 35.3717 33.0208 35.3717C33.0934 35.3717 33.1675 35.3558 33.2378 35.3215C33.4854 35.2005 33.5886 34.9006 33.4684 34.6512L33.2556 34.2097H35.042V40.9959H14.9581V34.2097H16.772L16.5603 34.6524C16.4405 34.9021 16.5448 35.2017 16.7924 35.3223C16.8627 35.3558 16.9357 35.3721 17.0087 35.3721C17.1941 35.3721 17.3718 35.2678 17.4576 35.0881L17.8782 34.2101H19.6214C19.8968 34.2101 20.1197 33.9852 20.1197 33.7082C20.1197 33.4312 19.8968 33.2064 19.6214 33.2064H18.3584L21.073 27.534C21.6941 29.106 23.2197 30.2207 25 30.2207ZM16.284 27.699C17.5857 27.0065 19.0172 26.5817 20.4942 26.4312L17.252 33.2065H14.4598C14.1844 33.2065 13.9615 33.4314 13.9615 33.7083V34.921H11.5249C11.479 34.921 11.4384 34.9354 11.3963 34.947C11.5006 31.9776 13.3071 29.2827 16.284 27.699Z" fill="url(#paint0_linear_6236_23314)"/>
<path d="M7.46237 40.9963H5.49828C5.22287 40.9963 5 41.2212 5 41.4981C5 41.7751 5.22287 42 5.49828 42H7.46237C7.73778 42 7.96065 41.7751 7.96065 41.4981C7.96065 41.2212 7.73816 40.9963 7.46237 40.9963Z" fill="url(#paint1_linear_6236_23314)"/>
<path d="M25.0001 10.7794C21.3793 10.7794 18.4337 14.1651 18.4337 18.3265C18.4333 22.4883 21.3793 25.874 25.0001 25.874C28.6073 25.874 31.5425 22.5128 31.5646 18.3724C31.5657 18.3604 31.5719 18.3499 31.5727 18.3374C31.5731 18.323 31.5661 18.311 31.5657 18.2962C31.5507 14.1487 28.6116 10.7794 25.0001 10.7794ZM25.0001 11.7831C27.7877 11.7831 30.0968 14.204 30.5008 17.3489C30.0991 16.9163 29.5912 16.2426 29.1516 15.5326C29.0809 15.4182 28.9677 15.3373 28.8368 15.3081C28.7066 15.2785 28.5699 15.3034 28.4571 15.377C25.7455 17.1506 21.5094 15.3556 21.4677 15.3369C21.3348 15.2797 21.1838 15.2832 21.0529 15.347C20.9227 15.4108 20.8265 15.5287 20.7894 15.6695C20.5252 16.6736 19.9416 17.2319 19.4758 17.5299C19.8118 14.2975 22.1587 11.7832 25 11.7832L25.0001 11.7831ZM25.0001 24.8703C22.0286 24.8703 19.6002 22.1203 19.4449 18.6743C20.0108 18.4323 21.0382 17.8247 21.5798 16.4541C22.8142 16.8918 26.0341 17.8025 28.5668 16.4732C29.1002 17.287 29.8603 18.2946 30.5545 18.6739C30.4004 22.1196 27.9716 24.8703 25.0001 24.8703Z" fill="url(#paint2_linear_6236_23314)"/>
<path d="M42.1492 9.0037H43.6653C43.9407 9.0037 44.1636 8.77884 44.1636 8.50185C44.1636 8.22486 43.9407 8 43.6653 8H42.1492C41.8738 8 41.6509 8.22486 41.6509 8.50185C41.6509 8.77884 41.8738 9.0037 42.1492 9.0037Z" fill="url(#paint3_linear_6236_23314)"/>
<path d="M8.97922 9.0037H39.3459C39.6213 9.0037 39.8442 8.77884 39.8442 8.50185C39.8442 8.22486 39.6213 8 39.3459 8H8.97922C8.70382 8 8.48095 8.22486 8.48095 8.50185C8.48133 8.77883 8.70382 9.0037 8.97922 9.0037Z" fill="url(#paint4_linear_6236_23314)"/>
<path d="M42.1492 14.277H43.6653C43.9407 14.277 44.1636 14.0522 44.1636 13.7752C44.1636 13.4982 43.9407 13.2733 43.6653 13.2733H42.1492C41.8738 13.2733 41.6509 13.4982 41.6509 13.7752C41.6509 14.0522 41.8738 14.277 42.1492 14.277Z" fill="url(#paint5_linear_6236_23314)"/>
<path d="M39.3459 13.2742H33.4968C33.2214 13.2742 32.9986 13.499 32.9986 13.776C32.9986 14.053 33.2214 14.2779 33.4968 14.2779H39.3459C39.6213 14.2779 39.8442 14.053 39.8442 13.776C39.8438 13.499 39.6213 13.2742 39.3459 13.2742Z" fill="url(#paint6_linear_6236_23314)"/>
<path d="M11.5254 13.2742C11.25 13.2742 11.0272 13.499 11.0272 13.776C11.0272 14.053 11.25 14.2779 11.5254 14.2779H16.0844C16.3598 14.2779 16.5827 14.053 16.5827 13.776C16.5827 13.499 16.3598 13.2742 16.0844 13.2742H11.5254Z" fill="url(#paint7_linear_6236_23314)"/>
<path d="M42.0543 19.5504H43.6642C43.9396 19.5504 44.1625 19.3255 44.1625 19.0485C44.1625 18.7715 43.9396 18.5467 43.6642 18.5467H42.0543C41.7789 18.5467 41.556 18.7715 41.556 19.0485C41.556 19.3255 41.7793 19.5504 42.0543 19.5504Z" fill="url(#paint8_linear_6236_23314)"/>
<path d="M39.3459 18.5475H35.0318C34.7564 18.5475 34.5335 18.7724 34.5335 19.0493C34.5335 19.3263 34.7564 19.5512 35.0318 19.5512H39.3459C39.6213 19.5512 39.8442 19.3263 39.8442 19.0493C39.8438 18.7724 39.6213 18.5475 39.3459 18.5475Z" fill="url(#paint9_linear_6236_23314)"/>
<path d="M8.97922 19.5504H15.1253C15.4007 19.5504 15.6236 19.3255 15.6236 19.0485C15.6236 18.7715 15.4007 18.5467 15.1253 18.5467H8.97922C8.70382 18.5467 8.48095 18.7715 8.48095 19.0485C8.48133 19.3255 8.70382 19.5504 8.97922 19.5504Z" fill="url(#paint10_linear_6236_23314)"/>
<path d="M43.6641 23.8208H42.148C41.8726 23.8208 41.6498 24.0457 41.6498 24.3227C41.6498 24.5997 41.8726 24.8245 42.148 24.8245H43.6641C43.9395 24.8245 44.1624 24.5997 44.1624 24.3227C44.1624 24.0453 43.9399 23.8208 43.6641 23.8208Z" fill="url(#paint11_linear_6236_23314)"/>
<path d="M39.3459 23.8208H35.7564C35.481 23.8208 35.2581 24.0457 35.2581 24.3227C35.2581 24.5997 35.481 24.8245 35.7564 24.8245H39.3459C39.6213 24.8245 39.8442 24.5997 39.8442 24.3227C39.8438 24.0453 39.6213 23.8208 39.3459 23.8208Z" fill="url(#paint12_linear_6236_23314)"/>
<path d="M5.49857 24.8247H16.4597C16.7351 24.8247 16.9579 24.5999 16.9579 24.3229C16.9579 24.0459 16.7351 23.821 16.4597 23.821L5.49857 23.8214C5.22317 23.8214 5.0003 24.0463 5.0003 24.3233C5.0003 24.5999 5.22317 24.8247 5.49857 24.8247Z" fill="url(#paint13_linear_6236_23314)"/>
<path d="M44.1625 29.5971C44.1625 29.3201 43.9396 29.0953 43.6642 29.0953H42.1481C41.8727 29.0953 41.6498 29.3201 41.6498 29.5971C41.6498 29.8741 41.8727 30.099 42.1481 30.099H43.6642C43.94 30.099 44.1625 29.8741 44.1625 29.5971Z" fill="url(#paint14_linear_6236_23314)"/>
<path d="M8.2475 29.0952H6.79245C6.51704 29.0952 6.29417 29.32 6.29417 29.597C6.29417 29.874 6.51704 30.0989 6.79245 30.0989H8.2475C8.5229 30.0989 8.74577 29.874 8.74577 29.597C8.74577 29.32 8.5229 29.0952 8.2475 29.0952Z" fill="url(#paint15_linear_6236_23314)"/>
<path d="M42.253 34.3685C41.9776 34.3685 41.7548 34.5934 41.7548 34.8704C41.7548 35.1474 41.9776 35.3722 42.253 35.3722H42.815C43.0905 35.3722 43.3133 35.1474 43.3133 34.8704C43.3133 34.5934 43.0905 34.3685 42.815 34.3685H42.253Z" fill="url(#paint16_linear_6236_23314)"/>
<path d="M8.08731 34.3685H6.47968C6.20428 34.3685 5.98141 34.5934 5.98141 34.8704C5.98141 35.1474 6.20428 35.3722 6.47968 35.3722H8.08731C8.36272 35.3722 8.58558 35.1474 8.58558 34.8704C8.58558 34.5934 8.36233 34.3685 8.08731 34.3685Z" fill="url(#paint17_linear_6236_23314)"/>
<path d="M18.904 36.3195C18.904 36.5965 19.1269 36.8214 19.4023 36.8214H30.5987C30.8741 36.8214 31.097 36.5965 31.097 36.3195C31.097 36.0425 30.8741 35.8177 30.5987 35.8177H19.4023C19.1265 35.8177 18.904 36.0425 18.904 36.3195Z" fill="url(#paint18_linear_6236_23314)"/>
<path d="M27.6778 39.3003C27.6778 39.5772 27.9007 39.8021 28.1761 39.8021H31.8088C32.0842 39.8021 32.3071 39.5773 32.3071 39.3003C32.3071 39.0233 32.0842 38.7984 31.8088 38.7984H28.1761C27.9007 38.7984 27.6778 39.0233 27.6778 39.3003Z" fill="url(#paint19_linear_6236_23314)"/>
<path d="M25.4362 38.7983H18.1919C17.9165 38.7983 17.6936 39.0232 17.6936 39.3002C17.6936 39.5772 17.9165 39.802 18.1919 39.802H25.4366C25.712 39.802 25.9348 39.5772 25.9348 39.3002C25.9345 39.0232 25.7116 38.7983 25.4362 38.7983Z" fill="url(#paint20_linear_6236_23314)"/>
<defs>
<linearGradient id="paint0_linear_6236_23314" x1="0" y1="0" x2="0" y2="1" gradientUnits="objectBoundingBox">
<stop stop-color="#ED3040"/>
<stop offset="1" stop-color="#2D23F4"/>
</linearGradient>
<linearGradient id="paint1_linear_6236_23314" x1="0" y1="0" x2="0" y2="1" gradientUnits="objectBoundingBox">
<stop stop-color="#ED3040"/>
<stop offset="1" stop-color="#2D23F4"/>
</linearGradient>
<linearGradient id="paint2_linear_6236_23314" x1="0" y1="0" x2="0" y2="1" gradientUnits="objectBoundingBox">
<stop stop-color="#ED3040"/>
<stop offset="1" stop-color="#2D23F4"/>
</linearGradient>
<linearGradient id="paint3_linear_6236_23314" x1="0" y1="0" x2="0" y2="1" gradientUnits="objectBoundingBox">
<stop stop-color="#ED3040"/>
<stop offset="1" stop-color="#2D23F4"/>
</linearGradient>
<linearGradient id="paint4_linear_6236_23314" x1="0" y1="0" x2="0" y2="1" gradientUnits="objectBoundingBox">
<stop stop-color="#ED3040"/>
<stop offset="1" stop-color="#2D23F4"/>
</linearGradient>
<linearGradient id="paint5_linear_6236_23314" x1="0" y1="0" x2="0" y2="1" gradientUnits="objectBoundingBox">
<stop stop-color="#ED3040"/>
<stop offset="1" stop-color="#2D23F4"/>
</linearGradient>
<linearGradient id="paint6_linear_6236_23314" x1="0" y1="0" x2="0" y2="1" gradientUnits="objectBoundingBox">
<stop stop-color="#ED3040"/>
<stop offset="1" stop-color="#2D23F4"/>
</linearGradient>
<linearGradient id="paint7_linear_6236_23314" x1="0" y1="0" x2="0" y2="1" gradientUnits="objectBoundingBox">
<stop stop-color="#ED3040"/>
<stop offset="1" stop-color="#2D23F4"/>
</linearGradient>
<linearGradient id="paint8_linear_6236_23314" x1="0" y1="0" x2="0" y2="1" gradientUnits="objectBoundingBox">
<stop stop-color="#ED3040"/>
<stop offset="1" stop-color="#2D23F4"/>
</linearGradient>
<linearGradient id="paint9_linear_6236_23314" x1="0" y1="0" x2="0" y2="1" gradientUnits="objectBoundingBox">
<stop stop-color="#ED3040"/>
<stop offset="1" stop-color="#2D23F4"/>
</linearGradient>
<linearGradient id="paint10_linear_6236_23314" x1="0" y1="0" x2="0" y2="1" gradientUnits="objectBoundingBox">
<stop stop-color="#ED3040"/>
<stop offset="1" stop-color="#2D23F4"/>
</linearGradient>
<linearGradient id="paint11_linear_6236_23314" x1="0" y1="0" x2="0" y2="1" gradientUnits="objectBoundingBox">
<stop stop-color="#ED3040"/>
<stop offset="1" stop-color="#2D23F4"/>
</linearGradient>
<linearGradient id="paint12_linear_6236_23314" x1="0" y1="0" x2="0" y2="1" gradientUnits="objectBoundingBox">
<stop stop-color="#ED3040"/>
<stop offset="1" stop-color="#2D23F4"/>
</linearGradient>
<linearGradient id="paint13_linear_6236_23314" x1="0" y1="0" x2="0" y2="1" gradientUnits="objectBoundingBox">
<stop stop-color="#ED3040"/>
<stop offset="1" stop-color="#2D23F4"/>
</linearGradient>
<linearGradient id="paint14_linear_6236_23314" x1="0" y1="0" x2="0" y2="1" gradientUnits="objectBoundingBox">
<stop stop-color="#ED3040"/>
<stop offset="1" stop-color="#2D23F4"/>
</linearGradient>
<linearGradient id="paint15_linear_6236_23314" x1="0" y1="0" x2="0" y2="1" gradientUnits="objectBoundingBox">
<stop stop-color="#ED3040"/>
<stop offset="1" stop-color="#2D23F4"/>
</linearGradient>
<linearGradient id="paint16_linear_6236_23314" x1="0" y1="0" x2="0" y2="1" gradientUnits="objectBoundingBox">
<stop stop-color="#ED3040"/>
<stop offset="1" stop-color="#2D23F4"/>
</linearGradient>
<linearGradient id="paint17_linear_6236_23314" x1="0" y1="0" x2="0" y2="1" gradientUnits="objectBoundingBox">
<stop stop-color="#ED3040"/>
<stop offset="1" stop-color="#2D23F4"/>
</linearGradient>
<linearGradient id="paint18_linear_6236_23314" x1="0" y1="0" x2="0" y2="1" gradientUnits="objectBoundingBox">
<stop stop-color="#ED3040"/>
<stop offset="1" stop-color="#2D23F4"/>
</linearGradient>
<linearGradient id="paint19_linear_6236_23314" x1="0" y1="0" x2="0" y2="1" gradientUnits="objectBoundingBox">
<stop stop-color="#ED3040"/>
<stop offset="1" stop-color="#2D23F4"/>
</linearGradient>
<linearGradient id="paint20_linear_6236_23314" x1="0" y1="0" x2="0" y2="1" gradientUnits="objectBoundingBox">
<stop stop-color="#ED3040"/>
<stop offset="1" stop-color="#2D23F4"/>
</linearGradient>
</defs>
</svg>
