<svg width="50" height="50" viewBox="0 0 50 50" fill="none" xmlns="http://www.w3.org/2000/svg">
<path d="M41.5727 15.6371H42.3329C43.2856 15.6371 44.1659 15.1284 44.6423 14.3026C45.1186 13.4767 45.1186 12.4591 44.6423 11.6333C44.1659 10.8074 43.2856 10.2984 42.3329 10.2984H31.813C31.5523 10.0014 31.2076 9.7898 30.8246 9.69244C30.4415 9.59476 30.0376 9.61529 29.6664 9.75139V8.29669C29.6657 7.63175 29.3356 7.01086 28.7851 6.63897C28.2347 6.26742 27.536 6.19325 26.9201 6.44128C26.7573 5.88297 26.36 5.42333 25.8317 5.1813C25.3034 4.93957 24.6963 4.93957 24.168 5.1813C23.6397 5.42337 23.2423 5.88299 23.0799 6.44128C22.5506 6.23133 21.9575 6.25716 21.4483 6.51181C20.9392 6.76646 20.5628 7.22642 20.4132 7.77611C19.7972 7.52775 19.0983 7.60192 18.5478 7.97379C17.9973 8.34567 17.6672 8.96657 17.6665 9.63118V10.2984H7.66669C6.7143 10.2984 5.83364 10.8074 5.35727 11.6333C4.88091 12.4591 4.88091 13.4767 5.35727 14.3026C5.83364 15.1284 6.71421 15.6371 7.66669 15.6371H8.42689C8.56418 16.154 8.85198 16.6186 9.25358 16.9719L5.07351 25.3468C5.0272 25.4402 5.00239 25.5429 5.00007 25.6472V28.3165C5.00007 30.4622 6.14369 32.4448 8.0002 33.5177C9.85671 34.5906 12.1439 34.5906 14.0001 33.5177C15.8566 32.4448 17.0002 30.4622 17.0002 28.3165V25.6472C16.9973 25.5452 16.9721 25.4448 16.9268 25.3534L12.7471 16.9719C13.1483 16.6186 13.4361 16.154 13.5734 15.6371H17.6669V21.0224C17.6718 21.685 18.0036 22.302 18.5535 22.6708L19.3735 23.2179C19.5442 23.3328 19.6524 23.5199 19.667 23.7252L17.6268 44.2927C17.6149 44.4738 17.6778 44.6523 17.8002 44.7864C17.9259 44.9219 18.1022 44.9993 18.2868 45H31C31.1876 45.0007 31.3669 44.9222 31.4939 44.7838C31.621 44.6453 31.6835 44.4596 31.6666 44.2725L29.6666 22.5572C29.6662 22.3022 29.8111 22.0691 30.0401 21.9568L31.2333 21.3561C31.5661 21.1882 31.8456 20.9306 32.0398 20.612C32.2343 20.2938 32.3359 19.9272 32.3332 19.5543V15.6369H36.4267C36.5639 16.1538 36.8517 16.6184 37.2533 16.9717L33.0733 25.3467C33.027 25.4401 33.0022 25.5427 32.9998 25.647V28.3163C32.9998 30.4621 34.1435 32.4447 36 33.5175C37.8565 34.5904 40.1437 34.5904 41.9999 33.5175C43.8564 32.4447 45 30.4621 45 28.3163V25.647C44.997 25.545 44.9719 25.4447 44.9266 25.3533L40.7468 16.9718C41.1481 16.6184 41.4359 16.1538 41.5732 15.6369L41.5727 15.6371ZM27.6662 7.62903C27.8428 7.62903 28.0125 7.69956 28.1376 7.82474C28.2623 7.94991 28.3328 8.11946 28.3328 8.29661V10.9659C28.3328 11.3345 28.0344 11.6332 27.6662 11.6332C27.298 11.6332 26.9993 11.3345 26.9993 10.9659V8.29661C26.9993 7.92805 27.298 7.62903 27.6662 7.62903ZM24.3326 6.96178C24.3326 6.59321 24.6314 6.29453 24.9996 6.29453C25.3677 6.29453 25.6661 6.59321 25.6661 6.96178V10.9659C25.6661 11.3345 25.3677 11.6332 24.9996 11.6332C24.6314 11.6332 24.3326 11.3345 24.3326 10.9659V6.96178ZM21.666 8.29661C21.666 7.92804 21.9647 7.62902 22.3329 7.62902C22.7011 7.62902 22.9995 7.92804 22.9995 8.29661V10.9659C22.9995 11.3345 22.7011 11.6332 22.3329 11.6332C21.9647 11.6332 21.666 11.3345 21.666 10.9659V8.29661ZM18.9994 9.63109C18.9994 9.26253 19.2981 8.96384 19.6663 8.96384C20.0345 8.96384 20.3329 9.26253 20.3329 9.63109V10.9659C20.3329 11.3345 20.0345 11.6332 19.6663 11.6332C19.2981 11.6332 18.9994 11.3345 18.9994 10.9659V9.63109ZM10.3325 24.98H6.74584L10.3325 17.7995V24.98ZM11.6657 17.7995L15.2526 24.98H11.6659L11.6657 17.7995ZM10.9994 16.3047C10.6458 16.3047 10.3067 16.164 10.0566 15.9136C9.80649 15.6633 9.66589 15.3239 9.66589 14.9699C9.66589 14.6159 9.80649 14.2765 10.0566 14.0261C10.3067 13.7758 10.6457 13.6353 10.9994 13.6353C11.3531 13.6353 11.6921 13.7757 11.9422 14.0261C12.192 14.2764 12.3326 14.6159 12.3326 14.9699C12.3326 15.3239 12.192 15.6633 11.9422 15.9136C11.6921 16.164 11.3531 16.3047 10.9994 16.3047ZM15.6661 28.317H15.6658C15.6658 29.986 14.7765 31.5281 13.3325 32.3626C11.8885 33.1967 10.1098 33.1967 8.66585 32.3626C7.22219 31.5281 6.33264 29.986 6.33264 28.317V26.3149H15.666L15.6661 28.317ZM13.5724 14.3032C13.3663 13.5439 12.836 12.9144 12.1235 12.5826C11.4106 12.2508 10.5878 12.2508 9.87526 12.5826C9.16237 12.9144 8.63206 13.5439 8.42601 14.3032H7.66581C7.31217 14.3032 6.97309 14.1625 6.72299 13.9122C6.47323 13.6618 6.33263 13.3224 6.33263 12.9684C6.33263 12.6144 6.47323 12.275 6.72299 12.0246C6.97308 11.7743 7.31216 11.6339 7.66581 11.6339H17.7859C17.9235 12.0233 18.1779 12.3604 18.5144 12.5995C18.8511 12.8386 19.2531 12.9674 19.6659 12.9684C20.1592 12.9654 20.6343 12.7803 20.9991 12.4479C21.3659 12.7763 21.8407 12.9578 22.3326 12.9578C22.8245 12.9578 23.2992 12.7763 23.6657 12.4479C24.0326 12.7763 24.5073 12.9578 24.9992 12.9578C25.4911 12.9578 25.9658 12.7763 26.3323 12.4479C26.6976 12.7803 27.1723 12.9654 27.6658 12.9684C27.8931 12.9668 28.1187 12.926 28.3324 12.8485V14.3032L13.5724 14.3032ZM30.9993 19.5552C30.997 19.8128 30.8537 20.0486 30.6258 20.1691L29.4392 20.7698V20.7695C29.0978 20.94 28.8123 21.2046 28.6161 21.5321C28.4203 21.8596 28.3217 22.2364 28.3326 22.6182L30.2658 43.6655H18.9991L20.9991 23.7728C20.9971 23.1042 20.662 22.481 20.1059 22.1111L19.2858 21.564C19.1085 21.4408 19.0017 21.2395 18.999 21.0233V15.6379H26.2259C25.0184 16.3578 24.0405 17.4062 23.4057 18.6609L23.0723 19.3282L24.2589 19.9289L24.599 19.2616C25.1832 18.1116 26.1171 17.177 27.2656 16.5923L29.2657 15.5846C29.5095 15.4783 29.6666 15.2369 29.6656 14.9707V11.6341C29.6656 11.2655 29.9643 10.9668 30.3325 10.9668C30.7007 10.9668 30.9991 11.2655 30.9991 11.6341L30.9993 19.5552ZM36.4259 14.3032H32.3324V11.6339H42.3323C42.6859 11.6339 43.025 11.7743 43.2751 12.0247C43.5252 12.275 43.6655 12.6144 43.6655 12.9685C43.6655 13.3225 43.5252 13.6619 43.2751 13.9122C43.025 14.1626 42.6859 14.3033 42.3323 14.3033H41.5721C41.366 13.544 40.8357 12.9145 40.1232 12.5827C39.4103 12.2509 38.5875 12.2509 37.875 12.5827C37.1621 12.9145 36.6318 13.544 36.4257 14.3033L36.4259 14.3032ZM38.3323 24.9803H34.7457L38.3323 17.7999V24.9803ZM39.6655 17.7999L43.2524 24.9803H39.6657L39.6655 17.7999ZM38.9992 16.3051C38.6456 16.3051 38.3065 16.1643 38.0564 15.914C37.8063 15.6636 37.6657 15.3242 37.6657 14.9702C37.6657 14.6162 37.8063 14.2768 38.0564 14.0264C38.3065 13.7761 38.6456 13.6357 38.9992 13.6357C39.3529 13.6357 39.6919 13.7761 39.9421 14.0264C40.1918 14.2768 40.3324 14.6162 40.3324 14.9702C40.3324 15.3242 40.1918 15.6636 39.9421 15.914C39.692 16.1643 39.3529 16.3051 38.9992 16.3051ZM43.6659 28.3173H43.6656C43.6656 29.9863 42.7764 31.5284 41.3324 32.3629C39.8884 33.1971 38.1096 33.1971 36.6657 32.3629C35.222 31.5284 34.3325 29.9863 34.3325 28.3173V26.3153H43.6658L43.6659 28.3173Z" fill="url(#paint0_linear_6236_23310)"/>
<defs>
<linearGradient id="paint0_linear_6236_23310" x1="0" y1="0" x2="0" y2="1" gradientUnits="objectBoundingBox">
<stop stop-color="#ED3040"/>
<stop offset="1" stop-color="#2D23F4"/>
</linearGradient>
</defs>
</svg>
