<svg width="50" height="50" viewBox="0 0 50 50" fill="none" xmlns="http://www.w3.org/2000/svg">
<path d="M9.66659 28.3336C10.9037 28.3318 12.09 27.8396 12.9646 26.965C13.8395 26.0901 14.3317 24.9042 14.3332 23.6667V23.0003C14.3332 22.6467 14.1927 22.3074 13.9427 22.0575C13.6928 21.8075 13.3535 21.667 12.9999 21.667H12.8365L10.4667 13.3639C10.5786 13.301 10.6856 13.2287 10.7858 13.1484C12.0831 12.9362 13.3305 12.4881 14.4659 11.8257C14.688 11.709 14.9091 11.5915 15.1365 11.4789V11.4792C15.8191 11.1077 16.5408 10.8131 17.2879 10.6007C18.5698 10.3792 19.8875 10.5194 21.094 11.0051C21.1979 11.4033 21.3939 11.7711 21.6668 12.079V33.0003H17.6666C16.783 33.0012 15.9357 33.3529 15.3108 33.9776C14.6859 34.6025 14.3345 35.4498 14.3333 36.3337V38.3337L13.6668 38.3334C12.7829 38.3346 11.9356 38.686 11.3107 39.3109C10.686 39.9358 10.3343 40.7831 10.3334 41.6667V43.6667C10.3334 44.0203 10.4739 44.3596 10.7239 44.6095C10.9738 44.8595 11.3131 45 11.6667 45H38.3332C38.687 45 39.026 44.8595 39.276 44.6095C39.5263 44.3596 39.6668 44.0203 39.6668 43.6667V41.6667C39.6655 40.7831 39.3141 39.9358 38.6893 39.3109C38.0643 38.686 37.217 38.3346 36.3334 38.3334H35.6666V36.3336C35.6657 35.4497 35.314 34.6024 34.6891 33.9775C34.0642 33.3529 33.2172 33.0012 32.3333 33.0002H28.3335V12.0782C28.6045 11.7721 28.8005 11.4067 28.9053 11.0116C30.1096 10.52 31.4277 10.3777 32.7092 10.6004C33.4588 10.8122 34.1824 11.1065 34.8668 11.4784C35.0954 11.5916 35.3168 11.7091 35.5389 11.8257L35.5386 11.8254C36.674 12.4872 37.9208 12.9357 39.2174 13.1481C39.3179 13.2291 39.4252 13.3013 39.5381 13.3643L37.1634 21.6666H37C36.6464 21.6666 36.3071 21.8071 36.0571 22.0571C35.8072 22.307 35.6667 22.6463 35.6667 22.9999V23.6666V23.6663C35.6667 25.3336 36.5562 26.8744 38.0002 27.708C39.4439 28.5416 41.2229 28.5416 42.6668 27.708C44.1105 26.8744 45 25.3336 45 23.6663V22.9999C45 22.6463 44.8595 22.307 44.6095 22.057C44.3596 21.8071 44.0203 21.6666 43.6667 21.6666H43.5033L41.2002 13.6001C41.8707 13.4522 42.442 13.0164 42.762 12.4089C43.0818 11.8016 43.1181 11.0839 42.861 10.4473C42.6036 9.81056 42.0791 9.31963 41.4269 9.10502C40.7747 8.89041 40.0611 8.97384 39.4762 9.33328C38.9552 9.20272 38.4481 9.02098 37.9628 8.79086C37.3167 8.4494 36.707 8.04312 36.1429 7.57882C35.1265 6.6407 33.8466 6.03746 32.4761 5.85072C31.1633 5.7521 29.8433 5.88204 28.5748 6.23467C28.0885 5.46615 27.2428 5.00032 26.3335 5H23.6666C22.7582 5.00062 21.9134 5.46551 21.4268 6.23276C20.1589 5.88045 18.8396 5.7505 17.5274 5.84851C16.1569 6.03552 14.877 6.63873 13.8606 7.57661C13.2962 8.0415 12.6858 8.4478 12.0392 8.7892C11.5539 9.01994 11.0471 9.20199 10.526 9.33318C9.94205 8.98179 9.23309 8.90396 8.58673 9.11981C7.9401 9.33597 7.42057 9.82412 7.16508 10.4562C6.90921 11.0879 6.94333 11.8 7.25781 12.4048C7.5723 13.0095 8.13584 13.4465 8.80015 13.6L6.49673 21.6665H6.33329C5.97973 21.6665 5.64043 21.807 5.39047 22.057C5.1405 22.307 5 22.6462 5 22.9998V23.6666V23.6663C5.00155 24.9037 5.49374 26.0896 6.36862 26.9646C7.24355 27.8392 8.42948 28.3313 9.66662 28.3332L9.66659 28.3336ZM38.3331 41.6664V43.6664H11.6666V41.6664C11.6666 41.136 11.8771 40.6274 12.2524 40.2522C12.6274 39.8772 13.136 39.6666 13.6666 39.6666H36.3332C36.8635 39.6666 37.3721 39.8772 37.7474 40.2522C38.1223 40.6274 38.3329 41.1361 38.3329 41.6664H38.3331ZM34.3329 36.333V38.333H15.6663V36.3332C15.6663 35.8025 15.8771 35.2939 16.2521 34.919C16.6274 34.5437 17.136 34.3332 17.6663 34.3332H32.333C32.8633 34.3332 33.3723 34.5437 33.7472 34.919C34.1221 35.294 34.333 35.8026 34.333 36.3332L34.3329 36.333ZM23 33V12.9044C23.2174 12.9643 23.4413 12.9962 23.6665 12.9996H26.3334C26.5585 12.9962 26.7828 12.9643 26.9999 12.9044V33H23ZM43.6666 23.6663C43.6666 24.8573 43.0314 25.9576 41.9999 26.5531C40.9687 27.1485 39.6981 27.1485 38.6666 26.5531C37.6354 25.9576 36.9999 24.8573 36.9999 23.6663V22.9999H43.6667L43.6666 23.6663ZM38.5505 21.6663L40.3332 15.4267L42.1159 21.6666L38.5505 21.6663ZM40.6666 10.3335C41.1522 10.3326 41.5684 10.6812 41.6531 11.1594C41.7375 11.6379 41.4658 12.1078 41.009 12.2734C40.5525 12.439 40.0426 12.2526 39.801 11.8311C39.5591 11.4097 39.6552 10.8756 40.0286 10.5649C40.2079 10.4157 40.4333 10.3339 40.6666 10.3335ZM32.3539 7.17761C33.5746 7.28554 34.3871 7.91108 35.3272 8.63434V8.63403C35.9605 9.1532 36.6453 9.60598 37.3713 9.98469C37.7428 10.1639 38.1264 10.3162 38.5197 10.4409C38.3991 10.7231 38.3358 11.0264 38.333 11.3335C38.3367 11.4215 38.3454 11.5096 38.3591 11.5968C37.593 11.362 36.8555 11.0438 36.1593 10.6474C35.9273 10.524 35.6925 10.4021 35.454 10.2821H35.4537C34.6818 9.8662 33.8652 9.53839 33.0198 9.30483C31.6793 9.04029 30.293 9.13208 28.9991 9.57155V7.66671C28.9991 7.61058 28.9886 7.55662 28.9851 7.50079C30.0812 7.20152 31.2206 7.09202 32.3539 7.17761ZM22.3334 7.6667C22.3337 7.5169 22.3601 7.36835 22.4116 7.22755C22.5009 6.96579 22.6702 6.73909 22.8954 6.57875C23.1205 6.41841 23.3904 6.3325 23.6667 6.33343H26.3336C26.6127 6.33343 26.8847 6.4212 27.1111 6.58465C27.3375 6.74778 27.5065 6.97789 27.5949 7.24275C27.6427 7.37922 27.6669 7.52249 27.6669 7.6667V10.4002C27.6622 10.4223 27.6588 10.4443 27.6569 10.4669C27.6265 10.7969 27.4718 11.1033 27.2243 11.3235C27.2082 11.3378 27.1927 11.353 27.1781 11.3688C26.939 11.562 26.6409 11.6671 26.3335 11.6668H23.6667C23.3599 11.6668 23.0622 11.5617 22.8234 11.3688C22.8088 11.3527 22.7933 11.3372 22.7769 11.3229C22.5151 11.0841 22.3563 10.7535 22.3334 10.4002C22.3321 10.3779 22.3321 10.3556 22.3334 10.3336L22.3334 7.6667ZM12.6273 9.98557C13.3537 9.60628 14.039 9.15352 14.6727 8.63404C15.6127 7.91018 16.4253 7.28529 17.646 7.17731L17.6463 7.17762C18.7793 7.09295 19.9187 7.20243 21.0147 7.5014C21.0107 7.55691 21.0001 7.61149 21.0001 7.6667V9.56939C19.7056 9.12899 18.3181 9.0372 16.9767 9.30267C16.1319 9.5362 15.3159 9.86432 14.5439 10.2802C14.3039 10.3996 14.0719 10.5215 13.8399 10.6449H13.8402C13.1443 11.0428 12.4068 11.3632 11.6408 11.6001C11.6547 11.5117 11.6634 11.4227 11.6668 11.3334C11.6643 11.0263 11.6007 10.723 11.4801 10.4408C11.8727 10.3165 12.2564 10.1642 12.6273 9.98557ZM8.33346 11.3335C8.33346 10.929 8.57723 10.5643 8.95063 10.4095C9.32435 10.2548 9.75451 10.3404 10.0405 10.6263C10.3264 10.9123 10.412 11.3424 10.2573 11.7162C10.1025 12.0899 9.7378 12.3333 9.33336 12.3333C8.78131 12.3333 8.33346 11.8858 8.33346 11.3335ZM9.66674 15.4266L11.4494 21.6669H7.88408L9.66674 15.4266ZM6.33341 23.0002H13.0002V23.6669V23.6666C13.0002 24.8576 12.365 25.9579 11.3335 26.5533C10.3023 27.1488 9.03166 27.1488 8.00016 26.5533C6.96897 25.9579 6.33349 24.8576 6.33349 23.6666L6.33341 23.0002Z" fill="url(#paint0_linear_6236_23318)"/>
<path d="M17.6665 41.0002H17C16.6315 41.0002 16.3332 41.2986 16.3332 41.6667C16.3332 42.0348 16.6315 42.3335 17 42.3335H17.6668H17.6665C18.0346 42.3335 18.3332 42.0348 18.3332 41.6667C18.3332 41.2986 18.0346 41.0002 17.6665 41.0002Z" fill="url(#paint1_linear_6236_23318)"/>
<path d="M33.0001 41.0002H32.3333C31.9651 41.0002 31.6665 41.2986 31.6665 41.6667C31.6665 42.0348 31.9651 42.3335 32.3333 42.3335H33.0001C33.3682 42.3335 33.6666 42.0348 33.6666 41.6667C33.6666 41.2986 33.3682 41.0002 33.0001 41.0002Z" fill="url(#paint2_linear_6236_23318)"/>
<path d="M29.6671 41.0002H20.3341C19.9657 41.0002 19.6673 41.2986 19.6673 41.6667C19.6673 42.0348 19.9657 42.3335 20.3341 42.3335H29.6671C30.0352 42.3335 30.3335 42.0348 30.3335 41.6667C30.3335 41.2986 30.0352 41.0002 29.6671 41.0002Z" fill="url(#paint3_linear_6236_23318)"/>
<path d="M19.0003 35.6673H18.3338C17.9657 35.6673 17.667 35.9657 17.667 36.3341C17.667 36.7022 17.9657 37.0006 18.3338 37.0006H19.0006H19.0003C19.3687 37.0006 19.6671 36.7022 19.6671 36.3341C19.6671 35.9657 19.3687 35.6673 19.0003 35.6673Z" fill="url(#paint4_linear_6236_23318)"/>
<path d="M31.0001 37.0003H31.6669H31.6666C32.035 37.0003 32.3334 36.702 32.3334 36.3339C32.3334 35.9654 32.035 35.6671 31.6666 35.6671H31.0001C30.632 35.6671 30.3333 35.9654 30.3333 36.3339C30.3333 36.702 30.632 37.0003 31.0001 37.0003Z" fill="url(#paint5_linear_6236_23318)"/>
<path d="M21.0003 36.3342C21.0003 36.511 21.0707 36.6803 21.1957 36.8056C21.3206 36.9306 21.4903 37.0007 21.6671 37.0007H28.3338C28.7019 37.0007 29.0003 36.7023 29.0003 36.3342C29.0003 35.9658 28.7019 35.6674 28.3338 35.6674H21.6671C21.2986 35.6674 21.0003 35.9658 21.0003 36.3342Z" fill="url(#paint6_linear_6236_23318)"/>
<defs>
<linearGradient id="paint0_linear_6236_23318" x1="37.6624" y1="33.6397" x2="37.6624" y2="41.6506" gradientUnits="userSpaceOnUse">
<stop stop-color="#ED3040"/>
<stop offset="1" stop-color="#2D23F4"/>
</linearGradient>
<linearGradient id="paint1_linear_6236_23318" x1="37.6624" y1="33.6397" x2="37.6624" y2="41.6506" gradientUnits="userSpaceOnUse">
<stop stop-color="#ED3040"/>
<stop offset="1" stop-color="#2D23F4"/>
</linearGradient>
<linearGradient id="paint2_linear_6236_23318" x1="37.6624" y1="33.6397" x2="37.6624" y2="41.6506" gradientUnits="userSpaceOnUse">
<stop stop-color="#ED3040"/>
<stop offset="1" stop-color="#2D23F4"/>
</linearGradient>
<linearGradient id="paint3_linear_6236_23318" x1="37.6624" y1="33.6397" x2="37.6624" y2="41.6506" gradientUnits="userSpaceOnUse">
<stop stop-color="#ED3040"/>
<stop offset="1" stop-color="#2D23F4"/>
</linearGradient>
<linearGradient id="paint4_linear_6236_23318" x1="37.6624" y1="33.6397" x2="37.6624" y2="41.6506" gradientUnits="userSpaceOnUse">
<stop stop-color="#ED3040"/>
<stop offset="1" stop-color="#2D23F4"/>
</linearGradient>
<linearGradient id="paint5_linear_6236_23318" x1="37.6624" y1="33.6397" x2="37.6624" y2="41.6506" gradientUnits="userSpaceOnUse">
<stop stop-color="#ED3040"/>
<stop offset="1" stop-color="#2D23F4"/>
</linearGradient>
<linearGradient id="paint6_linear_6236_23318" x1="37.6624" y1="33.6397" x2="37.6624" y2="41.6506" gradientUnits="userSpaceOnUse">
<stop stop-color="#ED3040"/>
<stop offset="1" stop-color="#2D23F4"/>
</linearGradient>
</defs>
</svg>
