<svg width="50" height="50" viewBox="0 0 50 50" fill="none" xmlns="http://www.w3.org/2000/svg">
<path d="M41.774 19.839C41.0869 19.839 40.4146 20.0666 39.856 20.4841H37.2578V5H10.1614C7.31559 5 5 7.31561 5 10.1614V40.4838C5 42.9742 7.02588 45 9.5162 45H37.2584V43.7098C35.4797 43.7098 34.0327 42.2628 34.0327 40.4841C34.0327 38.7054 35.4797 37.2584 37.2584 37.2584V25.6451H39.8563C40.415 26.0626 41.0873 26.2902 41.7743 26.2902C43.553 26.2902 45 24.8431 45 23.0644C45.0003 21.2857 43.5533 19.8387 41.7746 19.8387L41.774 19.839ZM33.1833 38.5489H11.4509V39.8391H32.7932C32.7628 40.0507 32.7413 40.2649 32.7413 40.4842C32.7413 40.7035 32.7628 40.9177 32.7929 41.1293L29.5156 41.1296V42.4198H33.1835C33.4137 42.9022 33.7223 43.3405 34.1004 43.7099L9.51596 43.7102C8.46619 43.7102 7.54098 43.1987 6.95196 42.4201L28.2254 42.4198V41.1296H6.3545C6.31192 40.9212 6.28951 40.7051 6.28951 40.4842C6.28951 40.2636 6.31224 40.0475 6.35482 39.8391H10.1604V38.5489H6.9513C7.54036 37.77 8.4656 37.2584 9.5153 37.2584H34.0989C33.7215 37.6282 33.4128 38.0662 33.1826 38.5489H33.1833ZM35.9673 35.9683H10.1609V16.6134H8.87071V36.0199C7.86609 36.1643 6.9681 36.6368 6.29007 37.3302V10.1615C6.29007 8.47955 7.36928 7.04908 8.87071 6.51636V15.3226H10.1609V6.29016H35.9673V20.4834H33.3866V8.87016H12.741V23.0634H17.2572V26.9343C16.5455 26.9343 15.9671 27.5131 15.9671 28.2244V29.5146C15.9671 30.2263 16.5459 30.8047 17.2572 30.8047H27.5796C28.2913 30.8047 28.8698 30.2259 28.8698 29.5146V28.2244C28.8698 27.5127 28.291 26.9343 27.5796 26.9343V25.6441H35.967L35.9673 35.9683ZM17.2575 17.9034V16.6132H27.5799L27.5805 17.9034H17.2575ZM27.5799 28.2258L27.5805 29.516H17.2573V28.2258H27.5799ZM18.5475 26.9353V19.1933H26.2895V26.9353H18.5475ZM27.5799 19.1933C28.2915 19.1933 28.87 18.6144 28.87 17.9031V16.6129C28.87 15.9013 28.2912 15.3228 27.5799 15.3228L17.2575 15.3225C16.5458 15.3225 15.9673 15.9013 15.9673 16.6126V17.9028C15.9673 18.6145 16.5461 19.193 17.2575 19.193V21.7736H14.0317V10.1611H32.0966V20.4836H27.5804L27.5799 19.1933ZM41.7731 25.0001C41.1859 25.0001 40.7607 24.7356 40.5066 24.5144L40.3247 24.3547H27.5797V21.774H40.3247L40.5066 21.6146C40.7608 21.3934 41.1859 21.1289 41.7731 21.1289C42.8401 21.1289 43.7086 21.9975 43.7086 23.0645C43.7086 24.1316 42.84 25.0001 41.7731 25.0001Z" fill="url(#paint0_linear_6236_23324)"/>
<path d="M33.3874 32.0973H34.6775V33.3875H33.3874V32.0973Z" fill="url(#paint1_linear_6236_23324)"/>
<path d="M30.8066 32.0973H32.0967V33.3875H30.8066V32.0973Z" fill="url(#paint2_linear_6236_23324)"/>
<path d="M16.6126 32.0973H29.5158V33.3875H16.6126V32.0973Z" fill="url(#paint3_linear_6236_23324)"/>
<path d="M14.0326 32.0973H15.3227V33.3875H14.0326V32.0973Z" fill="url(#paint4_linear_6236_23324)"/>
<path d="M11.4518 32.0973H12.7419V33.3875H11.4518V32.0973Z" fill="url(#paint5_linear_6236_23324)"/>
<defs>
<linearGradient id="paint0_linear_6236_23324" x1="0" y1="0" x2="0" y2="1" gradientUnits="objectBoundingBox">
<stop stop-color="#ED3040"/>
<stop offset="1" stop-color="#2D23F4"/>
</linearGradient>
<linearGradient id="paint1_linear_6236_23324" x1="0" y1="0" x2="0" y2="1" gradientUnits="objectBoundingBox">
<stop stop-color="#ED3040"/>
<stop offset="1" stop-color="#2D23F4"/>
</linearGradient>
<linearGradient id="paint2_linear_6236_23324" x1="0" y1="0" x2="0" y2="1" gradientUnits="objectBoundingBox">
<stop stop-color="#ED3040"/>
<stop offset="1" stop-color="#2D23F4"/>
</linearGradient>
<linearGradient id="paint3_linear_6236_23324" x1="0" y1="0" x2="0" y2="1" gradientUnits="objectBoundingBox">
<stop stop-color="#ED3040"/>
<stop offset="1" stop-color="#2D23F4"/>
</linearGradient>
<linearGradient id="paint4_linear_6236_23324" x1="0" y1="0" x2="0" y2="1" gradientUnits="objectBoundingBox">
<stop stop-color="#ED3040"/>
<stop offset="1" stop-color="#2D23F4"/>
</linearGradient>
<linearGradient id="paint5_linear_6236_23324" x1="0" y1="0" x2="0" y2="1" gradientUnits="objectBoundingBox">
<stop stop-color="#ED3040"/>
<stop offset="1" stop-color="#2D23F4"/>
</linearGradient>
</defs>
</svg>
