<svg width="50" height="50" viewBox="0 0 50 50" fill="none" xmlns="http://www.w3.org/2000/svg">
<path d="M6.89442 30.5155V44.317C6.89442 44.6942 7.19619 45 7.5687 45H17.9953C18.3678 45 18.6696 44.6942 18.6696 44.317V30.5318C19.4439 30.2771 20.0691 29.6916 20.381 28.9295H21.0012C21.4971 28.9284 21.9776 28.7557 22.3634 28.44C22.7488 28.1246 23.0168 27.685 23.122 27.1941H26.8754C26.981 27.685 27.2486 28.1247 27.6343 28.4404C28.0204 28.7561 28.501 28.9284 28.9968 28.9295H29.6153H29.615C29.9279 29.6909 30.5527 30.2764 31.3267 30.5328V44.3162C31.3267 44.6934 31.6285 44.9992 32.0006 44.9992H42.4335C42.806 44.9992 43.1078 44.6934 43.1078 44.3162V34.8506C43.1078 34.4734 42.806 34.1676 42.4335 34.1676C42.0613 34.1676 41.7592 34.4734 41.7592 34.8506V43.6328H32.6761V30.6784H41.7592V32.5734C41.7592 32.9506 42.0613 33.2564 42.4335 33.2564C42.806 33.2564 43.1078 32.9506 43.1078 32.5734V30.5237C43.6591 30.3323 44.1375 29.9714 44.4769 29.4911C44.816 29.0112 44.999 28.4355 45 27.8451V25.3896C44.9997 24.7992 44.8171 24.2235 44.4773 23.7436C44.1375 23.264 43.658 22.9041 43.1061 22.7148V14.9226V14.9116V9.24746C43.1054 8.71597 42.8966 8.2067 42.5262 7.83097C42.1555 7.45522 41.6526 7.24403 41.1285 7.24332C40.8989 7.24544 40.6717 7.28817 40.457 7.36975C40.3633 6.91948 40.1201 6.51548 39.7678 6.2252C39.4155 5.93526 38.9753 5.77634 38.5213 5.77563C38.2066 5.77775 37.8968 5.85721 37.6191 6.0073C37.349 5.52666 36.8939 5.18163 36.3629 5.0545C35.8315 4.92701 35.2721 5.02943 34.8185 5.33667C34.3645 5.64356 34.0571 6.12808 33.9693 6.67406C33.7574 6.59425 33.533 6.55222 33.3069 6.5501C32.7828 6.55081 32.2799 6.762 31.9091 7.13775C31.5384 7.51349 31.33 8.02275 31.3293 8.55424V12.0755H30.7648C30.2818 12.0759 29.8187 12.2708 29.4772 12.6169C29.1353 12.963 28.9433 13.4323 28.943 13.9222V19.2512C28.9436 19.7993 29.1587 20.3248 29.5413 20.7125C29.9239 21.1003 30.4424 21.3182 30.9832 21.3189H31.3293V22.7071C30.5557 22.9628 29.9301 23.5476 29.6175 24.309H28.9997C28.5432 24.3108 28.0989 24.4584 27.7299 24.731C27.3609 25.0037 27.0863 25.3872 26.9452 25.8272H23.057C22.9158 25.3872 22.6412 25.0037 22.2725 24.731C21.9035 24.4584 21.4592 24.3108 21.0028 24.309H20.3832C20.0703 23.5476 19.4447 22.9628 18.6708 22.7071V21.3192H19.0169C19.558 21.3185 20.0766 21.1006 20.4592 20.7128C20.8415 20.3251 21.0568 19.7995 21.0575 19.2515V13.9224C21.0572 13.433 20.8648 12.9633 20.5233 12.6172C20.1818 12.271 19.7187 12.0765 19.2353 12.0758H18.6722V8.55379C18.6715 8.0223 18.4631 7.51303 18.0923 7.13729C17.7216 6.76156 17.2191 6.55 16.6946 6.54965C16.4685 6.55177 16.2444 6.59344 16.0322 6.67325C15.9447 6.12763 15.6374 5.64307 15.1833 5.33587C14.7296 5.02863 14.17 4.92621 13.639 5.05334C13.1079 5.18047 12.6528 5.52551 12.3824 6.00614C12.1047 5.85641 11.7952 5.77694 11.4806 5.77483C11.0265 5.77553 10.5865 5.9341 10.2341 6.22439C9.88143 6.51468 9.6382 6.91869 9.54481 7.36894C9.3298 7.28701 9.1026 7.24428 8.87331 7.24217C8.34887 7.24287 7.84635 7.45406 7.47561 7.82981C7.10486 8.20556 6.89645 8.71517 6.89576 9.24631V18.3557C6.89576 18.7332 7.19753 19.0391 7.56969 19.0391C7.94221 19.0391 8.24398 18.7332 8.24398 18.3557V9.24631C8.24398 8.89422 8.52554 8.60886 8.87331 8.60886C9.22073 8.60886 9.5023 8.89421 9.5023 9.24631V11.8498C9.5023 12.2273 9.80442 12.5331 10.1766 12.5331C10.5488 12.5331 10.8509 12.2273 10.8509 11.8498V7.77963C10.8509 7.42755 11.1324 7.14219 11.4799 7.14219C11.8276 7.14219 12.1092 7.42754 12.1092 7.77963V11.8507C12.1092 12.2283 12.411 12.5341 12.7835 12.5341C13.1556 12.5341 13.4574 12.2283 13.4574 11.8507V7.00449C13.4574 6.6524 13.7393 6.36669 14.0868 6.36669C14.4342 6.36669 14.7161 6.6524 14.7161 7.00449V11.8507C14.7161 12.2283 15.0179 12.5341 15.39 12.5341C15.7625 12.5341 16.0643 12.2283 16.0643 11.8507V8.5537C16.0643 8.20126 16.3459 7.9159 16.6933 7.9159C17.0411 7.9159 17.3226 8.20125 17.3226 8.5537V12.747V12.758V12.7689V14.9242C17.3226 15.3018 17.6244 15.6076 17.9969 15.6076C18.3691 15.6076 18.6709 15.3018 18.6709 14.9242V13.4414H19.234C19.4957 13.4417 19.7075 13.6565 19.7079 13.9213V19.2503C19.7072 19.6378 19.3978 19.9514 19.0158 19.9521H17.9955C17.623 19.9521 17.3212 20.2579 17.3212 20.6351V26.4324H8.24252V20.6351C8.24252 20.2579 7.94075 19.9521 7.56858 19.9521C7.19607 19.9521 6.89429 20.2579 6.89429 20.6351V22.7159C6.34197 22.9044 5.8618 23.2639 5.52201 23.7439C5.18222 24.2238 4.99965 24.7998 5 25.3903V27.8457C5.00105 28.4358 5.18434 29.0104 5.5241 29.4897C5.86385 29.9686 6.34335 30.3277 6.8946 30.5163L6.89442 30.5155ZM30.2909 19.2508V13.9218C30.2913 13.6566 30.5032 13.4418 30.7645 13.4415H31.3276V14.9237C31.3276 15.3012 31.6294 15.607 32.0019 15.607C32.3741 15.607 32.6762 15.3012 32.6762 14.9237V12.7684V12.7575V12.7465V8.55317C32.6762 8.20072 32.9578 7.91537 33.3052 7.91537C33.6526 7.91537 33.9345 8.20071 33.9345 8.55317V11.8506V11.8502C33.9345 12.2277 34.2363 12.5336 34.6088 12.5336C34.981 12.5336 35.2828 12.2277 35.2828 11.8502V7.00396C35.2828 6.65187 35.5647 6.36617 35.9121 6.36617C36.2595 6.36617 36.5411 6.65187 36.5411 7.00396V11.8502C36.5411 12.2277 36.8432 12.5336 37.2154 12.5336C37.5879 12.5336 37.8896 12.2277 37.8896 11.8502V7.77911C37.8896 7.42702 38.1712 7.14167 38.5186 7.14167C38.8664 7.14167 39.148 7.42701 39.148 7.77911V11.8502C39.148 12.2277 39.4497 12.5336 39.8223 12.5336C40.1944 12.5336 40.4962 12.2277 40.4962 11.8502V9.24678C40.4962 8.89469 40.7781 8.60898 41.1255 8.60898C41.4729 8.60898 41.7549 8.89469 41.7549 9.24678V14.9237V14.935V26.432H32.6762V20.6358C32.6762 20.2583 32.3741 19.9524 32.0019 19.9524H30.9815C30.6 19.9514 30.2912 19.6378 30.2909 19.2511L30.2909 19.2508ZM28.9995 25.6753H30.1153C30.185 25.6739 30.2543 25.6615 30.3205 25.6382C30.3303 25.635 30.3408 25.6329 30.3505 25.629V25.6294C30.4129 25.6047 30.4707 25.5708 30.5234 25.5291C30.5328 25.5217 30.5418 25.5139 30.5509 25.5065L30.5505 25.5061C30.6014 25.462 30.6453 25.4104 30.6809 25.3532C30.6861 25.344 30.6903 25.3349 30.6958 25.3253C30.7317 25.2621 30.7575 25.1932 30.7718 25.1219V25.1184C30.8398 24.7589 31.0391 24.4386 31.3294 24.221V27.1042V27.1155C31.3294 27.493 31.6315 27.7988 32.0036 27.7988H42.4311C42.8033 27.7988 43.1054 27.493 43.1054 27.1155V24.243C43.4504 24.5202 43.6515 24.9426 43.6508 25.389V27.8444C43.6504 28.2332 43.4978 28.6062 43.2263 28.8813C42.9549 29.1564 42.5869 29.3111 42.2032 29.3114H32.1905C31.8539 29.3107 31.5281 29.1914 31.2692 28.9735C31.0103 28.7556 30.8343 28.4533 30.7716 28.1181V28.1139C30.765 28.0832 30.7563 28.0528 30.7455 28.0228C30.7409 28.009 30.7378 27.9942 30.7326 27.9804C30.7221 27.9578 30.7106 27.9359 30.6977 27.9151C30.6883 27.8978 30.6806 27.8791 30.6698 27.8628C30.659 27.8466 30.6517 27.8409 30.6434 27.8296V27.8293C30.6263 27.8052 30.6075 27.7823 30.5873 27.7604C30.5838 27.7569 30.5796 27.754 30.5761 27.7509C30.5482 27.7237 30.5183 27.6989 30.4862 27.6771L30.4737 27.6696V27.67C30.4412 27.6484 30.4074 27.6297 30.3719 27.6138L30.3611 27.6107C30.3238 27.5948 30.2851 27.5828 30.2458 27.5743H30.2301C30.191 27.5665 30.1517 27.5626 30.1123 27.5623H28.9992C28.5441 27.5623 28.1755 27.1883 28.1751 26.7271V26.5102C28.1755 26.049 28.5445 25.6757 28.9992 25.6754L28.9995 25.6753ZM6.34784 25.3896C6.35168 24.9457 6.55309 24.5275 6.89563 24.251V27.1164C6.89563 27.4936 7.1974 27.7994 7.56992 27.7994H17.9974C18.3696 27.7994 18.6714 27.4936 18.6714 27.1164C18.6717 27.1126 18.6717 27.1087 18.6714 27.1048V24.2216C18.962 24.4392 19.161 24.7595 19.2292 25.119V25.1225C19.2435 25.1942 19.269 25.2631 19.3052 25.3263C19.3104 25.3358 19.3146 25.345 19.3202 25.3542H19.3199C19.3557 25.4114 19.3997 25.463 19.4502 25.5071C19.4592 25.5149 19.4683 25.5226 19.4777 25.5297C19.53 25.5717 19.5882 25.6056 19.6502 25.63C19.66 25.6335 19.6704 25.636 19.6802 25.6392H19.6805C19.7464 25.6625 19.8157 25.6749 19.8858 25.6759H21.0019C21.4567 25.6766 21.825 26.0502 21.8257 26.5111V26.7279C21.8254 27.1888 21.4567 27.5628 21.0019 27.5632H19.8813C19.858 27.5642 19.8346 27.5667 19.8116 27.5706C19.7904 27.5727 19.7687 27.5737 19.7485 27.578L19.7489 27.5776C19.7245 27.584 19.7008 27.5914 19.6774 27.6006C19.66 27.6066 19.6416 27.6105 19.6245 27.6179H19.6241C19.5956 27.631 19.5677 27.6461 19.5409 27.6635C19.5314 27.6695 19.521 27.6733 19.5126 27.6797H19.5123C19.3617 27.7814 19.2582 27.9407 19.2255 28.1211C19.1687 28.4337 19.0122 28.719 18.7798 28.9327C18.5477 29.1467 18.2529 29.2777 17.9403 29.3053C17.8954 29.3081 17.8504 29.312 17.8083 29.312L16.3336 29.3123C15.9611 29.3123 15.6593 29.6181 15.6593 29.9953C15.6593 30.3728 15.9611 30.6787 16.3336 30.6787H17.3222V43.6331H8.24349V30.6787H14.0862C14.4588 30.6787 14.7605 30.3725 14.7605 29.9953C14.7605 29.6178 14.4588 29.312 14.0862 29.312H7.79398C7.73195 29.312 7.66888 29.3074 7.64309 29.307C7.2873 29.2682 6.95835 29.0976 6.71899 28.8278C6.47994 28.558 6.34752 28.208 6.34752 27.8453L6.34784 25.3896Z" fill="url(#paint0_linear_6236_23312)"/>
<defs>
<linearGradient id="paint0_linear_6236_23312" x1="37.6624" y1="33.6397" x2="37.6624" y2="41.6506" gradientUnits="userSpaceOnUse">
<stop stop-color="#ED3040"/>
<stop offset="1" stop-color="#2D23F4"/>
</linearGradient>
</defs>
</svg>
