<svg width="50" height="50" viewBox="0 0 50 50" fill="none" xmlns="http://www.w3.org/2000/svg">
<path d="M44.9151 35.1545C44.834 35.0331 43.0491 32.3631 38.4249 33.4149C35.6261 34.0623 33.4356 34.7499 32.2593 35.195C32.1376 34.1027 31.2048 33.253 30.1094 33.1721L13.1942 29.8951V28.9243C13.1942 28.5601 12.9102 28.2768 12.545 28.2768H5.64914C5.284 28.2768 5 28.5601 5 28.9243V42.113C5 42.4771 5.284 42.7604 5.64914 42.7604H12.545C12.9102 42.7604 13.1942 42.4771 13.1942 42.113L13.1945 40.697C15.7904 41.7083 23.1323 44.5 26.9865 44.5C31.6514 44.5 44.186 36.3679 44.7536 36.0443C44.9967 35.8419 45.0778 35.4373 44.9156 35.1541L44.9151 35.1545ZM6.29893 41.4256V29.5715H11.8563V41.4248L6.29893 41.4256ZM26.946 43.2054C23.1329 43.2054 15.0605 40.0498 13.1539 39.281L13.1542 31.2308L29.9068 34.4673C30.4748 34.4673 30.9208 34.9124 30.9208 35.4786C30.9208 36.0451 30.4745 36.4899 29.9068 36.4899L20.5366 36.4903C20.1714 36.4903 19.8874 36.7735 19.8874 37.1377C19.8874 37.5019 20.1714 37.7851 20.5366 37.7851H29.947C30.7585 37.7851 31.4885 37.34 31.8942 36.6929C32.6245 36.4096 35.1799 35.4388 38.709 34.67C41.2238 34.1035 42.6438 34.8318 43.3332 35.3579C40.6561 37.0564 30.6772 43.2057 26.9454 43.2057L26.946 43.2054Z" fill="url(#paint0_linear_6236_23326)"/>
<path d="M28.2841 18.2848L25.4447 11.4072C25.3636 11.2049 25.1607 11.0835 24.9578 11.043C24.755 11.043 24.5521 11.1644 24.4304 11.3667L21.1447 18.2848C20.9824 18.3658 20.8607 18.5681 20.8607 18.7704C20.8607 20.8742 22.5644 22.5734 24.6738 22.6139H24.7955C26.9049 22.5734 28.6086 20.8742 28.6086 18.7704C28.5677 18.5681 28.446 18.3658 28.284 18.2848H28.2841ZM24.9173 12.9849L27.0673 18.2039H22.4427L24.9173 12.9849ZM24.7145 21.4808C23.4165 21.4808 22.3616 20.5505 22.078 19.3365H27.3513C27.1076 20.5501 26.0124 21.4404 24.7145 21.4808Z" fill="url(#paint1_linear_6236_23326)"/>
<path d="M24.9581 29.8546C24.6335 29.8546 24.3901 29.6119 24.3901 29.2881C24.3901 28.9644 24.6335 28.7216 24.9581 28.7216H38.8717C39.1963 28.7216 39.4397 28.9644 39.4397 29.2881C39.4394 29.6119 39.196 29.8546 38.8714 29.8546H24.9581Z" fill="url(#paint2_linear_6236_23326)"/>
<path d="M42.3185 18.2439L39.4791 11.3662C39.398 11.1639 39.1951 11.0425 38.9923 11.0021C38.7894 11.0021 38.5865 11.1234 38.4648 11.3258L35.1791 18.2439C35.0168 18.3248 34.8951 18.5271 34.8951 18.7295C34.8951 20.8333 36.5988 22.5324 38.7082 22.5729H38.8299C40.9393 22.5325 42.643 20.8333 42.643 18.7295C42.6024 18.5271 42.4807 18.3248 42.3184 18.2439H42.3185ZM38.9517 12.944L41.1017 18.1629H36.4775L38.9517 12.944ZM38.7489 21.4399C37.4509 21.4399 36.396 20.5095 36.1124 19.2956H41.3857C41.1423 20.5092 40.0469 21.3994 38.7489 21.4399Z" fill="url(#paint3_linear_6236_23326)"/>
<path d="M38.8709 8.69606H33.6787C33.5164 8.12955 33.0296 7.64427 32.4619 7.48246V6.06619C32.4619 5.74248 32.2185 5.5 31.9345 5.5C31.6099 5.5 31.3665 5.74278 31.3665 6.0665V7.48245C30.7985 7.68477 30.3525 8.12988 30.1902 8.69605H24.9578C24.6332 8.69605 24.3898 8.93883 24.3898 9.26255C24.3898 9.58627 24.6332 9.82905 24.9578 9.82905L30.1902 9.82874C30.3931 10.3548 30.7988 10.7996 31.3665 10.9614V26.6988H27.7968C27.4722 26.6988 27.2288 26.9416 27.2288 27.2653C27.2288 27.5891 27.4722 27.8318 27.7968 27.8318H36.031C36.3555 27.8318 36.599 27.5891 36.599 27.2653C36.599 26.9416 36.3556 26.6988 36.031 26.6988H32.4613L32.4616 10.9614C33.0296 10.7995 33.4756 10.3544 33.6378 9.78827H38.8706C39.1952 9.78827 39.4386 9.54548 39.4386 9.22176C39.4386 8.89805 39.1952 8.69604 38.8706 8.69604L38.8709 8.69606ZM31.9345 9.95012C31.5287 9.95012 31.2042 9.62641 31.2042 9.22176C31.2042 8.81712 31.5287 8.49341 31.9345 8.49341C32.3402 8.49341 32.6647 8.81712 32.6647 9.22176C32.6647 9.62641 32.3402 9.95012 31.9345 9.95012Z" fill="url(#paint4_linear_6236_23326)"/>
<defs>
<linearGradient id="paint0_linear_6236_23326" x1="0" y1="0" x2="0" y2="1" gradientUnits="objectBoundingBox">
<stop stop-color="#ED3040"/>
<stop offset="1" stop-color="#2D23F4"/>
</linearGradient>
<linearGradient id="paint1_linear_6236_23326" x1="0" y1="0" x2="0" y2="1" gradientUnits="objectBoundingBox">
<stop stop-color="#ED3040"/>
<stop offset="1" stop-color="#2D23F4"/>
</linearGradient>
<linearGradient id="paint2_linear_6236_23326" x1="0" y1="0" x2="0" y2="1" gradientUnits="objectBoundingBox">
<stop stop-color="#ED3040"/>
<stop offset="1" stop-color="#2D23F4"/>
</linearGradient>
<linearGradient id="paint3_linear_6236_23326" x1="0" y1="0" x2="0" y2="1" gradientUnits="objectBoundingBox">
<stop stop-color="#ED3040"/>
<stop offset="1" stop-color="#2D23F4"/>
</linearGradient>
<linearGradient id="paint4_linear_6236_23326" x1="0" y1="0" x2="0" y2="1" gradientUnits="objectBoundingBox">
<stop stop-color="#ED3040"/>
<stop offset="1" stop-color="#2D23F4"/>
</linearGradient>
</defs>
</svg>
