<svg width="50" height="50" viewBox="0 0 50 50" fill="none" xmlns="http://www.w3.org/2000/svg">
<path d="M19.3129 28.0071C19.1193 28.0071 18.9344 27.9316 18.7966 27.7955L11.038 20.1311C10.7533 19.8498 10.7533 19.3921 11.038 19.1077L19.6361 10.6147C19.9121 10.3421 20.3953 10.3421 20.6713 10.6147L28.4298 18.2788C28.7142 18.56 28.7142 19.0181 28.4298 19.3021L19.8325 27.7955C19.6943 27.9316 19.5094 28.0071 19.3129 28.0071ZM12.5902 19.6209L19.3129 26.2621L26.8744 18.7921L20.1517 12.1509L12.5902 19.6209Z" fill="url(#paint0_linear_6236_23316)"/>
<path d="M29.448 21.033C29.2544 21.033 29.0667 20.9575 28.9316 20.8213L18.0981 10.1193C17.8106 9.83805 17.8106 9.37998 18.0981 9.09595L21.5222 5.71301C21.8069 5.429 22.2706 5.429 22.5582 5.71301L33.3926 16.4151C33.5304 16.5512 33.6065 16.7339 33.6065 16.9252C33.6065 17.1164 33.5304 17.3019 33.3926 17.4353L29.9681 20.8182C29.8303 20.9571 29.6454 21.0326 29.4486 21.0326L29.448 21.033ZM19.6497 9.60916L29.448 19.2877L31.8366 16.9281L22.0383 7.24957L19.6497 9.60916Z" fill="url(#paint1_linear_6236_23316)"/>
<path d="M17.4265 32.9085C17.2388 32.9085 17.0539 32.8389 16.9102 32.6969L6.07662 21.9949C5.78912 21.7136 5.78912 21.2559 6.07662 20.9715L9.50112 17.5889C9.7771 17.3163 10.2614 17.3163 10.537 17.5889L21.3706 28.291C21.6553 28.5722 21.6553 29.0303 21.3706 29.3143L17.9464 32.6969C17.8027 32.8389 17.6146 32.9085 17.4269 32.9085H17.4265ZM7.6291 21.4847L17.4265 31.1632L19.8151 28.8037L10.0177 19.1251L7.6291 21.4847Z" fill="url(#paint2_linear_6236_23316)"/>
<path d="M40.7013 44.1647H40.6958C40.499 44.1616 40.3113 44.0834 40.1762 43.9445L21.6228 24.9898C21.3472 24.7058 21.35 24.2536 21.6316 23.9751L24.563 21.0795C24.8446 20.8011 25.302 20.7955 25.5895 21.0706L44.7771 39.3997C44.918 39.5327 44.9969 39.7185 45 39.9125C45 40.1069 44.9236 40.2924 44.7858 40.4285L41.221 43.9503C41.0832 44.0868 40.8952 44.1651 40.7015 44.1651L40.7013 44.1647ZM23.1742 24.4944L40.713 42.4115L43.2247 39.9302L25.0884 22.6043L23.1742 24.4944Z" fill="url(#paint3_linear_6236_23316)"/>
<path d="M26.4996 44.5H5.73374C5.32866 44.5 5 44.1753 5 43.7783V41.1695C5 40.7693 5.32867 40.4474 5.73374 40.4474H26.4996C26.9047 40.4474 27.2333 40.7721 27.2333 41.1695V43.7783C27.2333 44.1753 26.9047 44.5 26.4996 44.5ZM6.46705 43.0534H25.7689V41.8881H6.46705V43.0534Z" fill="url(#paint4_linear_6236_23316)"/>
<path d="M7.63445 41.8909C7.22937 41.8909 6.90385 41.5662 6.90385 41.1692C6.90385 39.595 8.20103 38.3139 9.79449 38.3139H22.4439C24.037 38.3139 25.3345 39.5951 25.3345 41.1692C25.3345 41.5662 25.0059 41.8909 24.6008 41.8909H7.63445ZM8.57141 40.4443H23.6682C23.4187 40.0327 22.9637 39.7573 22.4446 39.7573H9.79518C9.27566 39.7573 8.8207 40.0327 8.57159 40.4443H8.57141Z" fill="url(#paint5_linear_6236_23316)"/>
<defs>
<linearGradient id="paint0_linear_6236_23316" x1="37.6624" y1="33.4237" x2="37.6624" y2="41.2343" gradientUnits="userSpaceOnUse">
<stop stop-color="#ED3040"/>
<stop offset="1" stop-color="#2D23F4"/>
</linearGradient>
<linearGradient id="paint1_linear_6236_23316" x1="37.6624" y1="33.4237" x2="37.6624" y2="41.2343" gradientUnits="userSpaceOnUse">
<stop stop-color="#ED3040"/>
<stop offset="1" stop-color="#2D23F4"/>
</linearGradient>
<linearGradient id="paint2_linear_6236_23316" x1="37.6624" y1="33.4237" x2="37.6624" y2="41.2343" gradientUnits="userSpaceOnUse">
<stop stop-color="#ED3040"/>
<stop offset="1" stop-color="#2D23F4"/>
</linearGradient>
<linearGradient id="paint3_linear_6236_23316" x1="37.6624" y1="33.4237" x2="37.6624" y2="41.2343" gradientUnits="userSpaceOnUse">
<stop stop-color="#ED3040"/>
<stop offset="1" stop-color="#2D23F4"/>
</linearGradient>
<linearGradient id="paint4_linear_6236_23316" x1="37.6624" y1="33.4237" x2="37.6624" y2="41.2343" gradientUnits="userSpaceOnUse">
<stop stop-color="#ED3040"/>
<stop offset="1" stop-color="#2D23F4"/>
</linearGradient>
<linearGradient id="paint5_linear_6236_23316" x1="37.6624" y1="33.4237" x2="37.6624" y2="41.2343" gradientUnits="userSpaceOnUse">
<stop stop-color="#ED3040"/>
<stop offset="1" stop-color="#2D23F4"/>
</linearGradient>
</defs>
</svg>
