<svg width="44" height="60" viewBox="0 0 44 60" fill="none" xmlns="http://www.w3.org/2000/svg">
<path d="M43.0996 58.2432H41.7441V55.7261C41.7441 53.7523 40.0971 52.1463 38.0728 52.1463H30.9867V44.4237C30.9867 43.5364 30.7876 42.6941 30.433 41.9348H40.2635C41.5628 41.9348 42.62 40.9039 42.62 39.6369V35.7431C42.62 34.4762 41.5628 33.4454 40.2635 33.4454H18.6216C17.3223 33.4454 16.2651 34.4762 16.2651 35.7431V39.6369C16.2651 40.2614 16.5228 40.8277 16.9387 41.2423C12.388 40.1288 9.00819 36.1069 9.00819 31.3292C9.00819 29.5474 9.48885 27.7912 10.3983 26.2501C10.6463 25.8297 10.498 25.2927 10.0667 25.0508C9.63561 24.8092 9.08482 24.9534 8.83668 25.3741C7.77027 27.1813 7.20662 29.2405 7.20662 31.3293C7.20662 37.6851 12.3107 42.8994 18.7318 43.2822C18.6588 43.652 18.6192 44.0333 18.6192 44.4237V48.5546C9.26893 48.1108 1.80193 40.5545 1.80193 31.3292C1.80193 23.3947 7.38918 16.5401 15.1001 14.6191C14.6689 15.5213 14.4265 16.5259 14.4265 17.5852C14.4265 18.5101 14.612 19.3932 14.9457 20.2031C13.7042 20.6859 12.556 21.3626 11.5222 22.2238C11.144 22.5387 11.0993 23.0932 11.4224 23.462C11.6005 23.6654 11.8533 23.7699 12.1077 23.7699C12.3147 23.7699 12.5226 23.7007 12.6923 23.5593C13.6352 22.774 14.6895 22.1699 15.8316 21.7543C16.9868 23.284 18.7597 24.3427 20.7886 24.5798V25.3659C20.7886 26.6716 21.7362 27.7651 22.9959 28.0281L24.232 30.4078C24.2368 30.4172 24.242 30.4266 24.2472 30.4358C24.6051 31.0674 25.2873 31.4597 26.0275 31.4597H29.3868C30.127 31.4597 30.8092 31.0673 31.1671 30.4358C31.1723 30.4266 31.1774 30.4172 31.1822 30.4078L32.4183 28.0281C33.678 27.7652 34.6256 26.6716 34.6256 25.3659V17.2015H36.7559C36.7816 18.3251 37.725 19.2318 38.8833 19.2318H40.1143C41.2886 19.2318 42.2441 18.3001 42.2441 17.155V11.8942C42.2441 10.7491 41.2886 9.81744 40.1143 9.81744H38.8833C37.725 9.81744 36.7816 10.7241 36.7559 11.8477H34.6256V9.23024C34.6256 8.04529 33.637 7.08122 32.4217 7.08122H30.9863V5.54821H32.7567C33.7872 5.54821 34.6256 4.73077 34.6256 3.72594V1.82227C34.6256 0.817564 33.7873 0 32.7567 0H27.8368C27.3392 0 26.936 0.393147 26.936 0.878345C26.936 1.36354 27.3392 1.75669 27.8368 1.75669H32.7567C32.7938 1.75669 32.824 1.78609 32.824 1.82227V3.72606C32.824 3.76225 32.7938 3.79164 32.7567 3.79164H30.0855H25.3285H22.6572C22.6201 3.79164 22.59 3.76225 22.59 3.72606V1.82227C22.59 1.78609 22.6201 1.75669 22.6572 1.75669H23.9981C24.4956 1.75669 24.8988 1.36354 24.8988 0.878345C24.8988 0.393147 24.4956 0 23.9981 0H22.6572C21.6268 0 20.7884 0.817447 20.7884 1.82227V3.72606C20.7884 4.73077 21.6267 5.54833 22.6572 5.54833H24.4277V7.08145H22.9922C21.7771 7.08145 20.7884 8.04541 20.7884 9.23047V10.5905C19.1786 10.7786 17.7304 11.4841 16.6235 12.5319C12.0932 13.1836 7.93338 15.3831 4.88176 18.7494C1.73371 22.222 0 26.6896 0 31.3293C0 41.5234 8.27495 49.8672 18.6188 50.3125V52.1464H11.5327C9.50842 52.1464 7.86143 53.7524 7.86143 55.7262V58.2433H6.85039C6.3528 58.2433 5.94961 58.6365 5.94961 59.1217C5.94961 59.6068 6.3528 60 6.85039 60H8.76221H40.8429H43.0992C43.5968 60 44 59.6068 44 59.1217C44 58.6365 43.5972 58.2432 43.0996 58.2432ZM16.228 17.5851C16.228 14.668 18.6618 12.2947 21.6534 12.2947C21.6651 12.2947 21.6768 12.2955 21.6887 12.2955H21.6895H21.6898C24.6646 12.3148 27.0789 14.6797 27.0789 17.5849C27.0789 20.4902 24.6646 22.855 21.6898 22.8742C21.6896 22.8742 21.6895 22.8742 21.6895 22.8742C21.6893 22.8742 21.6889 22.8742 21.6887 22.8742C21.6769 22.8742 21.6653 22.875 21.6534 22.875C18.6618 22.8753 16.228 20.5021 16.228 17.5851ZM29.5854 29.5946C29.5433 29.6617 29.4682 29.7031 29.387 29.7031H26.0277C25.9464 29.7031 25.8713 29.6617 25.8293 29.5946L25.047 28.0888H30.3677L29.5854 29.5946ZM31.8337 26.332H23.5811C23.0347 26.332 22.5903 25.8987 22.5903 25.3659V24.5708C23.9688 24.396 25.2271 23.843 26.2493 23.0196H32.8244V25.3659C32.8244 25.8987 32.3799 26.332 31.8337 26.332ZM38.5553 11.8942C38.5553 11.7177 38.7027 11.5741 38.8836 11.5741H40.1145C40.2955 11.5741 40.4427 11.7178 40.4427 11.8942V17.155C40.4427 17.3315 40.2954 17.4751 40.1145 17.4751H38.8836C38.7026 17.4751 38.5553 17.3314 38.5553 17.155V16.3232V12.7259V11.8942ZM36.7537 13.6043V15.4448H34.6259V13.6043H36.7537ZM26.2295 5.54821H29.185V7.08134H26.2295V5.54821ZM22.9924 8.83803H25.3264C25.3271 8.83803 25.328 8.83814 25.3287 8.83814H30.0858C30.0866 8.83814 30.0874 8.83803 30.0881 8.83803H32.4219C32.6438 8.83803 32.8243 9.01405 32.8243 9.23035V12.7261V16.3233V21.263H27.8152C28.4902 20.1916 28.8804 18.9322 28.8804 17.5853C28.8804 14.0093 26.134 11.049 22.5903 10.5995V9.23024C22.5903 9.01405 22.7707 8.83803 22.9924 8.83803ZM18.0667 35.743C18.0667 35.4446 18.3156 35.202 18.6216 35.202H40.2635C40.5696 35.202 40.8184 35.4446 40.8184 35.743V39.6368C40.8184 39.9352 40.5696 40.178 40.2635 40.178H29.1892C28.0683 39.0769 26.516 38.3939 24.803 38.3939C23.0899 38.3939 21.5377 39.077 20.4168 40.178H18.6216C18.3156 40.178 18.0667 39.9352 18.0667 39.6368V35.743ZM20.4207 44.4235C20.4207 42.0675 22.3866 40.1506 24.8029 40.1506C27.2191 40.1506 29.185 42.0675 29.185 44.4235V52.1462H20.4206V44.4235H20.4207ZM9.66336 58.2432V55.7261C9.66336 54.7208 10.502 53.903 11.533 53.903H19.52H30.0859H38.0728C39.1038 53.903 39.9425 54.7208 39.9425 55.7261V58.2432H9.66336Z" fill="black"/>
</svg>
