<svg width="50" height="50" viewBox="0 0 50 50" fill="none" xmlns="http://www.w3.org/2000/svg">
<path d="M41.1292 19.8387V17.9032H41.7743C41.9452 17.9032 42.1095 17.8353 42.2305 17.7143C42.3515 17.5933 42.4193 17.4291 42.4193 17.2581V15.3226H44.3549C44.5259 15.3226 44.6901 15.2547 44.8111 15.1337C44.9321 15.0127 45 14.8484 45 14.6775V12.0969C45 11.8328 44.8393 11.5955 44.5941 11.4976L28.4651 5.0461V5.04578C28.3892 5.01537 28.3079 4.99968 28.2259 5H21.7741C21.6921 5 21.6105 5.01569 21.5343 5.04642L5.4053 11.4979V11.4982C5.16071 11.5962 5 11.8331 5 12.0969V14.6775C5 14.8484 5.06819 15.0127 5.18888 15.1337C5.3099 15.2547 5.47413 15.3226 5.64509 15.3226H7.58065V17.2581C7.58065 17.4291 7.64884 17.5933 7.76953 17.7143C7.89055 17.8353 8.05478 17.9032 8.22573 17.9032H8.87114V19.8387C8.87274 20.2376 8.9976 20.6263 9.22842 20.9512C9.45956 21.2765 9.78515 21.5223 10.1613 21.6555V37.3762C9.78516 37.5091 9.45926 37.7553 9.22842 38.0806C8.99728 38.4058 8.87242 38.7948 8.87114 39.1937V41.1292H5.64509C5.28877 41.1292 5.00001 41.418 5.00001 41.7743V44.3549C5.00001 44.5259 5.0682 44.6901 5.18889 44.8111C5.30991 44.9321 5.47414 45 5.64509 45H44.3547C44.5256 45 44.6899 44.9321 44.8109 44.8111C44.9319 44.6901 44.9998 44.5259 44.9998 44.3549V41.7743C44.9998 41.603 44.9319 41.4391 44.8109 41.3181C44.6899 41.1971 44.5256 41.1292 44.3547 41.1292H41.129V39.1937C41.127 38.7948 41.0022 38.4061 40.7714 38.0809C40.5402 37.7556 40.2146 37.5097 39.8385 37.3769V21.6554C40.2143 21.5222 40.5402 21.2766 40.771 20.9514C41.0022 20.6264 41.127 20.2378 41.129 19.8392L41.1292 19.8387ZM35.9678 37.2576V21.7737H38.5485V37.2576H35.9678ZM28.8709 41.1287V39.8382H33.3871V41.1283L28.8709 41.1287ZM14.0327 21.774V37.2579H11.4521V21.774H14.0327ZM15.3229 21.6553V21.6556C15.869 21.46 16.2986 21.03 16.4939 20.4839H21.2481C21.4434 21.03 21.8733 21.4596 22.4198 21.6549V37.3757C21.873 37.5709 21.443 38.0012 21.2481 38.548H16.4939C16.299 38.0016 15.869 37.5713 15.3229 37.3757V21.6553ZM21.1293 17.9033V19.1934H16.6134V17.9033H21.1293ZM33.3875 19.1934H28.8713V17.9033H33.3875V19.1934ZM23.7101 21.774H26.2908V37.2579H23.7101V21.774ZM26.9358 20.4839H23.065C22.7087 20.4839 22.42 20.1951 22.42 19.8388V17.9033H27.5813V19.8388C27.5813 20.0097 27.5131 20.174 27.3921 20.295C27.2711 20.416 27.1071 20.4839 26.9358 20.4839ZM16.6134 39.8385H21.1296V41.1287L16.6134 41.129V39.8385ZM22.4199 39.1934C22.4199 38.8371 22.7086 38.5484 23.065 38.5484H26.9358C27.107 38.5484 27.2709 38.6162 27.392 38.7372C27.513 38.8583 27.5812 39.0222 27.5812 39.1934V41.129H22.4198L22.4199 39.1934ZM33.5061 38.5484H28.7517C28.5567 38.0019 28.1271 37.5716 27.5809 37.376V21.6553C28.1268 21.46 28.5564 21.0303 28.7517 20.4842H33.5061C33.7014 21.0303 34.1313 21.46 34.6775 21.6553V37.376C34.131 37.5713 33.7011 38.0015 33.5061 38.5484ZM39.8389 19.8387C39.8389 20.0097 39.771 20.1739 39.65 20.2949C39.529 20.4159 39.3647 20.4838 39.1938 20.4838H35.3227C34.9663 20.4838 34.6776 20.195 34.6776 19.8387V17.9032H39.8389L39.8389 19.8387ZM6.29088 12.5328L21.8986 6.29038H28.102L43.7106 12.5328V14.0323H6.29097L6.29088 12.5328ZM41.1297 15.3225V16.6126L8.87169 16.6129V15.3225L41.1297 15.3225ZM15.3233 17.9031V19.8386C15.3233 20.0096 15.2554 20.1738 15.1344 20.2948C15.0134 20.4158 14.8492 20.4837 14.6782 20.4837H10.8071C10.4508 20.4837 10.162 20.1949 10.162 19.8386V17.9031H15.3233ZM10.1619 39.1935C10.1619 38.8372 10.4507 38.5484 10.807 38.5484H14.6781C14.8491 38.5484 15.0133 38.6163 15.1343 38.7373C15.2554 38.8583 15.3232 39.0222 15.3232 39.1935V41.1291H10.1619L10.1619 39.1935ZM43.7099 43.7097H6.29113V42.4192H43.7107L43.7099 43.7097ZM39.8391 41.1291H34.6777V39.1935C34.6777 38.8372 34.9665 38.5484 35.3228 38.5484H39.194C39.3649 38.5484 39.5291 38.6163 39.6502 38.7373C39.7712 38.8583 39.839 39.0222 39.839 39.1935L39.8391 41.1291Z" fill="url(#paint0_linear_6180_40138)"/>
<path d="M25.0002 12.7422C25.6847 12.7422 26.3409 12.4704 26.825 11.9864C27.3088 11.5023 27.5809 10.846 27.5809 10.1615C27.5809 9.47707 27.3088 8.82081 26.825 8.3367C26.341 7.85266 25.6847 7.58085 25.0002 7.58085C24.3157 7.58085 23.6591 7.85265 23.1754 8.3367C22.6913 8.82075 22.4195 9.47703 22.4195 10.1615C22.4195 10.846 22.6913 11.5022 23.1754 11.9864C23.6591 12.4704 24.3157 12.7422 25.0002 12.7422ZM25.0002 8.87144C25.3424 8.87144 25.6706 9.00717 25.9126 9.24921C26.1543 9.49123 26.2904 9.81937 26.2904 10.1616C26.2904 10.5038 26.1543 10.832 25.9126 11.074C25.6706 11.3161 25.3424 11.4521 25.0002 11.4521C24.6579 11.4521 24.3298 11.3161 24.0878 11.074C23.8457 10.832 23.7097 10.5039 23.7097 10.1616C23.7097 9.81939 23.8457 9.49125 24.0878 9.24921C24.3298 9.00718 24.6579 8.87144 25.0002 8.87144Z" fill="url(#paint1_linear_6180_40138)"/>
<defs>
<linearGradient id="paint0_linear_6180_40138" x1="0" y1="0" x2="0" y2="1" gradientUnits="objectBoundingBox">
<stop stop-color="#ED3040"/>
<stop offset="1" stop-color="#2D23F4"/>
</linearGradient>
<linearGradient id="paint1_linear_6180_40138" x1="0" y1="0" x2="0" y2="1" gradientUnits="objectBoundingBox">
<stop stop-color="#ED3040"/>
<stop offset="1" stop-color="#2D23F4"/>
</linearGradient>
</defs>
</svg>
