<svg width="50" height="50" viewBox="0 0 50 50" fill="none" xmlns="http://www.w3.org/2000/svg">
<path d="M12.0066 22.9753H20.466C20.8132 22.9753 21.0972 22.6941 21.0972 22.3503V11.9372C21.0972 11.5934 20.8132 11.3123 20.466 11.3123H12.0066C11.6593 11.3123 11.3753 11.5934 11.3753 11.9372V22.3495C11.3753 22.6936 11.6593 22.9748 12.0066 22.9748V22.9753ZM12.6378 12.563H19.8346V21.7258H12.6378V12.563Z" fill="url(#paint0_linear_6180_40136)"/>
<path d="M43.8619 16.1247C42.6434 15.2685 40.9516 15.5496 40.0868 16.7496C40.0868 16.7496 38.1488 19.4432 36.7284 21.4185V8.81272C36.7284 8.4689 36.4444 8.18777 36.0972 8.18777H33.5089V5.62495C33.5089 5.28113 33.2249 5 32.8777 5H5.63123C5.28396 5 5 5.28113 5 5.62495V41.1873C5 41.5311 5.28396 41.8122 5.63123 41.8122H8.21951V44.375C8.21951 44.7189 8.50346 45 8.85074 45H36.0972C36.4444 45 36.7284 44.7189 36.7284 44.375V30.6877C38.3572 28.4064 39.6639 26.5814 39.6639 26.5814L44.4997 19.8627C45.3645 18.6563 45.0805 16.9814 43.862 16.1249L43.8619 16.1247ZM8.21972 8.81233V40.5625H6.2627V6.24959H32.2471V8.18712L8.85122 8.1868C8.50394 8.1868 8.21998 8.46825 8.21998 8.81206L8.21972 8.81233ZM35.4661 43.7499H9.48172V9.43705H35.4661V23.1498C35.4661 23.1562 35.4726 23.1622 35.4726 23.1686C35.3334 23.3624 25.9844 36.4376 25.9844 36.4376C25.915 36.5377 25.8772 36.6499 25.8707 36.7689L25.694 40.5564C25.6814 40.7687 25.7825 40.969 25.9592 41.094C26.0665 41.1692 26.1992 41.2127 26.3252 41.2127C26.4073 41.2127 26.4832 41.2002 26.5588 41.1688L30.1194 39.7625C30.2332 39.7187 30.3278 39.6439 30.4034 39.5438C30.4034 39.5438 33.0169 35.8875 35.4662 32.4563L35.4661 43.7499ZM27.0762 37.9748L28.5723 39.0311L27.0003 39.65L27.0762 37.9748ZM29.7339 38.3122L27.3792 36.6497L35.9139 24.7055L36.4821 25.1056L34.1336 28.3743C33.9317 28.6554 33.9947 29.0431 34.2787 29.2429C34.3924 29.3242 34.5187 29.3616 34.6447 29.3616C34.8404 29.3616 35.0362 29.2679 35.1622 29.099L37.5107 25.8303L38.2683 26.3616L29.7339 38.3122ZM43.4713 19.1375L39.0016 25.3499L37.7326 24.4563L36.6469 23.6938L41.1166 17.4814C41.5775 16.8376 42.4801 16.6876 43.1305 17.144C43.7804 17.5997 43.9319 18.4936 43.4713 19.1375Z" fill="url(#paint1_linear_6180_40136)"/>
<path d="M24.1147 18.5564H32.4476C32.7949 18.5564 33.0788 18.2753 33.0788 17.9314C33.0788 17.5876 32.7949 17.3065 32.4476 17.3065H24.1147C23.7674 17.3065 23.4835 17.5876 23.4835 17.9314C23.4835 18.2753 23.7674 18.5564 24.1147 18.5564Z" fill="url(#paint2_linear_6180_40136)"/>
<path d="M24.1147 22.9753H32.4476C32.7949 22.9753 33.0788 22.6941 33.0788 22.3503C33.0788 22.0065 32.7949 21.7254 32.4476 21.7254H24.1147C23.7674 21.7254 23.4835 22.0065 23.4835 22.3503C23.4835 22.6941 23.7674 22.9753 24.1147 22.9753Z" fill="url(#paint3_linear_6180_40136)"/>
<path d="M12.0066 27.3876H27.3723C27.7195 27.3876 28.0035 27.1065 28.0035 26.7627C28.0035 26.4188 27.7195 26.1377 27.3723 26.1377L12.0066 26.1374C11.6593 26.1374 11.3753 26.4185 11.3753 26.7623C11.3753 27.1062 11.6593 27.3876 12.0066 27.3876Z" fill="url(#paint4_linear_6180_40136)"/>
<path d="M12.0066 31.8065H26.9811C27.3284 31.8065 27.6123 31.5254 27.6123 31.1816C27.6123 30.8377 27.3284 30.5566 26.9811 30.5566L12.0066 30.5563C11.6593 30.5563 11.3753 30.8374 11.3753 31.1812C11.3753 31.525 11.6593 31.8065 12.0066 31.8065Z" fill="url(#paint5_linear_6180_40136)"/>
<path d="M23.2373 35.0439H12.0066C11.6593 35.0439 11.3753 35.325 11.3753 35.6689C11.3753 36.0127 11.6593 36.2938 12.0066 36.2938H23.2373C23.5845 36.2938 23.8685 36.0127 23.8685 35.6689C23.8685 35.3254 23.5842 35.0439 23.2369 35.0439H23.2373Z" fill="url(#paint6_linear_6180_40136)"/>
<defs>
<linearGradient id="paint0_linear_6180_40136" x1="0" y1="0" x2="0" y2="1" gradientUnits="objectBoundingBox">
<stop stop-color="#ED3040"/>
<stop offset="1" stop-color="#2D23F4"/>
</linearGradient>
<linearGradient id="paint1_linear_6180_40136" x1="0" y1="0" x2="0" y2="1" gradientUnits="objectBoundingBox">
<stop stop-color="#ED3040"/>
<stop offset="1" stop-color="#2D23F4"/>
</linearGradient>
<linearGradient id="paint2_linear_6180_40136" x1="0" y1="0" x2="0" y2="1" gradientUnits="objectBoundingBox">
<stop stop-color="#ED3040"/>
<stop offset="1" stop-color="#2D23F4"/>
</linearGradient>
<linearGradient id="paint3_linear_6180_40136" x1="0" y1="0" x2="0" y2="1" gradientUnits="objectBoundingBox">
<stop stop-color="#ED3040"/>
<stop offset="1" stop-color="#2D23F4"/>
</linearGradient>
<linearGradient id="paint4_linear_6180_40136" x1="0" y1="0" x2="0" y2="1" gradientUnits="objectBoundingBox">
<stop stop-color="#ED3040"/>
<stop offset="1" stop-color="#2D23F4"/>
</linearGradient>
<linearGradient id="paint5_linear_6180_40136" x1="0" y1="0" x2="0" y2="1" gradientUnits="objectBoundingBox">
<stop stop-color="#ED3040"/>
<stop offset="1" stop-color="#2D23F4"/>
</linearGradient>
<linearGradient id="paint6_linear_6180_40136" x1="0" y1="0" x2="0" y2="1" gradientUnits="objectBoundingBox">
<stop stop-color="#ED3040"/>
<stop offset="1" stop-color="#2D23F4"/>
</linearGradient>
</defs>
</svg>
