<svg width="50" height="50" viewBox="0 0 50 50" fill="none" xmlns="http://www.w3.org/2000/svg">
<path d="M44.5329 28.8083C44.1808 28.6483 43.7647 28.7622 43.5436 29.0798C40.8001 33.0449 36.4377 35.588 31.635 36.0219C26.8323 36.4554 22.0852 34.7353 18.6755 31.3252C15.2658 27.9155 13.5454 23.1683 13.9792 18.3656C14.4127 13.5633 16.9558 9.2008 20.9213 6.45685C21.2388 6.23612 21.3528 5.81969 21.1924 5.46756C21.0316 5.11584 20.6422 4.92925 20.267 5.02492C15.6176 6.21549 11.5402 9.01504 8.7588 12.9261C5.97676 16.8371 4.67035 21.6073 5.07086 26.3897C5.47181 31.1726 7.55361 35.6589 10.9473 39.0526C14.3412 42.4464 18.8274 44.5286 23.61 44.9291C28.3928 45.3297 33.163 44.0236 37.0736 41.2415C40.9846 38.4599 43.7841 34.3825 44.9751 29.7332C45.0707 29.3581 44.8842 28.9678 44.532 28.8074L44.5329 28.8083ZM25.3041 43.401C21.1092 43.3998 17.0362 41.9886 13.7389 39.3943C10.4423 36.7996 8.11336 33.1727 7.12605 29.0953C6.13877 25.0179 6.55043 20.7272 8.29476 16.9121C10.0391 13.0971 13.0152 9.97878 16.7452 8.05821C13.756 11.4671 12.1756 15.8848 12.3237 20.4162C12.4721 24.9473 14.3383 29.2522 17.5439 32.458C20.7495 35.6637 25.0548 37.5299 29.5857 37.6784C34.1168 37.8268 38.5349 36.246 41.9435 33.2571C40.3711 36.3143 37.9857 38.8792 35.0504 40.6689C32.1147 42.4588 28.7424 43.4045 25.3042 43.4017L25.3041 43.401Z" fill="url(#paint0_linear_6180_40128)"/>
<path d="M16.242 15.9442C16.132 16.2694 16.2412 16.6282 16.5139 16.8362L23.4873 22.1634L20.8191 30.7974H20.8195C20.7163 31.13 20.8402 31.4909 21.126 31.6902C21.4114 31.8895 21.7929 31.8808 22.0696 31.6696L29.0001 26.3745L35.9305 31.6691V31.6695C36.2068 31.8807 36.5887 31.8895 36.8741 31.6902C37.1596 31.4909 37.2834 31.13 37.1806 30.7974L34.5125 22.1634L41.4858 16.8362C41.7586 16.6278 41.8677 16.269 41.7578 15.9442C41.6478 15.6191 41.3429 15.4007 40.9999 15.4007H32.4228L29.7643 6.79693C29.6607 6.46187 29.3506 6.23321 29.0001 6.23321C28.6492 6.23321 28.3395 6.46187 28.2359 6.79693L25.5773 15.4007H16.9998C16.6568 15.4007 16.3519 15.6195 16.242 15.9442ZM26.1673 17.0006C26.5182 17.001 26.8279 16.7724 26.9315 16.4369L29.0001 9.74301L31.0687 16.4369C31.1723 16.7724 31.4819 17.001 31.8329 17.0006H38.6352L33.0977 21.2309C32.8313 21.4346 32.7202 21.7827 32.8194 22.1027L34.9132 28.8788L29.4857 24.7327H29.4861C29.1991 24.5132 28.8009 24.5132 28.5143 24.7327L23.0868 28.8788L25.1805 22.1027C25.2797 21.7827 25.169 21.4346 24.9026 21.2309L19.3647 17.0006H26.1673Z" fill="url(#paint1_linear_6180_40128)"/>
<defs>
<linearGradient id="paint0_linear_6180_40128" x1="0" y1="0" x2="0" y2="1" gradientUnits="objectBoundingBox">
<stop stop-color="#ED3040"/>
<stop offset="1" stop-color="#2D23F4"/>
</linearGradient>
<linearGradient id="paint1_linear_6180_40128" x1="0" y1="0" x2="0" y2="1" gradientUnits="objectBoundingBox">
<stop stop-color="#ED3040"/>
<stop offset="1" stop-color="#2D23F4"/>
</linearGradient>
</defs>
</svg>
