<svg width="50" height="50" viewBox="0 0 50 50" fill="none" xmlns="http://www.w3.org/2000/svg">
<path d="M44.0664 39.0108L38.0554 36.0243H26.2751C26.5603 35.6499 26.7732 35.2184 26.8705 34.7422L41.1292 34.7419C41.8409 34.7419 42.4194 34.1666 42.4194 33.4597V19.5843C44.0063 18.0667 45 15.9398 45 13.5835C45 8.98777 41.2374 5.24818 36.6126 5.24818C33.6513 5.24818 31.0496 6.78583 29.5564 9.09495L29.5157 9.09527C27.4556 9.09527 25.4125 9.72362 23.7093 10.8725C22.0062 9.72364 19.963 9.09527 17.9029 9.09527H15.3223V5L12.7417 5.85455L10.161 5V9.09527H8.87089C8.15922 9.09527 7.58041 9.67018 7.58041 10.3774H6.29026C5.57859 10.3774 5.00012 10.9526 5.00012 11.6596V33.459C5.00012 34.1663 5.57893 34.7412 6.29026 34.7412H20.5489C20.6463 35.2175 20.8592 35.6492 21.1444 36.0233L8.2257 36.024C6.44701 36.024 5 37.462 5 39.2297V41.7943C5 43.562 6.44701 45 8.2257 45H38.0552L44.0662 42.0135C44.6418 41.7268 44.9997 41.1513 44.9997 40.5117C44.9997 39.8726 44.6418 39.2967 44.0662 39.0103L44.0664 39.0108ZM37.258 39.8711H14.0325V37.3065H37.258V39.8711ZM12.7417 43.7182H11.4516V37.3064H12.7417V43.7182ZM14.0322 41.1536H37.2577V43.7182H14.0322V41.1536ZM38.5485 37.7029L41.1291 38.985V42.039L38.5485 43.3211V37.7029ZM36.6129 20.6363C36.2569 20.6363 35.9678 20.3484 35.9678 19.9952C35.9678 19.6421 36.2569 19.3542 36.6129 19.3542H40.4837C40.5618 19.3542 40.6354 19.3402 40.7107 19.3309C39.5521 20.1496 38.14 20.6363 36.6129 20.6363ZM33.3872 21.2755V21.9185H28.2259V18.0717H29.5567C30.4736 19.49 31.8056 20.6186 33.3871 21.2755L33.3872 21.2755ZM32.0967 23.201H34.6774V21.6859C35.0967 21.7845 35.527 21.8526 35.9675 21.8867L35.9678 26.4067H32.0971L32.0967 23.201ZM42.3961 17.6562C42.4054 17.5811 42.4195 17.5083 42.4195 17.4306C42.4195 16.3702 41.5509 15.5071 40.4839 15.5071H39.1938C38.8378 15.5071 38.5487 15.2192 38.5487 14.866C38.5487 14.5129 38.8378 14.2249 39.1938 14.2249H43.677C43.5615 15.4962 43.1027 16.669 42.3961 17.6562ZM42.9266 10.3778H41.7744C41.4184 10.3778 41.1293 10.0899 41.1293 9.73672C41.1293 9.38357 41.4184 9.09564 41.7744 9.09564H42.0833C42.4105 9.48856 42.6903 9.91999 42.9266 10.3778ZM40.942 8.00751C40.2918 8.31771 39.8388 8.97308 39.8388 9.73665C39.8388 10.7971 40.7074 11.6602 41.7744 11.6602H43.435C43.5531 12.0738 43.637 12.502 43.6776 12.9423H39.1938C38.1267 12.9423 37.2582 13.8055 37.2582 14.8659C37.2582 15.9263 38.1268 16.7894 39.1938 16.7894H40.4839C40.8399 16.7894 41.129 17.0774 41.129 17.4305C41.129 17.7837 40.8399 18.0716 40.4839 18.0716H36.6131C35.5461 18.0716 34.6776 18.9348 34.6776 19.9952C34.6776 20.1246 34.691 20.2503 34.7163 20.3728C32.7913 19.8405 31.1957 18.5244 30.3003 16.7894H34.0325C35.0995 16.7894 35.968 15.9263 35.968 14.8659C35.968 13.8055 35.0995 12.9423 34.0325 12.9423H32.7423C32.3863 12.9423 32.0972 12.6544 32.0972 12.3013C32.0972 11.9481 32.3863 11.6602 32.7423 11.6602H35.3229C36.39 11.6602 37.2585 10.797 37.2585 9.73662C37.2585 8.67617 36.3899 7.81307 35.3229 7.81307H32.5454C33.6988 7.00782 35.0995 6.53092 36.6131 6.53092C38.2433 6.53092 39.7429 7.08549 40.942 8.00751ZM31.1426 9.09557H35.3223C35.6783 9.09557 35.9674 9.38351 35.9674 9.73666C35.9674 10.0898 35.6783 10.3777 35.3223 10.3777H32.7417C31.6746 10.3777 30.8062 11.2409 30.8062 12.3013C30.8062 13.3617 31.6747 14.2248 32.7417 14.2248H34.0319C34.3878 14.2248 34.6769 14.5128 34.6769 14.8659C34.6769 15.2191 34.3878 15.507 34.0319 15.507H29.7906C29.6162 14.8946 29.516 14.2509 29.516 13.5835C29.516 11.8801 30.1271 10.3157 31.1426 9.09557ZM28.8728 16.7895H26.9353V23.201H30.8061V27.6892H37.2576V21.886C37.6981 21.8526 38.1287 21.7849 38.5477 21.6853L38.5483 29.6124H29.516C27.7094 29.6124 25.9166 30.0951 24.3547 30.9885V11.9965C25.6823 11.0784 27.2513 10.5225 28.8629 10.4045C28.4541 11.3847 28.2258 12.4575 28.2258 13.5831C28.2258 14.7186 28.4573 15.8016 28.8728 16.7891L28.8728 16.7895ZM11.4515 6.77879L12.7416 7.20639L14.0317 6.77879L14.0321 9.09525H11.4514L11.4515 6.77879ZM8.87082 10.3775H17.9032C19.7398 10.3775 21.5573 10.9546 23.0645 11.9963V30.9882C21.5025 30.0948 19.7097 29.6119 17.9032 29.6119H8.87082V10.3775ZM21.774 34.1007V33.4597H6.29003V11.6602H7.58018V29.6129C7.58018 30.3202 8.159 30.895 8.87033 30.895H17.9027C19.8441 30.895 21.7684 31.5323 23.322 32.6904L23.7091 32.979L24.0961 32.6904C25.6498 31.5323 27.5747 30.895 29.5155 30.895H38.5478C39.2595 30.895 39.838 30.3198 39.838 29.6129L39.8386 21.2759C40.291 21.0882 40.7206 20.8566 41.1288 20.5963L41.1291 33.4602H25.6452V34.1013C25.6452 35.1617 24.7766 36.0248 23.7096 36.0248C22.6425 36.0248 21.774 35.1616 21.774 34.1013L21.774 34.1007ZM6.29003 41.7947V39.2301C6.29003 38.1696 7.1586 37.3065 8.22559 37.3065H10.1611V43.718L8.22526 43.7183C7.15819 43.7183 6.29003 42.8551 6.29003 41.7947ZM43.4882 40.8669L42.4186 41.3982V39.6268L43.4875 40.1584C43.6245 40.2258 43.709 40.3617 43.709 40.5122C43.709 40.663 43.6245 40.7988 43.4882 40.8669Z" fill="url(#paint0_linear_6180_40124)"/>
<path d="M20.4836 12.9427H10.1612V16.7895H20.4836V12.9427ZM19.1931 15.5073H11.4515V14.2252H19.1934L19.1931 15.5073Z" fill="url(#paint1_linear_6180_40124)"/>
<path d="M10.1612 18.0723H20.4836V19.3544H10.1612V18.0723Z" fill="url(#paint2_linear_6180_40124)"/>
<path d="M20.4836 27.0478V21.9185H14.0321V20.6363H10.161V24.4831H11.4511V27.0477L20.4836 27.0478ZM19.1931 23.201V25.7657H12.7416V24.4835H14.0318V23.2014L19.1931 23.201ZM11.4515 21.9186H12.7416V23.2007H11.4515V21.9186Z" fill="url(#paint3_linear_6180_40124)"/>
<path d="M26.9352 24.483H29.5158V25.7652H26.9352V24.483Z" fill="url(#paint4_linear_6180_40124)"/>
<path d="M26.9352 26.4068H29.5158V27.689H26.9352V26.4068Z" fill="url(#paint5_linear_6180_40124)"/>
<defs>
<linearGradient id="paint0_linear_6180_40124" x1="0" y1="0" x2="0" y2="1" gradientUnits="objectBoundingBox">
<stop stop-color="#ED3040"/>
<stop offset="1" stop-color="#2D23F4"/>
</linearGradient>
<linearGradient id="paint1_linear_6180_40124" x1="0" y1="0" x2="0" y2="1" gradientUnits="objectBoundingBox">
<stop stop-color="#ED3040"/>
<stop offset="1" stop-color="#2D23F4"/>
</linearGradient>
<linearGradient id="paint2_linear_6180_40124" x1="0" y1="0" x2="0" y2="1" gradientUnits="objectBoundingBox">
<stop stop-color="#ED3040"/>
<stop offset="1" stop-color="#2D23F4"/>
</linearGradient>
<linearGradient id="paint3_linear_6180_40124" x1="0" y1="0" x2="0" y2="1" gradientUnits="objectBoundingBox">
<stop stop-color="#ED3040"/>
<stop offset="1" stop-color="#2D23F4"/>
</linearGradient>
<linearGradient id="paint4_linear_6180_40124" x1="0" y1="0" x2="0" y2="1" gradientUnits="objectBoundingBox">
<stop stop-color="#ED3040"/>
<stop offset="1" stop-color="#2D23F4"/>
</linearGradient>
<linearGradient id="paint5_linear_6180_40124" x1="0" y1="0" x2="0" y2="1" gradientUnits="objectBoundingBox">
<stop stop-color="#ED3040"/>
<stop offset="1" stop-color="#2D23F4"/>
</linearGradient>
</defs>
</svg>
