<svg width="50" height="50" viewBox="0 0 50 50" fill="none" xmlns="http://www.w3.org/2000/svg">
<path d="M45 21.3286V21.8755C44.8266 22.1301 44.7148 22.1934 44.4258 22.2778C43.2852 22.6098 41.8953 22.6309 40.7297 22.9411C40.1789 22.9231 39.8266 22.5161 40.0594 21.9731C40.2062 21.6301 40.8984 21.5942 41.2484 21.5223C41.8469 21.3989 44.1867 20.9169 44.6141 21.0512C44.7609 21.0973 44.8633 21.2598 45 21.3294V21.3286Z" fill="url(#paint0_linear_6180_40116)"/>
<path d="M45 28.6722C44.7172 28.9269 44.5695 29.0011 44.1781 28.9894C43.4711 28.9675 41.2953 28.5589 40.5938 28.3511C39.6336 28.0667 39.9219 27.0589 40.6617 27.0441C41.1828 27.0339 43.843 27.5527 44.4258 27.7222C44.7148 27.8066 44.8266 27.8699 45 28.1245V28.6722Z" fill="url(#paint1_linear_6180_40116)"/>
<path d="M5 21.8755V21.3286C5.13672 21.2591 5.23984 21.0966 5.38594 21.0505C5.81328 20.9169 8.15313 21.3981 8.75156 21.5216C9.10156 21.5934 9.79297 21.6301 9.94063 21.9723C10.1648 22.495 9.81953 22.9496 9.27031 22.9403C8.86953 22.9332 5.46328 22.2942 5.23516 22.1473C5.14297 22.0879 5.08984 21.9465 5 21.8755Z" fill="url(#paint2_linear_6180_40116)"/>
<path d="M5 28.5941V28.1253C5.17344 27.8706 5.28516 27.8074 5.57422 27.723C6.73672 27.3847 8.15078 27.366 9.33828 27.0449C10.1172 27.1769 10.3133 28.0706 9.47031 28.337C8.81172 28.5456 6.50156 28.9675 5.82188 28.9886C5.41172 29.0019 5.23203 28.9339 5 28.5933V28.5941Z" fill="url(#paint3_linear_6180_40116)"/>
<path d="M25.2344 5.00078C25.4227 5.15703 25.5781 5.24843 25.6203 5.51327C25.7273 6.19138 25.7109 8.7054 25.6266 9.41632C25.5297 10.2327 24.4695 10.2319 24.3727 9.41632C24.2273 8.19134 24.4828 6.68903 24.3766 5.43202C24.4078 5.21562 24.6336 5.14453 24.7648 5H25.2336L25.2344 5.00078Z" fill="url(#paint4_linear_6180_40116)"/>
<path d="M24.7656 45C24.532 44.8203 24.4102 44.7266 24.3734 44.4156C24.2836 43.6547 24.2711 41.2493 24.3711 40.504C24.4609 39.8282 25.5281 39.7501 25.6273 40.5845C25.7117 41.2962 25.7281 43.8094 25.6211 44.4875C25.5789 44.7523 25.4234 44.8438 25.2352 45H24.7656Z" fill="url(#paint5_linear_6180_40116)"/>
<path d="M33.4375 21.563H34.8047C35.1578 21.563 35.9469 22.3661 35.9305 22.7809C35.7336 25.7644 36.2156 29.1355 35.9406 32.0737C35.8766 32.7581 35.2773 33.4159 34.5734 33.4409H15.4266C14.7086 33.3987 14.1219 32.7791 14.0594 32.0737C13.8 29.1386 14.2602 25.8269 14.0625 22.852C14.0891 22.3747 14.4039 22.0997 14.7266 21.7989C14.8117 22.0161 15.4305 22.652 15.4562 22.7856C15.4672 22.8426 15.3219 23.1223 15.3078 23.3168C15.1148 26.0754 15.4633 29.0573 15.3078 31.8401C15.3078 32.0612 15.4414 32.1924 15.6594 32.1917L34.5305 32.1495L34.6898 31.8401L34.6844 23.0887C34.5961 22.6168 33.7812 22.8754 33.4367 22.8129V29.7269C33.4367 29.773 32.9836 30.1894 32.8461 30.155C30.8781 29.5855 28.8266 29.798 26.9547 30.5886C26.5461 30.7612 25.275 31.5581 25.0367 31.5682C24.7141 31.5823 23.4937 30.7792 23.0438 30.5886C21.2227 29.8167 19.1414 29.5706 17.2266 30.1456C17.0648 30.1964 16.5617 29.8089 16.5617 29.7261V24.0621C16.9656 24.3113 17.3375 24.6481 17.8117 24.7652V28.6714C20.0813 28.2581 22.3414 28.7425 24.3742 29.7651V21.3278L22.6969 20.4661C22.5117 19.9372 22.4156 19.3864 22.1086 18.9068C23.1625 19.1646 24.0672 19.7474 25.0258 20.2161C27.0258 18.9654 29.2992 18.2849 31.6828 18.4341C32.0625 18.4575 33.2117 18.5622 33.3797 18.9247C33.6094 19.4177 33.3273 20.9458 33.4375 21.5622V21.563ZM32.1875 19.7661C29.9125 19.5161 27.468 20.088 25.625 21.4458V29.7659C27.6672 28.7284 29.9031 28.2589 32.1875 28.6722V19.7661Z" fill="url(#paint6_linear_6180_40116)"/>
<path d="M16.0711 14.392C16.8469 14.16 16.9406 14.9678 17.2789 15.417C18.0961 16.5021 19.4469 16.1599 20.1969 17.5771C20.4602 18.0755 20.3828 18.3904 20.5406 18.7958C20.6148 18.9872 20.8969 19.2489 21.0289 19.4794C21.725 20.695 21.5859 22.0715 21.0281 23.309C21.4484 23.6879 22.8523 25.1379 21.8555 25.566C21.1 25.8902 21.0156 25.1824 20.6656 24.7637C19.6875 23.591 18.182 24.159 17.1109 22.8497C16.9539 22.6575 16.8602 22.3848 16.7195 22.2254C16.1727 21.6036 15.7047 21.5637 15.6219 20.5114C15.5867 20.0653 15.7984 19.5239 15.7812 19.3427C15.7563 19.0833 15.3742 18.4974 15.3219 17.999C15.2555 17.3685 15.3516 14.6068 16.0711 14.392ZM16.6414 16.6412C16.4953 17.2365 16.5563 17.9787 16.818 18.5341C16.9008 18.7107 17.1016 18.881 17.1453 18.988C17.3992 19.6091 16.4445 20.2349 17.1953 20.97C17.743 21.5059 17.6172 21.2708 18.0586 21.9817C18.407 22.5434 19.2383 22.6575 19.8445 22.702C20.2852 21.9169 20.3789 20.8536 19.8945 20.0677C19.7398 19.8169 19.3391 19.5263 19.2617 19.2943C19.1805 19.0489 19.2445 18.8208 19.2008 18.574C18.9859 17.3529 17.3625 17.4966 16.6422 16.642L16.6414 16.6412Z" fill="url(#paint7_linear_6180_40116)"/>
<path d="M38.5719 32.2026C38.7672 32.1596 38.8625 32.1924 39.0406 32.2487C39.4766 32.3862 41.925 33.7947 42.3383 34.1065C42.9875 34.5963 42.6219 35.4924 41.7938 35.2752C41.4664 35.1893 38.7859 33.6557 38.4414 33.394C37.9883 33.0494 37.9797 32.3338 38.5719 32.2026Z" fill="url(#paint8_linear_6180_40116)"/>
<path d="M7.79063 14.7029C7.98594 14.66 8.08125 14.6928 8.25938 14.749C8.68516 14.8834 11.1562 16.3013 11.5578 16.606C12.2141 17.1045 11.8305 17.9982 11.0133 17.7763C10.0305 17.1185 8.575 16.5888 7.66016 15.8943C7.20703 15.5498 7.19844 14.8342 7.79063 14.7029Z" fill="url(#paint9_linear_6180_40116)"/>
<path d="M11.0734 32.2042C11.8336 32.0518 12.182 32.8831 11.6023 33.3604L8.20547 35.276C7.43906 35.5033 7.00156 34.6463 7.61641 34.1401L11.0734 32.2042Z" fill="url(#paint10_linear_6180_40116)"/>
<path d="M41.8547 14.7045C42.6039 14.5545 42.95 15.3935 42.3836 15.8607L38.9867 17.7763C38.2203 18.0037 37.7828 17.1466 38.3977 16.6404L41.8547 14.7045Z" fill="url(#paint11_linear_6180_40116)"/>
<path d="M35.057 36.3416C35.4734 36.2556 35.7578 36.6408 36.0172 36.9119C36.7711 37.6994 37.4469 38.6915 38.1914 39.5024C38.543 40.1009 37.882 40.7305 37.3 40.3946L34.732 37.4165C34.382 37.0697 34.5961 36.4369 35.057 36.3416Z" fill="url(#paint12_linear_6180_40116)"/>
<path d="M14.6664 36.3416C15.2336 36.2236 15.6891 36.9134 15.2992 37.3697L12.7 40.3938C12.1141 40.7329 11.4563 40.0938 11.8086 39.5017C12.3422 39.0087 14.1359 36.4509 14.6672 36.3408L14.6664 36.3416Z" fill="url(#paint13_linear_6180_40116)"/>
<path d="M37.3992 9.54757C37.9898 9.36866 38.4391 9.89287 38.2227 10.4491L35.6273 13.4787C35.0039 14.0233 34.2891 13.3295 34.7 12.6288C35.0445 12.0405 36.3922 10.5429 36.9141 9.99912C37.0164 9.89209 37.2914 9.58038 37.4 9.54757H37.3992Z" fill="url(#paint14_linear_6180_40116)"/>
<path d="M12.1648 9.54913C12.2797 9.52335 12.4203 9.51085 12.5359 9.53272C12.9617 9.61319 14.7891 12.1545 15.2695 12.5827C15.6602 13.0623 15.2922 13.799 14.6656 13.6569C14.1109 13.5319 12.3555 10.9991 11.8078 10.4975C11.6031 10.1671 11.7727 9.63741 12.1648 9.54835V9.54913Z" fill="url(#paint15_linear_6180_40116)"/>
<path d="M19.0875 39.2431C19.4859 38.7986 20.2922 39.1275 20.2211 39.7837L18.8453 43.4938C18.4266 44.1883 17.4195 43.7344 17.6758 42.9485L19.0875 39.2439V39.2431Z" fill="url(#paint16_linear_6180_40116)"/>
<path d="M30.9125 39.2431L32.3242 42.9477C32.5805 43.7336 31.5734 44.1875 31.1547 43.493L29.7789 39.7829C29.7469 39.1142 30.4078 38.8275 30.9125 39.2423V39.2431Z" fill="url(#paint17_linear_6180_40116)"/>
<path d="M31.5414 6.18826C32.1945 6.04607 32.4312 6.53747 32.3094 7.11558C32.2094 7.58901 31.243 10.1905 31.0047 10.5757C30.5883 11.2483 29.7586 10.9741 29.7797 10.2179C30.275 9.11867 30.5609 7.7312 31.0797 6.66637C31.1844 6.45153 31.2805 6.24529 31.5414 6.18826Z" fill="url(#paint18_linear_6180_40116)"/>
<path d="M18.1031 6.18748C18.6258 6.07185 18.7844 6.37263 18.9656 6.77731C19.4477 7.85463 19.7531 9.12101 20.2203 10.2171C20.2359 10.9858 19.407 11.2389 18.9953 10.5749C18.7125 10.1179 17.8805 7.81166 17.7305 7.23043C17.6195 6.80309 17.5609 6.30701 18.1031 6.18748Z" fill="url(#paint19_linear_6180_40116)"/>
<path d="M40.918 18.6115C41.7766 18.4865 42.0461 19.4607 41.3047 19.8599C41.1867 19.9231 40.1305 20.302 40.0312 20.3122C39.4406 20.3708 39.0359 19.6716 39.4164 19.2216C39.5531 19.0599 40.6797 18.6458 40.918 18.6115Z" fill="url(#paint20_linear_6180_40116)"/>
<path d="M8.72891 18.6091C9.02969 18.5443 10.3148 18.9724 10.543 19.1841C10.9828 19.5919 10.5953 20.3755 9.96875 20.313C9.84375 20.3005 8.71875 19.881 8.59766 19.8013C8.11016 19.4802 8.18438 18.7271 8.72891 18.6091Z" fill="url(#paint21_linear_6180_40116)"/>
<path d="M8.46172 30.2597C8.58359 30.1503 9.95859 29.6745 10.1094 29.6886C10.5914 29.7347 10.8766 30.2394 10.6289 30.669C10.4586 30.9651 9.20156 31.426 8.86875 31.412C8.28281 31.3878 8.07344 30.6097 8.46172 30.2597Z" fill="url(#paint22_linear_6180_40116)"/>
<path d="M39.825 29.7026C40.0484 29.6605 41.2344 30.0784 41.4461 30.2347C42.0141 30.6542 41.6953 31.4729 40.9859 31.4034C40.7273 31.3776 39.775 31.0229 39.5711 30.8596C39.093 30.4761 39.2313 29.8159 39.825 29.7034V29.7026Z" fill="url(#paint23_linear_6180_40116)"/>
<path d="M37.9469 13.5311C38.5125 13.4037 38.943 13.9412 38.7094 14.4522C38.6531 14.574 37.5969 15.4521 37.443 15.5295C36.8562 15.8209 36.2734 15.2037 36.6086 14.6162C36.7086 14.442 37.7656 13.5717 37.9469 13.5311Z" fill="url(#paint24_linear_6180_40116)"/>
<path d="M21.9352 7.75073C22.1984 7.71245 22.4281 7.77963 22.5688 8.01791C22.6758 8.19759 22.8656 9.18351 22.8828 9.42569C22.9539 10.4069 21.8961 10.5093 21.6156 9.75225C21.4148 9.21164 21.1344 7.86635 21.9352 7.75073Z" fill="url(#paint25_linear_6180_40116)"/>
<path d="M27.7922 7.74838C28.1102 7.6851 28.5008 7.84604 28.5766 8.18119C28.6445 8.4804 28.4797 9.58272 28.3422 9.86631C28.0508 10.4671 27.1055 10.3382 27.1031 9.57179C27.1031 9.35148 27.2984 8.32415 27.3828 8.12572C27.4586 7.94838 27.5938 7.78823 27.7922 7.74838Z" fill="url(#paint26_linear_6180_40116)"/>
<path d="M37.0891 34.3916C37.4336 34.3588 38.6617 35.3518 38.7352 35.6814C38.8633 36.2564 38.3711 36.6447 37.8328 36.4244C37.6977 36.3689 36.7273 35.5588 36.6414 35.4299C36.3734 35.0268 36.6031 34.4377 37.0898 34.3908L37.0891 34.3916Z" fill="url(#paint27_linear_6180_40116)"/>
<path d="M11.6977 13.5319C11.7953 13.5108 11.8859 13.5053 11.9852 13.5178C12.1734 13.542 13.2367 14.3858 13.3594 14.5701C13.7055 15.0928 13.2555 15.7529 12.6797 15.5678C12.4891 15.5068 11.4187 14.6623 11.3242 14.4967C11.1258 14.1522 11.2859 13.6209 11.6977 13.5311V13.5319Z" fill="url(#paint28_linear_6180_40116)"/>
<path d="M27.5555 39.7829C28.0656 39.6673 28.2836 39.9282 28.4141 40.3751C28.5758 40.9298 28.8617 42.1219 28.0656 42.2524C27.5461 42.3376 27.4039 41.9688 27.3016 41.5657C27.1766 41.0727 26.8758 39.9376 27.5555 39.7829Z" fill="url(#paint29_linear_6180_40116)"/>
<path d="M12.7922 34.3916C13.3117 34.3408 13.6406 34.9479 13.3922 35.3838C13.318 35.5135 12.3031 36.3666 12.168 36.4252C11.5555 36.6923 11.0305 36.1135 11.3383 35.5174C11.4516 35.2978 12.5617 34.4135 12.7922 34.3916Z" fill="url(#paint30_linear_6180_40116)"/>
<path d="M22.0086 39.7821C22.4922 39.6384 22.8781 39.9392 22.8937 40.4329C22.8992 40.6157 22.6758 41.7883 22.5969 41.9329C22.3938 42.3055 21.8039 42.3602 21.5266 42.029C21.2492 41.6977 21.518 39.9282 22.0086 39.7821Z" fill="url(#paint31_linear_6180_40116)"/>
<path d="M33.3367 9.78272C33.8211 9.63663 34.275 9.97412 34.2047 10.4882C34.1656 10.7772 33.4109 11.9866 33.1281 12.0764C32.6953 12.2131 32.2195 11.8249 32.2789 11.3889C32.3133 11.135 33.0969 9.85537 33.3359 9.78272H33.3367Z" fill="url(#paint32_linear_6180_40116)"/>
<path d="M16.2273 9.7835C16.4609 9.73038 16.6109 9.73663 16.8016 9.87881C17.0062 10.0304 17.7219 11.2178 17.7305 11.4546C17.75 11.971 17.0898 12.3186 16.6367 11.9186C16.2391 11.5671 15.2859 9.99756 16.2273 9.7835Z" fill="url(#paint33_linear_6180_40116)"/>
<path d="M16.932 37.904C17.3375 37.8205 17.7758 38.2087 17.7195 38.615C17.6953 38.7868 17.0609 39.8626 16.9164 40.0024C16.5109 40.3938 15.8648 40.2931 15.7953 39.7056C15.7516 39.3376 16.5461 37.9837 16.932 37.904Z" fill="url(#paint34_linear_6180_40116)"/>
<path d="M32.7914 37.904C33.3469 37.7892 33.9445 38.8275 34.1187 39.2782C34.4062 40.022 33.7094 40.5602 33.1211 40.0423C32.9258 39.8704 32.2516 38.7118 32.2656 38.4822C32.2797 38.2525 32.5727 37.9494 32.7914 37.904Z" fill="url(#paint35_linear_6180_40116)"/>
<path d="M7.36719 24.5543C7.59297 24.2863 9.25938 24.3012 9.52969 24.4949C9.93359 24.7848 9.81172 25.4996 9.31953 25.609C9.10781 25.6558 7.82187 25.6637 7.63359 25.609C7.24609 25.4965 7.09766 24.8738 7.36719 24.5535V24.5543Z" fill="url(#paint36_linear_6180_40116)"/>
<path d="M42.6328 24.5543C42.9023 24.8746 42.7539 25.4973 42.3664 25.6098C42.1781 25.6644 40.8922 25.6566 40.6805 25.6098C40.1883 25.4996 40.0664 24.7855 40.4703 24.4957C40.7398 24.302 42.407 24.2879 42.6328 24.5551V24.5543Z" fill="url(#paint37_linear_6180_40116)"/>
<defs>
<linearGradient id="paint0_linear_6180_40116" x1="0" y1="0" x2="0" y2="1" gradientUnits="objectBoundingBox">
<stop stop-color="#ED3040"/>
<stop offset="1" stop-color="#2D23F4"/>
</linearGradient>
<linearGradient id="paint1_linear_6180_40116" x1="0" y1="0" x2="0" y2="1" gradientUnits="objectBoundingBox">
<stop stop-color="#ED3040"/>
<stop offset="1" stop-color="#2D23F4"/>
</linearGradient>
<linearGradient id="paint2_linear_6180_40116" x1="0" y1="0" x2="0" y2="1" gradientUnits="objectBoundingBox">
<stop stop-color="#ED3040"/>
<stop offset="1" stop-color="#2D23F4"/>
</linearGradient>
<linearGradient id="paint3_linear_6180_40116" x1="0" y1="0" x2="0" y2="1" gradientUnits="objectBoundingBox">
<stop stop-color="#ED3040"/>
<stop offset="1" stop-color="#2D23F4"/>
</linearGradient>
<linearGradient id="paint4_linear_6180_40116" x1="0" y1="0" x2="0" y2="1" gradientUnits="objectBoundingBox">
<stop stop-color="#ED3040"/>
<stop offset="1" stop-color="#2D23F4"/>
</linearGradient>
<linearGradient id="paint5_linear_6180_40116" x1="0" y1="0" x2="0" y2="1" gradientUnits="objectBoundingBox">
<stop stop-color="#ED3040"/>
<stop offset="1" stop-color="#2D23F4"/>
</linearGradient>
<linearGradient id="paint6_linear_6180_40116" x1="0" y1="0" x2="0" y2="1" gradientUnits="objectBoundingBox">
<stop stop-color="#ED3040"/>
<stop offset="1" stop-color="#2D23F4"/>
</linearGradient>
<linearGradient id="paint7_linear_6180_40116" x1="0" y1="0" x2="0" y2="1" gradientUnits="objectBoundingBox">
<stop stop-color="#ED3040"/>
<stop offset="1" stop-color="#2D23F4"/>
</linearGradient>
<linearGradient id="paint8_linear_6180_40116" x1="0" y1="0" x2="0" y2="1" gradientUnits="objectBoundingBox">
<stop stop-color="#ED3040"/>
<stop offset="1" stop-color="#2D23F4"/>
</linearGradient>
<linearGradient id="paint9_linear_6180_40116" x1="0" y1="0" x2="0" y2="1" gradientUnits="objectBoundingBox">
<stop stop-color="#ED3040"/>
<stop offset="1" stop-color="#2D23F4"/>
</linearGradient>
<linearGradient id="paint10_linear_6180_40116" x1="0" y1="0" x2="0" y2="1" gradientUnits="objectBoundingBox">
<stop stop-color="#ED3040"/>
<stop offset="1" stop-color="#2D23F4"/>
</linearGradient>
<linearGradient id="paint11_linear_6180_40116" x1="0" y1="0" x2="0" y2="1" gradientUnits="objectBoundingBox">
<stop stop-color="#ED3040"/>
<stop offset="1" stop-color="#2D23F4"/>
</linearGradient>
<linearGradient id="paint12_linear_6180_40116" x1="0" y1="0" x2="0" y2="1" gradientUnits="objectBoundingBox">
<stop stop-color="#ED3040"/>
<stop offset="1" stop-color="#2D23F4"/>
</linearGradient>
<linearGradient id="paint13_linear_6180_40116" x1="0" y1="0" x2="0" y2="1" gradientUnits="objectBoundingBox">
<stop stop-color="#ED3040"/>
<stop offset="1" stop-color="#2D23F4"/>
</linearGradient>
<linearGradient id="paint14_linear_6180_40116" x1="0" y1="0" x2="0" y2="1" gradientUnits="objectBoundingBox">
<stop stop-color="#ED3040"/>
<stop offset="1" stop-color="#2D23F4"/>
</linearGradient>
<linearGradient id="paint15_linear_6180_40116" x1="0" y1="0" x2="0" y2="1" gradientUnits="objectBoundingBox">
<stop stop-color="#ED3040"/>
<stop offset="1" stop-color="#2D23F4"/>
</linearGradient>
<linearGradient id="paint16_linear_6180_40116" x1="0" y1="0" x2="0" y2="1" gradientUnits="objectBoundingBox">
<stop stop-color="#ED3040"/>
<stop offset="1" stop-color="#2D23F4"/>
</linearGradient>
<linearGradient id="paint17_linear_6180_40116" x1="0" y1="0" x2="0" y2="1" gradientUnits="objectBoundingBox">
<stop stop-color="#ED3040"/>
<stop offset="1" stop-color="#2D23F4"/>
</linearGradient>
<linearGradient id="paint18_linear_6180_40116" x1="0" y1="0" x2="0" y2="1" gradientUnits="objectBoundingBox">
<stop stop-color="#ED3040"/>
<stop offset="1" stop-color="#2D23F4"/>
</linearGradient>
<linearGradient id="paint19_linear_6180_40116" x1="0" y1="0" x2="0" y2="1" gradientUnits="objectBoundingBox">
<stop stop-color="#ED3040"/>
<stop offset="1" stop-color="#2D23F4"/>
</linearGradient>
<linearGradient id="paint20_linear_6180_40116" x1="0" y1="0" x2="0" y2="1" gradientUnits="objectBoundingBox">
<stop stop-color="#ED3040"/>
<stop offset="1" stop-color="#2D23F4"/>
</linearGradient>
<linearGradient id="paint21_linear_6180_40116" x1="0" y1="0" x2="0" y2="1" gradientUnits="objectBoundingBox">
<stop stop-color="#ED3040"/>
<stop offset="1" stop-color="#2D23F4"/>
</linearGradient>
<linearGradient id="paint22_linear_6180_40116" x1="0" y1="0" x2="0" y2="1" gradientUnits="objectBoundingBox">
<stop stop-color="#ED3040"/>
<stop offset="1" stop-color="#2D23F4"/>
</linearGradient>
<linearGradient id="paint23_linear_6180_40116" x1="0" y1="0" x2="0" y2="1" gradientUnits="objectBoundingBox">
<stop stop-color="#ED3040"/>
<stop offset="1" stop-color="#2D23F4"/>
</linearGradient>
<linearGradient id="paint24_linear_6180_40116" x1="0" y1="0" x2="0" y2="1" gradientUnits="objectBoundingBox">
<stop stop-color="#ED3040"/>
<stop offset="1" stop-color="#2D23F4"/>
</linearGradient>
<linearGradient id="paint25_linear_6180_40116" x1="0" y1="0" x2="0" y2="1" gradientUnits="objectBoundingBox">
<stop stop-color="#ED3040"/>
<stop offset="1" stop-color="#2D23F4"/>
</linearGradient>
<linearGradient id="paint26_linear_6180_40116" x1="0" y1="0" x2="0" y2="1" gradientUnits="objectBoundingBox">
<stop stop-color="#ED3040"/>
<stop offset="1" stop-color="#2D23F4"/>
</linearGradient>
<linearGradient id="paint27_linear_6180_40116" x1="0" y1="0" x2="0" y2="1" gradientUnits="objectBoundingBox">
<stop stop-color="#ED3040"/>
<stop offset="1" stop-color="#2D23F4"/>
</linearGradient>
<linearGradient id="paint28_linear_6180_40116" x1="0" y1="0" x2="0" y2="1" gradientUnits="objectBoundingBox">
<stop stop-color="#ED3040"/>
<stop offset="1" stop-color="#2D23F4"/>
</linearGradient>
<linearGradient id="paint29_linear_6180_40116" x1="0" y1="0" x2="0" y2="1" gradientUnits="objectBoundingBox">
<stop stop-color="#ED3040"/>
<stop offset="1" stop-color="#2D23F4"/>
</linearGradient>
<linearGradient id="paint30_linear_6180_40116" x1="0" y1="0" x2="0" y2="1" gradientUnits="objectBoundingBox">
<stop stop-color="#ED3040"/>
<stop offset="1" stop-color="#2D23F4"/>
</linearGradient>
<linearGradient id="paint31_linear_6180_40116" x1="0" y1="0" x2="0" y2="1" gradientUnits="objectBoundingBox">
<stop stop-color="#ED3040"/>
<stop offset="1" stop-color="#2D23F4"/>
</linearGradient>
<linearGradient id="paint32_linear_6180_40116" x1="0" y1="0" x2="0" y2="1" gradientUnits="objectBoundingBox">
<stop stop-color="#ED3040"/>
<stop offset="1" stop-color="#2D23F4"/>
</linearGradient>
<linearGradient id="paint33_linear_6180_40116" x1="0" y1="0" x2="0" y2="1" gradientUnits="objectBoundingBox">
<stop stop-color="#ED3040"/>
<stop offset="1" stop-color="#2D23F4"/>
</linearGradient>
<linearGradient id="paint34_linear_6180_40116" x1="0" y1="0" x2="0" y2="1" gradientUnits="objectBoundingBox">
<stop stop-color="#ED3040"/>
<stop offset="1" stop-color="#2D23F4"/>
</linearGradient>
<linearGradient id="paint35_linear_6180_40116" x1="0" y1="0" x2="0" y2="1" gradientUnits="objectBoundingBox">
<stop stop-color="#ED3040"/>
<stop offset="1" stop-color="#2D23F4"/>
</linearGradient>
<linearGradient id="paint36_linear_6180_40116" x1="0" y1="0" x2="0" y2="1" gradientUnits="objectBoundingBox">
<stop stop-color="#ED3040"/>
<stop offset="1" stop-color="#2D23F4"/>
</linearGradient>
<linearGradient id="paint37_linear_6180_40116" x1="0" y1="0" x2="0" y2="1" gradientUnits="objectBoundingBox">
<stop stop-color="#ED3040"/>
<stop offset="1" stop-color="#2D23F4"/>
</linearGradient>
</defs>
</svg>
