<svg width="50" height="50" viewBox="0 0 50 50" fill="none" xmlns="http://www.w3.org/2000/svg">
<path d="M25.0001 14.7007C24.5912 14.7007 24.2063 14.8619 23.917 15.1546C23.628 15.4475 23.4686 15.8363 23.4686 16.2503C23.4686 16.6643 23.628 17.0533 23.9173 17.3457C24.2066 17.6386 24.5912 17.7998 25.0004 17.7998C25.4094 17.8001 25.7943 17.6386 26.0832 17.346C26.3728 17.0536 26.5322 16.6643 26.5322 16.2503C26.5322 15.8366 26.3728 15.4475 26.0835 15.1549C25.7939 14.8619 25.4094 14.7007 25.0001 14.7007ZM25.4153 16.6703C25.3044 16.7825 25.1569 16.8444 25.0001 16.8444C24.8433 16.8444 24.6958 16.7828 24.5849 16.6703C24.474 16.5581 24.4131 16.4093 24.4131 16.2503C24.4131 16.0916 24.474 15.9422 24.5849 15.8303C24.6958 15.7181 24.8436 15.6561 25.0001 15.6561C25.1569 15.6561 25.3044 15.7178 25.4153 15.8303C25.5262 15.9425 25.5874 16.0916 25.5874 16.2503C25.5877 16.4089 25.5265 16.5578 25.4153 16.6703Z" fill="url(#paint0_linear_6180_40142)"/>
<path d="M25.0001 18.6805C24.5912 18.6805 24.2063 18.8417 23.917 19.1343C23.628 19.4273 23.4686 19.816 23.4686 20.23C23.4686 20.6441 23.628 21.0331 23.9173 21.3254C24.2066 21.6184 24.5912 21.7796 25.0004 21.7796C25.4094 21.7799 25.7943 21.6184 26.0832 21.3257C26.3728 21.0334 26.5322 20.644 26.5322 20.23C26.5322 19.8163 26.3728 19.4273 26.0835 19.1346C25.7939 18.8417 25.4094 18.6805 25.0001 18.6805ZM25.4153 20.6501C25.3044 20.7623 25.1569 20.8242 25.0001 20.8242C24.8433 20.8242 24.6958 20.7626 24.5849 20.6501C24.474 20.5379 24.4131 20.389 24.4131 20.2301C24.4131 20.0714 24.474 19.9219 24.5849 19.81C24.6958 19.6978 24.8436 19.6359 25.0001 19.6359C25.1569 19.6359 25.3044 19.6975 25.4153 19.81C25.5262 19.9222 25.5874 20.0714 25.5874 20.2301C25.5877 20.3887 25.5265 20.5379 25.4153 20.6501Z" fill="url(#paint1_linear_6180_40142)"/>
<path d="M25.0001 22.6611C24.5912 22.6611 24.2063 22.8223 23.917 23.1149C23.628 23.4079 23.4686 23.7966 23.4686 24.2106C23.4686 24.6246 23.628 25.0137 23.9173 25.306C24.2066 25.599 24.5912 25.7602 25.0004 25.7602C25.4094 25.7605 25.7943 25.599 26.0832 25.3063C26.3728 25.014 26.5322 24.6246 26.5322 24.2106C26.5322 23.7969 26.3728 23.4079 26.0835 23.1152C25.7939 22.8223 25.4094 22.6611 25.0001 22.6611ZM25.4153 24.631C25.3044 24.7432 25.1569 24.8051 25.0001 24.8051C24.8433 24.8051 24.6958 24.7435 24.5849 24.631C24.474 24.5188 24.4131 24.3699 24.4131 24.211C24.4131 24.0523 24.474 23.9028 24.5849 23.7909C24.6958 23.6787 24.8436 23.6168 25.0001 23.6168C25.1569 23.6168 25.3044 23.6784 25.4153 23.7909C25.5262 23.9031 25.5874 24.0523 25.5874 24.211C25.5877 24.3696 25.5265 24.5185 25.4153 24.631Z" fill="url(#paint2_linear_6180_40142)"/>
<path d="M38.0277 42.7711H34.5783V27.1036C34.5783 26.8397 34.3668 26.6261 34.1062 26.6261H31.6157L28.5659 13.6067C28.6115 13.5271 28.6343 13.4351 28.6296 13.3415C28.5349 11.5525 27.1856 10.1199 25.4721 9.89455V8.35232L28.8821 7.23193C29.0752 7.16841 29.2067 6.98701 29.2083 6.78158C29.2101 6.57615 29.0817 6.39253 28.8896 6.32585L25.1534 5.02601C25.0091 4.97576 24.8498 4.99915 24.7254 5.08891C24.6011 5.17866 24.5274 5.3234 24.5274 5.47764V9.89456C22.8138 10.1196 21.4645 11.5522 21.3701 13.3413C21.3651 13.4349 21.3879 13.5265 21.4335 13.6062L18.384 26.6263H15.8935C15.6326 26.6263 15.4214 26.8403 15.4214 27.1039V42.7713H11.9721C11.7112 42.7713 11.5 42.9853 11.5 43.2489V44.5225C11.5 44.7864 11.7115 45 11.9721 45H38.028C38.2888 45 38.5 44.786 38.5 44.5225V43.2489C38.5003 42.9853 38.2888 42.7713 38.028 42.7713L38.0277 42.7711ZM25.472 7.348V6.14735L27.2471 6.76489L25.472 7.348ZM24.9999 10.8185C26.2589 10.8185 27.3242 11.6948 27.6133 12.8895H22.3866C22.6752 11.6948 23.7406 10.8185 24.9999 10.8185ZM22.3485 13.8445H27.6511L30.6453 26.626L19.3549 26.6263L22.3485 13.8445ZM16.3658 27.5815H33.6337V42.7716H28.5608L28.5611 33.9399C28.5611 31.9533 26.9634 30.3374 24.9999 30.3374C23.0365 30.3374 21.4387 31.9537 21.4387 33.9399V42.7716H16.3658L16.3658 27.5815ZM27.617 42.7716H22.3835V33.9399C22.3835 32.4801 23.5572 31.2928 25.0002 31.2928C26.4433 31.2928 27.617 32.4805 27.617 33.9399V42.7716ZM37.5558 44.0456H12.4445V43.727H37.5558V44.0456Z" fill="url(#paint3_linear_6180_40142)"/>
<defs>
<linearGradient id="paint0_linear_6180_40142" x1="33.5471" y1="33.6397" x2="33.5471" y2="41.6506" gradientUnits="userSpaceOnUse">
<stop stop-color="#ED3040"/>
<stop offset="1" stop-color="#2D23F4"/>
</linearGradient>
<linearGradient id="paint1_linear_6180_40142" x1="33.5471" y1="33.6397" x2="33.5471" y2="41.6506" gradientUnits="userSpaceOnUse">
<stop stop-color="#ED3040"/>
<stop offset="1" stop-color="#2D23F4"/>
</linearGradient>
<linearGradient id="paint2_linear_6180_40142" x1="33.5471" y1="33.6397" x2="33.5471" y2="41.6506" gradientUnits="userSpaceOnUse">
<stop stop-color="#ED3040"/>
<stop offset="1" stop-color="#2D23F4"/>
</linearGradient>
<linearGradient id="paint3_linear_6180_40142" x1="33.5471" y1="33.6397" x2="33.5471" y2="41.6506" gradientUnits="userSpaceOnUse">
<stop stop-color="#ED3040"/>
<stop offset="1" stop-color="#2D23F4"/>
</linearGradient>
</defs>
</svg>
