<svg width="50" height="50" viewBox="0 0 50 50" fill="none" xmlns="http://www.w3.org/2000/svg">
<path d="M37.9545 18.849H27.9505C27.5271 18.849 27.184 18.5047 27.184 18.0798C27.184 17.6549 27.5271 17.3106 27.9505 17.3106H37.9545C38.3779 17.3106 38.721 17.6549 38.721 18.0798C38.721 18.5047 38.3779 18.849 37.9545 18.849Z" fill="url(#paint0_linear_6180_40122)"/>
<path d="M22.049 18.849H12.0455C11.6221 18.849 11.279 18.5047 11.279 18.0798C11.279 17.6549 11.6221 17.3106 12.0455 17.3106H22.049C22.4724 17.3106 22.8155 17.6549 22.8155 18.0798C22.8155 18.5047 22.4724 18.849 22.049 18.849Z" fill="url(#paint1_linear_6180_40122)"/>
<path d="M25 38.0207C24.5766 38.0207 24.2335 37.6763 24.2335 37.2514V21.0413C24.2335 20.6165 24.5766 20.2721 25 20.2721C25.4234 20.2721 25.7665 20.6165 25.7665 21.0413V37.2514C25.7665 37.6763 25.4234 38.0207 25 38.0207Z" fill="url(#paint2_linear_6180_40122)"/>
<path d="M25 15.8875C24.5766 15.8875 24.2335 15.5431 24.2335 15.1183V13.025C24.2335 12.6001 24.5766 12.2558 25 12.2558C25.4234 12.2558 25.7665 12.6001 25.7665 13.025V15.1183C25.7665 15.5431 25.4234 15.8875 25 15.8875Z" fill="url(#paint3_linear_6180_40122)"/>
<path d="M25 21.8106C22.9469 21.8106 21.2826 20.1403 21.2826 18.0798C21.2826 16.0194 22.9469 14.349 25 14.349C27.0531 14.349 28.7174 16.0194 28.7174 18.0798C28.715 20.1393 27.0521 21.8082 25 21.8106ZM25 15.8875C23.7935 15.8875 22.8155 16.869 22.8155 18.0798C22.8155 19.2906 23.7935 20.2721 25 20.2721C26.2065 20.2721 27.1845 19.2906 27.1845 18.0798C27.1832 16.8696 26.2059 15.8888 25 15.8875Z" fill="url(#paint4_linear_6180_40122)"/>
<path d="M16.6353 32.5822H7.45619C7.03282 32.5822 6.6897 32.2377 6.68982 31.8129C6.68982 31.7299 6.70324 31.6475 6.72947 31.5688L11.3188 17.8365C11.4534 17.4338 11.8878 17.2167 12.2892 17.3518C12.517 17.4285 12.6959 17.6079 12.7722 17.8365L17.362 31.5702C17.4964 31.9731 17.28 32.409 16.8785 32.5439C16.8001 32.5702 16.7179 32.5837 16.6353 32.5837V32.5822ZM8.52064 31.0438H15.5699L12.0455 20.499L8.52064 31.0438Z" fill="url(#paint5_linear_6180_40122)"/>
<path d="M12.0455 37.2788C9.08903 37.2751 6.6933 34.8704 6.69018 31.9034V31.801C6.6927 31.3761 7.03785 31.0338 7.46122 31.0363C7.88458 31.0388 8.22566 31.3852 8.22315 31.8101V31.9034C8.22303 34.0222 9.93444 35.74 12.0456 35.7403C14.1569 35.7404 15.8686 34.0228 15.8688 31.9041V31.8136C15.867 31.3887 16.2086 31.0428 16.6319 31.041C17.0553 31.0392 17.4 31.382 17.4018 31.8069V31.903C17.3987 34.8706 15.0024 37.2755 12.0455 37.279V37.2788Z" fill="url(#paint6_linear_6180_40122)"/>
<path d="M8.32902 29.9702C7.90566 29.9702 7.56254 29.6258 7.56254 29.201C7.56254 28.7761 7.90566 28.4317 8.32902 28.4317C8.75238 28.4317 9.0955 28.7761 9.0955 29.201C9.0955 29.6258 8.75238 29.9702 8.32902 29.9702Z" fill="url(#paint7_linear_6180_40122)"/>
<path d="M42.5438 32.5822H33.3647C32.9414 32.5822 32.5982 32.2377 32.5984 31.8129C32.5984 31.7299 32.6118 31.6475 32.638 31.5688L37.2273 17.8365C37.3619 17.4338 37.7963 17.2167 38.1977 17.3518C38.4255 17.4285 38.6045 17.6079 38.6807 17.8365L43.2705 31.5702C43.4049 31.9731 43.1885 32.409 42.7871 32.5439C42.7086 32.5702 42.6265 32.5837 42.5438 32.5837V32.5822ZM34.4301 31.0438H41.4794L37.954 20.499L34.4301 31.0438Z" fill="url(#paint8_linear_6180_40122)"/>
<path d="M37.954 37.2788C34.9973 37.2754 32.6013 34.8707 32.5982 31.9034V31.8029C32.6003 31.378 32.9449 31.0352 33.3683 31.0373C33.7917 31.0393 34.1332 31.3852 34.1312 31.8101V31.9053C34.1299 34.0242 35.8403 35.7429 37.9516 35.7442C40.0629 35.7456 41.7755 34.029 41.7769 31.9101V31.8154C41.7748 31.3905 42.1164 31.0446 42.5397 31.0425C42.9631 31.0405 43.3078 31.3833 43.3098 31.8082V31.9043C43.3061 34.8713 40.9104 37.2754 37.954 37.2788Z" fill="url(#paint9_linear_6180_40122)"/>
<path d="M34.2375 29.9702C33.8142 29.9702 33.4711 29.6258 33.4711 29.201C33.4711 28.7761 33.8142 28.4317 34.2375 28.4317C34.6609 28.4317 35.004 28.7761 35.004 29.201C35.004 29.6258 34.6609 29.9702 34.2375 29.9702Z" fill="url(#paint10_linear_6180_40122)"/>
<path d="M29.6205 41.5101H20.3796C19.9562 41.5101 19.6131 41.1657 19.6131 40.7409C19.6157 38.3897 21.5142 36.4844 23.857 36.4817H26.143C28.4858 36.4844 30.3843 38.3897 30.3869 40.7409C30.3869 41.1657 30.0438 41.5101 29.6205 41.5101ZM21.2562 39.9716H28.7433C28.4021 38.8155 27.3445 38.0218 26.143 38.0202H23.857C22.6554 38.0218 21.5977 38.8154 21.2562 39.9716Z" fill="url(#paint11_linear_6180_40122)"/>
<path d="M18.2856 45C17.8623 45 17.5191 44.6557 17.5191 44.2308V42.8168C17.5209 41.2466 18.7886 39.974 20.3532 39.9716H29.6468C31.2117 39.9734 32.48 41.2463 32.4818 42.8168V44.2308C32.4818 44.6557 32.1387 45 31.7153 45H18.2856ZM19.0521 43.4615H30.9479V42.8168C30.9471 42.0958 30.3653 41.5114 29.6468 41.5101H20.3532C19.6344 41.5109 19.052 42.0954 19.0511 42.8168L19.0521 43.4615Z" fill="url(#paint12_linear_6180_40122)"/>
<path d="M12.0455 16.1308C8.9828 16.1308 6.5 13.6391 6.5 10.5654C6.5 7.49171 8.9828 5 12.0455 5C15.1082 5 17.591 7.49171 17.591 10.5654C17.5875 13.6376 15.1068 16.1273 12.0455 16.1308ZM12.0455 6.53846C9.82941 6.53846 8.03296 8.34135 8.03296 10.5654C8.03296 12.7894 9.82941 14.5923 12.0455 14.5923C14.2616 14.5923 16.058 12.7894 16.058 10.5654C16.0554 8.34243 14.2605 6.54111 12.0455 6.53846Z" fill="url(#paint13_linear_6180_40122)"/>
<path d="M11.6172 12.401C11.4139 12.401 11.2188 12.3198 11.0749 12.1755L9.80737 10.9034C9.50796 10.6029 9.50796 10.1159 9.80737 9.81538C10.1068 9.5149 10.5921 9.5149 10.8915 9.81538L11.6172 10.5437L13.1981 8.95721C13.493 8.6524 13.9782 8.64519 14.2819 8.94111C14.5857 9.23702 14.5929 9.72404 14.298 10.0288C14.2928 10.0343 14.2875 10.0395 14.2822 10.0447L12.1614 12.1755C12.0171 12.3203 11.8213 12.4016 11.6172 12.401Z" fill="url(#paint14_linear_6180_40122)"/>
<path d="M37.9545 16.1308C34.8918 16.1308 32.409 13.6391 32.409 10.5654C32.409 7.49171 34.8918 5 37.9545 5C41.0172 5 43.5 7.49171 43.5 10.5654C43.4965 13.6376 41.0158 16.1273 37.9545 16.1308ZM37.9545 6.53846C35.7384 6.53846 33.942 8.34135 33.942 10.5654C33.942 12.7894 35.7384 14.5923 37.9545 14.5923C40.1706 14.5923 41.967 12.7894 41.967 10.5654C41.9646 8.34231 40.1696 6.54087 37.9545 6.53846Z" fill="url(#paint15_linear_6180_40122)"/>
<path d="M36.5509 12.7433C36.1275 12.7433 35.7844 12.399 35.7843 11.9742C35.7843 11.7702 35.8649 11.5745 36.0086 11.4303L38.8158 8.61298C39.1267 8.32476 39.6118 8.34399 39.899 8.65613C40.1704 8.95108 40.1702 9.40589 39.8985 9.70048L37.0913 12.5178C36.9481 12.662 36.7536 12.7431 36.5509 12.7433Z" fill="url(#paint16_linear_6180_40122)"/>
<path d="M39.3581 12.7433C39.1546 12.7436 38.9594 12.6625 38.8158 12.5178L36.0086 9.70048C35.7137 9.39567 35.7209 8.90865 36.0246 8.61274C36.3221 8.32296 36.7953 8.32308 37.0927 8.61298L39.8999 11.4303C40.1992 11.7308 40.199 12.2178 39.8996 12.5181C39.756 12.6623 39.5612 12.7431 39.3581 12.7433Z" fill="url(#paint17_linear_6180_40122)"/>
<defs>
<linearGradient id="paint0_linear_6180_40122" x1="36.7128" y1="33.6397" x2="36.7128" y2="41.6506" gradientUnits="userSpaceOnUse">
<stop stop-color="#ED3040"/>
<stop offset="1" stop-color="#2D23F4"/>
</linearGradient>
<linearGradient id="paint1_linear_6180_40122" x1="36.7128" y1="33.6397" x2="36.7128" y2="41.6506" gradientUnits="userSpaceOnUse">
<stop stop-color="#ED3040"/>
<stop offset="1" stop-color="#2D23F4"/>
</linearGradient>
<linearGradient id="paint2_linear_6180_40122" x1="36.7128" y1="33.6397" x2="36.7128" y2="41.6506" gradientUnits="userSpaceOnUse">
<stop stop-color="#ED3040"/>
<stop offset="1" stop-color="#2D23F4"/>
</linearGradient>
<linearGradient id="paint3_linear_6180_40122" x1="36.7128" y1="33.6397" x2="36.7128" y2="41.6506" gradientUnits="userSpaceOnUse">
<stop stop-color="#ED3040"/>
<stop offset="1" stop-color="#2D23F4"/>
</linearGradient>
<linearGradient id="paint4_linear_6180_40122" x1="36.7128" y1="33.6397" x2="36.7128" y2="41.6506" gradientUnits="userSpaceOnUse">
<stop stop-color="#ED3040"/>
<stop offset="1" stop-color="#2D23F4"/>
</linearGradient>
<linearGradient id="paint5_linear_6180_40122" x1="36.7128" y1="33.6397" x2="36.7128" y2="41.6506" gradientUnits="userSpaceOnUse">
<stop stop-color="#ED3040"/>
<stop offset="1" stop-color="#2D23F4"/>
</linearGradient>
<linearGradient id="paint6_linear_6180_40122" x1="36.7128" y1="33.6397" x2="36.7128" y2="41.6506" gradientUnits="userSpaceOnUse">
<stop stop-color="#ED3040"/>
<stop offset="1" stop-color="#2D23F4"/>
</linearGradient>
<linearGradient id="paint7_linear_6180_40122" x1="36.7128" y1="33.6397" x2="36.7128" y2="41.6506" gradientUnits="userSpaceOnUse">
<stop stop-color="#ED3040"/>
<stop offset="1" stop-color="#2D23F4"/>
</linearGradient>
<linearGradient id="paint8_linear_6180_40122" x1="36.7128" y1="33.6397" x2="36.7128" y2="41.6506" gradientUnits="userSpaceOnUse">
<stop stop-color="#ED3040"/>
<stop offset="1" stop-color="#2D23F4"/>
</linearGradient>
<linearGradient id="paint9_linear_6180_40122" x1="36.7128" y1="33.6397" x2="36.7128" y2="41.6506" gradientUnits="userSpaceOnUse">
<stop stop-color="#ED3040"/>
<stop offset="1" stop-color="#2D23F4"/>
</linearGradient>
<linearGradient id="paint10_linear_6180_40122" x1="36.7128" y1="33.6397" x2="36.7128" y2="41.6506" gradientUnits="userSpaceOnUse">
<stop stop-color="#ED3040"/>
<stop offset="1" stop-color="#2D23F4"/>
</linearGradient>
<linearGradient id="paint11_linear_6180_40122" x1="36.7128" y1="33.6397" x2="36.7128" y2="41.6506" gradientUnits="userSpaceOnUse">
<stop stop-color="#ED3040"/>
<stop offset="1" stop-color="#2D23F4"/>
</linearGradient>
<linearGradient id="paint12_linear_6180_40122" x1="36.7128" y1="33.6397" x2="36.7128" y2="41.6506" gradientUnits="userSpaceOnUse">
<stop stop-color="#ED3040"/>
<stop offset="1" stop-color="#2D23F4"/>
</linearGradient>
<linearGradient id="paint13_linear_6180_40122" x1="36.7128" y1="33.6397" x2="36.7128" y2="41.6506" gradientUnits="userSpaceOnUse">
<stop stop-color="#ED3040"/>
<stop offset="1" stop-color="#2D23F4"/>
</linearGradient>
<linearGradient id="paint14_linear_6180_40122" x1="36.7128" y1="33.6397" x2="36.7128" y2="41.6506" gradientUnits="userSpaceOnUse">
<stop stop-color="#ED3040"/>
<stop offset="1" stop-color="#2D23F4"/>
</linearGradient>
<linearGradient id="paint15_linear_6180_40122" x1="36.7128" y1="33.6397" x2="36.7128" y2="41.6506" gradientUnits="userSpaceOnUse">
<stop stop-color="#ED3040"/>
<stop offset="1" stop-color="#2D23F4"/>
</linearGradient>
<linearGradient id="paint16_linear_6180_40122" x1="36.7128" y1="33.6397" x2="36.7128" y2="41.6506" gradientUnits="userSpaceOnUse">
<stop stop-color="#ED3040"/>
<stop offset="1" stop-color="#2D23F4"/>
</linearGradient>
<linearGradient id="paint17_linear_6180_40122" x1="36.7128" y1="33.6397" x2="36.7128" y2="41.6506" gradientUnits="userSpaceOnUse">
<stop stop-color="#ED3040"/>
<stop offset="1" stop-color="#2D23F4"/>
</linearGradient>
</defs>
</svg>
