<svg width="50" height="50" viewBox="0 0 50 50" fill="none" xmlns="http://www.w3.org/2000/svg">
<path d="M25.6202 34.3467C25.4908 34.1294 25.2561 33.9963 25.0032 33.9963C24.7499 33.9963 24.5155 34.1294 24.3858 34.3467L20.9376 41.2432V41.2436C20.8558 41.4072 20.8424 41.5967 20.9003 41.7702C20.9581 41.9438 21.0827 42.0871 21.2466 42.1689C21.5874 42.339 22.0019 42.2008 22.1719 41.8599L24.9997 36.1971L26.2974 38.7929H24.9997C24.6188 38.7929 24.3098 39.1019 24.3098 39.4828C24.3098 39.8637 24.6188 40.1724 24.9997 40.1724H26.9874L27.8272 41.8599C27.9976 42.2008 28.4117 42.339 28.7529 42.1689C29.0937 41.9985 29.232 41.5844 29.0616 41.2436L25.6202 34.3467Z" fill="url(#paint0_linear_6180_40134)"/>
<path d="M14.655 40.8613H11.2068C10.714 40.8613 10.2585 40.5985 10.0121 40.1718C9.76561 39.745 9.76565 39.219 10.0121 38.7923C10.2585 38.3655 10.714 38.1027 11.2068 38.1027H13.9654C14.3463 38.1027 14.655 37.794 14.655 37.4131C14.655 37.0322 14.3463 36.7235 13.9654 36.7235H12.5859C12.3361 36.7221 12.1065 36.5859 11.9857 36.3673C11.8649 36.1482 11.872 35.8813 12.0038 35.6695C12.1359 35.4573 12.3724 35.3331 12.6219 35.3447C12.8717 35.3567 13.0952 35.5025 13.2067 35.7263C13.3782 36.0668 13.7933 36.2037 14.1338 36.0322C14.4743 35.8611 14.6112 35.446 14.4398 35.1055C14.1122 34.4789 13.487 34.0631 12.7827 34.0032C12.0781 33.943 11.3916 34.2465 10.9625 34.8085C10.5333 35.3704 10.4207 36.1127 10.664 36.7766C9.75991 36.9566 9.00559 37.576 8.65349 38.4279C8.301 39.2797 8.3975 40.2512 8.9105 41.0172C9.4235 41.7831 10.2849 42.2423 11.2068 42.241H14.655C15.0359 42.241 15.3446 41.9319 15.3446 41.551C15.3446 41.1701 15.0359 40.8615 14.655 40.8615L14.655 40.8613Z" fill="url(#paint1_linear_6180_40134)"/>
<path d="M40.8616 33.9656C40.4807 33.9656 40.172 34.2743 40.172 34.6552V40.3331L38.1029 39.0918V35.6898C38.1029 35.2124 37.9051 34.7562 37.5568 34.43C37.208 34.1042 36.7399 33.9372 36.2635 33.9691C35.7871 34.0009 35.3453 34.2292 35.0434 34.5988C34.7416 34.9684 34.6064 35.4468 34.67 35.9201C34.734 36.393 34.9911 36.8184 35.3802 37.0949C35.7696 37.3714 36.2559 37.4741 36.7237 37.3786V38.8269C36.2658 38.7311 35.7888 38.8255 35.4017 39.088C35.0147 39.3508 34.7511 39.7598 34.6714 40.2204C34.5917 40.6814 34.7026 41.1551 34.9787 41.5326C35.2549 41.91 35.6728 42.1592 36.1361 42.2228C36.5995 42.2861 37.0687 42.1588 37.4363 41.8697C37.8042 41.5805 38.0382 41.1544 38.0858 40.689L40.5064 42.1413C40.7192 42.2693 40.9844 42.2731 41.2007 42.1509C41.4167 42.0288 41.5508 41.8001 41.5512 41.5517V34.6552C41.5512 34.4721 41.4786 34.2969 41.3493 34.1675C41.2199 34.0382 41.0447 33.9656 40.8616 33.9656ZM36.3788 36.0343C36.2395 36.0343 36.1136 35.9505 36.0602 35.8215C36.0068 35.6928 36.0362 35.5443 36.1351 35.4457C36.2337 35.3472 36.3819 35.3177 36.5109 35.3711C36.6396 35.4245 36.7238 35.5501 36.7238 35.6897C36.7238 35.7811 36.6875 35.8687 36.6228 35.9334C36.5581 35.998 36.4702 36.0343 36.3788 36.0343ZM36.3788 40.862C36.2395 40.862 36.1136 40.7782 36.0602 40.6492C36.0068 40.5205 36.0362 40.372 36.1351 40.2734C36.2337 40.1749 36.3819 40.1454 36.5109 40.1988C36.6396 40.2522 36.7238 40.3778 36.7238 40.5171C36.7238 40.6088 36.6875 40.6964 36.6228 40.7611C36.5581 40.8258 36.4702 40.862 36.3788 40.862Z" fill="url(#paint2_linear_6180_40134)"/>
<path d="M42.9309 31.2068H33.2755C32.7649 31.2085 32.2734 31.4002 31.8964 31.7448C31.5192 31.4002 31.0278 31.2085 30.5172 31.2068H19.4828C18.9722 31.2085 18.4805 31.4002 18.1033 31.7448C17.7265 31.4002 17.2347 31.2085 16.7242 31.2068H7.06873C6.52015 31.2068 5.99376 31.4248 5.60574 31.8129C5.218 32.2006 5 32.727 5 33.2755V42.9309C5 43.4795 5.218 44.0059 5.60574 44.3939C5.99382 44.782 6.52021 45 7.06873 45H16.7242C17.2348 44.9979 17.7265 44.8063 18.1033 44.462C18.4804 44.8063 18.9722 44.9979 19.4828 45H30.5172C31.0278 44.9979 31.5193 44.8063 31.8964 44.462C32.2735 44.8063 32.7649 44.9979 33.2755 45H42.9309C43.4795 45 44.0059 44.782 44.3939 44.3939C44.782 44.0058 45 43.4795 45 42.9309V33.2755C45 32.7269 44.782 32.2006 44.3939 31.8129C44.0058 31.4248 43.4795 31.2068 42.9309 31.2068ZM16.7235 43.621H7.06803C6.68713 43.621 6.37845 43.3123 6.37845 42.9314V33.276C6.37845 32.8951 6.68713 32.5865 7.06803 32.5865H16.7235C16.9062 32.5865 17.0818 32.6593 17.2111 32.7884C17.3405 32.9177 17.413 33.0933 17.413 33.276V42.9314C17.413 43.1142 17.3405 43.2898 17.2111 43.4191C17.0818 43.5485 16.9062 43.621 16.7235 43.621ZM30.5167 43.621H19.4823C19.1014 43.621 18.7924 43.3123 18.7924 42.9314V33.276C18.7924 32.8951 19.1014 32.5865 19.4823 32.5865H30.5167C30.6994 32.5865 30.875 32.6593 31.0044 32.7884C31.1334 32.9177 31.2063 33.0933 31.2063 33.276V42.9314C31.2063 43.1142 31.1334 43.2898 31.0044 43.4191C30.875 43.5485 30.6994 43.621 30.5167 43.621ZM43.6204 42.9314H43.6201C43.6201 43.1142 43.5475 43.2898 43.4182 43.4191C43.2888 43.5485 43.1132 43.621 42.9305 43.621H33.2751C32.8942 43.621 32.5855 43.3123 32.5855 42.9314V33.276C32.5855 32.8951 32.8942 32.5865 33.2751 32.5865H42.9305C43.1132 32.5865 43.2888 32.6593 43.4182 32.7884C43.5475 32.9177 43.6201 33.0933 43.6201 33.276L43.6204 42.9314Z" fill="url(#paint3_linear_6180_40134)"/>
<path d="M11.2435 29.3232C11.2538 29.3646 11.2678 29.4046 11.2856 29.4433C11.3051 29.4803 11.328 29.5155 11.3544 29.548C11.3821 29.5867 11.4139 29.6223 11.4488 29.6541C11.4611 29.6644 11.4673 29.6798 11.4807 29.6894C11.5101 29.7079 11.5412 29.7239 11.5731 29.7376C11.5984 29.7527 11.6244 29.7664 11.6511 29.7784C11.7291 29.8095 11.8119 29.8259 11.8958 29.8273C12.0227 29.8352 12.148 29.7958 12.2476 29.7171C12.3105 29.6805 12.3674 29.6339 12.416 29.5792C12.4248 29.5682 12.4389 29.5641 12.4478 29.5528L14.5169 26.7942H14.5165C14.7451 26.4896 14.6832 26.0574 14.3786 25.8287C14.074 25.6001 13.6414 25.6621 13.4131 25.9666L12.5853 27.0686V16.0342C12.5853 15.6533 12.8943 15.3443 13.2752 15.3443H16.0339V21.5512C16.0339 22.1002 16.2515 22.6265 16.6396 23.0142C17.0277 23.4023 17.5541 23.6203 18.1026 23.6203H24.3095V27.0685L23.482 25.9652C23.2534 25.6606 22.8212 25.5986 22.5166 25.8272C22.2117 26.0559 22.1501 26.4881 22.3787 26.7927L24.4478 29.5513C24.4566 29.5623 24.4707 29.5671 24.4796 29.5777H24.4792C24.5251 29.6318 24.5795 29.6783 24.6401 29.7156C24.8509 29.8809 25.1476 29.8809 25.3587 29.7156C25.419 29.6783 25.4734 29.6318 25.5192 29.5777C25.5281 29.5674 25.5422 29.5626 25.5511 29.5513L27.6201 26.7927C27.8484 26.4881 27.7868 26.0559 27.4819 25.8272C27.1773 25.5986 26.7451 25.6606 26.5164 25.9652L25.6889 27.0685V23.6203H31.8959C32.4445 23.6203 32.9708 23.4023 33.3589 23.0142C33.747 22.6265 33.965 22.1001 33.965 21.5512V15.3443H36.7236C36.9063 15.3443 37.0819 15.4172 37.2113 15.5465C37.3406 15.6756 37.4132 15.8511 37.4132 16.0342V27.0686L36.5857 25.9652C36.3571 25.6607 35.9248 25.5987 35.62 25.8273C35.3154 26.0559 35.2534 26.4882 35.482 26.7928L37.5511 29.5514C37.56 29.5624 37.5741 29.5665 37.5829 29.5778C37.6545 29.6466 37.7328 29.7078 37.8167 29.7612C37.906 29.804 38.0039 29.8266 38.1028 29.8273C38.1859 29.8256 38.2684 29.8091 38.3458 29.7783C38.3721 29.7663 38.3981 29.7527 38.4235 29.7376C38.4556 29.7239 38.4864 29.7078 38.5159 29.6894C38.5289 29.6798 38.535 29.6644 38.5477 29.6541C38.5826 29.6223 38.6144 29.5867 38.6421 29.548C38.6685 29.5155 38.6914 29.4803 38.7113 29.4433C38.7287 29.4046 38.7427 29.3646 38.7533 29.3232C38.7674 29.2783 38.7766 29.2321 38.7807 29.1853C38.7807 29.1688 38.7903 29.1548 38.7903 29.1384V16.0347C38.7903 15.4857 38.5723 14.9594 38.1846 14.5717C37.7965 14.1836 37.2701 13.9656 36.7216 13.9656H33.965V7.06873C33.965 6.52014 33.747 5.99376 33.3589 5.60574C32.9708 5.218 32.4444 5 31.8959 5H18.1027C17.5541 5 17.0277 5.218 16.6397 5.60574C16.2516 5.99382 16.0339 6.5202 16.0339 7.06873V13.9656H13.2753C12.7264 13.9656 12.2001 14.1836 11.8123 14.5717C11.4242 14.9594 11.2062 15.4858 11.2062 16.0347V29.1384C11.2062 29.1548 11.2144 29.1688 11.2158 29.1853C11.2199 29.2325 11.2291 29.279 11.2435 29.3239L11.2435 29.3232ZM17.4131 7.0687C17.4131 6.6878 17.7218 6.37911 18.1027 6.37911H31.8959C32.0787 6.37911 32.2542 6.45201 32.3836 6.58103C32.513 6.71039 32.5855 6.88595 32.5855 7.0687V21.5514C32.5855 21.7345 32.513 21.9097 32.3836 22.039C32.2542 22.1684 32.0787 22.2413 31.8959 22.2413H18.1027C17.7218 22.2413 17.4131 21.9323 17.4131 21.5514V7.0687Z" fill="url(#paint4_linear_6180_40134)"/>
<path d="M19.4823 11.2065H28.3098C27.7691 13.303 26.6216 15.1934 25.0111 16.6403C23.8832 15.6132 22.9725 14.3703 22.3333 12.9849C22.1745 12.6386 21.7648 12.487 21.4188 12.6458C21.0725 12.8046 20.9205 13.2139 21.0793 13.5603C21.7651 15.05 22.7315 16.3936 23.9256 17.5174C22.7123 18.3829 21.3739 19.0574 19.9564 19.5174C19.5947 19.6378 19.3989 20.0286 19.5194 20.3907C19.6395 20.7524 20.0303 20.9482 20.3924 20.8277C22.0536 20.2928 23.6148 19.4872 25.0131 18.4431C26.4043 19.4876 27.9597 20.2935 29.6153 20.8277C29.977 20.9482 30.3679 20.7524 30.4883 20.3907C30.6088 20.0286 30.413 19.6378 30.051 19.5174C28.6379 19.0577 27.3042 18.3832 26.0965 17.5174C27.9127 15.8272 29.1758 13.6274 29.72 11.2065H30.5167C30.8976 11.2065 31.2063 10.8978 31.2063 10.5169C31.2063 10.136 30.8976 9.82697 30.5167 9.82697H25.689V8.44782C25.689 8.06692 25.3803 7.75824 24.9994 7.75824C24.6185 7.75824 24.3095 8.06692 24.3095 8.44782V9.82697H19.482C19.1011 9.82697 18.7921 10.136 18.7921 10.5169C18.7921 10.8978 19.1011 11.2065 19.482 11.2065L19.4823 11.2065Z" fill="url(#paint5_linear_6180_40134)"/>
<defs>
<linearGradient id="paint0_linear_6180_40134" x1="0" y1="0" x2="0" y2="1" gradientUnits="objectBoundingBox">
<stop stop-color="#ED3040"/>
<stop offset="1" stop-color="#2D23F4"/>
</linearGradient>
<linearGradient id="paint1_linear_6180_40134" x1="0" y1="0" x2="0" y2="1" gradientUnits="objectBoundingBox">
<stop stop-color="#ED3040"/>
<stop offset="1" stop-color="#2D23F4"/>
</linearGradient>
<linearGradient id="paint2_linear_6180_40134" x1="0" y1="0" x2="0" y2="1" gradientUnits="objectBoundingBox">
<stop stop-color="#ED3040"/>
<stop offset="1" stop-color="#2D23F4"/>
</linearGradient>
<linearGradient id="paint3_linear_6180_40134" x1="0" y1="0" x2="0" y2="1" gradientUnits="objectBoundingBox">
<stop stop-color="#ED3040"/>
<stop offset="1" stop-color="#2D23F4"/>
</linearGradient>
<linearGradient id="paint4_linear_6180_40134" x1="0" y1="0" x2="0" y2="1" gradientUnits="objectBoundingBox">
<stop stop-color="#ED3040"/>
<stop offset="1" stop-color="#2D23F4"/>
</linearGradient>
<linearGradient id="paint5_linear_6180_40134" x1="0" y1="0" x2="0" y2="1" gradientUnits="objectBoundingBox">
<stop stop-color="#ED3040"/>
<stop offset="1" stop-color="#2D23F4"/>
</linearGradient>
</defs>
</svg>
