<svg width="50" height="50" viewBox="0 0 50 50" fill="none" xmlns="http://www.w3.org/2000/svg">
<path d="M44.9878 9.33707L44.7664 7.52525C44.6961 6.94754 44.3391 6.44363 43.8156 6.18334C43.2924 5.92272 42.6727 5.94101 42.1657 6.23148C41.6586 6.52195 41.332 7.04575 41.2959 7.62664L41.1294 10.3972V10.3968C40.886 10.4174 40.6533 10.5063 40.459 10.653C40.2644 10.7996 40.1156 10.9983 40.0301 11.2259L39.0718 13.7974C38.9408 14.1492 38.6251 14.3998 38.2514 14.4496L32.1943 14.975C32.9792 14.1665 33.4179 13.0865 33.4179 11.9628C33.4179 11.8672 33.4137 11.7725 33.4076 11.6785L33.6419 12.1766C33.7561 12.4192 34.0466 12.5239 34.2906 12.4102C34.5346 12.2966 34.6398 12.0081 34.5256 11.7654L33.892 10.419L34.7702 10.5907C35.0203 10.5907 35.2301 10.4026 35.2556 10.1552C35.2815 9.9077 35.1146 9.68111 34.8696 9.63072L34.4726 9.54823C34.7241 9.36657 34.8822 9.08381 34.9048 8.77537C34.9274 8.46693 34.8125 8.16427 34.5904 7.94797L34.0608 7.43123C33.7855 7.16227 33.3856 7.06277 33.0155 7.17061C32.6453 7.27845 32.3629 7.57694 32.277 7.95086L31.9869 8.74747C31.038 7.87028 29.7479 7.45403 28.4618 7.60965C27.1757 7.76499 26.0237 8.47657 25.3137 9.55433C24.6036 10.6321 24.4074 11.9663 24.7776 13.2014C25.1478 14.4361 26.0466 15.4458 27.2343 15.961C25.8594 16.7393 24.6265 17.7432 23.5879 18.9305C22.6939 19.9495 21.6711 20.8492 20.5447 21.6069C19.55 22.2745 18.482 22.8273 17.3614 23.2544C17.0597 23.3697 16.8208 23.6065 16.7043 23.9066C16.6811 23.9679 16.6633 24.0315 16.6514 24.0963L15.9033 24.062C15.6338 24.053 15.3659 24.1053 15.1199 24.2151C15.0886 24.1733 15.0583 24.1326 15.0305 24.095L15.1383 24.0135C15.3494 23.8501 15.3885 23.5478 15.2258 23.3363C15.0635 23.1248 14.7598 23.0831 14.5455 23.2429L14.4996 23.2776L8.95871 14.0093C8.82542 13.7786 8.60917 13.6062 8.35356 13.5273L5.81899 12.7412V12.7416C5.57532 12.6658 5.30969 12.7435 5.14606 12.9386C4.98275 13.1338 4.95371 13.4079 5.07248 13.6325C5.46203 14.3707 5.78059 15.144 6.0243 15.9415C6.24959 16.681 6.40967 17.4385 6.50262 18.2056C6.50649 18.2367 6.51327 18.2675 6.52295 18.2974C6.57008 18.4415 6.64786 18.5737 6.75081 18.6854L12.406 24.8706C12.2036 25.0381 12.1714 25.3353 12.3334 25.5417C12.4954 25.7484 12.793 25.7895 13.0057 25.6351L13.0725 25.5844C13.1764 25.6945 13.3036 25.8305 13.4452 25.9849L13.3139 26.1499H13.3142C13.0431 26.4917 12.9117 26.9224 12.946 27.3564C12.9805 27.7907 13.178 28.1957 13.4998 28.491C13.8212 28.7866 14.2431 28.9506 14.6807 28.9503C15.008 28.95 15.3285 28.8588 15.6067 28.6868C15.6393 28.7404 15.6706 28.7934 15.6996 28.8447C15.7729 29.5659 16.4274 30.0412 17.3757 30.0412C18.2806 30.0412 18.9126 29.46 18.9126 28.6277C18.9126 28.2455 18.9126 27.1041 17.8018 26.8795C17.7856 26.8699 17.7692 26.8586 17.753 26.8487L17.9625 26.6664C18.1164 26.7415 18.2859 26.7803 18.4576 26.7797C18.6435 26.7794 18.8268 26.7338 18.9908 26.6468L24.7076 23.6301C25.0174 24.0634 25.5558 24.8308 25.9434 25.4631C26.3501 26.1256 26.7015 26.6978 25.467 28.6612C25.1872 29.1054 24.8054 29.4773 24.3532 29.7463C23.2846 30.3799 22.2428 30.9274 21.2352 31.4567C18.4857 32.9013 15.6423 34.3947 11.7897 37.8357C11.5263 38.071 11.373 38.4044 11.3662 38.7562L9.84221 39.9444C9.6392 40.1026 9.42232 40.2425 9.19446 40.3623L8.99532 40.4669C8.52184 40.7156 7.75051 40.8793 7.23411 40.9438C6.87231 40.9891 6.54569 41.182 6.33268 41.4766C6.11999 41.7713 6.04027 42.1407 6.11289 42.496C6.18518 42.8516 6.40368 43.1607 6.71482 43.3494C7.02627 43.5385 7.40292 43.5895 7.75373 43.4906L9.18287 43.249C9.74865 43.2101 10.317 43.2332 10.878 43.3183C11.2511 43.386 11.6364 43.3266 11.9714 43.1498C12.6037 42.8064 12.899 42.2405 12.8083 41.5716C12.9035 41.4721 13.0284 41.3438 13.1314 41.2378C13.205 41.1618 13.2786 41.0863 13.347 41.0157L13.3489 41.0173C13.5358 41.1698 13.7617 41.2677 14.0015 41.2995C14.2413 41.3316 14.485 41.2963 14.7058 41.1977L14.7138 41.1939L29.0358 34.4313L29.0361 34.4316C30.3952 33.8073 31.9429 33.7226 33.3629 34.1951L37.4477 35.8759C37.458 35.8801 37.4683 35.8839 37.4786 35.8875C37.5425 35.9083 37.5897 35.9629 37.6 36.029L38.2526 40.1985C38.2742 40.3343 38.322 40.4646 38.393 40.5824L38.3597 40.6254C38.3391 40.6524 38.3191 40.68 38.3007 40.7085V40.7089C38.0983 41.0199 38.0567 41.4079 38.188 41.7546C38.3239 42.1185 38.6231 42.3984 38.9965 42.5108L39.8415 42.7627H39.8418C40.2011 42.8699 40.5419 43.0313 40.8521 43.2416L41.636 43.7731C41.8536 43.921 42.1115 44.0003 42.3751 44C42.4597 44 42.5443 43.992 42.6272 43.9759C42.9945 43.9066 43.3147 43.6845 43.5067 43.3655C43.6988 43.0464 43.7446 42.6613 43.6326 42.3063C43.5203 41.9516 43.2611 41.6618 42.92 41.5093C42.432 41.2914 41.9879 40.9868 41.6096 40.6106L41.4751 40.4768V40.4765C41.6887 40.1886 41.8223 39.8493 41.8624 39.4934C41.8656 39.4597 41.8678 39.4266 41.8691 39.3942C41.8969 38.7179 42.0857 38.0012 42.2684 37.3076L43.1385 34.1847L43.1414 34.1738C43.2834 33.6147 43.2472 33.0257 43.0375 32.4877C42.828 31.9501 42.4552 31.4908 41.9715 31.1731C41.9679 31.1709 41.9644 31.1686 41.9608 31.1664L38.2001 28.8324C37.9674 28.6603 37.7999 28.4158 37.7241 28.1378C37.4955 26.8624 36.8558 26.0288 36.2917 25.2932C36.159 25.1205 36.0338 24.9575 35.9176 24.7935C35.3322 23.9689 35.3225 23.5571 35.3454 23.4185L35.6336 21.6757C35.7563 20.9285 36.2181 20.2789 36.8859 19.9149L41.6648 17.2847C42.1802 17.0013 42.5737 16.5397 42.7699 15.9874L44.0231 12.46C44.1442 12.1188 44.1138 11.7427 43.9395 11.4252C43.9208 11.3909 43.8995 11.3578 43.8779 11.3257L44.4346 10.8205H44.4343C44.8484 10.4437 45.0546 9.89135 44.9875 9.33706L44.9878 9.33707ZM33.228 8.16811C33.2325 8.13634 33.2558 8.11034 33.2871 8.10264C33.2967 8.09943 33.3071 8.0975 33.3174 8.0975C33.34 8.09782 33.3616 8.10713 33.3774 8.1235L33.9067 8.64024C33.928 8.65982 33.9371 8.68935 33.9297 8.71727C33.9235 8.7468 33.9016 8.77023 33.8728 8.77858L32.8633 9.191L33.228 8.16811ZM29.0055 8.56707C29.7288 8.5661 30.434 8.7927 31.0201 9.21379C30.1813 9.67886 29.3073 10.0782 28.4062 10.4081C27.5108 10.739 26.5917 11.0031 25.657 11.1986C25.8355 10.4491 26.2631 9.78123 26.8708 9.30369C27.4786 8.82615 28.2306 8.56642 29.0055 8.56707ZM25.6654 12.7623C25.6205 12.5794 25.5911 12.3932 25.5776 12.2055C26.6562 11.9952 27.7161 11.6984 28.7464 11.3173C29.7856 10.938 30.79 10.4701 31.7486 9.91923C31.8622 10.0682 31.9635 10.2261 32.0513 10.3917C30.9843 10.9713 29.875 11.4694 28.7322 11.8819C27.7307 12.2427 26.7059 12.5367 25.6654 12.7623ZM26.0378 13.6729C27.0645 13.4434 28.0753 13.1497 29.0649 12.7938C30.2042 12.3827 31.3122 11.8893 32.3798 11.3177C32.4215 11.5302 32.4425 11.7462 32.4425 11.9625C32.435 12.9674 31.9835 13.9181 31.2082 14.5626C30.4327 15.2068 29.4115 15.4796 28.4158 15.3082C27.4201 15.1368 26.5503 14.5388 26.0378 13.6729ZM30.4321 16.1018L29.641 18.4006C29.2411 17.524 28.9277 16.7714 28.745 16.3205C28.8312 16.3253 28.918 16.3285 29.0052 16.3285C29.478 16.3285 29.9476 16.2531 30.3962 16.1048L30.4321 16.1018ZM15.8581 25.0315L16.8851 25.0787L17.3231 25.9334L16.9558 26.2534H16.9561C16.533 25.8756 16.1379 25.468 15.7738 25.0341C15.8019 25.0312 15.83 25.0306 15.8581 25.0315ZM13.1831 24.2792L7.46921 18.0298C7.46695 18.0273 7.46469 18.0247 7.46243 18.0218C7.36173 17.222 7.19261 16.4317 6.95765 15.6605C6.77465 15.0613 6.55228 14.4749 6.29181 13.9053L8.0631 14.4544C8.08634 14.4621 8.10571 14.4785 8.117 14.5L13.7199 23.8709L13.1831 24.2792ZM14.4409 27.9426L14.4412 27.9423C14.2043 27.8659 14.0197 27.6788 13.9478 27.4413C13.8755 27.2041 13.9245 26.9467 14.0791 26.7522L14.1036 26.722C14.4228 27.0902 14.7569 27.4926 15.0531 27.8851C14.8656 27.9875 14.6442 28.0081 14.4409 27.9423L14.4409 27.9426ZM17.9369 28.6285C17.9369 28.9225 17.7481 29.0718 17.3756 29.0718C17.3033 29.0718 16.6682 29.0615 16.6682 28.7094L16.6685 28.7091C16.6685 28.6298 16.6491 28.5518 16.6117 28.4818C16.003 27.3396 14.5467 25.7303 13.8522 24.9917L14.2553 24.6852C14.8143 25.4446 16.0747 27.023 17.3918 27.7645V27.7648C17.4444 27.7943 17.5022 27.8142 17.5619 27.8226C17.7371 27.8483 17.9366 27.8768 17.9366 28.6282L17.9369 28.6285ZM25.5774 23.1716L25.831 23.0378H25.8314C26.0692 22.9123 26.1596 22.6186 26.0334 22.382C25.9072 22.1452 25.6119 22.0553 25.374 22.1808L18.5333 25.7903C18.4943 25.8109 18.4481 25.815 18.4059 25.8016C18.3645 25.789 18.33 25.7601 18.3103 25.722L17.6222 24.3797H17.6219C17.6016 24.3412 17.5993 24.2956 17.6155 24.2552C17.6322 24.2115 17.6671 24.1772 17.711 24.1611C18.9009 23.7073 20.0351 23.1206 21.0911 22.4116C22.2875 21.6066 23.3739 20.6515 24.3231 19.5689C25.3249 18.4236 26.5207 17.4621 27.8563 16.7271C28.4346 18.1589 30.1562 22.202 31.9478 24.3014C30.2985 24.684 28.2375 25.0107 26.6563 24.7645C26.2994 24.199 25.8675 23.5799 25.5774 23.1716ZM27.2605 26.9284C27.3279 26.5513 27.305 26.1639 27.193 25.7974C27.4154 25.8121 27.6416 25.8195 27.8724 25.8195C30.487 25.8195 33.5228 24.9285 34.6479 24.5668L35.2211 25.4902C34.2457 26.168 31.3359 27.8262 27.2605 26.9284ZM33.0235 30.7986L26.3355 29.11L26.3352 29.1097C26.5866 28.7123 26.8048 28.2951 26.9868 27.8618C27.8576 28.0617 28.748 28.1635 29.6418 28.1654C30.8417 28.167 32.0336 27.9725 33.1704 27.5902C33.4008 28.2742 33.7226 29.671 33.0235 30.7982L33.0235 30.7986ZM12.4295 40.5639C12.302 40.6952 12.1755 40.8255 12.0813 40.924C11.8802 41.1342 11.735 41.2864 11.8111 41.5582C11.9344 41.9963 11.725 42.178 11.5036 42.2983L11.5032 42.298C11.3612 42.3699 11.1992 42.3924 11.043 42.3619C10.3865 42.2605 9.72068 42.2351 9.05837 42.2861L7.49918 42.5529V42.5532C7.41204 42.5801 7.31715 42.5711 7.23646 42.5285C7.15739 42.4871 7.09832 42.4155 7.0725 42.3304C7.0441 42.2377 7.05863 42.1372 7.1122 42.0563C7.16642 41.9726 7.2555 41.9174 7.35491 41.9058C7.98168 41.8275 8.86114 41.6336 9.4505 41.3242L9.6493 41.2196C9.9288 41.0729 10.1944 40.9019 10.4433 40.708L11.7481 39.6915L12.5928 40.3951C12.5373 40.4525 12.4808 40.5106 12.4295 40.5636L12.4295 40.5639ZM42.5191 42.3949C42.6098 42.4344 42.6779 42.5124 42.7047 42.6074C42.7318 42.7008 42.7157 42.8013 42.6608 42.8812C42.6095 42.956 42.5307 43.0073 42.4417 43.024C42.3526 43.0407 42.2603 43.0218 42.1854 42.9707L41.4014 42.4392V42.4395C41.0086 42.1735 40.5771 41.969 40.1221 41.8333L39.2771 41.5813C39.197 41.5572 39.1328 41.4975 39.1034 41.4195C39.0789 41.3595 39.085 41.2915 39.1199 41.2366C39.1241 41.2298 39.1286 41.2234 39.1335 41.2176L39.2035 41.1275L39.2032 41.1271C39.6925 41.27 40.215 41.2507 40.6923 41.0726L40.9198 41.2985V41.2982C41.3817 41.7572 41.9236 42.1288 42.5191 42.3949ZM37.6837 29.6556L41.4385 31.986C41.7513 32.1927 41.9921 32.4902 42.1279 32.8382C42.2638 33.1861 42.288 33.5674 42.1973 33.9297L41.3243 37.0632C41.1284 37.8066 40.9261 38.5752 40.8941 39.3565C40.8935 39.3709 40.8925 39.3857 40.8909 39.4004C40.8589 39.7233 40.6301 39.992 40.5333 40.0841L40.4733 40.113H40.4729C40.0869 40.2959 39.6383 40.2946 39.2536 40.1091C39.2329 40.0959 39.2197 40.0738 39.2171 40.0497L38.5648 35.8802C38.4999 35.4623 38.2092 35.1141 37.808 34.9742L33.721 33.2923C33.7107 33.2881 33.7003 33.2843 33.69 33.2808H33.6897C32.0282 32.7233 30.2149 32.8208 28.6235 33.5529L14.3007 40.3152C14.191 40.363 14.0638 40.3454 13.9715 40.2699L12.453 39.0195C12.3839 38.9633 12.3432 38.8799 12.341 38.7913C12.339 38.7024 12.3761 38.6173 12.4426 38.5583C16.2056 35.1969 18.9944 33.7321 21.6915 32.315C22.7101 31.78 23.7636 31.2267 24.8535 30.58C25.1527 30.4021 25.4287 30.1887 25.6759 29.9445L32.8071 31.745H32.8074C32.8839 31.7643 32.9626 31.7742 33.042 31.7742C33.3625 31.7749 33.6611 31.6115 33.8328 31.3419C34.1988 30.753 34.4014 30.0776 34.4195 29.3854L37.2652 29.2872C37.3855 29.43 37.5266 29.5542 37.6838 29.6556L37.6837 29.6556ZM35.8091 26.2688C36.2278 26.8369 36.6122 27.4599 36.7639 28.3078C36.7655 28.3165 36.7677 28.3252 36.7694 28.3338L34.3668 28.4166C34.3087 28.0154 34.2129 27.6207 34.0809 27.2371C34.688 26.9724 35.2669 26.6482 35.8091 26.2688ZM43.1029 12.1373L41.8497 15.6643C41.7328 15.9926 41.4985 16.267 41.1919 16.4355L36.413 19.0661C35.4838 19.5732 34.8412 20.4777 34.6711 21.5183L34.3829 23.2611H34.3826C34.3632 23.3849 34.359 23.5104 34.3696 23.6353C34.0621 23.7335 33.5921 23.8773 33.0192 24.032C32.0506 23.0649 31.0466 21.3022 30.2378 19.6618L31.4946 16.0103L38.3469 15.4156C38.3537 15.4149 38.3601 15.4143 38.3666 15.4133C38.7284 15.3681 39.0708 15.2249 39.3564 14.9996C39.6421 14.7743 39.8599 14.4752 39.9864 14.1352L40.9447 11.5634C41.0005 11.4161 41.158 11.3333 41.312 11.3702L42.8802 11.7377C42.9667 11.7572 43.0409 11.8131 43.0832 11.8908C43.1252 11.9662 43.1323 12.0561 43.1029 12.1373ZM43.7765 10.1047L43.0355 10.7774L42.0966 10.5572L42.2693 7.68464C42.2951 7.29114 42.6182 6.98206 43.0145 6.97115C43.4108 6.96024 43.7504 7.25135 43.7978 7.64292L44.0192 9.45473C44.0486 9.6977 43.9582 9.93968 43.7765 10.1047Z" fill="url(#paint0_linear_6180_40132)"/>
<path d="M15.6655 36.6487C15.4902 36.7838 15.3137 36.9225 15.1404 37.0605C15.0394 37.1411 14.9748 37.2582 14.9606 37.386C14.9467 37.514 14.9842 37.6421 15.0652 37.7425C15.2337 37.9515 15.5409 37.9849 15.751 37.8173C15.9198 37.6825 16.0925 37.5474 16.2632 37.4158V37.4155C16.4759 37.2515 16.515 36.9466 16.3497 36.7351C16.1848 36.5232 15.8785 36.4844 15.6655 36.6487Z" fill="url(#paint1_linear_6180_40132)"/>
<path d="M23.3735 31.9481C23.1211 32.0819 22.8687 32.2148 22.6169 32.3467C20.9558 33.2194 19.2378 34.1219 17.3019 35.4548V35.4545C17.0805 35.6073 17.0253 35.9093 17.1786 36.1298C17.3323 36.35 17.636 36.4049 17.8577 36.2521C19.7455 34.9522 21.437 34.0635 23.0727 33.2039C23.3257 33.0711 23.5787 32.9375 23.8321 32.8037V32.804C24.0674 32.6769 24.1558 32.3848 24.0296 32.1496C23.9037 31.9146 23.611 31.8245 23.3735 31.9477V31.9481Z" fill="url(#paint2_linear_6180_40132)"/>
<defs>
<linearGradient id="paint0_linear_6180_40132" x1="37.6624" y1="33.2077" x2="37.6624" y2="40.818" gradientUnits="userSpaceOnUse">
<stop stop-color="#ED3040"/>
<stop offset="1" stop-color="#2D23F4"/>
</linearGradient>
<linearGradient id="paint1_linear_6180_40132" x1="37.6624" y1="33.2077" x2="37.6624" y2="40.818" gradientUnits="userSpaceOnUse">
<stop stop-color="#ED3040"/>
<stop offset="1" stop-color="#2D23F4"/>
</linearGradient>
<linearGradient id="paint2_linear_6180_40132" x1="37.6624" y1="33.2077" x2="37.6624" y2="40.818" gradientUnits="userSpaceOnUse">
<stop stop-color="#ED3040"/>
<stop offset="1" stop-color="#2D23F4"/>
</linearGradient>
</defs>
</svg>
