<svg width="50" height="50" viewBox="0 0 50 50" fill="none" xmlns="http://www.w3.org/2000/svg">
<path d="M41.7975 10.5494L42.4876 7.18177C42.4963 7.14058 42.5 7.09815 42.5 7.05697C42.5 5.92229 41.5612 5 40.4075 5H40.3811L23.545 5.71508L14.7788 5.00248C14.7614 5.00124 14.745 5 14.7276 5H9.59251C8.43879 5 7.5 5.9226 7.5 7.05696C7.5 7.12572 7.51116 7.19291 7.53381 7.25796L8.21891 9.26505L7.50775 14.1306C7.50279 14.1607 7.50155 14.1904 7.50155 14.2205C7.50155 15.1106 8.08029 15.868 8.88663 16.1539C8.78553 16.3685 8.72908 16.6033 8.72908 16.8504C8.72908 16.8916 8.7328 16.9328 8.74148 16.9727L10.149 24.0189L8.74649 29.8693C8.73532 29.9167 8.72912 29.9653 8.72912 30.0143V43.179C8.72912 44.1827 9.65306 45 10.7891 45H17.963C19.0993 45 20.0229 44.1836 20.0229 43.179V37.4583C20.0229 37.437 20.0229 37.4147 20.0192 37.3933L19.3068 30.5967L20.0217 16.8826V16.8501C20.0217 16.4168 19.8493 16.0189 19.5618 15.7054L22.0317 15.5632L26.3657 16.2684C26.3995 16.2734 26.4321 16.2758 26.4655 16.2758H30.0818C30.0142 16.4555 29.9755 16.6478 29.9755 16.8488V16.8875L30.6879 28.1851L29.9829 32.3019C29.9767 32.3369 29.9742 32.3719 29.9742 32.4069V43.1781C29.9742 44.1818 30.8982 44.9991 32.0342 44.9991H39.2081C40.3444 44.9991 41.2681 44.1828 41.2681 43.1781C41.2681 43.1555 41.2681 43.1332 41.2643 43.1106L40.5532 36.5863L41.2656 27.6687C41.2668 27.6526 41.2681 27.6349 41.2681 27.6188V16.8508C41.2681 16.6036 41.2119 16.3689 41.1105 16.1543C41.9169 15.8684 42.4956 15.1109 42.4956 14.2208V12.0716C42.4956 11.9731 42.4717 11.8755 42.4267 11.787L41.7931 10.5488L41.7975 10.5494ZM18.7724 43.1802C18.7724 43.4911 18.4011 43.7531 17.9623 43.7531H10.7871C10.3483 43.7531 9.97702 43.4911 9.97702 43.1802V30.0892L11.3547 24.3425L13.3499 22.2843C13.4922 22.1369 13.5537 21.9285 13.5136 21.7275L12.7736 18.0266C12.706 17.6884 12.3773 17.4698 12.0386 17.5373C11.6999 17.6048 11.4797 17.9331 11.5486 18.2713L12.2234 21.6516L11.1671 22.7427L9.98079 16.8037C10.0158 16.5141 10.371 16.2781 10.7884 16.2781H17.9623C18.3962 16.2781 18.7625 16.5339 18.7724 16.8387L18.0563 30.5814C18.0551 30.6139 18.0563 30.6464 18.0588 30.6786L18.7724 37.4913L18.7724 43.1802ZM39.2132 43.7531H32.0392C31.6004 43.7531 31.2291 43.4911 31.2291 43.1802V32.4613L31.9378 28.3247C31.9465 28.2773 31.949 28.2287 31.9453 28.1798L31.2291 16.8345C31.2403 16.5413 31.5818 16.2954 31.993 16.2777L35.5231 16.8668C35.6394 16.8866 35.7582 16.8729 35.8667 16.8268L37.1854 16.2765H39.2128C39.6517 16.2765 40.0229 16.5385 40.0229 16.8494V27.596L39.3155 36.4399L37.5769 40.3182C37.4357 40.6329 37.5769 41.0023 37.892 41.1432C37.9745 41.1807 38.0619 41.198 38.1469 41.198C38.3857 41.198 38.6143 41.0608 38.7182 40.8286L39.5581 38.9537L40.0217 43.2052C40.0019 43.5047 39.6393 43.7518 39.2128 43.7518L39.2132 43.7531ZM41.2508 14.2207C41.2508 14.6663 40.8733 15.0296 40.4082 15.0296H26.5176L25.38 14.8447L27.6339 14.3467C27.9713 14.2718 28.1838 13.9386 28.109 13.6028C28.034 13.2659 27.7015 13.0538 27.3641 13.1284L21.9778 14.3179L9.57516 15.0305C9.13135 15.0231 8.77 14.6837 8.74896 14.2603L9.47531 9.29746C9.48896 9.20021 9.48027 9.09895 9.44895 9.00542L8.75392 6.96827C8.80013 6.56381 9.15772 6.24793 9.59132 6.24793H14.7015L23.4805 6.96177C23.5068 6.96425 23.5316 6.96425 23.558 6.96301L40.4188 6.24793C40.8589 6.25413 41.2189 6.58488 41.2475 7.00296L40.8499 8.94505L40.5348 8.42197C40.3574 8.12621 39.9734 8.03113 39.6772 8.20859C39.381 8.38574 39.2858 8.77037 39.4635 9.06491L40.5937 10.941L41.2487 12.2204V14.2189L41.2508 14.2207ZM12.0113 8.76975C12.1226 9.09555 11.9474 9.45139 11.6211 9.56226C11.5547 9.58487 11.4862 9.59602 11.4198 9.59602C11.1599 9.59602 10.9174 9.4325 10.8287 9.17298L10.5387 8.32284C10.4273 7.99704 10.6026 7.6412 10.9288 7.53033C11.2551 7.41916 11.6102 7.59413 11.7225 7.91993L12.0125 8.77007L12.0113 8.76975ZM17.5188 37.5252C17.5551 37.8684 17.3051 38.1756 16.9624 38.2106C16.9397 38.213 16.9187 38.2143 16.896 38.2143C16.5797 38.2143 16.3086 37.9758 16.2748 37.655L15.5509 30.7448C15.5146 30.4016 15.7646 30.0944 16.1073 30.0594C16.451 30.0232 16.7586 30.2728 16.7937 30.615L17.5175 37.5252H17.5188ZM34.4502 28.4594L33.7189 32.7269C33.6665 33.0314 33.4025 33.2463 33.1039 33.2463C33.0688 33.2463 33.0338 33.2438 32.9975 33.2376C32.6576 33.1791 32.4287 32.857 32.4864 32.5173L33.2177 28.2497C33.2763 27.9103 33.5989 27.6817 33.9391 27.7393C34.279 27.7979 34.5079 28.1199 34.4502 28.4597V28.4594ZM37.5616 18.7743C37.2167 18.7743 36.9367 18.4947 36.9367 18.1503C36.9367 17.8059 37.2167 17.5262 37.5616 17.5262H38.1478C38.4927 17.5262 38.7727 17.8059 38.7727 18.1503C38.7727 18.4947 38.4927 18.7743 38.1478 18.7743H37.5616Z" fill="url(#paint0_linear_6180_40112)"/>
<defs>
<linearGradient id="paint0_linear_6180_40112" x1="0" y1="0" x2="0" y2="1" gradientUnits="objectBoundingBox">
<stop stop-color="#ED3040"/>
<stop offset="1" stop-color="#2D23F4"/>
</linearGradient>
</defs>
</svg>
