<svg width="50" height="50" viewBox="0 0 50 50" fill="none" xmlns="http://www.w3.org/2000/svg">
<path d="M30.7345 12.8132C26.843 11.0834 21.9385 11.2695 17.9356 13.3322C14.4419 15.131 12.1027 18.0889 11.3501 21.6262C11.2818 21.9893 10.7387 25.2412 11.8418 26.8154C12.2052 27.3301 10.8584 29.1721 10.1313 30.1626C9.17781 31.486 8.57898 32.2816 8.89134 32.9129C9.2849 33.7129 10.8114 34.3141 11.6452 34.5907C11.6452 35.9617 11.7265 40.472 11.7265 40.7788C11.7265 41.1768 11.9573 41.4189 13.3472 41.834V41.8343C15.0693 42.3429 16.861 42.5692 18.6541 42.5045L18.3633 44.3771V44.3767C18.3388 44.5316 18.3825 44.6899 18.483 44.8093C18.5894 44.9353 18.7469 45.0051 18.9107 44.9997H32.5007C32.6437 44.9994 32.7803 44.9417 32.8814 44.8394C32.9799 44.7345 33.0349 44.5954 33.0352 44.4505L32.9795 41.6009V41.6006C32.9669 40.0002 33.257 38.4121 33.8349 36.9216C34.3992 35.4514 35.2633 33.3367 36.1443 31.5982C37.8163 28.3118 38.0259 23.4813 36.6658 19.5807C35.5455 16.3894 33.4971 14.0498 30.7345 12.8129L30.7345 12.8132ZM35.1904 31.1051C34.2882 32.8825 33.4115 35.036 32.8339 36.5277H32.8343C32.206 38.1489 31.8923 39.877 31.9105 41.6178L31.9533 43.9182H19.5176L19.7613 42.3356C20.6844 42.1713 21.5053 41.6442 22.0447 40.8697C22.1386 40.75 22.1784 40.5961 22.1538 40.4456C22.1293 40.295 22.0431 40.1623 21.9164 40.0794C21.7898 39.9966 21.6343 39.9718 21.4884 40.011C21.3428 40.0503 21.2202 40.1502 21.1512 40.2856C20.7132 40.863 20.0617 41.2345 19.3465 41.315H19.1582C16.8405 41.6999 13.6205 40.8348 12.7948 40.4499C12.7948 39.1916 12.7179 34.3655 12.7136 34.1364H12.7139C12.7116 33.8991 12.5551 33.6912 12.329 33.6261C11.3369 33.3321 10.1908 32.8044 9.89134 32.4456H9.89167C10.2043 31.8434 10.575 31.2741 10.9991 30.746C12.2434 29.042 13.5305 27.2865 12.7096 26.1234C11.9954 25.1159 12.2434 22.6421 12.3972 21.7989C13.0816 18.5815 15.2195 15.9049 18.4184 14.2573C22.1432 12.3764 26.7104 12.1903 30.3024 13.8033C33.4412 15.2088 34.9466 17.9159 35.6521 19.9397C36.9004 23.5203 36.7124 28.1127 35.1899 31.1049L35.1904 31.1051Z" fill="url(#paint0_linear_6180_40140)"/>
<path d="M25.3888 14.6817H24.803C21.7606 14.784 18.992 16.4869 17.5027 19.1719C16.0133 21.8565 16.0196 25.1333 17.5196 27.8119C19.0192 30.4912 21.7944 32.1827 24.8374 32.2729H25.4273C28.4548 32.1495 31.2004 30.4429 32.6765 27.7673C34.1523 25.0917 34.1459 21.8324 32.6596 19.1625C31.1732 16.4929 28.4209 14.7971 25.3931 14.6858L25.3888 14.6817ZM28.6474 27.9579C28.5639 28.8076 28.1842 29.5995 27.5762 30.1919C26.9684 30.7844 26.1717 31.1391 25.3292 31.1924C25.1796 31.2011 25.0298 31.2011 24.8799 31.1924C22.6578 31.121 20.5763 30.0752 19.1777 28.327C17.7795 26.5789 17.2029 24.3019 17.5982 22.0893C17.9935 19.8768 19.3217 17.9479 21.2367 16.8053L21.2112 16.8485C21.1512 16.9437 21.0958 17.043 21.0444 17.1426C21.0444 17.1771 21.0059 17.216 20.9887 17.2505C20.9715 17.2851 20.9075 17.4235 20.869 17.5144C20.8305 17.6053 20.8392 17.5835 20.8262 17.6224C20.7765 17.7437 20.7334 17.8681 20.6979 17.9945V18.0291C20.6681 18.1414 20.6379 18.2624 20.6124 18.3838V18.5048C20.6124 18.5481 20.5825 18.6993 20.5696 18.7945V19.3524V19.3521C20.5726 20.5769 21.0504 21.7514 21.9005 22.6238C22.7503 23.4962 23.9044 23.9968 25.1153 24.0183C26.0563 24.0193 26.9585 24.3978 27.6239 25.0708C28.289 25.7437 28.6634 26.656 28.6647 27.6076C28.6657 27.7246 28.6597 27.8416 28.6474 27.9579ZM28.9939 30.1457V30.146C29.5967 29.2008 29.8427 28.0676 29.6859 26.9538C29.5294 25.8403 28.981 24.821 28.1415 24.0834C27.302 23.3455 26.2274 22.9387 25.1154 22.9374C24.1761 22.9313 23.2772 22.5505 22.6147 21.8772C21.9523 21.2042 21.58 20.2933 21.579 19.3437V18.9933C21.6622 18.1444 22.0415 17.3531 22.6486 16.7606C23.2554 16.1678 24.0511 15.8128 24.8929 15.7588H25.3461C27.569 15.8289 29.6515 16.8739 31.051 18.6218C32.4501 20.3696 33.0274 22.6472 32.6325 24.8601C32.2376 27.0733 30.9091 29.003 28.994 30.1459L28.9939 30.1457Z" fill="url(#paint1_linear_6180_40140)"/>
<path d="M25.1155 17.1898C24.6341 17.1885 24.1719 17.3809 23.831 17.7246C23.4902 18.0683 23.2986 18.535 23.2979 19.0218C23.2976 19.5086 23.4889 19.9753 23.8291 20.3197C24.1696 20.664 24.6311 20.8571 25.1125 20.8568C25.5939 20.8565 26.0554 20.6623 26.3953 20.3177C26.7352 19.973 26.9255 19.5056 26.9245 19.0188C26.9245 18.5336 26.7338 18.0686 26.3946 17.7256C26.0551 17.3822 25.5953 17.1898 25.1155 17.1898ZM25.1155 19.7845V19.7842C24.8155 19.7859 24.5436 19.6052 24.4262 19.3255C24.3092 19.0462 24.3695 18.723 24.5791 18.5058C24.7889 18.2888 25.1072 18.2204 25.3861 18.3328C25.6652 18.4447 25.8503 18.7153 25.8552 19.0187C25.8566 19.2179 25.779 19.4094 25.64 19.5505C25.5011 19.692 25.3125 19.7715 25.1155 19.7715L25.1155 19.7845Z" fill="url(#paint2_linear_6180_40140)"/>
<path d="M25.1155 26.1062C24.6344 26.1052 24.1726 26.2973 23.8317 26.6406C23.4909 26.9843 23.2989 27.4504 23.2979 27.9369C23.2972 28.4234 23.4879 28.8904 23.8277 29.2348C24.1673 29.5791 24.6288 29.7729 25.1098 29.7732C25.5909 29.7739 26.0524 29.5808 26.3926 29.2368C26.7331 28.8931 26.9244 28.4264 26.9244 27.9399C26.9254 27.4541 26.7354 26.9877 26.3959 26.6437C26.0567 26.2997 25.596 26.1062 25.1155 26.1062ZM25.1155 28.7009C24.8148 28.7026 24.5429 28.5212 24.4259 28.2412C24.3088 27.9613 24.3698 27.6377 24.5807 27.4211C24.7913 27.2042 25.1102 27.1368 25.3891 27.2505C25.6679 27.3638 25.8519 27.6361 25.8552 27.9398C25.8552 28.1383 25.7773 28.3284 25.6387 28.4689C25.4998 28.6091 25.3118 28.6878 25.1155 28.6878L25.1155 28.7009Z" fill="url(#paint3_linear_6180_40140)"/>
<path d="M24.4653 5.54048V8.39883C24.4653 8.69723 24.7047 8.93931 25.0001 8.93931C25.2952 8.93931 25.5346 8.69723 25.5346 8.39883V5.54048C25.5346 5.24174 25.2952 5 25.0001 5C24.7047 5 24.4653 5.24174 24.4653 5.54048Z" fill="url(#paint4_linear_6180_40140)"/>
<path d="M43.9655 24.1827H41.1174C40.8223 24.1827 40.5829 24.4247 40.5829 24.7231C40.5829 25.0219 40.8223 25.2636 41.1174 25.2636H43.9655C44.2609 25.2636 44.5 25.0219 44.5 24.7231C44.5 24.4247 44.2609 24.1827 43.9655 24.1827Z" fill="url(#paint5_linear_6180_40140)"/>
<path d="M9.41708 24.7225C9.41708 24.5794 9.36071 24.4419 9.26058 24.3403C9.16012 24.2391 9.02417 24.1821 8.8826 24.1821H6.03448C5.73939 24.1821 5.5 24.4241 5.5 24.7225C5.5 25.0213 5.73939 25.263 6.03448 25.263H8.8826C9.02418 25.263 9.16012 25.2064 9.26058 25.1048C9.36071 25.0035 9.41708 24.8661 9.41708 24.7225Z" fill="url(#paint6_linear_6180_40140)"/>
<path d="M38.0342 10.7772L36.0285 12.801C35.878 12.9572 35.8339 13.1892 35.9168 13.3907C35.9997 13.5922 36.1933 13.7243 36.4092 13.7264C36.5511 13.7274 36.687 13.6694 36.7855 13.5664L38.7911 11.5426C39.0003 11.3311 39.0003 10.9884 38.7911 10.7772C38.5822 10.5656 38.2434 10.5656 38.0342 10.7772Z" fill="url(#paint7_linear_6180_40140)"/>
<path d="M11.2089 10.7772C11.1084 10.8784 11.0517 11.0162 11.0517 11.1597C11.0517 11.3032 11.1084 11.441 11.2089 11.5426L13.2145 13.5664C13.313 13.6694 13.4489 13.7274 13.5908 13.7264C13.8067 13.7243 14.0003 13.5922 14.0832 13.3907C14.1661 13.1892 14.1223 12.9572 13.9715 12.801L11.9658 10.7772C11.8657 10.6752 11.7294 10.6182 11.5875 10.6182C11.4453 10.6182 11.3093 10.6753 11.2089 10.7772Z" fill="url(#paint8_linear_6180_40140)"/>
<path d="M31.3499 10.2536C31.5638 10.2513 31.7561 10.1228 31.8419 9.92502L32.9537 7.30006C33.0717 7.02546 32.9474 6.70593 32.6758 6.58657C32.4043 6.46721 32.0883 6.59294 31.9703 6.86754L30.8585 9.49688H30.8582C30.8028 9.62865 30.8012 9.77751 30.8542 9.91062C30.9069 10.0437 31.0101 10.15 31.1404 10.206C31.2063 10.2369 31.2776 10.2529 31.3499 10.2536Z" fill="url(#paint9_linear_6180_40140)"/>
<path d="M42.6482 31.7669L40.0269 30.6209C39.755 30.5015 39.4393 30.6276 39.321 30.9022C39.2029 31.1768 39.3276 31.4963 39.5992 31.6156L42.2291 32.7832C42.295 32.8123 42.3663 32.8271 42.4386 32.8264C42.6926 32.8264 42.9114 32.6457 42.9622 32.3939C43.0132 32.1424 42.8819 31.8893 42.6482 31.7887L42.6482 31.7669Z" fill="url(#paint10_linear_6180_40140)"/>
<path d="M7.77042 16.68C7.49888 16.5606 7.18323 16.6863 7.06486 16.9609C6.94683 17.2355 7.07149 17.5551 7.34304 17.6744L9.96437 18.8073C10.0307 18.8362 10.102 18.8509 10.1739 18.8506C10.4279 18.8506 10.6467 18.6699 10.6978 18.4184C10.7485 18.1666 10.6172 17.9134 10.3835 17.8129L7.77042 16.68Z" fill="url(#paint11_linear_6180_40140)"/>
<path d="M39.9669 19.1923C40.0342 19.192 40.1011 19.1789 40.1635 19.1534L42.802 18.0812C42.9416 18.0342 43.0563 17.9313 43.1187 17.7965C43.181 17.6617 43.1853 17.5068 43.1313 17.3687C43.0769 17.2302 42.9688 17.1206 42.8319 17.0656C42.6953 17.0106 42.5421 17.015 42.4085 17.0777L39.7743 18.1416H39.7746C39.6426 18.1952 39.5375 18.2998 39.4821 18.4323C39.4268 18.5644 39.4258 18.7136 39.4795 18.8463C39.5554 19.0525 39.7494 19.1903 39.9669 19.1923Z" fill="url(#paint12_linear_6180_40140)"/>
<path d="M17.7302 6.40483C17.5975 6.4578 17.4914 6.56207 17.4354 6.69452C17.379 6.82662 17.3774 6.97615 17.4308 7.10993L18.4871 9.7694C18.5667 9.97593 18.7636 10.1117 18.9831 10.1107C19.1602 10.109 19.3253 10.0192 19.4241 9.87065C19.5232 9.72212 19.5438 9.53402 19.4791 9.36705L18.44 6.71626C18.3896 6.57745 18.2852 6.4658 18.1509 6.40678C18.017 6.34811 17.8648 6.34749 17.7302 6.40483Z" fill="url(#paint13_linear_6180_40140)"/>
<defs>
<linearGradient id="paint0_linear_6180_40140" x1="37.3459" y1="33.6397" x2="37.3459" y2="41.6506" gradientUnits="userSpaceOnUse">
<stop stop-color="#ED3040"/>
<stop offset="1" stop-color="#2D23F4"/>
</linearGradient>
<linearGradient id="paint1_linear_6180_40140" x1="37.3459" y1="33.6397" x2="37.3459" y2="41.6506" gradientUnits="userSpaceOnUse">
<stop stop-color="#ED3040"/>
<stop offset="1" stop-color="#2D23F4"/>
</linearGradient>
<linearGradient id="paint2_linear_6180_40140" x1="37.3459" y1="33.6397" x2="37.3459" y2="41.6506" gradientUnits="userSpaceOnUse">
<stop stop-color="#ED3040"/>
<stop offset="1" stop-color="#2D23F4"/>
</linearGradient>
<linearGradient id="paint3_linear_6180_40140" x1="37.3459" y1="33.6397" x2="37.3459" y2="41.6506" gradientUnits="userSpaceOnUse">
<stop stop-color="#ED3040"/>
<stop offset="1" stop-color="#2D23F4"/>
</linearGradient>
<linearGradient id="paint4_linear_6180_40140" x1="37.3459" y1="33.6397" x2="37.3459" y2="41.6506" gradientUnits="userSpaceOnUse">
<stop stop-color="#ED3040"/>
<stop offset="1" stop-color="#2D23F4"/>
</linearGradient>
<linearGradient id="paint5_linear_6180_40140" x1="37.3459" y1="33.6397" x2="37.3459" y2="41.6506" gradientUnits="userSpaceOnUse">
<stop stop-color="#ED3040"/>
<stop offset="1" stop-color="#2D23F4"/>
</linearGradient>
<linearGradient id="paint6_linear_6180_40140" x1="37.3459" y1="33.6397" x2="37.3459" y2="41.6506" gradientUnits="userSpaceOnUse">
<stop stop-color="#ED3040"/>
<stop offset="1" stop-color="#2D23F4"/>
</linearGradient>
<linearGradient id="paint7_linear_6180_40140" x1="37.3459" y1="33.6397" x2="37.3459" y2="41.6506" gradientUnits="userSpaceOnUse">
<stop stop-color="#ED3040"/>
<stop offset="1" stop-color="#2D23F4"/>
</linearGradient>
<linearGradient id="paint8_linear_6180_40140" x1="37.3459" y1="33.6397" x2="37.3459" y2="41.6506" gradientUnits="userSpaceOnUse">
<stop stop-color="#ED3040"/>
<stop offset="1" stop-color="#2D23F4"/>
</linearGradient>
<linearGradient id="paint9_linear_6180_40140" x1="37.3459" y1="33.6397" x2="37.3459" y2="41.6506" gradientUnits="userSpaceOnUse">
<stop stop-color="#ED3040"/>
<stop offset="1" stop-color="#2D23F4"/>
</linearGradient>
<linearGradient id="paint10_linear_6180_40140" x1="37.3459" y1="33.6397" x2="37.3459" y2="41.6506" gradientUnits="userSpaceOnUse">
<stop stop-color="#ED3040"/>
<stop offset="1" stop-color="#2D23F4"/>
</linearGradient>
<linearGradient id="paint11_linear_6180_40140" x1="37.3459" y1="33.6397" x2="37.3459" y2="41.6506" gradientUnits="userSpaceOnUse">
<stop stop-color="#ED3040"/>
<stop offset="1" stop-color="#2D23F4"/>
</linearGradient>
<linearGradient id="paint12_linear_6180_40140" x1="37.3459" y1="33.6397" x2="37.3459" y2="41.6506" gradientUnits="userSpaceOnUse">
<stop stop-color="#ED3040"/>
<stop offset="1" stop-color="#2D23F4"/>
</linearGradient>
<linearGradient id="paint13_linear_6180_40140" x1="37.3459" y1="33.6397" x2="37.3459" y2="41.6506" gradientUnits="userSpaceOnUse">
<stop stop-color="#ED3040"/>
<stop offset="1" stop-color="#2D23F4"/>
</linearGradient>
</defs>
</svg>
