<svg width="50" height="50" viewBox="0 0 50 50" fill="none" xmlns="http://www.w3.org/2000/svg">
<path d="M14.0697 13.1135C14.7176 13.1135 15.0007 13.3558 15.2031 14.2033C15.4055 15.0507 15.5675 15.616 15.689 15.8178H17.2677C17.1462 15.5352 16.9438 14.6474 16.7008 13.8802C16.5389 13.2343 16.2555 12.7905 15.7699 12.5887V12.5483C16.3772 12.3465 16.9842 11.7409 16.9842 10.8531C16.9842 10.2071 16.7413 9.72302 16.3364 9.39999C15.8505 8.99628 15.1221 8.87516 14.1098 8.87516C13.2599 8.87516 12.5311 8.9559 12.0452 9.03665V15.8178H13.5835L13.5841 13.1135L14.0697 13.1135ZM13.6247 10.1267C13.7461 10.0863 13.9486 10.0863 14.313 10.0863C15.0418 10.0863 15.4463 10.4093 15.4463 11.0146C15.4463 11.6201 15.001 11.9832 14.1915 11.9832H13.5842V10.1267L13.6247 10.1267Z" fill="url(#paint0_linear_6180_40120)"/>
<path d="M20.8305 15.9384C22.6117 15.9384 23.7047 14.9295 23.7047 12.8305V8.99587H22.1664V12.9112C22.1664 14.122 21.721 14.6873 20.9115 14.6873C20.1422 14.6873 19.6567 14.0817 19.6567 12.9112V8.9555H18.1184V12.7901C18.0779 14.9698 19.0898 15.9384 20.8305 15.9384Z" fill="url(#paint1_linear_6180_40120)"/>
<path d="M31.2745 10.6908H33.0557V14.485C33.0557 14.7273 33.2177 14.8888 33.4606 14.8888C33.7036 14.8888 33.8655 14.7273 33.8655 14.485L33.8652 10.2874C33.8652 10.0451 33.7032 9.88364 33.4603 9.88364H31.2742C31.0313 9.88364 30.8693 10.0451 30.8693 10.2874C30.8696 10.5296 31.0316 10.6908 31.2745 10.6908Z" fill="url(#paint2_linear_6180_40120)"/>
<path d="M29.0078 26.4737H26.1742V24.8189H28.7243V23.5677H26.1742V22.1547H28.8863V20.8631H24.6359V27.7249H29.0078V26.4737Z" fill="url(#paint3_linear_6180_40120)"/>
<path d="M31.841 26.5539C31.1932 26.5539 30.5052 26.352 30.1003 26.1098L29.7764 27.4013C30.1812 27.6032 30.9502 27.8454 31.7196 27.8454C33.6223 27.8454 34.4722 26.8768 34.4722 25.7061C34.4722 24.7375 33.9054 24.0916 32.691 23.6475C31.8006 23.3245 31.3957 23.1226 31.3957 22.6789C31.3957 22.3155 31.7196 22.0329 32.4076 22.0329C33.0554 22.0329 33.5814 22.2348 33.8244 22.3559L34.1888 21.1047C33.7839 20.9029 33.2174 20.7414 32.4481 20.7414C30.8289 20.7414 29.8574 21.6292 29.8574 22.8C29.8574 23.8089 30.6267 24.4145 31.7601 24.8182C32.5699 25.1008 32.934 25.343 32.934 25.7868C32.9343 26.2712 32.5699 26.5538 31.8411 26.5538L31.841 26.5539Z" fill="url(#paint4_linear_6180_40120)"/>
<path d="M21.8831 30.631C21.6402 30.631 21.4782 30.7925 21.4782 31.0347C21.4782 31.2769 21.6402 31.4384 21.8831 31.4384H36.9424C37.1854 31.4384 37.3473 31.2769 37.3473 31.0347C37.347 30.7925 37.1851 30.631 36.9421 30.631H21.8831Z" fill="url(#paint5_linear_6180_40120)"/>
<path d="M21.8831 32.9319C21.6402 32.9319 21.4782 33.0934 21.4782 33.3356C21.4782 33.5778 21.6402 33.7393 21.8831 33.7393H36.9424C37.1854 33.7393 37.3473 33.5779 37.3473 33.3356C37.347 33.0934 37.1851 32.9319 36.9421 32.9319H21.8831Z" fill="url(#paint6_linear_6180_40120)"/>
<path d="M21.8831 35.2321C21.6402 35.2321 21.4782 35.3935 21.4782 35.6358C21.4782 35.878 21.6402 36.0395 21.8831 36.0395H36.9424C37.1854 36.0395 37.3473 35.878 37.3473 35.6358C37.347 35.3935 37.1851 35.2321 36.9421 35.2321H21.8831Z" fill="url(#paint7_linear_6180_40120)"/>
<path d="M21.8831 37.533C21.6402 37.533 21.4782 37.6945 21.4782 37.9367C21.4782 38.1789 21.6402 38.3404 21.8831 38.3404H31.8418C32.0847 38.3404 32.2467 38.1789 32.2467 37.9367C32.2464 37.6945 32.0844 37.533 31.8415 37.533H21.8831Z" fill="url(#paint8_linear_6180_40120)"/>
<path d="M43.3785 15.3336C43.2166 15.1721 42.9736 15.1721 42.8117 15.3336L41.6783 16.4636C40.99 15.5354 39.8971 14.9298 38.6423 14.9298C37.104 14.9298 35.7681 15.858 35.2013 17.1903L28.7649 17.1899V6.41269C28.7649 5.64564 28.117 5 27.348 5H7.91682C7.14784 5 6.5 5.64594 6.5 6.41269V31.9626C6.5 32.7296 7.14783 33.3753 7.91682 33.3753H18.2395V39.7123C18.2395 39.8334 18.28 39.9142 18.3609 39.9949L23.2592 44.8789C23.3402 44.9596 23.4616 45 23.5426 45H39.0474C39.8974 45 40.5857 44.3137 40.5857 43.4662L40.5854 21.8316C41.6378 21.1856 42.3666 20.0152 42.3666 18.6428C42.3666 18.118 42.2452 17.6339 42.0832 17.1898L43.3785 15.8982C43.5405 15.7364 43.5405 15.4942 43.3785 15.333V15.3336ZM7.95754 32.609C7.63363 32.609 7.3502 32.3264 7.3502 32.0035V6.41352C7.3502 6.09055 7.63362 5.80795 7.95754 5.80795H27.3888C27.7127 5.80795 27.9961 6.09054 27.9961 6.41352V17.1499H19.7786C18.9287 17.1499 18.2403 17.8362 18.2403 18.6837V18.8048H10.1032C9.86026 18.8048 9.6983 18.9663 9.6983 19.2086C9.6983 19.4508 9.86025 19.6123 10.1032 19.6123H18.2403V21.1057H10.1032C9.86026 21.1057 9.6983 21.2672 9.6983 21.5094C9.6983 21.7517 9.86025 21.9132 10.1032 21.9132H18.2403V23.4066H10.1032C9.86026 23.4066 9.6983 23.5681 9.6983 23.8103C9.6983 24.0525 9.86025 24.214 10.1032 24.214H18.2403V25.7075L10.1032 25.7072C9.86026 25.7072 9.6983 25.8686 9.6983 26.1109C9.6983 26.3531 9.86025 26.5146 10.1032 26.5146H18.2403V32.6094L7.95754 32.609ZM22.4094 40.1569C22.8143 40.1569 23.1382 40.4798 23.1382 40.8836V43.6686L19.6163 40.1569L22.4094 40.1569ZM39.7764 43.507C39.7764 43.9107 39.4525 44.2337 39.0476 44.2337H23.9481V40.8836C23.9481 40.0361 23.2598 39.3497 22.4098 39.3497H19.0498V18.7238C19.0498 18.3201 19.3738 17.9971 19.7787 17.9971H34.9191C34.8786 18.199 34.8382 18.4412 34.8382 18.6834C34.8382 20.742 36.5384 22.4373 38.603 22.4373C39.0079 22.4373 39.4128 22.3565 39.7768 22.2354L39.7764 43.507ZM41.5573 18.6838C41.5573 20.2983 40.2215 21.6302 38.6022 21.6302C36.983 21.6302 35.6472 20.2983 35.6472 18.6838C35.6472 17.0693 36.983 15.7373 38.6022 15.7373C39.6142 15.7373 40.5455 16.2622 41.0714 17.0693L38.8448 19.2894L37.6305 18.0786C37.4685 17.9171 37.2256 17.9171 37.0636 18.0786C36.9017 18.2401 36.9017 18.4823 37.0636 18.6438L38.5615 20.1372C38.6424 20.218 38.7234 20.2583 38.8449 20.2583C38.9663 20.2583 39.0473 20.218 39.1283 20.1372L41.4359 17.8364C41.5172 18.0783 41.5573 18.3608 41.5573 18.6838Z" fill="url(#paint9_linear_6180_40120)"/>
<defs>
<linearGradient id="paint0_linear_6180_40120" x1="0" y1="0" x2="0" y2="1" gradientUnits="objectBoundingBox">
<stop stop-color="#ED3040"/>
<stop offset="1" stop-color="#2D23F4"/>
</linearGradient>
<linearGradient id="paint1_linear_6180_40120" x1="0" y1="0" x2="0" y2="1" gradientUnits="objectBoundingBox">
<stop stop-color="#ED3040"/>
<stop offset="1" stop-color="#2D23F4"/>
</linearGradient>
<linearGradient id="paint2_linear_6180_40120" x1="0" y1="0" x2="0" y2="1" gradientUnits="objectBoundingBox">
<stop stop-color="#ED3040"/>
<stop offset="1" stop-color="#2D23F4"/>
</linearGradient>
<linearGradient id="paint3_linear_6180_40120" x1="0" y1="0" x2="0" y2="1" gradientUnits="objectBoundingBox">
<stop stop-color="#ED3040"/>
<stop offset="1" stop-color="#2D23F4"/>
</linearGradient>
<linearGradient id="paint4_linear_6180_40120" x1="0" y1="0" x2="0" y2="1" gradientUnits="objectBoundingBox">
<stop stop-color="#ED3040"/>
<stop offset="1" stop-color="#2D23F4"/>
</linearGradient>
<linearGradient id="paint5_linear_6180_40120" x1="0" y1="0" x2="0" y2="1" gradientUnits="objectBoundingBox">
<stop stop-color="#ED3040"/>
<stop offset="1" stop-color="#2D23F4"/>
</linearGradient>
<linearGradient id="paint6_linear_6180_40120" x1="0" y1="0" x2="0" y2="1" gradientUnits="objectBoundingBox">
<stop stop-color="#ED3040"/>
<stop offset="1" stop-color="#2D23F4"/>
</linearGradient>
<linearGradient id="paint7_linear_6180_40120" x1="0" y1="0" x2="0" y2="1" gradientUnits="objectBoundingBox">
<stop stop-color="#ED3040"/>
<stop offset="1" stop-color="#2D23F4"/>
</linearGradient>
<linearGradient id="paint8_linear_6180_40120" x1="0" y1="0" x2="0" y2="1" gradientUnits="objectBoundingBox">
<stop stop-color="#ED3040"/>
<stop offset="1" stop-color="#2D23F4"/>
</linearGradient>
<linearGradient id="paint9_linear_6180_40120" x1="0" y1="0" x2="0" y2="1" gradientUnits="objectBoundingBox">
<stop stop-color="#ED3040"/>
<stop offset="1" stop-color="#2D23F4"/>
</linearGradient>
</defs>
</svg>
