<svg width="50" height="50" viewBox="0 0 50 50" fill="none" xmlns="http://www.w3.org/2000/svg">
<path d="M44.3553 16.6003H42.4197V15.9546C42.4197 15.7835 42.3518 15.6192 42.2308 15.4981C42.1098 15.3771 41.9456 15.3092 41.7746 15.3092H39.461L44.0093 10.7589H44.0096C44.8532 9.90178 45.1784 8.6613 44.8644 7.50027C44.5503 6.33924 43.644 5.43215 42.4835 5.11762C41.3229 4.80342 40.083 5.12883 39.2263 5.97281L29.8947 15.3094H29.6735C27.9627 15.3043 26.3062 15.9093 25.0007 17.0153C23.6951 15.9094 22.0383 15.3043 20.3275 15.3094H8.22575C7.86943 15.3094 7.58066 15.5983 7.58066 15.9548V16.6002L5.64509 16.6005C5.28877 16.6005 5 16.8894 5 17.2459V44.3546C5 44.5257 5.06819 44.69 5.18889 44.811C5.3099 44.9321 5.47414 45 5.64509 45H44.3549C44.5259 45 44.6901 44.9321 44.8111 44.811C44.9321 44.69 45 44.5257 45 44.3546V17.2459C45 17.0745 44.9321 16.9105 44.8111 16.7895C44.6901 16.6684 44.5259 16.6005 44.3549 16.6005L44.3553 16.6003ZM41.1295 16.6003V40.4817H29.6728C28.2379 40.4798 26.8354 40.9071 25.645 41.7081V18.1759C26.6218 17.274 27.8739 16.7283 29.1993 16.6267L28.3204 18.8213L27.1244 20.0186C27.0037 20.1393 26.9358 20.3027 26.9352 20.4731V24.3456C26.9352 24.6067 27.0923 24.8421 27.3334 24.942C27.4115 24.9747 27.4957 24.9913 27.5806 24.9913C27.7515 24.9913 27.9158 24.9231 28.0365 24.802L31.1681 21.669L34.2719 20.4272H34.2722C34.3529 20.3942 34.4265 20.3455 34.4883 20.2837L38.1703 16.6004L41.1295 16.6003ZM40.2171 12.7277L34.0326 18.9147L31.0738 15.9546L37.2583 9.76724L40.2171 12.7277ZM38.1707 8.85481L39.1939 7.83088L42.1527 10.791L41.1295 11.8149L38.1707 8.85481ZM32.8842 19.5911L30.9624 20.3604L29.6281 19.0264L30.397 17.103L32.8842 19.5911ZM28.8712 20.0946L29.8943 21.1182L28.2261 22.7875V20.7398L28.8712 20.0946ZM41.6179 6.27288C42.1727 6.27256 42.7052 6.49292 43.0973 6.8856C43.4898 7.27795 43.7104 7.81024 43.7104 8.36534C43.7104 8.92071 43.4898 9.45306 43.0973 9.8454L43.065 9.87839L40.1062 6.91826L40.1385 6.88591C40.5301 6.49228 41.0627 6.27129 41.6179 6.27288ZM8.87128 16.6H20.3272C21.8204 16.5977 23.2594 17.1605 24.355 18.1755V41.7077C23.1647 40.9066 21.7621 40.4794 20.3272 40.4813H8.87128V16.6ZM43.7103 43.7087H6.29046V17.8906H7.58062V41.1267C7.58062 41.2978 7.64881 41.4621 7.76951 41.5831C7.89052 41.7039 8.05476 41.7721 8.22571 41.7721H20.3274C21.91 41.7676 23.4284 42.3967 24.5444 43.5193C24.7963 43.7714 25.2045 43.7714 25.4565 43.5193C26.5725 42.3967 28.091 41.7677 29.6734 41.7721H41.7751C41.9461 41.7721 42.1103 41.7039 42.2313 41.5831C42.3523 41.4621 42.4202 41.2978 42.4202 41.1267V17.8906H43.7104L43.7103 43.7087Z" fill="url(#paint0_linear_6180_40118)"/>
<path d="M12.7421 19.1822H19.1936V20.473H12.7421V19.1822Z" fill="url(#paint1_linear_6180_40118)"/>
<path d="M11.4521 21.7642H21.7746V23.055H11.4521V21.7642Z" fill="url(#paint2_linear_6180_40118)"/>
<path d="M11.4521 24.3454H21.7746V25.6361H11.4521V24.3454Z" fill="url(#paint3_linear_6180_40118)"/>
<path d="M11.4521 32.0913H21.7746V33.3821H11.4521V32.0913Z" fill="url(#paint4_linear_6180_40118)"/>
<path d="M11.4521 26.9274H19.1941V28.2181H11.4521V26.9274Z" fill="url(#paint5_linear_6180_40118)"/>
<path d="M20.4837 19.1822H21.7739V20.473H20.4837V19.1822Z" fill="url(#paint6_linear_6180_40118)"/>
<path d="M20.4837 26.9274H21.7739V28.2181H20.4837V26.9274Z" fill="url(#paint7_linear_6180_40118)"/>
<path d="M11.4521 29.5093H19.1941V30.8001H11.4521V29.5093Z" fill="url(#paint8_linear_6180_40118)"/>
<path d="M20.4837 29.5093H21.7739V30.8001H20.4837V29.5093Z" fill="url(#paint9_linear_6180_40118)"/>
<path d="M29.5162 23.7001H35.9677V24.9908H29.5162V23.7001Z" fill="url(#paint10_linear_6180_40118)"/>
<path d="M28.2262 26.2821H38.5486V27.5728H28.2262V26.2821Z" fill="url(#paint11_linear_6180_40118)"/>
<path d="M28.2262 28.864H38.5486V30.1548H28.2262V28.864Z" fill="url(#paint12_linear_6180_40118)"/>
<path d="M28.2262 36.61H38.5486V37.9007H28.2262V36.61Z" fill="url(#paint13_linear_6180_40118)"/>
<path d="M28.2262 31.446H35.9682V32.7368H28.2262V31.446Z" fill="url(#paint14_linear_6180_40118)"/>
<path d="M37.2586 23.7001H38.5488V24.9908H37.2586V23.7001Z" fill="url(#paint15_linear_6180_40118)"/>
<path d="M37.2586 31.446H38.5488V32.7368H37.2586V31.446Z" fill="url(#paint16_linear_6180_40118)"/>
<path d="M28.2262 34.028H35.9682V35.3188H28.2262V34.028Z" fill="url(#paint17_linear_6180_40118)"/>
<path d="M37.2586 34.028H38.5488V35.3188H37.2586V34.028Z" fill="url(#paint18_linear_6180_40118)"/>
<defs>
<linearGradient id="paint0_linear_6180_40118" x1="0" y1="0" x2="0" y2="1" gradientUnits="objectBoundingBox">
<stop stop-color="#ED3040"/>
<stop offset="1" stop-color="#2D23F4"/>
</linearGradient>
<linearGradient id="paint1_linear_6180_40118" x1="0" y1="0" x2="0" y2="1" gradientUnits="objectBoundingBox">
<stop stop-color="#ED3040"/>
<stop offset="1" stop-color="#2D23F4"/>
</linearGradient>
<linearGradient id="paint2_linear_6180_40118" x1="0" y1="0" x2="0" y2="1" gradientUnits="objectBoundingBox">
<stop stop-color="#ED3040"/>
<stop offset="1" stop-color="#2D23F4"/>
</linearGradient>
<linearGradient id="paint3_linear_6180_40118" x1="0" y1="0" x2="0" y2="1" gradientUnits="objectBoundingBox">
<stop stop-color="#ED3040"/>
<stop offset="1" stop-color="#2D23F4"/>
</linearGradient>
<linearGradient id="paint4_linear_6180_40118" x1="0" y1="0" x2="0" y2="1" gradientUnits="objectBoundingBox">
<stop stop-color="#ED3040"/>
<stop offset="1" stop-color="#2D23F4"/>
</linearGradient>
<linearGradient id="paint5_linear_6180_40118" x1="0" y1="0" x2="0" y2="1" gradientUnits="objectBoundingBox">
<stop stop-color="#ED3040"/>
<stop offset="1" stop-color="#2D23F4"/>
</linearGradient>
<linearGradient id="paint6_linear_6180_40118" x1="0" y1="0" x2="0" y2="1" gradientUnits="objectBoundingBox">
<stop stop-color="#ED3040"/>
<stop offset="1" stop-color="#2D23F4"/>
</linearGradient>
<linearGradient id="paint7_linear_6180_40118" x1="0" y1="0" x2="0" y2="1" gradientUnits="objectBoundingBox">
<stop stop-color="#ED3040"/>
<stop offset="1" stop-color="#2D23F4"/>
</linearGradient>
<linearGradient id="paint8_linear_6180_40118" x1="0" y1="0" x2="0" y2="1" gradientUnits="objectBoundingBox">
<stop stop-color="#ED3040"/>
<stop offset="1" stop-color="#2D23F4"/>
</linearGradient>
<linearGradient id="paint9_linear_6180_40118" x1="0" y1="0" x2="0" y2="1" gradientUnits="objectBoundingBox">
<stop stop-color="#ED3040"/>
<stop offset="1" stop-color="#2D23F4"/>
</linearGradient>
<linearGradient id="paint10_linear_6180_40118" x1="0" y1="0" x2="0" y2="1" gradientUnits="objectBoundingBox">
<stop stop-color="#ED3040"/>
<stop offset="1" stop-color="#2D23F4"/>
</linearGradient>
<linearGradient id="paint11_linear_6180_40118" x1="0" y1="0" x2="0" y2="1" gradientUnits="objectBoundingBox">
<stop stop-color="#ED3040"/>
<stop offset="1" stop-color="#2D23F4"/>
</linearGradient>
<linearGradient id="paint12_linear_6180_40118" x1="0" y1="0" x2="0" y2="1" gradientUnits="objectBoundingBox">
<stop stop-color="#ED3040"/>
<stop offset="1" stop-color="#2D23F4"/>
</linearGradient>
<linearGradient id="paint13_linear_6180_40118" x1="0" y1="0" x2="0" y2="1" gradientUnits="objectBoundingBox">
<stop stop-color="#ED3040"/>
<stop offset="1" stop-color="#2D23F4"/>
</linearGradient>
<linearGradient id="paint14_linear_6180_40118" x1="0" y1="0" x2="0" y2="1" gradientUnits="objectBoundingBox">
<stop stop-color="#ED3040"/>
<stop offset="1" stop-color="#2D23F4"/>
</linearGradient>
<linearGradient id="paint15_linear_6180_40118" x1="0" y1="0" x2="0" y2="1" gradientUnits="objectBoundingBox">
<stop stop-color="#ED3040"/>
<stop offset="1" stop-color="#2D23F4"/>
</linearGradient>
<linearGradient id="paint16_linear_6180_40118" x1="0" y1="0" x2="0" y2="1" gradientUnits="objectBoundingBox">
<stop stop-color="#ED3040"/>
<stop offset="1" stop-color="#2D23F4"/>
</linearGradient>
<linearGradient id="paint17_linear_6180_40118" x1="0" y1="0" x2="0" y2="1" gradientUnits="objectBoundingBox">
<stop stop-color="#ED3040"/>
<stop offset="1" stop-color="#2D23F4"/>
</linearGradient>
<linearGradient id="paint18_linear_6180_40118" x1="0" y1="0" x2="0" y2="1" gradientUnits="objectBoundingBox">
<stop stop-color="#ED3040"/>
<stop offset="1" stop-color="#2D23F4"/>
</linearGradient>
</defs>
</svg>
