<svg width="50" height="50" viewBox="0 0 50 50" fill="none" xmlns="http://www.w3.org/2000/svg">
<path d="M13.4097 44.9997H36.591C37.1334 44.9997 37.6535 44.7891 38.0373 44.4138C38.4208 44.0388 38.6361 43.5302 38.6361 42.9996V39.5524C39.0348 39.4141 39.3796 39.1586 39.6238 38.8208C39.8681 38.4831 39.9994 38.0799 40 37.6665V7.00004C40 6.46939 39.7843 5.96075 39.4008 5.58585C39.0171 5.21058 38.4969 5 37.9545 5H13.4091C12.5051 5.00093 11.6386 5.35263 10.9995 5.97751C10.3607 6.60244 10.001 7.44942 10 8.33333V41.6667C10.001 42.5506 10.3606 43.3979 10.9995 44.0225C11.6386 44.6474 12.5051 44.9991 13.4091 45L13.4097 44.9997ZM38.6364 37.6659C38.6364 37.8427 38.5647 38.0123 38.4369 38.1373C38.309 38.2623 38.1355 38.3324 37.9548 38.3324H14.0914V6.3321H37.9548C38.1355 6.3321 38.309 6.4025 38.4369 6.52749C38.5647 6.65247 38.6364 6.82211 38.6364 6.9989V37.6659ZM11.3643 8.33275C11.3659 7.92057 11.4978 7.51894 11.7421 7.1831C11.986 6.84691 12.3304 6.59291 12.7279 6.45551V38.4074C12.234 38.5032 11.7681 38.7054 11.3643 38.9994L11.3643 8.33275ZM13.4098 39.6661H37.2731V42.9994V42.9991C37.2731 43.1762 37.2015 43.3456 37.0736 43.4705C36.9455 43.5958 36.7723 43.6659 36.5915 43.6659H13.4102C12.6794 43.6659 12.0042 43.2848 11.6388 42.666C11.2734 42.047 11.2734 41.2847 11.6388 40.666C12.0042 40.0472 12.6794 39.6661 13.4102 39.6661L13.4098 39.6661Z" fill="url(#paint0_linear_6180_40126)"/>
<path d="M16.1136 30.1408C16.3264 30.2667 16.5703 30.3334 16.8193 30.3334C17.0448 30.3331 17.2669 30.2788 17.4664 30.1755C18.416 29.6861 19.5464 28.5421 19.5464 25.8668V24.3335H21.0759C21.1263 24.6095 21.1828 24.8589 21.2389 25.1042H21.2386C21.498 26.1611 21.617 27.2466 21.5919 28.3337C21.5945 29.3336 21.2408 30.3031 20.5916 31.0756C20.2668 31.4636 20.1713 31.9886 20.3394 32.4622C20.5069 32.9448 20.9186 33.3076 21.4267 33.4208C22.1518 33.5852 22.8933 33.6677 23.6372 33.6668C24.4818 33.6668 26.6229 33.4233 29.0534 31.2874C29.8339 31.9846 31.5759 33.0874 35.1652 33.6481H35.1655C35.6834 33.7284 36.2068 33.5386 36.5455 33.1472C36.8843 32.7559 36.9896 32.2196 36.8227 31.7333L35.3548 27.4425V27.4428C35.2603 27.1265 35.0646 26.848 34.7963 26.6483C34.5283 26.4485 34.2016 26.3381 33.8644 26.3335C33.1412 26.3335 32.4475 26.0525 31.9359 25.5522C31.4246 25.0523 31.1373 24.374 31.1373 23.6666H34.7373L35.2635 25.2104V25.2107C35.3824 25.5606 35.7691 25.7498 36.1269 25.6335C36.4843 25.5172 36.6781 25.1391 36.5588 24.7893L35.8785 22.8C34.965 19.6865 33.5139 17.8788 31.9385 16.8593C32.3477 16.4971 32.8066 16.1922 33.3021 15.9534C34.1512 15.5394 35.0621 15.2596 36.0006 15.1247C36.2686 15.0822 36.5202 14.9699 36.7282 14.7994C36.9363 14.6285 37.0936 14.4061 37.1828 14.1552C37.2747 13.9034 37.2963 13.632 37.2452 13.3693C37.1939 13.1066 37.0721 12.8619 36.8916 12.6606C34.8074 10.3334 31.4713 9.00013 27.7422 9.00013C24.4866 9.00199 21.3649 10.2664 19.0612 12.5161C16.7579 14.7656 15.4612 17.8167 15.4556 21.0003V29.0002C15.4527 29.4676 15.703 29.9015 16.1137 30.1409L16.1136 30.1408ZM34.2979 22.3334H31.1372C30.7756 22.3334 30.4286 22.4739 30.173 22.7239C29.9173 22.9741 29.7737 23.3131 29.7737 23.6667C29.7746 24.7273 30.206 25.7443 30.973 26.4942C31.7399 27.2441 32.7799 27.6659 33.8643 27.6669C33.9658 27.6669 34.0328 27.7742 34.0547 27.8443L35.5286 32.1536C35.546 32.1995 35.5356 32.251 35.5013 32.287C35.4734 32.3226 35.4271 32.3403 35.3814 32.3322C30.8305 31.6195 29.6782 29.9929 29.674 29.9876C29.5653 29.8127 29.3807 29.6967 29.1729 29.6722C28.9648 29.6458 28.7564 29.7162 28.6096 29.8629C26.2643 32.1548 24.2106 32.3335 23.6372 32.3335C22.9971 32.3344 22.3589 32.2634 21.735 32.1223C21.6849 32.1133 21.6443 32.0776 21.6294 32.0302C21.6132 31.9923 21.6211 31.9486 21.6491 31.9182C22.4972 30.9077 22.959 29.6405 22.9555 28.3337C22.98 27.1489 22.8506 25.9661 22.5702 24.8136C22.3732 24.0472 22.2736 23.2601 22.2736 22.4701C22.2527 21.015 22.8293 19.6126 23.8748 18.5767C24.8751 17.5749 26.2444 17.007 27.6765 17.0003H27.7282C30.8318 17.0003 33.0387 18.7928 34.2979 22.3334ZM27.7282 15.6667H27.667C25.8727 15.6753 24.1568 16.3865 22.9029 17.6413C21.6031 18.9296 20.8853 20.6732 20.9101 22.4828C20.9101 22.6673 20.9177 22.8376 20.9256 23.0001H19.5465V22.3333C19.5465 19.4999 21.0791 16.878 23.576 15.4399C26.0728 14.0021 29.1612 13.9628 31.6955 15.3366C31.3282 15.5937 30.9882 15.8862 30.6805 16.2093C29.7411 15.8449 28.7387 15.6608 27.7282 15.6667ZM16.8192 21.0001C16.8243 18.1704 17.9773 15.4582 20.0249 13.4585C22.0723 11.459 24.8477 10.3351 27.7416 10.3336C31.079 10.3336 34.0408 11.5022 35.8671 13.5404V13.5401C35.909 13.5857 35.9213 13.6502 35.8991 13.7076C35.8826 13.7606 35.837 13.7997 35.7811 13.8087C34.8404 13.9483 33.9231 14.211 33.054 14.5896C31.1297 13.3242 28.8 12.7874 26.5004 13.079C24.2009 13.3702 22.0884 14.4702 20.5577 16.1736C19.0269 17.8765 18.1826 20.0661 18.1823 22.3335V25.8669C18.1823 27.457 17.7145 28.5391 16.8187 29.0003L16.8192 21.0001Z" fill="url(#paint1_linear_6180_40126)"/>
<path d="M29.7736 42.3336H33.1826C33.5591 42.3336 33.8642 42.0349 33.8642 41.6668C33.8642 41.2986 33.5591 41.0003 33.1826 41.0003H29.7736C29.3971 41.0003 29.0916 41.2986 29.0916 41.6668C29.0916 42.0349 29.3971 42.3336 29.7736 42.3336Z" fill="url(#paint2_linear_6180_40126)"/>
<path d="M16.1371 42.3336H27.0461C27.4229 42.3336 27.7281 42.0349 27.7281 41.6668C27.7281 41.2986 27.4229 41.0003 27.0461 41.0003H16.1371C15.7606 41.0003 15.4552 41.2986 15.4552 41.6668C15.4552 42.0349 15.7606 42.3336 16.1371 42.3336Z" fill="url(#paint3_linear_6180_40126)"/>
<defs>
<linearGradient id="paint0_linear_6180_40126" x1="0" y1="0" x2="0" y2="1" gradientUnits="objectBoundingBox">
<stop stop-color="#ED3040"/>
<stop offset="1" stop-color="#2D23F4"/>
</linearGradient>
<linearGradient id="paint1_linear_6180_40126" x1="0" y1="0" x2="0" y2="1" gradientUnits="objectBoundingBox">
<stop stop-color="#ED3040"/>
<stop offset="1" stop-color="#2D23F4"/>
</linearGradient>
<linearGradient id="paint2_linear_6180_40126" x1="0" y1="0" x2="0" y2="1" gradientUnits="objectBoundingBox">
<stop stop-color="#ED3040"/>
<stop offset="1" stop-color="#2D23F4"/>
</linearGradient>
<linearGradient id="paint3_linear_6180_40126" x1="0" y1="0" x2="0" y2="1" gradientUnits="objectBoundingBox">
<stop stop-color="#ED3040"/>
<stop offset="1" stop-color="#2D23F4"/>
</linearGradient>
</defs>
</svg>
