<svg width="50" height="50" viewBox="0 0 50 50" fill="none" xmlns="http://www.w3.org/2000/svg">
<path d="M28.4484 7.06837H27.7588C27.3779 7.06837 27.0689 7.37739 27.0689 7.75829C27.0689 8.13919 27.3779 8.44787 27.7588 8.44787H28.4484C28.8293 8.44787 29.1379 8.13919 29.1379 7.75829C29.1379 7.37739 28.8293 7.06837 28.4484 7.06837Z" fill="url(#paint0_linear_6180_40130)"/>
<path d="M25.0001 7.06837H21.5516C21.1707 7.06837 20.862 7.37739 20.862 7.75829C20.862 8.13919 21.1707 8.44787 21.5516 8.44787H25.0001C25.381 8.44787 25.6897 8.13919 25.6897 7.75829C25.6897 7.37739 25.381 7.06837 25.0001 7.06837Z" fill="url(#paint1_linear_6180_40130)"/>
<path d="M25.0001 42.9312C25.5487 42.9312 26.0751 42.7132 26.4631 42.3251C26.8508 41.937 27.0688 41.411 27.0688 40.8621C27.0688 40.3135 26.8508 39.7872 26.4631 39.3991C26.075 39.0111 25.5486 38.793 25.0001 38.793C24.4512 38.793 23.9249 39.0111 23.5371 39.3991C23.149 39.7872 22.931 40.3136 22.931 40.8621C22.931 41.411 23.149 41.9371 23.5371 42.3251C23.9249 42.7132 24.4512 42.9312 25.0001 42.9312ZM25.0001 40.1725C25.279 40.1725 25.5305 40.3406 25.637 40.5983C25.7437 40.856 25.6849 41.1527 25.4878 41.3498C25.2903 41.5469 24.9936 41.6061 24.7359 41.4993C24.4782 41.3926 24.3102 41.141 24.3102 40.8621C24.3102 40.4812 24.6192 40.1725 25.0001 40.1725Z" fill="url(#paint2_linear_6180_40130)"/>
<path d="M29.1379 41.5522H30.5173C30.8982 41.5522 31.2069 41.2435 31.2069 40.8626C31.2069 40.4817 30.8982 40.173 30.5173 40.173H29.1379C28.757 40.173 28.4483 40.4817 28.4483 40.8626C28.4483 41.2435 28.757 41.5522 29.1379 41.5522Z" fill="url(#paint3_linear_6180_40130)"/>
<path d="M19.4825 41.5522H20.8616C21.2425 41.5522 21.5512 41.2435 21.5512 40.8626C21.5512 40.4817 21.2425 40.173 20.8616 40.173H19.4825C19.1016 40.173 18.7926 40.4817 18.7926 40.8626C18.7926 41.2435 19.1016 41.5522 19.4825 41.5522Z" fill="url(#paint4_linear_6180_40130)"/>
<path d="M15.7258 24.2415C16.0667 24.4116 16.4811 24.2733 16.6512 23.9325C16.8216 23.5916 16.683 23.1772 16.3421 23.0072C15.6454 22.6554 14.9873 22.2313 14.3788 21.7423C15.0667 20.8655 15.5786 19.8641 15.8863 18.793H16.7237C17.1046 18.793 17.4133 18.4843 17.4133 18.1034C17.4133 17.7225 17.1046 17.4138 16.7237 17.4138H13.9651V16.7242C13.9651 16.3433 13.6564 16.0347 13.2755 16.0347C12.8946 16.0347 12.5856 16.3433 12.5856 16.7242V17.4138H9.827C9.4461 17.4138 9.13742 17.7225 9.13742 18.1034C9.13742 18.4843 9.4461 18.793 9.827 18.793H14.4401C14.1862 19.5219 13.8162 20.2046 13.3443 20.8152C13.0254 20.4966 12.7321 20.1537 12.4672 19.7888C12.2547 19.4747 11.8279 19.3908 11.5124 19.6016C11.1969 19.8125 11.111 20.2385 11.3201 20.5551C11.6377 21.0027 11.9932 21.4219 12.383 21.8083C11.7667 22.322 11.0587 22.7149 10.2969 22.9665C9.93484 23.0866 9.73908 23.4777 9.85955 23.8395C9.98001 24.2012 10.3708 24.3969 10.7325 24.2768C11.7212 23.9531 12.6339 23.4332 13.417 22.7485C14.1298 23.3289 14.9043 23.8296 15.7259 24.2416L15.7258 24.2415Z" fill="url(#paint5_linear_6180_40130)"/>
<path d="M42.9309 20.1721H35.3446V8.44821C35.3435 7.5341 34.9798 6.65739 34.3333 6.01092C33.6868 5.3648 32.8104 5.00105 31.8964 5H18.1033C17.1892 5.00103 16.3127 5.36481 15.6664 6.01092C15.0199 6.65738 14.6561 7.53418 14.6551 8.44821V13.2759H7.06871C6.52013 13.2759 5.99375 13.4939 5.60573 13.8817C5.218 14.2697 5 14.7961 5 15.3446V25C5 25.5486 5.218 26.075 5.60573 26.463C5.99381 26.8508 6.52019 27.0688 7.06871 27.0688H14.6551V41.5514C14.6561 42.4659 15.0199 43.3423 15.6664 43.9887C16.3128 44.6352 17.1893 44.9986 18.1033 45H31.8964C32.8105 44.9986 33.6869 44.6352 34.3333 43.9887C34.9797 43.3423 35.3435 42.4658 35.3446 41.5514V33.9654H42.9309C43.4795 33.9654 44.0059 33.7474 44.3939 33.3593C44.782 32.9712 45 32.4448 45 31.8963V22.2409C45 21.692 44.782 21.1657 44.3939 20.7779C44.0058 20.3898 43.4795 20.1718 42.9309 20.1718V20.1721ZM16.0342 8.44821C16.0342 7.89929 16.2519 7.37325 16.64 6.98522C17.028 6.59714 17.5544 6.37914 18.1029 6.37914H31.896C32.4446 6.37914 32.971 6.59714 33.359 6.98522C33.7471 7.37331 33.9651 7.89934 33.9651 8.44821V9.13779H16.0342L16.0342 8.44821ZM6.37888 15.3448C6.37888 14.9639 6.68756 14.6552 7.06846 14.6552H19.4826C19.6653 14.6552 19.8409 14.7278 19.9703 14.8571C20.0996 14.9865 20.1722 15.1621 20.1722 15.3448V17.8208C20.1729 18.1853 20.3173 18.5347 20.5743 18.7931L21.9534 20.1722L20.5743 21.5514V21.5517C20.3169 21.8101 20.1725 22.1599 20.1722 22.5244V25.0004C20.1722 25.1831 20.0996 25.3587 19.9703 25.488C19.8409 25.6174 19.6653 25.69 19.4826 25.69H7.06846C6.68756 25.69 6.37888 25.3813 6.37888 25.0004V15.3448ZM33.9651 41.5522C33.9651 42.1011 33.7471 42.6274 33.359 43.0152C32.9709 43.4033 32.4445 43.6213 31.896 43.6213H18.1029C17.5543 43.6213 17.028 43.4033 16.64 43.0152C16.2519 42.6275 16.0342 42.1011 16.0342 41.5522V38.104H33.9651L33.9651 41.5522ZM33.9651 36.7245L16.0342 36.7249V27.0694H19.4824C20.031 27.0694 20.5574 26.8514 20.9454 26.4637C21.3331 26.0756 21.5511 25.5492 21.5511 25.0007V22.5295L23.42 20.6606H23.4203C23.6893 20.3913 23.6893 19.9546 23.4203 19.6853L21.5511 17.8212V15.3452C21.5511 14.7966 21.3331 14.2703 20.9454 13.8822C20.5573 13.4945 20.0309 13.2765 19.4824 13.2765H16.0342V10.5179H33.9651V20.1733H30.5169C29.968 20.1733 29.4417 20.3913 29.0539 20.7794C28.6658 21.1671 28.4478 21.6935 28.4478 22.2423V24.7169L26.5858 26.579V26.5786C26.3165 26.848 26.3165 27.2847 26.5858 27.554L28.4478 29.4215V31.8975C28.4478 32.4461 28.6658 32.9725 29.0539 33.3605C29.4416 33.7486 29.968 33.9666 30.5169 33.9666H33.9651L33.9651 36.7245ZM43.6204 31.8971C43.6204 32.0799 43.5479 32.2555 43.4185 32.3848C43.2892 32.5142 43.1136 32.5867 42.9309 32.5867H30.5167C30.1358 32.5867 29.8268 32.278 29.8268 31.8971V29.4211C29.8261 29.0567 29.6817 28.7073 29.4247 28.4488L28.0455 27.0697L29.4247 25.6906V25.6902C29.682 25.4318 29.8268 25.0824 29.8268 24.7176V22.2419C29.8268 21.861 30.1358 21.552 30.5167 21.552H42.9309C43.1136 21.552 43.2892 21.6249 43.4185 21.7543C43.5479 21.8836 43.6204 22.0588 43.6204 22.2419V31.8971Z" fill="url(#paint6_linear_6180_40130)"/>
<path d="M37.345 23.312C37.2157 23.0947 36.9809 22.9615 36.728 22.9615C36.4748 22.9615 36.2403 23.0947 36.1106 23.312L32.6624 30.2085V30.2088C32.5807 30.3724 32.5673 30.562 32.6251 30.7355C32.6833 30.909 32.8075 31.0524 32.9715 31.1342C33.3123 31.3046 33.7267 31.166 33.8968 30.8252L36.7245 25.1624L38.0222 27.7585H36.7245C36.3436 27.7585 36.0346 28.0672 36.0346 28.4481C36.0346 28.829 36.3436 29.1377 36.7245 29.1377H38.7122L39.5558 30.8252H39.5554C39.7259 31.166 40.1403 31.3047 40.4811 31.1342C40.8219 30.9641 40.9602 30.5497 40.7898 30.2089L37.345 23.312Z" fill="url(#paint7_linear_6180_40130)"/>
<path d="M25.0001 14.6553H30.5174C30.8983 14.6553 31.207 14.3466 31.207 13.9657C31.207 13.5848 30.8983 13.2762 30.5174 13.2762H25.0001C24.6192 13.2762 24.3102 13.5848 24.3102 13.9657C24.3102 14.3466 24.6192 14.6553 25.0001 14.6553Z" fill="url(#paint8_linear_6180_40130)"/>
<path d="M30.5177 16.0343H28.4486C28.0677 16.0343 27.7591 16.343 27.7591 16.7239C27.7591 17.1048 28.0677 17.4134 28.4486 17.4134H30.5177C30.8986 17.4134 31.2073 17.1048 31.2073 16.7239C31.2073 16.343 30.8986 16.0343 30.5177 16.0343Z" fill="url(#paint9_linear_6180_40130)"/>
<path d="M25.6896 16.0343H25C24.6191 16.0343 24.3101 16.343 24.3101 16.7239C24.3101 17.1048 24.6191 17.4134 25 17.4134H25.6896C26.0705 17.4134 26.3791 17.1048 26.3791 16.7239C26.3791 16.343 26.0705 16.0343 25.6896 16.0343Z" fill="url(#paint10_linear_6180_40130)"/>
<path d="M25.0001 29.8275H19.4828C19.1019 29.8275 18.7928 30.1365 18.7928 30.5174C18.7928 30.8983 19.1019 31.207 19.4828 31.207H25.0001C25.381 31.207 25.6897 30.8983 25.6897 30.5174C25.6897 30.1365 25.381 29.8275 25.0001 29.8275Z" fill="url(#paint11_linear_6180_40130)"/>
<path d="M21.5518 32.5863H19.4831C19.1022 32.5863 18.7932 32.895 18.7932 33.2759C18.7932 33.6568 19.1022 33.9658 19.4831 33.9658H21.5522H21.5518C21.9327 33.9658 22.2417 33.6568 22.2417 33.2759C22.2417 32.895 21.9327 32.5863 21.5518 32.5863Z" fill="url(#paint12_linear_6180_40130)"/>
<path d="M25.0001 32.5863H24.3102C23.9293 32.5863 23.6206 32.895 23.6206 33.2759C23.6206 33.6568 23.9293 33.9658 24.3102 33.9658H25.0001C25.381 33.9658 25.6897 33.6568 25.6897 33.2759C25.6897 32.895 25.381 32.5863 25.0001 32.5863Z" fill="url(#paint13_linear_6180_40130)"/>
<defs>
<linearGradient id="paint0_linear_6180_40130" x1="0" y1="0" x2="0" y2="1" gradientUnits="objectBoundingBox">
<stop stop-color="#ED3040"/>
<stop offset="1" stop-color="#2D23F4"/>
</linearGradient>
<linearGradient id="paint1_linear_6180_40130" x1="0" y1="0" x2="0" y2="1" gradientUnits="objectBoundingBox">
<stop stop-color="#ED3040"/>
<stop offset="1" stop-color="#2D23F4"/>
</linearGradient>
<linearGradient id="paint2_linear_6180_40130" x1="0" y1="0" x2="0" y2="1" gradientUnits="objectBoundingBox">
<stop stop-color="#ED3040"/>
<stop offset="1" stop-color="#2D23F4"/>
</linearGradient>
<linearGradient id="paint3_linear_6180_40130" x1="0" y1="0" x2="0" y2="1" gradientUnits="objectBoundingBox">
<stop stop-color="#ED3040"/>
<stop offset="1" stop-color="#2D23F4"/>
</linearGradient>
<linearGradient id="paint4_linear_6180_40130" x1="0" y1="0" x2="0" y2="1" gradientUnits="objectBoundingBox">
<stop stop-color="#ED3040"/>
<stop offset="1" stop-color="#2D23F4"/>
</linearGradient>
<linearGradient id="paint5_linear_6180_40130" x1="0" y1="0" x2="0" y2="1" gradientUnits="objectBoundingBox">
<stop stop-color="#ED3040"/>
<stop offset="1" stop-color="#2D23F4"/>
</linearGradient>
<linearGradient id="paint6_linear_6180_40130" x1="0" y1="0" x2="0" y2="1" gradientUnits="objectBoundingBox">
<stop stop-color="#ED3040"/>
<stop offset="1" stop-color="#2D23F4"/>
</linearGradient>
<linearGradient id="paint7_linear_6180_40130" x1="0" y1="0" x2="0" y2="1" gradientUnits="objectBoundingBox">
<stop stop-color="#ED3040"/>
<stop offset="1" stop-color="#2D23F4"/>
</linearGradient>
<linearGradient id="paint8_linear_6180_40130" x1="0" y1="0" x2="0" y2="1" gradientUnits="objectBoundingBox">
<stop stop-color="#ED3040"/>
<stop offset="1" stop-color="#2D23F4"/>
</linearGradient>
<linearGradient id="paint9_linear_6180_40130" x1="0" y1="0" x2="0" y2="1" gradientUnits="objectBoundingBox">
<stop stop-color="#ED3040"/>
<stop offset="1" stop-color="#2D23F4"/>
</linearGradient>
<linearGradient id="paint10_linear_6180_40130" x1="0" y1="0" x2="0" y2="1" gradientUnits="objectBoundingBox">
<stop stop-color="#ED3040"/>
<stop offset="1" stop-color="#2D23F4"/>
</linearGradient>
<linearGradient id="paint11_linear_6180_40130" x1="0" y1="0" x2="0" y2="1" gradientUnits="objectBoundingBox">
<stop stop-color="#ED3040"/>
<stop offset="1" stop-color="#2D23F4"/>
</linearGradient>
<linearGradient id="paint12_linear_6180_40130" x1="0" y1="0" x2="0" y2="1" gradientUnits="objectBoundingBox">
<stop stop-color="#ED3040"/>
<stop offset="1" stop-color="#2D23F4"/>
</linearGradient>
<linearGradient id="paint13_linear_6180_40130" x1="0" y1="0" x2="0" y2="1" gradientUnits="objectBoundingBox">
<stop stop-color="#ED3040"/>
<stop offset="1" stop-color="#2D23F4"/>
</linearGradient>
</defs>
</svg>
