<svg width="50" height="50" viewBox="0 0 50 50" fill="none" xmlns="http://www.w3.org/2000/svg">
<path d="M40.2254 17.8814C39.9781 17.6799 39.1989 17.5855 39.1989 16.5877C39.1989 15.9752 38.8484 15.4439 38.289 15.2063C37.7356 14.9687 37.0963 15.1002 36.666 15.5313C35.7193 16.5 34.4037 17.0562 33.0508 17.0562H27.4685V14.8561C27.4685 13.1 28.1386 11.4436 29.3744 10.1937C29.8661 9.69382 30.0077 8.97483 29.7371 8.32498C29.4729 7.6687 28.8763 7.26248 28.1754 7.26248C26.9308 7.26248 26.6074 6.05415 26.4785 5.89392C26.1834 5.34381 25.6117 5 24.9969 5C24.3759 5 23.8103 5.34381 23.5092 5.89392C23.2971 6.16066 23.1231 7.26248 21.8122 7.26248C21.1176 7.26248 20.5274 7.66865 20.2568 8.31884C19.9926 8.97512 20.1338 9.69378 20.6259 10.194C21.8493 11.4377 22.5255 13.0938 22.5255 14.8564V17.0565H16.9494C15.5847 17.0565 14.2935 16.5128 13.3283 15.5315C12.9042 15.1004 12.2709 14.969 11.7175 15.2066C11.1582 15.4378 10.8014 15.9815 10.8014 16.6004C10.8014 17.5205 9.88971 17.7889 9.76858 17.888C9.2951 18.1506 9 18.6569 9 19.2066C9 19.7628 9.2951 20.2691 9.77456 20.5378C10.0096 20.7268 10.8011 20.8349 10.8011 21.8129C10.8011 22.4254 11.1576 22.9755 11.7172 23.2067C12.2706 23.4379 12.9039 23.3129 13.328 22.8753C14.2932 21.8941 15.5844 21.3504 16.9491 21.3504H22.5251V35.1375C22.5251 36.9 21.8488 38.5561 20.6256 39.8063C20.1338 40.3062 19.9923 41.0188 20.2565 41.6686C20.5208 42.3249 21.1173 42.7311 21.8242 42.7311C23.6794 42.7311 23.1091 45 25.0027 45C25.6174 45 26.1893 44.6562 26.4905 44.1C26.7044 43.8291 26.885 42.7311 28.1749 42.7311H28.1812C28.8635 42.7311 29.4782 42.3125 29.7365 41.6686C30.0008 41.0187 29.8595 40.2998 29.3675 39.8063C28.144 38.5564 27.4679 36.9 27.4679 35.1375L27.4685 21.3496H33.0508C34.4156 21.3496 35.7004 21.8933 36.672 22.8809C36.9548 23.1684 37.3298 23.3245 37.7171 23.3245C37.9078 23.3245 38.0984 23.2807 38.2828 23.2058C38.8421 22.9746 39.1989 22.4245 39.1989 21.8121C39.1989 20.8833 40.0876 20.638 40.2254 20.5244C40.6989 20.2618 41 19.7556 41 19.1993C41 18.6496 40.7049 18.1433 40.2254 17.881L40.2254 17.8814ZM39.6352 19.4249C39.5396 19.51 37.969 20.0697 37.969 21.8124C37.969 21.9624 37.8705 22.0248 37.8152 22.05C37.7538 22.075 37.6431 22.0999 37.5323 21.9877C36.3334 20.7752 34.7475 20.1 33.0505 20.1H26.2387V35.1373C26.2387 37.2338 27.0472 39.2094 28.5014 40.6873C28.698 40.8872 28.6366 41.106 28.5998 41.1936C28.5753 41.2624 28.4646 41.4811 28.1817 41.4811H28.1754C26.0528 41.4811 25.5963 43.2834 25.4088 43.5062C25.292 43.725 25.0828 43.75 25.0029 43.75C24.9167 43.75 24.7141 43.725 24.5971 43.5123C24.4801 43.3742 23.876 41.4811 21.8122 41.4811C21.5416 41.4811 21.4309 41.2812 21.3941 41.1935C21.3573 41.1059 21.2956 40.8871 21.4926 40.6872C22.9495 39.2061 23.7549 37.2309 23.7549 35.1373V20.1H16.9494C16.1009 20.1 15.2772 20.2688 14.521 20.5874C13.7587 20.9123 13.0577 21.3873 12.4553 21.9937C12.3509 22.0999 12.2401 22.0749 12.1847 22.05C12.1294 22.025 12.0309 21.9623 12.0309 21.8123C12.0309 19.9941 10.529 19.5863 10.3588 19.4373C10.248 19.3749 10.2298 19.2684 10.2298 19.2061C10.2298 19.1498 10.2483 19.0436 10.3588 18.9809C10.439 18.9102 12.0309 18.3585 12.0309 16.5934C12.0309 16.4434 12.1294 16.381 12.1847 16.3558C12.2093 16.3494 12.2461 16.3369 12.2832 16.3369C12.3386 16.3369 12.3999 16.3558 12.4553 16.4121C13.6603 17.6309 15.2524 18.3058 16.9495 18.3058H23.755V14.8558C23.755 12.7622 22.9496 10.7933 21.4927 9.31219C21.2897 9.1059 21.3696 8.86858 21.3942 8.79983C21.431 8.71219 21.5417 8.5123 21.8123 8.5123C23.9226 8.5123 24.4222 6.69245 24.5912 6.49357C24.7079 6.27481 24.9108 6.24986 24.997 6.24986C25.077 6.24986 25.2799 6.27481 25.3966 6.49357C25.5108 6.62662 26.1262 8.5123 28.1815 8.5123C28.452 8.5123 28.5687 8.71859 28.5996 8.79983C28.6364 8.88746 28.698 9.1123 28.4951 9.31858C27.0382 10.7997 26.2387 12.7622 26.2387 14.8561V18.3061H33.0506C34.7227 18.3061 36.358 17.6185 37.5384 16.4185C37.6429 16.3059 37.7599 16.3308 37.815 16.3561C37.8703 16.381 37.9688 16.4437 37.9688 16.5937C37.9688 18.4069 39.4667 18.8265 39.635 18.9748C39.7517 19.0436 39.7703 19.1437 39.7703 19.2C39.7706 19.2563 39.752 19.3625 39.6353 19.4248L39.6352 19.4249Z" fill="url(#paint0_linear_6180_40114)"/>
<defs>
<linearGradient id="paint0_linear_6180_40114" x1="35.13" y1="33.6397" x2="35.13" y2="41.6506" gradientUnits="userSpaceOnUse">
<stop stop-color="#ED3040"/>
<stop offset="1" stop-color="#2D23F4"/>
</linearGradient>
</defs>
</svg>
