<svg width="50" height="50" viewBox="0 0 50 50" fill="none" xmlns="http://www.w3.org/2000/svg">
<path d="M33.8263 40.4899C33.6017 40.6083 33.3185 40.6604 33.0845 40.6671L32.2153 40.6665L33.5659 33.7254C33.5918 33.5889 34.1796 30.3796 31.8168 29.2508L30.0743 28.418C30.0955 28.2225 30.0058 28.0293 29.822 27.9445L26.704 26.5038L28.9571 21.344L28.983 21.3607C29.0618 21.4106 29.1512 21.4368 29.2409 21.4368C29.2958 21.4368 29.344 21.4035 29.3961 21.3844L30.9193 22.1414C31.1233 22.1904 31.3093 22.2142 31.4857 22.2142C31.6713 22.2142 31.8458 22.188 32.0172 22.1346C34.074 21.614 36.0579 20.5772 37.8957 19.5334L38.5244 19.1765C38.5743 19.1494 38.6341 19.1401 38.6892 19.1516C38.95 19.2117 39.2189 19.1516 39.3768 19.0005L39.4912 19.0276C39.6211 19.0572 39.7594 19.0594 39.8934 19.031L40.1956 18.9629C40.5775 18.8766 40.8776 18.5912 40.9794 18.2182C41.1034 17.7565 40.8944 17.2689 40.4704 17.0325L39.1787 16.314C38.8662 16.1389 38.4955 16.1173 38.1646 16.2493L36.8443 16.7837L31.9302 18.1095C31.8514 18.1316 31.7661 18.1128 31.6795 18.0722C31.714 17.8885 31.634 17.7014 31.4751 17.5981L30.1684 16.7511C30.0846 16.4025 29.9547 16.0693 29.7756 15.7546L30.4454 14.1484C30.5301 14.1648 30.6149 14.1786 30.6987 14.1786C31.0199 14.1786 31.3296 14.0615 31.5664 13.8433C31.9312 13.5067 32.0558 13.0083 31.9181 12.4414C31.8813 12.2907 31.8698 12.143 31.8841 12.0019L31.9087 11.7574C32.1387 11.7312 32.3502 11.6237 32.4804 11.4298C32.6493 11.178 32.6574 10.8472 32.534 10.6527L32.2243 9.88247C32.2296 9.77613 32.2306 9.67102 32.229 9.56715C32.2234 9.26015 32.1658 8.96209 32.0848 8.67021C32.1237 8.63692 32.172 8.61411 32.2072 8.57681C32.5773 8.1869 32.7101 7.60807 32.5705 6.98849C32.5206 6.76749 32.3792 6.57638 32.1826 6.4645C31.9894 6.35538 31.7667 6.33103 31.5564 6.39576C31.2978 6.47467 30.7255 6.55604 29.7949 6.2139C28.4506 5.71889 25.9604 6.01263 24.9809 7.84294C24.6896 8.38821 24.593 9.04415 24.7011 9.74106C24.8317 10.5751 25.2186 12.0436 26.3018 12.8532L25.9439 13.7835L25.5404 13.7372C24.0702 13.5702 22.6091 13.6873 21.1912 14.0852C21.066 14.1204 20.9607 14.2045 20.9012 14.3195C20.8897 14.3414 20.8837 14.3657 20.8725 14.3876L19.0512 14.5821C18.6069 14.6684 18.2779 14.8244 18.0026 15.0722C16.2617 16.482 14.722 18.1203 13.4253 19.9401L12.9795 20.5664C12.938 20.6231 12.8773 20.6632 12.8066 20.6777C12.5399 20.7369 12.3165 20.9073 12.2137 21.1314L12.0872 21.1564C11.9504 21.1847 11.8205 21.2427 11.7109 21.3268L11.4495 21.5281C11.1289 21.7747 10.9725 22.1726 11.042 22.5696C11.1298 23.0584 11.5429 23.4256 12.0464 23.4631L13.6275 23.5837C13.6593 23.5858 13.6901 23.5883 13.7213 23.5883C14.0596 23.5883 14.3802 23.4508 14.6136 23.203L15.6517 22.0934L19.8108 18.6147C19.908 18.5327 20.0417 18.5009 20.2027 18.5318L20.3314 18.5493L20.3423 18.6057C20.385 18.824 20.5785 18.9833 20.8043 18.9833H21.6402L19.1066 24.5642C19.0175 24.7609 19.0755 24.9917 19.2475 25.1236C19.3085 25.1705 19.3621 25.2035 19.4229 25.2491L17.3716 29.9191C17.3 30.0816 17.3286 30.2715 17.4451 30.4068C17.4511 30.4135 17.486 30.4515 17.5137 30.4814L16.718 33.2385C15.6288 32.823 12.8165 31.9781 8.33483 32.0468L6.135 31.5302C5.89604 31.4769 5.65864 31.6076 5.58044 31.8338L5.02496 33.4514C4.98352 33.5732 4.9938 33.706 5.05487 33.8185C5.10191 33.9073 5.17606 33.9776 5.26578 34.0207C4.50841 36.1672 6.00696 37.7814 6.70171 38.5296C6.90515 38.749 7.18897 38.8637 7.47747 38.8637C7.64477 38.8637 7.81425 38.8252 7.96971 38.7453C8.46788 38.4895 8.6791 37.8949 8.45168 37.3913C8.33921 37.1422 8.29123 36.8661 8.31428 36.5874L8.38532 35.6423L15.7487 37.5833C15.8092 37.5993 16.4513 37.7617 17.2753 37.7617C18.3935 37.7617 19.8465 37.4627 20.6382 36.0964L22.3881 33.0766C22.4136 33.0806 22.4392 33.0837 22.4641 33.0837C22.6432 33.0837 22.8106 32.9814 22.89 32.8165L23.5788 31.3754L27.1071 32.9357C27.1678 32.9628 27.2336 32.9767 27.299 32.9767C27.3875 32.9767 27.4759 32.9517 27.5529 32.9027C27.6018 32.8716 27.647 32.8235 27.6953 32.7887L29.2904 33.1222C28.9321 34.1671 28.3087 36.7211 28.7396 41.0071L28.4016 43.0494C28.362 43.2858 28.5112 43.5133 28.7464 43.5746L30.3185 43.984C30.3574 43.9941 30.3976 44 30.4381 44C30.5254 44 30.6117 43.9763 30.6871 43.9294C30.7659 43.8804 30.8273 43.8111 30.8659 43.7294C32.9579 44.274 34.3902 42.7778 35.0556 42.0822C35.3715 41.7524 35.4226 41.249 35.1802 40.8567C34.896 40.3986 34.301 40.2362 33.8262 40.4899L33.8263 40.4899ZM20.2175 17.6013C19.8542 17.5667 19.4829 17.6694 19.2034 17.903L15.0035 21.4205L13.9246 22.5687C13.8666 22.6301 13.7791 22.6516 13.7 22.6563L12.1189 22.5357C12.0435 22.5302 11.9827 22.4766 11.97 22.4084C11.9603 22.3527 11.9821 22.2981 12.0273 22.2642L12.2765 22.0688L12.3996 22.045C12.6772 21.9905 12.908 21.8166 13.0102 21.5879C13.3062 21.5232 13.5663 21.3549 13.7461 21.108L14.1953 20.4771C15.4428 18.7263 16.9239 17.1494 18.6171 15.7772C18.7554 15.6533 18.9131 15.5577 19.1922 15.5022L20.4767 15.366C20.2533 16.0882 20.1714 16.8461 20.2175 17.6013ZM32.1801 19.008L37.1465 17.6653L38.5207 17.1127C38.5834 17.0889 38.6569 17.0932 38.7183 17.1262L40.0093 17.8447C40.0583 17.8718 40.0841 17.9276 39.9885 18.0549L39.7115 18.1231L39.5978 18.0959C39.3345 18.0321 39.0594 18.0892 38.8946 18.2436C38.6068 18.1798 38.3142 18.2266 38.0603 18.3675L37.4278 18.7269C35.648 19.7376 33.7323 20.7403 31.7611 21.2393C31.6007 21.2905 31.4349 21.3086 31.2458 21.2744L30.1915 20.7415C30.6884 20.2274 31.0904 19.6269 31.3748 18.9621C31.6309 19.0595 31.9131 19.0814 32.1801 19.008ZM30.6713 18.1906C30.395 19.0389 29.8874 19.8048 29.2102 20.3939L26.7642 18.808C26.262 18.4816 26.1311 17.7631 26.5109 17.0914C26.7 16.7743 27.0091 16.5459 27.3602 16.4651C27.4533 16.4435 27.5465 16.4334 27.6377 16.4334C27.8493 16.4334 28.0509 16.4901 28.2231 16.6029L29.4809 17.4188C29.4968 17.4311 29.513 17.4407 29.5301 17.4508L30.6713 18.1906ZM31.496 10.839C31.4661 10.8384 31.4439 10.8479 31.4168 10.851C31.3891 10.855 31.3614 10.8547 31.3349 10.8636C31.1542 10.9129 31.0505 11.0504 31.0249 11.2255C31.0227 11.2372 31.0159 11.2465 31.0143 11.2585L30.9489 11.9092C30.9243 12.1542 30.9427 12.406 31.004 12.6588C31.043 12.819 31.0611 13.0373 30.9258 13.1618C30.8476 13.2352 30.7265 13.2629 30.6081 13.2358C30.2127 13.1408 29.8566 13.0324 29.5503 12.9131C29.4136 12.8597 29.2924 12.7762 29.1911 12.6646C29.0163 12.472 28.7179 12.4584 28.5263 12.6298C28.3331 12.8021 28.3172 13.0965 28.4911 13.2876C28.6911 13.5076 28.9307 13.6722 29.2048 13.7792C29.3076 13.8193 29.4235 13.8556 29.5351 13.8932L29.1167 14.8969C28.8188 14.6007 28.4886 14.3359 28.0998 14.1457C27.7297 13.9694 27.3374 13.8628 26.9389 13.8128L27.2346 13.0354C27.2741 12.8576 27.2464 12.6776 27.1841 12.5081C27.1794 12.4834 27.1685 12.4615 27.1601 12.4381C27.1495 12.4147 27.1483 12.3888 27.1355 12.366C27.1318 12.3592 27.1252 12.3552 27.1212 12.3487C27.1081 12.3277 27.0906 12.3105 27.0741 12.2914C27.0455 12.2572 27.0156 12.226 26.98 12.2011C26.9794 12.2008 26.9791 12.1998 26.9782 12.1992C26.8972 12.1474 26.8202 12.0901 26.7483 12.0275C26.6121 10.9974 26.8018 10.8708 27.062 10.8156C27.1769 10.794 27.3879 10.8822 27.4838 11.0122L28.1923 11.8451C28.3456 12.0248 28.6101 12.0633 28.8088 11.9354L29.7282 11.3461C29.9453 11.2068 30.008 10.9204 29.8684 10.7043L29.4783 10.0962C29.3257 9.8564 29.3197 9.42889 29.4662 9.24921C29.607 9.07691 29.8098 9.01218 30.0693 9.05133C30.5095 9.12037 30.8893 9.11667 31.223 9.05904C31.2607 9.23103 31.2856 9.40641 31.289 9.58519C31.2909 9.69615 31.2884 9.80989 31.28 9.92394C31.2747 9.99452 31.2856 10.0648 31.3121 10.1308L31.6028 10.8419L31.496 10.839ZM25.8956 10.6676C25.7572 10.2749 25.6778 9.89054 25.6323 9.60022C25.5784 9.25284 25.5663 8.74241 25.8133 8.27915C26.5056 6.98491 28.4384 6.70747 29.4669 7.0878C30.4763 7.45891 31.2065 7.43642 31.6754 7.32946C31.6938 7.50053 31.6885 7.76437 31.5221 7.94007C31.3112 8.16169 30.8482 8.23288 30.2161 8.1321C29.6282 8.04055 29.0877 8.23319 28.735 8.66318C28.2892 9.20721 28.3606 10.0887 28.6815 10.593L28.8245 10.8165L28.6441 10.9318L28.2257 10.4411C27.9767 10.0989 27.5234 9.88161 27.1001 9.88161C27.0203 9.88161 26.9409 9.88963 26.8652 9.90535C26.3305 10.0182 26.0423 10.3122 25.8956 10.6676ZM21.1965 18.0506C21.0283 16.9934 21.1869 15.8973 21.6479 14.9276C22.4576 14.7171 23.2833 14.6166 24.1148 14.6062C23.5976 15.0136 23.1777 15.5509 22.9126 16.1806L22.0636 18.0506L21.1965 18.0506ZM23.7761 16.5511C24.1973 15.5505 25.1027 14.8528 26.1414 14.7276C26.6654 14.6617 27.2025 14.7526 27.6857 14.9822C28.0742 15.173 28.3935 15.4557 28.6571 15.7815C28.2091 15.5182 27.6788 15.4372 27.1465 15.5574C26.5461 15.6961 26.0193 16.0826 25.6435 16.7157C25.0703 17.7333 25.3357 18.9929 26.248 19.5863L28.1593 20.826L25.6679 26.5311C25.6666 26.5333 25.6648 26.5345 25.6635 26.537C25.662 26.54 25.6626 26.5431 25.6613 26.5462L25.3299 27.3054C24.5996 27.1325 22.7144 26.537 20.1189 24.6077L23.7761 16.5511ZM7.53621 37.9192C7.48917 37.942 7.42935 37.9361 7.36455 37.8668C6.67977 37.1289 5.4043 35.7544 6.32644 33.9288C6.38907 33.8049 6.39249 33.6594 6.33548 33.5321C6.28501 33.4196 6.19123 33.3321 6.07627 33.2865L6.33486 32.5338L7.16105 32.728C6.97132 33.2193 6.79187 34.0561 7.13862 35.0952C7.18815 35.2438 7.30903 35.3556 7.46045 35.3976L7.37664 36.5161C7.3405 36.9458 7.41559 37.3814 7.59316 37.7725C7.61715 37.8261 7.5926 37.8896 7.53621 37.9192ZM19.8218 35.633C18.8071 37.3862 16.0166 36.6915 15.9908 36.6834L7.9641 34.5678C7.77904 33.8184 7.94977 33.2522 8.07376 32.9726C13.8072 32.8453 16.7839 34.273 16.8142 34.2891C16.9389 34.3492 17.085 34.3563 17.2139 34.2971C17.3414 34.2414 17.4379 34.1323 17.4766 33.9994L18.2882 31.1883C18.9627 31.7324 20.0307 32.4231 21.4382 32.8429L19.8218 35.633ZM22.1977 32.0883C20.1994 31.6291 18.8458 30.4751 18.3604 30.0044L20.2038 25.8063C21.8961 26.9785 23.2557 27.6061 24.1847 27.9309L22.1977 32.0883ZM27.2432 31.9758L23.9819 30.5342L25.0941 28.2077C25.3723 28.2727 25.539 28.2934 25.5633 28.2958C25.5798 28.298 25.596 28.2992 25.6122 28.2992C25.7985 28.2992 25.9689 28.1901 26.0443 28.0172L26.3316 27.3591L29.0657 28.622C28.9757 28.9265 28.8255 29.3882 28.6164 29.8872C28.2068 30.8603 27.7354 31.5766 27.2431 31.9758L27.2432 31.9758ZM28.4907 32.0033C28.8508 31.5375 29.1851 30.9584 29.4852 30.2445C29.6244 29.9141 29.7372 29.6028 29.8269 29.334L31.408 30.0901C33.119 30.9075 32.6467 33.5256 32.6421 33.5506L31.2351 40.7832C30.536 40.9913 29.9487 40.8356 29.6562 40.7206C29.1621 35.4671 30.3416 33.0115 30.3537 32.9877C30.4176 32.8583 30.4182 32.7069 30.355 32.5771C30.2911 32.4486 30.1718 32.3543 30.0291 32.3247L28.4907 32.0033ZM34.3428 41.4729C33.6923 42.1538 32.4826 43.4204 30.703 42.6929C30.573 42.6405 30.4266 42.6451 30.3014 42.7111C30.1992 42.7657 30.1216 42.8544 30.0814 42.9601L29.4001 42.7829L29.5839 41.6702C29.844 41.7475 30.1612 41.8166 30.5441 41.8166C30.8945 41.8166 31.2896 41.7491 31.7052 41.5983L33.0801 41.5996C33.4686 41.5962 33.9079 41.504 34.3767 41.3437L34.7783 41.1006L34.3428 41.4729Z" fill="url(#paint0_linear_6180_40105)"/>
<path d="M44.6508 32.8501C44.1573 31.5962 43.2002 30.6071 41.9556 30.0658C41.84 30.0156 41.7182 29.9922 41.6004 29.9509C41.588 29.9469 41.5767 29.9419 41.5643 29.9392C40.4234 29.5474 39.1971 29.5452 38.0603 29.9832C36.921 30.4216 36.0178 31.2448 35.4455 32.2984C35.4408 32.3049 35.438 32.3119 35.4339 32.3187C35.3738 32.4306 35.2984 32.532 35.2461 32.6495C34.6984 33.8806 34.6688 35.2494 35.1616 36.5036C35.6551 37.7575 36.6123 38.7466 37.8568 39.2879C37.9435 39.3255 38.0354 39.34 38.1232 39.3729C38.1818 39.4093 38.2475 39.429 38.3179 39.4349C38.8363 39.6047 39.3672 39.7166 39.9037 39.7166C39.9548 39.7166 40.0056 39.704 40.0567 39.7024C40.0657 39.703 40.0748 39.7086 40.0841 39.7086C40.1006 39.7086 40.1143 39.6972 40.1305 39.6956C40.6785 39.671 41.2256 39.5739 41.7512 39.3711C42.2574 39.1763 42.7058 38.8905 43.1148 38.5601C43.1479 38.5429 43.1722 38.5191 43.2002 38.4942C43.6579 38.1083 44.037 37.6432 44.3336 37.1143C44.3766 37.0662 44.4078 37.0125 44.4252 36.9527C44.4688 36.8677 44.5268 36.7931 44.5657 36.7052C45.114 35.4729 45.144 34.104 44.6508 32.8502L44.6508 32.8501ZM42.9706 31.8243L42.1397 31.8483L42.0251 31.1012C42.3743 31.3028 42.6978 31.5373 42.9706 31.8243ZM41.9974 32.7259L43.5797 32.6803C43.6676 32.839 43.7607 32.9947 43.8283 33.166C43.8931 33.3306 43.9284 33.5005 43.971 33.6691L42.6186 34.6474L41.9566 34.5463L41.5036 33.3953L41.9974 32.7259ZM40.0144 30.5214C40.3711 30.5303 40.7235 30.596 41.0712 30.6961L41.2986 32.1828L40.8007 32.8581L39.591 32.6738L39.2941 31.9353L40.0144 30.5214ZM41.1394 34.8755L40.3624 35.8335L39.1333 35.6464L38.6806 34.4955L39.4579 33.5374L40.6867 33.7245L41.1394 34.8755ZM38.3803 30.7969C38.5734 30.7223 38.7722 30.6746 38.9707 30.6292L38.5956 31.3653L37.8282 31.0728C38.007 30.9726 38.1856 30.8718 38.3803 30.7969ZM35.9038 33.4533L36.3278 34.0706L35.6988 34.6162C35.7044 34.2229 35.7841 33.8348 35.9038 33.4533ZM36.835 37.5197L37.7236 37.4843L37.8189 38.2694C37.4541 38.0625 37.1179 37.8187 36.835 37.5197ZM37.8725 36.604L36.2316 36.6697C36.1443 36.5119 36.0518 36.3575 35.9848 36.187C35.9169 36.0147 35.8792 35.8368 35.8353 35.6599L37.0329 34.6209L37.852 34.7956L38.3149 35.971L37.8725 36.604ZM38.0071 33.9314L37.1768 33.7541L36.3278 32.5178C36.5144 32.2142 36.7244 31.9288 36.9796 31.6846L38.4712 32.2533L38.7684 32.9928L38.0071 33.9314ZM39.8047 38.8399C39.4505 38.8316 39.1009 38.7623 38.7563 38.6646L38.5728 37.1555L39.0208 36.5131L40.2343 36.6984L40.5187 37.3737L39.8047 38.8399ZM41.4322 38.5561H41.4316C41.239 38.6303 41.0412 38.6744 40.8434 38.7197L41.2181 37.9498L41.9964 38.2737C41.8141 38.377 41.6316 38.4793 41.4322 38.5561ZM42.8289 37.673L41.3403 37.0532L41.0546 36.375L41.8276 35.4217L42.4896 35.5215L43.4763 36.8497C43.2903 37.1496 43.0815 37.4319 42.8289 37.673ZM43.8956 35.9395L43.3473 35.2022L44.1071 34.6523C44.1099 35.0875 44.0324 35.5182 43.8956 35.9395Z" fill="url(#paint1_linear_6180_40105)"/>
<defs>
<linearGradient id="paint0_linear_6180_40105" x1="0" y1="0" x2="0" y2="1" gradientUnits="objectBoundingBox">
<stop stop-color="#ED3040"/>
<stop offset="1" stop-color="#2D23F4"/>
</linearGradient>
<linearGradient id="paint1_linear_6180_40105" x1="0" y1="0" x2="0" y2="1" gradientUnits="objectBoundingBox">
<stop stop-color="#ED3040"/>
<stop offset="1" stop-color="#2D23F4"/>
</linearGradient>
</defs>
</svg>
