<svg width="50" height="50" viewBox="0 0 50 50" fill="none" xmlns="http://www.w3.org/2000/svg">
<path d="M24.9949 22.4998C27.256 22.4998 29.0957 20.6308 29.0957 18.3333C29.0957 16.0358 27.256 14.1667 24.9949 14.1667C22.7338 14.1667 20.8945 16.0358 20.8945 18.3333C20.8945 20.6308 22.7342 22.4998 24.9949 22.4998ZM24.9949 15.8333C26.337 15.8333 27.429 16.9547 27.429 18.3333C27.429 19.7118 26.337 20.8333 24.9949 20.8333C23.6529 20.8333 22.5612 19.7118 22.5612 18.3333C22.5612 16.9547 23.6532 15.8333 24.9949 15.8333Z" fill="url(#paint0_linear_6180_40103)"/>
<path d="M33.8634 18.2383L28.8695 23.3335H21.1212L15.6318 17.7329C14.6662 16.748 13.0967 16.7477 12.1311 17.7329C11.1791 18.7041 11.1791 20.2851 12.1311 21.2566L18.4443 27.6975V44.1667C18.4443 44.6269 18.8175 45 19.2776 45H23.3619C23.822 45 24.1952 44.6269 24.1952 44.1667V34.1668H25.7959V44.1667C25.7959 44.6269 26.1691 45 26.6293 45H30.7131C31.1733 45 31.5465 44.6269 31.5465 44.1667V27.6975L37.3641 21.7621C38.3161 20.7908 38.3161 19.2099 37.3641 18.2383C36.3988 17.2539 34.829 17.2535 33.8634 18.2387L33.8634 18.2383ZM36.1738 20.595L30.1179 26.7736C29.9654 26.9294 29.8797 27.1388 29.8797 27.3568L29.8794 43.3331H27.4622V33.3332C27.4622 32.873 27.089 32.4999 26.6289 32.4999H23.3614C22.9013 32.4999 22.5281 32.873 22.5281 33.3332V43.3331H20.1106L20.1109 27.3568C20.1109 27.1388 20.0255 26.9291 19.8727 26.7736L13.3214 20.0895C12.9998 19.7614 12.9998 19.2274 13.3214 18.8992C13.6327 18.5817 14.1299 18.5813 14.4415 18.8992L20.1758 24.75C20.3326 24.9097 20.547 25.0001 20.7709 25.0001H29.2195C29.4435 25.0001 29.6582 24.9101 29.8147 24.75L35.054 19.4048C35.3653 19.0872 35.8625 19.0868 36.1739 19.4048C36.4954 19.7329 36.4954 20.2669 36.1739 20.595H36.1738Z" fill="url(#paint1_linear_6180_40103)"/>
<path d="M41.5784 6.84365C41.2893 5.78277 40.318 5 39.1665 5C37.7881 5 36.6666 6.12143 36.6666 7.49997V8.33328L13.3334 8.33361V7.50031C13.3334 6.12185 12.212 5.00033 10.8335 5.00033C9.68221 5.00033 8.71067 5.7827 8.42155 6.84364C6.78437 6.19194 5 7.40601 5 9.16695V12.5002C5 14.2627 6.78539 15.4745 8.42155 14.8235C8.71068 15.8844 9.68229 16.6668 10.8335 16.6668C12.2119 16.6668 13.3334 15.5454 13.3334 14.1668V13.3335H36.6666V14.1668C36.6666 15.5453 37.788 16.6668 39.1665 16.6668C40.3178 16.6668 41.2893 15.8844 41.5784 14.8235C43.216 15.4752 45 14.2611 45 12.5002V9.16695C45 7.40444 43.2143 6.19232 41.5784 6.84365ZM7.50015 13.3335C7.04065 13.3335 6.66684 12.9597 6.66684 12.5002V9.16698C6.66684 8.70748 7.04066 8.33367 7.50015 8.33367C7.95964 8.33367 8.33346 8.70749 8.33346 9.16698V12.5002C8.33346 12.9597 7.95964 13.3335 7.50015 13.3335ZM11.6667 14.1668C11.6667 14.6263 11.2929 15.0001 10.8334 15.0001C10.3739 15.0001 10.0001 14.6263 10.0001 14.1668V7.5003C10.0001 7.0408 10.3739 6.66699 10.8334 6.66699C11.2929 6.66699 11.6667 7.04081 11.6667 7.5003V14.1668ZM13.3333 11.6668V10.0002H36.6665V11.6668H13.3333ZM39.9998 14.1668C39.9998 14.6263 39.626 15.0001 39.1665 15.0001C38.707 15.0001 38.3332 14.6263 38.3332 14.1668V7.5003C38.3332 7.0408 38.707 6.66699 39.1665 6.66699C39.626 6.66699 39.9998 7.04081 39.9998 7.5003V14.1668ZM43.3333 12.5002C43.3333 12.9597 42.9595 13.3335 42.5 13.3335C42.0406 13.3335 41.6667 12.9597 41.6667 12.5002V9.16695C41.6667 8.70745 42.0406 8.33364 42.5 8.33364C42.9595 8.33364 43.3333 8.70746 43.3333 9.16695V12.5002Z" fill="url(#paint2_linear_6180_40103)"/>
<defs>
<linearGradient id="paint0_linear_6180_40103" x1="37.6624" y1="33.6397" x2="37.6624" y2="41.6506" gradientUnits="userSpaceOnUse">
<stop stop-color="#ED3040"/>
<stop offset="1" stop-color="#2D23F4"/>
</linearGradient>
<linearGradient id="paint1_linear_6180_40103" x1="37.6624" y1="33.6397" x2="37.6624" y2="41.6506" gradientUnits="userSpaceOnUse">
<stop stop-color="#ED3040"/>
<stop offset="1" stop-color="#2D23F4"/>
</linearGradient>
<linearGradient id="paint2_linear_6180_40103" x1="37.6624" y1="33.6397" x2="37.6624" y2="41.6506" gradientUnits="userSpaceOnUse">
<stop stop-color="#ED3040"/>
<stop offset="1" stop-color="#2D23F4"/>
</linearGradient>
</defs>
</svg>
