<svg width="50" height="50" viewBox="0 0 50 50" fill="none" xmlns="http://www.w3.org/2000/svg">
<path d="M25.0001 12.0003C21.6407 12.0003 18.4189 13.3348 16.0435 15.7103C13.6681 18.0859 12.3335 21.3076 12.3335 24.6668C12.3335 28.0259 13.668 31.2478 16.0435 33.6232C18.4191 35.9988 21.6409 37.3332 25.0001 37.3332C28.3593 37.3332 31.5812 35.9988 33.9566 33.6232C36.3322 31.248 37.6667 28.0263 37.6667 24.6668C37.6631 21.3084 36.3273 18.0887 33.9527 15.7146C31.5782 13.34 28.3584 12.0043 25.0004 12.0006L25.0001 12.0003ZM25.0001 35.9996C21.9944 35.9996 19.1117 34.8054 16.9862 32.68C14.8607 30.5549 13.6669 27.6722 13.6669 24.6665C13.6669 21.6608 14.8608 18.7782 16.9862 16.6527C19.1116 14.5273 21.9944 13.3334 25.0001 13.3334C28.0058 13.3334 30.8885 14.5273 33.0136 16.6527C35.1391 18.7782 36.3333 21.6608 36.3333 24.6665C36.33 27.6712 35.1348 30.5519 33.01 32.6763C30.8855 34.8011 28.0048 35.9963 25.0001 35.9996Z" fill="url(#paint0_linear_6180_40097)"/>
<path d="M12.3334 10.6674H11.0002V16.6673H10.3333V10.6674H9.00015V16.6673H8.33356V10.6674H7.00007V16.6673H6.33349V10.6674H5V20.6672C5.00066 21.0807 5.12901 21.484 5.36787 21.8217C5.60638 22.1592 5.94381 22.4149 6.33347 22.5531V38C6.33347 38.5306 6.5442 39.0393 6.91934 39.4141C7.29415 39.7893 7.80297 40 8.33354 40H9.00012C9.53041 40 10.0392 39.7893 10.4143 39.4141C10.7895 39.0393 11.0002 38.5305 11.0002 38V22.5531C11.3899 22.4149 11.727 22.1592 11.9658 21.8217C12.2043 21.484 12.333 21.0807 12.3333 20.6672L12.3334 10.6674ZM11.0002 20.667C11.0002 20.844 10.9298 21.0134 10.8047 21.1384C10.6797 21.2635 10.5103 21.3336 10.3333 21.3336C9.9651 21.3336 9.66672 21.6323 9.66672 22.0005V38.0003C9.66672 38.1773 9.59658 38.3467 9.47154 38.4717C9.34649 38.5968 9.17678 38.6672 9.00013 38.6672H8.33355C7.96535 38.6672 7.66663 38.3685 7.66663 38.0003V22.0005C7.66663 21.8235 7.5965 21.6542 7.47145 21.5291C7.3464 21.4041 7.17703 21.3336 7.00005 21.3336C6.63185 21.3336 6.33346 21.0352 6.33346 20.667V18.0004H11.0002L11.0002 20.667Z" fill="url(#paint1_linear_6180_40097)"/>
<path d="M44.3334 10C42.7425 10.002 41.2175 10.6345 40.0928 11.7595C38.9677 12.8843 38.3352 14.4093 38.3332 16.0001V24.6669C38.3332 25.1972 38.5439 25.706 38.9191 26.0811C39.2942 26.4559 39.803 26.6667 40.3333 26.6667V39.3332C40.3333 39.5099 40.4034 39.6796 40.5285 39.8046C40.6535 39.9297 40.8232 39.9998 40.9999 39.9998H44.3334C44.5101 39.9998 44.6798 39.9297 44.8048 39.8046C44.9295 39.6796 45 39.5099 45 39.3332V10.6668C45 10.4899 44.9295 10.3205 44.8048 10.1954C44.6798 10.0704 44.5101 10 44.3334 10ZM43.6665 38.6664H41.6668V25.9998C41.6668 25.8232 41.5963 25.6535 41.4713 25.5284C41.3462 25.4034 41.1768 25.3332 40.9999 25.3332H40.3333C39.9651 25.3332 39.6667 25.0349 39.6667 24.6667V15.9999C39.668 14.8778 40.0729 13.794 40.8073 12.9459C41.5417 12.098 42.5566 11.5423 43.6666 11.3805L43.6665 38.6664Z" fill="url(#paint2_linear_6180_40097)"/>
<path d="M40.3328 14.0006H41.6659V24.0004H40.3328V14.0006Z" fill="url(#paint3_linear_6180_40097)"/>
<path d="M25.0001 18.0003C23.2319 18.0003 21.5362 18.7026 20.286 19.9531C19.0355 21.2033 18.3332 22.8989 18.3332 24.6671C18.3332 26.4349 19.0355 28.1306 20.286 29.3811C21.5362 30.6312 23.2319 31.3335 25.0001 31.3335C26.7679 31.3335 28.4636 30.6312 29.7141 29.3811C30.9643 28.1306 31.6666 26.4349 31.6666 24.6671C31.6646 22.8996 30.9616 21.2049 29.7118 19.9551C28.462 18.7053 26.7676 18.0023 25.0001 18.0003ZM25.0001 30.0004V30.0007C23.5855 30.0007 22.2289 29.4387 21.2289 28.4387C20.2285 27.4384 19.6668 26.0817 19.6668 24.6675C19.6668 23.253 20.2285 21.8963 21.2289 20.8963C22.2289 19.896 23.5855 19.3343 25.0001 19.3343C26.4143 19.3343 27.771 19.896 28.7713 20.8963C29.7714 21.8964 30.3334 23.253 30.3334 24.6675C30.3317 26.0814 29.7693 27.437 28.7693 28.4368C27.7695 29.4368 26.4139 29.9991 25 30.0008L25.0001 30.0004Z" fill="url(#paint4_linear_6180_40097)"/>
<defs>
<linearGradient id="paint0_linear_6180_40097" x1="37.6624" y1="31.4797" x2="37.6624" y2="37.4879" gradientUnits="userSpaceOnUse">
<stop stop-color="#ED3040"/>
<stop offset="1" stop-color="#2D23F4"/>
</linearGradient>
<linearGradient id="paint1_linear_6180_40097" x1="37.6624" y1="31.4797" x2="37.6624" y2="37.4879" gradientUnits="userSpaceOnUse">
<stop stop-color="#ED3040"/>
<stop offset="1" stop-color="#2D23F4"/>
</linearGradient>
<linearGradient id="paint2_linear_6180_40097" x1="37.6624" y1="31.4797" x2="37.6624" y2="37.4879" gradientUnits="userSpaceOnUse">
<stop stop-color="#ED3040"/>
<stop offset="1" stop-color="#2D23F4"/>
</linearGradient>
<linearGradient id="paint3_linear_6180_40097" x1="37.6624" y1="31.4797" x2="37.6624" y2="37.4879" gradientUnits="userSpaceOnUse">
<stop stop-color="#ED3040"/>
<stop offset="1" stop-color="#2D23F4"/>
</linearGradient>
<linearGradient id="paint4_linear_6180_40097" x1="37.6624" y1="31.4797" x2="37.6624" y2="37.4879" gradientUnits="userSpaceOnUse">
<stop stop-color="#ED3040"/>
<stop offset="1" stop-color="#2D23F4"/>
</linearGradient>
</defs>
</svg>
