<svg width="50" height="50" viewBox="0 0 50 50" fill="none" xmlns="http://www.w3.org/2000/svg">
<path d="M16.0005 31.9943H18.3842C18.4117 32.0609 18.4402 32.1318 18.4703 32.2004L16.7841 33.8813L16.7845 33.8809C16.5344 34.1302 16.3941 34.4682 16.3941 34.8205C16.3941 35.173 16.5344 35.511 16.7845 35.7603L18.6002 37.5731C18.8503 37.8224 19.1894 37.9626 19.5431 37.9626C19.8967 37.9626 20.2358 37.8224 20.4856 37.5731L22.1743 35.8959C22.2411 35.9259 22.3116 35.9543 22.3811 35.9816V38.3547C22.3811 38.7072 22.5213 39.0452 22.7714 39.2945C23.0215 39.5438 23.3606 39.684 23.7143 39.684H26.2863C26.6399 39.684 26.979 39.5438 27.2291 39.2945C27.4792 39.0452 27.6195 38.7072 27.6195 38.3547V35.9784C27.6863 35.951 27.7574 35.9226 27.8262 35.8926L29.5124 37.5735V37.5731C29.7625 37.8224 30.1015 37.9626 30.4548 37.9626C30.8085 37.9626 31.1476 37.8224 31.3977 37.5731L33.2162 35.763C33.4663 35.5137 33.6065 35.1757 33.6065 34.8232C33.6065 34.471 33.4663 34.1329 33.2162 33.8836L31.5337 32.2002C31.5638 32.1336 31.5922 32.0633 31.6197 31.9941L34.0002 31.9944C34.3538 31.9944 34.6929 31.8542 34.943 31.6049C35.1931 31.3556 35.3337 31.0176 35.3337 30.6651V28.1011C35.3337 27.7486 35.1931 27.4105 34.943 27.1612C34.6929 26.9119 34.3538 26.7721 34.0002 26.7721H31.6164C31.5889 26.7055 31.5605 26.6346 31.5304 26.566L33.2165 24.8851L33.2162 24.8855C33.4663 24.6362 33.6065 24.2981 33.6065 23.9456C33.6065 23.5931 33.4663 23.2551 33.2162 23.0057L31.4004 21.1929C31.1503 20.9436 30.8112 20.8038 30.4576 20.8038C30.1043 20.8038 29.7652 20.9436 29.5151 21.1929L27.8289 22.8738C27.7621 22.8438 27.6917 22.8154 27.6222 22.788L27.6225 20.4114C27.6225 20.0589 27.4819 19.7209 27.2318 19.4715C26.9817 19.2222 26.6427 19.0821 26.289 19.0821H23.7143C23.3607 19.0821 23.0216 19.2222 22.7715 19.4715C22.5214 19.7208 22.3812 20.0589 22.3812 20.4114V22.7877C22.3143 22.8151 22.2432 22.8434 22.1744 22.8734L20.4883 21.1926V21.1929C20.2385 20.9436 19.8994 20.8038 19.5458 20.8038C19.1922 20.8038 18.8531 20.9436 18.603 21.1929L16.7845 23.003C16.5344 23.2523 16.3941 23.5903 16.3941 23.9429C16.3941 24.2954 16.5344 24.6334 16.7845 24.8824L18.4706 26.5633C18.4405 26.6299 18.412 26.7001 18.3846 26.7694H16.0005C15.6468 26.7694 15.3078 26.9092 15.0576 27.1585C14.8075 27.4078 14.667 27.7458 14.667 28.0984V30.6623C14.6663 31.0152 14.8066 31.3542 15.0567 31.6038C15.3067 31.8538 15.6465 31.9943 16.0005 31.9943ZM16.0005 28.1014H19.3632V28.101C19.5077 27.4689 19.7591 26.8653 20.1065 26.3166L17.7269 23.9455L19.5458 22.1324L21.9243 24.5042V24.5045C22.4748 24.1582 23.0799 23.9076 23.7143 23.7635V20.4113H26.2864V23.7635C26.9209 23.9076 27.5259 24.1582 28.0764 24.5045L30.4549 22.1327L32.2738 23.9459L29.8946 26.3169L29.8942 26.3166C30.2416 26.8653 30.493 27.4688 30.6376 28.101H34.0003V30.665H30.6376C30.493 31.2975 30.2416 31.9007 29.8942 32.4494L32.2734 34.8205L30.455 36.6336L28.0764 34.2619C27.526 34.6078 26.9209 34.8584 26.2864 35.0029V38.3547H23.7143V35.0029C23.0798 34.8584 22.4748 34.6078 21.9243 34.2619L19.5458 36.6336L17.7269 34.8205L20.1061 32.4494H20.1065C19.7591 31.9007 19.5077 31.2975 19.3632 30.665H16.0005V28.1014Z" fill="url(#paint0_linear_6180_40099)"/>
<path d="M25.0002 33.703C26.1494 33.703 27.2514 33.2479 28.0642 32.4377C28.877 31.6278 29.3335 30.529 29.3335 29.3833C29.3335 28.2377 28.877 27.1389 28.0642 26.3286C27.2514 25.5187 26.1495 25.0636 25.0002 25.0636C23.8509 25.0636 22.7487 25.5187 21.9359 26.3286C21.1234 27.1388 20.6669 28.2376 20.6669 29.3833C20.6682 30.5282 21.1251 31.6264 21.9376 32.436C22.75 33.2459 23.8513 33.7013 25.0002 33.703ZM25.0002 26.3926C25.7958 26.3926 26.5586 26.7078 27.1214 27.2685C27.6841 27.8294 28 28.5902 28 29.3833C28 30.1764 27.6841 30.9368 27.1214 31.4978C26.5587 32.0588 25.7958 32.3737 25.0002 32.3737C24.2043 32.3737 23.4414 32.0588 22.8787 31.4978C22.316 30.9369 22.0001 30.1764 22.0001 29.3833C22.0011 28.5902 22.3173 27.8301 22.8797 27.2695C23.4421 26.7089 24.2046 26.3936 25.0002 26.3926Z" fill="url(#paint1_linear_6180_40099)"/>
<path d="M34.3336 41.6775C34.3336 42.0445 34.0352 42.342 33.667 42.342C33.2988 42.342 33.0001 42.0445 33.0001 41.6775C33.0001 41.3105 33.2988 41.0127 33.667 41.0127C34.0352 41.0127 34.3336 41.3105 34.3336 41.6775Z" fill="url(#paint2_linear_6180_40099)"/>
<path d="M35.9996 8.44905V7.51847C36.0343 6.86321 35.7975 6.22217 35.3442 5.74594C34.891 5.26975 34.2615 5 33.6029 5C32.9446 5 32.3151 5.26975 31.8618 5.74594C31.4086 6.22213 31.1717 6.86318 31.2061 7.51847V8.44905H18.7935V7.51847C18.8282 6.86321 18.591 6.22217 18.1378 5.74594C17.6846 5.26975 17.0551 5 16.3967 5C15.7384 5 15.1086 5.26975 14.6557 5.74594C14.2024 6.22213 13.9653 6.86318 14 7.51847V8.44905H9.6667C8.4295 8.45037 7.24354 8.94107 6.36855 9.81297C5.49356 10.6852 5.00161 11.8675 5 13.1008V41.6278C5.00099 42.5218 5.35761 43.3788 5.99177 44.011C6.62561 44.6432 7.48541 44.999 8.38225 45H41.6178C42.5147 44.999 43.3744 44.6432 44.0086 44.011C44.6424 43.3788 44.999 42.5217 45 41.6278V13.1008C44.9983 11.8675 44.5064 10.6852 43.6315 9.81297C42.7568 8.94106 41.5705 8.45031 40.3333 8.44905H35.9996ZM32.5397 7.51847C32.5162 7.22299 32.6177 6.93081 32.8195 6.71316C33.0213 6.49518 33.3055 6.37118 33.6029 6.37118C33.9006 6.37118 34.1845 6.49518 34.3866 6.71316C34.5884 6.9308 34.6899 7.22299 34.6665 7.51847V11.1822C34.6235 11.7352 34.1616 12.1626 33.6052 12.1639C33.0488 12.1653 32.5847 11.7399 32.5397 11.1868L32.5397 7.51847ZM31.2197 11.8513H31.3163V11.8517C31.5082 12.5152 31.9806 13.0626 32.6104 13.3508C33.2403 13.6387 33.9648 13.6387 34.5947 13.3508C35.2245 13.0626 35.6973 12.5152 35.8891 11.8517H35.9864C36.4991 11.8553 36.9129 12.2708 36.9129 12.782V13.3202C36.9129 13.8317 36.4991 14.2471 35.9864 14.2508H31.2197C30.7066 14.2471 30.2932 13.8316 30.2932 13.3202V12.782C30.2932 12.2708 30.7067 11.8553 31.2197 11.8517V11.8513ZM15.3332 7.51847C15.3332 7.23651 15.4454 6.96609 15.6455 6.76659C15.8456 6.5674 16.1169 6.45528 16.3997 6.45528C16.6833 6.45165 16.9558 6.56278 17.1556 6.76329C17.3551 6.96379 17.465 7.23618 17.4597 7.51847V11.1822C17.417 11.7352 16.9552 12.1626 16.3984 12.1639C15.842 12.1653 15.3782 11.7399 15.3332 11.1868L15.3332 7.51847ZM14.0133 11.8513H14.1099V11.8517C14.3017 12.5152 14.7741 13.0626 15.404 13.3508C16.0338 13.6387 16.7583 13.6387 17.3882 13.3508C18.0181 13.0626 18.4905 12.5152 18.6823 11.8517H18.7796C19.2927 11.8553 19.7065 12.2708 19.7065 12.782V13.3202C19.7065 13.8317 19.2926 14.2471 18.7796 14.2508H14.0129C13.5002 14.2471 13.0864 13.8316 13.0864 13.3202V12.782C13.0864 12.2708 13.5002 11.8553 14.0129 11.8517L14.0133 11.8513ZM43.6657 35.0319H38.3324C37.9642 35.0319 37.6658 35.3293 37.6658 35.6964V41.013L36.3359 41.0071H36.3326C35.9644 41.0061 35.6651 41.3029 35.6641 41.6699C35.6634 42.037 35.9611 42.3354 36.3293 42.3364L38.3324 42.3423C38.5103 42.3427 38.681 42.2727 38.8071 42.1474L43.6657 37.3008V41.6284C43.6654 42.1702 43.4493 42.6893 43.0653 43.0722C42.6812 43.4554 42.1605 43.6707 41.6169 43.6714H8.38135C7.9556 43.6704 7.54076 43.5372 7.19437 43.2905C6.84768 43.0438 6.587 42.6956 6.44807 42.2946L30.999 42.3332C31.3672 42.3332 31.6655 42.0354 31.6655 41.6683C31.6655 41.3013 31.3672 41.0039 30.999 41.0039L6.33204 40.9653V17.9907H43.6648L43.6657 35.0319ZM42.7222 36.3609L38.9993 40.0715V36.3612L42.7222 36.3609ZM43.6657 16.6619H6.33297V13.1009C6.33396 12.2201 6.68562 11.3755 7.31052 10.7527C7.93542 10.1298 8.78264 9.7792 9.66619 9.77819H13.9995V10.5238C13.4017 10.5291 12.8304 10.7695 12.4096 11.1926C11.9888 11.616 11.753 12.1875 11.753 12.7834V13.3216C11.753 13.9198 11.9908 14.4936 12.4146 14.917C12.838 15.3408 13.413 15.5795 14.0127 15.5812H18.7794C19.3795 15.5795 19.9544 15.3408 20.3778 14.917C20.8016 14.4936 21.0395 13.9198 21.0395 13.3216V12.7834C21.0395 12.1875 20.8036 11.616 20.3828 11.1926C19.962 10.7695 19.3904 10.5291 18.793 10.5238V9.77819H31.2056V10.5238C30.6082 10.5291 30.0365 10.7695 29.616 11.1926C29.1952 11.616 28.959 12.1875 28.959 12.7834V13.3216C28.959 13.9198 29.1969 14.4936 29.6207 14.917C30.0441 15.3408 30.619 15.5795 31.2191 15.5812H35.9858C36.5855 15.5795 37.1605 15.3408 37.5842 14.917C38.0077 14.4936 38.2455 13.9198 38.2455 13.3216V12.7834C38.2455 12.1875 38.0097 11.616 37.5889 11.1926C37.1681 10.7695 36.5968 10.5291 35.999 10.5238V9.77819H40.3323C41.216 9.77917 42.0634 10.1297 42.6883 10.7527C43.3129 11.3756 43.6645 12.2202 43.6655 13.1009L43.6657 16.6619Z" fill="url(#paint3_linear_6180_40099)"/>
<defs>
<linearGradient id="paint0_linear_6180_40099" x1="0" y1="0" x2="0" y2="1" gradientUnits="objectBoundingBox">
<stop stop-color="#ED3040"/>
<stop offset="1" stop-color="#2D23F4"/>
</linearGradient>
<linearGradient id="paint1_linear_6180_40099" x1="0" y1="0" x2="0" y2="1" gradientUnits="objectBoundingBox">
<stop stop-color="#ED3040"/>
<stop offset="1" stop-color="#2D23F4"/>
</linearGradient>
<linearGradient id="paint2_linear_6180_40099" x1="0" y1="0" x2="0" y2="1" gradientUnits="objectBoundingBox">
<stop stop-color="#ED3040"/>
<stop offset="1" stop-color="#2D23F4"/>
</linearGradient>
<linearGradient id="paint3_linear_6180_40099" x1="0" y1="0" x2="0" y2="1" gradientUnits="objectBoundingBox">
<stop stop-color="#ED3040"/>
<stop offset="1" stop-color="#2D23F4"/>
</linearGradient>
</defs>
</svg>
