<svg width="50" height="50" viewBox="0 0 50 50" fill="none" xmlns="http://www.w3.org/2000/svg">
<path d="M17.8316 25.8312H19.1644V35.6158H17.8316V25.8312Z" fill="url(#paint0_linear_6180_40107)"/>
<path d="M10.3649 25.8312H11.6977V35.6158H10.3649V25.8312Z" fill="url(#paint1_linear_6180_40107)"/>
<path d="M37.8584 25.4138L39.008 23.6145L40.6825 24.6225C40.999 24.8139 41.4074 24.7058 41.5989 24.3976C41.7239 24.1893 41.7239 23.9227 41.5989 23.7144L40.5909 22.0401L44.6816 19.4412C44.9898 19.2411 45.0814 18.833 44.8899 18.5249C44.8648 18.4832 44.8317 18.4498 44.7983 18.4081L43.3821 16.9921C43.2154 16.8254 42.9654 16.7589 42.7322 16.8171L38.0002 18.1085C37.8669 17.9501 37.7419 17.792 37.6086 17.6336L34.4012 13.8931L41.8574 9.06988C42.1574 8.87841 42.249 8.47827 42.0657 8.17005L40.6495 5.8125C40.4911 5.55423 40.1746 5.42923 39.8829 5.52083L29.8348 8.56157L29.2682 7.90349C27.9519 6.36246 26.0939 5.37933 24.0778 5.16269L22.7202 5.00429C22.3537 4.96262 22.0286 5.22916 21.9869 5.59591C21.9787 5.64584 21.9787 5.69578 21.9869 5.74571L22.1368 7.11183C22.3617 9.1277 23.3363 10.9856 24.8778 12.3018L25.536 12.8683L23.3115 20.1823C22.745 19.0496 21.5954 18.333 20.329 18.333H17.6631V8.33661C17.6631 6.49564 16.1718 5.00456 14.3307 5.00456C12.4895 5.00423 10.9983 6.49564 10.9983 8.33661V18.333L8.33237 18.3327C6.49122 18.3327 5 19.8237 5 21.6647V38.9916C5 40.6243 6.18304 42.0155 7.79922 42.282C7.40764 43.3151 7.92424 44.4729 8.95711 44.8644C9.99029 45.256 11.1482 44.7394 11.5398 43.7066C11.7065 43.2652 11.7147 42.7737 11.5563 42.3323H18.4546C18.0882 43.3737 18.6296 44.5149 19.671 44.8813C20.7125 45.2477 21.8538 44.7063 22.2202 43.665C22.4286 43.0651 22.3452 42.4071 21.9953 41.8822C23.0285 41.2906 23.6698 40.191 23.6698 38.9915V24.2137L25.1362 25.0967C25.1445 25.1049 25.1527 25.1049 25.1613 25.1132L26.2944 30.0865C23.5785 34.8931 25.2781 40.9904 30.0851 43.7062C34.8922 46.4221 40.9901 44.7225 43.7062 39.9159C46.4221 35.1092 44.7225 29.0119 39.9154 26.2961C39.2573 25.9214 38.574 25.6298 37.8576 25.4131L37.8584 25.4138ZM36.4753 25.1056C36.1089 25.0474 35.7421 25.014 35.3674 25.0058L36.217 21.8903C36.6086 22.1651 37.0002 22.4234 37.4083 22.6651L37.8581 22.9316L36.4753 25.1056ZM34.6008 20.6323C34.7592 20.7656 34.9173 20.8989 35.0757 21.0239L33.976 25.0474C33.1846 25.1225 32.4014 25.2974 31.6434 25.5722L26.6365 23.9478L30.8606 17.4252L34.6008 20.6323ZM42.7155 18.1998L43.2655 18.7497L39.908 20.8906L39.6414 20.4409C39.3996 20.0328 39.1417 19.6413 38.8665 19.2497L42.7155 18.1998ZM39.7747 6.92843L40.5912 8.28625L33.5263 12.8597L30.7852 9.66914L39.7747 6.92843ZM23.4621 6.96183L23.4039 6.42048L23.9453 6.47869C25.628 6.66189 27.1695 7.47841 28.2692 8.76114L36.6001 18.4824C37.3082 19.3071 37.9416 20.1901 38.4995 21.1147L39.0912 22.0975L38.1083 21.5059C37.1753 20.9477 36.3005 20.3148 35.4757 19.6067L25.7451 11.2851C24.4619 10.1856 23.6456 8.64454 23.4624 6.96163L23.4621 6.96183ZM12.3319 8.3365C12.3319 7.22867 13.2232 6.33714 14.3315 6.33714C15.4394 6.33714 16.331 7.22833 16.331 8.3365V18.3329H12.3323L12.3319 8.3365ZM10.3324 42.9903C10.3324 43.3567 10.0324 43.6567 9.66596 43.6567C9.29952 43.6567 8.99955 43.3567 8.99955 42.9903C8.99955 42.6239 9.29952 42.324 9.66596 42.324C10.0327 42.324 10.3324 42.6239 10.3324 42.9903ZM20.996 42.9903C20.996 43.3567 20.6961 43.6567 20.3296 43.6567C19.9632 43.6567 19.6632 43.3567 19.6632 42.9903C19.6632 42.6239 19.9632 42.324 20.3296 42.324C20.6961 42.324 20.996 42.6239 20.996 42.9903ZM22.3292 38.9919C22.3292 40.0915 21.4293 40.9913 20.3296 40.9913L8.33248 40.991C7.23284 40.991 6.33293 40.0911 6.33293 38.9916V21.6647C6.33293 20.5652 7.23284 19.6653 8.33248 19.6653H10.9984V21.6647H12.3313V19.6653H16.33V21.6647H17.6628V19.6653H20.3288C21.4284 19.6653 22.3284 20.5652 22.3284 21.6647L22.3292 38.9919ZM26.6445 13.8096L29.8354 16.5504L25.2615 23.6147L23.9036 22.7982L26.6445 13.8096ZM34.9924 43.6574C30.2018 43.6574 26.3277 39.7754 26.3277 34.9935C26.3277 33.4191 26.7527 31.8781 27.5689 30.5367C27.6605 30.3869 27.6857 30.212 27.644 30.0453L26.5695 25.3303L31.4517 26.913C31.5932 26.9629 31.7516 26.9547 31.8932 26.9047C36.3669 25.197 41.3741 27.4378 43.0818 31.9028C44.7897 36.3761 42.5486 41.3828 38.0832 43.0904C37.0996 43.4654 36.0499 43.6568 34.9919 43.6568L34.9924 43.6574Z" fill="url(#paint2_linear_6180_40107)"/>
<path d="M38.9913 34.3275C38.7082 34.3275 38.4499 34.5107 38.3583 34.7855L37.6836 36.8096L35.6258 30.1369C35.5424 29.8538 35.2841 29.6703 34.9928 29.6703H34.9845C34.6928 29.6703 34.4345 29.8704 34.3515 30.1535L33.1592 34.3275H27.6606V35.6602H33.659C33.959 35.6602 34.2173 35.4601 34.3006 35.177L35.0169 32.6697L37.0248 39.1841C37.1081 39.4589 37.3664 39.6507 37.6578 39.6507H37.6661C37.9492 39.6507 38.2075 39.4675 38.2991 39.1927L39.4821 35.6523L42.3237 35.6519V34.3193H38.9913L38.9913 34.3275Z" fill="url(#paint3_linear_6180_40107)"/>
<defs>
<linearGradient id="paint0_linear_6180_40107" x1="37.6624" y1="33.6397" x2="37.6624" y2="41.6506" gradientUnits="userSpaceOnUse">
<stop stop-color="#ED3040"/>
<stop offset="1" stop-color="#2D23F4"/>
</linearGradient>
<linearGradient id="paint1_linear_6180_40107" x1="37.6624" y1="33.6397" x2="37.6624" y2="41.6506" gradientUnits="userSpaceOnUse">
<stop stop-color="#ED3040"/>
<stop offset="1" stop-color="#2D23F4"/>
</linearGradient>
<linearGradient id="paint2_linear_6180_40107" x1="37.6624" y1="33.6397" x2="37.6624" y2="41.6506" gradientUnits="userSpaceOnUse">
<stop stop-color="#ED3040"/>
<stop offset="1" stop-color="#2D23F4"/>
</linearGradient>
<linearGradient id="paint3_linear_6180_40107" x1="37.6624" y1="33.6397" x2="37.6624" y2="41.6506" gradientUnits="userSpaceOnUse">
<stop stop-color="#ED3040"/>
<stop offset="1" stop-color="#2D23F4"/>
</linearGradient>
</defs>
</svg>
