<svg width="50" height="50" viewBox="0 0 50 50" fill="none" xmlns="http://www.w3.org/2000/svg">
<path d="M34.7219 7.77428V5.64508C34.7219 5.47413 34.6537 5.3099 34.5321 5.18888C34.4106 5.06819 34.2456 5 34.0738 5H31.4813C31.1234 5 30.8333 5.28876 30.8333 5.64508V7.77428C28.6386 8.22311 26.6668 9.41174 25.2501 11.1393C23.8334 12.8667 23.0584 15.028 23.0558 17.2581V38.5484H21.7594V30.1611C21.7594 29.9898 21.6912 29.8256 21.5696 29.7049C21.4481 29.5839 21.2834 29.5157 21.1113 29.5157H19.0479C18.8424 28.9372 18.3732 28.4899 17.7837 28.3104C17.1942 28.1305 16.5541 28.24 16.0583 28.6049C15.5626 28.9699 15.2703 29.5471 15.2703 30.1611C15.2703 30.7748 15.5626 31.352 16.0583 31.7169C16.5542 32.0819 17.1942 32.1914 17.7837 32.0114C18.3732 31.8319 18.8424 31.3846 19.0479 30.8061H20.4633V39.1934C20.4633 39.3644 20.5315 39.5286 20.6531 39.6496C20.7746 39.7706 20.9396 39.8385 21.1113 39.8385H23.0558V41.774C23.0558 41.945 23.124 42.1092 23.2456 42.2302C23.3671 42.3513 23.5321 42.4191 23.7039 42.4191H24.4712C24.3947 42.6256 24.3541 42.844 24.3519 43.0642C24.3519 43.7557 24.7227 44.3947 25.3242 44.7404C25.9259 45.0862 26.6669 45.0862 27.2686 44.7404C27.8704 44.3947 28.2409 43.7557 28.2409 43.0642C28.2386 42.844 28.1984 42.6256 28.1216 42.4191H37.4342C37.3574 42.6256 37.3172 42.844 37.3149 43.0642C37.3149 43.7557 37.6854 44.3947 38.2872 44.7404C38.889 45.0862 39.6299 45.0862 40.2316 44.7404C40.833 44.3947 41.2039 43.7557 41.2039 43.0642C41.2016 42.844 41.1611 42.6256 41.0846 42.4191H41.852C42.0237 42.4191 42.1887 42.3513 42.3102 42.2302C42.4318 42.1092 42.5 41.945 42.5 41.774V17.2579C42.4974 15.0279 41.7223 12.8666 40.3057 11.1392C38.889 9.41172 36.9172 8.22304 34.7225 7.77417L34.7219 7.77428ZM17.2229 30.8062C16.9608 30.8062 16.7244 30.649 16.624 30.4079C16.5237 30.1668 16.579 29.8893 16.7646 29.7049C16.9498 29.5202 17.2287 29.4651 17.4708 29.565C17.713 29.6649 17.8709 29.8999 17.8709 30.1611C17.8709 30.332 17.8027 30.4963 17.6812 30.6173C17.5596 30.738 17.3946 30.8062 17.2229 30.8062ZM38.6113 25.6449H36.0188V24.3544H38.6113V25.6449ZM41.2038 26.935V32.0963H33.4262V26.935H41.2038ZM33.4262 33.3868H41.2038V34.6769H33.4262V33.3868ZM41.2038 35.9674V38.548H26.9446V35.9674H41.2038ZM32.1299 6.29056H33.426L33.4263 7.61372C33.2111 7.59964 32.9972 7.58075 32.7779 7.58075C32.5589 7.58075 32.345 7.59932 32.1299 7.61372L32.1299 6.29056ZM32.7779 8.87116C35.0119 8.87373 37.1535 9.75792 38.7329 11.3305C40.3127 12.9027 41.2012 15.0344 41.2039 17.2581V25.6454H39.9074V23.7099C39.9074 23.539 39.8393 23.3747 39.7177 23.2537C39.5961 23.1327 39.4311 23.0648 39.2594 23.0648H35.3705C35.0125 23.0648 34.7224 23.3536 34.7224 23.7099V25.6454H32.778C32.42 25.6454 32.1299 25.9342 32.1299 26.2905V34.6778H26.2968C25.9389 34.6778 25.6488 34.9666 25.6488 35.3229V38.5486L24.3524 38.5489V17.2586C24.3549 15.0349 25.2435 12.903 26.823 11.3309C28.4028 9.75834 30.5444 8.87412 32.778 8.87158L32.7779 8.87116ZM26.9448 43.0637C26.9448 43.3246 26.7869 43.5599 26.5447 43.6598C26.3026 43.7597 26.0237 43.7046 25.8385 43.5199C25.6532 43.3355 25.5976 43.058 25.6979 42.8169C25.7983 42.5758 26.0347 42.4186 26.2968 42.4186C26.4688 42.4186 26.6335 42.4865 26.7551 42.6075C26.8766 42.7285 26.9448 42.8928 26.9448 43.0637ZM39.9073 43.0637C39.9073 43.3246 39.7494 43.5599 39.5072 43.6598C39.265 43.7597 38.9862 43.7046 38.8009 43.5199C38.6157 43.3355 38.56 43.058 38.6604 42.8169C38.7607 42.5758 38.9971 42.4186 39.2592 42.4186C39.431 42.4186 39.596 42.4865 39.7175 42.6075C39.8391 42.7285 39.9073 42.8928 39.9073 43.0637ZM41.2034 41.1282L24.3523 41.1285V39.838H41.2042L41.2034 41.1282Z" fill="url(#paint0_linear_6180_40101)"/>
<path d="M10.7408 14.0324C11.6002 14.0311 12.4238 13.6911 13.0313 13.0864C13.6388 12.4816 13.9804 11.6617 13.9817 10.8064V9.51623C13.9817 8.36378 13.3639 7.29893 12.361 6.72271C11.3586 6.14646 10.1232 6.14646 9.12051 6.72271C8.11802 7.29895 7.5002 8.3637 7.5002 9.51623V10.8064C7.50116 11.6618 7.84304 12.4816 8.45056 13.0864C9.05809 13.6911 9.88184 14.0311 10.7408 14.0324ZM8.79669 9.51623C8.79669 8.82474 9.16719 8.18577 9.76896 7.84C10.3704 7.49425 11.1117 7.49425 11.7131 7.84C12.3148 8.18575 12.6853 8.82478 12.6853 9.51623V10.8064C12.6853 11.4979 12.3149 12.1368 11.7131 12.4826C11.1117 12.8284 10.3703 12.8284 9.76896 12.4826C9.16722 12.1369 8.79669 11.4978 8.79669 10.8064V9.51623Z" fill="url(#paint1_linear_6180_40101)"/>
<path d="M15.7359 26.3683C16.0997 26.7326 16.5947 26.9369 17.1105 26.9353H17.2221C17.7376 26.9353 18.2323 26.7313 18.597 26.3686C18.9617 26.0056 19.1662 25.5132 19.1662 25V24.8896C19.1681 24.3758 18.963 23.8828 18.5966 23.5207L13.9815 18.9264V18.5483C13.9815 17.3958 13.3637 16.331 12.3608 15.7547C11.3584 15.1785 10.123 15.1785 9.12031 15.7547C8.11782 16.331 7.5 17.3957 7.5 18.5483V30.1613C7.5 30.3323 7.5685 30.4965 7.68975 30.6175C7.81133 30.7382 7.97631 30.8064 8.14805 30.8064H8.79642V43.0645C8.79642 43.756 9.16692 44.3949 9.76869 44.7407C10.3701 45.0864 11.1115 45.0864 11.7128 44.7407C12.3145 44.3949 12.6851 43.7559 12.6851 43.0645V30.8064H13.3331C13.5052 30.8064 13.6699 30.7382 13.7914 30.6175C13.913 30.4965 13.9815 30.3323 13.9815 30.1613V24.622L15.7359 26.3683ZM17.8702 24.8896V25C17.8702 25.171 17.802 25.3352 17.6804 25.4562C17.5588 25.5772 17.3939 25.6451 17.2221 25.6451H17.1105C16.9388 25.6445 16.7741 25.5766 16.6522 25.4559L11.5788 20.4057C11.4572 20.2847 11.3887 20.1202 11.389 19.9489V19.8388C11.389 19.4824 11.6791 19.1934 12.0371 19.1934H12.1487H12.1484C12.3204 19.1943 12.4848 19.2622 12.6067 19.3826L17.6801 24.4327H17.6804C17.802 24.5541 17.8702 24.7183 17.8702 24.8896ZM10.7406 43.7098C10.3827 43.7098 10.0926 43.4207 10.0926 43.0644V42.4193H11.3887V43.0644H11.389C11.389 43.2356 11.3205 43.3996 11.1989 43.5206C11.0774 43.6416 10.9127 43.7098 10.7406 43.7098ZM11.3887 41.1292H10.0926V30.8069H11.3887V41.1292ZM8.79653 29.5161V28.226H12.6851V29.5161H8.79653ZM12.6851 26.9355H8.79653V18.5482C8.79428 17.9284 9.09113 17.3454 9.59478 16.9808C10.0984 16.6162 10.7474 16.5147 11.3392 16.708C11.9307 16.9011 12.3932 17.3653 12.5823 17.956C12.4401 17.922 12.2948 17.9044 12.1484 17.9032H12.0372C11.5213 17.9032 11.0269 18.1071 10.6623 18.4701C10.2976 18.8332 10.0927 19.3252 10.0927 19.8387V19.9491V19.9488C10.0914 20.4626 10.2966 20.9556 10.6626 21.3181L12.6852 23.3314L12.6851 26.9355Z" fill="url(#paint2_linear_6180_40101)"/>
<defs>
<linearGradient id="paint0_linear_6180_40101" x1="36.0796" y1="33.6397" x2="36.0796" y2="41.6506" gradientUnits="userSpaceOnUse">
<stop stop-color="#ED3040"/>
<stop offset="1" stop-color="#2D23F4"/>
</linearGradient>
<linearGradient id="paint1_linear_6180_40101" x1="36.0796" y1="33.6397" x2="36.0796" y2="41.6506" gradientUnits="userSpaceOnUse">
<stop stop-color="#ED3040"/>
<stop offset="1" stop-color="#2D23F4"/>
</linearGradient>
<linearGradient id="paint2_linear_6180_40101" x1="36.0796" y1="33.6397" x2="36.0796" y2="41.6506" gradientUnits="userSpaceOnUse">
<stop stop-color="#ED3040"/>
<stop offset="1" stop-color="#2D23F4"/>
</linearGradient>
</defs>
</svg>
