<svg width="50" height="50" viewBox="0 0 50 50" fill="none" xmlns="http://www.w3.org/2000/svg">
<path d="M15.7405 9.67461L21.8878 9.76284C22.524 6.85035 26.6121 6.27689 27.8629 9.03445C29.3634 12.3429 24.9986 15.0832 22.6693 12.4548C22.2775 12.0126 22.1612 11.5392 21.89 11.0593L15.7836 11.0432C15.6458 11.608 15.5253 12.1858 15.268 12.713C15.1388 12.9777 14.6254 13.5597 14.7266 13.7835L18.0494 17.079C18.2109 17.121 18.7512 16.583 18.9342 16.4582C21.9363 14.4097 25.5346 13.9169 28.9489 15.2769C30.0652 15.7212 30.9876 16.3947 31.9607 17.079L35.3825 13.6652C33.0801 10.743 34.4256 6.30594 38.0132 5.24725C42.8925 3.80768 46.8396 9.13773 44.0356 13.3607C43.2284 14.5765 41.7785 15.5233 40.3113 15.6384L40.321 21.869C40.3759 22.026 40.6299 22.0013 40.7699 22.0648C44.815 23.8906 42.1369 29.4283 38.4287 27.8682C35.5515 26.6578 36.0973 22.5995 39.025 21.8668C38.9045 21.1406 39.2026 15.8471 38.9454 15.6739C38.8926 15.6384 37.9669 15.4684 37.7118 15.3759C37.1995 15.1897 36.8141 14.91 36.333 14.683L32.9111 18.0925C36.3502 22.0261 36.3018 27.9909 32.9025 31.9341L36.333 35.3555C38.3146 34.002 40.8571 33.832 42.8333 35.3006C46.0205 37.6687 45.6287 42.634 42.0712 44.4179C38.7258 46.0952 34.8992 43.966 34.2965 40.3563L28.1104 40.2756C27.5206 42.3467 25.3581 43.4517 23.4152 42.308C21.4723 41.1643 21.3367 38.5617 23.0654 37.1792C24.9254 35.6912 27.5744 36.7488 28.1104 38.9974L34.3449 38.9921C34.389 38.0012 34.9078 37.1437 35.3804 36.3066L31.9575 32.8777C28.0243 36.2657 22.0191 36.3507 18.1097 32.8755L14.6189 36.3744C16.8826 39.2546 15.5123 43.6604 12.0076 44.732C7.78601 46.0231 3.91531 42.1283 5.27802 37.9248C5.90986 35.9763 7.69775 34.5981 9.69445 34.2753V28.0899C7.42434 27.525 6.43406 24.7406 8.00021 22.9287C9.35431 21.3622 11.928 21.5548 13.0097 23.3139C14.1948 25.2419 13.1464 27.4841 11.0572 28.0942V34.2764C11.9764 34.4636 12.8547 34.7906 13.6136 35.3598L13.718 35.335L17.0957 31.9352C16.6544 31.2574 16.1302 30.6376 15.7513 29.9168C13.7234 26.0629 14.2885 21.387 17.1076 18.0947L13.7449 14.6808C13.1551 14.9207 12.6933 15.2833 12.0647 15.4727C7.09927 16.965 3.09079 11.4402 6.08316 7.23768C8.91945 3.25466 15.141 4.90941 15.7405 9.67461ZM9.674 6.39847C5.30493 6.99237 5.39319 13.989 9.97324 14.3527C16.0441 14.8347 15.832 5.56034 9.67508 6.39739L9.674 6.39847ZM38.841 6.39847C37.3222 6.60505 35.9606 8.02955 35.6613 9.50247C34.7733 13.8664 40.4653 16.1979 42.8742 12.685C44.9603 9.64126 42.4878 5.90355 38.841 6.39847ZM24.7403 8.57073C22.5401 8.90426 22.8447 12.2772 25.1202 12.1783C27.5421 12.0728 27.2203 8.19524 24.7403 8.57073ZM24.0191 15.9041C16.9547 16.5292 13.4747 25.0095 17.7997 30.6097C22.2646 36.3916 31.6464 34.7132 33.7443 27.7187C35.6624 21.3203 30.6281 15.3199 24.0191 15.9041ZM9.99477 23.2289C9.30695 23.3462 8.63959 24.0961 8.57393 24.7901C8.37157 26.9139 11.3381 27.5379 12.0345 25.6702C12.548 24.293 11.4479 22.9825 9.99477 23.2289ZM39.3232 23.2289C37.1338 23.5754 37.4729 27.1754 40.0907 26.7332C42.1541 26.3846 41.7828 22.8384 39.3232 23.2289ZM13.211 42.5092C16.8869 38.8361 11.5319 33.1768 7.67837 36.6175C3.62361 40.238 9.37799 46.3394 13.211 42.5092ZM39.165 35.6342C34.0532 36.2108 34.783 44.0488 39.9475 43.6637C45.2972 43.2645 44.6223 35.0187 39.165 35.6342ZM24.5788 37.886C22.7834 38.1948 22.7489 41.146 24.7273 41.4032C27.4937 41.7636 27.4743 37.3879 24.5788 37.886Z" fill="url(#paint0_linear_6252_23511)"/>
<path d="M31.4483 22.4844L29.5227 23.1364L29.514 25.7864H31.0856C31.613 25.7864 31.9801 26.7267 31.317 27.0656C30.9457 27.255 30.7207 27.0527 30.3579 27.4755C29.8876 28.0232 29.8876 28.9452 30.3579 29.4939C30.7207 29.9168 30.9457 29.7145 31.317 29.9039C32.0457 30.2761 31.6022 31.2574 30.8466 31.1853C27.4754 31.0034 23.8695 31.4166 20.5262 31.1853C17.17 30.9539 17.2776 25.8853 20.5703 25.7864L20.5746 23.0977C20.5369 22.9589 18.241 22.3069 17.8804 22.0712C17.4725 21.8033 17.4908 21.232 17.8686 20.9523C17.9945 20.8587 18.2195 20.7984 18.3745 20.7328C20.4476 19.8602 22.694 19.2308 24.7736 18.3518L25.4248 18.3163C27.541 19.1932 29.8585 19.8247 31.9499 20.7328C32.176 20.8307 32.5323 20.9275 32.6593 21.1513C32.9316 21.6333 32.6388 24.1305 32.7002 24.8245C32.6313 25.0343 32.2707 25.2344 32.0565 25.2215C31.9036 25.2129 31.4462 24.86 31.4462 24.7793V22.4844H31.4483ZM30.0781 21.4386L25.1299 19.6698C23.6703 20.3358 21.764 20.7134 20.3626 21.43C20.2775 21.473 20.2108 21.388 20.2474 21.5978L25.2042 23.3623C26.7187 22.692 28.4678 22.2767 29.964 21.6064C30.0361 21.5742 30.2094 21.5742 30.077 21.4386H30.0781ZM28.1449 23.6926C27.1395 24.0369 26.1654 24.5071 25.1256 24.7438L21.8598 23.6119V25.7864H28.1449V23.6926ZM28.95 27.1549H20.2076C20.1839 27.1549 19.8513 27.3529 19.8039 27.3948C19.27 27.8801 19.27 29.0862 19.8039 29.5714C19.8513 29.6144 20.1839 29.8113 20.2076 29.8113H28.95L28.7401 29.1626H23.0331C22.2269 28.9452 22.2269 28.021 23.0331 27.8026H28.7401L28.95 27.1538V27.1549Z" fill="url(#paint1_linear_6252_23511)"/>
<defs>
<linearGradient id="paint0_linear_6252_23511" x1="37.6624" y1="33.6397" x2="37.6624" y2="41.6506" gradientUnits="userSpaceOnUse">
<stop stop-color="#ED3040"/>
<stop offset="1" stop-color="#2D23F4"/>
</linearGradient>
<linearGradient id="paint1_linear_6252_23511" x1="37.6624" y1="33.6397" x2="37.6624" y2="41.6506" gradientUnits="userSpaceOnUse">
<stop stop-color="#ED3040"/>
<stop offset="1" stop-color="#2D23F4"/>
</linearGradient>
</defs>
</svg>
