<svg width="50" height="50" viewBox="0 0 50 50" fill="none" xmlns="http://www.w3.org/2000/svg">
<path d="M9.7138 44.999H9.16729C8.65416 44.5775 8.5895 43.8106 8.27139 43.2013C7.8636 42.4209 7.18464 41.6009 6.44519 41.123C6.13439 40.9227 5.17696 40.5628 5.07057 40.3113C4.71389 39.4663 5.9477 39.2075 6.49108 38.8465C7.23574 38.352 7.92931 37.4933 8.3225 36.6952C8.60931 36.112 8.80122 34.5554 9.74404 35.0896C10.0225 35.2481 10.2937 36.3227 10.4804 36.6952C10.8788 37.4892 11.5703 38.352 12.3107 38.8476C12.8885 39.2346 14.0139 39.3943 13.7563 40.2581C13.676 40.5273 12.5809 40.9686 12.2638 41.1856C11.5567 41.6697 10.9341 42.4522 10.5429 43.2128C10.2332 43.8158 10.1498 44.5055 9.7138 44.999ZM9.47809 37.4245L9.31748 37.4725C8.96183 38.255 8.39655 38.9269 7.76243 39.4944C7.65918 39.5873 7.14918 39.9149 7.13666 39.9629C7.11163 40.062 8.50084 41.0949 8.61766 41.3693C8.80747 41.6489 8.99833 41.9274 9.17981 42.2123C9.2695 42.3531 9.32373 42.7329 9.48331 42.5294C9.57509 42.4126 9.69398 42.0891 9.80558 41.9295C10.1591 41.4204 10.5763 40.9217 11.0394 40.5075C11.1426 40.4146 11.6526 40.086 11.6652 40.039C11.6902 39.942 10.8256 39.3379 10.6775 39.1929C10.1956 38.7203 9.73779 38.0432 9.47809 37.4245Z" fill="url(#paint0_linear_6252_23455)"/>
<path d="M45 21.805C44.6996 22.2307 44.1729 22.3162 43.7578 22.6313C43.4679 22.8515 43.0611 23.3116 42.8776 23.6246C42.5637 24.1608 42.4688 25.3304 41.5843 24.9475C41.2297 24.7941 41.1505 24.1598 40.9825 23.8322C40.7625 23.4034 40.3401 22.8848 39.9511 22.599C39.633 22.3653 38.8966 22.1441 38.7892 21.8081C38.5347 21.0142 39.465 20.8984 39.9511 20.5416C40.3286 20.264 40.775 19.7278 40.9825 19.3084C41.1557 18.9568 41.2057 18.3485 41.5854 18.1931C42.4562 17.8394 42.5334 18.866 42.8254 19.4106C43.0361 19.8039 43.4022 20.239 43.7578 20.5082C44.174 20.8233 44.6996 20.9099 45 21.3345V21.805ZM41.8399 20.3997C41.7961 20.4111 41.3903 21.0006 41.2944 21.1039C41.1692 21.2406 40.7667 21.4597 40.7906 21.5995C40.9043 21.804 41.1484 21.8781 41.2954 22.0366C41.406 22.1556 41.7887 22.7753 41.916 22.743C42.1068 22.5312 42.2716 22.2443 42.4615 22.0387C42.5835 21.9062 42.9965 21.6756 42.9673 21.54C42.498 21.2406 42.2654 20.7419 41.8388 20.4007L41.8399 20.3997Z" fill="url(#paint1_linear_6252_23455)"/>
<path d="M45 8.37234C44.4983 8.90025 43.8361 9.03276 43.3605 9.66083C43.0403 10.0844 42.8473 11.0964 42.4281 11.2258C41.5718 11.4918 41.5614 10.6342 41.2829 10.099C41.1087 9.76412 40.7656 9.34992 40.4652 9.12039C39.9876 8.75523 39.0802 8.63943 39.4202 7.82668C39.4922 7.65349 40.5612 7.13497 40.9022 6.73225C41.2433 6.32953 41.5979 5.20275 41.8972 5.07129C42.791 4.68109 42.9224 5.99567 43.2969 6.5215C43.7526 7.16418 44.3836 7.39371 45 7.82355V8.37234ZM42.2664 7.20174C42.2132 7.15792 42.1569 7.19652 42.1058 7.25077C41.9296 7.43648 41.7992 7.72027 41.5676 7.94771C41.454 8.0583 41.2881 8.02491 41.3319 8.17724C41.4738 8.30035 41.6365 8.38381 41.7627 8.52779C41.9076 8.69472 42.1194 9.18925 42.2748 9.0265C42.5146 8.77401 42.6513 8.34521 43.0486 8.17724C43.0841 8.0896 42.7462 7.89033 42.6189 7.74948C42.5126 7.63158 42.2915 7.22365 42.2664 7.20278V7.20174Z" fill="url(#paint2_linear_6252_23455)"/>
<path d="M7.97415 18.1492C8.75324 17.9771 8.79183 18.8003 9.04735 19.3073C9.27263 19.7539 9.6314 20.2056 10.0319 20.5092C10.5252 20.8827 11.4952 21.0079 11.2396 21.8081C11.1333 22.141 10.3563 22.3861 10.0319 22.6313C9.6314 22.9339 9.27263 23.3856 9.04735 23.8332C8.82207 24.2808 8.77618 24.9871 8.189 25.0122C7.48605 25.0424 7.48918 24.3027 7.2566 23.8322C7.04906 23.4128 6.60267 22.8765 6.22512 22.599C5.70886 22.2203 4.80462 22.1451 5.06432 21.3314C5.1707 20.9965 5.90807 20.7742 6.22512 20.5416C6.62457 20.2484 7.06574 19.7017 7.28268 19.2572C7.46519 18.8827 7.47875 18.2588 7.97311 18.1492H7.97415ZM8.11391 20.3997C8.03882 20.6699 7.04801 21.4983 7.06574 21.5995C7.17734 21.805 7.42243 21.8781 7.57053 22.0366C7.68108 22.1556 8.06385 22.7753 8.19109 22.743C8.36422 22.5562 8.48937 22.3016 8.65937 22.118C8.78766 21.9793 9.26741 21.6579 9.24238 21.54C8.77305 21.2406 8.54048 20.7419 8.11391 20.4007V20.3997Z" fill="url(#paint3_linear_6252_23455)"/>
<path d="M7.66231 5.02956C8.51962 4.8428 8.58845 6.05826 9.01085 6.61539C9.12244 6.76355 9.41343 7.04211 9.56361 7.15583C10.0496 7.52204 10.8089 7.54499 10.6326 8.31704C10.545 8.70411 9.88797 8.87522 9.56361 9.12144C9.21422 9.38644 8.91594 9.76203 8.72091 10.1522C8.55403 10.4861 8.49563 11.0537 8.13164 11.2018C7.17942 11.5889 7.10537 10.2378 6.66838 9.66083C6.55574 9.51164 6.26684 9.2362 6.11561 9.12039C5.6588 8.77401 4.73892 8.61543 5.07057 7.82668C5.14254 7.65454 6.23868 7.12036 6.58911 6.69156C6.93954 6.26275 7.22949 5.1245 7.66231 5.02956ZM7.91575 7.20174C7.86256 7.15792 7.80624 7.19652 7.75513 7.25077C7.51421 7.50326 7.37967 7.93102 6.98126 8.10003C6.95519 8.20436 7.33065 8.43807 7.44746 8.56952C7.5893 8.73019 7.76661 9.19134 7.92513 9.02545C8.16606 8.77297 8.3006 8.34521 8.69901 8.17619C8.72508 8.07186 8.34962 7.83816 8.23281 7.7067C8.13685 7.5982 7.93974 7.22052 7.91679 7.20174H7.91575Z" fill="url(#paint4_linear_6252_23455)"/>
<path d="M15.547 15.7288C15.7754 15.6787 15.9183 15.7121 16.1113 15.8341C16.2333 15.9113 17.1386 16.8221 17.197 16.9338C17.4963 17.5045 16.882 18.1065 16.3188 17.8123C16.2093 17.7549 15.2435 16.7888 15.1872 16.6803C14.9964 16.3141 15.1194 15.8227 15.546 15.7288H15.547Z" fill="url(#paint5_linear_6252_23455)"/>
<path d="M23.9219 44.999C22.7872 44.5868 22.369 43.674 22.5171 42.4992C21.6963 42.5712 20.7983 41.8502 20.6617 41.0364C20.6283 40.8351 20.6763 40.0401 20.6387 40.0046C20.622 39.989 20.4333 40.0088 20.3352 39.9597C19.746 39.6634 19.9775 38.7339 20.6481 38.7067C20.6106 38.5283 20.6857 37.5486 20.6398 37.5048C20.6043 37.4714 20.1058 37.5027 20.0213 37.0698C19.9055 36.4824 20.3123 36.4479 20.3258 36.2174C20.3384 36.0077 20.1371 35.6884 20.0933 35.4745C20.0088 35.4464 19.942 35.4818 19.8669 35.5121C19.1828 35.7896 18.3672 36.3833 17.6277 36.7088C12.0677 39.1522 9.5949 36.8298 12.0438 31.2001C12.293 30.6262 12.8635 29.4087 13.2285 28.9486C13.6937 28.3623 14.4717 28.67 14.4717 29.2605C14.4717 29.4431 13.4611 31.2115 13.2932 31.5892C12.8395 32.6054 11.6151 35.6175 13.0293 36.2549C14.5218 36.9279 17.7935 35.2596 19.141 34.4729C19.2047 34.4354 19.2683 34.4876 19.2433 34.3363C18.2066 32.9518 16.9665 31.704 16.1551 30.1599C14.8618 27.6977 14.7064 24.9892 15.4792 22.3256C14.4936 20.9641 13.4549 19.637 12.5725 18.2025C11.3627 16.2348 8.93263 11.8518 10.5429 9.70361C12.3034 7.35511 17.101 9.89036 19.0305 11.0391C19.5019 11.3197 22.3575 13.1612 22.4785 13.446C22.7215 14.0167 22.2511 14.5237 21.64 14.362C21.4084 14.3005 20.111 13.2613 19.7647 13.037C18.0689 11.9332 15.6983 10.4861 13.701 10.1209C10.3354 9.50642 11.2115 12.3661 12.0208 14.3787C12.9699 16.7408 14.5698 18.9119 16.0779 20.9412C19.4341 13.8372 30.5968 13.8268 33.9551 20.9412C35.4632 18.9119 37.0631 16.7408 38.0122 14.3787C38.8205 12.3682 39.6955 9.50329 36.332 10.1209C34.3421 10.4861 31.961 11.9353 30.2683 13.037C29.9231 13.2624 28.6246 14.3015 28.3931 14.362C27.638 14.5613 27.2031 13.7955 27.7475 13.2477C28.5745 12.4173 31.0954 10.9368 32.1967 10.3578C35.4466 8.64882 41.1859 7.03794 39.8259 13.0704C39.075 16.3996 36.4843 19.5953 34.5548 22.3277C35.4278 25.2845 35.0972 28.235 33.4806 30.8547C32.7244 32.0806 31.6022 33.0582 30.868 34.1766C30.8169 34.2549 30.772 34.3071 30.7898 34.4114C32.7359 35.4745 38.5014 38.641 37.5335 33.8407C37.2123 32.2486 36.2893 30.7535 35.5696 29.32C35.6332 28.6033 36.3289 28.3487 36.8034 28.9476C37.1685 29.4066 37.739 30.6252 37.9882 31.199C40.4319 36.8183 37.958 39.1627 32.4043 36.7077C31.6617 36.3791 30.8565 35.7896 30.165 35.5111C30.0868 35.4798 30.0222 35.4505 29.9356 35.4704C29.9304 35.6895 29.6947 36.0285 29.7041 36.2153C29.7155 36.4417 30.1265 36.4803 30.0107 37.0687C29.9252 37.5017 29.4266 37.4694 29.3922 37.5038C29.3463 37.5476 29.4214 38.5262 29.3839 38.7057C30.0545 38.7318 30.286 39.6624 29.6968 39.9587C29.5987 40.0077 29.4089 39.9879 29.3933 40.0036C29.3557 40.039 29.4047 40.834 29.3703 41.0354C29.2337 41.8502 28.3357 42.5701 27.5149 42.4981C27.663 43.6729 27.2448 44.5848 26.11 44.9979H23.924L23.9219 44.999ZM24.6082 16.9077C21.301 17.0538 18.2504 18.8952 16.9884 22.0137C16.9811 22.1441 17.8645 23.177 18.0261 23.3679C20.1339 25.8479 22.5338 28.0774 24.9743 30.2204C27.468 28.1515 29.9022 25.8406 32.0027 23.3679C32.1644 23.177 33.0488 22.1441 33.0405 22.0137C31.6377 18.6198 28.2272 16.7481 24.6072 16.9077H24.6082ZM16.5065 23.6016C16.1269 25.2751 16.2458 26.935 16.8372 28.5407C17.561 30.5073 19.1077 32.0994 20.4468 33.6623L23.9981 31.0603C21.2843 28.7963 18.8428 26.2464 16.5055 23.6026L16.5065 23.6016ZM33.5234 23.6016C31.1892 26.2485 28.7393 28.789 26.0308 31.0592L29.582 33.6613C30.9233 32.1067 32.47 30.5021 33.1917 28.5396C33.783 26.9329 33.903 25.273 33.5223 23.6006L33.5234 23.6016ZM28.9187 34.692L24.9805 31.9523L21.1915 34.8047L21.7098 36.2549L28.3816 36.2069C28.4734 35.6696 28.6476 35.1615 28.9187 34.692ZM28.1375 37.5017H21.8924V38.7516H28.1375V37.5017ZM28.1375 40.0015H21.8924C21.86 40.5273 21.8402 41.0344 22.4159 41.2347C24.0148 41.1533 25.8253 41.3995 27.3991 41.2545C28.149 41.1856 28.1855 40.6452 28.1375 40.0015ZM23.7665 42.5002C23.5705 43.8398 24.4705 43.8503 25.527 43.7532C26.2769 43.6844 26.3134 43.1439 26.2654 42.5002H23.7665Z" fill="url(#paint6_linear_6252_23455)"/>
<path d="M45 39.6885V40.2352L44.8842 40.5722C43.1978 41.3724 41.9316 42.5899 41.4519 44.445C41.3298 44.7506 41.2109 44.9562 40.8626 45H40.3943C39.8749 44.6202 39.829 43.8753 39.5495 43.3077C39.1709 42.5399 38.4732 41.6718 37.7661 41.1867C37.181 40.785 36.015 40.6118 36.2736 39.7448C36.3539 39.4756 37.449 39.0343 37.7661 38.8173C38.4732 38.3332 39.0958 37.5507 39.487 36.7902C39.7039 36.3676 39.9824 35.2074 40.3359 35.0635C41.2798 34.6785 41.43 36.1631 41.7585 36.8016C42.1559 37.5737 42.814 38.3676 43.5378 38.8486C44.0092 39.1616 44.563 39.3223 45 39.6895V39.6885ZM40.7051 37.4245L40.5445 37.4725C40.1889 38.255 39.6236 38.9269 38.9895 39.4944C38.8862 39.5873 38.3762 39.9149 38.3637 39.9629C38.3397 40.0568 39.6601 41.0344 39.7665 41.2921C40.0554 41.6969 40.3933 42.1027 40.5508 42.5785L40.7114 42.5305C41.067 41.748 41.6323 41.0761 42.2664 40.5085C42.3697 40.4157 42.8797 40.087 42.8922 40.0401C42.9172 39.9431 42.0526 39.339 41.9045 39.194C41.4331 38.7318 40.944 38.04 40.7051 37.4255V37.4245Z" fill="url(#paint7_linear_6252_23455)"/>
<path d="M24.7573 11.9029C25.0932 11.8028 25.5656 11.9405 25.6376 12.3171C25.6793 12.5341 25.6793 13.7371 25.6376 13.9541C25.526 14.5425 24.5039 14.5435 24.3923 13.9541C24.3433 13.6995 24.3631 12.3369 24.4653 12.1554C24.4997 12.0938 24.6885 11.9238 24.7584 11.9029H24.7573Z" fill="url(#paint8_linear_6252_23455)"/>
<path d="M11.6422 25.0226C11.8039 24.9757 13.2431 24.9757 13.4058 25.0226C13.8543 25.153 13.9305 25.9428 13.5039 26.1817C13.3235 26.2829 11.8696 26.3059 11.6422 26.2402C11.1406 26.0941 11.1395 25.1697 11.6422 25.0226Z" fill="url(#paint9_linear_6252_23455)"/>
<path d="M36.6241 25.0226C36.7857 24.9757 38.225 24.9757 38.3877 25.0226C38.8362 25.153 38.9123 25.9428 38.4857 26.1817C38.3053 26.2829 36.8514 26.3059 36.6241 26.2402C36.1224 26.0941 36.1213 25.1697 36.6241 25.0226Z" fill="url(#paint10_linear_6252_23455)"/>
<path d="M25.5375 19.2051C25.3278 19.4659 24.4684 19.4075 24.1264 19.4711C23.5684 19.5755 23.0104 19.7163 22.4889 19.9417C22.1593 20.0835 21.4564 20.5958 21.2228 20.6302C20.5365 20.7325 20.1517 20.0116 20.6033 19.54C21.3813 18.7272 24.0387 17.9854 25.1359 18.1305C25.6261 18.1951 25.818 18.8566 25.5375 19.2051Z" fill="url(#paint11_linear_6252_23455)"/>
<path d="M19.2161 21.274C20.1308 21.0747 20.2893 22.3361 19.5707 22.4926C18.6561 22.6918 18.4975 21.4305 19.2161 21.274Z" fill="url(#paint12_linear_6252_23455)"/>
<path d="M34.1272 15.7288C34.6696 15.6088 35.0648 16.048 34.8948 16.577C34.85 16.7178 33.9082 17.6829 33.7549 17.7799C33.2251 18.1159 32.5993 17.5984 32.7766 17.0381C32.8392 16.8409 33.927 15.7736 34.1262 15.7288H34.1272Z" fill="url(#paint13_linear_6252_23455)"/>
<path d="M15.4709 32.3665C16.0435 32.2142 16.5284 32.7296 16.2907 33.2648C16.2322 33.3973 15.158 34.2559 15.0005 34.3165C14.3946 34.5481 13.8762 34.0285 14.1265 33.4422C14.1808 33.3138 15.3249 32.4051 15.4709 32.3665Z" fill="url(#paint14_linear_6252_23455)"/>
<path d="M34.1272 32.3644C34.2472 32.3373 34.3734 32.3331 34.4943 32.3508C34.6821 32.379 35.7678 33.2189 35.87 33.3973C36.1787 33.9346 35.6875 34.5418 35.0805 34.3436C34.8781 34.2778 33.7445 33.3462 33.6954 33.1469C33.6256 32.86 33.8237 32.4333 34.1251 32.3644H34.1272Z" fill="url(#paint15_linear_6252_23455)"/>
<defs>
<linearGradient id="paint0_linear_6252_23455" x1="0" y1="0" x2="0" y2="1" gradientUnits="objectBoundingBox">
<stop stop-color="#ED3040"/>
<stop offset="1" stop-color="#2D23F4"/>
</linearGradient>
<linearGradient id="paint1_linear_6252_23455" x1="0" y1="0" x2="0" y2="1" gradientUnits="objectBoundingBox">
<stop stop-color="#ED3040"/>
<stop offset="1" stop-color="#2D23F4"/>
</linearGradient>
<linearGradient id="paint2_linear_6252_23455" x1="0" y1="0" x2="0" y2="1" gradientUnits="objectBoundingBox">
<stop stop-color="#ED3040"/>
<stop offset="1" stop-color="#2D23F4"/>
</linearGradient>
<linearGradient id="paint3_linear_6252_23455" x1="0" y1="0" x2="0" y2="1" gradientUnits="objectBoundingBox">
<stop stop-color="#ED3040"/>
<stop offset="1" stop-color="#2D23F4"/>
</linearGradient>
<linearGradient id="paint4_linear_6252_23455" x1="0" y1="0" x2="0" y2="1" gradientUnits="objectBoundingBox">
<stop stop-color="#ED3040"/>
<stop offset="1" stop-color="#2D23F4"/>
</linearGradient>
<linearGradient id="paint5_linear_6252_23455" x1="0" y1="0" x2="0" y2="1" gradientUnits="objectBoundingBox">
<stop stop-color="#ED3040"/>
<stop offset="1" stop-color="#2D23F4"/>
</linearGradient>
<linearGradient id="paint6_linear_6252_23455" x1="0" y1="0" x2="0" y2="1" gradientUnits="objectBoundingBox">
<stop stop-color="#ED3040"/>
<stop offset="1" stop-color="#2D23F4"/>
</linearGradient>
<linearGradient id="paint7_linear_6252_23455" x1="0" y1="0" x2="0" y2="1" gradientUnits="objectBoundingBox">
<stop stop-color="#ED3040"/>
<stop offset="1" stop-color="#2D23F4"/>
</linearGradient>
<linearGradient id="paint8_linear_6252_23455" x1="0" y1="0" x2="0" y2="1" gradientUnits="objectBoundingBox">
<stop stop-color="#ED3040"/>
<stop offset="1" stop-color="#2D23F4"/>
</linearGradient>
<linearGradient id="paint9_linear_6252_23455" x1="0" y1="0" x2="0" y2="1" gradientUnits="objectBoundingBox">
<stop stop-color="#ED3040"/>
<stop offset="1" stop-color="#2D23F4"/>
</linearGradient>
<linearGradient id="paint10_linear_6252_23455" x1="0" y1="0" x2="0" y2="1" gradientUnits="objectBoundingBox">
<stop stop-color="#ED3040"/>
<stop offset="1" stop-color="#2D23F4"/>
</linearGradient>
<linearGradient id="paint11_linear_6252_23455" x1="0" y1="0" x2="0" y2="1" gradientUnits="objectBoundingBox">
<stop stop-color="#ED3040"/>
<stop offset="1" stop-color="#2D23F4"/>
</linearGradient>
<linearGradient id="paint12_linear_6252_23455" x1="0" y1="0" x2="0" y2="1" gradientUnits="objectBoundingBox">
<stop stop-color="#ED3040"/>
<stop offset="1" stop-color="#2D23F4"/>
</linearGradient>
<linearGradient id="paint13_linear_6252_23455" x1="0" y1="0" x2="0" y2="1" gradientUnits="objectBoundingBox">
<stop stop-color="#ED3040"/>
<stop offset="1" stop-color="#2D23F4"/>
</linearGradient>
<linearGradient id="paint14_linear_6252_23455" x1="0" y1="0" x2="0" y2="1" gradientUnits="objectBoundingBox">
<stop stop-color="#ED3040"/>
<stop offset="1" stop-color="#2D23F4"/>
</linearGradient>
<linearGradient id="paint15_linear_6252_23455" x1="0" y1="0" x2="0" y2="1" gradientUnits="objectBoundingBox">
<stop stop-color="#ED3040"/>
<stop offset="1" stop-color="#2D23F4"/>
</linearGradient>
</defs>
</svg>
