<svg width="50" height="50" viewBox="0 0 50 50" fill="none" xmlns="http://www.w3.org/2000/svg">
<path d="M30.6088 5C31.195 5.15957 31.8093 5.15853 32.407 5.27012C38.5108 6.40798 43.5779 11.5424 44.7169 17.6312C46.657 28.0002 38.3575 36.8538 27.9897 36.2312C25.3612 36.0727 22.8819 35.0036 20.6654 33.6634L10.5844 44.1931C8.50775 45.8993 5.64564 44.7354 5 42.2396V40.9119C5.20131 40.378 5.38905 39.82 5.77915 39.3882L16.3097 29.3081C15.8883 28.4946 15.3793 27.729 15.0049 26.8884C11.1237 18.1579 16.3879 7.73149 25.5177 5.41301L27.7978 5H30.6088ZM27.8603 6.74069C16.6351 7.61781 11.4533 21.3013 18.6649 29.7065C27.8937 40.4614 45.4648 32.365 43.1555 18.2549C41.9059 10.6184 35.4516 6.14725 27.8593 6.74069H27.8603ZM17.4122 30.6065H17.2985C17.0701 30.8631 15.3553 32.3159 15.3887 32.5078L17.5196 34.5812C18.1705 33.9534 18.8401 33.3359 19.3658 32.5975C18.6659 32.0145 17.9202 31.3439 17.4112 30.6065H17.4122ZM14.1736 33.5748C11.7516 35.8881 9.29212 38.1659 6.91711 40.5261C5.73117 42.2229 7.84229 44.2369 9.48821 43.0187L16.3963 35.7973L14.1725 33.5737L14.1736 33.5748Z" fill="url(#paint0_linear_6252_23463)"/>
<path d="M28.1733 8.14658C36.8159 7.47179 43.4038 15.0165 41.5012 23.504C38.5745 36.5618 19.2542 36.1258 17.0461 22.6603C15.8883 15.6016 20.969 8.70978 28.1722 8.14658H28.1733ZM28.7188 9.78506C17.8013 10.4119 14.6888 24.742 23.8707 30.0444C32.0555 34.771 41.8235 27.6842 40.0201 18.4249C38.9625 12.9963 34.2292 9.46905 28.7198 9.78506H28.7188Z" fill="url(#paint1_linear_6252_23463)"/>
<path d="M29.8922 14.6233C34.3898 14.5065 36.5656 18.0838 37.8715 21.8228C37.9987 22.1858 38.3596 23.1035 38.3074 23.4258C38.1906 24.1444 37.2717 24.3999 36.8545 23.7763C36.5687 23.3486 36.2099 21.9292 35.9554 21.3191C35.2826 19.7035 34.4805 18.015 32.9462 17.068C28.748 14.4783 23.6736 18.2611 24.7928 23.0347C25.0452 24.109 25.8368 25.1488 26.1957 26.2376C26.4262 26.9343 27.2157 29.5698 25.6877 29.2486C24.9377 29.0911 25.0024 27.9668 24.8418 27.3567C24.3578 25.5117 23.1677 24.2258 23.0331 22.217C22.7661 18.2309 25.8786 14.7266 29.8932 14.6233H29.8922Z" fill="url(#paint2_linear_6252_23463)"/>
<path d="M29.9715 17.7449C32.9285 17.6625 34.2 20.7006 35.0021 23.0524C35.292 23.9025 35.9669 26.2334 35.9147 27.0459C35.8657 27.8073 34.7955 28.1087 34.4013 27.4005C34.2041 27.0449 34.1228 25.9425 34.0049 25.4544C33.6617 24.0224 32.7772 21.2388 31.8187 20.1457C30.6098 18.769 28.2838 19.3156 27.8343 21.0813C27.5193 22.3193 28.1409 22.8313 28.5915 23.8409C29.2309 25.2718 29.7816 27.1189 29.8296 28.6917C29.8484 29.3154 29.742 30.0475 28.9295 29.9881C27.9907 29.9192 28.1931 28.3746 28.0982 27.6905C27.9782 26.8248 27.6882 25.8778 27.3649 25.0674C26.8142 23.6897 26.0131 22.9043 26.1581 21.2794C26.3302 19.3625 28.0617 17.7981 29.9694 17.7449H29.9715Z" fill="url(#paint3_linear_6252_23463)"/>
<path d="M22.7505 14.6296C25.1432 12.188 29.3634 10.7112 32.7001 11.848C33.6774 12.1807 33.7796 13.0943 32.8148 13.4948C32.0847 13.426 31.3837 13.1684 30.6474 13.1194C26.5346 12.8482 22.8642 15.5515 21.7919 19.4866C21.6282 20.0894 21.6741 21.2805 20.8678 21.3796C19.3168 21.5694 20.291 18.7252 20.557 18.0171C21.0107 16.8114 21.8503 15.5474 22.7505 14.6285V14.6296Z" fill="url(#paint4_linear_6252_23463)"/>
<path d="M32.6896 29.331C32.4184 29.6001 31.8093 29.6001 31.5444 29.3206C31.2127 28.9712 31.3003 28.0346 31.2231 27.534C31.0437 26.3638 30.7642 25.153 30.3344 24.0516C30.1237 23.5124 29.3436 22.2285 29.2851 21.8197C29.1568 20.9144 30.2427 20.516 30.8309 21.3702C31.8312 22.823 32.7199 26.003 32.8732 27.7593C32.8941 27.9981 32.9629 28.5738 32.9493 28.7647C32.9389 28.9128 32.796 29.2288 32.6907 29.3331L32.6896 29.331Z" fill="url(#paint5_linear_6252_23463)"/>
<defs>
<linearGradient id="paint0_linear_6252_23463" x1="37.6624" y1="33.6397" x2="37.6624" y2="41.6506" gradientUnits="userSpaceOnUse">
<stop stop-color="#ED3040"/>
<stop offset="1" stop-color="#2D23F4"/>
</linearGradient>
<linearGradient id="paint1_linear_6252_23463" x1="37.6624" y1="33.6397" x2="37.6624" y2="41.6506" gradientUnits="userSpaceOnUse">
<stop stop-color="#ED3040"/>
<stop offset="1" stop-color="#2D23F4"/>
</linearGradient>
<linearGradient id="paint2_linear_6252_23463" x1="37.6624" y1="33.6397" x2="37.6624" y2="41.6506" gradientUnits="userSpaceOnUse">
<stop stop-color="#ED3040"/>
<stop offset="1" stop-color="#2D23F4"/>
</linearGradient>
<linearGradient id="paint3_linear_6252_23463" x1="37.6624" y1="33.6397" x2="37.6624" y2="41.6506" gradientUnits="userSpaceOnUse">
<stop stop-color="#ED3040"/>
<stop offset="1" stop-color="#2D23F4"/>
</linearGradient>
<linearGradient id="paint4_linear_6252_23463" x1="37.6624" y1="33.6397" x2="37.6624" y2="41.6506" gradientUnits="userSpaceOnUse">
<stop stop-color="#ED3040"/>
<stop offset="1" stop-color="#2D23F4"/>
</linearGradient>
<linearGradient id="paint5_linear_6252_23463" x1="37.6624" y1="33.6397" x2="37.6624" y2="41.6506" gradientUnits="userSpaceOnUse">
<stop stop-color="#ED3040"/>
<stop offset="1" stop-color="#2D23F4"/>
</linearGradient>
</defs>
</svg>
