<svg width="50" height="50" viewBox="0 0 50 50" fill="none" xmlns="http://www.w3.org/2000/svg">
<path d="M41.475 36.4205C41.5094 36.7736 41.5072 37.4482 41.475 37.8029C41.412 38.4915 41.0587 39.4048 40.7355 40.0166C40.2189 40.9949 38.8485 43.366 38.0746 44.0258C36.8185 45.0972 35.2231 45.0654 33.6592 44.9368C31.5354 44.7624 30.8656 43.0046 30.2837 41.2321C30.1445 41.136 29.8221 41.651 29.6828 41.7581C28.4744 42.6906 28.0662 41.0237 27.5656 40.3506C27.0175 39.6124 26.2238 39.3915 25.3481 39.6006C24.5075 39.8016 23.4705 40.222 22.6314 40.5117C22.2408 40.6461 21.3621 41.0695 21.0382 41.1175C20.6285 41.1789 20.3266 40.8767 20.5281 40.4917C20.6747 40.2109 21.7967 39.8614 22.1382 39.7373C23.2221 39.342 25.3239 38.4989 26.4041 38.6467C27.7928 38.8359 28.426 40.0247 29.0511 41.1205C29.4901 40.6432 30.0148 40.0247 30.722 40.488C31.5787 41.0496 31.3925 43.0623 32.8267 43.7864C33.7604 44.2578 36.2124 44.178 37.1248 43.6194C38.0174 43.0734 39.1966 40.9313 39.744 39.9553C40.5267 38.5595 40.8572 37.3544 40.419 35.7444C40.3281 35.4111 40.0115 34.8607 40.0525 34.571C40.1104 34.1639 40.589 34.0974 40.8425 34.4321C41.091 34.7594 41.4361 36 41.4765 36.4197L41.475 36.4205Z" fill="url(#paint0_linear_6252_23441)"/>
<path d="M35.2209 30.6682C35.251 30.6985 35.857 30.6099 35.8145 31.1241C35.7757 31.5933 35.2495 31.5239 35.2209 31.5527C35.1982 31.5756 35.2869 31.9975 34.9629 32.0943C34.3305 32.2842 34.4009 31.6133 34.34 31.5564C34.2792 31.4995 33.7691 31.6207 33.7911 31.0835C33.8109 30.5995 34.3056 30.7037 34.3422 30.6668C34.3811 30.6276 34.3034 30.0306 34.845 30.089C35.3404 30.1429 35.1828 30.6306 35.2209 30.6675V30.6682Z" fill="url(#paint1_linear_6252_23441)"/>
<path d="M14.9791 35.867C15.3345 36.9192 15.9354 37.961 16.2813 39.0058C16.4491 39.5119 16.5107 39.7587 16.3781 40.2915C16.2388 40.8515 15.5851 41.4205 16.5136 41.702C17.0471 41.8638 17.4363 41.7774 17.9397 41.5897C18.2659 41.4678 18.9262 41.0355 19.2303 41.0606C19.5872 41.0902 19.7396 41.518 19.508 41.7877C19.3725 41.9458 18.1589 42.4845 17.9104 42.5554C16.7782 42.8768 15.0267 42.5458 15.144 41.0385C15.1733 40.6587 15.3616 40.5153 15.4752 40.2109C15.6628 39.707 15.5082 39.4824 15.3338 39.0206C14.8061 37.6226 13.8967 36.0082 13.5009 34.6183C13.3126 33.9548 13.3331 33.3149 13.5977 32.6758C14.4184 30.6919 17.5191 30.6535 18.8719 29.1447C19.8444 28.06 20.682 26.6598 21.6728 25.6084C22.1287 25.1244 22.6636 24.933 23.3313 25.0394C23.7798 25.1111 23.9425 25.4362 24.4848 25.2352C25.1018 25.0069 26.2055 23.7456 26.8658 23.3215C27.485 22.9233 27.7826 22.9875 28.4472 23.1996C29.2783 23.4641 30.2713 23.8018 30.3336 24.8407C30.3622 25.3224 29.9767 25.7059 30.2588 26.13L32.0001 27.361C32.4193 27.4896 32.8663 27.4002 33.0927 27.0004L34.4067 23.1265C34.557 22.8715 34.8853 22.7925 35.1095 23.0105C35.4012 23.2934 35.5426 25.3579 35.7449 25.8544C35.835 26.0377 35.9743 25.8973 36.1179 25.915C36.4843 25.9608 36.8258 26.1234 37.0068 26.4618C37.3557 27.1135 37.4641 28.5794 37.7587 29.4092C38.2263 30.7274 39.1497 31.7913 39.8964 32.9507C40.1148 33.4679 39.607 33.8321 39.1958 33.4915C38.2893 32.1386 37.2831 30.9172 36.798 29.3272C36.5569 28.5358 36.4535 27.7038 36.2381 26.9051C35.9955 26.8098 35.7566 26.8689 35.4972 26.7677C34.8508 26.5157 34.7827 25.7384 34.7277 25.137C34.6486 25.1436 34.642 25.219 34.617 25.2737C34.2719 26.0244 34.151 27.3189 33.5222 27.8753C32.9381 28.3917 32.099 28.4767 31.4372 28.0681V35.8663H14.9791V35.867ZM24.8534 26.0221C24.8057 26.0946 24.8534 27.5302 24.8534 27.7644C24.8534 27.7866 24.7127 27.8612 24.8798 27.8464C25.329 27.4068 29.3831 25.1045 29.4095 24.8325C29.4256 24.6619 29.2556 24.483 29.1156 24.4069C28.9397 24.3109 28.0603 23.9784 27.872 23.9444C27.6008 23.8956 27.4858 23.9695 27.271 24.1188C26.5616 24.6109 25.897 25.366 25.1773 25.8788C25.085 25.9446 24.8629 26.0074 24.8526 26.0221H24.8534ZM22.8241 25.9113V29.5341C22.8241 29.6597 22.6116 29.8666 22.4643 29.8902C21.5644 30.0343 20.3427 29.7808 19.4069 29.905C19.187 30.0919 19.0309 30.2766 18.781 30.4355C18.5722 30.5685 17.6034 30.9505 17.5579 31.0007C17.5528 31.0067 17.5374 31.1175 17.5865 31.1116C17.6371 31.1064 17.6803 31.0547 17.695 31.0547H22.4123C22.5523 31.0547 22.8234 31.3288 22.8234 31.4692V34.9811H23.9754V31.3584C23.9754 31.2727 24.27 31.0539 24.3323 31.0539H30.5586V29.8924H24.2224C24.1997 29.8924 23.9285 29.6249 23.9725 29.5355L23.9703 26.1921C23.5577 26.1566 23.2507 25.8411 22.8234 25.9106L22.8241 25.9113ZM24.8534 29.0087H26.8555C27.0263 29.0087 29.3618 27.3699 29.7187 27.1364C29.7737 27.1002 29.8352 27.0787 29.9005 27.0721C29.9159 26.9953 29.9115 27.0019 29.8653 26.9576C29.57 26.6753 29.3736 26.5216 29.2688 26.0761L24.967 28.8181L24.8541 29.008L24.8534 29.0087ZM21.8912 26.7965L21.3416 27.4873L21.8912 27.7925V26.7965ZM30.5586 27.6817C29.8675 28.0895 29.1962 28.5388 28.5293 28.9821C28.5154 29.1521 28.5887 29.0095 28.6114 29.0095H30.5586V27.6817ZM21.8912 29.0087C21.9118 28.9045 21.8399 28.875 21.7769 28.8196C21.5102 28.5839 21.0697 28.3999 20.7729 28.1834L20.1353 29.0087H21.8912ZM21.8912 31.9953C21.8267 31.9295 20.2988 31.9953 20.0533 31.9953C19.8078 31.9953 16.5239 34.4018 15.9853 34.6412C15.5309 34.9065 15.078 34.3575 15.4166 33.9578L18.3795 31.9953H15.7463C15.7383 31.9953 15.7859 31.8601 15.6709 31.8881C14.9783 32.0536 14.329 32.8605 14.266 33.5721C14.2389 33.8794 14.3752 34.6952 14.5665 34.9272C14.6178 34.9892 14.661 34.9767 14.7284 34.9855C15.5939 35.0942 16.7218 34.9183 17.6144 34.9575L21.8348 32.2443C21.8978 32.2081 21.9088 32.0152 21.8905 31.996L21.8912 31.9953ZM30.5586 34.9818C30.5402 34.8141 30.6135 34.5895 30.5036 34.4565L26.6914 31.9945H24.8534L24.9076 32.2435L29.1596 34.9811H30.5586V34.9818ZM30.5586 31.9953H28.3644L30.5586 33.4331V31.9953ZM21.8912 34.9818V33.2676L19.2581 34.9818H21.8912ZM24.8534 33.3504C24.8768 33.8565 24.8534 34.3893 24.8534 34.8991C24.8534 34.9161 24.7838 34.9412 24.7984 34.9818H27.4865L24.8798 33.2684C24.7127 33.2543 24.8519 33.3253 24.8534 33.3504Z" fill="url(#paint2_linear_6252_23441)"/>
<path d="M33.2488 34.8141C33.2906 34.8592 33.7457 34.772 33.8292 35.202C33.9289 35.7156 33.3265 35.6749 33.2708 35.754C33.1719 35.8944 33.2378 36.4515 32.6963 36.2875C32.3262 36.1759 32.3936 35.7266 32.3687 35.7015C32.3438 35.6764 31.8762 35.7924 31.8205 35.3372C31.7546 34.7956 32.2756 34.8969 32.3614 34.8104C32.4471 34.724 32.3782 34.0952 32.9747 34.2888C33.339 34.407 33.2166 34.7809 33.2481 34.8149L33.2488 34.8141Z" fill="url(#paint3_linear_6252_23441)"/>
<path d="M39.1226 34.8097C39.1387 34.8259 39.2984 34.8208 39.3761 34.8577C39.9221 35.1178 39.6429 35.8367 39.0617 35.7015C39.2486 36.1146 38.7217 36.4847 38.3743 36.2003C38.2021 36.0591 38.2783 35.8434 38.2146 35.7532C38.1471 35.6579 37.6019 35.7525 37.6371 35.2338C37.6671 34.7934 38.2109 34.8444 38.2388 34.8163C38.2622 34.7927 38.1471 34.4388 38.4725 34.3058C38.7371 34.1972 38.9562 34.3006 39.0757 34.5548C39.1123 34.6331 39.1072 34.7942 39.1233 34.8104L39.1226 34.8097Z" fill="url(#paint4_linear_6252_23441)"/>
<path d="M23.483 37.3596C23.5137 37.3906 23.9747 37.296 24.0297 37.7253C24.1037 38.3076 23.5526 38.1864 23.4859 38.2492C23.4251 38.3061 23.4954 38.977 22.863 38.7871C22.5391 38.6903 22.6277 38.2684 22.605 38.2455C22.5764 38.2167 22.0503 38.2861 22.0114 37.8169C21.9689 37.3027 22.575 37.3913 22.605 37.361C22.6717 37.2938 22.4636 36.7345 23.1275 36.8032C23.5335 36.8453 23.4544 37.33 23.4837 37.3596H23.483Z" fill="url(#paint5_linear_6252_23441)"/>
<path d="M35.8797 39.407C35.8981 39.4255 36.1758 39.3649 36.3495 39.5696C36.4726 39.7144 36.4983 39.8585 36.4162 40.0292C36.2432 40.3883 35.9017 40.2686 35.8797 40.2915C35.8519 40.3195 35.9647 40.8471 35.4693 40.8508C34.9212 40.8552 35.0494 40.341 35.0011 40.2929C34.9637 40.2553 34.4697 40.3602 34.45 39.8762C34.4272 39.3383 34.9578 39.4499 35.0011 39.4063C35.0208 39.3863 34.9483 39.0583 35.2004 38.9157C35.407 38.7989 35.7053 38.8218 35.8277 39.045C35.9054 39.1854 35.8673 39.3945 35.8797 39.4078V39.407Z" fill="url(#paint6_linear_6252_23441)"/>
<path d="M37.2333 36.8246C37.6767 37.313 36.8251 37.8894 36.5342 37.3913C36.2432 36.8933 36.8786 36.433 37.2333 36.8246Z" fill="url(#paint7_linear_6252_23441)"/>
<path d="M14.6442 7.66976H13.7662V8.55494H14.6442V7.66976Z" fill="url(#paint8_linear_6252_23441)"/>
<path d="M8.5 11.4861C8.59967 11.2718 8.88474 10.8795 8.92651 10.6718C9.00053 10.3024 8.8972 9.79922 8.93897 9.41204C8.99247 8.91478 10.2368 6.27401 10.538 5.65925C10.6113 5.50926 10.7813 5.10435 10.9154 5.04376C11.0496 4.98318 11.4768 5.00978 11.6549 5.01569C15.4679 5.15164 19.349 5.72354 23.1744 5.84545C24.3492 6.19421 25.8999 6.34124 27.0175 6.78236C28.0193 7.17766 26.5653 8.2616 26.4913 8.80099C26.4708 8.95098 26.4634 9.83838 26.4913 9.95586C26.5059 10.0187 26.8467 10.1081 26.9325 10.1029V9.30121C26.9325 9.09728 27.9592 8.58893 28.1717 8.55937C28.4326 8.52317 29.5656 8.46258 29.5656 8.85862V10.3246L29.7554 10.2669C29.9716 9.92113 30.3138 8.84532 30.6091 8.63843C30.8832 8.44632 31.5252 8.61405 31.8623 8.54681C32.0125 8.24535 32.1049 7.50868 32.365 7.3114C32.6582 7.08899 33.8673 6.99516 34.0139 6.81708C34.2001 6.45577 34.2697 5.21001 34.6266 5.05633C34.8171 4.97431 35.816 4.97653 35.9831 5.09844C36.1362 5.21149 36.5576 6.42843 36.5833 6.65084C36.6675 7.38603 35.8468 7.87369 35.3902 8.31185C35.4532 8.71823 35.8541 9.28348 35.6474 9.681C35.484 9.99576 34.0315 10.8056 33.9641 11.0258L33.9289 14.9175C33.7398 15.1931 33.4416 15.3734 33.2122 15.6327C32.6655 16.2519 32.2441 17.1193 31.8403 17.8412C32.2038 18.7375 32.7937 19.551 33.081 20.4724C33.0942 20.6083 33.0282 20.7014 32.9755 20.8145C32.889 21 32.1217 22.1423 31.9986 22.208C31.7817 22.3226 31.5633 22.296 31.4043 22.1024C31.1873 21.8386 30.9081 21.0938 30.6846 20.7266C30.3468 20.1724 29.7077 19.1572 28.9888 19.169C28.744 19.1727 27.5796 19.3471 27.4249 19.4771C27.2512 19.6227 27.592 20.4185 27.0101 20.499C26.289 20.4325 25.5884 20.1938 24.8688 20.1207C24.3184 20.0645 24.2261 19.9825 23.8919 20.4495C23.4265 21.0997 23.2243 21.9066 22.8476 22.6041C22.6776 22.7548 21.7197 22.7563 21.4992 22.6883C21.4054 22.6595 21.3182 22.5656 21.2588 22.4881L20.1075 20.5515C19.8876 20.3889 19.1226 20.6113 18.7935 20.4384C18.4645 20.2655 17.8393 19.056 17.4978 18.7582C16.1216 18.767 15.0567 18.7552 13.7845 18.1878C12.557 17.6402 11.6095 17.3698 10.6113 16.4093C9.88361 15.7095 9.92538 15.411 9.53551 14.5628C9.23944 13.9178 8.87668 13.3008 8.50073 12.7023V11.4854L8.5 11.4861ZM35.3719 5.90826C35.3411 5.88905 35.1747 5.892 35.163 5.90235C35.1 5.95924 34.9446 7.25377 34.724 7.53454C34.6713 7.60178 34.5504 7.58183 34.557 7.66902C34.7863 7.68749 35.6108 6.93974 35.646 6.80083C35.6577 6.75502 35.4114 5.9319 35.3719 5.90752V5.90826ZM12.4493 6.01022C12.2258 6.04569 11.5164 5.84176 11.3793 6.01022L9.87115 9.44012H10.6941V10.3253H9.81619C9.80226 10.527 9.84403 10.7516 9.80373 10.9489C9.74437 11.2437 9.40946 11.5703 9.37355 11.8976C9.31346 12.4503 9.54577 12.6365 9.76195 13.0902C9.85209 13.1168 9.80959 12.9801 9.81619 12.9801H10.6941V13.8653C10.6941 13.8904 10.2618 13.8468 10.2002 13.8653C10.2442 13.9347 10.3937 14.3071 10.4472 14.3071H19.0324V6.53557C19.0324 6.42917 18.6821 6.4469 18.5934 6.45208V6.78384H17.7162C17.6972 6.78384 17.7375 6.41809 17.7162 6.3974C17.6693 6.35233 16.6052 6.29322 16.4301 6.28361C16.3524 6.27918 15.9772 6.26957 15.9611 6.28583C15.9406 6.30652 15.9757 6.69591 15.9611 6.78384H15.0831V6.175L13.4108 6.06268C13.2957 6.05234 13.339 6.07081 13.3272 6.14618C13.2987 6.33755 13.3485 6.58434 13.3272 6.78384H12.4493V6.00949V6.01022ZM19.9104 6.56365V7.66976H26.0816C26.1146 7.66976 26.1938 7.54489 26.1637 7.50425C26.0772 7.38603 23.6625 6.94639 23.3335 6.79049L19.9104 6.56365ZM25.6148 8.55494H19.9096V9.88197H25.6148V8.55494ZM30.9909 9.88197H33.926C33.9758 9.88197 34.7174 9.34185 34.7255 9.29308C34.7314 9.25688 34.5342 8.62513 34.5079 8.58745C34.45 8.50396 33.0356 8.57784 32.8069 8.56011C32.7505 8.78621 32.6633 9.21402 32.4713 9.35515C32.1913 9.56056 31.5164 9.35811 31.1925 9.43717C31.1573 9.44603 30.966 9.85907 30.9909 9.88197ZM27.8097 9.88197H28.6876V9.43938C28.5381 9.34259 27.6206 9.69947 27.8097 9.88197ZM25.9717 10.7672H19.9104V12.0942H29.5648V12.9794H19.9104V14.3064H33.0759V12.9794H32.1979V12.0942H33.0759V10.7672H30.4977C30.4662 10.7672 30.4523 11.1477 30.0829 11.2068C29.8953 11.2363 29.1772 11.2378 29.0005 11.1979C28.6869 11.1277 28.7265 10.8137 28.681 10.7738C28.6495 10.7457 27.8991 10.7487 27.8426 10.7642C27.8001 10.776 27.7833 10.9999 27.6734 11.1011C27.2959 11.4491 26.3894 10.8337 25.9717 10.7679V10.7672ZM32.3621 15.1916H10.7491C11.1632 15.6881 11.6476 16.1137 12.1481 16.5186H16.8383V17.4038H14.3701L15.0164 17.6646C15.3264 17.7304 15.6745 17.822 15.9889 17.8457C16.5224 17.8856 17.3718 17.7518 17.8415 17.8582C18.1787 17.9343 18.4242 18.6806 18.677 18.7301L26.7412 18.7323C27.6015 18.4397 28.9148 18.0356 29.7781 18.4331C29.8983 18.4885 30.1702 18.7308 30.1958 18.7308H31.2658C31.0694 18.2705 30.6692 17.8929 31.0466 17.4038H17.7155V16.5186H31.512L32.3621 15.1916ZM23.3657 19.616H20.5135C20.5663 19.715 20.6703 19.7269 20.7568 19.8406C21.1694 20.3815 21.4779 21.1802 21.8817 21.7484C21.9616 21.8489 22.1595 21.8741 22.2423 21.7736L22.789 20.4997L23.3657 19.616ZM31.8682 20.8884C31.8835 20.7147 32.0983 20.601 32.0887 20.4236C32.0858 20.3719 31.7634 19.6988 31.7326 19.6714C31.5985 19.551 31.232 19.6448 31.0459 19.6175L31.8682 20.8891V20.8884Z" fill="url(#paint9_linear_6252_23441)"/>
<path d="M18.5934 9.43938H17.7155V10.3246H18.5934V9.43938Z" fill="url(#paint10_linear_6252_23441)"/>
<path d="M13.3272 12.9794H12.4493V13.8646H13.3272V12.9794Z" fill="url(#paint11_linear_6252_23441)"/>
<path d="M15.9603 12.9794H15.0824V13.8646H15.9603V12.9794Z" fill="url(#paint12_linear_6252_23441)"/>
<path d="M12.011 7.66976H11.1331V8.55494H12.011V7.66976Z" fill="url(#paint13_linear_6252_23441)"/>
<path d="M17.2773 7.66976H16.3993V8.55494H17.2773V7.66976Z" fill="url(#paint14_linear_6252_23441)"/>
<path d="M13.3272 9.43938H12.4493V10.3246H13.3272V9.43938Z" fill="url(#paint15_linear_6252_23441)"/>
<path d="M15.9603 9.43938H15.0824V10.3246H15.9603V9.43938Z" fill="url(#paint16_linear_6252_23441)"/>
<path d="M12.011 11.2097H11.1331V12.0949H12.011V11.2097Z" fill="url(#paint17_linear_6252_23441)"/>
<path d="M14.6442 11.2097H13.7662V12.0949H14.6442V11.2097Z" fill="url(#paint18_linear_6252_23441)"/>
<path d="M17.2773 11.2097H16.3993V12.0949H17.2773V11.2097Z" fill="url(#paint19_linear_6252_23441)"/>
<path d="M18.5934 12.9794H17.7155V13.8646H18.5934V12.9794Z" fill="url(#paint20_linear_6252_23441)"/>
<path d="M31.3207 12.0942H30.4428V12.9794H31.3207V12.0942Z" fill="url(#paint21_linear_6252_23441)"/>
<defs>
<linearGradient id="paint0_linear_6252_23441" x1="35.4465" y1="33.6397" x2="35.4465" y2="41.6506" gradientUnits="userSpaceOnUse">
<stop stop-color="#ED3040"/>
<stop offset="1" stop-color="#2D23F4"/>
</linearGradient>
<linearGradient id="paint1_linear_6252_23441" x1="35.4465" y1="33.6397" x2="35.4465" y2="41.6506" gradientUnits="userSpaceOnUse">
<stop stop-color="#ED3040"/>
<stop offset="1" stop-color="#2D23F4"/>
</linearGradient>
<linearGradient id="paint2_linear_6252_23441" x1="35.4465" y1="33.6397" x2="35.4465" y2="41.6506" gradientUnits="userSpaceOnUse">
<stop stop-color="#ED3040"/>
<stop offset="1" stop-color="#2D23F4"/>
</linearGradient>
<linearGradient id="paint3_linear_6252_23441" x1="35.4465" y1="33.6397" x2="35.4465" y2="41.6506" gradientUnits="userSpaceOnUse">
<stop stop-color="#ED3040"/>
<stop offset="1" stop-color="#2D23F4"/>
</linearGradient>
<linearGradient id="paint4_linear_6252_23441" x1="35.4465" y1="33.6397" x2="35.4465" y2="41.6506" gradientUnits="userSpaceOnUse">
<stop stop-color="#ED3040"/>
<stop offset="1" stop-color="#2D23F4"/>
</linearGradient>
<linearGradient id="paint5_linear_6252_23441" x1="35.4465" y1="33.6397" x2="35.4465" y2="41.6506" gradientUnits="userSpaceOnUse">
<stop stop-color="#ED3040"/>
<stop offset="1" stop-color="#2D23F4"/>
</linearGradient>
<linearGradient id="paint6_linear_6252_23441" x1="35.4465" y1="33.6397" x2="35.4465" y2="41.6506" gradientUnits="userSpaceOnUse">
<stop stop-color="#ED3040"/>
<stop offset="1" stop-color="#2D23F4"/>
</linearGradient>
<linearGradient id="paint7_linear_6252_23441" x1="35.4465" y1="33.6397" x2="35.4465" y2="41.6506" gradientUnits="userSpaceOnUse">
<stop stop-color="#ED3040"/>
<stop offset="1" stop-color="#2D23F4"/>
</linearGradient>
<linearGradient id="paint8_linear_6252_23441" x1="35.4465" y1="33.6397" x2="35.4465" y2="41.6506" gradientUnits="userSpaceOnUse">
<stop stop-color="#ED3040"/>
<stop offset="1" stop-color="#2D23F4"/>
</linearGradient>
<linearGradient id="paint9_linear_6252_23441" x1="35.4465" y1="33.6397" x2="35.4465" y2="41.6506" gradientUnits="userSpaceOnUse">
<stop stop-color="#ED3040"/>
<stop offset="1" stop-color="#2D23F4"/>
</linearGradient>
<linearGradient id="paint10_linear_6252_23441" x1="35.4465" y1="33.6397" x2="35.4465" y2="41.6506" gradientUnits="userSpaceOnUse">
<stop stop-color="#ED3040"/>
<stop offset="1" stop-color="#2D23F4"/>
</linearGradient>
<linearGradient id="paint11_linear_6252_23441" x1="35.4465" y1="33.6397" x2="35.4465" y2="41.6506" gradientUnits="userSpaceOnUse">
<stop stop-color="#ED3040"/>
<stop offset="1" stop-color="#2D23F4"/>
</linearGradient>
<linearGradient id="paint12_linear_6252_23441" x1="35.4465" y1="33.6397" x2="35.4465" y2="41.6506" gradientUnits="userSpaceOnUse">
<stop stop-color="#ED3040"/>
<stop offset="1" stop-color="#2D23F4"/>
</linearGradient>
<linearGradient id="paint13_linear_6252_23441" x1="35.4465" y1="33.6397" x2="35.4465" y2="41.6506" gradientUnits="userSpaceOnUse">
<stop stop-color="#ED3040"/>
<stop offset="1" stop-color="#2D23F4"/>
</linearGradient>
<linearGradient id="paint14_linear_6252_23441" x1="35.4465" y1="33.6397" x2="35.4465" y2="41.6506" gradientUnits="userSpaceOnUse">
<stop stop-color="#ED3040"/>
<stop offset="1" stop-color="#2D23F4"/>
</linearGradient>
<linearGradient id="paint15_linear_6252_23441" x1="35.4465" y1="33.6397" x2="35.4465" y2="41.6506" gradientUnits="userSpaceOnUse">
<stop stop-color="#ED3040"/>
<stop offset="1" stop-color="#2D23F4"/>
</linearGradient>
<linearGradient id="paint16_linear_6252_23441" x1="35.4465" y1="33.6397" x2="35.4465" y2="41.6506" gradientUnits="userSpaceOnUse">
<stop stop-color="#ED3040"/>
<stop offset="1" stop-color="#2D23F4"/>
</linearGradient>
<linearGradient id="paint17_linear_6252_23441" x1="35.4465" y1="33.6397" x2="35.4465" y2="41.6506" gradientUnits="userSpaceOnUse">
<stop stop-color="#ED3040"/>
<stop offset="1" stop-color="#2D23F4"/>
</linearGradient>
<linearGradient id="paint18_linear_6252_23441" x1="35.4465" y1="33.6397" x2="35.4465" y2="41.6506" gradientUnits="userSpaceOnUse">
<stop stop-color="#ED3040"/>
<stop offset="1" stop-color="#2D23F4"/>
</linearGradient>
<linearGradient id="paint19_linear_6252_23441" x1="35.4465" y1="33.6397" x2="35.4465" y2="41.6506" gradientUnits="userSpaceOnUse">
<stop stop-color="#ED3040"/>
<stop offset="1" stop-color="#2D23F4"/>
</linearGradient>
<linearGradient id="paint20_linear_6252_23441" x1="35.4465" y1="33.6397" x2="35.4465" y2="41.6506" gradientUnits="userSpaceOnUse">
<stop stop-color="#ED3040"/>
<stop offset="1" stop-color="#2D23F4"/>
</linearGradient>
<linearGradient id="paint21_linear_6252_23441" x1="35.4465" y1="33.6397" x2="35.4465" y2="41.6506" gradientUnits="userSpaceOnUse">
<stop stop-color="#ED3040"/>
<stop offset="1" stop-color="#2D23F4"/>
</linearGradient>
</defs>
</svg>
