<svg width="50" height="50" viewBox="0 0 50 50" fill="none" xmlns="http://www.w3.org/2000/svg">
<path d="M40.4584 12.1298V8.4376C40.4584 6.65514 38.3394 5.5602 36.7843 6.2647C36.2716 6.50236 35.383 7.42754 35.383 8.00472V24.8193L38.459 19.1409C38.7666 18.725 39.0742 18.4958 39.5783 18.343C39.7407 18.2921 39.9799 18.343 40.1081 18.2581C40.2106 18.1987 40.5951 17.3329 40.7318 17.1462C41.9793 15.4486 44.5768 16.8067 43.8847 18.8013C43.7821 19.0899 43.3891 19.5992 43.3549 19.8454C43.3037 20.2103 43.8163 20.7705 43.5771 21.6278C43.4489 22.0777 42.5945 23.3424 42.5688 23.5716C42.5518 23.7328 43.1413 24.4543 43.1413 25.0315C43.1584 26.2962 41.1847 28.6728 40.8002 29.9884C40.5182 30.7269 41.5777 31.2446 41.3726 31.8558C41.2445 32.2292 40.8087 32.2292 40.5353 31.9831C38.4077 30.0733 41.3812 27.3911 42.0305 25.4728C42.116 25.2182 42.1331 24.9975 42.116 24.7344L41.8682 24.8787L35.4001 37.0504C34.99 39.2827 36.5194 44.0359 33.546 44.8507C25.2494 45.1478 16.893 44.8932 8.57079 44.9866C7.07552 44.8762 6.204 43.968 6.08438 42.5081C5.8195 39.3591 6.2809 35.8705 6.08438 32.6876C6.16982 31.9576 6.93027 31.7624 7.12679 32.5178V42.6778C7.17806 43.2465 7.57964 43.6794 8.0923 43.9001L33.0675 43.9425C33.5374 43.985 34.3321 43.272 34.3321 42.8561V38.2047L30.3419 40.5389C29.4703 40.9124 29.5814 39.8683 29.607 39.2827C29.6583 37.8397 29.9146 36.3628 30.0257 34.9199L33.2042 28.9529C33.5887 28.4861 34.2979 28.9274 34.0757 29.4622L31.1877 34.9284L34.503 36.7193L41.2359 23.9875L37.8353 22.2984L35.2121 27.2893C34.9473 27.5524 34.4944 27.4251 34.3492 27.094L34.3235 8.34424C34.3919 7.45301 34.7593 6.68061 35.3745 6.04401H9.10054C8.34863 6.04401 7.07552 7.45301 7.13533 8.25936V29.547C7.1097 30.4892 6.08438 30.3025 6.08438 29.4622V8.69224C6.22109 6.6127 7.40021 5.22917 9.5363 5H37.878C39.6979 5.05093 41.2701 6.43446 41.4154 8.25936C41.535 9.71079 41.3214 11.3065 41.4154 12.7749C41.3812 12.9617 41.2103 13.1314 41.0223 13.1654C40.6464 13.2333 38.1685 13.2333 37.7925 13.1654C37.1773 13.055 37.3055 12.1214 37.9634 12.1214H40.4584V12.1298ZM42.5518 19.2512C42.7654 18.7589 43.4062 17.7319 42.5518 17.4687C41.6973 17.2056 41.3812 17.8762 41.1505 18.5552L42.5518 19.2512ZM41.7657 23.0793C41.9622 22.2135 43.073 21.3307 42.4578 20.4395C42.2869 20.2019 40.9027 19.4295 40.5951 19.3361C39.997 19.1493 39.5698 19.2852 39.2195 19.8029C39.0913 19.9897 38.3821 21.3138 38.459 21.4241L41.7742 23.0793H41.7657ZM33.6314 37.3305L30.9229 36.0233L30.5725 39.1469L33.6314 37.322V37.3305Z" fill="url(#paint0_linear_6252_23503)"/>
<path d="M30.8118 30.8287C31.0938 31.0918 30.9998 31.5417 30.6409 31.6945C24.1728 31.8473 17.6791 31.7115 11.2025 31.7624C10.5189 31.7878 10.143 31.2276 10.724 30.7608L30.3589 30.7099C30.5042 30.7184 30.7093 30.7184 30.8118 30.8202V30.8287Z" fill="url(#paint1_linear_6252_23503)"/>
<path d="M10.7838 21.7042L30.3589 21.6787C31.3245 21.7127 31.0596 22.7907 30.1795 22.7312H11.1939C10.4676 22.7652 10.1173 22.1201 10.7752 21.7042H10.7838Z" fill="url(#paint2_linear_6252_23503)"/>
<path d="M30.8118 26.3131C31.3074 26.78 30.7349 27.1959 30.1795 27.2468C26.326 27.6033 21.9256 26.9752 18.0209 27.2468C17.1664 27.2468 17.0554 26.2028 17.9269 26.2028C21.9427 26.4659 26.3944 25.8633 30.3504 26.2028C30.4956 26.2113 30.7007 26.2113 30.8032 26.3131H30.8118Z" fill="url(#paint3_linear_6252_23503)"/>
<path d="M15.4148 12.6646L26.0184 12.69C26.6507 13.3351 26.1807 13.6322 25.4545 13.6916C22.4041 13.9463 19.0035 13.4964 15.9189 13.6916C15.1927 13.7425 14.7142 13.1229 15.4148 12.6646Z" fill="url(#paint4_linear_6252_23503)"/>
<path d="M10.7838 26.2198L15.3977 26.2028C16.0984 26.5508 15.9019 27.1619 15.1414 27.2468C14.2955 27.3402 11.8604 27.3572 11.0401 27.2468C10.3651 27.1535 10.2199 26.5932 10.7923 26.2283L10.7838 26.2198Z" fill="url(#paint5_linear_6252_23503)"/>
<path d="M10.7838 17.1886L23.1389 17.2141C23.72 17.7743 23.3782 18.1478 22.6605 18.2157C18.9949 18.5467 14.8338 17.961 11.1085 18.2157C10.4164 18.2157 10.16 17.5621 10.7752 17.1886H10.7838Z" fill="url(#paint6_linear_6252_23503)"/>
<path d="M25.2152 17.1886L30.4444 17.1717C31.2134 17.265 31.1279 18.0968 30.3504 18.2072C29.402 18.3345 26.5225 18.326 25.5485 18.2072C24.8222 18.1308 24.6 17.613 25.2152 17.1802V17.1886Z" fill="url(#paint7_linear_6252_23503)"/>
<path d="M15.6797 38.4763C15.8677 38.6631 15.8591 39.2997 15.4832 39.3251H10.8436C10.2882 39.2997 10.2882 38.4594 10.8521 38.383C11.8091 38.2556 14.2272 38.2896 15.2269 38.3745C15.3636 38.383 15.5857 38.3914 15.6797 38.4848V38.4763Z" fill="url(#paint8_linear_6252_23503)"/>
<defs>
<linearGradient id="paint0_linear_6252_23503" x1="37.0293" y1="33.6397" x2="37.0293" y2="41.6506" gradientUnits="userSpaceOnUse">
<stop stop-color="#ED3040"/>
<stop offset="1" stop-color="#2D23F4"/>
</linearGradient>
<linearGradient id="paint1_linear_6252_23503" x1="37.0293" y1="33.6397" x2="37.0293" y2="41.6506" gradientUnits="userSpaceOnUse">
<stop stop-color="#ED3040"/>
<stop offset="1" stop-color="#2D23F4"/>
</linearGradient>
<linearGradient id="paint2_linear_6252_23503" x1="37.0293" y1="33.6397" x2="37.0293" y2="41.6506" gradientUnits="userSpaceOnUse">
<stop stop-color="#ED3040"/>
<stop offset="1" stop-color="#2D23F4"/>
</linearGradient>
<linearGradient id="paint3_linear_6252_23503" x1="37.0293" y1="33.6397" x2="37.0293" y2="41.6506" gradientUnits="userSpaceOnUse">
<stop stop-color="#ED3040"/>
<stop offset="1" stop-color="#2D23F4"/>
</linearGradient>
<linearGradient id="paint4_linear_6252_23503" x1="37.0293" y1="33.6397" x2="37.0293" y2="41.6506" gradientUnits="userSpaceOnUse">
<stop stop-color="#ED3040"/>
<stop offset="1" stop-color="#2D23F4"/>
</linearGradient>
<linearGradient id="paint5_linear_6252_23503" x1="37.0293" y1="33.6397" x2="37.0293" y2="41.6506" gradientUnits="userSpaceOnUse">
<stop stop-color="#ED3040"/>
<stop offset="1" stop-color="#2D23F4"/>
</linearGradient>
<linearGradient id="paint6_linear_6252_23503" x1="37.0293" y1="33.6397" x2="37.0293" y2="41.6506" gradientUnits="userSpaceOnUse">
<stop stop-color="#ED3040"/>
<stop offset="1" stop-color="#2D23F4"/>
</linearGradient>
<linearGradient id="paint7_linear_6252_23503" x1="37.0293" y1="33.6397" x2="37.0293" y2="41.6506" gradientUnits="userSpaceOnUse">
<stop stop-color="#ED3040"/>
<stop offset="1" stop-color="#2D23F4"/>
</linearGradient>
<linearGradient id="paint8_linear_6252_23503" x1="37.0293" y1="33.6397" x2="37.0293" y2="41.6506" gradientUnits="userSpaceOnUse">
<stop stop-color="#ED3040"/>
<stop offset="1" stop-color="#2D23F4"/>
</linearGradient>
</defs>
</svg>
