<svg width="50" height="50" viewBox="0 0 50 50" fill="none" xmlns="http://www.w3.org/2000/svg">
<path d="M17.5997 20.1838C17.0096 20.0599 17.1176 18.7234 16.9497 18.5899C16.9134 18.5603 16.1255 18.2288 16.0784 18.2298C15.7042 18.233 15.2435 19.1089 14.5133 18.8801C14.3358 18.824 12.6071 17.1094 12.5515 16.9378C12.3623 16.3511 13.2133 15.8448 13.2315 15.4699C13.2336 15.417 12.9556 14.6502 12.9236 14.6068C12.7407 14.3632 11.476 14.5496 11.3338 13.9438C11.2772 13.7013 11.2718 11.4105 11.3338 11.2029C11.491 10.6691 12.7311 10.8047 12.9054 10.6596C12.9449 10.6268 13.2336 9.75093 13.225 9.69797C13.1555 9.25634 12.3644 8.86872 12.5515 8.28941C12.6082 8.11466 14.4267 6.3153 14.5945 6.26447C15.1312 6.10137 15.7384 6.99099 16.1383 6.93168C16.1832 6.92533 16.9572 6.65103 16.9861 6.61714C17.1261 6.45192 17.0032 5.20116 17.5345 5.0603C18.27 5.14715 19.7165 4.87179 20.3633 5.07937C20.8711 5.24246 20.7097 6.46251 20.9727 6.6362C21.0379 6.67856 21.7702 6.95392 21.8344 6.94863C22.4373 6.89144 22.6875 5.82601 23.5994 6.47204C23.8175 6.62667 25.2148 8.04159 25.2757 8.21951C25.5216 8.92485 24.7391 9.24363 24.6354 9.71598C24.6247 9.76364 24.8877 10.4722 24.9336 10.541C25.1025 10.8015 25.9963 10.7465 26.3395 10.9646C26.4197 11.0155 26.6003 11.2982 26.6003 11.3469V12.5755C30.882 12.0205 35.0728 14.6883 36.3044 18.7774C38.4201 25.8054 31.5994 32.1164 24.6386 29.6202C24.0099 29.3946 23.5011 29.0504 22.8853 28.8269L19.2408 30.6114C18.6496 30.7756 18.2209 30.4886 18.3951 29.8542L20.2639 26.1559C19.1649 24.3703 18.6271 22.2829 18.9179 20.1849C18.5309 20.1298 17.9547 20.2601 17.5976 20.1849L17.5997 20.1838ZM19.6331 6.15962L18.2016 6.15221C18.161 6.52288 18.1396 7.10537 17.8862 7.38602C17.7312 7.55759 16.3863 8.13055 16.1233 8.18138C15.5717 8.28729 15.0361 7.47922 14.7624 7.61478C14.6972 7.64655 13.9039 8.44192 13.8921 8.50228C13.8526 8.70562 14.5101 9.29976 14.509 9.67997C14.509 9.81341 13.9328 11.2199 13.8323 11.3766C13.4998 11.8934 13.0198 11.7102 12.575 11.8744C12.3088 11.9729 12.4863 13.0023 12.4478 13.2787C12.8177 13.4047 13.4517 13.3613 13.7211 13.642C13.8387 13.7648 14.4588 15.2316 14.4876 15.4265C14.5603 15.9062 13.8045 16.4813 13.9135 16.6942C13.9467 16.7588 14.7549 17.5446 14.8158 17.5595C15.0585 17.6209 15.53 16.996 15.9961 17.0087C16.2281 17.0151 17.6393 17.5859 17.8296 17.7363C18.1311 17.9746 18.1685 18.6344 18.2005 18.9934L19.632 18.986C19.7464 18.5846 19.7176 18.0657 20.0362 17.7617C20.1869 17.6177 21.4794 17.0702 21.6997 17.0289C22.3315 16.9102 22.5453 17.4652 23.0809 17.6092C23.1376 17.5838 23.934 16.7768 23.949 16.7175C24.0228 16.4358 23.3995 15.9793 23.3909 15.5462C23.3867 15.3026 23.8517 14.1609 23.995 13.9152C24.3766 13.2607 24.8214 13.5339 25.403 13.2332L25.3987 11.8595C25.0662 11.8225 24.4483 11.7918 24.1928 11.5874C24.0773 11.4952 23.454 10.0898 23.4177 9.89814C23.283 9.18856 24.0709 8.77235 23.9223 8.45251C23.8966 8.39638 23.0895 7.59678 23.0275 7.58619C22.6779 7.70163 22.2128 8.23328 21.845 8.21104C21.7189 8.20363 20.2992 7.61372 20.1409 7.51523C19.6652 7.21657 19.7871 6.6362 19.6299 6.15856L19.6331 6.15962ZM20.281 28.7443C20.39 28.8428 22.5004 27.5486 22.9612 27.5486C23.3043 27.5486 24.3798 28.2836 24.8428 28.4668C30.9066 30.8561 37.0634 25.2917 35.1851 19.093C34.1555 15.6966 30.6425 13.32 27.0515 13.6938C26.4646 13.7553 26.7008 13.8209 26.4442 14.1217C26.1118 14.5115 25.3078 14.3356 25.0031 14.5962C24.9219 14.6661 24.6247 15.3778 24.6332 15.4667C24.6653 15.7961 25.682 16.5184 25.2458 17.0564C24.8289 17.3148 23.6817 18.7975 23.345 18.8992C22.6811 19.0983 22.1936 18.2669 21.8408 18.233C21.7798 18.2267 21.07 18.5137 21.0047 18.5624C20.761 18.7435 20.8038 19.5494 20.6348 19.8608C20.4125 20.2696 20.0992 19.9127 20.0372 20.6964C19.9389 21.9398 20.1687 23.2975 20.6659 24.4392C20.8102 24.7696 21.5233 25.8467 21.5393 26.0225C21.5735 26.3963 20.1687 28.6437 20.2799 28.7454L20.281 28.7443Z" fill="url(#paint0_linear_6252_23509)"/>
<path d="M29.644 20.6583C31.1846 21.1667 32.538 22.912 32.6749 24.5144C32.7219 25.0587 32.5786 25.2886 32.0077 25.3404C29.3147 25.5851 26.2507 25.1466 23.5171 25.3404C22.5442 25.2917 22.8671 24.3216 23.0595 23.6915C23.4636 22.3676 24.5691 21.1391 25.8808 20.6594C24.7209 19.4393 24.8823 17.4461 26.3352 16.5523C29.0549 14.8779 31.8313 18.3876 29.6419 20.6594L29.644 20.6583ZM27.3818 17.3487C26.0498 17.5732 25.8327 19.685 27.3049 20.1616C29.6151 20.9082 30.0887 16.8933 27.3818 17.3487ZM31.4048 24.1469C30.3913 20.5323 25.1507 20.5291 24.1222 24.1469H31.4048Z" fill="url(#paint1_linear_6252_23509)"/>
<path d="M18.2604 8.47051C24.2216 7.71857 24.8 16.4273 19.1991 16.7726C13.8055 17.1051 13.2186 9.10595 18.2604 8.47051ZM18.7447 9.58359C14.6897 9.86637 15.1173 16.0164 19.3594 15.5853C23.0649 15.2083 22.6811 9.31035 18.7447 9.58359Z" fill="url(#paint2_linear_6252_23509)"/>
<path d="M34.6847 40.16C35.1925 40.2786 35.649 40.8918 35.7185 41.397C35.7944 41.9509 35.8073 43.9409 35.7207 44.4779C35.6886 44.678 35.5624 44.8358 35.4042 44.9566L25.6446 44.8761C25.5216 44.7702 25.4981 44.6357 25.4799 44.4842C25.4136 43.9144 25.3944 41.684 25.4992 41.1714C25.636 40.501 26.4688 39.9207 27.1573 40.0001C27.6363 38.2187 27.415 36.1906 28.1067 34.4802C28.8882 32.5506 30.9825 31.302 32.523 29.9771C33.3976 29.2251 34.968 27.4777 35.942 27.1017C36.6914 26.8126 37.351 26.8623 37.9625 27.3993C38.5901 26.229 39.1963 25.0471 39.7928 23.8599C40.539 22.3761 41.5504 19.2582 43.8072 19.8259C44.2915 19.9477 44.9768 20.6795 44.9992 21.1815C45.0217 21.6835 44.5406 23.0349 44.3663 23.5559C43.3208 26.6844 41.8829 30.6464 40.538 33.6361C40.1467 34.5046 39.5501 35.5139 38.8841 36.2002C37.5648 37.5579 35.4994 38.3225 34.6815 40.1621L34.6847 40.16ZM33.4852 40.0022C34.2229 37.6468 36.8496 36.8028 38.2843 35.1241C39.0412 34.2388 39.4347 33.2305 39.8676 32.1736C41.0757 29.2198 42.4751 25.7217 43.4298 22.7012C43.5474 22.3274 43.9526 21.2779 43.6458 21.0184C43.0129 20.4846 42.1245 21.7799 41.8465 22.2427C41.1313 23.4373 40.5786 24.9412 39.9286 26.2099C39.6624 26.7289 38.7761 28.0241 38.6681 28.4509C38.5912 28.7538 38.6991 29.2315 38.5687 29.6975C38.2223 30.9313 35.8073 33.579 34.7264 34.2938C34.2443 34.6126 33.7097 34.2631 33.8049 33.7029C33.8562 33.401 35.0129 32.5114 35.2888 32.2339C35.9195 31.6006 37.35 30.1073 37.4814 29.2548C37.6172 28.3768 37.0741 27.8399 36.2146 28.237C35.5699 28.5346 34.2817 29.9781 33.6467 30.5288C32.3584 31.6462 29.8824 33.2941 29.2303 34.7948C28.777 35.8369 28.8101 36.9457 28.6743 38.0493C28.5931 38.7017 28.4327 39.3477 28.3643 40.0012H33.4863L33.4852 40.0022ZM34.5254 43.8869V41.3896C34.5254 41.325 34.271 41.1566 34.1694 41.1873C31.8891 41.3398 29.3714 40.9977 27.1199 41.1873C26.9467 41.2021 26.6035 41.236 26.6035 41.468V43.8858H34.5265L34.5254 43.8869Z" fill="url(#paint3_linear_6252_23509)"/>
<path d="M12.0394 27.3972C13.0583 26.5097 14.1722 26.9947 15.0799 27.753C15.8849 28.4245 16.6675 29.277 17.4789 29.9749C19.0344 31.3125 21.148 32.5739 21.9199 34.5332C22.5849 36.2224 22.37 38.2399 22.8457 39.998C23.5342 39.9186 24.367 40.5 24.5039 41.1693C24.6076 41.6734 24.5905 43.9229 24.5231 44.4821C24.4793 44.8506 24.3093 45.0021 23.9255 45L14.5999 44.9555C14.3583 44.7818 14.3016 44.6102 14.2749 44.3264C14.215 43.6814 14.1947 41.935 14.2973 41.3292C14.3903 40.7849 14.8126 40.3199 15.3183 40.1219C14.1797 37.9635 11.7561 37.2645 10.3727 35.2703C9.91088 34.6052 9.57198 33.8681 9.25767 33.1246C8.00257 30.1539 6.65552 26.6092 5.63455 23.5538C5.43784 22.966 5.02731 21.818 5.00058 21.2408C4.976 20.7017 5.73291 19.9095 6.25355 19.8047C8.49435 19.3535 9.45438 22.3613 10.2081 23.8588C10.8057 25.045 11.4108 26.2279 12.0384 27.3982L12.0394 27.3972ZM16.5199 40.0022H21.6419C21.2079 38.3638 21.4484 36.34 20.776 34.7958C20.1035 33.2517 17.6532 31.6514 16.3596 30.5299C15.7235 29.9781 14.4374 28.5357 13.7916 28.2381C12.9214 27.8367 12.4072 28.3726 12.5269 29.2537C12.6435 30.1147 14.0878 31.5985 14.7185 32.235C14.9933 32.5135 16.1511 33.4 16.2024 33.7039C16.2976 34.2642 15.762 34.6137 15.2809 34.2949C14.2 33.58 11.785 30.9323 11.4386 29.6985C11.3082 29.2336 11.4161 28.7549 11.3392 28.452C11.2301 28.0241 10.3439 26.7299 10.0787 26.211C9.48859 25.0577 8.09451 21.4484 7.01794 20.9983C5.76177 20.473 6.39788 22.1346 6.57748 22.7023C7.73744 26.373 9.464 30.0544 10.7715 33.6891C12.0148 36.4427 15.4851 37.1046 16.5221 40.0022H16.5199ZM15.4797 41.3896C15.3215 41.9488 15.5973 43.2419 15.4797 43.8869H23.4027V41.469C23.4027 41.2371 23.0585 41.2032 22.8863 41.1884C20.6348 40.9977 18.1172 41.3409 15.8368 41.1884C15.7235 41.1714 15.5075 41.2964 15.4808 41.3907L15.4797 41.3896Z" fill="url(#paint4_linear_6252_23509)"/>
<defs>
<linearGradient id="paint0_linear_6252_23509" x1="0" y1="0" x2="0" y2="1" gradientUnits="objectBoundingBox">
<stop stop-color="#ED3040"/>
<stop offset="1" stop-color="#2D23F4"/>
</linearGradient>
<linearGradient id="paint1_linear_6252_23509" x1="0" y1="0" x2="0" y2="1" gradientUnits="objectBoundingBox">
<stop stop-color="#ED3040"/>
<stop offset="1" stop-color="#2D23F4"/>
</linearGradient>
<linearGradient id="paint2_linear_6252_23509" x1="0" y1="0" x2="0" y2="1" gradientUnits="objectBoundingBox">
<stop stop-color="#ED3040"/>
<stop offset="1" stop-color="#2D23F4"/>
</linearGradient>
<linearGradient id="paint3_linear_6252_23509" x1="0" y1="0" x2="0" y2="1" gradientUnits="objectBoundingBox">
<stop stop-color="#ED3040"/>
<stop offset="1" stop-color="#2D23F4"/>
</linearGradient>
<linearGradient id="paint4_linear_6252_23509" x1="0" y1="0" x2="0" y2="1" gradientUnits="objectBoundingBox">
<stop stop-color="#ED3040"/>
<stop offset="1" stop-color="#2D23F4"/>
</linearGradient>
</defs>
</svg>
