<svg width="50" height="50" viewBox="0 0 50 50" fill="none" xmlns="http://www.w3.org/2000/svg">
<path d="M40.4964 8.55967L37.0042 12.0877C41.6089 17.7809 40.2472 26.3411 34.0261 30.1486C25.2273 35.534 14.3837 27.5589 16.3017 17.4538C16.3707 17.0927 16.5609 16.2257 16.7278 15.9382C17.2596 15.0192 18.5601 15.3689 18.6724 16.4045C16.8023 21.8295 20.0119 28.0468 25.4709 29.482C25.8881 29.5917 27.2498 29.9064 27.5457 29.6574C27.9763 29.2952 28.6972 26.9953 28.8129 26.3716C30.7575 15.8612 17.3107 10.2937 11.4011 18.6501C5.51376 26.976 14.406 37.9154 23.5107 33.4276C23.9535 33.2091 25.1483 32.3229 25.4732 32.2833C26.3031 32.1826 26.8738 33.0869 26.4955 33.8373C26.2363 34.3523 24.4675 35.2691 23.8979 35.5147C22.7409 36.0139 21.5126 36.3036 20.2611 36.4315V39.397H23.1336C23.2215 39.397 23.6364 39.7128 23.7132 39.8237C24.1671 40.4836 23.7043 41.5147 22.9667 41.5147H20.26V44.3534C20.26 44.3839 19.9518 44.7506 19.8728 44.8072C19.5246 45.054 18.9984 45.0743 18.648 44.8072C18.569 44.7472 18.2608 44.316 18.2608 44.2685V41.5147H15.5541C15.1358 41.5147 14.6485 40.8967 14.6407 40.4564C14.6329 40.0161 15.0212 39.3958 15.4707 39.3958H18.2608V36.4304C13.3591 36.1022 9.07488 32.3693 7.8756 27.5521C6.05666 20.2506 11.0473 13.0339 18.4566 12.6128C22.1779 7.67117 28.9041 6.30842 34.1607 9.62588C34.6335 9.92469 35.0485 10.3005 35.5302 10.5846L38.9978 7.03507H35.2087C35.1197 7.03507 34.7848 6.70683 34.7147 6.60497C34.2708 5.96434 34.5845 5.33503 35.2265 5.01924L41.6233 5C42.0372 5.04301 42.441 5.37125 42.5 5.80361L42.4766 12.3967C42.2875 13.0543 41.5254 13.3417 40.9547 12.9671C40.8201 12.8788 40.4964 12.4793 40.4964 12.331V8.55967ZM30.0044 29.5702C36.4636 28.0852 39.7354 20.6829 36.3468 14.7713C33.2329 9.33839 25.5299 8.1556 21.1767 12.709C27.6848 13.7503 31.8467 19.8544 30.8955 26.4531C30.7397 27.5363 30.3415 28.5414 30.0044 29.5702Z" fill="url(#paint0_linear_6252_23481)"/>
<defs>
<linearGradient id="paint0_linear_6252_23481" x1="0" y1="0" x2="0" y2="1" gradientUnits="objectBoundingBox">
<stop stop-color="#ED3040"/>
<stop offset="1" stop-color="#2D23F4"/>
</linearGradient>
</defs>
</svg>
