<svg width="50" height="50" viewBox="0 0 50 50" fill="none" xmlns="http://www.w3.org/2000/svg">
<path d="M23.1999 17.226C23.1426 16.9627 21.9029 15.4484 21.6359 15.1569C20.0339 13.4263 18.0408 12.3165 15.8761 11.423C15.2658 10.8681 15.8094 10.031 16.6009 10.1815C18.6797 10.5859 21.8362 13.0971 23.1999 14.6772C23.4478 14.9687 23.9437 15.787 24.1439 15.9469C24.2298 16.0221 24.2774 16.0598 24.4014 16.0315L27.5579 15.044C27.8249 14.4985 28.13 13.953 28.4924 13.4545C29.1027 12.5892 29.9133 11.3101 30.8383 12.6927C31.687 11.4888 32.7455 10.4448 34.0138 9.66419C34.6336 9.27857 36.1117 8.49793 36.8174 8.55437C37.4372 8.6108 37.6852 9.34441 37.2561 9.78645C37.1035 9.94634 35.3679 10.5765 34.9293 10.8304C34.1568 11.2725 33.2414 12.0625 32.6692 12.7397C32.2973 13.1817 31.5153 14.7054 31.0862 14.79C30.5427 14.9029 30.228 14.3762 29.9514 14.0188C28.7117 15.392 28.254 17.3389 28.397 19.1541L28.7403 20.2639C30.0658 17.3389 32.488 14.7524 35.263 13.0971C35.7494 12.8055 37.3037 11.912 37.7901 11.9873C38.2478 12.0625 38.4862 12.561 38.3623 12.9842C38.2383 13.4075 37.0367 13.7743 36.6267 14C33.537 15.7118 31.3055 18.2982 29.8179 21.449C32.5262 21.9098 35.7112 20.8941 37.2084 18.5239C37.0463 17.7997 35.9305 16.9156 36.5504 16.2008C36.8651 15.834 38.6197 15.5237 39.1728 15.3544C41.6045 14.5737 42.7584 12.1472 43.3878 9.8711C42.1195 9.63597 40.8416 9.5137 39.5447 9.47608C38.8295 9.13749 38.9821 8.14053 39.7831 8.02767C40.7081 7.896 43.054 8.2628 43.9981 8.52615C44.5989 8.69544 45.0184 8.73307 44.9994 9.47608C44.9803 10.3131 44.1983 12.2694 43.7883 13.0407C42.6058 15.2791 40.794 16.7557 38.2097 17.0849C38.3336 17.574 38.8867 18.0819 38.8295 18.618C38.7723 19.1541 37.4182 20.6213 36.9604 21.0069C34.8148 22.7939 31.9349 23.3112 29.1981 22.935C28.7499 23.5746 28.7213 25.7284 27.7295 25.7095C26.8331 25.6907 27.0524 24.7408 27.1764 24.2047C27.2813 23.725 27.8725 22.3519 27.8725 22.0697C27.8725 21.9004 27.3194 20.847 27.2146 20.5084C26.8236 19.2481 26.8045 18.0443 26.9666 16.7463C26.2228 16.9909 25.4027 17.1696 24.7352 17.5834V36.281C25.5267 36.0835 26.2705 35.7544 27.0524 35.5286C30.7143 34.5035 34.7862 34.4094 38.4767 35.3499C39.1442 35.5192 40.7367 35.8766 39.8213 36.8548C39.354 37.3532 38.162 36.7795 37.5135 36.6573C33.2032 35.8202 28.7213 36.0647 24.7352 37.9928V40.3253C25.5743 40.0526 28.254 39.2343 28.9597 39.6293C29.3888 39.8644 29.3983 40.5228 29.0169 40.805C28.6736 41.0589 27.081 41.2 26.5184 41.3317C25.889 41.4727 24.5731 41.9806 24.0676 41.9994C23.4287 42.0183 22.3893 41.5574 21.7218 41.4069C17.0586 40.3535 12.3382 40.7862 7.67508 41.5856C7.21735 41.6609 5.79647 42.0653 5.48178 41.9336C5.26245 41.8396 4.9573 41.5198 5.00498 41.2564V16.9627C5.10034 16.2855 7.11245 15.4484 7.5988 15.9939C8.23771 16.7087 7.23642 17.4141 6.53075 17.4517V36.281C11.0604 34.5317 16.2194 34.0896 20.8921 35.5757C20.9207 35.3781 20.6251 35.2559 20.4725 35.1524C18.3364 33.5535 15.3993 32.2932 12.8436 31.5032C12.2715 31.3245 9.64906 30.7602 9.42973 30.5627C9.3439 30.4874 9.28668 30.4028 9.24854 30.2993L9.22947 9.5043C9.41065 8.69544 11.4228 9.02463 12.0998 9.09987C12.8532 9.18452 14.1501 9.19392 14.0357 10.1909C13.9117 11.3383 11.4609 10.3037 10.7266 10.4918V29.4152C15.2849 30.4498 19.7859 32.3026 23.2189 35.491V17.226H23.1999ZM23.1999 40.3253V37.9928C18.1076 35.538 11.604 35.538 6.51168 37.9928V40.3253C11.9282 39.2155 17.8501 38.6606 23.1999 40.3253Z" fill="url(#paint0_linear_6252_23451)"/>
<path d="M41.4043 17.8468C41.5473 17.0473 42.8061 16.878 42.9205 17.8468V41.1718C42.9491 41.5762 42.5867 41.9994 42.1672 41.9994C39.6782 41.4351 37.1321 41.0401 34.5764 40.8614C33.6514 40.7956 32.3164 40.9084 31.4581 40.7674C30.8097 40.6639 30.6475 39.6952 31.296 39.3848C31.6298 39.2249 32.2305 39.2625 32.6215 39.2719C34.8625 39.3284 37.1607 39.5729 39.3731 39.9209C40.0501 40.0337 40.7463 40.1654 41.4043 40.3347V17.8468Z" fill="url(#paint1_linear_6252_23451)"/>
<path d="M27.1001 31.1082L39.6592 31.0893C40.6605 31.0893 40.8798 32.4719 39.8403 32.5848H27.081C26.156 32.4813 26.1656 31.2775 27.1001 31.1082Z" fill="url(#paint2_linear_6252_23451)"/>
<path d="M27.3671 26.7065L40.155 26.7347C40.7367 27.1485 40.6128 28.0232 39.8499 28.0985H27.5292C26.7187 28.0326 26.6042 26.9604 27.3671 26.7065Z" fill="url(#paint3_linear_6252_23451)"/>
<path d="M12.9104 26.4432C14.5125 26.1234 16.9346 27.1391 18.2792 27.9668C19.1279 28.4935 20.854 29.8102 21.4071 30.6003C21.8934 31.2963 21.3594 32.1427 20.5393 31.8136C20.2437 31.6913 18.9563 30.2993 18.5081 29.9513C17.2016 28.9355 15.6377 28.1173 13.9594 27.9292C13.454 27.8728 12.5576 28.1361 12.3478 27.4965C12.1857 26.9981 12.3859 26.556 12.9104 26.4526V26.4432Z" fill="url(#paint4_linear_6252_23451)"/>
<path d="M13.0058 20.2827C14.4743 20.0194 16.8488 20.9599 18.1076 21.7217C18.7942 22.1355 21.4738 24.1107 21.5883 24.7972C21.7027 25.4462 21.1687 25.9071 20.5393 25.6531C20.2723 25.5403 18.9754 24.1765 18.5462 23.8379C17.1635 22.7563 15.6473 21.9851 13.8735 21.7593C13.5589 21.7217 13.206 21.797 12.9009 21.7593C12.0426 21.6277 12.0998 20.452 13.0058 20.2921V20.2827Z" fill="url(#paint5_linear_6252_23451)"/>
<path d="M13.4254 14.1505C15.6759 14.0847 18.0599 15.3826 19.7573 16.7463C20.1292 17.0473 21.512 18.2512 21.5883 18.6368C21.7122 19.2764 21.121 19.7842 20.5202 19.5115C20.2913 19.408 19.4712 18.4487 19.1852 18.1947C17.9169 17.0943 16.1717 15.9939 14.4743 15.7118C14.0357 15.6365 12.9485 15.6647 12.672 15.5519C12.3192 15.4014 12.2143 14.8747 12.3573 14.5455C12.5194 14.1599 13.063 14.1693 13.4254 14.1505Z" fill="url(#paint6_linear_6252_23451)"/>
<defs>
<linearGradient id="paint0_linear_6252_23451" x1="37.6624" y1="32.3437" x2="37.6624" y2="39.153" gradientUnits="userSpaceOnUse">
<stop stop-color="#ED3040"/>
<stop offset="1" stop-color="#2D23F4"/>
</linearGradient>
<linearGradient id="paint1_linear_6252_23451" x1="37.6624" y1="32.3437" x2="37.6624" y2="39.153" gradientUnits="userSpaceOnUse">
<stop stop-color="#ED3040"/>
<stop offset="1" stop-color="#2D23F4"/>
</linearGradient>
<linearGradient id="paint2_linear_6252_23451" x1="37.6624" y1="32.3437" x2="37.6624" y2="39.153" gradientUnits="userSpaceOnUse">
<stop stop-color="#ED3040"/>
<stop offset="1" stop-color="#2D23F4"/>
</linearGradient>
<linearGradient id="paint3_linear_6252_23451" x1="37.6624" y1="32.3437" x2="37.6624" y2="39.153" gradientUnits="userSpaceOnUse">
<stop stop-color="#ED3040"/>
<stop offset="1" stop-color="#2D23F4"/>
</linearGradient>
<linearGradient id="paint4_linear_6252_23451" x1="37.6624" y1="32.3437" x2="37.6624" y2="39.153" gradientUnits="userSpaceOnUse">
<stop stop-color="#ED3040"/>
<stop offset="1" stop-color="#2D23F4"/>
</linearGradient>
<linearGradient id="paint5_linear_6252_23451" x1="37.6624" y1="32.3437" x2="37.6624" y2="39.153" gradientUnits="userSpaceOnUse">
<stop stop-color="#ED3040"/>
<stop offset="1" stop-color="#2D23F4"/>
</linearGradient>
<linearGradient id="paint6_linear_6252_23451" x1="37.6624" y1="32.3437" x2="37.6624" y2="39.153" gradientUnits="userSpaceOnUse">
<stop stop-color="#ED3040"/>
<stop offset="1" stop-color="#2D23F4"/>
</linearGradient>
</defs>
</svg>
