<svg width="50" height="50" viewBox="0 0 50 50" fill="none" xmlns="http://www.w3.org/2000/svg">
<path d="M18.0328 15.4689L23.9689 24.0971L24.1776 23.9719C27.8428 20.3588 31.3828 16.6371 35.048 13.024C35.8495 12.4065 36.8347 12.4315 37.6612 12.9823L44.9666 20.4422L45 43.548C44.9165 44.3407 44.1901 45.0083 43.3886 44.9999H6.53621C5.72636 44.9499 5.05009 44.274 5 43.4645V17.9138L10.4853 9.95323C11.0697 9.20223 12.1384 8.96858 13.0401 9.21892C13.4408 9.33574 13.708 9.61945 14.0837 9.75296C14.3008 9.42753 14.7182 9.1021 15.0689 8.90183C15.4195 8.70156 16.2377 8.54302 16.3964 8.42619C16.4381 8.40116 16.6886 7.71692 16.7971 7.55837C17.3649 6.67386 18.4419 6.18154 19.4855 6.25664C19.7944 6.28167 20.3955 6.54869 20.5458 6.51531C20.5792 6.51531 20.8464 6.11478 20.9716 6.0063C23.4513 3.89516 26.9662 5.28868 27.3335 8.48461C30.4143 9.12713 31.2158 13.3494 28.444 14.9682C28.1684 15.1268 27.4003 15.4606 27.1165 15.4606H18.0328V15.4689ZM20.9967 7.56672C20.5959 7.90049 19.9781 7.31638 19.4855 7.25797C18.709 7.17453 17.966 7.46658 17.5485 8.14248C17.3315 8.49295 17.3398 9.1772 17.081 9.33574C16.914 9.44422 16.3463 9.46925 16.0541 9.5527C15.5364 9.71124 14.8435 10.1368 14.7182 10.6792L17.2313 14.309L17.4817 14.3925H26.9411C29.5126 14.0921 29.8382 10.3037 27.4421 9.49428C27.2 9.41084 26.507 9.36077 26.3901 9.21892C26.2482 9.03534 26.2732 8.33441 26.2148 8.06738C25.7472 5.88114 22.8835 5.16351 21.4225 6.89082C21.2805 7.0577 21.0885 7.48327 20.98 7.56672H20.9967ZM17.7823 16.9626C17.8073 16.8374 17.7322 16.779 17.6821 16.6872C16.5383 14.6762 14.7516 12.7152 13.5494 10.7042C12.7646 9.94488 11.8629 9.96992 11.1449 10.7877C9.9426 12.1645 8.48988 14.5343 7.42121 16.1114C7.24588 16.3785 7.01211 16.6622 6.91192 16.9709H17.7823V16.9626ZM31.1407 18.2893H41.3097C41.3097 18.2893 41.4517 18.5063 41.435 18.2476L37.202 13.8501C36.8096 13.4913 36.0916 13.4329 35.6658 13.7249L31.1407 18.2893ZM28.4857 32.3831L25.3131 27.7102L18.4419 17.9055H6.25235C6.20225 17.9556 6.00188 18.1308 6.00188 18.1558V28.8951H15.5865C16.029 28.8951 16.9641 29.3624 17.3231 29.6461C18.3417 30.4389 18.492 31.8491 19.8695 32.2413C19.9697 32.2746 20.4957 32.3831 20.5625 32.3831H28.4857ZM44.0065 32.3831V20.8094C44.0065 20.7009 42.5955 19.4242 42.3868 19.274C38.2707 19.324 34.1213 19.1738 30.0219 19.3491C29.5794 19.7246 29.2204 20.2336 28.828 20.6425C27.4254 22.0777 25.9142 23.4545 24.5951 24.9482C24.5951 25.0483 25.5636 26.4586 25.6888 26.5921C25.7472 26.6505 25.7556 26.7506 25.8808 26.7256C26.1062 26.6755 27.7176 24.773 28.085 24.531C28.6944 24.314 29.02 24.7062 28.7529 25.282L26.4485 27.6017L29.7881 32.3748H44.0232L44.0065 32.3831ZM15.4195 29.813H6.00188V32.2997H8.94907C9.29138 32.2997 9.29138 33.2927 8.94907 33.2927H5.91839C5.89334 33.3511 6.00188 33.3928 6.00188 33.4178V39.9265H21.3974C26.0061 39.7513 29.8883 36.6638 34.497 36.4385H43.9981V33.2927H19.8946C19.569 33.2927 18.9595 32.8003 18.6339 32.7336C18.0411 32.6084 16.3296 33.0507 16.363 32.1745C16.388 31.4986 17.081 31.6488 17.5318 31.6738C17.632 31.6738 17.6738 31.7656 17.6153 31.5904C17.3231 30.7142 16.3296 29.9132 15.4195 29.8047V29.813ZM44.0065 37.6151H33.8374C29.8132 38.1324 26.2732 40.5106 22.224 40.9278H6.00188V43.5396C6.00188 43.7232 6.54456 44.1738 6.78668 44.082H43.2217C43.4638 44.1738 44.0065 43.7232 44.0065 43.5396V37.6067V37.6151Z" fill="url(#paint0_linear_6252_23485)"/>
<path d="M10.9528 36.4719C11.3536 36.3801 13.8082 36.3884 14.2507 36.4552C14.952 36.5637 14.8936 37.4232 14.3342 37.5233C13.8917 37.6067 11.412 37.5901 10.9361 37.5233C10.2933 37.4232 10.335 36.6054 10.9445 36.4719H10.9528Z" fill="url(#paint1_linear_6252_23485)"/>
<path d="M22.3659 36.5971C22.1739 36.4051 22.2323 35.8711 22.4828 35.7209C22.7332 35.5707 24.2611 35.579 24.6034 35.6458C25.2964 35.771 25.3548 36.5971 24.7036 36.6972C24.403 36.7473 22.5078 36.7389 22.3659 36.5971Z" fill="url(#paint2_linear_6252_23485)"/>
<path d="M31.2492 35.3537C31.0822 35.1868 31.0822 34.6695 31.316 34.5109C31.5581 34.3357 33.2446 34.3274 33.5786 34.4025C34.2048 34.5443 34.1296 35.3621 33.5953 35.4622C33.3198 35.5123 31.3828 35.4956 31.2492 35.3621V35.3537Z" fill="url(#paint3_linear_6252_23485)"/>
<path d="M29.3373 23.9052C28.8781 23.4462 29.9468 22.4115 30.3475 22.4532C30.5312 22.4699 30.7733 22.7286 30.7984 22.9038C30.8568 23.2626 29.8048 24.3724 29.3373 23.9052Z" fill="url(#paint4_linear_6252_23485)"/>
<path d="M8.29785 25.816C7.90545 26.2249 7.39616 25.8578 7.32937 25.3738C7.26258 24.8898 7.25423 23.2793 7.32937 22.812C7.4379 22.1194 8.2895 22.1194 8.39804 22.812C8.48153 23.3461 8.45648 24.8147 8.39804 25.3821C8.38969 25.5156 8.38969 25.7159 8.2895 25.816H8.29785Z" fill="url(#paint5_linear_6252_23485)"/>
<path d="M7.51305 21.4185C7.22083 21.1431 7.22918 20.1084 7.65498 19.9082C8.43978 19.5493 8.64851 21.1765 8.19766 21.4435C8.01398 21.552 7.67168 21.5687 7.5047 21.4185H7.51305Z" fill="url(#paint6_linear_6252_23485)"/>
<path d="M38.1705 39.1254C38.396 39.0587 40.8589 39.067 41.1261 39.1254C41.7272 39.2589 41.6604 40.0684 40.8839 40.1768C40.4748 40.2352 38.2958 40.2352 38.0286 40.06C37.7447 39.8681 37.8032 39.2339 38.1705 39.1254Z" fill="url(#paint7_linear_6252_23485)"/>
<path d="M35.6825 39.1254C36.0415 39.0253 36.9349 39.0253 37.0184 39.5009C37.177 40.3771 35.4822 40.3604 35.3736 39.8097C35.3235 39.551 35.407 39.2005 35.6825 39.1254Z" fill="url(#paint8_linear_6252_23485)"/>
<defs>
<linearGradient id="paint0_linear_6252_23485" x1="0" y1="0" x2="0" y2="1" gradientUnits="objectBoundingBox">
<stop stop-color="#ED3040"/>
<stop offset="1" stop-color="#2D23F4"/>
</linearGradient>
<linearGradient id="paint1_linear_6252_23485" x1="0" y1="0" x2="0" y2="1" gradientUnits="objectBoundingBox">
<stop stop-color="#ED3040"/>
<stop offset="1" stop-color="#2D23F4"/>
</linearGradient>
<linearGradient id="paint2_linear_6252_23485" x1="0" y1="0" x2="0" y2="1" gradientUnits="objectBoundingBox">
<stop stop-color="#ED3040"/>
<stop offset="1" stop-color="#2D23F4"/>
</linearGradient>
<linearGradient id="paint3_linear_6252_23485" x1="0" y1="0" x2="0" y2="1" gradientUnits="objectBoundingBox">
<stop stop-color="#ED3040"/>
<stop offset="1" stop-color="#2D23F4"/>
</linearGradient>
<linearGradient id="paint4_linear_6252_23485" x1="0" y1="0" x2="0" y2="1" gradientUnits="objectBoundingBox">
<stop stop-color="#ED3040"/>
<stop offset="1" stop-color="#2D23F4"/>
</linearGradient>
<linearGradient id="paint5_linear_6252_23485" x1="0" y1="0" x2="0" y2="1" gradientUnits="objectBoundingBox">
<stop stop-color="#ED3040"/>
<stop offset="1" stop-color="#2D23F4"/>
</linearGradient>
<linearGradient id="paint6_linear_6252_23485" x1="0" y1="0" x2="0" y2="1" gradientUnits="objectBoundingBox">
<stop stop-color="#ED3040"/>
<stop offset="1" stop-color="#2D23F4"/>
</linearGradient>
<linearGradient id="paint7_linear_6252_23485" x1="0" y1="0" x2="0" y2="1" gradientUnits="objectBoundingBox">
<stop stop-color="#ED3040"/>
<stop offset="1" stop-color="#2D23F4"/>
</linearGradient>
<linearGradient id="paint8_linear_6252_23485" x1="0" y1="0" x2="0" y2="1" gradientUnits="objectBoundingBox">
<stop stop-color="#ED3040"/>
<stop offset="1" stop-color="#2D23F4"/>
</linearGradient>
</defs>
</svg>
