<svg width="50" height="50" viewBox="0 0 50 50" fill="none" xmlns="http://www.w3.org/2000/svg">
<path d="M18.3051 5V7.29112C18.3051 7.53382 17.7696 8.28862 17.5508 8.45227C17.3586 8.59588 17.022 8.61703 16.9742 8.8742C16.932 9.09797 16.9387 11.5472 16.9875 11.6952C17.0198 11.7921 17.6485 12.1116 17.8407 12.3398C18.5095 13.1303 18.4761 14.4038 17.7252 15.1275C17.5996 15.2488 16.9742 15.5795 16.9742 15.6251V17.334C17.7585 16.8119 18.685 15.3056 19.5492 15.0395C19.7714 14.9716 20.0836 15.0618 20.2258 14.8837C20.3935 14.6733 20.2524 13.9763 20.3191 13.6446C20.4291 13.1013 22.3953 11.1297 22.9385 11.0195C23.3607 10.9338 25.8891 10.9338 26.3101 11.0195C27.0766 11.1753 27.4998 12.2586 28.1564 12.3354C28.3697 12.361 29.1284 12.3688 29.305 12.3164C29.5028 12.2574 29.8394 11.7387 30.0826 11.5962C30.6048 11.2911 31.2835 11.2922 31.8045 11.5962C32.1222 11.7821 32.6654 12.6193 32.9765 12.5881C33.402 12.5458 35.3404 9.91957 36.1803 9.70582C36.6757 9.58002 39.5474 9.59226 40.135 9.66463C41.1615 9.79043 41.828 11.3201 42.5245 11.604C42.8633 11.742 43.2633 11.6262 43.6188 11.6741C44.1897 11.7509 44.7985 12.3254 44.8952 12.8954C45.0296 13.6913 45.0351 17.4832 44.9096 18.2869C44.8163 18.8859 43.9687 19.4203 43.9953 19.7041C44.0176 19.9324 44.7874 20.4423 44.8952 20.9777C44.9951 21.4698 44.9818 23.6685 44.9163 24.2107C44.8074 25.1013 43.721 25.5266 43.601 26.0598C43.481 26.5931 43.521 29.0813 43.5799 29.7125C43.641 30.3782 44.2331 30.5675 44.5819 31.0417C44.6363 31.1152 44.9152 31.5917 44.9152 31.6251V45H5V39.6663H7.66057V34.3749C7.66057 33.776 6.63189 33.0846 6.4186 32.2864C6.2653 31.7153 6.26641 30.2825 6.4186 29.7125C6.66966 28.7751 7.45172 28.558 7.63946 27.6028C7.84053 26.5786 7.81387 26.0198 8.797 25.3462C9.09138 25.1447 10.0878 24.7952 10.24 24.6248C10.3089 24.548 10.3345 24.4823 10.3267 24.3788L10.3222 15.7075C10.2834 15.5004 9.68571 15.2655 9.45464 14.9928C8.78811 14.2035 8.82033 12.9288 9.57017 12.2051C9.73347 12.047 10.2667 11.821 10.3089 11.6952C10.3578 11.5483 10.3645 9.09908 10.3222 8.8742C10.2745 8.61703 9.93677 8.59588 9.74569 8.45227C9.52685 8.28862 8.9914 7.53382 8.9914 7.29112V5H18.3051ZM16.9742 6.3337H10.3222C10.22 6.97272 10.4922 7.49708 11.1343 7.64514C11.5886 7.74979 15.6878 7.74868 16.1655 7.64848C16.8031 7.51489 17.0775 6.95269 16.9742 6.3337ZM12.9828 9H11.652V11.6663H12.9828V9ZM15.6434 9H14.3125V11.6663H15.6434V9ZM43.5832 14.3337C43.6898 12.5658 43.4766 13.1792 42.299 12.9955C41.3714 12.8497 40.4605 11.1108 39.7951 11.005C39.4152 10.9449 36.8935 10.9449 36.5935 11.0373C35.2738 11.8466 33.8919 14.7979 32.0789 13.7381C31.7834 13.5655 31.228 12.7707 30.9813 12.7462C30.6303 12.7117 30.1837 13.5622 29.8871 13.6502C29.6627 13.7169 28.0397 13.7058 27.7398 13.6691C26.8511 13.56 26.4267 12.4712 25.8946 12.351C25.5969 12.2842 23.6495 12.2842 23.3518 12.351C23.1641 12.3933 21.8232 13.6902 21.7232 13.8862C21.4177 14.4795 21.9065 15.1631 21.1845 15.8878C20.7601 16.3131 20.3202 16.2641 19.8036 16.4623L16.9731 19.2922V23.6674H18.3039V25.0011H16.9731V31.6674H19.6337C19.7536 29.3373 19.4748 26.8514 19.6303 24.5391C19.847 21.3184 21.671 18.2135 24.1261 16.2085H24.4549C27.4687 18.6476 29.2228 22.4161 28.9473 26.3337H30.2782V27.6674H28.9473V35.6674H31.6079L31.6045 24.5391C31.9189 21.2728 33.5386 18.3103 36.0525 16.2463C36.3425 16.0058 36.8468 16.5692 37.0979 16.7918C39.2663 18.71 40.636 21.6635 40.9249 24.5391L40.9215 35.6674H43.5821V34.3337H42.2513V33H43.5821C43.5532 32.6571 43.6532 32.2686 43.5188 31.9379C43.3166 31.4392 42.379 31.074 42.2557 30.2869C42.1657 29.7125 42.1657 26.071 42.2901 25.5811C42.4612 24.9054 43.3355 24.5146 43.5188 24.0626C43.6521 23.732 43.5532 23.3434 43.5821 23.0006H42.2513V21.6669H43.5821C43.6643 21.1002 43.0355 20.8931 42.8167 20.4756C42.5434 19.9535 42.5479 19.3156 42.8456 18.8046C42.9644 18.5998 43.5821 18.1244 43.5821 17.9585V15.6674H38.9253V14.3337H43.5832ZM10.8799 13.0178C10.119 13.2483 10.1945 14.209 10.9499 14.3293C12.5229 14.5775 14.7058 14.1578 16.3455 14.3293C17.1608 14.101 17.1664 13.236 16.3455 13.0056L10.8799 13.0189V13.0178ZM15.6434 15.6663H11.652V26.9994H12.9828V28.3331H11.652V35.6663H13.6471V31.6663H15.6423V30.3326H14.3114V28.9989H15.6423V18.3326H13.6471V16.9989H15.6423V15.6652L15.6434 15.6663ZM27.6209 25.2883C27.4965 23.1653 26.8389 21.0523 25.5736 19.3412C25.4514 19.1765 24.5349 18.0777 24.4571 18.0409C24.3583 17.9942 24.2938 17.9819 24.1861 18.012C23.9417 18.0799 22.7064 19.7665 22.5109 20.0905C20.328 23.7153 21.0923 27.6273 20.9656 31.6674H24.957V35.6674H27.6176L27.6209 25.2883ZM39.5918 35.6663L39.5951 25.2883C39.4652 22.936 38.662 20.6304 37.1401 18.8325C36.9668 18.6276 36.4447 17.9752 36.228 17.9964C36.0581 18.0131 35.5049 18.6944 35.3527 18.8781C33.873 20.6582 33.0809 22.8937 32.9354 25.206L32.9387 35.6674H39.5907L39.5918 35.6663ZM10.3222 35.6663V26.0832C10.1056 26.2669 9.82568 26.3226 9.59461 26.4795C8.78367 27.0317 9.12804 27.6819 8.84032 28.4734C8.55261 29.265 7.78498 29.5299 7.66945 30.4673C7.61502 30.9148 7.63168 31.5761 7.78721 31.9969C7.99827 32.5725 8.99029 33.2182 8.99029 33.9574V35.6663H10.3222ZM23.6262 33H14.978V35.6663H23.6262V33ZM12.9828 37H8.9914V39.6663H12.9828V37ZM17.6396 37H14.3136V39.6663H21.631V37H18.9705V38.3337H17.6396V37ZM29.6138 37H22.9619V39.6663H29.6138V37ZM36.9312 37H30.9447V39.6663H36.9312V37ZM43.5832 37H38.261V39.6663H43.5832V37ZM6.33084 41V43.6663H8.9914V42.3326H10.3222V43.6663H14.9791V41H6.33084ZM24.2916 41H16.3088V43.6663H24.2916V41ZM27.6176 41H25.6224V43.6663H34.2707V41H28.9484V42.3337H27.6176V41ZM43.5832 41H35.6004V43.6663H43.5832V41Z" fill="url(#paint0_linear_6252_23445)"/>
<path d="M28.283 18.9994V17.6657C29.6227 17.9864 29.9549 16.5792 31.088 16.3521C31.2757 16.3142 31.4701 16.3576 31.6434 16.3254C32.3411 16.1951 32.6466 15.6028 33.1476 15.1675L34.1018 16.1239C33.5486 16.6226 33.0587 17.3674 32.31 17.5767C31.9089 17.6891 31.5079 17.6223 31.1346 17.8149C30.8558 17.9585 30.6492 18.3025 30.4003 18.4962C29.7205 19.0262 29.1239 19.0429 28.2819 18.9983L28.283 18.9994Z" fill="url(#paint1_linear_6252_23445)"/>
<path d="M37.5967 13H36.2658V14.3337H37.5967V13Z" fill="url(#paint2_linear_6252_23445)"/>
<path d="M25.6224 13.6669H24.2916V15.0006H25.6224V13.6669Z" fill="url(#paint3_linear_6252_23445)"/>
<path d="M41.5881 17H40.2572V18.3337H41.5881V17Z" fill="url(#paint4_linear_6252_23445)"/>
<path d="M30.9447 20.3331H29.6138V21.6669H30.9447V20.3331Z" fill="url(#paint5_linear_6252_23445)"/>
<path d="M14.3136 21H12.9828V22.3337H14.3136V21Z" fill="url(#paint6_linear_6252_23445)"/>
<defs>
<linearGradient id="paint0_linear_6252_23445" x1="0" y1="0" x2="0" y2="1" gradientUnits="objectBoundingBox">
<stop stop-color="#ED3040"/>
<stop offset="1" stop-color="#2D23F4"/>
</linearGradient>
<linearGradient id="paint1_linear_6252_23445" x1="0" y1="0" x2="0" y2="1" gradientUnits="objectBoundingBox">
<stop stop-color="#ED3040"/>
<stop offset="1" stop-color="#2D23F4"/>
</linearGradient>
<linearGradient id="paint2_linear_6252_23445" x1="0" y1="0" x2="0" y2="1" gradientUnits="objectBoundingBox">
<stop stop-color="#ED3040"/>
<stop offset="1" stop-color="#2D23F4"/>
</linearGradient>
<linearGradient id="paint3_linear_6252_23445" x1="0" y1="0" x2="0" y2="1" gradientUnits="objectBoundingBox">
<stop stop-color="#ED3040"/>
<stop offset="1" stop-color="#2D23F4"/>
</linearGradient>
<linearGradient id="paint4_linear_6252_23445" x1="0" y1="0" x2="0" y2="1" gradientUnits="objectBoundingBox">
<stop stop-color="#ED3040"/>
<stop offset="1" stop-color="#2D23F4"/>
</linearGradient>
<linearGradient id="paint5_linear_6252_23445" x1="0" y1="0" x2="0" y2="1" gradientUnits="objectBoundingBox">
<stop stop-color="#ED3040"/>
<stop offset="1" stop-color="#2D23F4"/>
</linearGradient>
<linearGradient id="paint6_linear_6252_23445" x1="0" y1="0" x2="0" y2="1" gradientUnits="objectBoundingBox">
<stop stop-color="#ED3040"/>
<stop offset="1" stop-color="#2D23F4"/>
</linearGradient>
</defs>
</svg>
