<svg width="50" height="50" viewBox="0 0 50 50" fill="none" xmlns="http://www.w3.org/2000/svg">
<path d="M9.5218 27.0798C10.8727 27.6086 13.0231 27.792 12.6144 29.7797C12.5467 30.1096 12.2354 30.2752 12.1903 30.5562C13.0077 30.8838 12.9257 31.7901 12.3673 32.3403C13.0279 32.5309 14.0093 33.0359 13.4758 33.8541C13.3439 34.0565 13.0968 34.1316 12.9424 34.2995C12.2628 35.0391 12.3459 36.2456 13.174 36.8375C15.2437 38.3179 18.1938 35.6405 20.014 37.826C21.0322 39.0491 21.0547 41.8527 21.1735 43.395C22.3224 43.2926 23.5676 42.8865 24.6963 42.7828C25.1739 42.7388 25.7394 42.6935 25.8689 43.2819C26.0198 43.9643 25.56 44.137 25.0171 44.262C23.8456 44.5324 21.852 44.8944 20.6734 44.9873C20.0912 45.0338 19.812 44.9778 19.61 44.3811C19.7656 43.2938 19.5732 39.3814 18.8187 38.668C18.1629 38.0487 16.6279 38.693 15.7914 38.7573C13.9843 38.8955 12.018 38.5287 11.2861 36.6803C10.8109 35.4797 11.0176 34.5698 11.658 33.5003C10.9 33.2812 10.3166 32.8405 10.521 31.9568C10.5709 31.7425 10.8549 31.5209 10.8549 31.4923C10.8549 31.4507 10.4901 31.1648 10.4236 31.035C10.2097 30.6194 10.3095 30.118 10.6208 29.7845C10.7135 29.6844 11.3455 29.3676 11.2125 29.22C10.085 28.7459 7.85964 28.5018 8.00697 26.8571C8.04499 26.4283 8.75547 25.3945 8.96815 24.8753C11.3527 19.0621 9.3424 13.3811 14.7281 8.71843C17.9039 5.96727 23.2135 4.69411 27.3517 5.06212C27.8507 5.10619 28.4994 5.25744 28.4638 5.90057C28.4032 7.00104 26.4167 6.4782 25.6598 6.48415C20.7838 6.5175 15.5063 8.40759 13.2097 12.9917C12.1202 15.164 12.182 17.0327 11.8208 19.3551C11.4073 22.0133 10.8073 24.7061 9.52299 27.081L9.5218 27.0798Z" fill="url(#paint0_linear_6252_23501)"/>
<path d="M30.4895 5.61236C30.916 5.55757 32.6055 6.23762 33.0867 6.44604C42.184 10.3977 44.7218 21.5167 38.8169 29.3903C38.2324 30.1704 37.428 30.8361 37.0906 31.7603C36.3849 33.6921 36.8589 36.1205 37.4042 38.0463C37.6561 38.936 38.3535 40.2961 38.4949 41.0547C38.5591 41.4025 38.5258 41.7705 38.186 41.9503C34.813 42.6399 31.3901 43.1294 27.9968 43.732C27.2032 43.5796 26.9976 42.5339 27.8448 42.2814C30.6439 41.6073 33.7318 41.4585 36.5096 40.8046C36.5928 40.7856 36.7128 40.7689 36.733 40.6688C36.7579 40.5486 36.0593 38.6847 35.9619 38.3321C35.4843 36.6112 35.1932 34.8914 35.3096 33.093C35.4962 30.2216 37.4256 29.1747 38.7088 26.8725C42.6307 19.8327 40.0205 11.0706 32.5889 7.83711C32.059 7.60606 30.3956 7.16659 30.1081 6.93554C29.6673 6.58301 29.8455 5.69334 30.4907 5.61117L30.4895 5.61236Z" fill="url(#paint1_linear_6252_23501)"/>
<path d="M19.1264 14.7781C14.3645 15.7285 14.7625 22.1813 19.1264 23.3365C19.2084 21.1344 20.8694 19.1967 23.0959 18.9787C23.6258 18.9263 24.6856 18.9239 24.6404 19.7183C24.5834 20.7021 23.0971 20.3829 22.3937 20.6818C20.5926 21.4452 20.1102 23.7641 21.3494 25.2552C22.762 26.9547 24.5763 25.9138 26.3335 26.4104C27.3113 26.6867 28.0966 27.6324 28.1988 28.6423C28.2939 29.588 28.3117 31.9044 28.2012 32.8334C28.1026 33.6635 26.9097 33.7397 26.7814 32.9156C26.6091 31.808 27.1319 28.8115 26.3905 28.0921C25.8594 27.5776 24.1973 27.8539 23.4381 27.7979C22.2381 27.7098 20.9763 27.1727 20.1969 26.233C19.9902 25.9841 19.5233 25.0051 19.4639 24.9622C19.4045 24.9193 18.4849 24.7252 18.2401 24.6287C12.3566 22.3111 13.0719 13.9671 19.4852 13.2203C21.3375 8.75654 27.2959 7.8109 30.6938 11.1647C30.821 11.2898 31.2843 11.971 31.3307 11.9972C31.3829 12.0258 32.2241 12.108 32.4522 12.1663C34.6205 12.7177 36.3944 14.3184 36.8743 16.5598C36.9694 17.0029 36.9302 17.7008 37.0229 18.0152C37.0692 18.1724 38.2407 19.5706 38.5044 20.1852C41.1907 26.4783 31.977 29.9226 29.3418 25.0015C29.1814 24.7014 28.8677 23.5795 28.8047 23.533C28.7323 23.4794 27.7877 23.2865 27.4301 23.0852C26.7695 22.7124 25.1501 21.007 26.2099 20.4067C27.177 19.8589 27.3244 21.2428 27.9398 21.6834C29.1766 22.5683 31.1227 21.9895 31.5398 20.4901C31.6776 19.9946 31.4815 19.4265 31.7976 19.0538C32.2396 18.5345 32.9904 18.7965 33.0867 19.4658C33.2993 20.9546 32.3025 22.5028 31.0194 23.1757C30.8138 23.2841 30.3433 23.2984 30.3374 23.5545C30.3338 23.72 30.5774 24.2119 30.6748 24.3798C32.1207 26.8892 36.6629 25.9579 37.3888 23.2305C37.706 22.0372 37.3579 20.9724 36.7389 19.9506L36.0486 21.1737C35.5734 22.0967 34.2451 21.8454 34.5385 20.7295C34.5908 20.5306 34.8926 20.2674 35.0078 20.0423C36.1912 17.7473 35.2918 14.7829 32.8253 13.8444C32.1801 13.5991 30.9778 13.5788 30.5679 13.3442C30.341 13.2144 29.6162 12.1675 29.2218 11.8412C26.2147 9.35084 20.93 10.9265 20.5652 15.0151C20.5165 15.5642 20.7482 16.4515 20.5058 16.8278C20.0781 17.4912 19.1312 17.0362 19.1312 16.6087V14.7805L19.1264 14.7781Z" fill="url(#paint2_linear_6252_23501)"/>
<path d="M26.1339 12.8416C28.08 12.6618 29.6435 14.4721 29.3144 16.3883C29.1837 17.147 28.295 18.7667 27.4848 17.7675C26.9751 17.1399 27.6784 16.8362 27.8044 16.3002C28.08 15.1271 27.2293 14.1612 26.0412 14.3541C25.263 14.4804 25.1929 15.2605 24.5977 15.3165C24.2353 15.351 23.9133 15.2521 23.7921 14.8722C23.4737 13.8742 25.2856 12.9202 26.1351 12.8416H26.1339Z" fill="url(#paint3_linear_6252_23501)"/>
<defs>
<linearGradient id="paint0_linear_6252_23501" x1="0" y1="0" x2="0" y2="1" gradientUnits="objectBoundingBox">
<stop stop-color="#ED3040"/>
<stop offset="1" stop-color="#2D23F4"/>
</linearGradient>
<linearGradient id="paint1_linear_6252_23501" x1="0" y1="0" x2="0" y2="1" gradientUnits="objectBoundingBox">
<stop stop-color="#ED3040"/>
<stop offset="1" stop-color="#2D23F4"/>
</linearGradient>
<linearGradient id="paint2_linear_6252_23501" x1="0" y1="0" x2="0" y2="1" gradientUnits="objectBoundingBox">
<stop stop-color="#ED3040"/>
<stop offset="1" stop-color="#2D23F4"/>
</linearGradient>
<linearGradient id="paint3_linear_6252_23501" x1="0" y1="0" x2="0" y2="1" gradientUnits="objectBoundingBox">
<stop stop-color="#ED3040"/>
<stop offset="1" stop-color="#2D23F4"/>
</linearGradient>
</defs>
</svg>
