<svg width="50" height="50" viewBox="0 0 50 50" fill="none" xmlns="http://www.w3.org/2000/svg">
<path d="M6.57007 45C6.15477 44.7433 5.77077 44.4167 5.66747 43.9106C5.45773 42.8901 5.74781 41.4271 5.63721 40.3575C5.20625 40.2897 4.97147 40.0236 5.00278 39.5728C5.05182 38.8841 5.8219 38.9676 6.33529 38.9864L6.33946 22.8614C6.46572 22.0495 7.66258 22.3386 7.66258 22.7789V26.3331H10.9432V25.0047C10.9432 24.9515 10.2525 24.9828 10.3193 24.2701C10.3725 23.6941 10.8806 23.7337 10.9349 23.668C10.9892 23.6023 11.0017 22.7257 11.0309 22.5536C11.2385 21.3421 11.7812 20.4154 12.7036 19.6172C13.0938 19.2791 14.0935 18.6979 14.2594 18.2053C14.4128 17.7525 14.2437 16.8937 14.3022 16.373C14.4128 15.389 15.5971 15.4182 15.7098 16.3709C15.811 17.2234 15.3905 18.1031 16.1762 18.7156C16.2451 18.7688 16.2952 18.9013 16.3724 18.7563C16.434 18.6415 16.4841 17.8485 16.5404 17.5959C17.6319 12.678 21.116 12.5757 23.6287 9.21883C23.7706 9.02892 24.1484 8.51657 24.2266 8.33291C24.549 7.58473 23.7894 5.00628 24.9633 5.00001C25.2753 4.99793 25.6196 5.2181 25.6896 5.53219C25.8534 6.26159 25.5132 7.71412 25.7782 8.33291C26.4889 9.99101 28.4975 11.2641 29.8707 12.2856C31.9827 13.8582 33.4571 16.1486 33.5959 18.8325C34.6561 18.4015 34.2001 17.2537 34.2982 16.373C34.4088 15.39 35.5931 15.4182 35.7058 16.3709C35.7674 16.8916 35.591 17.7441 35.7465 18.2043C35.9124 18.6968 36.9121 19.278 37.3023 19.6161C38.2248 20.4144 38.7674 21.34 38.975 22.5525C39.0042 22.7247 39.0188 23.6033 39.071 23.667C39.1232 23.7306 39.6334 23.693 39.6867 24.269C39.7524 24.9807 39.0627 24.9504 39.0627 25.0037V26.332H42.3433V22.7779C42.3433 22.2238 43.6717 22.2238 43.6717 22.7779V38.9853C44.2143 38.9791 44.6557 38.8779 45 39.3756V39.9224C44.9645 40.2125 44.8017 40.4212 44.5117 40.5485L44.5743 43.0769C44.5972 43.9043 44.3697 44.8685 43.4379 44.999H6.57007V45ZM17.7394 18.99H32.2676C32.1622 17.5991 31.6457 16.2081 30.8161 15.0916C29.4607 13.2696 27.1515 12.463 25.7449 10.6338L24.9654 9.69466C24.3758 10.5263 23.6652 11.3256 22.8962 12.0008C22.123 12.678 21.2079 13.1298 20.4367 13.759C18.8987 15.0164 17.8082 16.9792 17.7394 18.99ZM12.3498 23.6763H16.9578C16.9286 23.4301 17.01 23.1024 16.9422 22.8718C16.8973 22.7184 16.6051 22.5515 16.5008 22.3751C16.1825 21.8346 16.4089 21.1563 16.3161 20.5678L14.9773 19.542C13.6031 20.6711 12.1328 21.6301 12.3498 23.6763ZM37.6571 23.6763C37.8741 21.6301 36.4039 20.6711 35.0297 19.542L33.6909 20.5678C33.6053 21.2179 33.8338 21.8231 33.4582 22.4054C33.3591 22.5598 33.0982 22.7539 33.0648 22.8708C32.9928 23.117 33.1264 23.4249 32.9709 23.6753H37.6571V23.6763ZM32.3458 20.3956H17.6611V21.6457H32.3458V20.3956ZM31.6425 23.0513H18.3644V24.3014H31.6425V23.0513ZM16.9588 25.0037H12.3509V26.332H16.9588V25.0037ZM37.6571 25.0037H33.0491V26.332H37.6571V25.0037ZM18.3644 25.707V38.9853H19.6145V28.2458C19.6145 27.6812 20.3376 26.9821 20.9094 26.9633C23.4962 27.1021 26.3135 26.7557 28.8732 26.9529C29.253 26.9821 29.7069 27.0927 29.9751 27.3745C30.0951 27.4997 30.3935 28.0976 30.3935 28.2458V38.9853H31.6436V25.707H18.3644ZM7.78049 27.6593C7.77214 27.6593 7.66362 27.7679 7.66362 27.7762V38.9853H11.6476V27.6593H7.78049ZM16.9588 27.6593H12.9749C12.954 27.7167 13.0531 27.7522 13.0531 27.7762V38.9853H16.9588V27.6593ZM36.9538 27.6593H32.9698C32.949 27.7167 33.0481 27.7522 33.0481 27.7762V38.9853H36.9538V27.6593ZM42.3433 38.9853V27.7762C42.3433 27.7679 42.2348 27.6593 42.2265 27.6593H38.3604V38.9853H42.3444H42.3433ZM22.8941 28.3626H21.02V30.0813L22.8941 28.3626ZM28.9869 28.3626H27.1901L28.9869 30.0813V28.3626ZM28.9869 33.674V32.4636C28.9869 32.0691 27.1483 30.1877 26.7633 29.8444C26.5473 29.6524 25.1303 28.5077 24.979 28.5306C23.8979 29.2799 22.7772 30.1752 21.9174 31.1728C21.7703 31.3428 21.02 32.3331 21.02 32.4625V33.673H22.9724C22.5623 30.1021 27.4384 30.1105 27.0335 33.673H28.9859L28.9869 33.674ZM25.628 33.674C25.6468 33.1283 25.7449 32.3206 24.9706 32.3509C24.1849 32.3811 24.4729 33.1742 24.2997 33.674H25.628ZM28.9869 35.0024H21.02V38.9864H22.9724C22.579 35.4584 27.4228 35.4479 27.0335 38.9864H28.9859V35.0024H28.9869ZM25.628 38.9853C25.9483 37.2605 24.0597 37.2573 24.3779 38.9853H25.628ZM42.9684 40.392H7.03859V43.6727H8.28866V42.3057C8.28866 42.2682 8.47231 41.8821 8.51927 41.833C8.88761 41.4469 9.69526 41.7725 9.69526 42.1492V43.6727H12.3509V42.0709C12.3509 41.8768 12.8215 41.6379 13.0145 41.6368C13.2076 41.6358 13.6782 41.9593 13.6782 42.0709V43.6727H16.3338V42.0709C16.3338 41.9593 16.8138 41.6358 16.9975 41.6368C17.1905 41.6368 17.6611 41.8768 17.6611 42.0709V43.6727H20.3167V42.1492C20.3167 41.7725 21.1233 41.4469 21.4927 41.833C21.5397 41.8821 21.7233 42.2682 21.7233 42.3057V43.6727H24.3007V42.2275C24.3007 41.4782 25.7062 41.4793 25.7062 42.2275V43.6727H28.2836V42.3057C28.2836 42.2682 28.4673 41.8821 28.5142 41.833C28.8826 41.4469 29.6902 41.7725 29.6902 42.1492V43.6727H32.3458V42.0709C32.3458 41.8768 32.8165 41.6379 33.0095 41.6368C33.2025 41.6358 33.6731 41.9593 33.6731 42.0709V43.6727H36.3288V42.0709C36.3288 41.9593 36.8088 41.6358 36.9924 41.6368C37.1855 41.6368 37.6561 41.8768 37.6561 42.0709V43.6727H40.3117V42.1492C40.3117 41.7725 41.1183 41.4469 41.4877 41.833C41.5346 41.8821 41.7183 42.2682 41.7183 42.3057V43.6727H42.9684V40.392Z" fill="url(#paint0_linear_6252_23495)"/>
<path d="M34.9044 34.3137C35.2091 34.2761 35.518 34.4337 35.6317 34.7237C35.7455 35.0138 35.7601 36.818 35.6881 37.1342C35.543 37.7759 34.6112 37.8761 34.3577 37.2479C34.2523 36.9871 34.2575 35.2392 34.317 34.9043C34.3723 34.5975 34.5851 34.3533 34.9044 34.3147V34.3137Z" fill="url(#paint1_linear_6252_23495)"/>
<path d="M24.8256 12.0529C25.5769 11.887 25.9379 12.6696 25.4349 13.2895C24.4103 14.5511 22.4308 15.2878 21.4124 16.5305C21.0409 16.9845 20.9219 17.6857 20.2061 17.5803C19.0343 17.4092 20.06 15.9921 20.4336 15.5518C21.1849 14.6669 22.219 14.1723 23.1226 13.4763C23.4325 13.2373 24.6127 12.0999 24.8256 12.0529Z" fill="url(#paint2_linear_6252_23495)"/>
<path d="M14.8281 29.0023C15.3488 28.8875 15.6535 29.2454 15.7088 29.7296C15.7516 30.1042 15.7662 31.491 15.6921 31.8218C15.5512 32.45 14.6037 32.5356 14.3617 31.9355C14.2667 31.7008 14.2542 29.8016 14.3189 29.5115C14.3648 29.306 14.6204 29.0482 14.8281 29.0023Z" fill="url(#paint3_linear_6252_23495)"/>
<path d="M14.9095 34.3137C15.2142 34.2761 15.523 34.4337 15.6368 34.7237C15.7505 35.0138 15.7651 36.818 15.6931 37.1342C15.5481 37.7759 14.6163 37.8761 14.3627 37.2479C14.2573 36.9871 14.2625 35.2392 14.322 34.9043C14.3773 34.5975 14.5902 34.3533 14.9095 34.3147V34.3137Z" fill="url(#paint4_linear_6252_23495)"/>
<path d="M34.823 29.0023C35.3437 28.8875 35.6484 29.2454 35.7037 29.7296C35.7465 30.1042 35.7611 31.491 35.687 31.8218C35.5462 32.45 34.5987 32.5356 34.3566 31.9355C34.2617 31.7008 34.2491 29.8016 34.3138 29.5115C34.3597 29.306 34.6154 29.0482 34.823 29.0023Z" fill="url(#paint5_linear_6252_23495)"/>
<path d="M40.2157 34.3137C40.5079 34.2573 40.8459 34.4347 40.9566 34.7091C41.0515 34.945 41.064 36.9182 40.9993 37.2104C40.8731 37.777 39.958 37.85 39.7086 37.2845C39.5604 36.9464 39.5614 35.3843 39.6282 34.9804C39.6835 34.6507 39.8713 34.3783 40.2146 34.3126L40.2157 34.3137Z" fill="url(#paint6_linear_6252_23495)"/>
<path d="M40.1353 29.0033C40.4526 28.9345 40.8313 29.0889 40.9566 29.3988C41.0515 29.6336 41.064 31.5338 40.9993 31.8228C40.8877 32.3216 40.1896 32.5356 39.8421 32.1536C39.5301 31.8114 39.55 30.1449 39.6293 29.6701C39.6752 29.3967 39.8411 29.067 40.1364 29.0033H40.1353Z" fill="url(#paint7_linear_6252_23495)"/>
<path d="M9.51787 34.3126C10.002 34.2135 10.3297 34.5943 10.3913 35.0483C10.4528 35.5022 10.4539 37.0455 10.2431 37.3867C9.94256 37.874 9.08692 37.7258 8.99613 37.1457C8.94187 36.8024 8.9377 35.138 9.00761 34.8239C9.05248 34.6215 9.31335 34.3543 9.51682 34.3126H9.51787Z" fill="url(#paint8_linear_6252_23495)"/>
<path d="M9.17248 32.1651C9.07648 32.0608 9.00553 31.8281 8.98883 31.6841C8.94605 31.3021 8.93144 29.8475 9.00761 29.5115C9.12239 29.0013 9.8643 28.778 10.2003 29.2235C10.4998 29.6211 10.4998 31.7122 10.2003 32.1098C9.97073 32.4145 9.42604 32.4416 9.17248 32.1651Z" fill="url(#paint9_linear_6252_23495)"/>
<defs>
<linearGradient id="paint0_linear_6252_23495" x1="37.6624" y1="33.6397" x2="37.6624" y2="41.6506" gradientUnits="userSpaceOnUse">
<stop stop-color="#ED3040"/>
<stop offset="1" stop-color="#2D23F4"/>
</linearGradient>
<linearGradient id="paint1_linear_6252_23495" x1="37.6624" y1="33.6397" x2="37.6624" y2="41.6506" gradientUnits="userSpaceOnUse">
<stop stop-color="#ED3040"/>
<stop offset="1" stop-color="#2D23F4"/>
</linearGradient>
<linearGradient id="paint2_linear_6252_23495" x1="37.6624" y1="33.6397" x2="37.6624" y2="41.6506" gradientUnits="userSpaceOnUse">
<stop stop-color="#ED3040"/>
<stop offset="1" stop-color="#2D23F4"/>
</linearGradient>
<linearGradient id="paint3_linear_6252_23495" x1="37.6624" y1="33.6397" x2="37.6624" y2="41.6506" gradientUnits="userSpaceOnUse">
<stop stop-color="#ED3040"/>
<stop offset="1" stop-color="#2D23F4"/>
</linearGradient>
<linearGradient id="paint4_linear_6252_23495" x1="37.6624" y1="33.6397" x2="37.6624" y2="41.6506" gradientUnits="userSpaceOnUse">
<stop stop-color="#ED3040"/>
<stop offset="1" stop-color="#2D23F4"/>
</linearGradient>
<linearGradient id="paint5_linear_6252_23495" x1="37.6624" y1="33.6397" x2="37.6624" y2="41.6506" gradientUnits="userSpaceOnUse">
<stop stop-color="#ED3040"/>
<stop offset="1" stop-color="#2D23F4"/>
</linearGradient>
<linearGradient id="paint6_linear_6252_23495" x1="37.6624" y1="33.6397" x2="37.6624" y2="41.6506" gradientUnits="userSpaceOnUse">
<stop stop-color="#ED3040"/>
<stop offset="1" stop-color="#2D23F4"/>
</linearGradient>
<linearGradient id="paint7_linear_6252_23495" x1="37.6624" y1="33.6397" x2="37.6624" y2="41.6506" gradientUnits="userSpaceOnUse">
<stop stop-color="#ED3040"/>
<stop offset="1" stop-color="#2D23F4"/>
</linearGradient>
<linearGradient id="paint8_linear_6252_23495" x1="37.6624" y1="33.6397" x2="37.6624" y2="41.6506" gradientUnits="userSpaceOnUse">
<stop stop-color="#ED3040"/>
<stop offset="1" stop-color="#2D23F4"/>
</linearGradient>
<linearGradient id="paint9_linear_6252_23495" x1="37.6624" y1="33.6397" x2="37.6624" y2="41.6506" gradientUnits="userSpaceOnUse">
<stop stop-color="#ED3040"/>
<stop offset="1" stop-color="#2D23F4"/>
</linearGradient>
</defs>
</svg>
