<svg width="50" height="50" viewBox="0 0 50 50" fill="none" xmlns="http://www.w3.org/2000/svg">
<path d="M40.9961 17.6024L40.9783 32.3567C45.1328 33.9496 42.1704 39.5559 38.4785 37.0286L27.7496 42.6972C27.5272 42.8752 27.5539 43.1955 27.4293 43.4625C26.2995 45.8118 22.8745 45.3669 22.3763 42.8218C18.7822 40.8373 15.1081 38.8618 11.4339 37.0286C7.80425 39.5559 4.90408 33.8695 9.02303 32.3478V17.6469C4.86849 16.054 7.82204 10.4388 11.5229 12.975L22.2517 7.30645C22.4741 7.12848 22.4474 6.80812 22.572 6.54115C23.7107 4.18295 27.1269 4.6368 27.625 7.18187C31.2191 9.16631 34.9022 11.133 38.5674 12.975C42.1704 10.4211 45.115 16.1608 40.9961 17.6113V17.6024ZM24.9028 6.36317C22.8834 6.52335 23.6662 9.70024 25.5611 8.85485C26.8689 8.26753 26.3262 6.24749 24.9028 6.36317ZM22.5809 8.77476L12.2791 14.1052C12.6438 15.6625 11.941 17.1842 10.3664 17.6024L10.3486 32.3567C11.9232 32.8729 12.6527 34.2878 12.2791 35.8985L22.225 41.1488C22.314 41.1933 22.5097 41.2912 22.5809 41.2378C22.6165 41.2111 22.8389 40.7128 22.999 40.5348C24.111 39.28 26.0771 39.3601 27.118 40.6683C27.2603 40.8462 27.3937 41.2556 27.5361 41.2467L37.7312 35.9074C37.3664 34.3501 38.0692 32.8284 39.6439 32.4101L39.6616 17.6558C38.087 17.1397 37.3575 15.7248 37.7312 14.1141L27.7852 8.86375C27.376 8.57009 27.3137 9.12182 27.0468 9.44218C25.9526 10.7325 23.942 10.6613 22.8923 9.35319C22.7766 9.21081 22.6165 8.80146 22.5898 8.78366L22.5809 8.77476ZM9.5835 13.6958C7.56405 13.856 8.34692 17.0329 10.2418 16.1875C11.5496 15.6002 11.0069 13.5801 9.5835 13.6958ZM40.2221 13.6958C38.2205 13.856 38.9766 17.0418 40.8804 16.1875C42.1882 15.6002 41.6455 13.5801 40.2221 13.6958ZM9.5835 33.6738C7.56405 33.8339 8.34692 37.0108 10.2418 36.1654C11.5496 35.5781 11.0069 33.5581 9.5835 33.6738ZM40.2221 33.6738C38.2205 33.8339 38.9766 37.0197 40.8804 36.1654C42.1882 35.5781 41.6455 33.5581 40.2221 33.6738ZM24.9028 41.0064C22.8834 41.1666 23.6662 44.3435 25.5611 43.4981C26.8689 42.9108 26.3262 40.8907 24.9028 41.0064Z" fill="url(#paint0_linear_6252_23459)"/>
<path d="M23.9064 14.3721C33.3809 13.5712 39.2613 24.2321 33.3275 31.7071C28.5858 37.6783 19.1736 36.7439 15.5885 30.0608C12.0033 23.3778 16.4247 15.004 23.9064 14.3721ZM32.1621 30.8261C35.0801 27.5869 34.9378 22.3455 32.1621 19.044C28.3901 14.5679 21.629 14.5857 17.8481 19.044C15.0458 22.3544 14.9568 27.5247 17.8036 30.8261C18.8089 29.2955 20.339 28.0764 22.0916 27.498C21.9848 27.3378 21.7535 27.2666 21.5934 27.1242C17.599 23.6803 20.2234 17.3088 25.4722 17.6736C30.1961 17.994 32.0554 24.0007 28.4257 27.1242C28.2656 27.2666 28.0343 27.3378 27.9275 27.498C29.6356 28.0764 31.2458 29.2688 32.171 30.8261H32.1621ZM24.7338 19.0351C19.1292 19.4445 20.3479 28.0586 25.8547 26.9017C30.5875 25.9051 29.5911 18.6792 24.7338 19.0351ZM24.5736 28.3611C22.225 28.5213 19.9387 29.8384 18.8 31.9207C22.2606 35.0887 27.7496 35.0976 31.2102 31.9207C29.9381 29.6159 27.198 28.1832 24.5736 28.3611Z" fill="url(#paint1_linear_6252_23459)"/>
<defs>
<linearGradient id="paint0_linear_6252_23459" x1="0" y1="0" x2="0" y2="1" gradientUnits="objectBoundingBox">
<stop stop-color="#ED3040"/>
<stop offset="1" stop-color="#2D23F4"/>
</linearGradient>
<linearGradient id="paint1_linear_6252_23459" x1="0" y1="0" x2="0" y2="1" gradientUnits="objectBoundingBox">
<stop stop-color="#ED3040"/>
<stop offset="1" stop-color="#2D23F4"/>
</linearGradient>
</defs>
</svg>
