<svg width="50" height="50" viewBox="0 0 50 50" fill="none" xmlns="http://www.w3.org/2000/svg">
<path d="M30.3581 22.9328C30.8895 22.981 31.6344 23.8076 32.1052 23.7305C32.7348 23.6269 33.7382 22.8834 34.4297 22.74C34.3618 22.0628 34.6081 21.3869 35.2608 21.0844C35.9136 20.782 39.2634 19.8566 39.9488 19.7879C41.0153 19.6806 41.3477 20.1482 41.6644 21.0422C42.9541 24.6873 43.7039 28.7046 44.9584 32.3822C45.1197 33.0606 44.8031 33.7763 44.1637 34.0764C43.5243 34.3764 40.2594 35.2645 39.5533 35.3597C38.8472 35.4549 38.5257 35.3103 38.078 34.7981C37.9773 34.6837 37.9057 34.3957 37.8426 34.3848C37.7128 34.3632 36.69 34.8704 36.4243 34.9584C36.0155 35.0934 34.3788 35.3597 34.2623 35.4271C34.1531 35.491 34.0512 35.8633 33.9408 36.0091C33.5137 36.5707 32.8901 36.949 32.1755 37.0081C32.901 38.6697 31.4694 40.4687 29.6847 40.247C29.4239 40.2145 29.1885 40.0265 28.9058 40.0735C28.645 42.3521 25.9176 42.7244 24.5466 41.0664C24.3148 42.6774 22.6442 43.4402 21.1822 42.7389C20.8777 42.5931 20.2092 41.9087 20.1425 41.9026C20.0648 41.8966 19.7858 42.1111 19.5904 42.1424C18.7193 42.2846 17.8264 41.8508 17.6419 40.9748C16.692 41.5026 15.2834 40.9579 15.1062 39.8421C15.0674 39.6011 15.1863 38.9529 15.1524 38.8999C15.0941 38.8083 14.5845 38.6046 14.4195 38.4492C14.1538 38.1974 13.9294 37.6816 13.916 37.3177C13.91 37.1418 14.0374 36.6996 14.0046 36.6538C13.9597 36.5935 13.2099 36.3345 12.9345 35.8658C12.6094 35.3139 12.8678 34.7981 12.7804 34.5668C12.7695 34.5367 12.3631 34.1354 12.3291 34.121C12.1677 34.0535 12.2114 34.1884 12.1859 34.2451C11.8414 35.0295 11.4689 35.4681 10.5238 35.3729C9.91352 35.3115 6.38902 34.3354 5.83577 34.0764C5.1794 33.7679 4.85546 33.0052 5.06172 32.3123C6.33078 28.6528 7.0466 24.5921 8.35692 20.9724C8.66387 20.1228 9.05939 19.6891 10.0518 19.7879C10.8222 19.865 13.933 20.7434 14.6743 21.0591C15.3137 21.3314 15.6656 21.9797 15.5564 22.6629C16.6956 22.4737 17.8446 22.287 19.0069 22.3014C15.634 19.095 15.1342 13.7823 18.1928 10.1734C21.7816 5.93918 28.2264 5.9452 31.8103 10.1734C34.6008 13.4654 34.4759 18.4094 31.6296 21.623C31.3226 21.9689 30.6395 22.4328 30.4503 22.7063C30.3969 22.7822 30.3241 22.7967 30.3617 22.9316L30.3581 22.9328ZM27.6331 11.1181C27.2825 10.0373 26.3082 7.91171 24.953 7.95268C23.6573 7.99244 22.7085 10.0614 22.3651 11.1181H27.6331ZM18.8698 11.1181C19.6984 11.0808 20.538 11.1458 21.3666 11.1181C21.6615 10.1566 22.0509 9.12511 22.7279 8.36719C22.2123 8.38526 21.5147 8.75398 21.033 9.02871C20.134 9.53962 19.3539 10.2602 18.7339 11.0747C18.7108 11.3495 18.8273 11.1205 18.8686 11.1181H18.8698ZM28.6316 11.1181H31.1285C31.1649 11.1181 31.2874 11.3495 31.2632 11.0747C30.6529 10.2722 29.8473 9.5336 28.964 9.02751C28.4848 8.75278 27.7823 8.38526 27.2691 8.36598C27.9655 9.13355 28.3101 10.1517 28.6304 11.1169L28.6316 11.1181ZM21.0949 12.111H18.0071C17.5243 13.1256 17.2464 14.1534 17.0984 15.268H20.7309L21.0937 12.111H21.0949ZM21.7306 15.268H28.2688C28.2931 14.2053 28.1172 13.1509 27.8964 12.1207L22.1492 12.1062C21.9721 12.1544 21.653 14.88 21.7306 15.268ZM31.9923 12.111H28.9046L29.2674 15.268H32.8998C32.753 14.1534 32.474 13.1268 31.9911 12.111H31.9923ZM17.0984 16.2597C17.261 17.3442 17.4321 18.4829 18.052 19.4167H21.0949L20.7321 16.2597H17.0984ZM28.2688 16.2597H21.7306C21.7112 17.3129 21.8495 18.3829 22.1055 19.4047L27.9158 19.3649C28.1342 18.3491 28.2967 17.3032 28.2688 16.2597ZM29.2686 16.2597L28.9058 19.4167H31.9486C32.5468 18.4672 32.7251 17.3454 32.9023 16.2597H29.2686ZM21.3666 20.4084H18.6417C19.2883 21.1615 20.1133 22.4762 21.2502 22.1424C22.3275 21.8267 21.4334 21.1639 21.3666 20.4084ZM27.6331 20.4084H22.3651L22.7328 21.4881C23.4365 21.3507 24.1426 21.264 24.8657 21.3061C25.2575 21.329 27.0617 21.7761 27.1878 21.6146C27.2364 21.5531 27.6804 20.4506 27.6319 20.4084H27.6331ZM31.3566 20.4084H28.6316L28.0893 22.0279C28.3865 22.0472 28.9592 22.3978 29.2091 22.3713C29.6883 22.3195 31.0508 20.8555 31.3554 20.4084H31.3566ZM9.71697 20.6952C9.53377 20.7422 9.38697 20.8555 9.33237 21.0386L5.95346 32.7991C6.01534 33.0799 6.17063 33.1401 6.40115 33.2437C7.07936 33.5474 9.60414 34.2246 10.3733 34.3487C10.599 34.3848 10.986 34.4716 11.1535 34.3017L14.6222 22.3593C14.5724 22.1617 14.4438 21.9966 14.2436 21.9375L9.71819 20.6952H9.71697ZM40.1345 20.7061L35.757 21.9375C35.5569 21.9966 35.427 22.1617 35.3785 22.3593L38.8472 34.3017C39.0146 34.4716 39.4017 34.3848 39.6273 34.3487C40.3965 34.2246 42.9213 33.5486 43.5995 33.2437C43.83 33.1401 43.9853 33.0799 44.0472 32.7991L40.6671 21.0386C40.6161 20.8157 40.3516 20.6928 40.1345 20.7061ZM34.3545 34.48C35.0594 34.2945 35.7825 34.186 36.4668 33.9173C36.6864 33.8306 37.526 33.4823 37.5308 33.2678L34.6688 23.657L31.8637 24.8282C29.5476 23.4233 26.2099 21.952 23.4352 22.3267C21.4309 22.5966 18.9025 25.0403 18.2013 26.8707C17.5182 28.6528 19.4182 29.8843 20.7916 28.6757C22.5981 27.0864 23.8866 24.051 26.8651 26.2706C28.8827 28.6263 31.8443 30.7603 33.7661 33.1269C34.0937 33.5293 34.3206 33.9535 34.3557 34.4812L34.3545 34.48ZM19.7324 23.2052C19.1452 23.2003 15.4484 23.4618 15.2361 23.7438L12.579 32.9786L13.33 33.7546C14.2679 32.8027 15.6243 31.0423 17.0523 32.4039C17.5109 32.8413 17.5036 33.6173 17.5534 33.6655C17.5728 33.6848 17.938 33.6582 18.1018 33.7077C18.5094 33.8306 18.9862 34.2631 19.1415 34.6584C19.2095 34.8319 19.2556 35.35 19.2823 35.3753C19.3029 35.3934 19.6705 35.3741 19.827 35.4211C20.1971 35.5332 20.6399 35.9067 20.7988 36.2598C20.8826 36.4465 20.9311 36.8912 21.0245 36.9828C21.2029 37.1587 21.9284 37.1406 22.3166 37.6395C23.4498 39.0951 21.8483 40.2542 20.9202 41.2098C21.7161 42.6666 23.9011 42.1292 23.6318 40.3916C23.5687 39.9855 23.0992 39.665 23.0992 39.3939C23.0992 39.0288 23.5517 38.7239 23.8696 38.983C24.5684 39.5361 25.5876 41.0857 26.4999 41.1544C27.7714 41.2495 28.4533 39.8928 27.6804 38.895C26.7486 37.6925 25.1302 36.5851 24.1414 35.3753C23.758 34.8729 24.2263 34.3354 24.7771 34.6536L29.1824 39.0264C30.6129 39.9024 32.0906 38.3564 31.0399 37.0008L26.7195 32.7232C26.4186 32.2087 26.8918 31.7375 27.4111 32.0364L31.0824 35.6959C32.4703 36.7574 34.1276 35.156 33.0394 33.7522L26.1833 26.9418C23.5857 24.9608 22.2996 29.7987 20.0515 30.0566C17.87 30.306 16.4748 28.3769 17.3556 26.3863C17.8603 25.2476 18.911 24.127 19.7336 23.2015L19.7324 23.2052ZM13.8566 35.5356C14.0447 35.7669 14.4632 35.785 14.7338 35.6922C14.9728 35.6103 16.4202 34.1764 16.5039 33.9342C16.7805 33.1353 16.0344 32.6003 15.3695 33.0775C15.213 33.1895 13.8299 34.5584 13.7862 34.6608C13.6904 34.8825 13.7025 35.3452 13.8566 35.5356ZM17.4381 34.5825C16.9698 34.6728 15.4739 36.5538 14.9667 36.9153C14.758 37.4443 15.0917 38.0335 15.6862 37.9937C16.1618 37.9612 17.7354 36.0176 18.2316 35.6501C18.4803 35.109 18.0035 34.474 17.4381 34.5825ZM19.1646 36.2983C18.9996 36.3248 18.7763 36.4911 18.6405 36.596C18.2474 36.8984 16.4857 38.6239 16.2406 38.9926C15.7214 39.7723 16.4602 40.5699 17.1858 40.1121C17.4272 39.9602 19.7142 37.6889 19.8646 37.4515C20.231 36.8755 19.8428 36.1875 19.1658 36.2983H19.1646ZM20.7964 38.0142C20.646 38.0467 20.5683 38.1371 20.4567 38.2203C20.2213 38.3938 18.7205 39.8795 18.6053 40.0783C18.1867 40.8013 18.9692 41.5363 19.6875 41.0628C19.8586 40.9495 21.5547 39.2493 21.6275 39.1119C21.9551 38.4878 21.4928 37.86 20.7964 38.013V38.0142Z" fill="url(#paint0_linear_6252_23491)"/>
<path d="M8.71847 30.2614C11.1547 29.7626 11.3706 33.1244 9.30689 33.2883C7.40572 33.4389 7.08057 30.5964 8.71847 30.2614ZM9.08366 31.1567C8.33872 31.2881 8.50857 32.4545 9.32873 32.3159C9.97904 32.2051 9.88683 31.0158 9.08366 31.1567Z" fill="url(#paint1_linear_6252_23491)"/>
<path d="M38.5754 22.3532C41.0662 22.3087 40.3152 26.2597 38.0137 25.297C36.4729 24.6523 36.9363 22.3834 38.5754 22.3532ZM38.5075 23.3088C37.799 23.4329 37.9409 24.5379 38.6579 24.468C39.455 24.3896 39.307 23.169 38.5075 23.3088Z" fill="url(#paint2_linear_6252_23491)"/>
<defs>
<linearGradient id="paint0_linear_6252_23491" x1="0" y1="0" x2="0" y2="1" gradientUnits="objectBoundingBox">
<stop stop-color="#ED3040"/>
<stop offset="1" stop-color="#2D23F4"/>
</linearGradient>
<linearGradient id="paint1_linear_6252_23491" x1="0" y1="0" x2="0" y2="1" gradientUnits="objectBoundingBox">
<stop stop-color="#ED3040"/>
<stop offset="1" stop-color="#2D23F4"/>
</linearGradient>
<linearGradient id="paint2_linear_6252_23491" x1="0" y1="0" x2="0" y2="1" gradientUnits="objectBoundingBox">
<stop stop-color="#ED3040"/>
<stop offset="1" stop-color="#2D23F4"/>
</linearGradient>
</defs>
</svg>
