<svg width="50" height="50" viewBox="0 0 50 50" fill="none" xmlns="http://www.w3.org/2000/svg">
<path d="M20.5572 45C20.0439 44.4312 19.9583 43.614 19.6568 42.8929C19.3491 42.1581 18.8034 41.1176 18.2547 40.5457C18.0346 40.3161 17.6652 39.932 17.3366 40.0155C15.9772 40.4653 14.6231 40.9527 13.2334 41.3055C12.091 41.5956 11.1709 41.9807 10.0681 41.3138C8.93201 40.6271 8.6691 39.166 8.76613 37.9303C8.79951 37.4982 9.06659 37.0526 8.86941 36.5809C8.79951 36.4128 8.03479 36.0643 7.83448 35.8921C7.05516 35.221 7.72703 34.312 7.66652 34.2264C7.63731 34.1847 7.1188 33.883 7.00404 33.7536C6.13917 32.7789 7.72494 31.7519 7.48394 30.9358C7.39109 30.6216 6.47927 30.2657 6.16421 30.0633C3.84814 28.5813 5.5299 27.3383 6.56482 25.8062C7.4443 24.5037 8.26431 23.1804 8.90905 21.7402C8.96956 21.3457 8.25597 20.9616 8.02227 20.7059C6.65767 19.2114 7.94298 17.8672 8.43124 16.3455C8.96226 14.6924 9.11145 13.3983 9.97528 11.7963C11.873 8.27603 14.5396 6.80239 18.3569 5.9633C18.8963 5.84432 20.6719 5.43103 21.0851 5.60741C21.5222 5.79422 21.5441 6.5467 21.1341 6.78882C20.6605 7.06852 18.6856 7.28456 17.9803 7.46198C14.6919 8.28751 12.428 9.80915 10.9382 12.9161C10.2507 14.3501 10.0848 15.8467 9.54858 17.3078C9.37644 17.7774 8.64302 19.0392 8.80681 19.4504C8.91427 19.7207 9.55275 20.1434 9.77914 20.4325C10.7129 21.6254 10.1589 22.4185 9.56006 23.5686C8.65137 25.3157 7.45891 26.8603 6.36347 28.478C7.12506 29.2284 8.70666 29.4882 8.84333 30.7416C8.93931 31.6183 8.6378 32.1934 8.24032 32.9302C8.2591 33.1796 9.41817 33.5251 9.29819 34.2379C9.26794 34.4195 8.85063 34.9027 8.92157 34.9987C9.87304 35.3233 10.3947 36.2208 10.3258 37.2258C10.2987 37.6214 10.088 38.0921 10.0869 38.4772C10.0859 39.381 10.5512 40.4048 11.5944 40.2942C12.741 40.1731 14.7962 39.4165 15.9668 39.0397C17.54 38.5346 21.9166 37.2102 22.9431 36.1749C23.4366 35.6771 23.3427 35.4913 23.4658 34.9006C23.6369 34.0772 24.9191 34.1053 24.8544 35.2711C24.7178 37.7247 20.9974 38.8153 19.0747 39.3758C20.1211 40.6626 20.914 42.0454 21.4137 43.636L36.4097 43.6714C36.1958 43.1423 35.8724 42.6591 35.6408 42.1373C34.6925 40.0061 34.0217 36.5798 34.1427 34.2546C34.2147 32.8801 34.897 29.841 35.7858 28.789C36.1291 28.383 36.6663 28.2609 36.947 28.7984C37.2276 29.3358 36.5891 30.1008 36.3732 30.6258C34.9773 34.0177 35.4989 39.0564 37.2297 42.2667C37.6481 43.0421 38.9897 44.3843 37.7388 44.999H20.5582L20.5572 45Z" fill="url(#paint0_linear_6252_23461)"/>
<path d="M17.5734 8.92413C18.1858 8.8636 18.5948 9.47205 18.2505 9.99805C18.0408 10.3184 17.2636 10.4259 16.889 10.5888C14.8025 11.4946 13.5433 13.1739 12.8662 15.3144C12.7264 15.758 12.5501 16.9133 12.3164 17.1867C11.8803 17.7002 11.0759 17.3193 11.1124 16.6137C11.1521 15.8404 11.8615 13.9253 12.2392 13.2031C13.1833 11.3986 15.4493 9.13599 17.5734 8.92518V8.92413Z" fill="url(#paint1_linear_6252_23461)"/>
<path d="M10.9309 18.2972C11.7603 18.1865 12.0013 19.5767 11.1406 19.6863C10.1996 19.8063 10.0233 18.4182 10.9309 18.2972Z" fill="url(#paint2_linear_6252_23461)"/>
<path d="M45 30.3127C43.4737 35.3588 36.4744 32.6213 38.7936 27.8894L33.4917 22.9758C32.3065 23.9454 30.6498 24.534 29.1131 24.3065L29.0275 24.3733L28.2315 27.9342C29.6535 28.7337 30.197 30.5768 29.1788 31.9471C28.0833 33.4217 25.882 33.4395 24.819 31.9471C23.518 30.1196 24.7595 27.8299 26.8909 27.6117L27.6681 24.0383C26.388 23.5144 25.2383 22.6513 24.5394 21.4417L21.5775 22.6659C22.4674 26.302 18.4811 29.2169 15.3001 27.0962C13.3388 25.7885 12.9037 22.9863 14.3894 21.1359C16.1368 18.9599 19.4555 19.1227 20.9974 21.4145L23.8831 20.1611C23.9572 20.0557 23.7026 19.249 23.6828 19.0246C23.4554 16.4739 24.6426 14.301 26.7991 13.0027C26.676 12.7982 26.3766 11.7576 26.2618 11.6783C26.1189 11.5792 25.7516 11.7232 25.5294 11.7149C21.2541 11.5573 21.4221 4.9927 25.5117 5.00001C29.0119 5.00627 30.2732 9.11199 27.5189 11.1325L28.0614 12.4955C30.1595 12.0415 32.3775 12.4746 33.8829 14.0589C34.1594 13.8178 36.0466 12.459 36.0894 12.292C36.1197 12.173 35.7764 11.4247 35.7274 11.1941C34.6935 6.26491 41.8827 4.36338 43.4414 9.02328C44.7517 12.9401 40.1436 15.9636 37.0106 13.3722L34.7718 15.0827C35.7284 16.7484 35.9913 18.6061 35.3184 20.4335C35.1171 20.9804 34.754 21.4605 34.5443 21.9781L39.6918 26.8415C39.8306 26.9114 40.4159 26.5305 40.6423 26.4627C42.6318 25.8615 44.5472 27.0878 45 29.0645V30.3148V30.3127ZM25.5409 6.34736C22.6667 6.55087 23.4418 11.0741 26.2754 10.2141C28.4683 9.54823 27.857 6.18351 25.5409 6.34736ZM39.6637 7.68741C36.3116 7.69158 36.1593 12.7157 39.4175 12.9683C43.095 13.2522 43.2682 7.68428 39.6637 7.68741ZM29.2883 13.6967C23.2019 14.1914 23.9551 23.5102 30.1229 22.9685C36.0915 22.4446 35.3946 13.201 29.2883 13.6967ZM17.3376 21.0388C14.0315 21.4302 14.478 26.4731 17.781 26.3301C21.3553 26.1746 20.9964 20.6068 17.3376 21.0388ZM41.6167 27.6869C39.0095 27.7485 39.1107 31.7665 41.7617 31.6444C44.3073 31.5275 44.2238 27.6253 41.6167 27.6869ZM26.6269 29.0812C25.3959 29.3348 25.3875 31.4211 26.7699 31.6361C28.7917 31.9502 28.8502 28.623 26.6269 29.0812Z" fill="url(#paint3_linear_6252_23461)"/>
<path d="M39.9839 15.6411C40.443 15.5743 40.6433 15.8331 40.7601 16.2349C41.24 17.8776 41.2181 21.0733 40.8227 22.7358C40.7163 23.1814 40.2469 24.7897 39.8452 24.9598C39.3695 25.1602 38.8249 24.8701 38.827 24.3368C38.827 24.0633 39.3747 22.861 39.4821 22.4091C39.7784 21.1536 39.7951 19.6873 39.6908 18.4005C39.6459 17.8557 39.3434 16.6607 39.3935 16.2328C39.43 15.9249 39.6856 15.6849 39.986 15.6411H39.9839Z" fill="url(#paint4_linear_6252_23461)"/>
<path d="M30.534 5.79736C30.8626 5.73578 31.8151 6.16159 32.1678 6.31605C32.8125 6.59784 33.7838 7.08731 34.343 7.49955C34.706 7.76777 34.9345 7.97754 34.682 8.46806C34.5016 8.82081 34.198 8.89178 33.8307 8.79263C33.4635 8.69349 32.4547 7.97128 31.9873 7.74689C31.5773 7.54964 30.1334 7.11444 30.0238 6.7429C29.8976 6.31709 30.0802 5.88293 30.535 5.79736H30.534Z" fill="url(#paint5_linear_6252_23461)"/>
<path d="M29.1308 15.0232C29.6462 14.9596 30.3034 14.9408 30.3535 15.6139C30.4213 16.5104 29.1037 16.2777 28.4516 16.7651C27.6869 17.338 27.8914 17.8964 27.6264 18.5956C27.3969 19.1989 26.4788 19.0966 26.3536 18.5382C26.0031 16.9863 27.6274 15.209 29.1308 15.0222V15.0232Z" fill="url(#paint6_linear_6252_23461)"/>
<defs>
<linearGradient id="paint0_linear_6252_23461" x1="37.6624" y1="33.6397" x2="37.6624" y2="41.6506" gradientUnits="userSpaceOnUse">
<stop stop-color="#ED3040"/>
<stop offset="1" stop-color="#2D23F4"/>
</linearGradient>
<linearGradient id="paint1_linear_6252_23461" x1="37.6624" y1="33.6397" x2="37.6624" y2="41.6506" gradientUnits="userSpaceOnUse">
<stop stop-color="#ED3040"/>
<stop offset="1" stop-color="#2D23F4"/>
</linearGradient>
<linearGradient id="paint2_linear_6252_23461" x1="37.6624" y1="33.6397" x2="37.6624" y2="41.6506" gradientUnits="userSpaceOnUse">
<stop stop-color="#ED3040"/>
<stop offset="1" stop-color="#2D23F4"/>
</linearGradient>
<linearGradient id="paint3_linear_6252_23461" x1="37.6624" y1="33.6397" x2="37.6624" y2="41.6506" gradientUnits="userSpaceOnUse">
<stop stop-color="#ED3040"/>
<stop offset="1" stop-color="#2D23F4"/>
</linearGradient>
<linearGradient id="paint4_linear_6252_23461" x1="37.6624" y1="33.6397" x2="37.6624" y2="41.6506" gradientUnits="userSpaceOnUse">
<stop stop-color="#ED3040"/>
<stop offset="1" stop-color="#2D23F4"/>
</linearGradient>
<linearGradient id="paint5_linear_6252_23461" x1="37.6624" y1="33.6397" x2="37.6624" y2="41.6506" gradientUnits="userSpaceOnUse">
<stop stop-color="#ED3040"/>
<stop offset="1" stop-color="#2D23F4"/>
</linearGradient>
<linearGradient id="paint6_linear_6252_23461" x1="37.6624" y1="33.6397" x2="37.6624" y2="41.6506" gradientUnits="userSpaceOnUse">
<stop stop-color="#ED3040"/>
<stop offset="1" stop-color="#2D23F4"/>
</linearGradient>
</defs>
</svg>
