<svg width="50" height="50" viewBox="0 0 50 50" fill="none" xmlns="http://www.w3.org/2000/svg">
<path d="M18.7178 36.6509C18.7651 37.0466 19.0235 37.6581 18.7888 38.0211C18.6231 38.2769 18.1387 38.2958 17.9127 38.1053C17.5639 37.8117 17.4036 35.5038 17.1969 34.9524C17.2066 34.7114 17.537 34.3862 17.7857 34.3767L20.7909 34.8187C21.8973 35.8374 20.4389 36.1468 19.5218 35.7838C24.4279 40.0807 31.8526 40.4785 37.3205 36.9182C44.1876 32.4466 45.9001 23.1498 41.0511 16.5839C35.2119 8.67517 23.1674 8.70464 17.2787 16.5355C17.0096 16.8923 16.6307 17.6679 16.3821 17.9215C15.9257 18.3877 15.2024 17.9404 15.366 17.3479C15.4155 17.168 15.8095 16.6102 15.9429 16.4103C19.8824 10.499 27.7506 7.99533 34.5499 10.4169C45.0347 14.1508 48.4532 27.0984 40.9952 35.3123C35.2732 41.614 25.1749 42.2539 18.7178 36.6509Z" fill="url(#paint0_linear_6252_23477)"/>
<path d="M27.3513 29.0221C25.3643 33.1843 20.75 34.8208 16.4327 32.937C16.2142 32.8413 15.6631 32.4298 15.4973 32.5108C15.4284 32.5445 14.4382 33.5127 14.4048 33.5821C14.2348 33.94 14.5221 34.2736 14.0044 34.9187C12.561 36.7172 10.178 38.3642 8.64738 40.1586C8.12105 40.5721 7.42572 40.6142 6.84556 40.2617C6.49036 40.0459 5.1546 38.6768 5.05773 38.3074C4.91565 37.7644 5.04051 37.315 5.38064 36.8856C6.80251 35.085 9.25983 33.4074 10.7807 31.61C11.1133 31.2301 11.7979 31.39 12.109 31.2543C12.1789 31.2237 13.1692 30.2619 13.2015 30.1934C9.47726 24.4137 14.3327 17.0238 21.2408 18.053C22.3742 16.5187 24.2191 15.9241 26.0736 16.4902C27.2974 14.5917 29.8635 13.9582 31.9053 14.9737C32.1497 15.0958 33.0194 15.7694 33.1012 15.7778C33.2981 15.7978 34.2356 15.4831 34.6264 15.4578C38.5561 15.2084 41.4139 19.0044 39.921 22.6046C39.7584 22.9961 39.0782 23.8612 39.033 24.0264C38.9791 24.2232 39.2267 24.8441 39.2525 25.1209C39.3537 26.1922 38.9307 27.2152 38.1353 27.9487C37.0622 28.939 35.4336 28.8685 35.8663 30.7954C36.0062 31.4163 37.1515 32.655 35.9201 32.7939C34.6888 32.9328 33.1184 32.7139 31.845 32.7571C31.4177 32.6213 31.5071 31.6973 31.4253 31.2774C31.266 30.4692 30.8656 29.6841 30.1961 29.1705C29.3899 28.5528 29.0971 28.9158 28.1822 29.0095C27.9077 29.0379 27.6236 28.9769 27.3502 29.0232L27.3513 29.0221ZM34.9116 31.6878C34.5736 30.6933 34.4229 29.8262 34.9772 28.8758C35.8545 27.372 38.3516 27.5583 38.0578 25.1062C38.004 24.6536 37.553 24.9515 37.1267 24.9136C36.5251 24.8599 35.6963 24.3274 36.3561 23.7665C36.7834 23.4034 37.187 23.9317 37.7607 23.6434C38.3667 23.3392 39.0114 21.9016 39.0986 21.2502C39.8273 15.8157 31.1982 14.7443 31.7686 20.3052C31.8332 20.9334 32.6728 21.9511 31.9086 22.2552C31.2154 22.5299 30.9344 21.6838 30.7784 21.1955C30.2413 19.5148 30.688 17.65 32.0087 16.4471C30.7999 15.3947 28.997 15.3758 27.7387 16.3671C27.5988 16.4776 27.1328 16.928 27.0736 17.0638C27.0144 17.1996 27.4061 17.6384 27.4998 17.8636C27.7355 18.4287 27.9906 19.6685 26.9767 19.479C26.4719 19.3843 26.5677 18.7213 26.4331 18.3551C25.9143 16.9449 23.2826 17.3195 22.5023 18.3772C26.5149 19.5959 28.8226 23.8549 27.8195 27.8308C27.9885 27.995 29.3791 27.5583 29.7052 27.5961C29.8699 27.6151 30.2617 27.8319 30.4221 27.9255C31.7697 28.7127 32.5404 30.1798 32.6534 31.691H34.9094L34.9116 31.6878ZM19.7489 19.1065C14.1121 19.2665 11.0627 25.7797 14.6104 30.0714C17.5951 33.6811 23.4086 33.3233 25.8723 29.3494C28.7096 24.7705 25.1889 18.9528 19.7489 19.1075V19.1065ZM13.9345 31.1416L13.0787 31.9636C13.2154 32.0551 13.5836 32.5298 13.6923 32.5487C13.8408 32.574 14.4403 31.8436 14.6061 31.7268L13.9334 31.1416H13.9345ZM11.6052 32.4898C11.489 32.514 11.3878 32.594 11.3028 32.6708L6.27617 37.6023C6.16961 37.7896 6.12871 37.9012 6.23742 38.0948C6.31384 38.2306 7.32885 39.2156 7.45908 39.2703C7.71741 39.3798 7.8907 39.3187 8.08445 39.1335C9.52784 37.5055 11.5299 36.0437 12.9184 34.4072C13.0378 34.2662 13.2596 34.0431 13.2424 33.8579C13.2337 33.7663 12.1272 32.6266 11.9938 32.5498C11.8431 32.4635 11.7774 32.4529 11.6052 32.4887V32.4898Z" fill="url(#paint1_linear_6252_23477)"/>
<path d="M30.3435 24.2264C30.435 24.1159 30.6858 24.0327 30.8343 24.0454C31.3488 24.0896 31.5275 25.0472 32.3639 24.5884C33.1173 24.1759 32.0808 23.2403 32.7718 22.8604C33.226 22.611 33.5435 22.8667 33.7179 23.2813C34.4477 25.0104 32.3003 26.649 30.7192 25.4261C30.3726 25.1577 30.0066 24.6326 30.3425 24.2264H30.3435Z" fill="url(#paint2_linear_6252_23477)"/>
<path d="M19.102 19.9716C25.2405 19.2949 28.5169 26.5658 23.8746 30.3881C20.2645 33.3601 14.6901 31.27 13.9732 26.7542C13.4759 23.6191 15.8148 20.3336 19.102 19.9716ZM24.7594 26.9605C25.4935 23.5539 22.5475 20.4999 19.0213 21.1534C18.7781 21.1986 18.1107 21.367 17.9557 21.5291C17.3949 22.1142 17.4305 23.9012 17.6888 24.62C18.2539 26.1954 19.9265 27.2699 21.6369 27.0973C22.4721 27.0131 23.0641 26.5143 23.9758 26.6658C24.261 26.7132 24.4817 26.9205 24.7594 26.9615V26.9605ZM16.3003 22.7857C14.6954 24.4095 14.7353 27.1299 16.1787 28.8527C18.3798 31.4784 22.6573 31.1038 24.2675 28.1013C23.5517 27.4172 22.7907 28.1244 21.9727 28.2128C19.9448 28.4328 18.0365 27.5646 16.9924 25.8513C16.7642 25.4777 16.3014 24.4084 16.3014 24.0064V22.7857H16.3003Z" fill="url(#paint3_linear_6252_23477)"/>
<defs>
<linearGradient id="paint0_linear_6252_23477" x1="37.6624" y1="31.6957" x2="37.6624" y2="37.9042" gradientUnits="userSpaceOnUse">
<stop stop-color="#ED3040"/>
<stop offset="1" stop-color="#2D23F4"/>
</linearGradient>
<linearGradient id="paint1_linear_6252_23477" x1="37.6624" y1="31.6957" x2="37.6624" y2="37.9042" gradientUnits="userSpaceOnUse">
<stop stop-color="#ED3040"/>
<stop offset="1" stop-color="#2D23F4"/>
</linearGradient>
<linearGradient id="paint2_linear_6252_23477" x1="37.6624" y1="31.6957" x2="37.6624" y2="37.9042" gradientUnits="userSpaceOnUse">
<stop stop-color="#ED3040"/>
<stop offset="1" stop-color="#2D23F4"/>
</linearGradient>
<linearGradient id="paint3_linear_6252_23477" x1="37.6624" y1="31.6957" x2="37.6624" y2="37.9042" gradientUnits="userSpaceOnUse">
<stop stop-color="#ED3040"/>
<stop offset="1" stop-color="#2D23F4"/>
</linearGradient>
</defs>
</svg>
