<svg width="50" height="50" viewBox="0 0 50 50" fill="none" xmlns="http://www.w3.org/2000/svg">
<path d="M39.5 44.2186L38.2408 44.6098L36.121 38.2914L37.2582 37.9044C38.0735 39.9576 38.751 42.1194 39.5 44.2186Z" fill="url(#paint0_linear_6252_23473)"/>
<path d="M13.5137 45C12.4965 44.7193 11.5981 44.1789 11.0395 43.2754C9.9538 41.5184 10.828 39.3264 10.9143 37.4244L12.2513 37.5851C12.1735 38.8173 11.6654 40.2998 11.7906 41.5153C11.9862 43.4215 14.0723 44.3813 15.6419 43.2451L19.5806 38.8736C20.1381 38.5272 20.9881 39.027 21.7834 38.3248C22.118 38.0296 22.4904 37.2732 22.4904 36.8391V31.3721C22.4904 31.1103 21.6909 31.5276 21.6877 31.7477C20.8156 33.6027 20.1087 35.5412 19.1471 37.3504L13.3938 41.1689L12.6479 40.1193L15.6251 38.0901C15.2211 37.4839 15.077 36.7682 14.9181 36.0712C14.2102 35.6946 13.377 35.4494 12.609 35.1594L12.3997 36.3206C12.2124 36.354 11.1741 36.2549 11.1457 36.1245C11.5707 33.4922 11.7958 30.8108 12.3734 28.2109C12.7111 27.4315 13.358 26.7878 14.146 26.4539L19.9751 24.4872C20.0108 24.3381 19.9856 22.8492 19.933 22.7418C19.8962 22.6677 18.9083 21.8435 18.7137 21.6077C18.3645 21.1841 17.9668 20.1783 17.7648 19.9717C17.6354 19.8403 17.0894 19.6608 16.8748 19.5262C15.7818 18.8397 15.3368 17.5867 15.5967 16.3337C15.6914 15.8746 16.1469 15.5835 16.19 15.3603C16.3467 14.5454 16.109 13.2538 16.2131 12.3378C16.3404 11.2183 17.0979 9.80666 17.9226 9.03565C18.1846 8.79047 19.3502 8.11439 19.3986 8.03927C19.5006 7.88173 19.6174 7.24426 19.8004 6.91457C21.3342 4.14977 25.3844 4.45651 26.6457 7.33712C26.7278 7.52387 26.7846 7.94851 26.8435 8.03927C26.9466 8.1989 28.0186 8.59954 28.1595 8.95844L27.3264 9.85361C26.4837 9.22449 25.5622 8.84472 24.4986 8.76438C22.2263 8.59224 19.5785 8.64127 18.2067 10.7227C17.8984 11.1901 17.4513 12.32 17.4513 12.8636V14.1521C17.6186 14.0624 17.5955 13.8704 17.8406 13.7963C18.3003 13.6576 19.0819 13.6847 19.6426 13.5522C20.3895 13.3759 21.4352 12.8949 21.9833 12.3586C22.2673 12.0801 22.5556 11.3998 22.8807 11.2965C23.6402 11.0555 23.8075 11.9027 24.2198 12.319C24.7721 12.8761 25.8346 13.3717 26.5994 13.5522C27.1591 13.6847 27.9418 13.6576 28.4015 13.7963C28.6477 13.8704 28.6235 14.0624 28.7907 14.1521V12.7853C28.7907 12.463 28.4899 11.5261 28.3321 11.2099C28.2174 10.9804 27.7777 10.5109 27.8808 10.3241C27.9102 10.2709 28.7697 9.60843 28.8276 9.62199C29.4598 10.4535 29.9627 11.4968 30.05 12.5516C30.1183 13.38 29.9101 14.6174 30.0531 15.3603C30.0963 15.5835 30.5518 15.8746 30.6464 16.3337C30.9063 17.5867 30.4613 18.8397 29.3683 19.5262C29.1537 19.6608 28.6077 19.8403 28.4783 19.9717C28.2763 20.1783 27.8787 21.1841 27.5294 21.6077C27.3348 21.8424 26.347 22.6677 26.3101 22.7418C26.2575 22.8492 26.2323 24.3381 26.2681 24.4872L32.0971 26.4539C33.1618 26.9151 33.6572 27.6662 34.0896 28.695L36.8279 36.6075L36.8153 36.715L35.6424 37.1135C35.4298 36.6127 35.3131 36.0692 35.11 35.5663C35.0627 35.4473 35.1563 35.3545 34.9323 35.3952C35.0417 35.7155 35.0953 36.0598 35.1458 36.3936C35.3815 37.9701 35.9064 40.4595 35.6992 41.9733C35.4919 43.4872 34.1622 44.6588 32.7273 45H31.3881C30.3361 44.9624 29.2 44.2332 28.7897 43.2817C28.9696 43.6072 29.0906 44.3479 28.7897 44.5701C29.0674 44.8143 28.6277 44.9457 28.3962 45H17.8448C17.4177 44.9218 17.2862 44.7788 17.4513 44.5701C17.142 44.4178 17.2757 43.5853 17.4513 43.2817C17.0305 44.2248 15.9081 44.9687 14.8529 45H13.5137ZM20.9944 7.51344H25.1288C25.1414 7.51344 25.2666 7.68037 25.3255 7.55309C24.3093 5.9182 21.9928 5.80865 20.9944 7.51344ZM27.5305 15.0118C25.8757 14.9273 24.3324 14.1959 23.15 13.0639C21.8876 14.1521 20.4232 14.9419 18.7127 15.0118C18.7684 17.1516 18.3245 19.2592 19.8909 20.9879C21.7172 23.0026 24.7185 22.94 26.4606 20.8607C27.9018 19.1413 27.4736 17.0891 27.5305 15.0118ZM17.4513 16.2607C16.4141 16.3358 16.7654 17.978 17.4513 18.291V16.2607ZM28.7907 18.291C28.9433 18.3264 28.9422 18.2346 29.0127 18.1595C29.4682 17.6723 29.7586 16.3243 28.7907 16.2607V18.291ZM25.0109 23.445C23.7349 23.8613 22.5093 23.8613 21.2311 23.445V25.2019C21.2311 25.4127 20.7946 25.6161 20.622 25.6912C18.7716 26.4863 16.1553 26.8754 14.43 27.7497C13.0509 28.4487 13.4096 30.7503 13.0445 32.0315C13.6105 32.0847 15.0644 32.8609 15.522 32.8203C15.8313 32.7931 16.149 31.4806 16.5109 31.2991L21.8234 28.2296C21.9254 28.238 22.5609 29.2761 22.4883 29.3783C20.7293 30.3111 18.9914 31.3304 17.3051 32.3998C16.514 33.8636 15.887 34.9956 16.4057 36.7056C16.453 36.8631 16.6013 37.3525 16.7802 37.3504C16.8654 37.3504 18.1046 36.522 18.1972 36.4072L20.6168 30.9965C21.168 30.2912 21.7561 29.9365 22.6829 30.0127C22.8312 30.0252 22.9732 30.1347 23.0953 30.141C23.2489 30.1494 23.4003 30.0262 23.5623 30.0127C24.851 29.9073 25.4643 30.6199 25.9714 31.6716C26.6205 33.0164 27.1517 34.4979 27.7703 35.8636C29.5903 35.0311 31.4081 34.0555 33.4395 33.8333C33.1996 32.1233 33.0155 30.3914 32.6663 28.7033C32.478 28.239 32.1592 27.9114 31.7058 27.7038C30.4865 27.1435 28.8949 26.89 27.6378 26.3548L25.6453 27.4294L25.0867 26.3037L25.8788 25.8279C25.8788 25.7444 25.0141 25.5306 25.0141 25.203V23.446L25.0109 23.445ZM23.7507 31.3721V36.8391C23.7507 37.2732 24.1231 38.0296 24.4576 38.3248C25.2529 39.027 26.1029 38.5272 26.6605 38.8736C27.8618 40.0609 28.8812 41.4923 30.0479 42.6984C31.9635 44.6797 34.4515 43.6291 34.4631 40.9738L33.672 35.0822C32.8798 35.2095 32.0877 35.3931 31.346 35.703C31.2671 36.5428 31.0494 37.3598 30.6201 38.0901L33.592 40.1193L32.8462 41.1689L27.0928 37.3504C26.0787 35.7123 25.5706 33.5349 24.6459 31.8886C24.546 31.7112 24.4271 31.5349 24.2503 31.4222C24.1515 31.3596 23.7959 31.1885 23.7496 31.3721H23.7507ZM15.0865 34.0712C15.0212 33.9825 13.0971 33.3826 12.9867 33.3753C12.7858 33.3617 12.7658 33.6445 12.8152 33.7832C12.8647 33.922 14.7056 34.5563 15.0107 34.6137C14.9697 34.4844 15.1359 34.1369 15.0875 34.0712H15.0865ZM29.8922 36.331C29.8501 36.2851 29.059 36.6993 28.9454 36.7619C28.8844 36.7953 28.7255 36.7818 28.7907 36.9153C28.8318 37.0008 29.4745 37.4119 29.5745 37.342C29.6681 36.9998 29.9279 36.7056 29.8932 36.33L29.8922 36.331ZM19.4112 43.7407C19.4406 43.7157 19.5953 43.1638 19.6679 43.0198C20.4874 41.3985 21.9044 40.1058 23.2773 38.9477L23.0816 38.7526C22.7113 39.3348 21.9444 39.8846 21.2501 39.9816C20.9597 40.0223 20.5105 39.942 20.2875 40.0421C20.1697 40.0953 18.8389 41.5925 18.679 41.8053C18.2992 42.3114 18.6348 42.4313 18.7043 42.9374C18.74 43.2003 18.6937 43.4851 18.7106 43.7511C18.8536 43.723 19.347 43.796 19.4112 43.7418V43.7407ZM27.5305 43.7501C27.5473 43.4841 27.501 43.1992 27.5368 42.9363C27.6115 42.3875 27.9607 42.3082 27.5273 41.7605C27.3527 41.5393 26.0787 40.0985 25.9535 40.0411C25.7284 39.9399 25.3307 40.0244 25.0583 39.9921C24.8458 39.967 24.4576 39.774 24.3534 39.7823C24.1188 39.8022 22.2463 41.6457 21.978 41.9514C21.5036 42.4919 21.0733 43.1022 20.7588 43.7491H27.5305V43.7501Z" fill="url(#paint1_linear_6252_23473)"/>
<path d="M24.0652 26.9599C24.062 27.2218 24.7416 27.9448 24.6122 28.1253L23.5224 28.6741L22.887 27.6245L24.0652 26.961V26.9599Z" fill="url(#paint2_linear_6252_23473)"/>
<defs>
<linearGradient id="paint0_linear_6252_23473" x1="34.1803" y1="33.6397" x2="34.1803" y2="41.6506" gradientUnits="userSpaceOnUse">
<stop stop-color="#ED3040"/>
<stop offset="1" stop-color="#2D23F4"/>
</linearGradient>
<linearGradient id="paint1_linear_6252_23473" x1="34.1803" y1="33.6397" x2="34.1803" y2="41.6506" gradientUnits="userSpaceOnUse">
<stop stop-color="#ED3040"/>
<stop offset="1" stop-color="#2D23F4"/>
</linearGradient>
<linearGradient id="paint2_linear_6252_23473" x1="34.1803" y1="33.6397" x2="34.1803" y2="41.6506" gradientUnits="userSpaceOnUse">
<stop stop-color="#ED3040"/>
<stop offset="1" stop-color="#2D23F4"/>
</linearGradient>
</defs>
</svg>
