<svg width="50" height="50" viewBox="0 0 50 50" fill="none" xmlns="http://www.w3.org/2000/svg">
<path d="M13.6063 17.7307C13.9942 17.7814 14.6367 17.6197 14.9644 17.8287C15.2922 18.0376 15.2603 18.57 14.8666 18.6845C14.5341 18.7812 12.4262 18.7447 11.9688 18.7069C11.6222 18.6786 11.3723 18.6372 11.3935 18.2147C11.4289 17.5182 12.6243 17.9432 12.7893 17.0484C12.998 15.9235 12.082 16.0462 11.8839 15.6083C11.7201 15.2448 12.1751 14.7655 11.4831 14.3335C10.7911 13.9014 10.56 14.5483 10.1214 14.5566C9.56499 14.566 9.53434 13.7787 8.59828 14.088C7.77069 14.3618 8.22811 15.1657 7.83199 15.4407C7.63275 15.5776 7.28497 15.5009 6.95723 15.7134C6.42319 16.0604 6.30529 16.6848 6.68255 17.1948C7.31091 18.0423 8.71735 17.3848 9.08282 17.7519C9.31035 17.9798 9.18892 18.5027 8.86472 18.5959C8.62776 18.6644 7.41347 18.6467 7.12582 18.6065C5.57319 18.3953 4.95897 16.3012 6.05654 15.1657C6.3218 14.8918 7.00793 14.6746 7.05391 14.618C7.11403 14.5448 7.10931 14.3051 7.18477 14.1753C7.6858 13.303 8.43559 12.8698 9.46243 13.087C10.2606 13.2558 9.78191 13.3478 10.7439 13.2322C11.7059 13.1165 12.5241 13.6429 12.8388 14.566C12.9049 14.7596 12.8624 15.0323 12.9438 15.168C12.9921 15.2507 13.1701 15.2896 13.2526 15.3899C13.8551 16.1218 13.9588 16.8312 13.6063 17.7307Z" fill="url(#paint0_linear_6252_23493)"/>
<path d="M43.1688 23.8275C43.4576 23.8641 44.1826 23.7366 44.3831 23.9373C44.6106 24.1651 44.4892 24.688 44.165 24.7813C43.941 24.8462 41.5761 24.8285 41.4063 24.7541C41.1387 24.6361 41.0326 24.1816 41.2189 23.9514C41.4181 23.7071 42.0535 23.9514 42.2928 23.3482C42.6453 22.4582 41.7069 22.4452 41.5336 22.0592C41.4205 21.8043 41.6857 21.554 41.4429 21.1834C41.0149 20.5283 40.4184 21.207 40.0376 21.1881C39.6226 21.1669 39.5448 20.5519 38.841 20.7761C38.3246 20.9402 38.426 21.3888 38.2928 21.7299C38.0664 22.3071 36.805 21.8515 37.0997 23.1488C37.3249 24.1379 39.2371 23.2302 39.375 24.0553C39.513 24.8804 38.2822 24.7695 37.7517 24.7045C36.021 24.4909 35.4221 22.5338 36.8227 21.4088C36.9854 21.279 37.3049 21.1857 37.3862 21.0889C37.4723 20.9851 37.5654 20.6487 37.7139 20.4456C38.1478 19.8531 38.8587 19.6347 39.5755 19.787C39.7653 19.8271 39.9244 20.0148 40.1284 20.0289C40.7508 20.0714 40.9571 19.6784 41.7694 20.1529C42.4933 20.5766 42.3353 21.0618 42.5994 21.6189C42.6701 21.7677 42.9448 21.9341 43.0662 22.123C43.4317 22.6919 43.4034 23.2208 43.1688 23.831V23.8275Z" fill="url(#paint1_linear_6252_23493)"/>
<path d="M39.0815 43.9912C40.0494 44.088 41.5112 43.8 42.4166 43.9758C42.9153 44.0726 42.9318 44.8446 42.3247 44.9402C41.8201 45.0193 39.7511 45.0205 39.2477 44.9402C38.6901 44.8517 38.604 44.2686 39.0827 43.9912H39.0815Z" fill="url(#paint2_linear_6252_23493)"/>
<path d="M35.5353 43.9735C36.1047 44.0963 35.9503 45.0724 35.2748 44.9497H7.11521C6.44441 44.9863 6.20155 44.2426 6.85585 43.9758H12.0171L13.6971 33.9518C13.2031 33.691 12.0501 33.9377 12.1928 33.0665C12.2918 32.4622 13.459 32.8753 13.8692 32.9296L15.4584 23.6516C14.9114 23.5383 13.9069 23.6776 13.9612 22.908C14.0213 22.0592 15.4879 22.8643 15.6435 22.6282L17.2185 13.6134C17.2126 13.2085 15.8887 13.4741 15.739 12.9866C15.6187 12.5983 15.8286 12.3221 16.2117 12.2571C17.1513 12.3469 18.296 12.7506 19.2132 12.786C19.3288 12.7907 19.4926 12.8084 19.5669 12.6998L20.6657 6.06827C19.8263 6.21936 18.8961 5.42259 20.0019 5L35.0696 7.59453C35.3714 7.63585 35.5365 7.97344 35.4268 8.24966C35.1875 8.85521 34.1737 8.35944 34.0793 8.45269L32.9323 15.168C33.056 15.2849 35.7746 15.5363 36.2886 15.7405C36.8804 15.9766 36.706 16.7026 35.8925 16.6707C35.6013 16.6589 35.0083 16.3732 34.8928 16.6447L33.3744 25.7716C33.794 25.8094 34.9046 25.8354 34.8751 26.4267C34.828 27.3604 33.2565 26.592 33.1091 26.7443L31.6083 36.0223C32.0999 36.0435 33.2293 36.0175 33.095 36.7518C32.9606 37.486 31.8429 36.8792 31.3431 36.9937L30.196 43.9747H35.5353V43.9735ZM33.1067 8.28153L21.6406 6.33858L20.4994 12.9111C20.5218 12.9819 20.5702 13.0126 20.6385 13.0338C21.1172 13.1861 21.9082 13.1767 22.4281 13.3124C22.5767 13.1838 22.7641 10.1902 23.2263 9.56109C23.9631 8.55893 25.9154 8.97325 26.117 10.1997C26.2148 10.7946 25.4721 13.8035 25.6077 13.9345L26.9316 14.1116C27.1674 13.0964 27.1532 11.5383 27.5317 10.6022C28.0787 9.24946 30.5237 9.6508 30.6169 11.1723C30.6735 12.1013 30.0946 13.6547 30.0203 14.6392L31.962 14.9945L33.1079 8.28271L33.1067 8.28153ZM24.6362 13.6665L25.1667 10.4429C25.1267 10.0356 24.3545 9.93174 24.055 10.1241C23.7108 11.1912 23.6566 12.3811 23.4019 13.4895L24.6374 13.6665H24.6362ZM27.9042 14.2827C28.1612 14.278 28.9629 14.5837 29.0973 14.3783C29.0807 13.8023 29.7681 11.4202 29.5712 11.0756C29.4085 10.7911 28.6552 10.6388 28.476 10.9304L27.9042 14.2827ZM33.9025 16.3177L18.1947 13.578L16.6055 22.856C16.8354 22.843 17.7372 23.1488 17.8516 22.9823C18.2288 21.4395 18.2949 19.6949 18.6768 18.171C18.968 17.0083 19.5964 16.6305 20.7883 16.7698C21.6642 16.8725 22.315 17.4132 22.434 18.3103L21.5463 23.7413L22.6934 23.9184L23.7084 18.4389C24.4111 16.9858 27.0966 17.4675 27.277 19.0232C27.3996 19.7197 26.2502 24.2997 26.4081 24.5298C26.4423 24.5806 27.4774 24.8037 27.5977 24.6302C27.9808 23.052 28.0268 21.2034 28.4571 19.6595C29.0301 17.6032 32.377 18.2571 32.1353 20.3382L31.2535 25.4199L32.2732 25.5745L33.9025 16.3189V16.3177ZM20.5761 23.5631L21.4296 18.4047C21.3978 17.7283 19.9866 17.4521 19.7367 18.0824L18.8336 23.1688C18.8655 23.3376 20.3108 23.4533 20.5761 23.5631ZM25.4273 24.3551L26.3115 19.1968C26.2466 18.5109 24.7176 18.269 24.5714 19.0362L23.6648 24.0919L25.4261 24.3551H25.4273ZM30.2832 25.2428L31.1757 20.0726C31.1356 19.3797 29.5806 19.0716 29.4238 19.9192L28.6068 24.9784L30.2832 25.244V25.2428ZM27.1379 29.072C27.6543 28.5881 28.3145 28.5715 28.964 28.7285C29.9567 28.9682 30.4318 29.5324 30.3717 30.5865C30.2856 32.075 29.5653 33.9625 29.5264 35.4037C29.524 35.4828 29.4568 35.5584 29.5747 35.628C29.6761 35.687 30.5839 35.8653 30.6204 35.6079L32.054 26.52L16.431 23.8298L14.8418 33.1067L16.0738 33.2825L17.044 27.9341C17.6618 26.3122 20.4417 26.808 20.6609 28.4783L19.8204 33.907L21.0193 34.0793C21.0641 33.3911 21.1926 32.7077 21.3117 32.0301C21.4661 31.1531 21.6571 29.2656 22.1275 28.6058C22.7441 27.7405 23.936 27.5894 24.7671 28.2493C25.4403 28.784 25.4933 29.4993 25.4202 30.3126C25.2917 31.7516 24.7801 33.3262 24.6362 34.7852L25.8717 34.9623C26.1134 33.1362 26.3987 31.2959 26.8255 29.51C26.9328 29.3896 27.0306 29.1724 27.1379 29.072ZM18.8041 33.7158L19.6931 28.5645C19.6329 27.9188 18.085 27.665 17.953 28.4039L17.0464 33.4596L18.8041 33.7169V33.7158ZM23.6648 34.6081L24.4665 29.7024C24.4111 28.5609 22.9292 28.5586 22.7358 29.6563L21.986 34.293L23.666 34.6081H23.6648ZM28.509 35.3931L29.4002 30.243C29.3413 29.5914 27.8983 29.4025 27.6767 30.0093C27.4338 31.7173 27.0259 33.4183 26.8538 35.1263L28.509 35.3931ZM19.2533 43.9735C19.6789 42.6939 19.5115 40.0321 20.5855 39.1657C21.4331 38.4811 22.6533 38.6676 23.2628 39.5611C24.0256 40.6778 23.1343 42.7057 23.0482 43.9735H24.2837C24.5466 42.9666 24.5113 41.5383 24.9416 40.6117C25.5263 39.351 27.31 39.2342 28.1164 40.3567C28.8485 41.3731 28.1412 42.8391 28.0775 43.9735C28.3156 43.9357 29.0678 44.0656 29.1857 43.8909L30.3681 36.7317L14.797 34.0734L12.9886 43.9723C13.2526 43.9275 14.1415 44.0726 14.2712 43.8885C14.5553 42.5712 14.6744 41.209 14.9574 39.8928C15.1531 38.9827 15.324 38.2922 16.3214 37.99C17.8327 37.532 18.8466 38.7337 18.7122 40.208C18.6037 41.4073 18.1958 42.7671 18.0166 43.9735H19.2533ZM17.0476 43.9735L17.7573 39.7795C17.7254 38.7585 16.3202 38.5873 16.0313 39.554L15.2827 43.9735H17.0476ZM22.0768 43.9735C22.0438 42.9725 22.6392 41.6009 22.6097 40.6636C22.5779 39.6532 21.2339 39.351 20.8838 40.4382L20.312 43.9735H22.0768ZM27.1072 43.9735C27.0271 43.1755 27.7108 41.7059 27.3607 41.0248C27.0672 40.4523 26.1181 40.4535 25.8258 41.0555C25.478 41.772 25.577 43.1814 25.254 43.9735H27.1072Z" fill="url(#paint3_linear_6252_23493)"/>
<defs>
<linearGradient id="paint0_linear_6252_23493" x1="37.3459" y1="33.6397" x2="37.3459" y2="41.6506" gradientUnits="userSpaceOnUse">
<stop stop-color="#ED3040"/>
<stop offset="1" stop-color="#2D23F4"/>
</linearGradient>
<linearGradient id="paint1_linear_6252_23493" x1="37.3459" y1="33.6397" x2="37.3459" y2="41.6506" gradientUnits="userSpaceOnUse">
<stop stop-color="#ED3040"/>
<stop offset="1" stop-color="#2D23F4"/>
</linearGradient>
<linearGradient id="paint2_linear_6252_23493" x1="37.3459" y1="33.6397" x2="37.3459" y2="41.6506" gradientUnits="userSpaceOnUse">
<stop stop-color="#ED3040"/>
<stop offset="1" stop-color="#2D23F4"/>
</linearGradient>
<linearGradient id="paint3_linear_6252_23493" x1="37.3459" y1="33.6397" x2="37.3459" y2="41.6506" gradientUnits="userSpaceOnUse">
<stop stop-color="#ED3040"/>
<stop offset="1" stop-color="#2D23F4"/>
</linearGradient>
</defs>
</svg>
