<svg width="50" height="50" viewBox="0 0 50 50" fill="none" xmlns="http://www.w3.org/2000/svg">
<path d="M17.3706 19.0586C17.2859 19.5324 16.7336 19.8536 16.2971 19.571L13.5443 16.6993L6.97593 16.6853C6.01615 16.5886 5.24296 15.8226 5.08853 14.8772C5.29765 12.3567 4.80971 9.38075 5.08853 6.91509C5.19363 5.9933 6.06012 5.18538 6.97272 5.10158C10.517 4.7782 14.5427 5.35298 18.1373 5.10158C18.6231 5.09621 18.9749 5.46041 19.4145 5.59149C22.9738 5.33149 26.9963 5.92346 30.5009 5.59256C30.9352 5.55173 31.2859 5.1048 31.7791 5.1048C35.406 5.31752 39.3513 4.82332 42.9405 5.10158C43.8596 5.17249 44.7732 5.8966 44.8966 6.84096C45.2161 9.28083 44.6714 12.3675 44.9041 14.8761C44.7454 15.8269 43.9765 16.5875 43.0167 16.6842H36.4515L33.6955 19.57C33.3212 19.8837 32.622 19.4647 32.622 19.0575V16.6853C31.8896 16.4812 31.5561 16.9582 31.0017 17.1129C29.8875 17.4245 28.5502 17.1247 27.4027 17.2869L25.5454 20.8141C25.303 21.1998 24.7572 21.218 24.4773 20.8635L22.5888 17.2869C21.4403 17.1247 20.1052 17.4234 18.9899 17.1129C18.6821 17.0269 18.3872 16.7197 18.2113 16.6864C17.9625 16.6391 17.6322 16.7154 17.3706 16.6842C17.2816 17.3933 17.4896 18.386 17.3706 19.0564V19.0586ZM7.05636 6.39188C6.81615 6.39188 6.33357 6.94088 6.37218 7.23418C6.52982 9.54512 6.1695 12.1171 6.37111 14.3969C6.4376 15.1522 6.72714 15.3391 7.45529 15.4014C9.55717 15.5819 11.896 15.2467 14.0237 15.4154C14.8247 15.8817 15.2816 16.7648 16.0076 17.3288V15.8409C16.0076 15.3112 17.1829 15.3757 17.5325 15.3982V7.23633C17.5325 7.10848 17.9711 6.41982 17.9336 6.39188H7.05636ZM33.9872 17.3288C34.7132 16.7648 35.17 15.8828 35.9711 15.4154C38.0987 15.2467 40.4376 15.5819 42.5395 15.4014C43.2676 15.3391 43.5572 15.1522 43.6236 14.3969C43.8253 12.1171 43.4649 9.54512 43.6226 7.23418C43.6612 6.94088 43.1786 6.39188 42.9384 6.39188H32.0612C32.1169 6.57989 32.4623 7.08807 32.4623 7.23633V15.3993C32.8119 15.3767 33.9872 15.3123 33.9872 15.8419V17.3299V17.3288ZM25.0757 18.9372C25.3384 18.429 26.2789 16.1825 26.651 15.9709C27.1282 15.699 29.6269 15.9848 30.4076 15.8742C30.8901 15.8054 31.1786 15.4455 31.1808 14.9599C31.0231 12.6737 31.3791 10.1328 31.1808 7.87664C31.1336 7.33517 30.9952 7.00319 30.4183 6.95162C26.9749 6.63898 23.066 7.19658 19.5743 6.95162C19.021 6.93766 18.8548 7.39963 18.8119 7.87664C18.6135 10.1328 18.9695 12.6726 18.8119 14.9599C18.7936 15.3617 19.0993 15.8129 19.5014 15.8774C20.3035 16.0052 22.8376 15.6851 23.3405 15.9719C23.7052 16.1793 24.5695 18.3301 24.8955 18.8351C24.9459 18.9124 24.8869 18.9791 25.0746 18.9382L25.0757 18.9372Z" fill="url(#paint0_linear_6252_23457)"/>
<path d="M21.2022 8.09904L28.651 8.07862C29.5754 8.17424 29.6097 9.33455 28.651 9.4495C26.4076 9.71809 23.6419 9.24323 21.3427 9.4495C20.4987 9.41512 20.3786 8.26556 21.2022 8.09904Z" fill="url(#paint1_linear_6252_23457)"/>
<path d="M21.1207 10.7516L28.8054 10.7387C29.6783 10.9955 29.4285 12.0677 28.5695 12.101C26.3078 11.913 23.6376 12.3535 21.4253 12.101C20.5598 12.0022 20.3314 11.1191 21.1218 10.7516H21.1207Z" fill="url(#paint2_linear_6252_23457)"/>
<path d="M21.1207 13.4064L28.8054 13.3935C29.5153 13.5052 29.5271 14.5849 28.814 14.6795L21.1057 14.673C20.4794 14.4539 20.503 13.6116 21.1207 13.4053V13.4064Z" fill="url(#paint3_linear_6252_23457)"/>
<path d="M8.67888 7.61558L16.3636 7.60268C17.0735 7.71442 17.0853 8.79415 16.3722 8.88869L8.66387 8.88224C8.0376 8.66307 8.06119 7.82078 8.67888 7.6145V7.61558Z" fill="url(#paint4_linear_6252_23457)"/>
<path d="M33.8081 12.8466C36.0816 12.9745 38.695 12.6017 40.9298 12.8262C42.0741 12.9412 42.0172 14.0961 41.1732 14.1939L33.6312 14.1874C32.8076 13.9629 32.962 12.9057 33.8081 12.8466Z" fill="url(#paint5_linear_6252_23457)"/>
<path d="M33.5636 7.61558L41.2483 7.60268C41.9582 7.71442 41.97 8.79415 41.2569 8.88869L33.5486 8.88224C32.9223 8.66307 32.9459 7.82078 33.5636 7.6145V7.61558Z" fill="url(#paint6_linear_6252_23457)"/>
<path d="M33.4821 10.2692L41.451 10.295C42.0054 10.6313 41.8446 11.4919 41.1732 11.5413C38.8151 11.3361 36.0086 11.8088 33.7041 11.5413C32.9888 11.4586 32.8687 10.5905 33.4821 10.2692Z" fill="url(#paint7_linear_6252_23457)"/>
<path d="M8.92339 12.8466C11.1968 12.9745 13.8102 12.6017 16.0451 12.8262C17.1893 12.9412 17.1325 14.0961 16.2885 14.1939L8.74644 14.1874C7.92285 13.9629 8.07727 12.9057 8.92339 12.8466Z" fill="url(#paint8_linear_6252_23457)"/>
<path d="M8.59738 10.2692L16.5663 10.295C17.1207 10.6313 16.9598 11.4919 16.2885 11.5413C13.9304 11.3361 11.1239 11.8088 8.81936 11.5413C8.10408 11.4586 7.98398 10.5905 8.59738 10.2692Z" fill="url(#paint9_linear_6252_23457)"/>
<path d="M5.53143 35.9066C4.62955 35.7133 5.39416 33.5001 5.61293 32.9328C6.47406 30.7003 8.48478 28.6955 10.7893 28.0252C10.9148 27.8855 10.3518 27.561 10.2649 27.4665C7.09068 24.006 10.0494 18.6471 14.6435 19.6215C17.9271 20.3177 19.3641 24.3627 17.2901 27.0196C17.169 27.1753 16.3239 27.9317 16.4086 28.0262C18.0773 28.5075 19.5475 29.699 20.5534 31.0892L22.1888 30.3984C22.1867 30.3028 21.4167 29.5797 21.2708 29.3874C18.785 26.0902 21.5089 21.4726 25.5765 21.9368C29.1089 22.3396 30.8976 26.6134 28.6875 29.4326C28.4708 29.7087 28.0333 30.0224 27.8853 30.2373C27.8381 30.306 27.7738 30.3168 27.806 30.4392C28.4076 30.4897 28.8644 30.9496 29.4403 31.0903C30.4462 29.699 31.9164 28.5086 33.585 28.0273C33.6172 27.9059 33.5529 27.8941 33.5057 27.8253C33.3588 27.6115 32.9191 27.2967 32.7035 27.0206C30.6253 24.368 32.0708 20.3177 35.3502 19.6226C39.9443 18.6482 42.8998 24.0113 39.7287 27.4676C39.6419 27.5621 39.0789 27.8866 39.2043 28.0262C41.9754 28.8374 44.2789 31.5254 44.7979 34.3649C44.8741 34.7796 45.0467 35.3566 44.7443 35.709C44.7046 35.7552 44.4923 35.9088 44.4612 35.9088H33.1829L33.4724 36.9595L39.407 36.952C41.2601 37.1916 39.7416 38.4615 39.4049 39.3682C38.9427 40.6177 39.0306 41.9703 39.643 43.1489C39.955 43.7494 40.8547 44.4156 39.9293 44.9613L13.2312 45C10.414 44.6358 8.75931 41.5825 10.1824 39.0448C11.5657 36.576 14.1202 36.9724 16.5577 36.9477L16.8065 35.9099H5.53143V35.9066ZM12.9363 20.8882C9.44135 21.362 9.4317 26.9658 12.9363 27.4407C18.1974 28.1541 18.1985 20.1748 12.9363 20.8882ZM35.7341 20.8882C34.8515 21.016 33.8875 21.7874 33.4703 22.561C31.8982 25.4778 35.096 28.6805 37.9947 27.0937C41.2054 25.336 39.6976 20.3166 35.7341 20.8882ZM24.3357 23.3012C23.3448 23.4355 22.2628 24.3702 21.9078 25.292C20.8172 28.1251 23.644 30.8776 26.3915 29.6238C29.7459 28.0918 28.5084 22.7361 24.3357 23.3012ZM6.53411 34.539H17.3309C17.7202 34.0362 18.0054 33.4614 18.4172 32.9736C18.6274 32.7244 19.3245 32.1604 19.422 31.9637C19.5089 31.7886 18.9212 31.1429 18.7786 30.9979C14.755 26.9229 7.66869 28.933 6.53411 34.539ZM43.4596 34.539C42.3293 28.9265 35.1582 26.8863 31.1765 31.0387C31.0381 31.1827 30.4869 31.7908 30.5727 31.9637C30.6703 32.1604 31.3674 32.7244 31.5775 32.9736C31.9893 33.4625 32.2746 34.0362 32.6639 34.539H43.4606H43.4596ZM32.0612 36.952C31.0682 32.2162 25.7255 29.8 21.4639 32.1657C19.6665 33.1627 18.3293 34.9247 17.9336 36.952H32.0612ZM38.4022 38.3186H13.317C12.7336 38.3186 11.807 38.9825 11.4757 39.4499C10.3239 41.0743 11.4918 43.7076 13.4778 43.7076H38.4022C38.1523 43.0619 37.8682 42.4054 37.8392 41.6974L16.043 41.6996C15.0531 41.7264 14.8655 40.4404 15.8832 40.3276H37.8392C37.8489 39.6164 38.1566 38.9686 38.4022 38.3196V38.3186Z" fill="url(#paint10_linear_6252_23457)"/>
<defs>
<linearGradient id="paint0_linear_6252_23457" x1="37.6624" y1="33.6397" x2="37.6624" y2="41.6506" gradientUnits="userSpaceOnUse">
<stop stop-color="#ED3040"/>
<stop offset="1" stop-color="#2D23F4"/>
</linearGradient>
<linearGradient id="paint1_linear_6252_23457" x1="37.6624" y1="33.6397" x2="37.6624" y2="41.6506" gradientUnits="userSpaceOnUse">
<stop stop-color="#ED3040"/>
<stop offset="1" stop-color="#2D23F4"/>
</linearGradient>
<linearGradient id="paint2_linear_6252_23457" x1="37.6624" y1="33.6397" x2="37.6624" y2="41.6506" gradientUnits="userSpaceOnUse">
<stop stop-color="#ED3040"/>
<stop offset="1" stop-color="#2D23F4"/>
</linearGradient>
<linearGradient id="paint3_linear_6252_23457" x1="37.6624" y1="33.6397" x2="37.6624" y2="41.6506" gradientUnits="userSpaceOnUse">
<stop stop-color="#ED3040"/>
<stop offset="1" stop-color="#2D23F4"/>
</linearGradient>
<linearGradient id="paint4_linear_6252_23457" x1="37.6624" y1="33.6397" x2="37.6624" y2="41.6506" gradientUnits="userSpaceOnUse">
<stop stop-color="#ED3040"/>
<stop offset="1" stop-color="#2D23F4"/>
</linearGradient>
<linearGradient id="paint5_linear_6252_23457" x1="37.6624" y1="33.6397" x2="37.6624" y2="41.6506" gradientUnits="userSpaceOnUse">
<stop stop-color="#ED3040"/>
<stop offset="1" stop-color="#2D23F4"/>
</linearGradient>
<linearGradient id="paint6_linear_6252_23457" x1="37.6624" y1="33.6397" x2="37.6624" y2="41.6506" gradientUnits="userSpaceOnUse">
<stop stop-color="#ED3040"/>
<stop offset="1" stop-color="#2D23F4"/>
</linearGradient>
<linearGradient id="paint7_linear_6252_23457" x1="37.6624" y1="33.6397" x2="37.6624" y2="41.6506" gradientUnits="userSpaceOnUse">
<stop stop-color="#ED3040"/>
<stop offset="1" stop-color="#2D23F4"/>
</linearGradient>
<linearGradient id="paint8_linear_6252_23457" x1="37.6624" y1="33.6397" x2="37.6624" y2="41.6506" gradientUnits="userSpaceOnUse">
<stop stop-color="#ED3040"/>
<stop offset="1" stop-color="#2D23F4"/>
</linearGradient>
<linearGradient id="paint9_linear_6252_23457" x1="37.6624" y1="33.6397" x2="37.6624" y2="41.6506" gradientUnits="userSpaceOnUse">
<stop stop-color="#ED3040"/>
<stop offset="1" stop-color="#2D23F4"/>
</linearGradient>
<linearGradient id="paint10_linear_6252_23457" x1="37.6624" y1="33.6397" x2="37.6624" y2="41.6506" gradientUnits="userSpaceOnUse">
<stop stop-color="#ED3040"/>
<stop offset="1" stop-color="#2D23F4"/>
</linearGradient>
</defs>
</svg>
