<svg width="50" height="50" viewBox="0 0 50 50" fill="none" xmlns="http://www.w3.org/2000/svg">
<path d="M5 31.9701C5.30357 31.3072 5.60713 30.7455 6.29876 30.4193C6.40308 30.3703 6.92676 30.1754 6.99144 30.1754H8.27977L8.27664 10.7077C8.36113 9.7259 8.8942 9.05158 9.88001 8.87648L14.5556 8.8671C14.7725 8.45438 14.8779 8.07814 15.1888 7.70606C15.678 7.12033 16.3822 7.06405 16.6169 6.83164C16.6795 6.7691 16.8902 6.15523 17.0707 5.91969C17.3868 5.50905 18.0262 5.11301 18.5478 5.05464C19.3782 4.96084 22.3513 4.96918 23.0596 5.2287C23.5405 5.40483 23.939 5.7644 24.1935 6.20213C24.2864 6.36159 24.4053 6.7764 24.4606 6.83268C24.5106 6.88271 25.1094 7.09219 25.2951 7.20788C25.9356 7.60393 26.2413 8.1438 26.4697 8.84313L31.3967 8.91296C32.1144 9.05262 32.7977 9.92705 32.7977 10.6337V19.1757L39.8256 11.1016C42.8008 8.39081 46.7889 12.3064 44.1235 15.3174L35.4912 22.7641C35.462 24.3775 34.1444 25.5886 32.8102 26.2868L32.7977 30.1754H34.086C35.2867 30.1754 36.1849 31.7502 36.0764 32.8664C35.9971 33.6877 35.0291 34.9342 34.1643 34.9342H30.9241L33.795 44.1975C33.8492 44.5602 33.819 44.7874 33.5008 44.9979H28.6594C28.4236 44.95 28.2932 44.8812 28.2108 44.6467C27.272 41.9108 26.3738 38.8769 25.5382 35.9952C25.4892 35.8253 25.461 35.6492 25.4349 35.472C25.4088 35.2948 25.3921 35.1145 25.3796 34.9342C25.3629 34.9946 25.3368 35.0864 25.2899 35.0905C25.0886 35.1082 23.5374 35.1426 23.4622 35.0905C23.4059 35.0509 23.3652 35.004 23.3496 34.9342L23.5061 34.9884V41.3533L23.3496 41.4481C23.5926 41.6294 23.1451 42.0151 22.9302 42.0286C21.4228 42.0526 19.9175 42.0536 18.4153 42.0328C18.0742 42.0015 17.4744 41.6909 17.8051 41.371L17.6486 41.2991V35.029L17.8051 34.9352C17.7978 34.9957 17.7779 35.0874 17.7352 35.0916C17.2052 35.1333 16.3415 35.1322 15.8105 35.0916L15.6968 34.9352C15.7552 34.9519 15.8408 34.9967 15.8303 35.0332C14.88 38.3068 13.8118 41.6586 12.7477 44.8812L12.417 45H7.57666C7.09054 44.951 7.06342 44.5862 7.13018 44.1683L9.96033 35.0311C9.97598 34.9759 10.0407 34.9436 10.1533 34.9363L10.0605 35.0864C9.01625 35.0937 7.97203 35.0957 6.9278 35.0926L6.83496 34.9363C6.71917 35.1937 6.11099 34.7945 5.90235 34.6476C5.34216 34.2526 5.05946 33.8346 5 33.1416V31.9701ZM25.2242 8.87752C25.2012 8.61488 24.8403 8.23343 24.6264 8.10941C24.2488 7.8895 23.7564 8.0302 23.504 7.7488C23.286 7.50491 23.3944 7.17557 23.2369 6.84519C23.0064 6.36264 22.5662 6.18754 22.0644 6.14481C21.2684 6.07707 19.8935 6.0854 19.0913 6.14481C18.5426 6.18546 18.0408 6.34283 17.8134 6.89626C17.6695 7.2454 17.779 7.76756 17.3419 7.90721C17.1771 7.96037 16.9956 7.91868 16.8495 7.96141C16.3269 8.1167 15.992 8.36892 15.7761 8.87857H25.2242V8.87752ZM31.6272 26.8215C31.0493 26.9518 28.7293 27.0914 28.4664 26.5088C28.2035 25.9262 28.8305 25.5896 29.0662 25.1612C29.7579 23.9064 28.9463 22.5453 29.8444 21.1028C30.2899 20.3879 30.9001 20.1263 31.6158 19.7521L31.6283 10.6326C31.598 10.2001 31.2277 9.96561 30.8094 9.96873H10.2681C10.0188 9.90099 9.45126 10.2533 9.45126 10.4784V30.1775H31.6272V26.8215ZM41.9193 11.3142C41.3904 11.3434 40.8719 11.6436 40.5266 12.0365L36.1849 17.0684C36.1369 17.159 36.1807 17.1976 36.2266 17.2664C36.3309 17.4227 37.8853 18.9798 38.0063 19.0121C38.096 19.0361 38.1649 19.0121 38.2285 18.9475L43.4955 14.3013C44.4344 13.0631 43.4768 11.2309 41.9182 11.3153L41.9193 11.3142ZM33.6583 20.0335C34.4313 20.2336 34.8413 20.8965 35.2586 21.5155L37.1707 19.8396L35.3368 18.0074L33.6583 20.0335ZM31.9193 20.9111C31.114 21.0476 30.4693 22.0075 30.4735 22.7954C30.7979 23.1185 31.2517 23.2977 31.5793 23.6313C32.0122 24.0711 32.2417 24.6464 32.5244 25.1821C33.1138 24.7027 33.9901 24.1242 34.2269 23.3738C34.7078 21.8491 33.4476 20.6526 31.9183 20.9121L31.9193 20.9111ZM31.3915 25.648C31.3331 25.0872 30.9815 24.5682 30.535 24.2472C30.4912 24.8006 30.2607 25.2988 30.0656 25.8074C30.5142 25.8377 30.9575 25.7543 31.3904 25.648H31.3915ZM7.00917 31.3646C5.56749 31.9065 5.94512 33.8013 7.4567 33.8461H33.6208C35.1897 33.7909 35.4776 31.7325 33.9316 31.3448L7.00813 31.3646H7.00917ZM14.5263 34.9352H11.3248L8.59168 43.9067H11.6764L14.5263 34.9352ZM22.1791 34.9352H18.9776V40.7863H22.1791V34.9352ZM29.7537 34.9352H26.5522L29.2853 43.9067H32.4868L29.7537 34.9352Z" fill="url(#paint0_linear_6252_23449)"/>
<path d="M14.4679 17.0121C14.6922 16.8057 15.4882 16.8922 15.7938 16.935C16.5543 17.0413 17.2918 17.3362 17.9615 17.6937C18.1013 16.8339 19.6452 14.8391 20.5027 14.8015C20.9784 14.7807 21.9152 15.6833 22.2198 16.0543C22.6246 16.5483 22.8603 17.133 23.1556 17.6916C23.7491 17.2518 25.8689 16.6254 26.4687 16.9579C27.0268 17.2674 26.6826 18.5984 26.5469 19.1309C26.3341 19.9647 25.895 20.8548 25.3045 21.477C25.7499 21.8136 26.6867 22.563 26.7733 23.1341C26.8442 23.6 25.7656 24.5912 25.3744 24.8257C23.7846 25.7762 21.8401 25.4989 20.5674 24.1743C19.2269 25.3874 17.4984 25.8126 15.8522 24.9111C15.3066 24.612 14.0934 23.6333 14.3511 22.9434C14.398 22.8173 14.7329 22.3785 14.8403 22.2597C15.122 21.9481 15.484 21.7865 15.702 21.478C15.2232 20.7975 14.7757 20.0835 14.5483 19.2706C14.4147 18.7953 14.0955 17.3529 14.4679 17.0121ZM20.5132 16.0689C20.3577 16.0814 19.954 16.5035 19.8351 16.639C18.5593 18.0814 18.4894 20.2586 19.7193 21.7521C20.4047 22.5849 20.5705 22.6808 21.283 21.8303C22.3753 20.5254 22.4712 18.6619 21.6179 17.2028C21.4698 16.9496 20.8094 16.0459 20.5142 16.0699L20.5132 16.0689ZM18.5864 22.218C18.6229 22.1784 18.1587 21.3894 18.1045 21.2571C17.779 20.4598 17.7143 19.7187 17.6882 18.8641C17.4504 18.5681 15.6561 17.9209 15.4631 18.0845C15.7031 19.8959 16.8839 21.5406 18.5854 22.219L18.5864 22.218ZM25.6143 18.0845C24.8299 18.1002 24.0287 18.4097 23.3892 18.8641C23.3725 20.0721 23.1587 21.2404 22.4128 22.217C24.1706 21.6062 25.3525 19.8897 25.6143 18.0835V18.0845ZM19.3678 23.624C18.6761 23.5437 17.9981 23.2415 17.392 22.9059C17.224 22.8131 16.693 22.3785 16.5981 22.3754C16.3112 22.367 15.751 22.9913 15.5434 23.1935C16.4416 24.3316 18.2714 24.6735 19.3678 23.6229V23.624ZM21.7107 23.624C22.5797 24.5286 24.2457 24.3983 25.147 23.5844C25.5997 23.1748 25.5006 23.0539 25.0291 22.686C24.3124 22.1273 24.3239 22.5453 23.6865 22.9048C23.0867 23.2425 22.3909 23.527 21.7107 23.6229V23.624Z" fill="url(#paint1_linear_6252_23449)"/>
<defs>
<linearGradient id="paint0_linear_6252_23449" x1="0" y1="0" x2="0" y2="1" gradientUnits="objectBoundingBox">
<stop stop-color="#ED3040"/>
<stop offset="1" stop-color="#2D23F4"/>
</linearGradient>
<linearGradient id="paint1_linear_6252_23449" x1="0" y1="0" x2="0" y2="1" gradientUnits="objectBoundingBox">
<stop stop-color="#ED3040"/>
<stop offset="1" stop-color="#2D23F4"/>
</linearGradient>
</defs>
</svg>
