<svg width="50" height="50" viewBox="0 0 50 50" fill="none" xmlns="http://www.w3.org/2000/svg">
<path d="M23.7922 5L24.0263 5.07812C24.0492 5.04583 24.1012 5.01979 24.1824 5H26.3635C35.199 5.1604 43.2906 12.4981 44.7443 21.3554C45.1074 23.5708 45.0929 27.0568 44.6423 29.2482C43.095 36.7609 36.8005 43.1164 29.2844 44.6402C27.0024 45.1026 23.5175 45.1141 21.2219 44.7048C12.3448 43.1226 5.28025 35.3381 5.02115 26.4402C5.07109 25.4445 4.95455 24.3873 5.02115 23.3999C5.00138 21.3898 5.53103 19.4994 6.23967 17.7037C6.17723 17.2632 6.26776 17.0142 6.5123 16.958C9.37077 10.3692 16.1626 5.11978 23.5591 5H23.7932H23.7922ZM31.8931 7.80592C31.9805 7.69031 30.6871 7.26328 30.5664 7.22474C27.5133 6.25194 23.9545 6.11758 20.8317 6.83104C20.5737 6.8904 19.582 7.11434 19.429 7.22057C19.2875 7.31848 19.4041 7.33827 19.4811 7.40493C20.1064 7.95486 22.6944 8.03506 23.6548 8.29545C24.019 8.3944 24.3572 8.66416 24.3218 9.07453C24.3083 9.23701 23.6049 11.2764 23.5185 11.3909C23.2199 11.7909 21.9275 11.9617 21.4613 12.2169C20.7391 13.0532 20.198 14.6989 19.4727 15.4498C19.1574 15.7769 16.0711 17.584 15.634 17.6881C15.1179 17.811 11.8349 18.0974 11.7308 18.2641C11.6871 18.3339 11.7048 19.2983 11.7599 19.4212C11.8682 19.6608 12.608 20.1857 12.8109 20.4742C13.094 20.8773 13.121 21.4595 12.966 21.9168C13.5862 21.6772 13.839 20.6867 14.66 21.0408C15.0659 21.2158 15.7277 23.1625 16.0804 23.5947L20.6038 23.6666C20.8036 23.7332 20.9764 24.079 21.0992 24.2623C21.66 25.1008 22.1293 26.0226 22.6371 26.8943C23.377 27.0641 25.4748 26.484 25.6486 27.512C25.454 28.7826 25.2282 30.07 24.8723 31.3001L22.3541 33.8466C22.1782 34.4726 22.5362 35.5985 22.1127 36.0995L19.6777 37.9503C19.5581 38.8961 19.7922 40.0657 19.6684 40.9812C19.6247 41.3083 19.3437 41.5968 19.0034 41.603C18.8068 41.6072 16.9504 40.9979 16.7277 40.876C16.5518 40.7802 16.4831 40.6875 16.378 40.524C16.1522 40.1719 15.0492 37.4483 14.9972 37.0723L14.9899 30.8032C14.377 30.6428 12.2625 30.4731 11.8713 30.121C11.6559 29.9263 10.6278 27.8578 10.4842 27.4776C10.2792 26.9381 10.2168 25.3549 10.351 24.7935C10.4457 24.3967 11.0014 24.0686 11.2511 23.7468L7.86089 21.4502C7.54039 20.9711 7.46235 20.342 7.24071 19.8087C7.20949 19.7347 7.23238 19.6306 7.12624 19.6535C4.98265 27.1505 7.59346 35.0934 13.7516 39.8043C21.249 45.5401 32.1553 44.5548 38.5549 37.6681C38.7256 37.4848 39.7203 36.3286 39.7526 36.2089C39.7817 36.0995 39.7412 36.0662 39.6881 35.9881C39.4123 35.5777 38.4852 34.9778 38.302 34.5674C38.0076 33.9071 38.3416 32.4853 38.1855 31.7208C37.5892 30.0908 36.1928 28.2702 35.6735 26.6725C35.3967 25.8215 35.6652 24.8289 35.5154 23.9468C35.4727 23.8749 34.199 23.05 34.1158 23.0437C33.6767 23.0125 32.3999 23.5468 31.8348 23.6145C31.6902 23.6322 31.5507 23.6635 31.4061 23.6166L26.6559 21.5877C26.481 21.5054 26.3583 21.3429 26.3062 21.1585L25.5986 16.2883C25.6444 16.0779 25.7287 15.9289 25.8546 15.7581C26.147 15.3644 27.2459 14.2958 27.6465 13.9656C27.7766 13.8583 27.9004 13.7438 28.0565 13.675L32.4613 13.6729C32.9649 13.7854 33.582 15.2707 34.0003 15.6404C35.0096 15.8019 36.2271 16.1706 37.2302 16.2279C38.2334 16.2851 39.7131 15.4082 40.7734 15.2144C40.1813 14.2875 39.5434 13.3865 38.788 12.5835C38.199 12.8324 37.4737 13.6729 36.84 13.6615C36.1532 13.65 34.2511 13.2001 33.5133 13.0095C32.8702 12.8428 31.9524 12.3533 31.3301 12.4283C30.6621 12.5085 29.5705 13.0178 28.9732 13.0189C28.7266 13.0189 26.6798 12.3283 26.5008 12.1762C26.2781 11.9867 26.2261 11.6638 26.3229 11.393L27.8015 8.50793C28.3093 8.04964 30.1075 8.38606 30.8369 8.27149C31.1761 8.21838 31.5362 7.86113 31.8931 7.80801V7.80592ZM22.7027 9.52239C22.5893 9.40782 19.9889 9.14535 19.5227 9.00058C19.0159 8.84434 17.9576 7.86113 17.6059 7.88508C17.4217 7.89758 16.0877 8.61 15.8245 8.7579C13.2417 10.2046 10.8526 12.4825 9.27192 14.9863C8.92853 15.5311 8.12624 16.857 7.96079 17.4204C7.86505 17.7475 8.82551 20.0097 8.95558 20.5138L11.6403 22.3084C11.5966 22.0011 11.7235 21.4887 11.6007 21.2179C11.4197 20.819 10.4519 20.3326 10.3344 19.7566C10.2615 19.3994 10.2688 18.0547 10.3146 17.6673C10.3604 17.2798 10.5518 17.0423 10.9192 16.9476C12.2501 16.6039 14.1325 16.7111 15.4145 16.3008C15.6996 16.2091 18.4051 14.5687 18.5612 14.3822C19.0773 13.7636 20.147 11.3149 20.6746 11.0399C21.0659 10.8358 22.1533 10.665 22.4176 10.4639C22.4696 10.4244 22.7391 9.55884 22.7017 9.52239H22.7027ZM37.8119 11.4722C37.8046 11.4628 37.6798 11.4524 37.6194 11.3951C36.4186 10.2473 35.0585 9.2443 33.5612 8.50897C33.1449 8.48293 31.66 9.55676 31.0565 9.65883C30.351 9.77757 29.4758 9.59842 28.7505 9.69008C28.5539 9.75778 28.1262 10.9712 27.9222 11.1982C27.9264 11.2722 28.8504 11.5867 28.9711 11.5899C29.5112 11.6024 30.6257 11.1035 31.2511 11.0233C32.121 10.9118 33.0034 11.4472 33.84 11.6669C34.7641 11.9096 35.7661 12.0002 36.6954 12.2471C36.813 12.2471 37.6486 11.7388 37.7641 11.6336C37.8223 11.5805 37.8494 11.5169 37.8119 11.4732V11.4722ZM41.4727 16.382L37.8952 17.5944C36.3655 17.5933 34.787 17.1819 33.274 16.9111C32.866 16.7038 32.1366 15.0842 31.84 14.9936C31.1803 15.0842 28.9555 14.7916 28.5008 15.053C28.3988 15.1113 27.0346 16.4685 27.018 16.5737L27.6069 20.4774L31.6402 22.2157C32.3374 22.2417 33.814 21.5095 34.404 21.621C34.5799 21.6543 36.6912 23.051 36.8015 23.2031C37.1626 23.7041 36.8286 25.4435 36.9732 26.1496C37.4748 27.713 39.1897 29.8721 39.5507 31.3657C39.7328 32.1198 39.4373 33.3311 39.6204 33.9477C39.686 34.1674 40.4155 34.6965 40.5778 34.9371C43.251 30.9928 44.1012 25.8517 43.1647 21.2012C42.8265 19.5233 42.1938 17.9235 41.4727 16.383V16.382ZM18.2625 39.9282V37.6285C18.2625 37.3764 18.5529 37.089 18.7287 36.9265C19.0669 36.613 20.8567 35.4433 20.9504 35.2517C21.1293 34.8871 20.865 33.7956 21.0315 33.305C21.0659 33.203 21.2219 33.0426 21.2989 32.9488C21.7589 32.3906 23.455 31.0209 23.6725 30.5689C23.915 30.0648 23.9306 28.8972 24.1054 28.3119H22.1189C22.017 28.3119 21.7797 28.0421 21.7037 27.9473C21.3687 27.5297 20.1012 25.0956 19.8994 24.9977L15.377 24.9248C14.9868 24.8029 14.4197 23.2687 14.2116 22.8552L14.017 22.9323C13.711 23.4051 11.8463 24.88 11.736 25.2497C11.6798 25.4403 11.6923 26.6319 11.7381 26.8537C11.7651 26.9881 12.6913 28.8545 12.7745 28.9347C13.044 29.1961 15.2771 29.4076 15.8349 29.6138C16.0513 29.694 16.1876 29.8096 16.2813 30.0242L16.3343 36.7536L17.4925 39.6481C17.5549 39.7793 18.223 39.972 18.2636 39.9293L18.2625 39.9282Z" fill="url(#paint0_linear_6252_23483)"/>
<path d="M24.0263 5C24.0939 5.02187 24.0929 5.04791 24.0263 5.07812C23.941 5.08124 23.8296 5.09791 23.7922 5H24.0263Z" fill="url(#paint1_linear_6252_23483)"/>
<path d="M24.1824 5C24.1605 5.07499 24.0939 5.07603 24.0263 5.07812V5H24.1824Z" fill="url(#paint2_linear_6252_23483)"/>
<defs>
<linearGradient id="paint0_linear_6252_23483" x1="0" y1="0" x2="0" y2="1" gradientUnits="objectBoundingBox">
<stop stop-color="#ED3040"/>
<stop offset="1" stop-color="#2D23F4"/>
</linearGradient>
<linearGradient id="paint1_linear_6252_23483" x1="0" y1="0" x2="0" y2="1" gradientUnits="objectBoundingBox">
<stop stop-color="#ED3040"/>
<stop offset="1" stop-color="#2D23F4"/>
</linearGradient>
<linearGradient id="paint2_linear_6252_23483" x1="0" y1="0" x2="0" y2="1" gradientUnits="objectBoundingBox">
<stop stop-color="#ED3040"/>
<stop offset="1" stop-color="#2D23F4"/>
</linearGradient>
</defs>
</svg>
