<svg width="50" height="50" viewBox="0 0 50 50" fill="none" xmlns="http://www.w3.org/2000/svg">
<path d="M10.8966 45C10.3055 44.665 10.3786 43.9085 11.0926 43.8271C11.4803 43.7822 12.616 43.9325 12.8384 43.7499C14.3385 41.5418 15.5208 39.1448 16.5272 36.681C16.5611 36.4661 16.0293 36.585 15.8534 36.5631C14.6743 36.4181 14.1213 35.8598 13.7728 34.7849C13.6362 34.3634 13.3258 33.3083 13.2897 32.9097C13.259 32.5654 13.5313 32.2481 13.8734 32.1949C15.0631 32.0102 16.6998 32.3441 17.917 32.1949C17.9848 32.1866 18.0537 32.197 18.1141 32.1553L18.1766 32.0613L19.9351 25.6697C18.6067 25.5685 17.6331 24.3893 18.1978 23.0995C18.6427 22.0821 19.7211 21.959 20.7254 22.0352C21.2721 18.4976 22.0263 14.9475 22.3113 11.3735C22.3791 10.5282 22.1206 11.0698 21.7551 10.6722C21.5104 10.4061 21.5517 9.96261 21.8844 9.78104C22.0687 9.67982 22.3727 9.71112 22.3907 9.69338C22.4458 9.64121 22.36 8.45994 22.4098 8.18862C22.4787 7.81713 22.9342 7.65121 23.1185 7.24632C23.2923 6.86439 23.2234 6.36454 23.4321 6.07131C23.4988 5.97739 24.5381 5.15822 24.662 5.09666C24.9237 4.96726 25.0942 4.9683 25.3538 5.09666C25.4788 5.15822 26.517 5.97739 26.5837 6.07131C26.7924 6.36558 26.7225 6.86439 26.8973 7.24632C27.0551 7.59068 27.5446 7.90791 27.6081 8.18653C27.6717 8.46515 27.57 9.64121 27.6251 9.69338C27.6833 9.74869 28.5414 9.62555 28.3868 10.3988C28.2787 10.9435 27.7713 10.8058 27.7077 10.8684C27.6865 10.8893 27.6971 11.3484 27.7045 11.4507C27.8338 13.232 28.16 15.2063 28.4302 16.9845C28.6866 18.674 29.0298 20.3478 29.2904 22.0352C30.175 21.9746 31.2269 22.0508 31.7026 22.9002C32.4462 24.2276 31.5384 25.5529 30.0807 25.6687C30.6654 27.834 31.1358 30.0484 31.9028 32.1542C31.9632 32.196 32.032 32.1866 32.0998 32.1939C33.3181 32.3431 34.9538 32.0092 36.1434 32.1939C36.4856 32.2471 36.7579 32.5643 36.7271 32.9087C36.6911 33.3063 36.3807 34.3623 36.2441 34.7839C35.8966 35.8598 35.3425 36.417 34.1635 36.5621C33.9887 36.584 33.4558 36.465 33.4897 36.68C34.4961 39.1437 35.6784 41.5407 37.1784 43.7488C37.3998 43.9314 38.5365 43.7812 38.9243 43.826C39.6266 43.9064 39.6796 44.6713 39.1202 44.999H28.7321C28.2416 44.8967 28.0393 44.4855 28.1283 43.7655L28.1823 42.3317C28.3317 40.1038 26.3231 38.4602 24.1249 39.055C21.7858 39.6874 21.6937 41.8423 21.8727 43.8313C21.9437 44.5043 21.7456 44.8936 21.2795 44.999H10.8966V45ZM26.3602 9.69338V8.56116C26.3602 8.50481 25.8443 7.85887 25.7373 7.61259C25.5763 7.2411 25.5593 6.69847 25.197 6.5002C24.5889 6.16836 24.4449 7.25049 24.287 7.61259C24.1768 7.86408 23.6641 8.50481 23.6641 8.56116V9.69338H26.3602ZM23.2668 14.1451H26.7564L26.4396 10.8642H23.6302L23.2679 14.1451H23.2668ZM22.5539 18.676H27.4704L26.9947 15.3952H23.0751L22.5539 18.676ZM21.9988 22.0352H28.0255L27.6632 19.9231L22.3166 19.9272L21.9988 22.0352ZM19.6767 23.3009C19.1025 23.4303 19.1915 24.3966 19.8165 24.3789H30.2078C30.9091 24.3497 30.9133 23.3145 30.2078 23.2822L19.6767 23.2999V23.3009ZM23.1884 25.628H21.2064L20.5718 28.2838H22.5539L23.1884 25.628ZM22.7912 32.1897H27.232L25.5763 25.6739L24.573 25.6228L22.7922 32.1897H22.7912ZM28.8179 25.628H26.8358L27.4704 28.2838H29.4525L28.8179 25.628ZM22.2361 29.5329H20.1746L19.4605 32.1886H21.4034L21.5051 32.054L22.2361 29.5329ZM29.8487 29.5329H27.7872C28.0954 30.4042 28.2353 31.358 28.6198 32.1886H30.5627L29.8487 29.5329ZM35.3203 33.4388H14.7029C14.9339 34.1348 14.8862 35.2368 15.8523 35.313L34.0152 35.3161C35.1137 35.361 35.083 34.2027 35.3203 33.4377V33.4388ZM16.6066 39.6874H21.0867C22.9289 36.8709 27.0954 36.8626 28.9376 39.6874H33.4177L32.1581 36.609L32.0331 36.5579L17.9276 36.56L16.6066 39.6885V39.6874ZM20.5708 40.9376H15.8926L14.3067 43.8281H20.4129C20.432 42.8629 20.3313 41.883 20.5718 40.9376H20.5708ZM34.1306 40.9376H29.4525C29.6929 41.8819 29.5923 42.8618 29.6114 43.8281H35.7176L34.1317 40.9376H34.1306Z" fill="url(#paint0_linear_6252_23479)"/>
<defs>
<linearGradient id="paint0_linear_6252_23479" x1="0" y1="0" x2="0" y2="1" gradientUnits="objectBoundingBox">
<stop stop-color="#ED3040"/>
<stop offset="1" stop-color="#2D23F4"/>
</linearGradient>
</defs>
</svg>
