<svg width="50" height="50" viewBox="0 0 50 50" fill="none" xmlns="http://www.w3.org/2000/svg">
<path d="M26.7072 8.89267V20.7737L37.3262 10.195C37.7817 9.88085 38.1079 9.99717 38.5069 10.3168C39.1233 10.8103 40.0952 11.9605 40.6202 12.5975C41.7748 14.0021 43.1217 15.9991 43.5924 17.7635C44.1404 19.8192 43.5033 19.8573 41.8704 18.9158C40.23 17.9701 38.7895 16.2546 37.5719 14.8337L29.3119 23.1338H44.3263C44.6154 23.1338 44.9046 23.535 44.9383 23.8242C45.1949 26.0169 44.6209 29.887 43.7783 31.9449C43.6044 32.3689 42.8641 33.8104 42.5423 34.0441C41.8759 34.529 41.4606 33.1592 41.3356 32.7178C40.7811 30.7708 40.929 28.5477 41.1127 26.5528H28.9064L39.7299 37.3348C40.0995 37.8599 39.9723 38.1371 39.6081 38.598C39.17 39.1514 37.9894 40.1472 37.4078 40.6298C35.8858 41.8941 33.0647 43.7912 31.0579 43.889C29.7892 43.951 30.9002 42.1235 31.2318 41.6158C32.245 40.0678 33.7583 38.8383 35.0878 37.5805L26.6267 29.1586V44.4162C26.6267 44.6369 26.1691 44.9196 25.9364 44.9468C24.5112 45.1142 22.188 44.8565 20.7519 44.5934C19.4463 44.3543 16.7317 43.5813 15.8403 42.5888C15.0641 41.7246 17.3438 41.2354 17.9015 41.144C19.6485 40.8581 21.4564 40.9364 23.2077 41.1201V29.1575C19.7431 32.4254 16.523 35.9683 13.0735 39.2427C12.6669 39.6286 12.3462 40.2624 11.6222 39.8884C11.4004 39.7732 10.5427 38.8481 10.309 38.598C8.73263 36.9141 6.72906 34.2061 6.22463 31.9405C6.13657 31.547 5.85174 30.5479 6.48228 30.4958C8.03361 30.3664 11.3809 33.9789 12.3441 35.178L20.8476 26.5539H5.59083C5.37015 26.5539 5.08749 26.0962 5.06032 25.8636C4.81136 23.7437 5.36471 19.9921 6.13875 17.9875C6.31921 17.5211 7.19761 15.7023 7.64333 15.5795C8.28039 15.4045 8.66197 16.9014 8.76524 17.3569C9.18922 19.2191 9.06747 21.251 8.887 23.1349H20.6867L10.1524 12.6302C9.49253 11.8605 10.8525 10.8299 11.407 10.3157C12.9887 8.8481 15.438 7.02609 17.5101 6.4097C18.0558 6.24772 19.5811 5.72917 19.4474 6.71409C19.2484 8.18496 16.9654 10.4396 15.8848 11.4561C15.7261 11.605 14.8075 12.2866 14.8314 12.4203L23.2077 20.7715V5.75961C23.2077 5.3976 23.6339 5.10734 23.9785 5.06603C26.4995 4.7649 31.0764 5.51718 33.2713 6.84455C33.7224 7.11741 34.6465 7.61748 33.9909 8.16104C32.5983 9.31447 28.4499 9.06769 26.7072 8.89158V8.89267ZM24.1035 5.88137V20.9357C24.6982 20.8683 25.2167 20.8237 25.8125 20.9357V8.60784C25.8125 8.47848 26.2376 8.06103 26.4278 8.08386C28.6086 8.10668 30.8698 8.41651 32.9734 7.71315C30.3893 6.07922 27.0909 5.96072 24.1035 5.88137ZM18.407 7.10328C15.4326 7.79903 12.9485 9.99283 10.8406 12.1073L21.6607 22.7262C21.7205 22.5359 21.8923 22.2968 22.0282 22.1565C22.2 21.9782 22.7859 21.6228 22.6848 21.426L14.2552 13.0857C13.3127 12.0583 14.5085 11.58 15.1532 10.9691C16.3567 9.82976 17.6558 8.59371 18.407 7.10328ZM42.8195 18.4125C42.5771 16.9536 41.7291 15.5632 40.8844 14.3674C40.5648 13.914 38.1144 10.8821 37.8263 10.9332L27.1953 21.5858C27.765 21.7673 28.0639 22.325 28.4564 22.7251L37.4295 13.9543C37.6741 13.8912 37.8981 14.0151 38.0938 14.1478C39.4603 15.735 40.9018 17.483 42.8195 18.4136V18.4125ZM5.87566 25.6549H21.0117C20.8389 25.095 20.9606 24.5134 21.0117 23.9459H8.51955C8.43911 23.9459 8.05861 23.5589 8.07709 23.4121C8.09884 21.3988 8.34996 19.317 7.88576 17.3374C7.85315 17.1971 7.79009 16.8547 7.66616 16.7851C6.15723 19.4692 5.92567 22.6251 5.87457 25.6538L5.87566 25.6549ZM24.4905 21.7706C20.5899 22.3087 21.127 28.402 25.1993 28.178C29.4772 27.9421 29.0108 21.1477 24.4905 21.7706ZM44.1219 24.0274H28.9858C29.0663 24.5917 29.1434 25.1798 28.9858 25.7364H41.3954C41.4454 25.7364 41.7585 25.9908 41.8074 26.056C42.0966 26.4452 41.8498 27.341 41.8389 27.8073C41.803 29.5065 41.7585 31.272 42.289 32.8961C43.9066 30.2968 44.0447 27.0224 44.1208 24.0264L44.1219 24.0274ZM22.7196 28.2607C22.2511 28.0345 21.8706 27.5269 21.5401 27.1214L13.079 35.6661C12.6028 36.0531 12.2538 36.2586 11.7309 35.79C11.1765 35.2943 10.5525 34.3735 9.97739 33.8006C9.23597 33.0635 8.23364 32.1514 7.31393 31.6633C7.2237 31.6155 6.98018 31.4111 7.02041 31.6307C7.31502 33.2614 8.82612 35.4758 9.8665 36.7608C10.1122 37.0652 11.8983 39.1101 12.0908 39.0763L22.7207 28.2607H22.7196ZM31.509 42.9062C34.5008 42.1953 36.9273 39.9863 39.0754 37.9023L28.3368 27.2018C28.252 27.416 27.9878 27.7367 27.8182 27.9052C27.6791 28.0443 27.1268 28.3041 27.2334 28.5053L35.7825 37.0456C36.0434 37.3011 36.0641 37.724 35.8586 38.0197C34.2932 39.5232 32.4657 40.9005 31.509 42.9052V42.9062ZM25.7309 28.9912H24.3068C24.2655 28.9912 24.1361 28.8618 24.022 28.9108L24.1068 40.9973C24.084 41.393 23.9318 41.8615 23.4882 41.9246C21.315 41.9191 19.0266 41.5637 16.9426 42.2953C19.5322 43.9368 22.8251 44.0358 25.8125 44.1271L25.7309 28.9912Z" fill="url(#paint0_linear_6252_23505)"/>
<defs>
<linearGradient id="paint0_linear_6252_23505" x1="37.6624" y1="33.6397" x2="37.6624" y2="41.6506" gradientUnits="userSpaceOnUse">
<stop stop-color="#ED3040"/>
<stop offset="1" stop-color="#2D23F4"/>
</linearGradient>
</defs>
</svg>
