<svg width="50" height="50" viewBox="0 0 50 50" fill="none" xmlns="http://www.w3.org/2000/svg">
<path d="M28.7826 5C29.938 5.30216 30.7734 6.10201 30.96 7.31066C30.8001 10.0746 31.2089 13.1495 30.9689 15.8868C30.8623 17.1576 29.8313 18.1797 28.5782 18.3307C26.2942 18.2241 23.8323 18.4996 21.5661 18.3485C20.2063 18.2507 19.0776 17.2909 18.9532 15.8957C18.7132 13.1495 19.122 10.039 18.9798 7.25734C19.1754 6.10201 19.9841 5.36437 21.0684 5.01777H28.7915L28.7826 5ZM21.5127 6.34196C20.9173 6.43972 20.4374 6.82187 20.3574 7.45285C20.5529 10.1279 20.0997 13.1673 20.3574 15.7979C20.4107 16.3578 20.8551 16.8288 21.415 16.9266C23.6635 16.7577 26.2231 17.1399 28.436 16.9266C29.0137 16.8732 29.5203 16.3933 29.5647 15.7979C29.3692 13.1406 29.8136 10.1457 29.5647 7.52395C29.4936 6.78632 28.987 6.39528 28.276 6.3153C26.1608 6.10201 23.6724 6.45749 21.5127 6.33307V6.34196Z" fill="url(#paint0_linear_6252_23497)"/>
<path d="M5 42.8148V33.6877C5.39104 32.4969 6.24423 31.6792 7.5329 31.5815C9.7903 31.4037 12.2699 31.7237 14.5539 31.5815C16.0026 31.8037 16.9091 32.8079 17.0157 34.2654C17.2024 36.9404 16.8735 39.8288 17.0068 42.5305C16.8735 43.6769 15.8781 44.7878 14.7139 44.9211C12.3854 45.1699 9.61255 44.7345 7.23962 44.9122C6.08426 44.6989 5.34661 43.908 5.00889 42.8148H5ZM7.3196 33.0123C6.70638 33.2078 6.39532 33.6433 6.32422 34.2832C6.48419 36.8249 6.10203 39.651 6.32422 42.1572C6.40421 43.0726 6.84857 43.5169 7.76397 43.5969C9.4348 43.7391 12.4832 43.7302 14.1629 43.5969C14.9539 43.5347 15.496 43.2148 15.6026 42.3883C15.416 39.7399 15.8337 36.8071 15.6026 34.1943C15.5493 33.5722 15.1672 33.1101 14.545 32.9857L7.31072 33.0034L7.3196 33.0123Z" fill="url(#paint1_linear_6252_23497)"/>
<path d="M25.6631 24.2585H35.9992C36.408 24.2585 37.3589 24.6406 37.7322 24.8628C39.3941 25.8848 39.8474 27.8311 39.6252 29.6707C39.5275 30.4972 38.3899 30.4884 38.2388 29.653C38.0699 28.7376 38.4343 28.0088 37.9544 27.0579C37.67 26.498 36.719 25.6537 36.0792 25.6537H25.672V29.7507C25.672 29.9907 25.2454 30.3017 24.9966 30.3106C24.73 30.3284 24.2678 29.9996 24.2678 29.7507V25.6537H13.8607C13.2208 25.6537 12.2699 26.498 11.9855 27.0579C11.4967 28.0088 11.8611 28.7376 11.7011 29.653C11.55 30.4972 10.4124 30.4972 10.3147 29.6707C10.0836 27.7067 10.599 25.7337 12.421 24.7561C12.7765 24.5695 13.5585 24.2496 13.9407 24.2496H24.2767V20.1526C24.2767 19.9126 24.7033 19.6016 24.9522 19.5927C25.2188 19.5749 25.6809 19.9038 25.6809 20.1526V24.2496L25.6631 24.2585Z" fill="url(#paint2_linear_6252_23497)"/>
<path d="M21.2817 31.6081C23.5302 31.3238 26.2764 31.7681 28.5782 31.5993C29.8313 31.7503 30.8623 32.7724 30.9689 34.0432C31.2 36.7538 30.7912 39.8021 30.9689 42.5482C30.8267 43.7747 29.8313 44.8233 28.596 44.93C26.2586 45.1344 23.6368 44.77 21.2639 44.93C20.0108 44.7345 19.0687 43.748 18.9621 42.4771C18.731 39.7488 19.1398 36.6738 18.971 33.901C19.1487 32.7368 20.1174 31.7592 21.2817 31.617V31.6081ZM21.2728 33.0123C20.8373 33.1634 20.4107 33.5722 20.3574 34.0432C20.5529 36.7271 20.1085 39.7488 20.3574 42.3883C20.4285 43.1703 20.9706 43.5347 21.726 43.5969C23.7968 43.7747 26.1075 43.4547 28.2049 43.5969C28.9515 43.5347 29.4936 43.1792 29.5736 42.3883C29.8224 39.7666 29.3781 36.7716 29.5736 34.1143C29.5647 33.59 29.0315 33.0479 28.516 32.9857L21.2817 33.0034L21.2728 33.0123Z" fill="url(#paint3_linear_6252_23497)"/>
<path d="M44.1933 32.3991C44.5666 32.7724 44.8777 33.4389 44.9221 33.9632C45.1709 36.7094 44.7266 39.8377 44.9221 42.6193C44.7355 43.8191 43.7845 44.8145 42.5492 44.9211C40.2118 45.1255 37.5811 44.7611 35.2171 44.9211C33.9462 44.7078 33.013 43.6769 32.9152 42.3883C32.702 39.7043 33.0752 36.7538 32.9152 34.0432C33.0841 32.7102 34.0973 31.7148 35.4481 31.5815C37.7144 31.7326 40.2296 31.386 42.4692 31.5815C43.1002 31.6348 43.7578 31.937 44.1933 32.3902V32.3991ZM35.2349 33.0123C34.7372 33.1901 34.3817 33.5811 34.3195 34.1232C34.0262 36.7094 34.5416 39.8199 34.3195 42.4682C34.4883 43.2592 34.9949 43.5436 35.7592 43.5969C37.4389 43.7302 40.4873 43.7391 42.1581 43.5969C43.0735 43.5169 43.5179 43.0726 43.5979 42.1572C43.8112 39.6688 43.429 36.8782 43.5979 34.3543C43.5357 33.6344 43.2068 33.1278 42.4692 32.9945L35.2349 33.0123Z" fill="url(#paint4_linear_6252_23497)"/>
<defs>
<linearGradient id="paint0_linear_6252_23497" x1="37.6624" y1="33.6397" x2="37.6624" y2="41.6506" gradientUnits="userSpaceOnUse">
<stop stop-color="#ED3040"/>
<stop offset="1" stop-color="#2D23F4"/>
</linearGradient>
<linearGradient id="paint1_linear_6252_23497" x1="37.6624" y1="33.6397" x2="37.6624" y2="41.6506" gradientUnits="userSpaceOnUse">
<stop stop-color="#ED3040"/>
<stop offset="1" stop-color="#2D23F4"/>
</linearGradient>
<linearGradient id="paint2_linear_6252_23497" x1="37.6624" y1="33.6397" x2="37.6624" y2="41.6506" gradientUnits="userSpaceOnUse">
<stop stop-color="#ED3040"/>
<stop offset="1" stop-color="#2D23F4"/>
</linearGradient>
<linearGradient id="paint3_linear_6252_23497" x1="37.6624" y1="33.6397" x2="37.6624" y2="41.6506" gradientUnits="userSpaceOnUse">
<stop stop-color="#ED3040"/>
<stop offset="1" stop-color="#2D23F4"/>
</linearGradient>
<linearGradient id="paint4_linear_6252_23497" x1="37.6624" y1="33.6397" x2="37.6624" y2="41.6506" gradientUnits="userSpaceOnUse">
<stop stop-color="#ED3040"/>
<stop offset="1" stop-color="#2D23F4"/>
</linearGradient>
</defs>
</svg>
