<svg width="50" height="50" viewBox="0 0 50 50" fill="none" xmlns="http://www.w3.org/2000/svg">
<path d="M8.5 29.1765C8.73323 24.1319 9.34171 19.105 10.0559 14.1084C7.43646 11.5668 11.8202 8.35742 13.3284 11.2819C13.8985 12.3879 13.5368 13.2476 12.7707 14.1084C13.0309 15.6212 13.1657 17.156 13.3554 18.6751C13.3668 18.7659 13.3481 19.0038 13.4684 18.9881C13.8063 15.6285 14.2147 12.2763 14.6915 8.93439C12.9552 7.18782 14.4148 4.3332 16.8684 5.14076C18.3973 5.64366 18.6834 7.842 17.4654 8.83736C17.6448 11.1849 18.0812 13.5564 18.3486 15.9134C18.7912 19.8124 19.0856 23.725 18.9799 27.6574L20.3088 24.4282C20.967 23.0009 21.8077 21.679 22.5913 20.3216C23.1179 16.4799 23.9669 12.6894 24.4105 8.83632L25.5062 8.88222L27.4602 20.5678C28.844 22.7119 30.0371 24.9926 30.8519 27.4237C30.9866 27.4424 30.9255 27.2463 30.9286 27.1513C30.9773 25.8263 30.8788 24.4898 30.9255 23.1647C31.0934 18.3642 31.9776 13.5867 32.442 8.8384C30.883 7.44031 31.8574 4.85488 33.9927 5.01138C36.0327 5.16058 36.5894 7.57699 35.2159 8.93544C35.6285 11.982 36.0524 15.0318 36.3603 18.0929C36.3883 18.3715 36.4163 18.7158 36.3613 18.9902C36.5925 19.0257 36.493 18.9391 36.5137 18.7941C36.7387 17.2364 36.8744 15.663 37.1367 14.1105C34.4665 11.6795 38.7102 8.33029 40.3512 11.2632C40.9493 12.3326 40.5409 13.2393 39.8515 14.1094C40.5388 18.9047 41.1452 23.7125 41.3235 28.5599C41.5142 33.7474 41.5629 39.3753 41.4074 44.5712C41.4033 44.7193 41.4147 44.8665 41.3266 44.9969H40.2402L40.0391 44.928C39.9769 39.4347 39.9676 33.9269 40.0112 28.4044L39.7841 25.5988L39.9293 25.4726C39.9293 25.5331 39.9179 25.6218 39.8774 25.6291C39.3094 25.722 37.6934 25.6781 37.0724 25.6291L36.9812 25.4726L37.1326 25.5352L36.9294 28.7216C38.3433 31.4802 39.3187 34.3797 39.3705 37.5129C39.4162 39.8657 39.413 42.2268 39.3757 44.5806C39.3747 44.6494 39.3529 44.7183 39.3291 44.7882C39.3052 44.8581 39.269 44.9301 39.2316 44.9979H38.0676L37.9556 44.6859C37.9214 42.4407 37.9058 40.1922 37.909 37.9407C37.8468 35.2467 37.2103 33.0108 36.1126 30.5506C35.9851 30.2658 35.1869 28.5369 35.1237 28.6298C34.5732 29.4384 33.9109 31.091 33.5449 32.0509C32.5954 34.5352 32.3425 37.0632 32.3943 39.7102C32.4503 41.4672 32.441 43.2096 32.3694 44.9384L32.1715 44.9979H31.0851C30.9949 44.7392 30.939 44.4741 30.9172 44.2018L30.9587 37.8061C31.0634 32.0854 29.7034 26.6589 26.6869 21.8115C26.4132 21.3722 25.1092 19.3429 24.9599 19.3502C24.7236 19.3617 22.7302 22.7703 22.412 23.3535C20.0652 27.6438 18.9871 32.1052 19.1167 37.0058C19.183 39.6685 19.1779 42.3123 19.1022 44.9395L18.9042 44.999H17.7401C17.6116 44.807 17.5473 44.5941 17.566 44.3636C17.7111 41.2064 17.6261 38.0659 17.311 34.941C17.4146 34.4527 15.299 28.611 14.9683 28.5307C14.7879 28.4868 13.5098 31.5553 13.3802 31.9049C12.4442 34.4298 12.126 36.9443 12.211 39.6486C12.2732 41.4244 12.268 43.1877 12.1954 44.9395L11.9974 44.999H10.8334C10.795 44.9301 10.7608 44.8602 10.7349 44.7872C10.709 44.7141 10.6882 44.6463 10.6872 44.5774C10.652 42.2695 10.6478 39.9543 10.7017 37.6475C10.7525 34.5863 11.6512 31.7609 12.9874 29.045L12.779 25.5759L12.9283 25.4747C12.9283 25.5352 12.9169 25.6239 12.8765 25.6312C12.3084 25.724 10.6924 25.6802 10.0715 25.6312L9.98024 25.4747L10.1274 25.578L9.89939 28.4075C9.94707 33.9363 9.93671 39.4473 9.86829 44.9405L9.6703 45H8.50415L8.5 29.1765ZM16.0111 6.19872C14.564 6.29262 15.0626 8.67147 16.4962 8.0152C17.4115 7.59681 17.0726 6.12986 16.0111 6.19872ZM33.7792 6.19872C32.3093 6.28114 32.8193 8.62243 34.2052 8.03294C35.1807 7.61768 34.8241 6.14134 33.7792 6.19872ZM14.7112 19.0654H17.4271L16.262 9.30374C15.952 9.29852 15.895 9.21401 15.8193 9.51658C15.6172 10.3231 15.5353 11.6022 15.4202 12.4766C15.1321 14.6655 14.8916 16.8649 14.7112 19.0654ZM32.4793 19.0654H35.1952C34.9754 16.4737 34.6779 13.883 34.3307 11.3059C34.2954 11.0441 34.1057 9.36634 34.0197 9.31417C33.944 9.26827 33.7491 9.31417 33.6444 9.30478L32.4793 19.0664V19.0654ZM11.4128 11.3758C10.3451 11.3967 10.1689 12.9461 11.1557 13.2341C12.5541 13.642 12.8858 11.3466 11.4128 11.3758ZM38.4946 11.3758C37.0216 11.3466 37.3534 13.642 38.7517 13.2341C39.7385 12.9461 39.5623 11.3967 38.4946 11.3758ZM25.8058 18.1284L24.9921 13.4427L24.0996 18.0491L24.3504 17.8728L24.9921 17.035L25.8068 18.1284H25.8058ZM10.0559 24.2206H12.7718L11.6077 14.4569H11.22L10.0559 24.2206ZM37.1357 24.2206H39.8515L38.6874 14.4579H38.2998L37.1357 24.2206ZM14.5557 20.3153L14.3235 26.5629L14.8667 25.4705C14.8999 25.4455 14.9507 25.5154 14.9797 25.5508C15.3777 26.0517 16.1604 27.8775 16.4848 28.5661C16.9471 29.5479 17.3929 30.5475 17.7764 31.5626C17.878 27.8076 17.8324 24.0557 17.5826 20.3153H14.5557ZM35.3507 20.3153H32.3249C32.2399 21.5527 32.2109 22.786 32.1694 24.0244C32.1642 24.1736 32.0937 24.3239 32.0896 24.4908C32.0191 26.9719 32.1165 29.4739 32.1321 31.9529C32.4721 31.0671 32.8421 30.1833 33.2433 29.3215C33.6984 28.346 34.5069 26.4033 35.0532 25.5988C35.0822 25.5571 35.1527 25.4382 35.1952 25.4695L35.5829 26.2499L35.3507 20.3142V20.3153Z" fill="url(#paint0_linear_6252_23487)"/>
<path d="M13.1595 44.9948C13.2994 41.1698 12.7293 37.178 13.856 33.4741C14.1038 32.6613 14.4707 31.7056 14.8315 30.9377C14.8688 30.8573 14.8315 30.7332 14.9818 30.7801C15.0792 30.8104 15.64 32.4537 15.7209 32.6926C16.9223 36.2483 16.7657 40.8026 16.6538 44.5691C16.6496 44.7173 16.661 44.8644 16.5729 44.9948H15.4088C15.2813 44.8174 15.215 44.6192 15.2347 44.4022C15.3218 41.7249 15.2907 39.0539 15.1414 36.3871C14.9745 34.9358 14.8978 34.3964 14.6905 36.192C14.5277 39.0351 14.4821 41.8804 14.5547 44.7266C14.5599 44.9176 14.5195 44.9718 14.3225 44.9958H13.1584L13.1595 44.9948Z" fill="url(#paint1_linear_6252_23487)"/>
<path d="M36.9024 44.9948H35.7383C35.6534 44.8717 35.5974 44.736 35.5725 44.5889L35.6015 39.6361C35.6585 38.9872 35.3693 34.8096 35.1361 34.7324C34.9889 34.6833 34.7453 37.7299 34.7412 37.829C34.7494 40.21 34.7339 42.5794 34.6945 44.9364L34.4965 44.9958H33.4102C33.5791 41.2502 32.953 37.3199 34.0104 33.69C34.1005 33.3812 35.0003 30.7822 35.1558 30.7833C35.5632 31.6451 35.9457 32.5403 36.2235 33.4553C37.3544 37.1769 36.7501 41.15 36.9014 44.9958L36.9024 44.9948Z" fill="url(#paint2_linear_6252_23487)"/>
<path d="M29.6868 44.9948H20.2207C20.3274 43.4548 20.0724 41.7176 20.23 40.2016C20.485 37.7456 23.3615 36.8566 24.9921 38.6679C26.5428 36.8399 29.4815 37.7612 29.6888 40.1891C29.8195 41.7228 29.5852 43.4412 29.6857 44.9948H29.6868ZM24.3328 43.8231V39.9575C24.3328 39.9283 24.0975 39.5067 24.0571 39.4535C23.546 38.7879 22.525 38.7409 21.9113 39.2929C21.7932 39.3993 21.4625 39.9043 21.4625 40.0347V43.822H24.3338L24.3328 43.8231ZM28.4449 39.9575C28.4449 39.9283 28.2096 39.5067 28.1692 39.4535C27.908 39.1134 27.3638 38.8755 26.9346 38.8995C26.4049 38.9287 25.5736 39.5662 25.5736 40.114V43.8241H28.4449V39.9575Z" fill="url(#paint3_linear_6252_23487)"/>
<path d="M20.0652 36.6386C20.059 34.6228 20.2176 32.5935 20.6467 30.6236C21.3951 27.1826 23.006 24.0098 24.9164 21.0957C25.0677 21.0957 25.4264 21.727 25.5301 21.8845C28.0199 25.6844 29.7262 30.2094 29.9241 34.8002C29.9418 35.1998 29.9843 36.095 29.921 36.4435C29.9096 36.5081 29.8588 36.6386 29.8049 36.6386H20.0652ZM28.6782 35.3886C28.6782 31.5564 27.4902 27.8034 25.6659 24.4804C25.5073 24.1914 25.3072 23.8032 25.1227 23.5424C25.0667 23.4631 25.048 23.34 24.9154 23.3598C22.7416 27.0011 21.3454 31.0931 21.307 35.3876H28.6782V35.3886Z" fill="url(#paint4_linear_6252_23487)"/>
<path d="M39.0751 26.4074H37.8333V27.5791H39.0751V26.4074Z" fill="url(#paint5_linear_6252_23487)"/>
<path d="M39.0751 28.7498H37.8333V29.9214H39.0751V28.7498Z" fill="url(#paint6_linear_6252_23487)"/>
<path d="M34.4198 24.0641H33.2557V25.2357H34.4198V24.0641Z" fill="url(#paint7_linear_6252_23487)"/>
<path d="M34.4198 21.7207H33.2557V22.8924H34.4198V21.7207Z" fill="url(#paint8_linear_6252_23487)"/>
<path d="M16.6507 21.7207H15.4866V22.8924H16.6507V21.7207Z" fill="url(#paint9_linear_6252_23487)"/>
<path d="M25.5736 26.7976V29.3361C25.5736 29.3445 25.4658 29.453 25.4575 29.453H24.3328V26.9145C24.3328 26.9062 24.4406 26.7976 24.4489 26.7976H25.5736Z" fill="url(#paint10_linear_6252_23487)"/>
<path d="M25.5736 30.5464V31.6785C25.5736 31.6868 25.4658 31.7953 25.4575 31.7953H24.3328V30.6633C24.3328 30.6549 24.4406 30.5464 24.4489 30.5464H25.5736Z" fill="url(#paint11_linear_6252_23487)"/>
<path d="M24.3328 34.1387V33.0066C24.3328 32.8481 25.388 32.8439 25.5021 32.9232C25.6316 33.014 25.6223 34.1387 25.4585 34.1387H24.3328Z" fill="url(#paint12_linear_6252_23487)"/>
<path d="M12.0731 26.4074H10.8313V27.5791H12.0731V26.4074Z" fill="url(#paint13_linear_6252_23487)"/>
<path d="M12.0731 28.7498H10.8313V29.9214H12.0731V28.7498Z" fill="url(#paint14_linear_6252_23487)"/>
<path d="M16.6507 24.0641H15.4866V25.2357H16.6507V24.0641Z" fill="url(#paint15_linear_6252_23487)"/>
<defs>
<linearGradient id="paint0_linear_6252_23487" x1="0" y1="0" x2="0" y2="1" gradientUnits="objectBoundingBox">
<stop stop-color="#ED3040"/>
<stop offset="1" stop-color="#2D23F4"/>
</linearGradient>
<linearGradient id="paint1_linear_6252_23487" x1="0" y1="0" x2="0" y2="1" gradientUnits="objectBoundingBox">
<stop stop-color="#ED3040"/>
<stop offset="1" stop-color="#2D23F4"/>
</linearGradient>
<linearGradient id="paint2_linear_6252_23487" x1="0" y1="0" x2="0" y2="1" gradientUnits="objectBoundingBox">
<stop stop-color="#ED3040"/>
<stop offset="1" stop-color="#2D23F4"/>
</linearGradient>
<linearGradient id="paint3_linear_6252_23487" x1="0" y1="0" x2="0" y2="1" gradientUnits="objectBoundingBox">
<stop stop-color="#ED3040"/>
<stop offset="1" stop-color="#2D23F4"/>
</linearGradient>
<linearGradient id="paint4_linear_6252_23487" x1="0" y1="0" x2="0" y2="1" gradientUnits="objectBoundingBox">
<stop stop-color="#ED3040"/>
<stop offset="1" stop-color="#2D23F4"/>
</linearGradient>
<linearGradient id="paint5_linear_6252_23487" x1="0" y1="0" x2="0" y2="1" gradientUnits="objectBoundingBox">
<stop stop-color="#ED3040"/>
<stop offset="1" stop-color="#2D23F4"/>
</linearGradient>
<linearGradient id="paint6_linear_6252_23487" x1="0" y1="0" x2="0" y2="1" gradientUnits="objectBoundingBox">
<stop stop-color="#ED3040"/>
<stop offset="1" stop-color="#2D23F4"/>
</linearGradient>
<linearGradient id="paint7_linear_6252_23487" x1="0" y1="0" x2="0" y2="1" gradientUnits="objectBoundingBox">
<stop stop-color="#ED3040"/>
<stop offset="1" stop-color="#2D23F4"/>
</linearGradient>
<linearGradient id="paint8_linear_6252_23487" x1="0" y1="0" x2="0" y2="1" gradientUnits="objectBoundingBox">
<stop stop-color="#ED3040"/>
<stop offset="1" stop-color="#2D23F4"/>
</linearGradient>
<linearGradient id="paint9_linear_6252_23487" x1="0" y1="0" x2="0" y2="1" gradientUnits="objectBoundingBox">
<stop stop-color="#ED3040"/>
<stop offset="1" stop-color="#2D23F4"/>
</linearGradient>
<linearGradient id="paint10_linear_6252_23487" x1="0" y1="0" x2="0" y2="1" gradientUnits="objectBoundingBox">
<stop stop-color="#ED3040"/>
<stop offset="1" stop-color="#2D23F4"/>
</linearGradient>
<linearGradient id="paint11_linear_6252_23487" x1="0" y1="0" x2="0" y2="1" gradientUnits="objectBoundingBox">
<stop stop-color="#ED3040"/>
<stop offset="1" stop-color="#2D23F4"/>
</linearGradient>
<linearGradient id="paint12_linear_6252_23487" x1="0" y1="0" x2="0" y2="1" gradientUnits="objectBoundingBox">
<stop stop-color="#ED3040"/>
<stop offset="1" stop-color="#2D23F4"/>
</linearGradient>
<linearGradient id="paint13_linear_6252_23487" x1="0" y1="0" x2="0" y2="1" gradientUnits="objectBoundingBox">
<stop stop-color="#ED3040"/>
<stop offset="1" stop-color="#2D23F4"/>
</linearGradient>
<linearGradient id="paint14_linear_6252_23487" x1="0" y1="0" x2="0" y2="1" gradientUnits="objectBoundingBox">
<stop stop-color="#ED3040"/>
<stop offset="1" stop-color="#2D23F4"/>
</linearGradient>
<linearGradient id="paint15_linear_6252_23487" x1="0" y1="0" x2="0" y2="1" gradientUnits="objectBoundingBox">
<stop stop-color="#ED3040"/>
<stop offset="1" stop-color="#2D23F4"/>
</linearGradient>
</defs>
</svg>
