<svg width="50" height="50" viewBox="0 0 50 50" fill="none" xmlns="http://www.w3.org/2000/svg">
<path d="M11.7015 13.8291H13.7329C14.5376 10.11 20.0185 10.0966 20.853 13.8185L23.4218 13.8345C24.3622 10.1366 29.7413 10.0593 30.5935 13.8278H38.3135V6.99578C38.3135 6.89717 38.7206 6.12295 38.821 5.99769C39.5605 5.07956 41.3355 5.16484 42.4306 5.24479C43.5257 5.32475 44.2652 5.95904 44.5 7.00377L44.4606 43.456C44.154 44.2049 43.4836 44.8725 42.6341 44.9538C41.7847 45.035 39.9174 45.059 39.2335 44.5926C38.9214 44.3808 38.3121 43.5506 38.3121 43.2028V36.1709H36.6864C35.9876 39.4516 31.4606 40.01 29.8621 37.037C29.7698 36.8664 29.5595 36.1775 29.5147 36.1642C29.4306 36.1415 28.6069 36.1495 28.5702 36.1802C28.5404 36.2055 28.4346 36.7252 28.3436 36.9051C26.7804 40.018 22.2046 39.5142 21.4501 36.1695H11.7015V43.0016C11.7015 43.1002 11.2944 43.8744 11.1939 43.9996C10.4544 44.9178 8.67944 44.8325 7.58434 44.7525C6.48925 44.6726 5.74969 44.0383 5.51493 42.9936L5.5 6.89184C5.59363 5.95505 6.42547 5.13819 7.37944 5.04624C8.22891 4.96495 10.0961 4.94097 10.7801 5.40737C11.0922 5.61924 11.7015 6.44943 11.7015 6.79723V13.8291ZM9.97401 42.8057V6.89583C9.97401 6.56669 7.99823 6.60667 7.69426 6.65331C7.32651 6.71061 7.14332 6.93181 7.12704 7.29294L7.12432 42.4099C7.12975 42.6764 7.17589 42.9989 7.48392 43.0535C7.77161 43.1055 9.32944 43.1042 9.61441 43.0509C9.73382 43.0282 9.94415 42.903 9.97265 42.8043L9.97401 42.8057ZM40.0409 7.19566V43.1042C40.0409 43.4333 42.0167 43.3933 42.3207 43.3467C42.6884 43.2894 42.8716 43.0682 42.8879 42.7071L42.8906 7.5901C42.8852 7.32359 42.839 7.00111 42.531 6.94647C42.2433 6.8945 40.6855 6.89583 40.4005 6.94914C40.2811 6.97179 40.0708 7.09705 40.0423 7.19566H40.0409ZM17.0629 12.6552C14.5389 12.927 14.847 16.6822 17.3343 16.6249C20.0497 16.5622 19.8176 12.3593 17.0629 12.6552ZM26.8143 12.6552C24.2903 12.927 24.5983 16.6822 27.0857 16.6249C29.801 16.5622 29.569 12.3593 26.8143 12.6552ZM13.7329 15.4242H11.7015V24.1019H14.1386C14.965 20.3254 20.4052 20.3867 21.3008 24.1019L21.9183 22.9132C23.3513 20.7158 26.741 20.7478 28.1374 22.9718L28.7127 24.1019C29.6097 20.384 35.0513 20.3267 35.8749 24.1019H38.3121V15.4242H30.5922C29.7386 19.194 24.3609 19.1154 23.4205 15.4176L20.8517 15.4335C20.0171 19.1567 14.5362 19.1421 13.7315 15.4229L13.7329 15.4242ZM19.0808 23.4396C16.9992 21.538 14.2282 24.9374 16.5256 26.4978C18.5692 27.8863 20.8707 25.0746 19.0808 23.4396ZM26.395 23.4396C24.3134 21.538 21.5424 24.9374 23.8398 26.4978C25.8834 27.8863 28.1849 25.0746 26.395 23.4396ZM33.7078 23.4396C31.6262 21.538 28.8552 24.9374 31.1526 26.4978C33.1962 27.8863 35.4977 25.0746 33.7078 23.4396ZM14.1386 25.6983H11.7015V34.5758H21.4528C22.2073 31.2311 26.7844 30.7273 28.3463 33.8402C28.4373 34.0201 28.5431 34.5411 28.573 34.5651C28.6082 34.5958 29.4333 34.6038 29.5174 34.5811C29.5636 34.5691 29.7739 33.8802 29.8648 33.7083C31.4634 30.7353 35.9903 31.2937 36.6891 34.5744H38.3148V25.6969H35.8777C35.0336 29.0856 30.5474 29.5227 28.9516 26.3645C28.8756 26.2153 28.7697 25.7143 28.7155 25.6969C28.4875 25.6196 28.4549 26.4525 28.2771 26.5631C26.8129 29.1429 23.2739 29.1403 21.7771 26.6257C21.5817 26.5138 21.5261 25.621 21.3008 25.6969C21.2601 25.7103 21.0824 26.3486 20.9982 26.4991C19.3291 29.54 14.942 28.9963 14.1386 25.6969V25.6983ZM24.7829 33.4031C22.2589 33.675 22.5669 37.4301 25.0543 37.3728C27.7696 37.3102 27.5376 33.1073 24.7829 33.4031ZM32.9086 33.4031C30.3846 33.675 30.6926 37.4301 33.18 37.3728C35.8953 37.3102 35.6633 33.1073 32.9086 33.4031Z" fill="url(#paint0_linear_6252_23453)"/>
<defs>
<linearGradient id="paint0_linear_6252_23453" x1="37.3459" y1="33.6397" x2="37.3459" y2="41.6506" gradientUnits="userSpaceOnUse">
<stop stop-color="#ED3040"/>
<stop offset="1" stop-color="#2D23F4"/>
</linearGradient>
</defs>
</svg>
