<svg width="50" height="50" viewBox="0 0 50 50" fill="none" xmlns="http://www.w3.org/2000/svg">
<path d="M24.8871 43.098C26.1328 42.8231 26.3653 44.762 25.1959 44.9048C24.0265 45.0475 23.8456 43.3274 24.8871 43.098Z" fill="url(#paint0_linear_6252_23467)"/>
<path d="M2.5 16.6292C2.93443 15.8616 3.59546 16.1775 4.29994 16.1027C8.55615 15.6463 11.2555 11.6327 15.244 10.4976C15.3438 10.3865 14.6616 9.80724 14.5548 9.65161C13.6554 8.33051 14.0628 6.38572 15.3907 5.51981C18.0525 3.78331 21.2215 6.72624 19.6528 9.50534C19.499 9.77799 19.0153 10.2273 19.0364 10.4309L24.8918 24.8378L25.0867 24.9502L30.9632 10.4309C30.9843 10.2273 30.5006 9.77799 30.3468 9.50534C29.0059 7.12994 31.1804 4.40583 33.7729 5.12781C35.6762 5.65789 36.5626 8.09063 35.4096 9.70427C35.3087 9.84469 34.65 10.3794 34.7556 10.4976C38.4718 11.4981 41.211 15.3163 45.021 15.9903C46.201 16.1986 47.9517 15.6943 47.3928 17.5291C46.4359 20.6698 44.5033 23.945 43.4747 27.1138C43.1295 27.7878 41.892 27.638 41.2274 27.5666C39.539 27.3864 37.9399 26.5673 36.5215 25.6874C33.9842 24.1135 31.5421 21.5872 28.3555 21.6363L26.0495 27.2706L26.0084 27.5783L28.3531 33.3472C29.8666 33.3366 31.2192 33.2079 32.2982 34.4518C32.6493 34.8555 33.0872 35.7682 33.0872 36.2936V38.1764H35.3286C36.2679 38.1764 37.4644 39.2377 37.8119 40.0814C38.1794 40.9719 38.1876 42.8523 38.1007 43.8306C38.035 44.5783 37.7555 44.8591 37.0018 44.9258C34.3858 45.1563 31.4106 44.7632 28.757 44.9012C28.0173 44.7678 27.6874 43.813 28.2592 43.3087C28.3038 43.2689 28.6255 43.0828 28.6478 43.0828H36.2503V41.0245C36.2503 40.7098 35.7032 40.1364 35.3744 40.058L14.8483 40.0147C14.4256 39.9983 13.7517 40.6524 13.7517 41.0245V43.0828H21.3541C21.3835 43.0828 21.798 43.3566 21.8402 43.4105C22.2629 43.9616 21.9318 44.7772 21.2461 44.9012C18.5926 44.7632 15.6185 45.1563 13.0014 44.9258C12.2476 44.8591 11.9693 44.5783 11.9024 43.8306C11.8144 42.8371 11.8249 40.9906 12.1913 40.0814C12.5317 39.2354 13.7364 38.1776 14.6745 38.1776H16.9159V36.207C16.9159 35.9484 17.2529 35.1129 17.4067 34.8567C18.3472 33.2863 20.0109 33.2922 21.65 33.3483L23.9948 27.5795L23.9783 27.3373L21.6477 21.6375C18.4634 21.5989 16.0166 24.1147 13.4816 25.6885C12.0633 26.5685 10.4641 27.3876 8.77571 27.5678C8.11116 27.6392 6.87245 27.789 6.52843 27.1138L2.5 17.3301V16.6292ZM16.8032 6.83857C15.4354 7.07377 15.6573 9.34152 17.2118 9.1777C18.7664 9.01388 18.5163 6.54486 16.8032 6.83857ZM32.7115 6.83974C31.2802 7.06558 31.5186 9.32163 33.0308 9.18004C34.6288 9.03143 34.3729 6.57763 32.7115 6.83974ZM17.6897 11.9135C14.8624 11.8456 12.6773 13.884 10.4723 15.3339C8.70527 16.4958 6.86423 17.6519 4.69679 17.8555L7.94443 25.7857C12.918 25.5774 15.8874 20.2111 20.8681 19.8682L17.6897 11.9123V11.9135ZM45.3017 17.8555C40.2917 17.4167 37.3493 12.1429 32.3534 11.896L29.1304 19.8694C34.0852 20.2485 36.9853 25.3925 41.9166 25.8313L45.3017 17.8555ZM23.5932 33.3589H26.4052L24.9564 29.942L23.5932 33.3589ZM31.2391 38.1764V36.2059C31.2391 35.7074 30.5264 35.2393 30.0568 35.1937C26.8408 34.8824 23.1247 35.4371 19.8548 35.196C19.4321 35.1796 18.7582 35.8337 18.7582 36.2059V38.1764H31.2391Z" fill="url(#paint1_linear_6252_23467)"/>
<defs>
<linearGradient id="paint0_linear_6252_23467" x1="39.2452" y1="33.6397" x2="39.2452" y2="41.6506" gradientUnits="userSpaceOnUse">
<stop stop-color="#ED3040"/>
<stop offset="1" stop-color="#2D23F4"/>
</linearGradient>
<linearGradient id="paint1_linear_6252_23467" x1="39.2452" y1="33.6397" x2="39.2452" y2="41.6506" gradientUnits="userSpaceOnUse">
<stop stop-color="#ED3040"/>
<stop offset="1" stop-color="#2D23F4"/>
</linearGradient>
</defs>
</svg>
