<svg width="50" height="50" viewBox="0 0 50 50" fill="none" xmlns="http://www.w3.org/2000/svg">
<path d="M39.9144 19.8005C40.1037 19.8467 40.0498 19.7642 40.1026 19.6972C41.0118 18.5302 42.3294 15.543 42.8203 14.1011C45.9551 4.89532 39.5248 5.31986 33.2662 8.26087C32.8798 8.44235 31.6239 9.21335 31.3663 9.25184C31.2486 9.26944 31.2255 9.26504 31.1385 9.18255C31.0758 9.12316 30.4363 8.0794 30.7367 8.0387C32.3328 7.20611 33.9508 6.37242 35.669 5.8038C37.9243 5.057 41.276 4.38939 43.2925 6.01057C46.5252 8.60733 44.4306 14.287 42.9501 17.3611C42.632 18.021 40.511 21.4811 40.5022 21.7319C40.4824 22.2686 40.7884 23.3003 40.8236 23.9547C40.8588 24.6091 40.861 25.5154 40.8192 26.1808C40.7862 26.6999 40.4571 27.9307 40.5077 28.3046C40.5396 28.5466 42.3084 31.3435 42.5935 31.9022C44.2016 35.0467 46.7465 41.3291 43.2363 43.9918C40.7653 45.866 36.8368 44.6858 34.2315 43.6333C32.8589 43.079 31.5579 42.3685 30.2678 41.6524C30.2271 41.4116 30.8105 40.7473 30.8952 40.4635C32.8589 41.5106 34.849 42.5697 37.0119 43.1592C47.5093 46.0211 43.0536 34.7817 40.0366 30.1744L38.9392 32.5358C35.6371 38.652 28.5287 41.9461 21.6813 40.4833C18.2294 42.5444 12.443 45.954 8.31431 44.7485C2.28686 42.9888 5.9489 34.1426 8.15911 30.5923C8.31211 30.677 9.22129 31.1224 9.25211 31.1752C9.34016 31.3248 8.40347 32.9427 8.26037 33.2474C7.45906 34.9554 6.50145 37.3014 6.37597 39.1866C5.84213 47.2617 16.3616 42.2123 19.8101 40.0126C19.8464 39.83 19.7286 39.9103 19.6284 39.8696C8.10407 35.2205 5.23564 20.6012 15.0748 12.6405C16.6367 11.3768 17.9168 10.8917 19.6945 10.0943C19.7913 10.0503 19.8431 10.1328 19.809 9.92275C17.5448 8.70081 15.1827 7.34799 12.6588 6.73428C3.09807 4.40808 6.55759 14.1176 9.33796 18.7029C9.37098 18.9196 8.39246 19.2902 8.23176 19.4673C8.11178 19.4574 7.17838 17.6283 7.0496 17.3611C5.71775 14.5916 3.84985 9.5466 5.93349 6.80027C8.84925 2.95738 15.8894 6.18655 19.2058 8.01341C19.6119 8.23778 21.46 9.46081 21.6802 9.49381C21.9773 9.54 23.3356 9.20895 23.8067 9.18035C30.9844 8.74261 37.6536 12.9606 39.9144 19.8005ZM29.5733 11.8145C29.9266 11.743 30.4715 11.8662 30.8501 11.8145C30.8468 11.6913 30.619 11.6583 30.5166 11.6132C28.3108 10.6399 25.7384 10.4023 23.3532 10.5805C23.6119 10.8279 24.127 11.2943 24.4319 11.4362C25.1452 11.7661 25.9311 11.4054 26.3912 12.36C26.5122 12.6119 26.5387 13.0342 26.6432 13.1783C26.6906 13.2432 27.7659 14.1198 27.843 14.1198C28.0532 13.5303 28.9602 11.9366 29.5744 11.8134L29.5733 11.8145ZM15.7727 24.5761V23.341C15.2311 23.0264 13.995 22.3973 13.8343 21.7792C13.6736 21.1611 13.7111 19.7587 14.1634 19.3045C14.7336 18.7304 16.8007 18.6556 17.6659 18.3586C17.9972 18.2453 19.6736 17.4359 19.9135 17.2511C20.6565 16.6792 21.3345 14.7995 22.2987 14.4256C22.8821 14.199 24.0654 14.122 24.5321 13.858C24.6322 13.8008 24.8359 13.5303 24.8392 13.4236C24.4947 13.252 24.2206 12.8825 23.8485 12.7615C23.3257 12.591 22.5893 12.6691 22.0885 12.3798C21.6691 12.1379 21.4116 11.5054 21.2013 11.0853C21.0175 10.9676 19.1628 11.7364 18.8491 11.8838C15.2212 13.5809 12.1734 16.9915 11.1717 20.8949L12.9318 23.0946L15.7738 24.5761H15.7727ZM29.9607 13.1497C29.8969 13.1871 29.3983 14.0835 29.2915 14.2342C29.3047 14.3112 30.2414 14.9623 30.3548 14.9931C30.7764 15.1086 32.2777 14.4278 32.8666 14.4465C33.5072 14.4673 34.7565 15.4066 35.4433 15.5914C35.5611 15.6387 35.7725 15.4869 35.7901 15.3868C35.833 15.1394 33.6019 13.3136 33.2364 13.0925C32.6795 13.2784 30.2766 12.966 29.9607 13.1508V13.1497ZM29.7791 17.7427C28.6168 16.5516 27.3191 15.5067 26.0709 14.408C25.8056 14.2573 25.6625 14.7104 25.4137 14.904C24.7115 15.4506 23.3191 15.345 22.7313 15.7641C22.2206 16.1292 21.46 17.6261 20.924 18.1574C20.5629 18.5148 18.6587 19.4475 18.1216 19.6378C17.6571 19.8027 15.2069 20.1767 15.1233 20.3054C15.0935 20.3516 15.0935 21.2864 15.1299 21.348C15.1728 21.4217 16.3362 22.0849 16.5531 22.2719C16.6852 22.3863 17.0902 22.8284 17.0902 22.9692V24.41C18.1931 24.0152 19.2553 22.526 20.4705 23.4609C20.7941 23.7105 21.7748 24.8995 22.0093 24.9688C22.7291 25.1821 23.9861 24.7246 24.6972 25.1645C25.2673 25.5165 25.7219 26.7604 25.9883 26.9199C26.1743 27.0321 26.7379 26.9309 27.0109 26.9683C27.7153 27.0673 28.1842 27.7756 28.1116 28.4619C28.0719 28.8369 27.7032 30.2074 27.5073 30.4966C27.0989 31.1004 26.2943 31.1675 25.6702 31.4194C25.6064 31.845 25.7175 32.3455 25.6537 32.7612C25.5029 33.739 23.7671 34.1085 23.0626 34.6178C22.8436 35.6109 23.4523 37.1166 22.3923 37.7348C21.7198 38.1274 20.2085 37.7018 19.7935 37.0628C19.5195 36.6404 18.5442 33.7698 18.4463 33.2232C18.3032 32.4291 18.487 31.4898 18.3957 30.6803C17.7231 30.4944 15.9697 29.0525 15.8112 28.4465C15.6967 28.0099 15.864 25.9806 15.7716 25.8926C15.503 25.9223 15.2972 25.8354 15.0572 25.742C14.4408 25.5011 12.6214 24.6003 12.1194 24.2319C11.5636 23.8238 11.262 23.055 10.7469 22.5986C9.75073 27.9934 12.1459 33.5916 16.5696 36.7438C17.7627 37.594 19.3918 38.4728 20.8172 38.839C21.0671 38.9028 21.2597 39.0216 21.5139 38.9204C22.0753 38.6971 23.591 37.4719 24.1677 37.0386C27.0692 34.8575 30.029 32.2146 32.5001 29.5573C32.6652 29.3792 33.6305 28.331 33.6393 28.2232C33.6503 28.0879 32.9998 27.4544 32.9282 27.0662C32.805 26.3887 33.0603 25.1975 32.8919 24.6322C32.8721 24.564 32.2315 23.9041 32.1644 23.8733C31.8848 23.7446 30.9217 24.2319 30.5232 24.2901C30.0576 24.3583 28.0907 23.925 27.6339 23.7105C27.4181 23.6093 27.067 23.2761 26.9591 23.0671C26.8303 22.8174 26.3658 20.9565 26.3339 20.6397C26.2745 20.0469 27.1209 18.7964 27.5183 18.3245C27.6405 18.1794 28.0907 17.7416 28.2525 17.7416H29.7769L29.7791 17.7427ZM36.7752 16.512C36.4351 16.5791 36.2083 16.8573 35.8605 16.9453C34.904 17.1873 33.7042 16.1182 32.7818 15.8521L30.4396 16.4669C30.9228 17.0278 31.5171 17.4777 32.0477 17.9869C32.3867 18.3124 32.6112 18.7898 33.0834 19.0108C33.3828 19.1516 35.68 19.6422 36.0036 19.6389C36.4098 19.6345 37.4841 18.7612 37.943 18.5995C37.9992 18.2629 36.9161 16.9211 36.7763 16.512H36.7752ZM28.2271 22.5051C28.8325 22.4919 29.592 22.9208 30.1534 22.9329C30.8083 22.9461 31.6305 22.3071 32.3559 22.4545C32.7896 22.5425 33.975 23.6566 34.128 24.0581C34.412 24.8038 34.0851 25.9179 34.2293 26.6735C34.2634 26.8539 34.4978 27.0486 34.598 27.2092L36.3371 25.0732C36.3988 24.8544 35.7229 24.1021 35.5435 23.8788C34.6685 22.7877 33.5248 21.4382 32.5397 20.4594C32.2238 20.1448 31.0824 19.1802 30.7059 19.0812C30.5298 19.035 28.7302 19.0262 28.641 19.079C28.5243 19.4673 27.7858 20.191 27.7329 20.5198C27.7164 20.621 28.1402 22.4501 28.226 22.5073L28.2271 22.5051ZM38.5947 19.883C38.4714 19.7774 36.729 20.951 36.3096 21.017C35.7945 21.0984 35.2397 20.8256 34.7235 20.7893L37.2375 23.8337C37.3388 23.881 37.5248 23.5389 37.593 23.4488C37.844 23.1155 38.8985 21.7253 38.9744 21.4481C39.0812 21.0599 38.598 20.3153 38.5947 19.883ZM39.418 26.6339C39.4972 25.5297 39.4972 24.4452 39.418 23.341C39.1901 23.5477 38.1819 24.8357 38.1995 25.0161L39.418 26.6339ZM21.7044 36.5139V34.2504C21.7044 34.2141 22.0269 33.695 22.0973 33.6312C22.4231 33.3375 24.2613 32.5731 24.3284 32.4665C24.5266 32.1497 24.0401 31.1224 24.7214 30.4295C25.1132 30.0314 26.2591 29.8928 26.3835 29.7432C26.4308 29.6871 26.739 28.4245 26.7335 28.3233C26.4066 28.2144 26.04 28.3266 25.7076 28.276C24.9206 28.155 24.4209 26.8605 23.9553 26.304C23.2343 26.2083 22.0005 26.4888 21.372 26.1863C20.9922 26.0037 19.7275 24.509 19.6064 24.5079C19.2828 24.8346 17.2531 25.8112 17.1331 26.0565C17.066 26.1951 17.0572 27.7976 17.1089 27.9747C17.1364 28.0681 17.9543 28.8809 18.0864 28.9744C18.6081 29.344 19.394 29.4595 19.6383 30.1414C19.897 30.8651 19.6185 31.9979 19.766 32.8129C19.9564 33.8666 20.6752 35.1248 20.8965 36.2115C20.9416 36.3599 21.668 36.5546 21.7066 36.5128L21.7044 36.5139ZM37.3575 26.1401C37.232 26.1093 37.2254 26.1588 37.1582 26.227C36.5716 26.8165 36.0322 27.6898 35.461 28.3211C35.6525 28.7336 36.1016 29.0283 36.1863 29.4925C36.3096 30.17 36.0542 31.3611 36.2226 31.9264C36.2568 32.0408 37.0614 32.8294 37.1505 32.8074C37.7482 31.9473 38.2446 30.9542 38.5969 29.9687C38.6959 29.6915 39.0063 28.8787 38.9975 28.6467C38.981 28.177 37.5479 26.7043 37.3575 26.1401ZM23.3521 39.3944C25.8089 39.599 28.2337 39.2922 30.5177 38.3639C32.0213 37.7524 33.6074 36.746 34.806 35.6505C35.0526 35.4251 36.3195 34.1602 36.2755 33.9326C36.2469 33.7874 35.308 33.0021 35.1352 32.7678C34.6046 32.0474 35.0471 30.7298 34.8853 29.8884C34.8501 29.7047 34.6387 29.5617 34.5584 29.3902C34.4835 29.3341 34.2117 29.6475 34.1434 29.719C32.5155 31.4447 30.893 33.1616 29.1209 34.7443C27.2761 36.3918 25.2839 37.8535 23.3521 39.3933V39.3944Z" fill="url(#paint0_linear_6252_23489)"/>
<defs>
<linearGradient id="paint0_linear_6252_23489" x1="37.6624" y1="33.6397" x2="37.6624" y2="41.6506" gradientUnits="userSpaceOnUse">
<stop stop-color="#ED3040"/>
<stop offset="1" stop-color="#2D23F4"/>
</linearGradient>
</defs>
</svg>
