<svg width="50" height="50" viewBox="0 0 50 50" fill="none" xmlns="http://www.w3.org/2000/svg">
<path d="M16.9724 13.0098C14.5 10.499 15.6146 6.01475 19.0685 5.15928C23.7892 3.99009 26.8768 9.52564 23.6216 13.0098C25.3447 12.9442 27.0788 14.0477 27.8216 15.5885C27.9337 15.821 28.2745 16.7599 28.2745 16.9657V24.3357H34.0089L33.2195 22.0062C32.61 22.667 31.6419 24.7606 30.8714 23.0252C30.5638 22.3321 29.7345 19.9704 29.6246 19.2774C29.5513 18.8135 29.6512 18.749 29.8699 18.3974C30.1897 17.8835 31.3243 16.2982 31.7218 15.9222C32.207 15.4628 32.7654 15.6419 32.9697 16.2604L34.8426 22.5035L35.0158 22.3867C35.7408 20.461 36.1094 18.1382 36.8799 16.2604C37.1175 15.6797 37.5483 15.455 38.0867 15.8799L40.205 18.7523V19.343L38.7851 23.4157C37.7881 24.3245 37.2407 22.5368 36.6279 22.0051L35.8385 24.3346H37.1264C37.4006 24.3346 37.566 24.8007 37.5871 25.0387C37.8924 28.425 37.3484 32.2685 37.5849 35.7027C37.6338 35.9074 37.284 36.3256 37.1264 36.3256H35.5887V44.5277C35.5887 44.7179 35.1124 45.065 34.8859 44.9894H15.0162C14.7897 45.065 14.3134 44.7179 14.3134 44.5277V36.3256H12.7758C12.6181 36.3256 12.2673 35.9074 12.3173 35.7027C12.5537 32.2685 12.0097 28.4239 12.315 25.0387C12.3361 24.8007 12.5016 24.3346 12.7758 24.3346H15.6424V17.6732H10.1157C10.0124 17.6732 9.63384 17.2783 9.53281 17.1748C8.2505 15.8588 6.5574 13.9131 5.42275 12.467C5.16407 12.1377 4.89428 11.884 5.04194 11.4246C5.08968 11.2755 6.98817 9.33318 7.20688 9.18078C7.54106 8.94828 7.85748 8.92937 8.1639 9.22083L11.9431 13.0109H16.9713L16.9724 13.0098ZM20.0311 6.37296C15.3726 6.75119 16.4784 14.0344 21.1313 12.8875C24.9583 11.9441 24.0557 6.0459 20.0311 6.37296ZM26.9456 24.3346V17.3818C26.9456 15.8532 25.1726 14.298 23.666 14.3392L11.4002 14.3058L7.69538 10.6837C7.60434 10.6681 6.63179 11.5648 6.67731 11.785L10.6586 16.2971L16.3518 16.3383C16.5561 16.2893 16.9735 16.6397 16.9735 16.7977V24.3334H18.3036V18.7957C18.3036 18.6677 19.2784 16.7688 19.4238 16.504C19.476 16.4095 19.6936 16.0223 19.7558 16.0168C19.9678 16.197 20.8749 16.4562 20.8804 16.7098C20.8871 17.0302 19.8313 18.7178 19.6337 19.1283V24.3323H23.6227V17.0046H24.9527V24.3323H26.9467L26.9456 24.3346ZM31.9305 21.5034L32.7432 20.2841L31.9738 17.8379C31.8717 18.1249 31.0701 18.9225 31.0512 19.1294C31.0412 19.2429 31.6618 21.0784 31.7618 21.2987C31.7984 21.381 31.8184 21.4934 31.9316 21.5023L31.9305 21.5034ZM37.9158 21.5034C38.029 21.4945 38.0479 21.3821 38.0856 21.2998C38.1855 21.0795 38.8062 19.244 38.7962 19.1305C38.7773 18.9236 37.9757 18.126 37.8736 17.839L37.1042 20.2852L37.9169 21.5045L37.9158 21.5034ZM36.2526 25.6662H13.6484V34.9929H36.2526V25.6662ZM19.6325 36.3256H15.6435V43.6533H34.2587V36.3256H30.2696V41.8634C30.2696 42.1504 29.609 42.4541 29.3326 42.3028L24.9772 40.4272L20.5685 42.3028C20.292 42.453 19.6314 42.1504 19.6314 41.8634V36.3256H19.6325ZM28.9396 36.3256H20.9615V40.573C21.0536 40.5885 21.128 40.5618 21.2135 40.5351C22.2693 40.1992 23.6038 39.297 24.6152 39.0311C24.8351 38.9733 25.0671 38.9588 25.2858 39.0311L28.9396 40.5741V36.3256Z" fill="url(#paint0_linear_6252_23499)"/>
<path d="M24.3488 27.0211C28.1435 26.5038 29.7922 31.3574 26.6381 33.2286C23.9025 34.8516 20.7017 32.0305 21.8352 29.0825C22.2083 28.1147 23.3118 27.1624 24.3488 27.0211ZM24.7662 28.3505C21.7553 28.6687 22.9543 33.3654 25.7821 32.1206C27.7849 31.2384 26.9212 28.1236 24.7662 28.3505Z" fill="url(#paint1_linear_6252_23499)"/>
<path d="M31.8273 5.0358L43.1127 5.01244C44.052 5.09698 44.8158 5.8579 44.8991 6.80236C45.0212 8.17513 45.0467 11.2889 44.8957 12.6349C44.7958 13.5216 43.9998 14.2747 43.1116 14.3448H28.3112C27.735 14.3637 27.4319 13.8019 27.7028 13.3113L30.2507 10.7026C30.5649 8.81812 29.3448 5.7155 31.825 5.0358H31.8273ZM43.0261 13.0098C43.3081 13.0098 43.5457 12.487 43.5701 12.2222C43.7189 10.5825 43.4491 8.71911 43.5679 7.05378C43.5135 6.59545 43.2204 6.38408 42.7808 6.34404C39.4834 6.04145 35.7308 6.5821 32.3846 6.34404C32.026 6.31956 31.6607 6.61436 31.6041 6.97702C31.4032 8.25077 31.774 9.94614 31.5619 11.2655L29.9366 13.0098H43.0261Z" fill="url(#paint2_linear_6252_23499)"/>
<path d="M42.2368 7.68009H32.9286V9.0128H42.2368V7.68009Z" fill="url(#paint3_linear_6252_23499)"/>
<path d="M42.2368 10.3444H32.9286V11.6771H42.2368V10.3444Z" fill="url(#paint4_linear_6252_23499)"/>
<defs>
<linearGradient id="paint0_linear_6252_23499" x1="0" y1="0" x2="0" y2="1" gradientUnits="objectBoundingBox">
<stop stop-color="#ED3040"/>
<stop offset="1" stop-color="#2D23F4"/>
</linearGradient>
<linearGradient id="paint1_linear_6252_23499" x1="0" y1="0" x2="0" y2="1" gradientUnits="objectBoundingBox">
<stop stop-color="#ED3040"/>
<stop offset="1" stop-color="#2D23F4"/>
</linearGradient>
<linearGradient id="paint2_linear_6252_23499" x1="0" y1="0" x2="0" y2="1" gradientUnits="objectBoundingBox">
<stop stop-color="#ED3040"/>
<stop offset="1" stop-color="#2D23F4"/>
</linearGradient>
<linearGradient id="paint3_linear_6252_23499" x1="0" y1="0" x2="0" y2="1" gradientUnits="objectBoundingBox">
<stop stop-color="#ED3040"/>
<stop offset="1" stop-color="#2D23F4"/>
</linearGradient>
<linearGradient id="paint4_linear_6252_23499" x1="0" y1="0" x2="0" y2="1" gradientUnits="objectBoundingBox">
<stop stop-color="#ED3040"/>
<stop offset="1" stop-color="#2D23F4"/>
</linearGradient>
</defs>
</svg>
