<svg width="50" height="50" viewBox="0 0 50 50" fill="none" xmlns="http://www.w3.org/2000/svg">
<path d="M1.08205 9.13303C1.35597 6.99229 3.59484 5.12742 5.71865 5.02382C15.7173 5.1087 25.7497 4.84532 35.7283 5.15738C38.2824 5.78899 39.7683 8.14068 39.5619 10.722C39.6957 10.8556 42.8039 10.6496 43.358 10.717C44.0822 10.8044 44.2573 12.1163 44.6025 12.7454C45.0891 13.6317 46.0071 14.6215 46.8526 15.1708C47.3104 15.4679 48.7988 16.0071 48.9477 16.3504C49.1703 16.8659 48.6212 18.722 48.4486 19.3561C47.1303 24.2118 44.4737 29.0699 39.5619 30.996V35.3873H42.979C43.3117 35.3873 43.6444 35.8479 43.6832 36.1799C43.8083 37.2409 43.777 40.3615 43.5206 41.3476C43.0028 43.3323 41.1691 44.814 39.1291 45H13.9675C11.7086 44.9264 9.32086 42.6708 9.32086 40.3865V16.2343H1.59737C1.46228 16.2343 1.18211 15.881 1.08205 15.7674C1.27342 13.6929 0.824393 11.1514 1.08205 9.13303ZM9.32211 14.6465V9.27408C9.32211 9.14052 8.9081 8.28797 8.79929 8.11446C7.08949 5.36209 2.58047 6.75887 2.58047 9.6473V14.6465H9.32211ZM37.9709 10.722V9.3677C37.9709 8.32542 36.2624 6.61158 35.2092 6.61158H9.60228C10.339 7.46663 10.8105 8.50766 10.9168 9.64481C10.9881 20.0976 10.7555 30.5816 11.0344 41.0156C11.7186 43.2225 14.3089 44.1836 16.2414 42.8106C18.5378 41.1779 17.2995 38.3768 17.6597 36.0963C17.7048 35.8092 18.0812 35.3898 18.3564 35.3898H37.9709V30.9985C33.0667 29.0974 30.4226 24.2667 29.103 19.4323C28.9329 18.8081 28.3801 16.9171 28.5339 16.394C28.644 16.0233 30.1724 15.4953 30.6227 15.2095C31.8672 14.4193 32.6302 13.3458 33.2405 12.0289C33.3794 11.7306 33.5595 10.722 33.991 10.722H37.9709ZM34.8465 12.3223C34.2849 13.3983 33.7396 14.5229 32.8716 15.3967C32.1061 16.1681 31.123 16.6624 30.2112 17.2316C31.1705 22.2957 33.622 27.6395 38.6951 29.6741C43.1316 28.1026 45.5431 23.7849 46.7964 19.4834C46.9602 18.9217 47.2529 18.0193 47.3154 17.47C47.3329 17.3128 47.3655 17.2553 47.2416 17.1218C47.1291 17.0007 46.1284 16.5576 45.8445 16.3666C44.4437 15.4229 43.3092 13.9051 42.7314 12.326L34.8465 12.3223ZM42.0897 36.9775H19.2457V40.2005C19.2457 40.3178 19.1431 40.932 19.1106 41.093C18.9318 41.9705 18.4602 42.7207 17.9349 43.4235H39.328C40.3361 43.4235 42.0897 41.7745 42.0897 40.761V36.9763V36.9775Z" fill="url(#paint0_linear_6252_23507)"/>
<path d="M18.1012 9.06687C21.3182 8.6949 23.3194 12.0527 21.6872 14.7776C22.9455 15.5952 23.7084 16.8309 23.831 18.3388C23.9061 19.2588 24.0436 21.0313 22.8992 21.3296L14.5153 21.3758C13.237 21.2222 13.2883 19.6707 13.3433 18.707C13.4384 17.0356 14.1025 15.7088 15.4959 14.7738C14.9431 13.6804 14.7292 12.6343 15.1482 11.4435C15.5672 10.2527 16.7979 9.21666 18.1025 9.06562L18.1012 9.06687ZM18.0975 10.6509C15.7198 11.0516 16.0412 15.0871 18.8129 14.8238C21.6234 14.5566 21.2394 10.1216 18.0975 10.6509ZM22.2413 19.7855V18.0567C22.2413 17.3752 21.0556 15.881 20.3314 15.9547C20.0862 15.9796 19.6722 16.2418 19.3633 16.3054C18.9443 16.3916 18.2351 16.3916 17.8161 16.3054C16.9981 16.1369 16.9355 15.6551 16.0675 16.2879C15.636 16.6025 14.9381 17.6286 14.9381 18.1503V19.7855H22.2413Z" fill="url(#paint1_linear_6252_23507)"/>
<path d="M13.8812 31.484L33.7121 31.4628C34.6226 31.5577 34.6139 32.8721 33.7121 32.9607L13.8174 32.9095C13.2157 32.4776 13.252 31.8635 13.8812 31.4828V31.484Z" fill="url(#paint2_linear_6252_23507)"/>
<path d="M13.8812 27.466L30.5289 27.4447C31.4757 27.5383 31.477 28.8503 30.5289 28.9439L13.8174 28.8927C13.2157 28.4608 13.252 27.8467 13.8812 27.466Z" fill="url(#paint3_linear_6252_23507)"/>
<path d="M13.8812 23.4491L28.5114 23.4791C29.0442 23.8248 29.0492 24.5251 28.5114 24.8759H13.8161C13.2145 24.444 13.2508 23.8298 13.8799 23.4491H13.8812Z" fill="url(#paint4_linear_6252_23507)"/>
<path d="M45.8958 17.5761C46.3423 18.0667 45.9183 18.9604 45.7432 19.5533C44.7964 22.7788 42.9715 26.1753 40.0222 27.9528C39.0453 28.5419 38.924 28.7641 37.8484 28.1762C34.9503 26.5897 33.0629 23.3842 32.0285 20.3422C31.8497 19.8142 31.3331 18.35 31.4357 17.8907C31.527 17.4863 32.5051 17.0007 32.8641 16.6999C33.223 16.399 33.7433 15.8823 34.0398 15.5365C34.6526 14.8225 35.0104 13.95 35.6533 13.3159C37.6845 13.1798 39.767 13.2347 41.8133 13.2872C42.211 13.4083 42.6663 14.4618 42.949 14.8637C43.5856 15.7687 44.3261 16.434 45.1854 17.1168C45.3742 17.2678 45.7207 17.3852 45.8945 17.5761H45.8958ZM41.1354 14.8525L36.4412 14.8475C35.5494 16.2443 34.4938 17.5299 33.0967 18.4449C33.7821 20.9601 34.9466 23.7774 36.8928 25.5811C37.1617 25.8295 38.5751 26.9367 38.8377 26.873C38.9265 26.8518 39.3555 26.5597 39.4819 26.4786C42.1285 24.7785 43.5931 21.4307 44.4337 18.5161L44.4199 18.3987C43.0378 17.5599 41.9259 16.2468 41.1366 14.8537L41.1354 14.8525Z" fill="url(#paint5_linear_6252_23507)"/>
<path d="M41.2229 18.4998C41.9634 18.3014 42.5738 19.1065 42.0735 19.7231L38.2561 23.4803C37.9459 23.5752 37.6845 23.549 37.4118 23.378C37.1392 23.207 35.7984 21.8451 35.5795 21.5618C35.2755 21.1698 35.0829 20.6818 35.5382 20.301C36.3574 19.617 37.3593 21.206 37.9222 21.6504C38.151 21.6504 40.6063 18.6634 41.2217 18.4986L41.2229 18.4998Z" fill="url(#paint6_linear_6252_23507)"/>
<defs>
<linearGradient id="paint0_linear_6252_23507" x1="40.1949" y1="33.6397" x2="40.1949" y2="41.6506" gradientUnits="userSpaceOnUse">
<stop stop-color="#ED3040"/>
<stop offset="1" stop-color="#2D23F4"/>
</linearGradient>
<linearGradient id="paint1_linear_6252_23507" x1="40.1949" y1="33.6397" x2="40.1949" y2="41.6506" gradientUnits="userSpaceOnUse">
<stop stop-color="#ED3040"/>
<stop offset="1" stop-color="#2D23F4"/>
</linearGradient>
<linearGradient id="paint2_linear_6252_23507" x1="40.1949" y1="33.6397" x2="40.1949" y2="41.6506" gradientUnits="userSpaceOnUse">
<stop stop-color="#ED3040"/>
<stop offset="1" stop-color="#2D23F4"/>
</linearGradient>
<linearGradient id="paint3_linear_6252_23507" x1="40.1949" y1="33.6397" x2="40.1949" y2="41.6506" gradientUnits="userSpaceOnUse">
<stop stop-color="#ED3040"/>
<stop offset="1" stop-color="#2D23F4"/>
</linearGradient>
<linearGradient id="paint4_linear_6252_23507" x1="40.1949" y1="33.6397" x2="40.1949" y2="41.6506" gradientUnits="userSpaceOnUse">
<stop stop-color="#ED3040"/>
<stop offset="1" stop-color="#2D23F4"/>
</linearGradient>
<linearGradient id="paint5_linear_6252_23507" x1="40.1949" y1="33.6397" x2="40.1949" y2="41.6506" gradientUnits="userSpaceOnUse">
<stop stop-color="#ED3040"/>
<stop offset="1" stop-color="#2D23F4"/>
</linearGradient>
<linearGradient id="paint6_linear_6252_23507" x1="40.1949" y1="33.6397" x2="40.1949" y2="41.6506" gradientUnits="userSpaceOnUse">
<stop stop-color="#ED3040"/>
<stop offset="1" stop-color="#2D23F4"/>
</linearGradient>
</defs>
</svg>
