<svg width="50" height="50" viewBox="0 0 50 50" fill="none" xmlns="http://www.w3.org/2000/svg">
<path d="M6.57318 5.08569C8.42352 5.20293 10.6224 4.86305 12.433 5.06633C13.2516 5.15883 13.9918 5.8999 14.0843 6.71733C14.2306 8.01877 14.2058 11.0282 14.0875 12.3565C14.0111 13.2181 13.3011 13.9871 12.434 14.085C11.1323 14.2312 8.1223 14.2065 6.79372 14.0882C5.93202 14.0118 5.16284 13.302 5.06494 12.435C4.8627 10.641 5.21017 8.47911 5.07247 6.64527C5.24029 5.85257 5.79109 5.28575 6.57318 5.08569ZM6.89269 6.371C6.60546 6.4678 6.36448 6.72163 6.3505 7.03677C6.4925 8.63937 6.16762 10.5474 6.3505 12.1124C6.40321 12.562 6.69475 12.7599 7.11322 12.7986C8.69785 12.9449 10.5019 12.6803 12.1113 12.7964C12.561 12.7437 12.7589 12.4523 12.7976 12.0339C12.9439 10.4495 12.6793 8.64582 12.7955 7.03677C12.7621 6.65279 12.4771 6.39573 12.1113 6.35271C10.5138 6.16341 8.5311 6.48393 6.89269 6.37207V6.371Z" fill="url(#paint0_linear_6252_23469)"/>
<path d="M16.8802 5.08569C18.7306 5.20293 20.9295 4.86305 22.74 5.06633C23.5587 5.15883 24.2988 5.8999 24.3913 6.71733C24.5376 8.01877 24.5129 11.0282 24.3945 12.3565C24.3182 13.2181 23.6081 13.9871 22.7411 14.085C21.4394 14.2312 18.4293 14.2065 17.1008 14.0882C16.2391 14.0118 15.4699 13.302 15.372 12.435C15.1697 10.641 15.5172 8.47911 15.3795 6.64527C15.5484 5.85365 16.1003 5.28682 16.8813 5.08784L16.8802 5.08569ZM17.2008 6.371C16.9136 6.4678 16.6726 6.72163 16.6586 7.03677C16.8006 8.63937 16.4757 10.5474 16.6586 12.1124C16.7113 12.562 17.0029 12.7599 17.4213 12.7986C19.006 12.9449 20.81 12.6803 22.4194 12.7964C22.8691 12.7437 23.067 12.4523 23.1058 12.0339C23.2521 10.4495 22.9874 8.64582 23.1036 7.03677C23.0702 6.65279 22.7852 6.39573 22.4194 6.35271C20.8219 6.16341 18.8392 6.48393 17.2008 6.37207V6.371Z" fill="url(#paint1_linear_6252_23469)"/>
<path d="M6.57318 15.3907C8.42352 15.5079 10.6224 15.1681 12.433 15.3713C13.2516 15.4638 13.9918 16.2049 14.0843 17.0223C14.2306 18.3238 14.2058 21.3332 14.0875 22.6615C14.0111 23.5231 13.3011 24.2921 12.434 24.39C11.1323 24.5363 8.1223 24.5115 6.79372 24.3932C5.93202 24.3168 5.16284 23.607 5.06494 22.7401C4.8627 20.946 5.21017 18.7841 5.07247 16.9503C5.24137 16.1587 5.79324 15.5918 6.57426 15.3929L6.57318 15.3907ZM6.89269 16.6771C6.60546 16.7739 6.36448 17.0277 6.3505 17.3429C6.4925 18.9455 6.16762 20.8535 6.3505 22.4185C6.40321 22.868 6.69475 23.066 7.11322 23.1047C8.69785 23.2509 10.5019 22.9864 12.1113 23.1025C12.561 23.0498 12.7589 22.7583 12.7976 22.3399C12.9439 20.7556 12.6793 18.9519 12.7955 17.3429C12.7621 16.9589 12.4771 16.7018 12.1113 16.6588C10.5138 16.4695 8.5311 16.79 6.89269 16.6782V16.6771Z" fill="url(#paint2_linear_6252_23469)"/>
<path d="M21.8137 17.9484H17.9485V19.2369H21.8137V17.9484Z" fill="url(#paint3_linear_6252_23469)"/>
<path d="M8.08358 17.4665L9.54448 18.9089C9.6994 18.9358 10.829 17.6419 11.0635 17.4665L11.9876 18.3905L10.545 19.8511C10.5181 20.006 11.8122 21.1353 11.9876 21.3698L11.0635 22.2937L9.60258 20.8514C9.44766 20.8245 8.3181 22.1184 8.08358 22.2937L7.15948 21.3698L8.6021 19.9092C8.629 19.7543 7.33483 18.6249 7.15948 18.3905L8.08358 17.4665Z" fill="url(#paint4_linear_6252_23469)"/>
<path d="M41.1401 21.1687V29.059C46.2899 31.493 46.2834 39.1855 41.1401 41.6184V45H5.06387V36.3449L16.9813 24.4287C16.1874 24.1899 15.4699 23.6156 15.3709 22.739C15.1687 20.9449 15.5161 18.783 15.3784 16.9492C15.5559 16.1049 16.2218 15.4466 17.0997 15.3692C18.4982 15.2444 21.264 15.2444 22.6625 15.3692C23.5554 15.4488 24.2203 16.1242 24.3913 16.9825C24.4741 17.0471 24.9249 16.3168 25.1142 16.4544L30.2177 21.4849L35.6579 16.0457C35.6859 15.8865 34.5499 14.9282 34.3756 14.6873C33.7 13.7505 34.069 12.4931 35.1007 12.0317C37.5674 11.6596 40.3806 10.5044 42.8129 10.242C44.6418 10.0451 45.1657 11.2842 44.8849 12.8771C44.46 15.2928 43.6628 17.7645 43.1679 20.1781C42.7548 20.9837 42.0244 21.2762 41.139 21.1687H41.1401ZM43.1346 11.524C40.7894 12.25 38.0483 12.4877 35.7418 13.2363C35.5331 13.3041 35.347 13.3772 35.3481 13.6418C35.3503 14.0688 37.5524 15.808 37.5104 16.0457L30.2177 23.337L24.955 18.3066L6.71088 36.7063C6.75929 36.801 8.11155 38.1529 8.20622 38.2013C8.26861 38.2336 8.30519 38.2551 8.36543 38.2013L25.0056 21.5774L30.2177 26.6379L39.1273 17.743C39.2209 17.6677 39.2596 17.7344 39.3306 17.7828C39.9535 18.2108 40.6356 19.3036 41.2606 19.7209C41.8168 20.092 41.9276 19.6639 42.0524 19.223C42.7043 16.904 43.0518 14.4205 43.7005 12.0909C43.723 11.78 43.4304 11.5015 43.1346 11.5251V11.524ZM17.9485 20.5244H20.8875L23.0606 18.3496C23.1456 17.7161 23.2736 16.7588 22.4194 16.6588C20.81 16.775 19.006 16.5114 17.4213 16.6566C16.9953 16.6954 16.7113 16.8976 16.6586 17.3429C16.7748 18.9519 16.5112 20.7556 16.6565 22.3399C16.6866 22.6712 16.8447 23.0046 17.2008 23.0842C17.388 23.1262 18.1238 23.1359 18.2949 23.0842C18.5262 23.0154 19.3212 22.0345 19.56 21.8129H17.9495V20.5244H17.9485ZM39.8513 28.4943V20.1619C39.8513 20.1167 39.2596 19.5499 39.1779 19.5639C38.9832 19.8317 37.2748 21.316 37.2748 21.4504V23.7446H35.986L35.9462 22.7788C35.7096 23.1509 33.4096 25.1353 33.4096 25.315V27.6091H32.1208L32.081 26.6433L30.2177 28.489L29.5454 27.9307V28.8966H28.2566V26.6024C28.2566 26.4228 25.9555 24.4384 25.7199 24.0662L25.6801 25.0321H24.3913L24.3515 24.0662C24.1148 24.4384 21.8148 26.4228 21.8148 26.6024V28.8966H20.526L20.4862 27.9307C20.2496 28.3029 17.9495 30.2873 17.9495 30.4669V32.7611H16.6608L16.621 31.7953C16.3843 32.1674 14.0843 34.1518 14.0843 34.3314V36.6256H12.7955L12.7557 35.6598C12.519 36.0319 10.219 38.0163 10.219 38.196V40.4901H8.93022V39.5243L8.25678 40.0825L6.35372 38.2368V43.7115H8.93022V41.7798H10.219V43.7115H12.7955V37.9152H14.0843V43.7115H16.6608V34.0507H17.9495V43.7115H20.526V30.1862H21.8148V43.7115H24.3913V26.3217H25.6801V43.7115H28.2566V30.1862H29.5454V43.7115H32.1219V39.4038C32.1219 39.3748 31.8475 39.0564 31.7862 38.9349C30.4845 36.3492 30.4834 34.3293 31.7862 31.7426C31.8475 31.621 32.1219 31.3016 32.1219 31.2736V28.8988H33.4106C33.4225 29.1246 33.3945 29.358 33.4106 29.585C33.4171 29.6721 33.3665 29.8539 33.53 29.7839C33.6645 29.7269 34.0981 29.3344 34.3229 29.2074C34.8586 28.9052 35.4342 28.7181 35.9871 28.4567V25.0353H37.2759V28.2556C38.1494 28.2211 39.009 28.2642 39.8524 28.4976L39.8513 28.4943ZM37.5803 29.5656C33.6215 29.8065 31.0665 33.8937 32.5898 37.5668C34.3993 41.9293 40.5312 42.3563 42.8958 38.2616C45.2033 34.2637 42.1696 29.287 37.5803 29.5667V29.5656ZM35.986 43.7115V42.2218C35.4514 41.9669 34.8941 41.7873 34.3745 41.499C34.04 41.313 33.756 41.0398 33.4096 40.8935V43.7115H35.986ZM39.8513 42.182C39.0079 42.4143 38.1484 42.4584 37.2748 42.424V43.7125H39.8513V42.182Z" fill="url(#paint5_linear_6252_23469)"/>
<path d="M38.5636 30.8294V32.1577C38.5636 32.2126 39.2607 32.5998 39.4371 32.8138C39.7039 33.1397 39.8922 33.6248 39.8524 34.0496H38.5636C38.5195 34.0496 38.4722 33.499 38.0214 33.4183C37.5986 33.3419 37.1543 33.8453 37.3362 34.2701C37.5545 34.7789 38.0537 34.6444 38.4689 34.7488C39.8664 35.1016 40.3257 36.9838 39.3285 37.9938C39.2059 38.1185 38.5647 38.4713 38.5647 38.5176V39.8459H37.2759V38.5176C37.2759 38.4745 36.6832 38.1443 36.5605 38.026C36.2077 37.6851 35.9387 37.1247 35.9882 36.6256H37.277C37.3211 36.6256 37.3684 37.1763 37.8192 37.257C38.242 37.3334 38.6863 36.83 38.5045 36.4051C38.2861 35.8964 37.7869 36.0308 37.3717 35.9265C35.9376 35.564 35.5181 33.6571 36.5605 32.6493C36.6832 32.5299 37.2759 32.2007 37.2759 32.1577V30.8294H38.5647H38.5636Z" fill="url(#paint6_linear_6252_23469)"/>
<path d="M10.2179 7.64232V8.93085H11.5067V10.2194H10.2179V11.5068H8.92914V10.2194H7.64143V8.93085H8.92914V7.64232H10.2179Z" fill="url(#paint7_linear_6252_23469)"/>
<path d="M21.8137 8.93085H17.9485V10.2194H21.8137V8.93085Z" fill="url(#paint8_linear_6252_23469)"/>
<defs>
<linearGradient id="paint0_linear_6252_23469" x1="0" y1="0" x2="0" y2="1" gradientUnits="objectBoundingBox">
<stop stop-color="#ED3040"/>
<stop offset="1" stop-color="#2D23F4"/>
</linearGradient>
<linearGradient id="paint1_linear_6252_23469" x1="0" y1="0" x2="0" y2="1" gradientUnits="objectBoundingBox">
<stop stop-color="#ED3040"/>
<stop offset="1" stop-color="#2D23F4"/>
</linearGradient>
<linearGradient id="paint2_linear_6252_23469" x1="0" y1="0" x2="0" y2="1" gradientUnits="objectBoundingBox">
<stop stop-color="#ED3040"/>
<stop offset="1" stop-color="#2D23F4"/>
</linearGradient>
<linearGradient id="paint3_linear_6252_23469" x1="0" y1="0" x2="0" y2="1" gradientUnits="objectBoundingBox">
<stop stop-color="#ED3040"/>
<stop offset="1" stop-color="#2D23F4"/>
</linearGradient>
<linearGradient id="paint4_linear_6252_23469" x1="0" y1="0" x2="0" y2="1" gradientUnits="objectBoundingBox">
<stop stop-color="#ED3040"/>
<stop offset="1" stop-color="#2D23F4"/>
</linearGradient>
<linearGradient id="paint5_linear_6252_23469" x1="0" y1="0" x2="0" y2="1" gradientUnits="objectBoundingBox">
<stop stop-color="#ED3040"/>
<stop offset="1" stop-color="#2D23F4"/>
</linearGradient>
<linearGradient id="paint6_linear_6252_23469" x1="0" y1="0" x2="0" y2="1" gradientUnits="objectBoundingBox">
<stop stop-color="#ED3040"/>
<stop offset="1" stop-color="#2D23F4"/>
</linearGradient>
<linearGradient id="paint7_linear_6252_23469" x1="0" y1="0" x2="0" y2="1" gradientUnits="objectBoundingBox">
<stop stop-color="#ED3040"/>
<stop offset="1" stop-color="#2D23F4"/>
</linearGradient>
<linearGradient id="paint8_linear_6252_23469" x1="0" y1="0" x2="0" y2="1" gradientUnits="objectBoundingBox">
<stop stop-color="#ED3040"/>
<stop offset="1" stop-color="#2D23F4"/>
</linearGradient>
</defs>
</svg>
