<svg width="50" height="50" viewBox="0 0 50 50" fill="none" xmlns="http://www.w3.org/2000/svg">
<path d="M31.8804 41.5386C31.754 41.6205 31.3576 44.0493 31.1902 44.4604C31.0715 44.7519 30.9246 44.9386 30.593 44.9898L10.8388 45C10.0011 44.9233 9.9876 44.4738 10.0556 43.7411C10.3616 40.4319 12.041 36.8932 11.1031 33.5795C10.4219 31.1705 8.8259 29.9283 7.71102 27.8658C3.83204 20.6937 6.86428 11.7072 13.6254 7.54637C22.2814 2.22006 37.6671 5.23517 39.1104 16.7279C39.2772 18.0571 39.0014 18.5813 39.7872 19.8037C40.9963 21.684 42.6135 23.4486 43.8047 25.3628C44.3121 26.5117 43.7855 27.5493 42.7488 28.1343C42.4223 28.3184 41.1419 28.6733 41.0951 28.8363C41.0432 29.0172 41.6776 29.9046 41.7372 30.3298C41.7719 30.5766 41.7738 30.996 41.7244 31.2383C41.6609 31.549 41.2003 32.0464 41.1881 32.1167C41.1657 32.2465 41.412 32.4006 41.4826 32.5534C42.0535 33.7931 40.8193 34.121 40.7167 35.1146C40.5659 36.5723 41.7193 37.3945 41.0663 39.2082C39.8276 42.6479 34.6605 41.219 31.881 41.5386H31.8804ZM29.7982 43.4017C30.0849 42.5226 30.1433 41.4715 30.4287 40.6078C30.5897 40.1199 30.7283 39.9761 31.2524 39.9281C33.1094 39.7594 37.1956 40.3412 38.6614 39.6238C40.6211 38.6642 39.027 36.6714 39.113 35.1063C39.1495 34.4311 39.8783 33.2458 39.8712 33.1397C39.8654 33.0591 38.9385 32.7663 39.011 31.9153C39.0835 31.0644 40.1534 31.2754 40.1547 30.6987C40.1554 30.2972 39.6281 29.8094 39.5312 29.3433C39.3965 28.6931 39.664 27.8734 40.1951 27.4624C40.7846 27.0059 42.7957 26.9023 42.2979 25.9279C41.0926 24.1033 39.4825 22.3393 38.3394 20.4981C37.3476 18.9004 37.7274 17.9024 37.3919 16.1915C35.7741 7.94021 26.0757 5.40843 18.8078 7.08605C10.6836 8.96187 5.41134 17.74 8.46731 25.7042C9.38847 28.1055 11.2058 29.6208 12.193 31.9294C12.8761 33.5277 13.1501 35.1433 12.9467 36.8734C12.694 39.0222 12.0538 41.2503 11.7356 43.4017H29.7982Z" fill="url(#paint0_linear_6252_23465)"/>
<path d="M15.7589 12.7666L29.6564 12.7429C31.0632 12.8976 31.9509 13.9417 32.0594 15.3169C31.7996 19.6139 32.3936 24.2919 32.0594 28.5441C31.9535 29.888 31.1196 30.9352 29.7552 31.1232C25.2829 30.8304 20.3358 31.5004 15.9193 31.1232C14.7608 31.0241 13.719 30.0932 13.6138 28.92C13.4111 26.6562 13.6151 23.7261 13.6222 21.4193C13.628 19.424 13.4028 16.7528 13.6177 14.8521C13.7389 13.7799 14.7383 12.9584 15.7589 12.7672V12.7666ZM21.9902 14.3361H15.9225C15.5338 14.3361 15.1226 15.0605 15.1226 15.4147V21.1809H17.5217C17.5743 21.1809 17.8463 21.3931 17.8963 21.4641C18.2773 22.0075 17.8328 22.2959 17.8065 22.7626C17.7539 23.6775 19.0696 23.8226 19.3146 23.0612C19.4974 22.4934 18.8765 21.9884 19.3018 21.4545C19.3447 21.4002 19.652 21.1809 19.6854 21.1809H21.9902C21.9523 20.9897 22.0485 20.2385 21.9806 20.1586C21.9536 20.1272 21.3359 20.0435 21.171 19.9808C18.634 19.0244 19.3146 15.4217 21.9895 15.3667V14.3361H21.9902ZM30.457 21.1809V15.1334C30.457 14.9262 29.9072 14.3361 29.657 14.3361H23.5894V16.6333C23.5894 16.6729 23.3732 16.9632 23.3135 17.0143C22.7144 17.5239 22.2731 16.8244 21.7034 17.0022C21.0774 17.1978 20.9632 18.1274 21.5893 18.4394C22.1762 18.7322 22.4373 18.1849 22.9556 18.2898C23.1429 18.3281 23.5894 18.7271 23.5894 18.8831V21.1802C23.7401 21.1547 24.3989 21.2173 24.4355 21.1796C24.465 21.1489 24.5041 20.5588 24.5798 20.3389C25.3265 18.1741 28.3324 18.2949 29.0945 20.4277C29.1522 20.5895 29.1503 21.1067 29.2465 21.1668C29.3928 21.2582 30.2081 21.1272 30.4563 21.1796L30.457 21.1809ZM28.0579 22.7747C27.8263 22.7747 27.4247 22.3886 27.3708 22.1444C27.2464 21.5805 27.7763 21.3017 27.5197 20.7826C27.1495 20.0345 25.9846 20.257 26.0282 21.1323C26.0501 21.5689 26.5254 21.9832 26.0789 22.4909C26.0334 22.5427 25.6389 22.7747 25.6119 22.7747H23.5894V23.8066C26.8076 23.8162 26.8019 28.461 23.5894 28.4936V29.5255H29.752C29.9284 29.5255 30.4576 28.9232 30.4576 28.7282V22.7747H28.0579ZM15.1226 22.7747V28.5409C15.1226 28.7909 15.5543 29.5255 15.8282 29.5255H21.9902V27.3223C21.9902 27.298 22.1942 26.9432 22.2301 26.9049C22.6579 26.4445 23.1384 26.8748 23.5432 26.9068C24.7241 26.9995 24.7248 25.3014 23.5432 25.3941C23.2038 25.4203 23.0499 25.6511 22.6086 25.584C22.3751 25.5488 21.9908 25.1863 21.9908 24.9785V22.7754H20.9568C20.8625 25.91 16.2753 25.9145 16.2529 22.7754H15.1232L15.1226 22.7747Z" fill="url(#paint1_linear_6252_23465)"/>
<defs>
<linearGradient id="paint0_linear_6252_23465" x1="0" y1="0" x2="0" y2="1" gradientUnits="objectBoundingBox">
<stop stop-color="#ED3040"/>
<stop offset="1" stop-color="#2D23F4"/>
</linearGradient>
<linearGradient id="paint1_linear_6252_23465" x1="0" y1="0" x2="0" y2="1" gradientUnits="objectBoundingBox">
<stop stop-color="#ED3040"/>
<stop offset="1" stop-color="#2D23F4"/>
</linearGradient>
</defs>
</svg>
