<svg width="50" height="50" viewBox="0 0 50 50" fill="none" xmlns="http://www.w3.org/2000/svg">
<path d="M5 28.4072C5.22168 27.8713 5.91634 27.9096 6.40099 27.811C6.45125 27.1873 7.0418 27.1453 7.52824 27.0595C9.34836 26.7372 11.5436 26.8413 13.1268 27.8913C13.2372 27.9644 13.7174 28.3707 13.7784 28.3652C13.8215 28.3607 14.2882 27.9708 14.386 27.905C15.918 26.8778 17.9948 26.7536 19.771 27.0193C20.2888 27.097 21.0903 27.138 21.1324 27.811C21.5498 27.8923 22.388 27.8904 22.5173 28.4054L22.5352 39.2603C22.5379 39.5699 22.2265 39.8328 21.9348 39.8338C21.7006 39.8338 21.1827 39.6731 20.9018 39.6311C19.1777 39.3726 17.2741 39.4128 15.6622 40.1415C15.3723 40.273 15.0896 40.4784 14.8069 40.5953C14.412 40.7596 13.1474 40.7688 12.7508 40.6062C12.3541 40.4437 11.9843 40.1725 11.5589 40.0072C9.68492 39.2786 7.52824 39.3991 5.59953 39.8338C5.31233 39.8073 5.1068 39.6493 5 39.3809V28.4063V28.4072ZM13.4921 38.8239V28.8775C11.7779 27.2458 9.12309 27.2029 6.95654 27.7498L6.94397 29.7057C6.86858 30.0864 6.40368 29.9266 6.40368 29.7486V28.3379C6.11558 28.4237 5.77992 28.431 5.51337 28.5643V39.2247C5.51337 39.2512 5.59145 39.2914 5.62825 39.2749C7.73018 38.8102 10.1157 38.7444 12.1117 39.6539C12.4133 39.7908 12.8585 40.1205 13.1483 40.167C13.4167 40.21 13.9516 40.2054 14.2298 40.1844C14.657 40.1515 15.0088 39.8447 15.3975 39.6648C17.3971 38.7435 19.7943 38.8083 21.9043 39.2749C21.9402 39.2914 22.0192 39.2512 22.0192 39.2247V28.5643C21.7517 28.4264 21.4196 28.4209 21.1289 28.3379V34.1735C21.1289 34.2009 21.0391 34.3068 21.005 34.3259C20.7887 34.452 20.5993 34.2995 20.5796 34.0694L20.576 27.7498C19.3644 27.4302 18.0469 27.3398 16.8065 27.5462C15.796 27.7142 14.7809 28.1525 14.0396 28.8775V38.7718C14.0396 38.7791 13.9884 38.8111 14.0055 38.8239C14.0324 38.8257 14.0584 38.8275 14.0844 38.8175C14.1966 38.7764 14.5448 38.4897 14.7019 38.4002C16.0652 37.625 17.7624 37.4743 19.2962 37.6396C19.6893 37.6816 20.0815 37.7647 20.4683 37.8395C20.5042 37.8505 20.5805 37.7729 20.5805 37.761V35.2874C20.5805 35.0509 21.0876 34.8848 21.1298 35.3559C21.1989 36.1275 21.0777 37.0095 21.1253 37.793C20.9063 38.6385 20.2673 38.318 19.6668 38.2377C18.0603 38.0213 16.3874 38.0724 14.9406 38.8878C14.4766 39.1498 14.1715 39.5717 13.5845 39.4776C13.2803 39.4293 12.88 39.0521 12.5892 38.8878C11.2537 38.1345 9.59786 38.0085 8.10264 38.202C7.46093 38.2851 6.58856 38.6997 6.40278 37.7619L6.40099 30.932C6.44317 30.4608 6.95025 30.6279 6.95025 30.8635V37.7619C6.95025 37.7738 7.02654 37.8514 7.06244 37.8405C8.97231 37.4332 11.0805 37.4305 12.8288 38.4002L13.4903 38.8239H13.4921Z" fill="url(#paint0_linear_6252_23439)"/>
<path d="M8.7596 28.8702C9.93621 28.8072 11.2367 28.956 12.3173 29.4464C12.5632 29.5578 13.1708 29.797 13.0748 30.1248C12.9563 30.5275 12.3218 30.0444 12.101 29.9449C11.0536 29.4747 9.81954 29.3569 8.67972 29.4162C8.42843 29.429 7.86121 29.5605 7.66107 29.5148C7.43939 29.4637 7.3999 29.1332 7.60453 29.0199C7.76069 28.9332 8.53972 28.883 8.7596 28.8711V28.8702Z" fill="url(#paint1_linear_6252_23439)"/>
<path d="M17.6977 28.8702C18.0217 28.851 18.3906 28.8446 18.7146 28.8601C18.974 28.8729 19.6597 28.9186 19.8786 28.9998C20.1219 29.0902 20.1201 29.4345 19.8984 29.5057C19.7162 29.5641 19.0951 29.4281 18.8537 29.4153C17.7184 29.3569 16.5032 29.4728 15.4558 29.933C15.2305 30.0316 14.5781 30.5284 14.4587 30.1239C14.3618 29.7942 14.9487 29.5678 15.1928 29.4564C15.9692 29.1021 16.8478 28.9195 17.6977 28.8693V28.8702Z" fill="url(#paint2_linear_6252_23439)"/>
<path d="M17.8001 31.0297C18.3242 31.0023 18.912 31.0251 19.4335 31.0899C19.6516 31.1164 20.0626 31.1265 20.0626 31.4205C20.0626 31.6606 19.8616 31.6871 19.674 31.6816C19.3868 31.6725 19.0467 31.5903 18.7505 31.5757C17.6241 31.5218 16.4215 31.6661 15.3876 32.1281C15.1883 32.2176 14.5852 32.6742 14.4668 32.3107C14.3555 31.9692 14.867 31.772 15.1237 31.6515C15.9521 31.2634 16.89 31.0762 17.8001 31.0297Z" fill="url(#paint3_linear_6252_23439)"/>
<path d="M17.9374 33.1901C18.2937 33.1764 18.667 33.1855 19.0224 33.2147C19.201 33.2293 19.8849 33.2887 19.9801 33.39C20.0752 33.4914 20.0815 33.6192 20.0133 33.7333C19.9262 33.8776 19.7889 33.8466 19.6399 33.8402C19.3375 33.8274 18.9919 33.748 18.6823 33.7352C17.5586 33.6859 16.3443 33.8493 15.3185 34.3223C15.113 34.4173 14.5906 34.8482 14.4668 34.4702C14.3788 34.2027 14.5583 34.1315 14.7477 34.0201C15.6918 33.4631 16.8532 33.2293 17.9374 33.1891V33.1901Z" fill="url(#paint4_linear_6252_23439)"/>
<path d="M19.9881 35.5595C20.1452 35.733 20.0429 35.9686 19.8302 36.0216L18.58 35.8956C17.5389 35.8846 16.4529 35.9951 15.4908 36.4133C15.3149 36.49 14.8706 36.7776 14.7342 36.7968C14.5215 36.826 14.4075 36.6087 14.4677 36.4179C14.5125 36.2745 15.069 36.007 15.2278 35.9367C16.4771 35.3806 18.0208 35.2619 19.3626 35.4134C19.5062 35.4299 19.9038 35.4646 19.989 35.5595H19.9881Z" fill="url(#paint5_linear_6252_23439)"/>
<path d="M7.54529 35.5595C7.63055 35.4646 8.02814 35.4299 8.17174 35.4134C9.5108 35.2619 11.059 35.3815 12.3065 35.9367C12.4654 36.007 13.0218 36.2745 13.0667 36.4179C13.1268 36.6087 13.0128 36.826 12.8001 36.7968C12.6637 36.7776 12.2194 36.49 12.0435 36.4133C10.6937 35.8262 9.13834 35.8216 7.70325 36.0216C7.49055 35.9686 7.38823 35.733 7.54529 35.5595Z" fill="url(#paint6_linear_6252_23439)"/>
<path d="M8.86281 31.0297C10.0349 30.9749 11.952 31.2123 12.9222 31.9309C13.0595 32.0322 13.116 32.0989 13.0748 32.2833C12.9814 32.6961 12.3415 32.2149 12.1467 32.1281C11.1119 31.6661 9.91019 31.5209 8.78383 31.5757C8.48766 31.5903 8.14661 31.6725 7.86031 31.6816C7.7939 31.6834 7.72838 31.6889 7.66286 31.6743C7.45016 31.625 7.40887 31.3136 7.59106 31.1986C7.7562 31.0945 8.62498 31.0415 8.86461 31.0306L8.86281 31.0297Z" fill="url(#paint7_linear_6252_23439)"/>
<path d="M8.96513 33.1901C10.1471 33.1435 11.8972 33.3937 12.8944 34.0849C13.0478 34.1917 13.1385 34.252 13.0667 34.4711C12.9428 34.8492 12.4205 34.4182 12.215 34.3232C11.1855 33.8502 9.9784 33.6859 8.85115 33.7361C8.54151 33.7498 8.19598 33.8283 7.89352 33.8411C7.71761 33.8484 7.48247 33.8539 7.46631 33.6128C7.44298 33.2741 7.92403 33.2768 8.16726 33.2494C8.42753 33.2202 8.70396 33.2001 8.96423 33.1901H8.96513Z" fill="url(#paint8_linear_6252_23439)"/>
<path d="M29.3221 42.4973C28.7333 42.2288 28.0279 42.0745 27.7281 41.4198C27.5648 41.0637 27.5908 40.6838 27.4544 40.3314C27.353 40.0684 27.1116 39.7771 26.9904 39.505C26.6691 38.7873 26.7211 38.1728 26.486 37.4898C25.9771 36.0134 24.9773 35.3504 25.2304 33.4475C25.3722 32.3856 26.6646 32.5691 26.6404 33.5096C26.5901 35.4965 27.3225 35.5614 27.8278 37.1483C28.0171 37.7428 27.9911 38.3682 28.2352 38.9216C28.3761 39.2412 28.6418 39.5224 28.7701 39.8812C28.8464 40.0967 28.9308 40.7606 29.0044 40.84C29.0537 40.8929 29.5608 41.0838 29.6568 41.1011C30.2303 41.2043 30.9349 40.7222 31.398 40.4054C32.1689 39.8776 33.2764 39.0074 33.9899 38.3947C35.6701 36.9538 34.0205 35.3021 35.3362 34.0228C35.7293 33.6402 36.9274 33.2978 37.0342 32.8111C37.1671 32.2094 36.9364 31.5109 36.9113 30.9146C36.8646 29.797 36.8781 27.8713 37.2846 26.8468C37.6894 25.8277 38.9208 25.1402 39.6702 24.3522C40.1046 23.8947 40.6826 23.1907 41.038 22.6684C41.4831 22.0156 41.7281 21.4275 41.8179 20.6258C41.0326 20.8322 40.2509 21.1353 39.4297 20.9025C38.6973 20.6943 38.4864 20.0223 37.9551 19.6004C37.1716 18.9777 36.6304 19.0361 36.1906 17.9094C35.9635 17.3277 35.9151 16.4046 35.6512 15.9289C35.2482 15.2029 34.3391 14.8532 34.0205 13.8287C33.7584 12.985 34.0537 12.2956 33.9567 11.4665C32.9821 11.6035 31.976 11.7679 30.9977 11.5725C30.7644 11.5259 29.6317 11.1123 29.5231 11.1935C29.8076 12.0966 28.8294 12.6645 28.0414 12.5294C27.5845 12.4509 27.3045 12.1879 26.9294 12.0208C26.2491 11.7167 25.5679 11.5734 25.1003 10.8749C24.5887 10.1106 25.0024 9.36185 23.9174 9.003C22.52 8.54097 22.1646 9.47964 21.0598 9.79374C20.2125 10.0348 19.7153 9.61843 18.7963 10.0878C17.8144 10.5891 18.2596 10.8968 17.9374 11.7423C17.52 12.8362 16.4637 12.7138 15.7197 13.3813C14.3914 14.5738 14.8679 15.3308 14.5897 16.8109C14.4551 17.5277 14.0512 18.2536 14.0773 19.0069C14.0943 19.489 14.4605 20.6067 14.7441 21.0002C15.0851 21.4741 16.855 22.9615 17.3782 23.1095C17.6493 23.1862 18.2542 22.9131 18.6078 22.8812C19.1131 22.8355 19.7126 22.9478 20.2026 22.8638C20.7447 22.7707 20.9906 22.3251 21.697 22.3032C22.2714 22.2858 23.7244 22.6273 24.3688 22.7588C25.8658 23.0638 25.2564 24.9548 24.8436 25.9227C25.26 26.3802 26.3756 26.9554 25.9753 27.7124C25.7509 28.1379 25.2412 28.1991 24.8929 27.8987C24.6506 27.6905 24.253 27.317 24.0134 27.0842C22.9633 26.0651 23.7298 25.2835 23.947 24.1102C23.2909 24.2024 22.3638 23.6664 21.7643 23.6957C21.5354 23.7066 20.9233 24.1358 20.5347 24.2262C19.8383 24.3887 19.2163 24.2426 18.5468 24.322C17.6726 24.4261 17.6717 24.8188 16.6468 24.3266C14.8482 23.4628 12.915 21.4567 12.7292 19.3584C12.6179 18.0956 13.0577 17.5606 13.2489 16.4712C13.3395 15.9544 13.2866 15.3655 13.3413 14.8569C13.4643 13.7265 14.5772 12.3696 15.5294 11.8208C15.752 11.6921 16.5481 11.4163 16.6297 11.3004C16.7258 11.1643 16.7338 10.3434 16.9232 9.95902C17.3334 9.12718 18.7954 8.39579 19.6848 8.38849C20.0052 8.38575 20.2987 8.52271 20.6738 8.44419C21.049 8.36566 21.5991 7.87533 22.0308 7.7064C23.2882 7.21333 25.2546 7.59774 25.8757 8.92356C26.2069 9.6303 25.9475 10.0576 26.766 10.4786C27.1708 10.6868 27.6563 10.7251 28.0117 11.0566C28.1275 8.71081 30.2824 10.1124 31.5057 10.2366C32.4472 10.3325 33.4326 10.0083 34.3301 10.0969C34.9808 10.1608 35.2922 10.8465 35.3604 11.4401C35.4286 12.0336 35.1926 12.8435 35.3317 13.3831C35.4798 13.9584 36.4572 14.582 36.7919 15.1107C37.185 15.7307 37.1967 16.6292 37.448 17.314C37.7522 18.1431 38.3877 18.0865 38.9432 18.5759C39.1918 18.7951 39.593 19.4817 39.8649 19.5712C40.3792 19.7392 41.3135 19.1996 41.8565 19.1293C43.5806 18.9037 43.2943 20.5902 43.0071 21.7352C42.6974 22.9679 41.5711 24.3567 40.7104 25.2762C40.1782 25.8442 38.8014 26.792 38.5609 27.3946C38.2315 28.2201 38.2853 30.1248 38.3221 31.0534C38.3598 31.9994 38.7108 32.8586 38.1121 33.7735C37.6786 34.4355 36.3486 34.8592 36.1897 35.166C35.9931 35.5458 36.2265 35.922 36.2444 36.311C36.2768 36.9913 36.0865 37.8304 35.7589 38.4194C35.2752 39.2877 33.1544 40.8802 32.2712 41.5011C31.6547 41.9348 31.0515 42.2736 30.33 42.5H29.3221V42.4973Z" fill="url(#paint9_linear_6252_23439)"/>
<path d="M41.5953 32.0195C41.7901 31.8405 42.0503 31.2433 42.2891 30.9831C43.4307 29.7367 44.8065 30.7539 44.9672 32.2185C45.1709 34.0758 44.3928 34.8409 43.55 36.2307C43.2225 36.7712 43.0223 37.456 42.6517 37.982C41.5109 39.6018 39.1003 39.2731 39.1963 37.0662C39.2322 36.2453 39.6397 35.639 39.8353 34.9131C40.0453 34.1333 39.9565 32.9271 40.6781 32.4212C40.9383 32.2386 41.414 32.1847 41.5935 32.0204L41.5953 32.0195ZM41.4966 33.5589C41.4266 33.6293 41.2507 34.9861 41.1798 35.2537C41.011 35.891 40.4833 36.7411 40.6081 37.4067C40.6637 37.7053 41.0766 37.5748 41.2614 37.456C41.6689 37.1949 42.0826 35.9777 42.368 35.5057C42.6265 35.0793 42.9667 34.7679 43.1964 34.2976C43.5563 33.5599 43.8193 32.5938 43.3966 31.835C42.8985 32.4915 42.6624 33.0732 41.8843 33.4402C41.7838 33.4877 41.528 33.527 41.4966 33.5589Z" fill="url(#paint10_linear_6252_23439)"/>
<path d="M26.679 30.8544C26.1135 31.436 25.1559 30.7101 25.5966 29.9924C26.1656 29.0647 27.3476 30.1659 26.679 30.8544Z" fill="url(#paint11_linear_6252_23439)"/>
<defs>
<linearGradient id="paint0_linear_6252_23439" x1="0" y1="0" x2="0" y2="1" gradientUnits="objectBoundingBox">
<stop stop-color="#ED3040"/>
<stop offset="1" stop-color="#2D23F4"/>
</linearGradient>
<linearGradient id="paint1_linear_6252_23439" x1="0" y1="0" x2="0" y2="1" gradientUnits="objectBoundingBox">
<stop stop-color="#ED3040"/>
<stop offset="1" stop-color="#2D23F4"/>
</linearGradient>
<linearGradient id="paint2_linear_6252_23439" x1="0" y1="0" x2="0" y2="1" gradientUnits="objectBoundingBox">
<stop stop-color="#ED3040"/>
<stop offset="1" stop-color="#2D23F4"/>
</linearGradient>
<linearGradient id="paint3_linear_6252_23439" x1="0" y1="0" x2="0" y2="1" gradientUnits="objectBoundingBox">
<stop stop-color="#ED3040"/>
<stop offset="1" stop-color="#2D23F4"/>
</linearGradient>
<linearGradient id="paint4_linear_6252_23439" x1="0" y1="0" x2="0" y2="1" gradientUnits="objectBoundingBox">
<stop stop-color="#ED3040"/>
<stop offset="1" stop-color="#2D23F4"/>
</linearGradient>
<linearGradient id="paint5_linear_6252_23439" x1="0" y1="0" x2="0" y2="1" gradientUnits="objectBoundingBox">
<stop stop-color="#ED3040"/>
<stop offset="1" stop-color="#2D23F4"/>
</linearGradient>
<linearGradient id="paint6_linear_6252_23439" x1="0" y1="0" x2="0" y2="1" gradientUnits="objectBoundingBox">
<stop stop-color="#ED3040"/>
<stop offset="1" stop-color="#2D23F4"/>
</linearGradient>
<linearGradient id="paint7_linear_6252_23439" x1="0" y1="0" x2="0" y2="1" gradientUnits="objectBoundingBox">
<stop stop-color="#ED3040"/>
<stop offset="1" stop-color="#2D23F4"/>
</linearGradient>
<linearGradient id="paint8_linear_6252_23439" x1="0" y1="0" x2="0" y2="1" gradientUnits="objectBoundingBox">
<stop stop-color="#ED3040"/>
<stop offset="1" stop-color="#2D23F4"/>
</linearGradient>
<linearGradient id="paint9_linear_6252_23439" x1="0" y1="0" x2="0" y2="1" gradientUnits="objectBoundingBox">
<stop stop-color="#ED3040"/>
<stop offset="1" stop-color="#2D23F4"/>
</linearGradient>
<linearGradient id="paint10_linear_6252_23439" x1="0" y1="0" x2="0" y2="1" gradientUnits="objectBoundingBox">
<stop stop-color="#ED3040"/>
<stop offset="1" stop-color="#2D23F4"/>
</linearGradient>
<linearGradient id="paint11_linear_6252_23439" x1="0" y1="0" x2="0" y2="1" gradientUnits="objectBoundingBox">
<stop stop-color="#ED3040"/>
<stop offset="1" stop-color="#2D23F4"/>
</linearGradient>
</defs>
</svg>
