<svg width="50" height="50" viewBox="0 0 50 50" fill="none" xmlns="http://www.w3.org/2000/svg">
<path d="M25.6174 11.0744V13.472C27.6689 14.7825 30.049 15.5957 32.4084 16.1201L35.3899 13.0981C35.4323 12.8538 33.5045 11.2928 33.3275 10.867C32.9735 10.0156 34.1289 9.95883 34.6406 9.89837C35.733 9.7688 37.9822 9.49485 38.9885 9.63429C39.9233 9.76386 40.4847 10.756 41.2061 11.2471C41.3807 11.0879 41.5784 10.9596 41.7554 10.8041C42.3119 10.3142 43.4832 8.81863 43.9863 8.55086C44.7017 8.17202 45.3176 8.83837 44.8193 9.48868L42.0646 12.2034C42.8393 13.0154 43.7693 13.704 43.8166 14.9429C43.8554 15.9585 43.6165 17.9193 43.4844 18.9891C43.4201 19.5136 43.3389 20.5921 42.5302 20.2342C42.1119 20.0491 40.5781 18.0933 40.3404 18.1364L34.7255 23.8288C34.4139 24.2558 34.4139 25.6588 34.312 26.3042C34.0295 28.1021 33.5385 29.8655 32.7407 31.4931L32.8086 31.6597L38.1301 37.1065L39.0188 42.2707C39.0225 42.6903 38.7703 42.9408 38.3774 43L33.2838 42.13L27.7804 36.603C27.601 36.5685 25.6041 37.7013 24.9505 37.6791C24.3479 37.6593 22.3825 36.5685 22.2043 36.603L16.7579 42.098L11.5467 42.9975C11.1902 42.9013 11.0192 42.715 10.9586 42.3398L11.8546 37.1077L17.1774 31.6609L17.2441 31.4956C16.4487 29.8544 15.9576 28.1157 15.6727 26.3054C15.5708 25.6601 15.5721 24.257 15.2592 23.8301L9.64429 18.1377C9.40664 18.0945 7.87286 20.0504 7.45456 20.2355C6.64706 20.5933 6.56582 19.5148 6.50035 18.9904C6.3694 17.9242 6.1269 15.9585 6.16449 14.9491C6.21178 13.7126 7.14659 13.0142 7.92015 12.2059C7.13447 11.373 5.8735 10.4413 5.20785 9.53804C4.69255 8.83714 5.21028 8.21274 5.94261 8.51877C6.35485 8.69153 7.77102 10.4129 8.2754 10.8485C8.43666 10.988 8.6246 11.0978 8.77858 11.2471C9.52668 10.7202 10.0286 9.80582 10.9962 9.63429C12.7834 9.61578 14.5706 9.85148 16.3444 10.0563C16.5529 10.1452 16.7191 10.4512 16.713 10.6696C16.6997 11.1607 14.5487 12.8328 14.5948 13.0981L17.5763 16.1201C19.9309 15.6055 22.2564 14.7825 24.3225 13.5176L24.3625 7.85859C24.4401 7.26751 25.3337 7.02442 25.8381 7.00221C27.6689 6.92076 28.7613 9.12713 30.8553 8.31393C31.4797 8.07207 31.6834 7.26011 32.4363 7.61426C33.1262 7.93757 32.3127 9.43686 32.0326 9.87492C31.1887 11.1965 30.0077 11.5642 28.497 11.4408C27.5319 11.3619 26.6104 10.7794 25.6113 11.0756L25.6174 11.0744ZM25.6174 9.80829C27.1839 9.32456 29.0014 10.951 30.4188 9.71821C29.4973 9.7688 28.6619 9.6528 27.8386 9.22091C27.1257 8.84701 26.5243 8.10415 25.6174 8.35959V9.80829ZM14.5936 11.1657C13.6333 11.1817 11.9322 10.6733 11.0617 10.9633C10.8943 11.0188 10.7682 11.1447 10.6349 11.2533C10.0044 11.7654 8.27419 13.5102 7.79042 14.1494C7.3903 14.6776 7.4582 15.0934 7.48245 15.7339C7.51155 16.4965 7.67766 17.364 7.74919 18.1327L14.5936 11.1669V11.1657ZM42.2416 18.1327C42.3131 17.364 42.4792 16.4965 42.5083 15.7339C42.535 15.0256 42.6041 14.6751 42.1555 14.1038C41.6438 13.451 40.0397 11.8147 39.3983 11.3002C38.8261 10.8411 38.6587 10.8695 37.9313 10.8954C37.1225 10.9238 36.218 11.1237 35.3972 11.1669L42.2416 18.1327ZM16.0158 16.4126L13.66 13.9717L12.5554 15.1132L15.2617 17.9501C15.4629 17.9884 15.3841 17.8613 15.3938 17.7255C15.4375 17.111 15.2095 16.573 16.0158 16.4113V16.4126ZM34.5982 17.9514L37.4366 15.1798C37.4657 15.012 36.4848 14.184 36.332 13.9717L33.9762 16.3681C34.757 16.6112 34.5982 17.2677 34.5982 17.9501V17.9514ZM33.3517 17.591C31.2699 17.2887 29.1724 16.6458 27.247 15.7968C26.471 15.455 25.7302 15.0132 24.9578 14.6961C22.3631 16.093 19.5635 17.1739 16.639 17.591C16.4705 23.5006 16.2995 30.8897 21.5896 34.6743C22.1352 35.0642 24.5395 36.45 25.0924 36.3636C25.5301 36.2945 26.8626 35.6208 27.3088 35.3715C33.0717 32.1607 33.5979 25.2849 33.3493 19.2668C33.3263 18.7103 33.3748 18.1463 33.3517 17.5898V17.591ZM15.3053 22.0235V19.8073L11.6158 16.0535L10.5064 17.1826L15.3053 22.0235ZM34.6867 22.0235L39.4856 17.1826L38.3762 16.0535L34.6867 19.8073V22.0235ZM12.5494 40.4814L18.9088 34.0586C18.9791 33.9018 18.0588 32.9258 17.9267 32.7012L13.0768 37.6272L12.5482 40.4814H12.5494ZM37.4414 40.4814L36.9128 37.6272L32.0629 32.7012C31.9307 32.9258 31.0117 33.9018 31.0808 34.0586L37.4402 40.4814H37.4414ZM13.5266 41.3859L16.2401 40.8467L21.0815 35.9132C21.0815 35.8429 20.0776 35.0359 20.0146 35.005C19.9163 34.9581 19.8472 34.9347 19.7514 35.005L13.5266 41.3859ZM36.4642 41.3859L30.2393 35.005C30.1435 34.9347 30.0744 34.9581 29.9762 35.005C29.7155 35.1297 29.2148 35.7392 28.9093 35.9132L33.7506 40.8467L36.4642 41.3859Z" fill="url(#paint0_linear_6252_23513)"/>
<path d="M26.6844 21.0277H27.5731V19.4445C27.5731 18.9854 28.2048 18.709 28.5916 18.672C29.2378 18.6103 30.8068 18.5066 30.9462 19.3593V29.3929C30.8383 29.8864 30.4939 30.2172 30.0223 30.3529C29.4937 30.5047 27.6725 30.5084 27.0821 30.4417C26.1157 30.3332 26.4855 29.5841 26.4152 28.8573C26.2079 26.6917 23.7987 26.7163 23.5829 28.7771C23.5053 29.5163 23.8823 30.3332 22.9075 30.4417C22.3195 30.5071 20.9142 30.5071 20.3274 30.4393C19.6872 30.3665 19.1452 29.9716 19.0361 29.3102L19.0567 19.4642C19.1101 19.2236 19.3986 18.9299 19.6351 18.8756C19.9576 18.8016 21.2161 18.8114 21.5738 18.8546C21.9036 18.8941 22.4165 19.2976 22.4165 19.6259V21.0289H23.3052V19.3544C23.3052 19.2692 23.6532 18.8805 23.7538 18.8164C24.0533 18.6251 25.6295 18.6103 25.9981 18.6954C26.1873 18.7386 26.6832 19.1964 26.6832 19.3556V21.0301L26.6844 21.0277ZM24.5516 19.9418V21.6163C24.5516 21.7014 24.2036 22.0901 24.103 22.1543C23.7938 22.3517 22.2552 22.3542 21.8612 22.274C21.6684 22.2345 21.1737 21.8631 21.1737 21.7064V20.1232H20.2849V29.172H22.3304C22.1509 27.2272 23.6956 25.5724 25.6416 26.0278C26.9244 26.3289 27.932 27.8541 27.5755 29.172H29.7095V19.943H28.8207V21.6175C28.8207 21.8273 28.4218 22.195 28.2012 22.253C27.8883 22.3357 26.4467 22.3493 26.1278 22.2765C25.9387 22.2333 25.4428 21.7755 25.4428 21.6163V19.9418H24.5516Z" fill="url(#paint1_linear_6252_23513)"/>
<defs>
<linearGradient id="paint0_linear_6252_23513" x1="0" y1="0" x2="0" y2="1" gradientUnits="objectBoundingBox">
<stop stop-color="#ED3040"/>
<stop offset="1" stop-color="#2D23F4"/>
</linearGradient>
<linearGradient id="paint1_linear_6252_23513" x1="0" y1="0" x2="0" y2="1" gradientUnits="objectBoundingBox">
<stop stop-color="#ED3040"/>
<stop offset="1" stop-color="#2D23F4"/>
</linearGradient>
</defs>
</svg>
