<svg width="50" height="50" viewBox="0 0 50 50" fill="none" xmlns="http://www.w3.org/2000/svg">
<path d="M30.004 5.04404C39.7128 4.21573 45.7535 15.2507 39.6672 22.9724C34.8036 29.1387 25.1496 28.1816 21.4722 21.2698C17.7949 14.358 22.33 5.69749 30.004 5.04404ZM30.6062 6.41536C22.0471 6.97677 18.4154 17.662 24.9397 23.3589C30.661 28.3472 39.6124 24.7671 40.5979 17.2755C41.3735 11.3852 36.5009 6.03802 30.6062 6.41536Z" fill="url(#paint0_linear_6252_23471)"/>
<path d="M8.99855 28.4577C9.32705 28.3564 9.70117 28.4301 9.86542 28.7522C10.0023 29.0191 10.0114 30.3812 9.94754 30.7033C9.80154 31.3752 8.72481 31.3752 8.60619 30.6297C8.56056 30.3168 8.56056 28.9547 8.67918 28.7338C8.71568 28.6693 8.92556 28.4761 8.99855 28.4577Z" fill="url(#paint1_linear_6252_23471)"/>
<path d="M31.8198 10.5293H35.4515C35.9078 10.5293 36.218 11.7166 35.4333 11.8914L28.4527 11.9098C28.0878 11.9558 27.7958 12.0663 27.7319 12.4712C27.668 12.8762 27.668 14.3764 27.7319 14.7905C27.8049 15.2415 28.1334 15.3243 28.5349 15.3611C30.3233 15.5268 32.5042 15.131 34.247 15.3611C34.977 15.4532 35.8256 16.1894 35.9169 16.9441C35.9808 17.4779 35.9899 19.6223 35.8986 20.1101C35.7891 20.6347 34.8675 21.5459 34.3383 21.5459H31.8198V23.1381C31.8198 23.7363 30.4511 23.7363 30.4511 23.1381V21.5459H26.8194C26.3632 21.5459 26.0529 20.3586 26.8376 20.1837L33.8182 20.1653C34.1832 20.1193 34.4752 20.0089 34.539 19.6039C34.6029 19.199 34.6029 17.6988 34.539 17.2847C34.466 16.8337 34.1375 16.7509 33.736 16.714C31.9476 16.5484 29.7667 16.9441 28.0239 16.714C27.2939 16.622 26.4453 15.8857 26.354 15.131C26.2902 14.5972 26.281 12.4528 26.3723 11.9651C26.4818 11.4405 27.4034 10.5293 27.9326 10.5293H30.4511V8.93711C30.4511 8.33889 31.8198 8.33889 31.8198 8.93711V10.5293Z" fill="url(#paint2_linear_6252_23471)"/>
<path d="M12.6941 27.749H19.1271C21.4175 28.0619 23.06 30.3352 25.3685 30.51C26.9289 30.6297 28.6991 30.3536 30.2412 30.51C32.3582 30.7217 33.7634 33.1698 33.0152 35.1578L40.8443 32.0746C44.2479 30.8782 47.2317 34.8541 44.3209 37.4771C39.7128 39.6123 35.1321 42.042 30.4237 43.9563C27.6498 45.0883 25.0127 45.3552 22.1018 44.4809C18.8078 43.4869 16.1798 40.6891 12.7306 40.1553C12.6941 41.0572 12.0645 41.996 11.1611 42.18C10.4768 42.3181 6.81771 42.3181 6.09685 42.1984C5.31211 42.0696 4.58212 41.2505 4.5 40.4498V27.5281C4.54562 26.6906 5.28474 25.8347 6.09685 25.6966C6.90896 25.5586 10.1757 25.5678 11.0243 25.6874C11.9459 25.8163 12.7671 26.801 12.6941 27.749ZM6.43447 27.0771C6.13335 27.1784 5.87785 27.4545 5.8596 27.7858L5.8961 40.3209C6.0421 40.6707 6.30672 40.7903 6.67172 40.8363C7.93095 40.9836 9.51867 40.7719 10.7962 40.7811C11.0881 40.6891 11.3071 40.4222 11.3254 40.1093L11.2889 27.5741C11.1703 27.3256 10.9604 27.114 10.6775 27.0679C9.44567 26.8747 7.72107 27.1876 6.43447 27.0771ZM12.6941 38.7748C16.4444 38.9864 19.2093 42.1984 22.7315 43.1556C25.1861 43.8275 27.4946 43.5974 29.8306 42.6586C34.393 40.8271 38.9007 38.3606 43.4266 36.3911C45.0691 34.762 43.3445 32.7925 41.3005 33.3907C38.0521 34.3295 33.5535 37.1734 30.3325 37.3942C27.6589 37.5783 24.7663 37.2654 22.0653 37.3758C21.2624 37.0537 21.4631 36.0137 22.33 35.9493C24.8302 35.7376 27.6133 36.1518 30.077 35.9309C32.3034 35.7284 32.4129 32.2495 30.0496 31.8998C28.1243 31.6145 25.5967 32.2587 23.7534 31.6237C22.4668 31.1819 20.0214 29.1203 18.8899 29.1203H12.7032V38.7655L12.6941 38.7748Z" fill="url(#paint3_linear_6252_23471)"/>
<defs>
<linearGradient id="paint0_linear_6252_23471" x1="0" y1="0" x2="0" y2="1" gradientUnits="objectBoundingBox">
<stop stop-color="#ED3040"/>
<stop offset="1" stop-color="#2D23F4"/>
</linearGradient>
<linearGradient id="paint1_linear_6252_23471" x1="0" y1="0" x2="0" y2="1" gradientUnits="objectBoundingBox">
<stop stop-color="#ED3040"/>
<stop offset="1" stop-color="#2D23F4"/>
</linearGradient>
<linearGradient id="paint2_linear_6252_23471" x1="0" y1="0" x2="0" y2="1" gradientUnits="objectBoundingBox">
<stop stop-color="#ED3040"/>
<stop offset="1" stop-color="#2D23F4"/>
</linearGradient>
<linearGradient id="paint3_linear_6252_23471" x1="0" y1="0" x2="0" y2="1" gradientUnits="objectBoundingBox">
<stop stop-color="#ED3040"/>
<stop offset="1" stop-color="#2D23F4"/>
</linearGradient>
</defs>
</svg>
