<svg width="50" height="50" viewBox="0 0 50 50" fill="none" xmlns="http://www.w3.org/2000/svg">
<path d="M26.7968 13.5984C27.0816 13.5408 28.3324 13.8696 28.7619 13.915C29.8018 14.0235 31.025 14.0213 32.0649 13.915C32.586 13.8619 33.531 13.5718 33.9604 13.5906C34.4704 13.6128 34.7729 14.1409 34.5654 14.5992C34.3413 15.0952 32.5904 16.6607 32.0793 16.9131C30.8616 17.5143 29.5998 17.4191 28.4594 16.7028C28.0045 16.4171 26.7019 15.217 26.4038 14.7863C26.1057 14.3557 26.268 13.7047 26.7957 13.5984H26.7968ZM32.9337 14.8284C31.3043 15.0742 29.6042 15.0808 27.9758 14.8284C29.3072 16.7349 31.5803 16.6784 32.9337 14.8284Z" fill="url(#paint0_linear_6252_23447)"/>
<path d="M26.1389 8.38715C27.234 8.25651 28.5543 8.63625 29.2487 9.53192C30.165 10.7121 29.6362 11.2048 28.4439 11.6941C26.8012 12.3695 25.323 11.9864 24.9411 10.1209C24.6949 8.91525 24.8649 8.53882 26.1377 8.38715H26.1389ZM28.5499 10.5139C28.8424 10.0932 27.3113 9.47102 26.9458 9.4367C25.9887 9.34703 25.6211 9.43006 26.1245 10.4265C26.4115 10.9955 26.9348 11.0243 27.4978 10.9092C27.6292 10.8826 28.5179 10.5604 28.5499 10.5139Z" fill="url(#paint1_linear_6252_23447)"/>
<path d="M33.8246 8.38604C34.2883 8.33511 35.7135 8.4104 35.931 8.87982C36.2147 9.49427 35.804 10.9059 35.3337 11.3919C34.4726 12.282 33.2428 12.0905 32.2161 11.6111C31.1552 11.1151 30.7689 10.649 31.5681 9.60499C32.0892 8.9241 32.9735 8.48015 33.8246 8.38715V8.38604ZM33.7407 9.46217C33.245 9.53413 32.4734 9.91941 32.3089 10.4353C32.9746 10.9402 34.3656 11.3642 34.7939 10.3512C35.2222 9.33817 34.6018 9.33595 33.7407 9.46106V9.46217Z" fill="url(#paint2_linear_6252_23447)"/>
<path d="M10.0442 21.5398C10.4185 21.4756 10.8336 21.4789 11.2056 21.5763C12.612 21.9428 14.4093 24.5335 15.6214 25.4347C16.8568 26.3525 18.2764 26.6149 19.5482 27.8781C22.1425 30.4522 22.2595 33.8256 22.1072 37.2864C22.9065 37.2577 23.6329 37.5854 23.8382 38.4102C23.6627 40.3133 24.0888 42.697 23.8481 44.5414C23.8227 44.7374 23.7609 44.8393 23.5942 44.95L11.4451 44.9555L11.1592 44.744L11.125 38.4943C11.2608 37.664 12.0567 37.2399 12.8538 37.2853C12.8825 36.1251 12.6805 34.9548 12.0932 33.9451C10.9826 32.0342 8.68194 31.0644 7.27439 29.4137C6.39453 28.3818 5.19011 26.255 5.08303 24.8988C5.29278 21.5963 4.81256 17.9671 5.08745 14.7033C5.34025 11.703 10.0244 12.7382 10.0475 15.362L10.0453 21.5387L10.0442 21.5398ZM21.1169 37.2864C21.3112 33.1558 20.9171 29.5919 17.0919 27.3589C16.466 26.9935 15.564 26.699 15.0065 26.3004C13.928 25.5321 12.1285 22.9403 10.9969 22.6137C10.0784 22.348 9.12573 22.8473 8.75701 23.702L13.1375 28.1737C13.5294 28.7417 12.9465 29.3771 12.3979 28.9155L7.90696 24.3873C7.23575 23.1462 8.38829 22.6735 8.96676 21.8288C8.81662 19.7296 9.1721 17.3427 8.97228 15.279C8.91267 14.6568 8.36621 14.1221 7.7502 14.018C7.30089 13.9427 6.21128 13.8464 6.16381 14.4597L6.19582 25.273C6.72903 26.9503 7.65857 28.4494 8.96676 29.6207C10.7508 31.2183 13.8429 33.0085 13.8429 35.835V37.2853H21.1147L21.1169 37.2864ZM22.8524 43.9159V38.6537C22.8524 38.5508 22.6283 38.3094 22.4858 38.3581C19.2799 38.5475 15.819 38.1234 12.644 38.3592C12.3935 38.3781 12.1108 38.4179 12.1108 38.7357V43.9148H22.8535L22.8524 43.9159Z" fill="url(#paint3_linear_6252_23447)"/>
<path d="M23.9939 19.6566C24.8284 19.6189 26.7438 20.3873 27.3918 20.9242C27.7175 21.1944 27.829 21.5442 27.563 21.9151C27.2837 22.3037 26.5164 22.2196 26.0572 22.3104C24.6198 22.5927 23.3249 23.02 21.9935 23.6223C21.4669 23.8603 20.735 24.5833 20.3088 23.7175C20.1289 23.3522 20.332 23.0444 20.4921 22.6979C21.1909 21.1789 22.1591 19.7407 23.9928 19.6577L23.9939 19.6566ZM25.8264 21.2099C25.3374 21.118 24.9609 20.777 24.4542 20.7216C23.1383 20.5766 22.2761 21.4092 21.7771 22.534L25.8253 21.2099H25.8264Z" fill="url(#paint4_linear_6252_23447)"/>
<path d="M29.7168 20.5511C29.6406 20.6043 29.3381 22.059 29.2366 22.3491C28.6791 23.9611 26.905 27.2171 25.0415 27.4242C21.8919 27.7729 17.7234 24.3652 16.2264 21.7612C15.553 20.591 14.396 17.5619 14.1951 16.2577C14.0328 15.2081 14.9005 14.2903 15.9482 14.3291C16.2529 14.3402 16.6161 14.4819 16.9396 14.4985C19.1662 14.6158 21.3653 14.08 23.3414 13.078C23.2111 12.3518 22.9859 11.631 22.9352 10.8893C22.8568 9.75002 22.8005 7.42063 22.933 6.33011C22.9937 5.82858 23.4772 5.28166 23.9475 5.11116C24.8881 4.77017 25.5493 5.38573 26.385 5.68908C28.997 6.639 32.0252 6.57035 34.6294 5.6293C35.1394 5.44441 35.6837 5.03809 36.2357 5.00267C37.0095 4.95395 37.8265 5.57948 37.9545 6.35114C38.1047 7.25345 38.0351 9.49538 37.9777 10.4785C37.8419 12.8278 36.8848 15.2967 35.4452 17.1379C34.4969 18.3513 32.1532 20.5423 30.5757 20.6264C30.3836 20.6364 29.7543 20.5235 29.7168 20.55V20.5511ZM24.4001 6.05776C24.1561 6.10758 23.9685 6.34561 23.9309 6.58696C23.8018 7.4162 23.8702 9.49206 23.9265 10.3933C24.1307 13.6294 25.8331 16.7415 28.445 18.6247C29.5059 19.3887 30.2003 19.9267 31.5008 19.2337C33.2837 18.2837 35.0776 16.2112 35.9221 14.3856C37.1199 11.796 36.961 9.16989 36.8572 6.3755C36.7214 6.205 36.515 6.02786 36.2864 6.04336C36.0458 6.05997 35.0633 6.58364 34.7122 6.70653C31.8805 7.70184 28.6978 7.60995 25.8894 6.60135C25.4974 6.46075 24.739 5.98801 24.4012 6.05665L24.4001 6.05776ZM23.7598 14.0822C23.0279 14.3069 22.339 14.6978 21.5927 14.9325C20.565 15.2558 19.1762 15.537 18.1031 15.5768C17.2707 15.6078 16.466 15.4163 15.638 15.4251C15.341 15.4927 15.2384 15.7385 15.245 16.0241C15.2604 16.6131 16.2683 19.4363 16.5565 20.1039C17.7046 22.7698 19.9964 24.9464 22.7254 25.934C23.4816 26.2074 24.537 26.5761 25.3065 26.2827C26.3839 25.872 27.8025 23.2271 28.201 22.141C28.339 21.7657 28.7486 20.5013 28.7177 20.1736C28.6967 19.95 27.8798 19.5182 27.6502 19.3366C27.3874 19.1296 26.544 18.2882 26.3409 18.2395C26.1256 18.1885 25.6343 18.3712 25.3705 18.3889C24.9256 18.4177 23.4982 18.2472 23.2277 17.8885C22.8557 17.3969 23.4043 16.2732 23.7256 15.8281C23.8205 15.6964 24.2268 15.3587 24.2323 15.2834C24.2434 15.1439 23.698 14.3634 23.7587 14.0811L23.7598 14.0822ZM25.5791 17.3128L24.7942 16.2378C24.4619 16.4902 24.3306 16.819 24.176 17.191C24.1429 17.325 25.4356 17.3327 25.5791 17.3128Z" fill="url(#paint5_linear_6252_23447)"/>
<path d="M19.3407 16.7803C20.1962 16.7736 21.4625 17.2098 21.8433 18.0413C22.1182 18.6413 21.0143 19.5547 20.5495 19.8525C18.9841 20.8567 17.6019 20.3264 16.9716 18.6137C16.7618 18.0424 16.7011 17.8309 17.2387 17.4445C17.7764 17.0582 18.6695 16.7869 19.3407 16.7825V16.7803ZM19.1155 17.8343C18.9068 17.8542 18.0314 18.0712 17.9839 18.2749C17.9607 18.3723 18.2985 18.9214 18.3902 19.0122C18.9488 19.5669 19.6696 19.2547 20.2018 18.8395C20.7626 18.4011 20.9204 18.1941 20.1256 17.9361C19.79 17.8276 19.4654 17.801 19.1166 17.8343H19.1155Z" fill="url(#paint6_linear_6252_23447)"/>
<path d="M34.8171 39.3756C37.0217 39.1564 37.4346 42.6206 35.2818 42.914C32.767 43.2561 32.4656 39.6092 34.8171 39.3756ZM34.7277 40.4528C34.0123 40.6145 34.0929 41.8843 34.9573 41.8843C35.9663 41.8843 35.9188 40.1838 34.7277 40.4528Z" fill="url(#paint7_linear_6252_23447)"/>
<path d="M14.9833 39.3767C17.2553 39.1265 17.6119 42.6239 15.4492 42.9129C13.0437 43.235 12.6606 39.6324 14.9833 39.3767ZM14.9789 40.4517C14.1786 40.6289 14.3044 41.8677 15.1246 41.8877C16.2529 41.9153 16.0608 40.2126 14.9789 40.4517Z" fill="url(#paint8_linear_6252_23447)"/>
<path d="M42.4907 29.799C40.9176 31.4198 38.5562 32.4085 37.6874 34.636C37.3485 35.504 37.2601 36.3565 37.3131 37.2864C38.2151 37.2366 38.9304 37.747 39.0397 38.6626C39.2517 40.434 38.8995 42.563 39.0508 44.3732C39.0287 44.6953 38.7891 45.0319 38.4336 44.9976L26.5661 44.9555C26.2846 44.8503 26.2614 44.6433 26.2371 44.3743C26.0704 42.5375 26.363 40.4418 26.2481 38.5762C26.3972 37.6894 27.1048 37.2366 27.9769 37.2853C27.7804 33.4082 28.1514 29.6196 31.4544 27.1407C32.4833 26.368 33.85 25.9506 34.7917 25.1833C36.3803 23.8891 37.7448 21.2342 40.041 21.5387C40.1536 19.589 39.8876 17.4711 40.0521 15.5414C40.1834 14.0014 41.1648 13.0039 42.7236 12.9175C43.8331 12.8566 44.7947 13.1566 45 14.3712L44.9912 25.3018C44.8443 26.5584 43.3805 28.8834 42.4918 29.7978L42.4907 29.799ZM36.239 37.2864C36.1242 35.0501 36.9378 33.1901 38.5518 31.691C40.6471 29.7469 43.1089 28.5723 43.8872 25.4391L43.8839 14.2472C43.7338 14.0412 43.5461 14.0169 43.3087 13.9947C42.2567 13.8984 41.3669 14.1619 41.1218 15.2901L41.1141 21.8299C41.7499 22.534 42.8429 23.1695 42.2611 24.3043L37.4809 29.0472C37.0747 29.1745 36.6187 28.5966 36.9466 28.2556L41.3514 23.7994C41.4232 23.5437 40.8712 23.0178 40.6603 22.865C40.0079 22.3934 39.2561 22.4244 38.6092 22.8794C37.4213 23.7142 36.1981 25.5243 34.9948 26.3813C33.9483 27.1275 32.7549 27.3655 31.6509 28.332C28.9297 30.7145 28.9363 33.8997 29.05 37.2842H36.239V37.2864ZM37.9744 43.9159V38.5707C37.9744 38.5563 37.8474 38.4246 37.8077 38.4058H27.4813C27.4426 38.4246 27.3146 38.5563 27.3146 38.5707V43.9159H37.9744Z" fill="url(#paint9_linear_6252_23447)"/>
<defs>
<linearGradient id="paint0_linear_6252_23447" x1="37.6624" y1="33.6397" x2="37.6624" y2="41.6506" gradientUnits="userSpaceOnUse">
<stop stop-color="#ED3040"/>
<stop offset="1" stop-color="#2D23F4"/>
</linearGradient>
<linearGradient id="paint1_linear_6252_23447" x1="37.6624" y1="33.6397" x2="37.6624" y2="41.6506" gradientUnits="userSpaceOnUse">
<stop stop-color="#ED3040"/>
<stop offset="1" stop-color="#2D23F4"/>
</linearGradient>
<linearGradient id="paint2_linear_6252_23447" x1="37.6624" y1="33.6397" x2="37.6624" y2="41.6506" gradientUnits="userSpaceOnUse">
<stop stop-color="#ED3040"/>
<stop offset="1" stop-color="#2D23F4"/>
</linearGradient>
<linearGradient id="paint3_linear_6252_23447" x1="37.6624" y1="33.6397" x2="37.6624" y2="41.6506" gradientUnits="userSpaceOnUse">
<stop stop-color="#ED3040"/>
<stop offset="1" stop-color="#2D23F4"/>
</linearGradient>
<linearGradient id="paint4_linear_6252_23447" x1="37.6624" y1="33.6397" x2="37.6624" y2="41.6506" gradientUnits="userSpaceOnUse">
<stop stop-color="#ED3040"/>
<stop offset="1" stop-color="#2D23F4"/>
</linearGradient>
<linearGradient id="paint5_linear_6252_23447" x1="37.6624" y1="33.6397" x2="37.6624" y2="41.6506" gradientUnits="userSpaceOnUse">
<stop stop-color="#ED3040"/>
<stop offset="1" stop-color="#2D23F4"/>
</linearGradient>
<linearGradient id="paint6_linear_6252_23447" x1="37.6624" y1="33.6397" x2="37.6624" y2="41.6506" gradientUnits="userSpaceOnUse">
<stop stop-color="#ED3040"/>
<stop offset="1" stop-color="#2D23F4"/>
</linearGradient>
<linearGradient id="paint7_linear_6252_23447" x1="37.6624" y1="33.6397" x2="37.6624" y2="41.6506" gradientUnits="userSpaceOnUse">
<stop stop-color="#ED3040"/>
<stop offset="1" stop-color="#2D23F4"/>
</linearGradient>
<linearGradient id="paint8_linear_6252_23447" x1="37.6624" y1="33.6397" x2="37.6624" y2="41.6506" gradientUnits="userSpaceOnUse">
<stop stop-color="#ED3040"/>
<stop offset="1" stop-color="#2D23F4"/>
</linearGradient>
<linearGradient id="paint9_linear_6252_23447" x1="37.6624" y1="33.6397" x2="37.6624" y2="41.6506" gradientUnits="userSpaceOnUse">
<stop stop-color="#ED3040"/>
<stop offset="1" stop-color="#2D23F4"/>
</linearGradient>
</defs>
</svg>
