<svg width="50" height="50" viewBox="0 0 50 50" fill="none" xmlns="http://www.w3.org/2000/svg">
<path d="M45 10.4592V36.9736C44.7507 37.3976 44.5411 37.6174 44.0248 37.6757L31.2959 37.6789C30.135 37.5716 30.5418 36.4276 31.0644 36.4276H43.8297V11.0051H17.2445C17.1955 11.0051 16.8878 10.7634 16.8554 10.6925C16.6124 10.156 17.0129 9.73404 17.5542 9.75488C26.4626 9.79655 35.3845 9.68612 44.2835 9.8101C44.6412 9.92678 44.8112 10.1591 45 10.4592Z" fill="url(#paint0_linear_6252_23475)"/>
<path d="M27.4117 12.0333C28.1512 11.8719 28.3171 12.8324 28.7989 13.1887C29.2161 13.4971 30.2811 13.5086 30.3885 14.1035C30.4771 14.5973 29.6678 15.1817 29.5603 15.5849C29.4362 16.0527 29.7314 16.9049 29.3486 17.2445C28.8448 17.6904 28.0928 17.0122 27.5494 17.0206C27.224 17.0258 26.6754 17.3737 26.2905 17.3946C25.3132 17.4487 25.6897 16.0746 25.5406 15.5068C25.4644 15.2172 24.872 14.7275 24.7938 14.3785C24.5862 13.4513 25.817 13.5784 26.3353 13.221C26.6785 12.9856 26.9632 12.1302 27.4117 12.0323V12.0333ZM27.6662 13.6565C27.5651 13.5867 27.1656 14.1555 26.9914 14.267C26.8016 14.3889 26.5596 14.467 26.3406 14.515C26.7087 14.9807 26.8965 15.3797 26.8099 15.9954C27.3512 15.7016 27.8227 15.7287 28.3703 15.9954C28.2952 15.3839 28.4141 15.0359 28.7624 14.5546C28.5768 14.3618 28.2701 14.3952 28.0605 14.2399C27.8978 14.1191 27.6965 13.6773 27.6673 13.6576L27.6662 13.6565Z" fill="url(#paint1_linear_6252_23475)"/>
<path d="M33.9358 22.8027C34.1454 22.5568 34.9986 22.4547 35.3125 22.2682C35.7631 21.9994 36.0124 21.0222 36.6069 21.0222C37.2014 21.0222 37.4507 21.9994 37.9013 22.2682C38.4228 22.5787 39.5743 22.4995 39.3615 23.4278C39.2812 23.7799 38.6898 24.2685 38.6168 24.555C38.4958 25.0259 38.7565 25.7573 38.4436 26.1761C37.9983 26.772 37.167 26.0615 36.6079 26.0563C36.0489 26.0511 35.3762 26.647 34.887 26.2928C34.3738 25.9209 34.7441 25.0582 34.5991 24.554C34.4635 24.0852 33.3892 23.4444 33.9358 22.8048V22.8027ZM37.8168 23.483C37.2734 23.4361 36.8291 23.1434 36.6445 22.6245C36.2752 23.0538 36.0426 23.4611 35.397 23.483C35.47 23.783 35.7308 23.9612 35.8121 24.2769C35.8737 24.5133 35.8778 24.7228 35.8653 24.9645C36.4108 24.7988 36.8009 24.7582 37.3474 24.9645C37.3506 24.728 37.3224 24.4946 37.3839 24.2602C37.4278 24.0956 37.8783 23.5517 37.8158 23.483H37.8168Z" fill="url(#paint2_linear_6252_23475)"/>
<path d="M21.3226 14.9171C22.0121 14.7754 22.2488 15.7975 22.6723 16.111C23.199 16.5028 24.5247 16.3152 24.1961 17.4029C24.1023 17.7144 23.5516 18.1655 23.4702 18.4708C23.3513 18.9198 23.6079 19.7095 23.2981 20.0919C22.8642 20.6273 21.9484 19.9283 21.4614 19.9283C21.0754 19.9283 20.5101 20.32 20.0575 20.2888C19.1563 20.2273 19.5965 19.0136 19.4515 18.4697C19.3733 18.177 18.8132 17.6748 18.7245 17.4029C18.3772 16.333 19.7383 16.4892 20.2494 16.11C20.5821 15.8631 20.8898 15.0057 21.3226 14.9161V14.9171ZM22.6702 17.4008C22.0757 17.3269 21.7941 16.9924 21.4603 16.5434C21.1266 16.9924 20.8449 17.3269 20.2504 17.4008C20.5174 17.9207 20.846 18.2228 20.7187 18.8813C21.2861 18.6541 21.6314 18.6135 22.2009 18.8813C22.0747 18.2228 22.4022 17.9207 22.6702 17.4008Z" fill="url(#paint3_linear_6252_23475)"/>
<path d="M19.7258 22.2109C20.0387 22.4599 21.0275 22.5047 21.2559 22.9058C21.6376 23.5788 20.75 23.9976 20.5967 24.4915C20.4663 24.9103 20.6416 25.8448 20.3662 26.2105C19.9573 26.7522 19.0311 26.0334 18.495 26.0511C18.034 26.0667 17.3842 26.5824 16.943 26.3574C16.2891 26.0229 16.723 25.1437 16.5457 24.5686C16.4549 24.2748 15.7936 23.6716 15.7332 23.3455C15.5757 22.4849 16.8721 22.561 17.3237 22.2359C17.7754 21.9109 18.1123 20.5628 18.9248 21.1774C19.2471 21.4212 19.4869 22.0203 19.7248 22.2099L19.7258 22.2109ZM19.3128 24.9634C19.1897 24.2894 19.4171 24.1477 19.7039 23.6757C19.7529 23.5945 19.8322 23.6257 19.7039 23.5215C19.536 23.3851 19.2398 23.384 19.0395 23.2486C18.8392 23.1131 18.7537 22.8506 18.5712 22.7016C18.1738 23.0256 17.9652 23.4872 17.3623 23.4819C17.6106 24.0216 17.8765 24.305 17.7535 24.9624C18.3334 24.7738 18.7339 24.7738 19.3138 24.9624L19.3128 24.9634Z" fill="url(#paint4_linear_6252_23475)"/>
<path d="M31.0456 28.8848C31.2719 28.6619 32.1032 28.5775 32.4265 28.3535C32.9303 28.0045 33.1003 26.922 33.917 27.1825C34.3175 27.3106 34.6127 28.1431 34.9318 28.3525C35.4241 28.6765 36.6851 28.5702 36.4744 29.5089C36.3983 29.8485 35.808 30.3215 35.7276 30.6361C35.6265 31.0289 35.7141 31.9968 35.5587 32.2603C35.1842 32.8917 34.1955 32.1635 33.7126 32.1426C33.3736 32.128 32.778 32.5021 32.3806 32.525C31.3939 32.5791 31.8497 31.2633 31.7089 30.7153C31.5911 30.2538 30.4365 29.486 31.0466 28.8848H31.0456ZM34.9277 29.6443C34.306 29.5558 34.1579 29.2359 33.7908 28.8682C33.5571 28.6348 33.4466 29.1922 33.2088 29.3682C33.0002 29.5235 32.6925 29.4912 32.5068 29.6829C32.8552 30.1652 32.9731 30.5122 32.899 31.1237C33.4497 30.8341 33.9086 30.8351 34.4593 31.1237C34.3665 30.4788 34.5438 30.1267 34.9287 29.6433L34.9277 29.6443Z" fill="url(#paint5_linear_6252_23475)"/>
<path d="M28.7833 31.2571C29.2526 31.5863 30.7734 31.5259 30.3019 32.5489C30.1788 32.8177 29.6177 33.3876 29.5572 33.598C29.431 34.0346 29.6991 34.793 29.4216 35.1785C28.9888 35.7796 28.0991 35.0712 27.6151 35.0462C27.1312 35.0212 26.278 35.7275 25.7721 35.2608C25.5176 35.0253 25.6219 33.9585 25.5416 33.597C25.4446 33.1584 24.7364 32.7073 24.7698 32.176C24.8094 31.5373 25.9296 31.5196 26.3364 31.2373C26.8829 30.8581 27.0967 29.5516 27.9802 30.2246C28.2879 30.459 28.5841 31.1154 28.7822 31.255L28.7833 31.2571ZM28.8386 32.5291C28.1815 32.5073 27.9249 32.0686 27.5129 31.6707C27.3241 32.2312 26.8819 32.4208 26.3406 32.5291C26.691 33.0167 26.909 33.3709 26.8099 34.0096C27.4107 33.7533 27.7653 33.772 28.3703 34.0096C28.2837 33.3532 28.4308 33.0115 28.8396 32.5291H28.8386Z" fill="url(#paint6_linear_6252_23475)"/>
<path d="M32.4849 16.1288C32.7738 15.8985 33.0794 15.0692 33.5196 14.9359C34.2268 14.7223 34.4781 15.7964 34.9297 16.11C35.3814 16.4236 36.6382 16.4059 36.4734 17.2633C36.4025 17.63 35.8424 18.0707 35.7433 18.4103C35.6014 18.8938 35.8027 20.0398 35.3157 20.245C34.7983 20.4627 34.1381 19.9304 33.7167 19.9304C33.2056 19.9304 32.1762 20.7117 31.8143 20.0033C31.6036 19.5907 31.8091 18.9938 31.7089 18.5479C31.6088 18.102 30.8172 17.5467 30.8672 17.057C30.9392 16.3559 32.0917 16.4423 32.4839 16.1298L32.4849 16.1288ZM34.9277 17.4008C34.3905 17.3196 33.9368 17.0799 33.7553 16.5424C33.3433 16.9403 33.0867 17.38 32.4297 17.4008C32.8385 17.8832 32.9856 18.2249 32.899 18.8813C33.4873 18.6437 33.8711 18.6437 34.4593 18.8813C34.3592 18.2426 34.5772 17.8884 34.9287 17.4008H34.9277Z" fill="url(#paint7_linear_6252_23475)"/>
<path d="M10.1009 5C12.2996 5.44486 13.2873 7.96711 11.897 9.75696H14.7465C14.7694 9.75696 15.098 9.95074 15.1345 9.99346C15.4056 10.3123 15.1553 11.0051 14.8247 11.0051H11.3504V31.3196C11.3504 31.6769 10.6036 31.9395 10.2991 31.5905C10.2647 31.5509 10.1019 31.1873 10.1019 31.1633V10.8488C9.76401 10.8269 9.40208 10.9176 9.0871 10.7707V41.419H10.1019V33.8939C10.1019 33.7324 10.4242 33.3397 10.613 33.3084C10.8686 33.2657 11.3504 33.4887 11.3504 33.7387V36.4287H28.5653C29.1098 36.4287 29.1098 37.6768 28.5653 37.6768H11.3504V41.4201H12.4821C12.9577 41.4201 13.7212 42.1149 13.9402 42.5369C14.3272 43.2797 14.4075 44.8831 13.2664 44.9331C10.9019 44.7622 8.24956 45.1477 5.92052 44.9331C4.55313 44.807 4.91193 42.6869 5.69001 41.966C5.81517 41.8503 6.58179 41.4201 6.70486 41.4201H7.83653L7.79585 10.2279C5.81205 8.61408 6.59117 5.61884 9.00783 5H10.1009ZM9.46154 6.18768C7.21281 6.34812 7.41307 9.95283 9.97678 9.59444C11.9272 9.32148 11.7103 6.02828 9.46154 6.18768ZM12.989 43.7579C13.0151 43.187 12.7418 42.7057 12.1504 42.6067C11.1877 42.4452 8.4519 42.5088 7.40368 42.5848C6.58805 42.6442 6.25011 42.914 6.19692 43.7579H12.989Z" fill="url(#paint8_linear_6252_23475)"/>
<path d="M23.2731 32.351C22.7943 32.8292 21.9766 32.1416 21.4582 32.151C20.9399 32.1603 20.1159 32.8188 19.6476 32.351C19.3211 32.0249 19.5516 31.1508 19.4525 30.7122C19.3347 30.1861 18.3511 29.6672 18.761 28.9755C18.9686 28.6254 19.9292 28.5754 20.2442 28.3514C20.6718 28.0462 20.9847 26.772 21.7764 27.2221C22.0976 27.4054 22.4084 28.1608 22.6754 28.3514C22.9998 28.5827 24.0824 28.6327 24.2149 29.0744C24.4277 29.7891 23.6381 30.1444 23.4869 30.6539C23.3513 31.1112 23.61 32.0145 23.2731 32.351ZM22.2019 31.0466C22.1164 30.4861 22.3521 30.1059 22.6692 29.6818C22.108 29.462 21.8129 29.287 21.4603 28.7869C21.1088 29.287 20.8137 29.461 20.2515 29.6818C20.5685 30.1059 20.8032 30.4861 20.7187 31.0477C21.2841 30.9101 21.6335 30.8653 22.2009 31.0477L22.2019 31.0466Z" fill="url(#paint9_linear_6252_23475)"/>
<defs>
<linearGradient id="paint0_linear_6252_23475" x1="0" y1="0" x2="0" y2="1" gradientUnits="objectBoundingBox">
<stop stop-color="#ED3040"/>
<stop offset="1" stop-color="#2D23F4"/>
</linearGradient>
<linearGradient id="paint1_linear_6252_23475" x1="0" y1="0" x2="0" y2="1" gradientUnits="objectBoundingBox">
<stop stop-color="#ED3040"/>
<stop offset="1" stop-color="#2D23F4"/>
</linearGradient>
<linearGradient id="paint2_linear_6252_23475" x1="0" y1="0" x2="0" y2="1" gradientUnits="objectBoundingBox">
<stop stop-color="#ED3040"/>
<stop offset="1" stop-color="#2D23F4"/>
</linearGradient>
<linearGradient id="paint3_linear_6252_23475" x1="0" y1="0" x2="0" y2="1" gradientUnits="objectBoundingBox">
<stop stop-color="#ED3040"/>
<stop offset="1" stop-color="#2D23F4"/>
</linearGradient>
<linearGradient id="paint4_linear_6252_23475" x1="0" y1="0" x2="0" y2="1" gradientUnits="objectBoundingBox">
<stop stop-color="#ED3040"/>
<stop offset="1" stop-color="#2D23F4"/>
</linearGradient>
<linearGradient id="paint5_linear_6252_23475" x1="0" y1="0" x2="0" y2="1" gradientUnits="objectBoundingBox">
<stop stop-color="#ED3040"/>
<stop offset="1" stop-color="#2D23F4"/>
</linearGradient>
<linearGradient id="paint6_linear_6252_23475" x1="0" y1="0" x2="0" y2="1" gradientUnits="objectBoundingBox">
<stop stop-color="#ED3040"/>
<stop offset="1" stop-color="#2D23F4"/>
</linearGradient>
<linearGradient id="paint7_linear_6252_23475" x1="0" y1="0" x2="0" y2="1" gradientUnits="objectBoundingBox">
<stop stop-color="#ED3040"/>
<stop offset="1" stop-color="#2D23F4"/>
</linearGradient>
<linearGradient id="paint8_linear_6252_23475" x1="0" y1="0" x2="0" y2="1" gradientUnits="objectBoundingBox">
<stop stop-color="#ED3040"/>
<stop offset="1" stop-color="#2D23F4"/>
</linearGradient>
<linearGradient id="paint9_linear_6252_23475" x1="0" y1="0" x2="0" y2="1" gradientUnits="objectBoundingBox">
<stop stop-color="#ED3040"/>
<stop offset="1" stop-color="#2D23F4"/>
</linearGradient>
</defs>
</svg>
