<svg width="32" height="32" viewBox="0 0 32 32" fill="none" xmlns="http://www.w3.org/2000/svg">
<path d="M5.00133 20.8256H3.00136C2.72487 20.8256 2.50137 21.0527 2.50137 21.3335V23.8731C2.50137 24.154 2.72487 24.381 3.00136 24.381H5.00133C5.27782 24.381 5.50132 24.154 5.50132 23.8731V21.3335C5.50132 21.0527 5.27782 20.8256 5.00133 20.8256ZM4.50134 23.3652H3.50135V21.8414H4.50134V23.3652ZM9.00127 20.8256H7.0013C6.7248 20.8256 6.50131 21.0527 6.50131 21.3335V23.8731C6.50131 24.154 6.7248 24.381 7.0013 24.381H9.00127C9.27776 24.381 9.50126 24.154 9.50126 23.8731V21.3335C9.50126 21.0527 9.27776 20.8256 9.00127 20.8256ZM8.50128 23.3652H7.50129V21.8414H8.50128V23.3652ZM15.0032 20.8256H13.0032C12.7267 20.8256 12.5032 21.0527 12.5032 21.3335V23.8731C12.5032 24.154 12.7267 24.381 13.0032 24.381H15.0032C15.2797 24.381 15.5032 24.154 15.5032 23.8731V21.3335C15.5032 21.0527 15.2797 20.8256 15.0032 20.8256ZM14.5032 23.3652H13.5032V21.8414H14.5032V23.3652ZM19.5071 21.3335C19.5071 21.0527 19.2836 20.8256 19.0071 20.8256H17.0071C16.7306 20.8256 16.5072 21.0527 16.5072 21.3335V23.8731C16.5072 24.154 16.7306 24.381 17.0071 24.381H19.0071C19.2836 24.381 19.5071 24.154 19.5071 23.8731V21.3335ZM18.5071 23.3652H17.5071V21.8414H18.5071V23.3652ZM23.001 24.381H25.001C25.2775 24.381 25.501 24.154 25.501 23.8731V21.3335C25.501 21.0527 25.2775 20.8256 25.001 20.8256H23.001C22.7246 20.8256 22.5011 21.0527 22.5011 21.3335V23.8731C22.5011 24.154 22.7246 24.381 23.001 24.381ZM23.501 21.8414H24.501V23.3652H23.501V21.8414ZM27.001 24.381H29.001C29.2775 24.381 29.5009 24.154 29.5009 23.8731V21.3335C29.5009 21.0527 29.2775 20.8256 29.001 20.8256H27.001C26.7245 20.8256 26.501 21.0527 26.501 21.3335V23.8731C26.501 24.154 26.7245 24.381 27.001 24.381ZM27.501 21.8414H28.501V23.3652H27.501V21.8414ZM5.00133 25.4014H3.00136C2.72487 25.4014 2.50137 25.6284 2.50137 25.9093V28.4489C2.50137 28.7297 2.72487 28.9568 3.00136 28.9568H5.00133C5.27782 28.9568 5.50132 28.7297 5.50132 28.4489V25.9093C5.50132 25.6284 5.27782 25.4014 5.00133 25.4014ZM4.50134 27.941H3.50135V26.4172H4.50134V27.941ZM9.00127 25.4014H7.0013C6.7248 25.4014 6.50131 25.6284 6.50131 25.9093V28.4489C6.50131 28.7297 6.7248 28.9568 7.0013 28.9568H9.00127C9.27776 28.9568 9.50126 28.7297 9.50126 28.4489V25.9093C9.50126 25.6284 9.27776 25.4014 9.00127 25.4014ZM8.50128 27.941H7.50129V26.4172H8.50128V27.941ZM23.001 28.9568H25.001C25.2775 28.9568 25.501 28.7297 25.501 28.4489V25.9093C25.501 25.6284 25.2775 25.4014 25.001 25.4014H23.001C22.7246 25.4014 22.5011 25.6284 22.5011 25.9093V28.4489C22.5011 28.7297 22.7246 28.9568 23.001 28.9568ZM23.501 26.4172H24.501V27.941H23.501V26.4172ZM27.001 28.9568H29.001C29.2775 28.9568 29.5009 28.7297 29.5009 28.4489V25.9093C29.5009 25.6284 29.2775 25.4014 29.001 25.4014H27.001C26.7245 25.4014 26.501 25.6284 26.501 25.9093V28.4489C26.501 28.7297 26.7245 28.9568 27.001 28.9568ZM27.501 26.4172H28.501V27.941H27.501V26.4172Z" fill="black"/>
<path d="M31.9885 18.7338C31.986 18.712 31.991 18.6907 31.9855 18.6688L31.4865 16.6372C31.483 16.624 31.474 16.6143 31.4695 16.6016C31.459 16.5681 31.443 16.5381 31.4255 16.5077C31.41 16.4807 31.395 16.4548 31.375 16.432C31.353 16.4056 31.3275 16.3853 31.301 16.3639C31.277 16.3456 31.2545 16.3284 31.228 16.3141C31.1985 16.2984 31.1675 16.2887 31.1345 16.2796C31.103 16.2705 31.0735 16.2634 31.0405 16.2603C31.027 16.2593 31.015 16.2522 31.001 16.2522H25.0206V14.2226C25.0206 13.9417 24.7971 13.7147 24.5206 13.7147H23.0001C22.7236 13.7147 22.5001 13.9417 22.5001 14.2226V16.2522H19.4987V13.2128C19.4987 12.9325 19.2762 12.7064 19.0007 12.7054V7.6197C19.2772 7.6197 19.5007 7.39266 19.5007 7.11179V5.58805C19.5007 5.30718 19.2772 5.08014 19.0007 5.08014H18.7577L16.5002 1.87166V0.507912C16.5002 0.227037 16.2767 0 16.0002 0C15.7238 0 15.5003 0.227037 15.5003 0.507912V1.87166L13.2428 5.08014H13.0003C12.7238 5.08014 12.5003 5.30718 12.5003 5.58805V7.10925C12.5003 7.11026 12.4998 7.11077 12.4998 7.11179C12.4998 7.39266 12.7233 7.6197 12.9998 7.6197V12.7054C12.7243 12.7064 12.5018 12.9325 12.5018 13.2128V16.2522H9.50035V14.2226C9.50035 13.9417 9.27686 13.7147 9.00036 13.7147H7.47988C7.20339 13.7147 6.97989 13.9417 6.97989 14.2226V16.2522H0.999484C0.985985 16.2522 0.973985 16.2593 0.960485 16.2603C0.927486 16.2634 0.896486 16.271 0.864987 16.2801C0.833487 16.2893 0.802988 16.2984 0.773488 16.3131C0.745988 16.3273 0.722989 16.3456 0.698989 16.3649C0.67249 16.3858 0.64749 16.4061 0.62599 16.4315C0.605491 16.4548 0.590491 16.4807 0.574491 16.5082C0.557491 16.5381 0.541992 16.5676 0.530992 16.6011C0.526492 16.6138 0.517492 16.624 0.513992 16.6372L0.0149998 18.6688C0.00949985 18.6902 0.0144998 18.7105 0.0119998 18.7318C0.00999984 18.7526 0.000499992 18.7704 0.000499992 18.7917C0.000499992 18.8049 0.00699989 18.8166 0.00849987 18.8298C0.0109998 18.8654 0.0189997 18.8979 0.0284996 18.9314C0.0374994 18.9624 0.0454993 18.9914 0.0599991 19.0198C0.0739989 19.0487 0.0924986 19.0736 0.112498 19.0995C0.131998 19.1249 0.151498 19.1493 0.175497 19.1706C0.199497 19.192 0.225996 19.2072 0.252996 19.2235C0.282496 19.2407 0.310495 19.256 0.343495 19.2671C0.355994 19.2717 0.365994 19.2809 0.378994 19.2844C0.418994 19.2946 0.459493 19.2986 0.498992 19.2991H0.499992V30.9821C0.223497 30.9821 0 31.2092 0 31.4901C0 31.7709 0.223497 31.998 0.499992 31.998H12.9893C12.9928 31.998 12.9958 32 12.9993 32H19.0032C19.0067 32 19.0097 31.998 19.0132 31.998H31.5C31.7765 31.998 32 31.7709 32 31.4901C32 31.2092 31.7765 30.9821 31.5 30.9821V19.3012C31.507 19.3012 31.512 19.2976 31.5185 19.2971C31.5525 19.2961 31.587 19.293 31.621 19.2849C31.632 19.2819 31.6405 19.2743 31.6515 19.2702C31.689 19.2585 31.722 19.2407 31.7545 19.2204C31.778 19.2062 31.801 19.1925 31.8215 19.1747C31.849 19.1508 31.8705 19.1239 31.892 19.0955C31.9095 19.0716 31.9265 19.0493 31.94 19.0228C31.955 18.9929 31.9645 18.9624 31.9735 18.9294C31.9825 18.8964 31.99 18.8654 31.9925 18.8314C31.9935 18.8182 32 18.8065 32 18.7933C32 18.7719 31.9905 18.7542 31.9885 18.7338ZM13.4993 30.9827V26.4196H15.5003V30.9827H13.4993ZM16.5002 30.9827V26.4196H18.5032V30.9827H16.5002ZM19.0032 25.4037H12.9993C12.7228 25.4037 12.4993 25.6308 12.4993 25.9117V30.9827H11.5008V19.0376L16.0002 15.3796L20.5007 19.0376V30.9827H19.5032V25.9117C19.5032 25.6308 19.2797 25.4037 19.0032 25.4037ZM1.14048 18.2838L1.38998 17.268H7.47238C7.47488 17.268 7.47738 17.2695 7.47988 17.2695H9.00036C9.00286 17.2695 9.00536 17.268 9.00786 17.268H12.0768L10.8273 18.2838H1.14048ZM13.5018 13.7207H18.4987V16.1089L16.3127 14.3323C16.3007 14.3221 16.2852 14.3201 16.2727 14.3114C16.2437 14.2921 16.2147 14.2774 16.1832 14.2647C16.1537 14.253 16.1257 14.2424 16.0952 14.2363C16.0632 14.2297 16.0317 14.2281 15.9993 14.2281C15.9678 14.2281 15.9378 14.2297 15.9068 14.2363C15.8753 14.2424 15.8463 14.2525 15.8158 14.2652C15.7843 14.2774 15.7563 14.2921 15.7278 14.3109C15.7148 14.3201 15.6993 14.3221 15.6873 14.3323L13.5013 16.1095L13.5018 13.7207ZM21.1767 18.2854L19.9252 17.268H22.9931C22.9956 17.268 22.9981 17.2695 23.0006 17.2695H24.5211C24.5236 17.2695 24.5261 17.268 24.5286 17.268H30.611L30.8605 18.2854H21.1767ZM23.5001 14.7305H24.0206V16.2522H23.5001V14.7305ZM18.0007 12.7049H13.9998V7.6197H15.5003V8.22158C14.9198 8.43185 14.5003 8.99056 14.5003 9.65135V10.6672C14.5003 10.9481 14.7238 11.1751 15.0003 11.1751H15.5003C15.5003 11.456 15.7238 11.683 16.0002 11.683C16.2767 11.683 16.5002 11.456 16.5002 11.1751H17.0002C17.2767 11.1751 17.5002 10.9481 17.5002 10.6672V9.65135C17.5002 8.99005 17.0807 8.43185 16.5002 8.22158V7.6197H18.0007V12.7049ZM18.5007 6.09596V6.60388H13.5003V6.09596H18.5007ZM16.5002 10.1593H15.5003V9.65135C15.5003 9.37098 15.7243 9.14344 16.0002 9.14344C16.2762 9.14344 16.5002 9.37098 16.5002 9.65135V10.1593ZM16.0002 2.9078L17.5292 5.08014H14.4718L16.0002 2.9078ZM7.97988 14.7305H8.50037V16.2522H7.97988V14.7305ZM1.50048 19.2997H10.5008V30.9827H1.50048V19.2997ZM30.5 30.9827H21.5007V19.3012H30.5V30.9827Z" fill="black"/>
<path d="M17.5001 18.2839C17.5001 17.4443 16.8276 16.7612 16.0011 16.7612C15.1746 16.7612 14.5021 17.4443 14.5021 18.2839C14.5021 19.1235 15.1746 19.8066 16.0011 19.8066C16.8276 19.8066 17.5001 19.1235 17.5001 18.2839ZM16.0011 18.7908C15.7256 18.7908 15.5021 18.5638 15.5021 18.2839C15.5021 18.004 15.7256 17.777 16.0011 17.777C16.2766 17.777 16.5001 18.004 16.5001 18.2839C16.5001 18.5638 16.2766 18.7908 16.0011 18.7908Z" fill="black"/>
</svg>
