<svg width="32" height="32" viewBox="0 0 32 32" fill="none" xmlns="http://www.w3.org/2000/svg">
<path d="M21.6648 25.2013C21.5777 24.9329 21.3453 24.7373 21.0658 24.6962L18.0265 24.2553L16.6652 21.5007C16.5408 21.2483 16.2822 21.0876 16.0005 21.0876C15.7175 21.0876 15.4601 21.2483 15.3349 21.5007L13.9742 24.2553L10.9341 24.6962C10.6553 24.7368 10.4227 24.9329 10.3352 25.2013C10.2481 25.4697 10.3207 25.7642 10.5229 25.9613L12.723 28.1066L12.2023 31.1321C12.1547 31.4107 12.2692 31.6916 12.4978 31.858C12.7265 32.0245 13.0287 32.0462 13.2793 31.9146L16.0002 30.4859L18.7197 31.9146C18.8289 31.9719 18.9476 31.9993 19.0658 31.9993C19.2199 31.9993 19.3723 31.9517 19.5019 31.858C19.7303 31.6916 19.8443 31.411 19.7967 31.1329L19.2775 28.1066L21.4776 25.9613C21.6793 25.7642 21.7525 25.4697 21.6648 25.2013ZM17.9613 27.3177C17.7868 27.4879 17.7072 27.7339 17.7486 27.9736L18.0795 29.9023L16.345 28.9918C16.2373 28.9352 16.1186 28.9063 16.0004 28.9063C15.8817 28.9063 15.763 28.9352 15.6543 28.9918L13.9206 29.9023L14.2519 27.9743C14.2933 27.7333 14.214 27.4878 14.0385 27.3176L12.6352 25.9491L14.5739 25.6675C14.8155 25.6321 15.0245 25.4806 15.1322 25.262L15.9997 23.5057L16.8672 25.262C16.9749 25.4806 17.1839 25.6326 17.4255 25.6675L19.3642 25.9491L17.9613 27.3177Z" fill="black"/>
<path d="M0.224008 27.309L1.85102 28.8956L1.46652 31.1326C1.41815 31.4105 1.53285 31.6913 1.76126 31.8578C1.98967 32.0242 2.29338 32.0459 2.54349 31.9143L4.55479 30.8582L6.56506 31.9143C6.67353 31.9717 6.79222 31.9991 6.91117 31.9991C7.06452 31.9991 7.21762 31.9515 7.34728 31.8578C7.57519 31.6913 7.68965 31.4107 7.64202 31.1326L7.25827 28.8956L8.88528 27.309C9.08676 27.1124 9.15982 26.8179 9.0723 26.549C8.98527 26.2806 8.75288 26.085 8.47335 26.0446L6.22593 25.7189L5.22079 23.6833C5.09537 23.4293 4.83778 23.2694 4.55525 23.2694C4.27223 23.2694 4.0149 23.4293 3.88895 23.6833L2.88304 25.7189L0.63562 26.0446C0.356842 26.0845 0.124197 26.2806 0.0366733 26.549C-0.0510992 26.8179 0.0215325 27.1124 0.224008 27.309ZM3.4818 27.1311C3.72418 27.095 3.93313 26.9442 4.04085 26.7257L4.55427 25.687L5.06644 26.7257C5.17491 26.9442 5.38387 27.0955 5.62549 27.1311L6.77126 27.2968L5.94141 28.106C5.76686 28.2762 5.68657 28.5221 5.72796 28.7626L5.9242 29.9024L4.89934 29.3639C4.6834 29.2508 4.42507 29.2508 4.20839 29.3639L3.18353 29.9024L3.37977 28.7626C3.42116 28.5216 3.34137 28.2762 3.16632 28.106L2.33647 27.2968L3.4818 27.1311Z" fill="black"/>
<path d="M31.3638 26.0446L29.1171 25.7189L28.1107 23.6833C27.9855 23.4294 27.7277 23.2694 27.4452 23.2694C27.1629 23.2694 26.9048 23.4294 26.7796 23.6833L25.7737 25.7189L23.5271 26.0446C23.2475 26.0845 23.0149 26.2806 22.9274 26.549C22.8403 26.8181 22.9129 27.1127 23.1151 27.309L24.7421 28.8957L24.3584 31.1326C24.31 31.4105 24.4247 31.6913 24.6531 31.8578C24.7828 31.9517 24.9354 31.9991 25.0892 31.9991C25.2079 31.9991 25.3261 31.9714 25.4353 31.9143L27.4456 30.8582L29.4569 31.9143C29.7068 32.0462 30.0105 32.0242 30.2392 31.8578C30.4678 31.6913 30.5815 31.4107 30.5339 31.1326L30.1494 28.8957L31.7764 27.309C31.9786 27.1124 32.0509 26.8179 31.9634 26.549C31.8759 26.2806 31.6433 26.0845 31.3638 26.0446ZM28.8333 28.1059C28.6588 28.2761 28.5785 28.5221 28.6199 28.7626L28.8161 29.9024L27.7905 29.3639C27.6828 29.3073 27.5641 29.2791 27.4452 29.2791C27.3265 29.2791 27.2078 29.3073 27.0998 29.3639L26.0749 29.9024L26.2712 28.7626C26.3118 28.5216 26.2328 28.2761 26.0577 28.1059L25.2281 27.2968L26.3732 27.1311C26.6156 27.0949 26.8245 26.9442 26.9323 26.7256L27.4452 25.687L27.9581 26.7256C28.0666 26.9442 28.2755 27.0954 28.5172 27.1311L29.6629 27.2968L28.8333 28.1059Z" fill="black"/>
<path d="M24.7192 16.9796C25.1835 18.5303 25.2543 20.651 25.2551 20.6721C25.2676 21.0736 25.597 21.3915 25.9967 21.3915C26.0041 21.3915 26.0126 21.3915 26.0201 21.3908C26.4293 21.3783 26.7517 21.0369 26.7393 20.6272C26.7358 20.5325 26.6625 18.2938 26.1408 16.5539C25.5685 14.6414 22.4018 13.5882 21.0635 13.2226L21.0849 13.1501C21.1652 12.8803 21.0849 12.5892 20.88 12.3968L19.9875 11.565C19.6998 11.2959 19.2517 11.3001 18.9672 11.572L15.9702 14.4437L12.9733 11.572C12.6888 11.2996 12.2402 11.2961 11.9522 11.5662L11.0623 12.398C10.8573 12.5892 10.7778 12.8807 10.858 13.1498L10.8835 13.2373C9.51602 13.6153 6.42157 14.6652 5.85702 16.5533C5.8468 16.5887 5.83907 16.6236 5.83358 16.6597L5.26805 20.5426C5.2087 20.9473 5.48972 21.3236 5.89542 21.3829C5.93157 21.3887 5.96798 21.3912 6.00239 21.3912C6.36545 21.3912 6.68236 21.1255 6.73598 20.7565L7.29304 16.9351C7.62393 16.0146 9.69507 15.107 11.3049 14.6612L11.9525 16.8466C12.0126 17.0465 12.1532 17.2129 12.342 17.3034C12.4435 17.3532 12.554 17.3779 12.6649 17.3779C12.7589 17.3779 12.8532 17.36 12.9417 17.3243L14.0234 16.8885L14.2645 17.5299L12.4749 21.5265C12.3071 21.9013 12.4749 22.3391 12.8492 22.5065C12.9477 22.5506 13.0506 22.5723 13.1514 22.5723C13.4352 22.5723 13.7062 22.4088 13.8299 22.133L15.5432 18.3059H16.4179L18.1539 22.126C18.3235 22.5001 18.7636 22.664 19.1368 22.4943C19.5096 22.3251 19.6744 21.8858 19.5054 21.5128L17.6933 17.5271L17.9302 16.8939L18.9987 17.3245C19.1919 17.4025 19.4101 17.3955 19.5984 17.3036C19.7866 17.2131 19.9277 17.0474 19.9871 16.8468L20.6409 14.6454C22.2816 15.0912 24.4354 16.0309 24.7192 16.9796ZM12.4107 13.1671L12.4528 13.1288L14.505 15.0946L13.1443 15.6431L12.4107 13.1671ZM16.3799 16.8021H15.5765L15.4004 16.3339L15.9697 16.1038L16.5529 16.3393L16.3799 16.8021ZM18.7962 15.6431L17.4342 15.0946L19.4879 13.128L19.5305 13.1686L18.7962 15.6431Z" fill="black"/>
<path d="M23.6794 19.4994C23.6794 19.0897 23.3467 18.7578 22.9365 18.7578H20.9245C20.5145 18.7578 20.1824 19.0895 20.1824 19.4994C20.1824 19.9093 20.5143 20.241 20.9245 20.241H22.9365C23.3465 20.2408 23.6794 19.9091 23.6794 19.4994Z" fill="black"/>
<path d="M10.9744 6.53591C11.0736 7.4472 11.2504 8.2466 11.5162 8.98348C11.8878 10.0017 12.5937 10.9701 13.5587 11.7841C14.1207 12.2581 14.6147 12.6319 15.4278 12.7664C15.6094 12.7953 15.7792 12.8098 15.9477 12.8098C16.6965 12.8098 17.2521 12.5195 17.7381 12.207C18.9151 11.4557 19.8377 10.3562 20.3356 9.11173C20.8064 7.9385 21.036 6.6766 21.0367 5.25222L21.0382 5.15005C21.0405 5.05361 21.0417 4.95542 21.036 4.86248C20.9968 4.02219 20.7385 3.21379 20.2697 2.46052C19.8301 1.75133 19.2414 1.16647 18.5157 0.722143C17.7722 0.271849 16.9683 0.029662 16.1294 0.00274113L15.9569 0C15.1941 0 14.457 0.177927 13.7683 0.527542C12.8275 1.00076 12.0832 1.71219 11.556 2.64243C11.1404 3.37931 10.9209 4.15306 10.9042 4.94372C10.8925 5.47924 10.917 6.01586 10.9744 6.53591ZM12.8488 3.37238C13.2275 2.7028 13.7611 2.19143 14.4384 1.85128C14.9186 1.60732 15.4303 1.48372 15.9569 1.48372L16.0799 1.48522C16.6631 1.50466 17.2234 1.67411 17.7426 1.98884C18.2657 2.30955 18.6911 2.73044 19.0085 3.24302C19.3474 3.78726 19.5257 4.3397 19.5539 4.94076C19.5574 5.00231 19.5554 5.06237 19.5539 5.12167L19.5524 5.252C19.5509 6.48329 19.3561 7.5658 18.9572 8.56028C18.5734 9.52069 17.8563 10.3712 16.9367 10.958C16.3898 11.3091 16.1008 11.3742 15.6665 11.3024C15.2391 11.2329 14.988 11.05 14.5157 10.651C13.7475 10.0034 13.1926 9.25055 12.9102 8.47756C12.6858 7.85607 12.5351 7.16903 12.4489 6.37512C12.3975 5.91784 12.3778 5.4466 12.3873 4.97542C12.4002 4.43193 12.5548 3.89268 12.8488 3.37238Z" fill="black"/>
</svg>
