<svg width="32" height="32" viewBox="0 0 32 32" fill="none" xmlns="http://www.w3.org/2000/svg">
<path fill-rule="evenodd" clip-rule="evenodd" d="M15.9998 15.7715C16.8953 15.7715 17.7706 15.9879 18.5152 16.3934C19.2598 16.7988 19.8401 17.3751 20.1828 18.0493C20.5255 18.7235 20.6151 19.4654 20.4404 20.1812C20.2657 20.8969 19.8345 21.5544 19.2013 22.0704C18.5681 22.5865 17.7614 22.9379 16.8831 23.0803C16.0048 23.2226 15.0945 23.1496 14.2672 22.8703C13.4398 22.591 12.7327 22.1181 12.2352 21.5113C11.7377 20.9045 11.4722 20.1911 11.4722 19.4613C11.4722 18.4827 11.9492 17.5442 12.7983 16.8522C13.6474 16.1603 14.799 15.7715 15.9998 15.7715ZM7.80778 9.04436C7.8049 9.12004 7.83166 9.19451 7.88417 9.25697C7.93669 9.31943 8.01223 9.36665 8.09987 9.3918L10.6837 10.1913L10.9891 7.15785L7.80778 6.24102V9.04436ZM11.6289 10.4839L15.8365 11.7859C15.9413 11.8201 16.0583 11.8201 16.1631 11.7859L23.8997 9.3918C23.9874 9.36666 24.0629 9.31944 24.1154 9.25698C24.168 9.19451 24.1947 9.12005 24.1918 9.04436V6.24102L16.4748 8.4649C16.168 8.55685 15.8311 8.55685 15.5243 8.4649L11.9361 7.43084L11.6287 10.4839H11.6289ZM24.1918 10.1469C24.1918 10.4212 24.2568 10.6955 23.8997 10.8065L16.1631 13.2007C16.0583 13.2349 15.9413 13.2349 15.8365 13.2007L11.4909 11.8559L11.5464 11.3042L15.495 12.5258C15.8195 12.6302 16.1807 12.6302 16.5053 12.5258L24.1921 10.1471L24.1918 10.1469ZM10.6011 11.0113L10.5456 11.5631L8.09987 10.8063C7.74279 10.6958 7.80778 10.421 7.80778 10.1467L10.6011 11.0113ZM10.0883 14.7151V16.6858H11.3424V14.7149C11.3424 14.5793 11.2763 14.4494 11.1587 14.3535C11.0411 14.2577 10.8816 14.2038 10.7153 14.2038C10.549 14.2038 10.3895 14.2577 10.2719 14.3535C10.1543 14.4494 10.0883 14.5793 10.0883 14.7149V14.7151ZM9.11622 17.0822C9.11622 17.1872 9.16744 17.288 9.25862 17.3623C9.34979 17.4366 9.47346 17.4784 9.6024 17.4784H11.8288C11.9577 17.4784 12.0814 17.4366 12.1726 17.3623C12.2637 17.288 12.315 17.1872 12.315 17.0822V14.7151C12.3149 14.4567 12.2208 14.2042 12.0444 13.9896C11.8681 13.7749 11.6174 13.6078 11.3243 13.5094L11.4082 12.6756L15.495 13.9402C15.8195 14.0446 16.1807 14.0446 16.5053 13.9402L24.2419 11.5461C24.5138 11.4637 24.7481 11.3152 24.9131 11.1208C25.0781 10.9263 25.1658 10.6952 25.1644 10.4588V5.96079L28.911 4.88101C29.0254 4.84822 29.1292 4.79463 29.2144 4.72429C29.2996 4.65395 29.364 4.56872 29.4028 4.47505C29.4416 4.38139 29.4537 4.28176 29.4382 4.18373C29.4226 4.08569 29.3799 3.99182 29.3132 3.90925L29.3141 3.90879C29.2183 3.78938 29.0765 3.69934 28.911 3.65285L16.4751 0.0689623C16.1683 -0.0229874 15.8313 -0.0229874 15.5245 0.0689623L3.08864 3.65285C2.97421 3.68564 2.87045 3.73923 2.78523 3.80957C2.70001 3.87991 2.63556 3.96515 2.59679 4.05881C2.55802 4.15247 2.54593 4.2521 2.56145 4.35013C2.57697 4.44817 2.61969 4.54204 2.68636 4.62461L2.68548 4.62507C2.7813 4.74447 2.92313 4.83451 3.08864 4.88101L6.8355 5.96079V10.4588C6.83406 10.6953 6.92177 10.9264 7.08677 11.1208C7.25176 11.3153 7.48608 11.4638 7.75801 11.5462L10.463 12.3832L10.3561 13.4448C10.0038 13.5112 9.68939 13.6729 9.46423 13.9036C9.23907 14.1343 9.1164 14.4203 9.11622 14.7151V17.0822ZM15.7187 3.94503L11.4278 6.4453L3.86899 4.26693L15.8475 0.814893C15.9457 0.78498 16.0539 0.78498 16.1521 0.814893L28.1306 4.26693L16.1521 7.71923C16.0539 7.74914 15.9457 7.74914 15.8475 7.71923L12.5433 6.767L16.281 4.58915C16.3337 4.55934 16.3786 4.52131 16.4131 4.47725C16.4476 4.4332 16.4711 4.384 16.4821 4.33251C16.4931 4.28101 16.4915 4.22825 16.4773 4.17727C16.4631 4.1263 16.4367 4.07812 16.3995 4.03553C16.3623 3.99294 16.3151 3.95679 16.2607 3.92917C16.2062 3.90155 16.1456 3.88301 16.0823 3.87462C16.019 3.86623 15.9542 3.86817 15.8919 3.88031C15.8295 3.89245 15.7707 3.91456 15.7188 3.94536L15.7187 3.94503ZM9.93439 24.3888C9.42915 24.1906 8.87524 24.0887 8.31455 24.0908H4.75793C3.75496 24.0935 2.79403 24.4195 2.08483 24.9975C1.37563 25.5754 0.975715 26.3586 0.972356 27.1759V27.5417C1.87049 28.2209 2.94432 28.7271 4.11461 29.0229C5.28489 29.3187 6.52175 29.3966 7.73389 29.2508C7.64899 29.1774 7.60179 29.0803 7.60199 28.9794V28.2811C7.603 27.5307 7.81352 26.7902 8.21762 26.1159C8.62172 25.4415 9.20879 24.8509 9.93439 24.3888V24.3888ZM9.06181 29.164C8.89555 29.0508 8.73304 28.9335 8.57427 28.812V28.2811C8.57858 27.1799 9.11729 26.1247 10.0728 25.346C11.0283 24.5673 12.3231 24.1283 13.6744 24.1247H18.3253C18.6604 24.1246 18.9947 24.1516 19.3233 24.2052V24.2037C20.4781 24.3952 21.5166 24.9053 22.2637 25.6481C23.0109 26.3908 23.421 27.3207 23.425 28.2811V28.8115L22.9416 29.1601L22.9424 29.1609L22.1598 29.6452C20.2871 30.6978 18.0557 31.244 15.7812 31.2067C13.5067 31.1694 11.3041 30.5504 9.48484 29.4372L9.06197 29.164H9.06181ZM8.65368 29.9111C7.15845 30.2002 5.598 30.1779 4.11611 29.8463C2.63422 29.5147 1.27856 28.8846 0.174053 28.0138C0.119513 27.9767 0.0756535 27.9302 0.045577 27.8777C0.0155006 27.8252 -5.84852e-05 27.768 1.65198e-07 27.7101V27.1759C0.00336314 26.1484 0.505723 25.1637 1.39728 24.4371C2.28884 23.7106 3.49708 23.3012 4.75793 23.2984H8.31487C9.21428 23.2997 10.0948 23.5091 10.8539 23.9022C11.7229 23.5275 12.6914 23.3319 13.6746 23.3326H18.3253C18.7242 23.3326 19.1221 23.3647 19.5132 23.4286V23.4301C20.082 23.5226 20.6314 23.6816 21.1445 23.9022C21.9037 23.5079 22.7852 23.2983 23.6855 23.2982H27.2421C28.5024 23.3022 29.7098 23.712 30.601 24.4383C31.4922 25.1646 31.9951 26.1485 32 27.1757V27.7098H31.9986C31.9986 27.9196 31.8079 28.0323 31.6175 28.1734L31.322 28.3832L31.3212 28.3824C29.1475 29.8865 26.1237 30.4467 23.3459 29.9109C21.2572 31.2636 18.6679 32 16 32C13.3321 32 10.7428 31.2636 8.65408 29.9109L8.65368 29.9111ZM6.53628 17.0557C7.24368 17.0557 7.93519 17.2267 8.52337 17.547C9.11155 17.8673 9.56997 18.3225 9.84068 18.8551C10.1114 19.3878 10.1822 19.9738 10.0442 20.5393C9.90621 21.1047 9.56557 21.6241 9.06536 22.0317C8.56516 22.4394 7.92786 22.717 7.23405 22.8295C6.54025 22.942 5.82109 22.8842 5.16753 22.6636C4.51397 22.443 3.95535 22.0695 3.56232 21.5901C3.16929 21.1108 2.95949 20.5472 2.95946 19.9707C2.9595 19.1977 3.33636 18.4563 4.00714 17.9096C4.67791 17.363 5.58767 17.0559 6.53628 17.0558V17.0557ZM8.37794 18.4697C8.0137 18.1729 7.54964 17.9708 7.04445 17.8889C6.53925 17.807 6.01561 17.8491 5.53974 18.0097C5.06386 18.1704 4.65712 18.4424 4.37096 18.7914C4.0848 19.1405 3.93206 19.5508 3.93206 19.9706C3.93206 20.3904 4.0848 20.8007 4.37096 21.1498C4.65712 21.4988 5.06386 21.7708 5.53974 21.9315C6.01561 22.0921 6.53925 22.1342 7.04445 22.0523C7.54964 21.9704 8.0137 21.7683 8.37794 21.4715C8.6198 21.2744 8.81166 21.0404 8.94256 20.7829C9.07345 20.5254 9.14083 20.2493 9.14083 19.9706C9.14083 19.6919 9.07345 19.4158 8.94256 19.1583C8.81166 18.9008 8.6198 18.6668 8.37794 18.4697ZM24.2639 29.2508C25.4035 29.3881 26.5657 29.3278 27.6747 29.074C28.7837 28.8201 29.8144 28.3783 30.6995 27.7775L30.6987 27.7768L31.0272 27.5413V27.1759C31.0251 26.3582 30.6256 25.5745 29.9161 24.9963C29.2067 24.4181 28.245 24.0925 27.2417 24.0908H23.6847C23.1236 24.09 22.5694 24.192 22.0632 24.3893C22.7889 24.8514 23.3761 25.4418 23.7806 26.1161C24.1851 26.7903 24.3962 27.5306 24.3979 28.2811V28.9794H24.3965C24.3967 29.0804 24.3493 29.1775 24.2642 29.2508H24.2639ZM25.4637 17.0557C26.1711 17.0558 26.8626 17.2268 27.4507 17.5471C28.0389 17.8674 28.4972 18.3227 28.7679 18.8553C29.0386 19.3879 29.1093 19.974 28.9713 20.5394C28.8333 21.1048 28.4926 21.6242 27.9924 22.0318C27.4922 22.4394 26.8549 22.717 26.1611 22.8295C25.4673 22.942 24.7481 22.8842 24.0946 22.6636C23.441 22.443 22.8824 22.0694 22.4894 21.5901C22.0964 21.1108 21.8866 20.5472 21.8866 19.9707C21.8866 19.5879 21.9791 19.2088 22.1589 18.8551C22.3386 18.5015 22.6021 18.1801 22.9343 17.9094C23.2665 17.6387 23.6608 17.424 24.0948 17.2775C24.5288 17.1311 24.994 17.0557 25.4637 17.0557ZM27.3054 18.4697C26.9411 18.1729 26.4771 17.9708 25.9719 17.8889C25.4667 17.807 24.9431 17.8491 24.4672 18.0097C23.9913 18.1704 23.5846 18.4424 23.2984 18.7914C23.0122 19.1405 22.8595 19.5508 22.8595 19.9706C22.8595 20.3904 23.0122 20.8007 23.2984 21.1498C23.5846 21.4988 23.9913 21.7708 24.4672 21.9315C24.9431 22.0921 25.4667 22.1342 25.9719 22.0523C26.4771 21.9704 26.9411 21.7683 27.3054 21.4715C27.5472 21.2744 27.7391 21.0404 27.87 20.7829C28.0009 20.5254 28.0683 20.2493 28.0683 19.9706C28.0683 19.6919 28.0009 19.4158 27.87 19.1583C27.7391 18.9008 27.5472 18.6668 27.3054 18.4697ZM18.5146 17.4125C18.0174 17.0073 17.3838 16.7313 16.6942 16.6195C16.0045 16.5077 15.2896 16.5651 14.6399 16.7844C13.9903 17.0037 13.435 17.3751 13.0443 17.8516C12.6537 18.3281 12.4452 18.8883 12.4452 19.4614C12.4452 20.0344 12.6537 20.5946 13.0443 21.0711C13.435 21.5476 13.9903 21.919 14.6399 22.1383C15.2896 22.3576 16.0045 22.415 16.6942 22.3032C17.3838 22.1914 18.0174 21.9155 18.5146 21.5103C19.1812 20.9668 19.5557 20.2297 19.5555 19.4613C19.5554 18.6928 19.1807 17.9558 18.5139 17.4125H18.5146Z" fill="black"/>
</svg>
