<svg width="32" height="32" viewBox="0 0 32 32" fill="none" xmlns="http://www.w3.org/2000/svg">
<path d="M13.3333 31.9997C15.2101 31.9997 16.7637 30.6061 17.024 28.7997H22.7125L22.0229 29.4893L22.7771 30.2434L24.3771 28.6434C24.4268 28.594 24.4662 28.5353 24.4931 28.4705C24.52 28.4058 24.5339 28.3364 24.5339 28.2664C24.5339 28.1963 24.52 28.1269 24.4931 28.0622C24.4662 27.9974 24.4268 27.9387 24.3771 27.8893L22.7771 26.2893L22.0229 27.0434L22.7125 27.733H17.024C16.7637 25.9266 15.2101 24.533 13.3333 24.533C11.2747 24.533 9.59999 26.2077 9.59999 28.2664C9.59999 30.325 11.2747 31.9997 13.3333 31.9997ZM13.3333 25.5997C14.8037 25.5997 16 26.796 16 28.2664C16 29.7368 14.8037 30.933 13.3333 30.933C11.8629 30.933 10.6667 29.7368 10.6667 28.2664C10.6667 26.796 11.8629 25.5997 13.3333 25.5997Z" fill="black"/>
<path d="M28.2667 32C30.3253 32 32 30.3253 32 28.2667C32 26.208 30.3253 24.5333 28.2667 24.5333C26.208 24.5333 24.5333 26.208 24.5333 28.2667C24.5333 30.3253 26.208 32 28.2667 32ZM28.2667 25.6C29.7371 25.6 30.9333 26.7963 30.9333 28.2667C30.9333 29.7371 29.7371 30.9333 28.2667 30.9333C26.7963 30.9333 25.6 29.7371 25.6 28.2667C25.6 26.7963 26.7963 25.6 28.2667 25.6ZM11.2 12.2667C9.3232 12.2667 7.7696 13.6603 7.50933 15.4667H6.66667C2.9904 15.4667 0 18.4571 0 22.1333C0 25.8096 2.9904 28.8 6.66667 28.8H7.7792L7.0896 29.4896L7.84373 30.2437L9.44373 28.6437C9.49343 28.5943 9.53287 28.5356 9.55978 28.4709C9.5867 28.4061 9.60055 28.3368 9.60055 28.2667C9.60055 28.1966 9.5867 28.1272 9.55978 28.0625C9.53287 27.9978 9.49343 27.939 9.44373 27.8896L7.84373 26.2896L7.0896 27.0437L7.7792 27.7333H6.66667C3.57867 27.7333 1.06667 25.2213 1.06667 22.1333C1.06667 19.0453 3.57867 16.5333 6.66667 16.5333H7.50933C7.7696 18.3397 9.3232 19.7333 11.2 19.7333C13.2587 19.7333 14.9333 18.0587 14.9333 16C14.9333 13.9413 13.2587 12.2667 11.2 12.2667ZM11.2 18.6667C9.7296 18.6667 8.53333 17.4704 8.53333 16C8.53333 14.5296 9.7296 13.3333 11.2 13.3333C12.6704 13.3333 13.8667 14.5296 13.8667 16C13.8667 17.4704 12.6704 18.6667 11.2 18.6667ZM13.1771 1.75627L12.4229 2.5104L13.1125 3.2H7.424C7.16373 1.3936 5.61067 0 3.73333 0C1.67467 0 0 1.67467 0 3.73333C0 5.792 1.67467 7.46667 3.73333 7.46667C5.61013 7.46667 7.16373 6.07307 7.424 4.26667H13.1125L12.4229 4.95627L13.1771 5.7104L14.7771 4.1104C14.8268 4.06098 14.8662 4.00223 14.8931 3.93752C14.92 3.87281 14.9339 3.80342 14.9339 3.73333C14.9339 3.66325 14.92 3.59386 14.8931 3.52915C14.8662 3.46443 14.8268 3.40568 14.7771 3.35627L13.1771 1.75627ZM3.73333 6.4C2.26293 6.4 1.06667 5.20373 1.06667 3.73333C1.06667 2.26293 2.26293 1.06667 3.73333 1.06667C5.20373 1.06667 6.4 2.26293 6.4 3.73333C6.4 5.20373 5.20373 6.4 3.73333 6.4Z" fill="black"/>
<path d="M32 9.86666C32 6.1904 29.0096 3.2 25.3333 3.2H22.3573C22.0971 1.3936 20.544 0 18.6667 0C16.608 0 14.9333 1.67467 14.9333 3.73333C14.9333 5.792 16.608 7.46667 18.6667 7.46667C20.5435 7.46667 22.0971 6.07307 22.3573 4.26667H25.3333C28.4213 4.26667 30.9333 6.77867 30.9333 9.86666C30.9333 12.9547 28.4213 15.4667 25.3333 15.4667H16.7541L17.4437 14.7771L16.6896 14.0229L15.0896 15.6229C15.0399 15.6723 15.0005 15.7311 14.9736 15.7958C14.9466 15.8605 14.9328 15.9299 14.9328 16C14.9328 16.0701 14.9466 16.1395 14.9736 16.2042C15.0005 16.2689 15.0399 16.3277 15.0896 16.3771L16.6896 17.9771L17.4437 17.2229L16.7541 16.5333H25.3333C29.0096 16.5333 32 13.5429 32 9.86666ZM18.6667 6.4C17.1963 6.4 16 5.20373 16 3.73333C16 2.26293 17.1963 1.06667 18.6667 1.06667C20.1371 1.06667 21.3333 2.26293 21.3333 3.73333C21.3333 5.20373 20.1371 6.4 18.6667 6.4Z" fill="black"/>
</svg>
