<svg width="32" height="32" viewBox="0 0 32 32" fill="none" xmlns="http://www.w3.org/2000/svg">
<path d="M23.1673 28.1427C23.1673 28.4475 22.92 28.6945 22.6151 28.6945C22.3102 28.6945 22.0631 28.4475 22.0631 28.1427C22.0631 27.838 22.3102 27.591 22.6151 27.591C22.92 27.591 23.1673 27.838 23.1673 28.1427Z" fill="black"/>
<path d="M25.375 28.1427C25.375 28.4475 25.1276 28.6945 24.8227 28.6945C24.5178 28.6945 24.2707 28.4475 24.2707 28.1427C24.2707 27.838 24.5178 27.591 24.8227 27.591C25.1276 27.591 25.375 27.838 25.375 28.1427Z" fill="black"/>
<path d="M27.5834 28.1427C27.5834 28.4475 27.336 28.6945 27.0311 28.6945C26.7262 28.6945 26.4791 28.4475 26.4791 28.1427C26.4791 27.838 26.7262 27.591 27.0311 27.591C27.336 27.591 27.5834 27.838 27.5834 28.1427Z" fill="black"/>
<path d="M29.7918 28.1427C29.7918 28.4475 29.5444 28.6945 29.2395 28.6945C28.9346 28.6945 28.6875 28.4475 28.6875 28.1427C28.6875 27.838 28.9346 27.591 29.2395 27.591C29.5444 27.591 29.7918 27.838 29.7918 28.1427Z" fill="black"/>
<path d="M29.2393 22.6194V22.0677C29.2393 21.7629 28.9922 21.5159 28.6873 21.5159C28.3824 21.5159 28.1353 21.7629 28.1353 22.0677V22.6194H23.7187V22.0677C23.7187 21.7629 23.4716 21.5159 23.1667 21.5159C22.8618 21.5159 22.6145 21.7629 22.6145 22.0677V22.6194H20.4065C20.1016 22.6194 19.8542 22.8666 19.8542 23.1714V31.448C19.8542 31.5945 19.9126 31.7347 20.0161 31.8382C20.1194 31.9417 20.26 32 20.4065 32H31.4477C31.5943 32 31.7345 31.9417 31.8381 31.8382C31.9417 31.7347 32 31.5945 32 31.448V23.1714C32 23.0249 31.9417 22.8847 31.8381 22.7812C31.7345 22.6777 31.5943 22.6194 31.4477 22.6194H29.2393ZM20.9582 23.7231H22.6145H22.6142C22.6142 24.0278 22.8616 24.2748 23.1665 24.2748C23.4714 24.2748 23.7185 24.0278 23.7185 23.7231H28.135C28.135 24.0278 28.3821 24.2748 28.687 24.2748C28.9919 24.2748 29.239 24.0278 29.239 23.7231H30.8953V25.3785H20.9579L20.9582 23.7231ZM20.9582 30.8965V26.4822H30.8956V30.8965H20.9582Z" fill="black"/>
<path d="M15.9903 3.95835C15.6771 4.27158 15.2517 4.44654 14.8087 4.44408C13.8157 4.44408 12.898 4.97334 12.4016 5.83305C11.9049 6.69254 11.9049 7.75158 12.4016 8.61135C12.898 9.47084 13.8157 10.0003 14.8087 10.0003H16.5422C16.9814 10.0003 17.4027 10.1747 17.7133 10.4852C18.024 10.7957 18.1985 11.2166 18.1985 11.6557C18.1971 12.3933 18.4913 13.1006 19.0154 13.62C19.5359 14.1418 20.2435 14.434 20.9806 14.4309H27.5835C27.5692 16.6172 27.0115 18.7655 25.9603 20.6827C25.8872 20.8113 25.868 20.9641 25.9074 21.1068C25.9466 21.2497 26.0411 21.371 26.1702 21.4441C26.4383 21.5966 26.7794 21.5027 26.932 21.2344C28.0886 19.1217 28.6924 16.7511 28.6874 14.3428V13.9014C28.5819 10.8173 27.4886 7.84847 25.5685 5.43129C23.6484 3.01467 21.0029 1.27796 18.0219 0.4763C15.0192 -0.31688 11.8403 -0.115389 8.9618 1.05074C6.08347 2.2166 3.66126 4.28437 2.05866 6.94323C0.456058 9.60216 -0.24054 12.7087 0.0736409 15.7968C0.387583 18.885 1.69539 21.7879 3.8004 24.0706C5.60785 26.0338 7.92711 27.4542 10.4978 28.1727C13.0685 28.8909 15.7887 28.8785 18.353 28.1371C18.6579 28.0517 18.8357 27.7354 18.7505 27.4307C18.665 27.1259 18.3486 26.9483 18.0437 27.0334C15.8924 27.659 13.6174 27.7289 11.4316 27.2368C9.24576 26.7445 7.22049 25.7066 5.54502 24.2195H9.40951C10.1415 24.2195 10.8436 23.9287 11.3614 23.4113C11.8791 22.8941 12.1697 22.1923 12.1697 21.4604C12.1697 20.7288 11.8791 20.0271 11.3614 19.5099C10.8436 18.9924 10.1415 18.7016 9.40951 18.7016H7.6541C7.05635 18.7016 6.50411 18.3829 6.20522 17.8657C5.90662 17.3485 5.90662 16.711 6.20522 16.1938C6.50409 15.6766 7.05638 15.3579 7.6541 15.3579C8.3913 15.3606 9.09891 15.0685 9.61934 14.5469C10.147 14.028 10.4442 13.3194 10.4442 12.5796C10.4442 11.8401 10.147 11.1312 9.61934 10.6127C9.09885 10.0908 8.39123 9.79867 7.6541 9.8014H1.89028C2.97399 6.84731 5.07487 4.37517 7.81624 2.82821C10.5576 1.28152 13.7606 0.760725 16.851 1.35925C16.5963 1.78091 16.459 2.26283 16.4535 2.75538C16.4681 3.2025 16.3007 3.63646 15.99 3.95819L15.9903 3.95835ZM7.70935 10.8886V10.8888C8.15506 10.8861 8.58295 11.0633 8.89636 11.3798C9.21496 11.6914 9.39467 12.1179 9.39467 12.5634C9.39467 13.0089 9.21496 13.4355 8.89636 13.7468C8.58297 14.0636 8.15509 14.2405 7.70935 14.238C6.71736 14.238 5.80049 14.767 5.30439 15.6257C4.80855 16.4846 4.80855 17.5426 5.30439 18.4013C5.8005 19.2599 6.71736 19.7889 7.70935 19.7889H9.49246C9.93817 19.7864 10.3661 19.9633 10.6795 20.2801C10.9929 20.5928 11.1679 21.0183 11.1652 21.4608C11.1652 21.8999 10.9907 22.321 10.6803 22.6312C10.3696 22.9417 9.94828 23.1162 9.5092 23.1162H4.43574C2.97452 21.4744 1.9453 19.4954 1.44015 17.357C0.935275 15.2186 0.97034 12.9882 1.54288 10.8667L7.70935 10.8886ZM17.5584 2.75561C17.5699 2.34272 17.7351 1.94925 18.0221 1.65192C20.604 2.41173 22.895 3.93571 24.5932 6.02288C26.2914 8.11006 27.3168 10.6627 27.534 13.3442H21.0142C20.5789 13.3409 20.1624 13.1665 19.8548 12.8587C19.5423 12.5427 19.3659 12.1167 19.3637 11.6723C19.3637 10.9407 19.0727 10.239 18.555 9.72146C18.0375 9.20425 17.3354 8.91349 16.6034 8.91349H14.7815C14.336 8.91595 13.9081 8.73908 13.5944 8.42229C13.2758 8.11097 13.0961 7.68441 13.0961 7.2389C13.0961 6.79338 13.2758 6.36658 13.5944 6.05523C13.9081 5.73871 14.336 5.56156 14.7815 5.56402C15.5137 5.56402 16.2158 5.27352 16.7333 4.75605C17.2511 4.23884 17.5417 3.53706 17.5417 2.80521L17.5584 2.75561Z" fill="black"/>
</svg>
