<svg width="32" height="32" viewBox="0 0 32 32" fill="none" xmlns="http://www.w3.org/2000/svg">
<path d="M15.7077 12.37C16.6253 12.3709 17.5228 11.9022 17.9569 11.2071C18.3295 10.584 17.2646 10.0903 16.8673 10.7015C16.4341 11.4332 15.1452 11.5009 14.6127 10.8225C14.1416 10.2569 13.1382 10.8712 13.6052 11.4412C14.0793 12.0146 14.8917 12.37 15.7077 12.37Z" fill="black"/>
<path d="M28.6562 14.7047C28.4354 14.4268 28.1188 14.2104 27.7376 14.0974C26.1149 13.1083 24.1264 12.3428 21.9228 11.8477C23.1955 10.928 23.53 9.41994 22.7902 8.1966C23.4556 6.77835 23.6948 5.43073 23.4903 4.18887C23.0791 0.914578 18.8716 -1.27348 15.8017 0.825936C12.005 0.527434 6.64503 1.05925 8.22495 5.49568C8.47749 6.29971 8.83972 7.18892 8.65611 7.92979C8.62961 8.04075 8.65558 8.14661 8.70382 8.24335C7.96411 9.50338 8.38915 11.031 9.70627 11.9334C7.64612 12.4298 5.78501 13.1657 4.26031 14.0978C3.87483 14.2125 3.55521 14.4328 3.33446 14.7157C-0.971728 17.7544 -1.13672 22.4208 3.01198 25.5814V27.803C2.99061 28.6996 3.94534 29.468 4.98187 29.3919C4.68729 30.2391 4.98546 31.255 5.71114 31.8496C5.90498 32.0118 6.19764 32.0458 6.43288 31.937C9.47367 30.5025 12.9094 30.528 15.9997 31.6072C19.0941 30.5239 22.5311 30.5058 25.5668 31.9371C25.802 32.0458 26.0947 32.0118 26.2885 31.8496C27.0138 31.2551 27.3129 30.2392 27.0178 29.392C28.0573 29.4703 29.0075 28.6986 28.9877 27.803V25.5814C33.1407 22.4155 32.9706 17.7484 28.6562 14.7047ZM3.01198 24.0605C0.639904 21.7529 0.636397 18.7832 3.01198 16.4797V24.0605ZM11.5371 2.07841C13.0162 1.78968 14.3721 1.73917 15.9316 1.9136C16.1237 1.93416 16.3169 1.87793 16.4522 1.7587C17.325 0.993591 18.8965 0.850413 20.1063 1.42548C22.0838 2.35648 22.7283 4.73159 22.0861 6.64357C21.8472 4.5902 20.0564 2.86064 17.5477 3.26525C15.9849 3.61207 14.4413 3.21771 12.8791 3.22861C11.3024 3.36434 9.90861 4.50198 9.63085 5.87391C8.80039 3.78005 9.04658 2.46761 11.5371 2.07841ZM9.57596 9.60136C9.57717 9.23143 9.69132 8.86724 9.90573 8.54833C10.4445 7.74964 10.677 6.83797 10.8528 6.04631C11.0459 5.13731 11.9758 4.37656 13.012 4.28883C14.6043 4.36221 16.1862 4.64577 17.7785 4.31265C18.908 4.11496 20.0751 4.68548 20.5212 5.6264C20.8506 6.52974 20.9311 7.48111 21.5289 8.39708C22.5267 9.71369 21.5688 11.1206 20.0554 11.6515C19.1749 11.9232 18.1578 12.2817 17.2905 12.8781C16.4135 13.4826 15.1072 13.4813 14.2302 12.8784C12.6552 11.683 9.76093 11.7437 9.57596 9.60136ZM14.7629 14.2786C15.5665 14.49 16.478 14.4288 17.2368 14.1303C17.4726 15.8056 14.7157 15.9561 14.7629 14.2786ZM4.24891 20.279C4.63908 20.279 4.87826 20.2936 5.06247 20.4191C5.33452 20.5911 5.48215 20.9767 5.18745 21.135C4.49088 21.6388 4.66532 22.304 5.28658 22.7479C5.9086 23.3618 4.99396 24.015 4.24891 24.0022V20.279ZM6.31692 30.7921C6.03245 30.3617 6.03841 29.7664 6.32251 29.3398C7.94154 29.3177 9.56796 29.4676 11.0751 29.7656C9.45321 29.8239 7.83607 30.1621 6.31692 30.7921ZM15.3814 29.9882C13.0234 28.8865 9.88218 28.2669 6.68595 28.2669C6.09851 28.2708 5.51058 28.2879 4.92476 28.3305C4.74417 28.3424 4.57626 28.294 4.44581 28.1904C4.31897 28.0899 4.24891 27.9525 4.24891 27.803V25.0683C6.25327 25.0696 7.60663 23.1659 6.05178 21.8977C7.45043 20.7431 5.92396 19.0187 4.24891 19.2134V15.6113C4.23102 15.3343 4.59677 15.2429 4.80235 15.0766C8.65211 14.5014 12.7725 15.7745 15.3814 18.3359V29.9882ZM7.13697 13.8841C8.37089 13.3787 9.74568 12.9816 11.211 12.708C11.9834 12.946 12.8292 13.2761 13.526 13.7508C13.4794 14.5146 13.5531 15.364 14.2514 15.9133C15.7448 17.2574 18.5165 16.2677 18.4737 14.4059V13.4662C19.1126 13.1082 19.8288 12.8541 20.4729 12.6553C22.0606 12.9272 23.5405 13.3425 24.8631 13.8843C21.5554 13.9963 18.305 15.2433 15.9998 17.3431C13.6943 15.2436 10.443 13.9963 7.13697 13.8841ZM25.6827 30.7921C24.1649 30.162 22.5489 29.8237 20.928 29.7651C22.4344 29.4675 24.0597 29.3178 25.6772 29.3398C25.9613 29.7664 25.9672 30.3617 25.6827 30.7921ZM26.8122 21.135C26.5176 20.9768 26.6651 20.5911 26.9372 20.4191C27.1214 20.2936 27.3606 20.279 27.7495 20.279C27.7508 20.279 27.7508 24.0022 27.7508 24.0022C27.0045 24.0144 26.0917 23.362 26.7131 22.7474C27.3371 22.296 27.5107 21.6467 26.8122 21.135ZM27.7508 19.2134C26.0755 19.0198 24.5492 20.7425 25.9479 21.8977C24.3927 23.165 25.7472 25.0707 27.7508 25.0683V27.803C27.7508 27.9525 27.6807 28.0899 27.5539 28.1904C27.1061 28.4856 26.4542 28.2344 25.9308 28.2812C22.527 28.1956 19.1274 28.8155 16.6183 29.9882V18.3359C19.2279 15.7732 23.3511 14.4998 27.2005 15.077C27.4098 15.2391 27.7683 15.3319 27.7508 15.6113V19.2134ZM28.9877 24.0605V16.4796C31.363 18.7848 31.3599 21.7523 28.9877 24.0605Z" fill="black"/>
<path d="M24.6585 8.00813C25.0004 8.00813 25.277 7.76941 25.277 7.47498C25.2612 6.80046 26.0469 6.2663 26.8123 6.43809C27.9559 6.658 28.0277 8.01702 27.1101 8.40982C26.3497 8.77115 25.8955 9.40089 25.8955 10.0944C25.8692 10.4046 26.1499 10.6529 26.514 10.6507C26.8558 10.6507 27.1324 10.3888 27.1324 10.0944C27.1324 9.79529 27.3474 9.5144 27.7068 9.34362C28.6846 8.87945 29.1732 7.93003 28.9232 6.98114C28.5817 5.48828 26.3001 4.83209 24.9714 5.80764C24.3101 6.18105 23.3948 7.87246 24.6585 8.00813ZM26.514 12.2734C27.3265 12.2598 27.3263 11.2203 26.514 11.2071C25.7015 11.2204 25.7016 12.2599 26.514 12.2734ZM3.01212 2.6766C3.35396 2.6766 3.63059 2.43788 3.63059 2.14344C3.61477 1.46906 4.40054 0.934476 5.16589 1.10656C6.30951 1.32647 6.38124 2.68549 5.46361 3.07829C4.70324 3.43962 4.24905 4.06936 4.24905 4.76287C4.22278 5.07306 4.50348 5.32138 4.86752 5.3192C5.20937 5.3192 5.48599 5.05731 5.48599 4.76287C5.48599 4.46375 5.70101 4.18286 6.06037 4.01209C7.0382 3.54792 7.52681 2.5985 7.27677 1.64961C6.93477 0.156456 4.65485 -0.498726 3.32493 0.476108C2.66358 0.849518 1.74838 2.54093 3.01212 2.6766ZM4.86756 6.94182C5.67998 6.92826 5.67983 5.88879 4.86753 5.87552C4.0551 5.88889 4.05518 6.92835 4.86756 6.94182ZM18.3683 21.7855C17.877 21.7962 17.5676 21.2734 17.8701 20.9371C18.8032 19.8406 20.0359 18.9805 21.4359 18.4499C22.2599 18.1402 23.143 17.932 24.0523 17.8603C24.8193 17.8588 24.8838 18.8511 24.1211 18.9235C22.1383 18.9873 19.6482 20.4617 18.8679 21.5677C18.7518 21.704 18.5652 21.7855 18.3683 21.7855ZM18.3683 26.0508C17.877 26.0614 17.5676 25.5387 17.8701 25.2023C18.8032 24.1058 20.0359 23.2457 21.4359 22.7152C22.2596 22.4057 23.1421 22.1971 24.0511 22.1258C24.8192 22.1238 24.8842 23.1159 24.1211 23.1887C22.1383 23.2525 19.6482 24.7269 18.8679 25.833C18.7518 25.9693 18.5652 26.0508 18.3683 26.0508ZM13.9213 21.7855C13.7244 21.7855 13.5377 21.7041 13.4218 21.5676C12.6407 20.4612 10.1516 18.9879 8.16834 18.9236C7.40877 18.8524 7.46766 17.8579 8.2373 17.8603C9.14618 17.9318 10.0295 18.1401 10.8537 18.4499C12.2537 18.9805 13.4864 19.8406 14.4195 20.9374C14.7209 21.2728 14.4136 21.7969 13.9213 21.7855ZM13.9213 26.0508C13.7244 26.0508 13.5377 25.9693 13.4218 25.8329C12.6407 24.7264 10.1516 23.2531 8.16834 23.1888C7.40828 23.1172 7.46778 22.123 8.23851 22.1258C9.14672 22.1968 10.0296 22.4056 10.8537 22.7152C12.2537 23.2457 13.4864 24.1058 14.4195 25.2026C14.7209 25.538 14.4136 26.0622 13.9213 26.0508Z" fill="black"/>
</svg>
