<svg width="32" height="32" viewBox="0 0 32 32" fill="none" xmlns="http://www.w3.org/2000/svg">
<path fill-rule="evenodd" clip-rule="evenodd" d="M15.8259 6.52716C15.591 6.54131 15.3739 6.58351 15.2058 6.64769L7.92952 9.42221C7.82511 9.46199 7.74228 9.50923 7.68577 9.56122C7.62926 9.61321 7.60017 9.66894 7.60017 9.72522C7.60017 9.7815 7.62926 9.83723 7.68577 9.88922C7.74228 9.94121 7.82511 9.98845 7.92952 10.0282L10.9476 11.1789V13.7146C10.9481 13.9493 11.1601 14.16 11.4822 14.2458C14.4007 15.0252 17.4698 15.0847 20.5266 14.2435C20.8436 14.1559 21.0511 13.9468 21.0512 13.7145V11.1799L21.895 10.8586V11.9289C21.895 12.0804 21.9837 12.2258 22.1416 12.3329C22.2995 12.4401 22.5137 12.5003 22.7371 12.5003C22.9604 12.5003 23.1746 12.4401 23.3325 12.3329C23.4905 12.2258 23.5792 12.0804 23.5792 11.9289V10.2168L24.0726 10.0282C24.177 9.98845 24.2598 9.94121 24.3164 9.88922C24.3729 9.83723 24.402 9.7815 24.402 9.72522C24.402 9.66894 24.3729 9.61321 24.3164 9.56122C24.2598 9.50923 24.177 9.46199 24.0726 9.42221L16.7946 6.64769C16.6695 6.59992 16.5165 6.5641 16.3482 6.54315C16.1798 6.52221 16.0009 6.51673 15.8259 6.52716ZM16.0002 7.55617L21.6894 9.72466L16.0002 11.8932L10.3127 9.72466L16.0002 7.55617ZM12.6318 11.8217L15.2058 12.8027C15.4165 12.8831 15.7023 12.9282 16.0002 12.9282C16.2982 12.9282 16.5839 12.8831 16.7946 12.8027L19.367 11.8217V13.257C17.0691 13.8032 14.8582 13.7759 12.6318 13.257V11.8217ZM10.1121 23.6731C9.42935 23.8097 8.78671 23.9676 8.2042 24.1497C7.17785 24.4705 6.3172 24.8582 5.68117 25.3282C5.29569 25.6131 4.99383 25.9366 4.8144 26.2858H4.21078C3.7457 26.2858 3.36867 26.5416 3.36867 26.8572C3.36867 27.1728 3.7457 27.4286 4.21078 27.4286H4.70091C4.84224 27.8838 5.19592 28.3044 5.68117 28.663C6.3172 29.133 7.17785 29.5208 8.2042 29.8416C10.0635 30.4227 12.4813 30.783 15.1581 30.846V31.4286C15.1581 31.7442 15.5352 32 16.0002 32C16.4653 32 16.8424 31.7442 16.8424 31.4286V30.846C19.5192 30.783 21.937 30.4227 23.7963 29.8416C24.8227 29.5208 25.6833 29.133 26.3193 28.663C26.8046 28.3044 27.1583 27.8838 27.2996 27.4286H27.7897C28.2548 27.4286 28.6318 27.1728 28.6318 26.8572C28.6318 26.5416 28.2548 26.2858 27.7897 26.2858H27.1894C26.804 25.5286 25.8242 24.8981 24.5759 24.4198C24.1708 24.2643 23.6566 24.3612 23.4279 24.6363C23.1987 24.9112 23.3416 25.2601 23.747 25.4153C24.4777 25.6953 24.9817 25.9924 25.2947 26.2858H25.2634C24.7983 26.2858 24.4213 26.5416 24.4213 26.8572C24.4213 27.1728 24.7983 27.4286 25.2634 27.4286H25.5447C25.4471 27.5774 25.295 27.7301 25.0792 27.8896C24.6499 28.2068 23.9692 28.529 23.0907 28.8036C21.5119 29.2971 19.3062 29.6366 16.8424 29.7009C16.8317 29.3906 16.4577 29.1428 16.0003 29.1429C15.5434 29.1434 15.1705 29.391 15.1598 29.7009C12.6953 29.6368 10.489 29.2972 8.9098 28.8036C8.03127 28.529 7.3506 28.2068 6.92131 27.8896C6.70554 27.7301 6.55345 27.5774 6.45585 27.4286H6.7371C7.20218 27.4286 7.5792 27.1728 7.5792 26.8572C7.5792 26.5416 7.20218 26.2858 6.7371 26.2858H6.69929C6.76472 26.2253 6.83681 26.1641 6.92133 26.1017C7.35062 25.7844 8.0313 25.4622 8.90981 25.1876C9.59339 24.9739 10.3965 24.7907 11.2848 24.6441C10.9052 24.3348 10.5167 24.0133 10.1121 23.6731Z" fill="black"/>
<path fill-rule="evenodd" clip-rule="evenodd" d="M15.8259 6.52716C15.591 6.54131 15.3739 6.58351 15.2058 6.64769L7.92952 9.42221C7.82511 9.46199 7.74228 9.50923 7.68577 9.56122C7.62926 9.61321 7.60017 9.66894 7.60017 9.72522C7.60017 9.7815 7.62926 9.83723 7.68577 9.88922C7.74228 9.94121 7.82511 9.98845 7.92952 10.0282L10.9476 11.1789V13.7146C10.9481 13.9493 11.1601 14.16 11.4822 14.2458C14.4007 15.0252 17.4698 15.0847 20.5266 14.2435C20.8436 14.1559 21.0511 13.9468 21.0512 13.7145V11.1799L21.895 10.8586V11.9289C21.895 12.0804 21.9837 12.2258 22.1416 12.3329C22.2995 12.4401 22.5137 12.5003 22.7371 12.5003C22.9604 12.5003 23.1746 12.4401 23.3325 12.3329C23.4905 12.2258 23.5792 12.0804 23.5792 11.9289V10.2168L24.0726 10.0282C24.177 9.98845 24.2598 9.94121 24.3164 9.88922C24.3729 9.83723 24.402 9.7815 24.402 9.72522C24.402 9.66894 24.3729 9.61321 24.3164 9.56122C24.2598 9.50923 24.177 9.46199 24.0726 9.42221L16.7946 6.64769C16.6695 6.59992 16.5165 6.5641 16.3482 6.54315C16.1798 6.52221 16.0009 6.51673 15.8259 6.52716ZM16.0002 7.55617L21.6894 9.72466L16.0002 11.8932L10.3127 9.72466L16.0002 7.55617ZM12.6318 11.8217L15.2058 12.8027C15.4165 12.8831 15.7023 12.9282 16.0002 12.9282C16.2982 12.9282 16.5839 12.8831 16.7946 12.8027L19.367 11.8217V13.257C17.0691 13.8032 14.8582 13.7759 12.6318 13.257V11.8217ZM10.1121 23.6731C9.42935 23.8097 8.78671 23.9676 8.2042 24.1497C7.17785 24.4705 6.3172 24.8582 5.68117 25.3282C5.29569 25.6131 4.99383 25.9366 4.8144 26.2858H4.21078C3.7457 26.2858 3.36867 26.5416 3.36867 26.8572C3.36867 27.1728 3.7457 27.4286 4.21078 27.4286H4.70091C4.84224 27.8838 5.19592 28.3044 5.68117 28.663C6.3172 29.133 7.17785 29.5208 8.2042 29.8416C10.0635 30.4227 12.4813 30.783 15.1581 30.846V31.4286C15.1581 31.7442 15.5352 32 16.0002 32C16.4653 32 16.8424 31.7442 16.8424 31.4286V30.846C19.5192 30.783 21.937 30.4227 23.7963 29.8416C24.8227 29.5208 25.6833 29.133 26.3193 28.663C26.8046 28.3044 27.1583 27.8838 27.2996 27.4286H27.7897C28.2548 27.4286 28.6318 27.1728 28.6318 26.8572C28.6318 26.5416 28.2548 26.2858 27.7897 26.2858H27.1894C26.804 25.5286 25.8242 24.8981 24.5759 24.4198C24.1708 24.2643 23.6566 24.3612 23.4279 24.6363C23.1987 24.9112 23.3416 25.2601 23.747 25.4153C24.4777 25.6953 24.9817 25.9924 25.2947 26.2858H25.2634C24.7983 26.2858 24.4213 26.5416 24.4213 26.8572C24.4213 27.1728 24.7983 27.4286 25.2634 27.4286H25.5447C25.4471 27.5774 25.295 27.7301 25.0792 27.8896C24.6499 28.2068 23.9692 28.529 23.0907 28.8036C21.5119 29.2971 19.3062 29.6366 16.8424 29.7009C16.8317 29.3906 16.4577 29.1428 16.0003 29.1429C15.5434 29.1434 15.1705 29.391 15.1598 29.7009C12.6953 29.6368 10.489 29.2972 8.9098 28.8036C8.03127 28.529 7.3506 28.2068 6.92131 27.8896C6.70554 27.7301 6.55345 27.5774 6.45585 27.4286H6.7371C7.20218 27.4286 7.5792 27.1728 7.5792 26.8572C7.5792 26.5416 7.20218 26.2858 6.7371 26.2858H6.69929C6.76472 26.2253 6.83681 26.1641 6.92133 26.1017C7.35062 25.7844 8.0313 25.4622 8.90981 25.1876C9.59339 24.9739 10.3965 24.7907 11.2848 24.6441C10.9052 24.3348 10.5167 24.0133 10.1121 23.6731Z" fill="black"/>
<path fill-rule="evenodd" clip-rule="evenodd" d="M16 0C7.17343 0 0 4.86761 0 10.857C0 14.0421 3.92383 18.1528 7.74671 21.6158C11.5696 25.0787 15.3882 27.821 15.3882 27.821C15.4669 27.8775 15.5617 27.9225 15.6669 27.9532C15.7721 27.9839 15.8855 27.9998 16 27.9998C16.1145 27.9998 16.2279 27.9839 16.3331 27.9532C16.4383 27.9225 16.5331 27.8775 16.6118 27.821C16.6118 27.821 26.4413 20.8035 30.4013 14.9205C30.4474 14.8523 30.4732 14.7785 30.4772 14.7034C30.4812 14.6283 30.4634 14.5535 30.4248 14.4831C30.3861 14.4127 30.3274 14.3482 30.252 14.2932C30.1766 14.2383 30.0859 14.1939 29.9852 14.1627C29.8846 14.1315 29.7758 14.114 29.6652 14.1112C29.5546 14.1085 29.4443 14.1206 29.3405 14.1468C29.2368 14.173 29.1417 14.2129 29.0607 14.2641C28.9797 14.3153 28.9144 14.3768 28.8684 14.4451C25.3491 19.6735 16.9712 25.8431 15.9868 26.5632C15.1777 25.9709 12.3523 23.8808 9.0954 20.9305C5.33934 17.528 1.68421 13.3524 1.68421 10.857C1.68421 5.48526 8.08366 1.14284 16 1.14284C23.9164 1.14284 30.3158 5.48526 30.3158 10.857C30.3158 11.0085 30.4045 11.1539 30.5624 11.261C30.7204 11.3682 30.9346 11.4284 31.1579 11.4284C31.3812 11.4284 31.5954 11.3682 31.7534 11.261C31.9113 11.1539 32 11.0085 32 10.857C32 4.86761 24.8266 0 16 0Z" fill="black"/>
<path fill-rule="evenodd" clip-rule="evenodd" d="M16 0C7.17343 0 0 4.86761 0 10.857C0 14.0421 3.92383 18.1528 7.74671 21.6158C11.5696 25.0787 15.3882 27.821 15.3882 27.821C15.4669 27.8775 15.5617 27.9225 15.6669 27.9532C15.7721 27.9839 15.8855 27.9998 16 27.9998C16.1145 27.9998 16.2279 27.9839 16.3331 27.9532C16.4383 27.9225 16.5331 27.8775 16.6118 27.821C16.6118 27.821 26.4413 20.8035 30.4013 14.9205C30.4474 14.8523 30.4732 14.7785 30.4772 14.7034C30.4812 14.6283 30.4634 14.5535 30.4248 14.4831C30.3861 14.4127 30.3274 14.3482 30.252 14.2932C30.1766 14.2383 30.0859 14.1939 29.9852 14.1627C29.8846 14.1315 29.7758 14.114 29.6652 14.1112C29.5546 14.1085 29.4443 14.1206 29.3405 14.1468C29.2368 14.173 29.1417 14.2129 29.0607 14.2641C28.9797 14.3153 28.9144 14.3768 28.8684 14.4451C25.3491 19.6735 16.9712 25.8431 15.9868 26.5632C15.1777 25.9709 12.3523 23.8808 9.0954 20.9305C5.33934 17.528 1.68421 13.3524 1.68421 10.857C1.68421 5.48526 8.08366 1.14284 16 1.14284C23.9164 1.14284 30.3158 5.48526 30.3158 10.857C30.3158 11.0085 30.4045 11.1539 30.5624 11.261C30.7204 11.3682 30.9346 11.4284 31.1579 11.4284C31.3812 11.4284 31.5954 11.3682 31.7534 11.261C31.9113 11.1539 32 11.0085 32 10.857C32 4.86761 24.8266 0 16 0Z" fill="black"/>
<path fill-rule="evenodd" clip-rule="evenodd" d="M30.748 12.3307C30.5247 12.3307 30.3105 12.3909 30.1525 12.4981C29.9946 12.6052 29.9059 12.7506 29.9059 12.9021C29.9059 13.0537 29.9946 13.199 30.1525 13.3062C30.3105 13.4133 30.5247 13.4735 30.748 13.4735C30.9713 13.4735 31.1855 13.4133 31.3434 13.3062C31.5014 13.199 31.5901 13.0537 31.5901 12.9021C31.5901 12.7506 31.5014 12.6052 31.3434 12.4981C31.1855 12.3909 30.9713 12.3307 30.748 12.3307ZM16.0003 18.8566C14.0486 18.8566 12.201 18.5341 10.5776 17.9627C10.4794 17.928 10.3922 17.8806 10.321 17.8231C10.2498 17.7656 10.196 17.6991 10.1627 17.6275C10.1294 17.5559 10.1173 17.4805 10.1269 17.4057C10.1366 17.3309 10.1679 17.2581 10.2191 17.1915C10.3221 17.0572 10.4995 16.9561 10.7123 16.9105C10.9251 16.8649 11.1559 16.8784 11.3539 16.9482C12.7447 17.4378 14.3218 17.7138 16.0003 17.7138C21.5912 17.7138 26.1056 14.6505 26.1056 10.8567C26.1056 10.0054 25.8771 9.19219 25.4608 8.4416C25.3825 8.29981 25.3902 8.1427 25.4824 8.0048C25.5746 7.8669 25.7437 7.75947 25.9526 7.70612C26.0562 7.67961 26.1664 7.66722 26.277 7.66964C26.3877 7.67207 26.4965 7.68927 26.5973 7.72027C26.6981 7.75126 26.789 7.79544 26.8646 7.85027C26.9402 7.9051 26.9992 7.9695 27.0381 8.03981C27.5243 8.9165 27.7898 9.86674 27.7898 10.8567C27.7898 15.2682 22.5015 18.8566 16.0003 18.8566ZM6.20096 15.0174C5.98635 14.976 5.80474 14.8784 5.69603 14.7462C4.75025 13.5948 4.21083 12.2662 4.21083 10.8567C4.21083 6.44532 9.49916 2.85686 16.0003 2.85686C17.9701 2.85686 19.8331 3.18617 21.4674 3.76756C21.6652 3.83787 21.8137 3.95862 21.8804 4.10324C21.947 4.24786 21.9262 4.40451 21.8227 4.53875C21.7714 4.60535 21.7012 4.66443 21.6162 4.71261C21.5312 4.76078 21.433 4.7971 21.3273 4.8195C21.2216 4.84189 21.1104 4.84991 21.0001 4.8431C20.8898 4.83629 20.7825 4.81479 20.6845 4.77982C19.2843 4.28171 17.6943 3.9997 16.0003 3.9997C10.4094 3.9997 5.89504 7.06295 5.89504 10.8567C5.89504 12.0688 6.35598 13.2037 7.16643 14.1904C7.2749 14.3227 7.30153 14.4789 7.24047 14.6245C7.17941 14.7702 7.03565 14.8934 6.84077 14.9672C6.64574 15.0408 6.41562 15.0588 6.20096 15.0174Z" fill="black"/>
<path fill-rule="evenodd" clip-rule="evenodd" d="M30.748 12.3307C30.5247 12.3307 30.3105 12.3909 30.1525 12.4981C29.9946 12.6052 29.9059 12.7506 29.9059 12.9021C29.9059 13.0537 29.9946 13.199 30.1525 13.3062C30.3105 13.4133 30.5247 13.4735 30.748 13.4735C30.9713 13.4735 31.1855 13.4133 31.3434 13.3062C31.5014 13.199 31.5901 13.0537 31.5901 12.9021C31.5901 12.7506 31.5014 12.6052 31.3434 12.4981C31.1855 12.3909 30.9713 12.3307 30.748 12.3307ZM16.0003 18.8566C14.0486 18.8566 12.201 18.5341 10.5776 17.9627C10.4794 17.928 10.3922 17.8806 10.321 17.8231C10.2498 17.7656 10.196 17.6991 10.1627 17.6275C10.1294 17.5559 10.1173 17.4805 10.1269 17.4057C10.1366 17.3309 10.1679 17.2581 10.2191 17.1915C10.3221 17.0572 10.4995 16.9561 10.7123 16.9105C10.9251 16.8649 11.1559 16.8784 11.3539 16.9482C12.7447 17.4378 14.3218 17.7138 16.0003 17.7138C21.5912 17.7138 26.1056 14.6505 26.1056 10.8567C26.1056 10.0054 25.8771 9.19219 25.4608 8.4416C25.3825 8.29981 25.3902 8.1427 25.4824 8.0048C25.5746 7.8669 25.7437 7.75947 25.9526 7.70612C26.0562 7.67961 26.1664 7.66722 26.277 7.66964C26.3877 7.67207 26.4965 7.68927 26.5973 7.72027C26.6981 7.75126 26.789 7.79544 26.8646 7.85027C26.9402 7.9051 26.9992 7.9695 27.0381 8.03981C27.5243 8.9165 27.7898 9.86674 27.7898 10.8567C27.7898 15.2682 22.5015 18.8566 16.0003 18.8566ZM6.20096 15.0174C5.98635 14.976 5.80474 14.8784 5.69603 14.7462C4.75025 13.5948 4.21083 12.2662 4.21083 10.8567C4.21083 6.44532 9.49916 2.85686 16.0003 2.85686C17.9701 2.85686 19.8331 3.18617 21.4674 3.76756C21.6652 3.83787 21.8137 3.95862 21.8804 4.10324C21.947 4.24786 21.9262 4.40451 21.8227 4.53875C21.7714 4.60535 21.7012 4.66443 21.6162 4.71261C21.5312 4.76078 21.433 4.7971 21.3273 4.8195C21.2216 4.84189 21.1104 4.84991 21.0001 4.8431C20.8898 4.83629 20.7825 4.81479 20.6845 4.77982C19.2843 4.28171 17.6943 3.9997 16.0003 3.9997C10.4094 3.9997 5.89504 7.06295 5.89504 10.8567C5.89504 12.0688 6.35598 13.2037 7.16643 14.1904C7.2749 14.3227 7.30153 14.4789 7.24047 14.6245C7.17941 14.7702 7.03565 14.8934 6.84077 14.9672C6.64574 15.0408 6.41562 15.0588 6.20096 15.0174Z" fill="black"/>
</svg>
