<svg width="32" height="32" viewBox="0 0 32 32" fill="none" xmlns="http://www.w3.org/2000/svg">
<path d="M32 8.61539V3.07692C32 1.38031 30.8037 0 29.3333 0H18.1333C18.0281 0.000607427 17.9254 0.037056 17.838 0.104774C17.7506 0.172493 17.6826 0.268466 17.6423 0.380657C17.602 0.492848 17.5913 0.616261 17.6116 0.735419C17.6319 0.854576 17.6822 0.964172 17.7563 1.05046L21.6459 5.53846H18.7541C17.3291 4.01354 15.4267 3.07692 13.3333 3.07692C11.24 3.07692 9.33707 4.01354 7.91253 5.53846H3.73333C2.8512 5.53846 2.13333 6.36677 2.13333 7.38462V27.0769H0.533333C0.391885 27.0769 0.256229 27.1418 0.15621 27.2572C0.0561903 27.3726 0 27.5291 0 27.6923V28.9231C0 30.6197 1.19627 32 2.66667 32H29.3333C30.8037 32 32 30.6197 32 28.9231V27.6923C32 27.5291 31.9438 27.3726 31.8438 27.2572C31.7438 27.1418 31.6081 27.0769 31.4667 27.0769H29.8667V11.6302C30.4684 11.4872 31.0092 11.1094 31.3977 10.5603C31.7863 10.0112 31.999 9.3243 32 8.61539ZM29.3333 1.23077C30.2155 1.23077 30.9333 2.05908 30.9333 3.07692V8.61539C30.9333 9.63323 30.2155 10.4615 29.3333 10.4615H24.5333C23.6512 10.4615 22.9333 9.63323 22.9333 8.61539V5.53846C22.9334 5.45764 22.9196 5.3776 22.8928 5.30293C22.866 5.22827 22.8267 5.16045 22.7771 5.10338L19.4208 1.23077H29.3333ZM8.53333 12.9231H9.6C10.0141 12.923 10.4226 12.8116 10.7929 12.5976C11.1632 12.3836 11.4852 12.073 11.7333 11.6905C11.9815 12.073 12.3035 12.3836 12.6738 12.5976C13.0441 12.8116 13.4525 12.923 13.8667 12.9231H18.1333V16C18.1333 18.7145 16.2192 20.9231 13.8667 20.9231H12.8C10.4475 20.9231 8.53333 18.7145 8.53333 16V12.9231ZM8.5648 11.6923C8.83147 8.92738 10.8672 6.76923 13.3333 6.76923C15.7995 6.76923 17.8352 8.92738 18.1019 11.6923H13.8667C12.9845 11.6923 12.2667 10.864 12.2667 9.84615C12.2667 9.68294 12.2105 9.52642 12.1105 9.41101C12.0104 9.2956 11.8748 9.23077 11.7333 9.23077C11.5919 9.23077 11.4562 9.2956 11.3562 9.41101C11.2562 9.52642 11.2 9.68294 11.2 9.84615C11.2 10.864 10.4821 11.6923 9.6 11.6923H8.5648ZM16.4224 22.4855L13.3333 24.5218L10.2443 22.4849L10.5141 21.5514C11.2274 21.9469 12.0086 22.1528 12.8 22.1538H13.8667C14.6581 22.1528 15.4392 21.9469 16.1525 21.5514L16.4224 22.4855ZM13.0688 25.7649C13.1493 25.8181 13.2405 25.8461 13.3333 25.8461C13.4261 25.8461 13.5173 25.8181 13.5979 25.7649L17.1909 23.3957C18.0635 23.544 19.9211 25.1262 20.8896 26.8025C20.9381 26.8868 20.9835 26.9846 21.0299 27.0763H19.7333C19.5919 27.0763 19.4562 27.1411 19.3562 27.2565C19.2562 27.372 19.2 27.5285 19.2 27.6917C19.2 28.0308 18.9605 28.3071 18.6667 28.3071H13.3333C13.0395 28.3071 12.8 28.0308 12.8 27.6917C12.8 27.5285 12.7438 27.372 12.6438 27.2565C12.5438 27.1411 12.4081 27.0763 12.2667 27.0763H5.6368C5.68373 26.9846 5.72853 26.8868 5.77707 26.8025C6.74507 25.1262 8.6032 23.544 9.47573 23.3957L13.0688 25.7649ZM22.2341 27.0769C22.1013 26.746 21.9486 26.4263 21.7771 26.12C20.8155 24.4554 18.8432 22.5502 17.4677 22.2117L17.0869 20.8935C18.1143 19.9911 18.8239 18.69 19.0843 17.2308H20.8C21.6821 17.2308 22.4 16.4025 22.4 15.3846V13.5385C22.3988 13.1534 22.2932 12.7784 22.0979 12.4661C21.9025 12.1539 21.6273 11.9201 21.3109 11.7975C21.2231 9.97578 20.6675 8.22539 19.7147 6.76923H21.8667V8.61539C21.8667 10.312 23.0629 11.6923 24.5333 11.6923H28.8V27.0769H22.2341ZM19.2 12.9231H20.8C21.0939 12.9231 21.3333 13.1994 21.3333 13.5385V15.3846C21.3333 15.7237 21.0939 16 20.8 16H19.2V12.9231ZM13.3333 4.30769C16.9765 4.30769 19.9659 7.56861 20.2395 11.6923H19.1728C18.9024 8.24738 16.3883 5.53846 13.3333 5.53846C10.2784 5.53846 7.76427 8.24738 7.49387 11.6923H6.4272C6.7008 7.56861 9.69013 4.30769 13.3333 4.30769ZM7.46667 16H5.86667C5.5728 16 5.33333 15.7237 5.33333 15.3846V13.5385C5.33333 13.1994 5.5728 12.9231 5.86667 12.9231H7.46667V16ZM3.2 7.38462C3.2 7.04554 3.43947 6.76923 3.73333 6.76923H6.952C5.99897 8.22524 5.44327 9.97572 5.35573 11.7975C5.03933 11.9201 4.76414 12.1539 4.56881 12.4661C4.37348 12.7784 4.26782 13.1534 4.26667 13.5385V15.3846C4.26667 16.4025 4.98453 17.2308 5.86667 17.2308H7.5824C7.84227 18.6903 8.55189 19.9916 9.57973 20.8935L9.19893 22.2117C7.824 22.5502 5.85173 24.4548 4.8896 26.12C4.7248 26.4049 4.57493 26.7317 4.43253 27.0769H3.2V7.38462ZM30.9333 28.3077V28.9231C30.9333 29.9409 30.2155 30.7692 29.3333 30.7692H2.66667C1.78453 30.7692 1.06667 29.9409 1.06667 28.9231V28.3077H11.8245C11.9352 28.6674 12.1397 28.9788 12.4098 29.1991C12.6799 29.4195 13.0025 29.538 13.3333 29.5385H18.6667C18.9975 29.538 19.3201 29.4195 19.5902 29.1991C19.8603 28.9788 20.0648 28.6674 20.1755 28.3077H30.9333ZM11.2 15.3846V14.7692C11.2 14.606 11.2562 14.4495 11.3562 14.3341C11.4562 14.2187 11.5919 14.1538 11.7333 14.1538C11.8748 14.1538 12.0104 14.2187 12.1105 14.3341C12.2105 14.4495 12.2667 14.606 12.2667 14.7692V15.3846C12.2667 15.5478 12.2105 15.7044 12.1105 15.8198C12.0104 15.9352 11.8748 16 11.7333 16C11.5919 16 11.4562 15.9352 11.3562 15.8198C11.2562 15.7044 11.2 15.5478 11.2 15.3846ZM14.4 15.3846V14.7692C14.4 14.606 14.4562 14.4495 14.5562 14.3341C14.6562 14.2187 14.7919 14.1538 14.9333 14.1538C15.0748 14.1538 15.2104 14.2187 15.3105 14.3341C15.4105 14.4495 15.4667 14.606 15.4667 14.7692V15.3846C15.4667 15.5478 15.4105 15.7044 15.3105 15.8198C15.2104 15.9352 15.0748 16 14.9333 16C14.7919 16 14.6562 15.9352 14.5562 15.8198C14.4562 15.7044 14.4 15.5478 14.4 15.3846Z" fill="black"/>
</svg>
