<svg width="32" height="32" viewBox="0 0 32 32" fill="none" xmlns="http://www.w3.org/2000/svg">
<path d="M25.0906 14.1641C24.1706 14.1696 23.2899 14.5979 22.6422 15.3546C21.9946 16.1117 21.6326 17.1351 21.6362 18.2007C21.6396 19.2659 22.0084 20.2864 22.6611 21.0372C23.3138 21.7884 24.197 22.2085 25.1173 22.2059C26.0375 22.2032 26.9192 21.7779 27.5688 21.0235C28.2181 20.2687 28.5823 19.2462 28.5815 18.181C28.5767 17.1129 28.2068 16.0907 27.5524 15.3379C26.8983 14.5851 26.013 14.163 25.0905 14.164L25.0906 14.1641ZM25.0906 21.0777C24.428 21.0731 23.7939 20.7646 23.3276 20.2194C22.8613 19.6743 22.6008 18.9371 22.6036 18.1697C22.6061 17.4025 22.8715 16.6676 23.3415 16.1267C23.8115 15.5858 24.4475 15.2828 25.1101 15.2842C25.7729 15.2858 26.4078 15.5917 26.8762 16.1346C27.3442 16.6778 27.6069 17.4137 27.6072 18.1811C27.6052 18.9515 27.3391 19.6897 26.8671 20.2329C26.3952 20.7761 25.7562 21.0801 25.0906 21.0777Z" fill="black"/>
<path d="M25.0437 24.0423C25.0597 24.054 25.0744 24.0681 25.0874 24.0844L25.0437 24.0423ZM22.6401 23.2212L22.502 23.7308L22.5017 23.7305C23.1019 23.959 23.6695 24.2897 24.1854 24.7118L24.2909 24.3243C24.3726 24.0282 24.6458 23.8643 24.9018 23.958C24.9534 23.975 25.0017 24.0034 25.0437 24.0423C24.2407 23.3126 23.312 22.7913 22.3201 22.5138C22.4436 22.5585 22.5465 22.6581 22.6066 22.7906C22.6666 22.9235 22.6788 23.0782 22.6399 23.2212L22.6401 23.2212ZM31.211 17.8318C30.2824 16.6223 29.7283 15.089 29.6365 13.474C29.619 13.1952 29.4264 12.9742 29.1856 12.9562C27.7841 12.8524 26.4517 12.2145 25.3967 11.1415C25.2179 10.9769 24.9645 10.9769 24.7857 11.1415C23.7301 12.2135 22.398 12.8514 20.9968 12.9562C20.7546 12.9722 20.56 13.1939 20.5423 13.474C20.4526 15.0909 19.8983 16.6266 18.9677 17.836C18.8262 18.0417 18.8262 18.3335 18.9677 18.5392C19.8978 19.7477 20.4518 21.2817 20.5423 22.8971C20.5598 23.1781 20.7537 23.4008 20.9968 23.4191C21.1859 23.4191 21.3605 23.4569 21.546 23.4863H21.5457C21.8699 23.5382 22.1899 23.6215 22.502 23.7348C23.1023 23.9633 23.6698 24.294 24.1858 24.7157C24.382 24.8714 24.5822 25.0399 24.7857 25.2292V25.2296C24.857 25.2981 24.9444 25.3405 25.0366 25.3516H25.1458C25.2377 25.3392 25.3245 25.2968 25.3967 25.2296C25.6002 25.0402 25.8004 24.8718 25.9966 24.716V24.7157C26.5126 24.2939 27.0802 23.9632 27.6801 23.7348C27.9925 23.6215 28.3125 23.5382 28.6367 23.4863C28.8149 23.4569 29.0004 23.4315 29.1859 23.4191H29.1856C29.427 23.3988 29.619 23.1765 29.6365 22.8971C29.7261 21.2779 30.2801 19.7396 31.2111 18.5265C31.3529 18.3241 31.3529 18.0342 31.211 17.8318ZM28.7021 22.3411C28.4427 22.3735 28.1853 22.4241 27.9309 22.4929H27.8582C26.8767 22.7675 25.9568 23.2813 25.16 24.0002L25.1056 24.0465L25.0583 24.0086C24.2556 23.279 23.3269 22.7577 22.3348 22.4802H22.262C22.008 22.412 21.7506 22.3614 21.4912 22.3287C21.337 20.8049 20.8137 19.3629 19.982 18.1688C20.8142 16.9765 21.3375 15.5356 21.4912 14.013C22.8064 13.8367 24.0531 13.239 25.091 12.2867C26.1302 13.2468 27.3814 13.8494 28.702 14.0258C28.8554 15.549 29.3801 16.9903 30.2146 18.1816C29.3798 19.3738 28.8551 20.8166 28.7021 22.3411Z" fill="black"/>
<path d="M22.851 32C22.8016 32 22.7526 31.9915 22.7055 31.9749L20 30.9896C19.8774 30.9449 19.7753 30.846 19.7158 30.7141C19.6566 30.5822 19.6448 30.4281 19.6837 30.2864L21.7091 22.8802C21.7903 22.5825 22.0646 22.4176 22.3218 22.512C22.5789 22.606 22.7213 22.9236 22.6398 23.2214L20.7564 30.0886L22.5453 30.737L24.2908 24.3245C24.372 24.0268 24.6463 23.8619 24.9035 23.9559C25.1606 24.0503 25.303 24.3679 25.2218 24.6656L23.3162 31.6086C23.2513 31.8424 23.063 32.001 22.851 32Z" fill="black"/>
<path d="M27.3266 32C27.1146 32.001 26.9262 31.8423 26.8614 31.6086L24.9594 24.6656C24.9197 24.5232 24.9307 24.3682 24.9901 24.2353C25.0494 24.1025 25.1523 24.0026 25.2757 23.9582C25.5326 23.8667 25.8055 24.0293 25.8904 24.3244L27.6359 30.7369L29.4141 30.0886L27.5412 23.2213C27.4775 22.9314 27.6198 22.6343 27.866 22.5439C28.1121 22.4535 28.3763 22.601 28.4685 22.8802L30.5012 30.2864C30.5365 30.4264 30.5246 30.5769 30.4685 30.7075C30.4076 30.8391 30.3045 30.9373 30.1812 30.9811L27.4758 31.9663C27.4279 31.9859 27.3777 31.9973 27.3267 31.9999L27.3266 32Z" fill="black"/>
<path d="M31.5121 23.1572H30.3449C30.0779 23.1572 29.8613 22.9065 29.8613 22.5974C29.8613 22.2882 30.0779 22.0375 30.3449 22.0375H31.0249V19.7889C31.0249 19.4775 31.2431 19.2248 31.5121 19.2248C31.7813 19.2248 31.9996 19.4775 31.9996 19.7889V22.6016C31.9984 22.7502 31.9466 22.8922 31.8552 22.9963C31.7639 23.1004 31.6404 23.1585 31.5121 23.1572Z" fill="black"/>
<path d="M0.487189 4.66108C0.75616 4.66108 0.974378 4.97252 0.974378 5.22519V5.36002C0.974378 5.67145 0.75616 5.92413 0.487189 5.92413C0.218217 5.92413 0 5.61269 0 5.36002V5.22519C0 4.91375 0.218217 4.66108 0.487189 4.66108Z" fill="black"/>
<path d="M19.8362 22.5889C19.8379 22.7398 19.7874 22.885 19.6958 22.9921C19.6041 23.0989 19.4789 23.1586 19.3487 23.1573H0.487628C0.35709 23.1573 0.231909 23.0969 0.140563 22.9892C0.048935 22.8814 -0.00153819 22.7359 0.000439435 22.5847V7.75151C0.000439435 7.44007 0.218375 7.1874 0.487628 7.1874C0.7566 7.1874 0.974817 7.44007 0.974817 7.75151V22.029H19.3487C19.4775 22.0277 19.6016 22.0864 19.6932 22.1915C19.7846 22.2966 19.8362 22.4396 19.8362 22.5888V22.5889Z" fill="black"/>
<path d="M32 16.1806C32 16.4924 31.7818 16.7448 31.5125 16.7448C31.2436 16.7448 31.0253 16.4924 31.0253 16.1806V1.12431H0.974817V2.83361C0.974817 3.14538 0.7566 3.39772 0.487629 3.39772C0.218376 3.39772 0.000439823 3.14538 0.000439823 2.83361V0.559866C0.00241333 0.250064 0.21979 0 0.487629 0H31.5125C31.7804 0 31.998 0.250064 32 0.559866V16.1806Z" fill="black"/>
<path d="M29.2429 8.84219H2.62144C2.35416 8.84219 2.13763 8.59147 2.13763 8.282C2.13763 7.97285 2.35416 7.72213 2.62144 7.72213H29.2429C29.5101 7.72213 29.7267 7.97285 29.7267 8.282C29.7267 8.59147 29.5101 8.84219 29.2429 8.84219Z" fill="black"/>
<path d="M16.9267 12.9096H2.62144C2.35416 12.9096 2.13763 12.6589 2.13763 12.3494C2.13763 12.0403 2.35416 11.7896 2.62144 11.7896H16.9267C17.194 11.7896 17.4105 12.0403 17.4105 12.3494C17.4105 12.6589 17.194 12.9096 16.9267 12.9096Z" fill="black"/>
<path d="M16.9267 16.998H2.62144C2.35416 16.998 2.13763 16.7473 2.13763 16.4381C2.13763 16.129 2.35416 15.8782 2.62144 15.8782H16.9267C17.194 15.8782 17.4105 16.129 17.4105 16.4381C17.4105 16.7473 17.194 16.998 16.9267 16.998Z" fill="black"/>
<path d="M22.8033 3.95824H9.19596C9.06007 3.97162 8.9253 3.91874 8.82465 3.81199C8.724 3.70491 8.66676 3.55409 8.66676 3.39608C8.66676 3.23807 8.724 3.08726 8.82465 2.98018C8.9253 2.87343 9.06007 2.82021 9.19596 2.83393H22.8033C22.9392 2.82022 23.074 2.87343 23.1746 2.98018C23.2753 3.08725 23.3325 3.23807 23.3325 3.39608C23.3325 3.55409 23.2753 3.70491 23.1746 3.81199C23.074 3.91873 22.9392 3.97163 22.8033 3.95824Z" fill="black"/>
</svg>
